<svg width="30" height="30" viewBox="0 0 30 30" fill="none" xmlns="http://www.w3.org/2000/svg">
<path d="M14.9999 0C6.72881 0 0 6.72881 0 14.9999C0 23.2712 6.72881 30 14.9999 30C23.2712 30 30 23.2712 30 14.9999C29.9998 6.72881 23.2712 0 14.9999 0ZM14.9999 27.4999C8.10742 27.4999 2.49994 21.8924 2.49994 14.9999C2.49994 8.10742 8.10742 2.49994 14.9999 2.49994C21.8924 2.49994 27.4998 8.10742 27.4998 14.9999C27.4998 21.8924 21.8924 27.4999 14.9999 27.4999ZM20.8099 18.6762L15.6248 15.6775V7.50003C15.6248 6.81001 15.0648 6.24999 14.375 6.24999C13.6849 6.24999 13.1249 6.81001 13.1249 7.50003V16.25C13.1249 16.7138 13.7012 17.1026 14.0762 17.3176C14.18 17.4737 14.465 17.6151 14.6387 17.7151L19.7949 20.8402C20.3925 21.185 21.0401 20.9801 21.3849 20.3825C21.73 19.7849 21.4088 19.0212 20.8099 18.6762Z" fill="black" fill-opacity="0.85"/>
</svg>
