<svg width="26" height="30" viewBox="0 0 26 30" fill="none" xmlns="http://www.w3.org/2000/svg">
<path d="M21.1111 0H4.44444C2 0 0 2 0 4.44444V25.5556C0 28 2 30 4.44444 30H16.7222C17.8889 30 19 29.5556 19.8889 28.7222L24.2778 24.3333C25.1111 23.5 25.5556 22.3889 25.5556 21.1667V4.44444C25.5556 2 23.5556 0 21.1111 0ZM2.22222 25.5556V4.44444C2.22222 3.22222 3.22222 2.22222 4.44444 2.22222H21.1111C22.3333 2.22222 23.3333 3.22222 23.3333 4.44444V20.5556H20C17.5556 20.5556 15.5556 22.5556 15.5556 25V27.7778H4.44444C3.22222 27.7778 2.22222 26.7778 2.22222 25.5556ZM18.2778 27.1111C18.1111 27.2778 17.9444 27.3889 17.7778 27.5V25C17.7778 23.7778 18.7778 22.7778 20 22.7778H22.6111L18.2778 27.1111Z" fill="black" fill-opacity="0.85"/>
<path d="M7.77778 9.44444H17.7778C18.3889 9.44444 18.8889 8.94444 18.8889 8.33333C18.8889 7.72222 18.3889 7.22222 17.7778 7.22222H7.77778C7.16667 7.22222 6.66667 7.72222 6.66667 8.33333C6.66667 8.94444 7.16667 9.44444 7.77778 9.44444ZM12.2222 18.3333H7.77778C7.16667 18.3333 6.66667 18.8333 6.66667 19.4444C6.66667 20.0556 7.16667 20.5556 7.77778 20.5556H12.2222C12.8333 20.5556 13.3333 20.0556 13.3333 19.4444C13.3333 18.8333 12.8333 18.3333 12.2222 18.3333ZM7.77778 15H17.7778C18.3889 15 18.8889 14.5 18.8889 13.8889C18.8889 13.2778 18.3889 12.7778 17.7778 12.7778H7.77778C7.16667 12.7778 6.66667 13.2778 6.66667 13.8889C6.66667 14.5 7.16667 15 7.77778 15Z" fill="black" fill-opacity="0.85"/>
</svg>
