<svg width="30" height="30" viewBox="0 0 30 30" fill="none" xmlns="http://www.w3.org/2000/svg">
<path d="M11.5975 8.50869C11.5975 10.413 10.0406 11.9699 8.13627 11.9699C6.23197 11.9699 4.67506 10.413 4.67506 8.50869C4.67506 6.60021 6.23197 5.04748 8.13627 5.04748C10.0447 5.04748 11.5975 6.6044 11.5975 8.50869ZM9.2914 8.50869C9.2914 7.86835 8.77243 7.35774 8.14045 7.35774C7.50848 7.35774 6.98951 7.87672 6.98951 8.50869C6.98951 9.14067 7.50848 9.65964 8.14045 9.65964C8.77243 9.66801 9.2914 9.14904 9.2914 8.50869Z" fill="black"/>
<path d="M18.4863 4.00115L28.9453 14.6234C29.615 15.2763 30 16.2054 30 17.1931C30 18.1725 29.6191 19.1016 28.9579 19.7378L19.474 28.9746C18.1599 30.247 15.6613 30.2512 14.3429 28.9705L2.55301 17.4359C0.518973 15.4604 4.93243e-08 14.6694 0 11.995V6.92246C0 2.13452 0.975167 3.11444e-05 6.73828 3.10947e-05H11.4969C14.4224 -0.00833946 16.1258 1.67414 18.4863 4.00115ZM17.8125 27.0871L27.1205 18.026C27.334 17.8167 27.4554 17.4986 27.4554 17.1513C27.4554 16.7955 27.3298 16.4691 27.0871 16.2347L17.7748 6.7425L16.829 5.82174C14.5229 3.54495 13.4222 2.5363 11.5555 2.5363H6.88477C2.83343 2.5363 2.53627 3.16409 2.53627 7.06476V12.0452C2.53627 13.8365 2.5865 14.05 4.35686 15.7659L15.9291 27.0871C16.1551 27.3089 16.4941 27.4303 16.8666 27.4303C17.2391 27.4303 17.5865 27.3047 17.8125 27.0871Z" fill="black"/>
</svg>
