# 3ds Max Wavefront OBJ Exporter v0.97b - (c)2007 guruware
# File Created: 04.09.2019 10:56:21

mtllib bijiben.mtl

#
# object Box1633
#

v  19.1250 34.1820 25.9316
v  19.1250 34.1820 -25.9316
v  13.3125 1.4589 -25.9316
v  13.3125 1.4589 25.9316
v  19.7500 34.0708 25.9316
v  14.8125 2.0284 25.9316
v  14.8125 2.0284 -25.9316
v  19.7500 34.0708 -25.9316
v  -19.7500 0.1339 25.9316
v  -19.7500 0.1339 -25.9316
v  13.3125 0.1339 -25.9316
v  13.3125 0.1339 25.9316
v  -19.7500 0.7742 25.9316
v  13.3125 1.4066 25.9316
v  13.3125 1.4066 -25.9316
v  -19.7500 0.7742 -25.9316
# 16 vertices

vn -0.4674 0.6695 0.5773
vn -0.4673 0.6695 -0.5774
vn -0.5310 -0.6410 -0.5542
vn -0.5309 -0.6411 0.5542
vn 0.6634 0.4745 0.5786
vn 0.6163 -0.4988 0.6094
vn 0.6163 -0.4988 -0.6094
vn 0.6634 0.4745 -0.5786
vn -0.5774 -0.5774 0.5774
vn -0.5774 -0.5774 -0.5774
vn 0.5774 -0.5774 -0.5774
vn 0.5774 -0.5774 0.5774
vn -0.5823 0.5713 0.5784
vn 0.5723 0.5833 0.5764
vn 0.5723 0.5833 -0.5764
vn -0.5823 0.5713 -0.5784
# 16 vertex normals

vt 0.5160 0.6539 0.0000
vt 0.5160 0.0411 0.0000
vt 0.9087 0.0411 0.0000
vt 0.9087 0.6539 0.0000
vt 0.5353 0.9702 0.0000
vt 0.5353 0.6886 0.0000
vt 0.9859 0.6886 0.0000
vt 0.9859 0.9702 0.0000
vt 0.3076 0.9077 0.0000
vt 0.0188 0.9080 0.0000
vt 0.0260 0.8960 0.0000
vt 0.3076 0.9022 0.0000
vt 0.4706 0.7066 0.0000
vt 0.0200 0.7066 0.0000
vt 0.0200 0.6946 0.0000
vt 0.4706 0.6946 0.0000
vt 0.3087 0.8389 0.0000
vt 0.0200 0.8386 0.0000
vt 0.0200 0.8330 0.0000
vt 0.3016 0.8269 0.0000
vt 0.4694 0.7875 0.0000
vt 0.0188 0.7875 0.0000
vt 0.0188 0.7819 0.0000
vt 0.4694 0.7819 0.0000
vt 0.4685 0.9715 0.0000
vt 0.0179 0.9715 0.0000
vt 0.0179 0.6886 0.0000
vt 0.4685 0.6886 0.0000
vt 0.0235 0.0325 0.0000
vt 0.4160 0.0325 0.0000
vt 0.4160 0.6598 0.0000
vt 0.0235 0.6598 0.0000
vt 0.3072 0.7680 0.0000
vt 0.0200 0.7618 0.0000
vt 0.0202 0.7508 0.0000
vt 0.3073 0.7624 0.0000
vt 0.0188 0.7122 0.0000
vt 0.4694 0.7122 0.0000
vt 0.4694 0.7231 0.0000
vt 0.0188 0.7231 0.0000
vt 0.3072 0.8941 0.0000
vt 0.0200 0.8890 0.0000
vt 0.0201 0.8834 0.0000
vt 0.3074 0.8830 0.0000
vt 0.0188 0.8317 0.0000
vt 0.4694 0.8317 0.0000
vt 0.4694 0.8371 0.0000
vt 0.0188 0.8371 0.0000
# 48 texture coords

o Box1633
g Box1633
usemtl Material__25
s 1
f 1/1/1 2/2/2 3/3/3 
f 3/3/3 4/4/4 1/1/1 
f 5/5/5 6/6/6 7/7/7 
f 7/7/7 8/8/8 5/5/5 
f 1/9/1 4/10/4 6/11/6 
f 6/11/6 5/12/5 1/9/1 
f 4/13/4 3/14/3 7/15/7 
f 7/15/7 6/16/6 4/13/4 
f 3/17/3 2/18/2 8/19/8 
f 8/19/8 7/20/7 3/17/3 
f 2/21/2 1/22/1 5/23/5 
f 5/23/5 8/24/8 2/21/2 
f 9/25/9 10/26/10 11/27/11 
f 11/27/11 12/28/12 9/25/9 
f 13/29/13 14/30/14 15/31/15 
f 15/31/15 16/32/16 13/29/13 
f 9/33/9 12/34/12 14/35/14 
f 14/35/14 13/36/13 9/33/9 
f 12/37/12 11/38/11 15/39/15 
f 15/39/15 14/40/14 12/37/12 
f 11/41/11 10/42/10 16/43/16 
f 16/43/16 15/44/15 11/41/11 
f 10/45/10 9/46/9 13/47/13 
f 13/47/13 16/48/16 10/45/10 
# 0 polygons - 24 triangles

