# 3ds Max Wavefront OBJ Exporter v0.97b - (c)2007 guruware
# File Created: 04.09.2019 15:12:04

mtllib chajizi.mtl

#
# object Box1719
#

v  -32.2109 39.4104 21.0000
v  32.2109 39.4104 21.0000
v  -32.2109 39.4104 -21.0000
v  32.2109 39.4104 -21.0000
v  32.2109 35.8923 -21.0000
v  32.2109 35.8923 21.0000
v  -32.2109 35.8923 -21.0000
v  -32.2109 35.8923 21.0000
# 8 vertices

vn -0.5774 0.5774 0.5774
vn 0.5774 0.5774 0.5774
vn -0.5774 0.5774 -0.5774
vn 0.5774 0.5774 -0.5774
vn 0.5774 -0.5774 -0.5774
vn 0.5774 -0.5774 0.5774
vn -0.5774 -0.5774 -0.5774
vn -0.5774 -0.5774 0.5774
# 8 vertex normals

vt 0.0813 1.0000 0.5243
vt 0.0812 0.0000 0.5243
vt 0.9188 1.0000 0.5243
vt 0.9187 0.0000 0.5243
vt 0.0813 0.0000 0.4757
vt 0.9188 0.0000 0.4757
vt 0.0812 1.0000 0.4757
vt 0.9187 1.0000 0.4757
vt 0.9187 0.5243 0.0000
vt 0.0812 0.5243 0.0000
vt 0.9187 0.4757 0.0000
vt 0.0812 0.4757 0.0000
vt 1.0000 0.5243 0.9188
vt 0.0000 0.5243 0.9187
vt 1.0000 0.4757 0.9188
vt 0.0000 0.4757 0.9187
vt 0.9187 0.5243 1.0000
vt 0.0812 0.5243 1.0000
vt 0.9187 0.4757 1.0000
vt 0.0812 0.4757 1.0000
vt 1.0000 0.5243 0.0812
vt 0.0000 0.5243 0.0813
vt 1.0000 0.4757 0.0812
vt 0.0000 0.4757 0.0813
# 24 texture coords

o Box1719
g Box1719
usemtl chajizi_Material__25
s 1
f 1/1/1 2/2/2 3/3/3 
f 4/4/4 3/3/3 2/2/2 
f 5/5/5 6/6/6 7/7/7 
f 8/8/8 7/7/7 6/6/6 
s 2
f 4/9/4 2/10/2 5/11/5 
f 6/12/6 5/11/5 2/10/2 
s 4
f 3/13/3 4/14/4 7/15/7 
f 5/16/5 7/15/7 4/14/4 
s 2
f 1/17/1 3/18/3 8/19/8 
f 7/20/7 8/19/8 3/18/3 
s 4
f 2/21/2 1/22/1 6/23/6 
f 8/24/8 6/23/6 1/22/1 
# 0 polygons - 12 triangles

#
# object Box1723
#

v  31.8750 35.7821 20.7500
v  31.8750 33.3512 20.7500
v  31.8750 33.3512 -20.7500
v  31.8750 35.7821 -20.7500
v  -31.8750 33.3512 -20.7500
v  -31.8750 35.7821 -20.7500
v  -31.8750 33.3512 20.7500
v  -31.8750 35.7821 20.7500
v  30.4041 33.3512 19.7925
v  30.4041 33.3512 -19.7925
v  -30.4042 33.3512 -19.7925
v  -30.4042 33.3512 19.7925
v  30.4041 35.8450 19.7925
v  30.4041 35.8450 -19.7925
v  -30.4042 35.8450 -19.7925
v  -30.4042 35.8450 19.7925
v  31.8755 35.8284 20.7499
v  31.8756 -0.0547 20.7498
v  31.8755 -0.0547 19.0002
v  31.8755 35.8284 16.7500
v  27.5156 35.8284 20.7499
v  29.9384 -0.0547 20.7499
v  27.5156 35.8284 16.7500
v  29.9379 -0.0547 19.0010
v  31.8755 35.8284 -20.7499
v  31.8755 -0.0547 -19.0002
v  31.8756 -0.0547 -20.7498
v  31.8755 35.8284 -16.7500
v  27.5156 35.8284 -20.7499
v  29.9384 -0.0547 -20.7499
v  27.5156 35.8284 -16.7500
v  29.9379 -0.0547 -19.0010
v  -31.9224 35.8284 20.7499
v  -31.9224 -0.0547 19.0002
v  -31.9226 -0.0547 20.7498
v  -31.9224 35.8284 16.7500
v  -27.5625 35.8284 20.7499
v  -29.9853 -0.0547 20.7499
v  -27.5625 35.8284 16.7500
v  -29.9848 -0.0547 19.0010
v  -31.9224 35.8284 -20.7499
v  -31.9226 -0.0547 -20.7498
v  -31.9224 -0.0547 -19.0002
v  -31.9224 35.8284 -16.7500
v  -27.5625 35.8284 -20.7499
v  -29.9853 -0.0547 -20.7499
v  -27.5625 35.8284 -16.7500
v  -29.9848 -0.0547 -19.0010
# 48 vertices

vn 0.7071 0.0000 0.7071
vn 0.7071 0.0000 -0.7071
vn -0.7071 0.0000 -0.7071
vn -0.7071 0.0000 0.7071
vn 0.0000 -1.0000 -0.0000
vn -1.0000 0.0000 -0.0000
vn 0.0000 0.0000 1.0000
vn 1.0000 0.0000 -0.0000
vn 0.0000 0.0000 -1.0000
vn 0.7071 -0.0000 0.7071
vn 0.7206 -0.0434 -0.6920
vn 0.6926 -0.0452 -0.7199
vn 0.0000 -0.0000 1.0000
vn -0.9977 -0.0674 0.0000
vn -0.9977 -0.0673 0.0003
vn -0.9977 -0.0673 0.0002
vn -0.0004 -0.0626 -0.9980
vn 0.0000 -0.0626 -0.9980
vn 0.7071 -0.0000 -0.7071
vn 0.7206 -0.0434 0.6920
vn 0.6926 -0.0452 0.7199
vn 0.0000 -0.0000 -1.0000
vn -0.9977 -0.0674 -0.0000
vn -0.9977 -0.0673 -0.0002
vn -0.9977 -0.0673 -0.0003
vn -0.0004 -0.0626 0.9980
vn 0.0000 -0.0626 0.9980
vn -0.7071 -0.0000 0.7071
vn -0.7206 -0.0434 -0.6920
vn -0.6926 -0.0452 -0.7199
vn -0.0000 -0.0000 1.0000
vn -0.0000 0.0000 1.0000
vn 0.9977 -0.0674 0.0000
vn 0.9977 -0.0673 0.0002
vn 0.9977 -0.0673 0.0003
vn 0.0004 -0.0626 -0.9980
vn -0.7071 -0.0000 -0.7071
vn -0.7206 -0.0434 0.6920
vn -0.6926 -0.0452 0.7199
vn -0.0000 -0.0000 -1.0000
vn -0.0000 0.0000 -1.0000
vn 0.9977 -0.0674 -0.0000
vn 0.9977 -0.0673 -0.0003
vn 0.9977 -0.0673 -0.0002
vn 0.0004 -0.0626 0.9980
# 45 vertex normals

vt 0.0000 0.0000 0.0000
vt 0.0000 -2.4310 0.0000
vt 41.8750 -2.4310 0.0000
vt 41.8750 0.0000 0.0000
vt 64.4219 -2.4310 0.0000
vt 64.4219 0.0000 0.0000
# 6 texture coords

o Box1723
g Box1723
usemtl chajizi_chajizi_Material__25
s 1
f 9/25/9 10/26/9 11/27/10 
f 11/27/10 12/28/10 9/25/9 
s 2
f 12/25/10 11/26/10 13/29/11 
f 13/29/11 14/30/11 12/25/10 
s 1
f 14/25/11 13/26/11 15/27/12 
f 15/27/12 16/28/12 14/25/11 
s 2
f 16/25/12 15/26/12 10/29/9 
f 10/29/9 9/30/9 16/25/12 
usemtl chajizi_chajizi____________ooo
s 4
f 17/26/13 18/27/13 11/27/9 10/26/13 
f 19/29/13 13/29/13 11/26/9 18/26/9 
f 20/27/13 15/27/13 13/26/13 19/26/13 
f 17/29/13 10/29/13 15/26/13 20/26/13 
s 1
f 21/26/14 22/27/14 18/27/14 17/26/14 
s 2
f 22/26/15 23/29/15 19/29/15 18/26/15 
s 1
f 19/26/16 23/26/16 24/27/16 20/27/16 
s 2
f 24/26/17 21/29/17 17/29/17 20/26/17 
usemtl chajizi_chajizi_Material__25
s 1
f 25/25/18 26/26/9 27/27/19 
f 27/27/19 28/28/20 25/25/18 
s 2
f 29/25/21 30/26/15 26/29/9 
f 26/29/9 25/30/18 29/25/21 
usemtl chajizi_chajizi____________ooo
s 1
f 31/25/22 32/26/23 30/27/24 
f 30/27/24 29/28/22 31/25/22 
s 2
f 28/25/20 27/26/19 32/29/25 
f 32/29/25 31/30/26 28/25/20 
usemtl chajizi_chajizi_Material__25
s 1
f 33/25/27 34/27/28 35/26/10 
f 34/27/28 33/25/27 36/28/29 
s 2
f 37/25/30 35/29/10 38/26/17 
f 35/29/10 37/25/30 33/30/27 
usemtl chajizi_chajizi____________ooo
s 1
f 39/25/31 38/27/32 40/26/33 
f 38/27/32 39/25/31 37/28/31 
s 2
f 36/25/29 40/29/34 34/26/28 
f 40/29/34 36/25/29 39/30/35 
usemtl chajizi_chajizi_Material__25
s 1
f 41/25/36 42/27/37 43/26/12 
f 42/27/37 41/25/36 44/28/38 
s 2
f 45/25/39 43/29/12 46/26/40 
f 43/29/12 45/25/39 41/30/36 
usemtl chajizi_chajizi____________ooo
s 1
f 47/25/41 46/27/42 48/26/43 
f 46/27/42 47/25/41 45/28/41 
s 2
f 44/25/38 48/29/44 42/26/37 
f 48/29/44 44/25/38 47/30/26 
usemtl chajizi_chajizi_Material__25
s 1
f 49/25/45 50/26/11 51/27/46 
f 51/27/46 52/28/47 49/25/45 
s 2
f 53/25/48 54/26/49 50/29/11 
f 50/29/11 49/30/45 53/25/48 
usemtl chajizi_chajizi____________ooo
s 1
f 55/25/50 56/26/51 54/27/52 
f 54/27/52 53/28/50 55/25/50 
s 2
f 52/25/47 51/26/46 56/29/53 
f 56/29/53 55/30/35 52/25/47 
# 8 polygons - 40 triangles

