# 3ds Max Wavefront OBJ Exporter v0.97b - (c)2007 guruware
# File Created: 04.09.2019 16:16:13

mtllib huapen.mtl

#
# object huapen
#

v  5.5431 0.0000 -0.0000
v  4.8005 0.0000 -2.7716
v  6.1737 1.1586 -3.5644
v  7.1287 1.1586 -0.0000
v  2.7716 0.0000 -4.8005
v  3.5644 1.1586 -6.1737
v  0.0000 0.0000 -5.5431
v  0.0000 1.1586 -7.1287
v  -2.7716 0.0000 -4.8005
v  -3.5644 1.1586 -6.1737
v  -4.8005 0.0000 -2.7716
v  -6.1737 1.1586 -3.5644
v  -5.5431 0.0000 -0.0000
v  -7.1287 1.1586 -0.0000
v  -4.8005 0.0000 2.7716
v  -6.1737 1.1586 3.5644
v  -2.7716 0.0000 4.8005
v  -3.5816 1.1586 6.1690
v  0.0000 0.0000 5.5431
v  0.0172 1.1586 7.1334
v  2.7716 0.0000 4.8005
v  3.5644 1.1586 6.1737
v  4.8005 0.0000 2.7716
v  6.1737 1.1586 3.5644
v  8.9790 6.3234 -0.0000
v  8.4464 3.3427 -0.0000
v  7.3148 3.3427 -4.2232
v  7.7760 6.3234 -4.4895
v  4.2232 3.3427 -7.3148
v  4.4895 6.3234 -7.7760
v  0.0000 3.3427 -8.4464
v  0.0000 6.3234 -8.9790
v  -4.2232 3.3427 -7.3148
v  -4.4895 6.3234 -7.7760
v  -7.3148 3.3427 -4.2232
v  -7.7760 6.3234 -4.4895
v  -8.4464 3.3427 -0.0000
v  -8.9790 6.3234 -0.0000
v  -7.3148 3.3427 4.2232
v  -7.7760 6.3234 4.4895
v  -4.2232 3.3427 7.3148
v  -4.4895 6.3234 7.7760
v  0.0000 3.3427 8.4464
v  0.0000 6.3234 8.9790
v  4.2232 3.3427 7.3148
v  4.4895 6.3234 7.7760
v  7.3148 3.3427 4.2232
v  7.7760 6.3234 4.4895
v  9.0035 16.6009 -0.0000
v  7.7972 16.6009 -4.5017
v  4.5017 16.6009 -7.7972
v  0.0000 16.6009 -9.0035
v  -4.5017 16.6009 -7.7972
v  -7.7972 16.6009 -4.5017
v  -9.0035 16.6009 -0.0000
v  -7.7972 16.6009 4.5017
v  -4.5017 16.6009 7.7972
v  0.0000 16.6009 9.0035
v  4.5017 16.6009 7.7972
v  7.7972 16.6009 4.5018
v  6.9245 16.6009 -0.0000
v  5.9968 16.6009 -3.4623
v  3.4623 16.6009 -5.9968
v  0.0000 16.6009 -6.9245
v  -3.4623 16.6009 -5.9968
v  -5.9968 16.6009 -3.4623
v  -6.9245 16.6009 -0.0000
v  -5.9968 16.6009 3.4623
v  -3.4623 16.6009 5.9968
v  0.0000 16.6009 6.9245
v  3.4623 16.6009 5.9968
v  5.9968 16.6009 3.4623
v  6.9245 15.8082 -0.0000
v  5.9968 15.8082 -3.4623
v  3.4623 15.8082 -5.9968
v  0.0000 15.8082 -6.9245
v  -3.4623 15.8082 -5.9968
v  -5.9968 15.8082 -3.4623
v  -6.9245 15.8082 -0.0000
v  -5.9968 15.8082 3.4623
v  -3.4623 15.8082 5.9968
v  0.0000 15.8082 6.9245
v  3.4623 15.8082 5.9968
v  5.9968 15.8082 3.4623
v  0.0000 17.0801 -0.0000
# 85 vertices

vn 0.5900 -0.8074 0.0000
vn 0.5109 -0.8074 -0.2950
vn 0.6511 -0.6594 -0.3759
vn 0.7518 -0.6594 0.0000
vn 0.2950 -0.8074 -0.5109
vn 0.3759 -0.6594 -0.6511
vn -0.0000 -0.8074 -0.5900
vn -0.0000 -0.6594 -0.7518
vn -0.2950 -0.8074 -0.5109
vn -0.3759 -0.6594 -0.6511
vn -0.5109 -0.8074 -0.2950
vn -0.6511 -0.6594 -0.3759
vn -0.5900 -0.8074 -0.0000
vn -0.7518 -0.6594 -0.0000
vn -0.5109 -0.8074 0.2950
vn -0.6513 -0.6594 0.3756
vn -0.2942 -0.8080 0.5105
vn -0.3776 -0.6591 0.6503
vn -0.0011 -0.8082 0.5889
vn 0.0013 -0.6593 0.7519
vn 0.2953 -0.8077 0.5103
vn 0.3767 -0.6595 0.6506
vn 0.5109 -0.8074 0.2950
vn 0.6511 -0.6594 0.3759
vn 0.9961 -0.0882 0.0000
vn 0.9395 -0.3426 0.0000
vn 0.8136 -0.3426 -0.4697
vn 0.8626 -0.0882 -0.4981
vn 0.4697 -0.3426 -0.8136
vn 0.4981 -0.0882 -0.8626
vn -0.0000 -0.3426 -0.9395
vn -0.0000 -0.0882 -0.9961
vn -0.4697 -0.3426 -0.8136
vn -0.4981 -0.0882 -0.8626
vn -0.8136 -0.3426 -0.4697
vn -0.8626 -0.0882 -0.4981
vn -0.9395 -0.3426 -0.0000
vn -0.9961 -0.0882 -0.0000
vn -0.8136 -0.3426 0.4697
vn -0.8626 -0.0882 0.4981
vn -0.4697 -0.3422 0.8138
vn -0.4981 -0.0882 0.8626
vn -0.0004 -0.3419 0.9397
vn -0.0000 -0.0882 0.9961
vn 0.4700 -0.3423 0.8136
vn 0.4980 -0.0882 0.8626
vn 0.8136 -0.3426 0.4697
vn 0.8626 -0.0882 0.4981
vn 1.0000 -0.0024 0.0000
vn 0.8660 -0.0024 -0.5000
vn 0.5000 -0.0024 -0.8660
vn 0.0000 -0.0024 -1.0000
vn -0.5000 -0.0024 -0.8660
vn -0.8660 -0.0024 -0.5000
vn -1.0000 -0.0024 -0.0000
vn -0.8660 -0.0024 0.5000
vn -0.5000 -0.0024 0.8660
vn -0.0000 -0.0024 1.0000
vn 0.5000 -0.0024 0.8660
vn 0.8660 -0.0024 0.5000
vn -0.0000 1.0000 0.0000
vn 0.0000 1.0000 0.0000
vn 0.0000 1.0000 -0.0000
vn -0.0000 1.0000 -0.0000
vn -0.9659 0.0000 0.2588
vn -0.7071 0.0000 0.7071
vn -0.2588 0.0000 0.9659
vn 0.2588 0.0000 0.9659
vn 0.9659 0.0000 0.2588
vn 0.9659 -0.0000 -0.2588
vn 0.9659 0.0000 -0.2588
vn 0.7071 0.0000 -0.7071
vn 0.2588 0.0000 -0.9659
vn -0.2588 0.0000 -0.9659
vn -0.7071 0.0000 -0.7071
vn -0.9659 0.0000 -0.2588
vn -0.9659 -0.0000 -0.2588
vn 0.1804 0.9824 -0.0483
vn 0.1321 0.9824 -0.1321
vn 0.0483 0.9824 -0.1804
vn -0.0483 0.9824 -0.1804
vn -0.1321 0.9824 -0.1321
vn -0.1804 0.9824 -0.0483
vn -0.1804 0.9824 0.0483
vn -0.1321 0.9824 0.1321
vn -0.0483 0.9824 0.1804
vn 0.0483 0.9824 0.1804
vn 0.1321 0.9824 0.1321
vn 0.1804 0.9824 0.0483
vn 0.7071 0.0000 0.7071
# 90 vertex normals

vt 0.3175 0.3320 0.0000
vt 0.2598 0.3497 0.0000
vt 0.2470 0.3189 0.0000
vt 0.3086 0.2999 0.0000
vt 0.2072 0.3724 0.0000
vt 0.1884 0.3444 0.0000
vt 0.1658 0.4040 0.0000
vt 0.1376 0.3822 0.0000
vt 0.8393 0.3978 0.0000
vt 0.7974 0.3670 0.0000
vt 0.8156 0.3387 0.0000
vt 0.8671 0.3755 0.0000
vt 0.7444 0.3453 0.0000
vt 0.7566 0.3143 0.0000
vt 0.6862 0.3287 0.0000
vt 0.6946 0.2964 0.0000
vt 0.6257 0.3168 0.0000
vt 0.6311 0.2838 0.0000
vt 0.5640 0.3097 0.0000
vt 0.5667 0.2763 0.0000
vt 0.5017 0.3078 0.0000
vt 0.5011 0.2742 0.0000
vt 0.4395 0.3109 0.0000
vt 0.4364 0.2775 0.0000
vt 0.3779 0.3191 0.0000
vt 0.3719 0.2862 0.0000
vt 0.2824 0.2088 0.0000
vt 0.2963 0.2581 0.0000
vt 0.2298 0.2793 0.0000
vt 0.2113 0.2322 0.0000
vt 0.1645 0.3079 0.0000
vt 0.1410 0.2622 0.0000
vt 0.1026 0.3476 0.0000
vt 0.0709 0.2976 0.0000
vt 0.9322 0.2896 0.0000
vt 0.9014 0.3402 0.0000
vt 0.8389 0.3018 0.0000
vt 0.8615 0.2556 0.0000
vt 0.7731 0.2744 0.0000
vt 0.7907 0.2269 0.0000
vt 0.7062 0.2544 0.0000
vt 0.7192 0.2049 0.0000
vt 0.6384 0.2405 0.0000
vt 0.6469 0.1895 0.0000
vt 0.5699 0.2324 0.0000
vt 0.5739 0.1806 0.0000
vt 0.5010 0.2302 0.0000
vt 0.5005 0.1781 0.0000
vt 0.4322 0.2337 0.0000
vt 0.4272 0.1820 0.0000
vt 0.3638 0.2431 0.0000
vt 0.3545 0.1922 0.0000
vt 0.2375 0.0390 0.0000
vt 0.1551 0.0659 0.0000
vt 0.0768 0.0983 0.0000
vt 0.0020 0.1311 0.0000
vt 0.9980 0.1219 0.0000
vt 0.9226 0.0905 0.0000
vt 0.8437 0.0596 0.0000
vt 0.7607 0.0341 0.0000
vt 0.6748 0.0158 0.0000
vt 0.5872 0.0050 0.0000
vt 0.4988 0.0020 0.0000
vt 0.4105 0.0067 0.0000
vt 0.3231 0.0190 0.0000
vt 0.3625 0.4846 0.0000
vt 0.3149 0.4319 0.0000
vt 0.4610 0.3571 0.0000
vt 0.4759 0.4265 0.0000
vt 0.6249 0.3654 0.0000
vt 0.6030 0.4330 0.0000
vt 0.7627 0.4545 0.0000
vt 0.7100 0.5021 0.0000
vt 0.8375 0.6006 0.0000
vt 0.7680 0.6155 0.0000
vt 0.8292 0.7645 0.0000
vt 0.7616 0.7427 0.0000
vt 0.7401 0.9023 0.0000
vt 0.6924 0.8496 0.0000
vt 0.5940 0.9771 0.0000
vt 0.5791 0.9076 0.0000
vt 0.4301 0.9688 0.0000
vt 0.4519 0.9012 0.0000
vt 0.2923 0.8797 0.0000
vt 0.3450 0.8320 0.0000
vt 0.2175 0.7336 0.0000
vt 0.2869 0.7187 0.0000
vt 0.2257 0.5697 0.0000
vt 0.2934 0.5915 0.0000
vt 0.3797 0.5036 0.0000
vt 0.4812 0.4516 0.0000
vt 0.5952 0.4574 0.0000
vt 0.6910 0.5193 0.0000
vt 0.7429 0.6209 0.0000
vt 0.7372 0.7348 0.0000
vt 0.6752 0.8306 0.0000
vt 0.5737 0.8826 0.0000
vt 0.4598 0.8768 0.0000
vt 0.3640 0.8149 0.0000
vt 0.3120 0.7133 0.0000
vt 0.3178 0.5994 0.0000
vt 0.7347 0.7364 0.0000
vt 0.6723 0.8309 0.0000
vt 0.5272 0.6673 0.0000
vt 0.5711 0.8816 0.0000
vt 0.4580 0.8748 0.0000
vt 0.3635 0.8124 0.0000
vt 0.3129 0.7111 0.0000
vt 0.3197 0.5981 0.0000
vt 0.3821 0.5036 0.0000
vt 0.4834 0.4530 0.0000
vt 0.5964 0.4597 0.0000
vt 0.6909 0.5221 0.0000
vt 0.7415 0.6234 0.0000
# 114 texture coords

o huapen
g huapen
usemtl huapen_01_Material__3253703
s off
f 1/1/1 2/2/2 3/3/3 4/4/4 
f 2/2/2 5/5/5 6/6/6 3/3/3 
f 5/5/5 7/7/7 8/8/8 6/6/6 
f 7/9/7 9/10/9 10/11/10 8/12/8 
f 9/10/9 11/13/11 12/14/12 10/11/10 
f 11/13/11 13/15/13 14/16/14 12/14/12 
f 13/15/13 15/17/15 16/18/16 14/16/14 
f 15/17/15 17/19/17 18/20/18 16/18/16 
f 17/19/17 19/21/19 20/22/20 18/20/18 
f 19/21/19 21/23/21 22/24/22 20/22/20 
f 21/23/21 23/25/23 24/26/24 22/24/22 
f 23/25/23 1/1/1 4/4/4 24/26/24 
f 25/27/25 26/28/26 27/29/27 28/30/28 
f 28/30/28 27/29/27 29/31/29 30/32/30 
f 30/32/30 29/31/29 31/33/31 32/34/32 
f 32/35/32 31/36/31 33/37/33 34/38/34 
f 34/38/34 33/37/33 35/39/35 36/40/36 
f 36/40/36 35/39/35 37/41/37 38/42/38 
f 38/42/38 37/41/37 39/43/39 40/44/40 
f 40/44/40 39/43/39 41/45/41 42/46/42 
f 42/46/42 41/45/41 43/47/43 44/48/44 
f 44/48/44 43/47/43 45/49/45 46/50/46 
f 46/50/46 45/49/45 47/51/47 48/52/48 
f 48/52/48 47/51/47 26/28/26 25/27/25 
f 49/53/49 25/27/25 28/30/28 50/54/50 
f 50/54/50 28/30/28 30/32/30 51/55/51 
f 51/55/51 30/32/30 32/34/32 52/56/52 
f 52/57/52 32/35/32 34/38/34 53/58/53 
f 53/58/53 34/38/34 36/40/36 54/59/54 
f 54/59/54 36/40/36 38/42/38 55/60/55 
f 55/60/55 38/42/38 40/44/40 56/61/56 
f 56/61/56 40/44/40 42/46/42 57/62/57 
f 57/62/57 42/46/42 44/48/44 58/63/58 
f 58/63/58 44/48/44 46/50/46 59/64/59 
f 59/64/59 46/50/46 48/52/48 60/65/60 
f 60/65/60 48/52/48 25/27/25 49/53/49 
f 61/66/61 49/67/61 50/68/61 62/69/61 
f 62/69/61 50/68/61 51/70/61 63/71/61 
f 63/71/61 51/70/61 52/72/61 64/73/61 
f 64/73/62 52/72/62 53/74/62 65/75/62 
f 65/75/62 53/74/62 54/76/62 66/77/62 
f 66/77/62 54/76/62 55/78/62 67/79/62 
f 67/79/63 55/78/63 56/80/63 68/81/63 
f 68/81/63 56/80/63 57/82/63 69/83/63 
f 69/83/63 57/82/63 58/84/63 70/85/63 
f 70/85/64 58/84/64 59/86/64 71/87/64 
f 71/87/64 59/86/64 60/88/64 72/89/64 
f 72/89/64 60/88/64 49/67/64 61/66/64 
f 73/90/65 61/66/65 62/69/65 74/91/65 
f 74/91/66 62/69/66 63/71/66 75/92/66 
f 75/92/67 63/71/67 64/73/67 76/93/67 
f 76/93/68 64/73/68 65/75/68 77/94/68 
f 78/95/69 66/77/69 67/79/69 79/96/69 
f 79/96/70 67/79/71 68/81/71 80/97/71 
f 80/97/72 68/81/72 69/83/72 81/98/72 
f 81/98/73 69/83/73 70/85/73 82/99/73 
f 82/99/74 70/85/74 71/87/74 83/100/74 
f 83/100/75 71/87/75 72/89/75 84/101/75 
f 84/101/76 72/89/77 61/66/77 73/90/77 
f 73/102/78 74/103/78 85/104/78 
f 74/103/79 75/105/79 85/104/79 
f 75/105/80 76/106/80 85/104/80 
f 76/106/81 77/107/81 85/104/81 
f 77/107/82 78/108/82 85/104/82 
f 78/108/83 79/109/83 85/104/83 
f 79/109/84 80/110/84 85/104/84 
f 80/110/85 81/111/85 85/104/85 
f 81/111/86 82/112/86 85/104/86 
f 82/112/87 83/113/87 85/104/87 
f 83/113/88 84/114/88 85/104/88 
f 84/114/89 73/102/89 85/104/89 
f 66/77/90 78/95/90 77/94/90 65/75/90 
f 3/3/3 27/29/27 26/28/26 4/4/4 
f 6/6/6 29/31/29 27/29/27 3/3/3 
f 8/8/8 31/33/31 29/31/29 6/6/6 
f 10/11/10 33/37/33 31/36/31 8/12/8 
f 12/14/12 35/39/35 33/37/33 10/11/10 
f 14/16/14 37/41/37 35/39/35 12/14/12 
f 16/18/16 39/43/39 37/41/37 14/16/14 
f 18/20/18 41/45/41 39/43/39 16/18/16 
f 20/22/20 43/47/43 41/45/41 18/20/18 
f 22/24/22 45/49/45 43/47/43 20/22/20 
f 24/26/24 47/51/47 45/49/45 22/24/22 
f 4/4/4 26/28/26 47/51/47 24/26/24 
# 72 polygons - 12 triangles

