# 3ds Max Wavefront OBJ Exporter v0.97b - (c)2007 guruware
# File Created: 06.09.2019 09:21:30

mtllib ups.mtl

#
# object ups
#

v  -29.9693 0.0000 40.4499
v  -29.9693 0.0000 -50.5950
v  -24.4764 0.0000 -50.5950
v  -20.2558 0.0000 50.5950
v  -29.9693 0.0000 50.5950
v  -24.4187 205.0129 45.5224
v  -29.9693 205.0129 45.5224
v  -29.9693 205.0129 50.5950
v  -24.4187 205.0129 50.5950
v  24.4188 205.0129 50.5950
v  18.8682 0.0000 50.5950
v  29.9693 0.0000 50.5950
v  29.9693 205.0129 50.5950
v  29.9693 0.0000 41.7180
v  29.9693 205.0129 45.5224
v  -24.4187 205.0129 -50.5950
v  0.0025 205.0129 -50.5950
v  -0.4588 0.0000 -50.5950
v  24.4188 205.0129 -45.5224
v  24.4188 205.0129 0.0707
v  29.9693 205.0129 0.0707
v  29.9693 205.0129 -45.5224
v  24.4188 205.0129 45.5224
v  0.0025 205.0129 45.5224
v  0.0025 205.0129 50.5950
v  -24.4187 205.0129 -45.5224
v  0.0025 205.0129 -45.5224
v  29.9693 205.0129 -50.5950
v  29.9693 0.0000 -40.4499
v  29.9693 0.0000 -50.5950
v  24.4188 205.0129 -50.5950
v  -24.4187 205.0129 0.0707
v  -29.9693 205.0129 -45.5224
v  -29.9693 205.0129 0.0707
v  0.0025 205.0129 0.0707
v  -29.9693 205.0129 -50.5950
v  24.3611 0.0000 -50.5950
# 37 vertices

vn -0.7071 -0.7071 -0.0000
vn -0.5774 -0.5774 -0.5774
vn 0.0000 -0.7071 -0.7071
vn 0.0000 -0.7071 0.7071
vn -0.5774 -0.5774 0.5774
vn 0.0000 1.0000 -0.0000
vn -0.7071 0.7071 -0.0000
vn -0.5774 0.5774 0.5774
vn 0.0000 0.7071 0.7071
vn 0.5774 -0.5774 0.5774
vn 0.5774 0.5774 0.5774
vn 0.7071 -0.7071 -0.0000
vn 0.7071 0.7071 -0.0000
vn -0.0000 0.7071 -0.7071
vn 0.5774 0.5774 -0.5774
vn 0.5774 -0.5774 -0.5774
vn 0.0000 0.7071 -0.7071
vn -0.5774 0.5774 -0.5774
# 18 vertex normals

vt 0.3789 0.3332 0.0000
vt 0.3789 0.0043 0.0000
vt 0.4037 0.0043 0.0000
vt 0.4226 0.3801 0.0000
vt 0.3789 0.3801 0.0000
vt 0.7543 0.8194 0.0000
vt 0.7543 0.8797 0.0000
vt 0.7770 0.8797 0.0000
vt 0.7770 0.8194 0.0000
vt 0.3234 0.9995 0.0000
vt 0.3027 0.0019 0.0000
vt 0.3440 0.0019 0.0000
vt 0.3440 0.9995 0.0000
vt 0.3783 0.9989 0.0000
vt 0.3783 0.0011 0.0000
vt 0.4223 0.0011 0.0000
vt 0.4034 0.9989 0.0000
vt 0.7418 0.9987 0.0000
vt 0.5746 0.9987 0.0000
vt 0.5766 0.0020 0.0000
vt 0.7420 0.0020 0.0000
vt 0.7800 0.9989 0.0000
vt 0.7549 0.9989 0.0000
vt 0.7298 0.0011 0.0000
vt 0.7800 0.0011 0.0000
vt 0.7554 0.7505 0.0000
vt 0.7554 0.5841 0.0000
vt 0.7767 0.5841 0.0000
vt 0.7767 0.7505 0.0000
vt 0.7543 0.3975 0.0000
vt 0.7770 0.3975 0.0000
vt 0.6065 0.7505 0.0000
vt 0.6065 0.5841 0.0000
vt 0.5791 0.9989 0.0000
vt 0.4077 0.0020 0.0000
vt 0.4074 0.9987 0.0000
vt 0.7533 0.0043 0.0000
vt 0.7786 0.0043 0.0000
vt 0.7786 0.0513 0.0000
vt 0.7786 0.3390 0.0000
vt 0.7786 0.3801 0.0000
vt 0.7286 0.3801 0.0000
vt 0.1790 0.9995 0.0000
vt 0.0346 0.9995 0.0000
vt 0.0500 0.0019 0.0000
vt 0.7190 0.0011 0.0000
vt 0.7563 0.0011 0.0000
vt 0.7563 0.9990 0.0000
vt 0.7190 0.9990 0.0000
vt 0.5767 0.0043 0.0000
vt 0.0139 0.0019 0.0000
vt 0.0139 0.9995 0.0000
# 52 texture coords

o ups
g ups
usemtl Material__25
s 2
f 1/1/1 2/2/2 3/3/3 4/4/4 5/5/5 
s 4
f 6/6/6 7/7/7 8/8/8 9/9/9 
s 8
f 10/10/9 11/11/4 12/12/10 13/13/11 
s 16
f 13/14/11 12/15/10 14/16/12 15/17/13 
s 32
f 16/18/14 17/19/14 18/20/3 3/21/3 
s 64
f 8/22/8 7/23/7 1/24/1 5/25/5 
s 4
f 19/26/6 20/27/6 21/28/13 22/29/13 
f 23/6/6 24/30/6 25/31/9 10/9/9 
f 26/6/6 27/30/6 17/31/14 16/9/14 
s 16
f 28/22/15 22/23/13 29/24/12 30/25/16 
s 4
f 31/9/17 19/6/6 22/7/13 28/8/15 
f 32/27/6 26/26/6 33/29/7 34/28/7 
f 32/27/6 6/26/6 24/32/6 35/33/6 
s 16
f 14/16/12 29/24/12 22/23/13 21/34/13 15/17/13 
s 64
f 2/15/2 1/24/1 7/23/7 34/34/7 33/17/7 36/14/18 
s 4
f 20/27/6 23/26/6 15/29/13 21/28/13 
s 32
f 37/35/3 18/20/3 17/19/14 31/36/17 
s 2
f 37/37/3 30/38/16 29/39/12 14/40/12 12/41/10 11/42/4 
s 8
f 25/43/9 9/44/9 4/45/4 11/11/4 10/10/9 
s 4
f 35/33/6 20/27/6 19/26/6 27/32/6 
f 15/7/13 23/6/6 10/9/9 13/8/11 
f 27/30/6 19/6/6 31/9/17 17/31/14 
f 24/32/6 23/26/6 20/27/6 35/33/6 
s 32
f 30/46/16 37/47/3 31/48/17 28/49/15 
s 2
f 18/50/3 37/37/3 11/42/4 4/4/4 3/3/3 
s 4
f 24/30/6 6/6/6 9/9/9 25/31/9 
s 32
f 36/49/18 16/48/14 3/47/3 2/46/2 
s 4
f 33/7/7 26/6/6 16/9/14 36/8/18 
f 27/32/6 26/26/6 32/27/6 35/33/6 
f 7/29/7 6/26/6 32/27/6 34/28/7 
s 8
f 5/51/5 4/45/4 9/44/9 8/52/8 
# 31 polygons

