<?xml version="1.0" encoding="UTF-8"?>
<svg width="32px" height="33px" viewBox="0 0 32 33" version="1.1" xmlns="http://www.w3.org/2000/svg" xmlns:xlink="http://www.w3.org/1999/xlink">
    <!-- Generator: Sketch 51.1 (57501) - http://www.bohemiancoding.com/sketch -->
    <title>mdpi/存储</title>
    <desc>Created with Sketch.</desc>
    <defs></defs>
    <g id="Page-1" stroke="none" stroke-width="1" fill="none" fill-rule="evenodd">
        <g id="自定义首页资产视角" transform="translate(-894.000000, -297.000000)" fill-rule="nonzero">
            <g id="Group-4-Copy" transform="translate(878.000000, 254.000000)">
                <g id="存储" transform="translate(8.000000, 35.000000)">
                    <rect id="Rectangle-11" fill="#D8D8D8" opacity="0" x="0" y="0" width="48" height="48"></rect>
                    <g id="弹性存储" transform="translate(8.000000, 8.000000)">
                        <rect id="Rectangle-path" fill="#000000" opacity="0" x="0" y="0" width="32" height="32.4310345"></rect>
                        <rect id="Rectangle-2" stroke="#161718" stroke-width="1.68421053" x="0.842105263" y="0.842105263" width="30.3157895" height="8.55716878"></rect>
                        <rect id="Rectangle-2-Copy" stroke="#161718" stroke-width="1.68421053" x="0.842105263" y="12.2214156" width="30.3157895" height="8.55716878"></rect>
                        <rect id="Rectangle-2-Copy-2" stroke="#161718" stroke-width="1.68421053" x="0.842105263" y="23.600726" width="30.3157895" height="8.55716878"></rect>
                        <path d="M27.5087719,3.4137931 C26.6666667,3.4137931 25.8245614,4.26724138 25.8245614,5.12068966 C25.8245614,5.97413793 26.6666667,6.82758621 27.5087719,6.82758621 C28.3508772,6.82758621 29.1929825,5.97413793 29.1929825,5.12068966 C29.1929825,4.26724138 28.5614035,3.4137931 27.5087719,3.4137931 Z" id="Path" fill="#FF8441"></path>
                        <path d="M22.4561404,3.4137931 C21.6140351,3.4137931 20.7719298,4.26724138 20.7719298,5.12068966 C20.7719298,5.97413793 21.6140351,6.82758621 22.4561404,6.82758621 C23.2982456,6.82758621 24.1403509,5.97413793 24.1403509,5.12068966 C24.1403509,4.26724138 23.5087719,3.4137931 22.4561404,3.4137931 Z" id="Path" fill="#FF8441"></path>
                        <path d="M17.9649123,3.4137931 C17.122807,3.4137931 16.2807018,4.05387931 16.2807018,5.12068966 C16.2807018,6.1875 17.122807,6.82758621 17.9649123,6.82758621 C18.8070175,6.82758621 19.6491228,5.97413793 19.6491228,5.12068966 C19.6491228,4.26724138 19.0175439,3.4137931 17.9649123,3.4137931 Z" id="Path" fill="#FF8441"></path>
                        <path d="M27.5087719,14.7931034 C26.6666667,14.7931034 25.8245614,15.6465517 25.8245614,16.5 C25.8245614,17.3534483 26.6666667,18.2068966 27.5087719,18.2068966 C28.3508772,18.2068966 29.1929825,17.3534483 29.1929825,16.5 C29.1929825,15.6465517 28.5614035,14.7931034 27.5087719,14.7931034 Z" id="Path" fill="#FF8441"></path>
                        <path d="M22.4561404,14.7931034 C21.6140351,14.7931034 20.7719298,15.6465517 20.7719298,16.5 C20.7719298,17.3534483 21.6140351,18.2068966 22.4561404,18.2068966 C23.2982456,18.2068966 24.1403509,17.3534483 24.1403509,16.5 C24.1403509,15.6465517 23.5087719,14.7931034 22.4561404,14.7931034 Z" id="Path" fill="#FF8441"></path>
                        <path d="M17.9649123,14.7931034 C17.122807,14.7931034 16.2807018,15.6465517 16.2807018,16.5 C16.2807018,17.3534483 17.122807,18.2068966 17.9649123,18.2068966 C18.8070175,18.2068966 19.6491228,17.3534483 19.6491228,16.5 C19.6491228,15.6465517 19.0175439,14.7931034 17.9649123,14.7931034 Z" id="Path" fill="#FF8441"></path>
                        <path d="M27.5087719,26.1724138 C26.6666667,26.1724138 25.8245614,27.0258621 25.8245614,27.8793103 C25.8245614,28.7327586 26.6666667,29.5862069 27.5087719,29.5862069 C28.3508772,29.5862069 29.1929825,28.7327586 29.1929825,27.8793103 C29.1929825,27.0258621 28.5614035,26.1724138 27.5087719,26.1724138 Z" id="Path" fill="#FF8441"></path>
                        <path d="M22.4561404,26.1724138 C21.6140351,26.1724138 20.7719298,27.0258621 20.7719298,27.8793103 C20.7719298,28.7327586 21.6140351,29.5862069 22.4561404,29.5862069 C23.2982456,29.5862069 24.1403509,28.7327586 24.1403509,27.8793103 C24.1403509,27.0258621 23.5087719,26.1724138 22.4561404,26.1724138 Z" id="Path" fill="#FF8441"></path>
                        <path d="M17.9649123,26.1724138 C17.122807,26.1724138 16.2807018,27.0258621 16.2807018,27.8793103 C16.2807018,28.7327586 17.122807,29.5862069 17.9649123,29.5862069 C18.8070175,29.5862069 19.6491228,28.7327586 19.6491228,27.8793103 C19.6491228,27.0258621 19.0175439,26.1724138 17.9649123,26.1724138 Z" id="Path" fill="#FF8441"></path>
                    </g>
                </g>
            </g>
        </g>
    </g>
</svg>