<?xml version="1.0" encoding="UTF-8"?>
<svg width="30px" height="29px" viewBox="0 0 30 29" version="1.1" xmlns="http://www.w3.org/2000/svg" xmlns:xlink="http://www.w3.org/1999/xlink">
    <!-- Generator: Sketch 52.5 (67469) - http://www.bohemiancoding.com/sketch -->
    <title>机房环境</title>
    <desc>Created with Sketch.</desc>
    <g id="Page-1" stroke="none" stroke-width="1" fill="none" fill-rule="evenodd">
        <g id="自定义首页资产视角" transform="translate(-1207.000000, -299.000000)" fill-rule="nonzero">
            <g id="Group-4-Copy-5" transform="translate(1190.000000, 254.000000)">
                <g id="机房环境" transform="translate(8.000000, 35.000000)">
                    <polygon id="Rectangle-path" fill="#000000" opacity="0" points="0 0 48 0 48 48 0 48"></polygon>
                    <g id="IDC机房" transform="translate(9.000000, 10.000000)">
                        <rect id="Rectangle" stroke="#161718" stroke-width="1.54285714" x="1.44489796" y="0.893877551" width="8.47755102" height="26.5591837"></rect>
                        <polygon id="矩形" fill="#161718" points="10 0.115363781 21 0.115363781 21 1.64165103 10 1.64165103"></polygon>
                        <polygon id="矩形-copy" fill="#161718" points="10 26.6813986 21 26.6813986 21 28.2438406 10 28.2438406"></polygon>
                        <rect id="Rectangle-Copy-2" stroke="#161718" stroke-width="1.54285714" x="20.2153061" y="0.893877551" width="8.47755102" height="26.5591837"></rect>
                        <path d="M6.0459376,6.94135539 C5.55141202,6.94135539 5.15051982,6.54046319 5.15051982,6.0459376 C5.15051982,5.55141202 5.55141202,5.15051982 6.0459376,5.15051982 C6.53816199,5.15374641 6.93548594,5.55368341 6.93548594,6.04591837 C6.93548594,6.53815333 6.53816199,6.93809032 6.0459376,6.94131691 L6.0459376,6.94135539 Z" id="Path" fill="#161718"></path>
                        <path d="M6.0459376,9.62757026 C5.55141202,9.62757026 5.15051982,9.22667806 5.15051982,8.73215248 C5.15051982,8.23762689 5.55141202,7.83673469 6.0459376,7.83673469 C6.54046319,7.83673469 6.94135539,8.23762689 6.94135539,8.73215248 C6.94135539,9.22667806 6.54046319,9.62757026 6.0459376,9.62757026 Z" id="Path" fill="#161718"></path>
                        <path d="M6.0459376,12.3137851 C5.55141202,12.3137851 5.15051982,11.9128929 5.15051982,11.4183673 C5.15051982,10.9238418 5.55141202,10.5229496 6.0459376,10.5229496 C6.54046319,10.5229496 6.94135539,10.9238418 6.94135539,11.4183673 C6.94135539,11.9128929 6.54046319,12.3137851 6.0459376,12.3137851 Z" id="Path" fill="#161718"></path>
                        <path d="M15,6.94131691 C14.6787066,6.94342303 14.3809139,6.77322314 14.2196561,6.49532056 C14.0583983,6.21741798 14.0583983,5.87441875 14.2196561,5.59651617 C14.3809139,5.31861359 14.6787066,5.1484137 15,5.15051982 C15.4922244,5.15374641 15.8895483,5.55368341 15.8895483,6.04591837 C15.8895483,6.53815333 15.4922244,6.93809032 15,6.94131691 Z" id="Path" fill="#161718"></path>
                        <path d="M15,9.62757026 C14.5054744,9.62757026 14.1045822,9.22667806 14.1045822,8.73215248 C14.1045822,8.23762689 14.5054744,7.83673469 15,7.83673469 C15.4945256,7.83673469 15.8954178,8.23762689 15.8954178,8.73215248 C15.8954178,9.22667806 15.4945256,9.62757026 15,9.62757026 Z" id="Path" fill="#161718"></path>
                        <path d="M15,12.3137851 C14.5054744,12.3137851 14.1045822,11.9128929 14.1045822,11.4183673 C14.1045822,10.9238418 14.5054744,10.5229496 15,10.5229496 C15.4945256,10.5229496 15.8954178,10.9238418 15.8954178,11.4183673 C15.8954178,11.9128929 15.4945256,12.3137851 15,12.3137851 Z" id="Path" fill="#161718"></path>
                        <path d="M23.9540624,6.94131691 C23.6327689,6.94342303 23.3349763,6.77322314 23.1737185,6.49532056 C23.0124607,6.21741798 23.0124607,5.87441875 23.1737185,5.59651617 C23.3349763,5.31861359 23.6327689,5.1484137 23.9540624,5.15051982 C24.4462868,5.15374641 24.8436107,5.55368341 24.8436107,6.04591837 C24.8436107,6.53815333 24.4462868,6.93809032 23.9540624,6.94131691 Z" id="Path" fill="#161718"></path>
                        <path d="M23.9540624,9.62757026 C23.4595368,9.62757026 23.0586446,9.22667806 23.0586446,8.73215248 C23.0586446,8.23762689 23.4595368,7.83673469 23.9540624,7.83673469 C24.448588,7.83673469 24.8494802,8.23762689 24.8494802,8.73215248 C24.8494802,9.22667806 24.448588,9.62757026 23.9540624,9.62757026 Z" id="Path" fill="#161718"></path>
                        <path d="M23.9540624,12.3137851 C23.4595368,12.3137851 23.0586446,11.9128929 23.0586446,11.4183673 C23.0586446,10.9238418 23.4595368,10.5229496 23.9540624,10.5229496 C24.448588,10.5229496 24.8494802,10.9238418 24.8494802,11.4183673 C24.8494802,11.9128929 24.448588,12.3137851 23.9540624,12.3137851 Z" id="Path" fill="#161718"></path>
                        <path d="M5.15051982,15.8953793 L6.94131691,15.8953793 C7.4358425,15.8953793 7.83673469,16.2962715 7.83673469,16.7907971 C7.83673469,17.2853227 7.4358425,17.6862149 6.94131691,17.6862149 L5.15051982,17.6862149 C4.65829544,17.6829883 4.26097149,17.2830513 4.26097149,16.7908163 C4.26097149,16.2985814 4.65829544,15.8986444 5.15051982,15.8954178 L5.15051982,15.8953793 Z" id="Path" fill="#FF8441"></path>
                        <path d="M5.15051982,23.0586831 L6.94131691,23.0586831 C7.4335413,23.0619097 7.83086525,23.4618467 7.83086525,23.9540816 C7.83086525,24.4463166 7.4335413,24.8462536 6.94131691,24.8494802 L5.15051982,24.8494802 C4.65829544,24.8462536 4.26097149,24.4463166 4.26097149,23.9540816 C4.26097149,23.4618467 4.65829544,23.0619097 5.15051982,23.0586831 Z" id="Path" fill="#FF8441"></path>
                        <path d="M5.15051982,19.4770504 L6.94131691,19.4770504 C7.4335413,19.480277 7.83086525,19.880214 7.83086525,20.372449 C7.83086525,20.8646839 7.4335413,21.2646209 6.94131691,21.2678475 L5.15051982,21.2678475 C4.65829544,21.2646209 4.26097149,20.8646839 4.26097149,20.372449 C4.26097149,19.880214 4.65829544,19.480277 5.15051982,19.4770504 Z" id="Path" fill="#FF8441"></path>
                        <path d="M14.1045822,15.8954178 L15.8954178,15.8954178 C16.3876422,15.8986444 16.7849661,16.2985814 16.7849661,16.7908163 C16.7849661,17.2830513 16.3876422,17.6829883 15.8954178,17.6862149 L14.1045822,17.6862149 C13.6123578,17.6829883 13.2150339,17.2830513 13.2150339,16.7908163 C13.2150339,16.2985814 13.6123578,15.8986444 14.1045822,15.8954178 Z" id="Path" fill="#FF8441"></path>
                        <path d="M14.1045822,23.0586831 L15.8954178,23.0586831 C16.3876422,23.0619097 16.7849661,23.4618467 16.7849661,23.9540816 C16.7849661,24.4463166 16.3876422,24.8462536 15.8954178,24.8494802 L14.1045822,24.8494802 C13.6123578,24.8462536 13.2150339,24.4463166 13.2150339,23.9540816 C13.2150339,23.4618467 13.6123578,23.0619097 14.1045822,23.0586831 Z" id="Path" fill="#FF8441"></path>
                        <path d="M14.1045822,19.4770504 L15.8954178,19.4770504 C16.3876422,19.480277 16.7849661,19.880214 16.7849661,20.372449 C16.7849661,20.8646839 16.3876422,21.2646209 15.8954178,21.2678475 L14.1045822,21.2678475 C13.6123578,21.2646209 13.2150339,20.8646839 13.2150339,20.372449 C13.2150339,19.880214 13.6123578,19.480277 14.1045822,19.4770504 Z" id="Path" fill="#FF8441"></path>
                        <path d="M23.0586831,15.8954178 L24.8494802,15.8954178 C25.3417046,15.8986444 25.7390285,16.2985814 25.7390285,16.7908163 C25.7390285,17.2830513 25.3417046,17.6829883 24.8494802,17.6862149 L23.0586831,17.6862149 C22.5664587,17.6829883 22.1691348,17.2830513 22.1691348,16.7908163 C22.1691348,16.2985814 22.5664587,15.8986444 23.0586831,15.8954178 Z" id="Path" fill="#FF8441"></path>
                        <path d="M23.0586831,23.0586831 L24.8494802,23.0586831 C25.3417046,23.0619097 25.7390285,23.4618467 25.7390285,23.9540816 C25.7390285,24.4463166 25.3417046,24.8462536 24.8494802,24.8494802 L23.0586831,24.8494802 C22.5664587,24.8462536 22.1691348,24.4463166 22.1691348,23.9540816 C22.1691348,23.4618467 22.5664587,23.0619097 23.0586831,23.0586831 Z" id="Path" fill="#FF8441"></path>
                        <path d="M23.0586831,19.4770504 L24.8494802,19.4770504 C25.3417046,19.480277 25.7390285,19.880214 25.7390285,20.372449 C25.7390285,20.8646839 25.3417046,21.2646209 24.8494802,21.2678475 L23.0586831,21.2678475 C22.5664587,21.2646209 22.1691348,20.8646839 22.1691348,20.372449 C22.1691348,19.880214 22.5664587,19.480277 23.0586831,19.4770504 Z" id="Path" fill="#FF8441"></path>
                    </g>
                </g>
            </g>
        </g>
    </g>
</svg>