<?xml version="1.0" encoding="UTF-8"?>
<svg width="35px" height="35px" viewBox="0 0 35 35" version="1.1" xmlns="http://www.w3.org/2000/svg" xmlns:xlink="http://www.w3.org/1999/xlink">
    <!-- Generator: Sketch 51.1 (57501) - http://www.bohemiancoding.com/sketch -->
    <title>mdpi/网络</title>
    <desc>Created with Sketch.</desc>
    <defs></defs>
    <g id="Page-1" stroke="none" stroke-width="1" fill="none" fill-rule="evenodd">
        <g id="自定义首页资产视角" transform="translate(-1204.000000, -162.000000)" fill-rule="nonzero">
            <g id="Group-4-Copy-3" transform="translate(1190.000000, 121.000000)">
                <g id="网络" transform="translate(8.000000, 35.000000)">
                    <rect id="Rectangle-12" fill="#D8D8D8" opacity="0" x="0" y="0" width="48" height="48"></rect>
                    <g transform="translate(4.000000, 4.000000)">
                        <rect id="Rectangle-path" fill="#000000" opacity="0" x="0" y="0" width="40" height="40"></rect>
                        <path d="M32.5358475,8.08448827 C32.3967217,7.92990405 32.2537313,7.77918443 32.1107409,7.63232942 C30.0315832,5.49133795 27.3997868,3.88752665 24.4510928,3.04504264 C23.8675373,2.87886461 23.2723881,2.74360341 22.665645,2.63925906 C21.6994936,2.47308102 20.7101546,2.3880597 19.7014925,2.3880597 C14.8320896,2.3880597 10.4303038,4.39765458 7.28451493,7.63619403 C7.14152452,7.78304904 6.99853412,7.93376866 6.85940832,8.08835288 C4.08075693,11.1568497 2.3880597,15.2340085 2.3880597,19.7014925 C2.3880597,24.1689765 4.08075693,28.2384062 6.85554371,31.3107676 C6.99466951,31.4653518 7.13379531,31.6160714 7.28065032,31.7629264 C9.36367271,33.9077825 11.9993337,35.5154584 14.9557569,36.3579424 C15.5393124,36.5241205 16.1344616,36.6593817 16.7412047,36.763726 C17.7034915,36.9299041 18.6928305,37.0149254 19.7014925,37.0149254 C20.7101546,37.0149254 21.6994936,36.9299041 22.665645,36.763726 C23.2723881,36.6593817 23.8675373,36.5241205 24.4510928,36.3579424 C27.407516,35.519323 30.0393124,33.9116471 32.1223348,31.766791 C32.2653252,31.6160714 32.4083156,31.4692164 32.5474414,31.3146322 C35.3222281,28.2422708 37.0149254,24.1689765 37.0149254,19.7014925 C37.0149254,15.2301439 35.3183635,11.1568497 32.5358475,8.08448827 Z M35.3106343,20.0183902 C35.2719883,22.0163913 34.8623401,23.9525586 34.089419,25.7805171 C33.4169776,27.3727345 32.4933369,28.8258262 31.3416844,30.1088753 C31.2064232,30.2634595 31.0634328,30.4141791 30.9204424,30.5610341 C30.8624733,30.6228678 30.8006397,30.6808369 30.7426706,30.7426706 C29.3089019,32.1764392 27.6393923,33.3049041 25.7805171,34.089419 C24.3969883,34.6729744 22.9554904,35.0517058 21.4676173,35.2178838 C20.9845416,35.2719883 20.5014659,35.3029051 20.010661,35.3106343 C19.9101812,35.3144989 19.8058369,35.3144989 19.7014925,35.3144989 C19.5971482,35.3144989 19.4966684,35.3144989 19.3923241,35.3106343 C18.9053838,35.3029051 18.4184435,35.2719883 17.9353678,35.2178838 C16.4513593,35.0517058 15.0059968,34.6729744 13.622468,34.089419 C11.7635928,33.3010394 10.0940832,32.1764392 8.6603145,30.7426706 C8.59848081,30.6808369 8.53664712,30.6190032 8.47867804,30.5571695 C8.33568763,30.4103145 8.19269723,30.2557303 8.05743603,30.1050107 C6.90578358,28.8219616 5.98600746,27.3688699 5.3135661,25.7805171 C4.54064499,23.9525586 4.1309968,22.0163913 4.09235075,20.0183902 L8.31636461,20.0183902 C8.31636461,19.9140458 8.3125,19.8097015 8.3125,19.7014925 C8.3125,19.6010128 8.3125,19.500533 8.31636461,19.4000533 L4.09235075,19.4000533 C4.1309968,17.3981876 4.54064499,15.4581557 5.3174307,13.6263326 C5.98987207,12.0341151 6.91351279,10.5771588 8.06902985,9.29410981 C8.20429104,9.13952559 8.34728145,8.98880597 8.49027186,8.84195096 C8.54824094,8.78398188 8.60621002,8.72214819 8.6641791,8.6641791 C10.0979478,7.23041045 11.7674574,6.10194563 13.6263326,5.3174307 C15.0098614,4.73387527 16.4513593,4.35514392 17.9392324,4.18896588 C18.4223081,4.13486141 18.9053838,4.10394456 19.3961887,4.09235075 C19.500533,4.08848614 19.6010128,4.08848614 19.7053571,4.08848614 C19.8097015,4.08848614 19.9101812,4.08848614 20.0145256,4.09235075 C20.5053305,4.10007996 20.9884062,4.13486141 21.4714819,4.18896588 C22.9554904,4.35514392 24.4008529,4.73387527 25.7805171,5.3174307 C27.6393923,6.10194563 29.3089019,7.23041045 30.7426706,8.6641791 C30.8006397,8.72214819 30.8586087,8.78011727 30.9127132,8.83808635 C31.0557036,8.98494136 31.198694,9.13566098 31.3339552,9.2902452 C32.4894723,10.5771588 33.413113,12.0302505 34.089419,13.6263326 C34.8623401,15.4581557 35.2758529,17.3981876 35.3106343,19.4000533 L31.0866205,19.4000533 C31.0866205,19.500533 31.0904851,19.6010128 31.0904851,19.7014925 C31.0904851,19.8058369 31.0904851,19.9101812 31.0866205,20.0183902 L35.3106343,20.0183902 Z" id="Shape" fill="#161718"></path>
                        <path d="M31.0447761,20.5970149 C31.0447761,20.7027486 31.0447761,20.8084823 31.0408132,20.9181321 L20.317037,20.9181321 L20.317037,26.5846756 C20.210037,26.5807596 20.103037,26.5807596 19.996037,26.5807596 C19.893,26.5807596 19.786,26.5807596 19.682963,26.5846756 L19.682963,20.9181321 L8.95918684,20.9181321 C8.95522388,20.8123984 8.95522388,20.7066647 8.95522388,20.5970149 C8.95522388,20.4951973 8.95522388,20.3933796 8.95918684,20.291562 L19.682963,20.291562 L19.682963,14.597606 C19.786,14.597606 19.893,14.6015221 19.996037,14.6015221 C20.103037,14.6015221 20.210037,14.6015221 20.317037,14.597606 L20.317037,20.291562 L31.0408132,20.291562 C31.0408132,20.3933796 31.0447761,20.4951973 31.0447761,20.5970149 Z M20.317037,4.89751736 L20.317037,13.9671198 C20.210037,13.9710359 20.103037,13.9710359 19.996037,13.9710359 C19.893,13.9710359 19.786,13.9710359 19.682963,13.9671198 L19.682963,4.89751736 C19.789963,4.85444067 19.893,4.81528004 20,4.7761194 C20.107,4.81528004 20.210037,4.85835673 20.317037,4.89751736 Z M20.317037,27.2112458 L20.317037,36.2965125 C20.210037,36.3395892 20.107,36.3787498 20,36.4179104 C19.893,36.3787498 19.789963,36.3356731 19.682963,36.2965125 L19.682963,27.2112458 C19.786,27.2073297 19.893,27.2073297 19.996037,27.2073297 C20.103037,27.2073297 20.210037,27.2073297 20.317037,27.2112458 Z" id="Shape" fill="#39393A"></path>
                        <path d="M29.1496054,29.2289081 C30.5251373,26.7660091 31.3326828,23.9350457 31.3829129,20.9161346 C31.3829129,20.810414 31.3867767,20.7046933 31.3867767,20.5950571 C31.3867767,20.4932521 31.3867767,20.391447 31.3829129,20.289642 C31.3326828,17.2628997 30.5251373,14.4201896 29.1418777,11.9533751 C30.0305641,11.3934473 30.8612926,10.755208 31.6301995,10.0464883 C31.4911008,9.88986512 31.352002,9.73715755 31.2090394,9.58836556 C30.4671795,10.2735918 29.6712257,10.8844221 28.8250417,11.4169408 C27.12881,8.62121763 24.6791268,6.34626644 21.7619173,4.87792445 C21.2789356,4.82310635 20.7959539,4.79178172 20.3052444,4.78003498 C20.2009204,4.7761194 20.1004602,4.7761194 19.9961361,4.7761194 C20.1004602,4.81527519 20.2009204,4.85834655 20.3052444,4.89750234 C20.3941131,4.93274255 20.4791179,4.97189834 20.5679865,5.00713854 C22.5540073,5.86073469 24.3391076,7.07847965 25.8730575,8.63296437 C26.8042463,9.57661882 27.6117917,10.6142472 28.2956938,11.7341027 C27.7161157,12.0708424 27.1133546,12.3762576 26.4912741,12.6425169 C24.5284365,13.4843663 22.4496832,13.9307423 20.3091083,13.9698981 C20.2047842,13.9738136 20.1004602,13.9738136 19.9961361,13.9738136 C19.895676,13.9738136 19.7913519,13.9738136 19.6908917,13.9698981 C17.5464529,13.9307423 15.4638358,13.4843663 13.4971343,12.6425169 C12.8789177,12.3762576 12.2761566,12.074758 11.6965785,11.7380182 C12.3766168,10.6181627 13.188026,9.57661882 14.1192147,8.63296437 C15.6531646,7.07847965 17.438265,5.86073469 19.4242858,5.00713854 C19.5131544,4.97189834 19.5981592,4.93274255 19.6870279,4.89750234 C19.7913519,4.85443098 19.8918121,4.81527519 19.9961361,4.7761194 C19.8918121,4.7761194 19.7913519,4.7761194 19.6870279,4.78003498 C19.1963184,4.78786614 18.7133367,4.82310635 18.230355,4.87792445 C15.3131455,6.34626644 12.8634623,8.62121763 11.1672306,11.4208564 C10.3210466,10.8883377 9.52509276,10.2775074 8.78323286,9.59228114 C8.64027027,9.74107313 8.49730769,9.89769627 8.36207281,10.0504038 C9.13097969,10.7591236 9.96557207,11.3973629 10.8542584,11.9572906 C9.47486266,14.4241052 8.66731725,17.2628997 8.61708715,20.289642 C8.61708715,20.391447 8.6132233,20.4932521 8.6132233,20.5950571 C8.6132233,20.7007778 8.6132233,20.8064984 8.61708715,20.9161346 C8.6711811,23.9311301 9.47486266,26.7620935 10.8503946,29.2249925 C9.96170822,29.7849202 9.12711583,30.4270751 8.35820896,31.1357949 C8.49344383,31.292418 8.63640642,31.4451256 8.779369,31.5939176 C9.5212289,30.9086913 10.3171828,30.297861 11.1633667,29.7614267 C12.8595985,32.5649811 15.3131455,34.8438478 18.2342189,36.3161054 C18.7172006,36.3709235 19.2001823,36.4022481 19.6908917,36.4100793 C19.7952158,36.4139949 19.895676,36.4139949 20,36.4139949 C19.895676,36.3748391 19.7952158,36.3317677 19.6908917,36.2926119 C19.6020231,36.2573717 19.5170183,36.2182159 19.4281497,36.1829757 C17.4421289,35.3293796 15.6570285,34.1116346 14.1230786,32.5571499 C13.188026,31.6095799 12.3766168,30.5680359 11.6965785,29.4442649 C12.2761566,29.1075251 12.8789177,28.80211 13.5009982,28.5358506 C15.4638358,27.6940012 17.5464529,27.2476253 19.6947556,27.2084695 C19.7952158,27.2045539 19.8995398,27.2045539 20,27.2045539 C20.104324,27.2045539 20.2086481,27.2045539 20.3129721,27.2084695 C22.4574109,27.2476253 24.5361642,27.6940012 26.495138,28.5358506 C27.1210823,28.80211 27.7238434,29.1075251 28.3072853,29.4481805 C27.6272471,30.5719515 26.8158378,31.6134954 25.8807853,32.5610655 C24.3468354,34.1155502 22.561735,35.3332952 20.5757142,36.1868913 C20.4868456,36.2260471 20.4018408,36.2612873 20.3129721,36.2965275 C20.2086481,36.3395989 20.1081879,36.3787547 20.0038639,36.4179104 C20.1081879,36.4179104 20.2086481,36.4179104 20.3129721,36.4139949 C20.8036816,36.4061637 21.2866633,36.3748391 21.769645,36.320021 C24.6907183,34.851679 27.1404015,32.5728122 28.8366333,29.7692579 C29.6789534,30.3017766 30.4787711,30.9165224 31.220631,31.6017487 C31.3635936,31.4529567 31.5026923,31.3002492 31.641791,31.143626 C30.8728842,30.4270751 30.0382918,29.7888358 29.1496054,29.2289081 Z M20.3129721,26.5819769 C20.2086481,26.5780613 20.104324,26.5780613 20,26.5780613 C19.8995398,26.5780613 19.7952158,26.5780613 19.6947556,26.5819769 C16.673222,26.636795 13.8410173,27.4747288 11.3836064,28.903915 C11.0744981,28.3479029 10.7963006,27.7723128 10.549014,27.1810604 C9.71828544,25.1919465 9.27780612,23.0892807 9.23916759,20.9161346 C9.23530373,20.810414 9.23530373,20.7046933 9.23530373,20.5950571 C9.23530373,20.4932521 9.23530373,20.391447 9.23916759,20.289642 C9.27780612,18.1125803 9.71828544,16.0020834 10.549014,14.0129694 C10.7963006,13.4178015 11.0783619,12.8382958 11.3913341,12.2783681 C13.8448811,13.7075543 16.6770859,14.5454881 19.6947556,14.5963906 C19.7952158,14.5963906 19.8995398,14.6003062 20,14.6003062 C20.104324,14.6003062 20.2086481,14.6003062 20.3129721,14.5963906 C23.3306418,14.5415725 26.1628466,13.7036387 28.6163936,12.2744525 C28.9293658,12.8343803 29.2114271,13.4138859 29.4587137,14.0129694 C30.2894423,16.005999 30.7299216,18.1164959 30.7685601,20.289642 C30.7685601,20.391447 30.772424,20.4932521 30.772424,20.5950571 C30.772424,20.7007778 30.772424,20.8064984 30.7685601,20.9161346 C30.7299216,23.0853652 30.2894423,25.1919465 29.4587137,27.1810604 C29.2114271,27.7762284 28.9332296,28.3518184 28.6202575,28.9078306 C26.1667104,27.4747288 23.3345057,26.636795 20.3129721,26.5819769 Z" id="Shape" stroke="#FE8341" stroke-width="0.537313433" fill="#FF8441"></path>
                    </g>
                </g>
            </g>
        </g>
    </g>
</svg>