<svg width="140" height="140" viewBox="0 0 140 140" fill="none" xmlns="http://www.w3.org/2000/svg">
<path d="M25 139.904C25 139.857 25.057 139.676 25.1331 139.505C25.2091 139.334 25.3137 139.001 25.3802 138.764C25.4468 138.526 25.5418 138.231 25.5893 138.098C25.6464 137.965 25.7509 137.623 25.8175 137.338C25.9505 136.843 26.3498 135.494 26.5209 134.961C26.5684 134.828 26.7585 134.21 26.9581 133.583C27.1482 132.956 27.4048 132.148 27.5189 131.777C27.633 131.416 27.7851 130.922 27.8516 130.684C27.9086 130.446 28.0227 130.104 28.0892 129.924C28.1558 129.743 28.3079 129.268 28.4219 128.878C28.536 128.488 28.6881 128.013 28.7546 127.832C28.8211 127.652 28.9257 127.31 28.9922 127.072C29.1538 126.502 29.3344 125.941 29.4485 125.646C29.496 125.513 29.6576 125.028 29.8002 124.553C30.1519 123.412 30.4751 122.414 30.5891 122.129C30.6367 121.996 30.7317 121.701 30.7982 121.464C30.8648 121.226 30.9979 120.798 31.1024 120.513C31.207 120.228 31.3686 119.734 31.4636 119.42C31.5587 119.107 31.7013 118.66 31.7963 118.422C31.8819 118.184 31.9864 117.871 32.0244 117.709C32.072 117.557 32.1765 117.234 32.2621 116.996C32.4332 116.531 32.6423 115.894 32.8039 115.38C32.8514 115.2 32.956 114.896 33.032 114.715C33.108 114.534 33.2696 114.04 33.4027 113.622C33.5358 113.204 33.7734 112.5 33.935 112.054C34.0966 111.607 34.2677 111.122 34.3057 110.96C34.4103 110.599 34.6859 109.81 35.1802 108.442C35.6555 107.101 35.684 106.911 35.3608 106.816C34.7144 106.636 32.6613 106.778 31.1785 107.101C30.1044 107.339 27.8706 108.061 26.5969 108.584C26.3973 108.66 26.3783 108.575 26.5494 108.403C26.9011 108.061 29.3725 106.407 30.1329 106.008C30.418 105.856 30.6747 105.713 30.7032 105.685C30.9218 105.476 32.8704 104.753 33.4978 104.649C33.9635 104.582 33.973 104.573 33.6974 104.497C33.3742 104.411 32.0625 103.784 31.5492 103.47C30.4466 102.795 28.536 101.265 28.65 101.151C28.6691 101.122 28.9447 101.189 29.2489 101.294C31.3686 102.006 33.013 102.358 34.2582 102.358C35.2277 102.358 35.2753 102.32 35.2182 101.75C35.0947 100.685 34.3818 97.7956 34.1441 97.4724C34.1061 97.4153 34.0111 97.1967 33.9445 96.9876C33.7164 96.3317 32.8609 94.5162 32.3096 93.5182C31.8914 92.7672 30.6747 90.7236 30.6081 90.6665C30.5796 90.638 30.4085 90.3814 30.2279 90.0962C30.0473 89.8111 29.8192 89.4879 29.7337 89.3928C29.5626 89.2027 29.42 88.87 29.4865 88.813C29.5245 88.775 30.6462 89.4214 30.8458 89.5925C30.9028 89.64 31.0834 89.7635 31.2545 89.8586C31.4161 89.9632 31.5587 90.0772 31.5587 90.1057C31.5587 90.1438 31.6347 90.2008 31.7298 90.2293C31.8248 90.2673 31.9864 90.3624 32.091 90.4574C32.186 90.543 32.4902 90.7901 32.7468 90.9992C33.3267 91.4555 35.0757 93.195 35.2753 93.5086C35.4083 93.7273 35.4273 93.6702 35.5319 92.5106C35.8551 89.0887 36.2638 86.3606 36.8817 83.395C36.9292 83.1859 37.0147 82.7581 37.0718 82.4444C37.1383 82.1308 37.2429 81.6365 37.3189 81.3513C37.4805 80.6384 37.6136 80.0681 37.7466 79.4503C37.8037 79.1651 37.9082 78.7564 37.9748 78.5473C38.0413 78.3381 38.1554 77.9294 38.2124 77.6443C38.2789 77.3591 38.374 76.9979 38.4215 76.8363C38.5356 76.5036 38.6021 76.247 38.8683 75.2679C38.9633 74.8782 39.0964 74.4315 39.1534 74.2699C39.2105 74.1178 39.3626 73.6235 39.4956 73.1767C39.8853 71.7985 40.18 70.886 40.5887 69.7548C40.7979 69.156 41.102 68.2815 41.2636 67.8062C41.4157 67.3405 41.5868 66.9127 41.6438 66.8652C41.6914 66.8082 41.7294 66.6941 41.7294 66.5991C41.7294 66.504 41.7674 66.3519 41.8149 66.2569C41.8625 66.1713 42.005 65.8196 42.1381 65.4774C42.5849 64.3178 43.2407 62.6734 43.6875 61.6278C43.9251 61.0575 44.2008 60.3921 44.2958 60.1544C44.4574 59.7362 44.7236 59.1564 45.2178 58.0633C45.3509 57.7781 45.522 57.3884 45.6076 57.2078C45.9402 56.4284 47.5086 53.149 48.117 51.9323C48.9249 50.3259 50.6359 47.0276 51.1111 46.1816C51.2727 45.8965 51.5864 45.3166 51.805 44.8984C52.2898 43.9954 52.4704 43.6627 52.9077 42.9023C53.0883 42.5886 53.2879 42.2179 53.3449 42.0658C53.4114 41.9232 53.4875 41.8092 53.5255 41.8092C53.5635 41.8092 53.6206 41.7046 53.6491 41.5715C53.6871 41.4385 53.7536 41.3339 53.8012 41.3339C53.8582 41.3339 53.8962 41.2864 53.8962 41.2293C53.8962 41.1343 54.7422 39.6419 55.3885 38.5869C55.5121 38.3967 55.7022 38.0736 55.8163 37.8645C55.9304 37.6553 56.0729 37.4082 56.13 37.3226C56.1775 37.2371 56.3866 36.8949 56.5862 36.5622C56.7763 36.2295 57.033 35.8113 57.1565 35.6117C57.2706 35.4216 57.5082 35.0224 57.6888 34.7087C57.8599 34.4045 58.0405 34.1384 58.0786 34.1098C58.1071 34.0813 58.1641 33.9958 58.2021 33.9197C58.2306 33.8437 58.5253 33.3684 58.839 32.8742C59.1527 32.3799 59.4378 31.9046 59.4758 31.8286C59.5139 31.7525 59.5614 31.667 59.5994 31.6385C59.6279 31.6099 59.8275 31.3153 60.0366 30.9826C60.3503 30.4598 61.7666 28.2641 62.0708 27.8363C62.2514 27.5702 64.1144 24.7756 64.2095 24.6235C64.2665 24.538 64.3806 24.3859 64.4756 24.2813C64.5612 24.1768 64.6372 24.0627 64.6372 24.0247C64.6372 23.9867 64.6943 23.8916 64.7608 23.8251C64.8273 23.7585 64.9889 23.5209 65.1125 23.3023C65.2361 23.0742 65.3691 22.8936 65.4072 22.8936C65.4452 22.8936 65.5022 22.8175 65.5307 22.7225C65.5688 22.6274 65.6638 22.4658 65.7589 22.3613C65.8444 22.2567 66.1201 21.8765 66.3767 21.5058C66.6239 21.1351 66.909 20.7358 67.0136 20.6123C67.1181 20.4887 67.2037 20.3651 67.2037 20.3271C67.2037 20.2986 67.2797 20.1845 67.3748 20.08C67.4698 19.9849 67.9261 19.3671 68.3918 18.7112C68.8576 18.0553 69.2948 17.4565 69.3614 17.3805C69.4564 17.2664 70.9868 15.2323 71.7187 14.2532C72.0229 13.835 73.0304 12.5803 73.097 12.5327C73.135 12.5042 73.3346 12.2476 73.5437 11.9624C73.7528 11.6773 74.0095 11.3541 74.1045 11.2495C74.2091 11.145 74.4562 10.8408 74.6654 10.5842C74.8745 10.318 75.0836 10.0709 75.1406 10.0138C75.1977 9.96631 75.4163 9.70967 75.6159 9.44352C75.825 9.18687 76.0151 8.94924 76.0436 8.92072C76.0721 8.89221 76.3953 8.531 76.7565 8.11277C77.1082 7.69454 77.5075 7.24779 77.6215 7.11471C77.7451 6.98164 78.1728 6.51588 78.5816 6.06912C80.1594 4.32965 82.3076 2.2765 83.2677 1.5731C83.5528 1.36399 83.8095 1.16437 83.838 1.13586C83.9426 1.01229 84.684 0.575044 85.1973 0.337411C85.8531 0.0332401 87.0223 -0.0903291 87.8588 0.0712615C89.0184 0.289884 90.2256 1.02179 91.4993 2.30501C92.2502 3.06544 93.2483 4.32965 93.2483 4.53877C93.2483 4.5958 93.2768 4.64333 93.3243 4.64333C93.4954 4.64333 94.2463 6.52538 94.465 7.54245C94.522 7.8086 94.6361 8.29337 94.7121 8.63556C94.7881 8.97776 94.9022 9.91878 94.9687 10.7362C95.1398 12.932 94.9212 15.3178 94.2844 18.331C94.1038 19.1865 93.1627 22.2187 92.9156 22.751C92.8491 22.9126 92.6304 23.4449 92.4308 23.9391C92.2407 24.4334 91.9366 25.1653 91.756 25.555C90.91 27.3706 90.7294 27.7413 90.3587 28.5017C89.7123 29.7849 88.6667 31.781 88.6002 31.8286C88.5717 31.8571 88.4196 32.1232 88.258 32.4274C88.1059 32.7316 87.9253 33.0548 87.8778 33.1403C87.8207 33.2258 87.5546 33.6916 87.2694 34.1574C86.6231 35.2505 85.53 36.9995 85.4444 37.0565C85.4159 37.085 85.3113 37.2466 85.2258 37.4177C85.1402 37.5793 85.0357 37.7219 84.9881 37.7219C84.9406 37.7219 84.8551 37.8454 84.7885 38.007C84.722 38.1591 84.5794 38.3872 84.4654 38.5108C84.3608 38.6344 84.1422 38.9005 83.9901 39.1096C83.6384 39.5754 82.2221 40.9917 81.6518 41.4385C80.9864 41.9612 79.9123 42.6361 78.9713 43.1209C78.0398 43.6057 78.0207 43.7292 78.9333 43.4726C79.2469 43.3871 79.6842 43.273 79.8933 43.216C80.7488 42.9878 80.9484 42.9213 81.205 42.7977C81.3571 42.7217 81.5187 42.6646 81.5757 42.6646C81.7278 42.6646 83.3152 41.9708 83.3437 41.8852C83.3627 41.8472 83.4388 41.8092 83.5053 41.8092C83.5719 41.8092 83.762 41.7046 83.914 41.5715C84.2467 41.2959 84.4463 41.2674 84.3703 41.505C84.3418 41.5905 84.2752 41.8852 84.2182 42.1418C84.0281 43.0353 83.9521 43.2825 83.6479 44.1855C82.9065 46.3622 81.4236 49.6416 80.4921 51.1719C79.0473 53.5482 76.7375 55.5919 74.019 56.9131C73.6673 57.0842 73.3916 57.2458 73.4107 57.2648C73.4392 57.2933 73.8289 57.2078 74.2946 57.0747C75.6444 56.704 76.2242 56.4759 77.5455 55.8105C78.0778 55.5444 78.7146 55.1927 78.9523 55.0311C79.6081 54.5843 79.6937 54.6223 79.323 55.2117C79.1899 55.4208 79.0853 55.6109 79.0853 55.6489C79.0853 55.744 78.2964 57.0652 78.2108 57.0937C78.1728 57.1127 78.1348 57.1698 78.1348 57.2268C78.1348 57.2743 77.8972 57.6736 77.593 58.0918C75.8535 60.6107 73.6388 62.5593 71.1009 63.833C70.5781 64.0897 70.5305 64.1372 70.8157 64.0897C71.6046 63.9661 73.0494 63.5669 73.7148 63.2912C73.8194 63.2532 74.057 63.1581 74.2376 63.0916C74.4182 63.0251 74.6368 62.9205 74.7224 62.8445C74.7984 62.7779 74.96 62.7209 75.0741 62.7209C75.2737 62.7209 75.2737 62.7399 75.1501 63.0346C75.0741 63.1962 74.9505 63.5574 74.865 63.814C74.7889 64.0801 74.5418 64.7835 74.3327 65.3824C74.1141 65.9812 73.9144 66.5705 73.8859 66.6941C73.8574 66.8082 73.8004 66.9317 73.7528 66.9603C73.7053 66.9888 73.6673 67.0838 73.6673 67.1694C73.6673 67.2549 73.5152 67.7207 73.3251 68.1865C73.135 68.6617 72.9354 69.1465 72.8879 69.2796C72.8403 69.4126 72.7358 69.6408 72.6597 69.7833C72.5837 69.9354 72.5267 70.097 72.5267 70.1445C72.5267 70.2016 72.4126 70.4867 72.2795 70.7814C72.1464 71.0761 72.0039 71.4088 71.9658 71.5133C71.1864 73.4999 68.5629 78.5948 67.8025 79.6024C67.6789 79.7639 67.5839 79.9255 67.5839 79.9636C67.5839 80.0016 67.3082 80.4198 66.966 80.9046C66.6334 81.3894 66.1961 82.0072 65.9965 82.2924C65.7969 82.5775 65.5688 82.8722 65.4927 82.9577C65.4167 83.0433 65.2456 83.2619 65.1125 83.4425C64.9889 83.6231 64.8083 83.8607 64.7228 83.9653C62.8692 86.0945 61.4339 87.4538 59.6469 88.8035C59.1812 89.1552 58.7249 89.4974 58.6489 89.5544C58.2306 89.8776 56.149 91.1989 55.7973 91.3604C55.7212 91.3985 55.5311 91.503 55.3695 91.5981C53.8772 92.5011 51.3108 93.5467 49.0485 94.174C48.8679 94.2215 48.5067 94.2976 48.2405 94.3356L47.7653 94.4021L48.6683 94.5257C50.4363 94.7634 51.2252 94.7824 52.5179 94.6208C54.495 94.3736 55.4456 94.136 56.9854 93.5182C57.5272 93.309 58.9435 92.5771 59.3428 92.311C59.5994 92.1399 59.8465 91.9973 59.8941 91.9973C59.9416 91.9973 59.9796 91.9593 59.9796 91.9118C59.9796 91.8642 60.0557 91.7977 60.1507 91.7692C60.2458 91.7312 60.4074 91.6361 60.5119 91.541C60.607 91.4555 60.9967 91.1418 61.3579 90.8472C61.7286 90.5525 62.2419 90.0962 62.4985 89.8301C62.7647 89.5544 63.0023 89.3358 63.0498 89.3358C63.1544 89.3358 63.1354 89.659 63.0213 89.7731C62.9263 89.8681 62.432 90.7616 62.0898 91.427C62.0043 91.6076 61.8997 91.7787 61.8712 91.8072C61.8427 91.8357 61.6906 92.0733 61.5385 92.33C61.2153 92.9098 60.2363 94.2976 59.8465 94.7538C59.4758 95.1816 57.9455 96.7119 57.4987 97.1017C56.4912 97.9666 54.9703 98.9267 52.9457 99.9628L51.5674 100.666L52.7556 100.6C54.9703 100.486 56.2535 99.9913 57.4892 98.7651C57.8789 98.3849 58.2211 98.0997 58.2496 98.1282C58.3447 98.2138 57.166 100.343 56.8809 100.6C56.8238 100.657 56.6813 100.847 56.5577 101.027C56.282 101.446 54.8372 102.89 54.3239 103.271C54.1148 103.423 53.9247 103.575 53.8962 103.603C53.8107 103.708 52.7175 104.373 52.0997 104.706C50.4743 105.571 48.212 106.274 46.2444 106.54C45.8262 106.588 45.1893 106.683 44.8186 106.74C44.4574 106.788 43.2883 106.864 42.2332 106.892C41.1686 106.921 40.3036 106.968 40.3036 106.987C40.3036 107.006 40.4081 107.12 40.5222 107.234C41.1591 107.833 42.1761 109.611 42.4138 110.533C42.4898 110.856 42.7655 112.405 42.775 112.557C42.775 112.728 42.5659 112.595 42.4613 112.367C42.4043 112.215 42.3282 112.082 42.2902 112.054C42.2617 112.025 42.1096 111.797 41.9575 111.531C41.5488 110.808 40.6553 109.592 40.18 109.097C39.7333 108.641 38.9633 108.061 38.7922 108.061C38.7352 108.061 38.6877 108.023 38.6877 107.985C38.6877 107.843 38.9823 106.873 39.1154 106.588C39.182 106.436 39.353 105.961 39.4861 105.542C39.7428 104.725 40.2085 103.385 40.6838 102.073C40.8454 101.626 41.102 100.904 41.2541 100.457C41.4062 100.01 41.6819 99.2404 41.8625 98.7461C42.0336 98.2518 42.2332 97.691 42.2997 97.5104C42.3567 97.3298 42.4423 97.0922 42.4898 96.9876C42.7274 96.3793 42.889 95.9515 43.1457 95.2291C43.7445 93.4991 43.9346 92.9859 44.0202 92.8053C44.0677 92.7007 44.2388 92.2539 44.4004 91.8072C44.562 91.3604 44.8186 90.657 44.9707 90.2388C45.1323 89.8206 45.3889 89.1267 45.541 88.6894C45.6931 88.2617 45.8547 87.834 45.9022 87.7389C45.9498 87.6534 46.0828 87.3207 46.1969 87.007C46.406 86.4177 46.6341 85.8188 46.7672 85.4861C46.8147 85.3816 46.9573 85.0014 47.0999 84.6307C47.233 84.2695 47.3851 83.8798 47.4231 83.7752C47.4706 83.6706 47.5657 83.414 47.6512 83.2049C47.8033 82.7961 48.4497 81.1327 48.5732 80.8285C48.6112 80.724 48.7538 80.3628 48.8869 80.0206C49.2671 79.0225 50.0085 77.1405 50.1416 76.8363C50.2081 76.6842 50.3032 76.4466 50.3602 76.3135C50.5123 75.9333 52.2898 71.5323 52.3754 71.3232C52.4229 71.2187 52.5655 70.886 52.6985 70.5913C52.8316 70.2966 52.9457 69.9925 52.9457 69.9259C52.9457 69.8499 52.9837 69.7548 53.0312 69.6978C53.0692 69.6503 53.2498 69.2701 53.4209 68.8613C53.7061 68.1389 53.7631 68.0154 53.9913 67.5686C54.0483 67.464 54.0863 67.331 54.0863 67.2834C54.0863 67.2264 54.2004 66.9317 54.3335 66.6371C54.4665 66.3424 54.6091 66.0097 54.6566 65.9052C54.6947 65.8006 54.8467 65.4584 54.9893 65.1447C55.1319 64.8311 55.284 64.4889 55.322 64.3843C55.3695 64.2798 55.5121 63.9471 55.6452 63.6524C55.7783 63.3577 55.8923 63.0916 55.8923 63.0631C55.8923 63.0346 55.9969 62.7874 56.1205 62.5118C56.244 62.2361 56.4626 61.7418 56.5957 61.4091C56.7383 61.086 56.9759 60.5252 57.1375 60.1735C57.2991 59.8218 57.4987 59.3845 57.5748 59.2039C57.6508 59.0233 57.8599 58.5576 58.0405 58.1773C58.2211 57.7971 58.3637 57.4644 58.3637 57.4359C58.3637 57.3979 58.4588 57.1698 59.2382 55.4968C59.3903 55.1546 59.6279 54.6414 59.761 54.3562C59.8941 54.071 60.0842 53.6718 60.1792 53.4722C60.2743 53.2631 60.3598 53.054 60.3598 52.9969C60.3598 52.9399 60.4169 52.8258 60.4834 52.7498C60.5594 52.6642 60.683 52.4266 60.7591 52.2175C61.1868 51.1149 64.9034 43.4916 66.89 39.6229C68.5059 36.4767 68.7816 35.9539 69.9792 33.7772C70.1218 33.5205 70.3214 33.1308 70.4355 32.9217C70.54 32.7126 70.8157 32.1993 71.0533 31.781C71.291 31.3628 71.5381 30.9161 71.6046 30.783C71.6617 30.6499 71.7377 30.5263 71.7662 30.4978C71.8233 30.4408 72.0514 30.0321 72.3556 29.4427C72.4791 29.2146 72.6312 28.9675 72.6978 28.9009C72.7548 28.8344 72.8118 28.7203 72.8118 28.6443C72.8118 28.5777 72.8403 28.5017 72.8879 28.4827C72.9259 28.4732 73.0304 28.3021 73.1255 28.1215C73.4202 27.5322 73.9144 26.6957 74.0285 26.5816C74.095 26.5151 74.1426 26.4295 74.1426 26.382C74.1426 26.3345 74.2186 26.1824 74.3232 26.0493C74.4182 25.9067 74.5798 25.6406 74.6844 25.46C74.903 25.0608 75.5779 23.9296 76.2908 22.7605C76.5759 22.2947 76.8041 21.8765 76.8041 21.8385C76.8041 21.7909 76.8421 21.7529 76.8801 21.7529C76.9276 21.7529 77.0132 21.6579 77.0702 21.5438C77.1272 21.4202 77.2888 21.1541 77.4219 20.945C77.5455 20.7358 77.7261 20.4412 77.8116 20.2796C77.8972 20.1275 78.0017 19.9754 78.0302 19.9469C78.0683 19.9184 78.2394 19.6617 78.42 19.3766C78.6006 19.0914 78.7717 18.8348 78.8002 18.8063C78.8287 18.7777 79.0188 18.4831 79.2184 18.1409C79.4275 17.7987 79.6271 17.5135 79.6747 17.4945C79.7127 17.4755 79.7507 17.4185 79.7507 17.3615C79.7507 17.3139 80.1119 16.7626 80.5492 16.1448C80.9959 15.5174 81.4046 14.9186 81.4712 14.795C81.5282 14.681 81.6613 14.5003 81.7563 14.3958C81.8609 14.2912 81.9369 14.1772 81.9369 14.1391C81.9369 14.1011 81.994 14.0061 82.0605 13.9395C82.3362 13.6449 82.6974 13.1126 82.5833 13.1506C82.5168 13.1791 82.3552 13.3597 82.2221 13.5498C82.089 13.7399 81.9369 13.9395 81.8894 13.9966C81.8324 14.0536 81.6233 14.3388 81.4141 14.6239C81.205 14.9091 81.0149 15.1657 80.9769 15.1942C80.9484 15.2228 80.6442 15.6315 80.3115 16.0972C79.9788 16.5725 79.6366 17.0383 79.5416 17.1333C79.4465 17.2379 79.3705 17.3519 79.3705 17.39C79.3705 17.428 79.3135 17.523 79.2469 17.5896C79.0093 17.8367 78.1348 19.0914 78.1348 19.1865C78.1348 19.234 78.0968 19.2815 78.0588 19.2815C78.0112 19.2815 77.9257 19.3956 77.8591 19.5477C77.7926 19.6903 77.6786 19.8709 77.6025 19.9469C77.5265 20.0229 77.2033 20.4982 76.8706 20.9925C76.5474 21.4868 76.2528 21.9145 76.2147 21.924C76.1672 21.943 76.1387 22.0001 76.1387 22.0476C76.1387 22.1331 75.5969 22.9791 75.3783 23.2453C75.3307 23.3118 75.2832 23.3783 75.2832 23.3973C75.2832 23.4164 75.0646 23.7585 74.8079 24.1578C74.5418 24.557 74.3327 24.9277 74.3327 24.9752C74.3327 25.0323 74.2947 25.0798 74.2376 25.0798C74.1901 25.0798 74.1426 25.1273 74.1426 25.1843C74.1426 25.2414 74.038 25.422 73.9049 25.5931C73.7719 25.7642 73.6673 25.9353 73.6673 25.9638C73.6673 25.9923 73.4011 26.439 73.078 26.9523C72.5076 27.8553 70.0553 32.0092 70.0553 32.0662C70.0553 32.0947 69.3044 33.4065 69.1047 33.7296C69.0572 33.8057 68.9146 34.0623 68.7911 34.3C68.677 34.5376 68.4299 34.9843 68.2493 35.298C67.4508 36.7238 67.2797 37.0375 67.0896 37.4367C66.9755 37.6743 66.8615 37.8835 66.833 37.912C66.5478 38.1686 60.3788 50.5256 58.6489 54.3087C58.4778 54.6794 58.1926 55.2972 58.012 55.6869C57.8314 56.0767 57.5843 56.6185 57.4607 56.8751C57.3466 57.1413 57.1375 57.588 57.0045 57.8732C56.5387 58.8712 56.0824 59.8788 56.0824 59.9168C56.0824 59.9358 55.9303 60.2875 55.7402 60.6963C55.5501 61.105 55.36 61.5422 55.303 61.6753C55.246 61.8084 55.1699 61.9795 55.1224 62.0555C55.0749 62.1316 55.0083 62.2646 54.9798 62.3407C54.9513 62.4167 54.8658 62.6163 54.7992 62.7684C54.7327 62.93 54.4095 63.6714 54.0863 64.4318C53.7631 65.1923 53.3734 66.0763 53.2213 66.409C53.0692 66.7321 52.9457 67.0268 52.9457 67.0553C52.9457 67.0838 52.8316 67.35 52.6985 67.6446C52.5655 67.9393 52.4229 68.272 52.3754 68.3766C52.3373 68.4811 52.2043 68.7758 52.0997 69.0229C51.9856 69.2796 51.767 69.8119 51.6054 70.2111C51.4438 70.6103 51.2727 70.981 51.2252 71.0285C51.1777 71.0856 51.1397 71.1806 51.1397 71.2567C51.1397 71.3707 50.7785 72.2262 50.5598 72.6254C50.5123 72.7205 50.4743 72.8441 50.4743 72.8916C50.4743 72.9961 50.0941 73.8801 49.8945 74.2413C49.8469 74.3364 49.8089 74.46 49.8089 74.5075C49.8089 74.5645 49.7044 74.8402 49.5808 75.1063C49.4002 75.5151 49.0295 76.4086 47.8888 79.2602C47.8318 79.3932 47.7368 79.6309 47.6702 79.783C47.6037 79.9445 47.347 80.5814 47.0999 81.2088C46.8528 81.8361 46.5961 82.4825 46.5296 82.6345C46.4535 82.7961 46.3014 83.1764 46.1874 83.49C46.0733 83.8037 45.9212 84.1934 45.8642 84.3455C45.7977 84.5071 45.6456 84.8873 45.5315 85.201C45.4079 85.5147 45.2559 85.9044 45.1988 86.0565C44.9327 86.6933 44.4004 88.0811 44.2578 88.4993C44.1723 88.7465 44.0677 89.0316 44.0202 89.1172C43.9726 89.2122 43.8396 89.5449 43.7255 89.8586C43.5259 90.4004 43.3168 90.9517 43.1552 91.3794C42.794 92.2825 42.3948 93.3661 41.91 94.7348C41.7579 95.1721 41.5868 95.5998 41.5393 95.6854C41.4917 95.7709 41.3302 96.2082 41.1686 96.6549C41.0165 97.1017 40.7789 97.767 40.6363 98.1282C40.2751 99.0978 40.0184 99.8012 39.9234 100.077C39.8758 100.21 39.6667 100.79 39.4671 101.36C39.258 101.94 39.0204 102.624 38.9253 102.881C38.8303 103.147 38.7257 103.442 38.6782 103.546C38.6401 103.651 38.4976 104.06 38.355 104.449C38.2124 104.839 38.0413 105.314 37.9748 105.495C37.8987 105.675 37.7086 106.217 37.547 106.683C37.3854 107.158 37.1288 107.9 36.9767 108.346C36.8246 108.793 36.568 109.516 36.4064 109.962C36.2448 110.409 36.0452 110.989 35.9692 111.246C35.8836 111.512 35.722 111.978 35.5984 112.291C35.4844 112.605 35.2563 113.27 35.0852 113.765C33.0985 119.772 31.321 125.095 31.226 125.361C31.1595 125.542 30.9408 126.207 30.7507 126.834C30.5511 127.462 30.2089 128.536 29.9903 129.211C29.6386 130.294 29.2869 131.406 28.9732 132.49C28.9162 132.671 28.8211 132.975 28.7546 133.155C28.6405 133.469 28.4885 133.963 28.0892 135.294C27.9942 135.608 27.8231 136.169 27.709 136.53C27.595 136.9 27.4429 137.385 27.3763 137.623C27.1102 138.573 26.6254 139.267 25.9315 139.695C25.4277 139.99 25 140.094 25 139.904ZM99.3317 14.5764V13.2932H98.904C98.5142 13.2932 98.4762 13.2742 98.4762 13.0555V12.8179H100.853V13.0555C100.853 13.2742 100.824 13.2932 100.377 13.2932H99.902V15.8596H99.3317V14.5764ZM101.138 14.3388V12.8179H101.47C101.794 12.8179 101.813 12.8369 102.193 13.6259C102.411 14.0631 102.64 14.4718 102.706 14.5289C102.82 14.6239 103.086 14.1582 103.524 13.1316C103.638 12.8559 103.704 12.8179 104.008 12.8179H104.37V15.8596H103.809L103.78 14.8901L103.752 13.911L103.438 14.5764C102.982 15.5364 102.991 15.5269 102.744 15.5554C102.563 15.5745 102.487 15.5174 102.383 15.2703C102.316 15.0992 102.136 14.7 101.984 14.3958L101.708 13.835V15.8596H101.138V14.3388Z" fill="#2D265E"/>
<path d="M29.8954 126.891C29.1634 126.521 29.1349 126.454 29.4106 125.741C29.4866 125.561 29.7052 124.895 29.8954 124.268C30.3421 122.823 30.4752 122.424 30.5892 122.129C30.6368 121.996 30.7318 121.701 30.7984 121.464C30.8649 121.226 30.998 120.798 31.1025 120.513C31.2071 120.228 31.3687 119.734 31.4637 119.42C31.5588 119.107 31.7014 118.66 31.7869 118.422C31.882 118.184 32.0341 117.738 32.1291 117.424C32.2242 117.11 32.3953 116.597 32.5093 116.283C32.6139 115.97 32.747 115.561 32.804 115.38C32.861 115.2 32.9561 114.896 33.0321 114.715C33.1082 114.534 33.2697 114.04 33.4028 113.622C33.5359 113.204 33.7735 112.5 33.9351 112.054C34.0967 111.607 34.2678 111.122 34.3153 110.96C34.3534 110.808 34.6575 109.924 34.9807 109.012C35.3039 108.099 35.5795 107.244 35.589 107.12C35.5986 106.816 35.3799 106.75 34.2298 106.74C32.7089 106.721 31.0075 107.054 28.8022 107.776C28.327 107.938 26.9867 108.423 26.597 108.584C26.3974 108.66 26.3784 108.575 26.5495 108.404C26.9012 108.061 29.3726 106.407 30.133 106.008C30.4181 105.856 30.6748 105.714 30.7033 105.685C30.8934 105.476 32.8895 104.753 33.5549 104.649C33.9731 104.573 33.9826 104.573 33.6975 104.497C32.9941 104.307 31.6919 103.594 30.4657 102.729C29.6577 102.159 28.5836 101.217 28.6502 101.151C28.6692 101.122 28.9448 101.189 29.249 101.294C31.3687 102.006 33.0131 102.358 34.2583 102.358C35.2278 102.358 35.2754 102.32 35.2183 101.75C35.1043 100.714 34.9997 100.248 34.3914 98.1282C34.3343 97.9191 34.2298 97.6435 34.1632 97.5104C34.0967 97.3773 33.9826 97.0922 33.8971 96.8735C33.6214 96.1131 32.8325 94.4592 32.3097 93.5182C31.8915 92.7672 30.6748 90.7236 30.6083 90.6666C30.5797 90.638 30.4086 90.3814 30.228 90.0962C30.0474 89.8111 29.8763 89.5544 29.8478 89.5259C29.7148 89.4119 29.4676 88.9936 29.4676 88.8796C29.4676 88.7845 29.5151 88.7845 29.6862 88.8701C30.0379 89.0602 31.5018 90.0297 31.6348 90.1628C31.7014 90.2293 31.7964 90.2863 31.8344 90.2863C31.8725 90.2863 31.9865 90.3624 32.0911 90.4574C32.1861 90.543 32.4903 90.7901 32.747 90.9992C33.3268 91.4555 35.0758 93.195 35.2754 93.5087C35.4084 93.7273 35.4275 93.6702 35.532 92.5106C35.8552 89.0887 36.2639 86.3606 36.8818 83.395C36.9293 83.1859 37.0148 82.7581 37.0719 82.4445C37.1384 82.1308 37.243 81.665 37.3095 81.3989C37.376 81.1422 37.4806 80.667 37.5471 80.3533C37.6137 80.0396 37.7468 79.4883 37.8418 79.1176C37.9369 78.7564 38.0794 78.1766 38.1555 77.8344C38.2981 77.2831 38.5357 76.4181 38.6593 76.0284C38.6878 75.9523 38.7828 75.5911 38.8779 75.2204C38.9729 74.8592 39.0965 74.4315 39.1535 74.2699C39.2106 74.1178 39.3627 73.6235 39.4957 73.1768C39.8855 71.7985 40.1801 70.886 40.5889 69.7548C40.798 69.156 41.1021 68.2815 41.2637 67.8062C41.4158 67.3405 41.5869 66.9127 41.6439 66.8557C41.6915 66.8082 41.7295 66.6941 41.7295 66.5991C41.7295 66.504 41.7675 66.3519 41.815 66.2569C41.8626 66.1713 42.0051 65.8196 42.1382 65.4774C42.585 64.3178 43.2408 62.6734 43.6876 61.6278C43.9252 61.0575 44.2009 60.3921 44.2959 60.1545C44.4575 59.7362 44.7237 59.1564 45.2179 58.0633C45.351 57.7781 45.5221 57.3884 45.6077 57.2078C45.9404 56.4284 47.5087 53.149 48.1171 51.9323C48.925 50.3259 50.636 47.0276 51.1113 46.1816C51.2728 45.8965 51.5865 45.3166 51.8051 44.8984C52.2899 43.9954 52.4705 43.6627 52.9078 42.9023C53.0884 42.5886 53.288 42.2179 53.345 42.0658C53.4115 41.9232 53.4876 41.8092 53.5256 41.8092C53.5636 41.8092 53.6207 41.7046 53.6492 41.5715C53.6872 41.4385 53.7537 41.3339 53.8013 41.3339C53.8583 41.3339 53.8963 41.2864 53.8963 41.2293C53.8963 41.1343 54.6472 39.8035 55.3696 38.6154C55.4742 38.4443 55.8829 37.7599 56.2726 37.0945C56.6624 36.4292 57.0711 35.7448 57.1757 35.5737C57.2802 35.4026 57.5083 35.0224 57.6889 34.7087C57.86 34.4045 58.0406 34.1384 58.0787 34.1099C58.1072 34.0813 58.1642 33.9958 58.2022 33.9197C58.2307 33.8437 58.5254 33.3684 58.8391 32.8742C59.1528 32.3799 59.4379 31.9046 59.4759 31.8286C59.514 31.7525 59.5615 31.667 59.5995 31.6385C59.628 31.6099 59.8276 31.3153 60.0368 30.9826C60.3504 30.4598 61.7667 28.2831 62.0709 27.8363C62.3085 27.4941 64.124 24.7661 64.2096 24.6235C64.2666 24.538 64.3807 24.3859 64.4757 24.2813C64.5613 24.1768 64.6373 24.0627 64.6373 24.0247C64.6373 23.9867 64.6944 23.8916 64.7609 23.8251C64.8274 23.7585 64.989 23.5209 65.1126 23.3023C65.2362 23.0742 65.3693 22.8936 65.4073 22.8936C65.4453 22.8936 65.5023 22.8175 65.5308 22.7225C65.5689 22.6274 65.6639 22.4658 65.759 22.3613C65.8445 22.2567 66.1202 21.8765 66.3768 21.5058C66.624 21.1351 66.9091 20.7358 67.0137 20.6123C67.1182 20.4887 67.2038 20.3651 67.2038 20.3271C67.2038 20.2986 67.2798 20.1845 67.3749 20.08C67.4699 19.9849 67.9262 19.3671 68.3919 18.7112C68.8577 18.0553 69.2949 17.4565 69.3615 17.3805C69.4565 17.2664 70.9869 15.2323 71.7188 14.2532C72.023 13.835 73.0305 12.5803 73.0971 12.5327C73.1351 12.5042 73.3347 12.2476 73.5438 11.9624C73.753 11.6773 74.0096 11.3541 74.1047 11.2495C74.2092 11.145 74.4563 10.8408 74.6655 10.5842C74.8746 10.318 75.0837 10.0709 75.1407 10.0138C75.1978 9.96631 75.4164 9.70967 75.616 9.44352C75.8251 9.18687 76.0152 8.94924 76.0437 8.92072C76.0723 8.89221 76.3954 8.531 76.7566 8.11277C77.1083 7.69454 77.5076 7.24779 77.6216 7.11471C77.7452 6.98164 78.1729 6.51588 78.5817 6.06913C80.1595 4.32965 82.3078 2.2765 83.2678 1.5731C83.5529 1.36399 83.8096 1.16437 83.8381 1.13586C83.9427 1.01229 84.6841 0.575044 85.1974 0.337411C85.8532 0.0332401 87.0224 -0.0903291 87.8589 0.0712615C89.0185 0.289884 90.2257 1.02179 91.4994 2.30501C92.2503 3.06544 93.2484 4.32965 93.2484 4.53877C93.2484 4.5958 93.2769 4.64333 93.3244 4.64333C93.4955 4.64333 94.2465 6.52538 94.4651 7.54245C94.5221 7.8086 94.6362 8.29337 94.7122 8.63556C94.7883 8.97776 94.9023 9.91878 94.9688 10.7362C95.1304 12.7609 94.9879 14.5954 94.4651 17.3805C94.1799 18.9298 93.5145 21.2491 92.9632 22.6084C92.8682 22.846 92.6305 23.4449 92.4404 23.9391C92.2408 24.4334 91.9367 25.1653 91.7561 25.5551C90.9101 27.3706 90.7295 27.7413 90.3588 28.5017C89.7124 29.7849 88.6668 31.781 88.6003 31.8286C88.5718 31.8571 88.4197 32.1232 88.2581 32.4274C88.106 32.7316 87.9254 33.0548 87.8779 33.1403C87.8208 33.2259 87.5547 33.6916 87.2695 34.1574C86.6232 35.2505 85.5301 36.9995 85.4445 37.0565C85.416 37.085 85.3114 37.2466 85.2259 37.4177C85.1403 37.5793 85.0358 37.7219 84.9883 37.7219C84.9407 37.7219 84.8552 37.8454 84.7886 38.007C84.7221 38.1591 84.5795 38.3872 84.4655 38.5108C84.3609 38.6344 84.1423 38.9005 83.9902 39.1097C83.6385 39.5754 82.2222 40.9917 81.6519 41.4385C80.9865 41.9613 79.9124 42.6361 78.9714 43.1209C78.0399 43.6057 78.0209 43.7292 78.9334 43.4726C79.247 43.3871 79.6653 43.273 79.8459 43.2255C80.8724 42.9593 81.2717 42.8357 81.3192 42.7502C81.3572 42.7027 81.4428 42.6646 81.5188 42.6646C81.7089 42.6646 83.3058 41.9803 83.3438 41.8852C83.3628 41.8472 83.4389 41.8092 83.5054 41.8092C83.572 41.8092 83.7621 41.7046 83.9142 41.5715C84.2468 41.2959 84.4464 41.2674 84.3704 41.505C84.3419 41.5905 84.2754 41.8852 84.2183 42.1419C84.0282 43.0354 83.9522 43.2825 83.648 44.1855C82.9066 46.3622 81.4238 49.6416 80.4922 51.1719C79.0474 53.5483 76.7376 55.5919 74.0191 56.9131C73.6674 57.0842 73.3918 57.2458 73.4108 57.2648C73.4583 57.3124 74.8936 56.9321 75.4734 56.723C75.654 56.666 75.8917 56.5805 75.9962 56.5424C76.4335 56.3903 78.4201 55.3733 78.8858 55.0691C79.1615 54.8885 79.4276 54.7554 79.4752 54.7839C79.5227 54.8125 79.4466 55.0121 79.3231 55.2117C79.19 55.4208 79.0854 55.6109 79.0854 55.6489C79.0854 55.744 78.2965 57.0652 78.211 57.0937C78.1729 57.1127 78.1349 57.1698 78.1349 57.2268C78.1349 57.5025 76.4525 59.6412 75.4259 60.6772C74.0096 62.0935 72.7834 62.987 71.101 63.833C70.5782 64.0897 70.5306 64.1372 70.8158 64.0897C71.6048 63.9661 73.0496 63.5669 73.7149 63.2912C73.8195 63.2532 74.0571 63.1581 74.2377 63.0916C74.4183 63.0251 74.6369 62.9205 74.7225 62.8445C74.8746 62.7114 75.1883 62.6734 75.1883 62.7874C75.1883 62.8635 75.0647 63.2437 74.808 64.0041C74.694 64.3178 74.4849 64.9356 74.3328 65.3824C73.9145 66.5991 73.8005 66.8937 73.7339 66.9603C73.6959 66.9983 73.6674 67.0933 73.6674 67.1789C73.6674 67.2644 73.5153 67.7207 73.3252 68.1865C73.1351 68.6617 72.9355 69.1465 72.888 69.2796C72.8404 69.4126 72.7359 69.6408 72.6598 69.7833C72.5838 69.9354 72.5268 70.097 72.5268 70.1446C72.5268 70.2016 72.4127 70.4867 72.2796 70.7814C72.023 71.3422 71.8899 71.6654 71.7568 71.9886C71.1105 73.6425 68.4775 78.7089 67.8026 79.6024C67.679 79.764 67.584 79.9255 67.584 79.9636C67.584 80.0016 67.3083 80.4198 66.9661 80.9046C66.6335 81.3894 66.1962 82.0072 65.9966 82.2924C65.797 82.5775 65.5689 82.8817 65.4928 82.9577C65.4168 83.0433 65.2267 83.2904 65.0651 83.49C64.913 83.6992 64.7419 83.9178 64.6849 83.9843C64.6373 84.0413 64.3807 84.336 64.1145 84.6402C62.8598 86.0945 61.2344 87.6153 59.647 88.8035C59.1813 89.1552 58.725 89.4974 58.649 89.5544C58.2307 89.8776 56.1491 91.1989 55.7974 91.3605C55.7213 91.3985 55.5312 91.503 55.3696 91.5981C53.8773 92.5011 51.3109 93.5467 49.0486 94.174C48.868 94.2216 48.5068 94.2976 48.2406 94.3356L47.7654 94.4022L48.6684 94.5257C50.4364 94.7634 51.2253 94.7824 52.518 94.6208C54.4952 94.3736 55.5027 94.117 56.9855 93.5182C57.8791 93.157 59.7801 92.1304 59.9797 91.9023C60.0082 91.8737 60.1508 91.7692 60.2934 91.6836C60.7972 91.3605 62.28 90.0962 62.7078 89.621C62.8693 89.4404 63.0404 89.3263 63.0785 89.3643C63.2781 89.5639 60.8162 93.6512 59.7991 94.8014C59.3524 95.3052 57.9266 96.731 57.5083 97.0827C57.0046 97.5104 55.8164 98.3659 55.7118 98.3659C55.6643 98.3659 55.6073 98.3944 55.5883 98.4419C55.5217 98.6035 53.25 99.8677 52.0903 100.381L51.4725 100.657L52.7081 100.6C54.9609 100.495 56.2346 100.001 57.4893 98.7651C57.879 98.3849 58.2212 98.0997 58.2498 98.1282C58.3638 98.2423 57.4418 99.8392 56.6624 100.885C54.4476 103.85 50.5504 105.961 46.2445 106.54C45.8263 106.588 45.1894 106.683 44.8187 106.74C44.4575 106.788 43.2884 106.864 42.2333 106.892C41.1687 106.921 40.3037 106.959 40.3037 106.978C40.3037 106.997 40.4273 107.139 40.5889 107.301C41.2257 107.947 41.9481 109.192 42.2998 110.257C42.4614 110.732 42.7656 112.206 42.7751 112.557C42.7751 112.719 42.604 112.605 42.4804 112.367C42.4139 112.215 42.2808 111.997 42.1953 111.863C42.1097 111.73 41.8341 111.312 41.5964 110.932C41.1021 110.162 40.4178 109.297 39.9805 108.888C39.6098 108.537 38.9254 108.061 38.7828 108.061C38.6403 108.061 38.7258 107.643 39.0205 106.873C39.1345 106.559 39.2961 106.094 39.3817 105.828C39.4672 105.571 39.7049 104.858 39.9235 104.259C40.1326 103.66 40.4368 102.805 40.5889 102.358C40.7409 101.911 41.0451 101.056 41.2542 100.457C41.4728 99.8582 41.7105 99.1738 41.7865 98.9362C41.8721 98.6986 42.0432 98.2138 42.1762 97.8431C42.4329 97.1302 42.4804 97.0066 42.7085 96.4173C42.7941 96.2082 42.9747 95.7139 43.1078 95.3242C43.2503 94.9345 43.507 94.2025 43.6971 93.7083C44.2864 92.0829 44.6476 91.1038 44.9613 90.2863C45.1229 89.8396 45.389 89.1267 45.5411 88.6895C45.6932 88.2617 45.8548 87.834 45.9023 87.7389C45.9499 87.6534 46.0829 87.3207 46.197 87.007C46.3871 86.4747 46.5867 85.9519 46.7673 85.4862C46.8909 85.1915 47.3566 83.9843 47.4327 83.7752C47.4707 83.6706 47.5658 83.414 47.6513 83.2049C47.8034 82.7962 48.4498 81.1327 48.5733 80.8285C48.6114 80.724 48.7539 80.3628 48.887 80.0206C49.2672 79.0225 50.0086 77.1405 50.1417 76.8363C50.2082 76.6842 50.3033 76.4466 50.3603 76.3135C50.5124 75.9333 52.2899 71.5323 52.3755 71.3232C52.423 71.2187 52.5656 70.886 52.6986 70.5913C52.8317 70.2966 52.9458 69.9925 52.9458 69.9259C52.9458 69.8499 52.9838 69.7548 53.0313 69.7073C53.0694 69.6503 53.25 69.2701 53.421 68.8613C53.7062 68.1389 53.7632 68.0154 53.9914 67.5686C54.0484 67.4641 54.0864 67.331 54.0864 67.2834C54.0864 67.2264 54.2005 66.9318 54.3336 66.6371C54.4666 66.3424 54.6092 66.0097 54.6567 65.9052C54.6948 65.8006 54.8469 65.4584 54.9894 65.1448C55.132 64.8311 55.2841 64.4889 55.3221 64.3843C55.3696 64.2798 55.5122 63.9471 55.6453 63.6524C55.7784 63.3577 55.8924 63.0916 55.8924 63.0631C55.8924 63.0346 55.997 62.7874 56.1206 62.5118C56.2441 62.2361 56.4628 61.7418 56.5958 61.4092C56.7384 61.086 56.976 60.5252 57.1376 60.1735C57.2992 59.8218 57.4988 59.3845 57.5749 59.2039C57.6509 59.0233 57.86 58.5576 58.0406 58.1773C58.2212 57.7971 58.3638 57.4644 58.3638 57.4359C58.3638 57.4074 58.4969 57.1032 58.6585 56.7515C59.2763 55.4113 60.0082 53.8239 60.2269 53.3676C60.3029 53.2156 60.3599 53.0445 60.3599 52.9969C60.3599 52.9399 60.417 52.8258 60.4835 52.7498C60.5595 52.6643 60.6831 52.4266 60.7592 52.2175C60.8447 52.0084 61.1584 51.324 61.453 50.6967C64.7229 43.8148 67.2418 38.796 69.9793 33.7772C70.1124 33.5205 70.331 33.1118 70.4546 32.8742C70.8348 32.1613 71.4051 31.1252 71.4812 31.0206C71.5667 30.9066 72.099 29.9465 72.3747 29.4047C72.4887 29.1956 72.6313 28.9675 72.6979 28.9009C72.7549 28.8344 72.8119 28.7203 72.8119 28.6443C72.8119 28.5777 72.8404 28.5017 72.888 28.4827C72.926 28.4732 73.0306 28.3021 73.1256 28.1215C73.4203 27.5322 73.9145 26.6957 74.0286 26.5816C74.0951 26.5151 74.1427 26.4295 74.1427 26.382C74.1427 26.3345 74.2187 26.1824 74.3233 26.0493C74.4183 25.9067 74.5799 25.6406 74.6845 25.46C74.9031 25.0608 75.578 23.9296 76.2909 22.7605C76.576 22.2947 76.8042 21.8765 76.8042 21.8385C76.8042 21.7909 76.8422 21.7529 76.8802 21.7529C76.9277 21.7529 77.0133 21.6579 77.0703 21.5343C77.1273 21.4202 77.2889 21.1541 77.422 20.945C77.5456 20.7359 77.7262 20.4412 77.8117 20.2796C77.8973 20.1275 78.0018 19.9754 78.0304 19.9469C78.0684 19.9184 78.2395 19.6617 78.4201 19.3766C78.6007 19.0914 78.7718 18.8348 78.8003 18.8063C78.8288 18.7778 79.0189 18.4831 79.2185 18.1409C79.4276 17.7987 79.6272 17.5135 79.6748 17.4945C79.7128 17.4755 79.7508 17.4185 79.7508 17.3615C79.7508 17.3139 80.112 16.7626 80.5493 16.1448C80.996 15.5174 81.4047 14.9186 81.4713 14.795C81.5283 14.681 81.6614 14.5004 81.7564 14.3958C81.861 14.2912 81.937 14.1772 81.937 14.1391C81.937 14.1011 81.9941 14.0061 82.0606 13.9395C82.3363 13.6449 82.6975 13.1126 82.5834 13.1506C82.5169 13.1791 82.3553 13.3597 82.2222 13.5498C82.0891 13.7399 81.937 13.9395 81.8895 13.9966C81.8325 14.0536 81.6234 14.3388 81.4142 14.6239C81.2051 14.9091 81.015 15.1657 80.977 15.1942C80.9485 15.2228 80.6443 15.6315 80.3116 16.0972C79.9789 16.5725 79.6367 17.0383 79.5417 17.1333C79.4466 17.2379 79.3706 17.352 79.3706 17.39C79.3706 17.428 79.3136 17.523 79.247 17.5896C79.0094 17.8367 78.1349 19.0914 78.1349 19.1865C78.1349 19.234 78.0969 19.2815 78.0589 19.2815C78.0113 19.2815 77.9258 19.3956 77.8593 19.5477C77.7927 19.6903 77.6787 19.8709 77.6026 19.9469C77.5266 20.023 77.2034 20.4982 76.8707 20.9925C76.5475 21.4868 76.2529 21.9145 76.2148 21.924C76.1673 21.943 76.1388 22.0001 76.1388 22.0476C76.1388 22.1331 75.597 22.9791 75.3784 23.2453C75.3308 23.3118 75.2833 23.3783 75.2833 23.3973C75.2833 23.4164 75.0647 23.7585 74.808 24.1578C74.5419 24.557 74.3328 24.9277 74.3328 24.9752C74.3328 25.0323 74.2948 25.0798 74.2377 25.0798C74.1902 25.0798 74.1427 25.1273 74.1427 25.1843C74.1427 25.2414 74.0381 25.422 73.905 25.5931C73.772 25.7642 73.6674 25.9353 73.6674 25.9638C73.6674 25.9923 73.4013 26.439 73.0781 26.9523C72.5078 27.8553 70.0554 32.0092 70.0554 32.0662C70.0554 32.0947 69.3045 33.4065 69.1048 33.7296C69.0573 33.8057 68.9147 34.0623 68.7912 34.3C68.6771 34.5376 68.43 34.9843 68.2494 35.298C67.4509 36.7238 67.2798 37.0375 67.0897 37.4367C66.9757 37.6743 66.8616 37.8835 66.8331 37.912C66.5384 38.1686 60.4075 50.4685 58.649 54.3087C58.4779 54.6794 58.1927 55.2972 58.0121 55.687C57.8315 56.0767 57.5749 56.628 57.4513 56.9036C57.3277 57.1698 57.1186 57.626 56.9951 57.9017C56.5103 58.9378 56.0825 59.8883 56.0825 59.9168C56.0825 59.9358 55.9305 60.2875 55.7403 60.6963C54.8278 62.6829 54.9609 62.3977 54.0864 64.4319C53.7632 65.1923 53.3735 66.0763 53.2214 66.409C53.0694 66.7321 52.9458 67.0268 52.9458 67.0553C52.9458 67.0838 52.8317 67.35 52.6986 67.6447C52.5656 67.9393 52.423 68.272 52.3755 68.3766C52.3374 68.4811 52.2044 68.7758 52.0998 69.0229C51.9857 69.2796 51.7671 69.8119 51.6055 70.2111C51.4439 70.6103 51.2728 70.981 51.2253 71.0381C51.1778 71.0856 51.1398 71.1806 51.1398 71.2567C51.1398 71.3707 50.7786 72.2262 50.5599 72.6255C50.5124 72.7205 50.4744 72.8441 50.4744 72.8916C50.4744 72.9962 50.0942 73.8801 49.8946 74.2414C49.847 74.3364 49.809 74.4505 49.809 74.5075C49.809 74.555 49.7045 74.8212 49.5809 75.0968C49.4573 75.3725 49.0486 76.3706 48.6684 77.3116C48.2882 78.2526 47.9365 79.1271 47.8889 79.2602C47.8319 79.3932 47.7369 79.6309 47.6703 79.783C47.6038 79.9446 47.3471 80.5814 47.1 81.2088C46.8529 81.8361 46.5962 82.4825 46.5297 82.6346C46.4536 82.7961 46.3016 83.1764 46.1875 83.49C46.0734 83.8037 45.9213 84.1934 45.8643 84.3455C45.7978 84.5071 45.6457 84.8873 45.5316 85.201C45.4081 85.5147 45.256 85.9044 45.1989 86.0565C44.9328 86.6933 44.4005 88.0811 44.2579 88.4994C44.1724 88.7465 44.0678 89.0316 44.0203 89.1172C43.9728 89.2122 43.8397 89.5449 43.7256 89.8586C43.6115 90.1723 43.4595 90.5525 43.3834 90.6951C43.3074 90.8472 43.2503 91.0468 43.2503 91.1323C43.2503 91.2274 43.2218 91.3319 43.1838 91.3605C43.1553 91.3985 43.0412 91.6551 42.9367 91.9213C42.4044 93.3661 42.2048 93.9269 41.9291 94.6588C41.7675 95.1056 41.5964 95.5523 41.5489 95.6569C41.5014 95.7614 41.3303 96.2082 41.1782 96.6549C41.0166 97.1017 40.779 97.767 40.6364 98.1282C40.5033 98.499 40.3512 98.8982 40.3037 99.0312C40.2657 99.1643 40.1136 99.5731 39.9805 99.9343C39.8379 100.305 39.5813 101.008 39.4007 101.503C38.9444 102.805 38.222 104.81 38.0604 105.257C37.9844 105.466 37.7943 105.999 37.6422 106.445C37.4901 106.892 37.1859 107.748 36.9768 108.346C36.7582 108.945 36.5016 109.677 36.4065 109.962C36.3019 110.248 36.0453 110.979 35.8362 111.578C35.6271 112.177 35.4084 112.804 35.3704 112.957C35.3229 113.118 35.1803 113.565 35.0377 113.955C34.9047 114.344 34.0112 116.996 33.0701 119.848C32.1196 122.7 31.2926 125.18 31.2261 125.361C31.1596 125.542 31.0455 125.884 30.979 126.121C30.9124 126.359 30.7889 126.701 30.7033 126.891L30.5607 127.224L29.8954 126.891ZM99.3318 14.5764V13.2932H98.9041C98.5143 13.2932 98.4763 13.2742 98.4763 13.0555V12.8179H100.853V13.0555C100.853 13.2742 100.824 13.2932 100.377 13.2932H99.9021V15.8596H99.3318V14.5764ZM101.138 14.3388V12.8179H101.47C101.794 12.8179 101.813 12.8369 102.24 13.7209C102.488 14.2152 102.716 14.6239 102.754 14.6239C102.82 14.6239 103.238 13.816 103.524 13.1316C103.638 12.8559 103.704 12.8179 104.018 12.8179H104.379L104.351 14.3198L104.322 15.8121L104.065 15.8406L103.809 15.8691L103.78 14.8901L103.752 13.911L103.438 14.5764C102.982 15.5364 102.991 15.5269 102.773 15.5554C102.602 15.584 102.497 15.4414 102.136 14.7095L101.708 13.8255V15.8596H101.138V14.3388Z" fill="#772275"/>
<path d="M43.2978 94.7824C43.3358 94.6873 43.5069 94.2311 43.678 93.7558C44.2673 92.1589 44.657 91.0943 44.9612 90.2864C45.1228 89.8396 45.3889 89.1267 45.541 88.6895C45.6931 88.2522 45.8642 87.8245 45.9117 87.7389C45.9592 87.6534 46.1494 87.1496 46.3395 86.6268C46.5296 86.104 46.7197 85.5907 46.7672 85.4862C46.8908 85.1725 47.3565 83.9843 47.6512 83.2049C47.8033 82.7962 48.4496 81.1327 48.5732 80.8286C48.6112 80.724 48.7538 80.3628 48.8869 80.0206C49.2671 79.0225 50.0085 77.1405 50.1416 76.8363C50.2081 76.6842 50.3032 76.4466 50.3602 76.3135C50.5123 75.9333 52.2898 71.5323 52.3753 71.3232C52.4229 71.2187 52.5654 70.886 52.6985 70.5913C52.8316 70.2967 52.9457 69.9925 52.9457 69.9259C52.9457 69.8499 52.9837 69.7548 53.0312 69.6978C53.0692 69.6503 53.2498 69.2701 53.4209 68.8613C53.7061 68.1389 53.7631 68.0154 53.9912 67.5686C54.0483 67.4641 54.0863 67.331 54.0863 67.2835C54.0863 67.2264 54.2004 66.9318 54.3334 66.6371C54.4665 66.3424 54.6091 66.0097 54.6566 65.9052C54.6946 65.8006 54.8467 65.4584 54.9893 65.1448C55.1319 64.8311 55.284 64.4889 55.322 64.3843C55.3695 64.2798 55.5121 63.9471 55.6452 63.6524C55.7782 63.3578 55.8923 63.0916 55.8923 63.0631C55.8923 63.0346 55.9969 62.7874 56.1204 62.5118C56.244 62.2361 56.4626 61.7418 56.5957 61.4092C56.7383 61.086 56.9759 60.5252 57.1375 60.1735C57.2991 59.8218 57.4987 59.3845 57.5748 59.2039C57.6508 59.0233 57.8599 58.5576 58.0405 58.1774C58.2211 57.7971 58.3637 57.4645 58.3637 57.4359C58.3637 57.4074 58.4968 57.1032 58.6584 56.7516C59.2762 55.4113 60.0081 53.8239 60.2267 53.3677C60.3028 53.2156 60.3598 53.0445 60.3598 52.9969C60.3598 52.9399 60.4168 52.8259 60.4834 52.7498C60.5594 52.6643 60.683 52.4266 60.759 52.2175C60.8446 52.0084 61.1583 51.324 61.4529 50.6967C64.7228 43.8148 67.2417 38.796 69.9792 33.7772C70.1123 33.5205 70.3309 33.1118 70.4545 32.8742C70.8347 32.1613 71.405 31.1252 71.4811 31.0206C71.5666 30.9066 72.0989 29.9465 72.3746 29.4047C72.4886 29.1956 72.6312 28.9675 72.6882 28.9009C72.7548 28.8344 72.8118 28.7203 72.8118 28.6443C72.8118 28.5778 72.8403 28.5017 72.8878 28.4827C72.9259 28.4732 73.0304 28.3021 73.1255 28.1215C73.4202 27.5322 73.9144 26.6957 74.0285 26.5816C74.095 26.5151 74.1426 26.4295 74.1426 26.382C74.1426 26.3345 74.2186 26.1824 74.3232 26.0493C74.4182 25.9068 74.5798 25.6406 74.6844 25.46C74.903 25.0608 75.5779 23.9296 76.2908 22.7605C76.5759 22.2947 76.804 21.8765 76.804 21.8385C76.804 21.7909 76.8421 21.7529 76.8801 21.7529C76.9276 21.7529 77.0132 21.6579 77.0702 21.5343C77.1272 21.4202 77.2888 21.1541 77.4219 20.945C77.5455 20.7359 77.7261 20.4412 77.8116 20.2796C77.8972 20.1275 78.0017 19.9754 78.0302 19.9469C78.0683 19.9184 78.2393 19.6617 78.4199 19.3766C78.6005 19.0914 78.7716 18.8348 78.8002 18.8063C78.8287 18.7778 79.0188 18.4831 79.2184 18.1409C79.4275 17.7987 79.6271 17.5135 79.6746 17.4945C79.7127 17.4755 79.7507 17.4185 79.7507 17.3615C79.7507 17.3139 80.1119 16.7626 80.5491 16.1448C80.9959 15.5174 81.4046 14.9186 81.4712 14.795C81.5282 14.681 81.6613 14.5004 81.7563 14.3958C81.8609 14.2912 81.9369 14.1772 81.9369 14.1392C81.9369 14.1011 81.994 14.0061 82.0605 13.9395C82.3361 13.6449 82.6973 13.1126 82.5833 13.1506C82.5168 13.1791 82.3552 13.3597 82.2221 13.5498C82.089 13.7399 81.9369 13.9395 81.8894 13.9966C81.8324 14.0536 81.6232 14.3388 81.4141 14.6239C81.205 14.9091 81.0149 15.1657 80.9769 15.1942C80.9484 15.2228 80.6442 15.6315 80.3115 16.0972C79.9788 16.5725 79.6366 17.0383 79.5416 17.1333C79.4465 17.2379 79.3705 17.352 79.3705 17.39C79.3705 17.428 79.3135 17.523 79.2469 17.5896C79.0093 17.8367 78.1348 19.0914 78.1348 19.1865C78.1348 19.234 78.0968 19.2815 78.0588 19.2815C78.0112 19.2815 77.9257 19.3956 77.8591 19.5477C77.7926 19.6903 77.6785 19.8709 77.6025 19.9469C77.5264 20.023 77.2033 20.4982 76.8706 20.9925C76.5474 21.4868 76.2527 21.9145 76.2147 21.924C76.1672 21.943 76.1387 22.0001 76.1387 22.0476C76.1387 22.1331 75.5969 22.9791 75.3782 23.2453C75.3307 23.3118 75.2832 23.3783 75.2832 23.3973C75.2832 23.4164 75.0741 23.7585 74.8079 24.1578C74.5513 24.557 74.3327 24.9277 74.3327 24.9752C74.3327 25.0323 74.2946 25.0798 74.2376 25.0798C74.1901 25.0798 74.1426 25.1273 74.1426 25.1843C74.1426 25.2414 74.038 25.422 73.9049 25.5931C73.7718 25.7642 73.6673 25.9353 73.6673 25.9638C73.6673 25.9923 73.4011 26.4391 73.078 26.9523C72.5076 27.8553 70.0553 32.0092 70.0553 32.0662C70.0553 32.0947 69.3043 33.4065 69.1047 33.7296C69.0572 33.8057 68.9146 34.0623 68.791 34.3C68.677 34.5376 68.4298 34.9843 68.2492 35.298C67.4508 36.7238 67.2797 37.0375 67.0896 37.4367C66.9755 37.6744 66.8615 37.8835 66.833 37.912C66.5383 38.1686 60.4073 50.4685 58.6489 54.3087C58.4778 54.6794 58.1926 55.2972 58.012 55.687C57.8314 56.0767 57.5748 56.628 57.4512 56.9036C57.3276 57.1698 57.1185 57.626 56.9949 57.9017C56.5102 58.9378 56.0824 59.8883 56.0824 59.9168C56.0824 59.9358 55.9303 60.2875 55.7402 60.6963C54.8277 62.6829 54.9608 62.3977 54.0863 64.4319C53.7631 65.1923 53.3734 66.0763 53.2213 66.409C53.0692 66.7321 52.9457 67.0268 52.9457 67.0553C52.9457 67.0838 52.8316 67.35 52.6985 67.6447C52.5654 67.9393 52.4229 68.272 52.3753 68.3766C52.3373 68.4811 52.2042 68.7758 52.0997 69.0229C51.9856 69.2796 51.767 69.8119 51.6054 70.2111C51.4438 70.6103 51.2727 70.981 51.2252 71.0286C51.1777 71.0856 51.1397 71.1806 51.1397 71.2567C51.1397 71.3708 50.7784 72.2262 50.5598 72.6255C50.5123 72.7205 50.4743 72.8441 50.4743 72.8916C50.4743 72.9962 50.0941 73.8802 49.8945 74.2414C49.8469 74.3364 49.8089 74.4505 49.8089 74.5075C49.8089 74.555 49.7043 74.8212 49.5808 75.0968C49.4572 75.3725 49.0485 76.3706 48.6683 77.3116C48.2881 78.2526 47.9364 79.1271 47.8888 79.2602C47.8318 79.3932 47.7367 79.6309 47.6702 79.783C47.366 80.5149 45.9592 84.0604 45.5315 85.201C45.4079 85.5147 45.2559 85.9044 45.1988 86.0565C44.9327 86.6933 44.4004 88.0811 44.2578 88.4994C44.1722 88.7465 44.0677 89.0317 44.0202 89.1172C43.9726 89.2123 43.8396 89.5449 43.7255 89.8586C43.6114 90.1723 43.4688 90.562 43.3928 90.7141C43.3263 90.8757 43.1457 91.3224 43.0126 91.7122C42.87 92.1019 42.6419 92.7387 42.5088 93.1094C42.3092 93.6417 42.2332 93.7748 42.1476 93.6798C42.0811 93.6227 41.5488 92.6152 40.9594 91.4555L39.8948 89.3453L39.315 89.0602C37.8987 88.3853 37.0908 88.0146 36.6915 87.853C36.4539 87.7674 36.2353 87.6629 36.1973 87.6344C36.1593 87.6059 36.1783 87.3872 36.2353 87.1496C36.2923 86.912 36.3303 86.6553 36.3303 86.5793C36.3303 86.2276 37.1478 81.9027 37.3474 81.2088C37.3949 81.0567 37.4805 80.667 37.547 80.3533C37.7086 79.6119 38.3455 77.1025 38.5926 76.266C38.6401 76.1139 38.7542 75.6481 38.8588 75.2489C38.9633 74.8497 39.0774 74.479 39.1059 74.422C39.1439 74.3649 39.2485 74.0132 39.353 73.633C39.4481 73.2528 39.6477 72.5969 39.7903 72.1787C39.9234 71.7605 40.0754 71.2947 40.1135 71.1331C40.161 70.981 40.3701 70.3537 40.5887 69.7548C40.7979 69.156 41.102 68.2815 41.2636 67.8063C41.4157 67.3405 41.5868 66.9128 41.6438 66.8652C41.6914 66.8082 41.7294 66.6941 41.7294 66.5991C41.7294 66.504 41.7674 66.3519 41.8149 66.2569C41.8624 66.1713 42.005 65.8196 42.1381 65.4774C42.5849 64.3178 43.2407 62.6734 43.6875 61.6278C43.9251 61.0575 44.2008 60.3921 44.2958 60.1545C44.4574 59.7362 44.7236 59.1564 45.2178 58.0633C45.3509 57.7781 45.522 57.3884 45.6075 57.2078C45.9402 56.4284 47.5086 53.149 48.117 51.9324C48.9249 50.3259 50.6359 47.0276 51.1111 46.1816C51.2727 45.8965 51.5864 45.3166 51.805 44.8984C52.2898 43.9954 52.4704 43.6627 52.9076 42.9023C53.0882 42.5886 53.2879 42.2179 53.3449 42.0753C53.4114 41.9232 53.4875 41.8092 53.5255 41.8092C53.5635 41.8092 53.6205 41.7046 53.6491 41.5715C53.6871 41.4385 53.7536 41.3339 53.8011 41.3339C53.8582 41.3339 53.8962 41.2864 53.8962 41.2293C53.8962 41.1343 54.6471 39.8035 55.3695 38.6154C55.4741 38.4443 55.8828 37.7599 56.2725 37.0945C56.6622 36.4292 57.071 35.7448 57.1755 35.5737C57.2801 35.4026 57.5082 35.0224 57.6888 34.7087C57.8599 34.4045 58.0405 34.1384 58.0785 34.1099C58.1071 34.0813 58.1641 33.9958 58.2021 33.9197C58.2306 33.8437 58.5253 33.3684 58.839 32.8742C59.1526 32.3799 59.4378 31.9046 59.4758 31.8286C59.5138 31.7525 59.5614 31.667 59.5994 31.6385C59.6279 31.61 59.8275 31.3153 60.0366 30.9826C60.3503 30.4598 61.7666 28.2831 62.0708 27.8363C62.3084 27.4941 64.1239 24.7661 64.2095 24.6235C64.2665 24.538 64.3806 24.3859 64.4756 24.2813C64.5612 24.1768 64.6372 24.0627 64.6372 24.0247C64.6372 23.9867 64.6943 23.8916 64.7608 23.8251C64.8273 23.7585 64.9889 23.5209 65.1125 23.2928C65.2361 23.0742 65.3691 22.8936 65.4072 22.8936C65.4452 22.8936 65.5022 22.8175 65.5307 22.7225C65.5687 22.6274 65.6638 22.4658 65.7588 22.3613C65.8444 22.2567 66.1201 21.8765 66.3767 21.5058C66.6238 21.1351 66.909 20.7359 67.0136 20.6123C67.1181 20.4887 67.2037 20.3651 67.2037 20.3271C67.2037 20.2986 67.2797 20.1845 67.3748 20.08C67.4698 19.9849 67.9261 19.3671 68.3918 18.7112C68.8576 18.0553 69.2948 17.4565 69.3614 17.3805C69.4564 17.2664 70.9868 15.2323 71.7187 14.2532C72.0229 13.835 73.0304 12.5803 73.097 12.5328C73.135 12.5042 73.3346 12.2476 73.5437 11.9624C73.7528 11.6773 74.0095 11.3541 74.1045 11.2495C74.2091 11.145 74.4562 10.8408 74.6653 10.5842C74.8745 10.318 75.0836 10.0709 75.1406 10.0138C75.1976 9.96631 75.4163 9.70967 75.6159 9.44352C75.825 9.18687 76.0151 8.94924 76.0436 8.92072C76.0721 8.89221 76.3953 8.53101 76.7565 8.11277C77.1082 7.69454 77.5074 7.24779 77.6215 7.11471C77.7451 6.98164 78.1728 6.51588 78.5815 6.06913C80.1594 4.32965 82.3076 2.2765 83.2677 1.5731C83.5528 1.36399 83.8095 1.16437 83.838 1.13586C83.9425 1.01229 84.684 0.575044 85.1973 0.337411C85.8531 0.0332402 87.0223 -0.0903291 87.8587 0.0712615C89.0184 0.289884 90.2256 1.02179 91.4993 2.30501C92.2502 3.06544 93.2483 4.32965 93.2483 4.53877C93.2483 4.5958 93.2768 4.64333 93.3243 4.64333C93.4954 4.64333 94.2463 6.52538 94.465 7.54245C94.522 7.8086 94.636 8.29337 94.7121 8.63556C94.7881 8.97776 94.9022 9.91878 94.9687 10.7362C95.1303 12.7609 94.9877 14.5954 94.465 17.3805C94.1798 18.9298 93.5144 21.2491 92.9631 22.6084C92.8681 22.846 92.6304 23.4449 92.4403 23.9391C92.2407 24.4334 91.9365 25.1653 91.7559 25.5551C90.91 27.3706 90.7294 27.7413 90.3586 28.5017C89.7123 29.7849 88.6667 31.781 88.6002 31.8286C88.5716 31.8571 88.4196 32.1232 88.258 32.4274C88.1059 32.7316 87.9253 33.0548 87.8778 33.1403C87.8207 33.2259 87.5546 33.6916 87.2694 34.1574C86.6231 35.2505 85.5299 36.9995 85.4444 37.0565C85.4159 37.085 85.3113 37.2466 85.2258 37.4177C85.1402 37.5793 85.0357 37.7219 84.9881 37.7219C84.9406 37.7219 84.8551 37.8454 84.7885 38.007C84.722 38.1591 84.5794 38.3872 84.4653 38.5108C84.3608 38.6344 84.1422 38.9005 83.9901 39.1097C83.6384 39.5754 82.2221 40.9917 81.6518 41.4385C80.9864 41.9613 79.9123 42.6361 78.9713 43.1209C78.0397 43.6057 78.0207 43.7292 78.9332 43.4726C79.2469 43.3871 79.6651 43.273 79.8457 43.2255C80.8723 42.9593 81.2715 42.8357 81.3191 42.7502C81.3571 42.7027 81.4426 42.6647 81.5187 42.6647C81.7088 42.6647 83.3057 41.9803 83.3437 41.8852C83.3627 41.8472 83.4388 41.8092 83.5053 41.8092C83.5718 41.8092 83.7619 41.7046 83.914 41.5715C84.2467 41.2959 84.4463 41.2674 84.3703 41.505C84.3418 41.5905 84.2752 41.8852 84.2182 42.1419C84.0281 43.0354 83.952 43.2825 83.6479 44.1855C82.9065 46.3622 81.4236 49.6416 80.4921 51.1719C79.0473 53.5483 76.7375 55.5919 74.019 56.9131C73.6673 57.0842 73.3916 57.2458 73.4106 57.2648C73.4582 57.3124 74.8935 56.9322 75.4733 56.723C75.6539 56.666 75.8915 56.5805 75.9961 56.5424C76.4333 56.3904 78.42 55.3733 78.8857 55.0691C79.1614 54.8885 79.4275 54.7554 79.475 54.7839C79.5226 54.8125 79.4465 55.0121 79.323 55.2117C79.1899 55.4208 79.0853 55.6109 79.0853 55.6489C79.0853 55.744 78.2964 57.0652 78.2108 57.0937C78.1728 57.1128 78.1348 57.1698 78.1348 57.2268C78.1348 57.5025 76.4523 59.6412 75.4258 60.6773C74.0095 62.0935 72.7833 62.987 71.1008 63.833C70.5781 64.0897 70.5305 64.1372 70.8157 64.0897C71.6046 63.9661 73.0494 63.5669 73.7148 63.2912C73.8194 63.2532 74.057 63.1581 74.2376 63.0916C74.4182 63.0251 74.6368 62.9205 74.7224 62.8445C74.8745 62.7114 75.1881 62.6734 75.1881 62.7874C75.1881 62.8635 75.0646 63.2437 74.8079 64.0041C74.6939 64.3178 74.4847 64.9356 74.3327 65.3824C73.9144 66.5991 73.8004 66.8937 73.7338 66.9603C73.6958 66.9983 73.6673 67.0934 73.6673 67.1789C73.6673 67.2645 73.5152 67.7207 73.3251 68.1865C73.135 68.6617 72.9354 69.1465 72.8878 69.2796C72.8403 69.4127 72.7358 69.6408 72.6597 69.7834C72.5837 69.9354 72.5266 70.097 72.5266 70.1446C72.5266 70.2016 72.4126 70.4868 72.2795 70.7814C72.1464 71.0761 71.9943 71.4183 71.9468 71.5418C71.8993 71.6559 71.8233 71.846 71.7757 71.9696C70.9963 73.8611 68.4869 78.6994 67.8025 79.6024C67.6789 79.764 67.5839 79.9256 67.5839 79.9636C67.5839 80.0016 67.3082 80.4198 66.966 80.9046C66.6333 81.3894 66.1961 82.0072 65.9965 82.2924C65.7969 82.5775 65.5687 82.8817 65.4927 82.9577C65.4167 83.0433 65.2266 83.2904 65.065 83.49C64.9129 83.6992 64.7418 83.9178 64.6847 83.9843C64.6372 84.0414 64.3806 84.336 64.1144 84.6402C62.8977 86.047 61.1583 87.6724 59.6469 88.8035C59.1812 89.1552 58.7249 89.4974 58.6489 89.5545C58.2306 89.8776 56.149 91.1989 55.7973 91.3605C55.7212 91.3985 55.5121 91.5126 55.3505 91.6171C53.5445 92.7102 50.2652 93.9554 48.0979 94.3641C47.385 94.4972 43.697 94.944 43.2978 94.944C43.2597 94.944 43.2597 94.8679 43.2978 94.7824ZM60.0747 94.4402C60.0747 94.3927 60.1222 94.2786 60.1697 94.174C60.2648 94.0125 60.1697 93.9459 59.2667 93.5087C58.4302 93.0999 58.2782 93.0049 58.3732 92.8908C58.4397 92.8148 58.5443 92.7673 58.6203 92.7958C58.6869 92.8243 58.7439 92.8148 58.7439 92.7673C58.7439 92.7292 58.934 92.5866 59.1717 92.4631C59.4093 92.3395 59.5994 92.2064 59.5994 92.1684C59.5994 92.1209 59.6849 92.0924 59.7895 92.0924C59.8941 92.0924 59.9796 92.0353 59.9796 91.9783C59.9796 91.9118 60.1222 91.7692 60.3028 91.6646C60.8066 91.37 61.5765 90.7521 62.2989 90.0582C62.8978 89.4879 63.1164 89.3358 63.1164 89.4879C63.1164 89.5354 62.8977 89.9347 62.2704 91.0468C62.1088 91.3319 61.8331 91.8167 61.6716 92.1209C61.5005 92.4156 61.3008 92.6627 61.2248 92.6627C61.1488 92.6627 61.1203 92.6912 61.1488 92.7292C61.1868 92.7577 61.1488 92.8718 61.0537 92.9669C60.9682 93.0619 60.9301 93.138 60.9777 93.138C61.0157 93.138 60.9492 93.2235 60.8256 93.3376C60.702 93.4421 60.664 93.5087 60.74 93.4706C60.8541 93.4231 60.8541 93.4326 60.7305 93.5372C60.6545 93.6037 60.4739 93.8509 60.3313 94.0885C60.1887 94.3261 60.0747 94.4782 60.0747 94.4402ZM99.3317 14.5764V13.2932H98.9039C98.5142 13.2932 98.4762 13.2742 98.4762 13.0555V12.8179H100.853V13.0555C100.853 13.2742 100.824 13.2932 100.377 13.2932H99.902V15.8596H99.3317V14.5764ZM101.138 14.3388V12.8179H101.47C101.794 12.8179 101.813 12.8369 102.24 13.7209C102.487 14.2152 102.716 14.6239 102.754 14.6239C102.82 14.6239 103.238 13.816 103.524 13.1316C103.638 12.8559 103.704 12.8179 104.018 12.8179H104.379L104.35 14.3198L104.322 15.8121L104.065 15.8406L103.809 15.8691L103.78 14.8901L103.752 13.911L103.438 14.5764C102.982 15.5364 102.991 15.5269 102.773 15.5554C102.602 15.584 102.497 15.4414 102.136 14.7095L101.708 13.8255V15.8596H101.138V14.3388Z" fill="#C41931"/>
<path d="M43.2978 94.7824C43.3358 94.6873 43.4879 94.2691 43.6495 93.8509C43.8015 93.4326 44.0772 92.6817 44.2578 92.1874C44.4479 91.6931 44.7331 90.9042 44.9137 90.4289C45.3984 89.0887 45.7882 88.0716 45.8927 87.815C45.9497 87.6819 46.1494 87.1496 46.3395 86.6268C46.5296 86.104 46.7197 85.5907 46.7672 85.4862C46.8052 85.3816 46.9573 85.0014 47.0999 84.6307C47.2425 84.2695 47.3945 83.8798 47.4421 83.7752C47.4896 83.6707 47.6037 83.357 47.6987 83.0908C47.7938 82.8152 47.9078 82.6156 47.9554 82.6631C47.9934 82.7011 48.0029 82.6441 47.9744 82.5395C47.9173 82.3779 47.9268 82.3684 48.0314 82.492C48.136 82.6251 48.4306 82.7771 49.6188 83.3285C51.1967 84.0604 51.805 84.3455 52.4989 84.6687C52.9267 84.8683 53.516 85.144 53.8011 85.2771C54.0863 85.4101 54.7707 85.7238 55.322 85.9804C55.8733 86.2466 56.5577 86.5698 56.8428 86.7029C57.128 86.8359 57.8124 87.1496 58.3637 87.4062C58.915 87.6629 59.5424 87.9576 59.7705 88.0526C60.1317 88.2142 60.3123 88.4613 60.0747 88.4899C60.0271 88.4994 59.9416 88.5089 59.8941 88.5184C59.8465 88.5184 59.7705 88.5659 59.723 88.6134C59.6754 88.6609 59.6944 88.6705 59.7705 88.6324C59.8275 88.5944 59.8846 88.5849 59.8846 88.6134C59.8846 88.6324 59.5994 88.8606 59.2477 89.1077C58.8865 89.3548 58.5823 89.583 58.5538 89.621C58.4873 89.7065 56.3106 91.0753 55.7022 91.427C54.5806 92.0639 51.7955 93.3471 51.5484 93.3471C51.5104 93.3471 51.4343 93.3756 51.3773 93.4136C51.2157 93.5372 49.4097 94.079 48.5162 94.2691C47.6417 94.4592 46.8527 94.5638 44.676 94.8014C43.1076 94.9725 43.2122 94.982 43.2978 94.7824ZM60.1697 94.1835C60.2648 94.0124 60.1887 93.9554 59.2667 93.5087C58.4302 93.0999 58.2782 93.0049 58.3732 92.8908C58.4397 92.8148 58.5443 92.7673 58.6203 92.7958C58.6869 92.8243 58.7439 92.8148 58.7439 92.7673C58.7439 92.7292 58.934 92.5866 59.1717 92.4631C59.4093 92.3395 59.5994 92.2064 59.5994 92.1684C59.5994 92.1209 59.6849 92.0924 59.7895 92.0924C59.8941 92.0924 59.9796 92.0353 59.9796 91.9783C59.9796 91.9118 60.1222 91.7692 60.3028 91.6646C60.8066 91.37 61.5765 90.7521 62.2989 90.0582C62.8978 89.4879 63.1164 89.3358 63.1164 89.4879C63.1164 89.5354 62.8977 89.9347 62.2704 91.0468C62.1088 91.3319 61.8331 91.8167 61.6716 92.1209C61.5005 92.4156 61.3008 92.6627 61.2248 92.6627C61.1488 92.6627 61.1203 92.6912 61.1488 92.7292C61.1868 92.7577 61.1488 92.8718 61.0537 92.9669C60.9682 93.0619 60.9301 93.138 60.9777 93.138C61.0157 93.138 60.9492 93.2235 60.8256 93.3376C60.702 93.4421 60.664 93.5087 60.74 93.4706C60.8636 93.4231 60.8636 93.4326 60.74 93.5372C60.6545 93.6037 60.4929 93.8223 60.3693 94.0219C60.1412 94.3927 59.9891 94.5162 60.1697 94.1835ZM42.1381 93.6988C42.0811 93.6227 41.5583 92.6152 40.9689 91.4555L39.8948 89.3453L39.315 89.0602C37.8987 88.3853 37.0908 88.0146 36.6915 87.853C36.4539 87.7674 36.2353 87.6629 36.1973 87.6344C36.1593 87.6059 36.1783 87.3872 36.2353 87.1496C36.2923 86.912 36.3303 86.6553 36.3303 86.5793C36.3303 86.4367 36.5109 85.3436 36.7391 84.1554C36.8436 83.5661 37.2334 81.7316 37.452 80.781C37.49 80.6004 37.5755 80.2392 37.6231 79.9731C37.6801 79.7164 37.7752 79.3742 37.8322 79.2126C37.8892 79.0606 37.9367 78.9085 37.9367 78.88C37.9272 78.7184 38.1554 78.0245 38.2124 78.0245C38.2504 78.0245 38.2599 77.9199 38.2409 77.7963C38.2124 77.6728 38.2314 77.5492 38.2789 77.5207C38.3265 77.4922 38.8017 77.6823 39.334 77.9389C39.8758 78.1956 40.3321 78.4047 40.3511 78.4047C40.3701 78.4047 41.0165 78.7089 41.7769 79.0701C42.5373 79.4408 43.1837 79.7354 43.2027 79.7354C43.2217 79.7354 43.716 79.9636 44.3148 80.2487C46.9288 81.4844 46.8813 81.4654 46.9668 81.3323C47.1189 81.1042 47.0524 81.3228 46.8718 81.703C46.5771 82.2829 46.387 82.7486 46.387 82.8627C46.387 82.9673 46.1208 83.6706 45.3889 85.5337C44.5525 87.6819 44.1437 88.7465 43.7255 89.8586C43.6019 90.1723 43.4498 90.562 43.3833 90.7141C43.3168 90.8757 43.1837 91.2369 43.0791 91.522C42.9746 91.8072 42.7655 92.387 42.6134 92.8053C42.4518 93.2235 42.3092 93.6227 42.2902 93.6988C42.2522 93.8033 42.2332 93.8033 42.1381 93.6988ZM60.3693 88.1762C60.3883 88.1572 60.5594 88.0241 60.74 87.8625L61.0727 87.5773L60.7971 87.891C60.6355 88.0526 60.4739 88.1952 60.4168 88.1952C60.3693 88.1952 60.3503 88.1857 60.3693 88.1762ZM79.0758 42.7692C78.9427 42.7312 78.1443 42.3605 76.1577 41.4195C75.6254 41.1628 75.1691 40.9537 75.1406 40.9537C75.1216 40.9537 74.6178 40.7256 74.0285 40.4404C73.4392 40.1647 72.6977 39.8131 72.3841 39.6705C72.0704 39.5279 71.4716 39.2427 71.0533 39.0526C68.4964 37.8454 68.0877 37.6648 67.9831 37.6839C67.9166 37.6934 67.9071 37.6839 67.9641 37.6553C68.0116 37.6363 68.0591 37.5413 68.0591 37.4462C68.0591 37.3607 68.1162 37.1991 68.1922 37.0945C68.2683 36.99 68.4964 36.5907 68.7055 36.201C70.8537 32.1327 71.2814 31.3343 71.6427 30.764C71.7662 30.5644 71.8613 30.3838 71.8613 30.3648C71.8613 30.3457 72.1084 29.899 72.4126 29.3857C72.7167 28.8724 73.0399 28.3021 73.1255 28.1215C73.2205 27.9409 73.3441 27.7033 73.4106 27.5987C73.6293 27.247 73.9905 26.6482 74.0855 26.4581C74.2756 26.1159 75.5874 23.9011 75.806 23.5589C75.92 23.3783 76.4333 22.5419 76.9561 21.7054C77.9447 20.1085 78.6386 19.0154 78.7716 18.8538C78.8097 18.8063 79.0188 18.4831 79.2184 18.1409C79.4275 17.7987 79.6176 17.504 79.6461 17.4755C79.6747 17.447 79.9408 17.0668 80.245 16.62C80.8248 15.736 81.9749 14.0631 82.0985 13.911C82.4787 13.4358 82.6878 13.1126 82.5833 13.1506C82.5168 13.1791 82.3552 13.3597 82.2221 13.5498C82.089 13.7399 81.9369 13.9395 81.8894 13.9966C81.8324 14.0536 81.6232 14.3388 81.4141 14.6239C81.205 14.9091 81.0149 15.1657 80.9769 15.1942C80.9484 15.2228 80.6442 15.6315 80.3115 16.0972C79.9788 16.5725 79.6366 17.0383 79.5416 17.1333C79.4465 17.2379 79.3705 17.352 79.3705 17.39C79.3705 17.428 79.3135 17.523 79.2469 17.5896C79.0093 17.8367 78.1348 19.0914 78.1348 19.1865C78.1348 19.234 78.0968 19.2815 78.0588 19.2815C78.0112 19.2815 77.9257 19.3766 77.8781 19.5002C77.8211 19.6142 77.7071 19.7948 77.6215 19.8994C77.536 20.0039 77.2128 20.4792 76.8991 20.945C76.5854 21.4202 76.2908 21.867 76.2337 21.943C76.1767 22.0191 75.9866 22.3232 75.806 22.6084C75.6254 22.8936 75.4448 23.1787 75.4068 23.2262C75.2167 23.4544 74.3327 24.9087 74.3327 24.9752C74.3327 25.0228 74.3041 25.0798 74.2661 25.0988C74.1901 25.1273 73.6673 25.8972 73.6673 25.9733C73.6673 26.0018 73.3631 26.5056 72.9924 27.0949C72.4316 27.9979 70.7682 30.7925 70.0838 32.0187C69.9792 32.1993 69.6846 32.7126 69.4279 33.1593C69.1713 33.6061 68.8956 34.1003 68.8196 34.2524C68.7435 34.414 68.658 34.5566 68.6295 34.5851C68.6009 34.6136 68.4774 34.8323 68.3443 35.0889C67.793 36.125 67.6979 36.2866 67.6409 36.2295C67.6124 36.1915 67.5839 36.22 67.5839 36.2771C67.5839 36.4291 67.5173 36.4006 64.5707 35.0034C63.411 34.4615 62.527 34.0433 61.9282 33.7772C60.4929 33.1213 59.5424 32.6745 59.4093 32.5985C59.1907 32.4749 59.1907 32.2373 59.3998 32.0282C59.5138 31.9141 59.5994 31.8096 59.5899 31.781C59.5899 31.705 60.2458 30.6214 60.7115 29.956C60.9396 29.6233 61.1202 29.3382 61.1202 29.3192C61.1202 29.3002 61.3104 28.996 61.548 28.6348C61.7856 28.2736 62.0233 27.9124 62.0803 27.8363C62.2894 27.5132 63.3065 25.9733 63.392 25.8402C63.4776 25.7262 63.8103 25.2319 64.8273 23.749C64.8844 23.673 64.9984 23.4924 65.0935 23.3593C65.6828 22.4563 65.8159 22.2662 65.8634 22.2282C65.8919 22.1997 66.1201 21.8765 66.3767 21.5058C66.6238 21.1351 66.909 20.7359 67.0136 20.6123C67.1181 20.4887 67.2037 20.3651 67.2037 20.3271C67.2037 20.2986 67.2797 20.1845 67.3748 20.08C67.4698 19.9849 67.9261 19.3671 68.3918 18.7112C68.8576 18.0553 69.2948 17.4565 69.3614 17.3805C69.4564 17.2664 70.9868 15.2323 71.7187 14.2532C72.0229 13.835 73.0304 12.5803 73.097 12.5328C73.135 12.5042 73.3346 12.2476 73.5437 11.9624C73.7528 11.6773 74.0095 11.3541 74.1045 11.2495C74.2091 11.145 74.4562 10.8408 74.6653 10.5842C74.8745 10.318 75.0836 10.0709 75.1406 10.0138C75.1976 9.96631 75.4163 9.70967 75.6159 9.44352C75.825 9.18687 76.0151 8.94924 76.0436 8.92072C76.0721 8.89221 76.3953 8.53101 76.7565 8.11277C77.1082 7.69454 77.5074 7.24779 77.6215 7.11471C77.7451 6.98164 78.1728 6.51588 78.5815 6.06913C80.2355 4.26311 82.2981 2.2765 83.2677 1.5731C83.5528 1.36399 83.8095 1.16437 83.838 1.13586C83.9425 1.01229 84.684 0.575044 85.1973 0.337411C85.8531 0.0332402 87.0223 -0.0903291 87.8587 0.0712615C89.0184 0.289884 90.2256 1.02179 91.4993 2.30501C92.2502 3.06544 93.2483 4.32965 93.2483 4.53877C93.2483 4.5958 93.2863 4.64333 93.3243 4.64333C93.3623 4.64333 93.4479 4.75739 93.5049 4.90948C93.5714 5.05206 93.733 5.42276 93.8661 5.73644C94.1608 6.42082 94.3224 6.89609 94.465 7.54245C94.522 7.8086 94.636 8.29337 94.7121 8.63556C94.7881 8.97776 94.9022 9.91878 94.9687 10.7362C95.1303 12.7609 94.9877 14.5954 94.465 17.3805C94.1798 18.9298 93.5144 21.2491 92.9631 22.6084C92.8681 22.846 92.6304 23.4449 92.4308 23.9391C92.0981 24.7946 91.8605 25.3079 91.0811 26.9809C90.2826 28.6823 88.7237 31.724 88.6002 31.8286C88.5716 31.8571 88.4671 32.0282 88.3815 32.2088C88.1724 32.627 87.5451 33.7106 86.7561 35.0129C86.509 35.4216 85.0262 37.6839 84.9501 37.7694C84.9121 37.8264 84.798 37.9785 84.7125 38.1116C84.0756 39.1097 82.1936 41.1153 81.5377 41.505C81.3951 41.5905 81.2715 41.6951 81.2715 41.7426C81.2715 41.7807 81.224 41.7902 81.1765 41.7616C81.1195 41.7331 81.0529 41.7712 81.0244 41.8472C80.9959 41.9327 80.9103 41.9993 80.8533 41.9993C80.7868 41.9993 80.6442 42.0848 80.5301 42.1894C80.4161 42.2939 80.302 42.3795 80.264 42.3795C80.2355 42.3795 80.1024 42.465 79.9693 42.5696C79.8362 42.6742 79.6937 42.7312 79.6461 42.7027C79.5986 42.6742 79.5606 42.6932 79.5606 42.7312C79.5606 42.8167 79.2849 42.8452 79.0758 42.7692ZM99.3317 14.5764V13.2932H98.9039C98.5142 13.2932 98.4762 13.2742 98.4762 13.0555V12.8179H100.853V13.0555C100.853 13.2742 100.824 13.2932 100.377 13.2932H99.902V15.8596H99.3317V14.5764ZM101.138 14.3388V12.8179H101.47C101.794 12.8179 101.813 12.8369 102.24 13.7209C102.487 14.2152 102.716 14.6239 102.754 14.6239C102.82 14.6239 103.238 13.816 103.524 13.1316C103.638 12.8559 103.704 12.8179 104.018 12.8179H104.379L104.35 14.3198L104.322 15.8121L104.065 15.8406L103.809 15.8691L103.78 14.8901L103.752 13.911L103.438 14.5764C102.982 15.5364 102.991 15.5269 102.773 15.5554C102.602 15.584 102.497 15.4414 102.136 14.7095L101.708 13.8255V15.8596H101.138V14.3388Z" fill="#A21B56"/>
<path d="M79.0758 42.7692C78.9428 42.7312 78.1443 42.3605 76.1577 41.4195C75.6254 41.1628 75.1692 40.9537 75.1406 40.9537C75.1216 40.9537 74.6178 40.7256 74.0285 40.4404C73.4392 40.1647 72.6978 39.8131 72.3841 39.6705C72.0704 39.5279 71.4716 39.2427 71.0533 39.0526C68.4964 37.8454 68.0877 37.6648 67.9831 37.6839C67.9166 37.6934 67.9071 37.6839 67.9641 37.6553C68.0116 37.6363 68.0592 37.5413 68.0592 37.4462C68.0592 37.3607 68.1162 37.1991 68.1922 37.0945C68.2683 36.99 68.4964 36.5907 68.7055 36.201C70.8537 32.1327 71.2815 31.3343 71.6427 30.764C71.7662 30.5644 71.8613 30.3838 71.8613 30.3648C71.8613 30.3457 72.1084 29.899 72.4126 29.3857C72.7168 28.8724 73.04 28.3021 73.1255 28.1215C73.2206 27.9409 73.3441 27.7033 73.4107 27.5987C73.6293 27.247 73.9905 26.6482 74.0855 26.4581C74.2757 26.1159 75.5874 23.9011 75.806 23.5589C75.9201 23.3783 76.4334 22.5419 76.9562 21.7054C77.9447 20.1085 78.6386 19.0154 78.7717 18.8538C78.8097 18.8063 79.0188 18.4831 79.2184 18.1409C79.4275 17.7987 79.6176 17.504 79.6462 17.4755C79.6747 17.447 79.9408 17.0668 80.245 16.62C80.8248 15.736 81.975 14.0631 82.0985 13.911C82.4787 13.4358 82.6879 13.1126 82.5833 13.1506C82.5168 13.1791 82.3552 13.3597 82.2221 13.5498C82.089 13.7399 81.9369 13.9395 81.8894 13.9966C81.8324 14.0536 81.6233 14.3388 81.4142 14.6239C81.205 14.9091 81.0149 15.1657 80.9769 15.1942C80.9484 15.2228 80.6442 15.6315 80.3115 16.0972C79.9788 16.5725 79.6367 17.0383 79.5416 17.1333C79.4465 17.2379 79.3705 17.352 79.3705 17.39C79.3705 17.428 79.3135 17.523 79.2469 17.5896C79.0093 17.8367 78.1348 19.0914 78.1348 19.1865C78.1348 19.234 78.0968 19.2815 78.0588 19.2815C78.0112 19.2815 77.9257 19.3766 77.8782 19.5002C77.8211 19.6142 77.7071 19.7948 77.6215 19.8994C77.536 20.0039 77.2128 20.4792 76.8991 20.945C76.5854 21.4202 76.2908 21.867 76.2337 21.943C76.1767 22.0191 75.9866 22.3232 75.806 22.6084C75.6254 22.8936 75.4448 23.1787 75.4068 23.2262C75.2167 23.4544 74.3327 24.9087 74.3327 24.9752C74.3327 25.0228 74.3042 25.0798 74.2661 25.0988C74.1901 25.1273 73.6673 25.8972 73.6673 25.9733C73.6673 26.0018 73.3631 26.5056 72.9924 27.0949C72.4316 27.9979 70.7682 30.7925 70.0838 32.0187C69.9792 32.1993 69.6846 32.7126 69.4279 33.1593C69.1713 33.6061 68.8956 34.1003 68.8196 34.2524C68.7436 34.414 68.658 34.5566 68.6295 34.5851C68.601 34.6136 68.4774 34.8323 68.3443 35.0889C67.793 36.125 67.698 36.2866 67.6409 36.2295C67.6124 36.1915 67.5839 36.22 67.5839 36.2771C67.5839 36.4291 67.5174 36.4006 64.5707 35.0034C63.4111 34.4615 62.5271 34.0433 61.9282 33.7772C60.4929 33.1213 59.5424 32.6745 59.4093 32.5985C59.1907 32.4749 59.1907 32.2373 59.3998 32.0282C59.5139 31.9141 59.5994 31.8096 59.5899 31.781C59.5899 31.705 60.2458 30.6214 60.7115 29.956C60.9397 29.6233 61.1203 29.3382 61.1203 29.3192C61.1203 29.3002 61.3104 28.996 61.548 28.6348C61.7856 28.2736 62.0233 27.9124 62.0803 27.8363C62.2894 27.5132 63.3065 25.9733 63.3921 25.8402C63.4776 25.7262 63.8103 25.2319 64.8274 23.749C64.8844 23.673 64.9984 23.4924 65.0935 23.3593C65.6828 22.4563 65.8159 22.2662 65.8634 22.2282C65.892 22.1997 66.1201 21.8765 66.3767 21.5058C66.6239 21.1351 66.909 20.7359 67.0136 20.6123C67.1181 20.4887 67.2037 20.3651 67.2037 20.3271C67.2037 20.2986 67.2797 20.1845 67.3748 20.08C67.4698 19.9849 67.9261 19.3671 68.3919 18.7112C68.8576 18.0553 69.2949 17.4565 69.3614 17.3805C69.4564 17.2664 70.9868 15.2323 71.7187 14.2532C72.0229 13.835 73.0305 12.5803 73.097 12.5328C73.135 12.5042 73.3346 12.2476 73.5437 11.9624C73.7529 11.6773 74.0095 11.3541 74.1046 11.2495C74.2091 11.145 74.4563 10.8408 74.6654 10.5842C74.8745 10.318 75.0836 10.0709 75.1406 10.0138C75.1977 9.96631 75.4163 9.70967 75.6159 9.44352C75.825 9.18687 76.0151 8.94924 76.0436 8.92072C76.0722 8.89221 76.3953 8.53101 76.7565 8.11277C77.1082 7.69454 77.5075 7.24779 77.6215 7.11471C77.7451 6.98164 78.1728 6.51588 78.5816 6.06913C80.2355 4.26311 82.2981 2.2765 83.2677 1.5731C83.5528 1.36399 83.8095 1.16437 83.838 1.13586C83.9426 1.01229 84.684 0.575044 85.1973 0.337411C85.8531 0.0332402 87.0223 -0.0903291 87.8588 0.0712615C89.0184 0.289884 90.2256 1.02179 91.4993 2.30501C92.2502 3.06544 93.2483 4.32965 93.2483 4.53877C93.2483 4.5958 93.2863 4.64333 93.3243 4.64333C93.3624 4.64333 93.4479 4.75739 93.5049 4.90948C93.5715 5.05206 93.7331 5.42276 93.8661 5.73644C94.1608 6.42082 94.3224 6.89609 94.465 7.54245C94.522 7.8086 94.6361 8.29337 94.7121 8.63556C94.7881 8.97776 94.9022 9.91878 94.9687 10.7362C95.1303 12.7609 94.9878 14.5954 94.465 17.3805C94.1798 18.9298 93.5144 21.2491 92.9631 22.6084C92.8681 22.846 92.6304 23.4449 92.4308 23.9391C92.0981 24.7946 91.8605 25.3079 91.0811 26.9809C90.2826 28.6823 88.7237 31.724 88.6002 31.8286C88.5717 31.8571 88.4671 32.0282 88.3816 32.2088C88.1724 32.627 87.5451 33.7106 86.7561 35.0129C86.509 35.4216 85.0262 37.6839 84.9501 37.7694C84.9121 37.8264 84.798 37.9785 84.7125 38.1116C84.0756 39.1097 82.1936 41.1153 81.5377 41.505C81.3951 41.5905 81.2716 41.6951 81.2716 41.7426C81.2716 41.7807 81.224 41.7902 81.1765 41.7616C81.1195 41.7331 81.0529 41.7712 81.0244 41.8472C80.9959 41.9327 80.9104 41.9993 80.8533 41.9993C80.7868 41.9993 80.6442 42.0848 80.5302 42.1894C80.4161 42.2939 80.302 42.3795 80.264 42.3795C80.2355 42.3795 80.1024 42.465 79.9693 42.5696C79.8363 42.6742 79.6937 42.7312 79.6462 42.7027C79.5986 42.6742 79.5606 42.6932 79.5606 42.7312C79.5606 42.8167 79.285 42.8452 79.0758 42.7692ZM99.3317 14.5764V13.2932H98.904C98.5142 13.2932 98.4762 13.2742 98.4762 13.0555V12.8179H100.853V13.0555C100.853 13.2742 100.824 13.2932 100.377 13.2932H99.902V15.8596H99.3317V14.5764ZM101.138 14.3388V12.8179H101.47C101.794 12.8179 101.813 12.8369 102.24 13.7209C102.487 14.2152 102.716 14.6239 102.754 14.6239C102.82 14.6239 103.238 13.816 103.524 13.1316C103.638 12.8559 103.704 12.8179 104.018 12.8179H104.379L104.351 14.3198L104.322 15.8121L104.065 15.8406L103.809 15.8691L103.78 14.8901L103.752 13.911L103.438 14.5764C102.982 15.5364 102.991 15.5269 102.773 15.5554C102.602 15.584 102.497 15.4414 102.136 14.7095L101.708 13.8255V15.8596H101.138V14.3388Z" fill="#6F6F6E"/>
<path d="M79.0758 42.7692C78.9428 42.7312 78.1443 42.3605 76.1577 41.4195C75.6254 41.1628 75.1692 40.9537 75.1406 40.9537C75.1216 40.9537 74.6178 40.7256 74.0285 40.4404C73.4392 40.1647 72.6978 39.8131 72.3841 39.6705C72.0704 39.5279 71.4716 39.2427 71.0533 39.0526C68.4964 37.8454 68.0877 37.6648 67.9831 37.6839C67.9166 37.6934 67.9071 37.6839 67.9641 37.6553C68.0116 37.6363 68.0592 37.5413 68.0592 37.4462C68.0592 37.3607 68.1162 37.1991 68.1922 37.0945C68.2683 36.99 68.4964 36.5907 68.7055 36.201C70.8537 32.1327 71.2815 31.3343 71.6427 30.764C71.7662 30.5644 71.8613 30.3838 71.8613 30.3648C71.8613 30.3457 72.1084 29.899 72.4126 29.3857C72.7168 28.8724 73.04 28.3021 73.1255 28.1215C73.2206 27.9409 73.3441 27.7033 73.4107 27.5987C73.6293 27.247 73.9905 26.6482 74.0855 26.4581C74.2757 26.1159 75.5874 23.9011 75.806 23.5589C75.9201 23.3783 76.4334 22.5419 76.9562 21.7054C77.9447 20.1085 78.6386 19.0154 78.7717 18.8538C78.8097 18.8063 79.0188 18.4831 79.2184 18.1409C79.4275 17.7987 79.6176 17.504 79.6462 17.4755C79.6747 17.447 79.9408 17.0668 80.245 16.62C80.8248 15.736 81.975 14.0631 82.0985 13.911C82.4787 13.4358 82.6879 13.1126 82.5833 13.1506C82.5168 13.1791 82.3552 13.3597 82.2221 13.5498C82.089 13.7399 81.9369 13.9395 81.8894 13.9966C81.8324 14.0536 81.6233 14.3388 81.4142 14.6239C81.205 14.9091 81.0149 15.1657 80.9769 15.1942C80.9484 15.2228 80.6442 15.6315 80.3115 16.0972C79.9788 16.5725 79.6367 17.0383 79.5416 17.1333C79.4465 17.2379 79.3705 17.352 79.3705 17.39C79.3705 17.428 79.3135 17.523 79.2469 17.5896C79.0093 17.8367 78.1348 19.0914 78.1348 19.1865C78.1348 19.234 78.0968 19.2815 78.0588 19.2815C78.0112 19.2815 77.9257 19.3766 77.8782 19.5002C77.8211 19.6142 77.7071 19.7948 77.6215 19.8994C77.536 20.0039 77.2128 20.4792 76.8991 20.945C76.5854 21.4202 76.2908 21.867 76.2337 21.943C76.1767 22.0191 75.9866 22.3232 75.806 22.6084C75.6254 22.8936 75.4448 23.1787 75.4068 23.2262C75.2167 23.4544 74.3327 24.9087 74.3327 24.9752C74.3327 25.0228 74.3042 25.0798 74.2661 25.0988C74.1901 25.1273 73.6673 25.8972 73.6673 25.9733C73.6673 26.0018 73.3631 26.5056 72.9924 27.0949C72.4316 27.9979 70.7682 30.7925 70.0838 32.0187C69.9792 32.1993 69.6846 32.7126 69.4279 33.1593C69.1713 33.6061 68.8956 34.1003 68.8196 34.2524C68.7436 34.414 68.658 34.5566 68.6295 34.5851C68.601 34.6136 68.4774 34.8323 68.3443 35.0889C67.793 36.125 67.698 36.2866 67.6409 36.2295C67.6124 36.1915 67.5839 36.22 67.5839 36.2771C67.5839 36.4291 67.5174 36.4006 64.5707 35.0034C63.4111 34.4615 62.5271 34.0433 61.9282 33.7772C60.4929 33.1213 59.5424 32.6745 59.4093 32.5985C59.1907 32.4749 59.1907 32.2373 59.3998 32.0282C59.5139 31.9141 59.5994 31.8096 59.5899 31.781C59.5899 31.705 60.2458 30.6214 60.7115 29.956C60.9397 29.6233 61.1203 29.3382 61.1203 29.3192C61.1203 29.3002 61.3104 28.996 61.548 28.6348C61.7856 28.2736 62.0233 27.9124 62.0803 27.8363C62.2894 27.5132 63.3065 25.9733 63.3921 25.8402C63.4776 25.7262 63.8103 25.2319 64.8274 23.749C64.8844 23.673 64.9985 23.4924 65.0935 23.3593C65.6828 22.4563 65.8159 22.2662 65.8634 22.2282C65.892 22.1997 66.1201 21.8765 66.3767 21.5058C66.6239 21.1351 66.909 20.7359 67.0136 20.6123C67.1181 20.4887 67.2037 20.3651 67.2037 20.3271C67.2037 20.2986 67.2797 20.1845 67.3748 20.08C67.4698 19.9849 67.9261 19.3671 68.3919 18.7112C68.8576 18.0553 69.2949 17.4565 69.3614 17.3805C69.4564 17.2664 70.9868 15.2323 71.7187 14.2532C72.0229 13.835 73.0305 12.5803 73.097 12.5328C73.135 12.5042 73.3346 12.2476 73.5437 11.9624C73.7529 11.6773 74.0095 11.3541 74.1046 11.2495C74.2091 11.145 74.4563 10.8408 74.6654 10.5842C74.8745 10.318 75.0836 10.0709 75.1406 10.0138C75.1977 9.96631 75.4163 9.70967 75.6159 9.44352C75.825 9.18687 76.0151 8.94924 76.0436 8.92072C76.0722 8.89221 76.3953 8.53101 76.7565 8.11277C77.1082 7.69454 77.5075 7.24779 77.6215 7.11471C77.7451 6.98164 78.1728 6.51588 78.5816 6.06913C80.2355 4.26311 82.2981 2.2765 83.2677 1.5731C83.5528 1.36399 83.8095 1.16437 83.838 1.13586C83.9426 1.01229 84.684 0.575044 85.1973 0.337411C85.8531 0.0332402 87.0223 -0.0903291 87.8588 0.0712615C89.0184 0.289884 90.2256 1.02179 91.4993 2.30501C92.2502 3.06544 93.2483 4.32965 93.2483 4.53877C93.2483 4.5958 93.2863 4.64333 93.3243 4.64333C93.3624 4.64333 93.4479 4.75739 93.5049 4.90948C93.5715 5.05206 93.7331 5.42276 93.8661 5.73644C94.1608 6.42082 94.3224 6.89609 94.465 7.54245C94.522 7.8086 94.6361 8.29337 94.7121 8.63556C94.7882 8.97776 94.9022 9.91878 94.9688 10.7362C95.1303 12.7609 94.9878 14.5954 94.465 17.3805C94.1798 18.9298 93.5144 21.2491 92.9631 22.6084C92.8681 22.846 92.6304 23.4449 92.4308 23.9391C92.0981 24.7946 91.8605 25.3079 91.0811 26.9809C90.2826 28.6823 88.7237 31.724 88.6002 31.8286C88.5717 31.8571 88.4671 32.0282 88.3816 32.2088C88.1724 32.627 87.5451 33.7106 86.7562 35.0129C86.509 35.4216 85.0262 37.6839 84.9501 37.7694C84.9121 37.8264 84.7981 37.9785 84.7125 38.1116C84.0756 39.1097 82.1936 41.1153 81.5377 41.505C81.3951 41.5905 81.2716 41.6951 81.2716 41.7426C81.2716 41.7807 81.224 41.7902 81.1765 41.7616C81.1195 41.7331 81.0529 41.7712 81.0244 41.8472C80.9959 41.9327 80.9104 41.9993 80.8533 41.9993C80.7868 41.9993 80.6442 42.0848 80.5302 42.1894C80.4161 42.2939 80.302 42.3795 80.264 42.3795C80.2355 42.3795 80.1024 42.465 79.9693 42.5696C79.8363 42.6742 79.6937 42.7312 79.6462 42.7027C79.5986 42.6742 79.5606 42.6932 79.5606 42.7312C79.5606 42.8167 79.285 42.8452 79.0758 42.7692Z" fill="#DF5D15"/>
<path d="M78.9998 18.5021C79.1234 18.274 79.5607 17.5896 79.6842 17.428C79.7223 17.3805 79.9979 16.9717 80.3021 16.525C81.034 15.4414 81.8895 14.2152 82.3362 13.6069C82.5358 13.3312 82.6499 13.1316 82.5834 13.1506C82.5168 13.1791 82.3552 13.3597 82.2222 13.5498C82.0891 13.7399 81.9465 13.9395 81.8895 13.9966C81.8419 14.0536 81.6328 14.3198 81.4427 14.5764C81.2431 14.8426 81.053 15.0992 81.0055 15.1467C80.9674 15.2038 80.6918 15.565 80.4161 15.9547C80.131 16.3444 79.8648 16.6866 79.8268 16.6961C79.7793 16.7151 79.7508 16.7911 79.7508 16.8672C79.7508 16.9432 79.7127 17.0003 79.6747 17.0003C79.6367 17.0003 79.5226 17.1428 79.4181 17.3139C79.323 17.4755 79.1614 17.7037 79.0569 17.8082C78.9618 17.9128 78.8097 18.1124 78.7242 18.2645C78.6386 18.4071 78.5246 18.5116 78.4771 18.4926C78.42 18.4736 78.0968 17.9318 77.7546 17.2759C77.4125 16.6296 76.8707 15.603 76.5475 15.0041C76.2338 14.4053 75.6445 13.2932 75.2357 12.5328C74.8365 11.7723 74.4753 11.1165 74.4278 11.0689C74.3517 10.9929 74.789 10.337 75.1407 10.0138C75.1977 9.96632 75.4163 9.70968 75.6159 9.44353C75.8251 9.18688 76.0152 8.94925 76.0437 8.92073C76.0722 8.89222 76.3954 8.53101 76.7471 8.11278C77.1083 7.69455 77.4885 7.2573 77.6026 7.15274C77.7071 7.03868 78.1254 6.59193 78.5151 6.15468C80.1215 4.37718 82.2697 2.30502 83.2677 1.57311C83.5529 1.364 83.8095 1.16438 83.8381 1.13587C83.9426 1.0123 84.6745 0.575053 85.2163 0.31841C85.7486 0.0617656 85.8722 0.0427551 86.9273 0.0427551C88.239 0.0427551 88.6858 0.17583 89.9405 0.983783C90.777 1.52559 92.2883 3.02743 92.8396 3.88291C93.0677 4.2251 93.2768 4.54828 93.3149 4.59581C93.4765 4.80493 94.1989 6.39232 94.1894 6.50638C94.1799 6.5349 94.2179 6.66797 94.2749 6.81055C94.3224 6.95313 94.408 7.28582 94.465 7.54246C94.5221 7.80861 94.6266 8.29338 94.7027 8.63557C94.7882 8.97777 94.9023 9.91879 94.9688 10.7363C95.1019 12.3807 94.9973 14.4243 94.7027 15.9737L94.5506 16.7911L93.8757 16.8957C93.505 16.9527 92.7921 17.0668 92.2978 17.1428C90.5583 17.428 88.2485 17.7607 87.4976 17.8557C87.0794 17.9033 86.2239 18.0078 85.5965 18.0934C83.686 18.3405 79.7698 18.7112 79.1139 18.7112C78.9143 18.7112 78.8953 18.6922 78.9998 18.5021Z" fill="#F19403"/>
<path d="M62.0689 131.543H59.2081L58.071 128.694H52.8647L51.7897 131.543H49L54.0729 119H56.8537L62.0689 131.543ZM57.2269 126.581L55.4323 121.926L53.6732 126.581H57.2269Z" fill="#4E5C80"/>
<path d="M63.3748 122.457H65.7025V123.791C66.0046 123.335 66.4133 122.964 66.9286 122.679C67.4439 122.394 68.0154 122.251 68.6433 122.251C69.739 122.251 70.6689 122.665 71.433 123.492C72.1971 124.319 72.579 125.471 72.579 126.949C72.579 128.466 72.1939 129.645 71.424 130.487C70.654 131.328 69.7212 131.749 68.6255 131.749C68.1042 131.749 67.6318 131.649 67.2084 131.449C66.7849 131.25 66.3391 130.907 65.8713 130.423V135H63.3748L63.3748 122.457ZM65.8447 126.846C65.8447 127.867 66.0549 128.621 66.4755 129.109C66.8959 129.597 67.4083 129.841 68.0125 129.841C68.5929 129.841 69.0756 129.617 69.4607 129.169C69.8456 128.721 70.0381 127.987 70.0381 126.966C70.0381 126.013 69.8396 125.306 69.4429 124.844C69.046 124.382 68.5544 124.151 67.9681 124.151C67.358 124.151 66.8516 124.378 66.4489 124.831C66.046 125.284 65.8447 125.956 65.8447 126.846Z" fill="#4E5C80"/>
<path d="M76.4259 125.229L74.1604 124.835C74.415 123.957 74.8534 123.307 75.4753 122.884C76.0972 122.462 77.0212 122.251 78.2472 122.251C79.3607 122.251 80.1898 122.378 80.7348 122.632C81.2797 122.886 81.6632 123.208 81.8854 123.599C82.1074 123.99 82.2185 124.707 82.2185 125.751L82.1918 128.557C82.1918 129.356 82.2318 129.945 82.3117 130.324C82.3917 130.703 82.5412 131.11 82.7604 131.543H80.2905C80.2253 131.384 80.1453 131.147 80.0506 130.833C80.0091 130.691 79.9796 130.596 79.9618 130.551C79.5354 130.95 79.0792 131.25 78.5936 131.449C78.1079 131.649 77.5897 131.749 77.0389 131.749C76.0674 131.749 75.302 131.495 74.7423 130.987C74.1825 130.48 73.9027 129.838 73.9027 129.062C73.9027 128.549 74.03 128.091 74.2847 127.689C74.5394 127.287 74.8963 126.979 75.3553 126.765C75.8142 126.551 76.4761 126.364 77.341 126.204C78.5077 125.993 79.3162 125.797 79.7664 125.614V125.374C79.7664 124.912 79.6478 124.583 79.411 124.386C79.174 124.189 78.7269 124.091 78.0695 124.091C77.6252 124.091 77.2788 124.175 77.03 124.343C76.7813 124.512 76.5799 124.807 76.4259 125.229ZM79.7664 127.18C79.4466 127.282 78.9402 127.405 78.2472 127.548C77.5543 127.69 77.1012 127.83 76.888 127.967C76.5622 128.189 76.3993 128.472 76.3993 128.814C76.3993 129.151 76.5295 129.441 76.7902 129.687C77.0508 129.932 77.3824 130.055 77.7853 130.055C78.2353 130.055 78.6648 129.912 79.0735 129.627C79.3755 129.41 79.5739 129.145 79.6687 128.831C79.7338 128.626 79.7664 128.235 79.7664 127.659V127.18Z" fill="#4E5C80"/>
<path d="M92.9063 125.143L90.4453 125.571C90.3624 125.098 90.1744 124.741 89.8812 124.502C89.5881 124.262 89.2075 124.142 88.7396 124.142C88.1177 124.142 87.6216 124.349 87.2515 124.763C86.8812 125.176 86.6962 125.868 86.6962 126.837C86.6962 127.915 86.8842 128.677 87.2604 129.122C87.6364 129.567 88.1413 129.789 88.7751 129.789C89.2489 129.789 89.6369 129.66 89.939 129.4C90.2411 129.14 90.4543 128.694 90.5786 128.061L93.0307 128.463C92.7759 129.547 92.2873 130.365 91.5648 130.919C90.8421 131.472 89.8737 131.749 88.6596 131.749C87.2795 131.749 86.1794 131.329 85.3591 130.491C84.5387 129.652 84.1286 128.492 84.1286 127.008C84.1286 125.508 84.5402 124.34 85.3635 123.505C86.1867 122.669 87.3003 122.251 88.704 122.251C89.853 122.251 90.7665 122.489 91.4448 122.966C92.123 123.442 92.6101 124.168 92.9063 125.143Z" fill="#4E5C80"/>
<path d="M97.2863 119V123.612C98.0917 122.705 99.0543 122.251 100.174 122.251C100.748 122.251 101.266 122.354 101.728 122.559C102.19 122.765 102.538 123.027 102.772 123.347C103.006 123.666 103.166 124.02 103.252 124.407C103.338 124.795 103.381 125.397 103.381 126.213V131.543H100.884V126.743C100.884 125.791 100.837 125.186 100.742 124.929C100.648 124.673 100.48 124.469 100.24 124.318C100 124.167 99.6997 124.091 99.3386 124.091C98.924 124.091 98.5537 124.188 98.2281 124.382C97.9023 124.576 97.664 124.868 97.5129 125.259C97.3619 125.65 97.2864 126.227 97.2864 126.991V131.543H94.7899V119H97.2863Z" fill="#4E5C80"/>
<path d="M111.377 128.651L113.865 129.053C113.545 129.932 113.04 130.601 112.35 131.06C111.66 131.519 110.796 131.749 109.76 131.749C108.119 131.749 106.905 131.232 106.117 130.2C105.496 129.373 105.185 128.329 105.185 127.068C105.185 125.563 105.593 124.383 106.411 123.53C107.228 122.678 108.261 122.251 109.511 122.251C110.915 122.251 112.022 122.698 112.834 123.59C113.645 124.483 114.033 125.851 113.998 127.693H107.743C107.761 128.406 107.962 128.961 108.347 129.357C108.732 129.754 109.212 129.952 109.787 129.952C110.178 129.952 110.506 129.849 110.773 129.644C111.039 129.438 111.241 129.108 111.377 128.651ZM111.519 126.221C111.501 125.525 111.315 124.997 110.959 124.634C110.604 124.272 110.171 124.091 109.662 124.091C109.117 124.091 108.667 124.282 108.312 124.664C107.956 125.046 107.782 125.566 107.788 126.221L111.519 126.221Z" fill="#4E5C80"/>
</svg>
