<svg width="140" height="140" viewBox="0 0 140 140" fill="none" xmlns="http://www.w3.org/2000/svg">
<circle cx="70" cy="70" r="70" fill="#C4C4C4"/>
<circle cx="70" cy="70" r="70" fill="url(#paint0_linear)"/>
<path d="M49.0152 52.9236C44.3701 49.5111 38.6874 47.712 32.8721 47.8129H19.7137V89.69H32.2677C38.2707 90.0976 44.2981 88.0118 48.6943 84.0056C50.8691 81.8726 52.5747 79.3295 53.7069 76.5318C55.7946 71.3729 56.1144 64.792 53.9247 59.6144C52.8383 57.0454 51.1581 54.7557 49.0152 52.9236ZM86.6449 58.3473C86.5943 56.8742 86.2222 55.4286 85.5535 54.1067C84.8848 52.7848 83.9349 51.617 82.7669 50.6812C80.1568 48.6152 76.8407 47.5903 73.4865 47.8129H60.3603V89.69H74.091C77.8264 89.6944 81.4369 88.379 84.2539 85.9873C85.5982 84.9694 86.6962 83.6755 87.47 82.1974C88.2437 80.7192 88.6743 79.0932 88.731 77.4346C88.7137 72.8836 85.5117 69.0701 81.2639 67.4737C84.0443 64.8643 86.6987 62.4483 86.6449 58.3473ZM111.419 47.8611C105.915 45.8194 98.517 47.4416 94.1174 50.9941L93.5129 51.5156V60.0683L95.6097 58.0866C98.2604 55.5564 101.755 54.0388 105.457 53.8102C109.507 53.6873 111.758 56.221 111.769 60.0683C111.168 65.0561 107.463 68.5912 103.975 72.0109L91.7424 84.0056V89.69H118.915V83.119L102.2 83.4319C107.528 78.3378 113.108 73.0761 117.139 66.9001C118.638 64.6058 119.462 61.9537 119.519 59.2339C119.541 57.6199 119.205 56.0203 118.535 54.5443C117.174 51.5459 114.608 49.0439 111.419 47.8611ZM72.7777 83.8302C71.1188 83.8945 69.374 83.6927 67.8541 83.6927V71.7501C69.4947 71.7501 71.1374 71.7236 72.7777 71.7544C77.5519 71.8441 80.2945 73.3549 80.0896 78.1519C79.9383 81.6934 76.0099 83.7049 72.7777 83.8302ZM67.8327 64.3447V54.3839H72.3098C75.7583 54.3839 79.0275 55.9143 78.567 59.6144C78.1958 62.5978 75.1929 64.475 72.3098 64.5445C70.8112 64.5807 69.1974 64.3447 67.8327 64.3447ZM32.2677 83.6927H27.5018V54.9575H32.2677C38.3125 54.5389 44.7704 57.4565 47.1624 63.0849C48.676 66.6462 48.5186 71.3457 47.0829 74.9078C44.7306 80.7442 38.5981 83.9385 32.2677 83.6927Z" fill="white"/>
<path d="M115 24.2492C115 36.8141 94.629 47 69.5 47C44.371 47 24 36.8141 24 24.2492C24 11.6842 48.6235 -0.480003 69.5 0.0145853C92.5176 0.0145853 115 11.6842 115 24.2492Z" fill="url(#paint1_linear)"/>
<defs>
<linearGradient id="paint0_linear" x1="66.5" y1="2.70698e-06" x2="66" y2="140" gradientUnits="userSpaceOnUse">
<stop stop-color="#3EADED"/>
<stop offset="1" stop-color="#0D5691"/>
</linearGradient>
<linearGradient id="paint1_linear" x1="69.5" y1="0" x2="69.5" y2="47" gradientUnits="userSpaceOnUse">
<stop stop-color="white" stop-opacity="0.4"/>
<stop offset="1" stop-color="white" stop-opacity="0"/>
</linearGradient>
</defs>
</svg>
