<svg width="140" height="140" viewBox="0 0 140 140" fill="none" xmlns="http://www.w3.org/2000/svg">
<path d="M68.9151 113.953H67.4995L78.8241 82.1031H94.3953C97.2265 82.1031 100.058 79.9798 101.473 77.1486L114.213 42.4671C116.337 36.8049 112.798 31.8504 107.135 31.8504H85.1941L66.7917 82.8109L56.1749 111.83C31.4024 106.168 13 83.5187 13 56.6229C13 30.4348 30.6946 8.49343 54.0516 2.12336L43.4348 31.8504L25.7401 81.3953H37.7725L53.3438 39.636H62.545L46.9737 81.3953H59.0061L73.1618 42.4671C75.2851 36.8049 71.7462 31.8504 66.0839 31.8504H56.1749L67.4995 0H70.3306C101.473 0 126.953 25.4803 126.953 56.6229C125.538 88.4732 100.058 113.953 68.9151 113.953ZM102.889 40.3438H93.6876L80.9474 75.0253H90.1486L102.889 40.3438Z" fill="url(#paint0_linear)"/>
<path d="M107.419 20.1576C107.419 30.6025 90.2909 39.0698 69.1628 39.0698C48.0347 39.0698 30.907 30.6025 30.907 20.1576C30.907 9.71277 51.6101 -0.399013 69.1628 0.0121244C88.5157 0.0121244 107.419 9.71277 107.419 20.1576Z" fill="url(#paint1_linear)"/>
<path d="M48.9922 121.938V133.539C48.9844 135.148 48.4766 136.465 47.4688 137.488C46.4688 138.512 45.1094 139.086 43.3906 139.211L42.793 139.234C40.9258 139.234 39.4375 138.73 38.3281 137.723C37.2188 136.715 36.6562 135.328 36.6406 133.562V121.938H38.8672V133.492C38.8672 134.727 39.207 135.688 39.8867 136.375C40.5664 137.055 41.5352 137.395 42.793 137.395C44.0664 137.395 45.0391 137.055 45.7109 136.375C46.3906 135.695 46.7305 134.738 46.7305 133.504V121.938H48.9922ZM60.207 126.32L60.2773 127.914C61.2461 126.695 62.5117 126.086 64.0742 126.086C66.7539 126.086 68.1055 127.598 68.1289 130.621V139H65.9609V130.609C65.9531 129.695 65.7422 129.02 65.3281 128.582C64.9219 128.145 64.2852 127.926 63.418 127.926C62.7148 127.926 62.0977 128.113 61.5664 128.488C61.0352 128.863 60.6211 129.355 60.3242 129.965V139H58.1562V126.32H60.207ZM79.707 139H77.5391V126.32H79.707V139ZM77.3633 122.957C77.3633 122.605 77.4688 122.309 77.6797 122.066C77.8984 121.824 78.2188 121.703 78.6406 121.703C79.0625 121.703 79.3828 121.824 79.6016 122.066C79.8203 122.309 79.9297 122.605 79.9297 122.957C79.9297 123.309 79.8203 123.602 79.6016 123.836C79.3828 124.07 79.0625 124.188 78.6406 124.188C78.2188 124.188 77.8984 124.07 77.6797 123.836C77.4688 123.602 77.3633 123.309 77.3633 122.957ZM93.3945 130.949L96.207 126.32H98.7383L94.5898 132.59L98.8672 139H96.3594L93.4297 134.254L90.5 139H87.9805L92.2578 132.59L88.1094 126.32H90.6172L93.3945 130.949Z" fill="#3D4A6B"/>
<defs>
<linearGradient id="paint0_linear" x1="69.9767" y1="0" x2="69.9767" y2="113.953" gradientUnits="userSpaceOnUse">
<stop stop-color="#134AB4"/>
<stop offset="1" stop-color="#073475"/>
</linearGradient>
<linearGradient id="paint1_linear" x1="69.1628" y1="0" x2="69.1628" y2="39.0698" gradientUnits="userSpaceOnUse">
<stop stop-color="white" stop-opacity="0.4"/>
<stop offset="1" stop-color="white" stop-opacity="0"/>
</linearGradient>
</defs>
</svg>
