<svg width="140" height="140" viewBox="0 0 140 140" fill="none" xmlns="http://www.w3.org/2000/svg">
<path d="M129.573 73.9545C126.905 71.3975 123.853 69.2753 120.527 67.6657V18.9752H14.0459V107.776H71.0076C71.7778 110.921 72.9809 113.943 74.5827 116.757H9.45257C6.99517 116.748 5.00607 114.757 5 112.299V14.4526C5.0088 11.9973 6.99729 10.0091 9.45257 10H125.12C127.575 10.0088 129.563 11.9973 129.573 14.4526V73.9545ZM111.849 64.7894C106.253 63.7199 100.481 64.0172 95.0248 65.656L94.7809 65.3308C93.4051 63.5868 90.881 61.9238 87.2031 60.3475C84.0723 58.9826 82.1114 57.8937 81.3152 57.092C80.9487 56.7556 80.6542 56.3485 80.4493 55.8951C80.2445 55.4417 80.1337 54.9515 80.1235 54.4542C80.1235 53.2625 80.7032 52.3092 81.8624 51.6049C83.0217 50.9006 84.5706 50.5433 86.5155 50.5433C89.8412 50.5433 92.7445 51.3829 95.2201 53.0729V45.6737C92.7718 44.7365 89.7439 44.2654 86.1309 44.2654C81.8245 44.2654 78.358 45.2187 75.7416 47.1199C73.1253 49.0158 71.8199 51.6862 71.8199 55.1257C71.8199 59.8003 74.707 63.3645 80.4811 65.8128C83.8558 67.2156 86.0387 68.3478 87.0353 69.2089C84.0159 71.0333 81.2863 73.2991 78.9373 75.9312C76.3609 75.4088 73.9588 74.2423 71.9551 72.5405V80.4271C72.8381 80.8712 73.7968 81.2451 74.8423 81.5484C71.7328 86.8298 70.0631 92.8345 70 98.9629H27.1867C24.5219 98.9629 22.7235 97.0669 22.7235 94.0824V32.6851C22.7235 29.6896 24.5219 27.7994 27.1867 27.7994H107.38C110.045 27.7994 111.849 29.6954 111.849 32.6851V64.7894ZM54.1184 75.7149V81.8357H68.2884V75.7149H65.1143V51.0149H68.2884V44.8942H54.1184V51.0149H57.2437V75.7149H54.1184ZM37.7276 75.7149V81.8357H51.9031V75.7149H48.7344V51.0149H51.9031V44.8942H37.7276V51.0149H40.8529V75.7149H37.7276ZM105.208 129.167C88.7548 129.174 75.411 115.841 75.404 99.3876C75.3971 82.934 88.7296 69.5902 105.183 69.5832H105.208C121.662 69.5832 135 82.9215 135 99.3748C135 115.828 121.662 129.167 105.208 129.167ZM105.208 123.75C118.67 123.75 129.584 112.837 129.584 99.3748C129.584 85.9128 118.67 74.9997 105.208 74.9997C91.7463 74.9997 80.8333 85.9128 80.8333 99.3748C80.8333 112.837 91.7463 123.75 105.208 123.75ZM102.5 118.144C92.1364 116.653 84.944 107.042 86.4351 96.6784C86.5844 95.6402 86.8196 94.6161 87.1385 93.6168L102.5 101.568V118.144ZM89.5109 88.742C91.2469 86.1762 93.5858 84.0754 96.3226 82.6239C99.0594 81.1723 102.11 80.4144 105.208 80.4165C111.784 80.4165 117.58 83.7693 120.982 88.8558L105.219 96.8725L89.5109 88.7475V88.742ZM123.316 93.7469C126.427 103.745 120.843 114.371 110.846 117.481C109.888 117.779 108.909 118.001 107.917 118.144V101.579L123.316 93.7469Z" fill="#4ABC99"/>
<path d="M129.573 73.9545C126.905 71.3975 123.853 69.2753 120.527 67.6657V18.9752H14.0459V107.776H71.0076C71.7778 110.921 72.9809 113.943 74.5827 116.757H9.45257C6.99517 116.748 5.00607 114.757 5 112.299V14.4526C5.0088 11.9973 6.99729 10.0091 9.45257 10H125.12C127.575 10.0088 129.563 11.9973 129.573 14.4526V73.9545ZM111.849 64.7894C106.253 63.7199 100.481 64.0172 95.0248 65.656L94.7809 65.3308C93.4051 63.5868 90.881 61.9238 87.2031 60.3475C84.0723 58.9826 82.1114 57.8937 81.3152 57.092C80.9487 56.7556 80.6542 56.3485 80.4493 55.8951C80.2445 55.4417 80.1337 54.9515 80.1235 54.4542C80.1235 53.2625 80.7032 52.3092 81.8624 51.6049C83.0217 50.9006 84.5706 50.5433 86.5155 50.5433C89.8412 50.5433 92.7445 51.3829 95.2201 53.0729V45.6737C92.7718 44.7365 89.7439 44.2654 86.1309 44.2654C81.8245 44.2654 78.358 45.2187 75.7416 47.1199C73.1253 49.0158 71.8199 51.6862 71.8199 55.1257C71.8199 59.8003 74.707 63.3645 80.4811 65.8128C83.8558 67.2156 86.0387 68.3478 87.0353 69.2089C84.0159 71.0333 81.2863 73.2991 78.9373 75.9312C76.3609 75.4088 73.9588 74.2423 71.9551 72.5405V80.4271C72.8381 80.8712 73.7968 81.2451 74.8423 81.5484C71.7328 86.8298 70.0631 92.8345 70 98.9629H27.1867C24.5219 98.9629 22.7235 97.0669 22.7235 94.0824V32.6851C22.7235 29.6896 24.5219 27.7994 27.1867 27.7994H107.38C110.045 27.7994 111.849 29.6954 111.849 32.6851V64.7894ZM54.1184 75.7149V81.8357H68.2884V75.7149H65.1143V51.0149H68.2884V44.8942H54.1184V51.0149H57.2437V75.7149H54.1184ZM37.7276 75.7149V81.8357H51.9031V75.7149H48.7344V51.0149H51.9031V44.8942H37.7276V51.0149H40.8529V75.7149H37.7276ZM105.208 129.167C88.7548 129.174 75.411 115.841 75.404 99.3876C75.3971 82.934 88.7296 69.5902 105.183 69.5832H105.208C121.662 69.5832 135 82.9215 135 99.3748C135 115.828 121.662 129.167 105.208 129.167ZM105.208 123.75C118.67 123.75 129.584 112.837 129.584 99.3748C129.584 85.9128 118.67 74.9997 105.208 74.9997C91.7463 74.9997 80.8333 85.9128 80.8333 99.3748C80.8333 112.837 91.7463 123.75 105.208 123.75ZM102.5 118.144C92.1364 116.653 84.944 107.042 86.4351 96.6784C86.5844 95.6402 86.8196 94.6161 87.1385 93.6168L102.5 101.568V118.144ZM89.5109 88.742C91.2469 86.1762 93.5858 84.0754 96.3226 82.6239C99.0594 81.1723 102.11 80.4144 105.208 80.4165C111.784 80.4165 117.58 83.7693 120.982 88.8558L105.219 96.8725L89.5109 88.7475V88.742ZM123.316 93.7469C126.427 103.745 120.843 114.371 110.846 117.481C109.888 117.779 108.909 118.001 107.917 118.144V101.579L123.316 93.7469Z" fill="url(#paint0_linear)"/>
<defs>
<linearGradient id="paint0_linear" x1="70" y1="10" x2="70" y2="129.167" gradientUnits="userSpaceOnUse">
<stop stop-color="#5ECCAA"/>
<stop offset="1" stop-color="#2C8569"/>
</linearGradient>
</defs>
</svg>
