<svg width="140" height="140" viewBox="0 0 140 140" fill="none" xmlns="http://www.w3.org/2000/svg">
<g clip-path="url(#clip0)">
<path d="M0 48.4583H4.84688V77.0011H0V48.4583ZM9.15522 57.075H14.0021V58.6906C14.0021 58.6906 18.3104 55.4594 23.1573 58.1521C23.1573 58.1521 26.3886 59.7677 26.9271 64.6146V77.0011H22.0802V64.6146C22.0802 64.6146 21.5417 60.8448 17.7719 61.9219C17.7719 61.9219 14.5406 62.4604 14.5406 65.1531V77.0011H9.69376V57.075H9.15522ZM28.5427 57.075H31.2355C31.2355 57.075 29.6198 48.9969 38.2365 48.4583H40.9292V52.2281H38.7751C38.7751 52.2281 35.0053 51.6896 36.0823 56.5364H40.9292V60.3062H36.0823V77.0011H31.2355V59.7677H28.5427V57.075ZM50.623 56.5364C45.2376 56.5364 41.4678 61.3833 41.4678 66.7688C41.4678 72.6927 45.7761 77.0011 50.623 77.0011C56.0084 77.0011 59.7782 72.1542 59.7782 66.7688C59.7782 61.3833 56.0084 56.5364 50.623 56.5364ZM50.623 73.2313C47.9303 73.2313 45.7761 70.5386 45.7761 66.7688C45.7761 62.999 47.9303 60.3062 50.623 60.3062C53.3157 60.3062 55.4699 62.999 55.4699 66.7688C55.4699 70 53.3157 73.2313 50.623 73.2313ZM63.0095 57.075H67.8564V59.2292C67.8564 59.2292 70.5491 54.9208 75.3959 57.6135V62.4604C75.3959 62.4604 68.9334 59.7677 67.8564 66.2302V77.0011H63.0095V57.075ZM77.0116 57.075H81.8585V58.1521C81.8585 58.1521 84.5512 55.9979 87.2439 56.5364C87.2439 56.5364 88.8595 57.075 89.9366 58.1521C89.9366 58.1521 94.7835 54.3823 98.5533 58.1521C98.5533 58.1521 100.169 59.2292 100.169 61.3833L100.349 77.0011H95.5021L95.322 62.4604C95.322 62.4604 95.0697 60.7034 93.0349 60.6017C91 60.5 90.5 62.5 90.5 62.5L90.6552 77.0011L86.1801 77.0771C86.1801 77.0771 86 62.9208 86 62.4604C86 61.625 85 60.5 83.5 60.6017C82 60.7034 81.5 61.3833 81.5 62.4604C81.5 63.5375 81.5 77.0011 81.5 77.0011H76.6531L77.0116 57.075Z" fill="#3C4764"/>
<path d="M72.9199 85.8311C72.1159 85.5999 71.5299 85.3167 71.1621 84.9814C70.7975 84.6429 70.6152 84.2262 70.6152 83.7314C70.6152 83.1715 70.8382 82.7093 71.2842 82.3447C71.7334 81.9769 72.3161 81.793 73.0322 81.793C73.5205 81.793 73.9551 81.8874 74.3359 82.0762C74.7201 82.265 75.0163 82.5254 75.2246 82.8574C75.4362 83.1895 75.542 83.5524 75.542 83.9463H74.5996C74.5996 83.5166 74.4629 83.1797 74.1895 82.9355C73.916 82.6882 73.5303 82.5645 73.0322 82.5645C72.57 82.5645 72.2087 82.667 71.9482 82.8721C71.6911 83.0739 71.5625 83.3555 71.5625 83.7168C71.5625 84.0065 71.6846 84.2523 71.9287 84.4541C72.1761 84.6527 72.5944 84.835 73.1836 85.001C73.776 85.167 74.2383 85.3509 74.5703 85.5527C74.9056 85.7513 75.153 85.984 75.3125 86.251C75.4753 86.5179 75.5566 86.832 75.5566 87.1934C75.5566 87.7695 75.332 88.2318 74.8828 88.5801C74.4336 88.9251 73.833 89.0977 73.0811 89.0977C72.5928 89.0977 72.137 89.0049 71.7139 88.8193C71.2907 88.6305 70.9635 88.3734 70.7324 88.0479C70.5046 87.7223 70.3906 87.3529 70.3906 86.9395H71.333C71.333 87.3691 71.4909 87.7093 71.8066 87.96C72.1257 88.2074 72.5505 88.3311 73.0811 88.3311C73.5758 88.3311 73.9551 88.2301 74.2188 88.0283C74.4824 87.8265 74.6143 87.5514 74.6143 87.2031C74.6143 86.8548 74.4922 86.5863 74.248 86.3975C74.0039 86.2054 73.5612 86.0166 72.9199 85.8311ZM84.7119 85.6748C84.7119 86.3714 84.5947 86.9801 84.3604 87.501C84.126 88.0186 83.7939 88.4141 83.3643 88.6875C82.9346 88.9609 82.4333 89.0977 81.8604 89.0977C81.3005 89.0977 80.804 88.9609 80.3711 88.6875C79.9382 88.4108 79.6012 88.0186 79.3604 87.5107C79.1227 86.9997 79.0007 86.4089 78.9941 85.7383V85.2256C78.9941 84.542 79.113 83.9382 79.3506 83.4141C79.5882 82.89 79.9235 82.4896 80.3564 82.2129C80.7926 81.9329 81.2907 81.793 81.8506 81.793C82.4202 81.793 82.9215 81.9313 83.3545 82.208C83.7907 82.4814 84.126 82.8802 84.3604 83.4043C84.5947 83.9251 84.7119 84.5322 84.7119 85.2256V85.6748ZM83.7793 85.2158C83.7793 84.3727 83.61 83.7266 83.2715 83.2773C82.9329 82.8249 82.4593 82.5986 81.8506 82.5986C81.2581 82.5986 80.791 82.8249 80.4492 83.2773C80.1107 83.7266 79.9365 84.3516 79.9268 85.1523V85.6748C79.9268 86.4919 80.0977 87.1348 80.4395 87.6035C80.7845 88.069 81.2581 88.3018 81.8604 88.3018C82.4658 88.3018 82.9346 88.082 83.2666 87.6426C83.5986 87.1999 83.7695 86.5667 83.7793 85.7432V85.2158ZM92.5195 85.8604H89.5361V89H88.5986V81.8906H93.0029V82.6621H89.5361V85.0938H92.5195V85.8604ZM101.323 82.6621H99.0381V89H98.1055V82.6621H95.8252V81.8906H101.323V82.6621ZM106.196 86.7588L106.333 87.6963L106.533 86.8516L107.939 81.8906H108.73L110.103 86.8516L110.298 87.7109L110.449 86.7539L111.553 81.8906H112.495L110.771 89H109.917L108.452 83.8193L108.34 83.2773L108.228 83.8193L106.709 89H105.854L104.136 81.8906H105.073L106.196 86.7588ZM119.946 87.1445H116.968L116.299 89H115.332L118.047 81.8906H118.867L121.587 89H120.625L119.946 87.1445ZM117.251 86.373H119.668L118.457 83.0479L117.251 86.373ZM127.632 86.124H125.962V89H125.02V81.8906H127.373C128.174 81.8906 128.789 82.0729 129.219 82.4375C129.652 82.8021 129.868 83.3327 129.868 84.0293C129.868 84.472 129.748 84.8577 129.507 85.1865C129.269 85.5153 128.937 85.7611 128.511 85.9238L130.181 88.9414V89H129.175L127.632 86.124ZM125.962 85.3574H127.402C127.868 85.3574 128.237 85.237 128.511 84.9961C128.787 84.7552 128.926 84.4329 128.926 84.0293C128.926 83.5898 128.794 83.2529 128.53 83.0186C128.27 82.7842 127.892 82.6654 127.397 82.6621H125.962V85.3574ZM137.686 85.7139H134.604V88.2334H138.184V89H133.667V81.8906H138.135V82.6621H134.604V84.9473H137.686V85.7139Z" fill="#3C4764"/>
<path d="M124.403 57.075H114.171L123.326 58.6906C123.326 58.6906 123.865 59.2291 116.325 59.2291C116.325 59.2291 120.633 60.3062 123.865 60.8447C123.865 60.8447 125.48 61.9218 116.864 61.3833C116.864 61.3833 116.325 61.9218 124.403 62.4604C124.403 62.4604 126.019 62.9989 124.942 62.9989C124.942 62.9989 119.556 63.5375 119.018 63.5375L126.557 64.6145C126.557 64.6145 129.25 65.1531 127.096 65.1531L121.172 65.6916C121.172 65.6916 126.019 66.2302 128.712 66.7687C128.712 66.7687 129.789 67.3073 128.173 67.3073C128.173 67.3073 121.71 67.8458 120.633 67.8458C120.633 67.8458 124.942 68.3843 127.096 68.9229C127.096 68.9229 129.789 69.4614 125.48 69.4614L119.018 70L126.019 70.5385C126.019 70.5385 127.634 71.0771 122.249 71.6156L117.402 72.1541L124.403 72.6927C124.403 72.6927 124.942 73.2312 123.865 73.7698L116.325 74.3083C116.325 74.3083 122.249 74.8469 122.788 74.8469C122.788 74.8469 123.865 75.3854 119.556 75.3854L114.709 75.9239L124.403 76.4625L128.712 70.5385L133.02 76.4625H138.944L131.404 66.7687L137.867 57.075H131.943L128.712 62.9989L124.403 57.075Z" fill="#4750C5"/>
<path d="M109.863 51.151C109.863 52.2281 110.401 53.3052 111.478 53.8437C112.555 54.3823 113.632 54.3823 114.171 53.8437C115.248 53.3052 115.787 52.2281 115.787 51.151C115.787 50.0739 115.248 48.9968 114.171 48.4583C113.094 47.9197 112.017 47.9197 111.478 48.4583C110.401 48.9968 109.863 50.0739 109.863 51.151ZM103.4 62.4604C103.4 62.4604 106.631 57.075 109.863 55.9979C109.863 55.9979 114.171 54.3823 113.094 58.6906C113.094 58.6906 112.017 63.5375 109.863 67.3073C109.863 67.3073 106.093 73.7698 109.324 72.6927C109.324 72.6927 111.478 71.0771 112.017 69.4614C112.017 69.4614 112.555 68.9229 113.094 68.9229C113.094 68.9229 113.632 69.4614 113.094 70C113.094 70 109.863 75.3854 107.17 75.924C107.17 75.924 103.4 76.4625 103.4 73.2312C103.4 73.2312 103.939 70 105.554 67.3073C106.631 65.6916 108.247 60.8448 108.247 59.7677C108.247 59.7677 107.708 57.6135 106.093 60.3062C106.093 60.8448 102.323 65.6916 103.4 62.4604Z" fill="#FB5000"/>
</g>
<defs>
<clipPath id="clip0">
<rect width="140" height="140" fill="white"/>
</clipPath>
</defs>
</svg>
