<svg width="140" height="140" viewBox="0 0 140 140" fill="none" xmlns="http://www.w3.org/2000/svg">
<path d="M39.2409 51.0096V70.3424C39.1114 72.7785 38.4065 74.0017 36.9915 74.0017C35.1929 74.1934 34.3585 72.0736 34.5554 67.6472H26.3921C25.682 76.3807 29.3464 80.8122 37.432 80.8744C40.8373 80.8122 43.4703 79.9104 45.2688 78.1118V51.0096H39.2409Z" fill="#EC182A"/>
<path d="M71.8011 68.4817C71.0237 66.6831 69.6139 65.3977 67.4992 64.755C69.9352 63.2779 71.2206 61.158 71.3502 58.3954C71.3502 53.5181 67.3696 51.0769 59.4032 51.0769H45.2742V80.4235H59.6624C67.6236 80.4235 71.8633 77.7905 72.3765 72.5918C71.9743 71.2596 71.7803 69.8732 71.8011 68.4817ZM55.0339 57.8823H58.3718C61.1344 57.7527 62.482 58.525 62.3524 60.1317C62.2228 61.8629 61.1344 62.6974 59.0145 62.6974H55.0339V57.8823ZM59.1441 73.5507H54.9665V68.0929H57.9883C61.5853 67.9634 63.3787 68.8652 63.2543 70.7881C63.3165 72.7162 61.9689 73.6181 59.1441 73.5507Z" fill="#EB1926"/>
<path d="M82.9084 57.4366C75.7816 57.8201 72.055 61.4794 71.801 68.4143V68.4817C71.8632 69.9589 72.0602 71.3687 72.3763 72.5245C73.7239 77.1478 77.1966 79.5216 82.9084 79.7186C90.1025 79.4594 93.8913 75.8002 94.1453 68.5439C93.6995 61.4794 89.9729 57.7527 82.9084 57.4366ZM82.9084 74.774C80.2132 74.7066 78.7982 72.6541 78.736 68.6061C78.8604 64.8224 80.2754 62.827 82.9084 62.6974C85.5414 62.7648 86.9512 64.7551 87.2103 68.6061C87.1481 72.7163 85.7331 74.774 82.9084 74.774ZM125.099 65.9109C122.403 65.206 121.056 64.4337 121.056 63.5992C120.988 62.827 121.761 62.3812 123.367 62.3138C124.072 62.3812 124.653 62.573 125.099 62.7648C125.617 63.0239 126 63.4697 126.13 64.1746H132.744C132.039 59.7482 128.955 57.4988 123.559 57.4366C117.588 57.6957 114.567 59.94 114.375 64.3041C114.375 67.6472 117.07 69.9537 122.533 71.2391C125.296 71.9492 126.705 72.6541 126.705 73.4263C126.643 74.4526 125.617 74.9657 123.689 74.9657C122.996 75.0072 122.306 74.8508 121.698 74.5148C121.056 74.1934 120.667 73.6181 120.543 72.7837H113.862V72.5245C113.862 69.4406 111.099 67.1963 105.641 65.9109C102.946 65.206 101.599 64.4337 101.599 63.5992C101.531 62.827 102.303 62.3812 103.91 62.3138C104.615 62.3812 105.19 62.573 105.641 62.7648C106.16 63.0239 106.543 63.4697 106.668 64.1746H113.286C112.576 59.7482 109.498 57.4988 104.102 57.4366C98.131 57.6957 95.1093 59.94 94.9175 64.3041C94.9175 67.6472 97.6127 69.9537 103.076 71.2391C105.833 71.9492 107.248 72.6541 107.248 73.4263C107.186 74.4526 106.16 74.9657 104.232 74.9657C103.537 75.0082 102.845 74.8518 102.236 74.5148C101.599 74.1934 101.21 73.6181 101.08 72.7837H94.3422C94.9797 77.2152 98.1259 79.5216 103.843 79.7808C110.202 79.6564 113.478 77.3448 113.794 72.9132C114.442 77.2774 117.588 79.5268 123.3 79.7808C129.789 79.6564 133.127 77.2152 133.319 72.5919C133.319 69.4406 130.562 67.2585 125.099 65.9109ZM132.422 51.3983H133.832V55.1819H134.413V51.3983H135.828V50.88H132.422V51.3983ZM139.295 50.88L138.264 53.8343L138.004 54.5444C137.942 54.4148 137.88 54.1609 137.818 53.9017L136.786 50.8852H135.957V55.1871H136.527V51.5279L137.75 55.1871H138.269L139.487 51.5901V55.1871H140V50.8852H139.295V50.88Z" fill="#4E5C80"/>
<path d="M44.1181 35.6625C44.1179 36.3766 44.3055 37.0783 44.6621 37.6971C45.0186 38.3159 45.5316 38.8301 46.1495 39.1882C46.7674 39.5462 47.4686 39.7355 48.1828 39.7371C48.897 39.7387 49.599 39.5526 50.2186 39.1973C50.7081 38.9457 51.1416 38.5975 51.4929 38.1737C51.8442 37.7499 52.1059 37.2594 52.2624 36.7316C52.4188 36.2039 52.4667 35.6499 52.403 35.1031C52.3394 34.5564 52.1657 34.0282 51.8923 33.5504C51.6189 33.0727 51.2515 32.6553 50.8123 32.3235C50.3732 31.9917 49.8713 31.7523 49.337 31.6198C48.8028 31.4873 48.2472 31.4644 47.7039 31.5526C47.1605 31.6408 46.6407 31.8381 46.1758 32.1328C45.5469 32.4816 45.0239 32.9936 44.6617 33.6148C44.2996 34.236 44.1118 34.9434 44.1181 35.6625Z" fill="#6874B3"/>
<path d="M26.7188 37.8445C26.7188 39.5187 27.6155 41.058 29.0304 41.8925C30.4402 42.727 32.244 42.727 33.6537 41.8925C34.356 41.4763 34.9381 40.885 35.3433 40.1763C35.7485 39.4677 35.9629 38.666 35.9654 37.8497C35.9688 37.2414 35.8516 36.6384 35.6206 36.0756C35.3895 35.5129 35.0492 35.0015 34.6192 34.5711C34.1893 34.1407 33.6783 33.7998 33.1158 33.5681C32.5533 33.3364 31.9504 33.2185 31.3421 33.2212C30.7342 33.2185 30.1318 33.3362 29.5696 33.5676C29.0074 33.7989 28.4967 34.1394 28.0668 34.5693C27.6369 34.9991 27.2965 35.5099 27.0651 36.072C26.8338 36.6342 26.7161 37.2366 26.7188 37.8445Z" fill="#0194DB"/>
<path d="M10.9207 45.6192C10.9207 47.4799 11.8847 49.2162 13.5537 50.1129C14.3385 50.5849 15.2371 50.8344 16.153 50.8344C17.0688 50.8344 17.9674 50.5849 18.7523 50.1129C20.359 49.1488 21.3853 47.4799 21.3853 45.6192C21.388 44.9354 21.2555 44.258 20.9952 43.6257C20.735 42.9935 20.3523 42.4189 19.8691 41.9352C19.3858 41.4515 18.8117 41.0682 18.1797 40.8074C17.5477 40.5465 16.8704 40.4133 16.1867 40.4153C15.4992 40.4112 14.8177 40.5426 14.181 40.8019C13.5443 41.0612 12.9649 41.4434 12.4759 41.9266C11.9869 42.4098 11.5979 42.9846 11.331 43.6182C11.0642 44.2518 10.9247 44.9317 10.9207 45.6192Z" fill="#3EC8E2"/>
<path d="M0 63.4075C0 65.6517 1.22321 67.7094 3.14613 68.8652C5.07423 69.9537 7.44808 69.9537 9.44356 68.8652C10.6394 68.1694 11.573 67.0994 12.1004 65.8203C12.6278 64.5412 12.7197 63.1241 12.3618 61.7876C12.004 60.4512 11.2163 59.2696 10.1203 58.4252C9.02436 57.5807 7.68097 57.1204 6.29744 57.1152C2.82478 57.1152 0 59.94 0 63.4075Z" fill="#A6D039"/>
<path d="M8.93032 75.6706C10.8713 75.6706 12.7328 76.4416 14.1053 77.8141C15.4778 79.1866 16.2488 81.0481 16.2488 82.9891C16.2488 84.9301 15.4778 86.7916 14.1053 88.1641C12.7328 89.5365 10.8713 90.3076 8.93032 90.3076C6.98933 90.3076 5.12784 89.5365 3.75536 88.1641C2.38287 86.7916 1.61182 84.9301 1.61182 82.9891C1.61182 81.0481 2.38287 79.1866 3.75536 77.8141C5.12784 76.4416 6.98933 75.6706 8.93032 75.6706Z" fill="#F9CA21"/>
<path d="M25.5629 89.0274C26.6179 89.0281 27.6624 89.2366 28.6369 89.6409C29.6113 90.0453 30.4966 90.6376 31.2421 91.3841C31.9876 92.1306 32.5788 93.0166 32.9819 93.9916C33.385 94.9665 33.5921 96.0113 33.5915 97.0664C33.5908 98.1214 33.3823 99.1659 32.9779 100.14C32.5736 101.115 31.9812 102 31.2348 102.746C30.4883 103.491 29.6023 104.082 28.6273 104.485C27.6523 104.888 26.6075 105.096 25.5525 105.095C23.4218 105.094 21.3789 104.246 19.8733 102.738C18.3676 101.231 17.5226 99.1867 17.5239 97.056C17.5253 94.9253 18.373 92.8824 19.8806 91.3768C21.3882 89.8711 23.4322 89.026 25.5629 89.0274Z" fill="#F28224"/>
<path d="M48.2285 90.7637C53.1731 90.7637 57.1589 94.7443 57.1589 99.689C57.1589 104.634 53.1731 108.614 48.2285 108.614C47.0558 108.616 45.8943 108.387 44.8105 107.939C43.7267 107.491 42.742 106.834 41.9128 106.005C41.0836 105.175 40.4262 104.191 39.9784 103.107C39.5306 102.023 39.3012 100.862 39.3032 99.689C39.241 94.8117 43.2838 90.7637 48.2285 90.7637Z" fill="#E12029"/>
</svg>
