<svg width="140" height="140" viewBox="0 0 140 140" fill="none" xmlns="http://www.w3.org/2000/svg">
<path d="M99.7969 46.3628L98.9925 44.6823C98.6478 44.1939 98.1451 43.8205 97.8578 43.246H97.7716V43.1598C98.2456 43.0449 98.734 42.9874 99.2223 43.0018C99.5096 43.2747 99.9549 43.4758 100.185 43.8061C100.357 44.0503 100.386 44.3232 100.587 44.5243C100.587 45.3717 100.357 45.9319 99.8543 46.291C99.883 46.2766 99.7969 46.3628 99.7969 46.3628ZM135.978 82.4293C134.642 81.5819 133.091 81.1079 131.698 80.2604C130.922 79.7864 130.161 79.1975 129.443 78.6517C128.768 78.149 128.021 77.201 127.59 76.4829C127.36 76.1094 127.317 75.6641 127.03 75.3625C127.116 74.7018 127.949 74.7018 128.481 74.4863C130.333 73.7107 132.502 73.4522 135.346 73.524C135.26 72.8058 133.493 71.9153 132.919 71.5275C131.77 70.7231 130.592 69.8613 129.371 69.1144C128.725 68.7266 127.619 68.4394 126.944 68.1521C125.981 67.7499 123.856 67.3621 123.31 66.6296C122.261 65.2507 121.543 63.5702 120.811 61.904C120.064 60.2379 119.13 58.4855 118.383 56.7763C118.01 55.9288 117.837 55.1676 117.421 54.3776C114.821 49.4222 111.015 45.2712 106.361 42.3554C104.838 41.3931 103.144 40.5169 101.276 39.9567C100.213 39.6407 98.9351 39.8131 97.8004 39.5546H97.0678C96.4358 39.3678 95.9044 38.6928 95.3729 38.348C94.2813 37.6299 93.1897 37.1128 91.897 36.5813C91.4086 36.3803 90.1016 35.9063 89.6419 36.2654C89.369 36.3515 89.2398 36.4664 89.1536 36.7393C88.8807 37.1559 89.1249 37.7879 89.3116 38.1757C89.8287 39.296 90.5756 39.9711 91.2506 40.9047C91.8539 41.7378 92.5864 42.6858 93.0317 43.6338C93.9366 45.6016 94.3531 47.7848 95.215 49.7239C95.5453 50.4707 96.0337 51.3182 96.5077 51.9645C96.8955 52.4816 97.5849 52.8838 97.8004 53.5732C98.2456 54.2627 97.154 56.6039 96.9098 57.3365C95.9762 60.2091 96.1773 64.2165 97.2258 66.7157C97.6424 67.7068 98.0445 68.8559 99.1649 69.1144C99.2511 69.057 99.1792 69.0857 99.3229 69.0426C99.5671 67.1179 99.6389 65.265 100.285 63.7569C100.687 62.8089 101.463 62.1625 101.98 61.3582C102.368 61.5737 102.354 62.22 102.54 62.6365C103.014 63.7282 103.517 64.9203 104.077 65.9976C105.269 68.2526 106.562 70.4215 108.041 72.4037C108.559 73.1075 109.262 73.8687 109.894 74.4863C110.167 74.7449 110.498 74.8885 110.699 75.2045H110.785V75.2907C109.693 74.9172 109.047 73.84 108.199 73.208C106.576 72.0015 104.666 70.1917 103.603 68.4824L102.152 65.5954V65.5092C101.951 65.7821 102.009 66.0694 101.908 66.4716C101.449 68.2383 101.808 70.2348 100.213 70.8811C98.3893 71.6137 97.0678 69.689 96.4933 68.7984C94.6548 65.8827 94.1808 60.9704 95.4448 57.0205C95.7177 56.1443 95.7464 55.067 96.2491 54.3776C96.1629 53.76 95.6602 53.5732 95.3586 53.1711C94.8702 52.5103 94.4537 51.7347 94.0659 51.0022C93.3046 49.5515 92.8019 47.8422 92.213 46.2766C91.9688 45.6446 91.9257 45.0414 91.6528 44.4381C91.2363 43.5189 90.475 42.614 89.8718 41.7953C89.0243 40.6318 86.6687 38.3911 87.6167 36.1074C89.1105 32.4734 94.3101 35.2312 96.3353 36.5095C96.838 36.8255 97.4125 37.4862 97.944 37.7161L100.616 37.8741C102.267 38.2619 103.833 38.5635 105.14 39.3104C111.259 42.8581 115.194 46.4777 118.871 52.4529C119.633 53.7025 120.035 55.067 120.653 56.4603C121.557 58.5286 122.52 60.5539 123.568 62.5504C124.057 63.4696 124.401 64.4894 125.019 65.2794C125.278 65.6098 125.996 65.7247 126.398 65.9258C127.59 66.529 128.983 66.9743 130.118 67.6925C132.158 68.9708 134.125 70.4933 135.935 72.0158C136.625 72.6047 137.084 73.4522 137.716 74.0985V74.4145C137.156 74.5725 136.582 74.7305 136.021 74.8885C134.772 75.2045 133.68 75.1327 132.474 75.4487C131.755 75.6354 130.836 75.9227 130.046 76.0089L130.132 76.0807C130.592 77.359 133.062 78.4219 134.168 79.2119C135.547 80.203 136.854 81.3808 137.889 82.7309L138.937 83.7795C139.181 84.1242 139.239 84.5694 139.497 84.8998V84.9716C139.009 84.7993 138.75 84.3684 138.363 84.0955C137.544 83.5496 136.768 82.932 135.978 82.4293ZM50.5592 106.186H35.9659V103.098H50.5735C53.5467 102.782 53.202 101.317 53.202 100.829V99.6223H43.3918C38.8243 99.5792 35.9085 97.597 35.8798 95.3276C35.8798 95.1122 35.9803 85.1296 35.8798 85.0434H40.5048V95.026C40.4617 95.5718 40.6771 96.8358 43.2051 96.8789C44.4978 96.8932 53.1733 96.8789 53.2451 96.8789V85.0004H57.8701C57.8988 85.0004 57.8701 101.202 57.8701 101.274C57.8988 105.253 52.8717 106.115 50.5592 106.186ZM27.4054 81.668L20.2524 97.4534C19.4049 99.3637 18.299 100.039 16.0295 100.039C13.7601 100.039 12.6111 99.3637 11.7636 97.4534L4.62501 81.668V99.7803H0V81.6968C0 79.9301 0.703806 79.0826 2.18324 78.6374C5.6879 77.5457 8.08659 78.4937 9.10639 80.835L15.9003 96.4193L22.924 80.835C23.9869 78.4794 26.3425 77.5457 29.8615 78.6374C31.3266 79.0826 32.0447 79.9301 32.0447 81.6968V99.7803H27.4197L27.4054 81.668Z" fill="#00758F"/>
<path d="M91.7533 78.5655H100.529C100.975 78.5655 101.377 78.5943 101.822 78.6517C105.7 79.1832 107.654 80.8637 107.654 83.6358V94.5376C107.654 96.7783 106.821 97.9849 104.91 98.7748L109.463 102.854H104.106L100.429 99.5505L96.7231 99.7803H91.7821C90.8628 99.7803 89.9435 99.651 89.0674 99.3925C86.1229 98.6025 84.7009 97.0656 84.7009 94.5376V83.6358C84.7009 80.8637 86.6543 79.1832 90.5324 78.6517C90.9059 78.5943 91.3512 78.5655 91.7533 78.5655ZM89.6563 94.2647C89.6563 94.4084 89.6994 94.5664 89.7425 94.7387C90.0154 96.0027 91.2075 96.7065 93.0317 96.7065H97.2401L93.3908 93.2449H98.7483L102.109 96.2613C102.727 95.9309 103.143 95.4282 103.287 94.7818C103.33 94.6382 103.33 94.4802 103.33 94.3366V83.88C103.33 83.7651 103.33 83.6071 103.287 83.4635C103.014 82.2857 101.822 81.6106 100.041 81.6106H93.046C90.9921 81.6106 89.6563 82.5011 89.6563 83.88V94.2647ZM68.2692 81.6106C66.6174 81.7542 66.129 82.0271 65.9136 82.9608C65.8705 83.1044 65.8705 83.2337 65.8705 83.3486V85.4313C65.8705 85.5749 65.8705 85.6898 65.9136 85.8478C66.129 87.083 67.0196 87.6432 68.8868 87.6432H74.4885C75.8674 87.6432 77.2894 87.873 78.4385 88.3183C80.6217 89.137 81.7277 90.3723 81.7277 91.6937V95.0404C81.7277 96.6634 80.751 97.8987 78.7545 98.8036C77.5623 99.3638 76.0398 99.6797 74.4885 99.6797H61.2024V96.6203H73.9571C74.1294 96.6203 74.2731 96.5916 74.4454 96.5916C75.336 96.5342 75.9967 96.29 76.3989 95.9453C76.8441 95.5862 77.0596 95.184 77.0596 94.8536V92.1821C77.0596 91.8661 76.9303 91.5644 76.7005 91.3633C76.2552 90.8319 75.6376 90.5734 74.1725 90.4584C74.0433 90.4297 73.8565 90.4297 73.6842 90.4297H68.8868C68.4415 90.4297 67.9963 90.401 67.551 90.3723C63.6011 89.9557 61.2455 88.2034 61.2455 86.1351V83.4635C61.2455 81.1079 62.452 79.7577 65.1954 78.9103C66.0859 78.6517 67.0627 78.5225 68.9299 78.5225H81.9V81.5819H68.7001C68.5708 81.5819 68.3984 81.6106 68.2692 81.6106ZM115.166 94.3366C115.166 95.9596 116.185 96.6347 118.9 96.6347H131.023V99.6941H118.986C118.541 99.6941 118.096 99.6654 117.651 99.6367C112.896 99.2919 110.541 97.5252 110.541 94.3797V78.5225H115.166V94.3366ZM136.596 93.1588C138.391 93.1588 140 94.5233 140 96.5342C140 98.5594 138.391 99.9096 136.596 99.9096C134.8 99.9096 133.192 98.545 133.192 96.5342C133.192 94.5233 134.8 93.1588 136.596 93.1588ZM136.596 99.2201C138.061 99.2201 139.239 98.071 139.239 96.5485C139.239 95.0116 138.061 93.8769 136.596 93.8769C135.116 93.8769 133.953 95.026 133.953 96.5485C133.967 98.071 135.116 99.2201 136.596 99.2201ZM138.219 95.7298C138.219 96.4336 137.759 96.7209 137.17 96.7783L138.291 98.4732H137.529L136.51 96.8071H135.906V98.4732H135.26V94.6095H136.783C137.716 94.6095 138.219 94.9398 138.219 95.7298ZM135.892 95.1553V96.2613H136.596C137.084 96.2613 137.515 96.2182 137.515 95.6724C137.515 95.2271 137.041 95.1553 136.653 95.1553H135.892Z" fill="#F2A72F"/>
</svg>
