<svg width="140" height="140" viewBox="0 0 140 140" fill="none" xmlns="http://www.w3.org/2000/svg">
<g clip-path="url(#clip0)">
<path d="M60.2066 68.7219L47.8503 68.7581C47.0615 68.7853 46.314 69.1178 45.7656 69.6855C45.2171 70.2532 44.9106 71.0116 44.9106 71.801C44.9106 72.5903 45.2171 73.3488 45.7656 73.9165C46.314 74.4842 47.0615 74.8167 47.8503 74.8439L55.3011 74.8041L53.4909 78.4932H43.8969L39.1434 70.1157L43.9331 61.4268H54.1281L56.503 66.3035H62.6323L58.7621 57.0751L57.9258 55.3627H40.32L39.4873 56.9231L33.0213 68.6712L32.185 70.17L33.0213 71.6507L39.4873 83.0187L40.3598 84.5791H57.2778L58.1141 82.8413L62.9436 73.1061L65.1159 68.6965H60.2066V68.7219ZM71.1365 55.3265C70.3398 55.3665 69.5876 55.7063 69.031 56.2777C68.4743 56.8491 68.1544 57.6099 68.1353 58.4074V66.3324H74.2175V58.4074C74.1955 57.5972 73.8639 56.8263 73.2908 56.2532C72.7177 55.6801 71.9467 55.3484 71.1365 55.3265ZM105.244 55.627C104.689 55.3971 104.077 55.337 103.488 55.4543C102.898 55.5716 102.357 55.861 101.931 56.2859L83.9273 74.2864V58.4364C83.9273 57.6298 83.6069 56.8563 83.0366 56.286C82.4662 55.7157 81.6927 55.3953 80.8862 55.3953C80.0796 55.3953 79.3061 55.7157 78.7358 56.286C78.1655 56.8563 77.8451 57.6298 77.8451 58.4364V81.6321C77.845 82.2336 78.0234 82.8216 78.3575 83.3217C78.6917 83.8219 79.1666 84.2117 79.7224 84.4419C80.2781 84.6721 80.8896 84.7323 81.4795 84.615C82.0695 84.4976 82.6114 84.2079 83.0367 83.7826L101.037 65.7785V81.6321C101.064 82.4209 101.397 83.1684 101.965 83.7169C102.532 84.2653 103.291 84.5718 104.08 84.5718C104.869 84.5718 105.628 84.2653 106.196 83.7169C106.763 83.1684 107.096 82.4209 107.123 81.6321V58.4364C107.123 57.8348 106.944 57.2467 106.61 56.7466C106.275 56.2465 105.8 55.8569 105.244 55.627ZM129.66 70.0107L139.127 60.5797C139.41 60.2977 139.634 59.9628 139.788 59.5941C139.941 59.2254 140.021 58.83 140.021 58.4307C140.022 58.0313 139.944 57.6357 139.792 57.2664C139.64 56.8972 139.416 56.5615 139.134 56.2787C138.852 55.9958 138.517 55.7712 138.149 55.6177C137.78 55.4643 137.385 55.385 136.985 55.3843C136.586 55.3836 136.19 55.4616 135.821 55.6138C135.452 55.766 135.116 55.9895 134.833 56.2714L125.355 65.717L115.881 56.2714C115.319 55.6915 114.55 55.3584 113.743 55.3455C112.935 55.3326 112.156 55.6409 111.576 56.2026C110.996 56.7643 110.663 57.5334 110.65 58.3407C110.637 59.148 110.945 59.9273 111.507 60.5072L111.583 60.5797L121.047 70.0107L111.612 79.4237C111.041 79.9935 110.719 80.767 110.718 81.5739C110.717 82.3809 111.037 83.1552 111.607 83.7265C112.177 84.2978 112.95 84.6193 113.757 84.6203C114.564 84.6213 115.338 84.3018 115.91 83.7319L125.359 74.3189L134.808 83.7319C135.379 84.3013 136.153 84.6204 136.96 84.619C137.766 84.6177 138.539 84.296 139.109 83.7246C139.678 83.1533 139.997 82.3792 139.996 81.5727C139.995 80.7661 139.673 79.993 139.102 79.4237L129.667 70.0107H129.66ZM68.1353 68.7725V81.5054C68.1189 82.3119 68.4237 83.0919 68.9825 83.6738C69.5412 84.2556 70.3083 84.5917 71.1148 84.608C71.9214 84.6243 72.7014 84.3196 73.2832 83.7608C73.8651 83.202 74.2011 82.435 74.2175 81.6285C74.2211 81.5875 74.2211 81.5463 74.2175 81.5054V68.7725H68.1353Z" fill="#00AA4E"/>
<path d="M60.2066 68.7219L47.8503 68.7581C47.0615 68.7853 46.314 69.1178 45.7656 69.6855C45.2171 70.2532 44.9106 71.0116 44.9106 71.801C44.9106 72.5903 45.2171 73.3488 45.7656 73.9165C46.314 74.4842 47.0615 74.8167 47.8503 74.8439L55.3011 74.8041L53.4909 78.4932H43.8969L39.1434 70.1157L43.9331 61.4268H54.1281L56.503 66.3035H62.6323L58.7621 57.0751L57.9258 55.3627H40.32L39.4873 56.9231L33.0213 68.6712L32.185 70.17L33.0213 71.6507L39.4873 83.0187L40.3598 84.5791H57.2778L58.1141 82.8413L62.9436 73.1061L65.1159 68.6965H60.2066V68.7219ZM71.1365 55.3265C70.3398 55.3665 69.5876 55.7063 69.031 56.2777C68.4743 56.8491 68.1544 57.6099 68.1353 58.4074V66.3324H74.2175V58.4074C74.1955 57.5972 73.8639 56.8263 73.2908 56.2532C72.7177 55.6801 71.9467 55.3484 71.1365 55.3265ZM105.244 55.627C104.689 55.3971 104.077 55.337 103.488 55.4543C102.898 55.5716 102.357 55.861 101.931 56.2859L83.9273 74.2864V58.4364C83.9273 57.6298 83.6069 56.8563 83.0366 56.286C82.4662 55.7157 81.6927 55.3953 80.8862 55.3953C80.0796 55.3953 79.3061 55.7157 78.7358 56.286C78.1655 56.8563 77.8451 57.6298 77.8451 58.4364V81.6321C77.845 82.2336 78.0234 82.8216 78.3575 83.3217C78.6917 83.8219 79.1666 84.2117 79.7224 84.4419C80.2781 84.6721 80.8896 84.7323 81.4795 84.615C82.0695 84.4976 82.6114 84.2079 83.0367 83.7826L101.037 65.7785V81.6321C101.064 82.4209 101.397 83.1684 101.965 83.7169C102.532 84.2653 103.291 84.5718 104.08 84.5718C104.869 84.5718 105.628 84.2653 106.196 83.7169C106.763 83.1684 107.096 82.4209 107.123 81.6321V58.4364C107.123 57.8348 106.944 57.2467 106.61 56.7466C106.275 56.2465 105.8 55.8569 105.244 55.627ZM129.66 70.0107L139.127 60.5797C139.41 60.2977 139.634 59.9628 139.788 59.5941C139.941 59.2254 140.021 58.83 140.021 58.4307C140.022 58.0313 139.944 57.6357 139.792 57.2664C139.64 56.8972 139.416 56.5615 139.134 56.2787C138.852 55.9958 138.517 55.7712 138.149 55.6177C137.78 55.4643 137.385 55.385 136.985 55.3843C136.586 55.3836 136.19 55.4616 135.821 55.6138C135.452 55.766 135.116 55.9895 134.833 56.2714L125.355 65.717L115.881 56.2714C115.319 55.6915 114.55 55.3584 113.743 55.3455C112.935 55.3326 112.156 55.6409 111.576 56.2026C110.996 56.7643 110.663 57.5334 110.65 58.3407C110.637 59.148 110.945 59.9273 111.507 60.5072L111.583 60.5797L121.047 70.0107L111.612 79.4237C111.041 79.9935 110.719 80.767 110.718 81.5739C110.717 82.3809 111.037 83.1552 111.607 83.7265C112.177 84.2978 112.95 84.6193 113.757 84.6203C114.564 84.6213 115.338 84.3018 115.91 83.7319L125.359 74.3189L134.808 83.7319C135.379 84.3013 136.153 84.6204 136.96 84.619C137.766 84.6177 138.539 84.296 139.109 83.7246C139.678 83.1533 139.997 82.3792 139.996 81.5727C139.995 80.7661 139.673 79.993 139.102 79.4237L129.667 70.0107H129.66ZM68.1353 68.7725V81.5054C68.1189 82.3119 68.4237 83.0919 68.9825 83.6738C69.5412 84.2556 70.3083 84.5917 71.1148 84.608C71.9214 84.6243 72.7014 84.3196 73.2832 83.7608C73.8651 83.202 74.2011 82.435 74.2175 81.6285C74.2211 81.5875 74.2211 81.5463 74.2175 81.5054V68.7725H68.1353Z" fill="url(#paint0_linear)"/>
<path d="M26.2332 55.3265C25.4263 55.3275 24.6528 55.6487 24.0826 56.2196C23.5123 56.7905 23.1921 57.5643 23.1921 58.3712V74.2248L5.1916 56.2244C4.76541 55.8006 4.22331 55.5124 3.63361 55.3961C3.04392 55.2799 2.43301 55.3408 1.87785 55.5711C1.3227 55.8014 0.84814 56.1909 0.513969 56.6905C0.179797 57.1901 0.000963263 57.7774 0 58.3785V81.5742C-5.95098e-09 81.9735 0.0786605 82.369 0.23149 82.7379C0.38432 83.1069 0.608326 83.4421 0.890719 83.7245C1.17311 84.0069 1.50836 84.2309 1.87732 84.3838C2.24629 84.5366 2.64174 84.6153 3.04111 84.6153C3.44047 84.6153 3.83592 84.5366 4.20489 84.3838C4.57385 84.2309 4.9091 84.0069 5.19149 83.7245C5.47389 83.4421 5.69789 83.1069 5.85072 82.7379C6.00355 82.369 6.08221 81.9735 6.08221 81.5742V65.7206L24.0863 83.7246C24.5113 84.1493 25.0527 84.4383 25.642 84.5553C26.2313 84.6722 26.842 84.6117 27.397 84.3816C27.9519 84.1514 28.4261 83.7618 28.7596 83.2621C29.0932 82.7623 29.271 82.1749 29.2706 81.5742V58.3785C29.2716 57.9783 29.1937 57.5819 29.0413 57.2119C28.8889 56.8419 28.6651 56.5056 28.3827 56.2221C28.1003 55.9387 27.7647 55.7137 27.3953 55.56C27.0258 55.4063 26.6297 55.327 26.2295 55.3265H26.2332Z" fill="#00AA4E"/>
<path d="M26.2332 55.3265C25.4263 55.3275 24.6528 55.6487 24.0826 56.2196C23.5123 56.7905 23.1921 57.5643 23.1921 58.3712V74.2248L5.1916 56.2244C4.76541 55.8006 4.22331 55.5124 3.63361 55.3961C3.04392 55.2799 2.43301 55.3408 1.87785 55.5711C1.3227 55.8014 0.84814 56.1909 0.513969 56.6905C0.179797 57.1901 0.000963263 57.7774 0 58.3785V81.5742C-5.95098e-09 81.9735 0.0786605 82.369 0.23149 82.7379C0.38432 83.1069 0.608326 83.4421 0.890719 83.7245C1.17311 84.0069 1.50836 84.2309 1.87732 84.3838C2.24629 84.5366 2.64174 84.6153 3.04111 84.6153C3.44047 84.6153 3.83592 84.5366 4.20489 84.3838C4.57385 84.2309 4.9091 84.0069 5.19149 83.7245C5.47389 83.4421 5.69789 83.1069 5.85072 82.7379C6.00355 82.369 6.08221 81.9735 6.08221 81.5742V65.7206L24.0863 83.7246C24.5113 84.1493 25.0527 84.4383 25.642 84.5553C26.2313 84.6722 26.842 84.6117 27.397 84.3816C27.9519 84.1514 28.4261 83.7618 28.7596 83.2621C29.0932 82.7623 29.271 82.1749 29.2706 81.5742V58.3785C29.2716 57.9783 29.1937 57.5819 29.0413 57.2119C28.8889 56.8419 28.6651 56.5056 28.3827 56.2221C28.1003 55.9387 27.7647 55.7137 27.3953 55.56C27.0258 55.4063 26.6297 55.327 26.2295 55.3265H26.2332Z" fill="url(#paint1_linear)"/>
</g>
<defs>
<linearGradient id="paint0_linear" x1="70.0107" y1="55.3265" x2="70.0107" y2="84.6734" gradientUnits="userSpaceOnUse">
<stop stop-color="#45EE92"/>
<stop offset="1" stop-color="#12A455"/>
</linearGradient>
<linearGradient id="paint1_linear" x1="70.0107" y1="55.3265" x2="70.0107" y2="84.6734" gradientUnits="userSpaceOnUse">
<stop stop-color="#45EE92"/>
<stop offset="1" stop-color="#12A455"/>
</linearGradient>
<clipPath id="clip0">
<rect width="140" height="140" fill="white"/>
</clipPath>
</defs>
</svg>
