<svg width="140" height="140" viewBox="0 0 140 140" fill="none" xmlns="http://www.w3.org/2000/svg">
<path d="M137.859 83.6033C131.924 102.519 114.247 116.239 93.3705 116.239H46.7477C25.8711 116.239 8.19966 102.519 2.25872 83.6033H13.2526C15.9004 89.1843 21.0775 96.8986 26.2989 100.2C31.5202 103.501 40.5703 106.252 46.7477 106.251H93.3705C99.5478 106.252 108.598 103.5 113.819 100.199C119.04 96.8983 124.218 89.1842 126.866 83.6033H137.859ZM137.859 55.6289H126.866C124.219 50.0465 119.042 42.3308 113.821 39.0282C108.599 35.7256 99.5486 32.9728 93.3705 32.9731H46.7477C40.5685 32.9734 31.5172 35.7273 26.2958 39.0315C21.0743 42.3356 15.8982 50.0532 13.2526 55.6373H2.25872C8.19966 36.7215 25.8711 23 46.7477 23H93.3705C114.247 22.9916 131.924 36.7131 137.859 55.6373V55.6289Z" fill="#2CD8CF"/>
<path d="M137.859 83.6033C131.924 102.519 114.247 116.239 93.3705 116.239H46.7477C25.8711 116.239 8.19966 102.519 2.25872 83.6033H13.2526C15.9004 89.1843 21.0775 96.8986 26.2989 100.2C31.5202 103.501 40.5703 106.252 46.7477 106.251H93.3705C99.5478 106.252 108.598 103.5 113.819 100.199C119.04 96.8983 124.218 89.1842 126.866 83.6033H137.859ZM137.859 55.6289H126.866C124.219 50.0465 119.042 42.3308 113.821 39.0282C108.599 35.7256 99.5486 32.9728 93.3705 32.9731H46.7477C40.5685 32.9734 31.5172 35.7273 26.2958 39.0315C21.0743 42.3356 15.8982 50.0532 13.2526 55.6373H2.25872C8.19966 36.7215 25.8711 23 46.7477 23H93.3705C114.247 22.9916 131.924 36.7131 137.859 55.6373V55.6289Z" fill="url(#paint0_linear)"/>
<path d="M64.863 60.4752C65.2769 60.4704 65.6857 60.5656 66.0549 60.7526C66.4241 60.9397 66.7426 61.2131 66.9835 61.5497L77.9456 78.6746H72.9766L71.0512 75.4797H63.4438L61.394 72.3116H68.8904L64.8765 65.3147L56.7916 78.6746H51.831L62.7258 61.5867C62.9604 61.2372 63.2791 60.9522 63.6525 60.758C64.0259 60.5638 64.4422 60.4665 64.863 60.4752ZM51.6158 66.6532C51.6278 67.4528 51.4817 68.2469 51.1861 68.9899C50.8904 69.7329 50.4509 70.4103 49.8929 70.983C49.3348 71.5558 48.6691 72.0127 47.934 72.3276C47.1989 72.6424 46.4089 72.809 45.6092 72.8178H44.0185L50.9717 78.6528H45.0863L35.6393 69.6346H44.528C46.1473 69.6346 47.4371 68.8459 47.4371 67.2417C47.4371 65.6375 46.1187 64.6891 44.5129 64.6891H34.8019V78.646H30.4567V60.6467H45.6092C47.1956 60.668 48.711 61.3077 49.8329 62.4295C50.9547 63.5514 51.5944 65.0668 51.6158 66.6532ZM122.762 71.7803C123.494 74.274 125.774 74.6053 128.397 74.6389H140L137.964 78.6746H127.269C124.881 78.6746 122.591 77.7261 120.903 76.0377C119.214 74.3493 118.266 72.0593 118.266 69.6716C118.266 67.2838 119.214 64.9939 120.903 63.3055C122.591 61.6171 124.881 60.6685 127.269 60.6685H139.712L137.658 64.7177H128.369C125.745 64.7177 123.452 65.2222 122.749 67.7445H138.724L136.689 71.7803H122.762ZM103.769 74.6053H119.021L116.986 78.641H101.203C100.724 78.6392 100.265 78.4482 99.9268 78.1096C99.7661 77.9532 99.6386 77.7659 99.552 77.559C99.4653 77.3522 99.4212 77.1299 99.4224 76.9056V60.6467H103.766L103.769 74.6053ZM23.4329 69.6632C23.4344 69.0218 23.3094 68.3864 23.0651 67.7934C22.8207 67.2004 22.4617 66.6614 22.0087 66.2074C21.5558 65.7533 21.0177 65.393 20.4252 65.1472C19.8328 64.9014 19.1977 64.7749 18.5564 64.7749H10.1873C8.89392 64.7749 7.65356 65.2887 6.73904 66.2032C5.82452 67.1177 5.31074 68.3581 5.31074 69.6514C5.31074 70.9447 5.82452 72.1851 6.73904 73.0996C7.65356 74.0141 8.89392 74.5279 10.1873 74.5279H18.5446C19.185 74.5295 19.8194 74.4049 20.4116 74.1612C21.0039 73.9176 21.5423 73.5597 21.9963 73.1079C22.4502 72.6562 22.8107 72.1195 23.0572 71.5284C23.3037 70.9374 23.4313 70.3036 23.4329 69.6632ZM19.6056 60.6467C21.9759 60.679 24.238 61.6433 25.9027 63.3309C27.5674 65.0184 28.5007 67.2936 28.5007 69.664C28.5007 72.0345 27.5674 74.3096 25.9027 75.9971C24.238 77.6847 21.9759 78.649 19.6056 78.6814H9.14133C7.94679 78.6977 6.76092 78.4765 5.65258 78.0306C4.54425 77.5848 3.53554 76.9232 2.68505 76.0842C1.83456 75.2453 1.15924 74.2457 0.698298 73.1435C0.237361 72.0414 0 70.8587 0 69.664C0 68.4694 0.237361 67.2866 0.698298 66.1845C1.15924 65.0823 1.83456 64.0828 2.68505 63.2438C3.53554 62.4049 4.54425 61.7432 5.65258 61.2974C6.76092 60.8516 7.94679 60.6304 9.14133 60.6467H19.6056ZM85.1325 74.6036H97.8619L95.8272 78.6393H85.1325C82.7448 78.6658 80.4443 77.7428 78.7371 76.0731C77.0299 74.4035 76.056 72.1241 76.0294 69.7363C76.0029 67.3486 76.926 65.0481 78.5956 63.3409C80.2652 61.6337 82.5447 60.6598 84.9324 60.6332H97.5609L95.5262 64.669H85.3612C82.136 64.6118 80.3586 66.2883 80.288 69.5152C80.2173 72.7421 81.9073 74.538 85.1325 74.6103V74.6036Z" fill="#2CD8CF"/>
<path d="M64.863 60.4752C65.2769 60.4704 65.6857 60.5656 66.0549 60.7526C66.4241 60.9397 66.7426 61.2131 66.9835 61.5497L77.9456 78.6746H72.9766L71.0512 75.4797H63.4438L61.394 72.3116H68.8904L64.8765 65.3147L56.7916 78.6746H51.831L62.7258 61.5867C62.9604 61.2372 63.2791 60.9522 63.6525 60.758C64.0259 60.5638 64.4422 60.4665 64.863 60.4752ZM51.6158 66.6532C51.6278 67.4528 51.4817 68.2469 51.1861 68.9899C50.8904 69.7329 50.4509 70.4103 49.8929 70.983C49.3348 71.5558 48.6691 72.0127 47.934 72.3276C47.1989 72.6424 46.4089 72.809 45.6092 72.8178H44.0185L50.9717 78.6528H45.0863L35.6393 69.6346H44.528C46.1473 69.6346 47.4371 68.8459 47.4371 67.2417C47.4371 65.6375 46.1187 64.6891 44.5129 64.6891H34.8019V78.646H30.4567V60.6467H45.6092C47.1956 60.668 48.711 61.3077 49.8329 62.4295C50.9547 63.5514 51.5944 65.0668 51.6158 66.6532ZM122.762 71.7803C123.494 74.274 125.774 74.6053 128.397 74.6389H140L137.964 78.6746H127.269C124.881 78.6746 122.591 77.7261 120.903 76.0377C119.214 74.3493 118.266 72.0593 118.266 69.6716C118.266 67.2838 119.214 64.9939 120.903 63.3055C122.591 61.6171 124.881 60.6685 127.269 60.6685H139.712L137.658 64.7177H128.369C125.745 64.7177 123.452 65.2222 122.749 67.7445H138.724L136.689 71.7803H122.762ZM103.769 74.6053H119.021L116.986 78.641H101.203C100.724 78.6392 100.265 78.4482 99.9268 78.1096C99.7661 77.9532 99.6386 77.7659 99.552 77.559C99.4653 77.3522 99.4212 77.1299 99.4224 76.9056V60.6467H103.766L103.769 74.6053ZM23.4329 69.6632C23.4344 69.0218 23.3094 68.3864 23.0651 67.7934C22.8207 67.2004 22.4617 66.6614 22.0087 66.2074C21.5558 65.7533 21.0177 65.393 20.4252 65.1472C19.8328 64.9014 19.1977 64.7749 18.5564 64.7749H10.1873C8.89392 64.7749 7.65356 65.2887 6.73904 66.2032C5.82452 67.1177 5.31074 68.3581 5.31074 69.6514C5.31074 70.9447 5.82452 72.1851 6.73904 73.0996C7.65356 74.0141 8.89392 74.5279 10.1873 74.5279H18.5446C19.185 74.5295 19.8194 74.4049 20.4116 74.1612C21.0039 73.9176 21.5423 73.5597 21.9963 73.1079C22.4502 72.6562 22.8107 72.1195 23.0572 71.5284C23.3037 70.9374 23.4313 70.3036 23.4329 69.6632ZM19.6056 60.6467C21.9759 60.679 24.238 61.6433 25.9027 63.3309C27.5674 65.0184 28.5007 67.2936 28.5007 69.664C28.5007 72.0345 27.5674 74.3096 25.9027 75.9971C24.238 77.6847 21.9759 78.649 19.6056 78.6814H9.14133C7.94679 78.6977 6.76092 78.4765 5.65258 78.0306C4.54425 77.5848 3.53554 76.9232 2.68505 76.0842C1.83456 75.2453 1.15924 74.2457 0.698298 73.1435C0.237361 72.0414 0 70.8587 0 69.664C0 68.4694 0.237361 67.2866 0.698298 66.1845C1.15924 65.0823 1.83456 64.0828 2.68505 63.2438C3.53554 62.4049 4.54425 61.7432 5.65258 61.2974C6.76092 60.8516 7.94679 60.6304 9.14133 60.6467H19.6056ZM85.1325 74.6036H97.8619L95.8272 78.6393H85.1325C82.7448 78.6658 80.4443 77.7428 78.7371 76.0731C77.0299 74.4035 76.056 72.1241 76.0294 69.7363C76.0029 67.3486 76.926 65.0481 78.5956 63.3409C80.2652 61.6337 82.5447 60.6598 84.9324 60.6332H97.5609L95.5262 64.669H85.3612C82.136 64.6118 80.3586 66.2883 80.288 69.5152C80.2173 72.7421 81.9073 74.538 85.1325 74.6103V74.6036Z" fill="url(#paint1_linear)"/>
<defs>
<linearGradient id="paint0_linear" x1="70" y1="23" x2="70" y2="116.239" gradientUnits="userSpaceOnUse">
<stop stop-color="#38B9EF"/>
<stop offset="1" stop-color="#049CDB"/>
</linearGradient>
<linearGradient id="paint1_linear" x1="70" y1="23" x2="70" y2="116.239" gradientUnits="userSpaceOnUse">
<stop stop-color="#38B9EF"/>
<stop offset="1" stop-color="#049CDB"/>
</linearGradient>
</defs>
</svg>
