<?xml version="1.0" encoding="utf-8"?>
<!-- Generator: Adobe Illustrator 19.0.0, SVG Export Plug-In . SVG Version: 6.00 Build 0)  -->
<svg version="1.1" id="图层_1" xmlns="http://www.w3.org/2000/svg" xmlns:xlink="http://www.w3.org/1999/xlink" x="0px" y="0px"
	 viewBox="0 0 400 191.4" style="enable-background:new 0 0 400 191.4;" xml:space="preserve">
<style type="text/css">
	.st0{fill:#1C3496;}
	.st1{fill:#FE0509;}
</style>
<g id="XMLID_97_">
	<path id="XMLID_188_" class="st0" d="M338.8,178.6c-0.1,1.1-0.3,2.8-0.6,4.6c-0.6,2.7,0.4,4,3,4.5c3.9,0.8,7.7,2.1,11.6,2.7
		c8.5,1.2,16.8,0.9,24.4-3.9c13.2-8.5,14.1-28.2-1.6-35.4c-3.5-1.6-7.1-2.9-10.6-4.6c-3.1-1.5-6.4-3-8.9-5.2
		c-4.4-3.8-3.8-9.3,1.1-12.4c1.7-1.1,4-1.9,6-1.9c5.5,0,10.9,0.6,16.7,0.9c0.5-2.3,1-4.8,1.6-7.6c-10.2-4-20.4-5.8-30.7-1.6
		c-7.4,3-11.7,8.6-12.4,16.7c-0.7,7.9,2.2,14.1,9.3,18.1c3,1.7,6.2,3.1,9.3,4.7c3.4,1.8,7,3.3,10.2,5.4c5.9,4,5.7,11.2-0.5,14.8
		c-2.3,1.3-5.2,2.2-7.9,2.1C352.2,180.1,345.7,179.2,338.8,178.6z"/>
	<path id="XMLID_185_" class="st0" d="M41.9,127.8c0.4-1.6,1-3.7,1.2-5.8c0.1-0.8-0.7-2.1-1.4-2.4c-9.9-3.7-19.8-5.1-29.8-0.6
		c-7.1,3.2-10.9,8.8-11.5,16.6c-0.6,7.8,2.3,13.9,9.3,17.8c3.5,1.9,7.1,3.5,10.6,5.3c3,1.5,6.1,2.9,8.9,4.8
		c5.5,3.8,5.8,10.2,0.4,14.1c-2.4,1.7-5.8,2.8-8.7,2.7c-6.7-0.1-13.3-1.1-20.1-1.7c-0.1,1.1-0.2,2.8-0.6,4.4c-0.6,2.6,0,4.1,2.8,4.6
		c5.9,1,11.8,2.7,17.7,3.2c7.6,0.7,14.7-1.2,20.9-6.2c9.8-7.9,11-25.6-2.3-32.7c-3.8-2-7.9-3.5-11.8-5.3c-2.6-1.2-5.4-2.2-7.7-3.8
		c-3.2-2.2-5.6-5-4.3-9.4c1.1-3.7,4.9-6.5,9.5-6.5C30.5,126.9,35.8,127.4,41.9,127.8z"/>
	<path id="XMLID_182_" class="st0" d="M292.8,130.8c0.4-4.1,0.7-7.7,1.3-11.2c0.4-2.3-0.8-2.9-2.7-3.3c-5.3-1-9.7,0.7-13.6,4.2
		c-2.7,2.4-5.5,4.9-8.2,7.3c-0.3-2.9-0.6-6.3-0.9-9.8c-4.2,0-8.1,0-12.1,0c0,23.8,0,47.4,0,71.1c4.7,0,9.2,0,14.2,0
		c0-1.5,0-2.8,0-4.1c0-12.8-0.1-25.5,0.1-38.3c0-2.2,0.6-4.6,1.7-6.4C277.2,133,283.1,128.3,292.8,130.8z"/>
	<path id="XMLID_179_" class="st0" d="M167.1,180c-1.9,0.2-3.6,0.4-5.2,0.7c-7.9,1-10-0.8-10-8.9c0-16.9,0-33.7,0-50.6
		c0-1.4-0.2-2.8-0.2-4.1c-5,0-9.5,0-13.9,0c-0.2,0.4-0.3,0.7-0.3,0.9c0,20.8-0.1,41.7,0,62.5c0,4.6,2.3,8.3,6.9,9.7
		c8.4,2.6,16.5,0.4,24.7-2.1C168.3,185.1,167.7,182.7,167.1,180z"/>
	<path id="XMLID_176_" class="st0" d="M308.1,117.9c0,23.9,0,47.5,0,71.1c4.8,0,9.3,0,13.8,0c0-23.8,0-47.3,0-71.1
		C317.3,117.9,312.9,117.9,308.1,117.9z"/>
	<path id="XMLID_173_" class="st1" d="M297.6,4.9c2.5,7.3,2.9,13.7-2,19.1c-1.9,2.1-4.3,3.8-6.7,5.4c-4.8,3.5-8.7,7.5-9.7,13.7
		c-0.7,4.8-0.3,5.4,4.5,6.6c1.9,0.5,3.7,1,5.5,1.7c4,1.6,7.9,3.2,12.4,5.1c-3.6-9.2-1.3-17.3,2.4-25.4
		C308,22.4,305.4,12.5,297.6,4.9z"/>
	<path id="XMLID_170_" class="st1" d="M250.2,0c7.8,10.4,7.7,16,0.7,26.3c-3.8,5.6-5.7,11.7-3.1,18.4c0.8,2.1,1.9,2.8,4.3,2.5
		c5.2-0.5,10.5-0.5,15.8-0.6c1.4,0,2.9,0.1,5,0.2c-6.1-6.9-7.8-14.3-7.3-22.4C266.3,12.8,261.1,4.7,250.2,0z"/>
	<path id="XMLID_167_" class="st1" d="M340.1,28.1c-0.2,1.3-0.4,2.5-0.6,3.8c-1.2,6.8-5,11.3-11.5,13.5c-2,0.7-4.2,0.9-6.3,1.5
		c-6.4,1.8-11.8,4.9-14,11.7c-0.3,0.9-0.3,2.6,0.3,3.1c5.4,4.7,10.9,9.3,16.4,13.9c0.1-0.2,0.3-0.7,0.3-1.3
		c0.6-7.6,4.2-13.7,9.7-18.7C343,48,344.1,38.6,340.1,28.1z"/>
	<path id="XMLID_164_" class="st1" d="M370.8,64.2c-0.5,0.9-1,1.8-1.6,2.7c-4.3,7.2-10.7,10-18.9,8.6c-2.7-0.5-5.5-0.8-8.2-0.7
		c-5,0.1-9.4,1.8-12.7,5.8c-0.6,0.8-1.1,2.3-0.7,3c3.3,6.5,6.8,12.8,10.2,19.2c3.4-8.2,10.3-12.7,18.5-16.1
		C367.1,82.8,371,74.6,370.8,64.2z"/>
	<path id="XMLID_161_" class="st1" d="M213.9,60.3c-9.5-0.7-15.8-6.7-21.9-13.5c-6.4-7.1-16.7-8.8-25.3-4.9c1.2,0.2,2.1,0.4,3,0.6
		c8.3,1.6,13.1,6.6,14.5,14.9c0.3,1.5,0.4,3.1,0.7,4.6c1.5,6.4,4.4,11.7,10.8,14.2c0.9,0.4,2.7,0.1,3.3-0.6
		C204,70.7,208.7,65.7,213.9,60.3z"/>
	<path id="XMLID_158_" class="st1" d="M204.6,13.5c1,0.6,2,1.3,3,1.9c5.9,3.9,8.6,9.2,7.8,16.3c-0.2,2-0.9,4-1.2,6
		c-0.9,6.3-0.8,12.5,3.9,17.6c1.6,1.7,2.9,2.2,5.2,0.8c3.6-2.1,7.5-3.8,11.4-5.4c2.2-1,4.6-1.5,7.7-2.5
		c-8.6-4.5-12.8-11.2-15.6-19.5C223.3,18.3,215.1,14,204.6,13.5z"/>
	<path id="XMLID_155_" class="st1" d="M141.7,83.2c12.1-3.6,19.4,1.5,24.5,11.5c2.2,4.3,6.1,7.4,11,8.8c5.3,1.5,6.6,0.7,8.3-4.4
		c0.4-1.4,0.9-2.8,1.5-4.1c1.9-4.1,3.9-8.1,5.7-11.8c-4.1,0-8.2,0.6-12.1-0.2c-4.2-0.8-8.2-2.7-12.1-4.5
		C159.4,74.3,148.8,75.9,141.7,83.2z"/>
	<path id="XMLID_147_" class="st0" d="M123.1,151.4c-0.1,9.1-1.9,17.8-6.7,25.5c-7.5,11.9-18.9,15.6-32.1,14.1
		c-13.1-1.5-20.9-9.6-24.1-22.1c-3.2-12.5-2.8-24.9,3.1-36.6c6.2-12.3,20.8-18.6,35.7-15.8c13.6,2.6,22.1,12.5,23.7,27.7
		C122.9,146.6,122.9,149,123.1,151.4z M108.8,154.5c-1.2-5.9-2-11.7-3.7-17.3c-2.1-6.8-7.1-10.4-13.2-10.5c-6.9-0.1-12.2,3-14.9,9.4
		c-4.8,11.3-5,23-0.5,34.5c2.4,6.2,8.4,10.1,14.7,9.7c6.9-0.4,12.1-3.7,14.3-10.3C107,165.1,107.6,159.8,108.8,154.5z"/>
	<path id="XMLID_139_" class="st0" d="M235.3,189.6c-3.8,0-7.3,0-11.1,0c-0.5-2.3-0.9-4.5-1.5-7.1c-1,0.6-1.8,1-2.5,1.5
		c-6,4.6-12.9,6.7-20.4,7.2c-17.5,1.2-25.2-14-19.8-28.1c4-10.4,12.6-14.3,22.8-15.8c5.5-0.8,11-0.9,17.1-1.4
		c0.4-4.5,1.1-9.2-0.9-13.8c-1.4-3.4-4.4-4.1-7.6-4.6c-9.1-1.2-18-0.8-27,2.9c-0.8-2.9-1.7-5.8-2.6-8.9c12.9-4.6,25.7-7.3,39.1-4.5
		c8.9,1.9,14.2,8.8,14.6,18.6c0.3,8.5,0.1,17.1,0.1,25.6c0,9,0,18-0.1,27.1C235.5,188.8,235.4,189.1,235.3,189.6z M220.1,165.6
		C220.1,165.6,220.1,165.6,220.1,165.6c0-2.3,0.1-4.6-0.1-6.9c-0.1-0.9-0.8-2.4-1.4-2.4c-7.7-0.8-15.5-1.2-22,4.2
		c-6,5-4.8,15.6,1.9,18.7c6.8,3.1,12.5,0,18.4-3.1c4.6-2.3,2.7-6.4,3.1-9.8C220.1,166.1,220.1,165.9,220.1,165.6z"/>
	<path id="XMLID_136_" class="st0" d="M338.8,178.6c6.9,0.6,13.4,1.5,20,1.7c2.6,0.1,5.6-0.8,7.9-2.1c6.2-3.6,6.4-10.8,0.5-14.8
		c-3.2-2.1-6.8-3.6-10.2-5.4c-3.1-1.6-6.3-3-9.3-4.7c-7.1-3.9-10-10.1-9.3-18.1c0.7-8.1,5-13.7,12.4-16.7
		c10.4-4.2,20.5-2.4,30.7,1.6c-0.6,2.8-1.1,5.3-1.6,7.6c-5.7-0.4-11.2-0.9-16.7-0.9c-2,0-4.3,0.8-6,1.9c-4.9,3.1-5.5,8.6-1.1,12.4
		c2.6,2.2,5.8,3.7,8.9,5.2c3.4,1.7,7.1,3,10.6,4.6c15.6,7.2,14.8,26.9,1.6,35.4c-7.6,4.9-15.9,5.2-24.4,3.9
		c-3.9-0.6-7.7-1.9-11.6-2.7c-2.6-0.5-3.6-1.8-3-4.5C338.5,181.4,338.7,179.6,338.8,178.6z"/>
	<path id="XMLID_133_" class="st0" d="M41.9,127.8c-6.1-0.3-11.4-0.8-16.8-0.9c-4.6,0-8.3,2.7-9.5,6.5c-1.3,4.4,1.1,7.2,4.3,9.4
		c2.3,1.6,5.1,2.6,7.7,3.8c3.9,1.8,8,3.3,11.8,5.3c13.3,7.1,12.1,24.8,2.3,32.7c-6.2,5-13.3,6.9-20.9,6.2
		c-5.9-0.5-11.8-2.2-17.7-3.2c-2.8-0.5-3.5-2-2.8-4.6c0.4-1.6,0.5-3.3,0.6-4.4c6.8,0.6,13.4,1.6,20.1,1.7c2.9,0.1,6.3-1,8.7-2.7
		c5.4-3.9,5.1-10.4-0.4-14.1c-2.8-1.9-5.9-3.2-8.9-4.8c-3.5-1.8-7.2-3.4-10.6-5.3c-7-3.8-9.8-10-9.3-17.8
		c0.6-7.8,4.4-13.4,11.5-16.6c10-4.5,20-3.1,29.8,0.6c0.7,0.3,1.4,1.6,1.4,2.4C42.9,124.1,42.2,126.2,41.9,127.8z"/>
	<path id="XMLID_130_" class="st0" d="M292.8,130.8c-9.7-2.5-15.7,2.2-20.1,9.5c-1.1,1.8-1.7,4.2-1.7,6.4
		c-0.2,12.8-0.1,25.5-0.1,38.3c0,1.3,0,2.6,0,4.1c-5,0-9.5,0-14.2,0c0-23.7,0-47.3,0-71.1c4,0,7.9,0,12.1,0c0.3,3.4,0.6,6.8,0.9,9.8
		c2.7-2.4,5.4-4.8,8.2-7.3c3.9-3.5,8.3-5.2,13.6-4.2c1.9,0.4,3,1,2.7,3.3C293.5,123.1,293.2,126.7,292.8,130.8z"/>
	<path id="XMLID_127_" class="st0" d="M167.1,180c0.6,2.7,1.2,5.1,1.9,8c-8.2,2.5-16.3,4.7-24.7,2.1c-4.5-1.4-6.8-5.1-6.9-9.7
		c-0.1-20.8,0-41.7,0-62.5c0-0.2,0.2-0.4,0.3-0.9c4.4,0,8.9,0,13.9,0c0.1,1.4,0.2,2.7,0.2,4.1c0,16.9,0,33.7,0,50.6
		c0,8,2.1,9.9,10,8.9C163.5,180.5,165.2,180.3,167.1,180z"/>
	<path id="XMLID_124_" class="st0" d="M308.1,117.9c4.7,0,9.2,0,13.8,0c0,23.7,0,47.2,0,71.1c-4.5,0-9,0-13.8,0
		C308.1,165.4,308.1,141.8,308.1,117.9z"/>
	<path id="XMLID_121_" class="st1" d="M297.6,4.9c7.8,7.6,10.4,17.5,6.4,26.3c-3.7,8.2-6,16.2-2.4,25.4c-4.5-1.9-8.4-3.6-12.4-5.1
		c-1.8-0.7-3.6-1.3-5.5-1.7c-4.8-1.2-5.2-1.9-4.5-6.6c1-6.2,4.9-10.2,9.7-13.7c2.3-1.7,4.8-3.3,6.7-5.4
		C300.5,18.6,300.1,12.2,297.6,4.9z"/>
	<path id="XMLID_118_" class="st1" d="M250.2,0c10.8,4.7,16,12.8,15.4,24.4c-0.4,8.2,1.2,15.5,7.3,22.4c-2.1-0.1-3.6-0.3-5-0.2
		c-5.3,0.1-10.6,0.1-15.8,0.6c-2.5,0.3-3.5-0.4-4.3-2.5c-2.6-6.8-0.7-12.9,3.1-18.4C258,16,258,10.4,250.2,0z"/>
	<path id="XMLID_115_" class="st1" d="M340.1,28.1c4.1,10.4,3,19.8-5.6,27.6c-5.6,5-9.1,11.1-9.7,18.7c0,0.5-0.3,1.1-0.3,1.3
		c-5.5-4.6-11.1-9.2-16.4-13.9c-0.6-0.5-0.6-2.2-0.3-3.1c2.2-6.8,7.6-9.9,14-11.7c2.1-0.6,4.2-0.8,6.3-1.5
		c6.5-2.2,10.3-6.7,11.5-13.5C339.7,30.7,339.9,29.4,340.1,28.1z"/>
	<path id="XMLID_112_" class="st1" d="M370.8,64.2c0.2,10.4-3.6,18.6-13.4,22.6c-8.2,3.4-15,7.9-18.5,16.1
		c-3.5-6.4-6.9-12.8-10.2-19.2c-0.4-0.7,0.1-2.3,0.7-3c3.2-4,7.7-5.7,12.7-5.8c2.7,0,5.5,0.2,8.2,0.7c8.3,1.5,14.6-1.4,18.9-8.6
		C369.7,66,370.2,65.1,370.8,64.2z"/>
	<path id="XMLID_109_" class="st1" d="M213.9,60.3c-5.2,5.4-9.9,10.5-14.8,15.4c-0.7,0.7-2.4,1-3.3,0.6c-6.5-2.5-9.4-7.9-10.8-14.2
		c-0.3-1.5-0.5-3.1-0.7-4.6c-1.4-8.3-6.2-13.3-14.5-14.9c-0.9-0.2-1.8-0.4-3-0.6c8.5-3.8,18.9-2.1,25.3,4.9
		C198.1,53.6,204.4,59.6,213.9,60.3z"/>
	<path id="XMLID_106_" class="st1" d="M204.6,13.5c10.6,0.5,18.7,4.9,22.2,15.2c2.7,8.2,7,15,15.6,19.5c-3.1,1-5.5,1.6-7.7,2.5
		c-3.9,1.7-7.8,3.3-11.4,5.4c-2.3,1.4-3.5,0.9-5.2-0.8c-4.8-5.1-4.8-11.3-3.9-17.6c0.3-2,0.9-4,1.2-6c0.8-7-1.9-12.4-7.8-16.3
		C206.5,14.8,205.5,14.1,204.6,13.5z"/>
	<path id="XMLID_103_" class="st1" d="M141.7,83.2c7.1-7.3,17.7-8.8,26.8-4.6c3.9,1.8,7.9,3.7,12.1,4.5c3.9,0.8,8.1,0.2,12.1,0.2
		c-1.8,3.7-3.8,7.7-5.7,11.8c-0.6,1.3-1.1,2.7-1.5,4.1c-1.7,5.2-3.1,6-8.3,4.4c-4.9-1.4-8.8-4.5-11-8.8
		C161,84.6,153.8,79.6,141.7,83.2z"/>
	<g id="XMLID_98_">
		<path id="XMLID_101_" class="st0" d="M388.8,119.3v6.9h-1.6v-6.9H385v-1.4h6.1v1.4H388.8z"/>
		<path id="XMLID_99_" class="st0" d="M398.5,126.2l0.2-6.9l-1.8,6.9h-1.4l-1.8-6.9l0.2,6.9h-1.5v-8.3h2.3l1.6,6.2l1.6-6.2h2.3v8.3
			H398.5z"/>
	</g>
</g>
</svg>
