<svg width="140" height="140" viewBox="0 0 140 140" fill="none" xmlns="http://www.w3.org/2000/svg">
<path d="M85.875 65.5978L59.8799 74.0858L37.2653 84.0673L30.9384 85.7378C29.3263 87.2708 27.6369 88.8226 25.8101 90.3942C23.8054 92.1231 21.939 93.6956 20.5096 94.8341C18.9088 96.0921 16.5547 98.45 15.3569 99.9434C13.5678 102.184 12.1553 104.558 11.5451 106.388C10.4641 109.689 10.999 113.029 13.0772 116.115C15.7496 120.045 21.0746 124.053 27.2829 126.784C30.4468 128.18 35.7718 129.967 39.7795 130.969C46.4407 132.664 59.3299 134.487 66.4224 134.762C67.8566 134.821 69.7822 134.821 69.8613 134.762C70.0186 134.668 71.1184 132.561 72.3962 129.948C76.7579 121.047 79.9021 112.696 81.6112 105.559C82.6329 101.237 83.438 95.4838 83.9653 88.6616C84.1037 86.7557 84.1621 80.3751 84.0444 78.2093C83.8674 74.6734 83.5529 71.8061 83.0623 68.9943C82.9832 68.5819 82.9634 68.209 83.0029 68.1892C83.0811 68.1299 83.3175 68.0517 86.52 67.128L85.8721 65.5959L85.875 65.5978ZM79.9426 69.0753C80.178 69.0753 80.8061 75.1075 80.9633 78.9193C81.0029 79.7253 80.9831 80.2555 80.9445 80.2555C80.7872 80.2555 77.6233 78.3891 75.3643 76.9748C73.3991 75.7365 69.6664 73.2609 69.0769 72.7892C68.8801 72.6517 68.8999 72.6329 70.5111 72.082C73.2418 71.1582 79.7251 69.0753 79.9416 69.0753H79.9426ZM66.6983 73.438C66.8754 73.438 67.3264 73.6931 68.4074 74.3608C72.4565 76.8957 77.9567 79.9608 80.3145 80.9834C81.0415 81.297 81.1196 81.1792 79.4501 82.3186C75.8718 84.7556 71.4132 87.1521 65.9507 89.5693C64.9883 90.0015 64.1832 90.3349 64.1615 90.3349C64.122 90.3349 64.2397 89.8443 64.3969 89.2548C65.7152 84.3582 66.4601 79.4108 66.4996 75.4418C66.5194 73.4766 66.5194 73.4766 66.6964 73.4182C66.6569 73.438 66.6767 73.438 66.6964 73.438H66.6983ZM63.9675 74.4794C64.0843 74.5971 64.0062 78.9993 63.8489 80.1971C63.497 83.0935 62.8924 85.9535 62.0419 88.7444C61.8253 89.4704 61.6285 90.0797 61.5899 90.1192C61.5108 90.2134 58.8186 87.5843 57.9344 86.5626C56.4024 84.7942 55.2036 83.0258 54.3194 81.2969C53.8674 80.4127 53.1603 78.6839 53.2196 78.6245C53.5332 78.4089 63.8885 74.4003 63.9675 74.4813V74.4794ZM51.1131 79.5285C51.1239 79.5273 51.1348 79.5284 51.145 79.5318C51.1553 79.5352 51.1646 79.5409 51.1725 79.5483C51.2948 79.7733 51.3936 80.0102 51.4672 80.2555C52.0953 81.9646 53.5096 84.4797 54.7281 86.0937C56.0643 87.8621 57.8139 89.7482 59.2668 90.9903C59.7377 91.3829 60.1708 91.7568 60.2292 91.8151C60.3479 91.9338 60.3874 91.9093 57.1839 93.1334C53.471 94.5459 49.4229 95.9584 44.7862 97.4566C43.6776 97.8131 42.5708 98.1731 41.466 98.5366C41.2889 98.5959 41.3483 98.498 41.8586 97.6891C44.1572 94.0939 47.6545 87.0401 49.6197 82.0493C49.954 81.1849 50.2882 80.3205 50.3466 80.1237C50.4257 79.8487 50.5237 79.747 50.7788 79.6123C50.8877 79.5764 50.9996 79.5502 51.1131 79.5342V79.5285ZM47.1836 81.1595C47.242 81.199 46.242 83.3008 45.258 85.2264C43.3521 88.9403 41.2692 92.5948 38.4781 97.0356C38.0073 97.8021 37.5553 98.5093 37.496 98.5875C37.4018 98.7249 37.3585 98.6816 37.044 98.0771C36.3764 96.7588 35.8255 95.0704 35.5308 93.5186C35.236 91.9856 35.2954 89.3132 35.6296 87.6634C35.8848 86.4449 35.865 86.4647 36.4545 86.17C38.9697 84.8931 47.1045 81.0851 47.1827 81.1595H47.1836ZM81.0773 82.5352V83.3601C81.0773 87.7416 80.6064 93.754 79.9172 98.1364C79.7995 98.902 79.7015 99.531 79.6817 99.5489C79.6817 99.5489 79.1168 99.3916 78.4444 99.1948C75.3129 98.2006 72.2854 96.9045 69.4046 95.3247C67.4987 94.2832 64.7284 92.5732 64.8075 92.495C64.8263 92.4752 65.655 92.043 66.6145 91.5317C70.4659 89.5279 74.1599 87.3668 77.3625 85.2227C78.5612 84.4176 80.3682 83.1209 80.7618 82.7669L81.0763 82.5314L81.0773 82.5352ZM32.3527 88.3508C32.4309 88.3508 32.4111 88.5081 32.2934 89.2152C32.2152 89.7266 32.1164 90.6692 32.0777 91.317C31.9205 94.1862 32.3923 96.3077 33.8066 99.2165C34.1993 100.022 34.5147 100.69 34.494 100.709C34.3565 100.828 21.3496 104.639 17.2619 105.759C16.0434 106.093 14.9831 106.388 14.9078 106.407C14.7703 106.446 14.7505 106.428 14.8136 106.093C15.2656 103.205 17.4662 99.4321 20.5313 96.2494C22.5756 94.1269 24.2037 92.8896 26.9957 91.2972C29.0004 90.1578 32.0806 88.4488 32.3207 88.3706C32.3207 88.3508 32.3405 88.3508 32.3602 88.3508H32.3527ZM63.0042 93.8321C63.024 93.8133 63.4958 94.0685 64.0655 94.4028C68.2699 96.8388 74.1251 99.0988 79.1158 100.258L79.5678 100.352L78.9388 100.705C76.3257 102.16 67.7388 105.736 58.9571 109.017C57.6792 109.488 56.4221 109.959 56.1858 110.059C55.9494 110.158 55.7338 110.216 55.7338 110.196C55.7338 110.176 56.0879 109.489 56.5398 108.643C58.9957 104.046 61.4712 98.4462 62.7283 94.5563C62.8865 94.1796 62.9845 93.8491 63.0042 93.8284V93.8321ZM59.8799 94.8548C59.8996 94.8745 59.7424 95.287 59.5465 95.7578C57.8365 99.9011 55.5963 104.421 52.7281 109.493C52.0011 110.789 51.3919 111.831 51.3721 111.831C51.3523 111.831 50.7628 111.477 50.0538 111.045C45.8879 108.491 42.1948 105.347 39.7776 102.301L39.4245 101.869L41.2136 101.378C47.6168 99.6289 53.0614 97.7428 58.4655 95.4245C59.232 95.11 59.861 94.8548 59.8799 94.8548ZM79.2929 101.635C79.3126 102.087 78.3107 106.135 77.4849 109.062C76.7975 111.518 76.208 113.444 75.1308 116.842C74.6599 118.337 74.2475 119.573 74.2268 119.573C74.14 119.562 74.0546 119.542 73.9716 119.515C68.1334 118.452 62.9101 116.98 57.9975 115.014C56.6218 114.465 54.6575 113.58 54.5398 113.481C54.5002 113.442 55.6792 112.892 57.1764 112.244C66.1164 108.334 75.3907 103.894 78.5734 101.988C78.9501 101.751 79.2411 101.634 79.3004 101.634L79.2929 101.635ZM34.4752 103.168C34.5138 103.207 32.0184 106.802 28.5211 111.695C27.3027 113.404 25.8845 115.408 25.3582 116.155C24.8318 116.902 24.022 118.08 23.569 118.791L22.7432 120.069L21.859 119.323C20.8175 118.458 19.0105 116.611 18.2045 115.589C16.5152 113.487 15.3795 111.267 14.9238 109.243C14.7072 108.301 14.7072 107.831 14.904 107.769C15.1978 107.69 20.4446 106.451 25.3563 105.313C28.087 104.685 31.25 103.938 32.3894 103.663C33.5288 103.388 34.4535 103.171 34.4733 103.171L34.4752 103.168ZM36.9894 104.131L37.6184 104.838C40.448 108.001 43.3361 110.34 46.8333 112.383C47.4624 112.737 47.9341 113.051 47.8946 113.071C47.7571 113.165 35.7521 117.433 30.1916 119.358C27.0672 120.458 24.4928 121.342 24.4739 121.342C24.337 121.267 24.2054 121.181 24.0803 121.087L23.7272 120.831L24.2969 120.006C26.1435 117.334 28.4628 114.406 33.5119 108.316L36.9884 104.129L36.9894 104.131ZM52.6697 115.35C52.6885 115.33 53.5529 115.644 54.6142 116.038C57.1689 117 59.1925 117.609 61.9035 118.298C65.2444 119.146 70.0779 119.968 72.9264 120.204C73.3595 120.243 73.595 120.282 73.5159 120.341C73.3784 120.42 70.4903 121.383 68.3679 122.05C64.9883 123.112 54.6735 126.157 46.2637 128.574C44.7118 129.026 43.3756 129.399 43.2965 129.422C43.1007 129.461 42.449 129.284 42.449 129.205C42.449 129.166 42.9199 128.557 43.4905 127.887C46.3527 124.466 49.0163 120.884 51.4681 117.159C52.116 116.176 52.6669 115.369 52.6669 115.351L52.6697 115.35ZM49.211 115.444C49.2308 115.464 47.8353 117.704 45.3992 121.554C44.3578 123.185 43.1986 125.033 42.7862 125.681C42.3925 126.31 41.8031 127.293 41.4678 127.846L40.9029 128.848L40.6081 128.769C39.9 128.573 34.9291 126.824 33.6126 126.294C32.0513 125.672 30.5231 124.971 29.0343 124.192C27.4627 123.344 25.4985 122.089 25.6557 122.05C25.6943 122.03 28.3865 121.303 31.6286 120.419C40.2343 118.08 45.0084 116.725 48.1328 115.742C48.7035 115.565 49.1941 115.428 49.2138 115.448L49.211 115.444ZM73.6731 121.181H73.6929C73.771 121.378 70.5854 130.221 69.4291 133.009C69.1739 133.638 69.076 133.796 68.9385 133.776C68.6042 133.756 63.9864 133.108 61.1765 132.696C56.2847 131.949 48.0716 130.514 46.0085 130.043L45.5376 129.949L48.4652 129.281C54.7526 127.869 57.7781 127.101 60.8432 126.157C64.8016 124.946 68.6692 123.456 72.4169 121.697C73.0252 121.421 73.5366 121.206 73.674 121.186L73.6731 121.181ZM59.0748 5.00097C58.6463 4.94353 51.6668 7.45866 47.1676 9.28546C41.0959 11.761 36.3811 14.1189 33.4723 16.1595C32.3923 16.926 31.0363 18.282 30.8206 18.8121C30.7398 19.0253 30.6995 19.2517 30.702 19.4797L33.3386 21.9751L39.6072 23.9799L54.5162 26.6588L71.5713 29.5864L71.7474 28.1127C71.6891 28.1127 71.6533 28.093 71.5911 28.093L69.3509 27.7389L68.899 26.9338C66.5806 22.8471 64.0259 17.7772 62.5325 14.3581C61.3743 11.7055 60.2725 8.64137 59.6642 6.44074C59.3299 5.10455 59.2876 5.02827 59.0748 5.00567V5.00097ZM58.7602 6.00382H58.78C58.7998 6.02265 58.8742 6.57352 58.9571 7.22137C59.3043 10.0374 59.943 12.8097 60.8629 15.4937C61.5899 17.6548 61.5899 17.5371 60.7452 17.2829C58.7405 16.732 49.7619 15.1802 43.2579 14.2762C42.2165 14.1387 41.3322 14.0012 41.3322 13.9815C41.2532 13.9033 46.0282 11.4042 48.13 10.4258C50.8222 9.18753 58.2103 6.10269 58.7602 6.00476V6.00382ZM39.819 14.8063L40.5855 15.0615C44.7504 16.474 55.2234 18.4806 61.0004 18.9524C61.6483 19.0117 62.1982 19.0711 62.218 19.0711C62.2377 19.0899 61.6878 19.3846 60.9806 19.7189C58.1905 21.1135 55.1255 22.8263 53.003 24.1399C52.3749 24.5326 51.8043 24.8471 51.7261 24.8471C51.648 24.8471 51.2346 24.769 50.8024 24.7096L50.0171 24.5919L48.0518 22.6663C44.5941 19.3065 41.8822 16.7122 40.8407 15.7301L39.819 14.8063ZM39.0337 15.4156L41.804 18.8742C43.3163 20.7801 44.8493 22.6465 45.1836 23.0589C45.5179 23.4714 45.7919 23.8057 45.7731 23.8254C45.694 23.8847 41.7645 23.1182 39.6815 22.6465C37.5402 22.1549 36.656 21.9195 35.3396 21.5071L34.2577 21.153V20.8781C34.2774 19.5598 35.9479 17.5964 38.7776 15.5926L39.0337 15.4156ZM62.5749 20.1313C62.654 20.1313 62.7519 20.3084 62.9873 20.8385C63.6549 22.3122 65.7388 26.2812 66.2492 27.0477C66.4064 27.3029 66.6814 27.3227 63.9111 26.8707C57.247 25.7897 55.1057 25.4347 55.1057 25.397C55.2429 25.2795 55.3948 25.1804 55.5577 25.1023C57.682 23.9142 59.6886 22.5269 61.5503 20.9591C62.0023 20.5824 62.4148 20.2312 62.492 20.1728C62.5118 20.1332 62.5513 20.1135 62.5711 20.1332L62.5749 20.1313Z" fill="url(#paint0_linear)" fill-opacity="0.8"/>
<path d="M30.9619 18.54C30.9619 18.54 30.5297 19.2274 30.943 20.25C31.1982 20.8781 31.945 21.6446 32.7896 22.4299C32.7896 22.4299 41.5328 30.9575 42.594 32.176C47.4275 37.7562 49.5302 43.2573 49.7261 50.8422C49.8447 55.7152 48.921 59.9978 46.6186 64.9669C42.5309 73.8871 33.9064 83.7311 20.6038 94.6552L22.5492 94.0073C23.8063 93.0657 25.5163 92.0619 29.524 89.8641C38.7775 84.7942 49.1912 80.1378 61.9628 75.342C80.3531 68.4256 110.592 60.3302 127.805 57.6974L129.594 57.4224L129.318 56.9902C127.746 54.5532 126.665 53.041 125.369 51.4298C121.596 46.7526 117.019 42.9616 111.419 39.8174C103.716 35.5141 93.7546 32.1543 81.1403 29.6589C78.7627 29.1881 73.5365 28.2841 69.2925 27.6353C60.2932 26.2408 54.4776 25.2812 48.0725 24.1776C45.773 23.784 42.3351 23.1945 40.0554 22.7039C38.8764 22.4478 36.6174 21.9177 34.849 21.3084C33.4365 20.7585 31.3903 20.2076 30.9581 18.5381L30.9619 18.54ZM36.027 23.4572C36.0468 23.4375 36.3603 23.5514 36.7737 23.6927C37.5204 23.9478 38.4828 24.2426 39.6231 24.5571C40.4844 24.7944 41.3489 25.0235 42.2164 25.2445C43.3954 25.5392 44.3822 25.8095 44.3973 25.8095C44.5348 25.9479 46.5198 32.2937 47.1874 34.7297C47.4426 35.6535 47.6394 36.4397 47.6196 36.4397C47.5998 36.4595 47.3832 36.1252 47.1281 35.6732C44.8295 31.6242 41.1957 27.5195 36.9894 24.2181C36.6506 23.988 36.329 23.7338 36.027 23.4572ZM45.6939 26.1287C46.0514 26.1631 46.406 26.2222 46.7552 26.3057C50.0952 27.0525 56.0878 28.189 59.9194 28.8406C60.5682 28.9348 61.0786 29.0572 61.0786 29.0958C61.0786 29.1344 60.8431 29.2729 60.5475 29.4301C59.8996 29.7635 57.2865 31.3134 56.4221 31.9057C54.2413 33.3596 52.2789 34.9312 50.8617 36.3456C50.292 36.9162 49.8005 37.387 49.8005 37.387C49.8005 37.387 49.6828 37.0537 49.5839 36.6403C48.8767 33.9095 47.403 29.8604 46.0668 27.0129C45.9185 26.7195 45.7874 26.4176 45.6742 26.1089C45.6742 26.1485 45.6742 26.1287 45.6939 26.1287ZM62.7095 29.3708C62.8272 29.4103 63.024 30.078 63.4167 31.5516C64.1528 34.4921 64.4698 37.5218 64.3583 40.551C64.3188 41.3758 64.2792 42.1423 64.2397 42.2412L64.1813 42.4371L63.1662 42.1019C61.0635 41.4342 57.6453 40.4323 54.7177 39.6065C53.0473 39.1545 51.6913 38.7421 51.6913 38.7035C51.6913 38.5848 54.1283 36.1488 55.1697 35.225C57.1538 33.4764 62.5372 29.3105 62.7142 29.3698L62.7095 29.3708ZM64.0655 29.5676C64.1238 29.5083 72.1994 30.9038 75.8737 31.611C78.6045 32.1411 82.5745 32.9669 82.8099 33.0649C82.9276 33.1044 82.5152 33.3398 81.1987 33.9293C76.0112 36.2674 72.1589 38.3701 68.3292 40.9239C67.3273 41.5924 66.4817 42.1423 66.462 42.1423C66.4422 42.1423 66.4233 41.5726 66.4233 40.8852C66.4233 37.1516 65.6766 33.3794 64.3009 30.1966C64.1634 29.8774 64.0457 29.5827 64.0655 29.5629V29.5676ZM84.9512 33.6939C85.0105 33.7523 84.7544 35.3446 84.519 36.2872C83.8118 39.2148 81.9059 43.5576 79.5678 47.6444C79.1554 48.3713 78.7815 48.9627 78.742 48.9796C78.7024 48.9966 78.177 48.7047 77.564 48.3516C75.2842 47.0154 72.6909 45.7573 69.8613 44.5784C69.076 44.245 68.3876 43.9691 68.3678 43.9305C68.2304 43.8128 74.5573 39.6272 77.8973 37.6215C80.5499 36.0103 84.873 33.6129 84.9512 33.692V33.6939ZM86.4446 33.9293C86.6217 33.9293 90.1971 34.9114 92.0634 35.4623C96.6775 36.8371 101.987 38.7825 105.444 40.3542L106.878 41.003L105.876 41.2384C97.428 43.1791 90.1971 45.4193 83.2233 48.248C82.6583 48.4843 82.1423 48.6811 82.1036 48.6811C82.065 48.6811 82.2609 48.2292 82.5161 47.6783C84.6188 43.2186 85.9738 38.5622 86.3081 34.5894C86.3279 34.2127 86.3863 33.9218 86.4456 33.9218L86.4446 33.9293ZM50.8419 42.1019C50.9003 42.0435 53.632 42.6913 55.1057 43.1038C57.3449 43.7328 62.1003 45.3242 62.1003 45.4419C62.1003 45.4616 61.5701 45.9127 60.9411 46.4645C58.3638 48.5992 55.891 50.8592 52.9239 53.7302C52.0397 54.5777 51.2939 55.2632 51.2544 55.2632C51.2148 55.2632 51.196 55.1446 51.2148 54.9873C51.6668 51.6869 51.5689 47.4429 50.9398 43.1396C50.8815 42.5896 50.8221 42.1179 50.8419 42.1019ZM108.235 42.1612C108.274 42.2007 106.977 44.2441 106.152 45.4033C104.975 47.0926 103.244 49.329 99.3339 54.2416C97.2708 56.8349 94.9524 59.7624 94.1859 60.7446C93.3996 61.7267 92.7518 62.5525 92.732 62.5525C92.5303 62.3038 92.3465 62.0411 92.1821 61.7663C89.9733 58.4652 87.2922 55.5061 84.2242 52.9835C83.6348 52.492 82.9869 51.9618 82.7703 51.8046C82.6267 51.709 82.4949 51.5968 82.3777 51.4703C82.3777 51.4119 85.7177 49.9768 88.2526 48.9561C92.6925 47.1481 98.7444 44.9871 103.283 43.5887C105.661 42.842 108.196 42.115 108.235 42.1546V42.1612ZM109.748 42.5538C109.826 42.5341 110.297 42.7704 110.867 43.1038C115.642 45.8345 120.318 49.3525 124.013 52.9675C125.054 53.9892 127.628 56.6616 127.591 56.6814C127.591 56.6814 126.687 56.7595 125.627 56.8386C117.354 57.4676 106.764 59.2153 96.5862 61.6721C95.8988 61.8284 95.2895 61.9668 95.25 61.9668C95.2104 61.9668 95.9769 61.2003 96.9402 60.2766C102.913 54.5203 105.645 50.8846 108.866 44.4004C109.318 43.4381 109.714 42.6113 109.75 42.5538H109.748ZM65.9911 47.0304C66.267 47.0888 68.8161 48.2875 70.7465 49.2508C72.5149 50.1341 75.1722 51.5494 75.305 51.6671C75.3247 51.6869 74.3812 52.1775 73.223 52.7481C69.527 54.5947 66.3678 56.3433 63.0626 58.3471C62.121 58.9178 61.3337 59.3895 61.3149 59.3895C61.2358 59.3895 61.2556 59.3104 61.7857 58.3471C63.5541 55.1258 64.9685 51.2744 65.7746 47.5182C65.8527 47.2235 65.9318 47.0276 65.9902 47.0276L65.9911 47.0304ZM63.4374 47.5013C63.4967 47.5606 62.8281 49.9768 62.4157 51.2942C61.4985 54.0522 60.3346 56.7219 58.9382 59.2709C58.6237 59.8208 58.1519 60.6269 57.8967 61.0789L57.4052 61.8642L56.3054 60.8039C55.0275 59.5656 53.9861 58.7991 52.6508 58.1117C52.1197 57.8368 51.7092 57.6004 51.7092 57.5618C51.7092 57.4046 55.069 54.3602 57.6416 52.1586C59.4891 50.5673 63.379 47.4429 63.4383 47.5013H63.4374ZM79.0584 53.9271L80.0217 54.5551C82.374 56.0966 84.6375 57.7694 86.8015 59.5656C87.9211 60.4894 90.0822 62.4348 90.5144 62.9057L90.7498 63.1618L89.1556 63.6138C80.1563 66.1082 73.2004 68.3286 65.0862 71.3155C64.1822 71.6498 63.4157 71.9247 63.3564 71.9247C63.2387 71.9247 63.1408 72.0189 65.1644 70.1563C70.3519 65.3822 74.949 60.1156 78.3681 54.9873L79.0565 53.9271H79.0584ZM74.9518 54.9487C74.9905 54.9873 72.2992 58.7794 70.6871 60.9216C68.7615 63.4772 65.3423 67.7589 62.9845 70.549C62.0023 71.7082 61.1577 72.6715 61.1181 72.6912C61.0588 72.7101 61.039 72.4153 61.039 71.9643C61.039 69.5857 60.4307 67.0517 59.3695 64.8906C58.9175 63.9867 58.8384 63.7701 58.9373 63.6722C59.3139 63.3379 65.0278 60.076 68.6428 58.1315C71.0798 56.8349 74.8906 54.9092 74.9518 54.9487ZM50.115 61.0393C50.1734 61.0393 50.6253 61.2747 51.1367 61.5506C52.3325 62.2021 53.464 62.965 54.5162 63.8294C54.5548 63.869 54.0454 64.2814 53.3768 64.7711C51.5095 66.1063 48.6808 68.2486 47.0301 69.565C45.3013 70.9407 45.241 70.9775 45.4388 70.6846C46.7354 68.7005 47.3833 67.5772 48.0754 66.1459C48.708 64.8117 49.2589 63.4403 49.7251 62.0393C49.8824 61.4744 50.0792 61.0374 50.1187 61.0374L50.115 61.0393ZM56.7366 66.2268C56.8308 66.2071 56.9523 66.3841 57.4824 67.1685C58.603 68.839 59.4674 71.0792 59.684 72.8862L59.7226 73.2798L57.0314 74.3212C52.2167 76.1876 47.7769 78.0342 44.7702 79.4061C43.9227 79.7988 42.4518 80.506 41.4895 80.9777C40.5262 81.4693 39.7408 81.8422 39.7408 81.8252C39.7408 81.8083 40.3491 81.3544 41.0959 80.8026C46.9718 76.5398 52.0604 71.8626 55.8722 67.1864C56.2846 66.6958 56.6575 66.2447 56.6971 66.224L56.7366 66.2268ZM53.6913 66.9736C53.7695 67.0517 51.5256 69.5866 49.9973 71.1385C46.2053 75.0096 42.45 78.0351 37.7954 80.9824C37.2059 81.3591 36.6758 81.6896 36.6165 81.7292C36.479 81.8083 36.656 81.6115 38.6994 79.3911C39.996 77.9965 40.9782 76.8175 42.0987 75.3636C42.8445 74.4003 42.9829 74.2629 44.063 73.4964C46.952 71.4134 53.6122 66.8945 53.6913 66.9736Z" fill="#2CD8CF"/>
<path d="M30.9619 18.54C30.9619 18.54 30.5297 19.2274 30.943 20.25C31.1982 20.8781 31.945 21.6446 32.7896 22.4299C32.7896 22.4299 41.5328 30.9575 42.594 32.176C47.4275 37.7562 49.5302 43.2573 49.7261 50.8422C49.8447 55.7152 48.921 59.9978 46.6186 64.9669C42.5309 73.8871 33.9064 83.7311 20.6038 94.6552L22.5492 94.0073C23.8063 93.0657 25.5163 92.0619 29.524 89.8641C38.7775 84.7942 49.1912 80.1378 61.9628 75.342C80.3531 68.4256 110.592 60.3302 127.805 57.6974L129.594 57.4224L129.318 56.9902C127.746 54.5532 126.665 53.041 125.369 51.4298C121.596 46.7526 117.019 42.9616 111.419 39.8174C103.716 35.5141 93.7546 32.1543 81.1403 29.6589C78.7627 29.1881 73.5365 28.2841 69.2925 27.6353C60.2932 26.2408 54.4776 25.2812 48.0725 24.1776C45.773 23.784 42.3351 23.1945 40.0554 22.7039C38.8764 22.4478 36.6174 21.9177 34.849 21.3084C33.4365 20.7585 31.3903 20.2076 30.9581 18.5381L30.9619 18.54ZM36.027 23.4572C36.0468 23.4375 36.3603 23.5514 36.7737 23.6927C37.5204 23.9478 38.4828 24.2426 39.6231 24.5571C40.4844 24.7944 41.3489 25.0235 42.2164 25.2445C43.3954 25.5392 44.3822 25.8095 44.3973 25.8095C44.5348 25.9479 46.5198 32.2937 47.1874 34.7297C47.4426 35.6535 47.6394 36.4397 47.6196 36.4397C47.5998 36.4595 47.3832 36.1252 47.1281 35.6732C44.8295 31.6242 41.1957 27.5195 36.9894 24.2181C36.6506 23.988 36.329 23.7338 36.027 23.4572ZM45.6939 26.1287C46.0514 26.1631 46.406 26.2222 46.7552 26.3057C50.0952 27.0525 56.0878 28.189 59.9194 28.8406C60.5682 28.9348 61.0786 29.0572 61.0786 29.0958C61.0786 29.1344 60.8431 29.2729 60.5475 29.4301C59.8996 29.7635 57.2865 31.3134 56.4221 31.9057C54.2413 33.3596 52.2789 34.9312 50.8617 36.3456C50.292 36.9162 49.8005 37.387 49.8005 37.387C49.8005 37.387 49.6828 37.0537 49.5839 36.6403C48.8767 33.9095 47.403 29.8604 46.0668 27.0129C45.9185 26.7195 45.7874 26.4176 45.6742 26.1089C45.6742 26.1485 45.6742 26.1287 45.6939 26.1287ZM62.7095 29.3708C62.8272 29.4103 63.024 30.078 63.4167 31.5516C64.1528 34.4921 64.4698 37.5218 64.3583 40.551C64.3188 41.3758 64.2792 42.1423 64.2397 42.2412L64.1813 42.4371L63.1662 42.1019C61.0635 41.4342 57.6453 40.4323 54.7177 39.6065C53.0473 39.1545 51.6913 38.7421 51.6913 38.7035C51.6913 38.5848 54.1283 36.1488 55.1697 35.225C57.1538 33.4764 62.5372 29.3105 62.7142 29.3698L62.7095 29.3708ZM64.0655 29.5676C64.1238 29.5083 72.1994 30.9038 75.8737 31.611C78.6045 32.1411 82.5745 32.9669 82.8099 33.0649C82.9276 33.1044 82.5152 33.3398 81.1987 33.9293C76.0112 36.2674 72.1589 38.3701 68.3292 40.9239C67.3273 41.5924 66.4817 42.1423 66.462 42.1423C66.4422 42.1423 66.4233 41.5726 66.4233 40.8852C66.4233 37.1516 65.6766 33.3794 64.3009 30.1966C64.1634 29.8774 64.0457 29.5827 64.0655 29.5629V29.5676ZM84.9512 33.6939C85.0105 33.7523 84.7544 35.3446 84.519 36.2872C83.8118 39.2148 81.9059 43.5576 79.5678 47.6444C79.1554 48.3713 78.7815 48.9627 78.742 48.9796C78.7024 48.9966 78.177 48.7047 77.564 48.3516C75.2842 47.0154 72.6909 45.7573 69.8613 44.5784C69.076 44.245 68.3876 43.9691 68.3678 43.9305C68.2304 43.8128 74.5573 39.6272 77.8973 37.6215C80.5499 36.0103 84.873 33.6129 84.9512 33.692V33.6939ZM86.4446 33.9293C86.6217 33.9293 90.1971 34.9114 92.0634 35.4623C96.6775 36.8371 101.987 38.7825 105.444 40.3542L106.878 41.003L105.876 41.2384C97.428 43.1791 90.1971 45.4193 83.2233 48.248C82.6583 48.4843 82.1423 48.6811 82.1036 48.6811C82.065 48.6811 82.2609 48.2292 82.5161 47.6783C84.6188 43.2186 85.9738 38.5622 86.3081 34.5894C86.3279 34.2127 86.3863 33.9218 86.4456 33.9218L86.4446 33.9293ZM50.8419 42.1019C50.9003 42.0435 53.632 42.6913 55.1057 43.1038C57.3449 43.7328 62.1003 45.3242 62.1003 45.4419C62.1003 45.4616 61.5701 45.9127 60.9411 46.4645C58.3638 48.5992 55.891 50.8592 52.9239 53.7302C52.0397 54.5777 51.2939 55.2632 51.2544 55.2632C51.2148 55.2632 51.196 55.1446 51.2148 54.9873C51.6668 51.6869 51.5689 47.4429 50.9398 43.1396C50.8815 42.5896 50.8221 42.1179 50.8419 42.1019ZM108.235 42.1612C108.274 42.2007 106.977 44.2441 106.152 45.4033C104.975 47.0926 103.244 49.329 99.3339 54.2416C97.2708 56.8349 94.9524 59.7624 94.1859 60.7446C93.3996 61.7267 92.7518 62.5525 92.732 62.5525C92.5303 62.3038 92.3465 62.0411 92.1821 61.7663C89.9733 58.4652 87.2922 55.5061 84.2242 52.9835C83.6348 52.492 82.9869 51.9618 82.7703 51.8046C82.6267 51.709 82.4949 51.5968 82.3777 51.4703C82.3777 51.4119 85.7177 49.9768 88.2526 48.9561C92.6925 47.1481 98.7444 44.9871 103.283 43.5887C105.661 42.842 108.196 42.115 108.235 42.1546V42.1612ZM109.748 42.5538C109.826 42.5341 110.297 42.7704 110.867 43.1038C115.642 45.8345 120.318 49.3525 124.013 52.9675C125.054 53.9892 127.628 56.6616 127.591 56.6814C127.591 56.6814 126.687 56.7595 125.627 56.8386C117.354 57.4676 106.764 59.2153 96.5862 61.6721C95.8988 61.8284 95.2895 61.9668 95.25 61.9668C95.2104 61.9668 95.9769 61.2003 96.9402 60.2766C102.913 54.5203 105.645 50.8846 108.866 44.4004C109.318 43.4381 109.714 42.6113 109.75 42.5538H109.748ZM65.9911 47.0304C66.267 47.0888 68.8161 48.2875 70.7465 49.2508C72.5149 50.1341 75.1722 51.5494 75.305 51.6671C75.3247 51.6869 74.3812 52.1775 73.223 52.7481C69.527 54.5947 66.3678 56.3433 63.0626 58.3471C62.121 58.9178 61.3337 59.3895 61.3149 59.3895C61.2358 59.3895 61.2556 59.3104 61.7857 58.3471C63.5541 55.1258 64.9685 51.2744 65.7746 47.5182C65.8527 47.2235 65.9318 47.0276 65.9902 47.0276L65.9911 47.0304ZM63.4374 47.5013C63.4967 47.5606 62.8281 49.9768 62.4157 51.2942C61.4985 54.0522 60.3346 56.7219 58.9382 59.2709C58.6237 59.8208 58.1519 60.6269 57.8967 61.0789L57.4052 61.8642L56.3054 60.8039C55.0275 59.5656 53.9861 58.7991 52.6508 58.1117C52.1197 57.8368 51.7092 57.6004 51.7092 57.5618C51.7092 57.4046 55.069 54.3602 57.6416 52.1586C59.4891 50.5673 63.379 47.4429 63.4383 47.5013H63.4374ZM79.0584 53.9271L80.0217 54.5551C82.374 56.0966 84.6375 57.7694 86.8015 59.5656C87.9211 60.4894 90.0822 62.4348 90.5144 62.9057L90.7498 63.1618L89.1556 63.6138C80.1563 66.1082 73.2004 68.3286 65.0862 71.3155C64.1822 71.6498 63.4157 71.9247 63.3564 71.9247C63.2387 71.9247 63.1408 72.0189 65.1644 70.1563C70.3519 65.3822 74.949 60.1156 78.3681 54.9873L79.0565 53.9271H79.0584ZM74.9518 54.9487C74.9905 54.9873 72.2992 58.7794 70.6871 60.9216C68.7615 63.4772 65.3423 67.7589 62.9845 70.549C62.0023 71.7082 61.1577 72.6715 61.1181 72.6912C61.0588 72.7101 61.039 72.4153 61.039 71.9643C61.039 69.5857 60.4307 67.0517 59.3695 64.8906C58.9175 63.9867 58.8384 63.7701 58.9373 63.6722C59.3139 63.3379 65.0278 60.076 68.6428 58.1315C71.0798 56.8349 74.8906 54.9092 74.9518 54.9487ZM50.115 61.0393C50.1734 61.0393 50.6253 61.2747 51.1367 61.5506C52.3325 62.2021 53.464 62.965 54.5162 63.8294C54.5548 63.869 54.0454 64.2814 53.3768 64.7711C51.5095 66.1063 48.6808 68.2486 47.0301 69.565C45.3013 70.9407 45.241 70.9775 45.4388 70.6846C46.7354 68.7005 47.3833 67.5772 48.0754 66.1459C48.708 64.8117 49.2589 63.4403 49.7251 62.0393C49.8824 61.4744 50.0792 61.0374 50.1187 61.0374L50.115 61.0393ZM56.7366 66.2268C56.8308 66.2071 56.9523 66.3841 57.4824 67.1685C58.603 68.839 59.4674 71.0792 59.684 72.8862L59.7226 73.2798L57.0314 74.3212C52.2167 76.1876 47.7769 78.0342 44.7702 79.4061C43.9227 79.7988 42.4518 80.506 41.4895 80.9777C40.5262 81.4693 39.7408 81.8422 39.7408 81.8252C39.7408 81.8083 40.3491 81.3544 41.0959 80.8026C46.9718 76.5398 52.0604 71.8626 55.8722 67.1864C56.2846 66.6958 56.6575 66.2447 56.6971 66.224L56.7366 66.2268ZM53.6913 66.9736C53.7695 67.0517 51.5256 69.5866 49.9973 71.1385C46.2053 75.0096 42.45 78.0351 37.7954 80.9824C37.2059 81.3591 36.6758 81.6896 36.6165 81.7292C36.479 81.8083 36.656 81.6115 38.6994 79.3911C39.996 77.9965 40.9782 76.8175 42.0987 75.3636C42.8445 74.4003 42.9829 74.2629 44.063 73.4964C46.952 71.4134 53.6122 66.8945 53.6913 66.9736Z" fill="url(#paint1_linear)"/>
<path d="M74.9291 134.995H75.351V131.621H76.4659V131.2H73.8142V131.621H74.9291V134.995ZM77.4847 132.46C77.4922 132.211 77.484 131.961 77.4603 131.712C77.4867 131.845 77.5261 131.976 77.578 132.102L78.8727 134.995H79.0799L80.3784 132.076C80.4133 131.982 80.4406 131.869 80.499 131.715C80.4716 132.015 80.4716 132.256 80.4716 132.44V134.994H80.9208V131.2H80.3784L79.2042 133.818C79.1769 133.912 79.0827 134.095 79.0243 134.302H78.9904C78.9459 134.148 78.8879 133.998 78.8172 133.854L77.6439 131.201H77.0356V135H77.4603V132.465H77.4847V132.46Z" fill="#231F1F"/>
<defs>
<linearGradient id="paint0_linear" x1="48.76" y1="5" x2="48.76" y2="134.806" gradientUnits="userSpaceOnUse">
<stop stop-color="#677496"/>
<stop offset="1" stop-color="#3F4B6B"/>
</linearGradient>
<linearGradient id="paint1_linear" x1="75.0987" y1="18.5381" x2="75.0987" y2="94.6552" gradientUnits="userSpaceOnUse">
<stop stop-color="#F45A53"/>
<stop offset="1" stop-color="#DF2921"/>
</linearGradient>
</defs>
</svg>
