<svg width="140" height="140" viewBox="0 0 140 140" fill="none" xmlns="http://www.w3.org/2000/svg">
<path d="M29.7445 5C27.0876 5 25 7.08759 25 9.74453V130.255C25 132.912 27.0876 135 29.7445 135H110.686C113.343 135 115.431 132.912 115.431 130.255V9.74453C115.431 7.08759 113.343 5 110.686 5H29.7445ZM115.431 60.9854H39.8978C37.146 60.9854 34.9635 63.2628 35.3431 66.0146C39.8978 100.934 69.3139 128.168 105.277 129.307C106.606 129.307 107.65 130.35 107.65 131.679C107.65 133.007 106.606 134.051 105.277 133.956C85.4453 133.387 66.8467 125.416 52.8029 111.277C38.0949 96.7591 30.0292 77.2117 30.0292 56.5255C30.0292 29.5766 51.9489 7.65693 78.8978 7.65693C96.073 7.65693 109.927 21.6058 109.927 38.6861C109.927 48.8394 102.336 57.2847 92.562 58.6131H115.431V60.9854C115.526 60.9854 115.526 60.9854 115.431 60.9854Z" fill="url(#paint0_linear)"/>
<path d="M76.7153 12.4015C77.4744 12.4015 78.1387 12.4015 78.8978 12.4015C91.8978 12.4015 102.62 21.7956 104.898 34.1314H76.7153V12.4015ZM76.7153 36.4088H84.9708C80.7956 36.6934 77.3796 39.8248 76.7153 43.9051V36.4088ZM85.4452 41.1533V53.0146C84.1168 52.2555 83.073 51.2117 82.3139 49.8832C81.5547 48.5547 81.1752 47.1314 81.1752 45.6131C81.1752 43.146 83.073 41.2482 85.4452 41.1533ZM74.3431 58.708H34.7737C34.7737 58.0438 34.7737 57.2847 34.7737 56.5256C34.7737 33.7518 52.1387 14.8686 74.3431 12.5912V58.708ZM76.7153 58.708V47.511C77.5693 53.2044 82.0292 57.6642 87.6277 58.6131H76.7153V58.708ZM87.8175 53.9635V41.1533C87.8175 41.1533 90.1898 41.1533 90.2847 38.8759C90.2847 36.4088 87.8175 36.5037 87.8175 36.5037H105.182C105.277 37.2628 105.277 38.0219 105.277 38.781C105.277 47.3212 98.3504 54.1533 89.8102 54.1533C89.146 54.1533 88.4817 54.0584 87.8175 53.9635Z" fill="url(#paint1_linear)"/>
<defs>
<linearGradient id="paint0_linear" x1="70.2509" y1="5" x2="70.2509" y2="135" gradientUnits="userSpaceOnUse">
<stop stop-color="#5E71A0"/>
<stop offset="1" stop-color="#3C4764"/>
</linearGradient>
<linearGradient id="paint1_linear" x1="70.2509" y1="5" x2="70.2509" y2="135" gradientUnits="userSpaceOnUse">
<stop stop-color="#5E71A0"/>
<stop offset="1" stop-color="#3C4764"/>
</linearGradient>
</defs>
</svg>
