<svg width="140" height="140" viewBox="0 0 140 140" fill="none" xmlns="http://www.w3.org/2000/svg">
<path d="M70.868 39.872C71.064 45.22 71.792 50.12 72.968 54.628C72.968 54.628 83.664 80.22 104.104 86.884C110.04 82.712 115.192 77.308 119.168 70.868L120.176 69.188C120.624 68.404 121.044 67.62 121.436 66.836L122.248 65.156C125.804 57.484 127.764 48.664 127.568 39.032C127.568 39.032 127.568 39.032 127.596 39.032C127.596 36.4 126.756 25.228 125.244 22.176C121.156 23.744 113.68 28.784 112 33.936C103.908 32.732 94.808 32.872 86.828 34.244C85.484 28.7 78.792 24.444 73.752 22.064C71.624 25.648 70.672 33.992 70.924 39.9C70.896 39.844 70.868 39.872 70.868 39.872Z" fill="url(#paint0_linear)"/>
<path d="M135.716 112.252C133.14 109.368 128.1 108.024 123.9 108.108C121.968 105.812 113.092 96.292 107.716 90.636L104.944 92.484L102.536 91.7C80.136 84.42 68.768 57.708 68.292 56.588L68.152 56.252L68.096 56.028C52.052 61.096 35.504 71.428 25.872 81.48L24.248 83.188C23.464 84.028 22.736 84.84 22.008 85.652C10.612 98.336 2.29602 112 2.29602 114.24V115.416H17.304L17.052 114.016C16.212 109.536 17.892 103.936 21.364 99.764C23.548 97.132 27.132 94.136 32.788 92.764C37.436 91.084 49.672 92.428 49.672 92.428C73.864 94.584 96.992 104.328 123.116 117.964H137.48L137.676 117.012C137.928 115.724 137.2 113.904 135.716 112.252Z" fill="url(#paint1_linear)"/>
<path d="M60.648 103.488C58.884 102.34 56.168 102.172 53.676 103.04C52.136 101.332 51.044 99.26 50.372 96.824C50.148 96.796 49.896 96.768 49.672 96.74C49.672 96.74 42.168 95.9 36.652 96.348C40.936 100.156 45.92 104.076 51.352 107.884H62.496V106.708C62.496 105.42 61.824 104.272 60.648 103.488Z" fill="url(#paint2_linear)"/>
<path d="M21.476 79.184L22.512 78.092C22.708 77.868 22.932 77.644 23.156 77.448C20.104 72.52 18.76 68.348 18.312 65.044C17.584 59.78 18.844 54.936 21.952 51.044C26.852 44.968 33.796 44.548 40.936 45.752C40.796 46.872 40.936 47.964 41.384 48.636C43.26 51.436 53.424 52.416 59.5 49.7C55.02 43.428 45.976 40.376 43.456 41.608C42.616 42.028 42 42.756 41.58 43.624C39.116 43.176 36.652 42.84 34.86 42.868C28.56 42.924 23.744 45.108 20.132 49.588C16.604 53.984 15.148 59.444 15.988 65.38C16.604 69.776 18.452 74.396 21.476 79.184Z" fill="url(#paint3_linear)"/>
<defs>
<linearGradient id="paint0_linear" x1="70.0106" y1="22.064" x2="70.0106" y2="117.964" gradientUnits="userSpaceOnUse">
<stop stop-color="#F2E462"/>
<stop offset="1" stop-color="#E8AA0B"/>
</linearGradient>
<linearGradient id="paint1_linear" x1="70.0106" y1="22.064" x2="70.0106" y2="117.964" gradientUnits="userSpaceOnUse">
<stop stop-color="#F2E462"/>
<stop offset="1" stop-color="#E8AA0B"/>
</linearGradient>
<linearGradient id="paint2_linear" x1="70.0106" y1="22.064" x2="70.0106" y2="117.964" gradientUnits="userSpaceOnUse">
<stop stop-color="#F2E462"/>
<stop offset="1" stop-color="#E8AA0B"/>
</linearGradient>
<linearGradient id="paint3_linear" x1="70.0106" y1="22.064" x2="70.0106" y2="117.964" gradientUnits="userSpaceOnUse">
<stop stop-color="#F2E462"/>
<stop offset="1" stop-color="#E8AA0B"/>
</linearGradient>
</defs>
</svg>
