<svg width="140" height="140" viewBox="0 0 140 140" fill="none" xmlns="http://www.w3.org/2000/svg">
<path d="M137.19 50.4635L127.273 62.0977C128.287 65.1505 128.704 68.116 128.722 70.9864C128.762 75.7867 127.706 80.369 126.479 84.7615C121.088 104.135 108.883 118.046 89.8848 124.975C56.3886 137.19 20.5891 117.281 12.6306 82.4842C11.6437 78.1865 11.1851 73.7843 11.265 69.3754C11.6255 45.8014 26.7884 23.1292 49.3006 15.0038C77.5558 4.81937 108.631 16.8391 121.844 43.1736V43.1515L122.039 43.5506C122.234 43.9419 123.586 47.2157 123.586 47.2177L131.779 37.076C119.998 15.0175 96.7515 0 70.0015 0C31.3393 0 0 31.3394 0 70.0001C0 108.658 31.3394 140 70.0015 140C108.654 140 140 108.658 140 70.0001C139.983 63.3885 139.037 56.8121 137.19 50.4637V50.4635Z" fill="#EDB623"/>
<path d="M137.19 50.4635L127.273 62.0977C128.287 65.1505 128.704 68.116 128.722 70.9864C128.762 75.7867 127.706 80.369 126.479 84.7615C121.088 104.135 108.883 118.046 89.8848 124.975C56.3886 137.19 20.5891 117.281 12.6306 82.4842C11.6437 78.1865 11.1851 73.7843 11.265 69.3754C11.6255 45.8014 26.7884 23.1292 49.3006 15.0038C77.5558 4.81937 108.631 16.8391 121.844 43.1736V43.1515L122.039 43.5506C122.234 43.9419 123.586 47.2157 123.586 47.2177L131.779 37.076C119.998 15.0175 96.7515 0 70.0015 0C31.3393 0 0 31.3394 0 70.0001C0 108.658 31.3394 140 70.0015 140C108.654 140 140 108.658 140 70.0001C139.983 63.3885 139.037 56.8121 137.19 50.4637V50.4635Z" fill="url(#paint0_linear)"/>
<path d="M122.026 43.5528L121.834 43.1537V43.1757C108.624 16.8434 77.5467 4.8223 49.2914 15.0067C26.7708 23.1263 11.6165 45.8037 11.2543 69.3777C11.1792 73.7869 11.6368 78.189 12.6171 82.4885C20.5806 117.285 56.3754 137.19 89.8707 124.98C108.865 118.051 121.067 104.144 126.471 84.7572C127.693 80.3688 128.749 75.7917 128.712 70.9877C128.692 68.1103 128.274 65.1547 127.258 62.0956L126.916 62.4784C119.31 70.7611 112.125 78.602 104.918 86.4109C97.7945 94.1497 90.6611 101.88 83.518 109.601L83.1075 110.048L81.9273 111.442L81.9537 75.2549L46.2643 112.87V74.5535H31.619V62.5795H58.8136V81.4765C58.8315 81.4551 58.8422 81.4409 58.86 81.4166L94.4266 43.43L94.4359 45.7108C94.4643 45.7243 94.483 45.7345 94.5057 45.7487V78.4001L121.706 49.5532C121.706 49.5491 121.713 49.5397 121.713 49.5368C121.762 49.4833 121.793 49.4072 121.842 49.348V49.3736L123.554 47.2619L123.583 47.2254C123.573 47.2169 122.226 43.9418 122.026 43.5527V43.5528Z" fill="#642171"/>
<path d="M122.026 43.5528L121.834 43.1537V43.1757C108.624 16.8434 77.5467 4.8223 49.2914 15.0067C26.7708 23.1263 11.6165 45.8037 11.2543 69.3777C11.1792 73.7869 11.6368 78.189 12.6171 82.4885C20.5806 117.285 56.3754 137.19 89.8707 124.98C108.865 118.051 121.067 104.144 126.471 84.7572C127.693 80.3688 128.749 75.7917 128.712 70.9877C128.692 68.1103 128.274 65.1547 127.258 62.0956L126.916 62.4784C119.31 70.7611 112.125 78.602 104.918 86.4109C97.7945 94.1497 90.6611 101.88 83.518 109.601L83.1075 110.048L81.9273 111.442L81.9537 75.2549L46.2643 112.87V74.5535H31.619V62.5795H58.8136V81.4765C58.8315 81.4551 58.8422 81.4409 58.86 81.4166L94.4266 43.43L94.4359 45.7108C94.4643 45.7243 94.483 45.7345 94.5057 45.7487V78.4001L121.706 49.5532C121.706 49.5491 121.713 49.5397 121.713 49.5368C121.762 49.4833 121.793 49.4072 121.842 49.348V49.3736L123.554 47.2619L123.583 47.2254C123.573 47.2169 122.226 43.9418 122.026 43.5527V43.5528Z" fill="url(#paint1_linear)"/>
<path d="M112 24.5147C112 37.2173 92.9721 47.5147 69.5 47.5147C46.0279 47.5147 27 37.2173 27 24.5147C27 11.8122 50 -0.48526 69.5 0.0147451C91 0.0147451 112 11.8122 112 24.5147Z" fill="url(#paint2_linear)"/>
<defs>
<linearGradient id="paint0_linear" x1="70" y1="0" x2="70" y2="140" gradientUnits="userSpaceOnUse">
<stop stop-color="#FEDD83"/>
<stop offset="1" stop-color="#DDA60F"/>
</linearGradient>
<linearGradient id="paint1_linear" x1="69.9795" y1="11.4019" x2="69.9795" y2="128.59" gradientUnits="userSpaceOnUse">
<stop stop-color="white" stop-opacity="0.2"/>
<stop offset="1" stop-color="white" stop-opacity="0"/>
</linearGradient>
<linearGradient id="paint2_linear" x1="69.5" y1="0" x2="69.5" y2="47.5147" gradientUnits="userSpaceOnUse">
<stop stop-color="white" stop-opacity="0.4"/>
<stop offset="1" stop-color="white" stop-opacity="0"/>
</linearGradient>
</defs>
</svg>
