<svg width="140" height="140" viewBox="0 0 140 140" fill="none" xmlns="http://www.w3.org/2000/svg">
<g clip-path="url(#clip0)">
<path d="M70 0C108.662 0 140 31.3439 140 70.0066C140 108.669 108.662 140.006 70 140.006C31.3376 140.006 0 108.669 0 70.0063C0 31.3439 31.3376 0.00625979 70 0.00625979V0ZM70 130.548C103.42 130.509 130.503 103.426 130.542 70.0063C130.542 36.57 103.436 9.46468 70 9.46468C36.5638 9.46468 9.45842 36.57 9.45842 70.0063C9.45842 103.442 36.5638 130.548 70 130.548Z" fill="#3D4969"/>
<path d="M70 0C108.662 0 140 31.3439 140 70.0066C140 108.669 108.662 140.006 70 140.006C31.3376 140.006 0 108.669 0 70.0063C0 31.3439 31.3376 0.00625979 70 0.00625979V0ZM70 130.548C103.42 130.509 130.503 103.426 130.542 70.0063C130.542 36.57 103.436 9.46468 70 9.46468C36.5638 9.46468 9.45842 36.57 9.45842 70.0063C9.45842 103.442 36.5638 130.548 70 130.548Z" fill="url(#paint0_linear)"/>
<path d="M57.051 19.6749C52.6647 28.8808 49.9269 38.7846 48.9619 48.9362C38.8029 49.9026 28.8923 52.6448 19.6815 57.0381C24.4343 38.725 38.7367 24.4246 57.051 19.6749ZM82.3884 48.1083C78.266 47.8013 74.1338 47.6419 70 47.6305C65.847 47.6305 61.7005 47.8214 57.6115 48.1083C60.376 28.4713 66.4524 17.9807 70 17.9807C73.5476 17.9807 79.6243 28.4713 82.3884 48.1083ZM120.331 57.0573C111.123 52.672 101.217 49.9363 91.0637 48.9745C90.0987 38.8159 87.3586 28.9055 82.9681 19.694C101.28 24.4459 115.579 38.7458 120.331 57.0573ZM56.6879 56.6942C65.5488 55.9925 74.4512 55.9925 83.312 56.6942C84.0137 65.555 84.0137 74.4575 83.312 83.3183C74.4512 84.02 65.5488 84.02 56.6879 83.3183C55.9862 74.4575 55.9862 65.555 56.6879 56.6942ZM122.038 70.0063C122.038 73.5539 111.542 79.6305 91.9108 82.3947C92.5395 74.1476 92.5395 65.8646 91.9108 57.6175C111.542 60.382 122.038 66.4587 122.038 70.0063ZM57.6178 91.9043C61.7402 92.2113 65.8724 92.3706 70.0062 92.382C74.1592 92.382 78.3056 92.1908 82.3947 91.9043C79.6302 111.541 73.5538 122.032 70.0062 122.032C66.4586 122.032 60.3823 111.541 57.6178 91.9043ZM82.9556 120.338C87.3418 111.132 90.0796 101.228 91.0446 91.0763C101.204 90.1099 111.114 87.3677 120.325 82.9744C115.572 101.288 101.269 115.588 82.9556 120.338ZM48.1082 82.3947C28.4712 79.6302 17.9807 73.5539 17.9807 70.0063C17.9807 66.4587 28.4712 60.382 48.1082 57.6178C47.4795 65.8648 47.4795 74.1477 48.1082 82.3947ZM19.6686 82.9553C28.8767 87.3405 38.7827 90.0763 48.9362 91.038C49.9012 101.197 52.6413 111.107 57.0318 120.318C38.7204 115.567 24.4204 101.267 19.6686 82.9553Z" fill="#19CAC1"/>
<path d="M57.051 19.6749C52.6647 28.8808 49.9269 38.7846 48.9619 48.9362C38.8029 49.9026 28.8923 52.6448 19.6815 57.0381C24.4343 38.725 38.7367 24.4246 57.051 19.6749ZM82.3884 48.1083C78.266 47.8013 74.1338 47.6419 70 47.6305C65.847 47.6305 61.7005 47.8214 57.6115 48.1083C60.376 28.4713 66.4524 17.9807 70 17.9807C73.5476 17.9807 79.6243 28.4713 82.3884 48.1083ZM120.331 57.0573C111.123 52.672 101.217 49.9363 91.0637 48.9745C90.0987 38.8159 87.3586 28.9055 82.9681 19.694C101.28 24.4459 115.579 38.7458 120.331 57.0573ZM56.6879 56.6942C65.5488 55.9925 74.4512 55.9925 83.312 56.6942C84.0137 65.555 84.0137 74.4575 83.312 83.3183C74.4512 84.02 65.5488 84.02 56.6879 83.3183C55.9862 74.4575 55.9862 65.555 56.6879 56.6942ZM122.038 70.0063C122.038 73.5539 111.542 79.6305 91.9108 82.3947C92.5395 74.1476 92.5395 65.8646 91.9108 57.6175C111.542 60.382 122.038 66.4587 122.038 70.0063ZM57.6178 91.9043C61.7402 92.2113 65.8724 92.3706 70.0062 92.382C74.1592 92.382 78.3056 92.1908 82.3947 91.9043C79.6302 111.541 73.5538 122.032 70.0062 122.032C66.4586 122.032 60.3823 111.541 57.6178 91.9043ZM82.9556 120.338C87.3418 111.132 90.0796 101.228 91.0446 91.0763C101.204 90.1099 111.114 87.3677 120.325 82.9744C115.572 101.288 101.269 115.588 82.9556 120.338ZM48.1082 82.3947C28.4712 79.6302 17.9807 73.5539 17.9807 70.0063C17.9807 66.4587 28.4712 60.382 48.1082 57.6178C47.4795 65.8648 47.4795 74.1477 48.1082 82.3947ZM19.6686 82.9553C28.8767 87.3405 38.7827 90.0763 48.9362 91.038C49.9012 101.197 52.6413 111.107 57.0318 120.318C38.7204 115.567 24.4204 101.267 19.6686 82.9553Z" fill="url(#paint1_linear)"/>
<path d="M112 24.5147C112 37.2173 92.9721 47.5147 69.5 47.5147C46.0279 47.5147 27 37.2173 27 24.5147C27 11.8122 50 -0.48526 69.5 0.0147451C91 0.0147451 112 11.8122 112 24.5147Z" fill="url(#paint2_linear)"/>
</g>
<defs>
<linearGradient id="paint0_linear" x1="70" y1="0" x2="70" y2="140.006" gradientUnits="userSpaceOnUse">
<stop stop-color="white" stop-opacity="0.4"/>
<stop offset="1" stop-color="white" stop-opacity="0"/>
</linearGradient>
<linearGradient id="paint1_linear" x1="70.0095" y1="17.9807" x2="70.0095" y2="122.032" gradientUnits="userSpaceOnUse">
<stop stop-color="white" stop-opacity="0.4"/>
<stop offset="1" stop-color="white" stop-opacity="0"/>
</linearGradient>
<linearGradient id="paint2_linear" x1="69.5" y1="0" x2="69.5" y2="47.5147" gradientUnits="userSpaceOnUse">
<stop stop-color="white" stop-opacity="0.4"/>
<stop offset="1" stop-color="white" stop-opacity="0"/>
</linearGradient>
<clipPath id="clip0">
<rect width="140" height="140" fill="white"/>
</clipPath>
</defs>
</svg>
