<svg width="140" height="140" viewBox="0 0 140 140" fill="none" xmlns="http://www.w3.org/2000/svg">
<path d="M0 67.7476V105.483C0 109.955 2.33498 114.091 6.13428 116.387L20.1837 126.894C28.6926 132.078 39.3583 132.078 47.8473 126.894L133.866 68.7964C137.665 66.4614 140 62.3257 140 57.8932V23.8975L0 67.7476Z" fill="url(#paint0_linear)"/>
<path d="M0.573852 69.3902C0.237456 69.5089 0 69.8255 0 70.1817V106.315C0 110.787 2.33498 114.922 6.13428 117.218L20.164 126.874C20.1837 126.894 20.2035 126.894 20.2035 126.914C28.7124 132.078 39.3583 132.078 47.8473 126.894L133.866 68.7965C137.665 66.4615 140 62.3258 140 57.8933V25.0453C140 24.4714 139.446 24.0757 138.912 24.2538L0.573852 69.3902Z" fill="url(#paint1_linear)"/>
<path d="M83.8707 89.6021C83.3958 89.6021 83 89.2064 83 88.7314V82.9336C83 82.3597 83.2968 81.8254 83.7915 81.5286L97.6035 73.0989C97.7025 73.0396 97.8212 73 97.9597 73C98.3357 73 98.6325 73.2968 98.6325 73.6728V78.6792C98.6325 79.4509 98.2565 80.1632 97.6035 80.5986L84.3654 89.4438C84.1873 89.5625 84.029 89.6021 83.8707 89.6021Z" fill="#131727"/>
<path d="M84.1583 90.4444C83.6834 90.4444 83.2876 90.0486 83.2876 89.5737V83.7759C83.2876 83.202 83.5844 82.6677 84.0791 82.3709L97.8912 73.9412C97.9901 73.8819 98.1088 73.8423 98.2473 73.8423C98.6233 73.8423 98.9201 74.1391 98.9201 74.5151V79.5214C98.9201 80.2932 98.5442 81.0055 97.8912 81.4409L84.653 90.2861C84.4749 90.4048 84.3166 90.4444 84.1583 90.4444Z" fill="#2CD8CF"/>
<path d="M135.785 33.1187L48.3816 82.9845C39.5562 88.07 28.4749 88.07 19.6693 82.9845L2.90883 73.3081C-1.28622 70.894 -0.831099 64.9972 3.68056 63.1767L104.045 13.7661C109.823 11.4113 116.373 11.4113 122.151 13.7661L134.677 18.436C141.207 21.0876 141.86 29.6163 135.785 33.1187Z" fill="url(#paint2_linear)"/>
<path d="M135.772 31.1187L48.3681 80.9845C39.5427 86.07 28.4614 86.07 19.6558 80.9845L2.89533 71.3081C-1.29972 68.894 -0.844596 62.9972 3.66706 61.1767L104.032 11.7661C109.81 9.41131 116.36 9.41131 122.138 11.7661L134.664 16.436C141.194 19.0876 141.847 27.6163 135.772 31.1187Z" fill="url(#paint3_linear)"/>
<path d="M44.7647 97.2345C44.4329 97.4278 44.016 97.1905 44.0129 96.8064L44.0023 95.4647C44.0009 95.2857 44.0953 95.1195 44.2499 95.0291L137.346 40.5812C137.678 40.3871 138.095 40.6246 138.098 41.0091L138.11 42.5463C138.111 42.7255 138.016 42.8917 137.861 42.9819L44.7647 97.2345Z" fill="url(#paint4_linear)"/>
<path d="M44.7647 102.082C44.4329 102.276 44.016 102.038 44.013 101.654L44.0023 100.293C44.0009 100.114 44.0953 99.9478 44.2498 99.8574L137.346 45.4095C137.678 45.2154 138.095 45.4529 138.098 45.8375L138.11 47.3943C138.111 47.5736 138.016 47.7398 137.861 47.83L44.7647 102.082Z" fill="url(#paint5_linear)"/>
<path d="M44.7647 92.1093C44.4329 92.3027 44.016 92.0653 44.013 91.6813L44.0023 90.3198C44.0009 90.1408 44.0953 89.9747 44.2498 89.8843L137.346 35.4364C137.678 35.2422 138.095 35.4798 138.098 35.8643L138.11 37.4212C138.111 37.6004 138.016 37.7666 137.861 37.8568L44.7647 92.1093Z" fill="url(#paint6_linear)"/>
<path d="M44.7647 96.2345C44.4329 96.4278 44.016 96.1905 44.0129 95.8064L44.0023 94.4647C44.0009 94.2857 44.0953 94.1195 44.2499 94.0291L137.346 39.5812C137.678 39.3871 138.095 39.6246 138.098 40.0091L138.11 41.5463C138.111 41.7255 138.016 41.8917 137.861 41.9819L44.7647 96.2345Z" fill="url(#paint7_linear)"/>
<path d="M44.7647 101.082C44.4329 101.276 44.016 101.038 44.013 100.654L44.0023 99.293C44.0009 99.1139 44.0953 98.9478 44.2498 98.8574L137.346 44.4095C137.678 44.2154 138.095 44.4529 138.098 44.8375L138.11 46.3943C138.111 46.5736 138.016 46.7398 137.861 46.83L44.7647 101.082Z" fill="url(#paint8_linear)"/>
<path d="M44.7647 91.1093C44.4329 91.3027 44.016 91.0653 44.013 90.6813L44.0023 89.3198C44.0009 89.1408 44.0953 88.9747 44.2498 88.8843L137.346 34.4364C137.678 34.2422 138.095 34.4798 138.098 34.8643L138.11 36.4212C138.111 36.6004 138.016 36.7666 137.861 36.8568L44.7647 91.1093Z" fill="url(#paint9_linear)"/>
<path d="M90.3321 84.1916L90.4904 84.5082L88.9074 85.5569C88.8678 85.4778 88.848 85.3986 88.8283 85.2997C88.8085 85.1612 88.8283 84.9831 88.848 84.805C88.8876 84.6269 88.947 84.4092 89.0459 84.152C89.1844 83.7365 89.2834 83.4396 89.3032 83.222C89.323 83.0241 89.3032 82.8658 89.2438 82.7273C89.1844 82.5887 89.0855 82.5096 88.9668 82.47C88.848 82.4304 88.7095 82.47 88.571 82.5492C88.4325 82.6481 88.3336 82.7668 88.294 82.9251C88.2544 83.0834 88.2742 83.2418 88.3533 83.4001L88.0367 83.5584C87.9378 83.2813 87.918 83.0439 87.9972 82.8262C88.0763 82.6085 88.2148 82.4107 88.4523 82.2721C88.6897 82.1138 88.9074 82.0743 89.1053 82.1336C89.3032 82.193 89.4615 82.3315 89.5604 82.5294C89.6198 82.6283 89.6396 82.7471 89.6594 82.8856C89.6791 83.0241 89.6594 83.1626 89.6198 83.3407C89.5802 83.5188 89.501 83.776 89.3823 84.1124C89.2834 84.3895 89.224 84.5873 89.2042 84.6863C89.1844 84.7852 89.1647 84.8644 89.1647 84.9435L90.3321 84.1916Z" fill="white"/>
<path d="M91.3611 81.2629L91.0841 81.4805C91.0049 81.3618 90.906 81.3024 90.8466 81.2629C90.7279 81.2233 90.6092 81.2431 90.4904 81.3222C90.3915 81.3816 90.3321 81.4607 90.2926 81.5795C90.2332 81.718 90.2134 81.8763 90.2332 82.0544C90.253 82.2325 90.3124 82.4699 90.4509 82.7272C90.4707 82.5491 90.5102 82.4106 90.5894 82.2918C90.6685 82.1731 90.7477 82.0742 90.8664 81.995C91.0643 81.8565 91.2622 81.8367 91.4798 81.9159C91.6975 81.995 91.8558 82.1533 91.9943 82.4106C92.0735 82.5887 92.1131 82.7667 92.1131 82.9448C92.1131 83.1427 92.0735 83.301 92.0141 83.4593C91.935 83.6176 91.836 83.7364 91.6777 83.8353C91.4403 83.9936 91.183 84.0332 90.9258 83.9144C90.6685 83.8155 90.4311 83.5187 90.2134 83.0636C89.976 82.5491 89.877 82.1137 89.9364 81.7576C89.9958 81.4607 90.1343 81.2233 90.3915 81.0452C90.5894 80.9265 90.7675 80.8869 90.9456 80.9265C91.0841 80.9463 91.2424 81.065 91.3611 81.2629ZM90.7081 83.2219C90.7675 83.3406 90.8268 83.4395 90.9258 83.4989C91.0247 83.5781 91.1237 83.6176 91.2226 83.6176C91.3215 83.6176 91.4205 83.5978 91.4996 83.5385C91.6184 83.4593 91.6975 83.3208 91.7371 83.1625C91.7767 82.9844 91.7371 82.8063 91.6579 82.6084C91.5788 82.4303 91.4601 82.3116 91.3215 82.2523C91.183 82.1929 91.0445 82.2127 90.906 82.3116C90.7675 82.3908 90.6883 82.5293 90.6488 82.6876C90.6092 82.8657 90.629 83.0438 90.7081 83.2219Z" fill="white"/>
<path d="M94.9823 80.313L95.3385 80.1943C95.4177 80.5307 95.3979 80.8275 95.2989 81.1045C95.2 81.3816 95.0219 81.5794 94.7844 81.7575C94.5272 81.9356 94.2897 82.0148 94.0721 81.995C93.8544 81.9752 93.6565 81.8961 93.4586 81.718C93.2608 81.5399 93.1025 81.342 92.9837 81.0847C92.8452 80.8077 92.7859 80.5307 92.7859 80.2536C92.7859 79.9766 92.8452 79.7392 92.9639 79.5017C93.0827 79.284 93.2608 79.0862 93.4586 78.9476C93.6961 78.7893 93.9336 78.73 94.1512 78.7498C94.3887 78.7893 94.5866 78.9081 94.7647 79.1059L94.4876 79.4028C94.3293 79.2445 94.1908 79.1455 94.0523 79.1257C93.9138 79.1059 93.7555 79.1455 93.5972 79.2445C93.4191 79.3632 93.2806 79.5215 93.2014 79.6996C93.1223 79.8777 93.1025 80.0756 93.1223 80.2734C93.142 80.4713 93.2014 80.6692 93.3003 80.8473C93.3993 81.0847 93.5378 81.2628 93.6763 81.3816C93.8148 81.5201 93.9731 81.5794 94.1314 81.5794C94.2897 81.5794 94.4481 81.5399 94.6064 81.4409C94.7844 81.3222 94.9032 81.1639 94.9823 80.966C95.0417 80.8077 95.0417 80.5703 94.9823 80.313Z" fill="white"/>
<path d="M134 61.5C134 61.5 135 64 134.5 68.5L133.5 69C134.604 64.8558 133.5 62.5 133.5 62.5L51.5 116C53 118.5 51.5 124.5 51.5 124.5L50.6375 125C51.1322 122.507 52.0435 117.281 50.5 115.5L134 61.5Z" fill="url(#paint10_linear)"/>
<defs>
<linearGradient id="paint0_linear" x1="-0.16056" y1="77.3351" x2="130.118" y2="77.3351" gradientUnits="userSpaceOnUse">
<stop stop-color="#E7EFF5"/>
<stop offset="0.0824813" stop-color="#C3C5D2"/>
<stop offset="0.1567" stop-color="#C6C8D5"/>
<stop offset="0.2045" stop-color="#CED3DD"/>
<stop offset="0.2548" stop-color="#DDE4EC"/>
<stop offset="0.2787" stop-color="#DFE6EE"/>
<stop offset="0.4041" stop-color="#98A5B5"/>
<stop offset="0.995" stop-color="#7E8EA0"/>
</linearGradient>
<linearGradient id="paint1_linear" x1="-0.187511" y1="77.4931" x2="137.021" y2="77.4931" gradientUnits="userSpaceOnUse">
<stop stop-color="#475375"/>
<stop offset="0.210902" stop-color="#2E364F"/>
<stop offset="0.256453" stop-color="#2E374F"/>
<stop offset="0.322046" stop-color="#27293B"/>
<stop offset="1" stop-color="#2D3146"/>
</linearGradient>
<linearGradient id="paint2_linear" x1="20.3432" y1="76.26" x2="106.929" y2="27.271" gradientUnits="userSpaceOnUse">
<stop stop-color="#596382"/>
<stop offset="0.5" stop-color="#485579"/>
<stop offset="0.995" stop-color="#2A3C6B"/>
</linearGradient>
<linearGradient id="paint3_linear" x1="9.5" y1="64" x2="136.5" y2="24" gradientUnits="userSpaceOnUse">
<stop stop-color="#697698"/>
<stop offset="0.995" stop-color="#384464"/>
</linearGradient>
<linearGradient id="paint4_linear" x1="66.6612" y1="49.9668" x2="115.528" y2="77.6151" gradientUnits="userSpaceOnUse">
<stop stop-color="#1D202C"/>
<stop offset="0.995" stop-color="#0D1122"/>
</linearGradient>
<linearGradient id="paint5_linear" x1="66.6612" y1="49.9668" x2="115.528" y2="77.6151" gradientUnits="userSpaceOnUse">
<stop stop-color="#1D202C"/>
<stop offset="0.995" stop-color="#0D1122"/>
</linearGradient>
<linearGradient id="paint6_linear" x1="66.6612" y1="49.9668" x2="115.528" y2="77.6151" gradientUnits="userSpaceOnUse">
<stop stop-color="#1D202C"/>
<stop offset="0.995" stop-color="#0D1122"/>
</linearGradient>
<linearGradient id="paint7_linear" x1="66.6612" y1="48.9668" x2="115.528" y2="76.6151" gradientUnits="userSpaceOnUse">
<stop stop-color="#8994AD"/>
<stop offset="0.995" stop-color="#6C799B"/>
</linearGradient>
<linearGradient id="paint8_linear" x1="66.6612" y1="48.9668" x2="115.528" y2="76.6151" gradientUnits="userSpaceOnUse">
<stop stop-color="#8994AD"/>
<stop offset="0.995" stop-color="#6C799B"/>
</linearGradient>
<linearGradient id="paint9_linear" x1="66.6612" y1="48.9668" x2="115.528" y2="76.6151" gradientUnits="userSpaceOnUse">
<stop stop-color="#8994AD"/>
<stop offset="0.995" stop-color="#6C799B"/>
</linearGradient>
<linearGradient id="paint10_linear" x1="93.4191" y1="60.8219" x2="93.4191" y2="124.381" gradientUnits="userSpaceOnUse">
<stop stop-color="#8792AC"/>
<stop offset="1" stop-color="#6C799B"/>
</linearGradient>
</defs>
</svg>
