<svg width="140" height="140" viewBox="0 0 140 140" fill="none" xmlns="http://www.w3.org/2000/svg">
<g clip-path="url(#clip0)">
<path opacity="0.9" d="M129.369 70.779C129.369 102.685 102.803 128.737 70.0672 128.737C55.1977 128.737 41.5625 123.343 31.1011 114.449C18.6413 103.775 10.7658 88.1665 10.7658 70.779C10.7658 69.8034 10.7658 68.8853 10.8246 67.9671C10.8246 67.7376 10.8246 67.4507 10.8834 67.2211C10.9421 66.2456 11.0009 65.2127 11.1772 64.2371C11.4123 62.4008 11.7062 60.6219 12.0588 58.7856C12.1763 58.2117 12.3527 57.5805 12.4702 57.0067C12.6465 56.2607 12.8816 55.5147 13.0579 54.8261C13.8807 52.0142 14.9386 49.3171 16.1141 46.7348C16.5843 45.7593 17.1132 44.7838 17.5834 43.8082C17.5834 43.7508 17.6422 43.6934 17.701 43.6361C17.7597 43.5213 17.8185 43.3491 17.936 43.2344C17.936 43.177 17.9948 43.177 17.9948 43.1196C18.9352 41.4554 19.8755 39.9061 20.9922 38.3567C22.4615 36.2335 24.0484 34.225 25.8115 32.3313C26.2817 31.8148 26.7519 31.2984 27.2221 30.7819C27.9273 30.0359 28.6914 29.2899 29.4554 28.6013C30.2782 27.8553 31.1598 27.1093 32.0414 26.3633C33.9221 24.8139 35.9204 23.3793 38.0362 22.0595C38.1537 22.0021 38.2713 21.9447 38.3888 21.8299C41.0336 20.1658 43.8547 18.7312 46.7345 17.5261C47.0284 17.4113 47.3222 17.2965 47.5573 17.1818C47.6161 17.1818 47.6749 17.1244 47.7336 17.1244C49.5556 16.4358 51.4363 15.7472 53.317 15.2307C54.1986 14.9438 55.0802 14.7142 56.0205 14.5421C56.3732 14.4273 56.7258 14.3699 57.1372 14.2552C60.7223 13.4518 64.425 12.9927 68.304 12.8779C68.5978 12.8779 68.8917 12.8779 69.2443 12.8779C69.5382 12.8779 69.8321 12.8779 70.1259 12.8779C86.0532 12.8779 100.511 19.0181 111.149 29.003C122.375 39.5044 129.369 54.367 129.369 70.779Z" fill="url(#paint0_radial)"/>
<path d="M70 135.153C106.57 135.153 136.216 106.193 136.216 70.4684C136.216 34.744 106.57 5.78369 70 5.78369C33.4298 5.78369 3.78381 34.744 3.78381 70.4684C3.78381 106.193 33.4298 135.153 70 135.153Z" stroke="#292C3E" stroke-width="6.8217" stroke-miterlimit="10"/>
<path d="M70 135.153C106.57 135.153 136.216 106.193 136.216 70.4684C136.216 34.744 106.57 5.78369 70 5.78369C33.4298 5.78369 3.78381 34.744 3.78381 70.4684C3.78381 106.193 33.4298 135.153 70 135.153Z" stroke="url(#paint1_linear)" stroke-width="6.8217" stroke-miterlimit="10"/>
<path d="M53.031 89.0718L50.8176 81.7745H36.4769L34.2636 89.0718H26.5629L39.4742 51.7745H47.5898L60.6394 89.0718H53.031ZM43.6703 58.4412L38.3675 75.6034H48.927L43.6703 58.4412Z" fill="white"/>
<path d="M65.5272 89.0718V51.7745H72.5362V89.0718H65.5272Z" fill="white"/>
<path d="M103.385 89.0718L94.4392 75.243L85.7241 89.0268H77.4701L90.2891 68.8016L79.3146 51.7295H87.5224L94.4392 62.4052L101.079 51.7295H109.333L98.5892 68.8016L111.5 89.0268H103.385V89.0718Z" fill="white"/>
<path d="M115.927 88.7568C114.267 88.7568 112.884 87.4504 112.884 85.7838C112.884 84.1171 114.221 82.8108 115.927 82.8108C117.587 82.8108 118.971 84.1171 118.971 85.7838C118.971 87.4504 117.587 88.7568 115.927 88.7568ZM115.927 83.2162C114.452 83.2162 113.253 84.3874 113.253 85.8288C113.253 87.2703 114.452 88.4414 115.927 88.4414C117.403 88.4414 118.602 87.2703 118.602 85.8288C118.602 84.3874 117.403 83.2162 115.927 83.2162Z" fill="white"/>
<path d="M117.218 87.5856L116.019 85.9189H115.143V87.5856H114.774V83.8919H115.835C116.066 83.8919 116.25 83.8919 116.481 83.8919C116.619 83.8919 117.172 83.9369 117.403 84.3874C117.449 84.4775 117.541 84.6577 117.541 84.9279C117.541 85.3784 117.311 85.7387 116.896 85.8739C116.803 85.9189 116.665 85.9189 116.434 85.964L117.679 87.6306H117.218V87.5856ZM117.126 84.5225C116.942 84.2522 116.619 84.2072 116.342 84.2072H115.189V85.6486H116.066C116.158 85.6486 116.25 85.6486 116.388 85.6486C116.665 85.6486 116.942 85.6036 117.126 85.3784C117.172 85.2883 117.264 85.1532 117.264 84.9279C117.218 84.8378 117.218 84.6577 117.126 84.5225Z" fill="white"/>
</g>
<defs>
<radialGradient id="paint0_radial" cx="0" cy="0" r="1" gradientUnits="userSpaceOnUse" gradientTransform="translate(56.4741 53.3298) scale(68.0223 66.416)">
<stop offset="0.1458" stop-color="#96A1BB"/>
<stop offset="0.8886" stop-color="#5F6A8D"/>
<stop offset="1" stop-color="#4E5E83"/>
</radialGradient>
<linearGradient id="paint1_linear" x1="-4.36931" y1="86.0765" x2="140.36" y2="89.8603" gradientUnits="userSpaceOnUse">
<stop stop-color="#697698"/>
<stop offset="0.494792" stop-color="#4C5979"/>
<stop offset="1" stop-color="#384464"/>
</linearGradient>
<clipPath id="clip0">
<rect y="2" width="140" height="136.216" fill="white"/>
</clipPath>
</defs>
</svg>
