<svg width="140" height="140" viewBox="0 0 140 140" fill="none" xmlns="http://www.w3.org/2000/svg">
<g clip-path="url(#clip0)">
<path d="M116.547 103.384L12.1235 116.013C10.4521 116.216 8.93258 115.017 8.76375 113.328L0.0181467 31.8667C-0.184454 29.9252 1.33505 28.2368 3.29353 28.2368H113.643C115.264 28.2368 116.581 29.5537 116.581 31.1745V103.384H116.547Z" fill="url(#paint0_linear)"/>
<path d="M117.46 103.384L13.0359 116.013C11.3644 116.216 9.84493 115.017 9.6761 113.328L0.9305 30.9544C0.727899 29.0128 2.24741 27.3245 4.20588 27.3245H114.556C116.177 27.3245 117.493 28.6414 117.493 30.2622V103.384H117.46Z" fill="url(#paint1_linear)"/>
<path d="M120.836 103.384L16.4126 116.013C14.7411 116.216 13.2216 115.017 13.0528 113.328L4.30721 30.9544C4.10461 29.0128 5.62411 27.3245 7.58259 27.3245H117.932C119.553 27.3245 120.87 28.6414 120.87 30.2622V103.384H120.836Z" fill="url(#paint2_linear)"/>
<path d="M119.773 93.5411H50.2806C49.2339 93.5411 48.3728 92.68 48.3728 91.6333V9.90074C48.3728 8.85397 49.2339 7.99292 50.2806 7.99292H119.773C120.819 7.99292 121.68 8.85397 121.68 9.90074V91.6333C121.68 92.6969 120.819 93.5411 119.773 93.5411Z" fill="#6A7797"/>
<path d="M120.971 93.5411H51.4786C50.4319 93.5411 49.5708 92.68 49.5708 91.6333V9.90074C49.5708 8.85397 50.4319 7.99292 51.4786 7.99292H120.971C122.017 7.99292 122.878 8.85397 122.878 9.90074V91.6333C122.878 92.6969 122.017 93.5411 120.971 93.5411Z" fill="url(#paint3_linear)"/>
<path d="M116.885 90.3838H57.0672C56.2061 90.3838 55.5139 89.6916 55.5139 88.8305V14.4085C55.5139 13.5474 56.2061 12.8552 57.0672 12.8552H116.885C117.746 12.8552 118.438 13.5474 118.438 14.4085V88.8305C118.438 89.6747 117.746 90.3838 116.885 90.3838Z" fill="url(#paint4_linear)"/>
<path d="M116.885 90.3838H57.0672C56.2061 90.3838 55.5139 89.6916 55.5139 88.8305V14.4085C55.5139 13.5474 56.2061 12.8552 57.0672 12.8552H116.885C117.746 12.8552 118.438 13.5474 118.438 14.4085V88.8305C118.438 89.6747 117.746 90.3838 116.885 90.3838Z" stroke="#717C98" stroke-width="4" stroke-miterlimit="10"/>
<path d="M116.885 90.3838H57.0672C56.2061 90.3838 55.5139 89.6916 55.5139 88.8305V14.4085C55.5139 13.5474 56.2061 12.8552 57.0672 12.8552H116.885C117.746 12.8552 118.438 13.5474 118.438 14.4085V88.8305C118.438 89.6747 117.746 90.3838 116.885 90.3838Z" stroke="url(#paint5_linear)" stroke-width="4" stroke-miterlimit="10"/>
<path opacity="0.57" d="M61.5603 18.9148H59.5745V51.6808H61.5603V18.9148Z" fill="#1EC4BF"/>
<path opacity="0.6" d="M57.0231 44.6973L56.645 30.8867H59.3126L66.927 39.1933L119.873 39.0583L114.099 56.2793L57.0231 44.6973Z" fill="#3C4768"/>
<path d="M117.026 90.0832H57.2078C56.3468 90.0832 55.6545 89.391 55.6545 88.53V14.108C55.6545 13.2469 56.3468 12.5547 57.2078 12.5547H117.026C117.887 12.5547 118.579 13.2469 118.579 14.108V88.53C118.579 89.3741 117.887 90.0832 117.026 90.0832Z" stroke="#717C98" stroke-width="4" stroke-miterlimit="10"/>
<path d="M117.026 90.0832H57.2078C56.3468 90.0832 55.6545 89.391 55.6545 88.53V14.108C55.6545 13.2469 56.3468 12.5547 57.2078 12.5547H117.026C117.887 12.5547 118.579 13.2469 118.579 14.108V88.53C118.579 89.3741 117.887 90.0832 117.026 90.0832Z" stroke="url(#paint6_linear)" stroke-width="4" stroke-miterlimit="10"/>
<path d="M120.599 105.697L13.8289 118.107C11.1951 118.41 8.93268 116.283 9.08463 113.632L13.3224 37.3708C13.4574 34.9734 13.7444 33.1669 16.1419 33.3526L58.2491 33.3357L65.644 41.5748L123.807 41.8618C126.12 42.0475 127.859 42.993 127.724 45.306L124.381 101.713C124.246 103.789 122.642 105.461 120.599 105.697Z" fill="url(#paint7_linear)"/>
<path d="M120.599 105.697L14.7412 118.106C12.1074 118.41 9.84503 116.283 9.99698 113.632L14.2347 36.4582C14.3698 34.0608 14.6568 32.2543 17.0542 32.44L59.1614 32.4231L66.5564 40.6622L123.807 40.9492C126.12 41.1349 127.859 42.0804 127.724 44.3934L124.381 101.713C124.246 103.789 122.642 105.461 120.599 105.697Z" fill="url(#paint8_linear)"/>
<path d="M117.003 99.7373L19.13 110.374C18.4885 110.441 17.9313 109.935 17.9651 109.276L21.5612 43.7519C21.6625 41.8103 23.3509 40.3415 25.2925 40.4934L55.9021 40.4766L61.8957 47.1624L119.249 47.3988C121.123 47.5507 120.667 49.0702 120.734 51.0624L117.932 98.7749C117.898 99.2646 117.51 99.6866 117.003 99.7373Z" fill="url(#paint9_linear)" stroke="url(#paint10_linear)" stroke-width="10" stroke-miterlimit="10"/>
<path d="M117.003 99.7373L19.13 110.374C18.4885 110.441 17.9313 109.935 17.9651 109.276L21.5612 43.7519C21.6625 41.8103 23.3509 40.3415 25.2925 40.4934L55.9021 40.4766L61.8957 47.1624L119.249 47.3988C121.123 47.5507 120.667 49.0702 120.734 51.0624L117.932 98.7749C117.898 99.2646 117.51 99.6866 117.003 99.7373Z" fill="url(#paint11_linear)"/>
<path opacity="0.57" d="M113.255 20.6892H63.4998V23.5425H113.255V20.6892Z" fill="#4F5C81"/>
<path opacity="0.57" d="M96.3548 26.7505H63.4998V29.6038H96.3548V26.7505Z" fill="#505D82"/>
<path d="M138.845 92.2518C138.845 114.733 120.553 133.09 98.0127 133.09C87.7742 133.09 78.3855 129.289 71.1822 123.022C62.6029 115.501 57.1802 104.503 57.1802 92.2518C57.1802 91.5644 57.1802 90.9175 57.2206 90.2705C57.2206 90.1088 57.2206 89.9066 57.2611 89.7449C57.3016 89.0575 57.342 88.3297 57.4635 87.6424C57.6253 86.3485 57.8277 85.0951 58.0705 83.8012C58.1514 83.3968 58.2728 82.9521 58.3538 82.5477C58.4752 82.0221 58.637 81.4965 58.7584 81.0113C59.325 79.03 60.0534 77.1297 60.8628 75.3101C61.1865 74.6228 61.5507 73.9354 61.8745 73.248C61.8745 73.2076 61.915 73.1672 61.9554 73.1267C61.9959 73.0459 62.0364 72.9246 62.1173 72.8437C62.1173 72.8033 62.1578 72.8033 62.1578 72.7628C62.8053 71.5903 63.4528 70.4985 64.2217 69.4068C65.2334 67.9108 66.326 66.4956 67.5401 65.1613C67.8638 64.7974 68.1875 64.4335 68.5113 64.0696C68.9969 63.544 69.523 63.0183 70.0491 62.5331C70.6156 62.0075 71.2227 61.4819 71.8297 60.9562C73.1247 59.8645 74.5006 58.8537 75.9575 57.9237C76.0384 57.8833 76.1193 57.8428 76.2003 57.762C78.0213 56.5894 79.9638 55.5786 81.9468 54.7295C82.1491 54.6486 82.3514 54.5677 82.5133 54.4869C82.5538 54.4869 82.5943 54.4464 82.6347 54.4464C83.8892 53.9612 85.1842 53.476 86.4792 53.1121C87.0862 52.91 87.6933 52.7482 88.3407 52.6269C88.5836 52.5461 88.8264 52.5056 89.1096 52.4248C91.5782 51.8587 94.1277 51.5352 96.7986 51.4543C97.001 51.4543 97.2033 51.4543 97.4461 51.4543C97.6484 51.4543 97.8508 51.4543 98.0531 51.4543C109.02 51.4543 118.975 55.7807 126.3 62.8162C134.029 70.2155 138.845 80.6878 138.845 92.2518Z" fill="url(#paint12_radial)"/>
<path d="M80.8138 119.786V119.543L80.7328 119.26L80.8138 119.179V119.018L80.7328 118.896V118.694L80.5709 118.613L80.49 118.735V118.937L80.2877 119.179H80.2472L80.1663 119.341L80.2472 119.422L80.0853 119.584V119.786L79.802 120.069L79.7211 119.988L79.5592 120.15L79.4783 120.352L79.195 120.473L78.9927 120.716H78.7094L78.6285 120.635L78.588 120.716H78.2238L78.1024 120.837L78.0214 120.756L77.9 120.837H77.8191L77.9 120.918L77.6977 121.12L77.4954 121.363L77.6572 121.565L77.5358 121.646L77.5763 121.686V121.889L77.6572 122.212L77.7382 122.374V122.455V122.535V122.616L77.6168 122.98L77.5358 123.061L77.4549 123.344H77.4144L77.3335 123.425V123.627L77.1716 123.789L77.0502 123.829V123.991L76.8883 124.153V124.476L77.0907 124.719L77.0502 124.8H77.1311V125.123L77.0097 125.204V125.528L77.0907 125.608L77.1716 125.689L77.2525 125.811L77.374 125.77L77.4549 125.891L77.6168 126.053H77.8191L77.9 126.013L77.981 125.851L78.4666 125.811H78.588L78.6689 125.77L78.7499 125.689L78.8308 125.568L78.9117 125.406V125.244L78.9927 125.164L78.8308 125.002L79.0736 124.84V124.557H79.276V124.517L79.3569 124.153L79.4378 123.951V123.87L79.5188 123.587L79.7211 123.385L79.883 122.859L79.9639 122.738V122.576L80.0449 122.374L80.0853 122.252L80.2067 122.05L80.2877 121.767L80.3686 121.525L80.4091 121.444L80.4495 121.363L80.3686 121.282V120.999L80.5709 120.837V120.756L80.6519 120.675L80.49 120.514L80.5709 120.433V119.907H80.9756L81.0566 119.988L80.8138 119.786ZM71.3846 123.182L71.4656 123.263V123.223C71.4251 123.223 71.3846 123.182 71.3846 123.182ZM71.4656 123.263L71.4251 123.385L71.5061 123.304L71.4656 123.263ZM81.785 104.906L81.6636 104.785L81.7445 104.583L81.6231 104.462L81.7041 104.381H81.4208L81.3398 104.462L81.178 104.543L81.0161 104.704L80.9352 104.623L80.7733 104.704L80.3686 104.785H80.2067L80.1258 104.704H80.0449L79.883 104.785H79.7211L79.5592 104.866L79.4378 104.785H79.3974L79.0331 105.028L78.7903 105.109H78.7094H78.3452L78.1833 105.189H78.0619L77.981 105.27L77.9 105.351L77.6572 105.432L77.4144 105.351L77.3335 105.27H77.2525L77.1716 105.068L76.8074 104.664L76.7265 104.704H76.6051L76.1194 104.219H76.6455L76.7265 104.098H76.8074L76.8479 104.057V103.976L76.8074 103.936L76.6051 103.855H76.4432L76.2813 103.451L76.2004 103.37L76.1194 103.208H76.0385L75.8766 103.046L75.7552 102.966L75.5933 102.804L75.391 102.602L75.2291 102.521L75.1482 102.44L75.0673 102.521L74.9863 102.44L74.9054 102.521L74.8244 102.44L74.3388 102.238L74.2579 102.036L74.2174 101.955L74.1365 101.874V101.793H74.0556L73.8937 101.187L73.6913 100.58L73.2462 100.135H73.489V99.9331L73.3271 99.8522L73.1248 99.7714L72.9224 99.4883L72.8415 99.1244L72.882 98.9222L72.8415 98.7201L72.6796 98.2349V97.9923V97.9114L72.5987 97.8305L72.5178 97.7497V97.6688L72.4368 97.5879V97.4666H72.3964L72.1535 97.2645L71.9512 97.1836V97.1027H71.8298L71.587 96.9006L71.3846 96.4154L71.4656 96.3345L71.4251 96.2941V96.2132L71.3442 96.1323L71.2632 95.9302L71.0609 95.6876L70.899 95.6067L70.8181 95.4045L70.4134 94.798V94.5959L70.3729 94.515L70.3325 94.3128L70.2515 94.232V94.1915L70.0492 93.9894V93.7468L70.0897 93.6659L69.7659 93.3424L69.685 93.1807L69.4422 92.8572V92.7359L69.3208 92.5742V92.3316L69.5636 92.0485L69.604 92.089L69.5231 91.8464L69.4017 91.7655L69.3208 91.6038H68.9161L68.7137 91.6846L68.6328 91.6038L68.5519 91.6846L68.39 91.7655L68.1877 91.9677H67.8639L67.6616 91.8464H67.702L67.5402 91.7655L67.4592 91.8464L67.2164 91.6442L67.0545 91.6038L66.5689 91.5229H66.4071L66.2047 91.7251L66.0428 91.3207L65.9619 91.2399L65.881 91.2803L65.3953 91.1994L65.3549 91.159H65.2739V91.3207L64.8693 91.0781H64.7883L64.586 91.0377L64.5455 91.0781L64.3432 90.9973L64.2218 91.0781L63.898 91.159L63.6957 91.2399L63.6147 91.3207L63.5338 91.4825L63.4933 91.5229V91.7251L63.5743 91.8464L63.6552 92.1699L63.5743 92.372L63.3315 92.6146L63.0887 92.8168L62.8458 92.8977L62.4412 92.6955L62.1984 92.4933L62.0365 92.4125L61.7937 92.3316L61.389 92.1699H61.308H60.9438L60.6606 91.9677L60.4582 91.4825V91.3207L60.4177 91.2399L60.1345 91.1994L59.9321 91.0781H59.6489L59.487 91.0377L59.0823 91.0781L58.6776 90.9973L58.5157 90.8355H58.4348H58.3943L58.192 90.6334L58.1515 90.5929L58.0706 90.6738L57.8682 90.4716H57.8278L57.504 90.2695L57.4636 90.1886C57.4231 90.8355 57.4231 91.5229 57.4231 92.1699C57.4231 104.421 62.8458 115.46 71.4251 122.94V122.899L71.3442 122.697L71.4251 122.616L71.3846 122.576V122.252H71.6679H71.7084H71.7489V122.172L72.2345 121.848H72.3154L72.3559 121.808V121.727L72.5987 121.565L72.6392 121.484L72.6796 121.444L72.882 120.837L72.9224 120.959V120.797L73.2057 121.08L73.3271 120.999H73.3676V120.797L73.6913 120.918L73.8937 120.797L73.9341 120.716H74.177L74.4198 120.595V120.392H74.6626V120.312L74.703 120.231L74.5007 120.029L74.703 119.826L74.8649 119.665V119.543V119.462H74.8244L74.6626 119.301V119.099L74.4602 118.896H74.8244V118.775L74.7435 118.573L74.8244 118.492L74.784 118.452V118.128L74.703 117.805V117.603L74.784 117.522L74.703 117.441L74.8649 117.279V117.239L74.8244 117.198L74.6626 117.117L74.3388 116.794L74.4198 116.592V116.551L74.2984 116.43L74.3793 116.268L74.3388 116.187L73.9746 115.823H74.4602L74.3793 115.702L74.4602 115.621L74.3793 115.54V115.217L74.4602 115.015L74.5412 114.934L74.5007 114.732L74.4198 114.651V114.408L74.5816 114.166L74.7435 113.721L74.4198 113.397H74.9459L75.1077 113.114L75.1887 112.953V112.791L75.391 112.589V112.346L75.5124 112.225V112.144L75.6743 111.982H75.8362H75.9171L76.079 111.821H76.1194L76.6051 111.254V111.861L76.686 111.74L76.7669 111.578L76.9693 111.376L77.0502 111.335L77.0907 111.254L77.1716 111.174L77.5358 110.769L77.6572 110.688L78.0619 110.284L78.2643 110.122L78.4666 109.961L78.6689 109.88L78.9117 109.678L79.5188 109.111L79.8425 108.748L79.883 108.626L80.2877 108.101V108.02L80.49 107.696V107.535L80.8542 106.847V106.766V106.564L81.097 106.322H81.178L81.2184 106.281L81.3398 105.998L81.5422 105.715V105.634H81.2994L81.785 105.149H81.7041L81.785 104.906ZM113.957 112.953L113.876 112.872L113.836 112.791L113.755 112.71L113.674 112.751L113.35 112.629V112.427L113.269 112.346L113.431 112.306L113.229 112.225V112.144V112.063V112.023L113.026 112.104V111.982H112.865L112.581 111.699V111.659L111.812 112.144L112.46 111.254H111.853L112.136 110.971H112.055L111.772 110.648V110.486L111.61 110.325L111.529 110.405L111.286 110.203V110.163L110.598 109.88H110.72L110.437 109.395V109.233H110.315L110.194 109.071L109.991 108.869H109.829L109.668 108.707H109.384V108.343H109.303L109.263 108.182H109.222L109.142 107.979H109.101L108.899 108.06L108.818 107.979H108.777L108.575 108.06L108.373 107.979L108.13 107.777L108.211 107.979L108.332 108.02L108.535 108.262H108.615L108.777 108.465L108.858 108.384L109.222 108.626L109.425 108.95L109.546 109.031H109.749V109.354V109.435H109.91L110.072 109.678H110.113H110.315V109.92H110.356L110.396 110.122V110.163L110.517 110.486V110.527H110.598L110.882 110.729V110.931L110.963 111.093L111.124 111.254L111.205 111.578L111.448 111.982L111.367 112.184L111.408 112.265L111.57 112.346L111.812 112.629L111.853 112.751L112.096 112.791V112.912L112.298 112.993V113.114H112.379L112.581 113.357L112.905 113.559V113.64H113.067L113.431 114.004H113.634L113.674 113.802L113.957 113.883L114.038 113.64L113.957 113.438L114.038 113.236L113.998 113.195L113.957 112.953ZM122.375 113.68L122.294 113.761V113.923L122.213 114.044V114.166H122.294V113.923L122.375 113.842V113.761V113.721V113.68ZM123.67 113.6V113.519H123.589L123.508 113.195H123.386L123.548 112.993L123.467 112.791L123.305 112.629L123.224 112.508L123.063 112.387V112.225L122.86 112.144L122.739 112.104L122.537 111.901L122.375 111.699L122.294 111.821H122.213L122.294 111.982L122.213 112.144V112.346L122.172 112.427V112.589L122.091 112.67V112.872L121.889 112.953V113.155H122.253V113.438L122.375 113.68L122.537 113.357L122.496 113.276L122.415 113.114V112.912L122.617 112.791L122.698 112.71L123.022 112.589L123.224 112.791L123.346 112.993V113.276L123.265 113.357L123.346 113.438L123.589 113.559V113.842L123.67 113.761H123.791L123.67 113.6ZM120.675 108.343H120.756V107.979L121.12 108.262V107.939L120.958 107.737H120.918H120.715V107.454L120.554 107.252L120.473 107.332H120.392V107.413H120.311L120.23 107.575V107.737L119.906 108.06L119.825 108.262H119.704H119.623L119.218 108.95V108.262L119.016 108.303V108.343V108.505L118.733 108.788L118.571 108.99V109.071L118.409 109.314L118.206 109.475L117.842 109.556L118.247 110.163L117.599 109.839V110.001L117.478 109.92V110.082L117.397 110.284V110.527L116.871 110.446L116.669 110.325H116.426L116.345 110.163L116.264 110.365L116.183 110.446V110.567V110.688V110.81L116.264 110.971L116.426 111.133H116.466L117.68 110.527L116.669 111.578L116.79 111.74L116.871 111.861V112.144L116.79 112.225L116.871 112.265V112.67L117.033 112.548L117.114 112.751H117.195L117.276 112.831L117.438 112.751H117.478L117.68 112.467L117.883 112.872V113.074L118.004 112.993L118.085 113.074L118.206 113.034L118.247 112.872H118.571L118.652 112.953H118.813L118.894 112.831L119.097 113.114L119.259 113.034L119.299 113.155H119.38L119.582 113.397L119.501 113.438L119.623 113.397H119.744L119.866 113.317L119.947 113.114V112.71L119.38 112.953L119.987 112.346L119.744 112.104H120.23L120.311 112.023L119.785 111.699H120.473V111.618L120.675 111.457V111.174L120.756 111.093V110.769H120.837L120.999 110.567L120.918 110.122L120.675 110.001L121.039 109.758L120.877 109.597V109.475L120.675 109.314L120.837 109.111L120.715 108.869L120.756 108.828L120.473 108.748L120.837 108.545L120.675 108.343ZM126.381 113.155H126.3H126.421H126.381ZM123.67 111.821H123.589L123.427 111.861L123.346 111.78L123.305 111.821L123.224 111.982H123.346L123.427 111.901L123.67 111.821ZM123.184 110.648L123.103 110.527L122.941 110.688H122.982H123.063L123.224 110.648H123.184ZM112.46 110.365L112.5 110.325V110.284L112.46 110.365ZM112.581 109.961L112.5 109.88V109.799L112.419 109.718L112.339 109.556L111.974 109.192L112.217 109.031V108.869L112.136 108.788V108.505L112.217 108.424V108.101V108.02L112.136 107.858L111.732 107.454H111.327V107.332L111.246 107.292L111.165 107.09V107.009H110.963L110.801 107.171L110.396 106.766L110.194 106.726V106.322L110.437 106.241L110.356 106.16V105.998H110.275L110.194 105.877L110.032 105.715V105.634L109.627 105.715L109.425 105.513L109.506 105.351L109.425 105.23V105.149L109.384 105.028L109.303 105.27L109.384 105.351L109.303 105.432H109.384V105.917L109.587 105.836V106.119L109.668 106.2V106.281L109.749 106.322L109.789 106.483H109.829L110.032 106.726L110.113 106.766L110.153 106.847H110.275V107.09L110.437 107.171L110.517 107.252L110.679 107.494L110.76 107.979L110.801 108.101L110.882 108.303L110.801 108.626L111.003 108.828L110.922 108.909L111.003 108.99L111.084 109.111L111.246 109.192L111.408 109.516L111.327 109.597L111.651 110.001L111.853 109.92L111.934 110.001H112.258L112.055 110.163L112.177 110.284L112.379 110.325L112.46 110.365V110.203L112.662 110.405V110.284L112.581 109.961ZM111.246 109.597L111.124 109.718L111.084 109.88H111.286L111.246 109.597ZM110.801 109.799L110.72 109.88H110.882L110.801 109.799ZM125.005 107.009V107.049L125.046 107.171H125.207L125.329 107.252L125.005 107.009ZM99.7529 106.645V106.564L99.591 106.241V106.2H99.4292V106.119H98.9435L98.9031 106.322V106.443L98.984 106.645L98.9435 106.726L99.0245 106.928L99.1054 107.252H99.2268L99.3077 107.211H99.591L99.672 107.171L99.7529 107.09L99.8338 106.928L99.7529 106.645ZM125.855 106.079L125.774 105.796L125.855 105.634L125.774 105.553V105.958L125.572 105.796L125.41 105.998L125.329 105.917V105.998L124.965 106.2L124.762 106.281L124.965 106.483L125.329 107.171L125.41 107.09L125.288 107.009L125.369 106.766L125.572 106.402L125.855 106.322V106.079ZM124.358 105.998V106.079L124.398 105.998H124.358ZM99.1459 105.836V105.594H99.0649V105.796H98.9435V105.998L99.1863 105.836H99.1459ZM72.3559 62.2086L72.2749 62.1682V62.249L72.4773 62.2895L72.3559 62.2086ZM72.7606 61.3999V61.3191L72.6796 61.2786L72.4773 61.0765V60.9552L72.2749 60.9147L72.1131 60.9552L72.2749 61.1978V61.2786L72.4368 61.4404L72.2749 61.6021L72.3559 61.8043L72.194 61.8447V62.0469V62.0873L72.3154 62.1277V61.8447L72.3964 61.7638L72.3559 61.7234L72.5987 61.4808H72.7606V61.3999ZM127.514 75.2282L127.676 75.0665V75.026L127.595 74.9047V74.743H127.555L127.474 74.2578L127.393 74.1769V73.9748L127.271 73.8535L127.15 73.5704L127.19 73.53H127.15L126.988 73.0044V72.883L126.948 72.8022L126.867 72.4383L126.907 72.3978L126.826 72.1552L126.867 72.0744L126.786 71.9935L126.867 71.9126L126.786 71.8318L126.705 71.6296L126.624 71.5892L126.421 71.387V71.104L126.462 71.0635L126.421 70.9827H126.26L125.936 70.6592L126.098 70.4975V70.4166V70.3357H126.017L125.936 70.2144H125.855L125.774 70.1336L125.491 70.0123L125.45 69.9718L125.288 69.891L125.167 69.7697L125.126 69.6888H124.924L124.884 69.6484L124.843 69.6888H124.762L124.843 69.7697H124.722V69.9314H124.641L124.56 70.0931V70.1336L124.479 70.2144L124.56 70.2953L124.479 70.4975L124.074 70.9018V70.7401L123.751 70.8209L123.67 70.7401V70.7805L123.184 70.3762L123.265 70.174V70.0931L123.103 69.891V69.6079L122.982 69.6484L122.82 69.8101H122.537L122.456 69.7292L122.375 69.7697L122.091 69.6484L121.97 69.3653L122.132 69.0014L122.213 68.8801V68.7184L122.375 68.5567V68.3545L122.537 68.2332V68.031L122.617 67.9502V67.9097L122.779 67.7076L122.86 67.5458L122.941 67.465L122.86 67.3437L122.941 67.2628V67.1011L123.022 66.6159H123.103L123.144 66.4137H123.184V66.3733L123.386 66.1306L123.467 65.9689L123.548 65.888L123.467 65.6859L123.548 65.605V65.4837L123.629 65.4028L123.589 65.322V65.0794L123.508 64.8772L123.71 64.5942L123.832 64.4324V64.3516L123.67 64.109L123.751 63.8664L123.872 63.7451L123.953 63.5833L124.155 63.4216L124.236 63.2194H124.56V63.2599L124.722 63.1386H124.884L125.046 63.0173H125.288L125.41 62.896H125.612L125.693 62.6938L125.976 62.8151L126.26 62.6938L126.462 62.7747C119.137 55.7392 109.182 51.4128 98.2151 51.4128C98.0128 51.4128 97.8104 51.4128 97.6081 51.4128L97.4462 51.5746H97.3248L96.6368 52.2619L96.9606 51.4533C94.3302 51.5341 91.7807 51.8576 89.2716 52.4237L89.7168 52.545H88.5432C87.9362 52.7067 87.2887 52.8684 86.6817 53.0302L86.8031 53.2324V53.3941H86.8435L86.9245 53.6367L87.0054 53.6771H87.0863L87.4101 53.7176L87.8148 53.3132V53.758L87.8957 53.8793L87.9766 53.9602L88.0576 54.041H88.3004L88.5027 54.1623H88.5432L88.786 54.4049L88.8669 54.8093L88.9479 55.0114L88.9074 55.0923L89.0693 55.1732L89.3121 55.5371V55.7392L89.474 55.8605L89.5549 56.1031L89.474 56.3457H89.5144V56.4266L89.8382 56.7501L89.8786 56.7905L89.9191 56.7501L90.081 56.8309L90.2024 56.7501L90.8094 56.5883L90.6475 56.7905L90.7285 56.8714L90.8094 56.9118H91.0522L91.4164 58.0035L90.7689 57.3566H90.6071L90.3643 57.1544V57.3566V57.397L90.7689 58.4078L89.9191 57.5587H89.7168L89.474 57.3161V57.114L89.3121 57.0735H89.0693L88.6646 56.8309H88.3408L88.2599 56.2244L88.3408 56.0627L88.1385 55.901V55.6584L88.0576 55.4562L88.2599 55.2945V55.1327L88.179 54.971L88.098 54.8901L87.9766 54.971L87.572 55.0519H87.3291L87.0863 54.8093L86.9245 54.7284L86.884 54.6475L86.6007 54.6071L86.3984 54.4049L86.3174 54.3241H85.8723L86.0746 54.4049L86.3174 54.8093L86.1151 55.2136L85.8318 55.2945L85.4676 55.1327L85.3867 55.0923L85.3462 54.971H85.3057L85.2248 55.0519L85.1843 55.0923H85.2653L85.3462 55.2945L85.4271 55.3753H85.6295L85.7913 55.5371H85.9532L85.9937 55.4966H86.2365L86.3174 55.6179H86.5198L86.6007 55.8605L86.6412 55.901V55.9818H86.7221L87.6934 55.5775L86.8435 56.4266L87.0459 56.9118L86.5602 56.4266H86.3984L86.0342 56.184H85.8318L85.5485 56.467L85.4676 56.184H85.3867H85.0629L84.9415 56.1031L84.7392 56.184L84.5368 55.6988L84.6582 55.6584L84.5773 55.5775V55.5371L84.4559 55.3753L84.375 55.1732L84.1726 55.3753L84.2131 55.4158L84.2536 55.901L84.1726 56.1436L84.3345 56.2244L84.6582 56.5075V56.5883H84.7392L84.9415 56.7905L85.1439 57.114L85.1034 57.5992V57.68L85.2248 57.8822L85.1439 58.1652V58.2057L85.3462 58.4078L85.4271 58.61L85.5081 58.5696L85.6699 58.61V58.5696L85.9128 58.327L86.1151 58.4078L86.277 58.327L86.4793 58.4483L86.6817 58.3674L86.7626 58.61L86.9245 58.6909H87.2077L87.4505 58.9739V59.0143L87.572 59.0952L87.6529 59.2569L87.7338 59.3378L87.7743 59.4187L88.3004 59.6208L87.7338 59.8635L87.8148 59.9443L87.9766 60.1061L87.9362 60.1869V60.2678L88.1385 59.9848L88.2194 60.2274H88.3004L88.5837 60.5104L88.3408 60.7126L88.1385 60.7934L87.9766 60.8743L87.7338 60.9552L87.5315 60.7934H87.3696L87.0459 60.47L87.1268 60.3891V60.3082L87.0459 60.2274L86.8031 60.1465L86.884 59.9443H86.8031L86.7221 59.7422L86.4793 59.5804V59.4187L86.3579 59.54L86.196 59.6208L86.1151 59.7017L86.0342 59.7826L86.0746 59.9848V60.0252L86.3174 60.1465L86.5198 60.753L86.4388 60.9552L86.277 61.1573V61.2382L86.4388 61.4404L86.277 61.8043V61.966L86.1151 62.1277V62.3299L85.9128 62.4108V62.6129L85.6295 62.8555L85.2653 62.7747L85.2248 62.7342H85.1439L84.901 62.8151L84.6987 62.6938L84.2131 62.6129L84.0512 62.4512L83.9703 62.6534L83.7679 62.4512H83.3633L83.8489 61.8851H84.0917L84.3345 61.8447L84.4559 61.7234L84.8201 61.9256L84.8606 61.8851H85.1843V61.683L85.3867 61.7638V61.6425L85.1439 61.3999L85.4271 61.2786V61.1978L85.3462 61.1169L85.4271 60.9147V60.8339L85.5081 60.753L85.3867 60.6317L85.3057 60.3082L85.3867 60.1061V59.9039L85.2248 59.823L85.1843 59.7017L84.982 59.6613L84.6987 59.2569L84.6582 59.0548L84.5773 58.9739V58.893H84.4964L84.4154 58.61L84.4559 58.4483L84.294 58.2057V58.0844L84.1321 57.9226V57.8013L84.0512 57.7205L83.9703 57.3161V57.2353L83.8084 57.0735V56.9522L83.6061 57.0331V56.8309L83.5251 56.7905L83.4847 56.5075L83.3633 56.3862L83.2418 56.1031L83.3633 55.9818L83.2823 55.7797L83.3633 55.6988V55.6179L83.4442 55.2945L83.4037 55.1327V54.971L83.3228 54.8901V54.688L83.2418 54.4858L82.9586 54.3645H82.9181L82.8372 54.4454C82.6348 54.5262 82.4325 54.6071 82.2706 54.688L82.1087 54.8497V54.9306L82.1492 54.971V55.1732L82.1897 55.2945L82.2706 55.7797V55.8605L82.4325 56.0223L82.2706 56.2244V56.3053L82.3515 56.5075L82.1087 56.7501L81.9064 57.0331L81.9873 57.2757L81.9064 57.3566L82.0278 57.4779L82.1087 57.5992H82.2706L83.1609 58.4887L82.4325 58.2057V58.4887L82.2706 58.61L82.3111 58.6909L82.473 58.7717V58.8122L82.5539 58.8526H82.7562L82.7967 58.893L82.9181 58.7313L83.1609 58.9739V59.1761H83.2418L83.5251 59.4995L83.6061 59.4591H83.6465L83.7275 59.54H84.2536L83.8489 59.9443V60.2274L83.9298 60.3487L83.8489 60.4295V60.8339L83.3633 60.6317L83.2014 60.3082L83.1204 60.2274H82.8776L82.7967 60.0252L82.7562 59.9848L82.473 59.9443L82.1492 59.7422L81.8659 59.6613L81.8255 59.5804H81.6231L81.5422 59.4995L81.2589 59.7826L81.0566 59.3378L80.8138 59.2569L80.6519 59.1761L80.2472 59.0952L79.7616 59.1761L79.6806 59.1356L79.5592 59.2165L79.4783 59.1761L79.3974 59.2165V59.2569V59.54H79.4378V59.6208H79.5592L79.7616 59.9443V59.9848H79.802L80.5709 60.753L79.6806 60.47V60.5508L79.5188 60.6317L79.5997 60.7126L79.5188 60.6721V60.8339L79.3569 60.9956H78.8308L78.6689 60.6721L78.7499 60.5508L78.6689 60.3487L78.7499 60.2678H78.6689L78.5475 60.3487L78.5071 60.3891V60.6317H78.1024V60.6721L77.8191 60.7934H77.4549H77.4144L77.3335 60.8743L77.2525 60.7934L77.1716 60.8743L77.2525 60.9147L77.1311 61.036L77.2121 61.1169L76.9288 61.3999L76.686 61.3191L76.2813 62.3299V61.4808L76.2408 61.5212L75.9171 61.3595L75.8766 61.2786L75.4719 61.5212L75.1887 61.2382L75.2291 61.1978V61.036L74.9863 61.1169H74.9459L74.7435 61.3999L74.6626 61.4404L74.4198 61.7234L74.5816 62.1277L73.9746 62.0469H73.8127V62.249L74.703 62.0873L73.6913 62.6938L73.6104 62.7747H73.489L73.2867 62.9768L73.2057 62.8151H72.9224L72.6392 62.4108L72.4368 62.249H72.3964L72.5987 62.4512L72.5582 62.5725L72.6392 62.6534L72.5582 62.6938L72.4773 62.896V63.2194V63.2599L72.6796 64.1494L72.0726 63.5429L71.8703 63.462L71.2228 64.109L71.5465 63.3003L71.3846 63.3407L71.2632 63.2194V63.462L70.5753 63.9472L70.8586 63.2599L70.899 63.1386V62.9768L70.6967 62.7747L70.6562 62.6534L70.5753 62.5725L70.5348 62.5321V62.6534L70.2515 62.4512C69.7254 62.9364 69.1994 63.462 68.7137 63.9877H68.7542L68.8351 64.0281L69.0375 63.9472L69.2398 64.1494L69.4017 64.1898L69.685 64.2303L69.8873 64.1898L69.9683 64.109H70.1706L70.2515 64.0685L70.5753 63.9877V64.2707V64.3516L70.8181 64.5942L71.0609 64.9985L70.7776 65.2815L70.5348 65.4433L70.3729 65.8476L70.0492 65.4837L69.8873 65.4028V65.5241L69.9683 65.5646V66.1306L69.8064 66.2924H69.685L69.5636 66.4137H69.3208L69.1994 66.2924H69.0375L68.9566 66.2115H68.7542L68.5923 66.0498V65.9689H68.5519L68.5114 66.0902L68.1067 65.8476L67.702 65.9689L67.9044 65.4837L67.8639 65.4028V65.322L67.702 65.2007V65.1198C66.5285 66.4541 65.3953 67.8693 64.3836 69.3653V69.4058L64.586 69.6079L64.7883 69.5271H64.8288L65.0716 69.2845L65.2335 69.4462L65.3144 69.3653H65.2739C65.2739 69.3249 65.3144 69.2845 65.3144 69.2845L65.4763 69.0823L65.7191 69.3653V69.4462L65.7596 69.5271H66.0428L66.3261 69.8101L66.1642 70.2144L65.9619 70.1336V70.174L65.881 70.2549L66.0024 70.3357L65.7191 70.457V70.7401L65.5167 70.5379L65.4763 70.6188V70.8209H64.6264L64.4646 70.7401H64.2622L64.1813 70.6996L63.979 70.7401L63.7361 70.8209L63.6552 70.7401L63.4933 70.8209L63.4124 71.0231H63.4933L63.3315 71.4274L63.5338 71.2253L63.7361 71.7105L63.6552 72.0744V72.317L63.7361 72.6L63.6552 72.8426L63.4529 73.247H63.1291L62.9268 73.0448L62.8458 72.883L62.6435 72.6404L62.5626 72.6809L62.4816 72.7617H62.3198H62.2793H62.2388V73.247L62.0769 73.0852L61.996 73.1661V73.4491L61.9151 73.4896V73.5704L61.996 73.6513V73.9343V73.9748L62.1174 73.9343L62.3198 74.2174H62.3602L62.6435 74.1365L62.8054 74.2982L62.8863 74.4195L63.0482 74.5813L62.9672 74.7834L63.0482 75.1473L62.1579 75.2282L61.5509 75.1878L61.308 75.3899L61.0248 75.4708L60.9438 75.3899C60.094 77.2094 59.406 79.1502 58.8395 81.0911L59.2442 81.2528V81.4954L59.487 81.2528H59.8107L59.8917 81.455L60.0535 81.6571L60.1345 81.8189L60.2154 81.8997L60.2963 81.9806H60.3773L61.0652 82.668H61.1462L61.3485 82.7488L61.8341 83.234L61.9151 83.1532L62.1579 83.4362L62.3198 83.5171L62.603 83.8405L62.6435 83.9214L62.7244 83.9618L63.0077 84.2044L62.8863 84.4875H62.684L62.6435 84.6896L62.7244 84.8918L62.684 85.0131L62.7244 85.1344H62.8458L63.0077 85.4579L63.2101 85.5387V85.7409L63.3719 85.8218L63.4529 85.9027H63.6147V86.1048L63.6957 86.2666H63.7766L63.8575 86.2261L63.6552 86.1048L63.898 85.8622L63.5743 85.5387L63.6957 85.4174L63.6552 85.2153L63.7361 84.9322L64.1408 84.7705L64.2218 84.9727L64.3836 84.8109L64.5455 84.8918L64.586 84.7705L64.9097 84.6088L65.0716 84.7705V84.6088H65.4763L65.5572 84.7301H65.6786L65.9619 84.8109V84.8918L66.0428 84.8109L66.2047 84.9727L66.5285 84.6896V84.7301L66.7308 84.6492H66.8927L66.9736 84.5683L66.7713 84.3662L66.6903 84.164L66.6094 84.0831L66.2047 83.5979H66.488L66.6094 83.5171H66.6499L66.5689 83.1936L66.8522 82.951H66.8927V82.8701V82.5871L66.8117 82.4254L66.8927 82.2636V82.1828L66.8117 81.9806L66.9331 81.8593L67.0141 81.6571H67.2974H67.3378V81.6167L67.2164 81.4954L67.3783 81.3337V80.6463H67.8234V80.4441L68.1067 80.3633H68.1877L68.39 80.1611L68.5519 80.3228L68.7137 80.1611L68.9161 80.3633H68.997L69.078 80.6463L69.1589 80.6867L69.2398 80.6463L69.4017 80.7272L69.4826 80.525L69.604 80.6463L69.7254 80.525L69.8469 80.6059L69.9278 80.525L70.1301 80.6059L70.2515 80.5654L70.3729 80.4037L70.2515 80.0398H70.9395L70.98 80.1207H71.0609L71.2228 80.2015L71.3037 80.1207H71.4656L71.5061 80.0802L71.587 79.8781H71.7489V79.8376L71.9107 79.6759H72.1131L72.2345 79.595H72.5178H72.5582L72.6392 79.5142L72.9629 79.4333L73.2057 79.6759L73.0843 79.9994L72.801 80.1207L72.5987 80.4441L72.7201 80.4846V80.7272L72.3964 81.0506L72.4773 81.1315L72.3154 81.6167L72.1535 81.5358L72.2345 81.6167V81.738L72.4368 81.6976L72.7201 81.8593L72.882 81.9402L73.2867 82.2636L73.3271 82.3445L73.4081 82.3849L73.489 82.4658H73.5699H73.7723L73.8532 82.5467H73.9341H74.0151L74.177 82.7084H74.2174L74.2984 82.6275L74.6626 82.9106H74.7435L74.9459 83.1936L75.0268 83.3553L75.0673 83.5575L75.2696 83.8405L74.9863 83.9618L75.0673 84.0831L74.9054 84.2449L74.8244 84.4066L74.6221 84.6088L74.4602 84.6896L74.3793 84.8918H74.177V84.9322L73.7723 84.8514L73.7318 84.8109H73.2462H73.2057H72.9629L72.6796 84.9727L72.3559 84.8918L72.0321 84.6896L71.8703 84.6088L71.7489 84.5279L71.6679 84.6088L71.3846 84.4875L71.1823 84.2853V84.2449L71.0204 84.4066L70.9395 84.3257L70.8586 84.4066L70.4539 84.0023H70.1706L70.1301 83.9618L70.0492 84.0023H69.7254L69.685 84.0831L69.3612 84.2449H69.1994H69.1184L69.078 84.3257L68.9161 84.4066L68.7947 84.5279L68.7137 84.6492V84.8109H68.2686L67.9853 84.7301L67.702 85.0131H67.6211L67.702 85.094L67.2164 85.2962H66.8927L66.8117 85.2557L66.5689 85.3366L66.488 85.1344L66.4071 85.3366V85.377L66.4475 85.4174H66.488H67.095L66.6903 85.8218L66.7308 85.9027L66.9331 85.8218V86.2261H67.783L66.7713 86.6305V86.7113L66.8522 86.6709L67.1355 86.7922L67.2974 87.1157L67.2164 87.1965L67.3378 87.3178L67.4188 87.237V87.3987H67.8234L67.702 87.52H68.1067V87.803L68.1877 87.8435L68.2686 87.7626H68.3495L68.4305 87.6817H68.4709L68.39 87.4796L68.8756 87.3583L69.1184 87.4391L69.4017 87.5604H69.604L69.8469 87.8435L69.9278 87.9243L70.4134 87.8839L70.5753 87.803H70.6158V87.7626L70.98 87.3583H71.1823L71.4251 87.52L71.6679 87.2774L72.0726 87.4391V87.7222L71.8703 87.9243L72.0321 88.0861L71.8703 88.2478L71.9917 88.45L72.0726 88.6926L71.9917 88.8543V89.0969L71.9107 89.3395L71.8298 89.8247L71.587 90.1077V90.229L71.3846 90.4312L71.3442 90.8355L71.1418 91.1994L70.98 91.4016L70.899 91.6038L70.6158 91.6846L70.2111 91.6038L69.8873 91.6846V92.2911L69.9683 92.372V92.4125L70.1706 92.6146V92.8168L70.3325 92.8977L70.4134 93.0998L70.6158 93.302L70.6967 93.1403V92.9785L70.8586 92.5742L70.9395 92.4933L71.3442 91.442V92.5338L71.2632 92.6551V93.0594L71.7489 93.2616L71.587 93.4233L71.7893 93.6255L71.8298 93.7468L71.9107 93.8276L71.9917 93.9489L72.194 94.4341V94.6363L72.3154 94.7172L72.3964 94.8789L72.5582 94.9598L72.6796 95.2428L72.8415 95.3237L72.9629 95.6876L73.2057 95.9302L73.4081 96.0919L73.5699 96.2941V96.3345H73.7723L73.8532 96.5367L73.9341 96.6175L74.0151 96.8197L74.1365 96.941L74.177 97.0219L74.2579 97.1027L74.177 97.4666L74.2579 97.6688L74.2984 97.871L74.7435 98.3157H74.8244H75.0268L75.1077 98.4775L75.3505 98.6796V98.7605L75.5529 98.8414L75.4719 99.0436L75.5933 99.4479L75.7552 99.5288V99.7309L76.079 100.054H76.2408L76.3218 100.378L76.5241 100.418L76.686 100.823L76.7669 100.984L76.8479 101.348V101.712H76.7669L76.8479 101.833L76.8883 102.359L77.0502 102.521V102.925L77.1716 103.046V103.127L77.374 103.208L77.5358 103.046H77.8191L77.9405 102.885V102.804L78.1833 102.561H78.4666L78.5475 102.642H78.7094L78.7903 102.723L78.9927 102.642L79.1546 102.602L79.4783 102.359H79.802L79.9639 102.197L80.0449 102.278L80.2067 102.036L80.4091 101.955H80.49L81.0566 101.753L81.1375 101.672L81.5422 101.591L81.7445 101.51L81.9064 101.348H82.0278L82.1087 101.106L82.3515 100.823L82.6348 100.742H82.7158L82.8776 100.58L82.9586 100.661V100.58H83.08L83.2823 100.459H83.4442L83.6061 100.378L83.687 100.418V100.135L83.8893 99.9331H83.9703L84.1726 99.8522V99.7309L84.4559 99.367L84.7392 99.2457L84.7796 99.2862H84.901V99.2053H84.7392L84.901 98.8414L84.7392 98.6796H84.9415L85.2653 97.8305V98.5179L85.3462 98.437L85.4271 98.5179L85.4676 98.437L85.6295 98.2753L85.8318 97.9923V97.9114V97.8305V97.7497H85.7913L85.5081 97.5475L85.4271 97.3858L85.2653 97.224L85.1843 97.0219L85.1034 96.9006H84.4964L84.3345 96.9814L84.0107 96.9006L83.9298 96.9814L83.6465 96.8601L83.2823 96.5367L83.2014 96.4558L82.9586 96.1728L82.8776 95.7684L82.7967 95.6876L82.473 96.011L82.6348 96.1728L82.2301 96.5771V96.658H82.0683L81.8659 96.7388H81.6231L81.5422 96.658H81.4612L81.2994 96.6175L81.0566 96.8197L80.8542 96.7388H80.7733L80.4495 96.8601L80.3686 96.5367H80.2877L80.2067 96.3345H80.2472V96.1728L80.0853 96.3345L79.802 96.0515L79.7211 95.8897L79.3974 95.5258L79.1141 94.8385L79.0331 94.7576L78.7903 94.515L78.588 94.4341L78.4261 94.0298L78.3857 93.9489L78.3047 93.8681L77.8596 93.4233H78.0214L77.5358 93.0998L78.1428 93.019V92.9381V92.7764V92.6955L77.5358 92.4529H78.2643L78.6285 92.089V92.4125H78.7094L78.7903 92.4933L78.9522 92.3316L79.0331 92.4933L79.1546 92.372L79.3569 92.5742L79.5592 92.7764V92.8572L79.7616 93.0998L79.802 93.1807H79.8425L79.9235 93.302H80.4091L80.4495 93.3424L80.5709 93.2211L80.7328 93.6255L80.8542 93.9489L81.0566 93.9085L81.2994 93.9894H81.5017L81.5826 94.0702H81.7041L81.9469 94.3128L81.9064 94.3533L82.0683 94.4341H82.2301L82.392 94.515L82.5539 94.4341L82.8372 94.515L82.999 94.5959L83.08 94.515L83.3633 94.3128H83.4847L83.6061 94.232L83.8084 94.1511L84.2131 94.232H84.294V94.3128L84.375 94.4746L84.4559 94.6767L84.6178 94.9193V95.0002H85.0629L85.1034 95.0406L85.1439 95.0002H85.3462L85.5081 95.1215L85.7913 95.0811L85.9532 95.1619H86.277H86.3174L86.3984 95.0811L86.4793 95.1215L86.4388 95.0406H86.7626L86.8435 95.2428H86.884L87.0054 95.2832L87.0863 95.2024H87.4505V95.2832H87.5315L87.6529 95.2024H87.9362V95.1215L88.1385 94.9193L88.2194 94.9598H88.5027L88.5837 95.0406H88.7051L88.7455 95.0811L88.8265 95.0002H89.1502L89.2312 95.0406L89.3121 95.0002H89.393L89.5549 94.8385L89.7168 95.0002H89.7572L89.8382 94.9598H90.1215L90.3238 95.1619L90.4047 95.3641H90.6071L90.8904 95.2832V95.6067L90.9713 95.6876L91.0522 95.8897L91.1332 95.9706L91.1736 96.0515H91.3355L91.5378 96.1728L91.6592 96.0919L91.8616 96.011L92.0235 96.3749L91.9425 96.4154L91.9021 96.4558L92.0235 96.6175L92.3877 96.7388L92.59 96.6175V96.4558H93.197L92.9947 96.941H92.3067L92.1853 97.1027H92.3472L92.2663 97.1836V97.2645V97.4666L92.4281 97.6284L92.8733 97.9519H92.9542H93.0352L93.3589 97.7497L93.4398 97.6688L93.5613 97.4666V97.4262L93.3994 97.2645L93.6017 96.941V95.7684L93.9659 96.658H94.0469L94.1278 96.7388L95.0181 96.3749L94.1683 97.224L95.2609 97.6688H94.0873V97.7497L94.1278 97.7901L94.2087 97.9923V98.1945L94.1683 98.2753L94.6134 98.4775L94.2087 98.6796L94.3706 99.0436V99.2053L94.4516 99.4075L94.3706 99.4883L94.6944 99.9735H94.492V100.054L94.6944 100.54V100.863L94.7753 101.025L94.9372 101.106L95.0181 101.308L95.099 101.389V101.47V101.55H95.18V101.672L95.2205 101.712H95.3823V102.076L95.4633 102.278L95.5037 102.44L95.6251 102.723L95.7061 102.885L95.7465 103.087L95.787 103.127L95.8679 103.289L95.9489 103.37H96.0298L96.2322 103.613L96.4345 103.855L96.5154 104.057H96.5964V104.34L96.7178 104.543L96.7987 104.826V105.028L97.0011 105.392L97.1225 105.513L97.2843 105.351L97.3653 105.149L97.6485 104.947H97.7295L97.8104 104.866L97.8509 104.785L98.0128 104.462L98.296 104.381L98.2556 104.017L98.1746 103.855V103.41L98.3365 103.127L98.4174 102.804V102.602L98.2556 102.521V101.914L98.1746 101.672L98.296 101.55L98.2151 101.308L98.296 101.106L98.5793 100.823H98.8626V100.742L99.1054 100.499L99.3887 100.58L99.4696 100.499L99.4292 100.418L99.5101 100.176L99.7124 99.9735L99.9148 99.9331L99.9957 99.8522L100.077 99.6905L100.643 99.2457L100.765 99.0031L100.846 98.9222L101.007 98.4775H101.25L101.372 98.3966H101.574L101.655 98.4775H101.736L101.817 98.3966L101.614 98.1945H102.019V98.154L102.06 98.1136V98.2349V98.154L101.938 98.0327L102.1 97.6284L102.221 97.5071L102.586 97.3858L102.626 97.3453V97.224V96.9006H102.99L103.193 96.9814V96.8197L103.516 97.1432H103.638L103.84 96.941L103.8 96.8601H103.962L104.447 96.3749L104.852 96.2941L104.892 96.3749L104.933 96.4154H105.014L105.095 96.4962L105.176 96.5367H105.257L105.338 96.4962L105.297 96.5367H105.459L105.661 97.0219L105.742 97.1027V97.1432L105.823 97.0623V97.6688L105.904 97.7497L105.985 97.871H106.066V97.9114L106.268 97.9923V97.8305L106.43 97.9923H106.956L106.147 98.2349H106.187L106.228 98.2753L106.39 98.3562L106.592 98.5988V98.8818L106.673 98.9627V99.1649L106.754 99.367V99.4479L107.078 99.5692L106.956 99.6905V99.9735L107.037 100.135L107.199 99.6501V100.337L107.24 100.378L107.199 100.418V100.903L107.28 101.065H107.361L107.482 100.984L107.563 100.742L107.482 100.58H107.887V100.459L107.28 99.8522L108.454 100.337V100.418L108.535 100.499L108.656 100.701L108.696 100.742L109.02 100.418V100.984V101.025V101.227L109.061 101.267L109.101 101.591V101.874L109.506 102.278H108.454V102.359L108.696 102.602L108.777 102.723L108.858 102.804L108.939 103.168L108.98 103.208L109.101 103.491L109.02 103.572V103.613V103.693L109.303 103.976L109.222 104.057L109.303 104.219L109.142 104.381V104.583H109.384V104.421L109.546 104.259L109.627 103.815L109.789 103.653L109.87 103.532L109.991 103.41L109.91 103.33L110.072 103.168V103.087V103.006L109.749 102.885L109.951 102.683V102.197L110.234 102.48L110.315 102.4L110.437 102.521L110.598 102.44L110.679 102.521H110.76L110.963 102.602L111.165 102.804L111.003 102.966V103.006L111.084 103.127L111.327 103.208L111.489 103.37L111.57 103.41L111.934 103.774H112.136L112.339 104.057V104.138L112.5 104.543L112.824 104.219V104.543H113.674V104.462H113.998H114.038L114.362 104.138V104.502L114.443 104.583L114.645 104.502L114.726 104.421V104.34L115.05 104.219L115.171 104.098L115.212 103.976L115.293 103.774L115.212 103.532L115.333 103.491V103.451V103.208L115.414 103.127V103.087L115.333 103.006V102.804L115.252 102.602L115.333 102.521L115.252 102.4L115.333 102.319L115.252 102.117L115.171 102.036L115.09 101.833L114.888 101.631L114.969 101.55L114.848 101.429V101.389L114.767 101.187L114.686 101.106L114.402 100.903L114.362 100.782L114.119 100.62L113.674 100.418V101.227L113.269 100.297L113.067 100.095L112.946 100.014L112.379 99.8118L112.662 99.6905L112.743 99.4883V99.1649L112.824 99.084L112.905 98.9627L113.107 98.7605L113.188 98.8414V98.6392L113.026 98.4775L113.188 98.3157V98.154H113.431L113.593 97.9923L113.795 97.9114H113.917L113.714 97.7092H114.2L114.362 97.5475L114.402 97.5879L114.605 97.1027L114.807 97.5879L114.848 97.5475L114.969 97.6688L115.05 97.5071L115.293 97.5879L115.495 97.5071L115.697 97.7092V97.8305L115.778 97.7497L115.536 97.5071H116.021L116.345 97.1836V97.3858H116.871L117.033 97.3049L117.114 97.3453L117.195 97.3049L117.276 97.224V97.1432V96.658L117.559 96.941L117.478 96.8197V96.3345L117.923 96.5367L118.085 96.6984L118.206 96.658L118.368 96.4962L118.49 96.6175V96.5771H118.773H118.854L119.056 96.3749L118.733 95.4854L119.34 96.0919L119.542 96.011V95.9302H119.623L119.704 95.8089H119.785L119.299 95.3237H119.704L120.068 94.4341L120.189 94.3937L120.108 94.3128H119.785L119.947 94.1511L119.825 94.0298H120.027L120.27 93.7872V93.7468H120.432L120.675 93.1403L120.756 93.302V93.2211L120.837 93.0594L120.796 93.019L120.918 92.8977H120.715V92.5742L120.918 92.372V92.2103L120.796 92.089L120.918 92.0485V91.8868L120.837 91.9677L120.554 91.8464L120.473 91.7655L120.432 91.806L120.027 92.8572V91.9677L119.542 92.1699L120.027 91.6846V91.6442L120.23 91.442L119.947 91.0781L120.554 91.3207L120.715 91.159H120.756L120.837 91.0377H120.877L120.837 90.9568L120.554 90.7547L120.351 90.5929L120.189 90.4312L120.027 90.5121L119.785 90.4312L119.582 90.2695H119.542L119.38 90.1886L118.166 91.806L119.056 89.7843L119.38 89.663L119.582 89.7438L119.866 89.663L119.906 89.7438L120.27 89.8247L120.068 89.5417V89.3799L119.866 89.2182V89.0969L119.663 89.016L119.744 88.8139L119.623 88.5713L119.42 88.4904L119.097 88.6117V88.3287L118.773 88.2074V87.7222L118.813 87.5604L118.733 87.3987L118.935 86.8731L119.137 87.0752L119.178 87.0348L119.097 86.9539L119.42 86.6305H119.461V86.5496H119.542L119.34 86.3474L119.825 86.1453L119.906 86.1857H120.027L120.068 86.1453H119.582L119.38 85.9431L119.34 85.8622L119.259 85.9027V85.9835L119.178 86.0644L119.056 86.3474L118.854 86.5496L118.652 86.4687L118.571 86.5092H118.247L118.045 86.024V86.307L117.883 86.1048L117.802 86.1857V85.9835L117.599 85.7409L117.559 85.7005L117.397 85.6196L117.154 85.5387V85.3366L117.073 85.1344L117.154 85.0535V84.9727L117.235 84.8918V84.7705L117.316 84.6896V84.4066L117.802 84.4875L117.599 84.2853H117.802L117.923 84.164L118.004 83.8001L118.328 83.5979H118.409L118.49 83.5171V83.3149L118.652 83.1532H118.611L118.692 83.0723L118.773 82.8701H119.097L119.218 82.5467L119.542 83.0319L119.906 83.2745V83.5979L119.744 83.7597L119.663 83.8405V84.0023L120.189 83.4766L120.027 83.8001H120.23L120.473 83.5979L120.594 83.6788H120.635L120.918 83.2745L121.08 83.6384H121.161L121.403 83.7192H121.444L121.525 83.6384H121.93L121.768 84.0427L121.808 84.1236L121.646 84.3662V84.4875H121.687L122.294 84.2449H122.253L122.132 83.8405L122.172 83.8001V83.7597V83.5575L122.375 83.3958L122.456 83.234L122.698 83.1532H122.779H122.82V83.0723L123.063 82.8297L122.982 82.7488L123.184 82.5871V82.2232L123.063 82.1019V81.7784L123.144 81.455V81.1315H123.305L123.508 80.9293H123.548L123.589 80.808L123.791 80.7272V80.6463L123.832 80.6059V80.4037L123.953 80.2824V80.1611L124.155 79.9589L124.358 80.0398L124.56 79.9589L124.762 80.1611V80.3228H124.843L124.884 80.4037L124.965 80.3228L125.046 80.4037L125.207 80.3228L125.288 80.242H125.41L125.491 80.1611L125.572 80.0802L125.41 79.9185L125.693 79.7972L125.491 79.2716L125.855 79.4333V79.3524L125.936 79.2716V79.0694L126.057 78.9885V78.9076L126.179 78.8268L126.26 78.5437L126.3 78.5033L126.421 78.0181L126.502 77.8564V77.6946L126.664 77.5329H126.745L126.826 77.4116L126.745 77.0881L126.907 76.9264L126.826 76.6434L126.988 76.4816V76.239H127.514L127.555 76.1582V75.956L127.676 75.8347L127.595 75.5517L127.676 75.3495V75.1473H127.514V75.2282ZM63.7361 69.8101L63.7766 69.7697V69.6888C63.7766 69.7292 63.7766 69.7697 63.7361 69.8101ZM113.35 104.987L113.391 104.947L113.229 104.906L113.391 105.068V105.149L113.472 105.109L113.593 105.149H113.674L113.35 104.987ZM109.303 104.745V104.947H109.384V104.866L109.303 104.745ZM123.751 104.098H123.67V104.259H123.71V104.219L123.791 104.138L123.751 104.098ZM125.207 103.491V103.572L125.288 103.653L125.369 103.734V103.693L125.207 103.491ZM122.698 102.278H122.779L122.82 102.238L122.86 102.278V102.076L122.698 102.278ZM123.184 100.418L123.103 100.378L122.982 100.054V99.9735L122.698 99.8927L122.577 99.7714H122.496V99.8118L122.334 100.014V100.054V100.378V100.661L122.294 100.742L122.375 100.903V101.106L122.213 101.187L122.172 101.348V101.429L122.253 101.591V101.672H122.456V101.753H122.617L122.779 101.955L122.739 101.833V101.631L122.779 101.55L122.698 101.389L123.063 101.025L123.184 100.823V100.742V100.58V100.418ZM116.466 98.6392L116.264 98.7201L116.183 98.6392L116.062 98.7201L115.981 98.6392H115.94H115.738H115.657L115.616 98.7605L115.414 98.9222L115.333 99.0031V99.0436V99.2457L115.374 99.367L115.455 99.4479H115.536L115.616 99.5288H115.778V99.4479L116.021 99.367V99.2862L116.223 99.2053V99.1244L116.304 98.8818L116.385 98.801L116.466 98.6796V98.6392ZM115.576 97.9114V98.0327H115.374V98.1136L115.455 98.1945L115.536 98.2753L115.697 98.1136L115.576 97.9114ZM122.294 95.2024L122.213 95.1215L122.132 95.2024L122.051 95.2832L122.132 95.3237L121.97 95.5663V95.6471L121.808 95.8897L121.727 96.0515V96.4558H121.808V96.658H121.93V96.8197L122.051 96.6175L122.172 96.4558L122.091 96.4154L122.172 96.0515V95.9706V95.728L122.253 95.5663L122.294 95.3237V95.2024ZM104.043 96.5367V96.7388H104.083L104.043 96.5367ZM119.825 95.1215L119.582 95.3641H119.704L119.906 95.1619L119.825 95.1215ZM120.068 94.9193L120.108 94.8385L119.906 95.0002L120.108 94.9193H120.068ZM126.988 89.3395L127.109 89.2182H127.069V89.0969H126.988L126.826 88.8139H126.705L126.583 88.6521H126.502V88.733L126.381 88.8139L126.502 88.9352L126.624 89.1373L126.705 89.3395V89.5417L126.664 89.7034L127.029 90.0269L126.988 89.946L127.069 89.5821L126.988 89.3395ZM58.0706 88.8543V88.5713H57.9897L57.7873 88.2478L57.8682 87.9648L57.9087 87.9243L57.8278 87.8435L57.7064 87.6413L57.6659 87.6009C57.585 88.2882 57.5445 89.016 57.4636 89.7034L57.8278 89.5012L57.8682 89.4608L57.7873 89.3799L57.9492 89.2182L58.0706 88.8543ZM70.5348 89.5012H70.4943L70.3325 89.5821H70.5348L70.6158 89.5012H70.5348ZM127.676 88.4904V88.5713L127.757 88.6926L127.838 88.5308L127.878 88.4904H127.676ZM128.404 88.2074L128.323 88.1265L128.243 88.1669V88.2882H128.364H128.404L128.485 88.2074V88.1669L128.404 88.2074ZM131.642 83.8001V83.7192L131.601 83.5575V83.4766L131.52 83.234L131.48 83.1532H131.399L131.318 82.951L131.278 82.7488L131.237 82.668L130.954 82.3849L130.711 82.5871L130.63 82.5062V82.5871L130.711 82.7893L130.671 82.951L130.792 83.234L130.873 83.5575L130.792 83.7597L130.873 84.0023L130.752 84.4066L130.833 84.6088L130.63 84.8918L130.549 84.9727V85.0535V85.2557L130.468 85.377L130.428 85.5792L130.226 85.7005L129.902 85.9027H129.821L129.74 86.1048L129.416 85.9431V86.1048L129.295 86.307V86.3879L129.214 86.4687L129.254 86.5092V86.5496H129.457L129.254 86.8326L129.335 86.9135L128.931 87.1561L128.85 87.0752H128.769H128.526V86.9539L128.323 87.0348L128.121 87.1157H128L127.838 87.1561L127.636 87.237L127.555 87.1561L127.474 87.237L127.433 87.3987L127.352 87.4796L127.069 87.7626L126.988 87.8435L126.948 87.8839L126.867 88.0456L126.705 88.1265L126.907 88.0456H126.988V87.9648L127.069 87.7626H127.271L127.352 87.803H127.433H127.636L127.838 87.7222H127.919L128.081 87.6413V87.6009L128.364 87.4391L128.526 87.3583H128.89L129.092 87.52V87.7222L129.011 87.8435V87.9648L129.254 88.2074H129.173L129.214 88.4095L129.254 88.3287V88.2478L129.335 88.1669V88.0861L129.457 87.8839L129.295 87.7222L129.376 87.3987L129.538 87.237H130.145L130.023 87.3583L130.266 87.3987V87.1965L130.549 87.0348H130.752L130.792 86.9944L130.873 86.9539L131.035 86.59L131.237 86.5092H131.52L131.399 86.307V85.6196L131.48 85.377L131.359 85.0535L131.197 84.8109V84.6088L131.237 84.2853L131.48 84.164V84.0831V84.0023V83.7597L131.642 83.8001ZM59.8512 88.1265L59.9726 87.7222H59.9321L59.8512 87.803H59.5274L59.3251 87.8839L59.0823 87.8435L59.1632 87.9243L59.3251 88.0052L59.406 88.0861L59.6084 88.1669L59.7298 88.1265L59.9321 88.3287L59.9726 88.4095L60.0131 88.3287V88.2882L59.8512 88.1265ZM124.398 86.9539V86.8326L124.115 87.1157V86.5092L124.074 86.1857L123.912 86.024V85.7409L123.629 85.377L123.386 85.1344L122.779 85.377L122.941 85.6196L123.144 85.8218L123.063 85.9027L123.265 86.3879L122.941 86.307L122.982 86.3879V86.4283L123.265 86.9135L123.063 87.0752V87.3178L122.982 87.3987L123.063 87.6009V87.4391L123.346 87.7222L123.629 87.4796L123.791 87.3987L123.832 87.3178H124.115L124.317 87.1157H124.398L124.317 87.0348L124.398 86.9539ZM63.898 86.9944L63.979 87.0752L64.0194 86.9944H63.898ZM64.3836 87.1561L64.2218 86.9944L64.4646 86.9135H64.4241L64.1813 86.9944L64.1004 86.9539H64.0599L64.2622 87.4391L64.3432 87.4796L64.4241 87.5604L64.3432 87.3987L64.3836 87.1561ZM131.601 86.9135V86.9539L131.642 86.9135H131.601ZM60.8224 86.7922V86.8731L60.9034 86.8326V86.7518L60.8224 86.7922ZM131.601 86.5496V86.6709L131.642 86.6305L131.601 86.5496ZM61.1057 86.1453H60.9034L60.8629 86.1048L60.9034 86.2666L60.9843 86.4283H60.9438V86.5092L61.0652 86.3879L61.1462 86.2261L61.1057 86.1453ZM60.9438 84.7301L60.7415 84.6896H60.5392L60.4177 84.4066V84.3257H60.3773H60.0535L60.0131 84.2449L59.8512 84.164L59.7703 84.0023L59.6489 83.9214L59.3656 83.6788L59.2846 83.4766V83.3958L59.2037 83.3149V83.1532L58.88 82.7488L58.8395 82.668H58.7585L58.4348 82.5467C58.3539 82.951 58.2325 83.3553 58.1515 83.8001L58.2325 83.9214L58.2729 83.9618L58.4753 84.2853L58.6776 84.4066L59.0014 84.5279L59.2037 84.6088H59.406L59.6084 84.8514L59.8917 84.9727H60.094L60.2154 85.2153V85.2962H60.2559L60.2963 85.4174L60.6201 85.5792L60.6606 85.8218V85.66L60.8629 85.5792V85.2153L60.9438 85.1344L61.0248 85.0131L61.1866 84.8918L60.9438 84.7301ZM123.265 85.094L123.063 84.6088V84.5279L122.617 84.3257L122.577 84.2449L121.97 84.8514H121.889V85.0131H121.93L122.132 84.8109L122.375 85.0535H123.386L123.265 85.094ZM119.663 84.0023V84.0427L119.704 84.0023H119.663ZM70.4539 81.3337L70.1706 81.6167L70.1301 81.6571L70.292 81.5763L70.5348 81.3741L70.4539 81.3337ZM130.185 81.2528V81.2932H130.226L130.185 81.2528ZM70.0492 81.1315L69.9278 81.1719L70.1706 81.2932L70.2515 81.1315V80.9293L70.0492 81.1315ZM132.33 79.7568L132.087 79.6355V79.5546L132.006 79.595H131.561L131.48 79.4737H131.359L131.116 79.3524L131.075 79.2716H130.954L130.833 79.0694L130.671 78.9885L130.387 78.7055L130.347 78.5842H130.266L130.145 78.5033L130.306 78.7459L130.387 78.9481L130.428 79.1907V79.2716V79.3524L130.59 79.7568H130.428V79.8376H130.468L130.671 80.1207L130.509 80.2015V80.2824L130.306 80.4846L130.145 80.4037V80.4846L130.347 80.6463L130.387 80.6059L130.59 80.4441H130.873L131.075 80.3633L131.278 80.6463L131.359 80.7272L131.52 80.808L131.561 80.6059L131.642 80.3228L131.844 80.2015L132.047 80.0802L132.33 79.9589V79.7568ZM129.983 76.4412L129.902 76.3603H129.821L129.74 76.239V76.2795V76.3199L129.942 76.5221L129.902 76.7242L130.064 76.6434V76.4816L129.983 76.4412ZM129.74 73.8535V73.813L129.578 73.7726V73.5704L129.416 73.4087L129.254 73.0852L129.173 72.9639L128.971 72.6809L128.89 72.4787L128.809 72.3978V72.317H128.607L128.526 72.0339L128.323 71.8318L128.243 71.67L128.162 71.5487V70.9422H128.081L127.878 70.7401V70.6592L127.797 70.5783V70.3357H127.757L127.676 70.2144V70.3357L127.433 70.4166H127.393V70.5379L127.474 70.6188L127.676 70.8614V71.104V71.3466L127.797 71.6296V71.7105L127.959 71.7913L128.04 72.0744L128.081 72.1552L128.243 72.2361L128.445 72.5191V72.9235L128.526 73.0852V73.1661L128.769 73.4087L128.688 73.53L128.809 73.6917L128.89 73.8535V74.0152L128.971 74.2174V74.6217L129.214 74.7834L129.173 74.9452L129.254 74.9856L129.497 75.1878V75.1473L129.376 74.9856L129.457 74.7026V74.6621L129.376 74.46L129.457 74.2982L129.254 74.0152H129.821H129.902L129.74 73.8535ZM63.5338 70.8614V70.9422H63.6147L63.5338 70.8614ZM63.7361 69.8101L63.7766 69.7292C63.7766 69.7292 63.7766 69.7697 63.7361 69.8101ZM69.5231 65.0389V64.9985H69.3208L69.4017 65.0389L69.5636 65.2007L69.6445 65.1602L69.5231 65.0389ZM74.1365 60.3487H74.0556L74.0151 60.4295V60.6317L74.096 60.7934H74.2174L74.2984 60.753L74.3793 60.6721V60.5913V60.5104L74.1365 60.3487ZM77.1716 58.0844L77.0097 57.9226L76.8479 57.8013L76.6051 57.7205H76.3622C76.2813 57.7609 76.2004 57.8013 76.1194 57.8822L76.2004 57.9631L76.2813 57.8822L76.7669 58.0844V58.1248L76.9288 57.9631L77.0097 58.1652L77.1311 58.2057L77.2121 58.1248L77.1716 58.0844ZM75.9171 58.0439H75.8766V58.1248L75.9171 58.1652H75.998V58.0035L75.9171 58.0439Z" fill="url(#paint13_radial)"/>
<path d="M70.859 97.8305C75.8771 99.003 81.1784 99.8117 86.6416 100.297C87.6129 111.74 90.4456 122.697 94.7353 132.886C95.0995 132.927 95.4232 132.967 95.7874 132.967C91.4573 122.818 88.6246 111.901 87.6129 100.378C91.0122 100.62 94.452 100.782 97.9727 100.782C105.5 100.782 112.744 100.135 119.664 98.9222C117.681 113.276 109.304 125.649 97.568 133.048C97.7704 133.048 97.9727 133.048 98.1751 133.048C98.5798 133.048 98.944 133.048 99.3486 133.048C110.761 125.406 118.773 113.074 120.675 98.8009C127.191 97.6283 133.342 95.8896 139.008 93.7871C139.008 93.4636 139.008 93.1402 139.008 92.7763C133.342 94.9192 127.231 96.6174 120.756 97.8305C120.959 96.0514 121.04 94.2319 121.04 92.4124C121.04 75.2685 112.137 60.1464 98.7012 51.3723C98.4988 51.3723 98.2965 51.3723 98.0941 51.3723C97.6894 51.3723 97.3252 51.3723 96.9206 51.3723C110.801 59.7825 120.028 75.0259 120.028 92.3315C120.028 94.2319 119.907 96.0918 119.704 97.9113C112.784 99.1648 105.459 99.8117 97.8918 99.8117C94.3711 99.8117 90.8908 99.65 87.451 99.4074C87.2082 96.577 87.1272 93.7062 87.1272 90.8354C87.1272 76.9667 89.7981 63.7045 94.5329 51.4936C94.1687 51.534 93.845 51.5745 93.4808 51.6149C88.746 63.7854 86.156 77.0072 86.156 90.8354C86.156 93.7062 86.2774 96.5366 86.4797 99.3669C80.9761 98.8817 75.7152 98.0326 70.6567 96.9005C70.4948 95.3236 70.4138 93.8275 70.4138 92.2506C70.4138 75.2685 79.3169 60.2677 92.7119 51.7766C91.943 51.8575 91.2145 52.0193 90.4861 52.1406C77.7791 60.9955 69.4831 75.6729 69.4831 92.2911C69.4831 93.7871 69.564 95.2831 69.6854 96.7388C65.3553 95.7279 61.1466 94.434 57.2212 92.9784C57.2212 93.3019 57.2212 93.6254 57.2617 93.9893C61.1871 95.4853 65.4362 96.7388 69.7664 97.7496C71.3446 112.023 79.155 124.476 90.4456 132.361C91.1741 132.522 91.943 132.603 92.6714 132.725C80.9356 125.083 72.5991 112.467 70.859 97.8305Z" fill="url(#paint14_radial)"/>
<path d="M120.554 91.1997C121.426 91.1997 122.132 90.4937 122.132 89.6228C122.132 88.7519 121.426 88.0459 120.554 88.0459C119.682 88.0459 118.976 88.7519 118.976 89.6228C118.976 90.4937 119.682 91.1997 120.554 91.1997Z" fill="url(#paint15_radial)"/>
<path d="M107.037 61.0767C107.909 61.0767 108.616 60.3707 108.616 59.4998C108.616 58.6289 107.909 57.9229 107.037 57.9229C106.166 57.9229 105.459 58.6289 105.459 59.4998C105.459 60.3707 106.166 61.0767 107.037 61.0767Z" fill="url(#paint16_radial)"/>
<path d="M112.258 121.323C113.487 121.323 114.483 120.327 114.483 119.099C114.483 117.871 113.487 116.875 112.258 116.875C111.028 116.875 110.032 117.871 110.032 119.099C110.032 120.327 111.028 121.323 112.258 121.323Z" fill="url(#paint17_radial)"/>
<path d="M87.1681 102.197C88.5091 102.197 89.5962 101.111 89.5962 99.7715C89.5962 98.4316 88.5091 97.3455 87.1681 97.3455C85.8271 97.3455 84.74 98.4316 84.74 99.7715C84.74 101.111 85.8271 102.197 87.1681 102.197Z" fill="url(#paint18_radial)"/>
<path d="M89.0344 70.6437C90.1642 70.6437 91.0801 69.7286 91.0801 68.5998C91.0801 67.471 90.1642 66.5559 89.0344 66.5559C87.9046 66.5559 86.9888 67.471 86.9888 68.5998C86.9888 69.7286 87.9046 70.6437 89.0344 70.6437Z" fill="url(#paint19_radial)"/>
<path d="M73.5298 112.549C74.625 112.549 75.5128 111.662 75.5128 110.567C75.5128 109.473 74.625 108.586 73.5298 108.586C72.4347 108.586 71.5469 109.473 71.5469 110.567C71.5469 111.662 72.4347 112.549 73.5298 112.549Z" fill="url(#paint20_radial)"/>
</g>
<defs>
<linearGradient id="paint0_linear" x1="58.2873" y1="28.2327" x2="58.2873" y2="116.944" gradientUnits="userSpaceOnUse">
<stop stop-color="#596382"/>
<stop offset="0.7425" stop-color="#2A3C6B"/>
</linearGradient>
<linearGradient id="paint1_linear" x1="59.1997" y1="27.3204" x2="59.1997" y2="116.031" gradientUnits="userSpaceOnUse">
<stop stop-color="#697698"/>
<stop offset="0.7425" stop-color="#424F6F"/>
</linearGradient>
<linearGradient id="paint2_linear" x1="62.5764" y1="116.031" x2="62.5764" y2="27.3204" gradientUnits="userSpaceOnUse">
<stop offset="0.238248" stop-color="#292C3F"/>
<stop offset="0.995" stop-color="#465479"/>
</linearGradient>
<linearGradient id="paint3_linear" x1="49.5676" y1="50.7629" x2="122.875" y2="50.7629" gradientUnits="userSpaceOnUse">
<stop stop-color="#9CA5C7"/>
<stop offset="0.995" stop-color="#7883A0"/>
</linearGradient>
<linearGradient id="paint4_linear" x1="86.9729" y1="12.8512" x2="86.675" y2="83.2632" gradientUnits="userSpaceOnUse">
<stop stop-color="#F7F7FA"/>
<stop offset="1" stop-color="#C1C8E2"/>
</linearGradient>
<linearGradient id="paint5_linear" x1="51.5488" y1="23.9593" x2="145.067" y2="23.0469" gradientUnits="userSpaceOnUse">
<stop offset="0.106918" stop-color="#6D7793"/>
<stop offset="1" stop-color="#8D9CC0"/>
</linearGradient>
<linearGradient id="paint6_linear" x1="51.6895" y1="23.6587" x2="145.207" y2="22.7463" gradientUnits="userSpaceOnUse">
<stop offset="0.106918" stop-color="#6D7793"/>
<stop offset="1" stop-color="#8D9CC0"/>
</linearGradient>
<linearGradient id="paint7_linear" x1="68.4013" y1="33.3316" x2="68.4013" y2="119.044" gradientUnits="userSpaceOnUse">
<stop stop-color="#7382B5"/>
<stop offset="0.354167" stop-color="#546491"/>
<stop offset="0.995" stop-color="#2D3146"/>
</linearGradient>
<linearGradient id="paint8_linear" x1="69.3136" y1="32.419" x2="69.3136" y2="118.131" gradientUnits="userSpaceOnUse">
<stop stop-color="#9CA6C7"/>
<stop offset="0.515625" stop-color="#75809D"/>
<stop offset="0.995" stop-color="#5E6A84"/>
</linearGradient>
<linearGradient id="paint9_linear" x1="17.9604" y1="75.4242" x2="120.735" y2="75.4242" gradientUnits="userSpaceOnUse">
<stop stop-color="#3EADED"/>
<stop offset="1" stop-color="#0B528D"/>
</linearGradient>
<linearGradient id="paint10_linear" x1="69.3476" y1="39.6281" x2="69.3476" y2="111.22" gradientUnits="userSpaceOnUse">
<stop stop-color="#67728D"/>
<stop offset="1" stop-color="#91A2C6"/>
</linearGradient>
<linearGradient id="paint11_linear" x1="17.9604" y1="75.4242" x2="120.735" y2="75.4242" gradientUnits="userSpaceOnUse">
<stop stop-color="#2CD8CF"/>
<stop offset="1" stop-color="#0FBCBC"/>
</linearGradient>
<radialGradient id="paint12_radial" cx="0" cy="0" r="1" gradientUnits="userSpaceOnUse" gradientTransform="translate(88.653 79.957) scale(46.8374 46.7972)">
<stop offset="0.1458" stop-color="#96A1BB"/>
<stop offset="0.8886" stop-color="#5F6A8D"/>
<stop offset="1" stop-color="#4E5E83"/>
</radialGradient>
<radialGradient id="paint13_radial" cx="0" cy="0" r="1" gradientUnits="userSpaceOnUse" gradientTransform="translate(85.7403 77.2466) scale(52.8224 52.7771)">
<stop offset="0.21875" stop-color="#F3F5F7" stop-opacity="0.5"/>
<stop offset="0.614583" stop-color="#D5D9DF" stop-opacity="0.2"/>
<stop offset="1" stop-color="#D4D8DE" stop-opacity="0"/>
</radialGradient>
<radialGradient id="paint14_radial" cx="0" cy="0" r="1" gradientUnits="userSpaceOnUse" gradientTransform="translate(98.1894 92.1808) scale(40.8786 40.8436)">
<stop stop-color="#24DEDD"/>
<stop offset="0.859375" stop-color="#24D2D1"/>
<stop offset="1" stop-color="#25DFDE" stop-opacity="0"/>
</radialGradient>
<radialGradient id="paint15_radial" cx="0" cy="0" r="1" gradientUnits="userSpaceOnUse" gradientTransform="translate(120.573 89.6403) scale(1.58194 1.58059)">
<stop offset="0.2738" stop-color="white"/>
</radialGradient>
<radialGradient id="paint16_radial" cx="0" cy="0" r="1" gradientUnits="userSpaceOnUse" gradientTransform="translate(107.057 59.5172) scale(1.58194 1.58059)">
<stop offset="0.2738" stop-color="white"/>
</radialGradient>
<radialGradient id="paint17_radial" cx="0" cy="0" r="1" gradientUnits="userSpaceOnUse" gradientTransform="translate(112.267 119.091) scale(2.21125 2.20935)">
<stop stop-color="white"/>
</radialGradient>
<radialGradient id="paint18_radial" cx="0" cy="0" r="1" gradientUnits="userSpaceOnUse" gradientTransform="translate(87.1781 99.7631) scale(2.41227 2.4102)">
<stop stop-color="white"/>
</radialGradient>
<radialGradient id="paint19_radial" cx="0" cy="0" r="1" gradientUnits="userSpaceOnUse" gradientTransform="translate(89.0429 68.5928) scale(2.03234 2.0306)">
<stop stop-color="white"/>
</radialGradient>
<radialGradient id="paint20_radial" cx="0" cy="0" r="1" gradientUnits="userSpaceOnUse" gradientTransform="translate(73.5539 110.589) scale(1.98757 1.98587)">
<stop offset="0.2738" stop-color="white"/>
</radialGradient>
<clipPath id="clip0">
<rect y="7" width="140" height="126.099" fill="white"/>
</clipPath>
</defs>
</svg>
