<svg width="140" height="140" viewBox="0 0 140 140" fill="none" xmlns="http://www.w3.org/2000/svg">
<g clip-path="url(#clip0)">
<path d="M3.07816 62.5421V93.8986C3.07816 96.8731 4.62579 99.6328 7.14481 101.17L61.4601 137.41C67.1073 140.863 74.1869 140.863 79.8341 137.41L132.009 102.149C134.528 100.595 136.076 97.8356 136.076 94.8776V62.5421H3.07816Z" fill="url(#paint0_linear)"/>
<path d="M133.359 66.9405L80.1802 99.5614C74.3189 103.147 66.943 103.147 61.0817 99.5614L4.92244 65.1227C2.14 63.4206 2.43635 59.2728 5.43283 57.9838L64.6051 32.568C68.4577 30.9155 72.8042 30.9155 76.6404 32.568L132.619 56.6122C136.965 58.4631 137.393 64.4617 133.359 66.9405Z" fill="url(#paint1_linear)"/>
<path d="M93.6148 114.454C93.6148 114.29 93.6953 114.136 93.8302 114.043L94.2626 113.743C94.5942 113.514 95.0472 113.751 95.0472 114.154V119.548C95.0472 119.712 94.9667 119.866 94.8318 119.959L94.3994 120.259C94.0678 120.488 93.6148 120.251 93.6148 119.848V114.454ZM96.9076 117.576C96.9076 117.978 97.3571 118.215 97.689 117.989L98.1214 117.695C98.2582 117.602 98.34 117.447 98.34 117.282V111.857C98.34 111.454 97.8871 111.217 97.5554 111.446L97.1231 111.746C96.9882 111.839 96.9076 111.993 96.9076 112.157V117.576ZM100.2 115.312C100.2 115.714 100.65 115.951 100.982 115.725L101.414 115.431C101.551 115.338 101.633 115.183 101.633 115.018V109.56C101.633 109.157 101.18 108.92 100.848 109.149L100.416 109.449C100.281 109.542 100.2 109.696 100.2 109.86V115.312ZM103.493 113.032C103.493 113.433 103.943 113.671 104.275 113.445L104.707 113.151C104.844 113.058 104.926 112.903 104.926 112.737V107.247C104.926 106.843 104.473 106.606 104.141 106.836L103.709 107.135C103.574 107.228 103.493 107.382 103.493 107.546V113.032ZM106.786 110.784C106.786 111.186 107.236 111.423 107.567 111.198L108 110.903C108.137 110.81 108.219 110.655 108.219 110.49V104.966C108.219 104.563 107.766 104.326 107.434 104.555L107.002 104.855C106.867 104.948 106.786 105.102 106.786 105.266V110.784ZM110.079 108.504C110.079 108.905 110.528 109.143 110.86 108.917L111.293 108.623C111.429 108.53 111.511 108.375 111.511 108.209V102.653C111.511 102.249 111.058 102.012 110.727 102.242L110.294 102.541C110.159 102.634 110.079 102.788 110.079 102.952V108.504ZM113.372 106.256C113.372 106.658 113.821 106.896 114.153 106.67L114.586 106.375C114.722 106.282 114.804 106.127 114.804 105.962V100.372C114.804 99.969 114.351 99.7316 114.02 99.9612L113.587 100.26C113.452 100.354 113.372 100.508 113.372 100.672V106.256ZM116.665 103.992C116.665 104.394 117.114 104.632 117.446 104.406L117.878 104.111C118.015 104.018 118.097 103.864 118.097 103.698V98.0753C118.097 97.672 117.644 97.4346 117.312 97.6642L116.88 97.9635C116.745 98.0569 116.665 98.2105 116.665 98.3746V103.992ZM119.957 101.712C119.957 102.113 120.407 102.351 120.739 102.125L121.171 101.831C121.308 101.738 121.39 101.583 121.39 101.418V95.7618C121.39 95.3584 120.937 95.1211 120.605 95.3507L120.173 95.65C120.038 95.7433 119.957 95.897 119.957 96.0611V101.712ZM123.466 93.3364C123.331 93.4298 123.25 93.5834 123.25 93.7475V99.4314C123.25 99.8329 123.7 100.071 124.032 99.8447L124.464 99.5504C124.601 99.4573 124.683 99.3025 124.683 99.1371V93.4482C124.683 93.0449 124.23 92.8076 123.898 93.0371L123.466 93.3364Z" fill="#131727"/>
<path d="M93.6148 104.687C93.6148 104.523 93.6953 104.369 93.8303 104.276L94.2626 103.977C94.5942 103.747 95.0472 103.985 95.0472 104.388V109.782C95.0472 109.946 94.9667 110.099 94.8318 110.193L94.3994 110.492C94.0678 110.722 93.6148 110.484 93.6148 110.081V104.687ZM96.9077 107.81C96.9077 108.211 97.3571 108.449 97.689 108.223L98.1214 107.929C98.2582 107.836 98.34 107.681 98.34 107.515V102.091C98.34 101.688 97.8871 101.45 97.5555 101.68L97.1231 101.979C96.9882 102.072 96.9077 102.226 96.9077 102.39V107.81ZM100.2 105.546C100.2 105.947 100.65 106.185 100.982 105.959L101.414 105.665C101.551 105.572 101.633 105.417 101.633 105.251V99.7939C101.633 99.3905 101.18 99.1532 100.848 99.3828L100.416 99.6821C100.281 99.7754 100.2 99.9291 100.2 100.093V105.546ZM103.493 103.265C103.493 103.667 103.943 103.904 104.275 103.679L104.707 103.384C104.844 103.291 104.926 103.136 104.926 102.971V97.4803C104.926 97.077 104.473 96.8397 104.141 97.0692L103.709 97.3685C103.574 97.4619 103.493 97.6155 103.493 97.7796V103.265ZM106.786 101.018C106.786 101.419 107.236 101.657 107.568 101.431L108 101.137C108.137 101.044 108.219 100.889 108.219 100.723V95.1999C108.219 94.7965 107.766 94.5592 107.434 94.7887L107.002 95.088C106.867 95.1814 106.786 95.3351 106.786 95.4991V101.018ZM110.079 98.7373C110.079 99.1388 110.528 99.3765 110.86 99.1506L111.293 98.8563C111.43 98.7632 111.511 98.6084 111.511 98.443V92.8863C111.511 92.483 111.058 92.2457 110.727 92.4752L110.294 92.7745C110.16 92.8679 110.079 93.0215 110.079 93.1856V98.7373ZM113.372 96.4898C113.372 96.8914 113.821 97.1291 114.153 96.9032L114.586 96.6089C114.722 96.5157 114.804 96.361 114.804 96.1955V90.6058C114.804 90.2025 114.351 89.9652 114.02 90.1947L113.587 90.494C113.452 90.5874 113.372 90.741 113.372 90.9051V96.4898ZM116.665 94.2259C116.665 94.6274 117.114 94.8651 117.446 94.6392L117.878 94.3449C118.015 94.2518 118.097 94.097 118.097 93.9316V88.3088C118.097 87.9055 117.644 87.6682 117.312 87.8977L116.88 88.197C116.745 88.2904 116.665 88.444 116.665 88.6081V94.2259ZM119.958 91.9454C119.958 92.3469 120.407 92.5847 120.739 92.3587L121.171 92.0644C121.308 91.9713 121.39 91.8165 121.39 91.6511V85.9953C121.39 85.592 120.937 85.3546 120.605 85.5842L120.173 85.8835C120.038 85.9769 119.958 86.1305 119.958 86.2946V91.9454ZM123.466 83.5699C123.331 83.6633 123.25 83.817 123.25 83.981V89.6649C123.25 90.0664 123.7 90.3042 124.032 90.0782L124.464 89.7839C124.601 89.6908 124.683 89.5361 124.683 89.3706V83.6818C124.683 83.2784 124.23 83.0411 123.898 83.2706L123.466 83.5699Z" fill="#131727"/>
<path d="M93.3497 114.011C93.3497 113.847 93.4302 113.694 93.5651 113.6L93.9975 113.301C94.3291 113.071 94.782 113.309 94.782 113.712V119.106C94.782 119.27 94.7015 119.424 94.5666 119.517L94.1342 119.816C93.8026 120.046 93.3497 119.809 93.3497 119.405V114.011ZM96.6425 117.134C96.6425 117.535 97.0919 117.773 97.4238 117.547L97.8562 117.253C97.993 117.16 98.0749 117.005 98.0749 116.84V111.415C98.0749 111.012 97.6219 110.774 97.2903 111.004L96.8579 111.303C96.723 111.397 96.6425 111.55 96.6425 111.714V117.134ZM99.9353 114.87C99.9353 115.271 100.385 115.509 100.717 115.283L101.149 114.989C101.286 114.896 101.368 114.741 101.368 114.576V109.118C101.368 108.715 100.915 108.477 100.583 108.707L100.151 109.006C100.016 109.1 99.9353 109.253 99.9353 109.417V114.87ZM103.228 112.589C103.228 112.991 103.678 113.229 104.01 113.003L104.442 112.708C104.579 112.615 104.661 112.461 104.661 112.295V106.805C104.661 106.401 104.208 106.164 103.876 106.393L103.444 106.693C103.309 106.786 103.228 106.94 103.228 107.104V112.589ZM106.521 110.342C106.521 110.743 106.97 110.981 107.302 110.755L107.735 110.461C107.872 110.368 107.953 110.213 107.953 110.048V104.524C107.953 104.121 107.5 103.883 107.169 104.113L106.736 104.412C106.601 104.506 106.521 104.659 106.521 104.823V110.342ZM109.814 108.061C109.814 108.463 110.263 108.701 110.595 108.475L111.028 108.181C111.164 108.087 111.246 107.933 111.246 107.767V102.211C111.246 101.807 110.793 101.57 110.462 101.799L110.029 102.099C109.894 102.192 109.814 102.346 109.814 102.51V108.061ZM113.107 105.814C113.107 106.216 113.556 106.453 113.888 106.227L114.32 105.933C114.457 105.84 114.539 105.685 114.539 105.52V99.93C114.539 99.5267 114.086 99.2894 113.754 99.5189L113.322 99.8182C113.187 99.9116 113.107 100.065 113.107 100.229V105.814ZM116.399 103.55C116.399 103.952 116.849 104.189 117.181 103.963L117.613 103.669C117.75 103.576 117.832 103.421 117.832 103.256V97.633C117.832 97.2297 117.379 96.9924 117.047 97.2219L116.615 97.5212C116.48 97.6146 116.399 97.7683 116.399 97.9323V103.55ZM119.692 101.27C119.692 101.671 120.142 101.909 120.474 101.683L120.906 101.389C121.043 101.296 121.125 101.141 121.125 100.975V95.3195C121.125 94.9162 120.672 94.6788 120.34 94.9084L119.908 95.2077C119.773 95.3011 119.692 95.4547 119.692 95.6188V101.27ZM123.201 92.8942C123.066 92.9875 122.985 93.1412 122.985 93.3053V98.9891C122.985 99.3906 123.435 99.6284 123.767 99.4024L124.199 99.1081C124.336 99.015 124.418 98.8603 124.418 98.6948V93.006C124.418 92.6027 123.965 92.3653 123.633 92.5949L123.201 92.8942Z" fill="#2FAAAF"/>
<path d="M93.3496 104.245C93.3496 104.081 93.4301 103.927 93.5651 103.834L93.9974 103.535C94.3291 103.305 94.782 103.542 94.782 103.946V109.34C94.782 109.504 94.7015 109.657 94.5666 109.751L94.1342 110.05C93.8026 110.279 93.3496 110.042 93.3496 109.639V104.245ZM96.6425 107.367C96.6425 107.769 97.0919 108.007 97.4238 107.781L97.8562 107.486C97.993 107.393 98.0748 107.239 98.0748 107.073V101.649C98.0748 101.245 97.6219 101.008 97.2903 101.237L96.8579 101.537C96.723 101.63 96.6425 101.784 96.6425 101.948V107.367ZM99.9353 105.103C99.9353 105.505 100.385 105.743 100.717 105.517L101.149 105.222C101.286 105.129 101.368 104.975 101.368 104.809V99.3516C101.368 98.9483 100.915 98.7109 100.583 98.9405L100.151 99.2398C100.016 99.3332 99.9353 99.4868 99.9353 99.6509V105.103ZM103.228 102.823C103.228 103.224 103.678 103.462 104.009 103.236L104.442 102.942C104.579 102.849 104.661 102.694 104.661 102.529V97.0381C104.661 96.6348 104.208 96.3974 103.876 96.627L103.444 96.9263C103.309 97.0196 103.228 97.1733 103.228 97.3374V102.823ZM106.521 100.575C106.521 100.977 106.97 101.215 107.302 100.989L107.735 100.695C107.871 100.601 107.953 100.447 107.953 100.281V94.7576C107.953 94.3543 107.5 94.1169 107.169 94.3465L106.736 94.6458C106.601 94.7392 106.521 94.8928 106.521 95.0569V100.575ZM109.814 98.295C109.814 98.6965 110.263 98.9343 110.595 98.7083L111.028 98.414C111.164 98.3209 111.246 98.1662 111.246 98.0007V92.4441C111.246 92.0407 110.793 91.8034 110.462 92.0329L110.029 92.3322C109.894 92.4256 109.814 92.5793 109.814 92.7434V98.295ZM113.107 96.0476C113.107 96.4491 113.556 96.6868 113.888 96.4609L114.32 96.1666C114.457 96.0735 114.539 95.9187 114.539 95.7533V90.1636C114.539 89.7603 114.086 89.5229 113.754 89.7525L113.322 90.0518C113.187 90.1451 113.107 90.2988 113.107 90.4629V96.0476ZM116.399 93.7836C116.399 94.1851 116.849 94.4229 117.181 94.1969L117.613 93.9026C117.75 93.8095 117.832 93.6548 117.832 93.4893V87.8666C117.832 87.4632 117.379 87.2259 117.047 87.4554L116.615 87.7547C116.48 87.8481 116.399 88.0018 116.399 88.1659V93.7836ZM119.692 91.5031C119.692 91.9047 120.142 92.1424 120.474 91.9165L120.906 91.6221C121.043 91.529 121.125 91.3743 121.125 91.2088V85.553C121.125 85.1497 120.672 84.9124 120.34 85.1419L119.908 85.4412C119.773 85.5346 119.692 85.6882 119.692 85.8523V91.5031ZM123.201 83.1277C123.066 83.2211 122.985 83.3747 122.985 83.5388V89.2226C122.985 89.6242 123.435 89.8619 123.766 89.636L124.199 89.3417C124.336 89.2486 124.418 89.0938 124.418 88.9283V83.2395C124.418 82.8362 123.965 82.5988 123.633 82.8284L123.201 83.1277Z" fill="#2FAAAF"/>
<path d="M58.0305 124.69L9.04151 93.2444C7.57546 92.3031 6.38945 89.841 6.38945 87.741V79.1962C6.38945 77.1143 7.59194 76.173 9.04151 77.1143L58.0305 108.56C59.4966 109.501 60.6826 111.963 60.6826 114.063V122.608C60.6826 124.69 59.4801 125.631 58.0305 124.69Z" fill="url(#paint2_linear)"/>
<path d="M22.1865 96.1771L23.3231 96.9013V91.8142L22.1865 91.0901V96.1771Z" fill="#051E33"/>
<path d="M25.2504 98.1323L26.3705 98.8564V93.7875L25.2504 93.0453V98.1323Z" fill="#051E33"/>
<path d="M28.2978 100.087L29.4179 100.812V95.7427L28.2978 95.0185V100.087Z" fill="#051E33"/>
<path d="M31.3452 102.043L32.4653 102.767V97.6978L31.3452 96.9737V102.043Z" fill="#051E33"/>
<path d="M34.3926 103.998L35.5292 104.722V99.653L34.3926 98.9289V103.998Z" fill="#051E33"/>
<path d="M37.44 105.953L38.5766 106.677V101.608L37.44 100.884V105.953Z" fill="#051E33"/>
<path d="M40.4874 107.908L41.624 108.632V103.563L40.4874 102.839V107.908Z" fill="#051E33"/>
<path d="M43.5348 109.863L44.6714 110.606V105.518L43.5348 104.794V109.863Z" fill="#051E33"/>
<path d="M46.5822 111.837L47.7188 112.561V107.474L46.5822 106.75V111.837Z" fill="#051E33"/>
<path d="M49.6296 113.792L50.7662 114.516V109.429L49.6296 108.705V113.792Z" fill="#051E33"/>
<path d="M52.677 110.66V115.747L53.8136 116.471V111.384L52.677 110.66Z" fill="#051E33"/>
<path d="M22.1627 91.086V96.1632L21.6014 95.8438V90.7666L22.1627 91.086Z" fill="#8A99CD"/>
<path d="M17.0142 90.3116C17.0142 91.7961 16.1741 92.4478 15.1363 91.7961C14.0985 91.1263 13.2585 89.3884 13.2585 87.9039C13.2585 86.4194 14.0985 85.7677 15.1363 86.4194C16.1741 87.0711 17.0142 88.8272 17.0142 90.3116Z" fill="#2ED8CF"/>
<path d="M3.07816 30.1831V56.933C3.07816 59.6396 4.62579 62.1507 7.14481 63.5491L61.4601 96.5241C67.1073 99.6667 74.1869 99.6667 79.8341 96.5241L132.009 64.5281C134.528 63.1147 136.076 60.6036 136.076 57.912V30.1831H3.07816Z" fill="url(#paint3_linear)"/>
<path d="M133.359 34.1408L80.1802 63.8228C74.3189 67.0858 66.943 67.0858 61.0817 63.8228L4.92244 32.4868C2.14 30.938 2.43635 27.1639 5.43283 25.991L64.6051 2.86492C68.4577 1.36127 72.8042 1.36127 76.6404 2.86492L132.619 24.743C136.965 26.4271 137.393 31.8853 133.359 34.1408Z" fill="url(#paint4_linear)"/>
<path d="M133.359 32.4036L80.1802 62.0857C74.3189 65.3486 66.943 65.3486 61.0817 62.0857L4.92244 30.7496C2.14 29.2009 2.43635 25.4267 5.43283 24.2539L64.6051 1.12774C68.4577 -0.375912 72.8042 -0.375912 76.6404 1.12774L132.619 23.0058C136.965 24.6899 137.393 30.1482 133.359 32.4036Z" fill="url(#paint5_linear)"/>
<path d="M93.6148 75.6738C93.6148 75.502 93.703 75.3423 93.8483 75.2507L94.2807 74.9784C94.6137 74.7687 95.0472 75.008 95.0472 75.4015V80.2342C95.0472 80.406 94.959 80.5658 94.8137 80.6573L94.3813 80.9296C94.0483 81.1394 93.6148 80.9001 93.6148 80.5066V75.6738ZM96.9076 78.4396C96.9076 78.8314 97.3378 79.0709 97.6709 78.8646L98.1033 78.5968C98.2505 78.5057 98.34 78.3449 98.34 78.1718V73.3114C98.34 72.9179 97.9065 72.6786 97.5735 72.8883L97.1412 73.1607C96.9958 73.2522 96.9076 73.4119 96.9076 73.5837V78.4396ZM100.2 76.3796C100.2 76.7714 100.631 77.0109 100.964 76.8046L101.396 76.5368C101.543 76.4457 101.633 76.2849 101.633 76.1118V71.2213C101.633 70.8278 101.199 70.5885 100.866 70.7982L100.434 71.0706C100.289 71.1621 100.2 71.3219 100.2 71.4937V76.3796ZM103.493 74.3045C103.493 74.6963 103.923 74.9359 104.257 74.7296L104.689 74.4618C104.836 74.3706 104.926 74.2099 104.926 74.0367V69.1162C104.926 68.7227 104.492 68.4834 104.159 68.6931L103.727 68.9655C103.581 69.057 103.493 69.2168 103.493 69.3885V74.3045ZM106.786 72.2596C106.786 72.6514 107.216 72.8909 107.549 72.6846L107.982 72.4168C108.129 72.3257 108.219 72.1649 108.219 71.9918V67.0412C108.219 66.6477 107.785 66.4084 107.452 66.6181L107.02 66.8904C106.874 66.982 106.786 67.1417 106.786 67.3135V72.2596ZM110.079 70.1845C110.079 70.5763 110.509 70.8159 110.842 70.6096L111.275 70.3418C111.422 70.2506 111.511 70.0898 111.511 69.9167V64.9361C111.511 64.5426 111.078 64.3033 110.745 64.513L110.313 64.7853C110.167 64.8769 110.079 65.0366 110.079 65.2084V70.1845ZM113.372 68.1396C113.372 68.5314 113.802 68.7709 114.135 68.5646L114.567 68.2968C114.715 68.2057 114.804 68.0449 114.804 67.8718V62.861C114.804 62.4675 114.371 62.2282 114.038 62.438L113.605 62.7103C113.46 62.8018 113.372 62.9616 113.372 63.1334V68.1396ZM116.665 66.0796C116.665 66.4714 117.095 66.7109 117.428 66.5046L117.86 66.2368C118.007 66.1457 118.097 65.9849 118.097 65.8118V60.771C118.097 60.3775 117.664 60.1382 117.331 60.3479L116.898 60.6202C116.753 60.7118 116.665 60.8715 116.665 61.0433V66.0796ZM119.957 64.0045C119.957 64.3963 120.388 64.6359 120.721 64.4296L121.153 64.1618C121.3 64.0707 121.39 63.9099 121.39 63.7367V58.6659C121.39 58.2724 120.956 58.0331 120.623 58.2428L120.191 58.5151C120.046 58.6067 119.957 58.7664 119.957 58.9382V64.0045ZM123.484 56.41C123.338 56.5016 123.25 56.6613 123.25 56.8331V61.9295C123.25 62.3213 123.68 62.5609 124.014 62.3546L124.446 62.0868C124.593 61.9956 124.683 61.8348 124.683 61.6617V56.5607C124.683 56.1672 124.249 55.928 123.916 56.1377L123.484 56.41Z" fill="#131727"/>
<path d="M93.6148 66.7872C93.6148 66.6154 93.703 66.4557 93.8484 66.3641L94.2807 66.0918C94.6137 65.8821 95.0472 66.1214 95.0472 66.5149V71.3476C95.0472 71.5194 94.959 71.6792 94.8137 71.7707L94.3813 72.043C94.0483 72.2528 93.6148 72.0135 93.6148 71.62V66.7872ZM96.9077 69.553C96.9077 69.9448 97.3378 70.1843 97.6709 69.978L98.1033 69.7102C98.2505 69.6191 98.34 69.4583 98.34 69.2852V64.4248C98.34 64.0313 97.9065 63.792 97.5736 64.0017L97.1412 64.2741C96.9958 64.3656 96.9077 64.5254 96.9077 64.6971V69.553ZM100.2 67.493C100.2 67.8848 100.631 68.1243 100.964 67.918L101.396 67.6502C101.543 67.5591 101.633 67.3983 101.633 67.2252V62.3347C101.633 61.9412 101.199 61.7019 100.866 61.9116L100.434 62.184C100.289 62.2755 100.2 62.4353 100.2 62.6071V67.493ZM103.493 65.4179C103.493 65.8097 103.924 66.0493 104.257 65.843L104.689 65.5752C104.836 65.4841 104.926 65.3233 104.926 65.1501V60.2296C104.926 59.8361 104.492 59.5968 104.159 59.8065L103.727 60.0789C103.582 60.1704 103.493 60.3302 103.493 60.5019V65.4179ZM106.786 63.373C106.786 63.7648 107.216 64.0043 107.549 63.798L107.982 63.5302C108.129 63.4391 108.219 63.2783 108.219 63.1052V58.1546C108.219 57.7611 107.785 57.5218 107.452 57.7315L107.02 58.0038C106.874 58.0954 106.786 58.2551 106.786 58.4269V63.373ZM110.079 61.2979C110.079 61.6897 110.509 61.9293 110.842 61.723L111.275 61.4552C111.422 61.3641 111.511 61.2033 111.511 61.0301V56.0495C111.511 55.656 111.078 55.4167 110.745 55.6264L110.313 55.8987C110.167 55.9903 110.079 56.15 110.079 56.3218V61.2979ZM113.372 59.253C113.372 59.6448 113.802 59.8843 114.135 59.678L114.567 59.4102C114.715 59.3191 114.804 59.1583 114.804 58.9852V53.9744C114.804 53.5809 114.371 53.3416 114.038 53.5514L113.605 53.8237C113.46 53.9152 113.372 54.075 113.372 54.2468V59.253ZM116.665 57.193C116.665 57.5848 117.095 57.8243 117.428 57.618L117.86 57.3502C118.007 57.2591 118.097 57.0983 118.097 56.9252V51.8844C118.097 51.4909 117.664 51.2516 117.331 51.4613L116.898 51.7336C116.753 51.8252 116.665 51.9849 116.665 52.1567V57.193ZM119.958 55.1179C119.958 55.5097 120.388 55.7493 120.721 55.543L121.153 55.2752C121.3 55.1841 121.39 55.0233 121.39 54.8501V49.7793C121.39 49.3858 120.956 49.1465 120.623 49.3562L120.191 49.6285C120.046 49.7201 119.958 49.8798 119.958 50.0516V55.1179ZM123.484 47.5234C123.339 47.615 123.25 47.7747 123.25 47.9465V53.0429C123.25 53.4347 123.681 53.6743 124.014 53.468L124.446 53.2002C124.593 53.109 124.683 52.9482 124.683 52.7751V47.6742C124.683 47.2807 124.249 47.0414 123.916 47.2511L123.484 47.5234Z" fill="#131727"/>
<path d="M93.3497 75.2715C93.3497 75.0997 93.4378 74.9399 93.5832 74.8484L94.0156 74.576C94.3485 74.3663 94.782 74.6056 94.782 74.9991V79.8319C94.782 80.0037 94.6939 80.1634 94.5485 80.255L94.1161 80.5273C93.7832 80.737 93.3497 80.4977 93.3497 80.1042V75.2715ZM96.6425 78.0372C96.6425 78.429 97.0727 78.6686 97.4058 78.4623L97.8381 78.1945C97.9853 78.1033 98.0749 77.9425 98.0749 77.7694V72.909C98.0749 72.5155 97.6413 72.2763 97.3084 72.486L96.876 72.7583C96.7307 72.8499 96.6425 73.0096 96.6425 73.1814V78.0372ZM99.9353 75.9772C99.9353 76.369 100.366 76.6086 100.699 76.4023L101.131 76.1345C101.278 76.0433 101.368 75.8825 101.368 75.7094V70.819C101.368 70.4255 100.934 70.1862 100.601 70.3959L100.169 70.6682C100.024 70.7598 99.9353 70.9195 99.9353 71.0913V75.9772ZM103.228 73.9022C103.228 74.294 103.658 74.5336 103.991 74.3273L104.424 74.0595C104.571 73.9683 104.661 73.8075 104.661 73.6344V68.7139C104.661 68.3204 104.227 68.0811 103.894 68.2908L103.462 68.5631C103.316 68.6547 103.228 68.8144 103.228 68.9862V73.9022ZM106.521 71.8572C106.521 72.249 106.951 72.4886 107.284 72.2823L107.717 72.0145C107.864 71.9233 107.953 71.7625 107.953 71.5894V66.6388C107.953 66.2453 107.52 66.006 107.187 66.2158L106.755 66.4881C106.609 66.5796 106.521 66.7394 106.521 66.9112V71.8572ZM109.814 69.7822C109.814 70.174 110.244 70.4136 110.577 70.2073L111.009 69.9395C111.157 69.8483 111.246 69.6875 111.246 69.5144V64.5337C111.246 64.1402 110.813 63.9009 110.48 64.1107L110.047 64.383C109.902 64.4745 109.814 64.6343 109.814 64.8061V69.7822ZM113.107 67.7372C113.107 68.129 113.537 68.3686 113.87 68.1623L114.302 67.8945C114.449 67.8033 114.539 67.6425 114.539 67.4694V62.4587C114.539 62.0652 114.106 61.8259 113.773 62.0356L113.34 62.308C113.195 62.3995 113.107 62.5592 113.107 62.731V67.7372ZM116.399 65.6772C116.399 66.069 116.83 66.3086 117.163 66.1023L117.595 65.8345C117.742 65.7433 117.832 65.5825 117.832 65.4094V60.3686C117.832 59.9751 117.398 59.7358 117.065 59.9455L116.633 60.2179C116.488 60.3094 116.399 60.4692 116.399 60.641V65.6772ZM119.692 63.6022C119.692 63.994 120.123 64.2336 120.456 64.0273L120.888 63.7595C121.035 63.6683 121.125 63.5075 121.125 63.3344V58.2635C121.125 57.87 120.691 57.6307 120.358 57.8404L119.926 58.1128C119.781 58.2043 119.692 58.3641 119.692 58.5358V63.6022ZM123.219 56.0077C123.073 56.0992 122.985 56.259 122.985 56.4307V61.5272C122.985 61.919 123.415 62.1585 123.748 61.9522L124.181 61.6844C124.328 61.5933 124.418 61.4325 124.418 61.2594V56.1584C124.418 55.7649 123.984 55.5256 123.651 55.7353L123.219 56.0077Z" fill="#2FAAAF"/>
<path d="M93.3496 66.3849C93.3496 66.2131 93.4378 66.0533 93.5832 65.9618L94.0155 65.6894C94.3485 65.4797 94.782 65.719 94.782 66.1125V70.9453C94.782 71.1171 94.6938 71.2768 94.5485 71.3684L94.1161 71.6407C93.7832 71.8504 93.3496 71.6111 93.3496 71.2176V66.3849ZM96.6425 69.1506C96.6425 69.5424 97.0727 69.782 97.4057 69.5757L97.8381 69.3079C97.9853 69.2167 98.0748 69.0559 98.0748 68.8828V64.0225C98.0748 63.629 97.6413 63.3897 97.3084 63.5994L96.876 63.8717C96.7307 63.9633 96.6425 64.123 96.6425 64.2948V69.1506ZM99.9353 67.0906C99.9353 67.4824 100.365 67.722 100.699 67.5157L101.131 67.2479C101.278 67.1567 101.368 66.9959 101.368 66.8228V61.9324C101.368 61.5389 100.934 61.2996 100.601 61.5093L100.169 61.7816C100.023 61.8732 99.9353 62.0329 99.9353 62.2047V67.0906ZM103.228 65.0156C103.228 65.4074 103.658 65.647 103.991 65.4407L104.424 65.1729C104.571 65.0817 104.661 64.9209 104.661 64.7478V59.8273C104.661 59.4338 104.227 59.1945 103.894 59.4042L103.462 59.6765C103.316 59.7681 103.228 59.9278 103.228 60.0996V65.0156ZM106.521 62.9706C106.521 63.3624 106.951 63.602 107.284 63.3957L107.717 63.1279C107.864 63.0367 107.953 62.8759 107.953 62.7028V57.7522C107.953 57.3587 107.52 57.1194 107.187 57.3292L106.755 57.6015C106.609 57.693 106.521 57.8528 106.521 58.0246V62.9706ZM109.814 60.8956C109.814 61.2874 110.244 61.527 110.577 61.3207L111.009 61.0529C111.157 60.9617 111.246 60.8009 111.246 60.6278V55.6471C111.246 55.2536 110.813 55.0143 110.48 55.2241L110.047 55.4964C109.902 55.5879 109.814 55.7477 109.814 55.9195V60.8956ZM113.107 58.8506C113.107 59.2424 113.537 59.482 113.87 59.2757L114.302 59.0079C114.449 58.9167 114.539 58.7559 114.539 58.5828V53.5721C114.539 53.1786 114.106 52.9393 113.773 53.149L113.34 53.4214C113.195 53.5129 113.107 53.6727 113.107 53.8444V58.8506ZM116.399 56.7906C116.399 57.1824 116.83 57.422 117.163 57.2157L117.595 56.9479C117.742 56.8567 117.832 56.6959 117.832 56.5228V51.482C117.832 51.0885 117.398 50.8492 117.065 51.059L116.633 51.3313C116.488 51.4228 116.399 51.5826 116.399 51.7544V56.7906ZM119.692 54.7156C119.692 55.1074 120.122 55.347 120.456 55.1407L120.888 54.8729C121.035 54.7817 121.125 54.6209 121.125 54.4478V49.3769C121.125 48.9834 120.691 48.7441 120.358 48.9538L119.926 49.2262C119.78 49.3177 119.692 49.4775 119.692 49.6492V54.7156ZM123.219 47.1211C123.073 47.2126 122.985 47.3724 122.985 47.5441V52.6406C122.985 53.0324 123.415 53.2719 123.748 53.0656L124.181 52.7978C124.328 52.7067 124.418 52.5459 124.418 52.3728V47.2718C124.418 46.8783 123.984 46.639 123.651 46.8487L123.219 47.1211Z" fill="#2FAAAF"/>
<path d="M58.0305 84.9505L9.04151 56.3379C7.57546 55.4814 6.38945 53.2411 6.38945 51.3303V43.5553C6.38945 41.661 7.59194 40.8044 9.04151 41.661L58.0305 70.2736C59.4966 71.1302 60.6826 73.3704 60.6826 75.2812V83.0562C60.6826 84.9505 59.4801 85.8071 58.0305 84.9505Z" fill="url(#paint6_linear)"/>
<path d="M22.1865 59.0064L23.3231 59.6653V55.0366L22.1865 54.3777V59.0064Z" fill="#051E33"/>
<path d="M25.2504 60.7855L26.3705 61.4444V56.8321L25.2504 56.1567V60.7855Z" fill="#051E33"/>
<path d="M28.2978 62.5645L29.4179 63.2234V58.6111L28.2978 57.9522V62.5645Z" fill="#051E33"/>
<path d="M31.3452 64.3435L32.4653 65.0024V60.3901L31.3452 59.7312V64.3435Z" fill="#051E33"/>
<path d="M34.3926 66.1225L35.5292 66.7814V62.1692L34.3926 61.5103V66.1225Z" fill="#051E33"/>
<path d="M37.44 67.9016L38.5766 68.5605V63.9482L37.44 63.2893V67.9016Z" fill="#051E33"/>
<path d="M40.4874 69.6806L41.624 70.3395V65.7272L40.4874 65.0683V69.6806Z" fill="#051E33"/>
<path d="M43.5348 71.4596L44.6714 72.135V67.5062L43.5348 66.8473V71.4596Z" fill="#051E33"/>
<path d="M46.5822 73.2551L47.7188 73.914V69.2852L46.5822 68.6263V73.2551Z" fill="#051E33"/>
<path d="M49.6296 75.0341L50.7662 75.693V71.0643L49.6296 70.4054V75.0341Z" fill="#051E33"/>
<path d="M52.677 72.1844V76.8131L53.8136 77.472V72.8433L52.677 72.1844Z" fill="#051E33"/>
<path d="M22.1627 54.3739V58.9937L21.6014 58.703V54.0833L22.1627 54.3739Z" fill="#8A99CD"/>
<path d="M17.0142 53.6693C17.0142 55.0201 16.1741 55.6131 15.1363 55.0201C14.0985 54.4106 13.2585 52.8292 13.2585 51.4785C13.2585 50.1278 14.0985 49.5348 15.1363 50.1278C16.1741 50.7208 17.0142 52.3186 17.0142 53.6693Z" fill="#2ED8CF"/>
</g>
<defs>
<linearGradient id="paint0_linear" x1="2.89847" y1="102.25" x2="129.581" y2="102.25" gradientUnits="userSpaceOnUse">
<stop stop-color="#475375"/>
<stop offset="0.406195" stop-color="#2E354E"/>
<stop offset="0.522558" stop-color="#3C4661"/>
<stop offset="0.642676" stop-color="#2C3045"/>
</linearGradient>
<linearGradient id="paint1_linear" x1="6.32867" y1="60.9205" x2="132.343" y2="58.0779" gradientUnits="userSpaceOnUse">
<stop stop-color="#8D9ABC"/>
<stop offset="0.995" stop-color="#4C6299"/>
</linearGradient>
<linearGradient id="paint2_linear" x1="6.38945" y1="100.902" x2="60.6826" y2="100.902" gradientUnits="userSpaceOnUse">
<stop stop-color="#6C7699"/>
<stop offset="1" stop-color="#6A7497"/>
</linearGradient>
<linearGradient id="paint3_linear" x1="2.89847" y1="64.5321" x2="129.581" y2="64.5321" gradientUnits="userSpaceOnUse">
<stop stop-color="#475375"/>
<stop offset="0.406195" stop-color="#2E354E"/>
<stop offset="0.522558" stop-color="#3C4661"/>
<stop offset="0.642676" stop-color="#2C3045"/>
</linearGradient>
<linearGradient id="paint4_linear" x1="6.32867" y1="28.6631" x2="132.33" y2="25.5394" gradientUnits="userSpaceOnUse">
<stop stop-color="#545F7C"/>
<stop offset="0.494792" stop-color="#45516D"/>
<stop offset="0.995" stop-color="#344265"/>
</linearGradient>
<linearGradient id="paint5_linear" x1="30.9021" y1="45.5245" x2="104.662" y2="7.52895" gradientUnits="userSpaceOnUse">
<stop stop-color="#687699"/>
<stop offset="0.995" stop-color="#49587E"/>
</linearGradient>
<linearGradient id="paint6_linear" x1="6.38945" y1="63.3058" x2="60.6826" y2="63.3058" gradientUnits="userSpaceOnUse">
<stop stop-color="#6C7699"/>
<stop offset="1" stop-color="#6A7497"/>
</linearGradient>
<clipPath id="clip0">
<rect x="3" width="133.15" height="140" fill="white"/>
</clipPath>
</defs>
</svg>
