<svg width="140" height="140" viewBox="0 0 140 140" fill="none" xmlns="http://www.w3.org/2000/svg">
<path d="M132.106 71.3343L122.141 67.9484C120.968 61.9655 118.89 56.0596 116.024 50.4615L123.065 45.325C125.046 43.863 125.046 40.4387 123.045 37.6877L116.678 28.8768C114.677 26.1259 111.426 25.0678 109.406 26.5299L102.346 31.6663C97.8826 27.2609 92.9 23.4711 87.5712 20.5277L87.475 10.1202C87.4558 7.17681 85.128 4.06031 82.2616 3.15615L73.1622 0.270503C70.2958 -0.633665 68.0258 1.00153 68.045 3.92565L68.1605 14.2947C62.8316 13.7561 57.8683 14.2947 53.4822 15.7568L46.2488 6.17645C44.1904 3.46395 40.92 2.40588 38.9385 3.81023L32.6093 8.23488C30.6279 9.61999 30.6856 12.9289 32.7248 15.6414L39.9773 25.2409C37.2071 28.8191 35.1872 33.1668 34.1291 38.1879L24.0678 34.7636C21.2207 33.8017 18.9699 35.3599 19.0276 38.2071L19.2007 47.3834C19.2584 50.2691 21.6054 53.3856 24.4526 54.3667L34.4946 57.8679C35.7451 63.6777 37.8997 69.4682 40.8238 75.0087L33.879 79.7411C31.9168 81.0685 31.9745 84.3774 33.9944 87.1476L40.4583 95.9777C42.4782 98.7479 45.6909 99.9214 47.6724 98.594L54.5979 93.8615C59.0226 98.3631 63.9859 102.307 69.2378 105.404L69.3532 115.773C69.3917 118.697 71.7002 121.91 74.4704 122.93L83.3967 126.238C86.1861 127.258 88.4369 125.719 88.3984 122.776L88.3023 112.349C93.5349 113.041 98.4212 112.637 102.769 111.252L109.81 121.217C111.791 124.045 114.985 125.2 116.966 123.815L123.238 119.371C125.219 117.966 125.2 114.542 123.219 111.733L116.178 101.71C118.967 98.0553 121.025 93.5537 122.16 88.3403L132.106 91.7839C134.915 92.7458 137.185 91.1105 137.185 88.1095V78.5291C137.204 75.4704 134.915 72.2769 132.106 71.3343ZM78.5295 82.5883C68.2182 78.9716 59.7151 67.3521 59.5612 56.656C59.4073 45.9599 67.7372 40.1116 78.1255 43.5936C88.5139 47.0564 96.9592 58.6567 97.0554 69.5067C97.1516 80.3567 88.8409 86.2242 78.5295 82.5883Z" fill="url(#paint0_linear)"/>
<path d="M20.682 31.2239L2.11768 48.7109L17.0653 52.9239L22.1248 43.5744L20.682 31.2239Z" fill="url(#paint1_linear)"/>
<path d="M20.7974 17.2383L32.4938 8.31201L48.9228 11.2169L39.7272 27.9344L35.2641 29.5503L20.7974 17.2383Z" fill="url(#paint2_linear)"/>
<path d="M69.3339 0.828483L51.4622 14.1217L69.0838 22.8363L87.3211 9.31227C86.7824 5.79179 84.724 4.29125 82.6463 3.31014L72.5466 0.116691C71.7001 -0.171873 70.2188 0.078216 69.3339 0.828483Z" fill="url(#paint3_linear)"/>
<path d="M109.233 26.6838L91.0917 40.1116L104.077 59.4262L121.218 46.8448C124.834 44.4016 125.469 41.2274 123.488 38.3033L116.139 28.1073C114.6 26.5876 111.464 24.8754 109.233 26.6838Z" fill="url(#paint4_linear)"/>
<path d="M122.007 67.9678L103.962 81.3572L117.813 88.9175L136.492 75.5474L122.007 67.9678Z" fill="url(#paint5_linear)"/>
<path d="M135.338 91.63L117.563 104.923C117.39 105.058 117.159 104.962 117.159 104.769L117.101 88.2249C117.101 88.148 117.139 88.071 117.236 88.0133L135.165 75.3165C135.338 75.2011 135.569 75.2973 135.569 75.4704L135.473 91.3992C135.454 91.4953 135.415 91.5723 135.338 91.63Z" fill="url(#paint6_linear)"/>
<path d="M99.4408 112.157L117.024 104.115L123.507 119.121L105.174 132.818L97.113 115.292L99.4408 112.157Z" fill="url(#paint7_linear)"/>
<path d="M86.6863 125.758L68.9877 139.493L69.0839 121.833L83.8199 121.121L86.6863 125.758Z" fill="url(#paint8_linear)"/>
<path d="M15.0454 94.0348L24.1448 86.2244L24.5873 88.5136L15.0454 94.0348Z" fill="url(#paint9_linear)"/>
<path d="M114.965 84.4074L105 81.0215C103.807 75.0386 101.73 69.1327 98.8633 63.5153L105.885 58.3788C107.867 56.9168 107.867 53.4925 105.866 50.7223L99.4597 41.9114C97.459 39.1605 94.2078 38.1024 92.1879 39.5645L85.1469 44.7009C80.6838 40.2762 75.7012 36.5057 70.3724 33.5623L70.257 23.1163C70.2378 20.1537 67.8908 17.0372 65.0436 16.133L55.9442 13.2474C53.0778 12.3432 50.827 13.9977 50.8462 16.9025L50.9809 27.2716C45.6521 26.733 40.708 27.2716 36.3218 28.7337L29.0885 19.1533C27.0301 16.4408 23.7597 15.3828 21.7782 16.7871L15.4683 21.231C13.4868 22.6161 13.5445 25.925 15.6029 28.6375L22.8747 38.2563C20.1045 41.8345 18.1038 46.2014 17.065 51.2032L7.02293 47.7789C4.17577 46.817 1.92497 48.3753 2.00192 51.2417L2.19429 60.418C2.252 63.3037 4.61823 66.4202 7.44616 67.4013L17.469 70.8641C18.7194 76.6738 20.8933 82.4836 23.8174 88.024L16.8918 92.7565C14.9488 94.0839 15.0065 97.3928 17.0265 100.163L23.4903 108.993C25.5103 111.763 28.723 112.937 30.6852 111.609L37.5915 106.858C42.0354 111.359 46.9795 115.303 52.2313 118.4L52.366 128.769C52.4045 131.713 54.713 134.906 57.5025 135.945L66.4287 139.254C69.2182 140.273 71.469 138.734 71.4305 135.772L71.3151 125.326C76.5477 126.018 81.4148 125.595 85.7625 124.21L92.8227 134.175C94.8042 137.003 98.0169 138.157 99.9791 136.772L106.251 132.309C108.213 130.905 108.213 127.461 106.231 124.652L99.1904 114.63C101.98 110.975 104.019 106.473 105.135 101.26L115.081 104.703C117.889 105.665 120.159 104.03 120.159 101.029L120.14 91.4483C120.063 88.5434 117.774 85.35 114.965 84.4074ZM61.4462 95.7191C51.1348 92.1024 42.6318 80.4829 42.4586 69.7675C42.2855 59.0714 50.5961 53.2039 60.9845 56.6667C71.3728 60.1295 79.8373 71.749 79.9528 82.599C80.0682 93.4683 71.7575 99.3357 61.4462 95.7191Z" fill="url(#paint10_linear)"/>
<path d="M113.965 84.8392L104 81.4534C102.807 75.4705 100.73 69.5646 97.8633 63.9472L104.885 58.8107C106.867 57.3487 106.867 53.9244 104.866 51.1542L98.4597 42.3433C96.459 39.5924 93.2078 38.5343 91.1879 39.9963L84.1469 45.1328C79.6838 40.7081 74.7012 36.9376 69.3724 33.9942L69.257 23.5482C69.2378 20.5856 66.8908 17.4691 64.0436 16.5649L54.9442 13.6793C52.0778 12.7751 49.827 14.4295 49.8462 17.3344L49.9809 27.7035C44.6521 27.1649 39.708 27.7035 35.3218 29.1656L28.0885 19.5852C26.0301 16.8727 22.7597 15.8147 20.7782 17.219L14.4683 21.6629C12.4868 23.048 12.5445 26.3569 14.6029 29.0694L21.8747 38.6882C19.1045 42.2664 17.1038 46.6333 16.065 51.6351L6.02293 48.2108C3.17577 47.2489 0.924965 48.8072 1.00192 51.6736L1.19429 60.8499C1.252 63.7356 3.61823 66.8521 6.44616 67.8332L16.469 71.296C17.7194 77.1057 19.8933 82.9155 22.8174 88.4559L15.8918 93.1884C13.9488 94.5158 14.0065 97.8246 16.0265 100.595L22.4903 109.425C24.5103 112.195 27.723 113.369 29.6852 112.041L36.5915 107.29C41.0354 111.791 45.9795 115.735 51.2313 118.832L51.366 129.201C51.4045 132.145 53.713 135.338 56.5025 136.377L65.4287 139.686C68.2182 140.705 70.469 139.166 70.4305 136.204L70.3151 125.758C75.5477 126.45 80.4148 126.027 84.7625 124.642L91.8227 134.607C93.8042 137.435 97.0169 138.589 98.9791 137.204L105.251 132.741C107.213 131.337 107.213 127.893 105.231 125.084L98.1904 115.062C100.98 111.406 103.019 106.905 104.135 101.691L114.081 105.135C116.889 106.097 119.159 104.462 119.159 101.461L119.14 91.8802C119.063 88.9753 116.774 85.7819 113.965 84.8392ZM60.4462 96.151C50.1348 92.5343 41.6318 80.9148 41.4586 70.1994C41.2855 59.5033 49.5961 53.6358 59.9845 57.0986C70.3728 60.5614 78.8373 72.1809 78.9528 83.0309C79.0682 93.9002 70.7575 99.7676 60.4462 96.151Z" fill="url(#paint11_linear)"/>
<path d="M96.1066 81.7216L89.1234 79.4131C88.2769 75.2193 86.7764 71.0832 84.7372 67.1587L89.6236 63.5035C91.0087 62.4647 90.9894 60.06 89.5466 58.1363L85.0258 51.9995C83.6022 50.0949 81.3129 49.3639 79.947 50.4027L75.0414 54.0579C71.9057 50.9991 68.4045 48.3443 64.6724 46.3244L64.5569 38.9948C64.5185 36.9364 62.8833 34.7433 60.8825 34.1277L54.5341 32.1655C52.5527 31.5499 50.9752 32.7041 51.0136 34.7625L51.1483 42.0344C47.4547 41.6881 43.9919 42.0921 40.9139 43.1501L35.8352 36.4555C34.3923 34.5702 32.1031 33.8391 30.7372 34.8395L26.351 37.9945C24.9851 38.9756 25.0236 41.2841 26.4664 43.1694L31.5452 49.8641C29.6214 52.3842 28.2555 55.443 27.5245 58.9827L20.5028 56.6357C18.5213 55.9816 16.9438 57.0782 17.0015 59.0789L17.1747 65.5043C17.2131 67.5242 18.8868 69.6981 20.8683 70.3906L27.8708 72.7761C28.7557 76.8545 30.314 80.8944 32.3724 84.7611L27.5438 88.1085C26.1779 89.0511 26.2548 91.3596 27.6592 93.2834L32.1993 99.4394C33.6228 101.382 35.8736 102.171 37.2395 101.229L42.0682 97.8812C45.1847 101.036 48.6474 103.768 52.3603 105.922L52.4949 113.194C52.5334 115.234 54.1494 117.504 56.1309 118.215L62.3831 120.485C64.3453 121.197 65.9036 120.101 65.8651 118.042L65.7497 110.713C69.4048 111.174 72.8099 110.867 75.8687 109.885L80.8512 116.849C82.2555 118.812 84.4871 119.62 85.8722 118.639L90.2392 115.484C91.605 114.483 91.5858 112.079 90.1622 110.116L85.1989 103.075C87.1227 100.497 88.5462 97.3233 89.2773 93.6681L96.2221 96.0344C98.1843 96.7077 99.7618 95.5342 99.7425 93.4373L99.6656 86.7234C99.6848 84.6072 98.0881 82.3757 96.1066 81.7216ZM58.7664 89.8976C51.5331 87.4159 45.5694 79.2784 45.3963 71.795C45.2424 64.2923 51.0136 60.1562 58.2855 62.5224C65.5573 64.9079 71.521 73.0262 71.6364 80.625C71.7518 88.2431 65.9805 92.3792 58.7664 89.8976Z" fill="#2CD8CF"/>
<defs>
<linearGradient id="paint0_linear" x1="19.0265" y1="63.2872" x2="137.185" y2="63.2872" gradientUnits="userSpaceOnUse">
<stop stop-color="#455072"/>
<stop offset="0.224051" stop-color="#394260"/>
<stop offset="0.295988" stop-color="#313953"/>
<stop offset="0.422936" stop-color="#38415C"/>
<stop offset="0.520262" stop-color="#303655"/>
<stop offset="0.676832" stop-color="#2C3045"/>
<stop offset="0.995" stop-color="#2D3148"/>
</linearGradient>
<linearGradient id="paint1_linear" x1="2.11768" y1="42.0739" x2="22.1248" y2="42.0739" gradientUnits="userSpaceOnUse">
<stop stop-color="#4E5A7C"/>
<stop offset="0.1782" stop-color="#455173"/>
<stop offset="0.556417" stop-color="#465782"/>
<stop offset="1" stop-color="#2B3859"/>
</linearGradient>
<linearGradient id="paint2_linear" x1="18.1865" y1="20.4604" x2="41.9999" y2="19.0001" gradientUnits="userSpaceOnUse">
<stop stop-color="#444F71"/>
<stop offset="1" stop-color="#394260"/>
</linearGradient>
<linearGradient id="paint3_linear" x1="50.1951" y1="12.2328" x2="81.953" y2="10.951" gradientUnits="userSpaceOnUse">
<stop stop-color="#455071"/>
<stop offset="0.21866" stop-color="#586587"/>
<stop offset="0.471742" stop-color="#394260"/>
<stop offset="0.666955" stop-color="#373F61"/>
<stop offset="1" stop-color="#2F3451"/>
</linearGradient>
<linearGradient id="paint4_linear" x1="91" y1="40.4999" x2="123.564" y2="43.9561" gradientUnits="userSpaceOnUse">
<stop stop-color="#566489"/>
<stop offset="1" stop-color="#2C3045"/>
</linearGradient>
<linearGradient id="paint5_linear" x1="108.5" y1="83.5" x2="129.224" y2="73.1392" gradientUnits="userSpaceOnUse">
<stop stop-color="#49587E"/>
<stop offset="0.414983" stop-color="#424D6D"/>
<stop offset="1" stop-color="#2D3148"/>
</linearGradient>
<linearGradient id="paint6_linear" x1="115.946" y1="90.2388" x2="134.21" y2="90.041" gradientUnits="userSpaceOnUse">
<stop offset="0.0643307" stop-color="#434E6F"/>
<stop offset="1" stop-color="#2D3148"/>
</linearGradient>
<linearGradient id="paint7_linear" x1="96.4883" y1="121.202" x2="122.742" y2="116.286" gradientUnits="userSpaceOnUse">
<stop stop-color="#3F4968"/>
<stop offset="0.995" stop-color="#2D3147"/>
</linearGradient>
<linearGradient id="paint8_linear" x1="68.9877" y1="130.307" x2="86.6863" y2="130.307" gradientUnits="userSpaceOnUse">
<stop stop-color="#2C3046"/>
<stop offset="0.995" stop-color="#39405A"/>
</linearGradient>
<linearGradient id="paint9_linear" x1="15.0454" y1="90.1296" x2="24.5773" y2="90.1296" gradientUnits="userSpaceOnUse">
<stop stop-color="#98A5B5"/>
<stop offset="0.995" stop-color="#8494A5"/>
</linearGradient>
<linearGradient id="paint10_linear" x1="1.99999" y1="76.2841" x2="120.159" y2="76.2841" gradientUnits="userSpaceOnUse">
<stop stop-color="#545F7C"/>
<stop offset="0.463542" stop-color="#45506E"/>
<stop offset="0.995" stop-color="#344265"/>
</linearGradient>
<linearGradient id="paint11_linear" x1="0.999992" y1="76.716" x2="119.159" y2="76.716" gradientUnits="userSpaceOnUse">
<stop stop-color="#7985A6"/>
<stop offset="0.995" stop-color="#4A5B87"/>
</linearGradient>
</defs>
</svg>
