<svg width="140" height="140" viewBox="0 0 140 140" fill="none" xmlns="http://www.w3.org/2000/svg">
<g clip-path="url(#clip0)">
<path d="M134.5 91.9999L131.73 89.2294C131.578 89.0774 131.402 88.9509 131.21 88.8547L127.5 86.9999L130.263 85.4209C130.661 85.1939 131.124 85.11 131.575 85.1832L133.389 85.477C134.132 85.5974 134.671 86.2499 134.649 87.0023L134.5 91.9999Z" fill="url(#paint0_linear)"/>
<path d="M108.5 84L130.34 87.2027L133.5 85.5L114.195 82.319C113.682 82.2346 113.157 82.2845 112.67 82.464L108.5 84Z" fill="url(#paint1_linear)"/>
<path d="M131 89.0001L130.005 111.883L133.491 108.931C133.815 108.657 134.008 108.258 134.021 107.833L134.66 87.2974L131 89.0001Z" fill="url(#paint2_linear)"/>
<path d="M130.83 110.31C130.796 111.564 129.63 112.477 128.404 112.209L109.138 107.998C108.213 107.795 107.556 106.971 107.566 106.024L107.771 85.5613C107.784 84.3275 108.899 83.3991 110.115 83.6111L129.75 87.0354C130.728 87.206 131.433 88.0677 131.406 89.0598L130.83 110.31Z" fill="url(#paint3_linear)"/>
<path opacity="0.3" d="M115.08 91.2126L122.612 92.6698L125.297 108.387L115.342 101.789L115.08 91.2126Z" fill="url(#paint4_linear)"/>
<path d="M121.924 92.981V99.6117L91.1442 111.285V103.934L121.924 92.981Z" fill="url(#paint5_linear)"/>
<path d="M87.7388 100.021L115.146 91.4255L121.924 92.9809L91.1442 103.934L87.7388 100.021Z" fill="url(#paint6_linear)"/>
<path opacity="0.3" d="M93.6819 98.2036L97.6603 99.2187L102.687 99.8408L101.966 107.192L91.1442 111.285L87.7388 100.021L93.6819 98.2036Z" fill="#1A212D"/>
<path opacity="0.3" d="M93.027 98.3835L96.8581 101.854L97.5457 105.227L98.921 108.305L92.7977 110.663L89.2614 99.8407L93.027 98.3835Z" fill="url(#paint7_linear)"/>
<path d="M89.5417 115.3C88.9276 115.135 88.2829 115 87.5 115C86.7171 115 85.9649 115.135 85.4583 115.3H84V116.5C84 117.295 85.5658 118 87.5 118C89.4342 118 91 117.34 91 116.5V115.3H89.5417Z" fill="url(#paint8_linear)"/>
<path d="M90.7555 111.457C89.8816 111.221 88.7508 111 87.5 111C86.2492 111 85.2212 111.174 84.2446 111.457H82V113.934C82 115.196 84.4673 116 87.5 116C90.5327 116 93 115.164 93 113.934V111.457H90.7555Z" fill="url(#paint9_linear)"/>
<path d="M91.3132 103.508C90.1508 103.18 88.6609 103 87.1055 103C85.5502 103 84.0603 103.18 82.8979 103.508H80.5V112.087C80.5 113.495 83.587 114.5 87.5 114.5C91.413 114.5 94.5 113.49 94.5 112V103.421L91.3132 103.508Z" fill="url(#paint10_linear)"/>
<path d="M92.327 100.573C90.919 100.213 89.2163 100 87.3662 100C85.4834 100 83.7479 100.18 82.4054 100.573H79V102.963C79 104.601 82.7984 105.927 87.4808 105.927C92.1141 105.927 95.9616 104.617 95.9616 102.963V100.573H92.327Z" fill="url(#paint11_linear)"/>
<path d="M87.4808 103.927C92.1646 103.927 95.9616 102.6 95.9616 100.963C95.9616 99.3267 92.1646 98 87.4808 98C82.797 98 79 99.3267 79 100.963C79 102.6 82.797 103.927 87.4808 103.927Z" fill="#657485"/>
<path d="M87.4808 103.927C92.1646 103.927 95.9616 102.6 95.9616 100.963C95.9616 99.3267 92.1646 98 87.4808 98C82.797 98 79 99.3267 79 100.963C79 102.6 82.797 103.927 87.4808 103.927Z" fill="url(#paint12_linear)"/>
<path d="M87.5095 89.2644L85.594 92.8499L85.4957 97.1231L81.5828 98.3182V93.8159L79.0123 91.4255L87.5095 89.2644Z" fill="url(#paint13_linear)"/>
<path d="M87.0511 93.21L92.2903 94.5852L86.2489 96.3534L81.108 94.5852L87.0511 93.21Z" fill="url(#paint14_linear)"/>
<path d="M86.3635 102.919L86.2489 96.3534L92.2903 94.5852L92.5522 100.528L86.3635 102.919Z" fill="url(#paint15_linear)"/>
<path d="M81.108 94.5852L86.2489 96.3534L86.3635 102.919L80.8461 100.659L81.108 94.5852Z" fill="#7884A5"/>
<path d="M81.108 94.5852L86.2489 96.3534L86.3635 102.919L80.8461 100.659L81.108 94.5852Z" fill="url(#paint16_linear)"/>
<path d="M103.636 81.1438V85.6298L76.2946 93.3902V88.5277L103.636 81.1438Z" fill="url(#paint17_linear)"/>
<path d="M69.189 90.4923L76.2945 93.3901V88.5276L69.189 90.4923Z" fill="url(#paint18_linear)"/>
<path d="M94.7624 88.1348L92.2574 94.258L92.4048 98.8913C92.4048 99.2188 92.2247 99.5462 91.8972 99.6936L87.4767 101.331C87.2966 101.364 87.0019 101.298 87.0019 101.085L86.8546 95.5841L84.5789 91.1309L94.7624 88.1348Z" fill="#495470"/>
<path d="M95.008 88.0691L92.5521 94.225L92.6995 98.8584C92.6995 99.1858 92.5194 99.5133 92.192 99.6606L87.7715 101.298C87.5914 101.331 87.2967 101.265 87.2967 101.052L87.1493 95.5512L84.8245 91.0161L95.008 88.0691Z" fill="url(#paint19_linear)"/>
<path d="M3.52003 37.086C3.52003 37.086 0 39.0834 0 43.1274C0 47.1877 0.982333 51.1989 4.5351 55.9796C8.08788 60.793 12.7212 65.8029 12.7212 65.8029L21.1202 42.5216C21.1202 42.5216 16.9944 36.251 12.492 36.4803C5.82851 36.8404 3.52003 37.086 3.52003 37.086Z" fill="#455071"/>
<path opacity="0.4" d="M18.9426 41.3591L11.4769 64.2147C11.4769 64.2147 8.51353 59.6141 9.26665 47.8752C9.414 45.7796 9.77419 43.7494 9.47949 42.014C9.1193 39.5909 3.47089 37.1187 3.47089 37.1187L11.1822 36.5457L18.9426 41.3591Z" fill="#455071"/>
<path d="M116.668 78.2458L38.3928 99.5296L24.9512 42.9964L126.344 41.8831C126.344 41.8831 132.353 51.9192 130.618 62.4138C128.948 72.9575 116.668 78.2458 116.668 78.2458Z" fill="url(#paint20_linear)"/>
<path d="M130.012 64.5586C130.519 63.3961 130.454 63.7563 130.667 62.4138C132.402 51.9029 126.394 41.8831 126.394 41.8831L25.0004 42.9964L27.1779 52.1976C27.5381 52.525 27.7509 52.7378 27.7509 52.7378C27.7509 52.7378 27.8982 52.8852 39.6371 64.444C51.5888 76.2483 60.3316 82.0605 65.6198 82.9937C70.9081 83.976 76.3436 83.2393 83.4001 82.1587C90.4565 81.0781 112.985 73.2522 123.119 68.4224C125.329 67.4073 128.227 65.721 130.012 64.5586Z" fill="url(#paint21_linear)"/>
<path opacity="0.2" d="M14.4894 37.741L12.7867 54.7026L21.1529 40.2459L14.4894 37.741Z" fill="#182D54"/>
<path d="M54.2248 66.4252C54.8797 84.6311 45.8259 99.8082 34.0542 100.201C22.2826 100.561 12.1482 86.1373 11.4933 67.8987C10.8712 49.66 19.925 34.4994 31.6966 34.1228C43.5337 33.7299 53.6027 48.1865 54.2248 66.4252Z" fill="url(#paint22_linear)"/>
<path d="M32.2369 100.119C43.5665 99.0386 52.1291 84.189 51.507 66.4252C50.8849 49.1525 41.7983 35.2525 30.747 34.1555C19.4175 35.2361 10.8548 50.0857 11.4769 67.8495C12.0991 85.1713 21.2675 99.0222 32.2369 100.119Z" fill="url(#paint23_linear)"/>
<path d="M50.5574 66.5234C51.0977 82.0934 43.3864 95.0274 33.3502 95.3876C23.314 95.715 14.6204 83.4031 14.0801 67.8332C13.5398 52.2632 21.2511 39.3291 31.2873 38.9689C41.4381 38.6251 50.0171 50.9534 50.5574 66.5234Z" fill="#405160" stroke="#B7BABC" stroke-miterlimit="10"/>
<path d="M48.822 66.5727C49.3295 80.6691 42.3386 92.3262 33.252 92.6209C24.1981 92.8992 16.3722 81.7825 15.8319 67.686C15.3244 53.5895 22.3153 41.9325 31.4019 41.6378C40.5376 41.3922 48.3144 52.5089 48.822 66.5727Z" fill="#37D0CD"/>
<path opacity="0.2" d="M45.9568 67.997C46.3988 80.0961 40.3739 90.0995 32.5479 90.3942C24.7548 90.6398 18.0258 81.0456 17.551 68.9466C17.1089 56.8475 23.1339 46.8441 30.9598 46.5494C38.8676 46.3365 45.5311 55.8979 45.9568 67.997Z" fill="#0F0F0F"/>
<path d="M44.5161 66.7527C44.9581 78.1314 39.2606 87.5618 31.9422 87.8238C24.5911 88.0694 18.2878 79.081 17.8457 67.6696C17.4037 56.3236 23.1012 46.8932 30.4196 46.5985C37.8526 46.3693 44.1559 55.3577 44.5161 66.7527Z" fill="#3A4455"/>
<path opacity="0.3" d="M39.6208 68.4389C39.9155 77.1489 35.8224 84.3691 30.4196 84.5492C25.0986 84.7293 20.4653 77.8366 20.1378 69.1757C19.8922 60.4329 23.9853 53.2455 29.339 53.0327C34.7418 52.8689 39.3424 59.7289 39.6208 68.4389Z" fill="#1E2733"/>
<path d="M39.0805 66.1961C39.3261 73.6454 35.6751 79.785 30.8616 79.9979C26.0482 80.1779 21.9224 74.284 21.6604 66.851C21.4149 59.4016 25.0659 53.262 29.8793 53.0492C34.7418 52.8691 38.8676 58.7631 39.0805 66.1961Z" fill="#1E2733"/>
<path d="M37.0503 66.1961C37.2959 73.6454 33.6449 79.785 28.8315 79.9979C24.018 80.1779 19.8922 74.284 19.6303 66.851C19.3683 59.418 23.0357 53.262 27.8491 53.0492C32.7117 52.8691 36.772 58.7631 37.0503 66.1961Z" fill="#334054" stroke="#3BD1CE" stroke-miterlimit="10"/>
<path d="M32.99 66.3433C33.1373 70.4855 31.0744 73.94 28.4221 74.0382C25.7371 74.1037 23.4286 70.8293 23.2485 66.6707C23.1012 62.5286 25.1641 59.074 27.8164 58.9758C30.5669 58.8612 32.859 62.152 32.99 66.3433Z" fill="#121923"/>
<path opacity="0.3" d="M32.2696 66.3432C32.417 70.0925 30.5342 73.2032 28.1111 73.3178C25.688 73.4324 23.6251 70.4199 23.4778 66.6379C23.3304 62.8887 25.2132 59.778 27.6363 59.6634C30.0921 59.6306 32.1714 62.5776 32.2696 66.3432Z" fill="url(#paint24_linear)"/>
<path d="M30.2067 66.4253C30.2722 68.7502 29.2244 70.6494 27.8819 70.6821C26.5394 70.7148 25.3442 68.9139 25.3114 66.5727C25.246 64.2478 26.2938 62.3486 27.6363 62.3159C28.9788 62.2504 30.174 64.1005 30.2067 66.4253Z" fill="#2CD8CF"/>
<path opacity="0.25" d="M48.822 66.5727C49.3295 80.6691 42.3386 92.3262 33.252 92.6209C24.1981 92.8992 16.3722 81.7825 15.8319 67.686C15.3244 53.5895 22.3153 41.9325 31.4019 41.6378C40.5376 41.3922 48.3144 52.5089 48.822 66.5727Z" fill="url(#paint25_linear)" stroke="#373737" stroke-miterlimit="10"/>
<g opacity="0.2">
<path d="M50.5574 66.5234C51.0977 82.0934 43.3864 95.0274 33.3502 95.3876C23.314 95.715 14.6204 83.4031 14.0801 67.8332C13.5398 52.2632 21.2511 39.3291 31.2873 38.9689C41.4381 38.6251 50.0171 50.9534 50.5574 66.5234Z" fill="url(#paint26_linear)"/>
<path d="M50.5574 66.5234C51.0977 82.0934 43.3864 95.0274 33.3502 95.3876C23.314 95.715 14.6204 83.4031 14.0801 67.8332C13.5398 52.2632 21.2511 39.3291 31.2873 38.9689C41.4381 38.6251 50.0171 50.9534 50.5574 66.5234Z" stroke="#4861F2" stroke-miterlimit="10"/>
<path d="M50.5574 66.5234C51.0977 82.0934 43.3864 95.0274 33.3502 95.3876C23.314 95.715 14.6204 83.4031 14.0801 67.8332C13.5398 52.2632 21.2511 39.3291 31.2873 38.9689C41.4381 38.6251 50.0171 50.9534 50.5574 66.5234Z" stroke="url(#paint27_linear)" stroke-miterlimit="10"/>
</g>
<path opacity="0.1" d="M23.9034 90.3778L17.3873 90.1322C17.3873 90.1322 14.735 75.168 15.2098 64.3787C15.6846 53.6222 19.4829 41.6377 19.4829 41.6377L25.9991 41.8833C25.9991 41.8833 21.9388 50.7243 21.7259 64.5915C21.5131 78.5243 23.9034 90.3778 23.9034 90.3778Z" fill="url(#paint28_linear)"/>
<path opacity="0.4" d="M90.2274 96.7136L88.8193 97.8433C88.8193 97.8433 88.8193 98.6455 88.9994 99.0057C89.245 99.6279 89.8017 100.021 89.8672 100.496C89.9818 101.069 90.7676 101.216 91.1769 101.069C91.5044 100.921 91.357 100.496 91.357 99.9062C91.357 99.1858 91.9792 98.4163 91.9792 98.4163L90.2274 96.7136Z" fill="url(#paint29_linear)"/>
<path d="M91.7499 98.0234C91.7172 99.0385 90.9968 99.8407 90.1618 99.7916C89.3596 99.7589 88.7538 98.9239 88.8193 97.8761C88.852 96.861 89.5724 96.0587 90.4074 96.1079C91.2096 96.1406 91.799 96.9756 91.7499 98.0234Z" fill="#364354"/>
<path d="M92.0119 98.0561C91.9791 99.0712 91.2588 99.8734 90.4238 99.8243C89.6215 99.7916 89.0158 98.9566 89.0813 97.9088C89.114 96.8937 89.8344 96.0915 90.6694 96.1406C91.4716 96.1733 92.0446 97.041 92.0119 98.0561Z" fill="#6A788B"/>
<path opacity="0.4" d="M90.6694 97.0083L89.8344 97.6304C89.8344 97.6304 89.6543 98.2526 89.949 98.8911C90.0963 99.2186 90.2437 99.4314 90.4238 99.6115C90.6039 99.8571 90.6694 99.8571 90.9313 99.7916C91.1114 99.7588 91.4389 99.4314 91.5044 99.2186C91.6844 98.9239 91.8645 98.3508 91.8645 98.3508L90.6694 97.0083Z" fill="url(#paint30_linear)"/>
<path d="M91.6517 98.0234C91.619 98.711 91.1442 99.2186 90.6039 99.1858C90.0963 99.1531 89.7034 98.6128 89.7362 97.9252C89.7689 97.2375 90.2437 96.73 90.784 96.7627C91.2915 96.7955 91.6844 97.3685 91.6517 98.0234Z" fill="#465466"/>
<path d="M91.8973 98.0234C91.8645 98.711 91.4225 99.2186 90.9968 99.1858C90.522 99.1531 90.1946 98.6128 90.1946 97.9252C90.2273 97.2375 90.6694 96.73 91.0951 96.7627C91.5698 96.8282 91.93 97.4012 91.8973 98.0234Z" fill="#95A0AE"/>
<path d="M91.0295 96.943L91.1768 99.0386M91.7499 97.8434L90.1945 98.2855M90.129 98.2364L89.8671 98.2036M91.0295 96.8611L90.6693 96.8284" stroke="#2C3147" stroke-width="0.3" stroke-miterlimit="10" stroke-linecap="round"/>
<path d="M117.536 24.8232C117.536 24.8232 126.164 26.8861 132.271 32.5346C138.362 38.1175 140.67 47.0567 139.835 51.4445C139 55.8322 133.712 61.6935 123.528 66.5069C113.394 71.3203 90.4238 78.0984 83.3674 79.179C76.311 80.2596 70.8754 80.9963 65.5872 80.014C60.2989 79.0317 51.5562 73.2359 39.6044 61.4643C27.6527 49.6926 27.7673 49.7254 27.7673 49.7254C27.7673 49.7254 18.9263 41.2937 12.7704 38.756C7.00736 36.4803 3.45459 37.086 3.45459 37.086L117.536 24.8232Z" fill="url(#paint31_linear)"/>
<path d="M117.536 24.283C117.536 24.283 126.164 26.3459 132.271 31.9943C138.362 37.5772 140.67 46.5164 139.835 50.9042C139 55.2919 133.712 61.1532 123.528 65.9666C113.394 70.7801 90.4238 77.5582 83.3674 78.6387C76.3109 79.7193 70.8754 80.456 65.5871 79.4737C60.2989 78.4914 51.5725 72.6956 39.6208 60.924C27.6691 49.1524 27.7837 49.1851 27.7837 49.1851C27.7837 49.1851 18.9427 40.7534 12.7867 38.2157C9.05387 36.7258 3.88025 36.9878 3.47094 37.086C3.32359 37.1188 1.58813 38.756 1.58813 38.756L3.50368 36.5458L117.536 24.283Z" fill="url(#paint32_linear)"/>
<path opacity="0.4" d="M89.507 27.5738L92.7323 30.6518L94.6478 34.5975L119.615 29.9314L115.441 26.9517L110.693 25.0688L89.507 27.5738Z" fill="url(#paint33_linear)"/>
<path d="M89.507 26.1658L108.384 24.2339L113.23 25.9857L94.6478 28.4088L89.507 26.1658Z" fill="url(#paint34_linear)"/>
<path d="M89.507 27.5738V26.1658L94.6478 28.4088V29.9314L89.507 27.5738Z" fill="url(#paint35_linear)"/>
<path d="M113.23 25.9858V27.2792L94.6478 29.9315V28.4089L113.23 25.9858Z" fill="url(#paint36_linear)"/>
<path d="M113.23 25.9858V27.2792L94.6478 29.9315V28.4089L113.23 25.9858Z" fill="url(#paint37_linear)"/>
<path d="M97.9058 26.4932C98.2494 26.4932 98.528 26.4272 98.528 26.3458C98.528 26.2645 98.2494 26.1985 97.9058 26.1985C97.5622 26.1985 97.2837 26.2645 97.2837 26.3458C97.2837 26.4272 97.5622 26.4932 97.9058 26.4932Z" fill="#495971"/>
<path d="M106.092 25.5764C106.436 25.5764 106.714 25.5105 106.714 25.4291C106.714 25.3477 106.436 25.2817 106.092 25.2817C105.748 25.2817 105.47 25.3477 105.47 25.4291C105.47 25.5105 105.748 25.5764 106.092 25.5764Z" fill="#495971"/>
<path d="M98.1351 26.3459C98.1351 26.3459 99.4449 23.4808 102.048 23.1206C104.651 22.7604 106.076 23.2679 110.529 23.841C115.015 24.414 116.865 24.414 116.865 24.414" stroke="#E0E0E0" stroke-miterlimit="10"/>
<path d="M106.092 25.4292C106.092 25.4292 107.909 23.9393 109.792 24.2668C111.675 24.5942 115.048 24.5615 115.048 24.5615" stroke="#B7D2ED" stroke-miterlimit="10"/>
</g>
<defs>
<linearGradient id="paint0_linear" x1="131" y1="86.9999" x2="132" y2="88.4999" gradientUnits="userSpaceOnUse">
<stop stop-color="#4B5A80"/>
<stop offset="0.552885" stop-color="#4A5B85"/>
<stop offset="1" stop-color="#313756"/>
</linearGradient>
<linearGradient id="paint1_linear" x1="107.795" y1="84.6146" x2="134.612" y2="84.6146" gradientUnits="userSpaceOnUse">
<stop stop-color="#627094"/>
<stop offset="1" stop-color="#49587E"/>
</linearGradient>
<linearGradient id="paint2_linear" x1="130.765" y1="99.1778" x2="135" y2="97.5001" gradientUnits="userSpaceOnUse">
<stop stop-color="#2C3045"/>
<stop offset="1" stop-color="#313756"/>
</linearGradient>
<linearGradient id="paint3_linear" x1="110.541" y1="87.2135" x2="138.163" y2="118.898" gradientUnits="userSpaceOnUse">
<stop offset="0.1774" stop-color="#7884A5"/>
<stop offset="0.8768" stop-color="#4A5C87"/>
</linearGradient>
<linearGradient id="paint4_linear" x1="126.5" y1="109.5" x2="121" y2="100" gradientUnits="userSpaceOnUse">
<stop stop-color="#353D5C" stop-opacity="0"/>
<stop offset="1" stop-color="#303654"/>
</linearGradient>
<linearGradient id="paint5_linear" x1="91.1442" y1="102.133" x2="121.924" y2="102.133" gradientUnits="userSpaceOnUse">
<stop offset="0.1774" stop-color="#434E6B"/>
<stop offset="0.8768" stop-color="#2D3147"/>
</linearGradient>
<linearGradient id="paint6_linear" x1="87.7388" y1="97.6797" x2="121.924" y2="97.6797" gradientUnits="userSpaceOnUse">
<stop offset="0.1774" stop-color="#5F709B"/>
<stop offset="0.8768" stop-color="#4C5985"/>
</linearGradient>
<linearGradient id="paint7_linear" x1="94.0912" y1="109.298" x2="94.0912" y2="102.404" gradientUnits="userSpaceOnUse">
<stop stop-color="#33455B" stop-opacity="0"/>
<stop offset="1" stop-color="#33455B"/>
</linearGradient>
<linearGradient id="paint8_linear" x1="83.9823" y1="116.5" x2="90.9822" y2="116.5" gradientUnits="userSpaceOnUse">
<stop stop-color="#3F4A6B"/>
<stop offset="0.2365" stop-color="#4F5D82"/>
<stop offset="0.5222" stop-color="#38405D"/>
<stop offset="1" stop-color="#2D3147"/>
</linearGradient>
<linearGradient id="paint9_linear" x1="82.0617" y1="113.5" x2="92.9701" y2="113.5" gradientUnits="userSpaceOnUse">
<stop stop-color="#5E6C96"/>
<stop offset="0.2365" stop-color="#5E6F97"/>
<stop offset="0.5222" stop-color="#475179"/>
<stop offset="1" stop-color="#414662"/>
</linearGradient>
<linearGradient id="paint10_linear" x1="80" y1="108.869" x2="94.2507" y2="108.869" gradientUnits="userSpaceOnUse">
<stop stop-color="#98A1C1"/>
<stop offset="0.5025" stop-color="#7B86A4"/>
<stop offset="1" stop-color="#5E6A84"/>
</linearGradient>
<linearGradient id="paint11_linear" x1="78.8095" y1="102.963" x2="95.724" y2="102.963" gradientUnits="userSpaceOnUse">
<stop stop-color="#3D4868"/>
<stop offset="0.2365" stop-color="#4F5E83"/>
<stop offset="0.5222" stop-color="#3B4463"/>
<stop offset="1" stop-color="#2D3147"/>
</linearGradient>
<linearGradient id="paint12_linear" x1="87.4808" y1="98" x2="87.4808" y2="103.927" gradientUnits="userSpaceOnUse">
<stop stop-color="#59658A"/>
<stop offset="0.536458" stop-color="#4D5A7E"/>
<stop offset="1" stop-color="#676E9A"/>
</linearGradient>
<linearGradient id="paint13_linear" x1="83.2609" y1="98.368" x2="83.2609" y2="89.2761" gradientUnits="userSpaceOnUse">
<stop stop-color="#5C6888"/>
<stop offset="0.9951" stop-color="#2C3045"/>
</linearGradient>
<linearGradient id="paint14_linear" x1="86.6992" y1="96.3383" x2="86.6992" y2="93.207" gradientUnits="userSpaceOnUse">
<stop stop-color="#5F6E92"/>
<stop offset="0.9951" stop-color="#4B5A80"/>
</linearGradient>
<linearGradient id="paint15_linear" x1="89.4005" y1="102.88" x2="89.4005" y2="94.582" gradientUnits="userSpaceOnUse">
<stop stop-color="#4A5676"/>
<stop offset="0.9951" stop-color="#303551"/>
</linearGradient>
<linearGradient id="paint16_linear" x1="83.6048" y1="94.5852" x2="83.6048" y2="102.919" gradientUnits="userSpaceOnUse">
<stop stop-color="#7884A5"/>
<stop offset="1" stop-color="#637297"/>
</linearGradient>
<linearGradient id="paint17_linear" x1="76.2946" y1="87.267" x2="103.636" y2="87.267" gradientUnits="userSpaceOnUse">
<stop offset="0.1774" stop-color="#3B4662"/>
<stop offset="0.8768" stop-color="#2E3455"/>
</linearGradient>
<linearGradient id="paint18_linear" x1="69.1533" y1="90.9589" x2="76.2662" y2="90.9589" gradientUnits="userSpaceOnUse">
<stop stop-color="#2C3045"/>
<stop offset="0.5025" stop-color="#2C3147"/>
<stop offset="1" stop-color="#313758"/>
</linearGradient>
<linearGradient id="paint19_linear" x1="89.9162" y1="101.359" x2="89.9162" y2="88.1224" gradientUnits="userSpaceOnUse">
<stop stop-color="#4C5B81"/>
<stop offset="1" stop-color="#6B7A9F"/>
</linearGradient>
<linearGradient id="paint20_linear" x1="86" y1="104" x2="74.5" y2="29.4999" gradientUnits="userSpaceOnUse">
<stop offset="0.15385" stop-color="#2F3450"/>
<stop offset="0.295495" stop-color="#4A587A"/>
<stop offset="0.358147" stop-color="#475477"/>
<stop offset="0.4851" stop-color="#313952"/>
<stop offset="0.993816" stop-color="#7E8EA0"/>
</linearGradient>
<linearGradient id="paint21_linear" x1="48.2377" y1="63.2519" x2="148.072" y2="56.6134" gradientUnits="userSpaceOnUse">
<stop stop-color="#38415B" stop-opacity="0.6"/>
<stop offset="1" stop-color="#2C3045" stop-opacity="0.8"/>
</linearGradient>
<linearGradient id="paint22_linear" x1="11.4631" y1="67.1613" x2="54.2582" y2="67.1613" gradientUnits="userSpaceOnUse">
<stop stop-color="#545F7C"/>
<stop offset="0.5" stop-color="#45506D"/>
<stop offset="0.995" stop-color="#344265"/>
</linearGradient>
<linearGradient id="paint23_linear" x1="11.4451" y1="67.1374" x2="51.5389" y2="67.1374" gradientUnits="userSpaceOnUse">
<stop stop-color="#6B7598"/>
<stop offset="0.140625" stop-color="#9BA5C6"/>
<stop offset="0.2949" stop-color="#8794C0"/>
<stop offset="0.458333" stop-color="#6B7598"/>
<stop offset="0.995" stop-color="#7E8EA0"/>
</linearGradient>
<linearGradient id="paint24_linear" x1="26.6667" y1="62.2692" x2="29.9702" y2="73.7307" gradientUnits="userSpaceOnUse">
<stop stop-color="#272EC3"/>
<stop offset="1" stop-color="#9A40EE"/>
</linearGradient>
<linearGradient id="paint25_linear" x1="31.2522" y1="66.8941" x2="20.8073" y2="64.5881" gradientUnits="userSpaceOnUse">
<stop stop-color="white" stop-opacity="0"/>
<stop offset="1" stop-color="white"/>
</linearGradient>
<linearGradient id="paint26_linear" x1="14.0534" y1="67.1779" x2="50.5841" y2="67.1779" gradientUnits="userSpaceOnUse">
<stop stop-color="#182D54" stop-opacity="0"/>
<stop offset="1" stop-color="#3DA8EA"/>
</linearGradient>
<linearGradient id="paint27_linear" x1="32.3187" y1="38.9619" x2="32.3187" y2="95.394" gradientUnits="userSpaceOnUse">
<stop stop-color="white"/>
<stop offset="1" stop-color="white" stop-opacity="0"/>
</linearGradient>
<linearGradient id="paint28_linear" x1="19.129" y1="87.6662" x2="21.0397" y2="42.9425" gradientUnits="userSpaceOnUse">
<stop stop-color="white" stop-opacity="0"/>
<stop offset="1" stop-color="white"/>
</linearGradient>
<linearGradient id="paint29_linear" x1="91.0744" y1="101.098" x2="90.6614" y2="99.4461" gradientUnits="userSpaceOnUse">
<stop offset="0.00492611" stop-color="#4F5C6D" stop-opacity="0"/>
<stop offset="0.9951" stop-color="#4F5C6D"/>
</linearGradient>
<linearGradient id="paint30_linear" x1="91.1789" y1="99.6309" x2="90.9887" y2="98.9535" gradientUnits="userSpaceOnUse">
<stop stop-color="#414E63" stop-opacity="0"/>
<stop offset="1" stop-color="#414E63"/>
</linearGradient>
<linearGradient id="paint31_linear" x1="14.0001" y1="52.9999" x2="141" y2="49.4999" gradientUnits="userSpaceOnUse">
<stop stop-color="#545F7C"/>
<stop offset="0.484427" stop-color="#2A3247"/>
<stop offset="1" stop-color="#273863"/>
</linearGradient>
<linearGradient id="paint32_linear" x1="44.8325" y1="23.8812" x2="130.933" y2="74.9737" gradientUnits="userSpaceOnUse">
<stop stop-color="#687599"/>
<stop offset="1" stop-color="#353D55"/>
</linearGradient>
<linearGradient id="paint33_linear" x1="104.985" y1="32.4548" x2="103.996" y2="23.8194" gradientUnits="userSpaceOnUse">
<stop stop-color="#495971" stop-opacity="0"/>
<stop offset="1" stop-color="#37475A"/>
</linearGradient>
<linearGradient id="paint34_linear" x1="89.507" y1="26.3213" x2="113.265" y2="26.3213" gradientUnits="userSpaceOnUse">
<stop stop-color="#97A3C4"/>
<stop offset="0.5" stop-color="#929FC9"/>
<stop offset="0.995" stop-color="#65749C"/>
</linearGradient>
<linearGradient id="paint35_linear" x1="89.5125" y1="28.0486" x2="94.6374" y2="28.0486" gradientUnits="userSpaceOnUse">
<stop stop-color="#434E6F"/>
<stop offset="1" stop-color="#353D59"/>
</linearGradient>
<linearGradient id="paint36_linear" x1="85.4113" y1="21.2726" x2="110.515" y2="30.3319" gradientUnits="userSpaceOnUse">
<stop stop-color="#E7EFF5"/>
<stop offset="0.0797567" stop-color="#C3C5D2"/>
<stop offset="0.1617" stop-color="#C6C8D5"/>
<stop offset="0.2232" stop-color="#CED3DD"/>
<stop offset="0.2539" stop-color="#DFE6EE"/>
<stop offset="0.2949" stop-color="#DDE4EC"/>
<stop offset="0.428" stop-color="#98A5B5"/>
<stop offset="0.995" stop-color="#7E8EA0"/>
</linearGradient>
<linearGradient id="paint37_linear" x1="103.939" y1="25.9858" x2="103.939" y2="29.9315" gradientUnits="userSpaceOnUse">
<stop stop-color="#445072"/>
<stop offset="1" stop-color="#3C496B"/>
</linearGradient>
<clipPath id="clip0">
<rect y="23" width="140" height="95" fill="white"/>
</clipPath>
</defs>
</svg>
