<svg width="140" height="140" viewBox="0 0 140 140" fill="none" xmlns="http://www.w3.org/2000/svg">
<g clip-path="url(#clip0)">
<path d="M134.5 90.9999L131.729 88.2294C131.577 88.0774 131.402 87.9509 131.21 87.8547L127.5 85.9999L130.263 84.4209C130.66 84.1939 131.124 84.11 131.575 84.1832L133.389 84.477C134.132 84.5974 134.671 85.2499 134.649 86.0023L134.5 90.9999Z" fill="url(#paint0_linear)"/>
<path d="M108.5 83L130.34 86.2027L133.5 84.5L114.194 81.319C113.682 81.2346 113.157 81.2845 112.67 81.464L108.5 83Z" fill="url(#paint1_linear)"/>
<path d="M131 88.0001L130.005 110.883L133.491 107.931C133.815 107.657 134.008 107.258 134.021 106.833L134.66 86.2974L131 88.0001Z" fill="url(#paint2_linear)"/>
<path d="M130.83 109.31C130.796 110.564 129.63 111.477 128.404 111.209L109.138 106.998C108.213 106.795 107.556 105.971 107.565 105.024L107.771 84.5613C107.783 83.3275 108.899 82.3991 110.115 82.6111L129.75 86.0354C130.728 86.206 131.433 87.0677 131.406 88.0598L130.83 109.31Z" fill="url(#paint3_linear)"/>
<path opacity="0.3" d="M115.08 90.2126L122.612 91.6698L125.297 107.387L115.342 100.789L115.08 90.2126Z" fill="url(#paint4_linear)"/>
<path d="M121.924 91.981V98.6117L91.1441 110.285V102.934L121.924 91.981Z" fill="url(#paint5_linear)"/>
<path d="M87.7387 99.021L115.146 90.4255L121.924 91.9809L91.1441 102.934L87.7387 99.021Z" fill="url(#paint6_linear)"/>
<path opacity="0.3" d="M93.6818 97.2036L97.6603 98.2187L102.687 98.8408L101.966 106.192L91.1441 110.285L87.7387 99.0209L93.6818 97.2036Z" fill="#1A212D"/>
<path opacity="0.3" d="M93.0269 97.3835L96.858 100.854L97.5457 104.227L98.9209 107.305L92.7977 109.663L89.2613 98.8407L93.0269 97.3835Z" fill="url(#paint7_linear)"/>
<path d="M89.5417 114.3C88.9276 114.135 88.2829 114 87.5 114C86.7171 114 85.9649 114.135 85.4583 114.3H84V115.5C84 116.295 85.5658 117 87.5 117C89.4342 117 91 116.34 91 115.5V114.3H89.5417Z" fill="url(#paint8_linear)"/>
<path d="M90.7555 110.457C89.8816 110.221 88.7508 110 87.5 110C86.2492 110 85.2212 110.174 84.2446 110.457H82V112.934C82 114.196 84.4673 115 87.5 115C90.5327 115 93 114.164 93 112.934V110.457H90.7555Z" fill="url(#paint9_linear)"/>
<path d="M91.3132 102.508C90.1508 102.18 88.6609 102 87.1055 102C85.5502 102 84.0603 102.18 82.8979 102.508H80.5V111.087C80.5 112.495 83.587 113.5 87.5 113.5C91.413 113.5 94.5 112.49 94.5 111V102.421L91.3132 102.508Z" fill="url(#paint10_linear)"/>
<path d="M92.327 99.573C90.919 99.2128 89.2163 99 87.3662 99C85.4834 99 83.7479 99.1801 82.4054 99.573H79V101.963C79 103.601 82.7984 104.927 87.4808 104.927C92.1141 104.927 95.9616 103.617 95.9616 101.963V99.573H92.327Z" fill="url(#paint11_linear)"/>
<path d="M87.4808 102.927C92.1646 102.927 95.9616 101.6 95.9616 99.9634C95.9616 98.3267 92.1646 97 87.4808 97C82.797 97 79 98.3267 79 99.9634C79 101.6 82.797 102.927 87.4808 102.927Z" fill="#657485"/>
<path d="M87.4808 102.927C92.1646 102.927 95.9616 101.6 95.9616 99.9634C95.9616 98.3267 92.1646 97 87.4808 97C82.797 97 79 98.3267 79 99.9634C79 101.6 82.797 102.927 87.4808 102.927Z" fill="url(#paint12_linear)"/>
<path d="M87.5095 88.2644L85.594 91.8499L85.4957 96.1231L81.5828 97.3182V92.8159L79.0123 90.4255L87.5095 88.2644Z" fill="url(#paint13_linear)"/>
<path d="M87.0511 92.21L92.2902 93.5852L86.2488 95.3534L81.108 93.5852L87.0511 92.21Z" fill="url(#paint14_linear)"/>
<path d="M86.3634 101.919L86.2488 95.3534L92.2902 93.5852L92.5521 99.5283L86.3634 101.919Z" fill="url(#paint15_linear)"/>
<path d="M81.108 93.5852L86.2488 95.3534L86.3634 101.919L80.846 99.6593L81.108 93.5852Z" fill="#7884A5"/>
<path d="M81.108 93.5852L86.2488 95.3534L86.3634 101.919L80.846 99.6593L81.108 93.5852Z" fill="url(#paint16_linear)"/>
<path d="M103.636 80.1438V84.6298L76.2945 92.3902V87.5277L103.636 80.1438Z" fill="url(#paint17_linear)"/>
<path d="M69.189 89.4923L76.2945 92.3901V87.5276L69.189 89.4923Z" fill="url(#paint18_linear)"/>
<path d="M94.7624 87.1348L92.2575 93.258L92.4048 97.8913C92.4048 98.2188 92.2247 98.5462 91.8973 98.6936L87.4768 100.331C87.2967 100.364 87.002 100.298 87.002 100.085L86.8546 94.5841L84.5789 90.1309L94.7624 87.1348Z" fill="#495470"/>
<path d="M95.008 87.0691L92.5521 93.225L92.6995 97.8584C92.6995 98.1858 92.5194 98.5133 92.192 98.6606L87.7715 100.298C87.5914 100.331 87.2967 100.265 87.2967 100.052L87.1493 94.5512L84.8245 90.0161L95.008 87.0691Z" fill="url(#paint19_linear)"/>
<path d="M3.52003 36.086C3.52003 36.086 0 38.0834 0 42.1274C0 46.1877 0.982333 50.1989 4.5351 54.9796C8.08788 59.793 12.7212 64.8029 12.7212 64.8029L21.1202 41.5216C21.1202 41.5216 16.9944 35.251 12.492 35.4803C5.82851 35.8404 3.52003 36.086 3.52003 36.086Z" fill="#455071"/>
<path opacity="0.4" d="M18.9427 40.3591L11.4769 63.2147C11.4769 63.2147 8.51356 58.6141 9.26668 46.8752C9.41403 44.7796 9.77422 42.7494 9.47952 41.014C9.11933 38.5909 3.47092 36.1187 3.47092 36.1187L11.1822 35.5457L18.9427 40.3591Z" fill="#455071"/>
<path d="M116.668 77.2458L38.3929 98.5296L24.9513 41.9964L126.344 40.8831C126.344 40.8831 132.353 50.9192 130.618 61.4138C128.948 71.9575 116.668 77.2458 116.668 77.2458Z" fill="url(#paint20_linear)"/>
<path d="M130.012 63.5586C130.519 62.3961 130.454 62.7563 130.667 61.4138C132.402 50.9029 126.394 40.8831 126.394 40.8831L25.0004 41.9964L27.1779 51.1976C27.5381 51.525 27.7509 51.7378 27.7509 51.7378C27.7509 51.7378 27.8982 51.8852 39.6371 63.444C51.5888 75.2483 60.3316 81.0605 65.6198 81.9937C70.9081 82.976 76.3436 82.2393 83.4001 81.1587C90.4565 80.0781 112.985 72.2522 123.119 67.4224C125.329 66.4073 128.227 64.721 130.012 63.5586Z" fill="url(#paint21_linear)"/>
<path opacity="0.2" d="M14.4894 36.741L12.7867 53.7026L21.1529 39.2459L14.4894 36.741Z" fill="#182D54"/>
<path d="M54.2248 65.4252C54.8797 83.6311 45.8259 98.8082 34.0542 99.2011C22.2826 99.5613 12.1482 85.1373 11.4933 66.8987C10.8712 48.66 19.925 33.4994 31.6966 33.1228C43.5337 32.7299 53.6027 47.1865 54.2248 65.4252Z" fill="url(#paint22_linear)"/>
<path d="M32.2369 99.1192C43.5665 98.0386 52.1291 83.189 51.507 65.4252C50.8849 48.1525 41.7983 34.2525 30.747 33.1555C19.4175 34.2361 10.8548 49.0857 11.4769 66.8495C12.0991 84.1713 21.2675 98.0222 32.2369 99.1192Z" fill="url(#paint23_linear)"/>
<path d="M50.5574 65.5234C51.0977 81.0934 43.3864 94.0274 33.3502 94.3876C23.314 94.715 14.6204 82.4031 14.0801 66.8332C13.5398 51.2632 21.2511 38.3291 31.2873 37.9689C41.4381 37.6251 50.0171 49.9534 50.5574 65.5234Z" fill="#405160" stroke="#B7BABC" stroke-miterlimit="10"/>
<path d="M48.822 65.5727C49.3295 79.6691 42.3386 91.3262 33.252 91.6209C24.1981 91.8992 16.3722 80.7825 15.8319 66.686C15.3244 52.5895 22.3153 40.9325 31.4019 40.6378C40.5376 40.3922 48.3144 51.5089 48.822 65.5727Z" fill="#37D0CD"/>
<path opacity="0.2" d="M45.9568 66.997C46.3989 79.0961 40.3739 89.0995 32.548 89.3942C24.7548 89.6398 18.0258 80.0456 17.551 67.9466C17.109 55.8475 23.1339 45.8441 30.9599 45.5494C38.8676 45.3365 45.5311 54.8979 45.9568 66.997Z" fill="#0F0F0F"/>
<path d="M44.5161 65.7527C44.9581 77.1314 39.2606 86.5618 31.9422 86.8238C24.5911 87.0694 18.2878 78.081 17.8457 66.6696C17.4037 55.3236 23.1012 45.8932 30.4196 45.5985C37.8526 45.3693 44.1559 54.3577 44.5161 65.7527Z" fill="#3A4455"/>
<path opacity="0.3" d="M39.6208 67.4389C39.9155 76.1489 35.8224 83.3691 30.4196 83.5492C25.0986 83.7293 20.4653 76.8366 20.1378 68.1757C19.8922 59.4329 23.9853 52.2455 29.339 52.0327C34.7418 51.8689 39.3424 58.7289 39.6208 67.4389Z" fill="#1E2733"/>
<path d="M39.0805 65.1961C39.3261 72.6454 35.6751 78.785 30.8616 78.9979C26.0482 79.1779 21.9224 73.284 21.6604 65.851C21.4149 58.4016 25.0659 52.262 29.8793 52.0492C34.7418 51.8691 38.8676 57.7631 39.0805 65.1961Z" fill="#1E2733"/>
<path d="M37.0503 65.1961C37.2959 72.6454 33.6449 78.785 28.8315 78.9979C24.0181 79.1779 19.8923 73.284 19.6303 65.851C19.3683 58.418 23.0357 52.262 27.8492 52.0492C32.7117 51.8691 36.772 57.7631 37.0503 65.1961Z" fill="#334054" stroke="#3BD1CE" stroke-miterlimit="10"/>
<path d="M32.99 65.3433C33.1374 69.4855 31.0745 72.94 28.4222 73.0382C25.7371 73.1037 23.4286 69.8293 23.2485 65.6707C23.1012 61.5286 25.1641 58.074 27.8164 57.9758C30.5669 57.8612 32.859 61.152 32.99 65.3433Z" fill="#121923"/>
<path opacity="0.3" d="M32.2696 65.3432C32.417 69.0925 30.5342 72.2032 28.1111 72.3178C25.688 72.4324 23.6251 69.4199 23.4778 65.6379C23.3304 61.8887 25.2132 58.778 27.6363 58.6634C30.0921 58.6306 32.1714 61.5776 32.2696 65.3432Z" fill="url(#paint24_linear)"/>
<path d="M30.2067 65.4253C30.2722 67.7502 29.2244 69.6494 27.8819 69.6821C26.5394 69.7148 25.3442 67.9139 25.3114 65.5727C25.246 63.2478 26.2938 61.3486 27.6363 61.3159C28.9788 61.2504 30.174 63.1005 30.2067 65.4253Z" fill="#2CD8CF"/>
<path opacity="0.25" d="M48.822 65.5727C49.3295 79.6691 42.3386 91.3262 33.252 91.6209C24.1981 91.8992 16.3722 80.7825 15.8319 66.686C15.3244 52.5895 22.3153 40.9325 31.4019 40.6378C40.5376 40.3922 48.3144 51.5089 48.822 65.5727Z" fill="url(#paint25_linear)" stroke="#373737" stroke-miterlimit="10"/>
<g opacity="0.2">
<path d="M50.5574 65.5234C51.0977 81.0934 43.3864 94.0274 33.3502 94.3876C23.314 94.715 14.6204 82.4031 14.0801 66.8332C13.5398 51.2632 21.2511 38.3291 31.2873 37.9689C41.4381 37.6251 50.0171 49.9534 50.5574 65.5234Z" fill="url(#paint26_linear)"/>
<path d="M50.5574 65.5234C51.0977 81.0934 43.3864 94.0274 33.3502 94.3876C23.314 94.715 14.6204 82.4031 14.0801 66.8332C13.5398 51.2632 21.2511 38.3291 31.2873 37.9689C41.4381 37.6251 50.0171 49.9534 50.5574 65.5234Z" stroke="#4861F2" stroke-miterlimit="10"/>
<path d="M50.5574 65.5234C51.0977 81.0934 43.3864 94.0274 33.3502 94.3876C23.314 94.715 14.6204 82.4031 14.0801 66.8332C13.5398 51.2632 21.2511 38.3291 31.2873 37.9689C41.4381 37.6251 50.0171 49.9534 50.5574 65.5234Z" stroke="url(#paint27_linear)" stroke-miterlimit="10"/>
</g>
<path opacity="0.1" d="M23.9034 89.3778L17.3873 89.1322C17.3873 89.1322 14.735 74.168 15.2098 63.3787C15.6846 52.6222 19.4829 40.6377 19.4829 40.6377L25.9991 40.8833C25.9991 40.8833 21.9388 49.7243 21.7259 63.5915C21.5131 77.5243 23.9034 89.3778 23.9034 89.3778Z" fill="url(#paint28_linear)"/>
<path opacity="0.4" d="M90.2273 95.7136L88.8193 96.8433C88.8193 96.8433 88.8193 97.6455 88.9994 98.0057C89.245 98.6279 89.8016 99.0208 89.8671 99.4956C89.9817 100.069 90.7676 100.216 91.1769 100.069C91.5043 99.9213 91.357 99.4956 91.357 98.9062C91.357 98.1858 91.9791 97.4163 91.9791 97.4163L90.2273 95.7136Z" fill="url(#paint29_linear)"/>
<path d="M91.7499 97.0234C91.7172 98.0385 90.9968 98.8407 90.1618 98.7916C89.3596 98.7589 88.7538 97.9239 88.8193 96.8761C88.852 95.861 89.5724 95.0587 90.4074 95.1079C91.2096 95.1406 91.799 95.9756 91.7499 97.0234Z" fill="#364354"/>
<path d="M92.0119 97.0561C91.9791 98.0712 91.2587 98.8734 90.4237 98.8243C89.6215 98.7916 89.0157 97.9566 89.0812 96.9088C89.114 95.8937 89.8343 95.0915 90.6693 95.1406C91.4716 95.1733 92.0446 96.041 92.0119 97.0561Z" fill="#6A788B"/>
<path opacity="0.4" d="M90.6693 96.0083L89.8344 96.6304C89.8344 96.6304 89.6543 97.2526 89.949 97.8911C90.0963 98.2186 90.2437 98.4314 90.4237 98.6115C90.6038 98.8571 90.6693 98.8571 90.9313 98.7916C91.1114 98.7588 91.4388 98.4314 91.5043 98.2186C91.6844 97.9239 91.8645 97.3508 91.8645 97.3508L90.6693 96.0083Z" fill="url(#paint30_linear)"/>
<path d="M91.6517 97.0234C91.6189 97.711 91.1441 98.2186 90.6039 98.1858C90.0963 98.1531 89.7034 97.6128 89.7361 96.9252C89.7689 96.2375 90.2437 95.73 90.7839 95.7627C91.2915 95.7955 91.6844 96.3685 91.6517 97.0234Z" fill="#465466"/>
<path d="M91.8973 97.0234C91.8645 97.711 91.4225 98.2186 90.9968 98.1858C90.522 98.1531 90.1945 97.6128 90.1945 96.9252C90.2273 96.2375 90.6693 95.73 91.095 95.7627C91.5698 95.8282 91.93 96.4012 91.8973 97.0234Z" fill="#95A0AE"/>
<path d="M91.0295 95.943L91.1769 98.0386M91.7499 96.8434L90.1945 97.2855M90.129 97.2364L89.8671 97.2036M91.0295 95.8611L90.6693 95.8284" stroke="#2C3147" stroke-width="0.3" stroke-miterlimit="10" stroke-linecap="round"/>
<path d="M117.536 23.8232C117.536 23.8232 126.164 25.8861 132.271 31.5346C138.362 37.1175 140.67 46.0567 139.835 50.4445C139 54.8322 133.712 60.6935 123.528 65.5069C113.394 70.3203 90.4237 77.0984 83.3673 78.179C76.3109 79.2596 70.8753 79.9963 65.5871 79.014C60.2989 78.0317 51.5561 72.2359 39.6044 60.4643C27.6527 48.6926 27.7673 48.7254 27.7673 48.7254C27.7673 48.7254 18.9263 40.2937 12.7703 37.756C7.0073 35.4803 3.45453 36.086 3.45453 36.086L117.536 23.8232Z" fill="url(#paint31_linear)"/>
<path d="M117.536 23.283C117.536 23.283 126.164 25.3459 132.271 30.9943C138.362 36.5772 140.67 45.5164 139.835 49.9042C139 54.2919 133.712 60.1532 123.528 64.9666C113.394 69.7801 90.4238 76.5582 83.3673 77.6387C76.3109 78.7193 70.8753 79.456 65.5871 78.4737C60.2989 77.4914 51.5725 71.6956 39.6208 59.924C27.669 48.1524 27.7837 48.1851 27.7837 48.1851C27.7837 48.1851 18.9427 39.7534 12.7867 37.2157C9.05384 35.7258 3.88021 35.9878 3.47091 36.086C3.32356 36.1188 1.5881 37.756 1.5881 37.756L3.50365 35.5458L117.536 23.283Z" fill="url(#paint32_linear)"/>
<path opacity="0.4" d="M89.5069 26.5738L92.7323 29.6518L94.6478 33.5975L119.615 28.9314L115.441 25.9517L110.693 24.0688L89.5069 26.5738Z" fill="url(#paint33_linear)"/>
<path d="M89.5069 25.1658L108.384 23.2339L113.23 24.9857L94.6478 27.4088L89.5069 25.1658Z" fill="url(#paint34_linear)"/>
<path d="M89.5069 26.5738V25.1658L94.6478 27.4088V28.9314L89.5069 26.5738Z" fill="url(#paint35_linear)"/>
<path d="M113.23 24.9858V26.2792L94.6478 28.9315V27.4089L113.23 24.9858Z" fill="url(#paint36_linear)"/>
<path d="M113.23 24.9858V26.2792L94.6478 28.9315V27.4089L113.23 24.9858Z" fill="url(#paint37_linear)"/>
<path d="M97.9059 25.4932C98.2495 25.4932 98.528 25.4272 98.528 25.3458C98.528 25.2645 98.2495 25.1985 97.9059 25.1985C97.5623 25.1985 97.2837 25.2645 97.2837 25.3458C97.2837 25.4272 97.5623 25.4932 97.9059 25.4932Z" fill="#495971"/>
<path d="M106.092 24.5764C106.436 24.5764 106.714 24.5105 106.714 24.4291C106.714 24.3477 106.436 24.2817 106.092 24.2817C105.748 24.2817 105.47 24.3477 105.47 24.4291C105.47 24.5105 105.748 24.5764 106.092 24.5764Z" fill="#495971"/>
<path d="M98.1351 25.3459C98.1351 25.3459 99.4448 22.4808 102.048 22.1206C104.651 21.7604 106.076 22.2679 110.529 22.841C115.015 23.414 116.865 23.414 116.865 23.414" stroke="#E0E0E0" stroke-miterlimit="10"/>
<path d="M106.092 24.4292C106.092 24.4292 107.909 22.9393 109.792 23.2668C111.675 23.5942 115.048 23.5615 115.048 23.5615" stroke="#B7D2ED" stroke-miterlimit="10"/>
</g>
<defs>
<linearGradient id="paint0_linear" x1="131" y1="85.9999" x2="132" y2="87.4999" gradientUnits="userSpaceOnUse">
<stop stop-color="#4B5A80"/>
<stop offset="0.552885" stop-color="#4A5B85"/>
<stop offset="1" stop-color="#313756"/>
</linearGradient>
<linearGradient id="paint1_linear" x1="107.795" y1="83.6146" x2="134.612" y2="83.6146" gradientUnits="userSpaceOnUse">
<stop stop-color="#627094"/>
<stop offset="1" stop-color="#49587E"/>
</linearGradient>
<linearGradient id="paint2_linear" x1="130.765" y1="98.1778" x2="135" y2="96.5001" gradientUnits="userSpaceOnUse">
<stop stop-color="#2C3045"/>
<stop offset="1" stop-color="#313756"/>
</linearGradient>
<linearGradient id="paint3_linear" x1="110.541" y1="86.2135" x2="138.163" y2="117.898" gradientUnits="userSpaceOnUse">
<stop offset="0.1774" stop-color="#7884A5"/>
<stop offset="0.8768" stop-color="#4A5C87"/>
</linearGradient>
<linearGradient id="paint4_linear" x1="126.5" y1="108.5" x2="121" y2="99" gradientUnits="userSpaceOnUse">
<stop stop-color="#353D5C" stop-opacity="0"/>
<stop offset="1" stop-color="#303654"/>
</linearGradient>
<linearGradient id="paint5_linear" x1="91.1441" y1="101.133" x2="121.924" y2="101.133" gradientUnits="userSpaceOnUse">
<stop offset="0.1774" stop-color="#434E6B"/>
<stop offset="0.8768" stop-color="#2D3147"/>
</linearGradient>
<linearGradient id="paint6_linear" x1="87.7387" y1="96.6797" x2="121.924" y2="96.6797" gradientUnits="userSpaceOnUse">
<stop offset="0.1774" stop-color="#5F709B"/>
<stop offset="0.8768" stop-color="#4C5985"/>
</linearGradient>
<linearGradient id="paint7_linear" x1="94.0911" y1="108.298" x2="94.0911" y2="101.404" gradientUnits="userSpaceOnUse">
<stop stop-color="#33455B" stop-opacity="0"/>
<stop offset="1" stop-color="#33455B"/>
</linearGradient>
<linearGradient id="paint8_linear" x1="83.9823" y1="115.5" x2="90.9822" y2="115.5" gradientUnits="userSpaceOnUse">
<stop stop-color="#3F4A6B"/>
<stop offset="0.2365" stop-color="#4F5D82"/>
<stop offset="0.5222" stop-color="#38405D"/>
<stop offset="1" stop-color="#2D3147"/>
</linearGradient>
<linearGradient id="paint9_linear" x1="82.0617" y1="112.5" x2="92.9701" y2="112.5" gradientUnits="userSpaceOnUse">
<stop stop-color="#5E6C96"/>
<stop offset="0.2365" stop-color="#5E6F97"/>
<stop offset="0.5222" stop-color="#475179"/>
<stop offset="1" stop-color="#414662"/>
</linearGradient>
<linearGradient id="paint10_linear" x1="80" y1="107.869" x2="94.2507" y2="107.869" gradientUnits="userSpaceOnUse">
<stop stop-color="#98A1C1"/>
<stop offset="0.5025" stop-color="#7B86A4"/>
<stop offset="1" stop-color="#5E6A84"/>
</linearGradient>
<linearGradient id="paint11_linear" x1="78.8095" y1="101.963" x2="95.724" y2="101.963" gradientUnits="userSpaceOnUse">
<stop stop-color="#3D4868"/>
<stop offset="0.2365" stop-color="#4F5E83"/>
<stop offset="0.5222" stop-color="#3B4463"/>
<stop offset="1" stop-color="#2D3147"/>
</linearGradient>
<linearGradient id="paint12_linear" x1="87.4808" y1="97" x2="87.4808" y2="102.927" gradientUnits="userSpaceOnUse">
<stop stop-color="#59658A"/>
<stop offset="0.536458" stop-color="#4D5A7E"/>
<stop offset="1" stop-color="#676E9A"/>
</linearGradient>
<linearGradient id="paint13_linear" x1="83.2609" y1="97.368" x2="83.2609" y2="88.2761" gradientUnits="userSpaceOnUse">
<stop stop-color="#5C6888"/>
<stop offset="0.9951" stop-color="#2C3045"/>
</linearGradient>
<linearGradient id="paint14_linear" x1="86.6991" y1="95.3383" x2="86.6991" y2="92.207" gradientUnits="userSpaceOnUse">
<stop stop-color="#5F6E92"/>
<stop offset="0.9951" stop-color="#4B5A80"/>
</linearGradient>
<linearGradient id="paint15_linear" x1="89.4004" y1="101.88" x2="89.4004" y2="93.582" gradientUnits="userSpaceOnUse">
<stop stop-color="#4A5676"/>
<stop offset="0.9951" stop-color="#303551"/>
</linearGradient>
<linearGradient id="paint16_linear" x1="83.6047" y1="93.5852" x2="83.6047" y2="101.919" gradientUnits="userSpaceOnUse">
<stop stop-color="#7884A5"/>
<stop offset="1" stop-color="#637297"/>
</linearGradient>
<linearGradient id="paint17_linear" x1="76.2945" y1="86.267" x2="103.636" y2="86.267" gradientUnits="userSpaceOnUse">
<stop offset="0.1774" stop-color="#3B4662"/>
<stop offset="0.8768" stop-color="#2E3455"/>
</linearGradient>
<linearGradient id="paint18_linear" x1="69.1533" y1="89.9589" x2="76.2662" y2="89.9589" gradientUnits="userSpaceOnUse">
<stop stop-color="#2C3045"/>
<stop offset="0.5025" stop-color="#2C3147"/>
<stop offset="1" stop-color="#313758"/>
</linearGradient>
<linearGradient id="paint19_linear" x1="89.9162" y1="100.359" x2="89.9162" y2="87.1224" gradientUnits="userSpaceOnUse">
<stop stop-color="#4C5B81"/>
<stop offset="1" stop-color="#6B7A9F"/>
</linearGradient>
<linearGradient id="paint20_linear" x1="86" y1="103" x2="74.5" y2="28.4999" gradientUnits="userSpaceOnUse">
<stop offset="0.15385" stop-color="#2F3450"/>
<stop offset="0.295495" stop-color="#4A587A"/>
<stop offset="0.358147" stop-color="#475477"/>
<stop offset="0.4851" stop-color="#313952"/>
<stop offset="0.993816" stop-color="#7E8EA0"/>
</linearGradient>
<linearGradient id="paint21_linear" x1="48.2377" y1="62.2519" x2="148.072" y2="55.6134" gradientUnits="userSpaceOnUse">
<stop stop-color="#38415B" stop-opacity="0.6"/>
<stop offset="1" stop-color="#2C3045" stop-opacity="0.8"/>
</linearGradient>
<linearGradient id="paint22_linear" x1="11.4631" y1="66.1613" x2="54.2582" y2="66.1613" gradientUnits="userSpaceOnUse">
<stop stop-color="#545F7C"/>
<stop offset="0.5" stop-color="#45506D"/>
<stop offset="0.995" stop-color="#344265"/>
</linearGradient>
<linearGradient id="paint23_linear" x1="11.4451" y1="66.1374" x2="51.5389" y2="66.1374" gradientUnits="userSpaceOnUse">
<stop stop-color="#6B7598"/>
<stop offset="0.140625" stop-color="#9BA5C6"/>
<stop offset="0.2949" stop-color="#8794C0"/>
<stop offset="0.458333" stop-color="#6B7598"/>
<stop offset="0.995" stop-color="#7E8EA0"/>
</linearGradient>
<linearGradient id="paint24_linear" x1="26.6667" y1="61.2692" x2="29.9702" y2="72.7307" gradientUnits="userSpaceOnUse">
<stop stop-color="#272EC3"/>
<stop offset="1" stop-color="#9A40EE"/>
</linearGradient>
<linearGradient id="paint25_linear" x1="31.2522" y1="65.8941" x2="20.8073" y2="63.5881" gradientUnits="userSpaceOnUse">
<stop stop-color="white" stop-opacity="0"/>
<stop offset="1" stop-color="white"/>
</linearGradient>
<linearGradient id="paint26_linear" x1="14.0534" y1="66.1779" x2="50.5842" y2="66.1779" gradientUnits="userSpaceOnUse">
<stop stop-color="#182D54" stop-opacity="0"/>
<stop offset="1" stop-color="#3DA8EA"/>
</linearGradient>
<linearGradient id="paint27_linear" x1="32.3188" y1="37.9619" x2="32.3188" y2="94.394" gradientUnits="userSpaceOnUse">
<stop stop-color="white"/>
<stop offset="1" stop-color="white" stop-opacity="0"/>
</linearGradient>
<linearGradient id="paint28_linear" x1="19.129" y1="86.6662" x2="21.0397" y2="41.9425" gradientUnits="userSpaceOnUse">
<stop stop-color="white" stop-opacity="0"/>
<stop offset="1" stop-color="white"/>
</linearGradient>
<linearGradient id="paint29_linear" x1="91.0744" y1="100.098" x2="90.6614" y2="98.4461" gradientUnits="userSpaceOnUse">
<stop offset="0.00492611" stop-color="#4F5C6D" stop-opacity="0"/>
<stop offset="0.9951" stop-color="#4F5C6D"/>
</linearGradient>
<linearGradient id="paint30_linear" x1="91.1789" y1="98.6309" x2="90.9886" y2="97.9535" gradientUnits="userSpaceOnUse">
<stop stop-color="#414E63" stop-opacity="0"/>
<stop offset="1" stop-color="#414E63"/>
</linearGradient>
<linearGradient id="paint31_linear" x1="14" y1="51.9999" x2="141" y2="48.4999" gradientUnits="userSpaceOnUse">
<stop stop-color="#545F7C"/>
<stop offset="0.484427" stop-color="#2A3247"/>
<stop offset="1" stop-color="#273863"/>
</linearGradient>
<linearGradient id="paint32_linear" x1="44.8324" y1="22.8812" x2="130.933" y2="73.9737" gradientUnits="userSpaceOnUse">
<stop stop-color="#687599"/>
<stop offset="1" stop-color="#353D55"/>
</linearGradient>
<linearGradient id="paint33_linear" x1="104.985" y1="31.4548" x2="103.996" y2="22.8194" gradientUnits="userSpaceOnUse">
<stop stop-color="#495971" stop-opacity="0"/>
<stop offset="1" stop-color="#37475A"/>
</linearGradient>
<linearGradient id="paint34_linear" x1="89.5069" y1="25.3213" x2="113.265" y2="25.3213" gradientUnits="userSpaceOnUse">
<stop stop-color="#97A3C4"/>
<stop offset="0.5" stop-color="#929FC9"/>
<stop offset="0.995" stop-color="#65749C"/>
</linearGradient>
<linearGradient id="paint35_linear" x1="89.5124" y1="27.0486" x2="94.6374" y2="27.0486" gradientUnits="userSpaceOnUse">
<stop stop-color="#434E6F"/>
<stop offset="1" stop-color="#353D59"/>
</linearGradient>
<linearGradient id="paint36_linear" x1="85.4112" y1="20.2726" x2="110.515" y2="29.3319" gradientUnits="userSpaceOnUse">
<stop stop-color="#E7EFF5"/>
<stop offset="0.0797567" stop-color="#C3C5D2"/>
<stop offset="0.1617" stop-color="#C6C8D5"/>
<stop offset="0.2232" stop-color="#CED3DD"/>
<stop offset="0.2539" stop-color="#DFE6EE"/>
<stop offset="0.2949" stop-color="#DDE4EC"/>
<stop offset="0.428" stop-color="#98A5B5"/>
<stop offset="0.995" stop-color="#7E8EA0"/>
</linearGradient>
<linearGradient id="paint37_linear" x1="103.939" y1="24.9858" x2="103.939" y2="28.9315" gradientUnits="userSpaceOnUse">
<stop stop-color="#445072"/>
<stop offset="1" stop-color="#3C496B"/>
</linearGradient>
<clipPath id="clip0">
<rect y="22" width="140" height="95" fill="white"/>
</clipPath>
</defs>
</svg>
