<svg width="140" height="140" viewBox="0 0 140 140" fill="none" xmlns="http://www.w3.org/2000/svg">
<path d="M0 66.7476V104.483C0 108.955 2.33498 113.091 6.13428 115.387L20.1837 125.894C28.6926 131.078 39.3583 131.078 47.8473 125.894L133.866 67.7964C137.665 65.4614 140 61.3257 140 56.8932V22.8975L0 66.7476Z" fill="url(#paint0_linear)"/>
<path d="M0.573852 68.3902C0.237456 68.5089 0 68.8255 0 69.1817V105.315C0 109.787 2.33498 113.922 6.13428 116.218L20.164 125.874C20.1837 125.894 20.2035 125.894 20.2035 125.914C28.7124 131.078 39.3583 131.078 47.8473 125.894L133.866 67.7965C137.665 65.4615 140 61.3258 140 56.8933V24.0453C140 23.4714 139.446 23.0757 138.912 23.2538L0.573852 68.3902Z" fill="url(#paint1_linear)"/>
<path d="M83.8707 88.6021C83.3958 88.6021 83 88.2064 83 87.7314V81.9336C83 81.3597 83.2968 80.8254 83.7915 80.5286L97.6035 72.0989C97.7025 72.0396 97.8212 72 97.9597 72C98.3357 72 98.6325 72.2968 98.6325 72.6728V77.6792C98.6325 78.4509 98.2565 79.1632 97.6035 79.5986L84.3654 88.4438C84.1873 88.5625 84.029 88.6021 83.8707 88.6021Z" fill="#131727"/>
<path d="M84.1583 89.4444C83.6834 89.4444 83.2876 89.0486 83.2876 88.5737V82.7759C83.2876 82.202 83.5844 81.6677 84.0791 81.3709L97.8912 72.9412C97.9901 72.8819 98.1088 72.8423 98.2473 72.8423C98.6233 72.8423 98.9201 73.1391 98.9201 73.5151V78.5214C98.9201 79.2932 98.5442 80.0055 97.8912 80.4409L84.653 89.2861C84.4749 89.4048 84.3166 89.4444 84.1583 89.4444Z" fill="#2CD8CF"/>
<path d="M135.785 32.1187L48.3816 81.9845C39.5562 87.07 28.4749 87.07 19.6692 81.9845L2.90882 72.3081C-1.28623 69.894 -0.831107 63.9972 3.68055 62.1767L104.045 12.7661C109.823 10.4113 116.373 10.4113 122.151 12.7661L134.677 17.436C141.207 20.0876 141.86 28.6163 135.785 32.1187Z" fill="url(#paint2_linear)"/>
<path d="M135.772 30.1187L48.3681 79.9845C39.5427 85.07 28.4614 85.07 19.6558 79.9845L2.89533 70.3081C-1.29972 67.894 -0.844596 61.9972 3.66706 60.1767L104.032 10.7661C109.81 8.41131 116.36 8.41131 122.138 10.7661L134.664 15.436C141.194 18.0876 141.847 26.6163 135.772 30.1187Z" fill="url(#paint3_linear)"/>
<path d="M44.7647 96.2345C44.4329 96.4278 44.016 96.1905 44.0129 95.8064L44.0023 94.4647C44.0009 94.2857 44.0953 94.1195 44.2499 94.0291L137.346 39.5812C137.678 39.3871 138.095 39.6246 138.098 40.0091L138.11 41.5463C138.111 41.7255 138.016 41.8917 137.861 41.9819L44.7647 96.2345Z" fill="url(#paint4_linear)"/>
<path d="M44.7647 101.082C44.4329 101.276 44.016 101.038 44.013 100.654L44.0023 99.293C44.0009 99.1139 44.0953 98.9478 44.2498 98.8574L137.346 44.4095C137.678 44.2154 138.095 44.4529 138.098 44.8375L138.11 46.3943C138.111 46.5736 138.016 46.7398 137.861 46.83L44.7647 101.082Z" fill="url(#paint5_linear)"/>
<path d="M44.7647 91.1093C44.4329 91.3027 44.016 91.0653 44.013 90.6813L44.0023 89.3198C44.0009 89.1408 44.0953 88.9747 44.2498 88.8843L137.346 34.4364C137.678 34.2422 138.095 34.4798 138.098 34.8643L138.11 36.4212C138.111 36.6004 138.016 36.7666 137.861 36.8568L44.7647 91.1093Z" fill="url(#paint6_linear)"/>
<path d="M44.7647 95.2345C44.4329 95.4278 44.016 95.1905 44.0129 94.8064L44.0023 93.4647C44.0009 93.2857 44.0953 93.1195 44.2499 93.0291L137.346 38.5812C137.678 38.3871 138.095 38.6246 138.098 39.0091L138.11 40.5463C138.111 40.7255 138.016 40.8917 137.861 40.9819L44.7647 95.2345Z" fill="url(#paint7_linear)"/>
<path d="M44.7647 100.082C44.4329 100.276 44.016 100.038 44.013 99.6544L44.0023 98.293C44.0009 98.1139 44.0953 97.9478 44.2498 97.8574L137.346 43.4095C137.678 43.2154 138.095 43.4529 138.098 43.8375L138.11 45.3943C138.111 45.5736 138.016 45.7398 137.861 45.83L44.7647 100.082Z" fill="url(#paint8_linear)"/>
<path d="M44.7647 90.1093C44.4329 90.3027 44.016 90.0653 44.013 89.6813L44.0023 88.3198C44.0009 88.1408 44.0953 87.9747 44.2498 87.8843L137.346 33.4364C137.678 33.2422 138.095 33.4798 138.098 33.8643L138.11 35.4212C138.111 35.6004 138.016 35.7666 137.861 35.8568L44.7647 90.1093Z" fill="url(#paint9_linear)"/>
<path d="M90.3322 83.1916L90.4905 83.5082L88.9074 84.5569C88.8678 84.4778 88.8481 84.3986 88.8283 84.2997C88.8085 84.1612 88.8283 83.9831 88.8481 83.805C88.8876 83.6269 88.947 83.4092 89.0459 83.152C89.1845 82.7365 89.2834 82.4396 89.3032 82.222C89.323 82.0241 89.3032 81.8658 89.2438 81.7273C89.1845 81.5887 89.0855 81.5096 88.9668 81.47C88.8481 81.4304 88.7095 81.47 88.571 81.5492C88.4325 81.6481 88.3336 81.7668 88.294 81.9251C88.2544 82.0834 88.2742 82.2418 88.3534 82.4001L88.0368 82.5584C87.9378 82.2813 87.918 82.0439 87.9972 81.8262C88.0763 81.6085 88.2148 81.4107 88.4523 81.2721C88.6898 81.1138 88.9074 81.0743 89.1053 81.1336C89.3032 81.193 89.4615 81.3315 89.5604 81.5294C89.6198 81.6283 89.6396 81.7471 89.6594 81.8856C89.6792 82.0241 89.6594 82.1626 89.6198 82.3407C89.5802 82.5188 89.5011 82.776 89.3823 83.1124C89.2834 83.3895 89.224 83.5873 89.2042 83.6863C89.1845 83.7852 89.1647 83.8644 89.1647 83.9435L90.3322 83.1916Z" fill="white"/>
<path d="M91.3611 80.2629L91.0841 80.4805C91.0049 80.3618 90.906 80.3024 90.8466 80.2629C90.7279 80.2233 90.6092 80.2431 90.4905 80.3222C90.3915 80.3816 90.3322 80.4607 90.2926 80.5795C90.2332 80.718 90.2134 80.8763 90.2332 81.0544C90.253 81.2325 90.3124 81.4699 90.4509 81.7272C90.4707 81.5491 90.5102 81.4106 90.5894 81.2918C90.6686 81.1731 90.7477 81.0742 90.8664 80.995C91.0643 80.8565 91.2622 80.8367 91.4799 80.9159C91.6975 80.995 91.8558 81.1533 91.9943 81.4106C92.0735 81.5887 92.1131 81.7667 92.1131 81.9448C92.1131 82.1427 92.0735 82.301 92.0141 82.4593C91.935 82.6176 91.836 82.7364 91.6777 82.8353C91.4403 82.9936 91.183 83.0332 90.9258 82.9144C90.6686 82.8155 90.4311 82.5187 90.2134 82.0636C89.976 81.5491 89.877 81.1137 89.9364 80.7576C89.9958 80.4607 90.1343 80.2233 90.3915 80.0452C90.5894 79.9265 90.7675 79.8869 90.9456 79.9265C91.0841 79.9463 91.2424 80.065 91.3611 80.2629ZM90.7081 82.2219C90.7675 82.3406 90.8269 82.4395 90.9258 82.4989C91.0247 82.5781 91.1237 82.6176 91.2226 82.6176C91.3216 82.6176 91.4205 82.5978 91.4996 82.5385C91.6184 82.4593 91.6975 82.3208 91.7371 82.1625C91.7767 81.9844 91.7371 81.8063 91.658 81.6084C91.5788 81.4303 91.4601 81.3116 91.3216 81.2523C91.183 81.1929 91.0445 81.2127 90.906 81.3116C90.7675 81.3908 90.6883 81.5293 90.6488 81.6876C90.6092 81.8657 90.629 82.0438 90.7081 82.2219Z" fill="white"/>
<path d="M94.9823 79.313L95.3385 79.1943C95.4177 79.5307 95.3979 79.8275 95.2989 80.1045C95.2 80.3816 95.0219 80.5794 94.7844 80.7575C94.5272 80.9356 94.2897 81.0148 94.0721 80.995C93.8544 80.9752 93.6565 80.8961 93.4586 80.718C93.2608 80.5399 93.1025 80.342 92.9837 80.0847C92.8452 79.8077 92.7859 79.5307 92.7859 79.2536C92.7859 78.9766 92.8452 78.7392 92.9639 78.5017C93.0827 78.284 93.2608 78.0862 93.4586 77.9476C93.6961 77.7893 93.9336 77.73 94.1512 77.7498C94.3887 77.7893 94.5866 77.9081 94.7647 78.1059L94.4876 78.4028C94.3293 78.2445 94.1908 78.1455 94.0523 78.1257C93.9138 78.1059 93.7555 78.1455 93.5972 78.2445C93.4191 78.3632 93.2806 78.5215 93.2014 78.6996C93.1223 78.8777 93.1025 79.0756 93.1223 79.2734C93.142 79.4713 93.2014 79.6692 93.3003 79.8473C93.3993 80.0847 93.5378 80.2628 93.6763 80.3816C93.8148 80.5201 93.9731 80.5794 94.1314 80.5794C94.2897 80.5794 94.4481 80.5399 94.6064 80.4409C94.7844 80.3222 94.9032 80.1639 94.9823 79.966C95.0417 79.8077 95.0417 79.5703 94.9823 79.313Z" fill="white"/>
<path d="M134 60.5C134 60.5 135 63 134.5 67.5L133.5 68C134.604 63.8558 133.5 61.5 133.5 61.5L51.5 115C53 117.5 51.5 123.5 51.5 123.5L50.6375 124C51.1322 121.507 52.0435 116.281 50.5 114.5L134 60.5Z" fill="url(#paint10_linear)"/>
<defs>
<linearGradient id="paint0_linear" x1="-0.16056" y1="76.3351" x2="130.118" y2="76.3351" gradientUnits="userSpaceOnUse">
<stop stop-color="#E7EFF5"/>
<stop offset="0.0824813" stop-color="#C3C5D2"/>
<stop offset="0.1567" stop-color="#C6C8D5"/>
<stop offset="0.2045" stop-color="#CED3DD"/>
<stop offset="0.2548" stop-color="#DDE4EC"/>
<stop offset="0.2787" stop-color="#DFE6EE"/>
<stop offset="0.4041" stop-color="#98A5B5"/>
<stop offset="0.995" stop-color="#7E8EA0"/>
</linearGradient>
<linearGradient id="paint1_linear" x1="-0.187511" y1="76.4931" x2="137.021" y2="76.4931" gradientUnits="userSpaceOnUse">
<stop stop-color="#475375"/>
<stop offset="0.210902" stop-color="#2E364F"/>
<stop offset="0.256453" stop-color="#2E374F"/>
<stop offset="0.322046" stop-color="#27293B"/>
<stop offset="1" stop-color="#2D3146"/>
</linearGradient>
<linearGradient id="paint2_linear" x1="20.3432" y1="75.26" x2="106.929" y2="26.271" gradientUnits="userSpaceOnUse">
<stop stop-color="#596382"/>
<stop offset="0.5" stop-color="#485579"/>
<stop offset="0.995" stop-color="#2A3C6B"/>
</linearGradient>
<linearGradient id="paint3_linear" x1="9.5" y1="63" x2="136.5" y2="23" gradientUnits="userSpaceOnUse">
<stop stop-color="#697698"/>
<stop offset="0.995" stop-color="#384464"/>
</linearGradient>
<linearGradient id="paint4_linear" x1="66.6612" y1="48.9668" x2="115.528" y2="76.6151" gradientUnits="userSpaceOnUse">
<stop stop-color="#1D202C"/>
<stop offset="0.995" stop-color="#0D1122"/>
</linearGradient>
<linearGradient id="paint5_linear" x1="66.6612" y1="48.9668" x2="115.528" y2="76.6151" gradientUnits="userSpaceOnUse">
<stop stop-color="#1D202C"/>
<stop offset="0.995" stop-color="#0D1122"/>
</linearGradient>
<linearGradient id="paint6_linear" x1="66.6612" y1="48.9668" x2="115.528" y2="76.6151" gradientUnits="userSpaceOnUse">
<stop stop-color="#1D202C"/>
<stop offset="0.995" stop-color="#0D1122"/>
</linearGradient>
<linearGradient id="paint7_linear" x1="66.6612" y1="47.9668" x2="115.528" y2="75.6151" gradientUnits="userSpaceOnUse">
<stop stop-color="#8994AD"/>
<stop offset="0.995" stop-color="#6C799B"/>
</linearGradient>
<linearGradient id="paint8_linear" x1="66.6612" y1="47.9668" x2="115.528" y2="75.6151" gradientUnits="userSpaceOnUse">
<stop stop-color="#8994AD"/>
<stop offset="0.995" stop-color="#6C799B"/>
</linearGradient>
<linearGradient id="paint9_linear" x1="66.6612" y1="47.9668" x2="115.528" y2="75.6151" gradientUnits="userSpaceOnUse">
<stop stop-color="#8994AD"/>
<stop offset="0.995" stop-color="#6C799B"/>
</linearGradient>
<linearGradient id="paint10_linear" x1="93.4191" y1="59.8219" x2="93.4191" y2="123.381" gradientUnits="userSpaceOnUse">
<stop stop-color="#8792AC"/>
<stop offset="1" stop-color="#6C799B"/>
</linearGradient>
</defs>
</svg>
