<svg width="153" height="140" viewBox="0 0 153 140" fill="none" xmlns="http://www.w3.org/2000/svg">
<path d="M35.904 101.917C35.904 101.917 28.5064 106.929 30.1005 119.333H102.16C102.16 119.333 102.429 103.51 96.6256 101.917C90.8042 100.342 35.904 101.917 35.904 101.917Z" fill="url(#paint0_linear)"/>
<path d="M41.6118 92.1968L49.9409 107.304H82.4332L91.2817 92.1968H41.6118Z" fill="url(#paint1_linear)"/>
<path d="M122.323 96.6543H10.0508C6.11021 96.6543 2.92188 93.4682 2.92188 89.5304V10.3798C2.92188 6.44193 6.11021 3.25586 10.0508 3.25586H122.323C126.264 3.25586 129.452 6.44193 129.452 10.3798V89.5304C129.452 93.4682 126.264 96.6543 122.323 96.6543Z" fill="url(#paint2_linear)"/>
<rect x="7.7782" y="6.83643" width="116.673" height="84.1573" rx="4" fill="url(#paint3_linear)"/>
<path d="M14.6006 87.848C12.9885 87.848 11.6809 86.5413 11.6809 84.9304V13.2438C11.6809 11.6328 12.9885 10.3262 14.6006 10.3262H117.881C119.493 10.3262 120.801 11.6328 120.801 13.2438V84.9304C120.801 86.5413 119.493 87.848 117.881 87.848H14.6006Z" fill="url(#paint4_linear)"/>
<path d="M117.863 11.0613C119.081 11.0613 120.066 12.0458 120.066 13.2629V84.9496C120.066 86.1667 119.081 87.1512 117.863 87.1512H14.5825C13.3645 87.1512 12.3794 86.1667 12.3794 84.9496V13.2629C12.3794 12.0458 13.3645 11.0613 14.5825 11.0613H117.863ZM117.863 9.62939H14.5825C12.5764 9.62939 10.9464 11.2582 10.9464 13.2629V84.9496C10.9464 86.9543 12.5764 88.5831 14.5825 88.5831H117.863C119.869 88.5831 121.499 86.9543 121.499 84.9496V13.2629C121.499 11.2582 119.869 9.62939 117.863 9.62939Z" fill="#3F4766"/>
<path opacity="0.68" d="M69.0528 96.7441H63.3031C61.1715 96.7441 59.4341 95.0079 59.4341 92.8779V92.6094C59.4341 90.4794 61.1715 88.7432 63.3031 88.7432H69.0528C71.1843 88.7432 72.9218 90.4794 72.9218 92.6094V92.8779C72.9397 95.0079 71.2022 96.7441 69.0528 96.7441Z" fill="#323B52"/>
<path d="M69.7157 95.3671H63.1778C61.7448 95.3671 60.5806 94.2036 60.5806 92.7717V92.5927C60.5806 91.1608 61.7448 89.9973 63.1778 89.9973H69.7157C71.1486 89.9973 72.3129 91.1608 72.3129 92.5927V92.7717C72.295 94.2036 71.1307 95.3671 69.7157 95.3671Z" fill="url(#paint5_linear)"/>
<path opacity="0.83" d="M63.2674 90.9639H69.6082C70.9337 90.9639 72.0263 91.9125 72.2413 93.1655C72.2771 93.0044 72.295 92.8433 72.295 92.6822C72.295 91.1966 71.0949 89.9973 69.6082 89.9973H63.2674C61.7807 89.9973 60.5806 91.1966 60.5806 92.6822C60.5806 92.8433 60.5985 93.0044 60.6343 93.1655C60.8492 91.9125 61.9419 90.9639 63.2674 90.9639Z" fill="white"/>
<path d="M30.1005 119.333H102.16C102.16 119.333 102.196 117.4 101.981 114.822H29.9035C29.8318 116.201 29.8855 117.704 30.1005 119.333Z" fill="url(#paint6_linear)"/>
<path d="M102.071 114.857H29.9033V115.752H102.071V114.857Z" fill="url(#paint7_linear)"/>
<path d="M45.9285 61.4842C45.9285 61.4842 55.2248 63.489 56.1921 58.9425C56.3175 58.155 55.9592 57.7612 55.9413 57.5285C55.9055 56.9557 57.1056 57.1705 56.9802 56.3113C56.8548 55.4522 57.1056 55.2553 56.7115 54.8615C56.4428 54.593 56.6757 54.3603 56.8369 54.2529C56.9265 54.1992 56.9802 54.1097 56.9623 54.0023C56.9444 53.4833 56.819 52.2124 56.0667 51.9797C56.0667 51.7649 58.9863 51.389 59.0938 50.3509C59.2192 49.3127 58.0191 46.252 55.7443 44.5873C55.7443 44.5873 57.9654 43.0301 56.9981 40.3273C56.0309 37.6245 56.2637 35.4587 56.2637 35.4587C56.2637 35.4587 54.0247 29.3908 52.5022 29.176C50.9797 28.9612 42.9193 27.0997 38.71 29.176C29.6465 33.633 29.6644 54.7362 29.6644 54.7362L27.4434 60.1776C27.4434 60.1776 32.5124 68.4113 42.1849 69.8432L45.9285 61.4842Z" fill="url(#paint8_linear)"/>
<path d="M59.1296 50.2973C59.1296 50.2973 59.3804 51.3176 55.0994 52.0693C54.9382 52.1051 55.1173 52.0156 55.4756 51.8724C56.1383 51.586 57.3742 51.0849 57.7325 50.6732C58.2698 50.0467 59.1296 50.2973 59.1296 50.2973Z" fill="#D99C70"/>
<path d="M27.497 59.4619C27.497 59.4619 24.1654 61.3592 24.4878 62.5585C24.8102 63.7577 31.9392 73.8887 43.6715 72.3136C44.9612 72.0809 43.2237 69.9688 42.5431 69.8077C41.8445 69.6466 34.017 67.8925 27.497 59.4619Z" fill="#323B53"/>
<path d="M27.497 58.9968C27.497 58.9968 24.1654 60.8942 24.4878 62.0934C24.8102 63.2748 31.9392 73.4237 43.6715 71.8485C44.9612 71.6158 43.2237 69.5037 42.5431 69.3426C41.8445 69.1636 34.017 67.4274 27.497 58.9968Z" fill="#F4F4F4"/>
<path d="M55.7442 60.017C55.5113 60.0349 55.368 60.0528 55.368 60.0528C55.368 60.0528 47.2718 61.61 42.1848 57.4932C42.1848 57.4932 43.0446 60.0886 45.9105 61.5205L45.9284 61.4668C45.9284 61.4847 53.6306 63.1314 55.7442 60.017Z" fill="#D99C70"/>
<path d="M56.6183 56.9887C56.8705 56.8143 56.9973 56.5609 56.9016 56.4227C56.806 56.2845 56.524 56.3139 56.2718 56.4882C56.0196 56.6626 55.8928 56.916 55.9884 57.0542C56.0841 57.1924 56.3661 57.163 56.6183 56.9887Z" fill="#D99C70"/>
<path opacity="0.14" d="M56.6904 54.225C56.8565 54.1987 56.9522 53.932 56.9041 53.6293C56.856 53.3267 56.6824 53.1027 56.5163 53.129C56.3502 53.1554 56.2546 53.4221 56.3026 53.7248C56.3507 54.0274 56.5243 54.2514 56.6904 54.225Z" fill="white"/>
<path opacity="0.14" d="M56.6904 56.2123C56.8565 56.186 56.9522 55.9193 56.9041 55.6166C56.856 55.314 56.6824 55.09 56.5163 55.1164C56.3502 55.1427 56.2546 55.4094 56.3026 55.7121C56.3507 56.0147 56.5243 56.2387 56.6904 56.2123Z" fill="white"/>
<path d="M56.9085 54.0564C56.9085 54.0564 54.5262 54.8261 53.344 54.5039C53.344 54.5039 53.8097 55.1841 56.9085 55.4346V54.0564Z" fill="#D99C70"/>
<path d="M52.6993 27.1895C52.6993 27.1895 55.4936 32.0581 43.7254 32.0044C43.7254 32.0044 42.0954 38.8598 43.403 41.7058C43.403 41.7058 36.8293 37.1057 36.9189 36.6761C36.9905 36.2465 38.513 28.8362 38.513 28.8362L52.6993 27.1895Z" fill="#D99C70"/>
<path d="M39.0145 46.8417L43.4029 41.7225C43.4029 41.7225 40.6624 33.7931 43.4029 31.323C43.4029 31.323 52.5022 31.86 53.9172 27.3672C53.9172 27.3672 41.8087 20.1359 28.0703 27.3672C24.255 29.372 20.9413 35.2429 22.7862 41.6867C24.6312 48.1304 28.5001 52.999 28.5001 52.999L29.342 56.9011L37.6353 50.7795C37.6353 50.7795 32.8169 49.2939 32.2437 45.7677C31.6706 42.2236 35.9515 42.4384 35.9515 42.4384L39.0145 46.8417Z" fill="url(#paint9_linear)"/>
<path d="M87.6454 61.8754C87.6454 61.8754 78.3491 63.8801 77.3819 59.3337C77.2565 58.5461 77.6147 58.1523 77.6326 57.9196C77.6685 57.3468 76.4683 57.5616 76.5937 56.7025C76.7191 55.8433 76.4683 55.6464 76.8624 55.2526C77.1311 54.9841 76.8982 54.7514 76.737 54.644C76.6475 54.5903 76.5937 54.5009 76.6116 54.3935C76.6296 53.8744 76.7549 52.6035 77.5072 52.3708C77.5072 52.156 74.5876 51.7802 74.4801 50.742C74.3726 49.7038 75.5548 46.6431 77.8297 44.9784C77.8297 44.9784 75.6086 43.4212 76.5758 40.7184C77.5431 38.0156 77.3102 35.8498 77.3102 35.8498C77.3102 35.8498 79.5492 29.7819 81.0717 29.5671C82.5942 29.3524 90.6546 27.4908 94.864 29.5671C103.927 34.0241 103.91 55.1273 103.91 55.1273L106.131 60.5687C106.131 60.5687 101.061 68.8024 91.389 70.2343L87.6454 61.8754Z" fill="url(#paint10_linear)"/>
<path d="M74.4622 50.7072C74.4622 50.7072 74.2115 51.7275 78.4924 52.4792C78.6536 52.515 78.4745 52.4255 78.1163 52.2823C77.4535 51.996 76.2176 51.4948 75.8594 51.0831C75.322 50.4566 74.4622 50.7072 74.4622 50.7072Z" fill="#D99C70"/>
<path d="M106.095 59.8718C106.095 59.8718 109.427 61.7692 109.104 62.9684C108.782 64.1498 101.653 74.2987 89.9204 72.7235C88.6307 72.4908 90.3682 70.3787 91.0488 70.2176C91.7295 70.0565 99.557 68.3024 106.095 59.8718Z" fill="#0E3331"/>
<path d="M106.095 59.4067C106.095 59.4067 109.427 61.3041 109.104 62.5033C108.782 63.6847 101.653 73.8335 89.9204 72.2584C88.6307 72.0257 90.3682 69.9136 91.0488 69.7525C91.7474 69.5735 99.557 67.8194 106.095 59.4067Z" fill="#F4F4F4"/>
<path d="M77.8477 60.4269C78.0805 60.4448 78.2238 60.4627 78.2238 60.4627C78.2238 60.4627 86.32 62.0199 91.407 57.9031C91.407 57.9031 90.5472 60.4985 87.6813 61.9304L87.6634 61.8767C87.6455 61.8767 79.9613 63.5413 77.8477 60.4269Z" fill="#D99C70"/>
<path d="M77.5833 57.453C77.679 57.3148 77.5521 57.0614 77.3 56.8871C77.0478 56.7127 76.7658 56.6834 76.6701 56.8216C76.5744 56.9598 76.7013 57.2131 76.9534 57.3875C77.2056 57.5619 77.4876 57.5912 77.5833 57.453Z" fill="#D99C70"/>
<path opacity="0.14" d="M77.2647 54.1331C77.3128 53.8305 77.2171 53.5638 77.051 53.5374C76.8849 53.5111 76.7113 53.7351 76.6632 54.0377C76.6152 54.3403 76.7108 54.6071 76.8769 54.6334C77.043 54.6598 77.2166 54.4358 77.2647 54.1331Z" fill="white"/>
<path opacity="0.14" d="M77.2918 56.1168C77.3399 55.8141 77.2442 55.5474 77.0781 55.5211C76.912 55.4947 76.7384 55.7187 76.6903 56.0213C76.6423 56.324 76.7379 56.5907 76.904 56.617C77.0701 56.6434 77.2437 56.4194 77.2918 56.1168Z" fill="white"/>
<path d="M76.6653 54.4663C76.6653 54.4663 79.0476 55.236 80.2298 54.9138C80.2298 54.9138 79.764 55.594 76.6653 55.8446V54.4663Z" fill="#D99C70"/>
<path d="M80.8927 27.5991C80.8927 27.5991 78.0984 32.4677 89.8666 32.414C89.8666 32.414 91.4966 39.2695 90.189 42.1154C90.189 42.1154 96.7627 37.5153 96.6732 37.0857C96.6015 36.6562 95.079 29.2459 95.079 29.2459L80.8927 27.5991Z" fill="#D99C70"/>
<path d="M94.5773 47.2523L90.1889 42.1331C90.1889 42.1331 92.9294 34.2037 90.1889 31.7336C90.1889 31.7336 81.0896 32.2706 79.6746 27.7779C79.6746 27.7779 91.783 20.5466 105.522 27.7779C109.337 29.7826 112.65 35.6536 110.806 42.0973C108.961 48.5411 105.092 53.4097 105.092 53.4097L104.25 57.3117L95.9565 51.1902C95.9565 51.1902 100.775 49.7045 101.348 46.1784C101.921 42.6343 97.6403 42.8491 97.6403 42.8491L94.5773 47.2523Z" fill="url(#paint11_linear)"/>
<path d="M96.494 108.164C96.494 108.164 81.8062 111.422 90.3681 122.394C98.9301 133.366 117.845 134.261 130.043 129.142C142.241 124.023 144.695 108.862 139.608 103.546C134.521 98.2122 106.059 98.4628 105.235 99.1609C104.429 99.8232 96.494 108.164 96.494 108.164Z" fill="#2D3146"/>
<path d="M95.8493 106.928C95.8493 106.928 81.1614 110.186 89.7234 121.158C98.2853 132.131 117.2 133.025 129.398 127.906C141.596 122.787 144.05 107.626 138.963 102.31C133.876 96.9942 105.414 97.2269 104.59 97.925C103.784 98.5873 95.8493 106.928 95.8493 106.928Z" fill="url(#paint12_linear)"/>
<path opacity="0.63" d="M115.111 118.715C127.566 118.715 137.663 111.535 137.663 102.677C137.663 93.82 127.566 86.6396 115.111 86.6396C102.657 86.6396 92.5603 93.82 92.5603 102.677C92.5603 111.535 102.657 118.715 115.111 118.715Z" fill="#303E65"/>
<path d="M113.815 117.616C129.89 117.616 142.922 104.593 142.922 88.5292C142.922 72.4653 129.89 59.4429 113.815 59.4429C97.7396 59.4429 84.708 72.4653 84.708 88.5292C84.708 104.593 97.7396 117.616 113.815 117.616Z" fill="url(#paint13_radial)"/>
<path d="M110.161 107.931C118.103 105.33 122.198 96.0723 119.306 87.2533C116.414 78.4342 107.631 73.3934 99.6881 75.9943C91.7453 78.5952 87.6508 87.8529 90.5427 96.672C93.4346 105.491 102.218 110.532 110.161 107.931Z" fill="url(#paint14_linear)" stroke="url(#paint15_linear)" stroke-miterlimit="10"/>
<path d="M115.15 89.0456C117.314 95.3783 114.248 102.035 108.296 103.894C102.343 105.753 95.782 102.143 93.595 95.8105C91.4079 89.4778 94.4968 82.8209 100.449 80.9622C106.402 79.1034 112.985 82.7129 115.15 89.0456Z" fill="url(#paint16_radial)" stroke="#3CEDE4" stroke-miterlimit="10"/>
<path d="M109.074 91.6802C109.539 94.5487 107.803 97.2167 105.197 97.6331C102.592 98.0495 100.111 96.0447 99.6615 93.1762C99.1963 90.3077 100.933 87.6397 103.538 87.2233C106.143 86.8069 108.609 88.7963 109.074 91.6802Z" fill="url(#paint17_radial)" stroke="url(#paint18_linear)" stroke-width="4" stroke-miterlimit="10"/>
<path d="M107.066 91.4845C107.602 93.2571 106.834 95.1229 105.356 95.6361C103.864 96.1647 102.226 95.1385 101.676 93.3659C101.125 91.5933 101.908 89.7274 103.386 89.2143C104.864 88.7012 106.53 89.7119 107.066 91.4845Z" fill="url(#paint19_linear)"/>
<path d="M105.324 65.1725C105.324 65.1725 97.0152 80.7444 113.74 78.292C120.405 76.7217 123.764 74.9927 126.844 72.9285C129.054 71.4465 130.36 69.8762 134.014 68.2883C131.108 63.4717 105.324 65.1725 105.324 65.1725Z" fill="#323B54"/>
<path d="M103.998 92.4619C104.148 93.2479 104.73 93.7532 104.031 93.8515C103.316 93.9497 102.634 93.3883 102.484 92.6023C102.334 91.8162 102.784 91.1004 103.499 91.0021C104.198 90.9039 103.848 91.6759 103.998 92.4619Z" fill="#FDFFFF"/>
<path d="M134.682 68.2298C129.398 62.7884 122.001 59.4233 113.815 59.4233C113.672 59.4233 113.528 59.4233 113.385 59.4233C107.725 61.1775 102.262 65.1511 103.892 73.9933C105.629 80.5445 119.045 77.5016 128.861 70.9505C130.903 69.5901 132.999 68.7489 134.682 68.2298Z" fill="url(#paint20_linear)"/>
<defs>
<linearGradient id="paint0_linear" x1="66.0189" y1="101.217" x2="66.0189" y2="119.333" gradientUnits="userSpaceOnUse">
<stop offset="0.015625" stop-color="#49577E"/>
<stop offset="1" stop-color="#515E81"/>
</linearGradient>
<linearGradient id="paint1_linear" x1="66.4434" y1="92.1925" x2="66.4434" y2="107.299" gradientUnits="userSpaceOnUse">
<stop stop-color="#2D3142"/>
<stop offset="0.640625" stop-color="#6C7495"/>
<stop offset="1" stop-color="#4F5778"/>
</linearGradient>
<linearGradient id="paint2_linear" x1="66.1835" y1="3.25156" x2="66.1835" y2="96.65" gradientUnits="userSpaceOnUse">
<stop stop-color="#697693"/>
<stop offset="0.995" stop-color="#3C4563"/>
</linearGradient>
<linearGradient id="paint3_linear" x1="66.1145" y1="6.83643" x2="66.1145" y2="90.9938" gradientUnits="userSpaceOnUse">
<stop stop-color="#7881A0"/>
<stop offset="1" stop-color="#6B7494"/>
</linearGradient>
<linearGradient id="paint4_linear" x1="66.2374" y1="10.3218" x2="66.2374" y2="87.8437" gradientUnits="userSpaceOnUse">
<stop stop-color="#3CEEE5"/>
<stop offset="1" stop-color="#24BAB1"/>
</linearGradient>
<linearGradient id="paint5_linear" x1="66.4433" y1="90.0034" x2="66.4433" y2="95.367" gradientUnits="userSpaceOnUse">
<stop stop-color="#D1D8E1"/>
<stop offset="0.995" stop-color="#9CA8B7"/>
</linearGradient>
<linearGradient id="paint6_linear" x1="29.8701" y1="117.073" x2="102.159" y2="117.073" gradientUnits="userSpaceOnUse">
<stop stop-color="#3A4562"/>
<stop offset="0.995" stop-color="#2D3549"/>
</linearGradient>
<linearGradient id="paint7_linear" x1="30.1647" y1="115.752" x2="103.324" y2="115.752" gradientUnits="userSpaceOnUse">
<stop stop-color="#3E4D75"/>
</linearGradient>
<linearGradient id="paint8_linear" x1="59.0993" y1="49.0191" x2="27.44" y2="49.0191" gradientUnits="userSpaceOnUse">
<stop stop-color="#EFC8A9"/>
<stop offset="0.995" stop-color="#FFAC6A"/>
</linearGradient>
<linearGradient id="paint9_linear" x1="53.9138" y1="40.5229" x2="22.2575" y2="40.5229" gradientUnits="userSpaceOnUse">
<stop stop-color="#5F6160"/>
<stop offset="0.995" stop-color="#070707"/>
</linearGradient>
<linearGradient id="paint10_linear" x1="74.47" y1="49.4102" x2="106.127" y2="49.4102" gradientUnits="userSpaceOnUse">
<stop stop-color="#EFC8A9"/>
<stop offset="0.995" stop-color="#FFAC6A"/>
</linearGradient>
<linearGradient id="paint11_linear" x1="79.6712" y1="40.9335" x2="111.327" y2="40.9335" gradientUnits="userSpaceOnUse">
<stop stop-color="#5F6160"/>
<stop offset="0.995" stop-color="#070707"/>
</linearGradient>
<linearGradient id="paint12_linear" x1="90.0229" y1="112.989" x2="136.339" y2="118.779" gradientUnits="userSpaceOnUse">
<stop stop-color="#425079"/>
<stop offset="0.135417" stop-color="#687599"/>
<stop offset="0.286458" stop-color="#7F8CAF"/>
<stop offset="0.421875" stop-color="#687599"/>
<stop offset="0.995" stop-color="#3B4971"/>
</linearGradient>
<radialGradient id="paint13_radial" cx="0" cy="0" r="1" gradientUnits="userSpaceOnUse" gradientTransform="translate(108.193 88.5249) scale(34.7252 34.7006)">
<stop stop-color="white"/>
<stop offset="0.594916" stop-color="#5B6287"/>
<stop offset="1" stop-color="#313A52"/>
</radialGradient>
<linearGradient id="paint14_linear" x1="90.0229" y1="87.6464" x2="120.623" y2="94.8317" gradientUnits="userSpaceOnUse">
<stop stop-color="#C4C4C4"/>
<stop offset="0.203125" stop-color="#D1D7E0"/>
<stop offset="0.338542" stop-color="#929297"/>
<stop offset="0.916667" stop-color="white"/>
</linearGradient>
<linearGradient id="paint15_linear" x1="99.6881" y1="75.9943" x2="110.147" y2="107.935" gradientUnits="userSpaceOnUse">
<stop stop-color="#3BECE3"/>
</linearGradient>
<radialGradient id="paint16_radial" cx="0" cy="0" r="1" gradientUnits="userSpaceOnUse" gradientTransform="translate(104.42 92.4449) rotate(-17.4385) scale(11.9327 11.5293)">
<stop offset="0.2079" stop-color="#8191A3"/>
<stop offset="1" stop-color="#29394A"/>
</radialGradient>
<radialGradient id="paint17_radial" cx="0" cy="0" r="1" gradientUnits="userSpaceOnUse" gradientTransform="translate(104.365 92.4245) rotate(-9.0189) scale(5.049 5.02276)">
<stop stop-color="#8191A3"/>
<stop offset="0.4307"/>
</radialGradient>
<linearGradient id="paint18_linear" x1="109.236" y1="94.2768" x2="99.5077" y2="90.535" gradientUnits="userSpaceOnUse">
<stop stop-color="white"/>
<stop offset="0.245" stop-color="#F8F8F8"/>
<stop offset="0.4728" stop-color="#C7CFD9"/>
<stop offset="0.6955" stop-color="#909094"/>
<stop offset="1" stop-color="#DEE2E7"/>
</linearGradient>
<linearGradient id="paint19_linear" x1="103.014" y1="95.2862" x2="106.037" y2="89.7227" gradientUnits="userSpaceOnUse">
<stop stop-color="#25BEB5"/>
<stop offset="1"/>
</linearGradient>
<linearGradient id="paint20_linear" x1="112.085" y1="80.2149" x2="123.471" y2="60.48" gradientUnits="userSpaceOnUse">
<stop stop-color="#AEB4CB"/>
<stop offset="0.567708" stop-color="#5D6382"/>
<stop offset="0.838542" stop-color="#353C5B"/>
</linearGradient>
</defs>
</svg>
