<svg width="140" height="140" viewBox="0 0 140 140" fill="none" xmlns="http://www.w3.org/2000/svg">
<path d="M20.0001 93.8779L20.0919 110.759C20.0919 125.342 42.3911 140 69.9873 140C97.5835 140 119.883 125.342 119.883 110.759L119.975 93.8779C86.6236 93.8779 53.3612 93.8779 20.0001 93.8779Z" fill="url(#paint0_linear)"/>
<path d="M20.0001 91.0215L20.0919 109.331C20.0919 123.914 42.3911 136.43 69.9873 136.43C97.5835 136.43 119.883 123.914 119.883 109.331L119.975 91.0215C86.6236 91.0215 53.3612 91.0215 20.0001 91.0215Z" fill="url(#paint1_linear)"/>
<path d="M69.9873 117.406C97.5945 117.406 119.975 105.593 119.975 91.0214C119.975 76.4495 97.5945 64.6367 69.9873 64.6367C42.3801 64.6367 20 76.4495 20 91.0214C20 105.593 42.3801 117.406 69.9873 117.406Z" fill="url(#paint2_linear)"/>
<path d="M69.9874 115.338C96.0171 115.338 117.118 104.148 117.118 90.3445C116.047 102.841 96.0171 114.267 69.9874 114.267C43.9578 114.267 23.9277 102.841 22.8566 90.3445C22.8566 104.148 43.9578 115.338 69.9874 115.338Z" fill="url(#paint3_linear)"/>
<path d="M69.9874 112.482C96.0171 112.482 117.118 101.292 117.118 87.488C117.118 73.6844 96.0171 62.4944 69.9874 62.4944C43.9578 62.4944 22.8566 73.6844 22.8566 87.488C22.8566 101.292 43.9578 112.482 69.9874 112.482Z" fill="url(#paint4_linear)"/>
<path d="M70.2016 111.053C96.2312 111.053 117.332 99.8634 117.332 86.0598C117.332 72.2562 96.2312 61.0662 70.2016 61.0662C44.1719 61.0662 23.0707 72.2562 23.0707 86.0598C23.0707 99.8634 44.1719 111.053 70.2016 111.053Z" fill="url(#paint5_linear)"/>
<path d="M97.9868 118.874C97.9868 118.517 97.6239 118.275 97.2945 118.412L97.2176 118.444C97.0313 118.522 96.9099 118.704 96.9099 118.906V126.163C96.9099 126.512 97.2586 126.753 97.5855 126.631C97.6111 126.621 97.6368 126.612 97.6624 126.602C97.8575 126.529 97.9868 126.342 97.9868 126.134V118.874Z" fill="#2FAAAF"/>
<path d="M100.455 118.006C100.455 117.641 100.077 117.399 99.7463 117.551L99.6694 117.586C99.4916 117.668 99.3777 117.845 99.3777 118.041V125.043C99.3777 125.415 99.773 125.665 100.12 125.531C100.123 125.529 100.127 125.528 100.131 125.526C100.325 125.451 100.455 125.265 100.455 125.057V118.006Z" fill="#2FAAAF"/>
<path d="M95.564 119.698C95.564 119.349 95.2168 119.112 94.8848 119.22C94.8773 119.222 94.8697 119.225 94.8621 119.227C94.6437 119.298 94.4871 119.496 94.4871 119.726V126.971C94.4871 127.32 94.8395 127.572 95.1723 127.466C95.1937 127.46 95.215 127.453 95.2364 127.446C95.4348 127.382 95.564 127.195 95.564 126.987V119.698Z" fill="#2FAAAF"/>
<path d="M102.878 117.034C102.878 116.655 102.473 116.414 102.14 116.594L102.063 116.636C101.902 116.723 101.801 116.892 101.801 117.076V123.966C101.801 124.338 102.192 124.58 102.525 124.414C102.551 124.401 102.576 124.388 102.602 124.375C102.771 124.29 102.878 124.117 102.878 123.928V117.034Z" fill="#2FAAAF"/>
<path d="M92.0638 127.814C92.0638 128.14 92.3675 128.371 92.6781 128.274C92.7071 128.265 92.7362 128.256 92.7652 128.247C92.9846 128.18 93.1408 127.98 93.1408 127.75V120.469C93.1408 120.144 92.8371 119.913 92.5265 120.01C92.4975 120.019 92.4684 120.028 92.4394 120.037C92.22 120.104 92.0638 120.304 92.0638 120.534V127.814Z" fill="#2FAAAF"/>
<path d="M105.346 115.809C105.346 115.423 104.928 115.182 104.594 115.377L104.517 115.421C104.364 115.511 104.269 115.676 104.269 115.853V122.482C104.269 122.875 104.71 123.128 105.05 122.933C105.07 122.921 105.089 122.91 105.109 122.899C105.258 122.812 105.346 122.651 105.346 122.479V115.809Z" fill="#2FAAAF"/>
<path d="M115.128 108.634C115.128 108.178 114.57 107.96 114.261 108.294L114.184 108.378C114.099 108.47 114.051 108.591 114.051 108.717V113.815C114.051 114.299 114.656 114.49 114.936 114.095C114.968 114.049 115.001 114.004 115.033 113.958C115.095 113.873 115.128 113.77 115.128 113.664V108.634Z" fill="#2FAAAF"/>
<path d="M110.237 112.899C110.237 112.493 109.779 112.256 109.448 112.491L109.371 112.545C109.239 112.639 109.16 112.791 109.16 112.953V119.198C109.16 119.61 109.621 119.833 109.942 119.575C109.975 119.549 110.007 119.524 110.039 119.498C110.163 119.401 110.237 119.253 110.237 119.096V112.899Z" fill="#2FAAAF"/>
<path d="M111.628 116.882C111.628 117.328 112.166 117.551 112.481 117.236C112.507 117.21 112.533 117.184 112.558 117.159C112.652 117.065 112.705 116.938 112.705 116.805V111.014C112.705 110.585 112.199 110.355 111.875 110.638L111.798 110.705C111.69 110.8 111.628 110.937 111.628 111.082V116.882Z" fill="#2FAAAF"/>
<path d="M107.769 114.462C107.769 114.076 107.35 113.836 107.017 114.03L106.94 114.075C106.786 114.165 106.692 114.329 106.692 114.507V121.046C106.692 121.439 107.116 121.666 107.441 121.445C107.473 121.424 107.504 121.402 107.536 121.381C107.68 121.285 107.769 121.126 107.769 120.953V114.462Z" fill="#2FAAAF"/>
<path d="M20.0001 63.3447L20.0919 80.2259C20.0919 94.8093 42.3911 109.467 69.9873 109.467C97.5835 109.467 119.883 94.8093 119.883 80.2259L119.975 63.3447C86.6236 63.3447 53.3612 63.3447 20.0001 63.3447Z" fill="url(#paint6_linear)"/>
<path d="M20.0001 60.4883L20.0919 78.7977C20.0919 93.381 42.3911 105.896 69.9873 105.896C97.5835 105.896 119.883 93.381 119.883 78.7977L119.975 60.4883C86.6236 60.4883 53.3612 60.4883 20.0001 60.4883Z" fill="url(#paint7_linear)"/>
<path d="M69.9873 86.8729C97.5945 86.8729 119.975 75.06 119.975 60.4882C119.975 45.9163 97.5945 34.1035 69.9873 34.1035C42.3801 34.1035 20 45.9163 20 60.4882C20 75.06 42.3801 86.8729 69.9873 86.8729Z" fill="url(#paint8_linear)"/>
<path d="M69.9874 84.8049C96.0171 84.8049 117.118 73.6149 117.118 59.8113C116.047 72.3081 96.0171 83.7338 69.9874 83.7338C43.9578 83.7338 23.9277 72.3081 22.8566 59.8113C22.8566 73.6149 43.9578 84.8049 69.9874 84.8049Z" fill="url(#paint9_linear)"/>
<path d="M69.9874 81.9485C96.0171 81.9485 117.118 70.7584 117.118 56.9548C117.118 43.1512 96.0171 31.9612 69.9874 31.9612C43.9578 31.9612 22.8566 43.1512 22.8566 56.9548C22.8566 70.7584 43.9578 81.9485 69.9874 81.9485Z" fill="url(#paint10_linear)"/>
<path d="M70.2016 80.5202C96.2312 80.5202 117.332 69.3302 117.332 55.5266C117.332 41.723 96.2312 30.533 70.2016 30.533C44.1719 30.533 23.0707 41.723 23.0707 55.5266C23.0707 69.3302 44.1719 80.5202 70.2016 80.5202Z" fill="url(#paint11_linear)"/>
<path d="M97.9868 88.3406C97.9868 87.9838 97.6239 87.7418 97.2945 87.879L97.2176 87.9111C97.0313 87.9887 96.9099 88.1708 96.9099 88.3726V95.6294C96.9099 95.9785 97.2586 96.2201 97.5855 96.0975C97.6111 96.0879 97.6368 96.0783 97.6624 96.0687C97.8575 95.9955 97.9868 95.809 97.9868 95.6005V88.3406Z" fill="#2FAAAF"/>
<path d="M100.455 87.4725C100.455 87.1082 100.077 86.8662 99.7463 87.018L99.6694 87.0533C99.4916 87.1347 99.3777 87.3123 99.3777 87.5078V94.51C99.3777 94.8817 99.773 95.1315 100.12 94.9973C100.123 94.9959 100.127 94.9945 100.131 94.9931C100.325 94.918 100.455 94.7323 100.455 94.5238V87.4725Z" fill="#2FAAAF"/>
<path d="M95.564 89.1649C95.564 88.8158 95.2168 88.5788 94.8848 88.6868C94.8773 88.6893 94.8697 88.6917 94.8621 88.6942C94.6437 88.7645 94.4871 88.9633 94.4871 89.1927V96.4373C94.4871 96.7864 94.8395 97.0388 95.1723 96.9332C95.1937 96.9264 95.215 96.9196 95.2364 96.9127C95.4348 96.8488 95.564 96.6617 95.564 96.4533V89.1649Z" fill="#2FAAAF"/>
<path d="M102.878 86.5009C102.878 86.122 102.473 85.8807 102.14 86.0612L102.063 86.1029C101.902 86.1903 101.801 86.359 101.801 86.5425V93.4332C101.801 93.8049 102.192 94.0466 102.525 93.8804C102.551 93.8676 102.576 93.8548 102.602 93.8419C102.771 93.7572 102.878 93.5841 102.878 93.3947V86.5009Z" fill="#2FAAAF"/>
<path d="M92.0638 97.2812C92.0638 97.6065 92.3675 97.8376 92.6781 97.7409C92.7071 97.7318 92.7362 97.7228 92.7652 97.7139C92.9846 97.6466 93.1408 97.4465 93.1408 97.2171V89.9363C93.1408 89.611 92.8371 89.3799 92.5265 89.4766C92.4975 89.4856 92.4684 89.4946 92.4394 89.5036C92.22 89.5708 92.0638 89.771 92.0638 90.0004V97.2812Z" fill="#2FAAAF"/>
<path d="M105.346 85.2753C105.346 84.8894 104.928 84.649 104.594 84.8434L104.517 84.8883C104.364 84.9779 104.269 85.1423 104.269 85.3202V91.9489C104.269 92.3416 104.71 92.5953 105.05 92.3995C105.07 92.3883 105.089 92.377 105.109 92.3656C105.258 92.2789 105.346 92.1181 105.346 91.9457V85.2753Z" fill="#2FAAAF"/>
<path d="M115.128 78.1003C115.128 77.6452 114.57 77.4268 114.261 77.7612L114.184 77.8446C114.099 77.9369 114.051 78.058 114.051 78.1837V83.2814C114.051 83.7657 114.656 83.9566 114.936 83.5615C114.968 83.5158 115.001 83.4703 115.033 83.4252C115.095 83.3393 115.128 83.2365 115.128 83.1308V78.1003Z" fill="#2FAAAF"/>
<path d="M110.237 82.3653C110.237 81.9595 109.779 81.7228 109.448 81.9573L109.371 82.0118C109.239 82.1055 109.16 82.2576 109.16 82.4198V88.6652C109.16 89.0772 109.621 89.2993 109.942 89.042C109.975 89.0162 110.007 88.9905 110.039 88.9651C110.163 88.8678 110.237 88.72 110.237 88.5626V82.3653Z" fill="#2FAAAF"/>
<path d="M111.628 86.349C111.628 86.7945 112.166 87.0176 112.481 86.7026C112.507 86.6769 112.533 86.6513 112.558 86.6257C112.652 86.5319 112.705 86.4047 112.705 86.2721V80.481C112.705 80.0515 112.199 79.8219 111.875 80.1047L111.798 80.1721C111.69 80.267 111.628 80.4042 111.628 80.5483V86.349Z" fill="#2FAAAF"/>
<path d="M107.769 83.9291C107.769 83.5432 107.35 83.3028 107.017 83.4972L106.94 83.5421C106.786 83.6317 106.692 83.7962 106.692 83.974V90.5129C106.692 90.9057 107.116 91.1325 107.441 90.9121C107.473 90.8905 107.504 90.8691 107.536 90.8478C107.68 90.7521 107.769 90.5924 107.769 90.42V83.9291Z" fill="#2FAAAF"/>
<path d="M20.0001 32.8118L20.0919 49.6929C20.0919 64.2763 42.3911 78.934 69.9873 78.934C97.5835 78.934 119.883 64.2763 119.883 49.6929L119.975 32.8118C86.6236 32.8118 53.3612 32.8118 20.0001 32.8118Z" fill="url(#paint12_linear)"/>
<path d="M20.0001 29.9553L20.0919 48.2647C20.0919 62.8481 42.3911 75.3635 69.9873 75.3635C97.5835 75.3635 119.883 62.8481 119.883 48.2647L119.975 29.9553C86.6236 29.9553 53.3612 29.9553 20.0001 29.9553Z" fill="url(#paint13_linear)"/>
<path d="M69.9873 56.3399C97.5945 56.3399 119.975 44.5271 119.975 29.9552C119.975 15.3834 97.5945 3.57056 69.9873 3.57056C42.3801 3.57056 20 15.3834 20 29.9552C20 44.5271 42.3801 56.3399 69.9873 56.3399Z" fill="url(#paint14_linear)"/>
<path d="M69.9874 54.272C96.0171 54.272 117.118 43.0819 117.118 29.2783C116.047 41.7751 96.0171 53.2008 69.9874 53.2008C43.9578 53.2008 23.9277 41.7751 22.8566 29.2783C22.8566 43.0819 43.9578 54.272 69.9874 54.272Z" fill="url(#paint15_linear)"/>
<path d="M69.9874 51.4155C96.0171 51.4155 117.118 40.2255 117.118 26.4219C117.118 12.6183 96.0171 1.42822 69.9874 1.42822C43.9578 1.42822 22.8566 12.6183 22.8566 26.4219C22.8566 40.2255 43.9578 51.4155 69.9874 51.4155Z" fill="url(#paint16_linear)"/>
<path d="M70.2016 49.9873C96.2312 49.9873 117.332 38.7972 117.332 24.9936C117.332 11.19 96.2312 0 70.2016 0C44.1719 0 23.0707 11.19 23.0707 24.9936C23.0707 38.7972 44.1719 49.9873 70.2016 49.9873Z" fill="url(#paint17_linear)"/>
<path d="M97.9868 57.8076C97.9868 57.4508 97.6239 57.2089 97.2945 57.3461L97.2176 57.3781C97.0313 57.4558 96.9099 57.6378 96.9099 57.8397V65.0964C96.9099 65.4455 97.2586 65.6872 97.5855 65.5646C97.6111 65.555 97.6368 65.5454 97.6624 65.5357C97.8575 65.4626 97.9868 65.276 97.9868 65.0676V57.8076Z" fill="#2FAAAF"/>
<path d="M100.455 56.9396C100.455 56.5753 100.077 56.3333 99.7463 56.485L99.6694 56.5203C99.4916 56.6018 99.3777 56.7793 99.3777 56.9748V63.9771C99.3777 64.3488 99.773 64.5985 100.12 64.4643C100.123 64.4629 100.127 64.4615 100.131 64.4601C100.325 64.385 100.455 64.1993 100.455 63.9909V56.9396Z" fill="#2FAAAF"/>
<path d="M95.564 58.6319C95.564 58.2828 95.2168 58.0458 94.8848 58.1538C94.8773 58.1563 94.8697 58.1587 94.8621 58.1612C94.6437 58.2315 94.4871 58.4303 94.4871 58.6598V65.9043C94.4871 66.2534 94.8395 66.5058 95.1723 66.4003C95.1937 66.3935 95.215 66.3867 95.2364 66.3798C95.4348 66.3159 95.564 66.1288 95.564 65.9204V58.6319Z" fill="#2FAAAF"/>
<path d="M102.878 55.9679C102.878 55.589 102.473 55.3478 102.14 55.5282L102.063 55.5699C101.902 55.6573 101.801 55.8261 101.801 56.0096V62.9002C101.801 63.2719 102.192 63.5137 102.525 63.3474C102.551 63.3346 102.576 63.3218 102.602 63.309C102.771 63.2243 102.878 63.0511 102.878 62.8618V55.9679Z" fill="#2FAAAF"/>
<path d="M92.0638 66.7482C92.0638 67.0735 92.3675 67.3046 92.6781 67.2079C92.7071 67.1989 92.7362 67.1899 92.7652 67.181C92.9846 67.1137 93.1408 66.9136 93.1408 66.6841V59.4033C93.1408 59.078 92.8371 58.847 92.5265 58.9436C92.4975 58.9527 92.4684 58.9617 92.4394 58.9706C92.22 59.0379 92.0638 59.238 92.0638 59.4674V66.7482Z" fill="#2FAAAF"/>
<path d="M105.346 54.7423C105.346 54.3565 104.928 54.116 104.594 54.3105L104.517 54.3553C104.364 54.4449 104.269 54.6094 104.269 54.7872V61.4159C104.269 61.8086 104.71 62.0623 105.05 61.8665C105.07 61.8553 105.089 61.844 105.109 61.8327C105.258 61.7459 105.346 61.5851 105.346 61.4127V54.7423Z" fill="#2FAAAF"/>
<path d="M115.128 47.5674C115.128 47.1122 114.57 46.8938 114.261 47.2282L114.184 47.3116C114.099 47.404 114.051 47.525 114.051 47.6507V52.7485C114.051 53.2327 114.656 53.4236 114.936 53.0285C114.968 52.9828 115.001 52.9374 115.033 52.8922C115.095 52.8064 115.128 52.7035 115.128 52.5978V47.5674Z" fill="#2FAAAF"/>
<path d="M110.237 51.8324C110.237 51.4266 109.779 51.1898 109.448 51.4244L109.371 51.4788C109.239 51.5726 109.16 51.7247 109.16 51.8869V58.1322C109.16 58.5442 109.621 58.7664 109.942 58.509C109.975 58.4832 110.007 58.4576 110.039 58.4322C110.163 58.3348 110.237 58.187 110.237 58.0296V51.8324Z" fill="#2FAAAF"/>
<path d="M111.628 55.8161C111.628 56.2615 112.166 56.4846 112.481 56.1696C112.507 56.144 112.533 56.1183 112.558 56.0927C112.652 55.9989 112.705 55.8717 112.705 55.7391V49.9481C112.705 49.5185 112.199 49.2889 111.875 49.5718L111.798 49.6391C111.69 49.734 111.628 49.8712 111.628 50.0154V55.8161Z" fill="#2FAAAF"/>
<path d="M107.769 53.3962C107.769 53.0103 107.35 52.7698 107.017 52.9643L106.94 53.0091C106.786 53.0987 106.692 53.2632 106.692 53.441V59.98C106.692 60.3727 107.116 60.5995 107.441 60.3792C107.473 60.3576 107.504 60.3361 107.536 60.3149C107.68 60.2192 107.769 60.0594 107.769 59.887V53.3962Z" fill="#2FAAAF"/>
<defs>
<linearGradient id="paint0_linear" x1="20.5615" y1="119.64" x2="116.166" y2="119.64" gradientUnits="userSpaceOnUse">
<stop stop-color="#2D3853"/>
<stop offset="0.510417" stop-color="#2C3652"/>
<stop offset="1" stop-color="#30385C"/>
</linearGradient>
<linearGradient id="paint1_linear" x1="20.5615" y1="116.784" x2="116.166" y2="116.784" gradientUnits="userSpaceOnUse">
<stop stop-color="#98A1C1"/>
<stop offset="0.510417" stop-color="#7B86A4"/>
<stop offset="1" stop-color="#5E6A84"/>
</linearGradient>
<linearGradient id="paint2_linear" x1="23.5705" y1="96.7714" x2="109.977" y2="83.2034" gradientUnits="userSpaceOnUse">
<stop stop-color="#2C3754"/>
<stop offset="0.510336" stop-color="#2D3956"/>
<stop offset="0.995" stop-color="#293552"/>
</linearGradient>
<linearGradient id="paint3_linear" x1="35.9859" y1="110.335" x2="106.502" y2="71.0437" gradientUnits="userSpaceOnUse">
<stop stop-color="#478793"/>
<stop offset="0.510336" stop-color="#3AA0A4"/>
<stop offset="0.995" stop-color="#3B8D99"/>
</linearGradient>
<linearGradient id="paint4_linear" x1="35.9859" y1="107.479" x2="106.502" y2="68.1873" gradientUnits="userSpaceOnUse">
<stop stop-color="#4C5979"/>
<stop offset="0.510336" stop-color="#3E4B6B"/>
<stop offset="0.995" stop-color="#384967"/>
</linearGradient>
<linearGradient id="paint5_linear" x1="34.2414" y1="103.142" x2="109.591" y2="69.5585" gradientUnits="userSpaceOnUse">
<stop stop-color="#59658A"/>
<stop offset="0.514067" stop-color="#4D5A7D"/>
<stop offset="0.995" stop-color="#676F9A"/>
</linearGradient>
<linearGradient id="paint6_linear" x1="20.5615" y1="89.1072" x2="116.166" y2="89.1072" gradientUnits="userSpaceOnUse">
<stop stop-color="#2D3853"/>
<stop offset="0.510417" stop-color="#2C3652"/>
<stop offset="1" stop-color="#30385C"/>
</linearGradient>
<linearGradient id="paint7_linear" x1="20.5615" y1="86.2507" x2="116.166" y2="86.2507" gradientUnits="userSpaceOnUse">
<stop stop-color="#98A1C1"/>
<stop offset="0.510417" stop-color="#7B86A4"/>
<stop offset="1" stop-color="#5E6A84"/>
</linearGradient>
<linearGradient id="paint8_linear" x1="23.5705" y1="66.2382" x2="109.977" y2="52.6702" gradientUnits="userSpaceOnUse">
<stop stop-color="#2C3754"/>
<stop offset="0.510336" stop-color="#2D3956"/>
<stop offset="0.995" stop-color="#293552"/>
</linearGradient>
<linearGradient id="paint9_linear" x1="35.9859" y1="79.8019" x2="106.502" y2="40.5105" gradientUnits="userSpaceOnUse">
<stop stop-color="#478793"/>
<stop offset="0.510336" stop-color="#3AA0A4"/>
<stop offset="0.995" stop-color="#3B8D99"/>
</linearGradient>
<linearGradient id="paint10_linear" x1="35.9859" y1="76.9455" x2="106.502" y2="37.6541" gradientUnits="userSpaceOnUse">
<stop stop-color="#4C5979"/>
<stop offset="0.510336" stop-color="#3E4B6B"/>
<stop offset="0.995" stop-color="#384967"/>
</linearGradient>
<linearGradient id="paint11_linear" x1="34.2414" y1="72.609" x2="109.591" y2="39.0253" gradientUnits="userSpaceOnUse">
<stop stop-color="#59658A"/>
<stop offset="0.514067" stop-color="#4D5A7D"/>
<stop offset="0.995" stop-color="#676F9A"/>
</linearGradient>
<linearGradient id="paint12_linear" x1="20.5615" y1="58.5742" x2="116.166" y2="58.5742" gradientUnits="userSpaceOnUse">
<stop stop-color="#2D3853"/>
<stop offset="0.510417" stop-color="#2C3652"/>
<stop offset="1" stop-color="#30385C"/>
</linearGradient>
<linearGradient id="paint13_linear" x1="20.5615" y1="55.7178" x2="116.166" y2="55.7178" gradientUnits="userSpaceOnUse">
<stop stop-color="#98A1C1"/>
<stop offset="0.510417" stop-color="#7B86A4"/>
<stop offset="1" stop-color="#5E6A84"/>
</linearGradient>
<linearGradient id="paint14_linear" x1="23.5705" y1="35.7052" x2="109.977" y2="22.1373" gradientUnits="userSpaceOnUse">
<stop stop-color="#2C3754"/>
<stop offset="0.510336" stop-color="#2D3956"/>
<stop offset="0.995" stop-color="#293552"/>
</linearGradient>
<linearGradient id="paint15_linear" x1="35.9859" y1="49.269" x2="106.502" y2="9.97758" gradientUnits="userSpaceOnUse">
<stop stop-color="#478793"/>
<stop offset="0.510336" stop-color="#3AA0A4"/>
<stop offset="0.995" stop-color="#3B8D99"/>
</linearGradient>
<linearGradient id="paint16_linear" x1="35.9859" y1="46.4125" x2="106.502" y2="7.12111" gradientUnits="userSpaceOnUse">
<stop stop-color="#4C5979"/>
<stop offset="0.510336" stop-color="#3E4B6B"/>
<stop offset="0.995" stop-color="#384967"/>
</linearGradient>
<linearGradient id="paint17_linear" x1="34.2414" y1="42.076" x2="109.591" y2="8.49232" gradientUnits="userSpaceOnUse">
<stop stop-color="#59658A"/>
<stop offset="0.514067" stop-color="#4D5A7D"/>
<stop offset="0.995" stop-color="#676F9A"/>
</linearGradient>
</defs>
</svg>
