<svg width="140" height="140" viewBox="0 0 140 140" fill="none" xmlns="http://www.w3.org/2000/svg">
<path d="M0 91.4939L0.0747428 105.236C0.0747428 117.108 18.228 129.041 40.6933 129.041C63.1587 129.041 81.3119 117.108 81.3119 105.236L81.3867 91.4939C54.2364 91.4939 27.1584 91.4939 0 91.4939Z" fill="url(#paint0_linear)"/>
<path d="M0 89.1685L0.0747428 104.074C0.0747428 115.946 18.228 126.134 40.6933 126.134C63.1587 126.134 81.3119 115.946 81.3119 104.074L81.3867 89.1685C54.2364 89.1685 27.1584 89.1685 0 89.1685Z" fill="url(#paint1_linear)"/>
<path d="M40.6933 110.648C63.1676 110.648 81.3867 101.031 81.3867 89.1685C81.3867 77.306 63.1676 67.6895 40.6933 67.6895C18.219 67.6895 0 77.306 0 89.1685C0 101.031 18.219 110.648 40.6933 110.648Z" fill="url(#paint2_linear)"/>
<path d="M40.6934 108.964C61.8835 108.964 79.0614 99.8546 79.0614 88.6174C78.1894 98.7907 61.8835 108.092 40.6934 108.092C19.5034 108.092 3.19744 98.7908 2.32544 88.6174C2.32544 99.8546 19.5034 108.964 40.6934 108.964Z" fill="url(#paint3_linear)"/>
<path d="M40.6934 106.639C61.8835 106.639 79.0614 97.5291 79.0614 86.292C79.0614 75.0548 61.8835 65.9453 40.6934 65.9453C19.5034 65.9453 2.32544 75.0548 2.32544 86.292C2.32544 97.5291 19.5034 106.639 40.6934 106.639Z" fill="url(#paint4_linear)"/>
<path d="M40.8677 105.476C62.0578 105.476 79.2357 96.3665 79.2357 85.1294C79.2357 73.8922 62.0578 64.7827 40.8677 64.7827C19.6777 64.7827 2.49976 73.8922 2.49976 85.1294C2.49976 96.3665 19.6777 105.476 40.8677 105.476Z" fill="url(#paint5_linear)"/>
<path d="M63.487 111.889C63.487 111.577 63.1688 111.365 62.8801 111.485C62.7168 111.553 62.6104 111.712 62.6104 111.889V117.731C62.6104 118.037 62.916 118.249 63.2026 118.141C63.3737 118.077 63.487 117.914 63.487 117.731V111.889Z" fill="#2FAAAF"/>
<path d="M65.496 111.185C65.496 110.865 65.1653 110.653 64.875 110.786C64.7192 110.857 64.6193 111.013 64.6193 111.185V116.858C64.6193 117.164 64.9479 117.368 65.2331 117.258C65.3929 117.196 65.496 117.045 65.496 116.873V111.185Z" fill="#2FAAAF"/>
<path d="M61.5146 112.526C61.5146 112.236 61.2221 112.04 60.9458 112.129C60.7642 112.188 60.6379 112.352 60.6379 112.543V118.397C60.6379 118.699 60.9425 118.919 61.2302 118.826C61.402 118.771 61.5146 118.609 61.5146 118.429V112.526Z" fill="#2FAAAF"/>
<path d="M67.469 110.397C67.469 110.065 67.1139 109.854 66.8219 110.012C66.6804 110.089 66.5923 110.236 66.5923 110.397V115.938C66.5923 116.263 66.9352 116.475 67.2267 116.33C67.3752 116.255 67.469 116.104 67.469 115.938V110.397Z" fill="#2FAAAF"/>
<path d="M58.6653 119.075C58.6653 119.363 58.9346 119.566 59.21 119.481C59.4042 119.421 59.542 119.244 59.542 119.04V113.188C59.542 112.899 59.2727 112.696 58.9973 112.781C58.8031 112.841 58.6653 113.018 58.6653 113.222V119.075Z" fill="#2FAAAF"/>
<path d="M69.4781 109.402C69.4781 109.063 69.1111 108.853 68.8189 109.023C68.6842 109.102 68.6014 109.246 68.6014 109.402V114.738C68.6014 115.076 68.9797 115.296 69.2721 115.127C69.4005 115.052 69.4781 114.913 69.4781 114.764V109.402Z" fill="#2FAAAF"/>
<path d="M77.4413 103.586C77.4413 103.187 76.9515 102.996 76.6808 103.289C76.6061 103.37 76.5646 103.476 76.5646 103.586V107.601C76.5646 108.034 77.1054 108.202 77.3574 107.85C77.4124 107.773 77.4413 107.683 77.4413 107.588V103.586Z" fill="#2FAAAF"/>
<path d="M73.4597 107.039C73.4597 106.683 73.0583 106.475 72.768 106.681C72.652 106.763 72.583 106.896 72.583 107.039V112.026C72.583 112.395 72.9951 112.59 73.2844 112.362C73.3948 112.275 73.4597 112.144 73.4597 112.003V107.039Z" fill="#2FAAAF"/>
<path d="M74.5917 110.146C74.5917 110.536 75.0638 110.732 75.34 110.456C75.4222 110.374 75.4684 110.262 75.4684 110.146V105.513C75.4684 105.137 75.0248 104.935 74.7414 105.183C74.6462 105.267 74.5917 105.387 74.5917 105.513V110.146Z" fill="#2FAAAF"/>
<path d="M71.4503 108.306C71.4503 107.967 71.0833 107.757 70.7911 107.927C70.6564 108.006 70.5736 108.15 70.5736 108.306V113.539C70.5736 113.89 70.9527 114.09 71.2443 113.895C71.3723 113.809 71.4503 113.667 71.4503 113.513V108.306Z" fill="#2FAAAF"/>
<path d="M0 66.6377L0.0747428 80.3802C0.0747428 92.2521 18.228 104.185 40.6933 104.185C63.1587 104.185 81.3119 92.2521 81.3119 80.3802L81.3867 66.6377C54.2364 66.6377 27.1584 66.6377 0 66.6377Z" fill="url(#paint6_linear)"/>
<path d="M0 64.3123L0.0747428 79.2174C0.0747428 91.0894 18.228 101.278 40.6933 101.278C63.1587 101.278 81.3119 91.0894 81.3119 79.2174L81.3867 64.3123C54.2364 64.3123 27.1584 64.3123 0 64.3123Z" fill="url(#paint7_linear)"/>
<path d="M40.6933 85.7914C63.1676 85.7914 81.3867 76.1749 81.3867 64.3123C81.3867 52.4498 63.1676 42.8333 40.6933 42.8333C18.219 42.8333 0 52.4498 0 64.3123C0 76.1749 18.219 85.7914 40.6933 85.7914Z" fill="url(#paint8_linear)"/>
<path d="M40.6934 84.1079C61.8835 84.1079 79.0614 74.9984 79.0614 63.7612C78.1894 73.9345 61.8835 83.2359 40.6934 83.2359C19.5034 83.2359 3.19744 73.9346 2.32544 63.7612C2.32544 74.9984 19.5034 84.1079 40.6934 84.1079Z" fill="url(#paint9_linear)"/>
<path d="M40.6934 81.7824C61.8835 81.7824 79.0614 72.6729 79.0614 61.4358C79.0614 50.1986 61.8835 41.0891 40.6934 41.0891C19.5034 41.0891 2.32544 50.1986 2.32544 61.4358C2.32544 72.6729 19.5034 81.7824 40.6934 81.7824Z" fill="url(#paint10_linear)"/>
<path d="M40.8677 80.6198C62.0578 80.6198 79.2357 71.5103 79.2357 60.2732C79.2357 49.036 62.0578 39.9265 40.8677 39.9265C19.6777 39.9265 2.49976 49.036 2.49976 60.2732C2.49976 71.5103 19.6777 80.6198 40.8677 80.6198Z" fill="url(#paint11_linear)"/>
<path d="M63.487 87.0333C63.487 86.7205 63.1688 86.5083 62.8801 86.6286C62.7168 86.6967 62.6104 86.8563 62.6104 87.0333V92.8747C62.6104 93.1808 62.916 93.3926 63.2026 93.2852C63.3737 93.221 63.487 93.0575 63.487 92.8747V87.0333Z" fill="#2FAAAF"/>
<path d="M65.496 86.3284C65.496 86.009 65.1653 85.7968 64.875 85.9299C64.7192 86.0013 64.6193 86.157 64.6193 86.3284V92.0019C64.6193 92.3076 64.9479 92.5116 65.2331 92.4015C65.3929 92.3397 65.496 92.1884 65.496 92.017V86.3284Z" fill="#2FAAAF"/>
<path d="M61.5146 87.6698C61.5146 87.3795 61.2221 87.1841 60.9458 87.2732C60.7642 87.3317 60.6379 87.4959 60.6379 87.6867V93.5404C60.6379 93.8426 60.9425 94.0624 61.2302 93.9702C61.402 93.9152 61.5146 93.7531 61.5146 93.5727V87.6698Z" fill="#2FAAAF"/>
<path d="M67.469 85.5411C67.469 85.209 67.1139 84.9975 66.8219 85.1557C66.6804 85.2323 66.5923 85.3803 66.5923 85.5411V91.0813C66.5923 91.4072 66.9352 91.6191 67.2267 91.4734C67.3752 91.3992 67.469 91.2474 67.469 91.0813V85.5411Z" fill="#2FAAAF"/>
<path d="M58.6653 94.2184C58.6653 94.5067 58.9346 94.71 59.21 94.6249C59.4042 94.5649 59.542 94.3875 59.542 94.1842V88.3314C59.542 88.0431 59.2727 87.8398 58.9973 87.9249C58.8031 87.9848 58.6653 88.1622 58.6653 88.3655V94.2184Z" fill="#2FAAAF"/>
<path d="M69.4781 84.5454C69.4781 84.2071 69.1111 83.9963 68.8189 84.1668C68.6842 84.2453 68.6014 84.3895 68.6014 84.5454V89.8815C68.6014 90.2196 68.9797 90.4399 69.2721 90.2703C69.4005 90.1959 69.4781 90.0565 69.4781 89.9081V84.5454Z" fill="#2FAAAF"/>
<path d="M77.4413 78.73C77.4413 78.331 76.9515 78.1395 76.6808 78.4327C76.6061 78.5137 76.5646 78.6198 76.5646 78.73V82.7445C76.5646 83.1775 77.1054 83.3457 77.3574 82.9937C77.4124 82.9168 77.4413 82.8265 77.4413 82.7321V78.73Z" fill="#2FAAAF"/>
<path d="M73.4597 82.1824C73.4597 81.8266 73.0583 81.6191 72.768 81.8247C72.652 81.9069 72.583 82.0402 72.583 82.1824V87.1698C72.583 87.5384 72.9951 87.7342 73.2844 87.5057C73.3948 87.4184 73.4597 87.2875 73.4597 87.1467V82.1824Z" fill="#2FAAAF"/>
<path d="M74.5917 85.2896C74.5917 85.6801 75.0638 85.8757 75.34 85.5995C75.4222 85.5173 75.4684 85.4058 75.4684 85.2896V80.6572C75.4684 80.2806 75.0248 80.0793 74.7414 80.3273C74.6462 80.4105 74.5917 80.5308 74.5917 80.6572V85.2896Z" fill="#2FAAAF"/>
<path d="M71.4503 83.4495C71.4503 83.1111 71.0833 82.9004 70.7911 83.0708C70.6564 83.1494 70.5736 83.2936 70.5736 83.4495V88.6829C70.5736 89.0339 70.9527 89.2338 71.2443 89.0385C71.3723 88.9527 71.4503 88.811 71.4503 88.657V83.4495Z" fill="#2FAAAF"/>
<path d="M0 41.7815L0.0747428 55.524C0.0747428 67.3959 18.228 79.3284 40.6933 79.3284C63.1587 79.3284 81.3119 67.3959 81.3119 55.524L81.3867 41.7815C54.2364 41.7815 27.1584 41.7815 0 41.7815Z" fill="url(#paint12_linear)"/>
<path d="M0 39.4561L0.0747428 54.3612C0.0747428 66.2332 18.228 76.4216 40.6933 76.4216C63.1587 76.4216 81.3119 66.2332 81.3119 54.3612L81.3867 39.4561C54.2364 39.4561 27.1584 39.4561 0 39.4561Z" fill="url(#paint13_linear)"/>
<path d="M40.6933 60.9352C63.1676 60.9352 81.3867 51.3187 81.3867 39.4561C81.3867 27.5936 63.1676 17.9771 40.6933 17.9771C18.219 17.9771 0 27.5936 0 39.4561C0 51.3187 18.219 60.9352 40.6933 60.9352Z" fill="url(#paint14_linear)"/>
<path d="M40.6934 59.2517C61.8835 59.2517 79.0614 50.1422 79.0614 38.905C78.1894 49.0783 61.8835 58.3797 40.6934 58.3797C19.5034 58.3797 3.19744 49.0784 2.32544 38.905C2.32544 50.1422 19.5034 59.2517 40.6934 59.2517Z" fill="url(#paint15_linear)"/>
<path d="M40.6934 56.9262C61.8835 56.9262 79.0614 47.8167 79.0614 36.5796C79.0614 25.3424 61.8835 16.2329 40.6934 16.2329C19.5034 16.2329 2.32544 25.3424 2.32544 36.5796C2.32544 47.8167 19.5034 56.9262 40.6934 56.9262Z" fill="url(#paint16_linear)"/>
<path d="M40.8677 55.7636C62.0578 55.7636 79.2357 46.6541 79.2357 35.417C79.2357 24.1798 62.0578 15.0703 40.8677 15.0703C19.6777 15.0703 2.49976 24.1798 2.49976 35.417C2.49976 46.6541 19.6777 55.7636 40.8677 55.7636Z" fill="url(#paint17_linear)"/>
<path d="M63.487 62.1771C63.487 61.8643 63.1688 61.6521 62.8801 61.7724C62.7168 61.8405 62.6104 62.0001 62.6104 62.1771V68.0185C62.6104 68.3246 62.916 68.5364 63.2026 68.429C63.3737 68.3648 63.487 68.2013 63.487 68.0185V62.1771Z" fill="#2FAAAF"/>
<path d="M65.496 61.4722C65.496 61.1528 65.1653 60.9406 64.875 61.0737C64.7192 61.1451 64.6193 61.3008 64.6193 61.4722V67.1457C64.6193 67.4514 64.9479 67.6554 65.2331 67.5453C65.3929 67.4835 65.496 67.3322 65.496 67.1608V61.4722Z" fill="#2FAAAF"/>
<path d="M61.5146 62.8136C61.5146 62.5233 61.2221 62.3279 60.9458 62.417C60.7642 62.4755 60.6379 62.6397 60.6379 62.8305V68.6842C60.6379 68.9864 60.9425 69.2062 61.2302 69.114C61.402 69.059 61.5146 68.8969 61.5146 68.7165V62.8136Z" fill="#2FAAAF"/>
<path d="M67.469 60.6849C67.469 60.3528 67.1139 60.1413 66.8219 60.2995C66.6804 60.3761 66.5923 60.5241 66.5923 60.6849V66.2251C66.5923 66.551 66.9352 66.7629 67.2267 66.6172C67.3752 66.543 67.469 66.3912 67.469 66.2251V60.6849Z" fill="#2FAAAF"/>
<path d="M58.6653 69.3622C58.6653 69.6505 58.9346 69.8538 59.21 69.7687C59.4042 69.7087 59.542 69.5313 59.542 69.328V63.4752C59.542 63.1869 59.2727 62.9836 58.9973 63.0687C58.8031 63.1286 58.6653 63.306 58.6653 63.5093V69.3622Z" fill="#2FAAAF"/>
<path d="M69.4781 59.6892C69.4781 59.3509 69.1111 59.1401 68.8189 59.3106C68.6842 59.3891 68.6014 59.5333 68.6014 59.6892V65.0253C68.6014 65.3634 68.9797 65.5837 69.2721 65.4141C69.4005 65.3397 69.4781 65.2003 69.4781 65.0519V59.6892Z" fill="#2FAAAF"/>
<path d="M77.4413 53.8738C77.4413 53.4748 76.9515 53.2833 76.6808 53.5765C76.6061 53.6575 76.5646 53.7636 76.5646 53.8738V57.8883C76.5646 58.3213 77.1054 58.4895 77.3574 58.1375C77.4124 58.0606 77.4413 57.9703 77.4413 57.8759V53.8738Z" fill="#2FAAAF"/>
<path d="M73.4597 57.3262C73.4597 56.9704 73.0583 56.7629 72.768 56.9685C72.652 57.0507 72.583 57.184 72.583 57.3262V62.3136C72.583 62.6822 72.9951 62.878 73.2844 62.6495C73.3948 62.5622 73.4597 62.4313 73.4597 62.2905V57.3262Z" fill="#2FAAAF"/>
<path d="M74.5917 60.4331C74.5917 60.8236 75.0638 61.0192 75.34 60.7431C75.4222 60.6609 75.4684 60.5494 75.4684 60.4331V55.8007C75.4684 55.4241 75.0248 55.2228 74.7414 55.4708C74.6462 55.5541 74.5917 55.6743 74.5917 55.8007V60.4331Z" fill="#2FAAAF"/>
<path d="M71.4503 58.5933C71.4503 58.2549 71.0833 58.0442 70.7911 58.2146C70.6564 58.2932 70.5736 58.4374 70.5736 58.5933V63.8267C70.5736 64.1777 70.9527 64.3776 71.2443 64.1823C71.3723 64.0965 71.4503 63.9548 71.4503 63.8008V58.5933Z" fill="#2FAAAF"/>
<path d="M58.6134 87.4236L58.6881 101.166C58.6881 113.038 76.8414 124.971 99.3067 124.971C121.772 124.971 139.925 113.038 139.925 101.166L140 87.4236C112.85 87.4236 85.7718 87.4236 58.6134 87.4236Z" fill="url(#paint18_linear)"/>
<path d="M58.6134 85.0981L58.6881 100.003C58.6881 111.875 76.8414 122.064 99.3067 122.064C121.772 122.064 139.925 111.875 139.925 100.003L140 85.0981C112.85 85.0981 85.7718 85.0981 58.6134 85.0981Z" fill="url(#paint19_linear)"/>
<path d="M99.3066 106.577C121.781 106.577 140 96.9608 140 85.0982C140 73.2356 121.781 63.6191 99.3066 63.6191C76.8323 63.6191 58.6133 73.2356 58.6133 85.0982C58.6133 96.9608 76.8323 106.577 99.3066 106.577Z" fill="url(#paint20_linear)"/>
<path d="M99.3067 104.894C120.497 104.894 137.675 95.7843 137.675 84.5471C136.803 94.7204 120.497 104.022 99.3067 104.022C78.1167 104.022 61.8107 94.7205 60.9387 84.5471C60.9387 95.7843 78.1167 104.894 99.3067 104.894Z" fill="url(#paint21_linear)"/>
<path d="M99.3067 102.568C120.497 102.568 137.675 93.4588 137.675 82.2217C137.675 70.9845 120.497 61.875 99.3067 61.875C78.1167 61.875 60.9387 70.9845 60.9387 82.2217C60.9387 93.4588 78.1167 102.568 99.3067 102.568Z" fill="url(#paint22_linear)"/>
<path d="M99.4812 101.406C120.671 101.406 137.849 92.2962 137.849 81.0591C137.849 69.8219 120.671 60.7124 99.4812 60.7124C78.2911 60.7124 61.1132 69.8219 61.1132 81.0591C61.1132 92.2962 78.2911 101.406 99.4812 101.406Z" fill="url(#paint23_linear)"/>
<path d="M122.1 107.819C122.1 107.506 121.782 107.294 121.493 107.415C121.33 107.483 121.224 107.642 121.224 107.819V113.661C121.224 113.967 121.529 114.179 121.816 114.071C121.987 114.007 122.1 113.843 122.1 113.661V107.819Z" fill="#2FAAAF"/>
<path d="M124.109 107.114C124.109 106.795 123.779 106.583 123.488 106.716C123.332 106.787 123.233 106.943 123.233 107.114V112.788C123.233 113.093 123.561 113.298 123.846 113.187C124.006 113.126 124.109 112.974 124.109 112.803V107.114Z" fill="#2FAAAF"/>
<path d="M120.128 108.456C120.128 108.165 119.835 107.97 119.559 108.059C119.377 108.118 119.251 108.282 119.251 108.473V114.326C119.251 114.628 119.556 114.848 119.843 114.756C120.015 114.701 120.128 114.539 120.128 114.359V108.456Z" fill="#2FAAAF"/>
<path d="M126.082 106.327C126.082 105.995 125.727 105.783 125.435 105.942C125.294 106.018 125.205 106.166 125.205 106.327V111.867C125.205 112.193 125.548 112.405 125.84 112.259C125.988 112.185 126.082 112.033 126.082 111.867V106.327Z" fill="#2FAAAF"/>
<path d="M117.279 115.004C117.279 115.293 117.548 115.496 117.823 115.411C118.017 115.351 118.155 115.173 118.155 114.97V109.117C118.155 108.829 117.886 108.626 117.611 108.711C117.416 108.771 117.279 108.948 117.279 109.151V115.004Z" fill="#2FAAAF"/>
<path d="M128.091 105.331C128.091 104.993 127.724 104.782 127.432 104.953C127.298 105.031 127.215 105.175 127.215 105.331V110.667C127.215 111.005 127.593 111.226 127.885 111.056C128.014 110.982 128.091 110.842 128.091 110.694V105.331Z" fill="#2FAAAF"/>
<path d="M136.055 99.5159C136.055 99.1169 135.565 98.9254 135.294 99.2186C135.219 99.2996 135.178 99.4057 135.178 99.5159V103.53C135.178 103.963 135.719 104.132 135.971 103.78C136.026 103.703 136.055 103.612 136.055 103.518V99.5159Z" fill="#2FAAAF"/>
<path d="M132.073 102.969C132.073 102.613 131.672 102.405 131.381 102.611C131.265 102.693 131.196 102.826 131.196 102.969V107.956C131.196 108.325 131.608 108.52 131.898 108.292C132.008 108.205 132.073 108.074 132.073 107.933V102.969Z" fill="#2FAAAF"/>
<path d="M133.205 106.075C133.205 106.466 133.677 106.662 133.953 106.385C134.035 106.303 134.082 106.192 134.082 106.075V101.443C134.082 101.066 133.638 100.865 133.355 101.113C133.26 101.196 133.205 101.317 133.205 101.443V106.075Z" fill="#2FAAAF"/>
<path d="M130.063 104.235C130.063 103.897 129.696 103.686 129.404 103.857C129.27 103.935 129.187 104.079 129.187 104.235V109.469C129.187 109.82 129.566 110.02 129.857 109.824C129.985 109.739 130.063 109.597 130.063 109.443V104.235Z" fill="#2FAAAF"/>
<path d="M58.6134 62.5674L58.6881 76.3099C58.6881 88.1818 76.8414 100.114 99.3067 100.114C121.772 100.114 139.925 88.1818 139.925 76.3099L140 62.5674C112.85 62.5674 85.7718 62.5674 58.6134 62.5674Z" fill="url(#paint24_linear)"/>
<path d="M58.6134 60.2419L58.6881 75.1471C58.6881 87.0191 76.8414 97.2075 99.3067 97.2075C121.772 97.2075 139.925 87.0191 139.925 75.1471L140 60.2419C112.85 60.2419 85.7718 60.2419 58.6134 60.2419Z" fill="url(#paint25_linear)"/>
<path d="M99.3066 81.7211C121.781 81.7211 140 72.1046 140 60.242C140 48.3794 121.781 38.7629 99.3066 38.7629C76.8323 38.7629 58.6133 48.3794 58.6133 60.242C58.6133 72.1046 76.8323 81.7211 99.3066 81.7211Z" fill="url(#paint26_linear)"/>
<path d="M99.3067 80.0376C120.497 80.0376 137.675 70.9281 137.675 59.6909C136.803 69.8642 120.497 79.1656 99.3067 79.1656C78.1167 79.1656 61.8107 69.8642 60.9387 59.6909C60.9387 70.9281 78.1167 80.0376 99.3067 80.0376Z" fill="url(#paint27_linear)"/>
<path d="M99.3067 77.7121C120.497 77.7121 137.675 68.6026 137.675 57.3655C137.675 46.1283 120.497 37.0188 99.3067 37.0188C78.1167 37.0188 60.9387 46.1283 60.9387 57.3655C60.9387 68.6026 78.1167 77.7121 99.3067 77.7121Z" fill="url(#paint28_linear)"/>
<path d="M99.4812 76.5495C120.671 76.5495 137.849 67.44 137.849 56.2029C137.849 44.9657 120.671 35.8562 99.4812 35.8562C78.2911 35.8562 61.1132 44.9657 61.1132 56.2029C61.1132 67.44 78.2911 76.5495 99.4812 76.5495Z" fill="url(#paint29_linear)"/>
<path d="M122.1 82.9629C122.1 82.6501 121.782 82.438 121.493 82.5583C121.33 82.6264 121.224 82.786 121.224 82.9629V88.8044C121.224 89.1105 121.529 89.3223 121.816 89.2149C121.987 89.1507 122.1 88.9871 122.1 88.8044V82.9629Z" fill="#2FAAAF"/>
<path d="M124.109 82.2581C124.109 81.9387 123.779 81.7265 123.488 81.8596C123.332 81.931 123.233 82.0867 123.233 82.2581V87.9316C123.233 88.2373 123.561 88.4413 123.846 88.3312C124.006 88.2694 124.109 88.1181 124.109 87.9467V82.2581Z" fill="#2FAAAF"/>
<path d="M120.128 83.5995C120.128 83.3092 119.835 83.1138 119.559 83.2029C119.377 83.2614 119.251 83.4256 119.251 83.6164V89.4701C119.251 89.7722 119.556 89.992 119.843 89.8999C120.015 89.8449 120.128 89.6828 120.128 89.5024V83.5995Z" fill="#2FAAAF"/>
<path d="M126.082 81.4708C126.082 81.1387 125.727 80.9272 125.435 81.0854C125.294 81.162 125.205 81.31 125.205 81.4708V87.011C125.205 87.3369 125.548 87.5488 125.84 87.4031C125.988 87.3288 126.082 87.1771 126.082 87.011V81.4708Z" fill="#2FAAAF"/>
<path d="M117.279 90.1481C117.279 90.4363 117.548 90.6397 117.823 90.5546C118.017 90.4946 118.155 90.3172 118.155 90.1139V84.261C118.155 83.9728 117.886 83.7695 117.611 83.8545C117.416 83.9145 117.279 84.0919 117.279 84.2952V90.1481Z" fill="#2FAAAF"/>
<path d="M128.091 80.4751C128.091 80.1368 127.724 79.926 127.432 80.0965C127.298 80.175 127.215 80.3192 127.215 80.4751V85.8112C127.215 86.1493 127.593 86.3696 127.885 86.2C128.014 86.1255 128.091 85.9862 128.091 85.8378V80.4751Z" fill="#2FAAAF"/>
<path d="M136.055 74.6597C136.055 74.2607 135.565 74.0692 135.294 74.3624C135.219 74.4434 135.178 74.5495 135.178 74.6597V78.6742C135.178 79.1072 135.719 79.2754 135.971 78.9233C136.026 78.8465 136.055 78.7562 136.055 78.6617V74.6597Z" fill="#2FAAAF"/>
<path d="M132.073 78.1123C132.073 77.7566 131.672 77.549 131.381 77.7546C131.265 77.8368 131.196 77.9701 131.196 78.1123V83.0998C131.196 83.4684 131.608 83.6641 131.898 83.4356C132.008 83.3483 132.073 83.2175 132.073 83.0767V78.1123Z" fill="#2FAAAF"/>
<path d="M133.205 81.2192C133.205 81.6098 133.677 81.8053 133.953 81.5292C134.035 81.447 134.082 81.3355 134.082 81.2192V76.5869C134.082 76.2103 133.638 76.009 133.355 76.257C133.26 76.3402 133.205 76.4605 133.205 76.5869V81.2192Z" fill="#2FAAAF"/>
<path d="M130.063 79.3792C130.063 79.0408 129.696 78.83 129.404 79.0005C129.27 79.0791 129.187 79.2232 129.187 79.3791V84.6126C129.187 84.9636 129.566 85.1635 129.857 84.9682C129.985 84.8824 130.063 84.7407 130.063 84.5867V79.3792Z" fill="#2FAAAF"/>
<path d="M58.6134 37.7112L58.6881 51.4537C58.6881 63.3256 76.8414 75.2581 99.3067 75.2581C121.772 75.2581 139.925 63.3256 139.925 51.4537L140 37.7112C112.85 37.7112 85.7718 37.7112 58.6134 37.7112Z" fill="url(#paint30_linear)"/>
<path d="M58.6134 35.3857L58.6881 50.2909C58.6881 62.1629 76.8414 72.3513 99.3067 72.3513C121.772 72.3513 139.925 62.1629 139.925 50.2909L140 35.3857C112.85 35.3857 85.7718 35.3857 58.6134 35.3857Z" fill="url(#paint31_linear)"/>
<path d="M99.3066 56.8649C121.781 56.8649 140 47.2484 140 35.3858C140 23.5232 121.781 13.9067 99.3066 13.9067C76.8323 13.9067 58.6133 23.5232 58.6133 35.3858C58.6133 47.2484 76.8323 56.8649 99.3066 56.8649Z" fill="url(#paint32_linear)"/>
<path d="M99.3067 55.1814C120.497 55.1814 137.675 46.0719 137.675 34.8347C136.803 45.008 120.497 54.3094 99.3067 54.3094C78.1167 54.3094 61.8107 45.008 60.9387 34.8347C60.9387 46.0719 78.1167 55.1814 99.3067 55.1814Z" fill="url(#paint33_linear)"/>
<path d="M99.3067 52.8559C120.497 52.8559 137.675 43.7464 137.675 32.5093C137.675 21.2721 120.497 12.1626 99.3067 12.1626C78.1167 12.1626 60.9387 21.2721 60.9387 32.5093C60.9387 43.7464 78.1167 52.8559 99.3067 52.8559Z" fill="url(#paint34_linear)"/>
<path d="M99.4812 51.6933C120.671 51.6933 137.849 42.5838 137.849 31.3467C137.849 20.1095 120.671 11 99.4812 11C78.2911 11 61.1132 20.1095 61.1132 31.3467C61.1132 42.5838 78.2911 51.6933 99.4812 51.6933Z" fill="url(#paint35_linear)"/>
<path d="M122.1 58.1067C122.1 57.7939 121.782 57.5818 121.493 57.7021C121.33 57.7702 121.224 57.9298 121.224 58.1067V63.9482C121.224 64.2543 121.529 64.4661 121.816 64.3587C121.987 64.2945 122.1 64.1309 122.1 63.9482V58.1067Z" fill="#2FAAAF"/>
<path d="M124.109 57.4019C124.109 57.0825 123.779 56.8703 123.488 57.0034C123.332 57.0748 123.233 57.2305 123.233 57.4019V63.0754C123.233 63.3811 123.561 63.5851 123.846 63.475C124.006 63.4132 124.109 63.2619 124.109 63.0905V57.4019Z" fill="#2FAAAF"/>
<path d="M120.128 58.7433C120.128 58.453 119.835 58.2576 119.559 58.3467C119.377 58.4052 119.251 58.5694 119.251 58.7602V64.6139C119.251 64.916 119.556 65.1358 119.843 65.0437C120.015 64.9887 120.128 64.8266 120.128 64.6462V58.7433Z" fill="#2FAAAF"/>
<path d="M126.082 56.6146C126.082 56.2825 125.727 56.071 125.435 56.2292C125.294 56.3058 125.205 56.4538 125.205 56.6146V62.1548C125.205 62.4807 125.548 62.6926 125.84 62.5469C125.988 62.4726 126.082 62.3209 126.082 62.1548V56.6146Z" fill="#2FAAAF"/>
<path d="M117.279 65.2919C117.279 65.5801 117.548 65.7835 117.823 65.6984C118.017 65.6384 118.155 65.461 118.155 65.2577V59.4048C118.155 59.1166 117.886 58.9133 117.611 58.9983C117.416 59.0583 117.279 59.2357 117.279 59.439V65.2919Z" fill="#2FAAAF"/>
<path d="M128.091 55.6189C128.091 55.2806 127.724 55.0698 127.432 55.2403C127.298 55.3188 127.215 55.463 127.215 55.6189V60.955C127.215 61.2931 127.593 61.5134 127.885 61.3438C128.014 61.2693 128.091 61.13 128.091 60.9816V55.6189Z" fill="#2FAAAF"/>
<path d="M136.055 49.8035C136.055 49.4045 135.565 49.213 135.294 49.5062C135.219 49.5872 135.178 49.6933 135.178 49.8035V53.818C135.178 54.251 135.719 54.4192 135.971 54.0671C136.026 53.9903 136.055 53.9 136.055 53.8055V49.8035Z" fill="#2FAAAF"/>
<path d="M132.073 53.2559C132.073 52.9001 131.672 52.6925 131.381 52.8982C131.265 52.9804 131.196 53.1137 131.196 53.2559V58.2433C131.196 58.6119 131.608 58.8077 131.898 58.5792C132.008 58.4919 132.073 58.361 132.073 58.2202V53.2559Z" fill="#2FAAAF"/>
<path d="M133.205 56.3628C133.205 56.7533 133.677 56.9489 133.953 56.6728C134.035 56.5906 134.082 56.4791 134.082 56.3628V51.7304C134.082 51.3538 133.638 51.1525 133.355 51.4005C133.26 51.4838 133.205 51.604 133.205 51.7304V56.3628Z" fill="#2FAAAF"/>
<path d="M130.063 54.5229C130.063 54.1846 129.696 53.9738 129.404 54.1443C129.27 54.2229 129.187 54.367 129.187 54.5229V59.7564C129.187 60.1074 129.566 60.3073 129.857 60.1119C129.985 60.0262 130.063 59.8845 130.063 59.7305V54.5229Z" fill="#2FAAAF"/>
<defs>
<linearGradient id="paint0_linear" x1="0.457053" y1="112.466" x2="78.2858" y2="112.466" gradientUnits="userSpaceOnUse">
<stop stop-color="#2D3853"/>
<stop offset="0.510417" stop-color="#2C3652"/>
<stop offset="1" stop-color="#30385C"/>
</linearGradient>
<linearGradient id="paint1_linear" x1="0.457053" y1="110.141" x2="78.2858" y2="110.141" gradientUnits="userSpaceOnUse">
<stop stop-color="#98A1C1"/>
<stop offset="0.510417" stop-color="#7B86A4"/>
<stop offset="1" stop-color="#5E6A84"/>
</linearGradient>
<linearGradient id="paint2_linear" x1="2.90667" y1="93.8494" x2="73.248" y2="82.8041" gradientUnits="userSpaceOnUse">
<stop stop-color="#2C3754"/>
<stop offset="0.510336" stop-color="#2D3956"/>
<stop offset="0.995" stop-color="#293552"/>
</linearGradient>
<linearGradient id="paint3_linear" x1="13.0137" y1="104.891" x2="70.4192" y2="72.9052" gradientUnits="userSpaceOnUse">
<stop stop-color="#478793"/>
<stop offset="0.510336" stop-color="#3AA0A4"/>
<stop offset="0.995" stop-color="#3B8D99"/>
</linearGradient>
<linearGradient id="paint4_linear" x1="13.0137" y1="102.566" x2="70.4192" y2="70.5797" gradientUnits="userSpaceOnUse">
<stop stop-color="#4C5979"/>
<stop offset="0.510336" stop-color="#3E4B6B"/>
<stop offset="0.995" stop-color="#384967"/>
</linearGradient>
<linearGradient id="paint5_linear" x1="11.5935" y1="99.0357" x2="72.9335" y2="71.6961" gradientUnits="userSpaceOnUse">
<stop stop-color="#59658A"/>
<stop offset="0.514067" stop-color="#4D5A7D"/>
<stop offset="0.995" stop-color="#676F9A"/>
</linearGradient>
<linearGradient id="paint6_linear" x1="0.457053" y1="87.6102" x2="78.2858" y2="87.6102" gradientUnits="userSpaceOnUse">
<stop stop-color="#2D3853"/>
<stop offset="0.510417" stop-color="#2C3652"/>
<stop offset="1" stop-color="#30385C"/>
</linearGradient>
<linearGradient id="paint7_linear" x1="0.457053" y1="85.2848" x2="78.2858" y2="85.2848" gradientUnits="userSpaceOnUse">
<stop stop-color="#98A1C1"/>
<stop offset="0.510417" stop-color="#7B86A4"/>
<stop offset="1" stop-color="#5E6A84"/>
</linearGradient>
<linearGradient id="paint8_linear" x1="2.90667" y1="68.9932" x2="73.248" y2="57.9479" gradientUnits="userSpaceOnUse">
<stop stop-color="#2C3754"/>
<stop offset="0.510336" stop-color="#2D3956"/>
<stop offset="0.995" stop-color="#293552"/>
</linearGradient>
<linearGradient id="paint9_linear" x1="13.0137" y1="80.0351" x2="70.4192" y2="48.049" gradientUnits="userSpaceOnUse">
<stop stop-color="#478793"/>
<stop offset="0.510336" stop-color="#3AA0A4"/>
<stop offset="0.995" stop-color="#3B8D99"/>
</linearGradient>
<linearGradient id="paint10_linear" x1="13.0137" y1="77.7096" x2="70.4192" y2="45.7235" gradientUnits="userSpaceOnUse">
<stop stop-color="#4C5979"/>
<stop offset="0.510336" stop-color="#3E4B6B"/>
<stop offset="0.995" stop-color="#384967"/>
</linearGradient>
<linearGradient id="paint11_linear" x1="11.5935" y1="74.1795" x2="72.9335" y2="46.8399" gradientUnits="userSpaceOnUse">
<stop stop-color="#59658A"/>
<stop offset="0.514067" stop-color="#4D5A7D"/>
<stop offset="0.995" stop-color="#676F9A"/>
</linearGradient>
<linearGradient id="paint12_linear" x1="0.457053" y1="62.754" x2="78.2858" y2="62.754" gradientUnits="userSpaceOnUse">
<stop stop-color="#2D3853"/>
<stop offset="0.510417" stop-color="#2C3652"/>
<stop offset="1" stop-color="#30385C"/>
</linearGradient>
<linearGradient id="paint13_linear" x1="0.457053" y1="60.4286" x2="78.2858" y2="60.4286" gradientUnits="userSpaceOnUse">
<stop stop-color="#98A1C1"/>
<stop offset="0.510417" stop-color="#7B86A4"/>
<stop offset="1" stop-color="#5E6A84"/>
</linearGradient>
<linearGradient id="paint14_linear" x1="2.90667" y1="44.137" x2="73.248" y2="33.0917" gradientUnits="userSpaceOnUse">
<stop stop-color="#2C3754"/>
<stop offset="0.510336" stop-color="#2D3956"/>
<stop offset="0.995" stop-color="#293552"/>
</linearGradient>
<linearGradient id="paint15_linear" x1="13.0137" y1="55.1789" x2="70.4192" y2="23.1928" gradientUnits="userSpaceOnUse">
<stop stop-color="#478793"/>
<stop offset="0.510336" stop-color="#3AA0A4"/>
<stop offset="0.995" stop-color="#3B8D99"/>
</linearGradient>
<linearGradient id="paint16_linear" x1="13.0137" y1="52.8534" x2="70.4192" y2="20.8673" gradientUnits="userSpaceOnUse">
<stop stop-color="#4C5979"/>
<stop offset="0.510336" stop-color="#3E4B6B"/>
<stop offset="0.995" stop-color="#384967"/>
</linearGradient>
<linearGradient id="paint17_linear" x1="11.5935" y1="49.3233" x2="72.9335" y2="21.9837" gradientUnits="userSpaceOnUse">
<stop stop-color="#59658A"/>
<stop offset="0.514067" stop-color="#4D5A7D"/>
<stop offset="0.995" stop-color="#676F9A"/>
</linearGradient>
<linearGradient id="paint18_linear" x1="59.0705" y1="108.396" x2="136.899" y2="108.396" gradientUnits="userSpaceOnUse">
<stop stop-color="#2D3853"/>
<stop offset="0.510417" stop-color="#2C3652"/>
<stop offset="1" stop-color="#30385C"/>
</linearGradient>
<linearGradient id="paint19_linear" x1="59.0705" y1="106.071" x2="136.899" y2="106.071" gradientUnits="userSpaceOnUse">
<stop stop-color="#98A1C1"/>
<stop offset="0.510417" stop-color="#7B86A4"/>
<stop offset="1" stop-color="#5E6A84"/>
</linearGradient>
<linearGradient id="paint20_linear" x1="61.5199" y1="89.7791" x2="131.861" y2="78.7338" gradientUnits="userSpaceOnUse">
<stop stop-color="#2C3754"/>
<stop offset="0.510336" stop-color="#2D3956"/>
<stop offset="0.995" stop-color="#293552"/>
</linearGradient>
<linearGradient id="paint21_linear" x1="71.627" y1="100.821" x2="129.032" y2="68.8349" gradientUnits="userSpaceOnUse">
<stop stop-color="#478793"/>
<stop offset="0.510336" stop-color="#3AA0A4"/>
<stop offset="0.995" stop-color="#3B8D99"/>
</linearGradient>
<linearGradient id="paint22_linear" x1="71.6269" y1="98.4955" x2="129.032" y2="66.5094" gradientUnits="userSpaceOnUse">
<stop stop-color="#4C5979"/>
<stop offset="0.510336" stop-color="#3E4B6B"/>
<stop offset="0.995" stop-color="#384967"/>
</linearGradient>
<linearGradient id="paint23_linear" x1="70.2069" y1="94.9654" x2="131.547" y2="67.6258" gradientUnits="userSpaceOnUse">
<stop stop-color="#59658A"/>
<stop offset="0.514067" stop-color="#4D5A7D"/>
<stop offset="0.995" stop-color="#676F9A"/>
</linearGradient>
<linearGradient id="paint24_linear" x1="59.0705" y1="83.5399" x2="136.899" y2="83.5399" gradientUnits="userSpaceOnUse">
<stop stop-color="#2D3853"/>
<stop offset="0.510417" stop-color="#2C3652"/>
<stop offset="1" stop-color="#30385C"/>
</linearGradient>
<linearGradient id="paint25_linear" x1="59.0705" y1="81.2145" x2="136.899" y2="81.2145" gradientUnits="userSpaceOnUse">
<stop stop-color="#98A1C1"/>
<stop offset="0.510417" stop-color="#7B86A4"/>
<stop offset="1" stop-color="#5E6A84"/>
</linearGradient>
<linearGradient id="paint26_linear" x1="61.5199" y1="64.9229" x2="131.861" y2="53.8776" gradientUnits="userSpaceOnUse">
<stop stop-color="#2C3754"/>
<stop offset="0.510336" stop-color="#2D3956"/>
<stop offset="0.995" stop-color="#293552"/>
</linearGradient>
<linearGradient id="paint27_linear" x1="71.627" y1="75.9648" x2="129.032" y2="43.9787" gradientUnits="userSpaceOnUse">
<stop stop-color="#478793"/>
<stop offset="0.510336" stop-color="#3AA0A4"/>
<stop offset="0.995" stop-color="#3B8D99"/>
</linearGradient>
<linearGradient id="paint28_linear" x1="71.6269" y1="73.6393" x2="129.032" y2="41.6532" gradientUnits="userSpaceOnUse">
<stop stop-color="#4C5979"/>
<stop offset="0.510336" stop-color="#3E4B6B"/>
<stop offset="0.995" stop-color="#384967"/>
</linearGradient>
<linearGradient id="paint29_linear" x1="70.2069" y1="70.1092" x2="131.547" y2="42.7696" gradientUnits="userSpaceOnUse">
<stop stop-color="#59658A"/>
<stop offset="0.514067" stop-color="#4D5A7D"/>
<stop offset="0.995" stop-color="#676F9A"/>
</linearGradient>
<linearGradient id="paint30_linear" x1="59.0705" y1="58.6837" x2="136.899" y2="58.6837" gradientUnits="userSpaceOnUse">
<stop stop-color="#2D3853"/>
<stop offset="0.510417" stop-color="#2C3652"/>
<stop offset="1" stop-color="#30385C"/>
</linearGradient>
<linearGradient id="paint31_linear" x1="59.0705" y1="56.3583" x2="136.899" y2="56.3583" gradientUnits="userSpaceOnUse">
<stop stop-color="#98A1C1"/>
<stop offset="0.510417" stop-color="#7B86A4"/>
<stop offset="1" stop-color="#5E6A84"/>
</linearGradient>
<linearGradient id="paint32_linear" x1="61.5199" y1="40.0667" x2="131.861" y2="29.0214" gradientUnits="userSpaceOnUse">
<stop stop-color="#2C3754"/>
<stop offset="0.510336" stop-color="#2D3956"/>
<stop offset="0.995" stop-color="#293552"/>
</linearGradient>
<linearGradient id="paint33_linear" x1="71.627" y1="51.1086" x2="129.032" y2="19.1225" gradientUnits="userSpaceOnUse">
<stop stop-color="#478793"/>
<stop offset="0.510336" stop-color="#3AA0A4"/>
<stop offset="0.995" stop-color="#3B8D99"/>
</linearGradient>
<linearGradient id="paint34_linear" x1="71.6269" y1="48.7831" x2="129.032" y2="16.797" gradientUnits="userSpaceOnUse">
<stop stop-color="#4C5979"/>
<stop offset="0.510336" stop-color="#3E4B6B"/>
<stop offset="0.995" stop-color="#384967"/>
</linearGradient>
<linearGradient id="paint35_linear" x1="70.2069" y1="45.253" x2="131.547" y2="17.9134" gradientUnits="userSpaceOnUse">
<stop stop-color="#59658A"/>
<stop offset="0.514067" stop-color="#4D5A7D"/>
<stop offset="0.995" stop-color="#676F9A"/>
</linearGradient>
</defs>
</svg>
