<svg width="140" height="140" viewBox="0 0 140 140" fill="none" xmlns="http://www.w3.org/2000/svg">
<path d="M129.917 111.299L85.831 138.303C82.107 140.566 77.4282 140.566 73.7137 138.303L8.21947 96.9093C6.45296 95.8303 6.64394 91.2482 8.54412 90.427C77.276 96.9093 83.1733 97.7966 129.449 102.802C132.209 103.986 132.476 109.743 129.917 111.299Z" fill="url(#paint0_linear)"/>
<path d="M129.917 108.903L85.831 135.906C82.107 138.169 77.4282 138.169 73.7137 135.906L8.21947 94.5127C6.45296 93.4337 6.64394 90.8174 8.54412 89.9962L49.9758 69.1515C52.4202 68.1106 55.1798 68.1106 57.6147 69.1515L129.449 102.371C132.209 103.555 132.476 107.346 129.917 108.903Z" fill="url(#paint1_linear)"/>
<path d="M17.7969 28.4647V89.9294C17.7969 91.6386 18.9714 93.2333 20.8906 94.1213L21.8073 98.1508H26.3047L29.303 101.579H33.8004L36.7987 104.816H41.2961L44.2944 108.626L44.6191 106.239C45.9272 106.85 47.35 108.387 48.8014 108.626C52.1052 109.16 55.6 107.623 58.5792 106.239L79.4526 95.2671C81.3623 94.3696 82.5463 92.7845 82.5463 90.13V28.0828L17.7969 28.4647Z" fill="url(#paint2_linear)"/>
<path d="M21.8073 31.9211H24.339V98.1507H21.8073V31.9211ZM29.3126 101.579H31.8442V34.3942H29.3126V101.579ZM36.8083 104.816H39.3399V37.6312H36.8083V104.816ZM44.3135 40.4863V108.626H46.8452V40.4863H44.3135Z" fill="url(#paint3_linear)"/>
<path d="M80.4933 32.3033L58.856 40.2382C55.8005 41.661 52.2102 41.0117 48.8108 40.4865C47.264 40.2478 45.7935 41.174 44.3994 40.5247L44.3134 40.4865L41.3151 37.6315L36.7986 37.6697L33.8099 34.3945H29.3125L26.2569 31.9309L21.8072 31.9214L19.2004 31.062C17.0902 30.0785 17.3098 27.6913 19.5919 26.9465L46.0322 21.0645C48.9541 20.1097 52.2579 20.1097 55.1702 21.0645L79.9299 26.3545C83.2338 27.4335 83.5584 30.8806 80.4933 32.3033Z" fill="url(#paint4_linear)"/>
<path d="M80.5639 31.6126L58.9266 39.5476C55.8711 40.9703 52.2808 40.321 48.8815 39.7958C47.3346 39.5571 45.8641 40.4833 44.47 39.834L44.384 39.7958L41.3858 36.9408L36.8692 36.979L33.8805 33.7038H29.3831L26.3275 31.2402L21.8778 31.2307L19.2711 30.3713C17.1608 29.3878 17.3804 27.0006 19.6626 26.2558L46.1028 20.3739C49.0247 19.419 52.3285 19.419 55.2409 20.3739L80.0005 25.6638C83.3044 26.7428 83.629 30.1899 80.5639 31.6126Z" fill="url(#paint5_linear)"/>
<path d="M25.7126 21.9141V26.8316C25.7126 28.1302 26.6006 29.3238 28.0425 29.9922L45.9844 36.2943C49.2214 37.7935 53.2891 37.7935 56.5357 36.2943L72.31 30.8612C73.7519 30.1832 74.6399 28.9801 74.6399 27.7006V22.3533L25.7126 21.9141Z" fill="url(#paint6_linear)"/>
<path d="M73.0835 24.3395L56.7362 30.2877C52.9931 31.4813 49.9949 31.4336 45.7743 30.0967L26.7725 23.7857C25.1779 23.0409 25.3498 21.5227 27.0685 20.9689L46.5478 16.2136C48.7631 15.4975 51.2553 15.4975 53.4515 16.2136L72.6634 20.606C75.1556 21.4176 75.4038 23.2605 73.0835 24.3395Z" fill="url(#paint7_linear)"/>
<path d="M73.0865 23.4062L56.7392 29.3544C52.9961 30.548 49.9978 30.5002 45.7773 29.1634L26.7755 22.8524C25.1809 22.1076 25.3528 20.5893 27.0715 20.0355L46.5508 15.2803C48.7661 14.5641 51.2583 14.5641 53.4545 15.2803L72.6664 19.6727C75.1586 20.4843 75.4068 22.3272 73.0865 23.4062Z" fill="url(#paint8_linear)"/>
<path d="M37.5816 11.7734V21.6754C37.5816 22.3342 38.0304 22.9453 38.7752 23.2891L47.9324 25.6572C49.5843 26.4211 51.6563 26.4211 53.3082 25.6572L61.3578 23.3464C62.093 23.0026 62.5514 22.3915 62.5514 21.7327V11.6111L37.5816 11.7734Z" fill="url(#paint9_linear)"/>
<path d="M61.7493 12.6329L53.4133 14.7814C51.5035 15.3925 49.9758 15.3639 47.8178 14.6859L38.1259 12.7284C37.3142 12.3465 37.4002 10.5902 38.2786 10.3037L48.4671 8.09733C49.5938 7.73448 50.8638 7.73448 51.9905 8.09733L61.5499 9.82887C62.8199 10.249 62.9333 12.0887 61.7493 12.6329Z" fill="url(#paint10_linear)"/>
<path d="M61.6532 11.6879L53.3173 13.8363C51.4075 14.4474 49.8797 14.4188 47.7217 13.7408L38.0299 11.7834C37.2182 11.4014 37.3042 10.628 38.1826 10.3415L48.3711 7.15226C49.4978 6.78941 50.7678 6.78941 51.8945 7.15226L61.4432 9.77815C62.7131 10.1983 62.8373 11.1436 61.6532 11.6879Z" fill="url(#paint11_linear)"/>
<path d="M50.0139 0C50.5009 0 50.8924 0.391495 50.8924 0.878477L50.9879 9.6537C50.9879 9.76828 50.9306 9.87331 50.8351 9.94016L50.1858 10.3889C50.0235 10.494 49.823 10.5131 49.6511 10.4176L48.8872 9.99745C48.7058 9.90196 48.6007 9.71099 48.6103 9.51047L48.9827 1.03126C48.9827 0.458336 49.4506 0 50.0139 0Z" fill="url(#paint12_linear)"/>
<path d="M64.1268 59.6885V104.854C64.1268 106.286 65.034 107.604 66.323 108.348L91.3787 122.184C94.2719 123.846 97.8909 123.846 100.775 122.184L122.469 108.453C123.758 107.709 124.551 106.381 124.551 104.959L124.436 61.1399L64.1268 59.6885Z" fill="url(#paint13_linear)"/>
<path d="M114.294 66.1141C114.878 65.8318 115.556 66.2569 115.556 66.9052V103.889C115.556 104.228 115.362 104.536 115.056 104.682C114.473 104.961 113.798 104.536 113.798 103.889V66.9052C113.798 66.5682 113.991 66.2609 114.294 66.1141ZM119.143 64.135C119.717 63.9195 120.33 64.3442 120.33 64.9578V101.444C120.33 101.812 120.101 102.141 119.756 102.268C119.182 102.48 118.573 102.056 118.573 101.444V64.9578C118.573 64.5916 118.8 64.2637 119.143 64.135ZM109.024 106.782C109.024 107.394 109.634 107.818 110.208 107.606C110.553 107.478 110.782 107.149 110.782 106.782V68.8728C110.782 68.2591 110.169 67.8344 109.594 68.05C109.251 68.1787 109.024 68.5065 109.024 68.8728V106.782ZM104.25 109.328C104.25 109.921 104.827 110.344 105.393 110.166C105.759 110.05 106.007 109.711 106.007 109.328V72.6922C106.007 72.0786 105.394 71.6539 104.82 71.8695C104.477 71.9981 104.25 72.326 104.25 72.6922V109.328Z" fill="#208A83"/>
<path d="M67.2493 73.1426L93.298 86.1192C93.5654 86.2147 93.8423 86.0237 93.8423 85.7372V84.2088C93.8423 84.037 93.7372 83.8842 93.5749 83.8269L67.5357 70.8598C67.2684 70.7643 66.9914 70.9553 66.9914 71.2417V72.7606C66.9819 72.9325 67.0869 73.0853 67.2493 73.1426ZM67.2493 80.0176L93.298 92.9942C93.5654 93.0897 93.8423 92.8987 93.8423 92.6123V91.0839C93.8423 90.912 93.7372 90.7592 93.5749 90.7019L67.5357 77.7348C67.2684 77.6393 66.9914 77.8303 66.9914 78.1168V79.6357C66.9819 79.8075 67.0869 79.9603 67.2493 80.0176ZM67.2493 86.7971L93.298 99.6783C93.5654 99.7738 93.8423 99.5828 93.8423 99.2963V97.7679C93.8423 97.596 93.7372 97.4433 93.5749 97.386L67.5357 84.5144C67.2684 84.4189 66.9914 84.6099 66.9914 84.8963V86.4152C66.9819 86.5871 67.0869 86.7399 67.2493 86.7971ZM67.2493 93.8632L93.298 107.031C93.5654 107.126 93.8423 106.935 93.8423 106.649V105.12C93.8423 104.949 93.7372 104.796 93.5749 104.738L67.5357 91.5804C67.2684 91.4849 66.9914 91.6759 66.9914 91.9623V93.4812C66.9819 93.6531 67.0869 93.8059 67.2493 93.8632Z" fill="url(#paint14_linear)"/>
<path d="M123.078 64.2568L100.858 75.4574C97.5253 76.7751 94.8421 76.7178 91.0895 75.2473L65.0981 62.6813C63.6753 61.8601 63.5989 60.1891 65.1363 59.5684L88.9819 49.5827C88.9819 49.5827 91.9305 48.1084 98.8107 50.5656L122.705 60.1413C124.92 61.0293 125.14 63.0728 123.078 64.2568Z" fill="url(#paint15_linear)"/>
<path d="M123.166 63.3266L100.946 74.5272C97.614 75.8449 94.9308 75.7876 91.1782 74.3171L65.1867 61.7511C63.764 60.9299 63.6876 59.2589 65.2249 58.6382L89.0706 48.6525C89.0706 48.6525 92.0192 47.1782 98.8994 49.6354L122.794 59.2111C125.009 60.0992 125.229 62.1426 123.166 63.3266Z" fill="url(#paint16_linear)"/>
<path d="M71.2024 105.263C71.2024 104.521 71.9822 104.038 72.6469 104.367L83.1556 109.582C83.4959 109.75 83.7111 110.098 83.7111 110.477V117.974L71.2024 110.955V105.263Z" fill="url(#paint17_linear)"/>
<defs>
<linearGradient id="paint0_linear" x1="34.2984" y1="122.633" x2="95.8809" y2="87.79" gradientUnits="userSpaceOnUse">
<stop stop-color="#3D4866"/>
<stop offset="0.630208" stop-color="#45506D"/>
<stop offset="0.995" stop-color="#242836"/>
</linearGradient>
<linearGradient id="paint1_linear" x1="34.2984" y1="120.236" x2="95.8809" y2="85.3935" gradientUnits="userSpaceOnUse">
<stop stop-color="#687599"/>
<stop offset="0.995" stop-color="#445070"/>
</linearGradient>
<linearGradient id="paint2_linear" x1="19.2861" y1="68.8018" x2="80.7161" y2="68.8018" gradientUnits="userSpaceOnUse">
<stop stop-color="#455072"/>
<stop offset="0.142" stop-color="#313852"/>
<stop offset="0.204" stop-color="#455072"/>
<stop offset="0.262" stop-color="#303750"/>
<stop offset="0.326" stop-color="#455072"/>
<stop offset="0.376" stop-color="#323953"/>
<stop offset="0.504" stop-color="#2F364F"/>
<stop offset="0.58" stop-color="#3B4560"/>
<stop offset="0.676" stop-color="#2D3146"/>
<stop offset="0.895472" stop-color="#313751"/>
<stop offset="1" stop-color="#313758"/>
</linearGradient>
<linearGradient id="paint3_linear" x1="22.7947" y1="72.8255" x2="61.4541" y2="64.941" gradientUnits="userSpaceOnUse">
<stop stop-color="#2CD8CF"/>
</linearGradient>
<linearGradient id="paint4_linear" x1="30.5746" y1="40.6115" x2="64.6653" y2="21.3233" gradientUnits="userSpaceOnUse">
<stop stop-color="#545F7C"/>
<stop offset="0.489583" stop-color="#46516F"/>
<stop offset="0.995" stop-color="#344265"/>
</linearGradient>
<linearGradient id="paint5_linear" x1="35.995" y1="35.8753" x2="71.3787" y2="23.0978" gradientUnits="userSpaceOnUse">
<stop stop-color="#687599"/>
<stop offset="0.995" stop-color="#49587E"/>
</linearGradient>
<linearGradient id="paint6_linear" x1="26.1662" y1="29.4863" x2="74.8188" y2="29.4863" gradientUnits="userSpaceOnUse">
<stop stop-color="#455072"/>
<stop offset="0.40404" stop-color="#303750"/>
<stop offset="0.525253" stop-color="#3B4560"/>
<stop offset="0.651515" stop-color="#2C3045"/>
<stop offset="0.871212" stop-color="#2C3045"/>
<stop offset="1" stop-color="#313758"/>
</linearGradient>
<linearGradient id="paint7_linear" x1="36.4864" y1="26.5378" x2="65.9729" y2="17.6919" gradientUnits="userSpaceOnUse">
<stop stop-color="#545F7C"/>
<stop offset="0.463542" stop-color="#46516F"/>
<stop offset="0.995" stop-color="#344265"/>
</linearGradient>
<linearGradient id="paint8_linear" x1="36.4894" y1="25.6044" x2="65.9759" y2="16.7585" gradientUnits="userSpaceOnUse">
<stop stop-color="#687599"/>
<stop offset="0.995" stop-color="#49587E"/>
</linearGradient>
<linearGradient id="paint9_linear" x1="37.4693" y1="18.6746" x2="62.5328" y2="18.6746" gradientUnits="userSpaceOnUse">
<stop stop-color="#455072"/>
<stop offset="0.335784" stop-color="#353D59"/>
<stop offset="0.514706" stop-color="#39435D"/>
<stop offset="0.710784" stop-color="#2C3045"/>
<stop offset="0.995" stop-color="#2C3045"/>
</linearGradient>
<linearGradient id="paint10_linear" x1="44.8409" y1="14.2518" x2="58.1098" y2="9.82887" gradientUnits="userSpaceOnUse">
<stop stop-color="#545F7C"/>
<stop offset="0.442708" stop-color="#46516F"/>
<stop offset="0.995" stop-color="#344265"/>
</linearGradient>
<linearGradient id="paint11_linear" x1="44.7449" y1="13.3068" x2="58.0138" y2="8.8838" gradientUnits="userSpaceOnUse">
<stop stop-color="#687599"/>
<stop offset="0.995" stop-color="#49587E"/>
</linearGradient>
<linearGradient id="paint12_linear" x1="48.6105" y1="5.23648" x2="50.9896" y2="5.23648" gradientUnits="userSpaceOnUse">
<stop stop-color="#8591B3"/>
<stop offset="0.5" stop-color="#505E86"/>
<stop offset="0.995" stop-color="#41558C"/>
</linearGradient>
<linearGradient id="paint13_linear" x1="64.0071" y1="91.4078" x2="122.98" y2="91.4077" gradientUnits="userSpaceOnUse">
<stop stop-color="#465173"/>
<stop offset="0.422917" stop-color="#2F364F"/>
<stop offset="0.535417" stop-color="#3B4560"/>
<stop offset="0.6089" stop-color="#2C3045"/>
<stop offset="0.875" stop-color="#2C3045"/>
<stop offset="1" stop-color="#313758"/>
</linearGradient>
<linearGradient id="paint14_linear" x1="61.4337" y1="91.4417" x2="96.8342" y2="87.7002" gradientUnits="userSpaceOnUse">
<stop stop-color="#2CD8CF"/>
</linearGradient>
<linearGradient id="paint15_linear" x1="77.1873" y1="69.2403" x2="109.131" y2="54.4971" gradientUnits="userSpaceOnUse">
<stop stop-color="#545F7C"/>
<stop offset="0.479167" stop-color="#444F6D"/>
<stop offset="0.995" stop-color="#344265"/>
</linearGradient>
<linearGradient id="paint16_linear" x1="77.276" y1="68.3101" x2="109.22" y2="53.5669" gradientUnits="userSpaceOnUse">
<stop stop-color="#687599"/>
<stop offset="0.995" stop-color="#49587E"/>
</linearGradient>
<linearGradient id="paint17_linear" x1="71.8976" y1="103.228" x2="86.9845" y2="122.707" gradientUnits="userSpaceOnUse">
<stop stop-color="#6C7699"/>
<stop offset="1" stop-color="#6A7497"/>
</linearGradient>
</defs>
</svg>
