<svg width="140" height="140" viewBox="0 0 140 140" fill="none" xmlns="http://www.w3.org/2000/svg">
<path d="M0.0825195 53.3687V64.166C0.0825195 67.2821 1.70981 70.1731 4.35848 71.7831L61.4694 109.747C67.4073 113.366 74.8513 113.366 80.7892 109.747L135.65 71.7831C138.298 70.1558 139.926 67.2647 139.926 64.166V53.3687H0.0825195Z" fill="url(#paint0_linear)"/>
<path d="M137.069 61.3065L81.1527 95.4796C74.9897 99.2362 67.2342 99.2362 61.0712 95.4796L2.02139 59.4022C-0.904265 57.6191 -0.592657 53.2739 2.55805 51.9236L64.7759 25.2984C68.8268 23.5672 73.3971 23.5672 77.4307 25.2984L136.29 50.4867C140.86 52.4256 141.31 58.7097 137.069 61.3065Z" fill="url(#paint1_linear)"/>
<path d="M137.069 59.3065L81.1527 93.4796C74.9897 97.2362 67.2342 97.2362 61.0712 93.4796L2.02139 57.4022C-0.904265 55.6191 -0.592657 51.2739 2.55805 49.9236L64.7759 23.2984C68.8268 21.5672 73.3971 21.5672 77.4307 23.2984L136.29 48.4867C140.86 50.4256 141.31 56.7097 137.069 59.3065Z" fill="url(#paint2_linear)"/>
<path d="M120.76 57.6212L78.0238 83.8385C73.3136 86.7205 67.3861 86.7205 62.6759 83.8385L17.5449 56.1603C15.3089 54.7923 15.547 51.4587 17.9551 50.4227L65.5073 29.9961C68.6034 28.668 72.0963 28.668 75.1792 29.9961L120.165 49.3204C123.658 50.8079 124.002 55.629 120.76 57.6212Z" fill="url(#paint3_linear)" stroke="url(#paint4_linear)" stroke-width="1.5"/>
<path d="M45.2182 44.7874C45.7431 44.9593 46.3079 44.6731 46.4797 44.1482C46.6516 43.6234 46.3654 43.0586 45.8406 42.8867L45.2182 44.7874ZM43.3635 57.2306L43.0309 58.1737L43.031 58.1737L43.3635 57.2306ZM56.2893 57.9237L55.8793 58.8358L55.8794 58.8358L56.2893 57.9237ZM61.8858 55.3593L62.139 54.3919L62.1388 54.3919L61.8858 55.3593ZM71.6061 46.8519L71.1886 47.7606L71.1892 47.7608L71.6061 46.8519ZM66.0096 45.8643L66.4318 44.9578L66.4304 44.9572L66.0096 45.8643ZM78.814 47.8222L78.7291 46.8258L78.7285 46.8259L78.814 47.8222ZM78.0517 36.993L78.5225 36.1108L78.5209 36.1099L78.0517 36.993ZM87.6507 41.0128L87.4223 40.0392L87.4217 40.0394L87.6507 41.0128ZM69.9947 47.8049L70.4069 48.716L70.4071 48.7159L69.9947 47.8049ZM58.5643 73.5884C58.1727 73.9778 58.171 74.611 58.5604 75.0026C58.9499 75.3942 59.583 75.3959 59.9746 75.0065L58.5643 73.5884ZM45.8406 42.8867C45.6349 42.8194 45.4326 42.822 45.35 42.8236C45.2315 42.8259 45.1025 42.8369 44.9731 42.8521C44.712 42.8828 44.3879 42.938 44.023 43.0128C43.2903 43.1632 42.3432 43.4034 41.3154 43.7244C39.2841 44.3589 36.8198 45.3452 35.0786 46.6511C34.2095 47.3029 33.4335 48.0982 33.0329 49.0523C32.6089 50.0624 32.6445 51.163 33.2552 52.2533C33.837 53.292 34.9123 54.2755 36.4755 55.231C38.0511 56.1941 40.1993 57.1749 43.0309 58.1737L43.6962 56.2876C40.9399 55.3154 38.9328 54.389 37.5186 53.5246C36.0922 52.6527 35.3434 51.8887 35.0001 51.2758C34.6857 50.7146 34.6951 50.2597 34.877 49.8265C35.0823 49.3374 35.5444 48.8018 36.2786 48.2511C37.7442 47.1519 39.9479 46.2469 41.9117 45.6335C42.8814 45.3306 43.7635 45.1077 44.425 44.972C44.7573 44.9039 45.0215 44.8602 45.2066 44.8385C45.3004 44.8274 45.359 44.8238 45.3883 44.8233C45.4537 44.822 45.3595 44.8337 45.2182 44.7874L45.8406 42.8867ZM43.031 58.1737C51.2146 61.059 58.2484 63.5034 63.663 65.3074C69.0464 67.1011 72.903 68.2874 74.6818 68.6243C74.9114 68.6679 75.1245 68.7009 75.3132 68.7184C75.4851 68.7344 75.7043 68.7448 75.9162 68.7075C76.0254 68.6883 76.7087 68.5569 76.8536 67.8366C76.9163 67.5247 76.827 67.2703 76.76 67.1314C76.691 66.9884 76.6034 66.8783 76.538 66.805C76.303 66.5414 75.9131 66.2738 75.4965 66.0162C75.0456 65.7373 74.4475 65.4017 73.703 65.0084C70.7299 63.4379 65.2089 60.8355 56.6992 57.0116L55.8794 58.8358C64.3932 62.6616 69.8595 65.24 72.7688 66.7768C73.4949 67.1604 74.0484 67.4721 74.4445 67.7171C74.6426 67.8397 74.7921 67.9398 74.8997 68.019C75.0159 68.1045 75.0505 68.1419 75.0452 68.136C75.0429 68.1334 75.0003 68.0869 74.9585 68.0001C74.9187 67.9175 74.8386 67.7121 74.8929 67.4421C74.9536 67.1405 75.1423 66.9467 75.2969 66.8482C75.4297 66.7636 75.5426 66.7426 75.5695 66.7378C75.625 66.7281 75.619 66.7382 75.4986 66.727C75.395 66.7174 75.2488 66.6962 75.054 66.6593C73.4367 66.353 69.7237 65.2186 64.2952 63.4099C58.8979 61.6117 51.8776 59.1721 43.6961 56.2875L43.031 58.1737ZM56.6993 57.0116C53.3127 55.4892 50.9816 54.3178 49.6349 53.4892C48.9336 53.0576 48.6072 52.7826 48.5053 52.6577C48.4367 52.5736 48.6096 52.7322 48.5758 53.0534C48.5302 53.4863 48.199 53.6424 48.1678 53.6552C48.1386 53.6672 48.1911 53.6423 48.3967 53.6324C48.5845 53.6233 48.8423 53.629 49.1791 53.6558C49.8521 53.7095 50.7674 53.8413 51.9326 54.0581C54.259 54.4907 57.5007 55.2462 61.6328 56.3268L62.1388 54.3919C57.9888 53.3066 54.6939 52.5373 52.2983 52.0918C51.1025 51.8694 50.1103 51.7237 49.338 51.6622C48.9523 51.6314 48.603 51.6201 48.3004 51.6347C48.0155 51.6484 47.6942 51.6878 47.4089 51.8048C47.1216 51.9226 46.652 52.2246 46.5868 52.8441C46.5333 53.3519 46.8054 53.7379 46.9557 53.9222C47.2918 54.334 47.8828 54.7593 48.5868 55.1925C50.0509 56.0934 52.4825 57.3087 55.8793 58.8358L56.6993 57.0116ZM61.6326 56.3267C67.2995 57.81 71.3051 58.2548 74.0084 57.9704C76.6851 57.6887 78.4534 56.6215 78.8424 54.7459C79.1938 53.0516 78.2629 51.2207 77.0307 49.7492C75.7539 48.2243 73.943 46.8237 72.0231 45.943L71.1892 47.7608C72.8385 48.5175 74.4107 49.7354 75.4973 51.0332C76.6286 52.3843 77.0416 53.5801 76.8841 54.3397C76.7641 54.918 76.1705 55.7318 73.7991 55.9814C71.4544 56.2281 67.7258 55.8542 62.139 54.3919L61.6326 56.3267ZM72.0236 45.9432C68.7834 44.4545 65.0943 43.1477 63.2953 42.7327C63.065 42.6796 62.8491 42.6371 62.6587 42.6112C62.4921 42.5885 62.2596 42.5655 62.0361 42.5989C61.9351 42.614 61.7019 42.658 61.4812 42.8318C61.1868 43.0636 61.0327 43.4341 61.088 43.816C61.1293 44.1017 61.2747 44.2982 61.341 44.3809C61.4225 44.4823 61.5126 44.5657 61.5885 44.6296C61.8737 44.8697 62.347 45.1545 62.9641 45.484C63.6042 45.8259 64.4687 46.2518 65.5887 46.7714L66.4304 44.9572C65.3283 44.4458 64.5007 44.0373 63.9062 43.7198C63.2885 43.39 62.9844 43.1904 62.8768 43.0998C62.8544 43.0809 62.8704 43.0912 62.9005 43.1287C62.9157 43.1476 63.0326 43.2895 63.0674 43.5295C63.116 43.8657 62.9771 44.1995 62.7185 44.4031C62.5335 44.5488 62.3567 44.5732 62.3316 44.5769C62.2599 44.5877 62.2571 44.575 62.3891 44.5929C62.4973 44.6076 62.6489 44.6361 62.8458 44.6815C64.4645 45.0549 68.018 46.3038 71.1886 47.7606L72.0236 45.9432ZM65.5873 46.7708C69.847 48.755 74.7481 49.1749 78.8995 48.8185L78.7285 46.8259C74.8057 47.1626 70.281 46.7508 66.4318 44.9578L65.5873 46.7708ZM78.8989 48.8186C80.8452 48.6527 82.3934 48.3831 83.5959 48.02C84.7867 47.6604 85.7152 47.1864 86.3418 46.5591C87.0038 45.8962 87.2915 45.0955 87.2201 44.2478C87.1532 43.4533 86.7795 42.7094 86.3159 42.0603C85.3902 40.7643 83.8616 39.5132 82.4095 38.4949C80.9364 37.4619 79.4488 36.6051 78.5225 36.1108L77.5808 37.8752C78.4565 38.3425 79.8711 39.1577 81.2612 40.1325C82.6723 41.1219 83.9681 42.2143 84.6884 43.2227C85.0478 43.7259 85.2026 44.1244 85.2272 44.4158C85.2472 44.654 85.1895 44.8826 84.9267 45.1457C84.6285 45.4442 84.0529 45.7928 83.0177 46.1054C81.9942 46.4145 80.5947 46.6668 78.7291 46.8258L78.8989 48.8186ZM78.5209 36.1099C76.9018 35.2496 75.6098 34.6917 74.6141 34.3856C74.1166 34.2327 73.6672 34.1344 73.2717 34.1004C72.8929 34.0678 72.4717 34.0854 72.0929 34.253C71.6575 34.4457 71.3261 34.8217 71.2385 35.3302C71.1638 35.7644 71.29 36.1667 71.4272 36.4618C71.7064 37.0619 72.2538 37.6903 72.9164 38.2768C75.5794 40.6338 81.48 43.4915 87.8796 41.9862L87.4217 40.0394C81.8139 41.3584 76.5561 38.8274 74.242 36.7792C73.6603 36.2643 73.3497 35.8528 73.2406 35.6182C73.1838 35.4959 73.2332 35.5321 73.2095 35.6695C73.1731 35.8812 73.0206 36.0296 72.9023 36.0819C72.8407 36.1092 72.8749 36.0736 73.1002 36.093C73.3087 36.111 73.612 36.1699 74.0264 36.2973C74.8542 36.5518 76.0221 37.047 77.5824 37.8761L78.5209 36.1099ZM87.879 41.9864C91.5045 41.1361 93.2585 40.6741 93.5749 40.5732C93.5872 40.5693 93.6463 40.5509 93.7067 40.5244C93.7223 40.5176 93.7682 40.4973 93.8226 40.4647C93.8522 40.4463 93.925 40.3945 93.9672 40.3596C94.0368 40.2927 94.2 40.0616 94.2694 39.8877C94.3094 39.5712 94.111 39.0069 93.9085 38.8045C93.7784 38.722 93.5599 38.6371 93.4807 38.62C93.36 38.599 93.262 38.606 93.249 38.6068C93.1629 38.6117 93.0835 38.6288 93.0811 38.6292C93.0528 38.6349 93.0219 38.6416 92.9916 38.6484C92.8714 38.6756 92.6722 38.7248 92.4079 38.7933C91.8743 38.9316 91.0428 39.157 89.9747 39.465C85.7077 40.6957 77.6047 43.2624 69.5823 46.8939L70.4071 48.7159C78.308 45.1394 86.3102 42.6034 90.5289 41.3867C91.5823 41.0829 92.3961 40.8624 92.9096 40.7293C93.1688 40.6622 93.3437 40.6193 93.4327 40.5992C93.4547 40.5942 93.4659 40.5919 93.469 40.5913C93.4981 40.5855 93.4396 40.5991 93.3637 40.6035C93.3532 40.6041 93.2572 40.6112 93.1376 40.5904C93.0591 40.5734 92.8409 40.4887 92.7111 40.4064C92.5089 40.2041 92.3106 39.64 92.3505 39.3239C92.4198 39.1502 92.5827 38.9195 92.6519 38.853C92.6937 38.8184 92.7659 38.767 92.7948 38.749C92.8476 38.7174 92.8913 38.6982 92.904 38.6926C92.9528 38.6712 92.9892 38.6608 92.9676 38.6676C92.7421 38.7395 91.074 39.1828 87.4223 40.0392L87.879 41.9864ZM69.5825 46.8938C65.9232 48.5493 63.8753 50.5579 62.8266 52.8831C61.7967 55.1666 61.8029 57.6121 61.9313 59.9495C62.1932 64.7174 62.9297 69.247 58.5643 73.5884L59.9746 75.0065C65.087 69.9221 64.1775 64.3763 63.9282 59.8398C63.8011 57.5249 63.8354 55.5109 64.6497 53.7053C65.4453 51.9414 67.0576 50.2313 70.4069 48.716L69.5825 46.8938Z" fill="white"/>
<path d="M62.4751 67.9906L65.5766 61.1812C65.7498 60.7307 66.0271 60.3322 66.3909 60.003L114.005 17.0326C115.668 15.5425 118.25 15.6812 119.757 17.3445C121.247 19.0079 121.109 21.5896 119.445 23.097L71.6063 65.8074C71.2424 66.1366 70.8092 66.3619 70.3414 66.4832L63.2375 68.8396C62.735 68.9782 62.2845 68.4931 62.4751 67.9906Z" fill="url(#paint5_linear)"/>
<path d="M116.483 25.7306L111.042 19.6662L113.346 17.587L118.787 23.6514L116.483 25.7306Z" fill="url(#paint6_linear)"/>
<path d="M95.2788 92.4559C95.2788 92.2915 95.3596 92.1376 95.4949 92.0443L96.001 91.6953C96.3327 91.4665 96.7849 91.704 96.7849 92.1069V95.8168C96.7849 95.9812 96.7041 96.135 96.5688 96.2284L96.0627 96.5774C95.731 96.8062 95.2788 96.5687 95.2788 96.1658V92.4559ZM98.7411 93.7858C98.7411 94.1869 99.1898 94.4248 99.5218 94.1996L100.028 93.8564C100.165 93.7634 100.247 93.6084 100.247 93.4426V89.7006C100.247 89.2977 99.795 89.0602 99.4634 89.289L98.9573 89.638C98.8219 89.7313 98.7411 89.8852 98.7411 90.0496V93.7858ZM102.203 91.4141C102.203 91.8152 102.652 92.0531 102.984 91.8279L103.49 91.4847C103.627 91.3917 103.71 91.2367 103.71 91.0709V87.2943C103.71 86.8913 103.257 86.6539 102.926 86.8827L102.42 87.2317C102.284 87.325 102.203 87.4789 102.203 87.6433V91.4141ZM105.666 89.0251C105.666 89.4263 106.114 89.6641 106.446 89.4389L106.952 89.0957C107.09 89.0027 107.172 88.8477 107.172 88.6819V84.8706C107.172 84.4677 106.72 84.2303 106.388 84.459L105.882 84.8081C105.747 84.9014 105.666 85.0553 105.666 85.2197V89.0251ZM109.128 86.6707C109.128 87.0719 109.577 87.3097 109.909 87.0845L110.415 86.7413C110.552 86.6483 110.634 86.4933 110.634 86.3275V82.4816C110.634 82.0787 110.182 81.8413 109.85 82.07L109.344 82.4191C109.209 82.5124 109.128 82.6663 109.128 82.8307V86.6707ZM112.59 84.2817C112.59 84.6829 113.039 84.9207 113.371 84.6956L113.877 84.3523C114.014 84.2593 114.096 84.1043 114.096 83.9385V80.058C114.096 79.6551 113.644 79.4177 113.313 79.6464L112.807 79.9955C112.671 80.0888 112.59 80.2427 112.59 80.4071V84.2817ZM116.053 81.9274C116.053 82.3285 116.501 82.5663 116.833 82.3412L117.339 81.998C117.477 81.9049 117.559 81.7499 117.559 81.5841V77.669C117.559 77.2661 117.107 77.0287 116.775 77.2574L116.269 77.6064C116.134 77.6998 116.053 77.8537 116.053 78.0181V81.9274ZM119.515 79.5557C119.515 79.9568 119.964 80.1946 120.296 79.9695L120.802 79.6263C120.939 79.5332 121.021 79.3782 121.021 79.2124V75.2627C121.021 74.8598 120.569 74.6224 120.237 74.8511L119.731 75.2001C119.596 75.2935 119.515 75.4474 119.515 75.6117V79.5557ZM122.977 77.1667C122.977 77.5678 123.426 77.8056 123.758 77.5805L124.264 77.2373C124.401 77.1442 124.483 76.9892 124.483 76.8235V72.8391C124.483 72.4362 124.031 72.1987 123.7 72.4275L123.193 72.7765C123.058 72.8698 122.977 73.0237 122.977 73.1881V77.1667ZM126.656 70.3529C126.52 70.4462 126.44 70.6001 126.44 70.7645V74.7777C126.44 75.1788 126.888 75.4166 127.22 75.1915L127.726 74.8483C127.864 74.7552 127.946 74.6002 127.946 74.4344V70.4155C127.946 70.0125 127.494 69.7751 127.162 70.0039L126.656 70.3529Z" fill="#131727"/>
<path d="M95 91.9927C95 91.8283 95.0808 91.6744 95.2161 91.5811L95.7222 91.232C96.0539 91.0033 96.5061 91.2407 96.5061 91.6436V95.3535C96.5061 95.5179 96.4253 95.6718 96.29 95.7651L95.7839 96.1142C95.4522 96.3429 95 96.1055 95 95.7025V91.9927ZM98.4623 93.3225C98.4623 93.7237 98.911 93.9615 99.243 93.7364L99.7491 93.3931C99.8863 93.3001 99.9684 93.1451 99.9684 92.9793V89.2373C99.9684 88.8344 99.5162 88.597 99.1845 88.8257L98.6785 89.1747C98.5431 89.2681 98.4623 89.422 98.4623 89.5864V93.3225ZM101.925 90.9508C101.925 91.352 102.373 91.5898 102.705 91.3647L103.211 91.0214C103.349 90.9284 103.431 90.7734 103.431 90.6076V86.831C103.431 86.4281 102.979 86.1906 102.647 86.4194L102.141 86.7684C102.005 86.8618 101.925 87.0157 101.925 87.18V90.9508ZM105.387 88.5619C105.387 88.963 105.836 89.2008 106.168 88.9757L106.674 88.6325C106.811 88.5394 106.893 88.3844 106.893 88.2186V84.4074C106.893 84.0045 106.441 83.767 106.109 83.9958L105.603 84.3448C105.468 84.4381 105.387 84.592 105.387 84.7564V88.5619ZM108.849 86.2075C108.849 86.6086 109.298 86.8464 109.63 86.6213L110.136 86.2781C110.273 86.185 110.355 86.03 110.355 85.8643V82.0184C110.355 81.6155 109.903 81.378 109.572 81.6068L109.065 81.9558C108.93 82.0491 108.849 82.203 108.849 82.3674V86.2075ZM112.312 83.8185C112.312 84.2196 112.76 84.4574 113.092 84.2323L113.598 83.8891C113.736 83.796 113.818 83.641 113.818 83.4753V79.5948C113.818 79.1918 113.366 78.9544 113.034 79.1832L112.528 79.5322C112.392 79.6255 112.312 79.7794 112.312 79.9438V83.8185ZM115.774 81.4641C115.774 81.8652 116.223 82.1031 116.555 81.8779L117.061 81.5347C117.198 81.4417 117.28 81.2867 117.28 81.1209V77.2058C117.28 76.8028 116.828 76.5654 116.496 76.7942L115.99 77.1432C115.855 77.2365 115.774 77.3904 115.774 77.5548V81.4641ZM119.236 79.0924C119.236 79.4936 119.685 79.7314 120.017 79.5062L120.523 79.163C120.66 79.07 120.742 78.915 120.742 78.7492V74.7995C120.742 74.3965 120.29 74.1591 119.958 74.3878L119.452 74.7369C119.317 74.8302 119.236 74.9841 119.236 75.1485V79.0924ZM122.699 76.7034C122.699 77.1046 123.147 77.3424 123.479 77.1172L123.985 76.774C124.122 76.681 124.205 76.526 124.205 76.3602V72.3758C124.205 71.9729 123.752 71.7355 123.421 71.9642L122.915 72.3133C122.779 72.4066 122.699 72.5605 122.699 72.7249V76.7034ZM126.377 69.8896C126.242 69.983 126.161 70.1369 126.161 70.3012V74.3144C126.161 74.7156 126.609 74.9534 126.941 74.7282L127.448 74.385C127.585 74.292 127.667 74.137 127.667 73.9712V69.9522C127.667 69.5493 127.215 69.3118 126.883 69.5406L126.377 69.8896Z" fill="#2FAAAF"/>
<defs>
<linearGradient id="paint0_linear" x1="-0.106419" y1="92.9148" x2="133.097" y2="92.9148" gradientUnits="userSpaceOnUse">
<stop stop-color="#475375"/>
<stop offset="0.406195" stop-color="#2E354E"/>
<stop offset="0.522558" stop-color="#3C4661"/>
<stop offset="0.642676" stop-color="#2C3045"/>
</linearGradient>
<linearGradient id="paint1_linear" x1="3.5" y1="55" x2="136" y2="52" gradientUnits="userSpaceOnUse">
<stop stop-color="#545F7C"/>
<stop offset="0.494792" stop-color="#45516D"/>
<stop offset="0.995" stop-color="#344265"/>
</linearGradient>
<linearGradient id="paint2_linear" x1="3.5" y1="53" x2="136" y2="50" gradientUnits="userSpaceOnUse">
<stop stop-color="#687699"/>
<stop offset="0.995" stop-color="#526084"/>
</linearGradient>
<linearGradient id="paint3_linear" x1="18.675" y1="52.7829" x2="119.943" y2="50.4987" gradientUnits="userSpaceOnUse">
<stop stop-color="#2CD8CF"/>
<stop offset="1" stop-color="#2FAAAF"/>
</linearGradient>
<linearGradient id="paint4_linear" x1="18" y1="49.5" x2="118.5" y2="62" gradientUnits="userSpaceOnUse">
<stop stop-color="#465173"/>
<stop offset="1" stop-color="#2F364F"/>
</linearGradient>
<linearGradient id="paint5_linear" x1="88.1327" y1="39.6085" x2="94.0177" y2="46.162" gradientUnits="userSpaceOnUse">
<stop stop-color="#677598"/>
<stop offset="0.0625" stop-color="#526084"/>
<stop offset="0.234375" stop-color="#344265"/>
<stop offset="0.4991" stop-color="#5B6786"/>
<stop offset="0.995" stop-color="#2C3045"/>
</linearGradient>
<linearGradient id="paint6_linear" x1="112.195" y1="18.6316" x2="117.634" y2="24.6887" gradientUnits="userSpaceOnUse">
<stop stop-color="#2FAEB2"/>
<stop offset="0.2131" stop-color="#2FADB1"/>
<stop offset="0.4819" stop-color="#2CD8CF"/>
<stop offset="0.5881" stop-color="#2EB0B3"/>
<stop offset="1" stop-color="#1E6F72"/>
</linearGradient>
</defs>
</svg>
