<svg width="140" height="140" viewBox="0 0 140 140" fill="none" xmlns="http://www.w3.org/2000/svg">
<path d="M9.04395 30.4607V99.1074C9.04395 101.939 10.5263 104.554 12.9247 106.019L60.8303 137.539C66.2267 140.82 72.9721 140.82 78.3685 137.539L127.199 104.048C129.598 102.566 131.08 99.9506 131.08 97.1359V30.4607H9.04395Z" fill="url(#paint0_linear)"/>
<path d="M91.5261 114.75C91.5261 114.586 91.6062 114.432 91.7407 114.339L92.1064 114.085C92.438 113.854 92.8918 114.092 92.8918 114.495V119.557C92.8918 119.72 92.8116 119.874 92.6772 119.967L92.3114 120.221C91.9799 120.452 91.5261 120.215 91.5261 119.811V114.75ZM94.674 117.672C94.674 118.074 95.1241 118.311 95.4559 118.085L95.8217 117.835C95.9581 117.742 96.0397 117.587 96.0397 117.422V112.33C96.0397 111.926 95.5859 111.689 95.2543 111.92L94.8886 112.174C94.7541 112.267 94.674 112.421 94.674 112.584V117.672ZM97.8218 115.507C97.8218 115.909 98.272 116.146 98.6038 115.92L98.9696 115.67C99.106 115.577 99.1876 115.422 99.1876 115.257V110.132C99.1876 109.728 98.7338 109.491 98.4022 109.721L98.0365 109.975C97.902 110.069 97.8218 110.222 97.8218 110.386V115.507ZM100.97 113.375C100.97 113.777 101.42 114.014 101.752 113.788L102.117 113.538C102.254 113.445 102.335 113.29 102.335 113.125V107.966C102.335 107.563 101.882 107.325 101.55 107.556L101.184 107.81C101.05 107.904 100.97 108.057 100.97 108.221V113.375ZM104.101 111.209C104.101 111.611 104.551 111.849 104.883 111.622L105.249 111.373C105.385 111.279 105.467 111.125 105.467 110.96V105.768C105.467 105.364 105.013 105.127 104.681 105.357L104.316 105.612C104.181 105.705 104.101 105.858 104.101 106.022V111.209ZM107.249 109.044C107.249 109.446 107.699 109.684 108.031 109.457L108.397 109.207C108.533 109.114 108.615 108.96 108.615 108.794V103.569C108.615 103.166 108.161 102.928 107.829 103.159L107.463 103.413C107.329 103.506 107.249 103.66 107.249 103.824V109.044ZM110.397 106.912C110.397 107.314 110.847 107.552 111.179 107.325L111.545 107.075C111.681 106.982 111.763 106.828 111.763 106.663V101.404C111.763 101 111.309 100.763 110.977 100.994L110.611 101.248C110.477 101.341 110.397 101.495 110.397 101.658V106.912ZM113.545 104.764C113.545 105.166 113.995 105.403 114.327 105.177L114.692 104.927C114.829 104.834 114.91 104.679 114.91 104.514V99.2056C114.91 98.8018 114.457 98.5645 114.125 98.795L113.759 99.0493C113.625 99.1427 113.545 99.2961 113.545 99.4598V104.764ZM116.676 102.599C116.676 103 117.126 103.238 117.458 103.011L117.824 102.762C117.96 102.669 118.042 102.514 118.042 102.349V97.0237C118.042 96.6199 117.588 96.3827 117.256 96.6131L116.891 96.8674C116.756 96.9608 116.676 97.1142 116.676 97.2779V102.599ZM120.042 94.6858C119.905 94.779 119.824 94.9335 119.824 95.0987V100.45C119.824 100.852 120.274 101.09 120.606 100.863L120.972 100.613C121.108 100.52 121.19 100.365 121.19 100.2V94.8489C121.19 94.447 120.739 94.2094 120.408 94.436L120.042 94.6858Z" fill="#2FAAAF"/>
<path d="M34.6382 74.3341L14.1036 61.2294C13.4893 60.8345 13.1237 60.1617 13.1237 59.4305L13.1529 53.273C13.1529 52.4686 14.0451 51.9859 14.7179 52.4101L35.2378 65.5002C35.9545 65.9536 36.3786 66.7433 36.3786 67.5916L36.364 73.3981C36.3494 74.2756 35.3695 74.8021 34.6382 74.3341Z" fill="url(#paint1_linear)"/>
<path d="M61.6955 91.0956L41.1609 77.9909C40.5466 77.596 40.181 76.9232 40.181 76.1919L40.2102 70.0345C40.2102 69.2301 41.1024 68.7474 41.7752 69.1716L62.2951 82.2616C63.0118 82.715 63.436 83.5048 63.436 84.3531L63.4213 90.1596C63.3921 91.0371 62.4268 91.5636 61.6955 91.0956Z" fill="url(#paint2_linear)"/>
<path d="M34.7258 90.3787L14.1912 77.2886C13.5769 76.8937 13.2112 76.221 13.2112 75.4897L13.2405 69.3322C13.2405 68.5278 14.1327 68.0451 14.8055 68.4693L35.3108 81.5594C36.0275 82.0128 36.4516 82.8026 36.4516 83.6508L36.437 89.4573C36.437 90.3202 35.4571 90.8614 34.7258 90.3787Z" fill="url(#paint3_linear)"/>
<path d="M61.7693 107.141L41.2347 94.0507C40.6205 93.6558 40.2548 92.983 40.2548 92.2517L40.2841 86.0943C40.2841 85.2899 41.1762 84.8072 41.849 85.2314L62.369 98.3214C63.0857 98.7748 63.5098 99.5646 63.5098 100.413L63.4952 106.219C63.4806 107.097 62.5153 107.623 61.7693 107.141Z" fill="url(#paint4_linear)"/>
<path d="M34.4187 106.437L13.8841 93.3323C13.2698 92.9374 12.9042 92.2647 12.9042 91.5334L12.9334 85.3759C12.9334 84.5715 13.8256 84.0888 14.4984 84.513L35.0183 97.6031C35.735 98.0565 36.1592 98.8463 36.1592 99.6945L36.1445 105.501C36.1299 106.379 35.1646 106.905 34.4187 106.437Z" fill="url(#paint5_linear)"/>
<path d="M61.4762 123.2L40.9417 110.095C40.3274 109.7 39.9617 109.028 39.9617 108.296L39.991 102.139C39.991 101.334 40.8832 100.852 41.5559 101.276L62.0759 114.366C62.7926 114.819 63.2167 115.609 63.2167 116.457L63.2021 122.264C63.1728 123.141 62.2075 123.668 61.4762 123.2Z" fill="url(#paint6_linear)"/>
<path opacity="0.35" d="M34.8279 85.2304C34.9303 85.9178 34.5646 86.7222 33.9942 86.7661C33.4385 86.81 32.8388 86.2835 32.6633 85.5814C32.4878 84.8794 32.7803 84.192 33.3361 84.1481C33.8919 84.1042 34.7255 84.5137 34.8279 85.2304Z" fill="#06365E"/>
<path d="M34.7836 84.9522C34.9591 85.6103 34.6666 86.1954 34.1401 86.2392C33.6135 86.2831 33.0431 85.7858 32.8676 85.1131C32.6921 84.4549 32.9846 83.8699 33.5111 83.826C34.0377 83.7821 34.6227 84.294 34.7836 84.9522Z" fill="url(#paint7_linear)"/>
<path d="M33.9361 86.3869C33.4096 86.4308 32.8392 85.9335 32.6637 85.2607C32.5613 84.8658 32.6198 84.5148 32.7953 84.2808C32.8245 84.2369 32.8538 84.2077 32.883 84.1784C32.9123 84.1492 32.9415 84.1346 32.9708 84.1053C33.0439 84.0614 33.1171 84.0175 33.2194 84.0029C33.2487 83.9883 33.2926 83.9883 33.3218 83.9883C33.8483 83.9444 34.4188 84.4417 34.5943 85.1145C34.7551 85.758 34.4626 86.343 33.9361 86.3869Z" fill="url(#paint8_linear)"/>
<path opacity="0.18" d="M16.5319 73.6468C16.6343 74.3342 16.2686 75.1386 15.6982 75.1825C15.1278 75.2264 14.5428 74.6998 14.3673 73.9978C14.1918 73.2958 14.4843 72.6084 15.0401 72.5645C15.5958 72.5206 16.4295 72.9301 16.5319 73.6468Z" fill="#06365E"/>
<path d="M16.4876 73.3686C16.6631 74.0268 16.3706 74.6118 15.844 74.6557C15.3175 74.6996 14.7471 74.2023 14.5716 73.5295C14.3961 72.8714 14.6886 72.2863 15.2151 72.2424C15.7417 72.1986 16.3267 72.6958 16.4876 73.3686Z" fill="url(#paint9_linear)"/>
<path d="M15.6393 74.8028C15.1128 74.8467 14.5424 74.3494 14.3668 73.6766C14.2645 73.2817 14.323 72.9307 14.4985 72.6967C14.5277 72.6528 14.557 72.6236 14.5862 72.5943C14.6155 72.5651 14.6447 72.5504 14.674 72.5212C14.7471 72.4773 14.8202 72.4334 14.9226 72.4188C14.9519 72.4042 14.9958 72.4042 15.025 72.4042C15.5515 72.3603 16.1219 72.8576 16.2974 73.5304C16.4583 74.1739 16.1658 74.7589 15.6393 74.8028Z" fill="url(#paint10_linear)"/>
<path opacity="0.35" d="M61.6673 102.108C61.7696 102.796 61.404 103.6 60.8336 103.644C60.2778 103.688 59.6782 103.161 59.5026 102.459C59.3271 101.757 59.6197 101.07 60.1754 101.026C60.7312 100.982 61.5503 101.392 61.6673 102.108Z" fill="#06365E"/>
<path d="M61.6229 101.83C61.7985 102.488 61.5059 103.073 60.9794 103.117C60.4529 103.161 59.8825 102.664 59.707 101.991C59.5315 101.333 59.824 100.748 60.3505 100.704C60.877 100.66 61.4474 101.172 61.6229 101.83Z" fill="url(#paint11_linear)"/>
<path d="M60.7747 103.264C60.2481 103.308 59.6777 102.811 59.5022 102.138C59.3998 101.743 59.4583 101.392 59.6339 101.158C59.6631 101.114 59.6924 101.085 59.7216 101.056C59.7509 101.027 59.7801 101.012 59.8094 100.983C59.8825 100.939 59.9556 100.895 60.058 100.88C60.0873 100.866 60.1311 100.866 60.1604 100.866C60.6869 100.822 61.2573 101.319 61.4328 101.992C61.5937 102.65 61.3012 103.22 60.7747 103.264Z" fill="url(#paint12_linear)"/>
<path opacity="0.18" d="M43.8822 90.5114C43.9845 91.1989 43.6189 92.0033 43.0485 92.0471C42.4927 92.091 41.8931 91.5645 41.7176 90.8625C41.542 90.1604 41.8346 89.473 42.3903 89.4291C42.9461 89.3853 43.7652 89.8094 43.8822 90.5114Z" fill="#06365E"/>
<path d="M43.8379 90.2333C44.0134 90.8915 43.7208 91.4765 43.1943 91.5204C42.6678 91.5642 42.0974 91.067 41.9219 90.3942C41.7464 89.736 42.0389 89.151 42.5654 89.1071C43.0919 89.0632 43.6623 89.5751 43.8379 90.2333Z" fill="url(#paint13_linear)"/>
<path d="M42.9752 91.6682C42.4486 91.712 41.8782 91.2148 41.7027 90.542C41.6003 90.1471 41.6588 89.7961 41.8344 89.5621C41.8636 89.5182 41.8929 89.4889 41.9221 89.4597C41.9514 89.4304 41.9806 89.4158 42.0099 89.3865C42.083 89.3427 42.1561 89.2988 42.2585 89.2842C42.2878 89.2695 42.3316 89.2695 42.3609 89.2695C42.8874 89.2257 43.4578 89.7229 43.6333 90.3957C43.7942 91.0539 43.5163 91.6243 42.9752 91.6682Z" fill="url(#paint14_linear)"/>
<path opacity="0.35" d="M34.6959 69.4489C34.7983 70.1363 34.4326 70.9407 33.8622 70.9846C33.3064 71.0285 32.7068 70.502 32.5313 69.7999C32.3558 69.0979 32.6483 68.4105 33.2041 68.3666C33.7598 68.3227 34.5789 68.7323 34.6959 69.4489Z" fill="#06365E"/>
<path d="M34.6516 69.1707C34.8271 69.8289 34.5346 70.4139 34.008 70.4578C33.4815 70.5017 32.9111 70.0044 32.7356 69.3316C32.5601 68.6735 32.8526 68.0884 33.3791 68.0446C33.9057 68.0007 34.4761 68.498 34.6516 69.1707Z" fill="url(#paint15_linear)"/>
<path d="M33.8033 70.5896C33.2768 70.6334 32.7064 70.1362 32.5308 69.4634C32.4285 69.0685 32.487 68.7175 32.6625 68.4834C32.6917 68.4396 32.721 68.4103 32.7502 68.3811C32.7795 68.3518 32.8087 68.3372 32.838 68.3079C32.9111 68.2641 32.9842 68.2202 33.0866 68.2056C33.1159 68.1909 33.1598 68.1909 33.189 68.1909C33.7155 68.147 34.2859 68.6443 34.4614 69.3171C34.6223 69.9753 34.3298 70.5457 33.8033 70.5896Z" fill="url(#paint16_linear)"/>
<path opacity="0.18" d="M16.3999 57.866C16.5023 58.5534 16.1367 59.3579 15.5663 59.4017C15.0105 59.4456 14.4108 58.9191 14.2353 58.217C14.0598 57.515 14.3523 56.8276 14.9081 56.7837C15.4639 56.7398 16.2829 57.1494 16.3999 57.866Z" fill="#06365E"/>
<path d="M16.3556 57.5879C16.5311 58.246 16.2386 58.8311 15.7121 58.8749C15.1855 58.9188 14.6151 58.4215 14.4396 57.7487C14.2641 57.0906 14.5566 56.5056 15.0832 56.4617C15.6243 56.4178 16.1801 56.9151 16.3556 57.5879Z" fill="url(#paint17_linear)"/>
<path d="M15.5073 59.0067C14.9808 59.0505 14.4104 58.5533 14.2349 57.8805C14.1325 57.4856 14.191 57.1346 14.3665 56.9006C14.3958 56.8567 14.425 56.8274 14.4543 56.7982C14.4835 56.7689 14.5128 56.7543 14.542 56.725C14.6152 56.6812 14.6883 56.6373 14.7907 56.6227C14.8199 56.608 14.8638 56.608 14.893 56.608C15.4196 56.5642 15.99 57.0614 16.1655 57.7342C16.3264 58.3924 16.0339 58.9628 15.5073 59.0067Z" fill="url(#paint18_linear)"/>
<path opacity="0.35" d="M61.5354 86.3288C61.6378 87.0162 61.2722 87.8206 60.7018 87.8645C60.146 87.9084 59.5463 87.3818 59.3708 86.6798C59.1953 85.9778 59.4878 85.2904 60.0436 85.2465C60.5994 85.2026 61.4184 85.6121 61.5354 86.3288Z" fill="#06365E"/>
<path d="M61.4911 86.0506C61.6666 86.7088 61.3741 87.2938 60.8476 87.3377C60.321 87.3816 59.7506 86.8843 59.5751 86.2115C59.3996 85.5534 59.6921 84.9683 60.2187 84.9244C60.7452 84.8806 61.3156 85.3778 61.4911 86.0506Z" fill="url(#paint19_linear)"/>
<path d="M60.6284 87.4857C60.1019 87.5296 59.5315 87.0323 59.356 86.3595C59.2536 85.9646 59.3121 85.6136 59.4876 85.3796C59.5169 85.3357 59.5461 85.3064 59.5754 85.2772C59.6046 85.2479 59.6339 85.2333 59.6631 85.2041C59.7363 85.1602 59.8094 85.1163 59.9118 85.1017C59.941 85.087 59.9849 85.087 60.0141 85.087C60.5407 85.0432 61.1111 85.5404 61.2866 86.2132C61.4475 86.8568 61.155 87.4272 60.6284 87.4857Z" fill="url(#paint20_linear)"/>
<path opacity="0.18" d="M43.7501 74.7302C43.8525 75.4176 43.4868 76.222 42.9164 76.2659C42.3606 76.3097 41.761 75.7832 41.5855 75.0812C41.41 74.3791 41.7025 73.6917 42.2583 73.6479C42.814 73.604 43.6331 74.0135 43.7501 74.7302Z" fill="#06365E"/>
<path d="M43.7058 74.452C43.8813 75.1102 43.5888 75.6952 43.0622 75.7391C42.5357 75.7829 41.9653 75.2857 41.7898 74.6129C41.6143 73.9547 41.9068 73.3697 42.4333 73.3258C42.9599 73.2819 43.5303 73.7792 43.7058 74.452Z" fill="url(#paint21_linear)"/>
<path d="M42.8431 75.8861C42.3166 75.9299 41.7462 75.4327 41.5706 74.7599C41.4683 74.365 41.5268 74.014 41.7023 73.7799C41.7315 73.7361 41.7608 73.7068 41.79 73.6776C41.8193 73.6483 41.8485 73.6337 41.8778 73.6044C41.9509 73.5606 42.024 73.5167 42.1264 73.5021C42.1557 73.4874 42.1995 73.4874 42.2288 73.4874C42.7553 73.4436 43.3257 73.9408 43.5012 74.6136C43.6621 75.2572 43.3696 75.8422 42.8431 75.8861Z" fill="url(#paint22_linear)"/>
<path opacity="0.35" d="M34.3163 101.465C34.4187 102.152 34.053 102.957 33.4826 103C32.9269 103.044 32.3272 102.518 32.1517 101.816C31.9762 101.114 32.2687 100.426 32.8245 100.382C33.3803 100.339 34.1993 100.763 34.3163 101.465Z" fill="#06365E"/>
<path d="M34.272 101.187C34.4475 101.845 34.155 102.43 33.6285 102.474C33.1019 102.517 32.5315 102.02 32.356 101.347C32.1805 100.689 32.473 100.104 32.9996 100.06C33.5261 100.016 34.0965 100.528 34.272 101.187Z" fill="url(#paint23_linear)"/>
<path d="M33.4089 102.621C32.8824 102.665 32.312 102.168 32.1365 101.495C32.0341 101.1 32.0926 100.749 32.2681 100.515C32.2974 100.471 32.3266 100.442 32.3559 100.413C32.3851 100.384 32.4144 100.369 32.4436 100.34C32.5168 100.296 32.5899 100.252 32.6923 100.237C32.7215 100.223 32.7654 100.223 32.7947 100.223C33.3212 100.179 33.8916 100.676 34.0671 101.349C34.228 102.007 33.9355 102.577 33.4089 102.621Z" fill="url(#paint24_linear)"/>
<path opacity="0.18" d="M16.0196 89.8811C16.1219 90.5685 15.7563 91.3729 15.1859 91.4168C14.6301 91.4607 14.0304 90.9341 13.8549 90.2321C13.6794 89.53 13.9719 88.8426 14.5277 88.7988C15.0835 88.7549 15.9025 89.179 16.0196 89.8811Z" fill="#06365E"/>
<path d="M15.9752 89.6029C16.1507 90.2611 15.8582 90.8461 15.3316 90.89C14.8051 90.9339 14.2347 90.4366 14.0592 89.7638C13.8837 89.1057 14.1762 88.5206 14.7027 88.4767C15.2293 88.4329 15.7997 88.9448 15.9752 89.6029Z" fill="url(#paint25_linear)"/>
<path d="M15.1125 91.0372C14.586 91.0811 14.0156 90.5838 13.8401 89.911C13.7377 89.5161 13.7962 89.1651 13.9717 88.9311C14.0009 88.8872 14.0302 88.8579 14.0594 88.8287C14.0887 88.7994 14.1179 88.7848 14.1472 88.7556C14.2203 88.7117 14.2934 88.6678 14.3958 88.6532C14.4251 88.6386 14.469 88.6386 14.4982 88.6386C15.0247 88.5947 15.5951 89.0919 15.7707 89.7647C15.9315 90.4229 15.639 90.9933 15.1125 91.0372Z" fill="url(#paint26_linear)"/>
<path opacity="0.35" d="M61.1393 118.342C61.2417 119.03 60.876 119.834 60.3056 119.878C59.7499 119.922 59.1502 119.396 58.9747 118.694C58.7992 117.991 59.0917 117.304 59.6475 117.26C60.2033 117.216 61.0369 117.64 61.1393 118.342Z" fill="#06365E"/>
<path d="M61.095 118.065C61.2705 118.723 60.978 119.308 60.4515 119.352C59.9249 119.396 59.3545 118.899 59.179 118.226C59.0035 117.553 59.296 116.983 59.8225 116.939C60.3637 116.909 60.9341 117.407 61.095 118.065Z" fill="url(#paint27_linear)"/>
<path d="M60.2467 119.499C59.7202 119.542 59.1498 119.045 58.9743 118.372C58.8719 117.978 58.9304 117.627 59.1059 117.392C59.1352 117.349 59.1644 117.319 59.1937 117.29C59.2229 117.261 59.2522 117.246 59.2814 117.217C59.3545 117.173 59.4277 117.129 59.53 117.115C59.5593 117.1 59.6032 117.1 59.6324 117.1C60.159 117.056 60.7294 117.553 60.9049 118.226C61.0658 118.884 60.7732 119.455 60.2467 119.499Z" fill="url(#paint28_linear)"/>
<path opacity="0.18" d="M43.354 106.76C43.4563 107.447 43.0907 108.251 42.5203 108.295C41.9645 108.339 41.3649 107.813 41.1894 107.111C41.0138 106.409 41.3064 105.721 41.8621 105.677C42.4179 105.619 43.2516 106.043 43.354 106.76Z" fill="#06365E"/>
<path d="M43.3097 106.468C43.4852 107.126 43.1926 107.711 42.6661 107.755C42.1396 107.799 41.5692 107.301 41.3937 106.629C41.2182 105.97 41.5107 105.385 42.0372 105.341C42.5637 105.298 43.1488 105.81 43.3097 106.468Z" fill="url(#paint29_linear)"/>
<path d="M42.4622 107.903C41.9357 107.946 41.3653 107.449 41.1898 106.776C41.0874 106.381 41.1459 106.03 41.3214 105.796C41.3507 105.753 41.3799 105.723 41.4092 105.694C41.4384 105.665 41.4677 105.65 41.4969 105.621C41.5701 105.577 41.6432 105.533 41.7456 105.519C41.7748 105.504 41.8187 105.504 41.8479 105.504C42.3745 105.46 42.9449 105.957 43.1204 106.63C43.2813 107.288 42.9888 107.859 42.4622 107.903Z" fill="url(#paint30_linear)"/>
<path d="M134.21 32.411L6 32.762L6.0585 36.8134C6.07313 38.1151 6.76054 39.2997 7.85747 39.9725L60.481 74.27C65.1028 77.0635 70.9092 77.0635 75.5309 74.27L132.103 40.148C133.464 39.329 134.283 37.8518 134.268 36.2576L134.253 34.1369L134.239 32.8644V32.7328L134.21 32.411Z" fill="url(#paint31_linear)"/>
<path d="M132.805 35.3208L76.1449 68.3166C71.5378 71.0077 65.8629 71.0662 61.1973 68.4629L7.06733 34.5457C5.5755 33.7266 5.67788 31.5474 7.22821 30.86L69.7242 3.4074C73.6585 1.50604 77.8415 1.54992 81.337 3.20263L132.439 30.1287C134.633 31.1964 134.867 34.1069 132.805 35.3208Z" fill="url(#paint32_linear)"/>
<path d="M132.805 33.3493L76.1449 66.345C71.5378 69.0362 65.863 69.0947 61.1974 66.4913L7.06739 32.5741C5.57556 31.7551 5.67794 29.5758 7.22827 28.8884L69.7242 1.43584C73.6586 -0.465513 77.8415 -0.421636 81.3371 1.23108L132.44 28.1571C134.633 29.2248 134.867 32.1353 132.805 33.3493Z" fill="url(#paint33_linear)"/>
<defs>
<linearGradient id="paint0_linear" x1="4.93714" y1="85.222" x2="125.877" y2="85.222" gradientUnits="userSpaceOnUse">
<stop stop-color="#475375"/>
<stop offset="0.483607" stop-color="#2E364F"/>
<stop offset="0.532513" stop-color="#2E374F"/>
<stop offset="0.621437" stop-color="#313449"/>
<stop offset="1" stop-color="#2D3146"/>
</linearGradient>
<linearGradient id="paint1_linear" x1="13.1322" y1="56.0075" x2="36.4133" y2="56.0941" gradientUnits="userSpaceOnUse">
<stop offset="1" stop-color="#2CD0CA"/>
</linearGradient>
<linearGradient id="paint2_linear" x1="40.1849" y1="72.7709" x2="63.4661" y2="72.8574" gradientUnits="userSpaceOnUse">
<stop offset="1" stop-color="#2DCBC6"/>
</linearGradient>
<linearGradient id="paint3_linear" x1="13.2185" y1="72.0621" x2="36.4997" y2="72.1486" gradientUnits="userSpaceOnUse">
<stop offset="1" stop-color="#2CCFC8"/>
</linearGradient>
<linearGradient id="paint4_linear" x1="40.2722" y1="88.8261" x2="63.5533" y2="88.9126" gradientUnits="userSpaceOnUse">
<stop offset="1" stop-color="#2CCFC9"/>
</linearGradient>
<linearGradient id="paint5_linear" x1="12.9153" y1="88.1144" x2="36.1965" y2="88.2009" gradientUnits="userSpaceOnUse">
<stop offset="1" stop-color="#2CD0C9"/>
</linearGradient>
<linearGradient id="paint6_linear" x1="39.9683" y1="104.879" x2="63.2495" y2="104.966" gradientUnits="userSpaceOnUse">
<stop offset="1" stop-color="#2CD1CA"/>
</linearGradient>
<linearGradient id="paint7_linear" x1="33.4537" y1="84.0517" x2="33.8784" y2="85.9957" gradientUnits="userSpaceOnUse">
<stop stop-color="#A8B5C5"/>
<stop offset="0.0737964" stop-color="#C0CCD8"/>
<stop offset="0.1476" stop-color="#D0DBE5"/>
<stop offset="0.2037" stop-color="#D6E1EA"/>
<stop offset="0.2248" stop-color="#D0DBE5"/>
<stop offset="0.3033" stop-color="#BECAD7"/>
<stop offset="0.398" stop-color="#B1BECD"/>
<stop offset="0.5241" stop-color="#AAB7C7"/>
<stop offset="0.8097" stop-color="#A8B5C5"/>
</linearGradient>
<linearGradient id="paint8_linear" x1="32.3564" y1="86.2258" x2="36.1927" y2="82.7148" gradientUnits="userSpaceOnUse">
<stop offset="0.0403732" stop-color="#ABB6C3"/>
<stop offset="0.0956988" stop-color="#B3BDC8"/>
<stop offset="0.18" stop-color="#C8CFD8"/>
<stop offset="0.2822" stop-color="#EAEDF0"/>
<stop offset="0.3107" stop-color="#F5F7F8"/>
<stop offset="0.4209" stop-color="#E6ECF1"/>
<stop offset="0.5185" stop-color="#DFE6EE"/>
</linearGradient>
<linearGradient id="paint9_linear" x1="15.157" y1="72.4681" x2="15.5818" y2="74.4121" gradientUnits="userSpaceOnUse">
<stop stop-color="#A8B5C5"/>
<stop offset="0.0737964" stop-color="#C0CCD8"/>
<stop offset="0.1476" stop-color="#D0DBE5"/>
<stop offset="0.2037" stop-color="#D6E1EA"/>
<stop offset="0.2248" stop-color="#D0DBE5"/>
<stop offset="0.3033" stop-color="#BECAD7"/>
<stop offset="0.398" stop-color="#B1BECD"/>
<stop offset="0.5241" stop-color="#AAB7C7"/>
<stop offset="0.8097" stop-color="#A8B5C5"/>
</linearGradient>
<linearGradient id="paint10_linear" x1="14.0588" y1="74.6413" x2="17.8951" y2="71.1303" gradientUnits="userSpaceOnUse">
<stop offset="0.0403732" stop-color="#ABB6C3"/>
<stop offset="0.0956988" stop-color="#B3BDC8"/>
<stop offset="0.18" stop-color="#C8CFD8"/>
<stop offset="0.2822" stop-color="#EAEDF0"/>
<stop offset="0.3107" stop-color="#F5F7F8"/>
<stop offset="0.4209" stop-color="#E6ECF1"/>
<stop offset="0.5185" stop-color="#DFE6EE"/>
</linearGradient>
<linearGradient id="paint11_linear" x1="60.2872" y1="100.93" x2="60.7119" y2="102.874" gradientUnits="userSpaceOnUse">
<stop stop-color="#A8B5C5"/>
<stop offset="0.0737964" stop-color="#C0CCD8"/>
<stop offset="0.1476" stop-color="#D0DBE5"/>
<stop offset="0.2037" stop-color="#D6E1EA"/>
<stop offset="0.2248" stop-color="#D0DBE5"/>
<stop offset="0.3033" stop-color="#BECAD7"/>
<stop offset="0.398" stop-color="#B1BECD"/>
<stop offset="0.5241" stop-color="#AAB7C7"/>
<stop offset="0.8097" stop-color="#A8B5C5"/>
</linearGradient>
<linearGradient id="paint12_linear" x1="59.1894" y1="103.105" x2="63.0256" y2="99.5936" gradientUnits="userSpaceOnUse">
<stop offset="0.0403732" stop-color="#ABB6C3"/>
<stop offset="0.0956988" stop-color="#B3BDC8"/>
<stop offset="0.18" stop-color="#C8CFD8"/>
<stop offset="0.2822" stop-color="#EAEDF0"/>
<stop offset="0.3107" stop-color="#F5F7F8"/>
<stop offset="0.4209" stop-color="#E6ECF1"/>
<stop offset="0.5185" stop-color="#DFE6EE"/>
</linearGradient>
<linearGradient id="paint13_linear" x1="42.5012" y1="89.3355" x2="42.9259" y2="91.2794" gradientUnits="userSpaceOnUse">
<stop stop-color="#A8B5C5"/>
<stop offset="0.0737964" stop-color="#C0CCD8"/>
<stop offset="0.1476" stop-color="#D0DBE5"/>
<stop offset="0.2037" stop-color="#D6E1EA"/>
<stop offset="0.2248" stop-color="#D0DBE5"/>
<stop offset="0.3033" stop-color="#BECAD7"/>
<stop offset="0.398" stop-color="#B1BECD"/>
<stop offset="0.5241" stop-color="#AAB7C7"/>
<stop offset="0.8097" stop-color="#A8B5C5"/>
</linearGradient>
<linearGradient id="paint14_linear" x1="41.4034" y1="91.5099" x2="45.2397" y2="87.9989" gradientUnits="userSpaceOnUse">
<stop offset="0.0403732" stop-color="#ABB6C3"/>
<stop offset="0.0956988" stop-color="#B3BDC8"/>
<stop offset="0.18" stop-color="#C8CFD8"/>
<stop offset="0.2822" stop-color="#EAEDF0"/>
<stop offset="0.3107" stop-color="#F5F7F8"/>
<stop offset="0.4209" stop-color="#E6ECF1"/>
<stop offset="0.5185" stop-color="#DFE6EE"/>
</linearGradient>
<linearGradient id="paint15_linear" x1="33.3174" y1="68.2656" x2="33.7421" y2="70.2095" gradientUnits="userSpaceOnUse">
<stop stop-color="#A8B5C5"/>
<stop offset="0.0737964" stop-color="#C0CCD8"/>
<stop offset="0.1476" stop-color="#D0DBE5"/>
<stop offset="0.2037" stop-color="#D6E1EA"/>
<stop offset="0.2248" stop-color="#D0DBE5"/>
<stop offset="0.3033" stop-color="#BECAD7"/>
<stop offset="0.398" stop-color="#B1BECD"/>
<stop offset="0.5241" stop-color="#AAB7C7"/>
<stop offset="0.8097" stop-color="#A8B5C5"/>
</linearGradient>
<linearGradient id="paint16_linear" x1="32.2185" y1="70.438" x2="36.0548" y2="66.927" gradientUnits="userSpaceOnUse">
<stop offset="0.0403732" stop-color="#ABB6C3"/>
<stop offset="0.0956988" stop-color="#B3BDC8"/>
<stop offset="0.18" stop-color="#C8CFD8"/>
<stop offset="0.2822" stop-color="#EAEDF0"/>
<stop offset="0.3107" stop-color="#F5F7F8"/>
<stop offset="0.4209" stop-color="#E6ECF1"/>
<stop offset="0.5185" stop-color="#DFE6EE"/>
</linearGradient>
<linearGradient id="paint17_linear" x1="15.0208" y1="56.6827" x2="15.4455" y2="58.6266" gradientUnits="userSpaceOnUse">
<stop stop-color="#A8B5C5"/>
<stop offset="0.0737964" stop-color="#C0CCD8"/>
<stop offset="0.1476" stop-color="#D0DBE5"/>
<stop offset="0.2037" stop-color="#D6E1EA"/>
<stop offset="0.2248" stop-color="#D0DBE5"/>
<stop offset="0.3033" stop-color="#BECAD7"/>
<stop offset="0.398" stop-color="#B1BECD"/>
<stop offset="0.5241" stop-color="#AAB7C7"/>
<stop offset="0.8097" stop-color="#A8B5C5"/>
</linearGradient>
<linearGradient id="paint18_linear" x1="13.9218" y1="58.8547" x2="17.7581" y2="55.3437" gradientUnits="userSpaceOnUse">
<stop offset="0.0403732" stop-color="#ABB6C3"/>
<stop offset="0.0956988" stop-color="#B3BDC8"/>
<stop offset="0.18" stop-color="#C8CFD8"/>
<stop offset="0.2822" stop-color="#EAEDF0"/>
<stop offset="0.3107" stop-color="#F5F7F8"/>
<stop offset="0.4209" stop-color="#E6ECF1"/>
<stop offset="0.5185" stop-color="#DFE6EE"/>
</linearGradient>
<linearGradient id="paint19_linear" x1="60.1511" y1="85.1462" x2="60.5758" y2="87.0902" gradientUnits="userSpaceOnUse">
<stop stop-color="#A8B5C5"/>
<stop offset="0.0737964" stop-color="#C0CCD8"/>
<stop offset="0.1476" stop-color="#D0DBE5"/>
<stop offset="0.2037" stop-color="#D6E1EA"/>
<stop offset="0.2248" stop-color="#D0DBE5"/>
<stop offset="0.3033" stop-color="#BECAD7"/>
<stop offset="0.398" stop-color="#B1BECD"/>
<stop offset="0.5241" stop-color="#AAB7C7"/>
<stop offset="0.8097" stop-color="#A8B5C5"/>
</linearGradient>
<linearGradient id="paint20_linear" x1="59.0527" y1="87.3208" x2="62.889" y2="83.8098" gradientUnits="userSpaceOnUse">
<stop offset="0.0403732" stop-color="#ABB6C3"/>
<stop offset="0.0956988" stop-color="#B3BDC8"/>
<stop offset="0.18" stop-color="#C8CFD8"/>
<stop offset="0.2822" stop-color="#EAEDF0"/>
<stop offset="0.3107" stop-color="#F5F7F8"/>
<stop offset="0.4209" stop-color="#E6ECF1"/>
<stop offset="0.5185" stop-color="#DFE6EE"/>
</linearGradient>
<linearGradient id="paint21_linear" x1="42.3649" y1="73.5495" x2="42.7896" y2="75.4934" gradientUnits="userSpaceOnUse">
<stop stop-color="#A8B5C5"/>
<stop offset="0.0737964" stop-color="#C0CCD8"/>
<stop offset="0.1476" stop-color="#D0DBE5"/>
<stop offset="0.2037" stop-color="#D6E1EA"/>
<stop offset="0.2248" stop-color="#D0DBE5"/>
<stop offset="0.3033" stop-color="#BECAD7"/>
<stop offset="0.398" stop-color="#B1BECD"/>
<stop offset="0.5241" stop-color="#AAB7C7"/>
<stop offset="0.8097" stop-color="#A8B5C5"/>
</linearGradient>
<linearGradient id="paint22_linear" x1="41.2663" y1="75.7227" x2="45.1026" y2="72.2117" gradientUnits="userSpaceOnUse">
<stop offset="0.0403732" stop-color="#ABB6C3"/>
<stop offset="0.0956988" stop-color="#B3BDC8"/>
<stop offset="0.18" stop-color="#C8CFD8"/>
<stop offset="0.2822" stop-color="#EAEDF0"/>
<stop offset="0.3107" stop-color="#F5F7F8"/>
<stop offset="0.4209" stop-color="#E6ECF1"/>
<stop offset="0.5185" stop-color="#DFE6EE"/>
</linearGradient>
<linearGradient id="paint23_linear" x1="32.9318" y1="100.29" x2="33.3565" y2="102.234" gradientUnits="userSpaceOnUse">
<stop stop-color="#A8B5C5"/>
<stop offset="0.0737964" stop-color="#C0CCD8"/>
<stop offset="0.1476" stop-color="#D0DBE5"/>
<stop offset="0.2037" stop-color="#D6E1EA"/>
<stop offset="0.2248" stop-color="#D0DBE5"/>
<stop offset="0.3033" stop-color="#BECAD7"/>
<stop offset="0.398" stop-color="#B1BECD"/>
<stop offset="0.5241" stop-color="#AAB7C7"/>
<stop offset="0.8097" stop-color="#A8B5C5"/>
</linearGradient>
<linearGradient id="paint24_linear" x1="31.8344" y1="102.464" x2="35.6707" y2="98.9532" gradientUnits="userSpaceOnUse">
<stop offset="0.0403732" stop-color="#ABB6C3"/>
<stop offset="0.0956988" stop-color="#B3BDC8"/>
<stop offset="0.18" stop-color="#C8CFD8"/>
<stop offset="0.2822" stop-color="#EAEDF0"/>
<stop offset="0.3107" stop-color="#F5F7F8"/>
<stop offset="0.4209" stop-color="#E6ECF1"/>
<stop offset="0.5185" stop-color="#DFE6EE"/>
</linearGradient>
<linearGradient id="paint25_linear" x1="14.6344" y1="88.706" x2="15.0591" y2="90.65" gradientUnits="userSpaceOnUse">
<stop stop-color="#A8B5C5"/>
<stop offset="0.0737964" stop-color="#C0CCD8"/>
<stop offset="0.1476" stop-color="#D0DBE5"/>
<stop offset="0.2037" stop-color="#D6E1EA"/>
<stop offset="0.2248" stop-color="#D0DBE5"/>
<stop offset="0.3033" stop-color="#BECAD7"/>
<stop offset="0.398" stop-color="#B1BECD"/>
<stop offset="0.5241" stop-color="#AAB7C7"/>
<stop offset="0.8097" stop-color="#A8B5C5"/>
</linearGradient>
<linearGradient id="paint26_linear" x1="13.5371" y1="90.8797" x2="17.3734" y2="87.3687" gradientUnits="userSpaceOnUse">
<stop offset="0.0403732" stop-color="#ABB6C3"/>
<stop offset="0.0956988" stop-color="#B3BDC8"/>
<stop offset="0.18" stop-color="#C8CFD8"/>
<stop offset="0.2822" stop-color="#EAEDF0"/>
<stop offset="0.3107" stop-color="#F5F7F8"/>
<stop offset="0.4209" stop-color="#E6ECF1"/>
<stop offset="0.5185" stop-color="#DFE6EE"/>
</linearGradient>
<linearGradient id="paint27_linear" x1="59.7636" y1="117.169" x2="60.1883" y2="119.113" gradientUnits="userSpaceOnUse">
<stop stop-color="#A8B5C5"/>
<stop offset="0.0737964" stop-color="#C0CCD8"/>
<stop offset="0.1476" stop-color="#D0DBE5"/>
<stop offset="0.2037" stop-color="#D6E1EA"/>
<stop offset="0.2248" stop-color="#D0DBE5"/>
<stop offset="0.3033" stop-color="#BECAD7"/>
<stop offset="0.398" stop-color="#B1BECD"/>
<stop offset="0.5241" stop-color="#AAB7C7"/>
<stop offset="0.8097" stop-color="#A8B5C5"/>
</linearGradient>
<linearGradient id="paint28_linear" x1="58.6666" y1="119.343" x2="62.5028" y2="115.832" gradientUnits="userSpaceOnUse">
<stop offset="0.0403732" stop-color="#ABB6C3"/>
<stop offset="0.0956988" stop-color="#B3BDC8"/>
<stop offset="0.18" stop-color="#C8CFD8"/>
<stop offset="0.2822" stop-color="#EAEDF0"/>
<stop offset="0.3107" stop-color="#F5F7F8"/>
<stop offset="0.4209" stop-color="#E6ECF1"/>
<stop offset="0.5185" stop-color="#DFE6EE"/>
</linearGradient>
<linearGradient id="paint29_linear" x1="41.9774" y1="105.573" x2="42.4021" y2="107.517" gradientUnits="userSpaceOnUse">
<stop stop-color="#A8B5C5"/>
<stop offset="0.0737964" stop-color="#C0CCD8"/>
<stop offset="0.1476" stop-color="#D0DBE5"/>
<stop offset="0.2037" stop-color="#D6E1EA"/>
<stop offset="0.2248" stop-color="#D0DBE5"/>
<stop offset="0.3033" stop-color="#BECAD7"/>
<stop offset="0.398" stop-color="#B1BECD"/>
<stop offset="0.5241" stop-color="#AAB7C7"/>
<stop offset="0.8097" stop-color="#A8B5C5"/>
</linearGradient>
<linearGradient id="paint30_linear" x1="40.881" y1="107.748" x2="44.7173" y2="104.237" gradientUnits="userSpaceOnUse">
<stop offset="0.0403732" stop-color="#ABB6C3"/>
<stop offset="0.0956988" stop-color="#B3BDC8"/>
<stop offset="0.18" stop-color="#C8CFD8"/>
<stop offset="0.2822" stop-color="#EAEDF0"/>
<stop offset="0.3107" stop-color="#F5F7F8"/>
<stop offset="0.4209" stop-color="#E6ECF1"/>
<stop offset="0.5185" stop-color="#DFE6EE"/>
</linearGradient>
<linearGradient id="paint31_linear" x1="16.1455" y1="54.7408" x2="126.675" y2="53.7389" gradientUnits="userSpaceOnUse">
<stop stop-color="#3F4968"/>
<stop offset="0.541667" stop-color="#3D4968"/>
<stop offset="1" stop-color="#393E58"/>
</linearGradient>
<linearGradient id="paint32_linear" x1="29.1652" y1="55.2031" x2="108.52" y2="17.251" gradientUnits="userSpaceOnUse">
<stop stop-color="#4F5A77"/>
<stop offset="0.995" stop-color="#334265"/>
</linearGradient>
<linearGradient id="paint33_linear" x1="29.1653" y1="53.2315" x2="108.52" y2="15.2794" gradientUnits="userSpaceOnUse">
<stop stop-color="#637094"/>
<stop offset="0.995" stop-color="#49587E"/>
</linearGradient>
</defs>
</svg>
