<svg width="140" height="140" viewBox="0 0 140 140" fill="none" xmlns="http://www.w3.org/2000/svg">
<g clip-path="url(#clip0)">
<path d="M13.3352 31.0004L104.946 10.4724L105.038 10.8854L13.4423 31.4135L13.3352 31.0004Z" fill="white"/>
<path d="M114.981 22.1149C114.109 23.1091 112.595 23.2315 111.601 22.3596L102.927 14.8643C101.933 13.9924 101.811 12.478 102.683 11.4837C103.555 10.4895 105.069 10.3671 106.063 11.239L114.736 18.7343C115.731 19.6062 115.838 21.1206 114.981 22.1149Z" fill="url(#paint0_linear)"/>
<path d="M1.06744 68.2938L1.08273 53.8844C1.08273 53.8844 0.807395 42.3813 11.8056 42.7637L11.3926 72.2862L1.06744 68.2938Z" fill="url(#paint1_linear)"/>
<path opacity="0.62" d="M6.43641 42.52C6.43641 42.52 2.71934 49.9083 12.7539 50.4437C22.7885 50.979 6.43641 42.52 6.43641 42.52Z" fill="#4F5556"/>
<path d="M1.93959 34.7195C1.93959 34.6583 1.95489 34.6124 1.95489 34.5513C2.07726 34.1841 2.3832 33.5111 2.71972 33.4346C5.56489 32.6851 14.6205 30.6812 16.2266 30.3294C16.5631 30.2835 22.0852 35.5914 23.9667 37.5647C24.395 38.0083 25.6799 39.2014 25.2516 39.4156L14.1922 42.1843C13.3814 42.3831 12.8155 43.1173 12.8155 43.9587V44.6623C12.8155 46.0849 11.2552 46.9568 10.0315 46.2226C7.40048 44.6011 3.2551 41.9242 1.97019 38.1766C1.89371 37.9624 1.909 37.1517 1.909 36.601L1.93959 34.7195Z" fill="url(#paint2_linear)"/>
<path d="M106.51 11.2648L115.62 18.8939L95.6092 26.4537L12.8961 43.7967V79.3723C13.489 94.9365 15.423 125.644 14 126C12.577 126.356 11.7965 126.296 11.5 126C9.27653 124.221 3.4998 119.5 1.9998 118.5C0.325338 117.384 -0.000198364 117 -0.000198364 116.5C0.296264 89.9666 0.889384 35.5254 0.889384 34.4582C0.889384 33.3909 2.07523 32.8276 2.66816 32.6794L103.077 10.4263C104.289 10.1575 105.558 10.4673 106.51 11.2648Z" fill="url(#paint3_linear)"/>
<path d="M0.567568 60L0 116.086C0 116.568 0.206388 117.015 0.567568 117.324L11.5 126C12.1708 126.585 12.898 126.154 13.5 125.5L34.1573 101.811C34.656 101.26 34.7076 100.435 34.2949 99.833L12.4177 65.8133C12.3489 65.7273 12.3317 65.9165 12.2973 65.8133" fill="url(#paint4_linear)"/>
<path d="M113.833 98.1848L11.6062 125.826C10.719 125.826 10 125.107 10 124.22L10.0459 42.2757C10.0459 41.3885 10.7649 40.6696 11.6521 40.6696L113.833 18C114.721 18 115.439 18.7189 115.439 19.6061V96.5633C115.439 97.4505 114.721 98.1848 113.833 98.1848Z" fill="url(#paint5_linear)"/>
<path d="M114.874 98.7485L12.6471 126.389C11.7598 126.389 11.0409 125.67 11.0409 124.783L11.0868 42.8394C11.0868 41.9522 11.8057 41.2333 12.6929 41.2333L114.874 18.5637C115.761 18.5637 116.48 19.2827 116.48 20.1699V97.127C116.48 98.0142 115.761 98.7485 114.874 98.7485Z" fill="url(#paint6_linear)"/>
<path d="M9.8058 99.4416C9.8058 99.5911 9.64767 99.6878 9.51458 99.6196L0.608825 95.0553C0.542047 95.021 0.500046 94.9523 0.500046 94.8773V64.834C0.500046 64.6828 0.661462 64.5862 0.794703 64.6578L9.70046 69.4426C9.76533 69.4775 9.8058 69.5451 9.8058 69.6188V99.4416Z" fill="#2CD8CF"/>
<path d="M9.8058 99.4416C9.8058 99.5911 9.64767 99.6878 9.51458 99.6196L0.608825 95.0553C0.542047 95.021 0.500046 94.9523 0.500046 94.8773V64.834C0.500046 64.6828 0.661462 64.5862 0.794703 64.6578L9.70046 69.4426C9.76533 69.4775 9.8058 69.5451 9.8058 69.6188V99.4416Z" fill="url(#paint7_linear)"/>
<path d="M9.65294 71.3278L1.00001 66.8285V65.5588L9.65294 70.0582V71.3278Z" fill="#2CD8CF"/>
<path d="M9.65294 73.8514L1.00001 69.3521V68.0672L9.65294 72.5665V73.8514Z" fill="#2CD8CF"/>
<path d="M9.65294 76.3598L1.00001 71.8605V70.5755L9.65294 75.0749V76.3598Z" fill="#2CD8CF"/>
<path d="M9.65294 78.8837L1.00001 74.3844V73.0995L9.65294 77.5988V78.8837Z" fill="#2CD8CF"/>
<path d="M9.65294 81.3921L1.00001 76.8928V75.6079L9.65294 80.1072V81.3921Z" fill="#2CD8CF"/>
<path d="M9.65294 83.9008L1.00001 79.4015V78.1319L9.65294 82.6312V83.9008Z" fill="#2CD8CF"/>
<path d="M9.50007 86.4244L0.847145 81.9251V80.6402L9.50007 85.1395V86.4244Z" fill="#2CD8CF"/>
<path d="M9.50007 88.9328L0.847145 84.4335V83.1486L9.50007 87.6479V88.9328Z" fill="#2CD8CF"/>
<path d="M9.50007 91.4415L0.847145 86.9422V85.6726L9.50007 90.1719V91.4415Z" fill="#2CD8CF"/>
<path d="M9.50007 93.9651L0.847145 89.4658V88.1809L9.50007 92.6802V93.9651Z" fill="#2CD8CF"/>
<path d="M9.50007 96.4752L0.847145 91.9759V90.691L9.50007 95.1903V96.4752Z" fill="#2CD8CF"/>
<path d="M9.50007 98.9992L0.847145 94.4999V93.215L9.50007 97.7143V98.9992Z" fill="#2CD8CF"/>
<path opacity="0.7" d="M84.1554 85.8097C76.5767 105.744 56.2585 116.632 38.7913 110.107C21.3061 103.581 13.2762 82.1446 20.855 62.192C28.4337 42.2394 48.7519 31.3692 66.2191 37.8949C83.6862 44.4206 91.7161 65.8571 84.1554 85.8097Z" fill="url(#paint8_linear)"/>
<path d="M79.8758 84.1044C73.4513 101.16 56.2273 110.476 41.4202 104.892C26.5978 99.3092 19.7908 80.9686 26.2154 63.8976C32.6399 46.8266 49.8639 37.5263 64.671 43.1095C79.4781 48.6928 86.2851 67.0334 79.8758 84.1044Z" stroke="url(#paint9_linear)" stroke-width="9" stroke-miterlimit="10"/>
<path d="M66.0685 79.61C63.1928 87.2583 55.468 91.4343 48.814 88.9409C42.1752 86.4323 39.1159 78.2027 41.9917 70.5544C44.8674 62.9061 52.5922 58.7301 59.2462 61.2235C65.9003 63.7168 68.9596 71.9617 66.0685 79.61Z" fill="url(#paint10_linear)" stroke="url(#paint11_linear)" stroke-width="2" stroke-miterlimit="10"/>
<path d="M113.513 24.9119C114.442 24.9119 115.195 24.0901 115.195 23.0763C115.195 22.0625 114.442 21.2407 113.513 21.2407C112.583 21.2407 111.83 22.0625 111.83 23.0763C111.83 24.0901 112.583 24.9119 113.513 24.9119Z" fill="#1E262D"/>
<path d="M114.782 21.563L113.742 22.6949L114.844 23.9034C115.073 23.5974 115.195 23.1997 115.195 22.7714C115.211 22.2972 115.042 21.8842 114.782 21.563Z" fill="#4A5371"/>
<path d="M113.513 22.4498L114.553 21.3179C114.262 21.0731 113.91 20.9202 113.513 20.9202C113.115 20.9202 112.763 21.0731 112.472 21.3179L113.513 22.4498Z" fill="#4A5371"/>
<path d="M113.513 22.9404L112.396 24.1489C112.687 24.4395 113.084 24.6078 113.513 24.6078C113.941 24.6078 114.323 24.4395 114.629 24.1489L113.513 22.9404Z" fill="#4A5371"/>
<path d="M113.299 22.6949L112.258 21.563C111.998 21.8842 111.83 22.3125 111.83 22.7714C111.83 23.1997 111.968 23.5974 112.182 23.9034L113.299 22.6949Z" fill="#4A5371"/>
<path d="M113.513 97.0982C114.442 97.0982 115.195 96.2764 115.195 95.2626C115.195 94.2488 114.442 93.427 113.513 93.427C112.583 93.427 111.83 94.2488 111.83 95.2626C111.83 96.2764 112.583 97.0982 113.513 97.0982Z" fill="#1E262D"/>
<path d="M114.782 93.7488L113.742 94.8807L114.844 96.0891C115.073 95.7832 115.195 95.3855 115.195 94.9572C115.211 94.4983 115.042 94.07 114.782 93.7488Z" fill="#2CD8CF"/>
<path d="M113.513 94.6512L114.553 93.5193C114.262 93.2746 113.91 93.1216 113.513 93.1216C113.115 93.1216 112.763 93.2746 112.472 93.5193L113.513 94.6512Z" fill="#2CD8CF"/>
<path d="M113.513 95.1262L112.396 96.3347C112.687 96.6253 113.084 96.7936 113.513 96.7936C113.941 96.7936 114.323 96.6253 114.629 96.3347L113.513 95.1262Z" fill="#2CD8CF"/>
<path d="M113.299 94.8807L112.258 93.7488C111.998 94.07 111.83 94.4983 111.83 94.9572C111.83 95.3855 111.968 95.7832 112.182 96.0891L113.299 94.8807Z" fill="#2CD8CF"/>
<path d="M18.1233 46.7417C19.0526 46.7417 19.8059 45.9199 19.8059 44.9061C19.8059 43.8924 19.0526 43.0706 18.1233 43.0706C17.194 43.0706 16.4406 43.8924 16.4406 44.9061C16.4406 45.9199 17.194 46.7417 18.1233 46.7417Z" fill="#1E262D"/>
<path d="M19.3779 43.3914L18.3377 44.5233L19.439 45.7317C19.6685 45.4258 19.7909 45.0281 19.7909 44.5998C19.8062 44.1256 19.6379 43.7126 19.3779 43.3914Z" fill="#4A5371"/>
<path d="M18.1237 44.2782L19.1639 43.1462C18.8732 42.9015 18.5214 42.7485 18.1237 42.7485C17.726 42.7485 17.3742 42.9015 17.0835 43.1462L18.1237 44.2782Z" fill="#4A5371"/>
<path d="M18.1237 44.7688L17.0071 45.9772C17.2977 46.2679 17.6954 46.4361 18.1237 46.4361C18.552 46.4361 18.9345 46.2679 19.2404 45.9772L18.1237 44.7688Z" fill="#4A5371"/>
<path d="M17.8941 44.5233L16.8539 43.3914C16.5939 43.7126 16.4256 44.1409 16.4256 44.5998C16.4256 45.0281 16.5633 45.4258 16.7774 45.7317L17.8941 44.5233Z" fill="#4A5371"/>
<path d="M18.1233 123.561C19.0526 123.561 19.8059 122.739 19.8059 121.725C19.8059 120.712 19.0526 119.89 18.1233 119.89C17.194 119.89 16.4406 120.712 16.4406 121.725C16.4406 122.739 17.194 123.561 18.1233 123.561Z" fill="#1E262D"/>
<path d="M19.3779 120.211L18.3377 121.343L19.439 122.552C19.6685 122.246 19.7909 121.848 19.7909 121.42C19.8062 120.945 19.6379 120.532 19.3779 120.211Z" fill="#4A5371"/>
<path d="M18.1237 121.098L19.1639 119.966C18.8732 119.721 18.5214 119.568 18.1237 119.568C17.726 119.568 17.3742 119.721 17.0835 119.966L18.1237 121.098Z" fill="#4A5371"/>
<path d="M18.1237 121.589L17.0071 122.797C17.2977 123.088 17.6954 123.256 18.1237 123.256C18.552 123.256 18.9345 123.088 19.2404 122.797L18.1237 121.589Z" fill="#4A5371"/>
<path d="M17.8941 121.343L16.8539 120.211C16.5939 120.532 16.4256 120.961 16.4256 121.42C16.4256 121.848 16.5633 122.246 16.7774 122.552L17.8941 121.343Z" fill="#4A5371"/>
<path d="M139.855 94.6435C139.855 114.781 123.47 131.224 103.279 131.224C94.1084 131.224 85.6986 127.819 79.2463 122.205C71.5615 115.469 66.7041 105.618 66.7041 94.6435C66.7041 94.0278 66.7041 93.4483 66.7403 92.8689C66.7403 92.724 66.7403 92.5429 66.7766 92.398C66.8128 91.7823 66.8491 91.1304 66.9578 90.5147C67.1028 89.3557 67.2841 88.233 67.5016 87.074C67.5741 86.7118 67.6828 86.3134 67.7553 85.9512C67.8641 85.4804 68.0091 85.0096 68.1178 84.5749C68.6253 82.8003 69.2778 81.098 70.0028 79.4682C70.2927 78.8525 70.619 78.2368 70.909 77.6211C70.909 77.5849 70.9452 77.5487 70.9815 77.5124C71.0177 77.44 71.054 77.3314 71.1265 77.2589C71.1265 77.2227 71.1627 77.2227 71.1627 77.1865C71.7427 76.1362 72.3227 75.1583 73.0114 74.1804C73.9177 72.8403 74.8964 71.5727 75.9838 70.3775C76.2738 70.0515 76.5638 69.7256 76.8538 69.3996C77.2888 68.9288 77.7601 68.4579 78.2313 68.0233C78.7388 67.5525 79.2825 67.0817 79.8263 66.6108C80.9862 65.6329 82.2187 64.7275 83.5237 63.8945C83.5962 63.8583 83.6687 63.822 83.7412 63.7496C85.3724 62.6993 87.1123 61.7938 88.8885 61.0333C89.0698 60.9608 89.251 60.8884 89.396 60.816C89.4323 60.816 89.4685 60.7797 89.5048 60.7797C90.6285 60.3451 91.7884 59.9105 92.9484 59.5845C93.4922 59.4035 94.0359 59.2586 94.6159 59.1499C94.8334 59.0775 95.0509 59.0413 95.3046 58.9688C97.5158 58.4618 99.7995 58.172 102.192 58.0996C102.373 58.0996 102.554 58.0996 102.772 58.0996C102.953 58.0996 103.134 58.0996 103.316 58.0996C113.139 58.0996 122.056 61.9749 128.618 68.2769C135.541 74.9047 139.855 84.2852 139.855 94.6435Z" fill="url(#paint12_radial)"/>
<path d="M87.8736 119.308V119.09L87.8011 118.837L87.8736 118.764V118.619L87.8011 118.511V118.33L87.6561 118.257L87.5836 118.366V118.547L87.4024 118.764H87.3661L87.2936 118.909L87.3661 118.982L87.2211 119.126V119.308L86.9674 119.561L86.8949 119.489L86.7499 119.634L86.6774 119.815L86.4237 119.923L86.2424 120.141H85.9887L85.9162 120.068L85.8799 120.141H85.5537L85.4449 120.249L85.3724 120.177L85.2637 120.249H85.1912L85.2637 120.322L85.0824 120.503L84.9012 120.72L85.0462 120.901L84.9374 120.974L84.9737 121.01V121.191L85.0462 121.481L85.1187 121.626V121.698V121.77V121.843L85.0099 122.169L84.9374 122.241L84.865 122.495H84.8287L84.7562 122.567V122.748L84.6112 122.893L84.5025 122.929V123.074L84.3575 123.219V123.509L84.5387 123.726L84.5025 123.799H84.575V124.088L84.4662 124.161V124.451L84.5387 124.523L84.6112 124.595L84.6837 124.704L84.7925 124.668L84.865 124.776L85.0099 124.921H85.1912L85.2637 124.885L85.3362 124.74L85.7712 124.704H85.8799L85.9524 124.668L86.0249 124.595L86.0974 124.487L86.1699 124.342V124.197L86.2424 124.125L86.0974 123.98L86.3149 123.835V123.581H86.4962V123.545L86.5687 123.219L86.6412 123.038V122.966L86.7137 122.712L86.8949 122.531L87.0399 122.06L87.1124 121.951V121.807L87.1849 121.626L87.2211 121.517L87.3299 121.336L87.4024 121.082L87.4749 120.865L87.5111 120.793L87.5474 120.72L87.4749 120.648V120.394L87.6561 120.249V120.177L87.7286 120.104L87.5836 119.959L87.6561 119.887V119.416H88.0186L88.0911 119.489L87.8736 119.308ZM79.4276 122.35L79.5001 122.422V122.386C79.4638 122.386 79.4276 122.35 79.4276 122.35ZM79.5001 122.422L79.4638 122.531L79.5363 122.459L79.5001 122.422ZM88.7436 105.979L88.6349 105.871L88.7073 105.69L88.5986 105.581L88.6711 105.509H88.4174L88.3449 105.581L88.1999 105.653L88.0549 105.798L87.9824 105.726L87.8374 105.798L87.4749 105.871H87.3299L87.2574 105.798H87.1849L87.0399 105.871H86.8949L86.7499 105.943L86.6412 105.871H86.6049L86.2787 106.088L86.0612 106.16H85.9887H85.6624L85.5174 106.233H85.4087L85.3362 106.305L85.2637 106.378L85.0462 106.45L84.8287 106.378L84.7562 106.305H84.6837L84.6112 106.124L84.285 105.762L84.2125 105.798H84.1037L83.6687 105.364H84.14L84.2125 105.255H84.285L84.3212 105.219V105.146L84.285 105.11L84.1037 105.038H83.9587L83.8137 104.676L83.7412 104.603L83.6687 104.458H83.5962L83.4512 104.313L83.3425 104.241L83.1975 104.096L83.0162 103.915L82.8713 103.842L82.7988 103.77L82.7263 103.842L82.6538 103.77L82.5813 103.842L82.5088 103.77L82.0738 103.589L82.0013 103.408L81.965 103.335L81.8925 103.263V103.191H81.82L81.675 102.647L81.4938 102.104L81.095 101.706H81.3125V101.525L81.1675 101.452L80.9863 101.38L80.8051 101.126L80.7326 100.8L80.7688 100.619L80.7326 100.438L80.5876 100.003V99.7861V99.7136L80.5151 99.6412L80.4426 99.5688V99.4963L80.3701 99.4239V99.3153H80.3338L80.1163 99.1342L79.9351 99.0617V98.9893H79.8263L79.6088 98.8082L79.4276 98.3736L79.5001 98.3011L79.4638 98.2649V98.1925L79.3913 98.1201L79.3188 97.939L79.1376 97.7217L78.9926 97.6492L78.9201 97.4681L78.5576 96.9249V96.7438L78.5214 96.6713L78.4851 96.4903L78.4126 96.4178V96.3816L78.2314 96.2005V95.9832L78.2676 95.9108L77.9776 95.621L77.9051 95.4762L77.6876 95.1864V95.0778L77.5789 94.9329V94.7156L77.7964 94.462L77.8326 94.4983L77.7601 94.281L77.6514 94.2085L77.5789 94.0636H77.2164L77.0352 94.1361L76.9627 94.0636L76.8902 94.1361L76.7452 94.2085L76.5639 94.3896H76.2739L76.0927 94.281H76.1289L75.9839 94.2085L75.9114 94.281L75.6939 94.0999L75.5489 94.0636L75.1139 93.9912H74.969L74.7877 94.1723L74.6427 93.8101L74.5702 93.7377L74.4977 93.7739L74.0627 93.7015L74.0265 93.6652H73.954V93.8101L73.5915 93.5928H73.519L73.3377 93.5566L73.3015 93.5928L73.1203 93.5204L73.0115 93.5928L72.7215 93.6652L72.5403 93.7377L72.4678 93.8101L72.3953 93.955L72.359 93.9912V94.1723L72.4315 94.281L72.504 94.5707L72.4315 94.7518L72.214 94.9691L71.9965 95.1502L71.779 95.2226L71.4165 95.0415L71.1991 94.8604L71.0541 94.788L70.8366 94.7156L70.4741 94.5707H70.4016H70.0753L69.8216 94.3896L69.6403 93.955V93.8101L69.6041 93.7377L69.3503 93.7015L69.1691 93.5928H68.9154L68.7704 93.5566L68.4079 93.5928L68.0454 93.5204L67.9004 93.3755H67.8279H67.7916L67.6104 93.1944L67.5741 93.1582L67.5016 93.2306L67.3204 93.0495H67.2842L66.9942 92.8685L66.9579 92.796C66.9217 93.3755 66.9217 93.9912 66.9217 94.5707C66.9217 105.545 71.779 115.432 79.4638 122.133V122.096L79.3913 121.915L79.4638 121.843L79.4276 121.807V121.517H79.6813H79.7176H79.7538V121.444L80.1888 121.155H80.2613L80.2976 121.118V121.046L80.5151 120.901L80.5513 120.829L80.5876 120.793L80.7688 120.249L80.8051 120.358V120.213L81.0588 120.467L81.1675 120.394H81.2038V120.213L81.4938 120.322L81.675 120.213L81.7113 120.141H81.9288L82.1463 120.032V119.851H82.3638V119.778L82.4 119.706L82.2188 119.525L82.4 119.344L82.545 119.199V119.09V119.018H82.5088L82.3638 118.873V118.692L82.1825 118.511H82.5088V118.402L82.4363 118.221L82.5088 118.149L82.4725 118.112V117.823L82.4 117.533V117.352L82.4725 117.279L82.4 117.207L82.545 117.062V117.026L82.5088 116.99L82.3638 116.917L82.0738 116.627L82.1463 116.446V116.41L82.0375 116.301L82.11 116.157L82.0738 116.084L81.7475 115.758H82.1825L82.11 115.65L82.1825 115.577L82.11 115.505V115.215L82.1825 115.034L82.255 114.961L82.2188 114.78L82.1463 114.708V114.491L82.2913 114.273L82.4363 113.875L82.1463 113.585H82.6175L82.7625 113.332L82.835 113.187V113.042L83.0162 112.861V112.643L83.125 112.535V112.462L83.27 112.318H83.415H83.4875L83.6325 112.173H83.6687L84.1037 111.666V112.209L84.1762 112.1L84.2487 111.955L84.43 111.774L84.5025 111.738L84.5387 111.666L84.6112 111.593L84.9374 111.231L85.0462 111.159L85.4087 110.796L85.5899 110.651L85.7712 110.507L85.9524 110.434L86.1699 110.253L86.7137 109.746L87.0036 109.42L87.0399 109.311L87.4024 108.841V108.768L87.5836 108.478V108.334L87.9099 107.718V107.645V107.464L88.1274 107.247H88.1999L88.2361 107.211L88.3449 106.957L88.5261 106.704V106.631H88.3086L88.7436 106.197H88.6711L88.7436 105.979ZM117.562 113.187L117.489 113.114L117.453 113.042L117.38 112.969L117.308 113.006L117.018 112.897V112.716L116.945 112.643L117.09 112.607L116.909 112.535V112.462V112.39V112.354L116.728 112.426V112.318H116.583L116.329 112.064V112.028L115.64 112.462L116.22 111.666H115.677L115.93 111.412H115.858L115.604 111.122V110.977L115.459 110.833L115.387 110.905L115.169 110.724V110.688L114.553 110.434H114.662L114.408 110V109.855H114.299L114.19 109.71L114.009 109.529H113.864L113.719 109.384H113.465V109.058H113.393L113.357 108.913H113.32L113.248 108.732H113.212L113.03 108.804L112.958 108.732H112.922L112.74 108.804L112.559 108.732L112.342 108.551L112.414 108.732L112.523 108.768L112.704 108.985H112.777L112.922 109.167L112.994 109.094L113.32 109.311L113.502 109.601L113.61 109.674H113.792V109.963V110.036H113.937L114.082 110.253H114.118H114.299V110.47H114.335L114.372 110.651V110.688L114.48 110.977V111.014H114.553L114.807 111.195V111.376L114.879 111.521L115.024 111.666L115.097 111.955L115.314 112.318L115.242 112.499L115.278 112.571L115.423 112.643L115.64 112.897L115.677 113.006L115.894 113.042V113.151L116.075 113.223V113.332H116.148L116.329 113.549L116.619 113.73V113.802H116.764L117.09 114.128H117.272L117.308 113.947L117.562 114.02L117.634 113.802L117.562 113.621L117.634 113.44L117.598 113.404L117.562 113.187ZM125.101 113.839L125.029 113.911V114.056L124.956 114.165V114.273H125.029V114.056L125.101 113.984V113.911V113.875V113.839ZM126.261 113.766V113.694H126.189L126.116 113.404H126.008L126.153 113.223L126.08 113.042L125.935 112.897L125.863 112.788L125.718 112.68V112.535L125.536 112.462L125.428 112.426L125.246 112.245L125.101 112.064L125.029 112.173H124.956L125.029 112.318L124.956 112.462V112.643L124.92 112.716V112.861L124.848 112.933V113.114L124.666 113.187V113.368H124.993V113.621L125.101 113.839L125.246 113.549L125.21 113.476L125.138 113.332V113.151L125.319 113.042L125.391 112.969L125.681 112.861L125.863 113.042L125.971 113.223V113.476L125.899 113.549L125.971 113.621L126.189 113.73V113.984L126.261 113.911H126.37L126.261 113.766ZM123.579 109.058H123.651V108.732L123.978 108.985V108.696L123.833 108.515H123.796H123.615V108.261L123.47 108.08L123.398 108.152H123.325V108.225H123.253L123.18 108.37V108.515L122.89 108.804L122.818 108.985H122.709H122.636L122.274 109.601V108.985L122.093 109.022V109.058V109.203L121.839 109.456L121.694 109.637V109.71L121.549 109.927L121.368 110.072L121.042 110.144L121.404 110.688L120.824 110.398V110.543L120.715 110.47V110.615L120.643 110.796V111.014L120.172 110.941L119.99 110.833H119.773L119.7 110.688L119.628 110.869L119.555 110.941V111.05V111.159V111.267L119.628 111.412L119.773 111.557H119.809L120.897 111.014L119.99 111.955L120.099 112.1L120.172 112.209V112.462L120.099 112.535L120.172 112.571V112.933L120.317 112.825L120.389 113.006H120.462L120.534 113.078L120.679 113.006H120.715L120.897 112.752L121.078 113.114V113.295L121.187 113.223L121.259 113.295L121.368 113.259L121.404 113.114H121.694L121.766 113.187H121.911L121.984 113.078L122.165 113.332L122.31 113.259L122.346 113.368H122.419L122.6 113.585L122.528 113.621L122.636 113.585H122.745L122.854 113.513L122.926 113.332V112.969L122.419 113.187L122.963 112.643L122.745 112.426H123.18L123.253 112.354L122.781 112.064H123.398V111.992L123.579 111.847V111.593L123.651 111.521V111.231H123.724L123.869 111.05L123.796 110.651L123.579 110.543L123.905 110.326L123.76 110.181V110.072L123.579 109.927L123.724 109.746L123.615 109.529L123.651 109.493L123.398 109.42L123.724 109.239L123.579 109.058ZM128.69 113.368H128.618H128.726H128.69ZM126.261 112.173H126.189L126.044 112.209L125.971 112.136L125.935 112.173L125.863 112.318H125.971L126.044 112.245L126.261 112.173ZM125.826 111.122L125.754 111.014L125.609 111.159H125.645H125.718L125.863 111.122H125.826ZM116.22 110.869L116.257 110.833V110.796L116.22 110.869ZM116.329 110.507L116.257 110.434V110.362L116.184 110.289L116.112 110.144L115.785 109.818L116.003 109.674V109.529L115.93 109.456V109.203L116.003 109.13V108.841V108.768L115.93 108.623L115.568 108.261H115.205V108.152L115.133 108.116L115.06 107.935V107.863H114.879L114.734 108.008L114.372 107.645L114.19 107.609V107.247L114.408 107.175L114.335 107.102V106.957H114.263L114.19 106.849L114.045 106.704V106.631L113.683 106.704L113.502 106.523L113.574 106.378L113.502 106.269V106.197L113.465 106.088L113.393 106.305L113.465 106.378L113.393 106.45H113.465V106.885L113.647 106.812V107.066L113.719 107.138V107.211L113.792 107.247L113.828 107.392H113.864L114.045 107.609L114.118 107.645L114.154 107.718H114.263V107.935L114.408 108.008L114.48 108.08L114.625 108.297L114.698 108.732L114.734 108.841L114.807 109.022L114.734 109.311L114.915 109.493L114.843 109.565L114.915 109.637L114.988 109.746L115.133 109.818L115.278 110.108L115.205 110.181L115.495 110.543L115.677 110.47L115.749 110.543H116.039L115.858 110.688L115.967 110.796L116.148 110.833L116.22 110.869V110.724L116.402 110.905V110.796L116.329 110.507ZM115.133 110.181L115.024 110.289L114.988 110.434H115.169L115.133 110.181ZM114.734 110.362L114.662 110.434H114.807L114.734 110.362ZM127.458 107.863V107.899L127.494 108.008H127.639L127.748 108.08L127.458 107.863ZM104.838 107.537V107.464L104.693 107.175V107.138H104.548V107.066H104.113L104.077 107.247V107.356L104.149 107.537L104.113 107.609L104.186 107.79L104.258 108.08H104.367L104.439 108.044H104.693L104.766 108.008L104.838 107.935L104.911 107.79L104.838 107.537ZM128.219 107.03L128.146 106.776L128.219 106.631L128.146 106.559V106.921L127.965 106.776L127.82 106.957L127.748 106.885V106.957L127.421 107.138L127.24 107.211L127.421 107.392L127.748 108.008L127.82 107.935L127.711 107.863L127.784 107.645L127.965 107.319L128.219 107.247V107.03ZM126.878 106.957V107.03L126.914 106.957H126.878ZM104.294 106.812V106.595H104.222V106.776H104.113V106.957L104.331 106.812H104.294ZM80.2976 67.7332L80.2251 67.697V67.7694L80.4063 67.8056L80.2976 67.7332ZM80.6601 67.0088V66.9364L80.5876 66.9002L80.4063 66.7191V66.6104L80.2251 66.5742L80.0801 66.6104L80.2251 66.8277V66.9002L80.3701 67.045L80.2251 67.1899L80.2976 67.371L80.1526 67.4072V67.5883V67.6245L80.2613 67.6607V67.4072L80.3338 67.3348L80.2976 67.2986L80.5151 67.0813H80.6601V67.0088ZM129.705 79.3954L129.85 79.2505V79.2143L129.778 79.1056V78.9608H129.741L129.669 78.5261L129.596 78.4537V78.2726L129.488 78.164L129.379 77.9104L129.415 77.8742H129.379L129.234 77.4034V77.2947L129.198 77.2223L129.125 76.8963L129.161 76.8601L129.089 76.6428L129.125 76.5704L129.053 76.4979L129.125 76.4255L129.053 76.3531L128.98 76.172L128.908 76.1358L128.726 75.9547V75.7011L128.763 75.6649L128.726 75.5925H128.581L128.291 75.3027L128.436 75.1579V75.0854V75.013H128.364L128.291 74.9043H128.219L128.146 74.8319L127.893 74.7233L127.856 74.687L127.711 74.6146L127.603 74.5059L127.566 74.4335H127.385L127.349 74.3973L127.313 74.4335H127.24L127.313 74.5059H127.204V74.6508H127.131L127.059 74.7957V74.8319L126.986 74.9043L127.059 74.9768L126.986 75.1579L126.624 75.52V75.3752L126.334 75.4476L126.261 75.3752V75.4114L125.826 75.0492L125.899 74.8681V74.7957L125.754 74.6146V74.3611L125.645 74.3973L125.5 74.5422H125.246L125.174 74.4697L125.101 74.5059L124.848 74.3973L124.739 74.1438L124.884 73.8178L124.956 73.7092V73.5643L125.101 73.4194V73.2383L125.246 73.1297V72.9486L125.319 72.8761V72.8399L125.464 72.6588L125.536 72.514L125.609 72.4415L125.536 72.3329L125.609 72.2604V72.1156L125.681 71.6809H125.754L125.79 71.4999H125.826V71.4636L126.008 71.2463L126.08 71.1015L126.153 71.029L126.08 70.8479L126.153 70.7755V70.6668L126.225 70.5944L126.189 70.522V70.3047L126.116 70.1236L126.298 69.87L126.406 69.7252V69.6527L126.261 69.4354L126.334 69.2181L126.443 69.1095L126.515 68.9646L126.696 68.8197L126.769 68.6386H127.059V68.6749L127.204 68.5662H127.349L127.494 68.4575H127.711L127.82 68.3489H128.001L128.074 68.1678L128.328 68.2765L128.581 68.1678L128.763 68.2402C122.201 61.9383 113.284 58.063 103.461 58.063C103.279 58.063 103.098 58.063 102.917 58.063L102.772 58.2079H102.663L102.047 58.8236L102.337 58.0992C99.9808 58.1716 97.6971 58.4614 95.4497 58.9684L95.8484 59.0771H94.7972C94.2535 59.222 93.6735 59.3668 93.1297 59.5117L93.2385 59.6928V59.8377H93.2747L93.3472 60.055L93.4197 60.0912H93.4922L93.7822 60.1274L94.1447 59.7652V60.1636L94.2172 60.2723L94.2897 60.3447L94.3622 60.4172H94.5797L94.7609 60.5258H94.7972L95.0147 60.7431L95.0872 61.1053L95.1597 61.2864L95.1234 61.3588L95.2684 61.4313L95.4859 61.7572V61.9383L95.6309 62.047L95.7034 62.2643L95.6309 62.4816H95.6672V62.554L95.9572 62.8438L95.9934 62.88L96.0297 62.8438L96.1747 62.9162L96.2834 62.8438L96.8271 62.6989L96.6821 62.88L96.7546 62.9524L96.8271 62.9886H97.0446L97.3709 63.9665L96.7909 63.387H96.6459L96.4284 63.2059V63.387V63.4232L96.7909 64.3287L96.0297 63.5681H95.8484L95.6309 63.3508V63.1697L95.4859 63.1335H95.2684L94.9059 62.9162H94.6159L94.5435 62.3729L94.6159 62.2281L94.4347 62.0832V61.8659L94.3622 61.6848L94.5435 61.5399V61.395L94.471 61.2502L94.3985 61.1777L94.2897 61.2502L93.9272 61.3226H93.7097L93.4922 61.1053L93.3472 61.0329L93.311 60.9604L93.0572 60.9242L92.876 60.7431L92.8035 60.6707H92.4048L92.586 60.7431L92.8035 61.1053L92.6222 61.4675L92.3685 61.5399L92.0423 61.395L91.9698 61.3588L91.9335 61.2502H91.8973L91.8248 61.3226L91.7885 61.3588H91.861L91.9335 61.5399L92.006 61.6123H92.1873L92.3323 61.7572H92.4773L92.5135 61.721H92.731L92.8035 61.8297H92.9847L93.0572 62.047L93.0935 62.0832V62.1556H93.166L94.036 61.7934L93.2747 62.554L93.456 62.9886L93.021 62.554H92.876L92.5498 62.3367H92.3685L92.1148 62.5902L92.0423 62.3367H91.9698H91.6798L91.571 62.2643L91.3898 62.3367L91.2085 61.9021L91.3173 61.8659L91.2448 61.7934V61.7572L91.136 61.6123L91.0635 61.4313L90.8823 61.6123L90.9185 61.6486L90.9548 62.0832L90.8823 62.3005L91.0273 62.3729L91.3173 62.6265V62.6989H91.3898L91.571 62.88L91.7523 63.1697L91.716 63.6043V63.6768L91.8248 63.8579L91.7523 64.1114V64.1476L91.9335 64.3287L92.006 64.5098L92.0785 64.4736L92.2235 64.5098V64.4736L92.441 64.2563L92.6222 64.3287L92.7672 64.2563L92.9485 64.3649L93.1297 64.2925L93.2022 64.5098L93.3472 64.5822H93.601L93.8185 64.8357V64.872L93.9272 64.9444L93.9997 65.0893L94.0722 65.1617L94.1085 65.2341L94.5797 65.4152L94.0722 65.6325L94.1447 65.705L94.2897 65.8499L94.2535 65.9223V65.9947L94.4347 65.7412L94.5072 65.9585H94.5797L94.8334 66.212L94.6159 66.3931L94.4347 66.4656L94.2897 66.538L94.0722 66.6104L93.891 66.4656H93.746L93.456 66.1758L93.5285 66.1034V66.0309L93.456 65.9585L93.2385 65.8861L93.311 65.705H93.2385L93.166 65.5239L92.9485 65.379V65.2341L92.8397 65.3428L92.6947 65.4152L92.6222 65.4877L92.5498 65.5601L92.586 65.7412V65.7774L92.8035 65.8861L92.9847 66.4293L92.9122 66.6104L92.7672 66.7915V66.864L92.9122 67.045L92.7672 67.371V67.5159L92.6222 67.6607V67.8418L92.441 67.9143V68.0954L92.1873 68.3127L91.861 68.2402L91.8248 68.204H91.7523L91.5348 68.2765L91.3535 68.1678L90.9185 68.0954L90.7735 67.9505L90.701 68.1316L90.5198 67.9505H90.1573L90.5923 67.4434H90.8098L91.0273 67.4072L91.136 67.2986L91.4623 67.4797L91.4985 67.4434H91.7885V67.2624L91.9698 67.3348V67.2261L91.7523 67.0088L92.006 66.9002V66.8277L91.9335 66.7553L92.006 66.5742V66.5018L92.0785 66.4293L91.9698 66.3207L91.8973 66.0309L91.9698 65.8499V65.6688L91.8248 65.5963L91.7885 65.4877L91.6073 65.4515L91.3535 65.0893L91.3173 64.9082L91.2448 64.8357V64.7633H91.1723L91.0998 64.5098L91.136 64.3649L90.991 64.1476V64.039L90.846 63.8941V63.7854L90.7735 63.713L90.701 63.3508V63.2784L90.5561 63.1335V63.0248L90.3748 63.0973V62.9162L90.3023 62.88L90.2661 62.6265L90.1573 62.5178L90.0486 62.2643L90.1573 62.1556L90.0848 61.9745L90.1573 61.9021V61.8297L90.2298 61.5399L90.1936 61.395V61.2502L90.1211 61.1777V60.9966L90.0486 60.8156L89.7948 60.7069H89.7586L89.6861 60.7793C89.5048 60.8518 89.3236 60.9242 89.1786 60.9966L89.0336 61.1415V61.214L89.0698 61.2502V61.4313L89.1061 61.5399L89.1786 61.9745V62.047L89.3236 62.1918L89.1786 62.3729V62.4454L89.2511 62.6265L89.0336 62.8438L88.8523 63.0973L88.9248 63.3146L88.8523 63.387L88.9611 63.4957L89.0336 63.6043H89.1786L89.9761 64.4011L89.3236 64.1476V64.4011L89.1786 64.5098L89.2148 64.5822L89.3598 64.6547V64.6909L89.4323 64.7271H89.6136L89.6498 64.7633L89.7586 64.6184L89.9761 64.8357V65.0168H90.0486L90.3023 65.3066L90.3748 65.2704H90.4111L90.4836 65.3428H90.9548L90.5923 65.705V65.9585L90.6648 66.0672L90.5923 66.1396V66.5018L90.1573 66.3207L90.0123 66.0309L89.9398 65.9585H89.7223L89.6498 65.7774L89.6136 65.7412L89.3598 65.705L89.0698 65.5239L88.8161 65.4515L88.7799 65.379H88.5986L88.5261 65.3066L88.2724 65.5601L88.0911 65.1617L87.8736 65.0893L87.7286 65.0168L87.3661 64.9444L86.9311 65.0168L86.8586 64.9806L86.7499 65.0531L86.6774 65.0168L86.6049 65.0531V65.0893V65.3428H86.6412V65.4152H86.7499L86.9311 65.705V65.7412H86.9674L87.6561 66.4293L86.8586 66.1758V66.2482L86.7137 66.3207L86.7861 66.3931L86.7137 66.3569V66.5018L86.5687 66.6466H86.0974L85.9524 66.3569L86.0249 66.2482L85.9524 66.0672L86.0249 65.9947H85.9524L85.8437 66.0672L85.8074 66.1034V66.3207H85.4449V66.3569L85.1912 66.4656H84.865H84.8287L84.7562 66.538L84.6837 66.4656L84.6112 66.538L84.6837 66.5742L84.575 66.6829L84.6475 66.7553L84.3937 67.0088L84.1762 66.9364L83.8137 67.8418V67.0813L83.7775 67.1175L83.4875 66.9726L83.4512 66.9002L83.0887 67.1175L82.835 66.864L82.8713 66.8277V66.6829L82.6538 66.7553H82.6175L82.4363 67.0088L82.3638 67.045L82.1463 67.2986L82.2913 67.6607L81.7475 67.5883H81.6025V67.7694L82.4 67.6245L81.4938 68.1678L81.4213 68.2402H81.3125L81.1313 68.4213L81.0588 68.2765H80.8051L80.5513 67.9143L80.3701 67.7694H80.3338L80.5151 67.9505L80.4788 68.0591L80.5513 68.1316L80.4788 68.1678L80.4063 68.3489V68.6386V68.6749L80.5876 69.4716L80.0438 68.9284L79.8626 68.8559L79.2826 69.4354L79.5726 68.7111L79.4276 68.7473L79.3188 68.6386V68.8559L78.7026 69.2906L78.9564 68.6749L78.9926 68.5662V68.4213L78.8114 68.2402L78.7751 68.1316L78.7026 68.0591L78.6664 68.0229V68.1316L78.4126 67.9505C77.9414 68.3851 77.4701 68.8559 77.0352 69.3268H77.0714L77.1439 69.363L77.3251 69.2906L77.5064 69.4716L77.6514 69.5079L77.9051 69.5441L78.0864 69.5079L78.1589 69.4354H78.3401L78.4126 69.3992L78.7026 69.3268V69.5803V69.6527L78.9201 69.87L79.1376 70.2322L78.8839 70.4858L78.6664 70.6306L78.5214 70.9928L78.2314 70.6668L78.0864 70.5944V70.7031L78.1589 70.7393V71.2463L78.0139 71.3912H77.9051L77.7964 71.4999H77.5789L77.4701 71.3912H77.3251L77.2526 71.3188H77.0714L76.9264 71.1739V71.1015H76.8902L76.8539 71.2101L76.4914 70.9928L76.1289 71.1015L76.3102 70.6668L76.2739 70.5944V70.522L76.1289 70.4133V70.3409C75.0777 71.5361 74.0627 72.8037 73.1565 74.1438V74.18L73.3377 74.3611L73.519 74.2886H73.5552L73.7727 74.0713L73.9177 74.2162L73.9902 74.1438H73.954C73.954 74.1075 73.9902 74.0713 73.9902 74.0713L74.1352 73.8902L74.3527 74.1438V74.2162L74.389 74.2886H74.6427L74.8965 74.5422L74.7515 74.9043L74.5702 74.8319V74.8681L74.4977 74.9406L74.6065 75.013L74.3527 75.1216V75.3752L74.1715 75.1941L74.1352 75.2665V75.4476H73.374L73.229 75.3752H73.0478L72.9753 75.339L72.794 75.3752L72.5765 75.4476L72.504 75.3752L72.359 75.4476L72.2865 75.6287H72.359L72.214 75.9909L72.3953 75.8098L72.5765 76.2444L72.504 76.5704V76.7877L72.5765 77.0412L72.504 77.2585L72.3228 77.6207H72.0328L71.8515 77.4396L71.779 77.2947L71.5978 77.0774L71.5253 77.1136L71.4528 77.1861H71.3078H71.2715H71.2353V77.6207L71.0903 77.4758L71.0178 77.5483V77.8018L70.9453 77.838V77.9104L71.0178 77.9829V78.2364V78.2726L71.1266 78.2364L71.3078 78.4899H71.344L71.5978 78.4175L71.7428 78.5624L71.8153 78.671L71.9603 78.8159L71.8878 78.997L71.9603 79.3229L71.1628 79.3954L70.6191 79.3592L70.4016 79.5402L70.1478 79.6127L70.0753 79.5402C69.3141 81.17 68.6979 82.9085 68.1904 84.647L68.5529 84.7918V85.0092L68.7704 84.7918H69.0604L69.1329 84.9729L69.2779 85.154L69.3503 85.2989L69.4228 85.3713L69.4953 85.4438H69.5678L70.1841 86.0595H70.2566L70.4378 86.1319L70.8728 86.5665L70.9453 86.4941L71.1628 86.7476L71.3078 86.8201L71.5615 87.1098L71.5978 87.1822L71.6703 87.2185L71.924 87.4358L71.8153 87.6893H71.634L71.5978 87.8704L71.6703 88.0515L71.634 88.1601L71.6703 88.2688H71.779L71.924 88.5585L72.1053 88.631V88.812L72.2503 88.8845L72.3228 88.9569H72.4678V89.138L72.5403 89.2829H72.6128L72.6853 89.2467L72.504 89.138L72.7215 88.9207L72.4315 88.631L72.5403 88.5223L72.504 88.3412L72.5765 88.0877L72.939 87.9428L73.0115 88.1239L73.1565 87.979L73.3015 88.0515L73.3377 87.9428L73.6277 87.7979L73.7727 87.9428V87.7979H74.1352L74.2077 87.9066H74.3165L74.5702 87.979V88.0515L74.6427 87.979L74.7877 88.1239L75.0777 87.8704V87.9066L75.2589 87.8342H75.4039L75.4764 87.7617L75.2952 87.5806L75.2227 87.3995L75.1502 87.3271L74.7877 86.8925H75.0415L75.1502 86.8201H75.1864L75.1139 86.5303L75.3677 86.313H75.4039V86.2406V85.987L75.3314 85.8422L75.4039 85.6973V85.6249L75.3314 85.4438L75.4402 85.3351L75.5127 85.154H75.7664H75.8027V85.1178L75.6939 85.0092L75.8389 84.8643V84.2486H76.2377V84.0675L76.4914 83.9951H76.5639L76.7452 83.814L76.8902 83.9588L77.0352 83.814L77.2164 83.9951H77.2889L77.3614 84.2486L77.4339 84.2848L77.5064 84.2486L77.6514 84.321L77.7239 84.1399L77.8326 84.2486L77.9414 84.1399L78.0501 84.2124L78.1226 84.1399L78.3039 84.2124L78.4126 84.1761L78.5214 84.0313L78.4126 83.7053H79.0288L79.0651 83.7777H79.1376L79.2826 83.8502L79.3551 83.7777H79.5001L79.5363 83.7415L79.6088 83.5604H79.7538V83.5242L79.8988 83.3793H80.0801L80.1888 83.3069H80.4426H80.4788L80.5513 83.2345L80.8413 83.162L81.0588 83.3793L80.9501 83.6691L80.6963 83.7777L80.5151 84.0675L80.6238 84.1037V84.321L80.3338 84.6108L80.4063 84.6832L80.2613 85.1178L80.1163 85.0454L80.1888 85.1178V85.2265L80.3701 85.1902L80.6238 85.3351L80.7688 85.4076L81.1313 85.6973L81.1675 85.7697L81.24 85.806L81.3125 85.8784H81.385H81.5663L81.6388 85.9508H81.7113H81.7838L81.9288 86.0957H81.965L82.0375 86.0233L82.3638 86.2768H82.4363L82.6175 86.5303L82.69 86.6752L82.7263 86.8563L82.9075 87.1098L82.6538 87.2185L82.7263 87.3271L82.5813 87.472L82.5088 87.6169L82.3275 87.7979L82.1825 87.8704L82.11 88.0515H81.9288V88.0877L81.5663 88.0152L81.53 87.979H81.095H81.0588H80.8413L80.5876 88.1239L80.2976 88.0515L80.0076 87.8704L79.8626 87.7979L79.7538 87.7255L79.6813 87.7979L79.4276 87.6893L79.2463 87.5082V87.472L79.1013 87.6169L79.0288 87.5444L78.9564 87.6169L78.5939 87.2547H78.3401L78.3039 87.2185L78.2314 87.2547H77.9414L77.9051 87.3271L77.6151 87.472H77.4701H77.3976L77.3614 87.5444L77.2164 87.6169L77.1076 87.7255L77.0352 87.8342V87.979H76.6364L76.3827 87.9066L76.1289 88.1601H76.0564L76.1289 88.2326L75.6939 88.4136H75.4039L75.3314 88.3774L75.1139 88.4499L75.0415 88.2688L74.969 88.4499V88.4861L75.0052 88.5223H75.0415H75.5852L75.2227 88.8845L75.2589 88.9569L75.4402 88.8845V89.2467H76.2014L75.2952 89.6088V89.6813L75.3677 89.6451L75.6214 89.7537L75.7664 90.0435L75.6939 90.1159L75.8027 90.2245L75.8752 90.1521V90.297H76.2377L76.1289 90.4056H76.4914V90.6592L76.5639 90.6954L76.6364 90.6229H76.7089L76.7814 90.5505H76.8177L76.7452 90.3694L77.1801 90.2608L77.3976 90.3332L77.6514 90.4418H77.8326L78.0501 90.6954L78.1226 90.7678L78.5576 90.7316L78.7026 90.6592H78.7389V90.6229L79.0651 90.2608H79.2463L79.4638 90.4056L79.6813 90.1883L80.0438 90.3332V90.5867L79.8626 90.7678L80.0076 90.9127L79.8626 91.0576L79.9713 91.2386L80.0438 91.456L79.9713 91.6008V91.8181L79.8988 92.0354L79.8263 92.4701L79.6088 92.7236V92.8322L79.4276 93.0133L79.3913 93.3755L79.2101 93.7015L79.0651 93.8826L78.9926 94.0636L78.7389 94.1361L78.3764 94.0636L78.0864 94.1361V94.6794L78.1589 94.7518V94.788L78.3401 94.9691V95.1502L78.4851 95.2226L78.5576 95.4037L78.7389 95.5848L78.8114 95.4399V95.2951L78.9564 94.9329L79.0288 94.8604L79.3913 93.9188V94.8967L79.3188 95.0053V95.3675L79.7538 95.5486L79.6088 95.6935L79.7901 95.8745L79.8263 95.9832L79.8988 96.0556L79.9713 96.1643L80.1526 96.5989V96.78L80.2613 96.8524L80.3338 96.9973L80.4788 97.0697L80.5876 97.3233L80.7326 97.3957L80.8413 97.7217L81.0588 97.939L81.24 98.0838L81.385 98.2649V98.3011H81.5663L81.6388 98.4822L81.7113 98.5547L81.7838 98.7358L81.8925 98.8444L81.9288 98.9169L82.0013 98.9893L81.9288 99.3153L82.0013 99.4963L82.0375 99.6774L82.4363 100.076H82.5088H82.69L82.7625 100.221L82.98 100.402V100.474L83.1612 100.547L83.0887 100.728L83.1975 101.09L83.3425 101.162V101.343L83.6325 101.633H83.7775L83.85 101.923L84.0312 101.959L84.1762 102.321L84.2487 102.466L84.3212 102.792V103.118H84.2487L84.3212 103.227L84.3575 103.698L84.5025 103.842V104.205L84.6112 104.313V104.386L84.7925 104.458L84.9374 104.313H85.1912L85.2999 104.168V104.096L85.5174 103.879H85.7712L85.8437 103.951H85.9887L86.0612 104.024L86.2424 103.951L86.3874 103.915L86.6774 103.698H86.9674L87.1124 103.553L87.1849 103.625L87.3299 103.408L87.5111 103.335H87.5836L88.0911 103.154L88.1636 103.082L88.5261 103.009L88.7073 102.937L88.8523 102.792H88.9611L89.0336 102.575L89.2511 102.321L89.5048 102.249H89.5773L89.7223 102.104L89.7948 102.176V102.104H89.9036L90.0848 101.995H90.2298L90.3748 101.923L90.4473 101.959V101.706L90.6286 101.525H90.701L90.8823 101.452V101.343L91.136 101.017L91.3898 100.909L91.426 100.945H91.5348V100.873H91.3898L91.5348 100.547L91.3898 100.402H91.571L91.861 99.6412V100.257L91.9335 100.184L92.006 100.257L92.0423 100.184L92.1873 100.04L92.3685 99.7861V99.7136V99.6412V99.5688H92.3323L92.0785 99.3877L92.006 99.2428L91.861 99.0979L91.7885 98.9169L91.716 98.8082H91.1723L91.0273 98.8806L90.7373 98.8082L90.6648 98.8806L90.4111 98.772L90.0848 98.4822L90.0123 98.4098L89.7948 98.1563L89.7223 97.7941L89.6498 97.7217L89.3598 98.0114L89.5048 98.1563L89.1423 98.5185V98.5909H88.9973L88.8161 98.6633H88.5986L88.5261 98.5909H88.4536L88.3086 98.5547L88.0911 98.7358L87.9099 98.6633H87.8374L87.5474 98.772L87.4749 98.4822H87.4024L87.3299 98.3011H87.3661V98.1563L87.2211 98.3011L86.9674 98.0476L86.8949 97.9027L86.6049 97.5768L86.3512 96.9611L86.2787 96.8886L86.0612 96.6713L85.8799 96.5989L85.7349 96.2367L85.6987 96.1643L85.6262 96.0919L85.2274 95.6935H85.3724L84.9374 95.4037L85.4812 95.3313V95.2588V95.114V95.0415L84.9374 94.8242H85.5899L85.9162 94.4983V94.788H85.9887L86.0612 94.8604L86.2062 94.7156L86.2787 94.8604L86.3874 94.7518L86.5687 94.9329L86.7499 95.114V95.1864L86.9311 95.4037L86.9674 95.4762H87.0036L87.0761 95.5848H87.5111L87.5474 95.621L87.6561 95.5124L87.8011 95.8745L87.9099 96.1643L88.0911 96.1281L88.3086 96.2005H88.4899L88.5624 96.2729H88.6711L88.8886 96.4903L88.8523 96.5265L88.9973 96.5989H89.1423L89.2873 96.6713L89.4323 96.5989L89.6861 96.6713L89.8311 96.7438L89.9036 96.6713L90.1573 96.4903H90.2661L90.3748 96.4178L90.5561 96.3454L90.9185 96.4178H90.991V96.4903L91.0635 96.6351L91.136 96.8162L91.281 97.0335V97.106H91.6798L91.716 97.1422L91.7523 97.106H91.9335L92.0785 97.2146L92.3323 97.1784L92.4773 97.2508H92.7672H92.8035L92.876 97.1784L92.9485 97.2146L92.9122 97.1422H93.2022L93.2747 97.3233H93.311L93.4197 97.3595L93.4922 97.287H93.8185V97.3595H93.891L93.9997 97.287H94.2535V97.2146L94.4347 97.0335L94.5072 97.0697H94.7609L94.8334 97.1422H94.9422L94.9784 97.1784L95.0509 97.106H95.3409L95.4134 97.1422L95.4859 97.106H95.5584L95.7034 96.9611L95.8484 97.106H95.8847L95.9572 97.0697H96.2109L96.3922 97.2508L96.4647 97.4319H96.6459L96.8996 97.3595V97.6492L96.9721 97.7217L97.0446 97.9027L97.1171 97.9752L97.1534 98.0476H97.2984L97.4796 98.1563L97.5884 98.0838L97.7696 98.0114L97.9146 98.3374L97.8421 98.3736L97.8059 98.4098L97.9146 98.5547L98.2409 98.6633L98.4221 98.5547V98.4098H98.9658L98.7846 98.8444H98.1684L98.0596 98.9893H98.2046L98.1321 99.0617V99.1342V99.3153L98.2771 99.4601L98.6758 99.7499H98.7483H98.8208L99.1108 99.5688L99.1833 99.4963L99.2921 99.3153V99.279L99.1471 99.1342L99.3283 98.8444V97.7941L99.6546 98.5909H99.7271L99.7996 98.6633L100.597 98.3374L99.8358 99.0979L100.815 99.4963H99.7633V99.5688L99.7996 99.605L99.8721 99.7861V99.9672L99.8358 100.04L100.235 100.221L99.8721 100.402L100.017 100.728V100.873L100.09 101.054L100.017 101.126L100.307 101.561H100.126V101.633L100.307 102.068V102.358L100.38 102.502L100.525 102.575L100.597 102.756L100.67 102.828V102.901V102.973H100.742V103.082L100.778 103.118H100.923V103.444L100.996 103.625L101.032 103.77L101.141 104.024L101.213 104.168L101.25 104.35L101.286 104.386L101.358 104.531L101.431 104.603H101.503L101.685 104.82L101.866 105.038L101.938 105.219H102.011V105.472L102.12 105.653L102.192 105.907V106.088L102.373 106.414L102.482 106.523L102.627 106.378L102.699 106.197L102.953 106.016H103.026L103.098 105.943L103.134 105.871L103.279 105.581L103.533 105.509L103.497 105.183L103.424 105.038V104.639L103.569 104.386L103.642 104.096V103.915L103.497 103.842V103.299L103.424 103.082L103.533 102.973L103.461 102.756L103.533 102.575L103.787 102.321H104.041V102.249L104.258 102.032L104.512 102.104L104.584 102.032L104.548 101.959L104.621 101.742L104.802 101.561L104.983 101.525L105.056 101.452L105.128 101.307L105.636 100.909L105.744 100.692L105.817 100.619L105.962 100.221H106.179L106.288 100.148H106.469L106.542 100.221H106.614L106.687 100.148L106.506 99.9672H106.868V99.931L106.904 99.8947V100.003V99.931L106.796 99.8223L106.941 99.4601L107.049 99.3515L107.376 99.2428L107.412 99.2066V99.0979V98.8082H107.738L107.919 98.8806V98.7358L108.209 99.0255H108.318L108.499 98.8444L108.463 98.772H108.608L109.043 98.3374L109.406 98.2649L109.442 98.3374L109.478 98.3736H109.551L109.623 98.446L109.696 98.4822H109.768L109.841 98.446L109.804 98.4822H109.949L110.131 98.9169L110.203 98.9893V99.0255L110.276 98.9531V99.4963L110.348 99.5688L110.421 99.6774H110.493V99.7136L110.674 99.7861V99.6412L110.819 99.7861H111.291L110.566 100.003H110.602L110.638 100.04L110.783 100.112L110.964 100.329V100.583L111.037 100.655V100.836L111.109 101.017V101.09L111.399 101.199L111.291 101.307V101.561L111.363 101.706L111.508 101.271V101.887L111.544 101.923L111.508 101.959V102.394L111.581 102.539H111.653L111.762 102.466L111.834 102.249L111.762 102.104H112.124V101.995L111.581 101.452L112.632 101.887V101.959L112.704 102.032L112.813 102.213L112.849 102.249L113.139 101.959V102.466V102.502V102.684L113.175 102.72L113.212 103.009V103.263L113.574 103.625H112.632V103.698L112.849 103.915L112.922 104.024L112.994 104.096L113.067 104.422L113.103 104.458L113.212 104.712L113.139 104.784V104.82V104.893L113.393 105.146L113.32 105.219L113.393 105.364L113.248 105.509V105.69H113.465V105.545L113.61 105.4L113.683 105.001L113.828 104.857L113.9 104.748L114.009 104.639L113.937 104.567L114.082 104.422V104.35V104.277L113.792 104.168L113.973 103.987V103.553L114.227 103.806L114.299 103.734L114.408 103.842L114.553 103.77L114.625 103.842H114.698L114.879 103.915L115.06 104.096L114.915 104.241V104.277L114.988 104.386L115.205 104.458L115.35 104.603L115.423 104.639L115.749 104.965H115.93L116.112 105.219V105.291L116.257 105.653L116.547 105.364V105.653H117.308V105.581H117.598H117.634L117.924 105.291V105.617L117.997 105.69L118.178 105.617L118.25 105.545V105.472L118.54 105.364L118.649 105.255L118.685 105.146L118.758 104.965L118.685 104.748L118.794 104.712V104.676V104.458L118.867 104.386V104.35L118.794 104.277V104.096L118.722 103.915L118.794 103.842L118.722 103.734L118.794 103.661L118.722 103.48L118.649 103.408L118.577 103.227L118.395 103.046L118.468 102.973L118.359 102.865V102.828L118.287 102.647L118.214 102.575L117.96 102.394L117.924 102.285L117.707 102.14L117.308 101.959V102.684L116.945 101.851L116.764 101.669L116.655 101.597L116.148 101.416L116.402 101.307L116.474 101.126V100.836L116.547 100.764L116.619 100.655L116.8 100.474L116.873 100.547V100.366L116.728 100.221L116.873 100.076V99.931H117.09L117.235 99.7861L117.417 99.7136H117.525L117.344 99.5326H117.779L117.924 99.3877L117.96 99.4239L118.142 98.9893L118.323 99.4239L118.359 99.3877L118.468 99.4963L118.54 99.3515L118.758 99.4239L118.939 99.3515L119.12 99.5326V99.6412L119.193 99.5688L118.975 99.3515H119.41L119.7 99.0617V99.2428H120.172L120.317 99.1704L120.389 99.2066L120.462 99.1704L120.534 99.0979V99.0255V98.5909L120.788 98.8444L120.715 98.7358V98.3011L121.114 98.4822L121.259 98.6271L121.368 98.5909L121.513 98.446L121.621 98.5547V98.5185H121.875H121.948L122.129 98.3374L121.839 97.5406L122.383 98.0838L122.564 98.0114V97.939H122.636L122.709 97.8303H122.781L122.346 97.3957H122.709L123.035 96.5989L123.144 96.5627L123.071 96.4903H122.781L122.926 96.3454L122.818 96.2367H122.999L123.216 96.0194V95.9832H123.361L123.579 95.4399L123.651 95.5848V95.5124L123.724 95.3675L123.688 95.3313L123.796 95.2226H123.615V94.9329L123.796 94.7518V94.6069L123.688 94.4983L123.796 94.462V94.3172L123.724 94.3896L123.47 94.281L123.398 94.2085L123.361 94.2447L122.999 95.1864V94.3896L122.564 94.5707L122.999 94.1361V94.0999L123.18 93.9188L122.926 93.5928L123.47 93.8101L123.615 93.6652H123.651L123.724 93.5566H123.76L123.724 93.4842L123.47 93.3031L123.289 93.1582L123.144 93.0133L122.999 93.0858L122.781 93.0133L122.6 92.8685H122.564L122.419 92.796L121.332 94.2447L122.129 92.4338L122.419 92.3252L122.6 92.3976L122.854 92.3252L122.89 92.3976L123.216 92.4701L123.035 92.2165V92.0717L122.854 91.9268V91.8181L122.673 91.7457L122.745 91.5646L122.636 91.3473L122.455 91.2749L122.165 91.3835V91.13L121.875 91.0213V90.5867L121.911 90.4418L121.839 90.297L122.02 89.8261L122.201 90.0072L122.238 89.971L122.165 89.8986L122.455 89.6088H122.491V89.5364H122.564L122.383 89.3553L122.818 89.1742L122.89 89.2104H122.999L123.035 89.1742H122.6L122.419 88.9931L122.383 88.9207L122.31 88.9569V89.0294L122.238 89.1018L122.129 89.3553L121.948 89.5364L121.766 89.464L121.694 89.5002H121.404L121.223 89.0656V89.3191L121.078 89.138L121.005 89.2104V89.0294L120.824 88.812L120.788 88.7758L120.643 88.7034L120.425 88.631V88.4499L120.353 88.2688L120.425 88.1963V88.1239L120.498 88.0515V87.9428L120.57 87.8704V87.6169L121.005 87.6893L120.824 87.5082H121.005L121.114 87.3995L121.187 87.0736L121.477 86.8925H121.549L121.621 86.8201V86.639L121.766 86.4941H121.73L121.803 86.4217L121.875 86.2406H122.165L122.274 85.9508L122.564 86.3854L122.89 86.6027V86.8925L122.745 87.0374L122.673 87.1098V87.2547L123.144 86.7838L122.999 87.0736H123.18L123.398 86.8925L123.506 86.9649H123.543L123.796 86.6027L123.941 86.9287H124.014L124.231 87.0011H124.268L124.34 86.9287H124.703L124.558 87.2909L124.594 87.3633L124.449 87.5806V87.6893H124.485L125.029 87.472H124.993L124.884 87.1098L124.92 87.0736V87.0374V86.8563L125.101 86.7114L125.174 86.5665L125.391 86.4941H125.464H125.5V86.4217L125.718 86.2043L125.645 86.1319L125.826 85.987V85.6611L125.718 85.5524V85.2627L125.79 84.9729V84.6832H125.935L126.116 84.5021H126.153L126.189 84.3934L126.37 84.321V84.2486L126.406 84.2124V84.0313L126.515 83.9226V83.814L126.696 83.6329L126.878 83.7053L127.059 83.6329L127.24 83.814V83.9588H127.313L127.349 84.0313L127.421 83.9588L127.494 84.0313L127.639 83.9588L127.711 83.8864H127.82L127.893 83.814L127.965 83.7415L127.82 83.5967L128.074 83.488L127.893 83.0172L128.219 83.162V83.0896L128.291 83.0172V82.8361L128.4 82.7636V82.6912L128.509 82.6188L128.581 82.3652L128.618 82.329L128.726 81.8944L128.799 81.7495V81.6047L128.944 81.4598H129.016L129.089 81.3511L129.016 81.0614L129.161 80.9165L129.089 80.663L129.234 80.5181V80.3008H129.705L129.741 80.2284V80.0473L129.85 79.9386L129.778 79.6851L129.85 79.504V79.3229H129.705V79.3954ZM72.5765 74.5422L72.6128 74.5059V74.4335C72.6128 74.4697 72.6128 74.5059 72.5765 74.5422ZM117.018 106.052L117.054 106.016L116.909 105.979L117.054 106.124V106.197L117.127 106.16L117.235 106.197H117.308L117.018 106.052ZM113.393 105.834V106.016H113.465V105.943L113.393 105.834ZM126.334 105.255H126.261V105.4H126.298V105.364L126.37 105.291L126.334 105.255ZM127.639 104.712V104.784L127.711 104.857L127.784 104.929V104.893L127.639 104.712ZM125.391 103.625H125.464L125.5 103.589L125.536 103.625V103.444L125.391 103.625ZM125.826 101.959L125.754 101.923L125.645 101.633V101.561L125.391 101.488L125.283 101.38H125.21V101.416L125.065 101.597V101.633V101.923V102.176L125.029 102.249L125.101 102.394V102.575L124.956 102.647L124.92 102.792V102.865L124.993 103.009V103.082H125.174V103.154H125.319L125.464 103.335L125.428 103.227V103.046L125.464 102.973L125.391 102.828L125.718 102.502L125.826 102.321V102.249V102.104V101.959ZM119.809 100.366L119.628 100.438L119.555 100.366L119.447 100.438L119.374 100.366H119.338H119.157H119.084L119.048 100.474L118.867 100.619L118.794 100.692V100.728V100.909L118.83 101.017L118.903 101.09H118.975L119.048 101.162H119.193V101.09L119.41 101.017V100.945L119.592 100.873V100.8L119.664 100.583L119.737 100.51L119.809 100.402V100.366ZM119.012 99.7136V99.8223H118.83V99.8947L118.903 99.9672L118.975 100.04L119.12 99.8947L119.012 99.7136ZM125.029 97.287L124.956 97.2146L124.884 97.287L124.811 97.3595L124.884 97.3957L124.739 97.613V97.6854L124.594 97.9027L124.521 98.0476V98.4098H124.594V98.5909H124.703V98.7358L124.811 98.5547L124.92 98.4098L124.848 98.3736L124.92 98.0476V97.9752V97.7579L124.993 97.613L125.029 97.3957V97.287ZM108.681 98.4822V98.6633H108.717L108.681 98.4822ZM122.818 97.2146L122.6 97.4319H122.709L122.89 97.2508L122.818 97.2146ZM123.035 97.0335L123.071 96.9611L122.89 97.106L123.071 97.0335H123.035ZM129.234 92.0354L129.343 91.9268H129.306V91.8181H129.234L129.089 91.5646H128.98L128.871 91.4197H128.799V91.4922L128.69 91.5646L128.799 91.6733L128.908 91.8544L128.98 92.0354V92.2165L128.944 92.3614L129.27 92.6511L129.234 92.5787L129.306 92.2527L129.234 92.0354ZM67.5016 91.6008V91.3473H67.4291L67.2479 91.0576L67.3204 90.804L67.3567 90.7678L67.2842 90.6954L67.1754 90.5143L67.1392 90.4781C67.0667 91.0938 67.0304 91.7457 66.9579 92.3614L67.2842 92.1803L67.3204 92.1441L67.2479 92.0717L67.3929 91.9268L67.5016 91.6008ZM78.6664 92.1803H78.6301L78.4851 92.2527H78.6664L78.7389 92.1803H78.6664ZM129.85 91.2749V91.3473L129.923 91.456L129.995 91.3111L130.031 91.2749H129.85ZM130.503 91.0213L130.43 90.9489L130.358 90.9851V91.0938H130.466H130.503L130.575 91.0213V90.9851L130.503 91.0213ZM133.402 87.0736V87.0011L133.366 86.8563V86.7838L133.294 86.5665L133.257 86.4941H133.185L133.112 86.313L133.076 86.1319L133.04 86.0595L132.786 85.806L132.569 85.987L132.496 85.9146V85.987L132.569 86.1681L132.532 86.313L132.641 86.5665L132.714 86.8563L132.641 87.0374L132.714 87.2547L132.605 87.6169L132.677 87.7979L132.496 88.0515L132.424 88.1239V88.1963V88.3774L132.351 88.4861L132.315 88.6672L132.134 88.7758L131.844 88.9569H131.771L131.699 89.138L131.409 88.9931V89.138L131.3 89.3191V89.3915L131.228 89.464L131.264 89.5002V89.5364H131.445L131.264 89.7899L131.336 89.8624L130.974 90.0797L130.901 90.0072H130.829H130.611V89.8986L130.43 89.971L130.249 90.0435H130.14L129.995 90.0797L129.814 90.1521L129.741 90.0797L129.669 90.1521L129.633 90.297L129.56 90.3694L129.306 90.6229L129.234 90.6954L129.198 90.7316L129.125 90.8765L128.98 90.9489L129.161 90.8765H129.234V90.804L129.306 90.6229H129.488L129.56 90.6592H129.633H129.814L129.995 90.5867H130.068L130.213 90.5143V90.4781L130.466 90.3332L130.611 90.2608H130.938L131.119 90.4056V90.5867L131.046 90.6954V90.804L131.264 91.0213H131.191L131.228 91.2024L131.264 91.13V91.0576L131.336 90.9851V90.9127L131.445 90.7316L131.3 90.5867L131.372 90.297L131.517 90.1521H132.061L131.952 90.2608L132.17 90.297V90.1159L132.424 89.971H132.605L132.641 89.9348L132.714 89.8986L132.859 89.5726L133.04 89.5002H133.294L133.185 89.3191V88.7034L133.257 88.4861L133.149 88.1963L133.004 87.979V87.7979L133.04 87.5082L133.257 87.3995V87.3271V87.2547V87.0374L133.402 87.0736ZM69.0966 90.9489L69.2054 90.5867H69.1691L69.0966 90.6592H68.8066L68.6254 90.7316L68.4079 90.6954L68.4804 90.7678L68.6254 90.8402L68.6979 90.9127L68.8791 90.9851L68.9879 90.9489L69.1691 91.13L69.2054 91.2024L69.2416 91.13V91.0938L69.0966 90.9489ZM126.914 89.8986V89.7899L126.66 90.0435V89.5002L126.624 89.2104L126.479 89.0656V88.812L126.225 88.4861L126.008 88.2688L125.464 88.4861L125.609 88.7034L125.79 88.8845L125.718 88.9569L125.899 89.3915L125.609 89.3191L125.645 89.3915V89.4277L125.899 89.8624L125.718 90.0072V90.2245L125.645 90.297L125.718 90.4781V90.3332L125.971 90.5867L126.225 90.3694L126.37 90.297L126.406 90.2245H126.66L126.841 90.0435H126.914L126.841 89.971L126.914 89.8986ZM72.7215 89.9348L72.794 90.0072L72.8303 89.9348H72.7215ZM73.1565 90.0797L73.0115 89.9348L73.229 89.8624H73.1927L72.9753 89.9348L72.9028 89.8986H72.8665L73.0478 90.3332L73.1203 90.3694L73.1927 90.4418L73.1203 90.297L73.1565 90.0797ZM133.366 89.8624V89.8986L133.402 89.8624H133.366ZM69.9666 89.7537V89.8261L70.0391 89.7899V89.7175L69.9666 89.7537ZM133.366 89.5364V89.6451L133.402 89.6088L133.366 89.5364ZM70.2203 89.1742H70.0391L70.0028 89.138L70.0391 89.2829L70.1116 89.4277H70.0753V89.5002L70.1841 89.3915L70.2566 89.2467L70.2203 89.1742ZM70.0753 87.9066L69.8941 87.8704H69.7128L69.6041 87.6169V87.5444H69.5678H69.2779L69.2416 87.472L69.0966 87.3995L69.0241 87.2547L68.9154 87.1822L68.6616 86.9649L68.5891 86.7838V86.7114L68.5166 86.639V86.4941L68.2266 86.1319L68.1904 86.0595H68.1179L67.8279 85.9508C67.7554 86.313 67.6466 86.6752 67.5741 87.0736L67.6466 87.1822L67.6829 87.2185L67.8641 87.5082L68.0454 87.6169L68.3354 87.7255L68.5166 87.7979H68.6979L68.8791 88.0152L69.1329 88.1239H69.3141L69.4228 88.3412V88.4136H69.4591L69.4953 88.5223L69.7853 88.6672L69.8216 88.8845V88.7396L70.0028 88.6672V88.3412L70.0753 88.2688L70.1478 88.1601L70.2928 88.0515L70.0753 87.9066ZM125.899 88.2326L125.718 87.7979V87.7255L125.319 87.5444L125.283 87.472L124.739 88.0152H124.666V88.1601H124.703L124.884 87.979L125.101 88.1963H126.008L125.899 88.2326ZM122.673 87.2547V87.2909L122.709 87.2547H122.673ZM78.5939 84.8643L78.3401 85.1178L78.3039 85.154L78.4489 85.0816L78.6664 84.9005L78.5939 84.8643ZM132.097 84.7918V84.8281H132.134L132.097 84.7918ZM78.2314 84.6832L78.1226 84.7194L78.3401 84.8281L78.4126 84.6832V84.5021L78.2314 84.6832ZM134.019 83.4518L133.801 83.3431V83.2707L133.729 83.3069H133.33L133.257 83.1983H133.149L132.931 83.0896L132.895 83.0172H132.786L132.677 82.8361L132.532 82.7636L132.279 82.5101L132.242 82.4015H132.17L132.061 82.329L132.206 82.5463L132.279 82.7274L132.315 82.9447V83.0172V83.0896L132.46 83.4518H132.315V83.5242H132.351L132.532 83.7777L132.387 83.8502V83.9226L132.206 84.1037L132.061 84.0313V84.1037L132.242 84.2486L132.279 84.2124L132.46 84.0675H132.714L132.895 83.9951L133.076 84.2486L133.149 84.321L133.294 84.3934L133.33 84.2124L133.402 83.9588L133.584 83.8502L133.765 83.7415L134.019 83.6329V83.4518ZM131.916 80.4819L131.844 80.4095H131.771L131.699 80.3008V80.337V80.3733L131.88 80.5543L131.844 80.7354L131.989 80.663V80.5181L131.916 80.4819ZM131.699 78.164V78.1277L131.554 78.0915V77.9104L131.409 77.7656L131.264 77.4758L131.191 77.3672L131.01 77.1136L130.938 76.9325L130.865 76.8601V76.7877H130.684L130.611 76.5342L130.43 76.3531L130.358 76.2082L130.285 76.0995V75.5563H130.213L130.031 75.3752V75.3027L129.959 75.2303V75.013H129.923L129.85 74.9043V75.013L129.633 75.0854H129.596V75.1941L129.669 75.2665L129.85 75.4838V75.7011V75.9184L129.959 76.172V76.2444L130.104 76.3168L130.176 76.5704L130.213 76.6428L130.358 76.7152L130.539 76.9688V77.3309L130.611 77.4758V77.5483L130.829 77.7656L130.756 77.8742L130.865 78.0191L130.938 78.164V78.3088L131.01 78.4899V78.8521L131.228 78.997L131.191 79.1418L131.264 79.1781L131.481 79.3592V79.3229L131.372 79.1781L131.445 78.9245V78.8883L131.372 78.7072L131.445 78.5624L131.264 78.3088H131.771H131.844L131.699 78.164ZM72.3953 75.4838V75.5563H72.4678L72.3953 75.4838ZM72.5765 74.5422L72.6128 74.4697C72.6128 74.4697 72.6128 74.5059 72.5765 74.5422ZM77.7601 70.2684V70.2322H77.5789L77.6514 70.2684L77.7964 70.4133L77.8689 70.3771L77.7601 70.2684ZM81.8925 66.0672H81.82L81.7838 66.1396V66.3207L81.8563 66.4656H81.965L82.0375 66.4293L82.11 66.3569V66.2845V66.212L81.8925 66.0672ZM84.6112 64.039L84.4662 63.8941L84.3212 63.7854L84.1037 63.713H83.8862C83.8137 63.7492 83.7412 63.7854 83.6687 63.8579L83.7412 63.9303L83.8137 63.8579L84.2487 64.039V64.0752L84.3937 63.9303L84.4662 64.1114L84.575 64.1476L84.6475 64.0752L84.6112 64.039ZM83.4875 64.0027H83.4512V64.0752L83.4875 64.1114H83.56V63.9665L83.4875 64.0027Z" fill="url(#paint13_radial)"/>
<path d="M78.9565 99.6411C83.4514 100.691 88.2 101.416 93.0936 101.85C93.9636 112.1 96.5011 121.915 100.343 131.042C100.67 131.078 100.96 131.114 101.286 131.114C97.4073 122.024 94.8698 112.245 93.9636 101.923C97.0085 102.14 100.09 102.285 103.243 102.285C109.986 102.285 116.474 101.705 122.673 100.619C120.897 113.476 113.393 124.559 102.881 131.187C103.062 131.187 103.243 131.187 103.425 131.187C103.787 131.187 104.113 131.187 104.476 131.187C114.698 124.342 121.875 113.295 123.579 100.51C129.415 99.46 134.925 97.9026 140 96.0193C140 95.7295 140 95.4398 140 95.1138C134.925 97.0334 129.451 98.5545 123.652 99.6411C123.833 98.0475 123.905 96.4177 123.905 94.7878C123.905 79.4314 115.931 65.8859 103.896 58.0266C103.715 58.0266 103.533 58.0266 103.352 58.0266C102.99 58.0266 102.663 58.0266 102.301 58.0266C114.734 65.5599 122.999 79.2141 122.999 94.7154C122.999 96.4177 122.89 98.0837 122.709 99.7135C116.511 100.836 109.949 101.416 103.171 101.416C100.017 101.416 96.8998 101.271 93.8186 101.054C93.6011 98.5183 93.5286 95.9468 93.5286 93.3753C93.5286 80.9526 95.9211 69.0731 100.162 58.1353C99.836 58.1715 99.546 58.2077 99.2197 58.2439C94.9786 69.1455 92.6587 80.9888 92.6587 93.3753C92.6587 95.9468 92.7674 98.4821 92.9486 101.017C88.0188 100.583 83.3064 99.8221 78.7753 98.808C78.6303 97.3955 78.5578 96.0555 78.5578 94.643C78.5578 79.4314 86.5326 65.9946 98.531 58.3888C97.8423 58.4612 97.1898 58.6061 96.5373 58.7148C85.1551 66.6465 77.724 79.7936 77.724 94.6792C77.724 96.0193 77.7965 97.3593 77.9053 98.6632C74.0266 97.7577 70.2567 96.5987 66.7406 95.2949C66.7406 95.5846 66.7406 95.8744 66.7768 96.2003C70.293 97.5404 74.0991 98.6632 77.9778 99.5686C79.3915 112.354 86.3876 123.509 96.5011 130.571C97.1535 130.716 97.8423 130.789 98.4948 130.897C87.9825 124.052 80.5152 112.752 78.9565 99.6411Z" fill="url(#paint14_radial)"/>
<path d="M123.471 93.702C124.251 93.702 124.884 93.0696 124.884 92.2895C124.884 91.5093 124.251 90.877 123.471 90.877C122.69 90.877 122.057 91.5093 122.057 92.2895C122.057 93.0696 122.69 93.702 123.471 93.702Z" fill="url(#paint15_radial)"/>
<path d="M111.363 66.7198C112.144 66.7198 112.777 66.0874 112.777 65.3073C112.777 64.5272 112.144 63.8948 111.363 63.8948C110.582 63.8948 109.949 64.5272 109.949 65.3073C109.949 66.0874 110.582 66.7198 111.363 66.7198Z" fill="url(#paint16_radial)"/>
<path d="M116.04 120.684C117.141 120.684 118.033 119.793 118.033 118.692C118.033 117.592 117.141 116.7 116.04 116.7C114.938 116.7 114.046 117.592 114.046 118.692C114.046 119.793 114.938 120.684 116.04 120.684Z" fill="url(#paint17_radial)"/>
<path d="M93.5653 103.554C94.7665 103.554 95.7402 102.581 95.7402 101.381C95.7402 100.181 94.7665 99.208 93.5653 99.208C92.3641 99.208 91.3904 100.181 91.3904 101.381C91.3904 102.581 92.3641 103.554 93.5653 103.554Z" fill="url(#paint18_radial)"/>
<path d="M95.2373 75.2898C96.2493 75.2898 97.0697 74.4701 97.0697 73.459C97.0697 72.4479 96.2493 71.6282 95.2373 71.6282C94.2253 71.6282 93.4049 72.4479 93.4049 73.459C93.4049 74.4701 94.2253 75.2898 95.2373 75.2898Z" fill="url(#paint19_radial)"/>
<path d="M81.3492 112.825C82.3301 112.825 83.1254 112.031 83.1254 111.051C83.1254 110.071 82.3301 109.276 81.3492 109.276C80.3682 109.276 79.573 110.071 79.573 111.051C79.573 112.031 80.3682 112.825 81.3492 112.825Z" fill="url(#paint20_radial)"/>
<path d="M5.04902 105.346C5.53346 105.346 5.92617 104.629 5.92617 103.746C5.92617 102.863 5.53346 102.146 5.04902 102.146C4.56459 102.146 4.17188 102.863 4.17188 103.746C4.17188 104.629 4.56459 105.346 5.04902 105.346Z" fill="#2F3349"/>
<path d="M4.87715 105.346C5.36159 105.346 5.7543 104.629 5.7543 103.746C5.7543 102.863 5.36159 102.146 4.87715 102.146C4.39271 102.146 4 102.863 4 103.746C4 104.629 4.39271 105.346 4.87715 105.346Z" fill="#2CD8CF"/>
</g>
<defs>
<linearGradient id="paint0_linear" x1="106.953" y1="18.6238" x2="110.496" y2="14.8146" gradientUnits="userSpaceOnUse">
<stop stop-color="#8292A3"/>
<stop offset="0.4678" stop-color="#BFC7D3"/>
<stop offset="1" stop-color="#505F70"/>
</linearGradient>
<linearGradient id="paint1_linear" x1="17.8408" y1="48.7982" x2="-0.293372" y2="66.9323" gradientUnits="userSpaceOnUse">
<stop stop-color="#D8E8F3"/>
<stop offset="0.6733" stop-color="#505F70"/>
</linearGradient>
<linearGradient id="paint2_linear" x1="18.3723" y1="31.9936" x2="6.39776" y2="43.9681" gradientUnits="userSpaceOnUse">
<stop offset="0.3762" stop-color="#D8E8F3"/>
<stop offset="0.6658" stop-color="#7FA6CD"/>
<stop offset="1" stop-color="#35353A"/>
</linearGradient>
<linearGradient id="paint3_linear" x1="107.5" y1="-7.5" x2="13.9998" y2="122" gradientUnits="userSpaceOnUse">
<stop stop-color="#404E74"/>
<stop offset="0.504408" stop-color="#515E84"/>
<stop offset="0.597917" stop-color="#5B6991"/>
<stop offset="0.641763" stop-color="#4C577A"/>
<stop offset="0.775163" stop-color="#545F83"/>
<stop offset="1" stop-color="#2D354F"/>
</linearGradient>
<linearGradient id="paint4_linear" x1="23.1002" y1="76.4941" x2="-8.58433" y2="108.179" gradientUnits="userSpaceOnUse">
<stop stop-color="#495376" stop-opacity="0"/>
<stop offset="0.6386" stop-color="#495376"/>
</linearGradient>
<linearGradient id="paint5_linear" x1="9.99708" y1="71.9092" x2="115.436" y2="71.9092" gradientUnits="userSpaceOnUse">
<stop stop-color="#5F6B93"/>
<stop offset="0.651916" stop-color="#647197"/>
<stop offset="0.995" stop-color="#3D538C"/>
</linearGradient>
<linearGradient id="paint6_linear" x1="11.0001" y1="92.9993" x2="116.477" y2="72.4729" gradientUnits="userSpaceOnUse">
<stop stop-color="#434763"/>
<stop offset="0.651916" stop-color="#353952"/>
<stop offset="0.995" stop-color="#30344C"/>
</linearGradient>
<linearGradient id="paint7_linear" x1="11" y1="83.4995" x2="4.55091e-05" y2="83.4995" gradientUnits="userSpaceOnUse">
<stop stop-color="#2B2E43"/>
<stop offset="1" stop-color="#353A54"/>
</linearGradient>
<linearGradient id="paint8_linear" x1="19.9715" y1="91.2727" x2="87.7747" y2="59.299" gradientUnits="userSpaceOnUse">
<stop stop-color="#2B2F44"/>
<stop offset="0.995" stop-color="#1E2344"/>
</linearGradient>
<linearGradient id="paint9_linear" x1="23.1039" y1="73.9966" x2="82.9726" y2="73.9966" gradientUnits="userSpaceOnUse">
<stop stop-color="#434D68"/>
<stop offset="0.245" stop-color="#5D698B"/>
<stop offset="0.4728" stop-color="#485678"/>
<stop offset="0.6955" stop-color="#3C455E"/>
<stop offset="1" stop-color="#343D53"/>
</linearGradient>
<linearGradient id="paint10_linear" x1="45.5" y1="81" x2="62.5" y2="71" gradientUnits="userSpaceOnUse">
<stop stop-color="#5E6B93"/>
<stop offset="1" stop-color="#3F4B6C"/>
</linearGradient>
<linearGradient id="paint11_linear" x1="40.3668" y1="72.9111" x2="67.761" y2="77.2577" gradientUnits="userSpaceOnUse">
<stop stop-color="#687395"/>
<stop offset="0.245" stop-color="#667292"/>
<stop offset="0.4282" stop-color="#5D6380"/>
<stop offset="1" stop-color="#434C6B"/>
</linearGradient>
<radialGradient id="paint12_radial" cx="0" cy="0" r="1" gradientUnits="userSpaceOnUse" gradientTransform="translate(94.8956 83.6306) scale(41.9541 41.9181)">
<stop offset="0.1458" stop-color="#96A1BB"/>
<stop offset="0.8886" stop-color="#5F6A8D"/>
<stop offset="1" stop-color="#4E5E83"/>
</radialGradient>
<radialGradient id="paint13_radial" cx="0" cy="0" r="1" gradientUnits="userSpaceOnUse" gradientTransform="translate(92.2865 81.2033) scale(47.3152 47.2746)">
<stop offset="0.21875" stop-color="#F3F5F7" stop-opacity="0.5"/>
<stop offset="0.614583" stop-color="#D5D9DF" stop-opacity="0.2"/>
<stop offset="1" stop-color="#D4D8DE" stop-opacity="0"/>
</radialGradient>
<radialGradient id="paint14_radial" cx="0" cy="0" r="1" gradientUnits="userSpaceOnUse" gradientTransform="translate(103.437 94.5805) scale(36.6167 36.5853)">
<stop stop-color="#24DEDD"/>
<stop offset="0.859375" stop-color="#24D2D1"/>
<stop offset="1" stop-color="#25DFDE" stop-opacity="0"/>
</radialGradient>
<radialGradient id="paint15_radial" cx="0" cy="0" r="1" gradientUnits="userSpaceOnUse" gradientTransform="translate(123.488 92.3051) scale(1.41701 1.4158)">
<stop offset="0.2738" stop-color="white"/>
</radialGradient>
<radialGradient id="paint16_radial" cx="0" cy="0" r="1" gradientUnits="userSpaceOnUse" gradientTransform="translate(111.38 65.3229) scale(1.41701 1.4158)">
<stop offset="0.2738" stop-color="white"/>
</radialGradient>
<radialGradient id="paint17_radial" cx="0" cy="0" r="1" gradientUnits="userSpaceOnUse" gradientTransform="translate(116.048 118.686) scale(1.98071 1.97901)">
<stop stop-color="white"/>
</radialGradient>
<radialGradient id="paint18_radial" cx="0" cy="0" r="1" gradientUnits="userSpaceOnUse" gradientTransform="translate(93.5742 101.374) scale(2.16077 2.15892)">
<stop stop-color="white"/>
</radialGradient>
<radialGradient id="paint19_radial" cx="0" cy="0" r="1" gradientUnits="userSpaceOnUse" gradientTransform="translate(95.2449 73.4527) scale(1.82045 1.81889)">
<stop stop-color="white"/>
</radialGradient>
<radialGradient id="paint20_radial" cx="0" cy="0" r="1" gradientUnits="userSpaceOnUse" gradientTransform="translate(81.3707 111.07) scale(1.78035 1.77882)">
<stop offset="0.2738" stop-color="white"/>
</radialGradient>
<clipPath id="clip0">
<rect y="9" width="140" height="122" fill="white"/>
</clipPath>
</defs>
</svg>
