<svg width="140" height="140" viewBox="0 0 140 140" fill="none" xmlns="http://www.w3.org/2000/svg">
<g clip-path="url(#clip0)">
<path d="M139.787 70.0063C139.787 108.538 108.463 140.001 69.8613 140.001C52.3279 140.001 36.2498 133.487 23.9141 122.745C9.22202 109.855 -0.0644531 91.0049 -0.0644531 70.0063C-0.0644531 68.8282 -0.0644531 67.7194 0.00484894 66.6105C0.00484894 66.3333 0.00484894 65.9868 0.074151 65.7096C0.143453 64.5315 0.212755 63.284 0.420661 62.1059C0.69787 59.8882 1.04438 57.7399 1.46019 55.5222C1.5988 54.8292 1.8067 54.0669 1.94531 53.3739C2.15321 52.4729 2.43042 51.572 2.63833 50.7404C3.60856 47.3446 4.85599 44.0874 6.24203 40.9688C6.79645 39.7907 7.42017 38.6125 7.97459 37.4344C7.97459 37.3651 8.04389 37.2958 8.11319 37.2265C8.18249 37.0879 8.25179 36.88 8.3904 36.7414C8.3904 36.6721 8.4597 36.6721 8.4597 36.6028C9.56853 34.593 10.6774 32.7218 11.9941 30.8507C13.7267 28.2865 15.5978 25.8609 17.6769 23.574C18.2313 22.9502 18.7857 22.3265 19.3401 21.7028C20.1718 20.8019 21.0727 19.901 21.9736 19.0693C22.9438 18.1684 23.9834 17.2675 25.0229 16.3666C27.2406 14.4954 29.5968 12.7628 32.0917 11.1689C32.2303 11.0996 32.3689 11.0303 32.5075 10.8917C35.6261 8.88193 38.9526 7.14938 42.3484 5.69403C42.6949 5.55543 43.0414 5.41683 43.3186 5.27822C43.3879 5.27822 43.4572 5.20892 43.5266 5.20892C45.6749 4.37729 47.8926 3.54567 50.1102 2.92195C51.1498 2.57544 52.1893 2.29823 53.2981 2.09033C53.714 1.95172 54.1298 1.88242 54.6149 1.74382C58.8423 0.773587 63.2083 0.219171 67.7823 0.0805664C68.1288 0.0805664 68.4753 0.0805664 68.8911 0.0805664C69.2376 0.0805664 69.5841 0.0805664 69.9306 0.0805664C88.7115 0.0805664 105.76 7.49589 118.303 19.5544C131.54 32.2367 139.787 50.186 139.787 70.0063Z" fill="url(#paint0_radial)"/>
<path d="M40.4081 117.2V116.784L40.2695 116.299L40.4081 116.16V115.883L40.2695 115.675V115.328L39.9923 115.19L39.8537 115.398V115.744L39.5072 116.16H39.4379L39.2993 116.437L39.4379 116.576L39.1607 116.853V117.2L38.6755 117.685L38.5369 117.546L38.2597 117.823L38.1211 118.17L37.636 118.378L37.2895 118.794H36.8044L36.6658 118.655L36.5965 118.794H35.9728L35.7649 119.001L35.6263 118.863L35.4183 119.001H35.2797L35.4183 119.14L35.0718 119.487L34.7253 119.902L35.0025 120.249L34.7946 120.387L34.8639 120.457V120.803L35.0025 121.358L35.1411 121.635V121.773V121.912V122.051L34.9332 122.674L34.7946 122.813L34.656 123.298H34.5867L34.4481 123.437V123.783L34.1709 124.06L33.963 124.13V124.407L33.6858 124.684V125.239L34.0323 125.654L33.963 125.793H34.1016V126.347L33.8937 126.486V127.04L34.0323 127.179L34.1709 127.318L34.3095 127.526L34.5174 127.456L34.656 127.664L34.9332 127.941H35.2797L35.4183 127.872L35.5569 127.595L36.3886 127.526H36.5965L36.7351 127.456L36.8737 127.318L37.0123 127.11L37.1509 126.833V126.555L37.2895 126.417L37.0123 126.14L37.4281 125.862V125.377H37.7746V125.308L37.9132 124.684L38.0518 124.338V124.199L38.1904 123.714L38.5369 123.367L38.8141 122.467L38.9528 122.259V121.981L39.0914 121.635L39.1607 121.427L39.3686 121.08L39.5072 120.595L39.6458 120.18L39.7151 120.041L39.7844 119.902L39.6458 119.764V119.279L39.9923 119.001V118.863L40.1309 118.724L39.8537 118.447L39.9923 118.308V117.407H40.6853L40.8239 117.546L40.4081 117.2ZM24.2607 123.021L24.3993 123.16V123.09C24.33 123.09 24.2607 123.021 24.2607 123.021ZM24.3993 123.16L24.33 123.367L24.4686 123.229L24.3993 123.16ZM42.0713 91.6964L41.8634 91.4885L42.002 91.142L41.7941 90.9341L41.9327 90.7955H41.4476L41.309 90.9341L41.0318 91.0727L40.7546 91.3499L40.616 91.2113L40.3388 91.3499L39.6458 91.4885H39.3686L39.23 91.3499H39.0914L38.8141 91.4885H38.5369L38.2597 91.6271L38.0518 91.4885H37.9825L37.3588 91.9043L36.943 92.0429H36.8044H36.1807L35.9035 92.1815H35.6956L35.5569 92.3201L35.4183 92.4587L35.0025 92.5973L34.5867 92.4587L34.4481 92.3201H34.3095L34.1709 91.9736L33.5472 91.2806L33.4086 91.3499H33.2007L32.3691 90.5183H33.27L33.4086 90.3104H33.5472L33.6165 90.2411V90.1024L33.5472 90.0332L33.2007 89.8945H32.9235L32.6463 89.2015L32.5077 89.0629L32.3691 88.7857H32.2304L31.9532 88.5085L31.7453 88.3699L31.4681 88.0927L31.1216 87.7462L30.8444 87.6076L30.7058 87.469L30.5672 87.6076L30.4286 87.469L30.29 87.6076L30.1514 87.469L29.3198 87.1225L29.1812 86.776L29.1119 86.6374L28.9733 86.4987V86.3601H28.8347L28.5574 85.3206L28.2109 84.2811L27.4486 83.5188H27.8644V83.1722L27.5872 83.0336L27.2407 82.895L26.8942 82.4099L26.7556 81.7862L26.8249 81.4397L26.7556 81.0932L26.4784 80.2616V79.8457V79.7071L26.3398 79.5685L26.2012 79.4299V79.2913L26.0626 79.1527V78.9448H25.9933L25.5775 78.5983L25.2309 78.4597V78.3211H25.023L24.6072 77.9746L24.2607 77.143L24.3993 77.0044L24.33 76.9351V76.7965L24.1914 76.6579L24.0528 76.3113L23.7063 75.8955L23.4291 75.7569L23.2905 75.4104L22.5975 74.3709V74.0244L22.5282 73.8858L22.4589 73.5393L22.3203 73.4007V73.3314L21.9737 72.9848V72.569L22.043 72.4304L21.4886 71.876L21.35 71.5988L20.9342 71.0444V70.8365L20.7263 70.5593V70.1435L21.1421 69.6583L21.2114 69.7276L21.0728 69.3118L20.8649 69.1732L20.7263 68.896H20.0333L19.6868 69.0346L19.5482 68.896L19.4096 69.0346L19.1324 69.1732L18.7858 69.5197H18.2314L17.8849 69.3118H17.9542L17.677 69.1732L17.5384 69.3118L17.1226 68.9653L16.8454 68.896L16.0138 68.7574H15.7366L15.39 69.1039L15.1128 68.4109L14.9742 68.2723L14.8356 68.3416L14.004 68.203L13.9347 68.1337H13.7961V68.4109L13.1031 67.9951H12.9645L12.618 67.9258L12.5487 67.9951L12.2022 67.8565L11.9942 67.9951L11.4398 68.1337L11.0933 68.2723L10.9547 68.4109L10.8161 68.6881L10.7468 68.7574V69.1039L10.8854 69.3118L11.024 69.8663L10.8854 70.2128L10.4696 70.6286L10.0538 70.9751L9.63798 71.1137L8.94496 70.7672L8.52914 70.4207L8.25194 70.2821L7.83612 70.1435L7.1431 69.8663H7.0045H6.38078L5.89567 69.5197L5.54916 68.6881V68.4109L5.47985 68.2723L4.99474 68.203L4.64823 67.9951H4.16311L3.88591 67.9258L3.19289 67.9951L2.49987 67.8565L2.22266 67.5793H2.08405H2.01475L1.66824 67.2328L1.59894 67.1635L1.46033 67.3021L1.11382 66.9556H1.04452L0.490106 66.6091L0.420803 66.4704C0.351501 67.5793 0.351501 68.7574 0.351501 69.8663C0.351501 90.8648 9.63798 109.784 24.33 122.605V122.536L24.1914 122.189L24.33 122.051L24.2607 121.981V121.427H24.7458H24.8151H24.8844V121.288L25.7161 120.734H25.8547L25.924 120.665V120.526L26.3398 120.249L26.4091 120.11L26.4784 120.041L26.8249 119.001L26.8942 119.209V118.932L27.3793 119.417L27.5872 119.279H27.6565V118.932L28.2109 119.14L28.5574 118.932L28.6267 118.794H29.0426L29.4584 118.586V118.239H29.8742V118.1L29.9435 117.962L29.597 117.615L29.9435 117.269L30.2207 116.992V116.784V116.645H30.1514L29.8742 116.368V116.021L29.5277 115.675H30.1514V115.467L30.0128 115.12L30.1514 114.982L30.0821 114.913V114.358L29.9435 113.804V113.457L30.0821 113.319L29.9435 113.18L30.2207 112.903V112.834L30.1514 112.764L29.8742 112.626L29.3198 112.071L29.4584 111.725V111.655L29.2505 111.447L29.3891 111.17L29.3198 111.032L28.696 110.408H29.5277L29.3891 110.2L29.5277 110.061L29.3891 109.923V109.368L29.5277 109.022L29.6663 108.883L29.597 108.537L29.4584 108.398V107.982L29.7356 107.567L30.0128 106.804L29.4584 106.25H30.3593L30.6365 105.765L30.7751 105.488V105.21L31.1216 104.864V104.448L31.3295 104.24V104.101L31.6067 103.824H31.8839H32.0225L32.2998 103.547H32.3691L33.2007 102.577V103.616L33.3393 103.408L33.4779 103.131L33.8244 102.785L33.963 102.715L34.0323 102.577L34.1709 102.438L34.7946 101.745L35.0025 101.607L35.6956 100.914L36.0421 100.636L36.3886 100.359L36.7351 100.221L37.1509 99.874L38.1904 98.9038L38.7448 98.2801L38.8141 98.0722L39.5072 97.1713V97.0327L39.8537 96.4782V96.201L40.4774 95.0229V94.8843V94.5378L40.8932 94.122H41.0318L41.1011 94.0527L41.309 93.5676L41.6555 93.0824V92.9438H41.2397L42.0713 92.1122H41.9327L42.0713 91.6964ZM97.1665 105.488L97.0279 105.349L96.9586 105.21L96.82 105.072L96.6814 105.141L96.1269 104.933V104.587L95.9883 104.448L96.2655 104.379L95.919 104.24V104.101V103.963V103.894L95.5725 104.032V103.824H95.2953L94.8102 103.339V103.27L93.4935 104.101L94.6023 102.577H93.5628L94.0479 102.092H93.9093L93.4242 101.537V101.26L93.147 100.983L93.0084 101.121L92.5925 100.775V100.706L91.4144 100.221H91.6223L91.1372 99.3889V99.1117H90.9293L90.7214 98.8345L90.3749 98.488H90.0977L89.8204 98.2108H89.3353V97.5871H89.1967L89.1274 97.3099H89.0581L88.9195 96.9634H88.8502L88.5037 97.102L88.3651 96.9634H88.2958L87.9493 97.102L87.6028 96.9634L87.187 96.6169L87.3256 96.9634L87.5335 97.0327L87.88 97.4485H88.0186L88.2958 97.795L88.4344 97.6564L89.0581 98.0722L89.4046 98.6266L89.6125 98.7652H89.9591V99.3196V99.4582H90.2363L90.5135 99.874H90.5828H90.9293V100.29H90.9986L91.0679 100.636V100.706L91.2758 101.26V101.329H91.4144L91.8995 101.676V102.022L92.0381 102.3L92.3153 102.577L92.4539 103.131L92.8697 103.824L92.7311 104.171L92.8004 104.309L93.0776 104.448L93.4935 104.933L93.5628 105.141L93.9786 105.21V105.418L94.3251 105.557V105.765H94.4637L94.8102 106.181L95.3646 106.527V106.666H95.6418L96.2655 107.289H96.6121L96.6814 106.943L97.1665 107.081L97.3051 106.666L97.1665 106.319L97.3051 105.973L97.2358 105.903L97.1665 105.488ZM111.581 106.735L111.443 106.874V107.151L111.304 107.359V107.567H111.443V107.151L111.581 107.012V106.874V106.804V106.735ZM113.799 106.596V106.458H113.66L113.522 105.903H113.314L113.591 105.557L113.452 105.21L113.175 104.933L113.037 104.725L112.759 104.517V104.24L112.413 104.101L112.205 104.032L111.859 103.686L111.581 103.339L111.443 103.547H111.304L111.443 103.824L111.304 104.101V104.448L111.235 104.587V104.864L111.096 105.002V105.349L110.75 105.488V105.834H111.373V106.319L111.581 106.735L111.859 106.181L111.789 106.042L111.651 105.765V105.418L111.997 105.21L112.136 105.072L112.69 104.864L113.037 105.21L113.245 105.557V106.042L113.106 106.181L113.245 106.319L113.66 106.527V107.012L113.799 106.874H114.007L113.799 106.596ZM108.671 97.5871H108.809V96.9634L109.433 97.4485V96.8941L109.156 96.5475H109.086H108.74V96.0624L108.463 95.7159L108.324 95.8545H108.186V95.9931H108.047L107.908 96.2703V96.5475L107.354 97.102L107.215 97.4485H107.007H106.869L106.176 98.6266V97.4485L105.829 97.5178V97.5871V97.8643L105.344 98.3494L105.067 98.6959V98.8345L104.79 99.2503L104.443 99.5275L103.819 99.6661L104.512 100.706L103.404 100.151V100.428L103.196 100.29V100.567L103.057 100.914V101.329L102.156 101.191L101.81 100.983H101.394L101.255 100.706L101.117 101.052L100.978 101.191V101.399V101.607V101.815L101.117 102.092L101.394 102.369H101.463L103.542 101.329L101.81 103.131L102.018 103.408L102.156 103.616V104.101L102.018 104.24L102.156 104.309V105.002L102.433 104.794L102.572 105.141H102.711L102.849 105.28L103.126 105.141H103.196L103.542 104.656L103.889 105.349V105.695L104.097 105.557L104.235 105.695L104.443 105.626L104.512 105.349H105.067L105.206 105.488H105.483L105.621 105.28L105.968 105.765L106.245 105.626L106.314 105.834H106.453L106.799 106.25L106.661 106.319L106.869 106.25H107.077L107.285 106.111L107.423 105.765V105.072L106.453 105.488L107.492 104.448L107.077 104.032H107.908L108.047 103.894L107.146 103.339H108.324V103.201L108.671 102.923V102.438L108.809 102.3V101.745H108.948L109.225 101.399L109.086 100.636L108.671 100.428L109.294 100.013L109.017 99.7354V99.5275L108.671 99.2503L108.948 98.9038L108.74 98.488L108.809 98.4187L108.324 98.2801L108.948 97.9336L108.671 97.5871ZM118.442 105.834H118.304H118.512H118.442ZM113.799 103.547H113.66L113.383 103.616L113.245 103.478L113.175 103.547L113.037 103.824H113.245L113.383 103.686L113.799 103.547ZM112.967 101.537L112.829 101.329L112.552 101.607H112.621H112.759L113.037 101.537H112.967ZM94.6023 101.052L94.6716 100.983V100.914L94.6023 101.052ZM94.8102 100.359L94.6716 100.221V100.082L94.533 99.9433L94.3944 99.6661L93.7707 99.0424L94.1865 98.7652V98.488L94.0479 98.3494V97.8643L94.1865 97.7257V97.1713V97.0327L94.0479 96.7555L93.3549 96.0624H92.6618V95.8545L92.5232 95.7852L92.3846 95.4387V95.3001H92.0381L91.7609 95.5773L91.0679 94.8843L90.7214 94.815V94.122L91.1372 93.9834L90.9986 93.8448V93.5676H90.86L90.7214 93.3596L90.4442 93.0824V92.9438L89.7512 93.0824L89.4046 92.7359L89.5432 92.4587L89.4046 92.2508V92.1122L89.3353 91.9043L89.1967 92.3201L89.3353 92.4587L89.1967 92.5973H89.3353V93.4289L89.6818 93.2904V93.7755L89.8204 93.9141V94.0527L89.9591 94.122L90.0284 94.3992H90.0977L90.4442 94.815L90.5828 94.8843L90.6521 95.0229H90.86V95.4387L91.1372 95.5773L91.2758 95.7159L91.553 96.1317L91.6916 96.9634L91.7609 97.1713L91.8995 97.5178L91.7609 98.0722L92.1074 98.4187L91.9688 98.5573L92.1074 98.6959L92.246 98.9038L92.5232 99.0424L92.8004 99.5968L92.6618 99.7354L93.2163 100.428L93.5628 100.29L93.7014 100.428H94.2558L93.9093 100.706L94.1172 100.914L94.4637 100.983L94.6023 101.052V100.775L94.9488 101.121V100.914L94.8102 100.359ZM92.5232 99.7354L92.3153 99.9433L92.246 100.221H92.5925L92.5232 99.7354ZM91.7609 100.082L91.6223 100.221H91.8995L91.7609 100.082ZM116.086 95.3001V95.3694L116.155 95.5773H116.432L116.64 95.7159L116.086 95.3001ZM72.8415 94.6764V94.5378L72.5643 93.9834V93.9141H72.287V93.7755H71.4554L71.3861 94.122V94.3299L71.5247 94.6764L71.4554 94.815L71.594 95.1615L71.7326 95.7159H71.9405L72.0791 95.6466H72.5643L72.7029 95.5773L72.8415 95.4387L72.9801 95.1615L72.8415 94.6764ZM117.541 93.7062L117.403 93.221L117.541 92.9438L117.403 92.8052V93.4983L117.056 93.221L116.779 93.5676L116.64 93.4289V93.5676L116.017 93.9141L115.67 94.0527L116.017 94.3992L116.64 95.5773L116.779 95.4387L116.571 95.3001L116.71 94.8843L117.056 94.2606L117.541 94.122V93.7062ZM114.977 93.5676V93.7062L115.046 93.5676H114.977ZM71.8019 93.2904V92.8745H71.6633V93.221H71.4554V93.5676L71.8712 93.2904H71.8019ZM25.924 18.5134L25.7854 18.4441V18.5827L26.1319 18.652L25.924 18.5134ZM26.617 17.1274V16.9888L26.4784 16.9195L26.1319 16.573V16.3651L25.7854 16.2958L25.5082 16.3651L25.7854 16.7809V16.9195L26.0626 17.1967L25.7854 17.4739L25.924 17.8204L25.6468 17.8897V18.2362V18.3055L25.8547 18.3748V17.8897L25.9933 17.7511L25.924 17.6818L26.3398 17.266H26.617V17.1274ZM120.383 40.8287L120.66 40.5515V40.4822L120.521 40.2743V39.9971H120.452L120.313 39.1654L120.175 39.0268V38.6803L119.967 38.4724L119.759 37.9873L119.828 37.918H119.759L119.482 37.0171V36.8092L119.412 36.6706L119.274 36.0468L119.343 35.9775L119.205 35.5617L119.274 35.4231L119.135 35.2845L119.274 35.1459L119.135 35.0073L118.997 34.6608L118.858 34.5915L118.512 34.245V33.7599L118.581 33.6906L118.512 33.552H118.234L117.68 32.9975L117.957 32.7203V32.5817V32.4431H117.818L117.68 32.2352H117.541L117.403 32.0966L116.918 31.8887L116.848 31.8194L116.571 31.6808L116.363 31.4729L116.294 31.3343H115.947L115.878 31.265L115.809 31.3343H115.67L115.809 31.4729H115.601V31.7501H115.462L115.324 32.0273V32.0966L115.185 32.2352L115.324 32.3738L115.185 32.7203L114.492 33.4134V33.1362L113.938 33.2748L113.799 33.1362V33.2055L112.967 32.5124L113.106 32.1659V32.0273L112.829 31.6808V31.1957L112.621 31.265L112.344 31.5422H111.859L111.72 31.4036L111.581 31.4729L111.096 31.265L110.888 30.7799L111.165 30.1562L111.304 29.9483V29.671L111.581 29.3938V29.0473L111.859 28.8394V28.4929L111.997 28.3543V28.285L112.274 27.9385L112.413 27.6613L112.552 27.5227L112.413 27.3148L112.552 27.1762V26.899L112.69 26.0673H112.829L112.898 25.7208H112.967V25.6515L113.314 25.2357L113.452 24.9585L113.591 24.8199L113.452 24.4734L113.591 24.3348V24.1269L113.73 23.9883L113.66 23.8497V23.4339L113.522 23.0874L113.868 22.6022L114.076 22.325V22.1864L113.799 21.7706L113.938 21.3548L114.145 21.1469L114.284 20.8697L114.631 20.5925L114.769 20.246H115.324V20.3153L115.601 20.1074H115.878L116.155 19.8995H116.571L116.779 19.6916H117.125L117.264 19.345L117.749 19.5529L118.234 19.345L118.581 19.4836C106.037 7.42509 88.9888 0.00976562 70.208 0.00976562C69.8615 0.00976562 69.515 0.00976562 69.1684 0.00976562L68.8912 0.286974H68.6833L67.5052 1.46511L68.0596 0.079068C63.555 0.217672 59.189 0.772088 54.8922 1.74232L55.6545 1.95022H53.6448C52.6053 2.22743 51.4964 2.50464 50.4569 2.78185L50.6648 3.12836V3.40557H50.7341L50.8727 3.82138L51.0113 3.89068H51.1499L51.7043 3.95998L52.3973 3.26696V4.02929L52.536 4.23719L52.6746 4.3758L52.8132 4.5144H53.229L53.5755 4.72231H53.6448L54.0606 5.13812L54.1992 5.83114L54.3378 6.17765L54.2685 6.31625L54.5457 6.45486L54.9615 7.07858V7.42509L55.2387 7.63299L55.3773 8.04881L55.2387 8.46462H55.308V8.60322L55.8624 9.15764L55.9318 9.22694L56.0011 9.15764L56.2783 9.29624L56.4862 9.15764L57.5257 8.88043L57.2485 9.22694L57.3871 9.36555L57.5257 9.43485H57.9415L58.5652 11.306L57.4564 10.1972H57.1792L56.7634 9.85066V10.1972V10.2665L57.4564 11.999L56.0011 10.5437H55.6545L55.2387 10.1279V9.78136L54.9615 9.71206H54.5457L53.8527 9.29624H53.2983L53.1597 8.25671L53.2983 7.9795L52.9518 7.70229V7.28648L52.8132 6.93997L53.1597 6.66276V6.38556L53.0211 6.10835L52.8825 5.96974L52.6746 6.10835L51.9815 6.24695H51.5657L51.1499 5.83114L50.8727 5.69253L50.8034 5.55393L50.3183 5.48463L49.9718 5.13812L49.8332 4.99951H49.0709L49.4174 5.13812L49.8332 5.83114L49.4867 6.52416L49.0016 6.66276L48.3778 6.38556L48.2392 6.31625L48.1699 6.10835H48.1006L47.962 6.24695L47.8927 6.31625H48.0313L48.1699 6.66276L48.3085 6.80137H48.655L48.9322 7.07858H49.2095L49.2788 7.00927H49.6946L49.8332 7.21718H50.1797L50.3183 7.63299L50.3876 7.70229V7.8409H50.5262L52.1894 7.14788L50.7341 8.60322L51.0806 9.43485L50.249 8.60322H49.9718L49.3481 8.18741H49.0016L48.5164 8.67252L48.3778 8.18741H48.2392H47.6848L47.4769 8.04881L47.1304 8.18741L46.7839 7.35578L46.9918 7.28648L46.8532 7.14788V7.07858L46.6453 6.80137L46.5067 6.45486L46.1602 6.80137L46.2295 6.87067L46.2988 7.70229L46.1602 8.11811L46.4374 8.25671L46.9918 8.74183V8.88043H47.1304L47.4769 9.22694L47.8234 9.78136L47.7541 10.613V10.7516L47.962 11.0981L47.8234 11.5832V11.6525L48.1699 11.999L48.3085 12.3455L48.4471 12.2762L48.7243 12.3455V12.2762L49.1402 11.8604L49.4867 11.999L49.7639 11.8604L50.1104 12.0683L50.4569 11.9297L50.5955 12.3455L50.8727 12.4841H51.3578L51.7736 12.9693V13.0386L51.9815 13.1772L52.1201 13.4544L52.2587 13.593L52.328 13.7316L53.229 14.0781L52.2587 14.4939L52.3973 14.6325L52.6746 14.9097L52.6053 15.0483V15.1869L52.9518 14.7018L53.0904 15.1176H53.229L53.7141 15.6027L53.2983 15.9492L52.9518 16.0878L52.6746 16.2264L52.2587 16.3651L51.9122 16.0878H51.635L51.0806 15.5334L51.2192 15.3948V15.2562L51.0806 15.1176L50.6648 14.979L50.8034 14.6325H50.6648L50.5262 14.286L50.1104 14.0088V13.7316L49.9025 13.9395L49.6253 14.0781L49.4867 14.2167L49.3481 14.3553L49.4174 14.7018V14.7711L49.8332 14.979L50.1797 16.0185L50.0411 16.3651L49.7639 16.7116V16.8502L50.0411 17.1967L49.7639 17.8204V18.0976L49.4867 18.3748V18.7213L49.1402 18.8599V19.2064L48.655 19.6222L48.0313 19.4836L47.962 19.4143H47.8234L47.4076 19.5529L47.0611 19.345L46.2295 19.2064L45.9523 18.9292L45.8136 19.2757L45.4671 18.9292H44.7741L45.6057 17.959H46.0216L46.4374 17.8897L46.6453 17.6818L47.269 18.0283L47.3383 17.959H47.8927V17.6125L48.2392 17.7511V17.5432L47.8234 17.1274L48.3085 16.9195V16.7809L48.1699 16.6423L48.3085 16.2958V16.1571L48.4471 16.0185L48.2392 15.8106L48.1006 15.2562L48.2392 14.9097V14.5632L47.962 14.4246L47.8927 14.2167L47.5462 14.1474L47.0611 13.4544L46.9918 13.1079L46.8532 12.9693V12.8306H46.7146L46.576 12.3455L46.6453 12.0683L46.3681 11.6525V11.4446L46.0909 11.1674V10.9595L45.9523 10.8209L45.8136 10.1279V9.98926L45.5364 9.71206V9.50415L45.1899 9.64275V9.29624L45.0513 9.22694L44.982 8.74183L44.7741 8.53392L44.5662 8.04881L44.7741 7.8409L44.6355 7.49439L44.7741 7.35578V7.21718L44.9127 6.66276L44.8434 6.38556V6.10835L44.7048 5.96974V5.62323L44.5662 5.27672L44.0811 5.06882H44.0118L43.8732 5.20742C43.5267 5.34602 43.1802 5.48463 42.903 5.62323L42.6258 5.90044V6.03905L42.6951 6.10835V6.45486L42.7644 6.66276L42.903 7.49439V7.63299L43.1802 7.9102L42.903 8.25671V8.39532L43.0416 8.74183L42.6258 9.15764L42.2792 9.64275L42.4179 10.0586L42.2792 10.1972L42.4872 10.4051L42.6258 10.613H42.903L44.4276 12.1376L43.1802 11.6525V12.1376L42.903 12.3455L42.9723 12.4841L43.2495 12.6227V12.692L43.3881 12.7613H43.7346L43.8039 12.8306L44.0118 12.5534L44.4276 12.9693V13.3158H44.5662L45.0513 13.8702L45.1899 13.8009H45.2592L45.3978 13.9395H46.2988L45.6057 14.6325V15.1176L45.7444 15.3255L45.6057 15.4641V16.1571L44.7741 15.8106L44.4969 15.2562L44.3583 15.1176H43.9425L43.8039 14.7711L43.7346 14.7018L43.2495 14.6325L42.6951 14.286L42.2099 14.1474L42.1406 14.0088H41.7941L41.6555 13.8702L41.1704 14.3553L40.8239 13.593L40.4081 13.4544L40.1309 13.3158L39.4379 13.1772L38.6062 13.3158L38.4676 13.2465L38.2597 13.3851L38.1211 13.3158L37.9825 13.3851V13.4544V13.9395H38.0518V14.0781H38.2597L38.6062 14.6325V14.7018H38.6755L39.9923 16.0185L38.4676 15.5334V15.672L38.1904 15.8106L38.329 15.9492L38.1904 15.8799V16.1571L37.9132 16.4344H37.0123L36.7351 15.8799L36.8737 15.672L36.7351 15.3255L36.8737 15.1869H36.7351L36.5272 15.3255L36.4579 15.3948V15.8106H35.7649V15.8799L35.2797 16.0878H34.656H34.5867L34.4481 16.2264L34.3095 16.0878L34.1709 16.2264L34.3095 16.2958L34.1016 16.5037L34.2402 16.6423L33.7551 17.1274L33.3393 16.9888L32.6463 18.7213V17.266L32.577 17.3353L32.0225 17.0581L31.9532 16.9195L31.2602 17.3353L30.7751 16.8502L30.8444 16.7809V16.5037L30.4286 16.6423H30.3593L30.0128 17.1274L29.8742 17.1967L29.4584 17.6818L29.7356 18.3748L28.696 18.2362H28.4188V18.5827L29.9435 18.3055L28.2109 19.345L28.0723 19.4836H27.8644L27.5179 19.8302L27.3793 19.5529H26.8942L26.4091 18.8599L26.0626 18.5827H25.9933L26.3398 18.9292L26.2705 19.1371L26.4091 19.2757L26.2705 19.345L26.1319 19.6916V20.246V20.3153L26.4784 21.8399L25.4388 20.8004L25.0923 20.6618L23.9835 21.7706L24.5379 20.3846L24.2607 20.4539L24.0528 20.246V20.6618L22.8747 21.4934L23.3598 20.3153L23.4291 20.1074V19.8302L23.0826 19.4836L23.0133 19.2757L22.8747 19.1371L22.8054 19.0678V19.2757L22.3203 18.9292C21.4193 19.7609 20.5184 20.6618 19.6868 21.5627H19.7561L19.8947 21.632L20.2412 21.4934L20.5877 21.8399L20.8649 21.9092L21.35 21.9785L21.6965 21.9092L21.8351 21.7706H22.1816L22.3203 21.7013L22.8747 21.5627V22.0478V22.1864L23.2905 22.6022L23.7063 23.2953L23.2212 23.7804L22.8054 24.0576L22.5282 24.7506L21.9737 24.1269L21.6965 23.9883V24.1962L21.8351 24.2655V25.2357L21.5579 25.5129H21.35L21.1421 25.7208H20.7263L20.5184 25.5129H20.2412L20.1026 25.3743H19.7561L19.4789 25.0971V24.9585H19.4096L19.3403 25.1664L18.6472 24.7506L17.9542 24.9585L18.3007 24.1269L18.2314 23.9883V23.8497L17.9542 23.6418V23.5032C15.9445 25.7901 14.004 28.2157 12.2715 30.7799V30.8492L12.618 31.1957L12.9645 31.0571H13.0338L13.4496 30.6413L13.7268 30.9185L13.8654 30.7799H13.7961C13.7961 30.7106 13.8654 30.6413 13.8654 30.6413L14.1426 30.2948L14.5584 30.7799V30.9185L14.6277 31.0571H15.1128L15.598 31.5422L15.3207 32.2352L14.9742 32.0966V32.1659L14.8356 32.3045L15.0435 32.4431L14.5584 32.651V33.1362L14.2119 32.7896L14.1426 32.9282V33.2748H12.6873L12.4101 33.1362H12.0635L11.9249 33.0669L11.5784 33.1362L11.1626 33.2748L11.024 33.1362L10.7468 33.2748L10.6082 33.6213H10.7468L10.4696 34.3143L10.8161 33.9678L11.1626 34.7994L11.024 35.4231V35.8389L11.1626 36.324L11.024 36.7399L10.6775 37.4329H10.1231L9.77658 37.0864L9.63798 36.8092L9.29147 36.3933L9.15286 36.4627L9.01426 36.6013H8.73705H8.66775H8.59845V37.4329L8.32124 37.1557L8.18263 37.2943V37.7794L8.04403 37.8487V37.9873L8.18263 38.1259V38.611V38.6803L8.39054 38.611L8.73705 39.0961H8.80635L9.29147 38.9575L9.56867 39.2347L9.70728 39.4426L9.98449 39.7198L9.84588 40.0664L9.98449 40.6901L8.45984 40.8287L7.42031 40.7594L7.0045 41.1059L6.51938 41.2445L6.38078 41.1059C4.92544 44.2245 3.7473 47.551 2.77707 50.8775L3.47009 51.1547V51.5705L3.88591 51.1547H4.44032L4.57893 51.5012L4.85614 51.8477L4.99474 52.1249L5.13334 52.2635L5.27195 52.4021H5.41055L6.58869 53.5803H6.72729L7.0738 53.7189L7.90543 54.5505L8.04403 54.4119L8.45984 54.897L8.73705 55.0356L9.22216 55.59L9.29147 55.7286L9.43007 55.7979L9.91518 56.2137L9.70728 56.6989H9.36077L9.29147 57.0454L9.43007 57.3919L9.36077 57.5998L9.43007 57.8077H9.63798L9.91518 58.3621L10.2617 58.5007V58.8472L10.5389 58.9858L10.6775 59.1244H10.9547V59.4709L11.0933 59.7481H11.2319L11.3705 59.6788L11.024 59.4709L11.4398 59.0551L10.8854 58.5007L11.0933 58.2928L11.024 57.9463L11.1626 57.4612L11.8556 57.184L11.9942 57.5305L12.2715 57.2533L12.5487 57.3919L12.618 57.184L13.1724 56.9068L13.4496 57.184V56.9068H14.1426L14.2812 57.1147H14.4891L14.9742 57.2533V57.3919L15.1128 57.2533L15.39 57.5305L15.9445 57.0454V57.1147L16.291 56.9761H16.5682L16.7068 56.8375L16.3603 56.491L16.2217 56.1444L16.0831 56.0058L15.39 55.1742H15.8752L16.0831 55.0356H16.1524L16.0138 54.4812L16.4989 54.0654H16.5682V53.9268V53.4417L16.4296 53.1645L16.5682 52.8872V52.7486L16.4296 52.4021L16.6375 52.1942L16.7761 51.8477H17.2612H17.3305V51.7784L17.1226 51.5705L17.3998 51.2933V50.1152H18.1621V49.7687L18.6472 49.6301H18.7858L19.1324 49.2835L19.4096 49.5607L19.6868 49.2835L20.0333 49.6301H20.1719L20.3105 50.1152L20.4491 50.1845L20.5877 50.1152L20.8649 50.2538L21.0035 49.9073L21.2114 50.1152L21.4193 49.9073L21.6272 50.0459L21.7658 49.9073L22.1123 50.0459L22.3203 49.9766L22.5282 49.6994L22.3203 49.0756H23.4984L23.5677 49.2142H23.7063L23.9835 49.3528L24.1221 49.2142H24.3993L24.4686 49.1449L24.6072 48.7984H24.8844V48.7291L25.1616 48.4519H25.5082L25.7161 48.3133H26.2012H26.2705L26.4091 48.1747L26.9635 48.0361L27.3793 48.4519L27.1714 49.0063L26.6863 49.2142L26.3398 49.7687L26.5477 49.838V50.2538L25.9933 50.8082L26.1319 50.9468L25.8547 51.7784L25.5775 51.6398L25.7161 51.7784V51.9863L26.0626 51.917L26.5477 52.1942L26.8249 52.3328L27.5179 52.8872L27.5872 53.0258L27.7258 53.0952L27.8644 53.2338H28.003H28.3495L28.4881 53.3724H28.6267H28.7653L29.0426 53.6496H29.1119L29.2505 53.511L29.8742 53.9961H30.0128L30.3593 54.4812L30.4979 54.7584L30.5672 55.1049L30.9137 55.59L30.4286 55.7979L30.5672 56.0058L30.29 56.283L30.1514 56.5603L29.8049 56.9068L29.5277 57.0454L29.3891 57.3919H29.0426V57.4612L28.3495 57.3226L28.2802 57.2533H27.4486H27.3793H26.9635L26.4784 57.5305L25.924 57.3919L25.3695 57.0454L25.0923 56.9068L24.8844 56.7682L24.7458 56.9068L24.2607 56.6989L23.9142 56.3523V56.283L23.637 56.5603L23.4984 56.4216L23.3598 56.5603L22.6668 55.8672H22.1816L22.1123 55.7979L21.9737 55.8672H21.4193L21.35 56.0058L20.7956 56.283H20.5184H20.3798L20.3105 56.4216L20.0333 56.5603L19.8254 56.7682L19.6868 56.9761V57.2533H18.9245L18.4393 57.1147L17.9542 57.5998H17.8156L17.9542 57.7384L17.1226 58.0849H16.5682L16.4296 58.0156L16.0138 58.1542L15.8752 57.8077L15.7366 58.1542V58.2235L15.8059 58.2928H15.8752H16.9147L16.2217 58.9858L16.291 59.1244L16.6375 58.9858V59.6788H18.0928L16.3603 60.3719V60.5105L16.4989 60.4412L16.984 60.6491L17.2612 61.2035L17.1226 61.3421L17.3305 61.55L17.4691 61.4114V61.6886H18.1621L17.9542 61.8965H18.6472V62.3816L18.7858 62.4509L18.9245 62.3123H19.0631L19.2017 62.1737H19.271L19.1324 61.8272L19.964 61.6193L20.3798 61.7579L20.8649 61.9658H21.2114L21.6272 62.4509L21.7658 62.5895L22.5975 62.5202L22.8747 62.3816H22.944V62.3123L23.5677 61.6193H23.9142L24.33 61.8965L24.7458 61.4807L25.4388 61.7579V62.243L25.0923 62.5895L25.3695 62.8667L25.0923 63.144L25.3002 63.4905L25.4388 63.9063L25.3002 64.1835V64.5993L25.1616 65.0151L25.023 65.8467L24.6072 66.3318V66.5397L24.2607 66.8863L24.1914 67.5793L23.8449 68.203L23.5677 68.5495L23.4291 68.896L22.944 69.0346L22.251 68.896L21.6965 69.0346V70.0742L21.8351 70.2128V70.2821L22.1816 70.6286V70.9751L22.4589 71.1137L22.5975 71.4602L22.944 71.8067L23.0826 71.5295V71.2523L23.3598 70.5593L23.4984 70.4207L24.1914 68.6188V70.49L24.0528 70.6979V71.3909L24.8844 71.7374L24.6072 72.0146L24.9537 72.3611L25.023 72.569L25.1616 72.7076L25.3002 72.9155L25.6468 73.7472V74.0937L25.8547 74.2323L25.9933 74.5095L26.2705 74.6481L26.4784 75.1332L26.7556 75.2718L26.9635 75.8955L27.3793 76.3113L27.7258 76.5885L28.003 76.9351V77.0044H28.3495L28.4881 77.3509L28.6267 77.4895L28.7653 77.836L28.9733 78.0439L29.0426 78.1825L29.1812 78.3211L29.0426 78.9448L29.1812 79.2913L29.2505 79.6378L30.0128 80.4002H30.1514H30.4979L30.6365 80.6774L31.0523 81.0239V81.1625L31.3988 81.3011L31.2602 81.6476L31.4681 82.3406L31.7453 82.4792V82.8257L32.2998 83.3801H32.577L32.7156 83.9346L33.0621 84.0039L33.3393 84.6969L33.4779 84.9741L33.6165 85.5978V86.2215H33.4779L33.6165 86.4294L33.6858 87.3304L33.963 87.6076V88.3006L34.1709 88.5085V88.6471L34.5174 88.7857L34.7946 88.5085H35.2797L35.4876 88.2313V88.0927L35.9035 87.6769H36.3886L36.5272 87.8155H36.8044L36.943 87.9541L37.2895 87.8155L37.5667 87.7462L38.1211 87.3304H38.6755L38.9528 87.0532L39.0914 87.1918L39.3686 86.776L39.7151 86.6374H39.8537L40.8239 86.2908L40.9625 86.1522L41.6555 86.0136L42.002 85.875L42.2792 85.5978H42.4872L42.6258 85.182L43.0416 84.6969L43.5267 84.5583H43.6653L43.9425 84.2811L44.0811 84.4197V84.2811H44.289L44.6355 84.0732H44.9127L45.1899 83.9346L45.3285 84.0039V83.5188L45.675 83.1722H45.8136L46.1602 83.0336V82.8257L46.6453 82.202L47.1304 81.9941L47.1997 82.0634H47.4076V81.9248H47.1304L47.4076 81.3011L47.1304 81.0239H47.4769L48.0313 79.5685V80.7467L48.1699 80.6081L48.3085 80.7467L48.3778 80.6081L48.655 80.3309L49.0016 79.8457V79.7071V79.5685V79.4299H48.9322L48.4471 79.0834L48.3085 78.8062L48.0313 78.529L47.8927 78.1825L47.7541 77.9746H46.7146L46.4374 78.1132L45.883 77.9746L45.7444 78.1132L45.2592 77.9053L44.6355 77.3509L44.4969 77.2123L44.0811 76.7272L43.9425 76.0341L43.8039 75.8955L43.2495 76.4499L43.5267 76.7272L42.8337 77.4202V77.5588H42.5565L42.2099 77.6974H41.7941L41.6555 77.5588H41.5169L41.2397 77.4895L40.8239 77.836L40.4774 77.6974H40.3388L39.7844 77.9053L39.6458 77.3509H39.5072L39.3686 77.0044H39.4379V76.7272L39.1607 77.0044L38.6755 76.5192L38.5369 76.242L37.9825 75.6183L37.4974 74.4402L37.3588 74.3016L36.943 73.8858L36.5965 73.7472L36.3193 73.0541L36.25 72.9155L36.1114 72.7769L35.349 72.0146H35.6263L34.7946 71.4602L35.8342 71.3216V71.183V70.9058V70.7672L34.7946 70.3514H36.0421L36.6658 69.7276V70.2821H36.8044L36.943 70.4207L37.2202 70.1435L37.3588 70.4207L37.5667 70.2128L37.9132 70.5593L38.2597 70.9058V71.0444L38.6062 71.4602L38.6755 71.5988H38.7448L38.8834 71.8067H39.7151L39.7844 71.876L39.9923 71.6681L40.2695 72.3611L40.4774 72.9155L40.8239 72.8462L41.2397 72.9848H41.5862L41.7248 73.1234H41.9327L42.3485 73.5393L42.2792 73.6086L42.5565 73.7472H42.8337L43.1109 73.8858L43.3881 73.7472L43.8732 73.8858L44.1504 74.0244L44.289 73.8858L44.7741 73.5393H44.982L45.1899 73.4007L45.5364 73.2621L46.2295 73.4007H46.3681V73.5393L46.5067 73.8165L46.6453 74.163L46.9225 74.5788V74.7174H47.6848L47.7541 74.7867L47.8234 74.7174H48.1699L48.4471 74.9253L48.9322 74.856L49.2095 74.9946H49.7639H49.8332L49.9718 74.856L50.1104 74.9253L50.0411 74.7867H50.5955L50.7341 75.1332H50.8034L51.0113 75.2025L51.1499 75.0639H51.7736V75.2025H51.9122L52.1201 75.0639H52.6053V74.9253L52.9518 74.5788L53.0904 74.6481H53.5755L53.7141 74.7867H53.922L53.9913 74.856L54.1299 74.7174H54.6843L54.8229 74.7867L54.9615 74.7174H55.1001L55.3773 74.4402L55.6545 74.7174H55.7239L55.8624 74.6481H56.3476L56.6941 74.9946L56.8327 75.3411H57.1792L57.6643 75.2025V75.7569L57.8029 75.8955L57.9415 76.242L58.0801 76.3806L58.1494 76.5192H58.4266L58.7731 76.7272L58.981 76.5885L59.3276 76.4499L59.6048 77.0737L59.4662 77.143L59.3969 77.2123L59.6048 77.4895L60.2285 77.6974L60.575 77.4895V77.2123H61.6145L61.268 78.0439H60.0899L59.882 78.3211H60.1592L60.0206 78.4597V78.5983V78.9448L60.2978 79.222L61.0601 79.7765H61.1987H61.3373L61.8917 79.4299L62.0303 79.2913L62.2382 78.9448V78.8755L61.961 78.5983L62.3075 78.0439V76.0341L62.9313 77.5588H63.0699L63.2085 77.6974L64.7331 77.0737L63.2778 78.529L65.1489 79.2913H63.1392V79.4299L63.2085 79.4992L63.3471 79.8457V80.1923L63.2778 80.3309L64.0401 80.6774L63.3471 81.0239L63.6243 81.6476V81.9248L63.7629 82.2713L63.6243 82.4099L64.1787 83.2416H63.8322V83.3801L64.1787 84.2118V84.7662L64.3173 85.0434L64.5945 85.182L64.7331 85.5285L64.8717 85.6671V85.8057V85.9443H65.0103V86.1522L65.0796 86.2215H65.3568V86.8453L65.4954 87.1918L65.5647 87.469L65.7726 87.9541L65.9112 88.2313L65.9806 88.5778L66.0499 88.6471L66.1885 88.9243L66.3271 89.0629H66.4657L66.8122 89.4787L67.1587 89.8945L67.2973 90.2411H67.4359V90.7262L67.6438 91.0727L67.7824 91.5578V91.9043L68.1289 92.528L68.3368 92.7359L68.614 92.4587L68.7526 92.1122L69.2377 91.7657H69.3764L69.515 91.6271L69.5843 91.4885L69.8615 90.9341L70.3466 90.7955L70.2773 90.1718L70.1387 89.8945V89.1322L70.4159 88.6471L70.5545 88.0927V87.7462L70.2773 87.6076V86.568L70.1387 86.1522L70.3466 85.9443L70.208 85.5285L70.3466 85.182L70.8317 84.6969H71.3168V84.5583L71.7326 84.1425L72.2177 84.2811L72.3563 84.1425L72.287 84.0039L72.4256 83.5881L72.7722 83.2416L73.1187 83.1722L73.2573 83.0336L73.3959 82.7564L74.3661 81.9941L74.574 81.5783L74.7126 81.4397L74.9898 80.6774H75.4056L75.6135 80.5388H75.96L76.0986 80.6774H76.2373L76.3759 80.5388L76.0294 80.1923H76.7224V80.123L76.7917 80.0536V80.2616V80.123L76.5838 79.9151L76.861 79.222L77.0689 79.0141L77.6926 78.8062L77.7619 78.7369V78.529V77.9746H78.3856L78.7321 78.1132V77.836L79.2866 78.3904H79.4945L79.841 78.0439L79.7717 77.9053H80.0489L80.8805 77.0737L81.5735 76.9351L81.6428 77.0737L81.7121 77.143H81.8507L81.9893 77.2816L82.1279 77.3509H82.2665L82.4051 77.2816L82.3358 77.3509H82.613L82.9596 78.1825L83.0982 78.3211V78.3904L83.2368 78.2518V79.2913L83.3754 79.4299L83.514 79.6378H83.6526V79.7071L83.9991 79.8457V79.5685L84.2763 79.8457H85.1772L83.7912 80.2616H83.8605L83.9298 80.3309L84.207 80.4695L84.5535 80.8853V81.3704L84.6921 81.509V81.8555L84.8307 82.202V82.3406L85.3851 82.5485L85.1772 82.7564V83.2416L85.3158 83.5188L85.593 82.6871V83.8653L85.6623 83.9346L85.593 84.0039V84.8355L85.7316 85.1127H85.8702L86.0781 84.9741L86.2168 84.5583L86.0781 84.2811H86.7712V84.0732L85.7316 83.0336L87.7414 83.8653V84.0039L87.88 84.1425L88.0879 84.489L88.1572 84.5583L88.7116 84.0039V84.9741V85.0434V85.3899L88.7809 85.4592L88.8502 86.0136V86.4987L89.5432 87.1918H87.7414V87.3304L88.1572 87.7462L88.2958 87.9541L88.4344 88.0927L88.573 88.7164L88.6423 88.7857L88.8502 89.2708L88.7116 89.4094V89.4787V89.6173L89.1967 90.1024L89.0581 90.2411L89.1967 90.5183L88.9195 90.7955V91.142H89.3353V90.8648L89.6125 90.5876L89.7512 89.8252L90.0284 89.548L90.167 89.3401L90.3749 89.1322L90.2363 88.9936L90.5135 88.7164V88.5778V88.4392L89.9591 88.2313L90.3056 87.8848V87.0532L90.7907 87.5383L90.9293 87.3997L91.1372 87.6076L91.4144 87.469L91.553 87.6076H91.6916L92.0381 87.7462L92.3846 88.0927L92.1074 88.3699V88.4392L92.246 88.6471L92.6618 88.7857L92.939 89.0629L93.0776 89.1322L93.7014 89.7559H94.0479L94.3944 90.2411V90.3797L94.6716 91.0727L95.226 90.5183V91.0727H96.6814V90.9341H97.2358H97.3051L97.8595 90.3797V91.0034L97.9981 91.142L98.3446 91.0034L98.4832 90.8648V90.7262L99.0376 90.5183L99.2455 90.3104L99.3148 90.1024L99.4534 89.7559L99.3148 89.3401L99.5227 89.2708V89.2015V88.7857L99.6613 88.6471V88.5778L99.5227 88.4392V88.0927L99.3841 87.7462L99.5227 87.6076L99.3841 87.3997L99.5227 87.2611L99.3841 86.9146L99.2455 86.776L99.1069 86.4294L98.7604 86.0829L98.899 85.9443L98.6911 85.7364V85.6671L98.5525 85.3206L98.4139 85.182L97.9288 84.8355L97.8595 84.6276L97.4437 84.3504L96.6814 84.0039V85.3899L95.9883 83.796L95.6418 83.4495L95.4339 83.3109L94.4637 82.9643L94.9488 82.7564L95.0874 82.4099V81.8555L95.226 81.7169L95.3646 81.509L95.7111 81.1625L95.8497 81.3011V80.9546L95.5725 80.6774L95.8497 80.4002V80.123H96.2655L96.5427 79.8457L96.8893 79.7071H97.0972L96.7507 79.3606H97.5823L97.8595 79.0834L97.9288 79.1527L98.2753 78.3211L98.6218 79.1527L98.6911 79.0834L98.899 79.2913L99.0376 79.0141L99.4534 79.1527L99.7999 79.0141L100.146 79.3606V79.5685L100.285 79.4299L99.8693 79.0141H100.701L101.255 78.4597V78.8062H102.156L102.433 78.6676L102.572 78.7369L102.711 78.6676L102.849 78.529V78.3904V77.5588L103.334 78.0439L103.196 77.836V77.0044L103.958 77.3509L104.235 77.6281L104.443 77.5588L104.72 77.2816L104.928 77.4895V77.4202H105.413H105.552L105.899 77.0737L105.344 75.549L106.384 76.5885L106.73 76.4499V76.3113H106.869L107.007 76.1034H107.146L106.314 75.2718H107.007L107.631 73.7472L107.839 73.6779L107.7 73.5393H107.146L107.423 73.2621L107.215 73.0541H107.562L107.978 72.6383V72.569H108.255L108.671 71.5295L108.809 71.8067V71.6681L108.948 71.3909L108.879 71.3216L109.086 71.1137H108.74V70.5593L109.086 70.2128V69.9356L108.879 69.7276L109.086 69.6583V69.3811L108.948 69.5197L108.463 69.3118L108.324 69.1732L108.255 69.2425L107.562 71.0444V69.5197L106.73 69.8663L107.562 69.0346V68.9653L107.908 68.6188L107.423 67.9951L108.463 68.4109L108.74 68.1337H108.809L108.948 67.9258H109.017L108.948 67.7872L108.463 67.4407L108.116 67.1635L107.839 66.8863L107.562 67.0249L107.146 66.8863L106.799 66.6091H106.73L106.453 66.4704L104.374 69.2425L105.899 65.7774L106.453 65.5695L106.799 65.7081L107.285 65.5695L107.354 65.7081L107.978 65.8467L107.631 65.3616V65.0844L107.285 64.8072V64.5993L106.938 64.4607L107.077 64.1142L106.869 63.6984L106.522 63.5598L105.968 63.7677V63.2826L105.413 63.0746V62.243L105.483 61.9658L105.344 61.6886L105.691 60.7877L106.037 61.1342L106.106 61.0649L105.968 60.9263L106.522 60.3719H106.592V60.2333H106.73L106.384 59.8868L107.215 59.5402L107.354 59.6095H107.562L107.631 59.5402H106.799L106.453 59.1937L106.384 59.0551L106.245 59.1244V59.263L106.106 59.4016L105.899 59.8868L105.552 60.2333L105.206 60.0947L105.067 60.164H104.512L104.166 59.3323V59.8175L103.889 59.4709L103.75 59.6095V59.263L103.404 58.8472L103.334 58.7779L103.057 58.6393L102.641 58.5007V58.1542L102.503 57.8077L102.641 57.6691V57.5305L102.78 57.3919V57.184L102.919 57.0454V56.5603L103.75 56.6989L103.404 56.3523H103.75L103.958 56.1444L104.097 55.5207L104.651 55.1742H104.79L104.928 55.0356V54.6891L105.206 54.4119H105.136L105.275 54.2733L105.413 53.9268H105.968L106.176 53.3724L106.73 54.204L107.354 54.6198V55.1742L107.077 55.4514L106.938 55.59V55.8672L107.839 54.9663L107.562 55.5207H107.908L108.324 55.1742L108.532 55.3128H108.601L109.086 54.6198L109.364 55.2435H109.502L109.918 55.3821H109.987L110.126 55.2435H110.819L110.542 55.9365L110.611 56.0751L110.334 56.491V56.6989H110.403L111.443 56.283H111.373L111.165 55.59L111.235 55.5207V55.4514V55.1049L111.581 54.8277L111.72 54.5505L112.136 54.4119H112.274H112.344V54.2733L112.759 53.8575L112.621 53.7189L112.967 53.4417V52.8179L112.759 52.61V52.0556L112.898 51.5012V50.9468H113.175L113.522 50.6003H113.591L113.66 50.3924L114.007 50.2538V50.1152L114.076 50.0459V49.6994L114.284 49.4914V49.2835L114.631 48.937L114.977 49.0756L115.324 48.937L115.67 49.2835V49.5607H115.809L115.878 49.6994L116.017 49.5607L116.155 49.6994L116.432 49.5607L116.571 49.4221H116.779L116.918 49.2835L117.056 49.1449L116.779 48.8677L117.264 48.6598L116.918 47.7589L117.541 48.0361V47.8975L117.68 47.7589V47.4124L117.888 47.2738V47.1352L118.096 46.9966L118.234 46.5115L118.304 46.4422L118.512 45.6105L118.65 45.3333V45.0561L118.927 44.7789H119.066L119.205 44.571L119.066 44.0166L119.343 43.7394L119.205 43.2543L119.482 42.977V42.5612H120.383L120.452 42.4226V42.0761L120.66 41.8682L120.521 41.3831L120.66 41.0366V40.6901H120.383V40.8287ZM11.1626 31.5422L11.2319 31.4729V31.3343C11.2319 31.4036 11.2319 31.4729 11.1626 31.5422ZM96.1269 91.835L96.1962 91.7657L95.919 91.6964L96.1962 91.9736V92.1122L96.3349 92.0429L96.5427 92.1122H96.6814L96.1269 91.835ZM89.1967 91.4192V91.7657H89.3353V91.6271L89.1967 91.4192ZM113.938 90.3104H113.799V90.5876H113.868V90.5183L114.007 90.3797L113.938 90.3104ZM116.432 89.2708V89.4094L116.571 89.548L116.71 89.6866V89.6173L116.432 89.2708ZM112.136 87.1918H112.274L112.344 87.1225L112.413 87.1918V86.8453L112.136 87.1918ZM112.967 84.0039L112.829 83.9346L112.621 83.3801V83.2416L112.136 83.1029L111.928 82.895H111.789V82.9643L111.512 83.3109V83.3801V83.9346V84.4197L111.443 84.5583L111.581 84.8355V85.182L111.304 85.3206L111.235 85.5978V85.7364L111.373 86.0136V86.1522H111.72V86.2908H111.997L112.274 86.6374L112.205 86.4294V86.0829L112.274 85.9443L112.136 85.6671L112.759 85.0434L112.967 84.6969V84.5583V84.2811V84.0039ZM101.463 80.9546L101.117 81.0932L100.978 80.9546L100.77 81.0932L100.632 80.9546H100.562H100.216H100.077L100.008 81.1625L99.6613 81.4397L99.5227 81.5783V81.6476V81.9941L99.592 82.202L99.7307 82.3406H99.8693L100.008 82.4792H100.285V82.3406L100.701 82.202V82.0634L101.047 81.9248V81.7862L101.186 81.3704L101.325 81.2318L101.463 81.0239V80.9546ZM99.9386 79.7071V79.9151H99.592V80.0536L99.7307 80.1923L99.8693 80.3309L100.146 80.0536L99.9386 79.7071ZM111.443 75.0639L111.304 74.9253L111.165 75.0639L111.027 75.2025L111.165 75.2718L110.888 75.6876V75.8262L110.611 76.242L110.472 76.5192V77.2123H110.611V77.5588H110.819V77.836L111.027 77.4895L111.235 77.2123L111.096 77.143L111.235 76.5192V76.3806V75.9648L111.373 75.6876L111.443 75.2718V75.0639ZM80.1875 77.3509V77.6974H80.2568L80.1875 77.3509ZM107.215 74.9253L106.799 75.3411H107.007L107.354 74.9946L107.215 74.9253ZM107.631 74.5788L107.7 74.4402L107.354 74.7174L107.7 74.5788H107.631ZM119.482 65.0151L119.69 64.8072H119.62V64.5993H119.482L119.205 64.1142H118.997L118.789 63.837H118.65V63.9756L118.442 64.1142L118.65 64.3221L118.858 64.6686L118.997 65.0151V65.3616L118.927 65.6388L119.551 66.1932L119.482 66.0546L119.62 65.4309L119.482 65.0151ZM1.46033 64.1835V63.6984H1.32173L0.97522 63.144L1.11382 62.6588L1.18313 62.5895L1.04452 62.4509L0.836616 62.1044L0.767314 62.0351C0.62871 63.2132 0.559408 64.4607 0.420803 65.6388L1.04452 65.2923L1.11382 65.223L0.97522 65.0844L1.25243 64.8072L1.46033 64.1835ZM22.8054 65.2923H22.7361L22.4589 65.4309H22.8054L22.944 65.2923H22.8054ZM120.66 63.5598V63.6984L120.798 63.9063L120.937 63.6291L121.006 63.5598H120.66ZM121.907 63.0746L121.769 62.936L121.63 63.0053V63.2133H121.838H121.907L122.046 63.0746V63.0053L121.907 63.0746ZM127.451 55.5207V55.3821L127.382 55.1049V54.9663L127.244 54.5505L127.174 54.4119H127.036L126.897 54.0654L126.828 53.7189L126.758 53.5803L126.273 53.0952L125.858 53.4417L125.719 53.3031V53.4417L125.858 53.7882L125.788 54.0654L125.996 54.5505L126.135 55.1049L125.996 55.4514L126.135 55.8672L125.927 56.5603L126.065 56.9068L125.719 57.3919L125.58 57.5305V57.6691V58.0156L125.442 58.2235L125.372 58.57L125.026 58.7779L124.471 59.1244H124.333L124.194 59.4709L123.64 59.1937V59.4709L123.432 59.8175V59.9561L123.293 60.0947L123.363 60.164V60.2333H123.709L123.363 60.7184L123.501 60.857L122.808 61.2728L122.67 61.1342H122.531H122.115V60.9263L121.769 61.0649L121.422 61.2035H121.214L120.937 61.2728L120.591 61.4114L120.452 61.2728L120.313 61.4114L120.244 61.6886L120.105 61.8272L119.62 62.3123L119.482 62.4509L119.412 62.5202L119.274 62.7974L118.997 62.936L119.343 62.7974H119.482V62.6588L119.62 62.3123H119.967L120.105 62.3816H120.244H120.591L120.937 62.243H121.076L121.353 62.1044V62.0351L121.838 61.7579L122.115 61.6193H122.739L123.085 61.8965V62.243L122.947 62.4509V62.6588L123.363 63.0746H123.224L123.293 63.4212L123.363 63.2826V63.144L123.501 63.0053V62.8667L123.709 62.5202L123.432 62.243L123.571 61.6886L123.848 61.4114H124.887L124.679 61.6193L125.095 61.6886V61.3421L125.58 61.0649H125.927L125.996 60.9956L126.135 60.9263L126.412 60.3026L126.758 60.164H127.244L127.036 59.8175V58.6393L127.174 58.2235L126.966 57.6691L126.689 57.2533V56.9068L126.758 56.3523L127.174 56.1444V56.0058V55.8672V55.4514L127.451 55.5207ZM4.50962 62.936L4.71753 62.243H4.64823L4.50962 62.3816H3.95521L3.6087 62.5202L3.19289 62.4509L3.33149 62.5895L3.6087 62.7281L3.7473 62.8667L4.09381 63.0053L4.30172 62.936L4.64823 63.2826L4.71753 63.4212L4.78683 63.2826V63.2133L4.50962 62.936ZM115.046 60.9263V60.7184L114.561 61.2035V60.164L114.492 59.6095L114.215 59.3323V58.8472L113.73 58.2235L113.314 57.8077L112.274 58.2235L112.552 58.6393L112.898 58.9858L112.759 59.1244L113.106 59.9561L112.552 59.8175L112.621 59.9561V60.0254L113.106 60.857L112.759 61.1342V61.55L112.621 61.6886L112.759 62.0351V61.7579L113.245 62.243L113.73 61.8272L114.007 61.6886L114.076 61.55H114.561L114.908 61.2035H115.046L114.908 61.0649L115.046 60.9263ZM11.4398 60.9956L11.5784 61.1342L11.6477 60.9956H11.4398ZM12.2715 61.2728L11.9942 60.9956L12.4101 60.857H12.3408L11.9249 60.9956L11.7863 60.9263H11.717L12.0635 61.7579L12.2022 61.8272L12.3408 61.9658L12.2022 61.6886L12.2715 61.2728ZM127.382 60.857V60.9263L127.451 60.857H127.382ZM6.17287 60.6491V60.7877L6.31148 60.7184V60.5798L6.17287 60.6491ZM127.382 60.2333V60.4412L127.451 60.3719L127.382 60.2333ZM6.65799 59.5402H6.31148L6.24218 59.4709L6.31148 59.7481L6.45008 60.0254H6.38078V60.164L6.58869 59.9561L6.72729 59.6788L6.65799 59.5402ZM6.38078 57.1147L6.03427 57.0454H5.68776L5.47985 56.5603V56.4216H5.41055H4.85614L4.78683 56.283L4.50962 56.1444L4.37102 55.8672L4.16311 55.7286L3.678 55.3128L3.5394 54.9663V54.8277L3.40079 54.6891V54.4119L2.84638 53.7189L2.77707 53.5803H2.63847L2.08405 53.3724C1.94545 54.0654 1.73754 54.7584 1.59894 55.5207L1.73754 55.7286L1.80684 55.7979L2.15336 56.3523L2.49987 56.5603L3.05428 56.7682L3.40079 56.9068H3.7473L4.09381 57.3226L4.57893 57.5305H4.92544L5.13334 57.9463V58.0849H5.20265L5.27195 58.2928L5.82636 58.57L5.89567 58.9858V58.7086L6.24218 58.57V57.9463L6.38078 57.8077L6.51938 57.5998L6.79659 57.3919L6.38078 57.1147ZM113.106 57.7384L112.759 56.9068V56.7682L111.997 56.4216L111.928 56.283L110.888 57.3226H110.75V57.5998H110.819L111.165 57.2533L111.581 57.6691H113.314L113.106 57.7384ZM106.938 55.8672V55.9365L107.007 55.8672H106.938ZM22.6668 51.2933L22.1816 51.7784L22.1123 51.8477L22.3896 51.7091L22.8054 51.3626L22.6668 51.2933ZM124.957 51.1547V51.224H125.026L124.957 51.1547ZM21.9737 50.9468L21.7658 51.0161L22.1816 51.224L22.3203 50.9468V50.6003L21.9737 50.9468ZM128.63 48.5905L128.214 48.3826V48.244L128.075 48.3133H127.313L127.174 48.1054H126.966L126.551 47.8975L126.481 47.7589H126.273L126.065 47.4124L125.788 47.2738L125.303 46.7887L125.234 46.5808H125.095L124.887 46.4422L125.165 46.858L125.303 47.2045L125.372 47.6203V47.7589V47.8975L125.65 48.5905H125.372V48.7291H125.442L125.788 49.2142L125.511 49.3528V49.4914L125.165 49.838L124.887 49.6994V49.838L125.234 50.1152L125.303 50.0459L125.65 49.7687H126.135L126.481 49.6301L126.828 50.1152L126.966 50.2538L127.244 50.3924L127.313 50.0459L127.451 49.5607L127.798 49.3528L128.144 49.1449L128.63 48.937V48.5905ZM124.61 42.9077L124.471 42.7691H124.333L124.194 42.5612V42.6305V42.6998L124.541 43.0463L124.471 43.3929L124.749 43.2543V42.977L124.61 42.9077ZM124.194 38.4724V38.4031L123.917 38.3338V37.9873L123.64 37.7101L123.363 37.1557L123.224 36.9478L122.878 36.4627L122.739 36.1161L122.6 35.9775V35.8389H122.254L122.115 35.3538L121.769 35.0073L121.63 34.7301L121.491 34.5222V33.4827H121.353L121.006 33.1362V32.9975L120.868 32.8589V32.4431H120.798L120.66 32.2352V32.4431L120.244 32.5817H120.175V32.7896L120.313 32.9282L120.66 33.3441V33.7599V34.1757L120.868 34.6608V34.7994L121.145 34.938L121.284 35.4231L121.353 35.5617L121.63 35.7003L121.977 36.1854V36.8785L122.115 37.1557V37.2943L122.531 37.7101L122.392 37.918L122.6 38.1952L122.739 38.4724V38.7496L122.878 39.0961V39.7892L123.293 40.0664L123.224 40.3436L123.363 40.4129L123.778 40.7594V40.6901L123.571 40.4129L123.709 39.9278V39.8585L123.571 39.5119L123.709 39.2347L123.363 38.7496H124.333H124.471L124.194 38.4724ZM10.8161 33.3441V33.4827H10.9547L10.8161 33.3441ZM11.1626 31.5422L11.2319 31.4036C11.2319 31.4036 11.2319 31.4729 11.1626 31.5422ZM21.0728 23.3646V23.2953H20.7263L20.8649 23.3646L21.1421 23.6418L21.2807 23.5725L21.0728 23.3646ZM28.9733 15.3255H28.8347L28.7653 15.4641V15.8106L28.9039 16.0878H29.1119L29.2505 16.0185L29.3891 15.8799V15.7413V15.6027L28.9733 15.3255ZM34.1709 11.4446L33.8937 11.1674L33.6165 10.9595L33.2007 10.8209H32.7849C32.6463 10.8902 32.5077 10.9595 32.3691 11.0981L32.5077 11.2367L32.6463 11.0981L33.4779 11.4446V11.5139L33.7551 11.2367L33.8937 11.5832L34.1016 11.6525L34.2402 11.5139L34.1709 11.4446ZM32.0225 11.3753H31.9532V11.5139L32.0225 11.5832H32.1611V11.306L32.0225 11.3753Z" fill="url(#paint1_radial)"/>
<path d="M23.3596 79.5695C31.9531 81.5792 41.0316 82.9653 50.3874 83.7969C52.0507 103.409 56.9018 122.19 64.2478 139.654C64.8716 139.724 65.426 139.793 66.0497 139.793C58.6344 122.398 53.7832 103.687 52.0507 83.9355C57.872 84.3513 63.7627 84.6285 69.792 84.6285C82.6822 84.6285 95.0872 83.5197 106.938 81.4406C103.542 106.043 89.1966 127.249 69.099 139.932C69.4455 139.932 69.792 139.932 70.1385 139.932C70.8315 139.932 71.4552 139.932 72.1483 139.932C91.6915 126.833 105.413 105.696 108.67 81.2327C119.828 79.223 130.362 76.243 140.064 72.6393C140.064 72.0849 140.064 71.5304 140.064 70.9067C130.362 74.5797 119.897 77.4904 108.809 79.5695C109.156 76.5202 109.294 73.4016 109.294 70.283C109.294 40.8989 94.0477 14.98 71.0394 -0.0585938C70.6929 -0.0585938 70.3464 -0.0585938 69.9999 -0.0585938C69.3069 -0.0585938 68.6832 -0.0585938 67.9901 -0.0585938C91.7607 14.3562 107.562 40.4831 107.562 70.1444C107.562 73.4016 107.354 76.5895 107.007 79.7081C95.1566 81.8564 82.6129 82.9653 69.6534 82.9653C63.6241 82.9653 57.6641 82.6881 51.7735 82.2723C51.3577 77.4211 51.219 72.5007 51.219 67.5802C51.219 43.8096 55.793 21.0785 63.9013 0.149313C63.2776 0.218615 62.7232 0.287917 62.0995 0.357219C53.9911 21.2171 49.5558 43.8789 49.5558 67.5802C49.5558 72.5007 49.7637 77.3518 50.1102 82.203C40.6851 81.3713 31.6759 79.916 23.0131 77.9755C22.7359 75.2728 22.5973 72.7086 22.5973 70.0058C22.5973 40.8989 37.8438 15.1879 60.7827 0.634427C59.466 0.773031 58.2186 1.05024 56.9711 1.25815C35.2103 16.4353 21.0033 41.5919 21.0033 70.0751C21.0033 72.6393 21.142 75.2035 21.3499 77.6983C13.9345 75.9658 6.72712 73.7481 0.00482178 71.2532C0.00482178 71.8076 0.00482178 72.3621 0.0741238 72.9858C6.79642 75.55 14.0731 77.6983 21.4885 79.4309C24.1912 103.895 37.5665 125.24 56.9018 138.753C58.1493 139.031 59.466 139.169 60.7134 139.377C40.6158 126.279 26.3396 104.657 23.3596 79.5695Z" fill="url(#paint2_radial)"/>
<path d="M108.463 68.2041C109.956 68.2041 111.166 66.9941 111.166 65.5014C111.166 64.0087 109.956 62.7986 108.463 62.7986C106.97 62.7986 105.76 64.0087 105.76 65.5014C105.76 66.9941 106.97 68.2041 108.463 68.2041Z" fill="url(#paint3_radial)"/>
<path d="M85.3161 16.575C86.8088 16.575 88.0188 15.3649 88.0188 13.8722C88.0188 12.3795 86.8088 11.1694 85.3161 11.1694C83.8234 11.1694 82.6133 12.3795 82.6133 13.8722C82.6133 15.3649 83.8234 16.575 85.3161 16.575Z" fill="url(#paint4_radial)"/>
<path d="M94.2558 119.834C96.3609 119.834 98.0674 118.128 98.0674 116.023C98.0674 113.917 96.3609 112.211 94.2558 112.211C92.1507 112.211 90.4442 113.917 90.4442 116.023C90.4442 118.128 92.1507 119.834 94.2558 119.834Z" fill="url(#paint5_radial)"/>
<path d="M51.2885 87.055C53.585 87.055 55.4466 85.1934 55.4466 82.8969C55.4466 80.6004 53.585 78.7388 51.2885 78.7388C48.992 78.7388 47.1304 80.6004 47.1304 82.8969C47.1304 85.1934 48.992 87.055 51.2885 87.055Z" fill="url(#paint6_radial)"/>
<path d="M54.4855 32.9732C56.4202 32.9732 57.9887 31.4048 57.9887 29.47C57.9887 27.5352 56.4202 25.9668 54.4855 25.9668C52.5507 25.9668 50.9822 27.5352 50.9822 29.47C50.9822 31.4048 52.5507 32.9732 54.4855 32.9732Z" fill="url(#paint7_radial)"/>
<path d="M27.9337 104.796C29.8092 104.796 31.3295 103.275 31.3295 101.4C31.3295 99.5245 29.8092 98.0042 27.9337 98.0042C26.0583 98.0042 24.5379 99.5245 24.5379 101.4C24.5379 103.275 26.0583 104.796 27.9337 104.796Z" fill="url(#paint8_radial)"/>
<path d="M119.015 55.75H19.5005C18.3959 55.75 17.5005 56.6454 17.5005 57.75V88.5949C17.5005 89.6995 18.3959 90.5949 19.5005 90.5949H119.015C120.119 90.5949 121.015 89.6995 121.015 88.5949V57.75C121.015 56.6454 120.12 55.75 119.015 55.75Z" fill="#15BDB4"/>
<path d="M119.015 56.75H19.5005C18.3959 56.75 17.5005 57.6454 17.5005 58.75V89.5949C17.5005 90.6995 18.3959 91.5949 19.5005 91.5949H119.015C120.119 91.5949 121.015 90.6995 121.015 89.5949V58.75C121.015 57.6454 120.12 56.75 119.015 56.75Z" fill="#2CD8CF"/>
<path d="M46.8297 83.1416C45.8891 84.1907 43.791 86.0537 40.3 86.8677C38.7264 87.2294 37.3336 87.3199 35.7238 87.3199H24.4912V58.6868H33.6256C34.5119 58.6868 35.362 58.6868 36.2302 58.7229C37.4421 58.7953 42.2354 58.9219 45.7264 61.7979C46.2509 62.1958 47.101 62.9736 48.0054 64.4025C49.0183 65.9762 50.1579 68.5447 50.1579 72.7591C50.1036 78.1493 48.3672 81.3689 46.8297 83.1416ZM41.3129 67.0795C40.915 66.5912 40.0468 65.6144 38.5093 65.126C37.1708 64.6739 35.9589 64.7281 34.5661 64.7281H31.6902V81.5679H33.8788C35.9951 81.5679 38.4189 81.4413 40.2819 80.0666C41.747 78.9633 42.9227 76.9012 42.9227 73.0124C42.9408 70.8237 42.6876 68.8341 41.3129 67.0795Z" fill="#677A82"/>
<path d="M75.1374 87.3199L64.755 69.5938L64.9901 87.3199H58.0986V58.6868H65.1167L75.5896 76.648L75.3002 58.6868H82.1555V87.3199H75.1374Z" fill="#677A82"/>
<path d="M114.315 82.491C111.837 86.9949 106.682 87.6099 105.308 87.7726C104.367 87.8993 103.408 87.9716 102.432 87.9716C96.752 87.9716 93.5505 86.0724 91.6513 84.5168C90.8735 83.8657 90.5117 83.4677 89.3722 82.1292L94.7985 78.7287C94.9252 78.8553 95.4859 79.5065 96.0647 79.9406C97.9277 81.4781 100.695 82.3282 103.083 82.3282C103.408 82.3282 104.385 82.3282 105.308 82.0388C105.507 82.0026 108.346 81.1887 108.346 79C108.346 76.3592 104.53 76.2868 101.979 75.9251C100.641 75.7623 99.2663 75.5272 97.9277 75.2016C95.8657 74.677 93.9484 73.8992 92.5376 72.199C92.2482 71.8734 91.6874 71.1499 91.3257 70.0827C91.1991 69.6848 90.9639 68.7442 90.9639 67.5685C90.9639 67.3333 91.0001 66.3928 91.1267 65.5788C91.4523 63.7519 92.2301 62.2868 93.6047 61.0026C95.0156 59.6641 97.8192 58 102.522 58C104.258 58 108.075 58.199 111.964 60.8398C112.941 61.491 113.501 61.9793 115.129 63.3902L109.848 67.1706C108.274 65.6331 107.171 64.7287 105.018 64.0413C104.656 63.969 103.553 63.6434 102.341 63.6434C99.429 63.6434 98.0905 65.3437 98.0905 66.6822C98.0905 67.46 98.4885 67.9845 98.7055 68.1835C99.6823 69.2326 101.256 69.1964 103.933 69.5943C105.561 69.8295 107.134 70.1551 108.726 70.5349C109.739 70.7339 113.429 71.4755 114.894 74.9483C115.093 75.4729 115.455 76.5763 115.455 78.0233C115.455 78.8553 115.383 80.5556 114.315 82.491Z" fill="#677A82"/>
<path d="M46.8297 84.2275C45.8891 85.2766 43.791 87.1396 40.3 87.9536C38.7264 88.3153 37.3336 88.4058 35.7238 88.4058H24.4912V59.7727H33.6256C34.5119 59.7727 35.362 59.7727 36.2302 59.8089C37.4421 59.8812 42.2354 60.0078 45.7264 62.8838C46.2509 63.2818 47.101 64.0595 48.0054 65.4885C49.0183 67.0621 50.1579 69.6306 50.1579 73.8451C50.1036 79.2352 48.3672 82.4549 46.8297 84.2275ZM41.3129 68.1655C40.915 67.6771 40.0468 66.7004 38.5093 66.212C37.1708 65.7598 35.9589 65.8141 34.5661 65.8141H31.6902V82.6538H33.8788C35.9951 82.6538 38.4189 82.5272 40.2819 81.1526C41.747 80.0492 42.9227 77.9872 42.9227 74.0983C42.9408 71.9097 42.6876 69.92 41.3129 68.1655Z" fill="url(#paint9_linear)"/>
<path d="M75.1374 88.4058L64.755 70.6797L64.9901 88.4058H58.0986V59.7727H65.1167L75.5896 77.7339L75.3002 59.7727H82.1555V88.4058H75.1374Z" fill="url(#paint10_linear)"/>
<path d="M114.315 83.5769C111.837 88.0808 106.682 88.6958 105.308 88.8585C104.367 88.9852 103.408 89.0575 102.432 89.0575C96.752 89.0575 93.5505 87.1583 91.6513 85.6027C90.8735 84.9516 90.5117 84.5536 89.3722 83.2151L94.7985 79.8146C94.9252 79.9412 95.4859 80.5924 96.0647 81.0265C97.9277 82.564 100.695 83.4141 103.083 83.4141C103.408 83.4141 104.385 83.4141 105.308 83.1247C105.507 83.0885 108.346 82.2746 108.346 80.0859C108.346 77.4451 104.53 77.3728 101.979 77.011C100.641 76.8482 99.2663 76.6131 97.9277 76.2875C95.8657 75.7629 93.9484 74.9852 92.5376 73.2849C92.2482 72.9593 91.6874 72.2358 91.3257 71.1686C91.1991 70.7707 90.9639 69.8301 90.9639 68.6544C90.9639 68.4193 91.0001 67.4787 91.1267 66.6647C91.4523 64.8379 92.2301 63.3728 93.6047 62.0885C95.0156 60.75 97.8192 59.0859 102.522 59.0859C104.258 59.0859 108.075 59.2849 111.964 61.9257C112.941 62.5769 113.501 63.0653 115.129 64.4761L109.848 68.2565C108.274 66.719 107.171 65.8146 105.018 65.1273C104.656 65.0549 103.553 64.7294 102.341 64.7294C99.429 64.7294 98.0905 66.4296 98.0905 67.7681C98.0905 68.5459 98.4885 69.0704 98.7055 69.2694C99.6823 70.3185 101.256 70.2823 103.933 70.6803C105.561 70.9154 107.134 71.241 108.726 71.6208C109.739 71.8198 113.429 72.5614 114.894 76.0343C115.093 76.5588 115.455 77.6622 115.455 79.1092C115.455 79.9412 115.383 81.6415 114.315 83.5769Z" fill="url(#paint11_linear)"/>
</g>
<defs>
<radialGradient id="paint0_radial" cx="0" cy="0" r="1" gradientUnits="userSpaceOnUse" gradientTransform="translate(53.8329 48.9334) scale(80.2092)">
<stop offset="0.1458" stop-color="#96A1BB"/>
<stop offset="0.8886" stop-color="#5F6A8D"/>
<stop offset="1" stop-color="#4E5E83"/>
</radialGradient>
<radialGradient id="paint1_radial" cx="0" cy="0" r="1" gradientUnits="userSpaceOnUse" gradientTransform="translate(48.8449 44.2881) scale(90.4586)">
<stop offset="0.21875" stop-color="#F3F5F7" stop-opacity="0.5"/>
<stop offset="0.614583" stop-color="#D5D9DF" stop-opacity="0.2"/>
<stop offset="1" stop-color="#D4D8DE" stop-opacity="0"/>
</radialGradient>
<radialGradient id="paint2_radial" cx="0" cy="0" r="1" gradientUnits="userSpaceOnUse" gradientTransform="translate(70.1631 69.8862) scale(70.0049)">
<stop stop-color="#24DEDD"/>
<stop offset="0.859375" stop-color="#24D2D1"/>
<stop offset="1" stop-color="#25DFDE" stop-opacity="0"/>
</radialGradient>
<radialGradient id="paint3_radial" cx="0" cy="0" r="1" gradientUnits="userSpaceOnUse" gradientTransform="translate(108.496 65.5313) scale(2.70909)">
<stop offset="0.2738" stop-color="white"/>
</radialGradient>
<radialGradient id="paint4_radial" cx="0" cy="0" r="1" gradientUnits="userSpaceOnUse" gradientTransform="translate(85.3488 13.9022) scale(2.70909)">
<stop offset="0.2738" stop-color="white"/>
</radialGradient>
<radialGradient id="paint5_radial" cx="0" cy="0" r="1" gradientUnits="userSpaceOnUse" gradientTransform="translate(94.2715 116.009) scale(3.78677)">
<stop stop-color="white"/>
</radialGradient>
<radialGradient id="paint6_radial" cx="0" cy="0" r="1" gradientUnits="userSpaceOnUse" gradientTransform="translate(51.3056 82.8825) scale(4.13103)">
<stop stop-color="white"/>
</radialGradient>
<radialGradient id="paint7_radial" cx="0" cy="0" r="1" gradientUnits="userSpaceOnUse" gradientTransform="translate(54.4999 29.4579) scale(3.48039)">
<stop stop-color="white"/>
</radialGradient>
<radialGradient id="paint8_radial" cx="0" cy="0" r="1" gradientUnits="userSpaceOnUse" gradientTransform="translate(27.9749 101.438) scale(3.40372)">
<stop offset="0.2738" stop-color="white"/>
</radialGradient>
<linearGradient id="paint9_linear" x1="37.3211" y1="59.7685" x2="37.3211" y2="88.4017" gradientUnits="userSpaceOnUse">
<stop stop-color="white"/>
</linearGradient>
<linearGradient id="paint10_linear" x1="70.1239" y1="59.7685" x2="70.1239" y2="88.4017" gradientUnits="userSpaceOnUse">
<stop stop-color="white"/>
</linearGradient>
<linearGradient id="paint11_linear" x1="102.41" y1="59.0815" x2="102.41" y2="89.0532" gradientUnits="userSpaceOnUse">
<stop stop-color="white"/>
</linearGradient>
<clipPath id="clip0">
<rect width="140" height="140" fill="white"/>
</clipPath>
</defs>
</svg>
