<svg width="140" height="140" viewBox="0 0 140 140" fill="none" xmlns="http://www.w3.org/2000/svg">
<path d="M70.3348 43.9573C96.9959 43.9573 118.622 63.8658 118.622 88.4313C118.622 112.997 96.9959 133.618 70.3348 133.618C43.6736 133.618 22.0479 112.997 22.0479 88.4313C22.0479 63.8658 43.6591 43.9573 70.3348 43.9573Z" fill="url(#paint0_linear)"/>
<path d="M100.154 99.3304C101.071 115.048 88.3224 128.466 71.7901 129.266C55.2579 130.066 41.3161 117.58 40.865 101.411C40.4138 85.2431 53.1914 71.767 69.3016 71.4323C85.4991 71.0685 99.2663 83.5986 100.154 99.3304Z" fill="#2E3249"/>
<path d="M69.7384 129.252C85.8049 127.884 97.9712 114.757 97.1271 99.3598C96.2976 84.3993 83.782 72.3786 68.5887 71.4326C52.9733 72.3786 40.7196 85.5781 41.1417 101.368C41.5928 116.722 54.2103 128.684 69.7384 129.252Z" fill="#2E3249"/>
<path d="M95.817 99.4752C96.5156 112.951 85.6008 124.404 71.4262 125.059C57.1933 125.7 45.2453 115.047 44.7942 101.28C44.4158 87.469 55.4033 75.9866 69.2723 75.6519C83.2287 75.3463 95.0748 85.9991 95.817 99.4752Z" fill="#405160" stroke="#B7BABC" stroke-miterlimit="10"/>
<path d="M93.3577 99.6073C94.0272 111.817 84.1311 122.15 71.2663 122.703C58.4596 123.27 47.5739 113.651 47.2392 101.237C46.9045 88.8235 56.7715 78.4472 69.3307 78.1416C82.0064 77.7778 92.732 87.3973 93.3577 99.6073Z" fill="#2CD8CF"/>
<path opacity="0.2" d="M90.0398 99.8105C90.5928 110.303 82.0648 119.195 71.0481 119.646C60.0169 120.083 50.7467 111.875 50.3683 101.164C50.0336 90.4675 58.5616 81.532 69.4036 81.2845C80.2747 81.008 89.5305 89.3033 90.0398 99.8105Z" fill="#0F0F0F"/>
<path d="M89.0789 99.7676C89.5737 109.649 81.5841 118.002 71.2369 118.454C60.8897 118.847 52.1143 111.104 51.7796 101.063C51.4885 91.0067 59.4781 82.6241 69.6652 82.3476C79.9105 82.1148 88.6278 89.9152 89.0789 99.7676Z" fill="#293547"/>
<path opacity="0.3" d="M83.9708 100.246C84.3055 107.828 78.4989 114.217 70.9313 114.537C63.3928 114.843 57.0332 108.905 56.7421 101.207C56.5238 93.5374 62.3741 87.1195 69.7816 86.9158C77.3346 86.7266 83.6361 92.6642 83.9708 100.246Z" fill="#1E2733"/>
<path d="M82.5446 99.7231C82.8356 106.185 77.6257 111.657 70.8731 111.933C64.1205 112.166 58.4302 107.101 58.1683 100.567C57.9209 94.0183 63.1891 88.5027 69.8398 88.3572C76.5633 88.1971 82.2099 93.2616 82.5446 99.7231Z" fill="#2CD8CF"/>
<path d="M81.0606 99.9264C81.308 105.704 76.7092 110.536 70.7134 110.783C64.703 110.987 59.6385 106.519 59.4202 100.683C59.2019 94.8619 63.8589 90.0303 69.7674 89.8266C75.8069 89.6665 80.8132 94.2216 81.0606 99.9264Z" fill="#334054" stroke="#1E2733" stroke-miterlimit="10"/>
<path d="M77.1605 99.5637C77.3496 103.202 74.3954 106.229 70.6553 106.389C66.9006 106.52 63.6989 103.682 63.5679 100.044C63.4515 96.4057 66.3621 93.335 70.0731 93.1895C73.8133 93.1022 76.9713 95.9254 77.1605 99.5637Z" fill="#121923"/>
<path d="M76.4474 99.6068C76.6075 102.881 73.9443 105.675 70.568 105.763C67.1771 105.894 64.3102 103.332 64.1501 100.014C63.99 96.7107 66.6823 93.9456 70.0295 93.8583C73.4349 93.7419 76.2873 96.3032 76.4474 99.6068Z" fill="url(#paint1_linear)"/>
<path d="M73.566 99.9272C73.6388 101.848 72.198 103.434 70.277 103.522C68.3706 103.609 66.8134 102.081 66.697 100.175C66.6242 98.2536 68.065 96.6673 69.986 96.58C71.907 96.4927 73.5224 98.0062 73.566 99.9272Z" fill="#0A0F17"/>
<path opacity="0.25" d="M93.3577 99.6073C94.0272 111.817 84.1311 122.15 71.2663 122.703C58.4596 123.27 47.5739 113.651 47.2392 101.237C46.9045 88.8235 56.7715 78.4472 69.3307 78.1416C82.0064 77.7778 92.732 87.3973 93.3577 99.6073Z" fill="url(#paint2_linear)" stroke="#373737" stroke-miterlimit="10"/>
<path opacity="0.2" d="M95.817 99.4752C96.5156 112.951 85.6008 124.404 71.4262 125.059C57.1933 125.7 45.2453 115.047 44.7942 101.28C44.4158 87.469 55.4033 75.9866 69.2723 75.6519C83.2287 75.3463 95.0748 85.9991 95.817 99.4752Z" fill="url(#paint3_linear)" stroke="#B7BABC" stroke-miterlimit="10"/>
<path opacity="0.2" d="M46.4387 80.3536C46.4387 80.3536 33.9085 88.2268 31.2599 92.8401C28.6549 97.3661 25.8171 105.603 25.8171 105.603L23.9543 100.961L22.921 95.5906L34.6799 81.9544L57.9065 55.7153L91.9896 58.6405L98.5094 78.7528L119.859 96.2164L116.846 99.68L115.609 103.973L112.8 109.547C112.8 109.547 106.921 95.6488 101.507 90.2496C96.0936 84.8505 95.0894 80.5719 95.0894 80.5719C95.0894 80.5719 91.2329 72.5677 83.0104 66.9794C75.894 62.1623 65.2848 61.2164 61.6175 62.9045C50.1643 68.3765 46.4387 80.3536 46.4387 80.3536Z" fill="url(#paint4_linear)"/>
<path d="M70.5241 11.155C39.0023 11.155 13.5054 37.0594 13.5054 69.0178C13.5054 78.4482 16.7652 87.34 20.8692 95.2132L20.8255 95.2569L22.048 97.3962L23.5178 99.3463L23.1831 95.9118C28.7569 89.1883 36.9357 83.7891 46.4097 80.3401C48.127 68.2319 57.4846 59.049 70.4513 59.049C83.4181 59.049 92.9212 69.5272 95.0023 80.5147C104.142 83.891 111.913 88.839 117.443 95.2132L116.715 100.845L119.204 97.3234C123.148 89.1301 127.106 79.234 127.106 68.945C127.15 37.0594 101.959 11.155 70.5241 11.155Z" fill="#434D72"/>
<path d="M45.0709 79.7283C46.7881 67.6056 57.5574 58.3499 70.5386 58.3499C83.5199 58.3499 94.2892 67.6493 96.0064 79.7283C106.223 83.4829 114.227 88.9258 119.844 96.2023C124.516 87.7906 127.572 78.6222 127.572 68.275C127.572 36.3166 102.075 10.3977 70.5532 10.3977C39.0314 10.3977 13.5054 36.3166 13.5054 68.2896C13.5054 78.5931 16.4305 88.1545 21.5532 96.5516C27.0833 89.2896 34.8546 83.4829 45.0709 79.7283Z" fill="url(#paint5_linear)"/>
<path opacity="0.3" d="M70.4368 18.1106C53.9191 18.1106 38.8713 22.3164 27.811 29.1127C18.8318 39.3434 13.2871 52.8486 13.2871 67.6782C13.2871 68.2894 13.2871 68.9152 13.3308 69.4973C22.4701 54.9879 44.6198 44.7426 70.4368 44.7426C96.0647 44.7426 117.996 54.7987 127.31 69.1335C127.31 68.6387 127.354 68.1439 127.354 67.6491C127.354 52.6886 121.78 39.0669 112.582 28.7634C101.522 22.1563 86.7362 18.1106 70.4368 18.1106Z" fill="#3B4757"/>
<path d="M70.335 41.6284C97.098 41.6284 118.855 52.7469 127.354 68.1149C129.668 63.9527 131.996 58.5972 131.996 53.9111C131.996 31.9943 104.375 14.2542 70.3641 14.2542C36.3538 14.2542 8.68848 32.0088 8.68848 53.9111C8.68848 58.6117 11.0024 63.9672 13.3309 68.1149C21.7862 52.7614 43.572 41.6284 70.335 41.6284Z" fill="#434D72"/>
<path d="M12.283 66.1363L13.3308 71.3754L14.3931 65.365L12.283 66.1363Z" fill="#434D72"/>
<path d="M128.358 66.1355L127.558 71.3746L127.354 68.1293L128.358 66.1355Z" fill="#2D3247"/>
<path d="M70.335 39.8241C97.098 39.8241 119.888 50.8261 128.387 66.1505C130.701 61.9883 131.967 57.5787 131.967 52.8345C131.967 30.9176 104.345 13.1775 70.335 13.1775C36.3246 13.1775 8.68848 30.9176 8.68848 52.849C8.68848 57.5496 9.95459 62.0028 12.2685 66.165C20.782 50.8261 43.5721 39.8241 70.335 39.8241Z" fill="url(#paint6_linear)"/>
<path opacity="0.2" d="M15.3681 39.6641C15.3681 39.6641 14.1457 49.9239 14.4222 54.3626C14.6987 58.8013 15.3681 61.4936 15.3681 61.4936L12.2829 66.1505C12.2829 66.1505 9.92531 61.3335 9.35774 58.6994C8.81928 56.0508 8.71741 52.1069 8.71741 52.1069L11.206 42.0944L15.3681 39.6641Z" fill="url(#paint7_linear)"/>
<path d="M8.68841 51.6121L8.32458 53.5767L8.86305 55.8907L8.97947 50.9426L8.68841 51.6121Z" fill="#657485"/>
<path d="M132.389 51.7274L132.811 53.663L131.836 55.8896L131.909 51.1162L132.389 51.7274Z" fill="#434D72"/>
<path opacity="0.2" d="M70.335 13.5117C36.281 13.5117 8.68848 31.2518 8.68848 53.1687C8.68848 54.5803 8.81945 55.9629 9.00864 57.3308C15.5284 39.4161 40.5014 26.5221 70.3205 26.5658C100.14 26.6094 125.273 39.7071 131.618 57.2144C131.851 55.8901 131.938 54.5367 131.938 53.1396C131.938 49.2394 131.036 45.3974 129.406 41.8464C127.412 38.0044 124.691 34.308 121.271 30.8444C110.196 20.3807 91.5097 13.5117 70.335 13.5117Z" fill="url(#paint8_linear)"/>
<path d="M70.5243 20.1198C102.09 20.1198 128.038 35.0803 132.316 54.1884C132.724 52.3692 133.131 50.2445 133.131 48.3381C133.131 26.625 105.102 9.04492 70.4806 9.04492C35.859 9.04492 7.87354 26.6104 7.87354 48.3526C7.87354 50.2445 7.91719 51.7726 8.32468 53.5335C12.6033 34.469 38.9588 20.1198 70.5243 20.1198Z" fill="#434D72"/>
<path d="M70.3349 18.6929C101.9 18.6929 128.503 34.5847 132.811 53.7074C133.218 51.8883 133.219 50.3748 133.219 48.4829C133.219 26.7698 104.913 7.63257 70.3349 7.63257C35.757 7.63257 7.6842 25.1981 7.6842 46.9112C7.6842 48.803 7.72786 50.7531 8.13535 52.5577C12.443 33.5224 38.7549 18.6929 70.3349 18.6929Z" fill="url(#paint9_linear)"/>
<defs>
<linearGradient id="paint0_linear" x1="-86.5583" y1="90.3231" x2="507.859" y2="84.4955" gradientUnits="userSpaceOnUse">
<stop stop-color="#E7EFF5"/>
<stop offset="0.1188" stop-color="#C3C5D2"/>
<stop offset="0.170037" stop-color="#4A567A"/>
<stop offset="0.223364" stop-color="#7883A8"/>
<stop offset="0.305011" stop-color="#4B567B"/>
<stop offset="0.3368" stop-color="#3B4565"/>
<stop offset="0.375" stop-color="#DDE4EC"/>
<stop offset="0.4851" stop-color="#98A5B5"/>
<stop offset="0.995" stop-color="#7E8EA0"/>
</linearGradient>
<linearGradient id="paint1_linear" x1="69.2087" y1="96.015" x2="72.1639" y2="106.268" gradientUnits="userSpaceOnUse">
<stop offset="1" stop-color="#2CD8CF"/>
</linearGradient>
<linearGradient id="paint2_linear" x1="68.855" y1="100.157" x2="54.8455" y2="97.0644" gradientUnits="userSpaceOnUse">
<stop stop-color="white" stop-opacity="0"/>
<stop offset="1" stop-color="white"/>
</linearGradient>
<linearGradient id="paint3_linear" x1="44.7896" y1="100.372" x2="95.8513" y2="100.372" gradientUnits="userSpaceOnUse">
<stop stop-color="#182D54" stop-opacity="0"/>
<stop offset="1" stop-color="#3DA8EA"/>
</linearGradient>
<linearGradient id="paint4_linear" x1="71.3894" y1="108.488" x2="71.3894" y2="90.2977" gradientUnits="userSpaceOnUse">
<stop stop-color="#3B4757" stop-opacity="0"/>
<stop offset="1" stop-color="#3B4757"/>
</linearGradient>
<linearGradient id="paint5_linear" x1="10.6643" y1="77.2634" x2="121.878" y2="44.1239" gradientUnits="userSpaceOnUse">
<stop stop-color="#5B6689"/>
<stop offset="1" stop-color="#2C3045"/>
</linearGradient>
<linearGradient id="paint6_linear" x1="8.69109" y1="39.667" x2="131.956" y2="39.667" gradientUnits="userSpaceOnUse">
<stop stop-color="#4C597C"/>
<stop offset="0.162033" stop-color="#566489"/>
<stop offset="0.2949" stop-color="#5C6689"/>
<stop offset="0.428" stop-color="#48537A"/>
<stop offset="0.995" stop-color="#2C3045"/>
</linearGradient>
<linearGradient id="paint7_linear" x1="14.5456" y1="62.0548" x2="12.0942" y2="47.6454" gradientUnits="userSpaceOnUse">
<stop stop-color="#8799B3" stop-opacity="0"/>
<stop offset="1" stop-color="#8799B3"/>
</linearGradient>
<linearGradient id="paint8_linear" x1="70.3236" y1="32.9552" x2="70.3236" y2="19.4028" gradientUnits="userSpaceOnUse">
<stop stop-color="#374E68" stop-opacity="0.1"/>
<stop offset="1" stop-color="#374E68"/>
</linearGradient>
<linearGradient id="paint9_linear" x1="7.68096" y1="30.6672" x2="133.219" y2="30.6672" gradientUnits="userSpaceOnUse">
<stop stop-color="#6A7598"/>
<stop offset="0.292374" stop-color="#7D88AC"/>
<stop offset="1" stop-color="#495478"/>
</linearGradient>
</defs>
</svg>
