<svg width="140" height="140" viewBox="0 0 140 140" fill="none" xmlns="http://www.w3.org/2000/svg">
<g clip-path="url(#clip0)">
<path d="M139.341 42.3458L133.398 48.7638L126.276 56.4377L125.939 56.79L125.877 56.8666L120.961 54.5537L120.011 54.1095L71.5317 31.2102L70.7659 30.8425L70.7965 30.8119L70.9803 30.6128L70.9956 30.5975L71.0569 30.5362L77.7812 23.4902L84.1838 16.7813C84.9037 16.0154 86.0066 15.7857 86.9716 16.1839L90.1269 17.5318L93.6499 19.0482L94.7374 19.5078L95.7943 19.952L138.407 38.2102C140.061 38.8994 140.536 41.0132 139.341 42.3458Z" fill="url(#paint0_linear)"/>
<path d="M79.1905 25.6552C79.5581 25.1344 79.3284 24.4145 78.7463 24.1847L77.8119 23.8171C77.766 23.8018 77.7047 23.7865 77.6435 23.7711C77.1686 23.6486 76.6785 23.7864 76.3415 24.1234L70.0767 30.3116L70.0001 30.3882L70.475 30.6026L70.9345 30.8171L76.8929 33.5282L78.5931 31.6136C79.022 31.1234 79.022 30.4035 78.6084 29.9134L78.1336 29.3619C77.6435 28.7952 77.5975 27.9528 78.0264 27.3401L79.1905 25.6552ZM133.261 49.0294C133.153 48.8915 133.015 48.7843 132.847 48.723L131.422 48.1716C130.948 48.0031 130.427 48.1103 130.075 48.4626L127.869 50.6683C127.256 51.2963 126.352 51.5414 125.51 51.3269L124.223 51.0053C123.657 50.8521 123.044 51.0359 122.646 51.4648L120.271 53.9615L119.889 54.3751L119.873 54.3904L120.838 54.8193L125.816 57.0709L126.766 57.4998L127.072 57.1475L133.199 50.2701C133.536 49.9024 133.536 49.3816 133.261 49.0294Z" fill="url(#paint1_linear)"/>
<path d="M8.82301 83.5338L69.893 123.742C71.7617 124.998 74.1972 124.982 76.0506 123.726L129.569 87.2865C131.943 85.6629 133.368 82.9823 133.368 80.118V62.2734C133.368 60.7416 132.479 59.3478 131.101 58.6891L62.1731 26.4922C60.8099 25.8489 59.2475 25.8335 57.869 26.4309L44.9718 31.746C18.7946 45.3784 6.08122 56.8511 5.77487 75.5228V77.8051C5.75955 80.1333 6.90835 82.2624 8.82301 83.5338Z" fill="url(#paint2_linear)"/>
<path d="M75.6218 123.018L129.569 86.3028C131.944 84.6791 133.368 81.9986 133.368 79.1343V61.0446C133.368 59.9571 132.189 59.2831 131.254 59.8345L105.445 74.8455C85.3483 86.5479 72.3899 97.0402 72.972 116.003V121.609C72.972 122.972 74.4884 123.784 75.6218 123.018Z" fill="url(#paint3_linear)"/>
<path d="M75.6218 124.018L129.569 87.3028C131.944 85.6791 133.368 82.9986 133.368 80.1343V62.0446C133.368 60.9571 132.189 60.2831 131.254 60.8345L105.445 75.8455C85.3483 87.5479 72.3899 98.0402 72.972 117.003V122.609C72.972 123.972 74.4884 124.784 75.6218 124.018Z" fill="url(#paint4_linear)"/>
<path d="M122.003 80.1185V86.5058L123.335 85.6021V79.1995L122.003 80.1185ZM118.939 82.2476V88.6043L120.272 87.7005V81.3286L118.939 82.2476ZM115.876 84.392V90.718L117.208 89.8143V83.473L115.876 84.392ZM112.812 86.5211V92.8165L114.145 91.9128V85.6021L112.812 86.5211ZM109.764 88.6502V94.915L111.097 94.0113V87.7312L109.764 88.6502ZM106.701 90.7793V97.0134L108.033 96.1097V89.8603L106.701 90.7793ZM103.637 92.9084V99.1119L104.97 98.2082V91.9894L103.637 92.9084ZM100.574 95.0375V101.21L101.906 100.307V94.1185L100.574 95.0375ZM97.5102 97.1666V103.309L98.8428 102.405V96.2476L97.5102 97.1666ZM94.4467 99.2957V105.423L95.7793 104.504V98.3767L94.4467 99.2957Z" fill="#2ED8CF"/>
<path d="M10.1403 81.804V83.3357C10.1403 83.6727 10.3088 83.9943 10.5845 84.1782L57.0419 114.981C57.7158 115.425 58.6042 114.951 58.6042 114.139V111.872C58.6042 111.091 58.206 110.371 57.532 109.972L11.672 80.9462C10.9981 80.5326 10.1403 81.0228 10.1403 81.804Z" fill="#343951"/>
<path d="M57.4859 112.822L46.6107 120.665C45.3393 121.584 43.6238 121.614 42.3065 120.741L0.68945 92.6647C-0.260222 92.0367 -0.229588 90.6275 0.735402 90.0148L11.2584 83.168L57.4859 112.822Z" fill="url(#paint5_linear)"/>
<path d="M51.2211 108.762L48.4946 110.661C47.5296 111.351 46.2429 111.381 45.2473 110.723L13.2495 89.1254C12.5296 88.6505 12.5449 87.5936 13.2801 87.1341L15.5165 85.8015L51.2211 108.762Z" fill="url(#paint6_linear)"/>
<path d="M37.4355 77.8061L53.8097 87.4407C54.6521 87.9155 54.9738 89.003 54.4837 89.8608L51.4968 96.2021C51.0066 97.0905 49.8885 97.3816 49.0154 96.8608L32.6259 86.9199C31.8141 86.4297 31.5231 85.3882 31.9826 84.5457L34.9694 78.4954C35.4749 77.6376 36.5778 77.316 37.4355 77.8061Z" fill="url(#paint7_linear)"/>
<path d="M36.7618 84.1628L37.0069 84.27C36.9609 84.4232 36.9456 84.5457 36.9609 84.653C36.9609 84.7602 36.9916 84.8674 37.0528 84.9746C37.1141 85.0818 37.1907 85.1737 37.3132 85.235C37.4205 85.2963 37.497 85.3269 37.5889 85.3269C37.6809 85.3269 37.7574 85.3116 37.8187 85.2657C37.88 85.2197 37.9259 85.1584 37.9719 85.0818C38.0178 85.0053 38.0178 84.9133 38.0178 84.8368C38.0178 84.7602 37.9719 84.6683 37.9106 84.5764C37.8647 84.5151 37.7728 84.4079 37.6196 84.2547C37.4817 84.0862 37.3745 83.9637 37.3132 83.8718C37.252 83.7492 37.206 83.642 37.2213 83.5195C37.2213 83.3969 37.252 83.2744 37.2979 83.1365C37.3592 83.014 37.4358 82.8914 37.5277 82.7995C37.6349 82.723 37.7574 82.677 37.88 82.677C38.0025 82.677 38.1557 82.723 38.2782 82.7842C38.4161 82.8761 38.5539 82.9834 38.6305 83.1059C38.7071 83.2284 38.7531 83.3816 38.7684 83.5348C38.7684 83.688 38.7377 83.8411 38.6765 83.9943L38.4314 83.8871C38.4927 83.7186 38.508 83.5501 38.462 83.4276C38.4161 83.305 38.3242 83.1978 38.171 83.1059C38.0025 83.014 37.88 82.9987 37.7728 83.014C37.6655 83.0599 37.6043 83.1212 37.543 83.2437C37.497 83.351 37.497 83.4276 37.5124 83.5195C37.5277 83.6114 37.6349 83.7492 37.8187 83.9177C38.0025 84.1168 38.1251 84.2394 38.171 84.3466C38.2476 84.4691 38.2935 84.6223 38.3089 84.7755C38.3089 84.9287 38.2782 85.0512 38.217 85.1891C38.1557 85.3269 38.0638 85.4341 37.9566 85.5414C37.8493 85.618 37.7268 85.6792 37.5736 85.6792C37.4205 85.6792 37.2979 85.6486 37.1601 85.572C36.9916 85.4648 36.8537 85.3576 36.7618 85.2044C36.6852 85.0818 36.624 84.9133 36.624 84.7449C36.6699 84.5151 36.7005 84.3313 36.7618 84.1628Z" fill="#151A1E"/>
<path d="M40.729 84.2235L41.0047 84.3767L40.3001 85.8778C40.1622 86.1535 40.055 86.3373 39.9478 86.4598C39.8406 86.5824 39.6874 86.6589 39.5496 86.7049C39.3964 86.7508 39.2126 86.7049 39.0441 86.5977C38.8603 86.4905 38.7377 86.3679 38.6611 86.2147C38.5846 86.0616 38.5692 85.8931 38.5846 85.7093C38.5999 85.5255 38.6765 85.2957 38.8143 85.0047L39.473 83.4883L39.7487 83.6415L39.0747 85.1579C38.9675 85.3876 38.9215 85.5561 38.8909 85.6786C38.8603 85.8012 38.8909 85.9084 38.9522 86.0156C38.9981 86.1228 39.0747 86.1994 39.1973 86.276C39.3811 86.3832 39.5495 86.4139 39.6721 86.322C39.7946 86.2607 39.9478 86.0616 40.101 85.7246L40.729 84.2235Z" fill="#151A1E"/>
<path d="M40.2083 87.2256L41.4337 84.637L41.7094 84.7901L41.7554 87.4094L42.7357 85.3722L42.9807 85.5254L41.7094 88.114L41.4643 87.9608L41.4337 85.3416L40.4687 87.3787L40.2083 87.2256Z" fill="#151A1E"/>
<path d="M42.1686 88.3748L43.4553 85.8015L43.731 85.9547L42.4444 88.528L42.1686 88.3748Z" fill="#151A1E"/>
<path d="M42.8579 88.7889L44.1599 86.2156L44.4356 86.3687L44.405 88.988L45.4465 86.9814L45.6916 87.1346L44.3437 89.7079L44.0986 89.5548L44.1292 86.9355L43.103 88.9421L42.8579 88.7889Z" fill="#151A1E"/>
<path d="M44.8035 89.9381L46.182 87.3801L47.5146 88.146L47.3461 88.437L46.2892 87.8243L45.8604 88.6055L46.7794 89.1263L46.6109 89.4326L45.6919 88.9119L45.0639 90.076L44.8035 89.9381Z" fill="#151A1E"/>
<path d="M49.1077 89.2333C49.0311 89.0495 48.9086 88.8964 48.7248 88.7891C48.449 88.6207 48.158 88.6053 47.8517 88.7585C47.53 88.8964 47.2849 89.1874 47.0398 89.601C46.9173 89.8307 46.8254 90.0605 46.8101 90.2902C46.7641 90.5353 46.7795 90.7651 46.856 90.9642C46.9326 91.148 47.0552 91.3012 47.239 91.4084C47.4075 91.5003 47.576 91.5463 47.7751 91.5309C47.9589 91.5156 48.1733 91.439 48.3725 91.2705C48.5716 91.1021 48.7401 90.9029 48.8932 90.6579C49.0464 90.4128 49.1383 90.1677 49.1843 89.9073C49.2149 89.6469 49.1996 89.4172 49.1077 89.2333ZM48.8473 89.9226C48.8167 90.1064 48.7401 90.2902 48.6328 90.5047C48.4337 90.811 48.2499 91.0408 48.0048 91.148C47.7751 91.2552 47.5606 91.2399 47.3768 91.1327C47.193 91.0255 47.0705 90.857 47.0552 90.5966C47.0399 90.3515 47.1011 90.0758 47.2849 89.7695C47.4994 89.3712 47.7138 89.1568 47.9283 89.0649C48.1427 88.9883 48.3418 88.9883 48.5409 89.0955C48.6788 89.1568 48.7707 89.264 48.832 89.4172C48.8779 89.5703 48.8779 89.7235 48.8473 89.9226Z" fill="#151A1E"/>
<path d="M62.9544 60.5731L61.484 59.7307C60.4884 59.1486 60.6568 58.0764 61.8363 57.3565C63.0004 56.6366 64.7312 56.514 65.7115 57.0808L67.136 57.8926C68.1164 58.4593 68.0091 59.5162 66.8603 60.2668C65.7422 61.0173 63.9654 61.1552 62.9544 60.5731Z" fill="url(#paint8_linear)"/>
<path d="M73.554 66.7466L72.0835 65.8428C71.0879 65.2302 71.2411 64.112 72.4052 63.3614C73.554 62.6262 75.2849 62.519 76.2652 63.1164L77.705 63.9895C78.6853 64.5868 78.5934 65.6897 77.4753 66.4555C76.3418 67.2367 74.5649 67.3899 73.554 66.7466Z" fill="url(#paint9_linear)"/>
<path d="M84.7507 72.9186L83.2343 72.0302C82.1928 71.4328 82.2847 70.2534 83.4028 69.4416C84.4903 68.6451 86.2212 68.4613 87.2321 69.0433L88.7179 69.8858C89.7442 70.4678 89.7135 71.6166 88.6413 72.4744C87.5691 73.3322 85.8076 73.5313 84.7507 72.9186Z" fill="url(#paint10_linear)"/>
<path d="M77.046 77.9583L75.4836 77.0086C74.4267 76.3653 74.5646 75.0939 75.7746 74.2209C76.9694 73.3478 78.7768 73.1486 79.8337 73.7613L81.3655 74.6651C82.4224 75.2777 82.3305 76.5338 81.1663 77.4528C79.9869 78.3719 78.1182 78.6169 77.046 77.9583Z" fill="url(#paint11_linear)"/>
<path d="M66.0635 71.5704L64.5624 70.6054C63.5362 69.9468 63.7506 68.752 65.0219 67.9402C66.2626 67.1437 68.1007 67.0212 69.0963 67.6492L70.5668 68.5682C71.593 69.1962 71.4245 70.391 70.2145 71.2181C68.9891 72.0912 67.1051 72.2444 66.0635 71.5704Z" fill="url(#paint12_linear)"/>
<path d="M54.9129 65.0765L53.4118 64.1728C52.4008 63.5448 52.6306 62.396 53.9019 61.6148C55.1579 60.8336 56.996 60.7111 57.9916 61.2931L59.4621 62.1662C60.473 62.7636 60.3046 63.8971 59.0639 64.7242C57.8385 65.5207 55.9544 65.6892 54.9129 65.0765Z" fill="url(#paint13_linear)"/>
<path d="M46.7792 70.0699L45.2475 69.105C44.2059 68.431 44.5276 67.1903 45.9061 66.3325C47.2693 65.4901 49.2146 65.3369 50.2409 65.9649L51.7573 66.884C52.7836 67.512 52.5538 68.7527 51.2212 69.6411C49.8426 70.5448 47.8361 70.7439 46.7792 70.0699Z" fill="url(#paint14_linear)"/>
<path d="M57.6393 76.5798L56.0923 75.5535C55.0507 74.8489 55.3418 73.5623 56.7203 72.6739C58.0835 71.8008 60.0135 71.6629 61.0398 72.3369L62.5562 73.3172C63.5978 73.9912 63.3833 75.2778 62.0507 76.1815C60.7028 77.1159 58.7116 77.2844 57.6393 76.5798Z" fill="url(#paint15_linear)"/>
<path d="M69.3569 83.7023L67.7486 82.6913C66.6611 81.9867 66.8755 80.6235 68.2081 79.6585C69.4948 78.7089 71.4401 78.4791 72.5123 79.1377L74.09 80.1027C75.1775 80.7614 75.0243 82.1246 73.753 83.1202C72.451 84.1465 70.4751 84.4069 69.3569 83.7023Z" fill="url(#paint16_linear)"/>
<path d="M23.362 67.2692L13.2283 60.9702C12.2893 60.3898 12.2457 59.0231 13.1645 58.3912L56.9719 28.1387L71.5704 36.685C72.3614 37.1512 72.3844 38.3023 71.6097 38.8029L27.3348 67.2396C26.1182 68.0109 24.5838 68.0315 23.362 67.2692Z" fill="url(#paint17_linear)"/>
<path d="M38.2487 51.5256C35.8841 53.8995 36.6784 56.9266 36.5837 57.6429C36.5043 58.3599 36.5768 59.4366 35.5061 60.3681L29.5542 64.369C28.0859 65.604 24.9172 66.1464 22.1806 64.6542C18.6509 62.7417 14.6665 60.0567 14.163 59.3432C13.7741 58.8038 13.703 57.6964 14.2002 57.2289C14.5532 56.8927 14.9055 56.5717 15.4674 56.0305L15.0285 53.6027C15.1331 53.3315 15.2544 53.0305 15.4064 52.7309C15.7271 52.1018 16.7814 51.5223 17.3761 50.9366C21.2479 50.4423 31.5631 49.8801 38.1752 49.4827C38.2058 49.4842 38.2517 49.4863 38.283 49.4724C41.0806 49.3267 38.5231 51.2317 38.2487 51.5256Z" fill="#2F344A"/>
<path d="M70.9038 37.498C70.8365 37.9549 70.681 38.331 70.1888 38.6914C69.57 39.1379 64.8589 41.8472 64.8589 41.8472C63.7886 42.4414 62.3613 43.1263 60.8526 41.9366L56.2837 38.3043C56.046 38.1399 55.9371 37.8435 55.9958 37.5702L56.2279 36.5383L56.4767 35.4765C56.5297 35.3257 56.5995 35.1449 56.6838 34.9802C56.8693 34.6208 57.1312 34.265 57.4689 33.928C59.6594 33.6467 66.7701 32.7512 70.522 32.5273C70.5373 32.5281 69.6385 32.0722 69.6538 32.0729C70.622 32.026 70.9711 37.0411 70.9038 37.498Z" fill="#2F344A"/>
<path d="M39.3426 51.0847C36.9779 53.4586 36.6877 56.7265 36.6083 57.4435C36.5289 58.1605 36.4498 58.5402 35.3784 59.487L29.4264 63.4879C27.8262 64.594 25.352 65.3681 22.1949 63.6877C18.7534 61.856 15.1173 59.2638 14.4733 58.6052C14.0051 58.1233 13.8671 57.7949 13.9824 57.2942L14.4911 54.6038L14.9161 52.7222C15.0207 52.4511 15.1421 52.1501 15.294 51.8505C15.6147 51.2214 16.669 50.6418 17.2637 50.0562C21.1355 49.5618 31.4507 48.9996 38.0628 48.6023C38.0934 48.6037 38.1393 48.6059 38.1706 48.592C40.9376 48.4449 39.6322 50.7915 39.3426 51.0847Z" fill="url(#paint18_linear)"/>
<path d="M70.8895 36.8221C70.8222 37.279 70.6667 37.6551 70.1745 38.0156C69.5557 38.4621 64.8447 41.1714 64.8447 41.1714C63.7743 41.7656 62.347 42.4504 60.8384 41.2608L56.2701 37.6132C56.0324 37.4488 55.9236 37.1524 55.9823 36.8791L56.2144 35.8472L56.4632 34.7854C56.5162 34.6345 56.586 34.4538 56.6703 34.289C56.8557 33.9297 57.1177 33.5739 57.4554 33.2369C59.6459 32.9556 66.7565 32.0601 70.5084 31.8362C70.5237 31.8369 70.9582 31.3972 70.9735 31.3979C71.9403 31.3816 70.9568 36.3653 70.8895 36.8221Z" fill="url(#paint19_linear)"/>
<path d="M70.4033 33.763C68.1647 34.7474 61.6571 36.1923 54.6808 40.1302C52.0194 41.6316 47.8595 44.6886 43.7391 47.8854C43.7078 47.8993 43.6911 47.9292 43.6598 47.9431C43.3096 48.2181 42.9602 48.4778 42.6253 48.7536C36.2278 53.7611 36.2271 53.7764 30.5449 58.5719C27.5923 61.0565 24.9474 62.206 21.9835 59.9978L14.4758 54.6032C14.4758 54.6032 14.7635 52.3779 15.2788 51.8499L22.2585 55.4104C23.9621 57.0232 26.508 58.0005 28.9018 56.3179C28.9018 56.3179 33.8809 52.1337 39.6464 47.5261C44.5507 43.6297 50.0216 39.4224 53.5267 37.255C53.9053 37.0272 54.2526 36.8134 54.5832 36.6295C61.5595 32.6916 68.0824 31.2474 70.3057 30.2623C70.337 30.2484 70.3836 30.2352 70.4156 30.2061C71.6147 31.458 71.8284 33.124 70.4033 33.763Z" fill="url(#paint20_linear)"/>
<path d="M70.3993 30.2212C70.368 30.2351 70.3367 30.249 70.2893 30.2775C68.0507 31.2619 61.5279 32.7061 54.5668 36.6447C54.2362 36.8286 53.8889 37.0424 53.5103 37.2701C49.9885 39.4675 44.5643 43.6616 39.7371 47.5463C34.1456 52.0393 29.3872 56.0958 29.3872 56.0958C26.9934 57.7784 24.6797 58.0693 21.8702 56.497L15.2631 51.8497C15.4048 51.4423 16.4314 50.1408 17.294 49.3989C18.3007 48.5258 37.0039 33.8024 46.6366 29.1296C55.6416 24.7649 62.0199 24.4487 64.6422 26.0889C67.2646 27.7291 69.3959 29.3771 70.3993 30.2212Z" fill="url(#paint21_linear)"/>
<path d="M115.983 61.3692L104.005 69.0738C102.733 69.9009 101.002 69.9775 99.6391 69.3189L74.626 56.5749L73.4619 55.9775L72.5122 55.5027L65.7113 52.041C64.7617 51.5202 64.8382 50.4633 65.8645 49.8659L77.5975 43.5705C78.9148 42.8047 80.7223 42.6974 82.0395 43.2948L92.9761 48.2729L94.4312 48.9316L95.1511 49.2532L115.845 58.6581C117.162 59.2554 117.208 60.588 115.983 61.3692Z" fill="url(#paint22_linear)"/>
</g>
<defs>
<linearGradient id="paint0_linear" x1="73.1515" y1="17.7628" x2="141.866" y2="54.4108" gradientUnits="userSpaceOnUse">
<stop stop-color="#DFE6EE"/>
<stop offset="0.2178" stop-color="#F5F7F8"/>
<stop offset="0.3168" stop-color="#F5F7F8"/>
<stop offset="0.995" stop-color="#ABB6C3"/>
</linearGradient>
<linearGradient id="paint1_linear" x1="103.746" y1="35.7342" x2="92.9536" y2="59.1563" gradientUnits="userSpaceOnUse">
<stop offset="1" stop-color="#2ED8CF"/>
</linearGradient>
<linearGradient id="paint2_linear" x1="9.40096" y1="58.9262" x2="111.28" y2="88.2404" gradientUnits="userSpaceOnUse">
<stop offset="0.1803" stop-color="#637096"/>
<stop offset="0.3475" stop-color="#646F8D"/>
<stop offset="0.995" stop-color="#384464"/>
</linearGradient>
<linearGradient id="paint3_linear" x1="12.9989" y1="91.4763" x2="149.961" y2="91.4763" gradientUnits="userSpaceOnUse">
<stop offset="0.425269" stop-color="#596482"/>
<stop offset="0.995" stop-color="#4A546F"/>
</linearGradient>
<linearGradient id="paint4_linear" x1="12.9989" y1="92.4763" x2="149.961" y2="92.4763" gradientUnits="userSpaceOnUse">
<stop stop-color="#E7EFF5"/>
<stop offset="0.2624" stop-color="#C3C5D2"/>
<stop offset="0.3352" stop-color="#C6C8D5"/>
<stop offset="0.3997" stop-color="#CED3DD"/>
<stop offset="0.4344" stop-color="#424B64"/>
<stop offset="0.4705" stop-color="#3F4963"/>
<stop offset="0.604" stop-color="#3D445F"/>
<stop offset="0.739583" stop-color="#373D56"/>
<stop offset="0.995" stop-color="#2D3146"/>
</linearGradient>
<linearGradient id="paint5_linear" x1="0.818758" y1="85.2078" x2="53.1759" y2="118.888" gradientUnits="userSpaceOnUse">
<stop stop-color="#E7EFF5"/>
<stop offset="0.3997" stop-color="#CED3DD"/>
<stop offset="0.4344" stop-color="#DDE4EC"/>
<stop offset="0.4705" stop-color="#DFE6EE"/>
<stop offset="1" stop-color="#98A5B5"/>
</linearGradient>
<linearGradient id="paint6_linear" x1="9.58066" y1="95.9911" x2="69.0572" y2="102.943" gradientUnits="userSpaceOnUse">
<stop offset="1" stop-color="#2ED8CF"/>
</linearGradient>
<linearGradient id="paint7_linear" x1="31.0273" y1="79.3567" x2="55.0559" y2="94.7566" gradientUnits="userSpaceOnUse">
<stop stop-color="#C6C8D5"/>
<stop offset="0.1769" stop-color="#CED3DD"/>
<stop offset="0.3317" stop-color="#E7EFF5"/>
<stop offset="1" stop-color="#98A5B5"/>
</linearGradient>
<linearGradient id="paint8_linear" x1="61.2879" y1="58.6646" x2="67.3944" y2="59.2808" gradientUnits="userSpaceOnUse">
<stop stop-color="#2CD8CF"/>
</linearGradient>
<linearGradient id="paint9_linear" x1="71.8789" y1="64.7667" x2="77.9797" y2="65.3521" gradientUnits="userSpaceOnUse">
<stop stop-color="#2CD8CF"/>
</linearGradient>
<linearGradient id="paint10_linear" x1="82.9602" y1="70.8097" x2="89.0684" y2="71.3765" gradientUnits="userSpaceOnUse">
<stop stop-color="#2CD8CF"/>
</linearGradient>
<linearGradient id="paint11_linear" x1="75.2501" y1="75.6761" x2="81.685" y2="76.2599" gradientUnits="userSpaceOnUse">
<stop stop-color="#2CD8CF"/>
</linearGradient>
<linearGradient id="paint12_linear" x1="64.3906" y1="69.4343" x2="70.8193" y2="70.0399" gradientUnits="userSpaceOnUse">
<stop stop-color="#2CD8CF"/>
</linearGradient>
<linearGradient id="paint13_linear" x1="53.2591" y1="63.0114" x2="59.6927" y2="63.6485" gradientUnits="userSpaceOnUse">
<stop stop-color="#2CD8CF"/>
</linearGradient>
<linearGradient id="paint14_linear" x1="45.1393" y1="67.8341" x2="51.9474" y2="68.4928" gradientUnits="userSpaceOnUse">
<stop stop-color="#2CD8CF"/>
</linearGradient>
<linearGradient id="paint15_linear" x1="55.9721" y1="74.2632" x2="62.7708" y2="74.8924" gradientUnits="userSpaceOnUse">
<stop stop-color="#2CD8CF"/>
</linearGradient>
<linearGradient id="paint16_linear" x1="67.5601" y1="81.2219" x2="74.3762" y2="81.8261" gradientUnits="userSpaceOnUse">
<stop stop-color="#2CD8CF"/>
</linearGradient>
<linearGradient id="paint17_linear" x1="44.8992" y1="30.893" x2="40.6561" y2="60.7431" gradientUnits="userSpaceOnUse">
<stop stop-color="#44527A"/>
<stop offset="0.995" stop-color="#44527A"/>
</linearGradient>
<linearGradient id="paint18_linear" x1="14.5048" y1="53.8584" x2="38.6449" y2="57.6866" gradientUnits="userSpaceOnUse">
<stop stop-color="#474E72"/>
<stop offset="0.3042" stop-color="#50577C"/>
<stop offset="0.485228" stop-color="#5D668E"/>
<stop offset="0.60913" stop-color="#4D557C"/>
<stop offset="1" stop-color="#3E4669"/>
</linearGradient>
<linearGradient id="paint19_linear" x1="56.29" y1="35.015" x2="70.8275" y2="37.3204" gradientUnits="userSpaceOnUse">
<stop stop-color="#414768"/>
<stop offset="0.2574" stop-color="#3F4564"/>
<stop offset="0.3352" stop-color="#464D71"/>
<stop offset="0.3997" stop-color="#4E5579"/>
<stop offset="0.4592" stop-color="#5B6288"/>
<stop offset="0.4655" stop-color="#575E83"/>
<stop offset="0.5693" stop-color="#525A83"/>
<stop offset="0.995" stop-color="#464D71"/>
</linearGradient>
<linearGradient id="paint20_linear" x1="16.6662" y1="40.788" x2="68.762" y2="49.0495" gradientUnits="userSpaceOnUse">
<stop stop-color="#5C6A8F"/>
<stop offset="0.177373" stop-color="#717AA4"/>
<stop offset="0.235491" stop-color="#7281A9"/>
<stop offset="0.269657" stop-color="#637198"/>
<stop offset="0.6327" stop-color="#6E7CA4"/>
<stop offset="0.6881" stop-color="#62729D"/>
<stop offset="1" stop-color="#5D6B91"/>
</linearGradient>
<linearGradient id="paint21_linear" x1="13.4568" y1="52.4158" x2="73.4158" y2="28.6496" gradientUnits="userSpaceOnUse">
<stop stop-color="#68779B"/>
<stop offset="0.183042" stop-color="#7381A5"/>
<stop offset="0.460627" stop-color="#717D9A"/>
<stop offset="0.685091" stop-color="#586484"/>
<stop offset="0.946407" stop-color="#65739A"/>
</linearGradient>
<linearGradient id="paint22_linear" x1="88.7211" y1="44.2606" x2="92.8633" y2="65.003" gradientUnits="userSpaceOnUse">
<stop offset="1" stop-color="#2ED8CF"/>
</linearGradient>
<clipPath id="clip0">
<rect y="16" width="140" height="108.676" fill="white"/>
</clipPath>
</defs>
</svg>
