<svg width="140" height="140" viewBox="0 0 140 140" fill="none" xmlns="http://www.w3.org/2000/svg">
<g clip-path="url(#clip0)">
<path d="M70.0701 119.862L0.0700684 48.9518L66.9376 2.05176L140.07 48.6018L70.0701 119.862Z" fill="#4A5572"/>
<path d="M0.0700684 52.3644L66.9376 5.46436L140.07 52.0144" fill="url(#paint0_linear)"/>
<path d="M133.7 138.219H6.44007C2.92257 138.219 0.0700684 135.367 0.0700684 131.849V48.6018H140.07V131.849C140.07 135.367 137.218 138.219 133.7 138.219Z" fill="url(#paint1_linear)"/>
<path d="M103.106 24.1529L13.9084 61.5652L40.6325 125.28L129.83 87.8677L103.106 24.1529Z" fill="#C5CBD3"/>
<path d="M102.843 24.5387L13.6458 61.9509L40.3698 125.666L129.567 88.2535L102.843 24.5387Z" fill="white"/>
<path opacity="0.36" d="M69.218 57.8581C69.4505 57.9367 69.7298 57.965 70.056 57.943C70.3822 57.9209 70.674 57.8567 70.9316 57.7503C71.7162 57.4262 71.9931 56.9849 71.7625 56.4265C71.6978 56.2701 71.5976 56.1467 71.4616 56.0564C71.3257 55.966 71.1644 55.903 70.9778 55.8674C70.7913 55.8318 70.4545 55.7976 69.9677 55.7649C69.2916 55.7174 68.8152 55.6113 68.5387 55.4466C68.2612 55.2795 68.0588 55.0419 67.9315 54.7338C67.7396 54.2693 67.774 53.824 68.0347 53.3979C68.2954 52.9719 68.7098 52.6415 69.2778 52.4068C69.8337 52.1772 70.2695 52.076 70.5851 52.1034L70.9102 52.8904C70.4768 52.7962 70.0026 52.8554 69.4876 53.0682C69.1458 53.2094 68.8965 53.3969 68.7395 53.6308C68.584 53.8613 68.5589 54.1041 68.6643 54.3592C68.7577 54.5855 68.9084 54.7388 69.1163 54.8191C69.3242 54.8995 69.7279 54.9595 70.3275 54.9992C70.9847 55.0348 71.4769 55.1386 71.8043 55.3104C72.1317 55.4823 72.363 55.7319 72.4982 56.0592C72.7011 56.5502 72.6786 57.0004 72.4307 57.4099C72.1829 57.8194 71.7425 58.1549 71.1095 58.4164C70.8881 58.5079 70.6165 58.5834 70.2946 58.6432C69.9761 58.7043 69.7306 58.717 69.558 58.6812L69.218 57.8581ZM77.3825 53.0483C78.0357 54.6295 77.6451 55.7164 76.2107 56.309C74.8364 56.8768 73.8341 56.3977 73.2037 54.8718L71.8003 51.4746L72.5223 51.1763L73.9123 54.541C74.3747 55.6602 75.0752 56.0258 76.0138 55.6381C76.9212 55.2632 77.1511 54.5343 76.7037 53.4512L75.2913 50.0324L76.0134 49.7341L77.3825 53.0483ZM84.2695 52.8699L83.4139 53.2234L78.8044 50.035C78.6743 49.945 78.5603 49.8498 78.4625 49.7494L78.4408 49.7583C78.5117 49.8755 78.6293 50.1327 78.7933 50.5298L80.4174 54.4613L79.7026 54.7566L77.3924 49.1644L78.2986 48.7901L82.8009 51.934C83.0144 52.0825 83.1446 52.1795 83.1916 52.2249L83.206 52.2189C83.1163 52.07 82.9919 51.803 82.8328 51.4179L81.2445 47.5731L81.9593 47.2778L84.2695 52.8699ZM84.919 46.7694L84.381 46.9916L86.1871 51.3635L86.7251 51.1413L86.9771 51.7514L85.1792 52.4941L84.9272 51.884L85.4651 51.6618L83.659 47.2899L83.1211 47.5121L82.8691 46.902L84.6669 46.1592L84.919 46.7694ZM92.4573 49.4874L91.6017 49.8409L86.9923 46.6525C86.8621 46.5625 86.7481 46.4673 86.6503 46.3669L86.6286 46.3758C86.6996 46.493 86.8171 46.7502 86.9811 47.1473L88.6053 51.0788L87.8905 51.3741L85.5803 45.7819L86.4864 45.4076L90.9888 48.5515C91.2022 48.7 91.3325 48.7969 91.3794 48.8424L91.3938 48.8364C91.3041 48.6875 91.1798 48.4205 91.0207 48.0354L89.4323 44.1906L90.1471 43.8953L92.4573 49.4874ZM94.7412 42.7497L92.5823 43.6416L93.3549 45.5116L95.3549 44.6854L95.6174 45.3208L93.6173 46.147L94.627 48.5911L93.905 48.8894L91.5948 43.2972L94.4757 42.1071L94.7412 42.7497ZM96.3443 44.6866C95.9715 43.784 95.919 42.9647 96.1868 42.2286C96.4547 41.4924 97.0062 40.9518 97.8413 40.6068C98.6187 40.2857 99.3523 40.2883 100.042 40.6147C100.732 40.9411 101.25 41.5231 101.596 42.3606C101.971 43.268 102.025 44.088 101.759 44.8208C101.492 45.5535 100.952 46.0879 100.139 46.424C99.3446 46.7521 98.6001 46.7539 97.9054 46.4295C97.2107 46.1051 96.6903 45.5241 96.3443 44.6866ZM97.0786 44.3156C97.358 44.9919 97.7543 45.4636 98.2675 45.7305C98.7821 45.9941 99.3174 46.0111 99.8733 45.7814C100.47 45.5348 100.858 45.1465 101.036 44.6164C101.216 44.0829 101.16 43.4647 100.87 42.762C100.572 42.0399 100.174 41.5519 99.6778 41.2978C99.1836 41.0427 98.6465 41.0349 98.0664 41.2746C97.496 41.5102 97.1194 41.9081 96.9367 42.4682C96.7539 43.0283 96.8012 43.6441 97.0786 44.3156Z" fill="#2BD9D0"/>
<path d="M104.617 47.9369L70.2578 62.3481L70.9347 63.962L105.294 49.5508L104.617 47.9369Z" fill="#2CD9D0"/>
<path d="M105.982 51.4892L71.623 65.9004L72.2999 67.5142L106.659 53.103L105.982 51.4892Z" fill="#2CD9D0"/>
<path d="M53.8826 89.4643L0.0700684 130.327V48.6018L53.8826 89.4643Z" fill="#6C7396"/>
<path d="M86.1875 89.4643L140 130.327V48.6018L86.1875 89.4643Z" fill="#6C7396"/>
<path d="M134.085 74.1173L140.035 77.2673V59.1373L134.085 55.9873V74.1173Z" fill="white"/>
<path d="M134.085 128.595L140.035 131.745V113.598L134.085 110.448V128.595Z" fill="white"/>
<path d="M134.085 101.365L140.035 104.515V86.3675L134.085 83.2175V101.365Z" fill="#2CD9D0"/>
<path d="M5.95 74.1173L0 77.2673V59.1373L5.95 55.9873V74.1173Z" fill="#2CD9D0"/>
<path d="M5.95 128.595L0 131.745V113.598L5.95 110.448V128.595Z" fill="#2CD9D0"/>
<path d="M5.95 101.365L0 104.515V86.3675L5.95 83.2175V101.365Z" fill="white"/>
<path d="M92.2249 85.0537C93.7824 85.6137 139.352 127.334 139.352 127.334L137.655 131.831L88.1299 88.0987L92.2249 85.0537Z" fill="#485372"/>
<path d="M48.1074 85.0537C46.5499 85.6137 0.979858 127.334 0.979858 127.334L2.67736 131.831L52.2024 88.0987L48.1074 85.0537Z" fill="#485372"/>
<path d="M63.84 76.182L1.17255 126.984C-1.59245 131.779 1.87255 137.764 7.40255 137.764H132.738C138.268 137.764 141.733 131.779 138.968 126.984L76.3 76.182C72.3275 72.2095 67.8125 72.192 63.84 76.182Z" fill="url(#paint2_linear)"/>
<path d="M33.6174 131.675H12.0924V137.625H33.6174V131.675Z" fill="white"/>
<path d="M65.4674 131.675H43.9424V137.625H65.4674V131.675Z" fill="#2BD9D0"/>
<path d="M97.3 131.675H75.775V137.625H97.3V131.675Z" fill="white"/>
<path d="M129.15 131.675H107.625V137.625H129.15V131.675Z" fill="#2BD9D0"/>
</g>
<defs>
<linearGradient id="paint0_linear" x1="70.0666" y1="5.46015" x2="70.0666" y2="52.3602" gradientUnits="userSpaceOnUse">
<stop stop-color="#737FA4"/>
<stop offset="1" stop-color="#4E5771"/>
</linearGradient>
<linearGradient id="paint1_linear" x1="70.0666" y1="138.215" x2="70.0666" y2="48.5977" gradientUnits="userSpaceOnUse">
<stop stop-color="#475173"/>
<stop offset="1" stop-color="#485372"/>
</linearGradient>
<linearGradient id="paint2_linear" x1="70.0666" y1="73.1918" x2="70.0666" y2="137.76" gradientUnits="userSpaceOnUse">
<stop offset="0.278455" stop-color="#697693"/>
<stop offset="1" stop-color="#606688"/>
</linearGradient>
<clipPath id="clip0">
<rect y="2" width="140" height="136.15" fill="white"/>
</clipPath>
</defs>
</svg>
