<svg width="140" height="140" viewBox="0 0 140 140" fill="none" xmlns="http://www.w3.org/2000/svg">
<g clip-path="url(#clip0)">
<path d="M140 67.5772C140 70.0292 138.918 71.3032 136.548 73.6046L80.3152 120.468C76.6576 123.331 70.8631 123.687 64.6987 120.468L64.1919 120.207L3.46585 88.9333C-0.177987 86.9059 0.0411912 85.769 0.0137939 82.9059V78.495C0.0411912 77.495 0.602835 76.7964 1.10968 76.3032L73.8905 111.92L110.247 78.3169L139.795 51.0018L139.959 51.4539V51.769L140 67.5772Z" fill="url(#paint0_linear)"/>
<path d="M139.959 51.7682C139.945 51.9326 139.918 52.097 139.891 52.2614C139.699 53.1929 139.165 53.96 138.439 54.823L81.3564 111.22C75.7811 117.261 71.7126 116.823 65.8084 114.426L2.20571 81.8778C0.863243 81.1792 0.0824207 80.1929 0.000228905 78.9463C0.000228905 78.9326 0.000228905 78.9326 0.000228905 78.9326C-0.0134697 78.7956 0.000228905 78.6586 0.000228905 78.5217C0.000228905 78.508 0.000228905 78.508 0.000228905 78.4943C0.0276262 77.4943 0.58927 76.7956 1.09612 76.3025C1.20571 76.1929 1.3153 76.097 1.42489 76.0011L61.6441 22.2751C64.5071 20.2888 68.0413 19.5627 71.4386 20.2614L136.096 46.5764C138.617 47.4806 140.165 49.5079 139.959 51.7682Z" fill="url(#paint1_linear)"/>
<path d="M139.959 49.7682C139.945 49.9326 139.918 50.097 139.891 50.2614C139.699 51.1929 139.165 51.96 138.439 52.823L81.3564 109.22C75.7811 115.261 71.7126 114.823 65.8084 112.426L2.20571 79.8778C0.863243 79.1792 0.0824207 78.1929 0.000228905 76.9463C0.000228905 76.9326 0.000228905 76.9326 0.000228905 76.9326C-0.0134697 76.7956 0.000228905 76.6586 0.000228905 76.5217C0.000228905 76.508 0.000228905 76.508 0.000228905 76.4943C0.0276262 75.4943 0.58927 74.7956 1.09612 74.3025C1.20571 74.1929 1.3153 74.097 1.42489 74.0011L61.6441 20.2751C64.5071 18.2888 68.0413 17.5627 71.4386 18.2614L136.096 44.5764C138.617 45.4806 140.165 47.5079 139.959 49.7682Z" fill="url(#paint2_linear)"/>
<path d="M99.7669 43.0836L92.4382 52.7823C91.6573 53.8097 90.3423 54.0837 89.1231 53.5357L70.808 44.7823L70.1094 44.4535L69.4245 44.1247L66.219 42.5905L64.2053 41.6316L63.4382 41.2617L59.5889 39.4261L58.4108 38.8645C57.5341 38.4124 57.3012 37.2617 57.9176 36.4946L65.1094 28.2617C65.9039 27.2617 67.2738 26.9193 68.4519 27.4124L69.1094 27.6864L71.9039 28.8508L72.4519 29.0837L73.3012 29.4398L73.3286 29.4535L73.9587 29.7138L75.9724 30.5494L98.9724 40.1521C100.137 40.6316 100.52 42.0836 99.7669 43.0836Z" fill="url(#paint3_linear)"/>
<path d="M88.4656 59.2067L83.904 64.1108C83.4382 64.6177 82.6848 64.741 82.0821 64.4122L47.4793 45.8369C46.904 45.5218 46.8081 44.7547 47.2738 44.3026L51.0684 40.741C51.5341 40.3026 52.2327 40.193 52.8081 40.4807L88.2191 57.8232C88.7396 58.0834 88.8629 58.7821 88.4656 59.2067Z" fill="#505878"/>
<path d="M60.7673 48.7956L60.6714 48.9188C60.3975 49.2476 59.9317 49.3298 59.5618 49.138L52.9591 45.7682C52.4112 45.4942 52.2879 44.7682 52.7125 44.3298C52.9865 44.0421 53.4112 43.9599 53.7673 44.138L60.466 47.3846C61.0002 47.6449 61.1509 48.3298 60.7673 48.7956Z" fill="#2CD8CF"/>
<path d="M70.5759 53.7411L70.48 53.8644C70.2061 54.1932 69.7403 54.2753 69.3704 54.0836L62.7677 50.7137C62.2198 50.4397 62.0965 49.7137 62.5211 49.2754C62.7951 48.9877 63.2198 48.9055 63.5759 49.0836L70.2746 52.3301C70.8088 52.5904 70.9595 53.289 70.5759 53.7411Z" fill="#2CD8CF"/>
<path d="M80.7815 58.987L80.6856 59.1103C80.4116 59.439 79.9458 59.5212 79.576 59.3294L72.9733 55.9596C72.4253 55.6856 72.302 54.9596 72.7267 54.5212C73.0007 54.2335 73.4253 54.1513 73.7815 54.3294L80.4801 57.576C81.028 57.8363 81.165 58.5212 80.7815 58.987Z" fill="#2CD8CF"/>
<path d="M108.493 48.6307C108.206 48.9321 107.671 49.0417 107.274 48.891C106.891 48.7403 106.795 48.3704 107.082 48.069C107.37 47.7677 107.904 47.6581 108.301 47.8088C108.685 47.9595 108.767 48.3293 108.493 48.6307Z" fill="#2CD8CF"/>
<path d="M110.945 49.6722C110.658 49.9736 110.123 50.0831 109.726 49.9325C109.342 49.7818 109.247 49.4119 109.534 49.1105C109.822 48.8092 110.356 48.6996 110.753 48.8503C111.137 49.001 111.233 49.3708 110.945 49.6722Z" fill="#2CD8CF"/>
<path d="M113.411 50.7136C113.123 51.015 112.589 51.1245 112.192 50.9739C111.808 50.8232 111.712 50.4533 112 50.1519C112.287 49.8506 112.822 49.741 113.219 49.8917C113.602 50.0423 113.685 50.4122 113.411 50.7136Z" fill="#2CD8CF"/>
<path d="M115.863 51.7532C115.576 52.0546 115.041 52.1642 114.644 52.0135C114.261 51.8628 114.165 51.493 114.452 51.1916C114.74 50.8902 115.274 50.7806 115.672 50.9313C116.055 51.082 116.137 51.4519 115.863 51.7532Z" fill="#2CD8CF"/>
<path d="M118.315 52.7947C118.027 53.0961 117.493 53.2057 117.096 53.055C116.712 52.9043 116.616 52.5345 116.904 52.2331C117.192 51.9317 117.726 51.8221 118.123 51.9728C118.507 52.1372 118.603 52.4934 118.315 52.7947Z" fill="#2CD8CF"/>
<path d="M120.767 53.8361C120.479 54.1375 119.945 54.2471 119.548 54.0964C119.164 53.9457 119.068 53.5759 119.356 53.2745C119.644 52.9731 120.178 52.8635 120.575 53.0142C120.972 53.1786 121.055 53.5485 120.767 53.8361Z" fill="#2CD8CF"/>
<path d="M123.232 54.8776C122.945 55.179 122.411 55.2886 122.013 55.1379C121.63 54.9872 121.534 54.6174 121.822 54.316C122.109 54.0146 122.643 53.905 123.041 54.0557C123.424 54.2201 123.506 54.59 123.232 54.8776Z" fill="#2CD8CF"/>
<path d="M125.685 55.919C125.398 56.2204 124.863 56.33 124.466 56.1793C124.082 56.0286 123.987 55.6587 124.274 55.3574C124.562 55.056 125.096 54.9464 125.493 55.0971C125.877 55.2615 125.973 55.6313 125.685 55.919Z" fill="#2CD8CF"/>
<path d="M106.671 50.5485C106.384 50.8499 105.849 50.9595 105.452 50.8088C105.068 50.6581 104.973 50.2883 105.26 49.9869C105.548 49.6855 106.082 49.5759 106.479 49.7266C106.863 49.8773 106.959 50.2472 106.671 50.5485Z" fill="#2CD8CF"/>
<path d="M109.137 51.5899C108.849 51.8913 108.315 52.0009 107.918 51.8502C107.534 51.6995 107.438 51.3296 107.726 51.0283C108.014 50.7269 108.548 50.6173 108.945 50.768C109.329 50.9187 109.411 51.2885 109.137 51.5899Z" fill="#2CD8CF"/>
<path d="M111.589 52.6314C111.301 52.9328 110.767 53.0424 110.37 52.8917C109.986 52.741 109.89 52.3711 110.178 52.0698C110.465 51.7684 111 51.6588 111.397 51.8095C111.78 51.9602 111.863 52.33 111.589 52.6314Z" fill="#2CD8CF"/>
<path d="M114.041 53.6711C113.754 53.9725 113.219 54.0821 112.822 53.9314C112.439 53.7807 112.343 53.4108 112.63 53.1095C112.918 52.8081 113.452 52.6985 113.85 52.8492C114.233 52.9999 114.329 53.3697 114.041 53.6711Z" fill="#2CD8CF"/>
<path d="M116.507 54.7125C116.219 55.0138 115.685 55.1234 115.288 54.9727C114.904 54.8221 114.808 54.4522 115.096 54.1508C115.384 53.8495 115.918 53.7399 116.315 53.8906C116.699 54.0549 116.781 54.4111 116.507 54.7125Z" fill="#2CD8CF"/>
<path d="M118.959 55.754C118.671 56.0554 118.137 56.165 117.74 56.0143C117.356 55.8636 117.26 55.4937 117.548 55.1923C117.836 54.891 118.37 54.7814 118.767 54.9321C119.151 55.0964 119.233 55.4526 118.959 55.754Z" fill="#2CD8CF"/>
<path d="M121.411 56.7954C121.124 57.0967 120.59 57.2063 120.192 57.0556C119.809 56.905 119.713 56.5351 120.001 56.2337C120.288 55.9323 120.822 55.8228 121.22 55.9734C121.617 56.1241 121.699 56.5077 121.411 56.7954Z" fill="#2CD8CF"/>
<path d="M123.877 57.8369C123.589 58.1382 123.055 58.2478 122.658 58.0971C122.26 57.9465 122.178 57.5766 122.466 57.2752C122.754 56.9739 123.288 56.8643 123.685 57.0149C124.069 57.1793 124.151 57.5492 123.877 57.8369Z" fill="#2CD8CF"/>
<path d="M104.863 52.4663C104.575 52.7676 104.041 52.8772 103.644 52.7265C103.26 52.5758 103.165 52.206 103.452 51.9046C103.74 51.6032 104.274 51.4937 104.671 51.6443C105.055 51.795 105.137 52.1649 104.863 52.4663Z" fill="#2CD8CF"/>
<path d="M107.315 53.5078C107.027 53.8091 106.493 53.9187 106.096 53.768C105.712 53.6174 105.616 53.2475 105.904 52.9461C106.192 52.6447 106.726 52.5352 107.123 52.6858C107.507 52.8365 107.603 53.2064 107.315 53.5078Z" fill="#2CD8CF"/>
<path d="M109.767 54.5491C109.48 54.8505 108.946 54.9601 108.548 54.8094C108.165 54.6587 108.069 54.2889 108.356 53.9875C108.644 53.6861 109.178 53.5765 109.576 53.7272C109.973 53.8779 110.055 54.2478 109.767 54.5491Z" fill="#2CD8CF"/>
<path d="M112.233 55.589C111.946 55.8903 111.411 55.9999 111.014 55.8492C110.631 55.6986 110.535 55.3287 110.822 55.0273C111.11 54.7259 111.644 54.6163 112.041 54.767C112.425 54.9177 112.507 55.2876 112.233 55.589Z" fill="#2CD8CF"/>
<path d="M114.685 56.6303C114.397 56.9317 113.863 57.0413 113.466 56.8906C113.082 56.7399 112.986 56.3701 113.274 56.0687C113.562 55.7673 114.096 55.6577 114.493 55.8084C114.89 55.9591 114.973 56.329 114.685 56.6303Z" fill="#2CD8CF"/>
<path d="M117.137 57.6718C116.849 57.9732 116.315 58.0828 115.918 57.9321C115.534 57.7814 115.438 57.4116 115.726 57.1102C116.014 56.8088 116.548 56.6992 116.945 56.8499C117.329 57.0143 117.424 57.3705 117.137 57.6718Z" fill="#2CD8CF"/>
<path d="M119.602 58.7132C119.315 59.0146 118.78 59.1242 118.383 58.9735C118 58.8228 117.904 58.4529 118.191 58.1516C118.479 57.8502 119.013 57.7406 119.411 57.8913C119.808 58.042 119.876 58.4255 119.602 58.7132Z" fill="#2CD8CF"/>
<path d="M122.055 59.7547C121.767 60.0561 121.233 60.1657 120.836 60.015C120.438 59.8643 120.356 59.4944 120.644 59.1931C120.932 58.8917 121.466 58.7821 121.863 58.9328C122.247 59.0972 122.329 59.467 122.055 59.7547Z" fill="#2CD8CF"/>
<path d="M103.041 54.3841C102.753 54.6855 102.219 54.7951 101.822 54.6444C101.438 54.4937 101.342 54.1238 101.63 53.8225C101.918 53.5211 102.452 53.4115 102.849 53.5622C103.233 53.7129 103.329 54.0827 103.041 54.3841Z" fill="#2CD8CF"/>
<path d="M105.493 55.4256C105.205 55.727 104.671 55.8366 104.274 55.6859C103.89 55.5352 103.794 55.1653 104.082 54.864C104.369 54.5626 104.904 54.453 105.301 54.6037C105.698 54.7544 105.78 55.1242 105.493 55.4256Z" fill="#2CD8CF"/>
<path d="M107.959 56.467C107.671 56.7684 107.137 56.878 106.739 56.7273C106.356 56.5766 106.26 56.2067 106.548 55.9053C106.835 55.604 107.37 55.4944 107.767 55.6451C108.164 55.7958 108.233 56.1656 107.959 56.467Z" fill="#2CD8CF"/>
<path d="M110.411 57.5067C110.124 57.808 109.589 57.9176 109.192 57.7669C108.808 57.6162 108.713 57.2464 109 56.945C109.288 56.6437 109.822 56.5341 110.219 56.6847C110.603 56.8354 110.699 57.2053 110.411 57.5067Z" fill="#2CD8CF"/>
<path d="M112.863 58.5482C112.575 58.8495 112.041 58.9591 111.644 58.8085C111.26 58.6578 111.164 58.2879 111.452 57.9865C111.74 57.6852 112.274 57.5756 112.671 57.7263C113.068 57.8769 113.151 58.2468 112.863 58.5482Z" fill="#2CD8CF"/>
<path d="M115.329 59.5896C115.041 59.8909 114.507 60.0005 114.11 59.8498C113.726 59.6991 113.63 59.3293 113.918 59.0279C114.205 58.7265 114.74 58.6169 115.137 58.7676C115.52 58.932 115.603 59.2882 115.329 59.5896Z" fill="#2CD8CF"/>
<path d="M117.781 60.6311C117.494 60.9324 116.959 61.042 116.562 60.8913C116.179 60.7407 116.083 60.3708 116.37 60.0694C116.658 59.768 117.192 59.6585 117.59 59.8091C117.987 59.9598 118.069 60.3297 117.781 60.6311Z" fill="#2CD8CF"/>
<path d="M120.233 61.6724C119.945 61.9738 119.411 62.0834 119.014 61.9327C118.616 61.782 118.534 61.4122 118.822 61.1108C119.109 60.8094 119.644 60.6998 120.041 60.8505C120.438 61.0149 120.52 61.3848 120.233 61.6724Z" fill="#2CD8CF"/>
<path d="M101.219 56.2879C100.931 56.5893 100.397 56.6989 99.9997 56.5482C99.6024 56.3975 99.5202 56.0276 99.8079 55.7263C100.096 55.4249 100.63 55.3153 101.027 55.466C101.424 55.6304 101.507 56.0002 101.219 56.2879Z" fill="#2CD8CF"/>
<path d="M103.685 57.3433C103.397 57.6447 102.863 57.7543 102.466 57.6036C102.082 57.4529 101.986 57.0831 102.274 56.7817C102.562 56.4803 103.096 56.3707 103.493 56.5214C103.877 56.6721 103.959 57.042 103.685 57.3433Z" fill="#2CD8CF"/>
<path d="M106.137 58.3848C105.85 58.6862 105.315 58.7958 104.918 58.6451C104.535 58.4944 104.439 58.1246 104.726 57.8232C105.014 57.5218 105.548 57.4122 105.946 57.5629C106.343 57.7136 106.425 58.0835 106.137 58.3848Z" fill="#2CD8CF"/>
<path d="M108.589 59.4245C108.301 59.7259 107.767 59.8355 107.37 59.6848C106.986 59.5341 106.89 59.1642 107.178 58.8629C107.466 58.5615 108 58.4519 108.397 58.6026C108.794 58.7533 108.877 59.1231 108.589 59.4245Z" fill="#2CD8CF"/>
<path d="M111.055 60.466C110.767 60.7674 110.233 60.877 109.836 60.7263C109.452 60.5756 109.356 60.2057 109.644 59.9044C109.932 59.603 110.466 59.4934 110.863 59.6441C111.26 59.7948 111.329 60.1647 111.055 60.466Z" fill="#2CD8CF"/>
<path d="M113.507 61.5074C113.219 61.8088 112.685 61.9184 112.288 61.7677C111.904 61.617 111.808 61.2471 112.096 60.9458C112.383 60.6444 112.918 60.5348 113.315 60.6855C113.698 60.8362 113.794 61.206 113.507 61.5074Z" fill="#2CD8CF"/>
<path d="M115.959 62.5488C115.671 62.8502 115.137 62.9597 114.74 62.8091C114.356 62.6584 114.26 62.2885 114.548 61.9871C114.836 61.6858 115.37 61.5762 115.767 61.7269C116.165 61.8775 116.247 62.2474 115.959 62.5488Z" fill="#2CD8CF"/>
<path d="M118.425 63.5903C118.137 63.8917 117.603 64.0012 117.205 63.8506C116.808 63.6999 116.726 63.33 117.014 63.0286C117.301 62.7273 117.836 62.6177 118.233 62.7684C118.616 62.9327 118.699 63.3026 118.425 63.5903Z" fill="#2CD8CF"/>
<path d="M99.411 58.2056C99.1233 58.507 98.5891 58.6166 98.1918 58.4659C97.8082 58.3152 97.7124 57.9454 98 57.644C98.2877 57.3426 98.822 57.233 99.2192 57.3837C99.6028 57.5481 99.685 57.918 99.411 58.2056Z" fill="#2CD8CF"/>
<path d="M101.863 59.2612C101.575 59.5626 101.041 59.6721 100.643 59.5215C100.26 59.3708 100.164 59.0009 100.452 58.6995C100.739 58.3982 101.274 58.2886 101.671 58.4393C102.054 58.5899 102.15 58.9598 101.863 59.2612Z" fill="#2CD8CF"/>
<path d="M104.328 60.3026C104.041 60.6039 103.507 60.7135 103.109 60.5628C102.726 60.4121 102.63 60.0423 102.918 59.7409C103.205 59.4395 103.739 59.33 104.137 59.4806C104.534 59.6313 104.602 60.0012 104.328 60.3026Z" fill="#2CD8CF"/>
<path d="M106.781 61.3424C106.493 61.6437 105.959 61.7533 105.562 61.6026C105.178 61.4519 105.082 61.0821 105.37 60.7807C105.658 60.4793 106.192 60.3698 106.589 60.5204C106.973 60.6711 107.055 61.041 106.781 61.3424Z" fill="#2CD8CF"/>
<path d="M109.233 62.3837C108.945 62.6851 108.411 62.7947 108.014 62.644C107.63 62.4933 107.534 62.1235 107.822 61.8221C108.109 61.5207 108.644 61.4111 109.041 61.5618C109.438 61.7125 109.52 62.0824 109.233 62.3837Z" fill="#2CD8CF"/>
<path d="M111.699 63.4252C111.411 63.7266 110.877 63.8362 110.479 63.6855C110.096 63.5348 110 63.165 110.288 62.8636C110.575 62.5622 111.11 62.4526 111.507 62.6033C111.89 62.754 111.973 63.1239 111.699 63.4252Z" fill="#2CD8CF"/>
<path d="M114.151 64.4666C113.863 64.768 113.329 64.8776 112.932 64.7269C112.548 64.5762 112.452 64.2064 112.74 63.905C113.028 63.6036 113.562 63.494 113.959 63.6447C114.356 63.7954 114.425 64.1653 114.151 64.4666Z" fill="#2CD8CF"/>
<path d="M116.603 65.5081C116.315 65.8095 115.781 65.9191 115.383 65.7684C114.986 65.6177 114.904 65.2479 115.192 64.9465C115.479 64.6451 116.014 64.5355 116.411 64.6862C116.794 64.8506 116.89 65.2068 116.603 65.5081Z" fill="#2CD8CF"/>
<path d="M97.5889 60.1235C97.3013 60.4249 96.767 60.5345 96.3698 60.3838C95.9862 60.2331 95.8903 59.8632 96.178 59.5618C96.4657 59.2605 96.9999 59.1509 97.3972 59.3016C97.7944 59.466 97.8766 59.8358 97.5889 60.1235Z" fill="#2CD8CF"/>
<path d="M100.055 61.165C99.7671 61.4664 99.2328 61.576 98.8356 61.4253C98.452 61.2746 98.3562 60.9047 98.6438 60.6033C98.9315 60.302 99.4657 60.1924 99.863 60.3431C100.247 60.5075 100.329 60.8773 100.055 61.165Z" fill="#2CD8CF"/>
<path d="M102.507 62.2204C102.22 62.5218 101.685 62.6314 101.288 62.4807C100.904 62.33 100.809 61.9601 101.096 61.6588C101.384 61.3574 101.918 61.2478 102.315 61.3985C102.713 61.5492 102.795 61.919 102.507 62.2204Z" fill="#2CD8CF"/>
<path d="M104.959 63.2601C104.671 63.5614 104.137 63.671 103.74 63.5204C103.356 63.3697 103.26 62.9998 103.548 62.6984C103.836 62.3971 104.37 62.2875 104.767 62.4382C105.151 62.5888 105.247 62.9587 104.959 63.2601Z" fill="#2CD8CF"/>
<path d="M107.425 64.3016C107.137 64.603 106.603 64.7126 106.205 64.5619C105.822 64.4112 105.726 64.0413 106.014 63.7399C106.301 63.4386 106.836 63.329 107.233 63.4797C107.63 63.6304 107.699 64.0002 107.425 64.3016Z" fill="#2CD8CF"/>
<path d="M109.876 65.343C109.589 65.6443 109.054 65.7539 108.657 65.6032C108.274 65.4526 108.178 65.0827 108.465 64.7813C108.753 64.48 109.287 64.3704 109.685 64.5211C110.068 64.6717 110.15 65.0416 109.876 65.343Z" fill="#2CD8CF"/>
<path d="M112.329 66.3845C112.041 66.6859 111.507 66.7954 111.11 66.6448C110.726 66.4941 110.63 66.1242 110.918 65.8228C111.206 65.5215 111.74 65.4119 112.137 65.5626C112.534 65.7132 112.617 66.0831 112.329 66.3845Z" fill="#2CD8CF"/>
<path d="M114.795 67.4259C114.507 67.7272 113.973 67.8368 113.575 67.6861C113.178 67.5354 113.096 67.1656 113.384 66.8642C113.671 66.5628 114.205 66.4533 114.603 66.6039C114.986 66.7683 115.068 67.1245 114.795 67.4259Z" fill="#2CD8CF"/>
<path d="M95.7809 62.0413C95.4932 62.3427 94.9589 62.4523 94.5617 62.3016C94.1781 62.1509 94.0822 61.7811 94.3699 61.4797C94.6576 61.1783 95.1918 61.0687 95.5891 61.2194C95.9727 61.3838 96.0549 61.7537 95.7809 62.0413Z" fill="#2CD8CF"/>
<path d="M98.2325 63.0827C97.9448 63.3841 97.4106 63.4937 97.0133 63.343C96.6298 63.1923 96.5339 62.8224 96.8216 62.5211C97.1092 62.2197 97.6435 62.1101 98.0407 62.2608C98.4243 62.4252 98.5202 62.795 98.2325 63.0827Z" fill="#2CD8CF"/>
<path d="M100.685 64.1383C100.397 64.4396 99.8632 64.5492 99.466 64.3985C99.0824 64.2479 98.9865 63.878 99.2742 63.5766C99.5619 63.2752 100.096 63.1657 100.493 63.3163C100.891 63.467 100.973 63.8369 100.685 64.1383Z" fill="#2CD8CF"/>
<path d="M103.151 65.1779C102.863 65.4793 102.329 65.5889 101.932 65.4382C101.548 65.2875 101.452 64.9177 101.74 64.6163C102.028 64.3149 102.562 64.2053 102.959 64.356C103.343 64.5067 103.425 64.8766 103.151 65.1779Z" fill="#2CD8CF"/>
<path d="M105.603 66.2194C105.315 66.5208 104.781 66.6304 104.383 66.4797C104 66.329 103.904 65.9592 104.192 65.6578C104.479 65.3564 105.014 65.2468 105.411 65.3975C105.808 65.5482 105.89 65.9181 105.603 66.2194Z" fill="#2CD8CF"/>
<path d="M108.055 67.2608C107.768 67.5622 107.233 67.6718 106.836 67.5211C106.453 67.3704 106.357 67.0005 106.644 66.6992C106.932 66.3978 107.466 66.2882 107.863 66.4389C108.261 66.5896 108.343 66.9594 108.055 67.2608Z" fill="#2CD8CF"/>
<path d="M110.521 68.3023C110.233 68.6037 109.699 68.7133 109.302 68.5626C108.918 68.4119 108.822 68.042 109.11 67.7407C109.398 67.4393 109.932 67.3297 110.329 67.4804C110.713 67.6311 110.795 68.0009 110.521 68.3023Z" fill="#2CD8CF"/>
<path d="M112.973 69.3437C112.685 69.6451 112.151 69.7547 111.753 69.604C111.356 69.4533 111.274 69.0834 111.562 68.7821C111.849 68.4807 112.383 68.3711 112.781 68.5218C113.164 68.6862 113.26 69.0423 112.973 69.3437Z" fill="#2CD8CF"/>
<path d="M58.1372 101.097L70.4112 107.727L97.1235 82.4665L84.3153 76.0967L58.1372 101.097Z" fill="url(#paint4_linear)"/>
<path d="M82.7124 85.1925L87.6576 87.9323L97.1234 82.4665L84.3151 76.0967L82.7124 85.1925Z" fill="url(#paint5_linear)"/>
<path d="M65.3016 101.002L70.2057 103.81L70.4112 107.742L58.1372 101.098L65.3016 101.002Z" fill="url(#paint6_linear)"/>
<path d="M63.5342 100.357L71.8766 104.782L91.6164 86.3026L82.8903 82.0697L63.5342 100.357Z" fill="url(#paint7_linear)" stroke="#3B415C" stroke-width="2" stroke-miterlimit="10"/>
<path opacity="0.47" d="M69.2469 99.3027L71.7263 100.618C71.8496 100.686 71.8359 100.864 71.6852 101.029L70.6715 102.207C70.5208 102.371 70.288 102.453 70.151 102.385L67.6989 101.015C67.5757 100.946 67.5894 100.768 67.74 100.618L68.7263 99.4807C68.877 99.3164 69.1099 99.2342 69.2469 99.3027Z" fill="url(#paint8_linear)"/>
<path d="M94 66.9992L106 72.5006C106.589 72.7883 106.507 73.5828 105.808 74.2814L101.397 78.2609C100.685 78.9869 99.589 79.3157 99 79.0006L87.2605 73.7C86.6989 73.3987 86.7948 72.6316 87.466 71.9466L91.6301 67.7389C92.3288 67.054 93.411 66.6978 94 66.9992Z" fill="url(#paint9_linear)"/>
<path d="M91.6245 71.2824L91.8197 71.3405C91.7306 71.4688 91.681 71.5675 91.6581 71.651C91.6215 71.7353 91.6259 71.8174 91.6577 71.898C91.6758 71.9793 91.7335 72.0311 91.8314 72.067C91.9021 72.1043 91.9712 72.1143 92.0525 72.0962C92.1339 72.0781 92.2152 72.06 92.2814 72.0153C92.3476 71.9705 92.413 71.9121 92.4777 71.8401C92.5424 71.768 92.5661 71.6981 92.5898 71.6282C92.6134 71.5584 92.6097 71.49 92.5794 71.4367C92.5635 71.3964 92.5044 71.3173 92.4164 71.2123C92.3414 71.0929 92.2815 71.0001 92.2512 70.9468C92.2324 70.8518 92.2279 70.7698 92.2638 70.6718C92.2997 70.5738 92.3622 70.4607 92.4384 70.3469C92.5419 70.2315 92.6317 70.1169 92.7512 70.0419C92.8706 69.9669 93.0044 69.9048 93.1131 69.8852C93.2218 69.8656 93.3464 69.8863 93.4444 69.9222C93.5567 69.971 93.6288 70.0357 93.675 70.1293C93.7212 70.2228 93.6998 70.3337 93.679 70.4583C93.631 70.5844 93.5563 70.7256 93.4535 70.8546L93.2583 70.7965C93.374 70.6531 93.4214 70.5133 93.4299 70.4169C93.4384 70.3204 93.3656 70.242 93.2669 70.1924C93.1408 70.1444 93.0314 70.1503 92.9364 70.1691C92.8291 70.216 92.75 70.2752 92.6465 70.3905C92.5688 70.477 92.5452 70.5469 92.5352 70.616C92.5252 70.6851 92.5721 70.7924 92.6882 70.9096C92.805 71.0405 92.8786 71.1325 92.8822 71.2009C92.9148 71.2952 92.907 71.4054 92.8863 71.5299C92.8382 71.656 92.775 71.7554 92.6722 71.8844C92.5694 72.0135 92.4651 72.1151 92.3327 72.2046C92.214 72.2933 92.0802 72.3554 91.9442 72.3764C91.8081 72.3975 91.6979 72.3897 91.5992 72.3401C91.4861 72.2776 91.3867 72.2144 91.3527 72.0928C91.3202 71.9985 91.3135 71.8754 91.3609 71.7356C91.4356 71.5944 91.5232 71.4388 91.6245 71.2824Z" fill="#151A1E"/>
<path d="M95.2444 70.7435L95.4411 70.8289L94.347 72.1637C94.1407 72.4081 93.9854 72.5811 93.8545 72.6979C93.7236 72.8147 93.5639 72.9056 93.4156 72.9547C93.2674 73.0039 93.1162 72.9983 92.9894 72.9366C92.8489 72.8755 92.7753 72.7835 92.7421 72.6755C92.7088 72.5676 92.7425 72.4286 92.8301 72.2729C92.9041 72.118 93.0442 71.9184 93.2498 71.6604L94.3158 70.3134L94.5125 70.3988L93.4328 71.7466C93.2653 71.9477 93.1769 72.0896 93.1144 72.2027C93.0519 72.3158 93.0427 72.3987 93.06 72.4663C93.0645 72.5484 93.1085 72.6009 93.2064 72.6368C93.3469 72.6978 93.4974 72.6897 93.6305 72.6139C93.7643 72.5518 93.9592 72.3492 94.2043 72.0617L95.2444 70.7435Z" fill="#151A1E"/>
<path d="M93.8587 73.2888L95.7644 70.9774L95.9611 71.0628L95.2266 73.2151L96.7334 71.3916L96.9163 71.4777L94.984 73.8043L94.801 73.7181L95.5629 71.5644L94.0691 73.3735L93.8587 73.2888Z" fill="#151A1E"/>
<path d="M95.3219 73.9508L97.283 71.6501L97.4797 71.7355L95.5185 74.0362L95.3219 73.9508Z" fill="#151A1E"/>
<path d="M95.8145 74.1846L97.7894 71.8831L97.986 71.9686L97.1695 74.1253L98.7317 72.3125L98.9147 72.3987L96.8995 74.716L96.7165 74.6298L97.5331 72.4731L95.9846 74.2852L95.8145 74.1846Z" fill="#151A1E"/>
<path d="M97.2625 74.8329L99.2921 72.5285L100.275 72.9556L100.03 73.2295L99.2429 72.8878L98.6088 73.5942L99.283 73.8871L99.0242 74.1754L98.3499 73.8826L97.4189 74.9342L97.2625 74.8329Z" fill="#151A1E"/>
<path d="M99.4098 74.2097C99.7599 73.8341 100.074 73.5565 100.409 73.4013C100.743 73.2324 101.016 73.204 101.199 73.3038C101.34 73.3648 101.4 73.4713 101.421 73.6074C101.442 73.7434 101.384 73.9386 101.285 74.136C101.173 74.3478 101.006 74.5626 100.799 74.7933C100.592 75.0239 100.369 75.2143 100.145 75.3773C99.9205 75.5403 99.7061 75.6342 99.5305 75.6848C99.3275 75.7369 99.1892 75.7169 99.0632 75.6688C98.9227 75.6078 98.8621 75.5013 98.841 75.3653C98.82 75.2292 98.878 75.0341 99.0038 74.8215C99.0755 74.6256 99.2293 74.4252 99.4098 74.2097ZM99.5806 74.324C99.3217 74.6123 99.1831 74.8393 99.1257 75.0481C99.0684 75.257 99.1297 75.3772 99.2702 75.4382C99.4107 75.4992 99.6015 75.4752 99.8418 75.3525C100.082 75.2298 100.332 75.0243 100.604 74.7352C100.772 74.5478 100.9 74.3763 100.988 74.2206C101.062 74.0658 101.123 73.9253 101.117 73.8158C101.111 73.7064 101.066 73.6266 100.954 73.5914C100.814 73.5304 100.623 73.5544 100.408 73.6483C100.167 73.7436 99.9041 73.9636 99.5806 74.324Z" fill="#151A1E"/>
<g opacity="0.5">
<path opacity="0.5" d="M76.5072 89.9042C76.5072 89.9042 74.5346 91.3973 73.9592 92.7261" stroke="#073A76" stroke-miterlimit="10"/>
<path opacity="0.5" d="M77.1514 89.4661C77.2199 89.425 80.2746 87.5346 81.7952 89.0962" stroke="#073A76" stroke-miterlimit="10"/>
<path opacity="0.5" d="M82.069 89.3983C82.069 89.3983 82.8498 90.9463 82.0005 93.0284C81.343 94.6449 80.2334 95.7819 80.2334 95.7819" stroke="#073A76" stroke-miterlimit="10"/>
<path opacity="0.5" d="M73.2744 93.9318C73.2744 93.9318 73.8908 93.6715 75.247 91.9044C76.6032 90.1236 78.7402 89.2058 79.3292 89.3565" stroke="#073A76" stroke-miterlimit="10"/>
<path opacity="0.5" d="M79.959 89.3298C79.959 89.3298 82.3699 89.3983 81.4795 92.5216C80.8905 94.1928 79.6987 95.5353 79.2192 96.0695" stroke="#073A76" stroke-miterlimit="10"/>
<path opacity="0.5" d="M78.7123 96.6165C78.7123 96.6165 78.2054 97.2329 77.6438 97.7123" stroke="#073A76" stroke-miterlimit="10"/>
<path opacity="0.5" d="M72.9458 94.8497C72.9458 94.8497 74.0417 94.3977 75.4253 92.6031C76.8088 90.8086 79.4664 89.0826 80.6718 90.9045" stroke="#073A76" stroke-miterlimit="10"/>
<path opacity="0.5" d="M80.8631 91.548C80.8631 91.548 81.5754 93.3562 76.3152 98.2329" stroke="#073A76" stroke-miterlimit="10"/>
<path opacity="0.5" d="M72.8088 95.6586C72.8088 95.6586 73.7266 95.1792 74.0828 94.8093" stroke="#073A76" stroke-miterlimit="10"/>
<path opacity="0.5" d="M74.6714 94.2598C74.6714 94.2598 75.2056 93.9036 76.2056 92.5749C77.1919 91.2461 78.5207 90.7667 79.2467 90.9584C79.9727 91.1502 80.3152 91.8488 79.8905 93.1365" stroke="#073A76" stroke-miterlimit="10"/>
<path opacity="0.5" d="M79.5892 93.7397C79.5892 93.7397 77.7399 96.4932 75.1509 98.4658" stroke="#073A76" stroke-miterlimit="10"/>
<path opacity="0.5" d="M72.7949 96.397C72.7949 96.397 74.6305 95.3833 75.8223 93.945C77.0004 92.5066 77.6305 91.808 78.0689 91.808" stroke="#073A76" stroke-miterlimit="10"/>
<path opacity="0.5" d="M78.6164 91.7131C78.6164 91.7131 80.3424 92.0419 78.5479 94.22C76.863 96.2748 74.8903 98.0693 74.2876 98.2885" stroke="#073A76" stroke-miterlimit="10"/>
<path opacity="0.5" d="M72.959 96.9313C72.959 96.9313 74.5206 95.9724 75.2467 95.2875C76.0275 94.5614 76.8494 93.5203 77.3837 92.9039C78.1097 92.082 79.2741 92.3971 78.1097 93.8354C77.37 94.7532 76.6302 95.4656 76.6302 95.4656" stroke="#073A76" stroke-miterlimit="10"/>
<path opacity="0.5" d="M76.2474 95.9861C76.2474 95.9861 74.5899 97.5614 73.6995 97.9861" stroke="#073A76" stroke-miterlimit="10"/>
<path opacity="0.5" d="M73.2058 97.6165C73.2058 97.6165 73.8496 97.2467 74.2195 96.959" stroke="#073A76" stroke-miterlimit="10"/>
<path opacity="0.5" d="M74.74 96.5213C74.74 96.5213 76.4934 95.2337 77.7811 93.2885" stroke="#073A76" stroke-miterlimit="10"/>
</g>
<path d="M29.6719 76.3699C29.713 77.9452 28.0555 79.274 25.9459 79.3288C23.8363 79.3836 22.1103 78.1644 22.0555 76.5891C22.0007 75.0137 23.6719 73.685 25.7815 73.6302C27.8911 73.5754 29.6308 74.7946 29.6719 76.3699Z" fill="#2CD8CF" stroke="url(#paint10_linear)" stroke-width="3" stroke-miterlimit="10"/>
<path d="M50.3165 55.782C50.3576 57.3573 48.7 58.6861 46.5904 58.7409C44.4809 58.7957 42.7548 57.5765 42.7 56.0012C42.6452 54.4259 44.3165 53.0971 46.4261 53.0423C48.5356 52.9875 50.2754 54.2067 50.3165 55.782Z" fill="#2CD8CF" stroke="url(#paint11_linear)" stroke-width="3" stroke-miterlimit="10"/>
<path d="M74.3165 67.782C74.3576 69.3573 72.7 70.6861 70.5904 70.7409C68.4809 70.7957 66.7548 69.5765 66.7 68.0012C66.6452 66.4259 68.3165 65.0971 70.4261 65.0423C72.5356 64.9875 74.2754 66.2067 74.3165 67.782Z" fill="#2CD8CF" stroke="url(#paint12_linear)" stroke-width="3" stroke-miterlimit="10"/>
<path d="M62.3165 61.782C62.3576 63.3573 60.7 64.6861 58.5904 64.7409C56.4809 64.7957 54.7548 63.5765 54.7 62.0012C54.6452 60.4259 56.3165 59.0971 58.4261 59.0423C60.5356 58.9875 62.2754 60.2067 62.3165 61.782Z" fill="#2CD8CF" stroke="url(#paint13_linear)" stroke-width="3" stroke-miterlimit="10"/>
<path d="M40.3165 65.782C40.3576 67.3573 38.7 68.6861 36.5904 68.7409C34.4809 68.7957 32.7548 67.5765 32.7 66.0012C32.6452 64.4259 34.3165 63.0971 36.4261 63.0423C38.5356 62.9875 40.2754 64.2067 40.3165 65.782Z" fill="#2CD8CF" stroke="url(#paint14_linear)" stroke-width="3" stroke-miterlimit="10"/>
<path d="M64.3165 77.782C64.3576 79.3573 62.7 80.6861 60.5904 80.7409C58.4809 80.7957 56.7548 79.5765 56.7 78.0012C56.6452 76.4259 58.3165 75.0971 60.4261 75.0423C62.5356 74.9875 64.2754 76.2067 64.3165 77.782Z" fill="#2CD8CF" stroke="url(#paint15_linear)" stroke-width="3" stroke-miterlimit="10"/>
<path d="M52.3165 71.782C52.3576 73.3573 50.7 74.6861 48.5904 74.7409C46.4809 74.7957 44.7548 73.5765 44.7 72.0012C44.6452 70.4259 46.3165 69.0971 48.4261 69.0423C50.5356 68.9875 52.2754 70.2067 52.3165 71.782Z" fill="#2CD8CF" stroke="url(#paint16_linear)" stroke-width="3" stroke-miterlimit="10"/>
<path d="M41.6855 82.3952C41.7266 83.9705 40.0691 85.2993 37.9595 85.3541C35.8636 85.4089 34.1239 84.1897 34.0691 82.6143C34.028 81.039 35.6855 79.7102 37.7951 79.6554C39.9047 79.5869 41.6444 80.8198 41.6855 82.3952Z" fill="#2CD8CF" stroke="url(#paint17_linear)" stroke-width="3" stroke-miterlimit="10"/>
<path d="M54.3164 88.7838C54.3575 90.3592 52.7 91.6879 50.5904 91.7427C48.4945 91.7975 46.7548 90.5783 46.7 89.003C46.6589 87.4277 48.3164 86.0989 50.426 86.0441C52.5356 85.9756 54.2753 87.2085 54.3164 88.7838Z" fill="#2CD8CF" stroke="url(#paint18_linear)" stroke-width="3" stroke-miterlimit="10"/>
</g>
<defs>
<linearGradient id="paint0_linear" x1="8.14332" y1="86.8788" x2="131.959" y2="86.8788" gradientUnits="userSpaceOnUse">
<stop stop-color="#495467"/>
<stop offset="0.2574" stop-color="#454F65"/>
<stop offset="0.3352" stop-color="#424A63"/>
<stop offset="0.3997" stop-color="#404561"/>
<stop offset="0.520784" stop-color="#4B5170"/>
<stop offset="0.607122" stop-color="#333956"/>
<stop offset="0.995" stop-color="#2D3146"/>
</linearGradient>
<linearGradient id="paint1_linear" x1="33.9093" y1="65.4953" x2="108.728" y2="70.667" gradientUnits="userSpaceOnUse">
<stop stop-color="#515C77"/>
<stop offset="1" stop-color="#334265"/>
</linearGradient>
<linearGradient id="paint2_linear" x1="33.9093" y1="63.4953" x2="108.728" y2="68.667" gradientUnits="userSpaceOnUse">
<stop stop-color="#4C5A81"/>
<stop offset="0.5423" stop-color="#616F97"/>
<stop offset="0.715413" stop-color="#57658B"/>
<stop offset="0.8739" stop-color="#5C6A8F"/>
<stop offset="1" stop-color="#56658B"/>
</linearGradient>
<linearGradient id="paint3_linear" x1="76.6199" y1="28.4399" x2="80.7651" y2="49.1978" gradientUnits="userSpaceOnUse">
<stop offset="1" stop-color="#2CD8CF"/>
</linearGradient>
<linearGradient id="paint4_linear" x1="58.3583" y1="91.47" x2="96.8934" y2="92.3613" gradientUnits="userSpaceOnUse">
<stop stop-color="#474D6D"/>
<stop offset="0.995" stop-color="#4A506F"/>
</linearGradient>
<linearGradient id="paint5_linear" x1="83.199" y1="86.1044" x2="93.8269" y2="76.4606" gradientUnits="userSpaceOnUse">
<stop stop-color="#5F6E96"/>
<stop offset="0.995" stop-color="#495779"/>
</linearGradient>
<linearGradient id="paint6_linear" x1="66.1985" y1="101.688" x2="62.6841" y2="106.671" gradientUnits="userSpaceOnUse">
<stop stop-color="#C7D2DB"/>
<stop offset="0.1188" stop-color="#474D6C"/>
<stop offset="0.995" stop-color="#333956"/>
</linearGradient>
<linearGradient id="paint7_linear" x1="63.8066" y1="93.3066" x2="91.3091" y2="94.3474" gradientUnits="userSpaceOnUse">
<stop offset="1" stop-color="#2CD8CF"/>
</linearGradient>
<linearGradient id="paint8_linear" x1="67.9271" y1="99.793" x2="70.7717" y2="102.65" gradientUnits="userSpaceOnUse">
<stop stop-color="#C6C8D5"/>
<stop offset="0.1769" stop-color="#CED3DD"/>
<stop offset="0.3317" stop-color="#E7EFF5"/>
<stop offset="1" stop-color="#98A5B5"/>
</linearGradient>
<linearGradient id="paint9_linear" x1="88.2698" y1="68.1174" x2="100.433" y2="81.2425" gradientUnits="userSpaceOnUse">
<stop stop-color="#C6C8D5"/>
<stop offset="0.1769" stop-color="#CED3DD"/>
<stop offset="0.3317" stop-color="#E7EFF5"/>
<stop offset="1" stop-color="#98A5B5"/>
</linearGradient>
<linearGradient id="paint10_linear" x1="25.8634" y1="73.6284" x2="25.8634" y2="79.3306" gradientUnits="userSpaceOnUse">
<stop stop-color="#4C5371"/>
<stop offset="1" stop-color="#313751"/>
</linearGradient>
<linearGradient id="paint11_linear" x1="46.508" y1="53.0405" x2="46.508" y2="58.7427" gradientUnits="userSpaceOnUse">
<stop stop-color="#4C5371"/>
<stop offset="1" stop-color="#313751"/>
</linearGradient>
<linearGradient id="paint12_linear" x1="70.508" y1="65.0405" x2="70.508" y2="70.7427" gradientUnits="userSpaceOnUse">
<stop stop-color="#4C5371"/>
<stop offset="1" stop-color="#313751"/>
</linearGradient>
<linearGradient id="paint13_linear" x1="58.508" y1="59.0405" x2="58.508" y2="64.7427" gradientUnits="userSpaceOnUse">
<stop stop-color="#4C5371"/>
<stop offset="1" stop-color="#313751"/>
</linearGradient>
<linearGradient id="paint14_linear" x1="36.508" y1="63.0405" x2="36.508" y2="68.7427" gradientUnits="userSpaceOnUse">
<stop stop-color="#4C5371"/>
<stop offset="1" stop-color="#313751"/>
</linearGradient>
<linearGradient id="paint15_linear" x1="60.508" y1="75.0405" x2="60.508" y2="80.7427" gradientUnits="userSpaceOnUse">
<stop stop-color="#4C5371"/>
<stop offset="1" stop-color="#313751"/>
</linearGradient>
<linearGradient id="paint16_linear" x1="48.508" y1="69.0405" x2="48.508" y2="74.7427" gradientUnits="userSpaceOnUse">
<stop stop-color="#4C5371"/>
<stop offset="1" stop-color="#313751"/>
</linearGradient>
<linearGradient id="paint17_linear" x1="37.8773" y1="79.6527" x2="37.8773" y2="85.3558" gradientUnits="userSpaceOnUse">
<stop stop-color="#4B5271"/>
<stop offset="1" stop-color="#313751"/>
</linearGradient>
<linearGradient id="paint18_linear" x1="50.5082" y1="86.0414" x2="50.5082" y2="91.7445" gradientUnits="userSpaceOnUse">
<stop stop-color="#4B5271"/>
<stop offset="1" stop-color="#313751"/>
</linearGradient>
<clipPath id="clip0">
<rect y="18" width="140" height="105" fill="white"/>
</clipPath>
</defs>
</svg>
