<svg width="140" height="140" viewBox="0 0 140 140" fill="none" xmlns="http://www.w3.org/2000/svg">
<g clip-path="url(#clip0)">
<path d="M100.982 37.6414H51.9513V128.132H100.982V37.6414Z" fill="url(#paint0_linear)"/>
<path d="M76.4732 140.001C90.0089 140.001 100.982 134.633 100.982 128.012C100.982 121.391 90.0089 116.024 76.4732 116.024C62.9374 116.024 51.9645 121.391 51.9645 128.012C51.9645 134.633 62.9374 140.001 76.4732 140.001Z" fill="url(#paint1_linear)"/>
<path d="M76.4731 51.3716C90.0089 51.3716 100.982 45.1525 100.982 37.4807C100.982 29.809 90.0089 23.5898 76.4731 23.5898C62.9374 23.5898 51.9645 29.809 51.9645 37.4807C51.9645 45.1525 62.9374 51.3716 76.4731 51.3716Z" fill="url(#paint2_radial)"/>
<path d="M78.1494 19.5326C77.6039 19.4661 77.045 19.4395 76.4596 19.4395C75.8742 19.4395 75.3153 19.4794 74.7698 19.5326L68.7557 19.5459L68.6892 19.7056V31.2547C68.6892 33.5166 72.1619 35.3528 76.4596 35.3528C80.7572 35.3528 84.23 33.5166 84.23 31.2547V19.5326H78.1494Z" fill="url(#paint3_linear)"/>
<path d="M78.1494 19.5326C77.6039 19.4661 77.045 19.4395 76.4596 19.4395C75.8742 19.4395 75.3153 19.4794 74.7698 19.5326L68.8223 19.5725L68.6892 19.7322V31.268C68.6892 33.5299 72.1619 35.3661 76.4596 35.3661C80.7572 35.3661 84.23 33.5299 84.23 31.268V19.5459H78.1494V19.5326Z" fill="url(#paint4_linear)"/>
<path d="M76.4733 23.8163C80.7647 23.8163 84.2437 21.9815 84.2437 19.7182C84.2437 17.4549 80.7647 15.6201 76.4733 15.6201C72.1818 15.6201 68.7029 17.4549 68.7029 19.7182C68.7029 21.9815 72.1818 23.8163 76.4733 23.8163Z" fill="url(#paint5_linear)"/>
<path d="M100.982 98.1139C100.982 98.1139 95.6065 105.658 76.2471 105.658C56.8876 105.658 51.9513 98.0607 51.9513 98.0607V63.3867C51.9513 63.3867 59.6818 70.8245 76.287 70.9841C91.8277 71.1438 100.982 63.4399 100.982 63.4399V98.1139Z" fill="url(#paint6_linear)"/>
<path d="M68.7028 22.5134H58.8568V29.2194H68.7028V22.5134Z" fill="url(#paint7_linear)"/>
<path d="M105.918 21.2623L79.4136 17.5367L101.368 2.14233L73.2133 13.8112C72.069 14.2902 70.7651 14.237 69.6607 13.6782L66.1481 11.842V12.5339L66.1348 18.9471C66.1348 19.3995 66.3743 19.8253 66.7601 20.0515L70.2462 22.167C70.9913 22.6194 71.8428 22.8323 72.7077 22.7924L105.918 21.2623Z" fill="url(#paint8_linear)"/>
<path d="M105.865 21.2758L79.3737 17.5502L83.1258 14.9158C106.49 18.1224 105.865 21.2758 105.865 21.2758Z" fill="url(#paint9_linear)"/>
<path d="M100.982 76.0015C100.982 76.0015 96.0057 82.641 76.42 82.641C56.8344 82.641 51.9513 76.0015 51.9513 76.0015V73.0078C51.9513 73.0078 57.0074 79.6472 76.42 79.6472C95.8327 79.6472 100.982 73.0078 100.982 73.0078V76.0015Z" fill="url(#paint10_linear)"/>
<path d="M100.982 83.7852C100.982 83.7852 96.0057 90.4246 76.42 90.4246C56.8344 90.4246 51.9513 83.7852 51.9513 83.7852V80.7915C51.9513 80.7915 57.0074 87.4309 76.42 87.4309C95.8327 87.4309 100.982 80.7915 100.982 80.7915V83.7852Z" fill="url(#paint11_linear)"/>
<path d="M100.982 91.9407C100.982 91.9407 96.0057 98.5802 76.42 98.5802C56.8344 98.5802 51.9513 91.9407 51.9513 91.9407V88.947C51.9513 88.947 57.0074 95.5864 76.42 95.5864C95.8327 95.5864 100.982 88.947 100.982 88.947V91.9407Z" fill="url(#paint12_linear)"/>
<path d="M68.7029 30.8438L40.0297 40.0012V13.0012L68.7029 21.8893V30.8438Z" fill="url(#paint13_linear)"/>
<path d="M68.6733 30.8431L40 40.0005V13.0005L68.6733 21.8885V30.8431Z" fill="url(#paint14_linear)" fill-opacity="0.8"/>
<path d="M76.3933 37.5684C80.5305 37.5684 83.8843 34.2145 83.8843 30.0774C83.8843 25.9402 80.5305 22.5864 76.3933 22.5864C72.2562 22.5864 68.9023 25.9402 68.9023 30.0774C68.9023 34.2145 72.2562 37.5684 76.3933 37.5684Z" fill="url(#paint15_linear)"/>
<path d="M84.0305 32.0733C84.0305 36.2113 80.6776 39.5642 76.5396 39.5642C72.4016 39.5642 69.0486 36.2113 69.0486 32.0733C69.0486 29.3989 70.4457 27.0571 72.5612 25.7265C73.0136 25.4471 73.4926 25.2076 74.0115 25.0214C74.1313 24.9814 74.251 24.9415 74.3841 24.9016C74.557 24.8484 74.7433 24.7952 74.9296 24.7552C75.4485 24.6355 75.994 24.5823 76.5529 24.5823C80.6776 24.5823 84.0305 27.9353 84.0305 32.0733Z" fill="url(#paint16_linear)"/>
<path d="M76.4732 37.9139C79.6991 37.9139 82.3143 35.2987 82.3143 32.0728C82.3143 28.8468 79.6991 26.2317 76.4732 26.2317C73.2472 26.2317 70.6321 28.8468 70.6321 32.0728C70.6321 35.2987 73.2472 37.9139 76.4732 37.9139Z" fill="url(#paint17_linear)"/>
<path d="M77.3514 32.8054C77.3514 33.2178 77.072 33.5638 76.7394 33.5638C76.4067 33.5638 76.1273 33.2311 76.1273 32.8054C76.1273 32.3929 76.6462 28.9202 76.6462 28.9202C76.6462 28.9202 77.3514 32.3929 77.3514 32.8054Z" fill="white"/>
<g opacity="0.4">
<path opacity="0.2" d="M77.0055 37.4348C76.9922 37.4348 76.9922 37.4348 76.9922 37.4215L76.939 36.8094C76.939 36.7961 76.939 36.7961 76.9523 36.7961C76.9656 36.7961 76.9656 36.7961 76.9656 36.8094L77.0188 37.4215C77.0188 37.4348 77.0188 37.4348 77.0055 37.4348Z" fill="white"/>
<path opacity="0.2" d="M77.4711 37.3818C77.4578 37.3818 77.4578 37.3818 77.4578 37.3685L77.3513 36.7565C77.3513 36.7432 77.3513 36.7432 77.3646 36.7432C77.3779 36.7432 77.3779 36.7432 77.3779 36.7565L77.4844 37.3685C77.4844 37.3685 77.4844 37.3818 77.4711 37.3818Z" fill="white"/>
<path opacity="0.2" d="M77.9235 37.2765C77.9102 37.2765 77.9102 37.2765 77.9102 37.2632L77.7505 36.6644C77.7505 36.6511 77.7505 36.6511 77.7638 36.6511C77.7771 36.6511 77.7771 36.6511 77.7771 36.6644L77.9368 37.2632C77.9368 37.2632 77.9368 37.2765 77.9235 37.2765Z" fill="white"/>
<path opacity="0.2" d="M78.3759 37.1288C78.3625 37.1288 78.3625 37.1288 78.3625 37.1155L78.1497 36.5433C78.1497 36.53 78.1497 36.53 78.163 36.53C78.1763 36.53 78.1763 36.53 78.1763 36.5433L78.3892 37.1155C78.3892 37.1288 78.3892 37.1288 78.3759 37.1288Z" fill="white"/>
<path opacity="0.2" d="M78.815 36.9571H78.8017L78.5356 36.3983V36.385H78.5489L78.815 36.9438C78.8283 36.9438 78.815 36.9571 78.815 36.9571Z" fill="white"/>
<path opacity="0.2" d="M79.6267 36.4911H79.6134L79.2542 35.9855V35.9722H79.2675L79.6267 36.4778C79.6267 36.4778 79.6267 36.4778 79.6267 36.4911Z" fill="white"/>
<path opacity="0.2" d="M79.9993 36.1987H79.986L79.5868 35.733V35.7197H79.6001L79.9993 36.1854V36.1987Z" fill="white"/>
<path opacity="0.2" d="M80.345 35.8787H80.3317L79.8926 35.4396V35.4263H79.9059L80.345 35.8654V35.8787Z" fill="white"/>
<path opacity="0.2" d="M80.6645 35.5333H80.6512L80.1855 35.1342V35.1208H80.1989L80.6645 35.52V35.5333Z" fill="white"/>
<path opacity="0.2" d="M80.9438 35.1595C80.9438 35.1595 80.9305 35.1728 80.9305 35.1595L80.4249 34.8002C80.4249 34.8002 80.4116 34.7869 80.4249 34.7869C80.4249 34.7869 80.4382 34.7736 80.4382 34.7869L80.9438 35.1462C80.9571 35.1462 80.9571 35.1595 80.9438 35.1595Z" fill="white"/>
<path opacity="0.2" d="M81.423 34.3483C81.423 34.3483 81.4097 34.3616 81.4097 34.3483L80.8509 34.0822C80.8509 34.0822 80.8376 34.0689 80.8509 34.0689C80.8509 34.0689 80.8642 34.0556 80.8642 34.0689L81.423 34.335V34.3483Z" fill="white"/>
<path opacity="0.2" d="M81.5959 33.909C81.5959 33.9224 81.5826 33.9224 81.5826 33.9224L81.0105 33.7095C80.9972 33.7095 80.9972 33.6962 80.9972 33.6962C80.9972 33.6829 81.0105 33.6829 81.0105 33.6829L81.5826 33.8957C81.5959 33.8957 81.5959 33.909 81.5959 33.909Z" fill="white"/>
<path opacity="0.2" d="M81.7423 33.4703C81.7423 33.4836 81.729 33.4836 81.729 33.4836L81.1302 33.324C81.1169 33.324 81.1169 33.3107 81.1169 33.3107C81.1169 33.2974 81.1302 33.2974 81.1302 33.2974L81.729 33.457C81.7423 33.457 81.7423 33.457 81.7423 33.4703Z" fill="white"/>
<path opacity="0.2" d="M81.8354 33.0043C81.8354 33.0176 81.8221 33.0176 81.8221 33.0176L81.2101 32.9111C81.1968 32.9111 81.1968 32.8978 81.1968 32.8978C81.1968 32.8845 81.2101 32.8845 81.2101 32.8845L81.8221 32.991C81.8354 32.991 81.8354 33.0043 81.8354 33.0043Z" fill="white"/>
<path opacity="0.2" d="M81.902 32.5382C81.902 32.5515 81.8887 32.5515 81.8887 32.5515L81.2766 32.4983C81.2633 32.4983 81.2633 32.485 81.2633 32.485C81.2633 32.4717 81.2766 32.4717 81.2766 32.4717L81.8887 32.5249C81.902 32.5249 81.902 32.5382 81.902 32.5382Z" fill="white"/>
<path opacity="0.2" d="M81.902 31.6083C81.902 31.6216 81.902 31.6216 81.8887 31.6216L81.2766 31.6748C81.2633 31.6748 81.2633 31.6748 81.2633 31.6615C81.2633 31.6482 81.2633 31.6482 81.2766 31.6482L81.8887 31.595C81.8887 31.595 81.902 31.595 81.902 31.6083Z" fill="white"/>
<path opacity="0.2" d="M81.8354 31.1425C81.8354 31.1558 81.8354 31.1558 81.8221 31.1558L81.2101 31.2622C81.1968 31.2622 81.1968 31.2622 81.1968 31.2489C81.1968 31.2356 81.1968 31.2356 81.2101 31.2356L81.8221 31.1292C81.8354 31.1292 81.8354 31.1292 81.8354 31.1425Z" fill="white"/>
<path opacity="0.2" d="M81.7423 30.6769C81.7423 30.6902 81.7423 30.6902 81.729 30.6902L81.1302 30.8498C81.1169 30.8498 81.1169 30.8499 81.1169 30.8365C81.1169 30.8232 81.1169 30.8232 81.1302 30.8232L81.729 30.6636L81.7423 30.6769Z" fill="white"/>
<path opacity="0.2" d="M81.5959 30.2367C81.5959 30.25 81.5959 30.25 81.5826 30.25L81.0105 30.4629C80.9972 30.4629 80.9972 30.4629 80.9972 30.4496C80.9972 30.4363 80.9972 30.4363 81.0105 30.4363L81.5826 30.2234C81.5826 30.2234 81.5959 30.2234 81.5959 30.2367Z" fill="white"/>
<path opacity="0.2" d="M81.423 29.7981V29.8114L80.8641 30.0775H80.8508V30.0642L81.4097 29.7981C81.4097 29.7848 81.4097 29.7848 81.423 29.7981Z" fill="white"/>
<path opacity="0.2" d="M80.9437 28.9861V28.9994L80.4381 29.3586H80.4248V29.3453L80.9304 28.9861C80.9304 28.9727 80.9437 28.9727 80.9437 28.9861Z" fill="white"/>
<path opacity="0.2" d="M80.6645 28.6142V28.6275L80.1989 29.0267H80.1855V29.0134L80.6512 28.6142C80.6512 28.6009 80.6645 28.6009 80.6645 28.6142Z" fill="white"/>
<path opacity="0.2" d="M80.345 28.268V28.2813L79.9059 28.7204H79.8926V28.7071L80.3317 28.268C80.3317 28.2547 80.345 28.2547 80.345 28.268Z" fill="white"/>
<path opacity="0.2" d="M79.9993 27.948V27.9613L79.6001 28.427H79.5868V28.4137L79.986 27.948H79.9993Z" fill="white"/>
<path opacity="0.2" d="M79.6267 27.6562C79.6267 27.6562 79.6401 27.6696 79.6267 27.6696L79.2675 28.1752C79.2675 28.1752 79.2542 28.1885 79.2542 28.1752C79.2542 28.1752 79.2409 28.1619 79.2542 28.1619L79.6134 27.6562H79.6267Z" fill="white"/>
<path opacity="0.2" d="M79.2272 27.4038C79.2272 27.4038 79.2405 27.4171 79.2272 27.4171L78.9212 27.9493C78.9212 27.9493 78.9079 27.9626 78.9079 27.9493C78.9079 27.9493 78.8946 27.936 78.9079 27.936L79.2139 27.4038H79.2272Z" fill="white"/>
<path opacity="0.2" d="M78.8151 27.1904C78.8151 27.1904 78.8284 27.2037 78.8151 27.2037L78.549 27.7626C78.549 27.7626 78.5357 27.7759 78.5357 27.7626C78.5357 27.7626 78.5224 27.7493 78.5357 27.7493L78.8018 27.1904C78.8018 27.1904 78.8018 27.1904 78.8151 27.1904Z" fill="white"/>
<path opacity="0.2" d="M78.3759 27.018C78.3892 27.018 78.3892 27.0313 78.3892 27.0313L78.1763 27.6034C78.1763 27.6167 78.163 27.6167 78.163 27.6167C78.1497 27.6167 78.1497 27.6034 78.1497 27.6034L78.3625 27.0313C78.3625 27.018 78.3759 27.0047 78.3759 27.018Z" fill="white"/>
<path opacity="0.2" d="M77.9366 26.8716C77.95 26.8716 77.9499 26.8849 77.9499 26.8849L77.7903 27.4836C77.7903 27.4969 77.777 27.4969 77.777 27.4969C77.7637 27.4969 77.7637 27.4836 77.7637 27.4836L77.9233 26.8849C77.91 26.8716 77.9233 26.8716 77.9366 26.8716Z" fill="white"/>
<path opacity="0.2" d="M77.4711 26.7642C77.4844 26.7642 77.4844 26.7775 77.4844 26.7775L77.3779 27.3895C77.3779 27.4028 77.3646 27.4028 77.3646 27.4028C77.3513 27.4028 77.3513 27.3895 77.3513 27.3895L77.4578 26.7775L77.4711 26.7642Z" fill="white"/>
<path opacity="0.2" d="M77.0055 26.7112C77.0188 26.7112 77.0188 26.7245 77.0188 26.7245L76.9656 27.3365C76.9656 27.3498 76.9523 27.3498 76.9523 27.3498C76.939 27.3498 76.939 27.3365 76.939 27.3365L76.9922 26.7245C76.9922 26.7112 77.0055 26.7112 77.0055 26.7112Z" fill="white"/>
<path opacity="0.2" d="M76.0605 26.7112C76.0739 26.7112 76.0739 26.7112 76.0739 26.7245L76.1271 27.3365C76.1271 27.3498 76.1271 27.3498 76.1138 27.3498C76.1005 27.3498 76.1005 27.3498 76.1005 27.3365L76.0472 26.7245C76.0605 26.7112 76.0605 26.7112 76.0605 26.7112Z" fill="white"/>
<path opacity="0.2" d="M75.5948 26.7642C75.6082 26.7642 75.6082 26.7642 75.6082 26.7775L75.7146 27.3895C75.7146 27.4028 75.7146 27.4028 75.7013 27.4028C75.688 27.4028 75.688 27.4028 75.688 27.3895L75.5815 26.7775C75.5948 26.7775 75.5948 26.7642 75.5948 26.7642Z" fill="white"/>
<path opacity="0.2" d="M75.1428 26.8716C75.1561 26.8716 75.1561 26.8716 75.1561 26.8849L75.3158 27.4836C75.3158 27.4969 75.3158 27.4969 75.3025 27.4969C75.2892 27.4969 75.2892 27.4969 75.2892 27.4836L75.1295 26.8849C75.1295 26.8849 75.1295 26.8716 75.1428 26.8716Z" fill="white"/>
<path opacity="0.2" d="M74.6903 27.0166C74.7036 27.0166 74.7036 27.0166 74.7036 27.0299L74.9165 27.6021C74.9165 27.6154 74.9165 27.6154 74.9032 27.6154C74.8899 27.6154 74.8899 27.6154 74.8899 27.6021L74.677 27.0299C74.6903 27.0166 74.6903 27.0166 74.6903 27.0166Z" fill="white"/>
<path opacity="0.2" d="M74.2644 27.1904H74.2777L74.5438 27.7493V27.7626H74.5305L74.2644 27.2037C74.2511 27.2037 74.2511 27.1904 74.2644 27.1904Z" fill="white"/>
<path opacity="0.2" d="M73.4529 27.6562H73.4662L73.8254 28.1619V28.1752H73.8121L73.4529 27.6696C73.4395 27.6696 73.4395 27.6696 73.4529 27.6562Z" fill="white"/>
<path opacity="0.2" d="M73.0802 27.948H73.0935L73.4926 28.4137V28.427H73.4793L73.0802 27.9613C73.0669 27.9613 73.0669 27.948 73.0802 27.948Z" fill="white"/>
<path opacity="0.2" d="M72.7342 28.2686H72.7475L73.1866 28.7076V28.7209H73.1733L72.7342 28.2819C72.7209 28.2819 72.7209 28.2686 72.7342 28.2686Z" fill="white"/>
<path opacity="0.2" d="M72.4149 28.6133H72.4282L72.8939 29.0124V29.0258H72.8806L72.4149 28.6266C72.4016 28.6266 72.4016 28.6133 72.4149 28.6133Z" fill="white"/>
<path opacity="0.2" d="M72.1222 28.9871C72.1222 28.9871 72.1355 28.9738 72.1355 28.9871L72.6411 29.3464C72.6411 29.3464 72.6544 29.3597 72.6411 29.3597C72.6411 29.3597 72.6278 29.373 72.6278 29.3597L72.1222 29.0004V28.9871Z" fill="white"/>
<path opacity="0.2" d="M71.6565 29.7974C71.6565 29.7974 71.6698 29.7841 71.6698 29.7974L72.2286 30.0635C72.2286 30.0635 72.2419 30.0768 72.2286 30.0768C72.2286 30.0768 72.2153 30.0901 72.2153 30.0768L71.6565 29.8107V29.7974Z" fill="white"/>
<path opacity="0.2" d="M71.4705 30.2367C71.4705 30.2234 71.4838 30.2234 71.4838 30.2234L72.0559 30.4363C72.0692 30.4363 72.0692 30.4496 72.0692 30.4496C72.0692 30.4629 72.0559 30.4629 72.0559 30.4629L71.4838 30.25C71.4705 30.25 71.4705 30.2367 71.4705 30.2367Z" fill="white"/>
<path opacity="0.2" d="M71.3374 30.6769C71.3374 30.6636 71.3507 30.6636 71.3507 30.6636L71.9495 30.8232C71.9628 30.8232 71.9628 30.8365 71.9628 30.8365C71.9628 30.8499 71.9495 30.8498 71.9495 30.8498L71.3507 30.6902C71.3374 30.6902 71.3374 30.6902 71.3374 30.6769Z" fill="white"/>
<path opacity="0.2" d="M71.2308 31.1425C71.2308 31.1292 71.2441 31.1292 71.2441 31.1292L71.8562 31.2356C71.8695 31.2356 71.8695 31.2489 71.8695 31.2489C71.8695 31.2622 71.8562 31.2622 71.8562 31.2622L71.2441 31.1558C71.2308 31.1558 71.2308 31.1425 71.2308 31.1425Z" fill="white"/>
<path opacity="0.2" d="M71.1643 31.6083C71.1643 31.595 71.1776 31.595 71.1776 31.595L71.7897 31.6482C71.803 31.6482 71.803 31.6615 71.803 31.6615C71.803 31.6748 71.7897 31.6748 71.7897 31.6748L71.1776 31.6216L71.1643 31.6083Z" fill="white"/>
<path opacity="0.2" d="M71.1643 32.5382C71.1643 32.5249 71.1643 32.5249 71.1776 32.5249L71.7897 32.4717C71.803 32.4717 71.803 32.4717 71.803 32.485C71.803 32.4983 71.803 32.4983 71.7897 32.4983L71.1776 32.5515C71.1776 32.5515 71.1776 32.5515 71.1643 32.5382Z" fill="white"/>
<path opacity="0.2" d="M71.2308 33.0043C71.2308 32.991 71.2308 32.991 71.2441 32.991L71.8562 32.8845C71.8695 32.8845 71.8695 32.8845 71.8695 32.8978C71.8695 32.9111 71.8695 32.9111 71.8562 32.9111L71.2441 33.0176C71.2441 33.0176 71.2308 33.0176 71.2308 33.0043Z" fill="white"/>
<path opacity="0.2" d="M71.3374 33.4703C71.3374 33.457 71.3374 33.457 71.3507 33.457L71.9495 33.2974C71.9628 33.2974 71.9628 33.2974 71.9628 33.3107C71.9628 33.324 71.9628 33.324 71.9495 33.324L71.3507 33.4836C71.3374 33.4836 71.3374 33.4703 71.3374 33.4703Z" fill="white"/>
<path opacity="0.2" d="M71.4705 33.909C71.4705 33.8957 71.4705 33.8957 71.4838 33.8957L72.0559 33.6829C72.0692 33.6829 72.0692 33.6829 72.0692 33.6962C72.0692 33.7095 72.0692 33.7095 72.0559 33.7095L71.4838 33.9224C71.4838 33.9224 71.4838 33.9224 71.4705 33.909Z" fill="white"/>
<path opacity="0.2" d="M71.6565 34.3478V34.3345L72.2153 34.0684H72.2286V34.0817L71.6698 34.3478C71.6698 34.3611 71.6565 34.3611 71.6565 34.3478Z" fill="white"/>
<path opacity="0.2" d="M72.1222 35.1609V35.1476L72.6278 34.7883H72.6411V34.8016L72.1355 35.1609C72.1355 35.1742 72.1222 35.1742 72.1222 35.1609Z" fill="white"/>
<path opacity="0.2" d="M72.4152 35.5333V35.52L72.8809 35.1208H72.8942V35.1342L72.4285 35.5333C72.4285 35.5466 72.4152 35.5466 72.4152 35.5333Z" fill="white"/>
<path opacity="0.2" d="M72.7209 35.8787V35.8654L73.16 35.4263H73.1733V35.4396L72.7343 35.8787C72.7343 35.892 72.7343 35.892 72.7209 35.8787Z" fill="white"/>
<path opacity="0.2" d="M73.0671 36.1987V36.1854L73.4663 35.7197H73.4796V35.733L73.0804 36.1987C73.0938 36.1987 73.0804 36.1987 73.0671 36.1987Z" fill="white"/>
<path opacity="0.2" d="M73.4527 36.4914C73.4527 36.4914 73.4394 36.4781 73.4527 36.4781L73.8119 35.9725C73.8119 35.9725 73.8252 35.9592 73.8252 35.9725C73.8252 35.9725 73.8385 35.9858 73.8252 35.9858L73.466 36.4914H73.4527Z" fill="white"/>
<path opacity="0.2" d="M74.2647 36.9557C74.2647 36.9557 74.2514 36.9424 74.2647 36.9424L74.5308 36.3836C74.5308 36.3836 74.5441 36.3703 74.5441 36.3836C74.5441 36.3836 74.5574 36.3969 74.5441 36.3969L74.278 36.9557H74.2647Z" fill="white"/>
<path opacity="0.2" d="M74.6903 37.1288C74.677 37.1288 74.677 37.1155 74.677 37.1155L74.8899 36.5433C74.8899 36.53 74.9032 36.53 74.9032 36.53C74.9165 36.53 74.9165 36.5433 74.9165 36.5433L74.7036 37.1155C74.7036 37.1288 74.7036 37.1421 74.6903 37.1288Z" fill="white"/>
<path opacity="0.2" d="M75.1428 37.2765C75.1295 37.2765 75.1295 37.2632 75.1295 37.2632L75.2892 36.6644C75.2892 36.6511 75.3025 36.6511 75.3025 36.6511C75.3158 36.6511 75.3158 36.6644 75.3158 36.6644L75.1561 37.2632C75.1561 37.2765 75.1428 37.2765 75.1428 37.2765Z" fill="white"/>
<path opacity="0.2" d="M75.5948 37.3818C75.5815 37.3818 75.5815 37.3685 75.5815 37.3685L75.688 36.7565C75.688 36.7432 75.7013 36.7432 75.7013 36.7432C75.7146 36.7432 75.7146 36.7565 75.7146 36.7565L75.6082 37.3685C75.6082 37.3685 75.6082 37.3818 75.5948 37.3818Z" fill="white"/>
<path opacity="0.2" d="M76.0605 37.4348C76.0472 37.4348 76.0472 37.4215 76.0472 37.4215L76.1005 36.8094C76.1005 36.7961 76.1138 36.7961 76.1138 36.7961C76.1271 36.7961 76.1271 36.8094 76.1271 36.8094L76.0739 37.4215C76.0739 37.4348 76.0739 37.4348 76.0605 37.4348Z" fill="white"/>
</g>
<g opacity="0.6">
<path opacity="0.3" d="M79.214 27.4158C79.2273 27.4291 79.2273 27.4424 79.2273 27.4557L78.7483 28.2806C78.735 28.2939 78.7217 28.2939 78.7084 28.2939C78.6951 28.2806 78.6951 28.2673 78.6951 28.254L79.1741 27.4291C79.1874 27.4158 79.214 27.4158 79.214 27.4158Z" fill="white"/>
<path opacity="0.3" d="M71.8828 34.7747C71.8695 34.7614 71.8828 34.7481 71.8961 34.7348L72.7211 34.2558C72.7344 34.2424 72.7477 34.2558 72.761 34.2691C72.7743 34.2824 72.761 34.2957 72.7477 34.309L71.9227 34.788C71.8961 34.788 71.8828 34.788 71.8828 34.7747Z" fill="white"/>
<path opacity="0.3" d="M73.8518 36.7429C73.8385 36.7296 73.8385 36.7163 73.8385 36.703L74.3175 35.8781C74.3308 35.8647 74.3441 35.8647 74.3574 35.8647C74.3707 35.8781 74.3707 35.8914 74.3707 35.9047L73.8917 36.7296C73.8784 36.7429 73.8651 36.7429 73.8518 36.7429Z" fill="white"/>
<path opacity="0.3" d="M76.5399 37.4609C76.5266 37.4609 76.5133 37.4476 76.5133 37.4343V36.4763C76.5133 36.463 76.5266 36.4497 76.5399 36.4497C76.5532 36.4497 76.5665 36.463 76.5665 36.4763V37.4343C76.5665 37.4476 76.5532 37.4609 76.5399 37.4609Z" fill="white"/>
<path opacity="0.3" d="M79.2272 36.7426C79.2139 36.7559 79.2006 36.7426 79.1873 36.7293L78.7083 35.9043C78.695 35.891 78.7083 35.8777 78.7216 35.8644C78.7349 35.8511 78.7482 35.8644 78.7615 35.8777L79.2405 36.7027C79.2405 36.716 79.2405 36.7293 79.2272 36.7426Z" fill="white"/>
<path opacity="0.3" d="M81.1966 34.7733C81.1833 34.7866 81.17 34.7866 81.1567 34.7866L80.3318 34.3076C80.3185 34.2943 80.3185 34.281 80.3185 34.2677C80.3318 34.2544 80.3451 34.2544 80.3584 34.2544L81.1833 34.7334C81.1966 34.7334 81.1966 34.76 81.1966 34.7733Z" fill="white"/>
<path opacity="0.3" d="M81.9153 32.0735C81.9153 32.0868 81.902 32.1001 81.8887 32.1001H80.9307C80.9174 32.1001 80.9041 32.0868 80.9041 32.0735C80.9041 32.0602 80.9174 32.0469 80.9307 32.0469H81.8887C81.902 32.0469 81.9153 32.0602 81.9153 32.0735Z" fill="white"/>
<path opacity="0.3" d="M81.1831 29.3856C81.1964 29.3989 81.1831 29.4122 81.1698 29.4255L80.3449 29.9045C80.3316 29.9178 80.3183 29.9045 80.3049 29.8912C80.2916 29.8779 80.305 29.8646 80.3183 29.8513L81.1432 29.3723C81.1698 29.3723 81.1831 29.3723 81.1831 29.3856Z" fill="white"/>
<path opacity="0.3" d="M76.5262 26.6975C76.5396 26.6975 76.5529 26.7108 76.5529 26.7241V27.6821C76.5529 27.6954 76.5396 27.7087 76.5262 27.7087C76.5129 27.7087 76.4996 27.6954 76.4996 27.6821V26.7241C76.4996 26.7108 76.5129 26.6975 76.5262 26.6975Z" fill="white"/>
<path opacity="0.3" d="M73.8386 27.4289C73.8519 27.4155 73.8652 27.4289 73.8785 27.4422L74.3575 28.2671C74.3708 28.2804 74.3575 28.2937 74.3442 28.307C74.3309 28.3203 74.3176 28.307 74.3043 28.2937L73.8253 27.4688C73.8253 27.4422 73.8253 27.4289 73.8386 27.4289Z" fill="white"/>
<path opacity="0.3" d="M71.8696 29.3993C71.8829 29.386 71.8962 29.386 71.9095 29.386L72.7345 29.865C72.7478 29.8783 72.7478 29.8916 72.7478 29.9049C72.7345 29.9182 72.7212 29.9182 72.7079 29.9182L71.8829 29.4392C71.8696 29.4259 71.8696 29.4126 71.8696 29.3993Z" fill="white"/>
<path opacity="0.3" d="M71.151 32.0855C71.151 32.0721 71.1643 32.0588 71.1776 32.0588H72.1356C72.1489 32.0588 72.1622 32.0721 72.1622 32.0855C72.1622 32.0988 72.1489 32.1121 72.1356 32.1121H71.1776C71.1643 32.1121 71.151 32.0988 71.151 32.0855Z" fill="white"/>
</g>
<path d="M101.408 1.783C101.527 1.88944 101.501 2.08902 101.354 2.15555C98.2675 3.45949 74.7833 13.7978 73.4129 14.1038C72.0956 14.3966 70.7651 14.3833 69.6208 13.7845L66.3211 12.1479C66.0949 12.0282 66.1082 11.6956 66.3477 11.6024L98.9461 0.0266773C99.119 -0.0398499 99.3186 6.6435e-05 99.465 0.119816L101.408 1.783Z" fill="url(#paint18_linear)"/>
<path d="M40 40.0005C42.7614 40.0005 45 34.2138 45 26.6968C45 19.1798 42.6545 13.0005 39.893 13.0005C37.1316 13.0005 35 19.1798 35 26.6968C35 34.2138 37.2386 40.0005 40 40.0005Z" fill="url(#paint19_linear)"/>
<path d="M40 40.0005C42.7614 40.0005 45 34.2138 45 26.6968C45 19.1798 42.6545 13.0005 39.893 13.0005C37.1316 13.0005 35 19.1798 35 26.6968C35 34.2138 37.2386 40.0005 40 40.0005Z" fill="url(#paint20_linear)" fill-opacity="0.8"/>
</g>
<defs>
<linearGradient id="paint0_linear" x1="50.1666" y1="128.076" x2="103.089" y2="127.937" gradientUnits="userSpaceOnUse">
<stop stop-color="#576788"/>
<stop stop-color="#444A64"/>
<stop offset="0.281456" stop-color="#5B627D"/>
<stop offset="0.5996" stop-color="#363B53"/>
<stop offset="0.720732" stop-color="#2C3146"/>
<stop offset="1" stop-color="#39405A"/>
</linearGradient>
<linearGradient id="paint1_linear" x1="50.1666" y1="128.076" x2="103.089" y2="127.937" gradientUnits="userSpaceOnUse">
<stop stop-color="#576788"/>
<stop stop-color="#444A64"/>
<stop offset="0.281456" stop-color="#5B627D"/>
<stop offset="0.5996" stop-color="#363B53"/>
<stop offset="0.720732" stop-color="#2C3146"/>
<stop offset="1" stop-color="#39405A"/>
</linearGradient>
<radialGradient id="paint2_radial" cx="0" cy="0" r="1" gradientUnits="userSpaceOnUse" gradientTransform="translate(74.8727 35.285) scale(23.9565)">
<stop offset="0.0657268" stop-color="#657296"/>
<stop offset="0.509746" stop-color="#606C8E"/>
<stop offset="1" stop-color="#46557B"/>
</radialGradient>
<linearGradient id="paint3_linear" x1="67.1636" y1="27.3908" x2="83.5262" y2="27.3908" gradientUnits="userSpaceOnUse">
<stop stop-color="#E7EFF5"/>
<stop offset="0.1479" stop-color="#C3C5D2"/>
<stop offset="0.2696" stop-color="#C6C8D5"/>
<stop offset="0.2941" stop-color="#C6CAD6"/>
<stop offset="0.4077" stop-color="#C6CFDA"/>
<stop offset="0.653" stop-color="#98A5B5"/>
<stop offset="0.995" stop-color="#7E8EA0"/>
</linearGradient>
<linearGradient id="paint4_linear" x1="69.1565" y1="27.3908" x2="85.519" y2="27.3908" gradientUnits="userSpaceOnUse">
<stop stop-color="#535A76"/>
<stop offset="0.0891947" stop-color="#5B627D"/>
<stop offset="0.2285" stop-color="#676D8A"/>
<stop offset="0.3918" stop-color="#505774"/>
<stop offset="0.5994" stop-color="#414763"/>
<stop offset="1" stop-color="#434B69"/>
</linearGradient>
<linearGradient id="paint5_linear" x1="74.4703" y1="12.6098" x2="80.1342" y2="32.7729" gradientUnits="userSpaceOnUse">
<stop stop-color="#DFE6EE"/>
<stop offset="0.245" stop-color="#707EA3"/>
<stop offset="0.995" stop-color="#5D6A8D"/>
</linearGradient>
<linearGradient id="paint6_linear" x1="49.9423" y1="70.113" x2="104.517" y2="93.7909" gradientUnits="userSpaceOnUse">
<stop stop-color="#8792B5"/>
<stop offset="1" stop-color="#545F81"/>
</linearGradient>
<linearGradient id="paint7_linear" x1="63.7456" y1="19.2804" x2="63.798" y2="31.0675" gradientUnits="userSpaceOnUse">
<stop stop-color="#11213D"/>
<stop offset="0.6401" stop-color="#385EA0"/>
<stop offset="1" stop-color="#11213D"/>
</linearGradient>
<linearGradient id="paint8_linear" x1="58.6902" y1="12.6601" x2="92.9627" y2="12.441" gradientUnits="userSpaceOnUse">
<stop offset="0.2164" stop-color="#484E69"/>
<stop offset="0.2858" stop-color="#565C77"/>
<stop offset="0.3368" stop-color="#575D79"/>
<stop offset="0.375" stop-color="#69708E"/>
<stop offset="0.441068" stop-color="#545A75"/>
<stop offset="0.5495" stop-color="#3A4058"/>
<stop offset="0.995" stop-color="#434A67"/>
</linearGradient>
<linearGradient id="paint9_linear" x1="92.5242" y1="11.4641" x2="92.7029" y2="25.3036" gradientUnits="userSpaceOnUse">
<stop stop-color="#323850"/>
<stop offset="0.2269" stop-color="#333951"/>
<stop offset="0.3762" stop-color="#2F344B"/>
<stop offset="0.5032" stop-color="#343A51"/>
<stop offset="0.6169" stop-color="#474D67"/>
<stop offset="0.699" stop-color="#5B617D"/>
<stop offset="0.9615" stop-color="#5B617D"/>
</linearGradient>
<linearGradient id="paint10_linear" x1="51.9537" y1="77.8349" x2="100.985" y2="77.8349" gradientUnits="userSpaceOnUse">
<stop stop-color="#2CD8CF"/>
</linearGradient>
<linearGradient id="paint11_linear" x1="51.9537" y1="85.6186" x2="100.985" y2="85.6186" gradientUnits="userSpaceOnUse">
<stop stop-color="#2CD8CF"/>
</linearGradient>
<linearGradient id="paint12_linear" x1="51.9537" y1="93.7742" x2="100.985" y2="93.7742" gradientUnits="userSpaceOnUse">
<stop stop-color="#2CD8CF"/>
</linearGradient>
<linearGradient id="paint13_linear" x1="70.5082" y1="27.0288" x2="40.0327" y2="26.3671" gradientUnits="userSpaceOnUse">
<stop offset="0.105775" stop-color="#394565"/>
<stop offset="0.264344" stop-color="#576385"/>
<stop offset="0.4727" stop-color="#576487"/>
<stop offset="1" stop-color="#6F7DA2"/>
</linearGradient>
<linearGradient id="paint14_linear" x1="58" y1="35.0005" x2="57.5" y2="14.0005" gradientUnits="userSpaceOnUse">
<stop stop-color="#394565"/>
<stop offset="0.379474" stop-color="#576385"/>
<stop offset="0.532365" stop-color="#576487"/>
<stop offset="0.927083" stop-color="#394565"/>
</linearGradient>
<linearGradient id="paint15_linear" x1="70.2135" y1="31.0154" x2="86.203" y2="28.5964" gradientUnits="userSpaceOnUse">
<stop stop-color="#3F4C6B"/>
<stop offset="0.2138" stop-color="#70789B"/>
<stop offset="0.386361" stop-color="#71789A"/>
<stop offset="0.655473" stop-color="#545A77"/>
<stop offset="0.9656" stop-color="#3A4561"/>
</linearGradient>
<linearGradient id="paint16_linear" x1="70.723" y1="37.5082" x2="82.8289" y2="26.1991" gradientUnits="userSpaceOnUse">
<stop offset="0.005" stop-color="#707DA2"/>
<stop offset="0.5" stop-color="#9AA6C8"/>
<stop offset="1" stop-color="#7381A4"/>
</linearGradient>
<linearGradient id="paint17_linear" x1="71.9366" y1="36.3119" x2="81.3791" y2="27.4909" gradientUnits="userSpaceOnUse">
<stop offset="1" stop-color="#2CD8CF"/>
<stop offset="1" stop-color="#0B528D"/>
</linearGradient>
<linearGradient id="paint18_linear" x1="94.0135" y1="6.76025" x2="48.6619" y2="8.83339" gradientUnits="userSpaceOnUse">
<stop offset="0.1507" stop-color="#576588"/>
<stop offset="0.2313" stop-color="#5D698C"/>
<stop offset="0.353" stop-color="#6E7B9C"/>
<stop offset="0.5" stop-color="#717FA4"/>
<stop offset="0.621" stop-color="#576588"/>
</linearGradient>
<linearGradient id="paint19_linear" x1="27.6604" y1="25.2269" x2="52.1853" y2="29.4669" gradientUnits="userSpaceOnUse">
<stop offset="0.375167" stop-color="#3A4563"/>
<stop offset="0.760417" stop-color="#7887AE"/>
</linearGradient>
<linearGradient id="paint20_linear" x1="40" y1="14.5005" x2="40.3585" y2="39.9954" gradientUnits="userSpaceOnUse">
<stop offset="0.09375" stop-color="#5A6685"/>
<stop offset="0.5" stop-color="#7887AE"/>
<stop offset="0.84375" stop-color="#5A6685"/>
</linearGradient>
<clipPath id="clip0">
<rect x="35" width="70.9181" height="140" fill="white"/>
</clipPath>
</defs>
</svg>
