<svg width="140" height="140" viewBox="0 0 140 140" fill="none" xmlns="http://www.w3.org/2000/svg">
<path d="M84.5815 52.2241C79.8817 51.6818 75.0011 51.3805 70 51.3805C64.9989 51.3805 60.1183 51.6818 55.4184 52.2241H2.87671V86.81C2.87671 106.393 32.9436 122.24 70 122.24C107.056 122.24 137.123 106.393 137.123 86.81V52.2241H84.5815Z" fill="url(#paint0_linear)"/>
<path d="M2.87671 56.0597L0 88.7279C0 108.311 32.9436 127.993 70 127.993C107.056 127.993 140 108.311 140 88.7279L137.123 56.0597C92.3392 56.0597 47.6743 56.0597 2.87671 56.0597Z" fill="url(#paint1_linear)"/>
<path d="M2.87671 52.2241L0 86.8101C0 106.393 32.9436 123.199 70 123.199C107.056 123.199 140 106.393 140 86.8101L137.123 52.2241C92.3392 52.2241 47.6743 52.2241 2.87671 52.2241Z" fill="url(#paint2_linear)"/>
<path d="M70 87.6536C107.071 87.6536 137.123 71.7913 137.123 52.2241C137.123 32.6569 107.071 16.7946 70 16.7946C32.9288 16.7946 2.87671 32.6569 2.87671 52.2241C2.87671 71.7913 32.9288 87.6536 70 87.6536Z" fill="url(#paint3_linear)"/>
<path d="M70.0001 84.8767C104.953 84.8767 133.288 69.8506 133.288 51.3151C131.849 68.0958 104.953 83.4384 70.0001 83.4384C35.0473 83.4384 8.15076 68.0959 6.7124 51.3151C6.7124 69.8506 35.0473 84.8767 70.0001 84.8767Z" fill="url(#paint4_linear)"/>
<path d="M70.0001 81.0411C104.953 81.0411 133.288 66.0151 133.288 47.4795C133.288 28.9439 104.953 13.9178 70.0001 13.9178C35.0473 13.9178 6.7124 28.9439 6.7124 47.4795C6.7124 66.0151 35.0473 81.0411 70.0001 81.0411Z" fill="url(#paint5_linear)"/>
<path d="M70.2877 79.1233C105.24 79.1233 133.575 64.0972 133.575 45.5616C133.575 27.0261 105.24 12 70.2877 12C35.3349 12 7 27.0261 7 45.5616C7 64.0972 35.3349 79.1233 70.2877 79.1233Z" fill="url(#paint6_linear)"/>
<path d="M70.5 68C93.9721 68 113 57.9264 113 45.5C113 33.0736 93.9721 23 70.5 23C47.0279 23 28 33.0736 28 45.5C28 57.9264 47.0279 68 70.5 68Z" fill="url(#paint7_linear)"/>
<path d="M69.5 57C81.9264 57 92 51.6274 92 45C92 38.3726 81.9264 33 69.5 33C57.0736 33 47 38.3726 47 45C47 51.6274 57.0736 57 69.5 57Z" fill="url(#paint8_linear)"/>
<path d="M69.5 56C81.9264 56 92 50.6274 92 44C92 37.3726 81.9264 32 69.5 32C57.0736 32 47 37.3726 47 44C47 50.6274 57.0736 56 69.5 56Z" fill="url(#paint9_linear)"/>
<path d="M91.9 44C91.9 47.2588 89.4217 50.2323 85.3628 52.397C81.3083 54.5595 75.7001 55.9 69.5 55.9C63.2999 55.9 57.6917 54.5595 53.6372 52.397C49.5783 50.2323 47.1 47.2588 47.1 44C47.1 40.7412 49.5783 37.7677 53.6372 35.603C57.6917 33.4405 63.2999 32.1 69.5 32.1C75.7001 32.1 81.3083 33.4405 85.3628 35.603C89.4217 37.7677 91.9 40.7412 91.9 44Z" stroke="#7C8AB6" stroke-opacity="0.6" stroke-width="0.2"/>
<path d="M107.598 89.3677C107.598 89.0109 107.235 88.7689 106.906 88.9061L106.46 89.092C106.273 89.1696 106.152 89.3517 106.152 89.5536V107.66C106.152 108.009 106.501 108.25 106.827 108.128C106.976 108.072 107.125 108.016 107.274 107.96C107.469 107.887 107.598 107.701 107.598 107.492V89.3677Z" fill="#2FAAAF"/>
<path d="M110.912 88.1918C110.912 87.8275 110.535 87.5854 110.203 87.7372L109.757 87.9417C109.58 88.0232 109.466 88.2007 109.466 88.3962V106.186C109.466 106.558 109.859 106.805 110.204 106.665C110.332 106.613 110.46 106.564 110.587 106.515C110.782 106.441 110.912 106.255 110.912 106.046V88.1918Z" fill="#2FAAAF"/>
<path d="M104.345 90.4841C104.345 90.135 103.997 89.8959 103.667 90.0105C103.536 90.0559 103.405 90.0994 103.274 90.1395C103.055 90.2067 102.898 90.4056 102.898 90.635V108.744C102.898 109.093 103.249 109.341 103.583 109.237C103.728 109.192 103.873 109.146 104.018 109.098C104.215 109.033 104.345 108.846 104.345 108.637V90.4841Z" fill="#2FAAAF"/>
<path d="M114.166 86.8663C114.166 86.4874 113.761 86.2462 113.428 86.4267L112.982 86.6683C112.82 86.7557 112.72 86.9245 112.72 87.108V104.74C112.72 105.112 113.111 105.354 113.444 105.187C113.592 105.113 113.741 105.039 113.89 104.964C114.059 104.88 114.166 104.707 114.166 104.517V86.8663Z" fill="#2FAAAF"/>
<path d="M99.6445 109.85C99.6445 110.175 99.9492 110.409 100.26 110.313C100.411 110.266 100.563 110.218 100.714 110.172C100.934 110.107 101.091 109.907 101.091 109.678V91.5479C101.091 91.2226 100.786 90.9881 100.475 91.0847C100.324 91.1319 100.172 91.1799 100.021 91.2251C99.8009 91.2906 99.6445 91.4902 99.6445 91.7196V109.85Z" fill="#2FAAAF"/>
<path d="M117.48 85.2101C117.48 84.8242 117.062 84.5838 116.728 84.7782L116.282 85.0385C116.129 85.1281 116.034 85.2925 116.034 85.4703V102.779C116.034 103.172 116.471 103.42 116.814 103.228C116.957 103.147 117.1 103.066 117.243 102.981C117.392 102.894 117.48 102.733 117.48 102.561V85.2101Z" fill="#2FAAAF"/>
<path d="M130.615 75.4356C130.615 74.9804 130.057 74.762 129.748 75.0964L129.302 75.5797C129.217 75.6721 129.169 75.7931 129.169 75.9188V91.3582C129.169 91.8425 129.778 92.0358 130.054 91.6386C130.21 91.416 130.365 91.1947 130.52 90.9789C130.582 90.8931 130.615 90.7903 130.615 90.6846V75.4356Z" fill="#2FAAAF"/>
<path d="M124.048 81.2695C124.048 80.8637 123.59 80.6269 123.259 80.8615L122.813 81.1775C122.68 81.2712 122.602 81.4233 122.602 81.5855V98.4032C122.602 98.8152 123.065 99.0415 123.385 98.7818C123.54 98.6561 123.695 98.531 123.849 98.4104C123.973 98.3136 124.048 98.1658 124.048 98.0084V81.2695Z" fill="#2FAAAF"/>
<path d="M125.915 95.3643C125.915 95.8098 126.454 96.0328 126.769 95.7179C126.917 95.5692 127.066 95.4205 127.215 95.2718C127.308 95.178 127.361 95.0508 127.361 94.9182V78.6932C127.361 78.2636 126.855 78.034 126.532 78.3169L126.086 78.7072C125.977 78.8022 125.915 78.9394 125.915 79.0835V95.3643Z" fill="#2FAAAF"/>
<path d="M120.733 83.4025C120.733 83.0166 120.315 82.7762 119.981 82.9706L119.535 83.2308C119.382 83.3204 119.287 83.4849 119.287 83.6627V100.851C119.287 101.244 119.714 101.475 120.037 101.252C120.192 101.146 120.346 101.041 120.5 100.939C120.644 100.844 120.733 100.684 120.733 100.512V83.4025Z" fill="#2FAAAF"/>
<path d="M31.792 104.997C31.2497 105.061 30.7074 104.932 30.2254 104.738C28.7793 104.092 27.514 102.477 27.0319 100.539C26.6704 98.9882 26.8512 97.5669 27.514 96.5977C27.6345 96.4685 27.6947 96.3393 27.8152 96.2101C27.9357 96.0809 27.996 96.0163 28.1165 95.9517C28.3575 95.7578 28.6588 95.6286 29.0203 95.4994C29.1408 95.4994 29.6051 95.4245 29.7256 95.4245C31.2319 95.2953 32.4548 96.4039 33.4189 98.1483C33.7202 98.6652 34.8188 100.117 34.9996 100.698C35.6624 103.347 33.7202 104.868 31.792 104.997Z" fill="#208A83"/>
<path d="M33.184 103.862C32.6417 103.922 32.0994 103.802 31.6174 103.621C30.1713 103.018 28.9059 101.512 28.4239 99.7043C28.0624 98.2581 28.2431 96.9326 28.9059 96.0287C29.0264 95.9082 29.0867 95.7877 29.2072 95.6672C29.3277 95.5467 29.388 95.4865 29.5085 95.4262C29.7495 95.2454 30.0508 95.1249 30.4123 95.0044C30.5328 95.0044 30.6533 94.9442 30.7738 94.9442C32.2802 94.8237 33.8468 95.848 34.8109 97.4748C35.1121 97.9569 35.3531 98.5594 35.5339 99.1017C36.1967 101.572 35.1121 103.741 33.184 103.862Z" fill="#28DBCF"/>
<path d="M19.3267 99.7336C18.7844 99.7982 18.2421 99.6689 17.7601 99.4751C16.314 98.829 15.0486 97.2139 14.5666 95.2756C14.2051 93.725 14.3858 92.3037 15.0486 91.3346C15.1691 91.2053 15.2294 91.0761 15.3499 90.9469C15.4704 90.8177 15.5307 90.7531 15.6512 90.6885C15.8922 90.4947 16.1935 90.3654 16.555 90.2362C16.6755 90.2362 17.1397 90.1613 17.2603 90.1613C18.7666 90.0321 19.9895 91.1407 20.9536 92.8851C21.2548 93.402 22.3535 94.8538 22.5342 95.4353C23.197 98.0842 21.2548 99.6043 19.3267 99.7336Z" fill="#208A83"/>
<path d="M20.7187 98.5985C20.1764 98.6588 19.6341 98.5382 19.152 98.3575C17.7059 97.7549 16.4406 96.2486 15.9586 94.4409C15.597 92.9948 15.7778 91.6693 16.4406 90.7654C16.5611 90.6449 16.6214 90.5244 16.7419 90.4039C16.8624 90.2834 16.9226 90.2231 17.0431 90.1629C17.2842 89.9821 17.5854 89.8616 17.947 89.7411C18.0675 89.7411 18.188 89.6809 18.3085 89.6809C19.8148 89.5604 21.3815 90.5847 22.3455 92.2115C22.6468 92.6936 22.8878 93.2961 23.0686 93.8384C23.7314 96.3088 22.6468 98.478 20.7187 98.5985Z" fill="#28DBCF"/>
<path d="M87.8466 26L99.0265 33.105L87.8466 40.1577V36.344H79.2266L80.8983 33.105L79.2266 29.8137H87.8466V26Z" fill="url(#paint10_linear)"/>
<path d="M78.1296 36.3439H76.2489L77.9207 33.1049L76.2489 29.8136H78.1296L79.8014 33.1049L78.1296 36.3439Z" fill="url(#paint11_linear)"/>
<path d="M75.1515 36.3439H73.2708L74.9425 33.1049L73.2708 29.8136H75.1515L76.8232 33.1049L75.1515 36.3439Z" fill="url(#paint12_linear)"/>
<path d="M87.8466 26V40.1577V36.344H79.2266L80.8983 33.105L79.2266 29.8137H87.8466V26Z" fill="url(#paint13_linear)"/>
<path d="M78.1296 36.3439H76.2489L77.9207 33.1049L76.2489 29.8136H78.1296L79.8014 33.1049L78.1296 36.3439Z" fill="url(#paint14_linear)"/>
<path d="M75.1515 36.3439H73.2708L74.9425 33.1049L73.2708 29.8136H75.1515L76.8232 33.1049L75.1515 36.3439Z" fill="url(#paint15_linear)"/>
<path d="M91.82 41.7966L103 48.9016L91.82 55.9544V52.1406H83.2L84.8717 48.9016L83.2 45.6103H91.82V41.7966Z" fill="url(#paint16_linear)"/>
<path d="M82.103 52.1407H80.2223L81.8941 48.9016L80.2223 45.6104H82.103L83.7748 48.9016L82.103 52.1407Z" fill="url(#paint17_linear)"/>
<path d="M79.1249 52.1407H77.2441L78.9159 48.9016L77.2441 45.6104H79.1249L80.7966 48.9016L79.1249 52.1407Z" fill="url(#paint18_linear)"/>
<path d="M91.82 41.7966V55.9544V52.1406H83.2L84.8717 48.9016L83.2 45.6103H91.82V41.7966Z" fill="url(#paint19_linear)"/>
<path d="M82.103 52.1407H80.2223L81.8941 48.9016L80.2223 45.6104H82.103L83.7748 48.9016L82.103 52.1407Z" fill="url(#paint20_linear)"/>
<path d="M79.1249 52.1407H77.2441L78.9159 48.9016L77.2441 45.6104H79.1249L80.7966 48.9016L79.1249 52.1407Z" fill="url(#paint21_linear)"/>
<path d="M54.1533 64.2683L42.9734 57.1633L54.1533 50.1106V53.9243H62.7733L61.1016 57.1633L62.7733 60.4546H54.1533V64.2683Z" fill="url(#paint22_linear)"/>
<path d="M63.8702 53.9243H65.751L64.0792 57.1633L65.751 60.4546H63.8702L62.1985 57.1633L63.8702 53.9243Z" fill="url(#paint23_linear)"/>
<path d="M66.8484 53.9243H68.7291L67.0574 57.1633L68.7291 60.4546H66.8484L65.1766 57.1633L66.8484 53.9243Z" fill="url(#paint24_linear)"/>
<path d="M54.1533 64.2683V50.1106V53.9243H62.7733L61.1016 57.1633L62.7733 60.4546H54.1533V64.2683Z" fill="url(#paint25_linear)"/>
<path d="M63.8702 53.9243H65.751L64.0792 57.1633L65.751 60.4546H63.8702L62.1985 57.1633L63.8702 53.9243Z" fill="url(#paint26_linear)"/>
<path d="M66.8484 53.9243H68.7291L67.0574 57.1633L68.7291 60.4546H66.8484L65.1766 57.1633L66.8484 53.9243Z" fill="url(#paint27_linear)"/>
<path d="M50.18 48.4717L39.0001 41.3667L50.18 34.314V38.1277H58.8L57.1283 41.3667L58.8 44.658H50.18V48.4717Z" fill="url(#paint28_linear)"/>
<path d="M59.897 38.1276H61.7777L60.1059 41.3667L61.7777 44.658H59.897L58.2252 41.3667L59.897 38.1276Z" fill="url(#paint29_linear)"/>
<path d="M62.8751 38.1276H64.7559L63.0841 41.3667L64.7559 44.658H62.8751L61.2034 41.3667L62.8751 38.1276Z" fill="url(#paint30_linear)"/>
<path d="M50.18 48.4717V34.314V38.1277H58.8L57.1283 41.3667L58.8 44.658H50.18V48.4717Z" fill="url(#paint31_linear)"/>
<path d="M59.897 38.1276H61.7777L60.1059 41.3667L61.7777 44.658H59.897L58.2252 41.3667L59.897 38.1276Z" fill="url(#paint32_linear)"/>
<path d="M62.8751 38.1276H64.7559L63.0841 41.3667L64.7559 44.658H62.8751L61.2034 41.3667L62.8751 38.1276Z" fill="url(#paint33_linear)"/>
<path d="M86.8466 25L98.0265 32.105L86.8466 39.1577V35.344H78.2266L79.8983 32.105L78.2266 28.8137H86.8466V25Z" fill="url(#paint34_linear)"/>
<path d="M77.1296 35.3439H75.2489L76.9207 32.1049L75.2489 28.8136H77.1296L78.8014 32.1049L77.1296 35.3439Z" fill="url(#paint35_linear)"/>
<path d="M74.1515 35.3439H72.2708L73.9425 32.1049L72.2708 28.8136H74.1515L75.8232 32.1049L74.1515 35.3439Z" fill="url(#paint36_linear)"/>
<path d="M86.8466 25V39.1577V35.344H78.2266L79.8983 32.105L78.2266 28.8137H86.8466V25Z" fill="url(#paint37_linear)"/>
<path d="M77.1296 35.3439H75.2489L76.9207 32.1049L75.2489 28.8136H77.1296L78.8014 32.1049L77.1296 35.3439Z" fill="url(#paint38_linear)"/>
<path d="M74.1515 35.3439H72.2708L73.9425 32.1049L72.2708 28.8136H74.1515L75.8232 32.1049L74.1515 35.3439Z" fill="url(#paint39_linear)"/>
<path d="M90.82 40.7966L102 47.9016L90.82 54.9544V51.1406H82.2L83.8717 47.9016L82.2 44.6103H90.82V40.7966Z" fill="url(#paint40_linear)"/>
<path d="M81.103 51.1407H79.2223L80.8941 47.9016L79.2223 44.6104H81.103L82.7748 47.9016L81.103 51.1407Z" fill="url(#paint41_linear)"/>
<path d="M78.1249 51.1407H76.2441L77.9159 47.9016L76.2441 44.6104H78.1249L79.7966 47.9016L78.1249 51.1407Z" fill="url(#paint42_linear)"/>
<path d="M90.82 40.7966V54.9544V51.1406H82.2L83.8717 47.9016L82.2 44.6103H90.82V40.7966Z" fill="url(#paint43_linear)"/>
<path d="M81.103 51.1407H79.2223L80.8941 47.9016L79.2223 44.6104H81.103L82.7748 47.9016L81.103 51.1407Z" fill="url(#paint44_linear)"/>
<path d="M78.1249 51.1407H76.2441L77.9159 47.9016L76.2441 44.6104H78.1249L79.7966 47.9016L78.1249 51.1407Z" fill="url(#paint45_linear)"/>
<path d="M53.1533 63.2683L41.9734 56.1633L53.1533 49.1106V52.9243H61.7733L60.1016 56.1633L61.7733 59.4546H53.1533V63.2683Z" fill="url(#paint46_linear)"/>
<path d="M62.8702 52.9243H64.751L63.0792 56.1633L64.751 59.4546H62.8702L61.1985 56.1633L62.8702 52.9243Z" fill="url(#paint47_linear)"/>
<path d="M65.8484 52.9243H67.7291L66.0574 56.1633L67.7291 59.4546H65.8484L64.1766 56.1633L65.8484 52.9243Z" fill="url(#paint48_linear)"/>
<path d="M53.1533 63.2683V49.1106V52.9243H61.7733L60.1016 56.1633L61.7733 59.4546H53.1533V63.2683Z" fill="url(#paint49_linear)"/>
<path d="M62.8702 52.9243H64.751L63.0792 56.1633L64.751 59.4546H62.8702L61.1985 56.1633L62.8702 52.9243Z" fill="url(#paint50_linear)"/>
<path d="M65.8484 52.9243H67.7291L66.0574 56.1633L67.7291 59.4546H65.8484L64.1766 56.1633L65.8484 52.9243Z" fill="url(#paint51_linear)"/>
<path d="M49.18 47.4717L38.0001 40.3667L49.18 33.314V37.1277H57.8L56.1283 40.3667L57.8 43.658H49.18V47.4717Z" fill="url(#paint52_linear)"/>
<path d="M58.897 37.1276H60.7777L59.1059 40.3667L60.7777 43.658H58.897L57.2252 40.3667L58.897 37.1276Z" fill="url(#paint53_linear)"/>
<path d="M61.8751 37.1276H63.7559L62.0841 40.3667L63.7559 43.658H61.8751L60.2034 40.3667L61.8751 37.1276Z" fill="url(#paint54_linear)"/>
<path d="M49.18 47.4717V33.314V37.1277H57.8L56.1283 40.3667L57.8 43.658H49.18V47.4717Z" fill="url(#paint55_linear)"/>
<path d="M58.897 37.1276H60.7777L59.1059 40.3667L60.7777 43.658H58.897L57.2252 40.3667L58.897 37.1276Z" fill="url(#paint56_linear)"/>
<path d="M61.8751 37.1276H63.7559L62.0841 40.3667L63.7559 43.658H61.8751L60.2034 40.3667L61.8751 37.1276Z" fill="url(#paint57_linear)"/>
<defs>
<linearGradient id="paint0_linear" x1="6.83331" y1="86.8181" x2="148.276" y2="86.8181" gradientUnits="userSpaceOnUse">
<stop stop-color="#E7EFF5"/>
<stop offset="0.2574" stop-color="#C3C5D2"/>
<stop offset="0.3352" stop-color="#C6C8D5"/>
<stop offset="0.3997" stop-color="#CED3DD"/>
<stop offset="0.4592" stop-color="#DDE4EC"/>
<stop offset="0.4655" stop-color="#DFE6EE"/>
<stop offset="0.5842" stop-color="#98A5B5"/>
<stop offset="0.995" stop-color="#7E8EA0"/>
</linearGradient>
<linearGradient id="paint1_linear" x1="3.63061" y1="90.6537" x2="132.008" y2="90.6537" gradientUnits="userSpaceOnUse">
<stop stop-color="#2D3853"/>
<stop offset="0.510417" stop-color="#2C3652"/>
<stop offset="1" stop-color="#30385C"/>
</linearGradient>
<linearGradient id="paint2_linear" x1="3.63061" y1="86.8181" x2="132.008" y2="86.8181" gradientUnits="userSpaceOnUse">
<stop stop-color="#98A1C1"/>
<stop offset="0.510417" stop-color="#7B86A4"/>
<stop offset="1" stop-color="#5E6A84"/>
</linearGradient>
<linearGradient id="paint3_linear" x1="7.67123" y1="59.9452" x2="123.699" y2="41.7261" gradientUnits="userSpaceOnUse">
<stop stop-color="#2C3754"/>
<stop offset="0.510336" stop-color="#2D3956"/>
<stop offset="0.995" stop-color="#293552"/>
</linearGradient>
<linearGradient id="paint4_linear" x1="24.3425" y1="78.1587" x2="119.032" y2="25.3979" gradientUnits="userSpaceOnUse">
<stop stop-color="#478793"/>
<stop offset="0.510336" stop-color="#3AA0A4"/>
<stop offset="0.995" stop-color="#3B8D99"/>
</linearGradient>
<linearGradient id="paint5_linear" x1="24.3425" y1="74.3231" x2="119.032" y2="21.5623" gradientUnits="userSpaceOnUse">
<stop stop-color="#4C5979"/>
<stop offset="0.510336" stop-color="#3E4B6B"/>
<stop offset="0.995" stop-color="#384967"/>
</linearGradient>
<linearGradient id="paint6_linear" x1="22" y1="68.5" x2="123.18" y2="23.4035" gradientUnits="userSpaceOnUse">
<stop stop-color="#59658A"/>
<stop offset="0.514067" stop-color="#4D5A7D"/>
<stop offset="0.995" stop-color="#676F9A"/>
</linearGradient>
<linearGradient id="paint7_linear" x1="38.0731" y1="60.8781" x2="105.981" y2="30.5601" gradientUnits="userSpaceOnUse">
<stop stop-color="#2C3754"/>
<stop offset="0.514067" stop-color="#2D3956"/>
<stop offset="0.995" stop-color="#293552"/>
</linearGradient>
<linearGradient id="paint8_linear" x1="51" y1="51" x2="85.613" y2="37.2853" gradientUnits="userSpaceOnUse">
<stop stop-color="#455174"/>
<stop offset="0.541667" stop-color="#3A4767"/>
<stop offset="1" stop-color="#414975"/>
</linearGradient>
<linearGradient id="paint9_linear" x1="51" y1="50" x2="85.613" y2="36.2853" gradientUnits="userSpaceOnUse">
<stop stop-color="#59658A"/>
<stop offset="0.541667" stop-color="#4D5B7E"/>
<stop offset="1" stop-color="#656D98"/>
</linearGradient>
<linearGradient id="paint10_linear" x1="72.0849" y1="33.0994" x2="116.998" y2="33.0994" gradientUnits="userSpaceOnUse">
<stop stop-color="#1E4644"/>
<stop offset="0.995" stop-color="#062727"/>
</linearGradient>
<linearGradient id="paint11_linear" x1="74.9675" y1="33.0882" x2="83.0259" y2="33.0882" gradientUnits="userSpaceOnUse">
<stop stop-color="#1E4644"/>
<stop offset="0.995" stop-color="#062727"/>
</linearGradient>
<linearGradient id="paint12_linear" x1="71.9894" y1="33.0882" x2="80.0477" y2="33.0882" gradientUnits="userSpaceOnUse">
<stop stop-color="#1E4644"/>
<stop offset="0.995" stop-color="#062727"/>
</linearGradient>
<linearGradient id="paint13_linear" x1="76.1174" y1="33.0994" x2="95.6706" y2="33.0994" gradientUnits="userSpaceOnUse">
<stop stop-color="#1E4644"/>
<stop offset="0.995" stop-color="#062727"/>
</linearGradient>
<linearGradient id="paint14_linear" x1="74.9675" y1="33.0882" x2="83.0259" y2="33.0882" gradientUnits="userSpaceOnUse">
<stop stop-color="#1E4644"/>
<stop offset="0.995" stop-color="#062727"/>
</linearGradient>
<linearGradient id="paint15_linear" x1="71.9894" y1="33.0882" x2="80.0477" y2="33.0882" gradientUnits="userSpaceOnUse">
<stop stop-color="#1E4644"/>
<stop offset="0.995" stop-color="#062727"/>
</linearGradient>
<linearGradient id="paint16_linear" x1="76.0583" y1="48.896" x2="120.971" y2="48.896" gradientUnits="userSpaceOnUse">
<stop stop-color="#1E4644"/>
<stop offset="0.995" stop-color="#062727"/>
</linearGradient>
<linearGradient id="paint17_linear" x1="78.9409" y1="48.885" x2="86.9993" y2="48.885" gradientUnits="userSpaceOnUse">
<stop stop-color="#1E4644"/>
<stop offset="0.995" stop-color="#062727"/>
</linearGradient>
<linearGradient id="paint18_linear" x1="75.9628" y1="48.885" x2="84.0211" y2="48.885" gradientUnits="userSpaceOnUse">
<stop stop-color="#1E4644"/>
<stop offset="0.995" stop-color="#062727"/>
</linearGradient>
<linearGradient id="paint19_linear" x1="80.0908" y1="48.896" x2="99.644" y2="48.896" gradientUnits="userSpaceOnUse">
<stop stop-color="#1E4644"/>
<stop offset="0.995" stop-color="#062727"/>
</linearGradient>
<linearGradient id="paint20_linear" x1="78.9409" y1="48.885" x2="86.9993" y2="48.885" gradientUnits="userSpaceOnUse">
<stop stop-color="#1E4644"/>
<stop offset="0.995" stop-color="#062727"/>
</linearGradient>
<linearGradient id="paint21_linear" x1="75.9628" y1="48.885" x2="84.0211" y2="48.885" gradientUnits="userSpaceOnUse">
<stop stop-color="#1E4644"/>
<stop offset="0.995" stop-color="#062727"/>
</linearGradient>
<linearGradient id="paint22_linear" x1="69.915" y1="57.1689" x2="25.0018" y2="57.1689" gradientUnits="userSpaceOnUse">
<stop stop-color="#1E4644"/>
<stop offset="0.995" stop-color="#062727"/>
</linearGradient>
<linearGradient id="paint23_linear" x1="67.0323" y1="57.18" x2="58.974" y2="57.18" gradientUnits="userSpaceOnUse">
<stop stop-color="#1E4644"/>
<stop offset="0.995" stop-color="#062727"/>
</linearGradient>
<linearGradient id="paint24_linear" x1="70.0105" y1="57.18" x2="61.9522" y2="57.18" gradientUnits="userSpaceOnUse">
<stop stop-color="#1E4644"/>
<stop offset="0.995" stop-color="#062727"/>
</linearGradient>
<linearGradient id="paint25_linear" x1="65.8825" y1="57.1689" x2="46.3292" y2="57.1689" gradientUnits="userSpaceOnUse">
<stop stop-color="#1E4644"/>
<stop offset="0.995" stop-color="#062727"/>
</linearGradient>
<linearGradient id="paint26_linear" x1="67.0323" y1="57.18" x2="58.974" y2="57.18" gradientUnits="userSpaceOnUse">
<stop stop-color="#1E4644"/>
<stop offset="0.995" stop-color="#062727"/>
</linearGradient>
<linearGradient id="paint27_linear" x1="70.0105" y1="57.18" x2="61.9522" y2="57.18" gradientUnits="userSpaceOnUse">
<stop stop-color="#1E4644"/>
<stop offset="0.995" stop-color="#062727"/>
</linearGradient>
<linearGradient id="paint28_linear" x1="65.9417" y1="41.3723" x2="21.0285" y2="41.3723" gradientUnits="userSpaceOnUse">
<stop stop-color="#1E4644"/>
<stop offset="0.995" stop-color="#062727"/>
</linearGradient>
<linearGradient id="paint29_linear" x1="63.0591" y1="41.3833" x2="55.0007" y2="41.3833" gradientUnits="userSpaceOnUse">
<stop stop-color="#1E4644"/>
<stop offset="0.995" stop-color="#062727"/>
</linearGradient>
<linearGradient id="paint30_linear" x1="66.0372" y1="41.3833" x2="57.9789" y2="41.3833" gradientUnits="userSpaceOnUse">
<stop stop-color="#1E4644"/>
<stop offset="0.995" stop-color="#062727"/>
</linearGradient>
<linearGradient id="paint31_linear" x1="61.9092" y1="41.3723" x2="42.356" y2="41.3723" gradientUnits="userSpaceOnUse">
<stop stop-color="#1E4644"/>
<stop offset="0.995" stop-color="#062727"/>
</linearGradient>
<linearGradient id="paint32_linear" x1="63.0591" y1="41.3833" x2="55.0007" y2="41.3833" gradientUnits="userSpaceOnUse">
<stop stop-color="#1E4644"/>
<stop offset="0.995" stop-color="#062727"/>
</linearGradient>
<linearGradient id="paint33_linear" x1="66.0372" y1="41.3833" x2="57.9789" y2="41.3833" gradientUnits="userSpaceOnUse">
<stop stop-color="#1E4644"/>
<stop offset="0.995" stop-color="#062727"/>
</linearGradient>
<linearGradient id="paint34_linear" x1="71.0849" y1="32.0994" x2="115.998" y2="32.0994" gradientUnits="userSpaceOnUse">
<stop stop-color="#30EEE5"/>
<stop offset="0.995" stop-color="#15C8D3"/>
</linearGradient>
<linearGradient id="paint35_linear" x1="73.9675" y1="32.0882" x2="82.0259" y2="32.0882" gradientUnits="userSpaceOnUse">
<stop stop-color="#30EEE5"/>
<stop offset="0.995" stop-color="#15C8D3"/>
</linearGradient>
<linearGradient id="paint36_linear" x1="70.9894" y1="32.0882" x2="79.0477" y2="32.0882" gradientUnits="userSpaceOnUse">
<stop stop-color="#30EEE5"/>
<stop offset="0.995" stop-color="#15C8D3"/>
</linearGradient>
<linearGradient id="paint37_linear" x1="75.1174" y1="32.0994" x2="94.6706" y2="32.0994" gradientUnits="userSpaceOnUse">
<stop stop-color="#30EEE5"/>
<stop offset="0.995" stop-color="#15C8D3"/>
</linearGradient>
<linearGradient id="paint38_linear" x1="73.9675" y1="32.0882" x2="82.0259" y2="32.0882" gradientUnits="userSpaceOnUse">
<stop stop-color="#30EEE5"/>
<stop offset="0.995" stop-color="#15C8D3"/>
</linearGradient>
<linearGradient id="paint39_linear" x1="70.9894" y1="32.0882" x2="79.0477" y2="32.0882" gradientUnits="userSpaceOnUse">
<stop stop-color="#30EEE5"/>
<stop offset="0.995" stop-color="#15C8D3"/>
</linearGradient>
<linearGradient id="paint40_linear" x1="75.0583" y1="47.896" x2="119.971" y2="47.896" gradientUnits="userSpaceOnUse">
<stop stop-color="#30EEE5"/>
<stop offset="0.995" stop-color="#15C8D3"/>
</linearGradient>
<linearGradient id="paint41_linear" x1="77.9409" y1="47.885" x2="85.9993" y2="47.885" gradientUnits="userSpaceOnUse">
<stop stop-color="#30EEE5"/>
<stop offset="0.995" stop-color="#15C8D3"/>
</linearGradient>
<linearGradient id="paint42_linear" x1="74.9628" y1="47.885" x2="83.0211" y2="47.885" gradientUnits="userSpaceOnUse">
<stop stop-color="#30EEE5"/>
<stop offset="0.995" stop-color="#15C8D3"/>
</linearGradient>
<linearGradient id="paint43_linear" x1="79.0908" y1="47.896" x2="98.644" y2="47.896" gradientUnits="userSpaceOnUse">
<stop stop-color="#30EEE5"/>
<stop offset="0.995" stop-color="#15C8D3"/>
</linearGradient>
<linearGradient id="paint44_linear" x1="77.9409" y1="47.885" x2="85.9993" y2="47.885" gradientUnits="userSpaceOnUse">
<stop stop-color="#30EEE5"/>
<stop offset="0.995" stop-color="#15C8D3"/>
</linearGradient>
<linearGradient id="paint45_linear" x1="74.9628" y1="47.885" x2="83.0211" y2="47.885" gradientUnits="userSpaceOnUse">
<stop stop-color="#30EEE5"/>
<stop offset="0.995" stop-color="#15C8D3"/>
</linearGradient>
<linearGradient id="paint46_linear" x1="68.915" y1="56.1689" x2="24.0018" y2="56.1689" gradientUnits="userSpaceOnUse">
<stop stop-color="#30EEE5"/>
<stop offset="0.995" stop-color="#15C8D3"/>
</linearGradient>
<linearGradient id="paint47_linear" x1="66.0323" y1="56.18" x2="57.974" y2="56.18" gradientUnits="userSpaceOnUse">
<stop stop-color="#30EEE5"/>
<stop offset="0.995" stop-color="#15C8D3"/>
</linearGradient>
<linearGradient id="paint48_linear" x1="69.0105" y1="56.18" x2="60.9522" y2="56.18" gradientUnits="userSpaceOnUse">
<stop stop-color="#30EEE5"/>
<stop offset="0.995" stop-color="#15C8D3"/>
</linearGradient>
<linearGradient id="paint49_linear" x1="64.8825" y1="56.1689" x2="45.3292" y2="56.1689" gradientUnits="userSpaceOnUse">
<stop stop-color="#30EEE5"/>
<stop offset="0.995" stop-color="#15C8D3"/>
</linearGradient>
<linearGradient id="paint50_linear" x1="66.0323" y1="56.18" x2="57.974" y2="56.18" gradientUnits="userSpaceOnUse">
<stop stop-color="#30EEE5"/>
<stop offset="0.995" stop-color="#15C8D3"/>
</linearGradient>
<linearGradient id="paint51_linear" x1="69.0105" y1="56.18" x2="60.9522" y2="56.18" gradientUnits="userSpaceOnUse">
<stop stop-color="#30EEE5"/>
<stop offset="0.995" stop-color="#15C8D3"/>
</linearGradient>
<linearGradient id="paint52_linear" x1="64.9417" y1="40.3723" x2="20.0285" y2="40.3723" gradientUnits="userSpaceOnUse">
<stop stop-color="#30EEE5"/>
<stop offset="0.995" stop-color="#15C8D3"/>
</linearGradient>
<linearGradient id="paint53_linear" x1="62.0591" y1="40.3833" x2="54.0007" y2="40.3833" gradientUnits="userSpaceOnUse">
<stop stop-color="#30EEE5"/>
<stop offset="0.995" stop-color="#15C8D3"/>
</linearGradient>
<linearGradient id="paint54_linear" x1="65.0372" y1="40.3833" x2="56.9789" y2="40.3833" gradientUnits="userSpaceOnUse">
<stop stop-color="#30EEE5"/>
<stop offset="0.995" stop-color="#15C8D3"/>
</linearGradient>
<linearGradient id="paint55_linear" x1="60.9092" y1="40.3723" x2="41.356" y2="40.3723" gradientUnits="userSpaceOnUse">
<stop stop-color="#30EEE5"/>
<stop offset="0.995" stop-color="#15C8D3"/>
</linearGradient>
<linearGradient id="paint56_linear" x1="62.0591" y1="40.3833" x2="54.0007" y2="40.3833" gradientUnits="userSpaceOnUse">
<stop stop-color="#30EEE5"/>
<stop offset="0.995" stop-color="#15C8D3"/>
</linearGradient>
<linearGradient id="paint57_linear" x1="65.0372" y1="40.3833" x2="56.9789" y2="40.3833" gradientUnits="userSpaceOnUse">
<stop stop-color="#30EEE5"/>
<stop offset="0.995" stop-color="#15C8D3"/>
</linearGradient>
</defs>
</svg>
