<svg width="140" height="140" viewBox="0 0 140 140" fill="none" xmlns="http://www.w3.org/2000/svg">
<g clip-path="url(#clip0)">
<path d="M116.38 104.073L11.2101 116.791C9.52674 116.996 7.99638 115.788 7.82634 114.088L-0.981724 32.0443C-1.18577 30.0888 0.344587 28.3884 2.31705 28.3884H113.455C115.088 28.3884 116.414 29.7147 116.414 31.3471V104.073H116.38Z" fill="url(#paint0_linear)"/>
<path d="M117.299 104.072L12.129 116.791C10.4456 116.995 8.91521 115.788 8.74517 114.088L-0.0629004 31.1253C-0.266948 29.1699 1.26341 27.4695 3.23587 27.4695H114.374C116.006 27.4695 117.333 28.7958 117.333 30.4282V104.072H117.299Z" fill="url(#paint1_linear)"/>
<path d="M120.7 104.072L15.5298 116.791C13.8464 116.995 12.3161 115.788 12.146 114.088L3.33798 31.1253C3.13393 29.1699 4.66429 27.4695 6.63675 27.4695H117.775C119.407 27.4695 120.734 28.7958 120.734 30.4282V104.072H120.7Z" fill="url(#paint2_linear)"/>
<path d="M119.628 94.1592H49.6398C48.5856 94.1592 47.7184 93.292 47.7184 92.2378V9.92145C47.7184 8.8672 48.5856 8 49.6398 8H119.628C120.683 8 121.55 8.8672 121.55 9.92145V92.2378C121.55 93.309 120.683 94.1592 119.628 94.1592Z" fill="#6A7797"/>
<path d="M120.835 94.1592H50.8465C49.7923 94.1592 48.925 93.292 48.925 92.2378V9.92145C48.925 8.8672 49.7923 8 50.8465 8H120.835C121.889 8 122.756 8.8672 122.756 9.92145V92.2378C122.756 93.309 121.889 94.1592 120.835 94.1592Z" fill="url(#paint3_linear)"/>
<path d="M116.72 90.9795H56.4748C55.6076 90.9795 54.9104 90.2824 54.9104 89.4152V14.4616C54.9104 13.5944 55.6076 12.8972 56.4748 12.8972H116.72C117.587 12.8972 118.284 13.5944 118.284 14.4616V89.4152C118.284 90.2654 117.587 90.9795 116.72 90.9795Z" fill="url(#paint4_linear)"/>
<path d="M116.72 90.9795H56.4748C55.6076 90.9795 54.9104 90.2824 54.9104 89.4152V14.4616C54.9104 13.5944 55.6076 12.8972 56.4748 12.8972H116.72C117.587 12.8972 118.284 13.5944 118.284 14.4616V89.4152C118.284 90.2654 117.587 90.9795 116.72 90.9795Z" stroke="#717C98" stroke-width="4" stroke-miterlimit="10"/>
<path d="M116.72 90.9795H56.4748C55.6076 90.9795 54.9104 90.2824 54.9104 89.4152V14.4616C54.9104 13.5944 55.6076 12.8972 56.4748 12.8972H116.72C117.587 12.8972 118.284 13.5944 118.284 14.4616V89.4152C118.284 90.2654 117.587 90.9795 116.72 90.9795Z" stroke="url(#paint5_linear)" stroke-width="4" stroke-miterlimit="10"/>
<path opacity="0.57" d="M60.6821 19.0859H58.6821V52.1757H60.6821V19.0859Z" fill="#1EC4BF"/>
<path opacity="0.6" d="M56.4305 44.9666L56.0497 31.0574H58.7363L66.4051 39.4233L119.73 39.2873L113.914 56.6314L56.4305 44.9666Z" fill="#3C4768"/>
<path d="M116.862 90.6768H56.6164C55.7492 90.6768 55.052 89.9796 55.052 89.1124V14.1588C55.052 13.2916 55.7492 12.5945 56.6164 12.5945H116.862C117.729 12.5945 118.426 13.2916 118.426 14.1588V89.1124C118.426 89.9626 117.729 90.6768 116.862 90.6768Z" stroke="#717C98" stroke-width="4" stroke-miterlimit="10"/>
<path d="M116.862 90.6768H56.6164C55.7492 90.6768 55.052 89.9796 55.052 89.1124V14.1588C55.052 13.2916 55.7492 12.5945 56.6164 12.5945H116.862C117.729 12.5945 118.426 13.2916 118.426 14.1588V89.1124C118.426 89.9626 117.729 90.6768 116.862 90.6768Z" stroke="url(#paint6_linear)" stroke-width="4" stroke-miterlimit="10"/>
<path d="M120.461 106.402L12.9275 118.9C10.2749 119.206 7.99634 117.064 8.14938 114.394L12.4174 37.5876C12.5534 35.1731 12.8425 33.3536 15.257 33.5407L57.665 33.5237L65.1127 41.8216L123.691 42.1107C126.021 42.2977 127.772 43.25 127.636 45.5795L124.27 102.389C124.134 104.481 122.518 106.164 120.461 106.402Z" fill="url(#paint7_linear)"/>
<path d="M120.461 106.402L13.8464 118.9C11.1938 119.206 8.91529 117.064 9.06832 114.394L13.3363 36.6687C13.4724 34.2541 13.7614 32.4347 16.176 32.6217L58.5839 32.6047L66.0317 40.9027L123.692 41.1918C126.021 41.3788 127.772 42.331 127.636 44.6606L124.27 102.389C124.134 104.481 122.518 106.164 120.461 106.402Z" fill="url(#paint8_linear)"/>
<path d="M116.839 100.4L18.2668 111.112C17.6206 111.18 17.0595 110.67 17.0935 110.007L20.7154 44.0143C20.8174 42.0589 22.5178 40.5795 24.4732 40.7326L55.3015 40.7156L61.3379 47.4492L119.1 47.6872C120.988 47.8402 120.529 49.3706 120.597 51.3771L117.774 99.4304C117.74 99.9235 117.349 100.349 116.839 100.4Z" fill="url(#paint9_linear)" stroke="url(#paint10_linear)" stroke-width="10" stroke-miterlimit="10"/>
<path d="M116.839 100.4L18.2668 111.112C17.6206 111.18 17.0595 110.67 17.0935 110.007L20.7154 44.0143C20.8174 42.0589 22.5178 40.5795 24.4732 40.7326L55.3015 40.7156L61.3379 47.4492L119.1 47.6872C120.988 47.8402 120.529 49.3706 120.597 51.3771L117.774 99.4304C117.74 99.9235 117.349 100.349 116.839 100.4Z" fill="url(#paint11_linear)"/>
<path opacity="0.57" d="M113.064 20.7871H62.9532V23.6608H113.064V20.7871Z" fill="#4F5C81"/>
<path opacity="0.57" d="M96.043 26.8914H62.9532V29.765H96.043V26.8914Z" fill="#505D82"/>
<path d="M138.837 92.8601C138.837 115.502 120.415 133.99 97.7128 133.99C87.4012 133.99 77.9455 130.162 70.6907 123.85C62.0501 116.275 56.5886 105.199 56.5886 92.8601C56.5886 92.1678 56.5886 91.5163 56.6294 90.8647C56.6294 90.7018 56.6294 90.4982 56.6701 90.3353C56.7109 89.643 56.7517 88.91 56.8739 88.2177C57.037 86.9146 57.2407 85.6522 57.4853 84.3491C57.5668 83.9419 57.6891 83.494 57.7706 83.0867C57.8929 82.5573 58.0559 82.0279 58.1782 81.5393C58.7488 79.5439 59.4824 77.6299 60.2975 75.7974C60.6236 75.1052 60.9904 74.4129 61.3165 73.7206C61.3165 73.6799 61.3572 73.6391 61.398 73.5984C61.4387 73.517 61.4795 73.3948 61.561 73.3134C61.561 73.2726 61.6018 73.2726 61.6018 73.2319C62.2539 72.051 62.906 70.9515 63.6804 69.852C64.6993 68.3452 65.7998 66.92 67.0225 65.5761C67.3486 65.2096 67.6746 64.8431 68.0007 64.4766C68.4898 63.9472 69.0196 63.4178 69.5495 62.9292C70.1201 62.3998 70.7314 61.8704 71.3428 61.341C72.647 60.2415 74.0328 59.2234 75.5 58.2868C75.5815 58.2461 75.6631 58.2054 75.7446 58.1239C77.5786 56.943 79.535 55.9249 81.5321 55.0698C81.7359 54.9883 81.9397 54.9069 82.1027 54.8254C82.1435 54.8254 82.1842 54.7847 82.225 54.7847C83.4885 54.296 84.7927 53.8074 86.0969 53.4409C86.7083 53.2372 87.3196 53.0744 87.9718 52.9522C88.2163 52.8707 88.4609 52.83 88.7462 52.7486C91.2323 52.1785 93.8001 51.8527 96.49 51.7712C96.6938 51.7712 96.8976 51.7712 97.1422 51.7712C97.346 51.7712 97.5497 51.7712 97.7535 51.7712C108.799 51.7712 118.825 56.1285 126.202 63.2142C133.987 70.6664 138.837 81.2135 138.837 92.8601Z" fill="url(#paint12_radial)"/>
<path d="M80.3911 120.591V120.347L80.3096 120.062L80.3911 119.981V119.818L80.3096 119.696V119.492L80.1466 119.411L80.065 119.533V119.736L79.8613 119.981H79.8205L79.739 120.144L79.8205 120.225L79.6575 120.388V120.591L79.3722 120.877L79.2907 120.795L79.1276 120.958L79.0461 121.162L78.7608 121.284L78.557 121.528H78.2717L78.1902 121.447L78.1495 121.528H77.7826L77.6604 121.65L77.5789 121.569L77.4566 121.65H77.3751L77.4566 121.732L77.2528 121.935L77.049 122.18L77.212 122.383L77.0898 122.465L77.1305 122.505V122.709L77.212 123.035L77.2936 123.198V123.279V123.361V123.442L77.1713 123.809L77.0898 123.89L77.0082 124.175H76.9675L76.886 124.256V124.46L76.7229 124.623L76.6007 124.664V124.827L76.4376 124.989V125.315L76.6414 125.56L76.6007 125.641H76.6822V125.967L76.5599 126.048V126.374L76.6414 126.455L76.7229 126.537L76.8045 126.659L76.9267 126.618L77.0082 126.741L77.1713 126.903H77.3751L77.4566 126.863L77.5381 126.7L78.0272 126.659H78.1495L78.231 126.618L78.3125 126.537L78.394 126.415L78.4755 126.252V126.089L78.557 126.008L78.394 125.845L78.6385 125.682V125.397H78.8423V125.356L78.9238 124.989L79.0054 124.786V124.704L79.0869 124.419L79.2907 124.216L79.4537 123.686L79.5352 123.564V123.401L79.6167 123.198L79.6575 123.076L79.7797 122.872L79.8613 122.587L79.9428 122.343L79.9835 122.261L80.0243 122.18L79.9428 122.098V121.813L80.1466 121.65V121.569L80.2281 121.487L80.065 121.324L80.1466 121.243V120.714H80.5541L80.6357 120.795L80.3911 120.591ZM70.8947 124.012L70.9762 124.094V124.053C70.9354 124.053 70.8947 124.012 70.8947 124.012ZM70.9762 124.094L70.9354 124.216L71.0169 124.134L70.9762 124.094ZM81.3693 105.606L81.247 105.483L81.3285 105.28L81.2063 105.158L81.2878 105.076H81.0025L80.921 105.158L80.7579 105.239L80.5949 105.402L80.5134 105.321L80.3503 105.402L79.9428 105.483H79.7797L79.6982 105.402H79.6167L79.4537 105.483H79.2907L79.1276 105.565L79.0054 105.483H78.9646L78.5978 105.728L78.3532 105.809H78.2717H77.9049L77.7419 105.891H77.6196L77.5381 105.972L77.4566 106.054L77.212 106.135L76.9675 106.054L76.886 105.972H76.8045L76.7229 105.769L76.3561 105.361L76.2746 105.402H76.1523L75.6633 104.913H76.1931L76.2746 104.791H76.3561L76.3969 104.75V104.669L76.3561 104.628L76.1523 104.547H75.9893L75.8263 104.14L75.7448 104.058L75.6633 103.895H75.5817L75.4187 103.732L75.2964 103.651L75.1334 103.488L74.9296 103.284L74.7666 103.203L74.6851 103.122L74.6036 103.203L74.5221 103.122L74.4405 103.203L74.359 103.122L73.8699 102.918L73.7884 102.714L73.7477 102.633L73.6661 102.551V102.47H73.5846L73.4216 101.859L73.2178 101.248L72.7695 100.8H73.014V100.597L72.851 100.515L72.6472 100.434L72.4434 100.149L72.3619 99.7824L72.4027 99.5787L72.3619 99.3751L72.1989 98.8865V98.6421V98.5607L72.1174 98.4792L72.0359 98.3978V98.3163L71.9543 98.2349V98.1127H71.9136L71.669 97.9091L71.4653 97.8277V97.7462H71.343L71.0984 97.5426L70.8947 97.054L70.9762 96.9725L70.9354 96.9318V96.8503L70.8539 96.7689L70.7724 96.5653L70.5686 96.321L70.4056 96.2395L70.324 96.0359L69.9165 95.4251V95.2215L69.8757 95.14L69.835 94.9364L69.7534 94.8549V94.8142L69.5497 94.6106V94.3663L69.5904 94.2848L69.2644 93.9591L69.1828 93.7962L68.9383 93.4704V93.3482L68.816 93.1853V92.941L69.0606 92.6559L69.1013 92.6967L69.0198 92.4523L68.8975 92.3709L68.816 92.208H68.4085L68.2047 92.2894L68.1232 92.208L68.0416 92.2894L67.8786 92.3709L67.6748 92.5745H67.3488L67.145 92.4523H67.1857L67.0227 92.3709L66.9412 92.4523L66.6966 92.2487L66.5336 92.208L66.0445 92.1266H65.8815L65.6777 92.3302L65.5147 91.9229L65.4332 91.8415L65.3517 91.8822L64.8626 91.8008L64.8218 91.7601H64.7403V91.9229L64.3327 91.6786H64.2512L64.0474 91.6379L64.0067 91.6786L63.8029 91.5972L63.6806 91.6786L63.3545 91.7601L63.1508 91.8415L63.0692 91.9229L62.9877 92.0858L62.947 92.1266V92.3302L63.0285 92.4523L63.11 92.7781L63.0285 92.9817L62.7839 93.2261L62.5394 93.4297L62.2949 93.5111L61.8873 93.3075L61.6427 93.1039L61.4797 93.0224L61.2352 92.941L60.8276 92.7781H60.7461H60.3793L60.094 92.5745L59.8902 92.0858V91.9229L59.8494 91.8415L59.5641 91.8008L59.3603 91.6786H59.075L58.912 91.6379L58.5044 91.6786L58.0969 91.5972L57.9338 91.4343H57.8523H57.8115L57.6078 91.2307L57.567 91.1899L57.4855 91.2714L57.2817 91.0678H57.2409L56.9149 90.8642L56.8741 90.7827C56.8334 91.4343 56.8334 92.1266 56.8334 92.7781C56.8334 105.117 62.2949 116.234 70.9354 123.768V123.727L70.8539 123.523L70.9354 123.442L70.8947 123.401V123.076H71.18H71.2207H71.2615V122.994L71.7506 122.668H71.8321L71.8728 122.628V122.546L72.1174 122.383L72.1581 122.302L72.1989 122.261L72.4027 121.65L72.4434 121.772V121.61L72.7287 121.895L72.851 121.813H72.8918V121.61L73.2178 121.732L73.4216 121.61L73.4624 121.528H73.7069L73.9514 121.406V121.202H74.196V121.121L74.2368 121.039L74.033 120.836L74.2368 120.632L74.3998 120.469V120.347V120.266H74.359L74.196 120.103V119.899L73.9922 119.696H74.359V119.573L74.2775 119.37L74.359 119.288L74.3183 119.248V118.922L74.2368 118.596V118.392L74.3183 118.311L74.2368 118.23L74.3998 118.067V118.026L74.359 117.985L74.196 117.904L73.8699 117.578L73.9514 117.374V117.334L73.8292 117.212L73.9107 117.049L73.8699 116.967L73.5031 116.601H73.9922L73.9107 116.479L73.9922 116.397L73.9107 116.316V115.99L73.9922 115.786L74.0737 115.705L74.033 115.501L73.9514 115.42V115.175L74.1145 114.931L74.2775 114.483L73.9514 114.157H74.4813L74.6443 113.872L74.7258 113.709V113.547L74.9296 113.343V113.099L75.0519 112.976V112.895L75.2149 112.732H75.378H75.4595L75.6225 112.569H75.6633L76.1523 111.999V112.61L76.2339 112.488L76.3154 112.325L76.5192 112.121L76.6007 112.081L76.6414 111.999L76.7229 111.918L77.0898 111.51L77.212 111.429L77.6196 111.022L77.8234 110.859L78.0272 110.696L78.231 110.614L78.4755 110.411L79.0869 109.841L79.4129 109.474L79.4537 109.352L79.8613 108.823V108.741L80.065 108.415V108.253L80.4319 107.56V107.479V107.275L80.6764 107.031H80.7579L80.7987 106.99L80.921 106.705L81.1247 106.42V106.339H80.8802L81.3693 105.85H81.2878L81.3693 105.606ZM113.771 113.709L113.69 113.628L113.649 113.547L113.568 113.465L113.486 113.506L113.16 113.384V113.18L113.078 113.099L113.242 113.058L113.038 112.976V112.895V112.814V112.773L112.834 112.854V112.732H112.671L112.386 112.447V112.406L111.611 112.895L112.263 111.999H111.652L111.937 111.714H111.856L111.57 111.388V111.225L111.407 111.062L111.326 111.144L111.081 110.94V110.9L110.388 110.614H110.511L110.225 110.126V109.963H110.103L109.981 109.8L109.777 109.596H109.614L109.451 109.434H109.166V109.067H109.084L109.043 108.904H109.003L108.921 108.701H108.88L108.677 108.782L108.595 108.701H108.554L108.351 108.782L108.147 108.701L107.902 108.497L107.984 108.701L108.106 108.741L108.31 108.986H108.391L108.554 109.189L108.636 109.108L109.003 109.352L109.207 109.678L109.329 109.759H109.533V110.085V110.167H109.696L109.859 110.411H109.899H110.103V110.655H110.144L110.185 110.859V110.9L110.307 111.225V111.266H110.388L110.674 111.47V111.673L110.755 111.836L110.918 111.999L111 112.325L111.244 112.732L111.163 112.936L111.204 113.017L111.367 113.099L111.611 113.384L111.652 113.506L111.897 113.547V113.669L112.1 113.75V113.872H112.182L112.386 114.117L112.712 114.32V114.402H112.875L113.242 114.768H113.445L113.486 114.565L113.771 114.646L113.853 114.402L113.771 114.198L113.853 113.994L113.812 113.954L113.771 113.709ZM122.249 114.442L122.167 114.524V114.687L122.086 114.809V114.931H122.167V114.687L122.249 114.605V114.524V114.483V114.442ZM123.553 114.361V114.28H123.472L123.39 113.954H123.268L123.431 113.75L123.349 113.547L123.186 113.384L123.105 113.261L122.942 113.139V112.976L122.738 112.895L122.616 112.854L122.412 112.651L122.249 112.447L122.167 112.569H122.086L122.167 112.732L122.086 112.895V113.099L122.045 113.18V113.343L121.964 113.424V113.628L121.76 113.709V113.913H122.127V114.198L122.249 114.442L122.412 114.117L122.371 114.035L122.29 113.872V113.669L122.493 113.547L122.575 113.465L122.901 113.343L123.105 113.547L123.227 113.75V114.035L123.146 114.117L123.227 114.198L123.472 114.32V114.605L123.553 114.524H123.675L123.553 114.361ZM120.537 109.067H120.619V108.701L120.985 108.986V108.66L120.822 108.456H120.782H120.578V108.171L120.415 107.968L120.333 108.049H120.252V108.13H120.17L120.089 108.293V108.456L119.763 108.782L119.681 108.986H119.559H119.477L119.07 109.678V108.986L118.866 109.026V109.067V109.23L118.581 109.515L118.418 109.719V109.8L118.255 110.044L118.051 110.207L117.684 110.289L118.092 110.9L117.44 110.574V110.737L117.317 110.655V110.818L117.236 111.022V111.266L116.706 111.185L116.502 111.062H116.258L116.176 110.9L116.095 111.103L116.013 111.185V111.307V111.429V111.551L116.095 111.714L116.258 111.877H116.298L117.521 111.266L116.502 112.325L116.624 112.488L116.706 112.61V112.895L116.624 112.976L116.706 113.017V113.424L116.869 113.302L116.95 113.506H117.032L117.113 113.587L117.276 113.506H117.317L117.521 113.221L117.725 113.628V113.832L117.847 113.75L117.929 113.832L118.051 113.791L118.092 113.628H118.418L118.499 113.709H118.662L118.744 113.587L118.948 113.872L119.111 113.791L119.151 113.913H119.233L119.437 114.157L119.355 114.198L119.477 114.157H119.6L119.722 114.076L119.803 113.872V113.465L119.233 113.709L119.844 113.099L119.6 112.854H120.089L120.17 112.773L119.64 112.447H120.333V112.366L120.537 112.203V111.918L120.619 111.836V111.51H120.7L120.863 111.307L120.782 110.859L120.537 110.737L120.904 110.492L120.741 110.329V110.207L120.537 110.044L120.7 109.841L120.578 109.596L120.619 109.556L120.333 109.474L120.7 109.271L120.537 109.067ZM126.284 113.913H126.202H126.325H126.284ZM123.553 112.569H123.472L123.309 112.61L123.227 112.528L123.186 112.569L123.105 112.732H123.227L123.309 112.651L123.553 112.569ZM123.064 111.388L122.982 111.266L122.819 111.429H122.86H122.942L123.105 111.388H123.064ZM112.263 111.103L112.304 111.062V111.022L112.263 111.103ZM112.386 110.696L112.304 110.614V110.533L112.223 110.452L112.141 110.289L111.774 109.922L112.019 109.759V109.596L111.937 109.515V109.23L112.019 109.148V108.823V108.741L111.937 108.578L111.53 108.171H111.122V108.049L111.041 108.008L110.959 107.805V107.723H110.755L110.592 107.886L110.185 107.479L109.981 107.438V107.031L110.225 106.949L110.144 106.868V106.705H110.062L109.981 106.583L109.818 106.42V106.339L109.41 106.42L109.207 106.216L109.288 106.054L109.207 105.931V105.85L109.166 105.728L109.084 105.972L109.166 106.054L109.084 106.135H109.166V106.624L109.37 106.542V106.827L109.451 106.909V106.99L109.533 107.031L109.573 107.194H109.614L109.818 107.438L109.899 107.479L109.94 107.56H110.062V107.805L110.225 107.886L110.307 107.968L110.47 108.212L110.552 108.701L110.592 108.823L110.674 109.026L110.592 109.352L110.796 109.556L110.715 109.637L110.796 109.719L110.878 109.841L111.041 109.922L111.204 110.248L111.122 110.329L111.448 110.737L111.652 110.655L111.733 110.737H112.06L111.856 110.9L111.978 111.022L112.182 111.062L112.263 111.103V110.94L112.467 111.144V111.022L112.386 110.696ZM111.041 110.329L110.918 110.452L110.878 110.614H111.081L111.041 110.329ZM110.592 110.533L110.511 110.614H110.674L110.592 110.533ZM124.898 107.723V107.764L124.939 107.886H125.102L125.224 107.968L124.898 107.723ZM99.4655 107.357V107.275L99.3025 106.949V106.909H99.1395V106.827H98.6504L98.6096 107.031V107.153L98.6911 107.357L98.6504 107.438L98.7319 107.642L98.8134 107.968H98.9357L99.0172 107.927H99.3025L99.384 107.886L99.4655 107.805L99.547 107.642L99.4655 107.357ZM125.754 106.787L125.672 106.502L125.754 106.339L125.672 106.257V106.664L125.469 106.502L125.306 106.705L125.224 106.624V106.705L124.857 106.909L124.654 106.99L124.857 107.194L125.224 107.886L125.306 107.805L125.183 107.723L125.265 107.479L125.469 107.112L125.754 107.031V106.787ZM124.246 106.705V106.787L124.287 106.705H124.246ZM98.8542 106.542V106.298H98.7727V106.502H98.6504V106.705L98.8949 106.542H98.8542ZM71.8728 62.6028L71.7913 62.5621V62.6436L71.9951 62.6843L71.8728 62.6028ZM72.2804 61.7884V61.707L72.1989 61.6662L71.9951 61.4626V61.3405L71.7913 61.2997L71.6283 61.3405L71.7913 61.5848V61.6662L71.9543 61.8291L71.7913 61.992L71.8728 62.1956L71.7098 62.2363V62.44V62.4807L71.8321 62.5214V62.2363L71.9136 62.1549L71.8728 62.1142L72.1174 61.8698H72.2804V61.7884ZM127.425 75.7154L127.588 75.5526V75.5118L127.507 75.3897V75.2268H127.466L127.384 74.7381L127.303 74.6567V74.4531L127.181 74.3309L127.058 74.0458L127.099 74.0051H127.058L126.895 73.4757V73.3535L126.854 73.2721L126.773 72.9056L126.814 72.8649L126.732 72.6205L126.773 72.5391L126.691 72.4577L126.773 72.3762L126.691 72.2948L126.61 72.0912L126.528 72.0504L126.325 71.8468V71.5618L126.365 71.521L126.325 71.4396H126.162L125.836 71.1138L125.999 70.9509V70.8695V70.788H125.917L125.836 70.6659H125.754L125.672 70.5844L125.387 70.4623L125.346 70.4215L125.183 70.3401L125.061 70.2179L125.02 70.1365H124.817L124.776 70.0958L124.735 70.1365H124.654L124.735 70.2179H124.613V70.3808H124.531L124.45 70.5437V70.5844L124.368 70.6659L124.45 70.7473L124.368 70.9509L123.961 71.3582V71.1953L123.635 71.2767L123.553 71.1953V71.236L123.064 70.8288L123.146 70.6251V70.5437L122.982 70.3401V70.055L122.86 70.0958L122.697 70.2586H122.412L122.33 70.1772L122.249 70.2179L121.964 70.0958L121.841 69.8107L122.004 69.4442L122.086 69.322V69.1591L122.249 68.9963V68.7926L122.412 68.6705V68.4669L122.493 68.3854V68.3447L122.656 68.1411L122.738 67.9782L122.819 67.8968L122.738 67.7746L122.819 67.6931V67.5303L122.901 67.0416H122.982L123.023 66.838H123.064V66.7972L123.268 66.5529L123.349 66.39L123.431 66.3086L123.349 66.105L123.431 66.0235V65.9014L123.512 65.8199L123.472 65.7385V65.4941L123.39 65.2905L123.594 65.0055L123.716 64.8426V64.7611L123.553 64.5168L123.635 64.2725L123.757 64.1503L123.838 63.9874L124.042 63.8245L124.124 63.6209H124.45V63.6616L124.613 63.5395H124.776L124.939 63.4173H125.183L125.306 63.2951H125.509L125.591 63.0915L125.876 63.2137L126.162 63.0915L126.365 63.173C118.988 56.0873 108.962 51.73 97.9168 51.73C97.713 51.73 97.5092 51.73 97.3054 51.73L97.1424 51.8929H97.0201L96.3272 52.5852L96.6533 51.7707C94.0041 51.8521 91.4363 52.1779 88.9094 52.748L89.3577 52.8702H88.1758C87.5644 53.0331 86.9123 53.196 86.3009 53.3589L86.4232 53.5625V53.7254H86.4639L86.5455 53.9697L86.627 54.0104H86.7085L87.0345 54.0512L87.4421 53.6439V54.0919L87.5236 54.214L87.6052 54.2955L87.6867 54.3769H87.9312L88.135 54.4991H88.1758L88.4203 54.7434L88.5018 55.1507L88.5833 55.3543L88.5426 55.4357L88.7056 55.5172L88.9501 55.8837V56.0873L89.1132 56.2094L89.1947 56.4538L89.1132 56.6981H89.1539V56.7796L89.48 57.1053L89.5207 57.1461L89.5615 57.1053L89.7245 57.1868L89.8468 57.1053L90.4582 56.9424L90.2951 57.1461L90.3767 57.2275L90.4582 57.2682H90.7027L91.0695 58.3677L90.4174 57.7162H90.2544L90.0098 57.5126V57.7162V57.7569L90.4174 58.7749L89.5615 57.9198H89.3577L89.1132 57.6754V57.4718L88.9501 57.4311H88.7056L88.298 57.1868H87.972L87.8905 56.5759L87.972 56.4131L87.7682 56.2502V56.0058L87.6867 55.8022L87.8905 55.6393V55.4764L87.8089 55.3135L87.7274 55.2321L87.6052 55.3135L87.1976 55.395H86.953L86.7085 55.1507L86.5455 55.0692L86.5047 54.9878L86.2194 54.947L86.0156 54.7434L85.9341 54.662H85.4858L85.6896 54.7434L85.9341 55.1507L85.7303 55.5579L85.445 55.6393L85.0782 55.4764L84.9967 55.4357L84.9559 55.3135H84.9152L84.8337 55.395L84.7929 55.4357H84.8744L84.9559 55.6393L85.0374 55.7208H85.2412L85.4043 55.8837H85.5673L85.608 55.8429H85.8526L85.9341 55.9651H86.1379L86.2194 56.2094L86.2602 56.2502V56.3316H86.3417L87.3199 55.9244L86.4639 56.7796L86.6677 57.2682L86.1786 56.7796H86.0156L85.6488 56.5352H85.445L85.1597 56.8203L85.0782 56.5352H84.9967H84.6706L84.5484 56.4538L84.3446 56.5352L84.1408 56.0465L84.2631 56.0058L84.1815 55.9244V55.8837L84.0593 55.7208L83.9778 55.5172L83.774 55.7208L83.8147 55.7615L83.8555 56.2502L83.774 56.4945L83.937 56.5759L84.2631 56.861V56.9424H84.3446L84.5484 57.1461L84.7521 57.4718L84.7114 57.9605V58.0419L84.8337 58.2456L84.7521 58.5306V58.5713L84.9559 58.7749L85.0374 58.9786L85.119 58.9378L85.282 58.9786V58.9378L85.5265 58.6935L85.7303 58.7749L85.8933 58.6935L86.0971 58.8157L86.3009 58.7342L86.3824 58.9786L86.5455 59.06H86.8308L87.0753 59.3451V59.3858L87.1976 59.4672L87.2791 59.6301L87.3606 59.7116L87.4014 59.793L87.9312 59.9966L87.3606 60.241L87.4421 60.3224L87.6052 60.4853L87.5644 60.5667V60.6482L87.7682 60.3631L87.8497 60.6075H87.9312L88.2165 60.8925L87.972 61.0961L87.7682 61.1776L87.6052 61.259L87.3606 61.3405L87.1568 61.1776H86.9938L86.6677 60.8518L86.7492 60.7703V60.6889L86.6677 60.6075L86.4232 60.526L86.5047 60.3224H86.4232L86.3417 60.1188L86.0971 59.9559V59.793L85.9749 59.9152L85.8118 59.9966L85.7303 60.0781L85.6488 60.1595L85.6896 60.3631V60.4038L85.9341 60.526L86.1379 61.1368L86.0564 61.3405L85.8933 61.5441V61.6255L86.0564 61.8291L85.8933 62.1956V62.3585L85.7303 62.5214V62.725L85.5265 62.8065V63.0101L85.2412 63.2544L84.8744 63.173L84.8337 63.1322H84.7521L84.5076 63.2137L84.3038 63.0915L83.8147 63.0101L83.6517 62.8472L83.5702 63.0508L83.3664 62.8472H82.9588L83.4479 62.2771H83.6924L83.937 62.2363L84.0593 62.1142L84.4261 62.3178L84.4668 62.2771H84.7929V62.0735L84.9967 62.1549V62.0327L84.7521 61.7884L85.0374 61.6662V61.5848L84.9559 61.5033L85.0374 61.2997V61.2183L85.119 61.1368L84.9967 61.0147L84.9152 60.6889L84.9967 60.4853V60.2817L84.8337 60.2002L84.7929 60.0781L84.5891 60.0373L84.3038 59.6301L84.2631 59.4265L84.1815 59.3451V59.2636H84.1L84.0185 58.9786L84.0593 58.8157L83.8962 58.5713V58.4492L83.7332 58.2863V58.1641L83.6517 58.0827L83.5702 57.6754V57.594L83.4072 57.4311V57.3089L83.2034 57.3904V57.1868L83.1218 57.1461L83.0811 56.861L82.9588 56.7388L82.8365 56.4538L82.9588 56.3316L82.8773 56.128L82.9588 56.0465V55.9651L83.0403 55.6393L82.9996 55.4764V55.3135L82.9181 55.2321V55.0285L82.8365 54.8249L82.5512 54.7027H82.5105L82.429 54.7842C82.2252 54.8656 82.0214 54.947 81.8584 55.0285L81.6953 55.1914V55.2728L81.7361 55.3135V55.5172L81.7769 55.6393L81.8584 56.128V56.2094L82.0214 56.3723L81.8584 56.5759V56.6574L81.9399 56.861L81.6953 57.1053L81.4916 57.3904L81.5731 57.6347L81.4916 57.7162L81.6138 57.8383L81.6953 57.9605H81.8584L82.755 58.8564L82.0214 58.5713V58.8564L81.8584 58.9786L81.8991 59.06L82.0622 59.1414V59.1822L82.1437 59.2229H82.3475L82.3882 59.2636L82.5105 59.1007L82.755 59.3451V59.5487H82.8365L83.1218 59.8745L83.2034 59.8337H83.2441L83.3256 59.9152H83.8555L83.4479 60.3224V60.6075L83.5294 60.7296L83.4479 60.8111V61.2183L82.9588 61.0147L82.7958 60.6889L82.7143 60.6075H82.4697L82.3882 60.4038L82.3475 60.3631L82.0622 60.3224L81.7361 60.1188L81.4508 60.0373L81.41 59.9559H81.2063L81.1247 59.8745L80.8394 60.1595L80.6357 59.7116L80.3911 59.6301L80.2281 59.5487L79.8205 59.4672L79.3314 59.5487L79.2499 59.5079L79.1276 59.5894L79.0461 59.5487L78.9646 59.5894V59.6301V59.9152H79.0054V59.9966H79.1276L79.3314 60.3224V60.3631H79.3722L80.1466 61.1368L79.2499 60.8518V60.9332L79.0869 61.0147L79.1684 61.0961L79.0869 61.0554V61.2183L78.9238 61.3812H78.394L78.231 61.0554L78.3125 60.9332L78.231 60.7296L78.3125 60.6482H78.231L78.1087 60.7296L78.0679 60.7703V61.0147H77.6604V61.0554L77.3751 61.1776H77.0082H76.9675L76.886 61.259L76.8045 61.1776L76.7229 61.259L76.8045 61.2997L76.6822 61.4219L76.7637 61.5033L76.4784 61.7884L76.2339 61.707L75.8263 62.725V61.8698L75.7855 61.9106L75.4595 61.7477L75.4187 61.6662L75.0111 61.9106L74.7258 61.6255L74.7666 61.5848V61.4219L74.5221 61.5033H74.4813L74.2775 61.7884L74.196 61.8291L73.9514 62.1142L74.1145 62.5214L73.5031 62.44H73.3401V62.6436L74.2368 62.4807L73.2178 63.0915L73.1363 63.173H73.014L72.8102 63.3766L72.7287 63.2137H72.4434L72.1581 62.8065L71.9543 62.6436H71.9136L72.1174 62.8472L72.0766 62.9693L72.1581 63.0508L72.0766 63.0915L71.9951 63.2951V63.6209V63.6616L72.1989 64.5575L71.5875 63.9467L71.3837 63.8652L70.7316 64.5168L71.0577 63.7023L70.8947 63.7431L70.7724 63.6209V63.8652L70.0795 64.3539L70.3648 63.6616L70.4056 63.5395V63.3766L70.2018 63.173L70.161 63.0508L70.0795 62.9693L70.0387 62.9286V63.0508L69.7534 62.8472C69.2236 63.3359 68.6938 63.8652 68.2047 64.3946H68.2454L68.3269 64.4354L68.5307 64.3539L68.7345 64.5575L68.8975 64.5982L69.1828 64.639L69.3866 64.5982L69.4681 64.5168H69.6719L69.7534 64.4761L70.0795 64.3946V64.6797V64.7611L70.324 65.0055L70.5686 65.4127L70.2833 65.6977L70.0387 65.8606L69.8757 66.2679L69.5497 65.9014L69.3866 65.8199V65.9421L69.4681 65.9828V66.5529L69.3051 66.7158H69.1828L69.0606 66.838H68.816L68.6938 66.7158H68.5307L68.4492 66.6344H68.2454L68.0824 66.4715V66.39H68.0416L68.0009 66.5122L67.5933 66.2679L67.1857 66.39L67.3895 65.9014L67.3488 65.8199V65.7385L67.1857 65.6163V65.5349C66.0038 66.8787 64.8626 68.304 63.8436 69.8107V69.8514L64.0474 70.055L64.2512 69.9736H64.292L64.5365 69.7293L64.6995 69.8921L64.7811 69.8107H64.7403C64.7403 69.77 64.7811 69.7293 64.7811 69.7293L64.9441 69.5256L65.1886 69.8107V69.8921L65.2294 69.9736H65.5147L65.8 70.2586L65.637 70.6659L65.4332 70.5844V70.6251L65.3517 70.7066L65.4739 70.788L65.1886 70.9102V71.1953L64.9848 70.9917L64.9441 71.0731V71.2767H64.0882L63.9251 71.1953H63.7214L63.6398 71.1545L63.4361 71.1953L63.1915 71.2767L63.11 71.1953L62.947 71.2767L62.8655 71.4803H62.947L62.7839 71.8875L62.9877 71.6839L63.1915 72.1726L63.11 72.5391V72.7834L63.1915 73.0685L63.11 73.3128L62.9062 73.72H62.5802L62.3764 73.5164L62.2949 73.3535L62.0911 73.1092L62.0096 73.1499L61.928 73.2314H61.765H61.7243H61.6835V73.72L61.5205 73.5572L61.439 73.6386V73.9237L61.3574 73.9644V74.0458L61.439 74.1273V74.4123V74.4531L61.5612 74.4123L61.765 74.6974H61.8058L62.0911 74.6159L62.2541 74.7788L62.3356 74.901L62.4986 75.0639L62.4171 75.2675L62.4986 75.634L61.602 75.7154L60.9906 75.6747L60.7461 75.8783L60.4608 75.9598L60.3793 75.8783C59.5234 77.7108 58.8305 79.6655 58.2599 81.6202L58.6675 81.7831V82.0274L58.912 81.7831H59.2381L59.3196 81.9867L59.4826 82.1903L59.5641 82.3532L59.6456 82.4346L59.7271 82.5161H59.8087L60.5015 83.2084H60.583L60.7868 83.2898L61.2759 83.7785L61.3574 83.697L61.602 83.9821L61.765 84.0635L62.0503 84.3893L62.0911 84.4708L62.1726 84.5115L62.4579 84.7558L62.3356 85.0409H62.1318L62.0911 85.2445L62.1726 85.4481L62.1318 85.5703L62.1726 85.6924H62.2949L62.4579 86.0182L62.6617 86.0996V86.3033L62.8247 86.3847L62.9062 86.4661H63.0692V86.6698L63.1508 86.8326H63.2323L63.3138 86.7919L63.11 86.6698L63.3545 86.4254L63.0285 86.0996L63.1508 85.9775L63.11 85.7739L63.1915 85.4888L63.5991 85.3259L63.6806 85.5295L63.8436 85.3666L64.0067 85.4481L64.0474 85.3259L64.3735 85.163L64.5365 85.3259V85.163H64.9441L65.0256 85.2852H65.1479L65.4332 85.3666V85.4481L65.5147 85.3666L65.6777 85.5295L66.0038 85.2445V85.2852L66.2076 85.2038H66.3706L66.4521 85.1223L66.2483 84.9187L66.1668 84.7151L66.0853 84.6336L65.6777 84.145H65.963L66.0853 84.0635H66.126L66.0445 83.7378L66.3298 83.4934H66.3706V83.412V83.1269L66.2891 82.964L66.3706 82.8011V82.7197L66.2891 82.5161L66.4113 82.3939L66.4929 82.1903H66.7782H66.8189V82.1496L66.6966 82.0274L66.8597 81.8645V81.1722H67.308V80.9686L67.5933 80.8872H67.6748L67.8786 80.6836L68.0416 80.8465L68.2047 80.6836L68.4085 80.8872H68.49L68.5715 81.1722L68.653 81.213L68.7345 81.1722L68.8975 81.2537L68.9791 81.0501L69.1013 81.1722L69.2236 81.0501L69.3459 81.1315L69.4274 81.0501L69.6312 81.1315L69.7534 81.0908L69.8757 80.9279L69.7534 80.5614H70.4463L70.4871 80.6428H70.5686L70.7316 80.7243L70.8131 80.6428H70.9762L71.0169 80.6021L71.0984 80.3985H71.2615V80.3578L71.4245 80.1949H71.6283L71.7506 80.1135H72.0359H72.0766L72.1581 80.032L72.4842 79.9506L72.7287 80.1949L72.6065 80.5207L72.3212 80.6428L72.1174 80.9686L72.2396 81.0093V81.2537L71.9136 81.5795L71.9951 81.6609L71.8321 82.1496L71.669 82.0681L71.7506 82.1496V82.2717L71.9543 82.231L72.2396 82.3939L72.4027 82.4754L72.8102 82.8011L72.851 82.8826L72.9325 82.9233L73.014 83.0047H73.0955H73.2993L73.3808 83.0862H73.4624H73.5439L73.7069 83.2491H73.7477L73.8292 83.1676L74.196 83.4527H74.2775L74.4813 83.7378L74.5628 83.9006L74.6036 84.1042L74.8074 84.3893L74.5221 84.5115L74.6036 84.6336L74.4405 84.7965L74.359 84.9594L74.1552 85.163L73.9922 85.2445L73.9107 85.4481H73.7069V85.4888L73.2993 85.4074L73.2586 85.3666H72.7695H72.7287H72.4842L72.1989 85.5295L71.8728 85.4481L71.5468 85.2445L71.3837 85.163L71.2615 85.0816L71.18 85.163L70.8947 85.0409L70.6909 84.8373V84.7965L70.5278 84.9594L70.4463 84.878L70.3648 84.9594L69.9572 84.5522H69.6719L69.6312 84.5115L69.5497 84.5522H69.2236L69.1828 84.6336L68.8568 84.7965H68.6938H68.6122L68.5715 84.878L68.4085 84.9594L68.2862 85.0816L68.2047 85.2038V85.3666H67.7563L67.471 85.2852L67.1857 85.5703H67.1042L67.1857 85.6517L66.6966 85.8553H66.3706L66.2891 85.8146L66.0445 85.896L65.963 85.6924L65.8815 85.896V85.9368L65.9223 85.9775H65.963H66.5744L66.1668 86.3847L66.2076 86.4661L66.4113 86.3847V86.7919H67.2672L66.2483 87.1992V87.2806L66.3298 87.2399L66.6151 87.362L66.7782 87.6878L66.6966 87.7693L66.8189 87.8914L66.9004 87.81V87.9729H67.308L67.1857 88.095H67.5933V88.3801L67.6748 88.4208L67.7563 88.3394H67.8379L67.9194 88.2579H67.9601L67.8786 88.0543L68.3677 87.9321L68.6122 88.0136L68.8975 88.1358H69.1013L69.3459 88.4208L69.4274 88.5023L69.9165 88.4615L70.0795 88.3801H70.1203V88.3394L70.4871 87.9321H70.6909L70.9354 88.095L71.18 87.8507L71.5875 88.0136V88.2987L71.3837 88.5023L71.5468 88.6652L71.3837 88.828L71.506 89.0317L71.5875 89.276L71.506 89.4389V89.6832L71.4245 89.9275L71.343 90.4162L71.0984 90.7013V90.8234L70.8947 91.027L70.8539 91.4343L70.6501 91.8008L70.4871 92.0044L70.4056 92.208L70.1203 92.2894L69.7127 92.208L69.3866 92.2894V92.9003L69.4681 92.9817V93.0224L69.6719 93.2261V93.4297L69.835 93.5111L69.9165 93.7147L70.1203 93.9183L70.2018 93.7554V93.5926L70.3648 93.1853L70.4463 93.1039L70.8539 92.0451V93.1446L70.7724 93.2668V93.674L71.2615 93.8776L71.0984 94.0405L71.3022 94.2441L71.343 94.3663L71.4245 94.4477L71.506 94.5699L71.7098 95.0586V95.2622L71.8321 95.3436L71.9136 95.5065L72.0766 95.588L72.1989 95.873L72.3619 95.9545L72.4842 96.321L72.7287 96.5653L72.9325 96.7282L73.0955 96.9318V96.9725H73.2993L73.3808 97.1761L73.4624 97.2576L73.5439 97.4612L73.6661 97.5833L73.7069 97.6648L73.7884 97.7462L73.7069 98.1127L73.7884 98.3163L73.8292 98.52L74.2775 98.9679H74.359H74.5628L74.6443 99.1308L74.8889 99.3344V99.4159L75.0927 99.4973L75.0111 99.7009L75.1334 100.108L75.2964 100.19V100.393L75.6225 100.719H75.7855L75.867 101.045L76.0708 101.085L76.2339 101.493L76.3154 101.656L76.3969 102.022V102.389H76.3154L76.3969 102.511L76.4376 103.04L76.6007 103.203V103.61L76.7229 103.732V103.814L76.9267 103.895L77.0898 103.732H77.3751L77.4973 103.57V103.488L77.7419 103.244H78.0272L78.1087 103.325H78.2717L78.3532 103.407L78.557 103.325L78.7201 103.284L79.0461 103.04H79.3722L79.5352 102.877L79.6167 102.959L79.7797 102.714L79.9835 102.633H80.065L80.6357 102.429L80.7172 102.348L81.1247 102.266L81.3285 102.185L81.4916 102.022H81.6138L81.6953 101.778L81.9399 101.493L82.2252 101.411H82.3067L82.4697 101.248L82.5512 101.33V101.248H82.6735L82.8773 101.126H83.0403L83.2034 101.045L83.2849 101.085V100.8L83.4887 100.597H83.5702L83.774 100.515V100.393L84.0593 100.027L84.3446 99.9045L84.3853 99.9452H84.5076V99.8638H84.3446L84.5076 99.4973L84.3446 99.3344H84.5484L84.8744 98.4792V99.1715L84.9559 99.0901L85.0374 99.1715L85.0782 99.0901L85.2412 98.9272L85.445 98.6421V98.5607V98.4792V98.3978H85.4043L85.119 98.1942L85.0374 98.0313L84.8744 97.8684L84.7929 97.6648L84.7114 97.5426H84.1L83.937 97.6241L83.6109 97.5426L83.5294 97.6241L83.2441 97.5019L82.8773 97.1761L82.7958 97.0947L82.5512 96.8096L82.4697 96.4024L82.3882 96.321L82.0622 96.6467L82.2252 96.8096L81.8176 97.2168V97.2983H81.6546L81.4508 97.3797H81.2063L81.1247 97.2983H81.0432L80.8802 97.2576L80.6357 97.4612L80.4319 97.3797H80.3503L80.0243 97.5019L79.9428 97.1761H79.8613L79.7797 96.9725H79.8205V96.8096L79.6575 96.9725L79.3722 96.6875L79.2907 96.5246L78.9646 96.1581L78.6793 95.4658L78.5978 95.3843L78.3532 95.14L78.1495 95.0586L77.9864 94.6513L77.9457 94.5699L77.8642 94.4884L77.4158 94.0405H77.5789L77.0898 93.7147L77.7011 93.6333V93.5518V93.3889V93.3075L77.0898 93.0632H77.8234L78.1902 92.6967V93.0224H78.2717L78.3532 93.1039L78.5163 92.941L78.5978 93.1039L78.7201 92.9817L78.9238 93.1853L79.1276 93.3889V93.4704L79.3314 93.7147L79.3722 93.7962H79.4129L79.4944 93.9183H79.9835L80.0243 93.9591L80.1466 93.8369L80.3096 94.2441L80.4319 94.5699L80.6357 94.5292L80.8802 94.6106H81.084L81.1655 94.6921H81.2878L81.5323 94.9364L81.4916 94.9771L81.6546 95.0586H81.8176L81.9806 95.14L82.1437 95.0586L82.429 95.14L82.592 95.2215L82.6735 95.14L82.9588 94.9364H83.0811L83.2034 94.8549L83.4072 94.7735L83.8147 94.8549H83.8962V94.9364L83.9778 95.0993L84.0593 95.3029L84.2223 95.5472V95.6287H84.6706L84.7114 95.6694L84.7521 95.6287H84.9559L85.119 95.7508L85.4043 95.7101L85.5673 95.7916H85.8933H85.9341L86.0156 95.7101L86.0971 95.7508L86.0564 95.6694H86.3824L86.4639 95.873H86.5047L86.627 95.9137L86.7085 95.8323H87.0753V95.9137H87.1568L87.2791 95.8323H87.5644V95.7508L87.7682 95.5472L87.8497 95.588H88.135L88.2165 95.6694H88.3388L88.3795 95.7101L88.4611 95.6287H88.7871L88.8686 95.6694L88.9501 95.6287H89.0317L89.1947 95.4658L89.3577 95.6287H89.3985L89.48 95.588H89.7653L89.9691 95.7916L90.0506 95.9952H90.2544L90.5397 95.9137V96.2395L90.6212 96.321L90.7027 96.5246L90.7842 96.606L90.825 96.6875H90.988L91.1918 96.8096L91.3141 96.7282L91.5179 96.6467L91.6809 97.0132L91.5994 97.054L91.5586 97.0947L91.6809 97.2576L92.0477 97.3797L92.2515 97.2576V97.0947H92.8628L92.6591 97.5833H91.9662L91.8439 97.7462H92.0069L91.9254 97.8277V97.9091V98.1127L92.0885 98.2756L92.5368 98.6014H92.6183H92.6998L93.0259 98.3978L93.1074 98.3163L93.2297 98.1127V98.072L93.0666 97.9091L93.2704 97.5833V96.4024L93.6372 97.2983H93.7188L93.8003 97.3797L94.6969 97.0132L93.841 97.8684L94.9415 98.3163H93.7595V98.3978L93.8003 98.4385L93.8818 98.6421V98.8457L93.841 98.9272L94.2894 99.1308L93.8818 99.3344L94.0448 99.7009V99.8638L94.1263 100.067L94.0448 100.149L94.3709 100.638H94.1671V100.719L94.3709 101.208V101.533L94.4524 101.696L94.6154 101.778L94.6969 101.981L94.7784 102.063V102.144V102.226H94.86V102.348L94.9007 102.389H95.0637V102.755L95.1453 102.959L95.186 103.122L95.3083 103.407L95.3898 103.57L95.4306 103.773L95.4713 103.814L95.5528 103.977L95.6343 104.058H95.7159L95.9196 104.303L96.1234 104.547L96.2049 104.75H96.2865V105.036L96.4087 105.239L96.4902 105.524V105.728L96.694 106.094L96.8163 106.216L96.9793 106.054L97.0609 105.85L97.3461 105.646H97.4277L97.5092 105.565L97.5499 105.483L97.713 105.158L97.9983 105.076L97.9575 104.71L97.876 104.547V104.099L98.039 103.814L98.1205 103.488V103.284L97.9575 103.203V102.592L97.876 102.348L97.9983 102.226L97.9168 101.981L97.9983 101.778L98.2836 101.493H98.5689V101.411L98.8134 101.167L99.0987 101.248L99.1802 101.167L99.1395 101.085L99.221 100.841L99.4248 100.638L99.6286 100.597L99.7101 100.515L99.7916 100.352L100.362 99.9045L100.484 99.6602L100.566 99.5787L100.729 99.1308H100.974L101.096 99.0494H101.3L101.381 99.1308H101.463L101.544 99.0494L101.34 98.8457H101.748V98.805L101.789 98.7643V98.8865V98.805L101.666 98.6829L101.829 98.2756L101.952 98.1535L102.319 98.0313L102.359 97.9906V97.8684V97.5426H102.726L102.93 97.6241V97.4612L103.256 97.787H103.378L103.582 97.5833L103.541 97.5019H103.704L104.193 97.0132L104.601 96.9318L104.642 97.0132L104.682 97.054H104.764L104.846 97.1354L104.927 97.1761H105.009L105.09 97.1354L105.049 97.1761H105.212L105.416 97.6648L105.498 97.7462V97.787L105.579 97.7055V98.3163L105.661 98.3978L105.742 98.52H105.824V98.5607L106.027 98.6421V98.4792L106.19 98.6421H106.72L105.905 98.8865H105.946L105.987 98.9272L106.15 99.0086L106.354 99.253V99.538L106.435 99.6195V99.8231L106.517 100.027V100.108L106.843 100.23L106.72 100.352V100.638L106.802 100.8L106.965 100.312V101.004L107.006 101.045L106.965 101.085V101.574L107.046 101.737H107.128L107.25 101.656L107.332 101.411L107.25 101.248H107.658V101.126L107.046 100.515L108.228 101.004V101.085L108.31 101.167L108.432 101.371L108.473 101.411L108.799 101.085V101.656V101.696V101.9L108.84 101.941L108.88 102.266V102.551L109.288 102.959H108.228V103.04L108.473 103.284L108.554 103.407L108.636 103.488L108.717 103.855L108.758 103.895L108.88 104.18L108.799 104.262V104.303V104.384L109.084 104.669L109.003 104.75L109.084 104.913L108.921 105.076V105.28H109.166V105.117L109.329 104.954L109.41 104.506L109.573 104.343L109.655 104.221L109.777 104.099L109.696 104.017L109.859 103.855V103.773V103.692L109.533 103.57L109.736 103.366V102.877L110.022 103.162L110.103 103.081L110.225 103.203L110.388 103.122L110.47 103.203H110.552L110.755 103.284L110.959 103.488L110.796 103.651V103.692L110.878 103.814L111.122 103.895L111.285 104.058L111.367 104.099L111.733 104.465H111.937L112.141 104.75V104.832L112.304 105.239L112.63 104.913V105.239H113.486V105.158H113.812H113.853L114.179 104.832V105.198L114.26 105.28L114.464 105.198L114.546 105.117V105.036L114.872 104.913L114.994 104.791L115.035 104.669L115.116 104.465L115.035 104.221L115.157 104.18V104.14V103.895L115.239 103.814V103.773L115.157 103.692V103.488L115.076 103.284L115.157 103.203L115.076 103.081L115.157 102.999L115.076 102.796L114.994 102.714L114.913 102.511L114.709 102.307L114.79 102.226L114.668 102.104V102.063L114.586 101.859L114.505 101.778L114.22 101.574L114.179 101.452L113.934 101.289L113.486 101.085V101.9L113.078 100.963L112.875 100.76L112.752 100.678L112.182 100.475L112.467 100.352L112.549 100.149V99.8231L112.63 99.7416L112.712 99.6195L112.915 99.4159L112.997 99.4973V99.2937L112.834 99.1308L112.997 98.9679V98.805H113.242L113.405 98.6421L113.608 98.5607H113.731L113.527 98.3571H114.016L114.179 98.1942L114.22 98.2349L114.423 97.7462L114.627 98.2349L114.668 98.1942L114.79 98.3163L114.872 98.1535L115.116 98.2349L115.32 98.1535L115.524 98.3571V98.4792L115.605 98.3978L115.361 98.1535H115.85L116.176 97.8277V98.0313H116.706L116.869 97.9498L116.95 97.9906L117.032 97.9498L117.113 97.8684V97.787V97.2983L117.399 97.5833L117.317 97.4612V96.9725L117.766 97.1761L117.929 97.339L118.051 97.2983L118.214 97.1354L118.336 97.2576V97.2168H118.621H118.703L118.907 97.0132L118.581 96.1173L119.192 96.7282L119.396 96.6467V96.5653H119.477L119.559 96.4431H119.64L119.151 95.9545H119.559L119.926 95.0586L120.048 95.0178L119.966 94.9364H119.64L119.803 94.7735L119.681 94.6513H119.885L120.129 94.407V94.3663H120.293L120.537 93.7554L120.619 93.9183V93.8369L120.7 93.674L120.659 93.6333L120.782 93.5111H120.578V93.1853L120.782 92.9817V92.8188L120.659 92.6967L120.782 92.6559V92.4931L120.7 92.5745L120.415 92.4523L120.333 92.3709L120.293 92.4116L119.885 93.4704V92.5745L119.396 92.7781L119.885 92.2894V92.2487L120.089 92.0451L119.803 91.6786L120.415 91.9229L120.578 91.7601H120.619L120.7 91.6379H120.741L120.7 91.5564L120.415 91.3528L120.211 91.1899L120.048 91.027L119.885 91.1085L119.64 91.027L119.437 90.8642H119.396L119.233 90.7827L118.01 92.4116L118.907 90.3755L119.233 90.2533L119.437 90.3348L119.722 90.2533L119.763 90.3348L120.129 90.4162L119.926 90.1312V89.9683L119.722 89.8054V89.6832L119.518 89.6018L119.6 89.3982L119.477 89.1538L119.274 89.0724L118.948 89.1945V88.9095L118.621 88.7873V88.2987L118.662 88.1358L118.581 87.9729L118.785 87.4435L118.988 87.6471L119.029 87.6064L118.948 87.5249L119.274 87.1992H119.314V87.1177H119.396L119.192 86.9141L119.681 86.7105L119.763 86.7512H119.885L119.926 86.7105H119.437L119.233 86.5069L119.192 86.4254L119.111 86.4661V86.5476L119.029 86.629L118.907 86.9141L118.703 87.1177L118.499 87.0363L118.418 87.077H118.092L117.888 86.5883V86.8734L117.725 86.6698L117.643 86.7512V86.5476L117.44 86.3033L117.399 86.2625L117.236 86.1811L116.991 86.0996V85.896L116.91 85.6924L116.991 85.611V85.5295L117.073 85.4481V85.3259L117.154 85.2445V84.9594L117.643 85.0409L117.44 84.8373H117.643L117.766 84.7151L117.847 84.3486L118.173 84.145H118.255L118.336 84.0635V83.8599L118.499 83.697H118.458L118.54 83.6156L118.621 83.412H118.948L119.07 83.0862L119.396 83.5749L119.763 83.8192V84.145L119.6 84.3079L119.518 84.3893V84.5522L120.048 84.0228L119.885 84.3486H120.089L120.333 84.145L120.456 84.2264H120.496L120.782 83.8192L120.945 84.1857H121.026L121.271 84.2671H121.311L121.393 84.1857H121.801L121.638 84.5929L121.678 84.6744L121.515 84.9187V85.0409H121.556L122.167 84.7965H122.127L122.004 84.3893L122.045 84.3486V84.3079V84.1042L122.249 83.9414L122.33 83.7785L122.575 83.697H122.656H122.697V83.6156L122.942 83.3712L122.86 83.2898L123.064 83.1269V82.7604L122.942 82.6382V82.3125L123.023 81.9867V81.6609H123.186L123.39 81.4573H123.431L123.472 81.3351L123.675 81.2537V81.1722L123.716 81.1315V80.9279L123.838 80.8057V80.6836L124.042 80.48L124.246 80.5614L124.45 80.48L124.654 80.6836V80.8465H124.735L124.776 80.9279L124.857 80.8465L124.939 80.9279L125.102 80.8465L125.183 80.765H125.306L125.387 80.6836L125.469 80.6021L125.306 80.4392L125.591 80.3171L125.387 79.7877L125.754 79.9506V79.8691L125.836 79.7877V79.5841L125.958 79.5026V79.4212L126.08 79.3397L126.162 79.0547L126.202 79.014L126.325 78.5253L126.406 78.3624V78.1995L126.569 78.0366H126.651L126.732 77.9145L126.651 77.5887L126.814 77.4258L126.732 77.1407L126.895 76.9778V76.7335H127.425L127.466 76.6521V76.4484L127.588 76.3263L127.507 76.0412L127.588 75.8376V75.634H127.425V75.7154ZM63.1915 70.2586L63.2323 70.2179V70.1365C63.2323 70.1772 63.2323 70.2179 63.1915 70.2586ZM113.16 105.687L113.201 105.646L113.038 105.606L113.201 105.769V105.85L113.282 105.809L113.405 105.85H113.486L113.16 105.687ZM109.084 105.443V105.646H109.166V105.565L109.084 105.443ZM123.635 104.791H123.553V104.954H123.594V104.913L123.675 104.832L123.635 104.791ZM125.102 104.18V104.262L125.183 104.343L125.265 104.425V104.384L125.102 104.18ZM122.575 102.959H122.656L122.697 102.918L122.738 102.959V102.755L122.575 102.959ZM123.064 101.085L122.982 101.045L122.86 100.719V100.638L122.575 100.556L122.453 100.434H122.371V100.475L122.208 100.678V100.719V101.045V101.33L122.167 101.411L122.249 101.574V101.778L122.086 101.859L122.045 102.022V102.104L122.127 102.266V102.348H122.33V102.429H122.493L122.656 102.633L122.616 102.511V102.307L122.656 102.226L122.575 102.063L122.942 101.696L123.064 101.493V101.411V101.248V101.085ZM116.298 99.2937L116.095 99.3751L116.013 99.2937L115.891 99.3751L115.809 99.2937H115.768H115.565H115.483L115.442 99.4159L115.239 99.5787L115.157 99.6602V99.7009V99.9045L115.198 100.027L115.279 100.108H115.361L115.442 100.19H115.605V100.108L115.85 100.027V99.9452L116.054 99.8638V99.7824L116.135 99.538L116.217 99.4566L116.298 99.3344V99.2937ZM115.402 98.5607V98.6829H115.198V98.7643L115.279 98.8457L115.361 98.9272L115.524 98.7643L115.402 98.5607ZM122.167 95.8323L122.086 95.7508L122.004 95.8323L121.923 95.9137L122.004 95.9545L121.841 96.1988V96.2802L121.678 96.5246L121.597 96.6875V97.0947H121.678V97.2983H121.801V97.4612L121.923 97.2576L122.045 97.0947L121.964 97.054L122.045 96.6875V96.606V96.3617L122.127 96.1988L122.167 95.9545V95.8323ZM103.786 97.1761V97.3797H103.827L103.786 97.1761ZM119.681 95.7508L119.437 95.9952H119.559L119.763 95.7916L119.681 95.7508ZM119.926 95.5472L119.966 95.4658L119.763 95.6287L119.966 95.5472H119.926ZM126.895 89.9275L127.017 89.8054H126.977V89.6832H126.895L126.732 89.3982H126.61L126.488 89.2353H126.406V89.3167L126.284 89.3982L126.406 89.5203L126.528 89.7239L126.61 89.9275V90.1312L126.569 90.294L126.936 90.6198L126.895 90.5384L126.977 90.1719L126.895 89.9275ZM57.4855 89.4389V89.1538H57.404L57.2002 88.828L57.2817 88.543L57.3225 88.5023L57.2409 88.4208L57.1187 88.2172L57.0779 88.1765C56.9964 88.8688 56.9556 89.6018 56.8741 90.294L57.2409 90.0904L57.2817 90.0497L57.2002 89.9683L57.3632 89.8054L57.4855 89.4389ZM70.0387 90.0904H69.998L69.835 90.1719H70.0387L70.1203 90.0904H70.0387ZM127.588 89.0724V89.1538L127.67 89.276L127.751 89.1131L127.792 89.0724H127.588ZM128.322 88.7873L128.24 88.7059L128.159 88.7466V88.8688H128.281H128.322L128.403 88.7873V88.7466L128.322 88.7873ZM131.582 84.3486V84.2671L131.542 84.1042V84.0228L131.46 83.7785L131.419 83.697H131.338L131.256 83.4934L131.215 83.2898L131.175 83.2084L130.889 82.9233L130.645 83.1269L130.563 83.0455V83.1269L130.645 83.3305L130.604 83.4934L130.726 83.7785L130.808 84.1042L130.726 84.3079L130.808 84.5522L130.686 84.9594L130.767 85.163L130.563 85.4481L130.482 85.5295V85.611V85.8146L130.4 85.9368L130.36 86.1404L130.156 86.2625L129.83 86.4661H129.748L129.667 86.6698L129.341 86.5069V86.6698L129.218 86.8734V86.9548L129.137 87.0363L129.178 87.077V87.1177H129.381L129.178 87.4028L129.259 87.4842L128.852 87.7285L128.77 87.6471H128.689H128.444V87.5249L128.24 87.6064L128.036 87.6878H127.914L127.751 87.7285L127.547 87.81L127.466 87.7285L127.384 87.81L127.344 87.9729L127.262 88.0543L126.977 88.3394L126.895 88.4208L126.854 88.4615L126.773 88.6244L126.61 88.7059L126.814 88.6244H126.895V88.543L126.977 88.3394H127.181L127.262 88.3801H127.344H127.547L127.751 88.2987H127.833L127.996 88.2172V88.1765L128.281 88.0136L128.444 87.9321H128.811L129.015 88.095V88.2987L128.933 88.4208V88.543L129.178 88.7873H129.096L129.137 88.9909L129.178 88.9095V88.828L129.259 88.7466V88.6652L129.381 88.4615L129.218 88.2987L129.3 87.9729L129.463 87.81H130.074L129.952 87.9321L130.197 87.9729V87.7693L130.482 87.6064H130.686L130.726 87.5656L130.808 87.5249L130.971 87.1584L131.175 87.077H131.46L131.338 86.8734V86.1811L131.419 85.9368L131.297 85.611L131.134 85.3666V85.163L131.175 84.8373L131.419 84.7151V84.6336V84.5522V84.3079L131.582 84.3486ZM59.2788 88.7059L59.4011 88.2987H59.3603L59.2788 88.3801H58.9528L58.749 88.4615L58.5044 88.4208L58.5859 88.5023L58.749 88.5837L58.8305 88.6652L59.0343 88.7466L59.1565 88.7059L59.3603 88.9095L59.4011 88.9909L59.4418 88.9095V88.8688L59.2788 88.7059ZM124.287 87.5249V87.4028L124.001 87.6878V87.077L123.961 86.7512L123.798 86.5883V86.3033L123.512 85.9368L123.268 85.6924L122.656 85.9368L122.819 86.1811L123.023 86.3847L122.942 86.4661L123.146 86.9548L122.819 86.8734L122.86 86.9548V86.9955L123.146 87.4842L122.942 87.6471V87.8914L122.86 87.9729L122.942 88.1765V88.0136L123.227 88.2987L123.512 88.0543L123.675 87.9729L123.716 87.8914H124.001L124.205 87.6878H124.287L124.205 87.6064L124.287 87.5249ZM63.3545 87.5656L63.4361 87.6471L63.4768 87.5656H63.3545ZM63.8436 87.7285L63.6806 87.5656L63.9251 87.4842H63.8844L63.6398 87.5656L63.5583 87.5249H63.5176L63.7214 88.0136L63.8029 88.0543L63.8844 88.1358L63.8029 87.9729L63.8436 87.7285ZM131.542 87.4842V87.5249L131.582 87.4842H131.542ZM60.257 87.362V87.4435L60.3385 87.4028V87.3213L60.257 87.362ZM131.542 87.1177V87.2399L131.582 87.1992L131.542 87.1177ZM60.5423 86.7105H60.3385L60.2977 86.6698L60.3385 86.8326L60.42 86.9955H60.3793V87.077L60.5015 86.9548L60.583 86.7919L60.5423 86.7105ZM60.3793 85.2852L60.1755 85.2445H59.9717L59.8494 84.9594V84.878H59.8087H59.4826L59.4418 84.7965L59.2788 84.7151L59.1973 84.5522L59.075 84.4708L58.7897 84.2264L58.7082 84.0228V83.9414L58.6267 83.8599V83.697L58.3006 83.2898L58.2599 83.2084H58.1784L57.8523 83.0862C57.7708 83.4934 57.6485 83.9006 57.567 84.3486L57.6485 84.4708L57.6893 84.5115L57.8931 84.8373L58.0969 84.9594L58.4229 85.0816L58.6267 85.163H58.8305L59.0343 85.4074L59.3196 85.5295H59.5234L59.6456 85.7739V85.8553H59.6864L59.7271 85.9775L60.0532 86.1404L60.094 86.3847V86.2218L60.2977 86.1404V85.7739L60.3793 85.6924L60.4608 85.5703L60.6238 85.4481L60.3793 85.2852ZM123.146 85.6517L122.942 85.163V85.0816L122.493 84.878L122.453 84.7965L121.841 85.4074H121.76V85.5703H121.801L122.004 85.3666L122.249 85.611H123.268L123.146 85.6517ZM119.518 84.5522V84.5929L119.559 84.5522H119.518ZM69.9572 81.8645L69.6719 82.1496L69.6312 82.1903L69.7942 82.1089L70.0387 81.9052L69.9572 81.8645ZM130.115 81.7831V81.8238H130.156L130.115 81.7831ZM69.5497 81.6609L69.4274 81.7016L69.6719 81.8238L69.7534 81.6609V81.4573L69.5497 81.6609ZM132.275 80.2764L132.031 80.1542V80.0727L131.949 80.1135H131.501L131.419 79.9913H131.297L131.052 79.8691L131.012 79.7877H130.889L130.767 79.5841L130.604 79.5026L130.319 79.2176L130.278 79.0954H130.197L130.074 79.014L130.237 79.2583L130.319 79.4619L130.36 79.7062V79.7877V79.8691L130.523 80.2764H130.36V80.3578H130.4L130.604 80.6428L130.441 80.7243V80.8057L130.237 81.0093L130.074 80.9279V81.0093L130.278 81.1722L130.319 81.1315L130.523 80.9686H130.808L131.012 80.8872L131.215 81.1722L131.297 81.2537L131.46 81.3351L131.501 81.1315L131.582 80.8465L131.786 80.7243L131.99 80.6021L132.275 80.48V80.2764ZM129.911 76.9371L129.83 76.8557H129.748L129.667 76.7335V76.7742V76.8149L129.87 77.0186L129.83 77.2222L129.993 77.1407V76.9778L129.911 76.9371ZM129.667 74.3309V74.2902L129.504 74.2494V74.0458L129.341 73.8829L129.178 73.5572L129.096 73.435L128.892 73.1499L128.811 72.9463L128.729 72.8649V72.7834H128.525L128.444 72.4984L128.24 72.2948L128.159 72.1319L128.077 72.0097V71.3989H127.996L127.792 71.1953V71.1138L127.71 71.0324V70.788H127.67L127.588 70.6659V70.788L127.344 70.8695H127.303V70.9917L127.384 71.0731L127.588 71.3174V71.5618V71.8061L127.71 72.0912V72.1726L127.873 72.254L127.955 72.5391L127.996 72.6205L128.159 72.702L128.362 72.987V73.3943L128.444 73.5572V73.6386L128.689 73.8829L128.607 74.0051L128.729 74.168L128.811 74.3309V74.4938L128.892 74.6974V75.1046L129.137 75.2675L129.096 75.4304L129.178 75.4711L129.422 75.6747V75.634L129.3 75.4711L129.381 75.1861V75.1453L129.3 74.9417L129.381 74.7788L129.178 74.4938H129.748H129.83L129.667 74.3309ZM62.9877 71.3174V71.3989H63.0692L62.9877 71.3174ZM63.1915 70.2586L63.2323 70.1772C63.2323 70.1772 63.2323 70.2179 63.1915 70.2586ZM69.0198 65.4534V65.4127H68.816L68.8975 65.4534L69.0606 65.6163L69.1421 65.5756L69.0198 65.4534ZM73.6661 60.7296H73.5846L73.5439 60.8111V61.0147L73.6254 61.1776H73.7477L73.8292 61.1368L73.9107 61.0554V60.974V60.8925L73.6661 60.7296ZM76.7229 58.4492L76.5599 58.2863L76.3969 58.1641L76.1523 58.0827H75.9078C75.8263 58.1234 75.7448 58.1641 75.6633 58.2456L75.7448 58.327L75.8263 58.2456L76.3154 58.4492V58.4899L76.4784 58.327L76.5599 58.5306L76.6822 58.5713L76.7637 58.4899L76.7229 58.4492ZM75.4595 58.4084H75.4187V58.4899L75.4595 58.5306H75.541V58.3677L75.4595 58.4084Z" fill="url(#paint13_radial)"/>
<path d="M70.365 98.4792C75.4189 99.6601 80.7581 100.475 86.2603 100.963C87.2385 112.488 90.0915 123.523 94.4118 133.785C94.7786 133.826 95.1047 133.867 95.4715 133.867C91.1105 123.646 88.2574 112.651 87.2385 101.045C90.6621 101.289 94.1265 101.452 97.6724 101.452C105.253 101.452 112.549 100.8 119.518 99.5787C117.521 114.035 109.084 126.496 97.2648 133.948C97.4686 133.948 97.6724 133.948 97.8762 133.948C98.2837 133.948 98.6506 133.948 99.0581 133.948C110.552 126.252 118.622 113.832 120.537 99.4565C127.099 98.2756 133.294 96.5245 139 94.407C139 94.0812 139 93.7554 139 93.3889C133.294 95.5472 127.14 97.2575 120.619 98.4792C120.823 96.6874 120.904 94.8549 120.904 93.0224C120.904 75.7561 111.937 60.526 98.406 51.6892C98.2022 51.6892 97.9984 51.6892 97.7947 51.6892C97.3871 51.6892 97.0203 51.6892 96.6127 51.6892C110.592 60.1595 119.885 75.5118 119.885 92.941C119.885 94.8549 119.763 96.7281 119.559 98.5606C112.59 99.823 105.212 100.475 97.5909 100.475C94.045 100.475 90.5399 100.312 87.0755 100.067C86.8309 97.2168 86.7494 94.3255 86.7494 91.4342C86.7494 77.4665 89.4394 64.1095 94.208 51.8114C93.8412 51.8521 93.5151 51.8928 93.1483 51.9335C88.3797 64.191 85.7712 77.5072 85.7712 91.4342C85.7712 94.3255 85.8935 97.1761 86.0973 100.027C80.5543 99.538 75.2559 98.6828 70.1612 97.5426C69.9982 95.9544 69.9166 94.4477 69.9166 92.8595C69.9166 75.7561 78.8833 60.6481 92.3739 52.0964C91.5995 52.1779 90.8659 52.3408 90.1323 52.4629C77.3345 61.3811 68.9792 76.1633 68.9792 92.9002C68.9792 94.407 69.0607 95.9137 69.183 97.3797C64.822 96.3616 60.5832 95.0585 56.6298 93.5925C56.6298 93.9183 56.6298 94.2441 56.6705 94.6106C60.624 96.1173 64.9035 97.3797 69.2645 98.3978C70.8541 112.773 78.7202 125.315 90.0915 133.256C90.8252 133.419 91.5995 133.5 92.3332 133.623C80.5136 125.926 72.1175 113.221 70.365 98.4792Z" fill="url(#paint14_radial)"/>
<path d="M120.415 91.8009C121.293 91.8009 122.005 91.0898 122.005 90.2127C122.005 89.3356 121.293 88.6245 120.415 88.6245C119.537 88.6245 118.826 89.3356 118.826 90.2127C118.826 91.0898 119.537 91.8009 120.415 91.8009Z" fill="url(#paint15_radial)"/>
<path d="M106.802 61.4627C107.68 61.4627 108.392 60.7517 108.392 59.8745C108.392 58.9974 107.68 58.2864 106.802 58.2864C105.924 58.2864 105.213 58.9974 105.213 59.8745C105.213 60.7517 105.924 61.4627 106.802 61.4627Z" fill="url(#paint16_radial)"/>
<path d="M112.06 122.139C113.298 122.139 114.301 121.136 114.301 119.899C114.301 118.662 113.298 117.659 112.06 117.659C110.822 117.659 109.818 118.662 109.818 119.899C109.818 121.136 110.822 122.139 112.06 122.139Z" fill="url(#paint17_radial)"/>
<path d="M86.7907 102.877C88.1412 102.877 89.2361 101.783 89.2361 100.434C89.2361 99.0846 88.1412 97.9907 86.7907 97.9907C85.4401 97.9907 84.3452 99.0846 84.3452 100.434C84.3452 101.783 85.4401 102.877 86.7907 102.877Z" fill="url(#paint18_radial)"/>
<path d="M88.6704 71.0982C89.8083 71.0982 90.7307 70.1766 90.7307 69.0397C90.7307 67.9028 89.8083 66.9812 88.6704 66.9812C87.5325 66.9812 86.6101 67.9028 86.6101 69.0397C86.6101 70.1766 87.5325 71.0982 88.6704 71.0982Z" fill="url(#paint19_radial)"/>
<path d="M73.0551 113.302C74.1581 113.302 75.0522 112.409 75.0522 111.307C75.0522 110.205 74.1581 109.312 73.0551 109.312C71.9521 109.312 71.058 110.205 71.058 111.307C71.058 112.409 71.9521 113.302 73.0551 113.302Z" fill="url(#paint20_radial)"/>
</g>
<defs>
<linearGradient id="paint0_linear" x1="57.7037" y1="28.3843" x2="57.7037" y2="117.729" gradientUnits="userSpaceOnUse">
<stop stop-color="#596382"/>
<stop offset="0.7425" stop-color="#2A3C6B"/>
</linearGradient>
<linearGradient id="paint1_linear" x1="58.6225" y1="27.4654" x2="58.6225" y2="116.81" gradientUnits="userSpaceOnUse">
<stop stop-color="#697698"/>
<stop offset="0.7425" stop-color="#424F6F"/>
</linearGradient>
<linearGradient id="paint2_linear" x1="62.0234" y1="116.81" x2="62.0234" y2="27.4654" gradientUnits="userSpaceOnUse">
<stop offset="0.238248" stop-color="#292C3F"/>
<stop offset="0.995" stop-color="#465479"/>
</linearGradient>
<linearGradient id="paint3_linear" x1="48.9218" y1="51.0755" x2="122.753" y2="51.0755" gradientUnits="userSpaceOnUse">
<stop stop-color="#9CA5C7"/>
<stop offset="0.995" stop-color="#7883A0"/>
</linearGradient>
<linearGradient id="paint4_linear" x1="86.5941" y1="12.8931" x2="86.2941" y2="83.8081" gradientUnits="userSpaceOnUse">
<stop stop-color="#F7F7FA"/>
<stop offset="1" stop-color="#C1C8E2"/>
</linearGradient>
<linearGradient id="paint5_linear" x1="50.917" y1="24.0806" x2="145.103" y2="23.1617" gradientUnits="userSpaceOnUse">
<stop offset="0.106918" stop-color="#6D7793"/>
<stop offset="1" stop-color="#8D9CC0"/>
</linearGradient>
<linearGradient id="paint6_linear" x1="51.0586" y1="23.7778" x2="145.244" y2="22.8589" gradientUnits="userSpaceOnUse">
<stop offset="0.106918" stop-color="#6D7793"/>
<stop offset="1" stop-color="#8D9CC0"/>
</linearGradient>
<linearGradient id="paint7_linear" x1="67.8897" y1="33.5196" x2="67.8897" y2="119.844" gradientUnits="userSpaceOnUse">
<stop stop-color="#7382B5"/>
<stop offset="0.354167" stop-color="#546491"/>
<stop offset="0.995" stop-color="#2D3146"/>
</linearGradient>
<linearGradient id="paint8_linear" x1="68.8087" y1="32.6007" x2="68.8087" y2="118.925" gradientUnits="userSpaceOnUse">
<stop stop-color="#9CA6C7"/>
<stop offset="0.515625" stop-color="#75809D"/>
<stop offset="0.995" stop-color="#5E6A84"/>
</linearGradient>
<linearGradient id="paint9_linear" x1="17.0888" y1="75.9128" x2="120.597" y2="75.9128" gradientUnits="userSpaceOnUse">
<stop stop-color="#3EADED"/>
<stop offset="1" stop-color="#0B528D"/>
</linearGradient>
<linearGradient id="paint10_linear" x1="68.8431" y1="39.8611" x2="68.8431" y2="111.964" gradientUnits="userSpaceOnUse">
<stop stop-color="#67728D"/>
<stop offset="1" stop-color="#91A2C6"/>
</linearGradient>
<linearGradient id="paint11_linear" x1="17.0888" y1="75.9128" x2="120.597" y2="75.9128" gradientUnits="userSpaceOnUse">
<stop stop-color="#2CD8CF"/>
<stop offset="1" stop-color="#0FBCBC"/>
</linearGradient>
<radialGradient id="paint12_radial" cx="0" cy="0" r="1" gradientUnits="userSpaceOnUse" gradientTransform="translate(88.2863 80.4775) scale(47.1719 47.1314)">
<stop offset="0.1458" stop-color="#96A1BB"/>
<stop offset="0.8886" stop-color="#5F6A8D"/>
<stop offset="1" stop-color="#4E5E83"/>
</radialGradient>
<radialGradient id="paint13_radial" cx="0" cy="0" r="1" gradientUnits="userSpaceOnUse" gradientTransform="translate(85.3529 77.7482) scale(53.1997 53.1541)">
<stop offset="0.21875" stop-color="#F3F5F7" stop-opacity="0.5"/>
<stop offset="0.614583" stop-color="#D5D9DF" stop-opacity="0.2"/>
<stop offset="1" stop-color="#D4D8DE" stop-opacity="0"/>
</radialGradient>
<radialGradient id="paint14_radial" cx="0" cy="0" r="1" gradientUnits="userSpaceOnUse" gradientTransform="translate(97.8906 92.7892) scale(41.1706 41.1353)">
<stop stop-color="#24DEDD"/>
<stop offset="0.859375" stop-color="#24D2D1"/>
<stop offset="1" stop-color="#25DFDE" stop-opacity="0"/>
</radialGradient>
<radialGradient id="paint15_radial" cx="0" cy="0" r="1" gradientUnits="userSpaceOnUse" gradientTransform="translate(120.434 90.2303) scale(1.59325 1.59188)">
<stop offset="0.2738" stop-color="white"/>
</radialGradient>
<radialGradient id="paint16_radial" cx="0" cy="0" r="1" gradientUnits="userSpaceOnUse" gradientTransform="translate(106.821 59.8921) scale(1.59324 1.59188)">
<stop offset="0.2738" stop-color="white"/>
</radialGradient>
<radialGradient id="paint17_radial" cx="0" cy="0" r="1" gradientUnits="userSpaceOnUse" gradientTransform="translate(112.069 119.891) scale(2.22704 2.22513)">
<stop stop-color="white"/>
</radialGradient>
<radialGradient id="paint18_radial" cx="0" cy="0" r="1" gradientUnits="userSpaceOnUse" gradientTransform="translate(86.8007 100.426) scale(2.4295 2.42742)">
<stop stop-color="white"/>
</radialGradient>
<radialGradient id="paint19_radial" cx="0" cy="0" r="1" gradientUnits="userSpaceOnUse" gradientTransform="translate(88.6789 69.0326) scale(2.04686 2.0451)">
<stop stop-color="white"/>
</radialGradient>
<radialGradient id="paint20_radial" cx="0" cy="0" r="1" gradientUnits="userSpaceOnUse" gradientTransform="translate(73.0793 111.329) scale(2.00177 2.00005)">
<stop offset="0.2738" stop-color="white"/>
</radialGradient>
<clipPath id="clip0">
<rect y="7" width="140" height="126" fill="white"/>
</clipPath>
</defs>
</svg>
