<svg width="140" height="140" viewBox="0 0 140 140" fill="none" xmlns="http://www.w3.org/2000/svg">
<g clip-path="url(#clip0)">
<path d="M18.2424 41.5736V120.284C18.2424 123.101 19.7136 125.715 22.1083 127.17L37.7439 137.547C43.1123 140.818 49.8423 140.818 55.2107 137.547L109.505 100.876C111.9 99.405 113.371 96.7913 113.371 93.9897V17.6272L18.2424 41.5736Z" fill="url(#paint0_linear)"/>
<path d="M40.9683 134.198C40.2953 134.198 39.6223 133.995 39.0432 133.603L22.7659 122.96C21.4669 122.1 20.7 120.644 20.7 119.095V61.1849C20.7 59.8702 21.7642 58.8059 23.0633 58.8059C23.4389 58.8059 23.8146 58.8998 24.1589 59.0876L42.1578 68.2123C43.5508 68.9479 44.4273 70.3878 44.4273 71.953V130.739C44.4429 132.649 42.8934 134.198 40.9683 134.198Z" fill="url(#paint1_linear)"/>
<path d="M55.6177 131.85C53.8647 131.85 52.4248 130.426 52.4248 128.657V72.1559C52.4248 70.0743 53.536 68.1023 55.3046 67.0223L106.109 36.0328C106.5 35.7981 106.938 35.6729 107.392 35.6729C108.754 35.6729 109.865 36.7841 109.865 38.1458V91.7513C109.865 94.5842 108.456 97.2293 106.093 98.7944L57.3706 131.318C56.8385 131.662 56.2437 131.85 55.6177 131.85Z" fill="url(#paint2_linear)"/>
<path d="M109.63 50.8076V47.8808L98.5179 54.5639V40.9473L96.0137 42.4811V56.082L64.0851 75.2548V61.9513L61.5809 63.4851V76.773L52.6597 82.1414V85.0682L80.0494 68.603V82.1414L52.6597 99.2795V102.238L61.5809 96.6501V110.705L52.6597 116.449V119.423L80.0494 101.784V115.901L82.5536 114.226V100.172L109.63 82.7361V79.7624L98.5179 86.915V73.5175L109.63 66.5527V63.5946L82.5536 80.545V67.0692L109.63 50.8076ZM96.0137 75.0827V88.5271L64.0851 109.093V95.085L96.0137 75.0827ZM37.6032 81.7658V96.7753L44.208 100.328V103.177L28.5567 94.7406V108.874L44.208 117.889V120.784L37.6032 116.981V132.382L35.099 130.739V115.526L20.9502 107.371V104.476L26.0525 107.434V93.3946L20.9346 90.64V87.7915L35.0833 95.398V80.5293L20.9346 73.6897V70.9038L26.0525 73.3923V60.2922L28.5567 61.56V74.5975L44.208 82.1727V84.9586L37.6032 81.7658Z" fill="#2CD8CF"/>
<path d="M116.924 21.5247C116.924 21.5091 116.924 21.4934 116.924 21.4778V15.546L113.825 16.3285C113.668 16.2503 113.512 16.172 113.355 16.0938L97.5944 9.48892C93.6972 7.81424 89.2679 7.81424 85.3551 9.48892L29.4175 37.7551L15.0183 42.3409L15.0652 47.7876C14.7992 49.337 15.4096 51.0117 16.959 51.9508L35.5527 62.1241C41.5159 65.7552 49.0128 65.7552 54.976 62.1241L114.075 26.5644C115.969 25.4219 116.892 23.5125 116.908 21.603L116.924 21.5247Z" fill="url(#paint3_linear)"/>
<path d="M114.091 20.3035L54.976 55.8788C49.0129 59.5099 41.5159 59.5099 35.5528 55.8788L16.9591 45.7055C14.1262 43.9838 14.4236 39.7736 17.4756 38.4746L85.3551 3.22794C89.2679 1.55325 93.6973 1.55325 97.5944 3.22794L113.324 9.83277C117.753 11.7422 118.191 17.8149 114.091 20.3035Z" fill="url(#paint4_linear)"/>
<path d="M114.091 18.3315L54.976 53.9069C49.0129 57.5379 41.5159 57.5379 35.5528 53.9069L16.9591 43.7335C14.1262 42.0119 14.4236 37.8017 17.4756 36.5027L85.3551 1.25601C89.2679 -0.418671 93.6973 -0.418671 97.5944 1.25601L113.324 7.86085C117.753 9.7703 118.191 15.843 114.091 18.3315Z" fill="url(#paint5_linear)"/>
<path d="M76.0581 44.9394L77.4198 44.0003V47.1306L76.0581 48.0696V44.9394ZM79.1884 46.2228L80.55 45.2994V42.1378L79.1884 43.0769V46.2228ZM82.3186 44.3916L83.6803 43.4682V40.2753L82.3186 41.2144V44.3916ZM85.4489 42.5604L86.8105 41.637V38.4128L85.4489 39.3519V42.5604ZM88.5791 40.7292L89.9408 39.8058V36.5503L88.5791 37.4894V40.7292ZM91.7094 38.898L93.071 37.9746V34.6878L91.7094 35.6269V38.898ZM94.8396 37.0668L96.2013 36.1434V32.8253L94.8396 33.7644V37.0668ZM97.9698 35.2356L99.3315 34.3122V30.9628L97.9698 31.9019V35.2356ZM101.1 33.3888L102.462 32.4653V29.0847L101.1 30.0237V33.3888ZM104.23 28.1612V31.5576L105.592 30.6341V27.2222L104.23 28.1612Z" fill="#2CD8CF"/>
<path d="M68.4942 137.625L117.863 106.001C117.863 106.001 129.927 95.2199 122.432 82.78C118.285 75.848 119.521 68.6657 121.196 63.5176C122.886 58.3852 124.795 53.5657 124.795 53.5657C124.795 53.5657 110.571 69.1664 110.07 84.6264C109.773 93.5769 108.286 91.2767 108.286 91.2767C108.286 91.2767 110.696 77.5693 107.394 72.5777C104.672 68.4467 102.81 64.8164 99.8678 62.0624C98.1466 60.4663 95.377 58.3695 95.377 58.3695C95.377 58.3695 99.2106 67.2574 95.7994 80.7301C93.108 91.5114 95.377 98.2556 91.6684 101.057C87.8504 103.936 92.7794 92.9197 86.4578 86.2381C83.516 83.0929 77.1317 85.3931 77.1317 85.3931C77.1317 85.3931 83.5316 93.2796 82.4206 100.618C81.5131 106.768 76.7405 108.724 74.6124 102.011C73.298 97.8487 72.9694 93.2639 72.9694 93.2639C72.9694 93.2639 66.5382 111.259 68.7915 117.565C71.2951 124.591 64.7387 135.028 63.6121 128.315C62.9236 124.246 62.9705 121.007 62.9705 121.007C62.9705 121.007 57.7755 133.823 61.8126 139.112C63.3304 141.115 68.4942 137.625 68.4942 137.625Z" fill="url(#paint6_radial)"/>
<path d="M73.4699 133.479L110.821 109.585C110.821 109.585 123.308 100.963 121.524 90.3695C120.617 84.9867 117.8 87.0992 117.158 80.2142C116.767 76.1458 117.706 69.918 117.706 69.918C117.706 69.918 111.885 77.6323 111.478 89.8845C111.244 96.9729 104.984 98.0995 104.984 98.0995C104.984 98.0995 106.909 91.0267 105.955 85.0962C105.172 80.2768 100.087 75.8797 100.087 75.8797C100.087 75.8797 101.166 83.6097 97.8804 94.5005C95.0638 103.905 94.6413 104.828 92.654 106.142C89.681 108.114 88.9299 106.894 88.3196 102.575C87.6781 98.0213 85.0179 93.1861 85.0179 93.1861C85.0179 93.1861 84.924 100.822 84.0478 106.628C83.328 111.494 80.5583 114.467 76.9124 112.355C74.268 110.805 72.4528 108.74 72.4528 108.74C72.4528 108.74 71.9677 113.622 73.7359 118.582C75.7075 124.122 71.9677 133.901 66.4284 134.825C64.0343 135.216 62.7356 132.212 62.7356 132.212C62.7356 132.212 62.4539 137.36 65.6461 137.751C67.5864 137.939 73.4699 133.479 73.4699 133.479Z" fill="url(#paint7_linear)"/>
</g>
<defs>
<linearGradient id="paint0_linear" x1="18.1396" y1="78.8138" x2="106.672" y2="78.8138" gradientUnits="userSpaceOnUse">
<stop stop-color="#566489"/>
<stop offset="0.220579" stop-color="#535E85"/>
<stop offset="0.332904" stop-color="#535E85"/>
<stop offset="0.4041" stop-color="#2C3046"/>
<stop offset="0.995" stop-color="#2C3045"/>
</linearGradient>
<linearGradient id="paint1_linear" x1="18.4024" y1="103.197" x2="46.1656" y2="89.676" gradientUnits="userSpaceOnUse">
<stop stop-color="#6B7598"/>
</linearGradient>
<linearGradient id="paint2_linear" x1="-1.59505" y1="128.397" x2="75.7877" y2="86.8741" gradientUnits="userSpaceOnUse">
<stop offset="1" stop-color="#6A7598"/>
</linearGradient>
<linearGradient id="paint3_linear" x1="16.0356" y1="36.5402" x2="113.961" y2="36.5402" gradientUnits="userSpaceOnUse">
<stop stop-color="#667498"/>
<stop offset="0.1955" stop-color="#58648C"/>
<stop offset="0.302083" stop-color="#616D97"/>
<stop offset="0.4635" stop-color="#3A3F5B"/>
<stop offset="1" stop-color="#3B405A"/>
</linearGradient>
<linearGradient id="paint4_linear" x1="30.8638" y1="50.2003" x2="92.7746" y2="15.1718" gradientUnits="userSpaceOnUse">
<stop stop-color="#546692"/>
<stop offset="0.995" stop-color="#3A4A73"/>
</linearGradient>
<linearGradient id="paint5_linear" x1="30.8638" y1="48.2284" x2="92.7746" y2="13.1999" gradientUnits="userSpaceOnUse">
<stop stop-color="#687599"/>
<stop offset="0.995" stop-color="#526084"/>
</linearGradient>
<radialGradient id="paint6_radial" cx="0" cy="0" r="1" gradientUnits="userSpaceOnUse" gradientTransform="translate(77.8587 62.3722) scale(62.3089)">
<stop offset="0.1458" stop-color="#7986AA"/>
<stop offset="0.8886" stop-color="#829EBD"/>
<stop offset="1" stop-color="#8099B9"/>
</radialGradient>
<linearGradient id="paint7_linear" x1="86.2753" y1="95.572" x2="105.223" y2="128.341" gradientUnits="userSpaceOnUse">
<stop offset="0.155" stop-color="#657296"/>
<stop offset="0.713542" stop-color="#343B57"/>
</linearGradient>
<clipPath id="clip0">
<rect x="15" width="110.423" height="140" fill="white"/>
</clipPath>
</defs>
</svg>
