<svg width="140" height="140" viewBox="0 0 140 140" fill="none" xmlns="http://www.w3.org/2000/svg">
<path d="M20.3759 41.6099V120.213C20.3759 123.026 21.8451 125.637 24.2365 127.09L39.8508 137.453C45.2119 140.719 51.9327 140.719 57.2938 137.453L111.514 100.832C113.906 99.3626 115.375 96.7524 115.375 93.9546V17.696L20.3759 41.6099Z" fill="url(#paint0_linear)"/>
<path d="M43.0708 134.108C42.3987 134.108 41.7266 133.905 41.1483 133.514L24.8931 122.886C23.5958 122.026 22.83 120.573 22.83 119.025V61.1944C22.83 59.8814 23.8928 58.8186 25.1901 58.8186C25.5652 58.8186 25.9403 58.9124 26.2842 59.0999L44.2586 68.2122C45.6497 68.9468 46.525 70.3848 46.525 71.9478V130.654C46.5406 132.561 44.9932 134.108 43.0708 134.108Z" fill="#6A7598"/>
<path d="M57.7002 131.764C55.9497 131.764 54.5117 130.342 54.5117 128.576V72.1517C54.5117 70.0729 55.6214 68.1035 57.3876 67.0251L108.122 36.0778C108.513 35.8433 108.951 35.7183 109.404 35.7183C110.764 35.7183 111.874 36.828 111.874 38.1878V91.7204C111.874 94.5494 110.467 97.1909 108.107 98.7539L59.4508 131.233C58.9194 131.577 58.3254 131.764 57.7002 131.764Z" fill="url(#paint1_linear)"/>
<path d="M111.639 50.8315V47.9087L100.542 54.5827V40.9846L98.0409 42.5164V56.0988L66.1558 75.2455V61.96L63.655 63.4918V76.7616L54.7459 82.1227V85.0455L82.0983 68.6028V82.1227L54.7459 99.2375V102.192L63.655 96.6116V110.647L54.7459 116.384V119.353L82.0983 101.738V115.836L84.5991 114.164V100.128L111.639 82.7166V79.7469L100.542 86.8898V73.5106L111.639 66.5552V63.6012L84.5991 80.5284V67.071L111.639 50.8315ZM98.0409 75.0736V88.4997L66.1558 109.037V95.0486L98.0409 75.0736ZM39.7099 81.7475V96.7367L46.3057 100.285V103.129L30.6758 94.7048V108.819L46.3057 117.821V120.713L39.7099 116.915V132.295L37.2091 130.654V115.461L23.0796 107.318V104.427L28.175 107.381V93.3606L23.064 90.6097V87.7651L37.1934 95.3612V80.5128L23.064 73.6825V70.9004L28.175 73.3855V60.3032L30.6758 61.5693V74.589L46.3057 82.1539V84.9361L39.7099 81.7475Z" fill="#2CD8CF"/>
<path d="M118.923 21.5882C118.923 21.5726 118.923 21.5569 118.923 21.5413V15.6176L115.828 16.399C115.672 16.3209 115.515 16.2428 115.359 16.1646L99.6196 9.56876C95.7278 7.89635 91.3045 7.89635 87.397 9.56876L31.5355 37.7965L17.156 42.376L17.2029 47.8153C16.9371 49.3626 17.5467 51.035 19.0941 51.9728L37.6625 62.1323C43.6175 65.7585 51.1042 65.7585 57.0593 62.1323L116.078 26.621C117.969 25.4801 118.891 23.5732 118.907 21.6663L118.923 21.5882Z" fill="url(#paint2_linear)"/>
<path d="M116.094 20.3691L57.0593 55.896C51.1043 59.5221 43.6176 59.5221 37.6625 55.896L19.0941 45.7365C16.2651 44.0172 16.5621 39.8128 19.6099 38.5155L87.3971 3.3168C91.3046 1.6444 95.7278 1.6444 99.6197 3.3168L115.328 9.91265C119.751 11.8195 120.189 17.8839 116.094 20.3691Z" fill="url(#paint3_linear)"/>
<path d="M116.094 18.3972L57.0593 53.9241C51.1043 57.5502 43.6176 57.5502 37.6625 53.9241L19.0941 43.7646C16.2651 42.0453 16.5621 37.8408 19.6099 36.5435L87.3971 1.34488C91.3046 -0.327525 95.7278 -0.327525 99.6197 1.34488L115.328 7.94072C119.751 9.84758 120.189 15.912 116.094 18.3972Z" fill="url(#paint4_linear)"/>
<path d="M78.1128 44.9714L79.4726 44.0336V47.1596L78.1128 48.0974V44.9714ZM81.2388 46.2531L82.5986 45.3309V42.1737L81.2388 43.1115V46.2531ZM84.3648 44.4244L85.7246 43.5022V40.3137L84.3648 41.2515V44.4244ZM87.4908 42.5957L88.8506 41.6735V38.4537L87.4908 39.3915V42.5957ZM90.6167 40.767L91.9766 39.8448V36.5938L90.6167 37.5316V40.767ZM93.7427 38.9383L95.1025 38.0161V34.7338L93.7427 35.6716V38.9383ZM96.8687 37.1096L98.2285 36.1874V32.8738L96.8687 33.8116V37.1096ZM99.9947 35.2809L101.355 34.3587V31.0139L99.9947 31.9517V35.2809ZM103.121 33.4365L104.481 32.5144V29.1383L103.121 30.0761V33.4365ZM106.247 28.2161V31.6078L107.606 30.6857V27.2783L106.247 28.2161Z" fill="#2CD8CF"/>
<defs>
<linearGradient id="paint0_linear" x1="20.2732" y1="78.7994" x2="108.685" y2="78.7994" gradientUnits="userSpaceOnUse">
<stop stop-color="#465069"/>
<stop offset="0.220579" stop-color="#464F70"/>
<stop offset="0.332904" stop-color="#525D83"/>
<stop offset="0.404094" stop-color="#2C3046"/>
<stop offset="0.995" stop-color="#2C3045"/>
</linearGradient>
<linearGradient id="paint1_linear" x1="0.565382" y1="128.316" x2="77.8428" y2="86.8498" gradientUnits="userSpaceOnUse">
<stop offset="1" stop-color="#6A7598"/>
</linearGradient>
<linearGradient id="paint2_linear" x1="18.1719" y1="36.5832" x2="115.964" y2="36.5832" gradientUnits="userSpaceOnUse">
<stop stop-color="#455072"/>
<stop offset="0.212983" stop-color="#2F3750"/>
<stop offset="0.31524" stop-color="#3A445F"/>
<stop offset="0.381708" stop-color="#2D3147"/>
<stop offset="1" stop-color="#313758"/>
</linearGradient>
<linearGradient id="paint3_linear" x1="32.9799" y1="50.2253" x2="94.8065" y2="15.2444" gradientUnits="userSpaceOnUse">
<stop stop-color="#545F7C"/>
<stop offset="0.410763" stop-color="#4B5674"/>
<stop offset="0.995" stop-color="#364466"/>
</linearGradient>
<linearGradient id="paint4_linear" x1="32.9799" y1="48.2533" x2="94.8065" y2="13.2725" gradientUnits="userSpaceOnUse">
<stop stop-color="#687599"/>
<stop offset="0.995" stop-color="#4A597F"/>
</linearGradient>
</defs>
</svg>
