<svg width="140" height="140" viewBox="0 0 140 140" fill="none" xmlns="http://www.w3.org/2000/svg">
<g clip-path="url(#clip0)">
<path d="M124.449 59.2771C124.449 59.2638 124.449 59.237 124.449 59.2237C124.449 59.1836 124.449 59.1435 124.449 59.1034C124.449 59.0633 124.449 59.0098 124.449 58.9697C124.449 58.9296 124.449 58.8895 124.436 58.8628C124.436 58.8227 124.436 58.7826 124.422 58.7425C124.422 58.7157 124.422 58.689 124.422 58.6623C124.422 58.5954 124.409 58.5286 124.396 58.4752C124.396 58.4484 124.382 58.4083 124.382 58.3816C124.382 58.3682 124.382 58.3682 124.382 58.3549C124.369 58.2479 124.356 58.141 124.329 58.0207V58.0073C124.329 57.9806 124.315 57.9672 124.315 57.9405C124.302 57.8603 124.289 57.7801 124.275 57.6866C124.275 57.6732 124.262 57.6465 124.262 57.6331C124.249 57.593 124.249 57.5395 124.235 57.4994C124.222 57.446 124.222 57.3925 124.209 57.3524C124.195 57.3257 124.195 57.2856 124.182 57.2588C124.168 57.2054 124.155 57.1653 124.142 57.1118C124.128 57.0717 124.128 57.045 124.115 57.0049C124.102 56.9514 124.088 56.9113 124.075 56.8579C124.061 56.8044 124.048 56.7643 124.035 56.7108C124.035 56.6841 124.021 56.6707 124.021 56.644C124.008 56.5772 123.981 56.5103 123.955 56.4301C123.941 56.39 123.928 56.3499 123.928 56.3232C123.928 56.3098 123.928 56.3099 123.914 56.2965C123.874 56.1762 123.848 56.0693 123.808 55.949V55.9356C123.794 55.9089 123.794 55.8955 123.781 55.8688C123.754 55.7752 123.727 55.695 123.687 55.6014C123.687 55.5881 123.674 55.5613 123.661 55.548C123.647 55.5079 123.634 55.4678 123.62 55.4277C123.607 55.3742 123.58 55.3208 123.567 55.2807C123.554 55.2406 123.54 55.2005 123.527 55.1737C123.513 55.1336 123.487 55.0935 123.473 55.0534C123.46 55.0267 123.447 55 123.433 54.9732C123.407 54.9064 123.38 54.8396 123.353 54.7861C123.34 54.7594 123.326 54.7193 123.313 54.6926C123.313 54.6792 123.3 54.6792 123.3 54.6658C123.246 54.5589 123.206 54.452 123.153 54.345C123.153 54.345 123.153 54.3317 123.139 54.3317C123.126 54.2916 123.113 54.2648 123.086 54.2247C123.046 54.1445 123.019 54.0644 122.979 53.9975C122.965 53.9842 122.965 53.9708 122.952 53.9574C122.925 53.8906 122.885 53.8238 122.845 53.7569C122.818 53.7035 122.792 53.65 122.765 53.5965C122.765 53.5832 122.752 53.5698 122.752 53.5698C122.658 53.396 122.564 53.2223 122.458 53.0619C122.444 53.0485 122.444 53.0352 122.431 53.0218C122.404 52.9817 122.377 52.9416 122.351 52.9015C122.311 52.8347 122.27 52.7678 122.217 52.6876C122.177 52.6342 122.137 52.5673 122.11 52.5139C122.07 52.4471 122.016 52.3802 121.976 52.3134C121.963 52.2867 121.95 52.2733 121.936 52.2466C121.923 52.2198 121.91 52.2065 121.896 52.1797C121.776 51.9926 121.656 51.8188 121.522 51.6451C121.509 51.6184 121.495 51.605 121.468 51.5783C121.388 51.4713 121.321 51.3778 121.241 51.2842C121.241 51.2708 121.228 51.2708 121.228 51.2575C121.174 51.1773 121.108 51.1105 121.054 51.0436C121.027 51.0169 121.001 50.9902 120.987 50.9501C120.987 50.9501 120.987 50.9501 120.987 50.9367C120.907 50.8298 120.814 50.7362 120.733 50.6426C120.733 50.6426 120.733 50.6426 120.72 50.6293C120.693 50.6025 120.68 50.5758 120.653 50.5491C120.586 50.4822 120.533 50.4154 120.466 50.3486C120.453 50.3352 120.453 50.3352 120.439 50.3218C120.399 50.2817 120.359 50.2417 120.332 50.2016C120.292 50.1615 120.239 50.108 120.199 50.0679C120.185 50.0545 120.172 50.0412 120.159 50.0278C120.119 49.9877 120.078 49.9476 120.038 49.9075C119.998 49.8674 119.958 49.8273 119.931 49.8006C119.918 49.7872 119.891 49.7605 119.878 49.7471C119.838 49.707 119.784 49.6669 119.744 49.6268C119.718 49.6001 119.677 49.56 119.651 49.5333C119.624 49.5065 119.611 49.4932 119.584 49.4664C119.544 49.4263 119.49 49.3862 119.45 49.3461C119.423 49.3194 119.397 49.2927 119.357 49.2659C119.33 49.2392 119.303 49.2258 119.276 49.1991C119.236 49.159 119.183 49.1323 119.143 49.0922C119.116 49.0788 119.089 49.0521 119.063 49.0253C119.022 48.9986 118.996 48.9719 118.956 48.9451C118.916 48.9184 118.875 48.8783 118.835 48.8516C118.822 48.8382 118.795 48.8249 118.782 48.8115C118.728 48.7714 118.688 48.7447 118.635 48.7046C118.595 48.6778 118.568 48.6511 118.528 48.6244C118.515 48.611 118.515 48.611 118.501 48.5976C118.408 48.5308 118.314 48.4773 118.221 48.4105C118.221 48.4105 118.221 48.4105 118.207 48.4105C118.114 48.357 118.033 48.3036 117.94 48.2501C117.913 48.2367 117.9 48.2234 117.873 48.21L37.0541 2.37069C36.9873 2.33059 36.9205 2.29049 36.8403 2.25039C36.8135 2.23703 36.7868 2.22366 36.7601 2.21029C36.72 2.19693 36.6932 2.17019 36.6531 2.15683C36.6264 2.14346 36.5997 2.1301 36.573 2.11673C36.5329 2.09 36.4794 2.07663 36.4393 2.0499C36.4126 2.03653 36.3725 2.02317 36.3457 2.0098C36.3324 2.0098 36.319 1.99644 36.3056 1.99644C36.2121 1.95634 36.1319 1.91624 36.0383 1.88951C36.0249 1.88951 36.0249 1.87614 36.0116 1.87614C35.9314 1.84941 35.8512 1.80931 35.7844 1.78258C35.771 1.78258 35.7576 1.76921 35.7443 1.76921C35.7175 1.75585 35.6774 1.74248 35.6507 1.74248C35.6106 1.72911 35.5705 1.71575 35.5304 1.70238C35.5037 1.68902 35.4769 1.68902 35.4636 1.68902C35.4235 1.67565 35.3834 1.66228 35.3433 1.66228C35.3165 1.64892 35.2898 1.64892 35.2631 1.63555C35.223 1.62219 35.1962 1.62219 35.1695 1.60882C35.1294 1.59545 35.0893 1.59545 35.0492 1.58209C35.0359 1.58209 35.0091 1.56872 34.9958 1.56872C34.9557 1.55536 34.9156 1.55536 34.8755 1.55536C34.8354 1.54199 34.7819 1.54199 34.7418 1.52862C34.7284 1.52862 34.7151 1.52862 34.7017 1.51526C34.6616 1.51526 34.6215 1.50189 34.5814 1.50189C34.5279 1.50189 34.4878 1.48853 34.4344 1.48853C34.421 1.48853 34.4076 1.48853 34.3943 1.48853C34.3675 1.48853 34.3275 1.48853 34.3007 1.48853C34.2473 1.48853 34.1804 1.48853 34.127 1.48853C34.1136 1.48853 34.1002 1.48853 34.0869 1.48853C34.0601 1.48853 34.0334 1.48853 34.02 1.48853C33.9532 1.48853 33.873 1.48853 33.8062 1.50189C33.7928 1.50189 33.7661 1.50189 33.7393 1.50189C33.7126 1.50189 33.6725 1.51526 33.6458 1.51526C33.6191 1.51526 33.6057 1.51526 33.579 1.52862C33.4988 1.54199 33.4319 1.55536 33.3517 1.56872C33.3517 1.56872 33.3517 1.56872 33.3384 1.56872C33.3116 1.56872 33.2849 1.58209 33.2715 1.58209C33.2181 1.59545 33.1512 1.60882 33.0978 1.62219C33.071 1.63555 33.0309 1.63555 33.0042 1.64892C32.9641 1.66228 32.924 1.67565 32.8973 1.68902C32.8839 1.68902 32.8839 1.70238 32.8706 1.70238C32.8171 1.72911 32.7503 1.74248 32.6968 1.76921C32.6701 1.78258 32.6433 1.79594 32.6166 1.80931C32.5364 1.84941 32.4562 1.88951 32.376 1.94297L19.9647 6.52255C20.0449 6.48245 20.1251 6.42899 20.2186 6.38889C20.2453 6.37552 20.2721 6.36216 20.2988 6.34879C20.3523 6.32206 20.4191 6.29533 20.4726 6.28196C20.526 6.2686 20.5661 6.25523 20.6196 6.2285C20.6463 6.21513 20.6864 6.20177 20.7132 6.20177C20.7666 6.1884 20.8335 6.17503 20.8869 6.16167C20.9137 6.16167 20.9404 6.1483 20.9537 6.1483C21.0339 6.13493 21.1141 6.12157 21.1943 6.1082C21.2211 6.1082 21.2344 6.1082 21.2612 6.09484C21.3146 6.09484 21.3681 6.08147 21.4082 6.08147C21.475 6.08147 21.5419 6.0681 21.6221 6.0681C21.6622 6.0681 21.7022 6.0681 21.7423 6.0681C21.7958 6.0681 21.8626 6.0681 21.9161 6.0681C21.9562 6.0681 22.0097 6.0681 22.0498 6.08147C22.0899 6.08147 22.1433 6.09484 22.1968 6.09484C22.2503 6.09484 22.3037 6.1082 22.3572 6.1082C22.3973 6.1082 22.4507 6.12157 22.4908 6.13494C22.5443 6.1483 22.5978 6.1483 22.6646 6.16167C22.7047 6.17503 22.7448 6.17503 22.7849 6.1884C22.8517 6.20177 22.9052 6.21513 22.972 6.2285C23.0121 6.24186 23.0522 6.25523 23.0923 6.25523C23.1591 6.2686 23.226 6.29533 23.2928 6.32206C23.3195 6.33543 23.3596 6.34879 23.3864 6.34879C23.4799 6.37552 23.5601 6.41562 23.6537 6.44235C23.6671 6.44235 23.6671 6.45572 23.6804 6.45572C23.774 6.49582 23.8809 6.53592 23.9878 6.58938C24.0146 6.60275 24.0547 6.61611 24.0814 6.62948C24.1482 6.66958 24.2284 6.69631 24.2953 6.73641C24.3354 6.74977 24.3621 6.77651 24.4022 6.78987C24.4958 6.84334 24.5893 6.8968 24.6962 6.95026L105.67 55.2807C105.777 55.3475 105.884 55.4143 106.004 55.4812H106.017C106.124 55.548 106.218 55.6148 106.325 55.6816C106.365 55.7084 106.392 55.7351 106.432 55.7618C106.498 55.8153 106.565 55.8554 106.632 55.9089C106.672 55.9356 106.712 55.9757 106.752 56.0024C106.819 56.0559 106.873 56.096 106.94 56.1495C106.98 56.1896 107.033 56.2163 107.073 56.2564C107.127 56.3098 107.194 56.3499 107.247 56.4034C107.287 56.4435 107.341 56.4836 107.381 56.5237C107.434 56.5772 107.488 56.6306 107.554 56.6707C107.595 56.7108 107.648 56.7509 107.688 56.791C107.742 56.8445 107.795 56.898 107.862 56.9514C107.902 56.9915 107.942 57.0316 107.982 57.0717C108.036 57.1252 108.102 57.192 108.156 57.2588C108.196 57.2989 108.236 57.339 108.263 57.3791C108.33 57.4593 108.396 57.5262 108.477 57.6064C108.503 57.6331 108.517 57.6598 108.544 57.6866C108.637 57.7935 108.731 57.9004 108.811 58.0073C108.838 58.0341 108.851 58.0608 108.878 58.0875C108.944 58.1677 109.011 58.2479 109.065 58.3281C109.145 58.4217 109.225 58.5286 109.292 58.6355C109.305 58.6623 109.332 58.6756 109.345 58.7024C109.479 58.8761 109.599 59.0499 109.72 59.237C109.746 59.2771 109.773 59.3172 109.813 59.3707C109.853 59.4375 109.907 59.5043 109.947 59.5712C109.987 59.6246 110.027 59.6915 110.054 59.7449C110.094 59.8118 110.134 59.8786 110.188 59.9588C110.228 60.0123 110.254 60.0657 110.281 60.1325C110.375 60.3063 110.482 60.4667 110.575 60.6405C110.615 60.7073 110.642 60.7607 110.669 60.8276C110.709 60.8944 110.736 60.9612 110.776 61.0281C110.816 61.1216 110.869 61.2018 110.909 61.2954C110.923 61.3355 110.949 61.3622 110.963 61.4023C111.016 61.5226 111.07 61.6429 111.123 61.7632C111.137 61.7899 111.15 61.83 111.163 61.8568C111.203 61.9503 111.243 62.0439 111.284 62.1375C111.297 62.1776 111.324 62.2176 111.337 62.2577C111.377 62.3513 111.404 62.4315 111.444 62.5251C111.457 62.5652 111.471 62.6053 111.484 62.6454C111.524 62.7523 111.564 62.8592 111.591 62.9662C111.604 62.9929 111.604 63.0062 111.618 63.033C111.658 63.1533 111.698 63.2869 111.738 63.4072C111.751 63.4473 111.765 63.4874 111.765 63.5275C111.791 63.6211 111.818 63.7146 111.845 63.7948C111.858 63.8483 111.872 63.8884 111.885 63.9419C111.912 64.0221 111.925 64.1022 111.952 64.1824C111.965 64.2359 111.979 64.276 111.992 64.3294C112.005 64.4096 112.032 64.4898 112.045 64.5834C112.059 64.6235 112.059 64.6769 112.072 64.717C112.086 64.824 112.112 64.9175 112.126 65.0245C112.126 65.0512 112.139 65.0779 112.139 65.0913C112.152 65.2116 112.179 65.3453 112.192 65.4655C112.192 65.4923 112.206 65.5324 112.206 65.5591C112.219 65.6527 112.219 65.7462 112.233 65.8264C112.233 65.8665 112.246 65.9066 112.246 65.9467C112.246 66.0269 112.259 66.1205 112.259 66.2007C112.259 66.2408 112.259 66.2809 112.259 66.321C112.259 66.4413 112.273 66.5616 112.273 66.6685L111.734 134.539C111.734 134.659 111.734 134.779 111.721 134.9C111.721 134.94 111.721 134.967 111.721 134.993C111.721 135.074 111.707 135.154 111.707 135.234C111.707 135.274 111.694 135.327 111.694 135.368C111.681 135.434 111.681 135.501 111.667 135.568C111.667 135.622 111.654 135.662 111.641 135.715C111.627 135.782 111.614 135.835 111.614 135.889C111.601 135.942 111.587 135.996 111.587 136.049C111.574 136.103 111.56 136.156 111.547 136.21C111.534 136.276 111.52 136.33 111.507 136.383C111.494 136.423 111.48 136.477 111.467 136.517C111.44 136.584 111.427 136.651 111.4 136.718C111.387 136.758 111.373 136.798 111.36 136.824C111.32 136.945 111.266 137.052 111.213 137.159C111.173 137.239 111.133 137.319 111.093 137.399C111.079 137.413 111.079 137.426 111.066 137.453C111.026 137.519 110.999 137.573 110.959 137.64C110.946 137.653 110.932 137.68 110.919 137.693C110.879 137.747 110.852 137.8 110.812 137.854C110.799 137.88 110.785 137.894 110.758 137.92C110.718 137.974 110.678 138.014 110.638 138.054C110.625 138.068 110.611 138.094 110.598 138.108C110.545 138.161 110.491 138.228 110.438 138.281C110.424 138.295 110.411 138.295 110.411 138.308C110.357 138.348 110.317 138.402 110.264 138.442C110.251 138.455 110.224 138.468 110.21 138.495C110.17 138.535 110.117 138.562 110.077 138.602C110.063 138.616 110.037 138.629 110.023 138.642C109.956 138.682 109.89 138.722 109.823 138.763L111.066 138.602L122.431 131.4C122.498 131.36 122.564 131.32 122.631 131.28C122.645 131.267 122.671 131.253 122.685 131.24C122.725 131.213 122.778 131.173 122.818 131.133C122.832 131.12 122.859 131.106 122.872 131.08C122.925 131.039 122.965 130.999 123.019 130.946C123.032 130.933 123.046 130.933 123.046 130.919C123.099 130.866 123.153 130.812 123.206 130.745C123.219 130.732 123.233 130.705 123.246 130.692C123.286 130.652 123.326 130.598 123.366 130.558C123.38 130.532 123.393 130.518 123.42 130.491C123.46 130.438 123.5 130.385 123.527 130.331C123.54 130.318 123.554 130.291 123.567 130.278L123.58 130.264C123.62 130.211 123.647 130.157 123.674 130.09C123.687 130.077 123.687 130.064 123.701 130.037C123.741 129.957 123.781 129.877 123.821 129.796C123.821 129.796 123.821 129.796 123.821 129.783C123.874 129.676 123.914 129.569 123.968 129.449C123.968 129.436 123.981 129.422 123.981 129.422C123.995 129.395 123.995 129.369 124.008 129.342C124.035 129.275 124.048 129.208 124.075 129.141C124.075 129.115 124.088 129.101 124.088 129.088C124.102 129.061 124.102 129.035 124.115 129.008C124.128 128.954 124.142 128.888 124.155 128.834C124.155 128.807 124.168 128.781 124.182 128.754C124.182 128.727 124.195 128.7 124.195 128.674C124.209 128.62 124.222 128.567 124.222 128.513C124.222 128.487 124.235 128.46 124.235 128.433C124.235 128.406 124.249 128.366 124.249 128.34C124.262 128.286 124.262 128.246 124.275 128.192C124.275 128.166 124.289 128.139 124.289 128.112C124.289 128.072 124.302 128.032 124.302 127.992C124.302 127.952 124.315 127.898 124.315 127.858C124.315 127.845 124.315 127.818 124.315 127.805C124.315 127.751 124.329 127.685 124.329 127.618C124.329 127.591 124.329 127.551 124.329 127.524C124.329 127.511 124.329 127.511 124.329 127.497C124.329 127.391 124.342 127.284 124.342 127.177V127.163L124.516 59.5444C124.449 59.4776 124.449 59.384 124.449 59.2771Z" fill="url(#paint0_linear)"/>
<path d="M106.715 54.5537C110.354 56.6716 113.311 61.8384 113.298 66.0473L113.124 134.294C113.111 138.503 110.127 140.216 106.501 138.098L24.5618 90.4105C20.9358 88.2926 17.9654 83.1258 17.9788 78.9169L18.1527 10.6701C18.1661 6.46117 21.1499 4.74791 24.7758 6.86587L106.715 54.5537Z" fill="url(#paint1_linear)"/>
<path d="M104.637 55.2955C108.272 57.394 111.226 62.5132 111.213 66.6834L111.039 134.302C111.026 138.472 108.045 140.17 104.423 138.072L22.5691 90.8225C18.9469 88.724 15.9796 83.6048 15.993 79.4346L16.1667 11.8157C16.1801 7.64549 19.1607 5.948 22.7829 8.04648L104.637 55.2955Z" fill="url(#paint2_linear)"/>
<path d="M99.5749 58.5813C102.582 60.3189 105.042 64.5693 105.028 68.0311L104.721 115C104.707 118.461 102.235 119.865 99.2274 118.127L28.0263 77.0131C25.019 75.2756 22.5596 71.0251 22.573 67.5633L22.8804 20.595C22.8938 17.1332 25.3665 15.7297 28.3739 17.4673L99.5749 58.5813Z" fill="url(#paint3_linear)"/>
<path d="M60.6396 103.974C60.6396 106.126 59.1426 106.901 57.2713 105.725C55.4001 104.548 53.9031 101.875 53.9031 99.7499C53.9031 97.6247 55.4001 96.8227 57.2713 97.999C59.1426 99.1351 60.6396 101.808 60.6396 103.974Z" fill="url(#paint4_linear)"/>
</g>
<defs>
<linearGradient id="paint0_linear" x1="64.5316" y1="-22.1736" x2="88.3785" y2="160.499" gradientUnits="userSpaceOnUse">
<stop stop-color="#637095"/>
<stop offset="0.1986" stop-color="#57658A"/>
<stop offset="0.3997" stop-color="#49587E"/>
<stop offset="0.4344" stop-color="#58628A"/>
<stop offset="0.476368" stop-color="#5D6789"/>
<stop offset="0.509" stop-color="#465174"/>
<stop offset="0.56009" stop-color="#3A3F5B"/>
<stop offset="0.6219" stop-color="#2C3045"/>
</linearGradient>
<linearGradient id="paint1_linear" x1="7.66124" y1="72.4835" x2="135.631" y2="72.4835" gradientUnits="userSpaceOnUse">
<stop stop-color="#606E8E"/>
<stop offset="0.995" stop-color="#374569"/>
</linearGradient>
<linearGradient id="paint2_linear" x1="5.68614" y1="73.0603" x2="133.523" y2="73.0603" gradientUnits="userSpaceOnUse">
<stop stop-color="#475375"/>
<stop offset="0.3448" stop-color="#475274"/>
<stop offset="0.995" stop-color="#353E5A"/>
</linearGradient>
<linearGradient id="paint3_linear" x1="13.6444" y1="67.7998" x2="124.357" y2="67.7998" gradientUnits="userSpaceOnUse">
<stop offset="1" stop-color="#2CD8CF"/>
</linearGradient>
<linearGradient id="paint4_linear" x1="53.9196" y1="101.859" x2="60.6431" y2="101.859" gradientUnits="userSpaceOnUse">
<stop offset="1" stop-color="#2CD8CF"/>
</linearGradient>
<clipPath id="clip0">
<rect x="15" width="109.22" height="140" fill="white"/>
</clipPath>
</defs>
</svg>
