<svg width="140" height="140" viewBox="0 0 140 140" fill="none" xmlns="http://www.w3.org/2000/svg">
<g clip-path="url(#clip0)">
<path d="M133.406 67.7728C133.406 104.497 103.525 134.485 66.7029 134.485C49.9776 134.485 34.6405 128.276 22.8733 118.038C8.85846 105.752 0 87.7863 0 67.7728C0 66.65 0 65.5931 0.0661079 64.5363C0.0661079 64.2721 0.0661079 63.9419 0.132216 63.6777C0.198324 62.5548 0.264432 61.3659 0.462755 60.243C0.727187 58.1294 1.05773 56.0818 1.45437 53.9681C1.58659 53.3076 1.78491 52.5811 1.91713 51.9205C2.11545 51.0619 2.37988 50.2032 2.57821 49.4106C3.50372 46.1741 4.69366 43.0697 6.01582 40.0974C6.54468 38.9745 7.13965 37.8517 7.66852 36.7288C7.66852 36.6627 7.73463 36.5967 7.80073 36.5306C7.86684 36.3985 7.93295 36.2004 8.06516 36.0683C8.06516 36.0022 8.13127 36.0022 8.13127 35.9362C9.189 34.0207 10.2467 32.2373 11.5028 30.4539C13.1555 28.01 14.9404 25.6982 16.9236 23.5185C17.4525 22.9241 17.9814 22.3296 18.5102 21.7352C19.3035 20.8765 20.1629 20.0178 21.0223 19.2252C21.9478 18.3666 22.9394 17.5079 23.9311 16.6492C26.0465 14.8658 28.2942 13.2146 30.6741 11.6954C30.8063 11.6293 30.9385 11.5633 31.0707 11.4312C34.0456 9.5157 37.2188 7.86442 40.458 6.47734C40.7886 6.34524 41.1191 6.21314 41.3835 6.08104C41.4497 6.08104 41.5158 6.01498 41.5819 6.01498C43.6312 5.22237 45.7467 4.42976 47.8621 3.83529C48.8537 3.50504 49.8454 3.24083 50.9031 3.04268C51.2997 2.91058 51.6964 2.84453 52.1591 2.71243C56.1917 1.78771 60.3565 1.2593 64.7196 1.1272C65.0502 1.1272 65.3807 1.1272 65.7774 1.1272C66.1079 1.1272 66.4384 1.1272 66.769 1.1272C84.6842 1.1272 100.947 8.19467 112.912 19.6876C125.539 31.7749 133.406 48.8822 133.406 67.7728Z" fill="url(#paint0_radial)"/>
<path d="M38.6068 112.759V112.363L38.4746 111.901L38.6068 111.769V111.504L38.4746 111.306V110.976L38.2102 110.844L38.078 111.042V111.372L37.7474 111.769H37.6813L37.5491 112.033L37.6813 112.165L37.4169 112.429V112.759L36.9541 113.222L36.8219 113.09L36.5575 113.354L36.4253 113.684L35.9625 113.882L35.632 114.279H35.1692L35.037 114.147L34.9709 114.279H34.3759L34.1776 114.477L34.0454 114.345L33.8471 114.477H33.7148L33.8471 114.609L33.5165 114.939L33.186 115.335L33.4504 115.666L33.2521 115.798L33.3182 115.864V116.194L33.4504 116.723L33.5826 116.987V117.119V117.251V117.383L33.3843 117.977L33.2521 118.11L33.1199 118.572H33.0538L32.9215 118.704V119.034L32.6571 119.299L32.4588 119.365V119.629L32.1944 119.893V120.421L32.5249 120.818L32.4588 120.95H32.591V121.478L32.3927 121.61V122.139L32.5249 122.271L32.6571 122.403L32.7893 122.601L32.9877 122.535L33.1199 122.733L33.3843 122.997H33.7148L33.8471 122.931L33.9793 122.667L34.7726 122.601H34.9709L35.1031 122.535L35.2353 122.403L35.3675 122.205L35.4998 121.941V121.676L35.632 121.544L35.3675 121.28L35.7642 121.016V120.553H36.0947V120.487L36.2269 119.893L36.3592 119.563V119.431L36.4914 118.968L36.8219 118.638L37.0863 117.779L37.2186 117.581V117.317L37.3508 116.987L37.4169 116.789L37.6152 116.458L37.7474 115.996L37.8796 115.6L37.9457 115.468L38.0119 115.335L37.8796 115.203V114.741L38.2102 114.477V114.345L38.3424 114.213L38.078 113.948L38.2102 113.816V112.958H38.8713L39.0035 113.09L38.6068 112.759ZM23.2037 118.308L23.3359 118.44V118.374C23.2698 118.374 23.2037 118.308 23.2037 118.308ZM23.3359 118.44L23.2698 118.638L23.402 118.506L23.3359 118.44ZM40.1934 88.4526L39.9951 88.2544L40.1273 87.9242L39.929 87.726L40.0612 87.5939H39.5984L39.4662 87.726L39.2018 87.8581L38.9374 88.1223L38.8051 87.9902L38.5407 88.1223L37.8796 88.2544H37.6152L37.483 88.1223H37.3508L37.0863 88.2544H36.8219L36.5575 88.3866L36.3592 88.2544H36.293L35.6981 88.6508L35.3014 88.7829H35.1692H34.5742L34.3098 88.915H34.1115L33.9793 89.0471L33.8471 89.1792L33.4504 89.3113L33.0538 89.1792L32.9215 89.0471H32.7893L32.6571 88.7168L32.0621 88.0563L31.9299 88.1223H31.7316L30.9383 87.3297H31.7977L31.9299 87.1316H32.0621L32.1282 87.0655V86.9334L32.0621 86.8674L31.7316 86.7353H31.4672L31.2027 86.0748L31.0705 85.9427L30.9383 85.6785H30.8061L30.5417 85.4142L30.3433 85.2822L30.0789 85.018L29.7484 84.6877L29.4839 84.5556L29.3517 84.4235L29.2195 84.5556L29.0873 84.4235L28.9551 84.5556L28.8229 84.4235L28.0296 84.0932L27.8973 83.763L27.8312 83.6309L27.699 83.4988V83.3667H27.5668L27.3024 82.3759L26.9718 81.3851L26.2446 80.6586H26.6413V80.3283L26.3769 80.1962L26.0463 80.0641L25.7158 79.6017L25.5836 79.0073L25.6497 78.677L25.5836 78.3468L25.3191 77.5542V77.1579V77.0257L25.1869 76.8937L25.0547 76.7616V76.6294L24.9225 76.4973V76.2992H24.8564L24.4597 75.9689L24.1292 75.8368V75.7047H23.9309L23.5342 75.3745L23.2037 74.5819L23.3359 74.4498L23.2698 74.3837V74.2516L23.1376 74.1195L23.0054 73.7892L22.6748 73.3929L22.4104 73.2608L22.2782 72.9306L21.6171 71.9398V71.6096L21.551 71.4775L21.4849 71.1472L21.3527 71.0151V70.949L21.0221 70.6188V70.2225L21.0882 70.0904L20.5594 69.562L20.4271 69.2978L20.0305 68.7694V68.5712L19.8322 68.307V67.9107L20.2288 67.4483L20.2949 67.5144L20.1627 67.1181L19.9644 66.986L19.8322 66.7218H19.1711L18.8406 66.8539L18.7083 66.7218L18.5761 66.8539L18.3117 66.986L17.9812 67.3162H17.4523L17.1218 67.1181H17.1879L16.9234 66.986L16.7912 67.1181L16.3946 66.7878L16.1301 66.7218L15.3368 66.5897H15.0724L14.7419 66.9199L14.4774 66.2594L14.3452 66.1273L14.213 66.1934L13.4197 66.0613L13.3536 65.9952H13.2214V66.2594L12.5603 65.8631H12.4281L12.0976 65.7971L12.0314 65.8631L11.7009 65.731L11.5026 65.8631L10.9737 65.9952L10.6432 66.1273L10.511 66.2594L10.3787 66.5236L10.3126 66.5897V66.9199L10.4449 67.1181L10.5771 67.6465L10.4449 67.9767L10.0482 68.373L9.65156 68.7033L9.25491 68.8354L8.59383 68.5052L8.19719 68.1749L7.93275 68.0428L7.53611 67.9107L6.87503 67.6465H6.74281H6.14784L5.68509 67.3162L5.35455 66.5236V66.2594L5.28844 66.1273L4.82568 66.0613L4.49514 65.8631H4.03239L3.76796 65.7971L3.10688 65.8631L2.4458 65.731L2.18137 65.4668H2.04915H1.98304L1.6525 65.1365L1.5864 65.0705L1.45418 65.2026L1.12364 64.8723H1.05753L0.52867 64.5421L0.462562 64.41C0.396454 65.4668 0.396454 66.5897 0.396454 67.6465C0.396454 87.66 9.25492 105.692 23.2698 117.911V117.845L23.1376 117.515L23.2698 117.383L23.2037 117.317V116.789H23.6664H23.7325H23.7987V116.656L24.5919 116.128H24.7242L24.7903 116.062V115.93L25.1869 115.666L25.253 115.534L25.3191 115.468L25.6497 114.477L25.7158 114.675V114.411L26.1785 114.873L26.3769 114.741H26.443V114.411L26.9718 114.609L27.3024 114.411L27.3685 114.279H27.7651L28.1618 114.08V113.75H28.5584V113.618L28.6245 113.486L28.294 113.156L28.6245 112.825L28.889 112.561V112.363V112.231H28.8229L28.5584 111.967V111.637L28.2279 111.306H28.8229V111.108L28.6906 110.778L28.8229 110.646L28.7567 110.58V110.051L28.6245 109.523V109.193L28.7567 109.061L28.6245 108.928L28.889 108.664V108.598L28.8229 108.532L28.5584 108.4L28.0296 107.872L28.1618 107.541V107.475L27.9634 107.277L28.0957 107.013L28.0296 106.881L27.4346 106.286H28.2279L28.0957 106.088L28.2279 105.956L28.0957 105.824V105.296L28.2279 104.965L28.3601 104.833L28.294 104.503L28.1618 104.371V103.975L28.4262 103.578L28.6906 102.852L28.1618 102.323H29.0212L29.2856 101.861L29.4178 101.597V101.333L29.7484 101.002V100.606L29.9467 100.408V100.276L30.2111 100.012H30.4755H30.6078L30.8722 99.7474H30.9383L31.7316 98.8226V99.8134L31.8638 99.6152L31.996 99.3511L32.3266 99.0208L32.4588 98.9547L32.5249 98.8226L32.6571 98.6905L33.2521 98.03L33.4504 97.8979L34.1115 97.2374L34.442 96.9732L34.7726 96.709L35.1031 96.5769L35.4998 96.2466L36.4914 95.3219L37.0202 94.7275L37.0863 94.5293L37.7474 93.6706V93.5385L38.078 93.0101V92.7459L38.6729 91.6231V91.491V91.1607L39.0696 90.7644H39.2018L39.2679 90.6983L39.4662 90.236L39.7968 89.7736V89.6415H39.4001L40.1934 88.8489H40.0612L40.1934 88.4526ZM92.7492 101.597L92.617 101.465L92.5509 101.333L92.4187 101.2L92.2864 101.267L91.7576 101.068V100.738L91.6254 100.606L91.8898 100.54L91.5592 100.408V100.276V100.144V100.078L91.2287 100.21V100.012H90.9643L90.5015 99.5492V99.4832L89.2455 100.276L90.3032 98.8226H89.3116L89.7743 98.3603H89.6421L89.1794 97.8319V97.5677L88.9149 97.3035L88.7827 97.4356L88.3861 97.1053V97.0393L87.2622 96.5769H87.4606L86.9978 95.7843V95.5201H86.7995L86.6012 95.2559L86.2706 94.9256H86.0062L85.7417 94.6614H85.279V94.067H85.1468L85.0807 93.8028H85.0146L84.8823 93.4725H84.8163L84.4857 93.6046L84.3535 93.4725H84.2874L83.9568 93.6046L83.6263 93.4725L83.2297 93.1423L83.3619 93.4725L83.5602 93.5385L83.8907 93.9349H84.0229L84.2874 94.2651L84.4196 94.133L85.0146 94.5293L85.3451 95.0577L85.5434 95.1898H85.874V95.7182V95.8503H86.1384L86.4028 96.2466H86.4689H86.7995V96.643H86.8656L86.9317 96.9732V97.0393L87.13 97.5677V97.6337H87.2622L87.725 97.964V98.2942L87.8572 98.5584L88.1216 98.8226L88.2539 99.3511L88.6505 100.012L88.5183 100.342L88.5844 100.474L88.8488 100.606L89.2455 101.068L89.3116 101.267L89.7082 101.333V101.531L90.0388 101.663V101.861H90.171L90.5015 102.257L91.0304 102.588V102.72H91.2948L91.8898 103.314H92.2203L92.2864 102.984L92.7492 103.116L92.8814 102.72L92.7492 102.389L92.8814 102.059L92.8153 101.993L92.7492 101.597ZM106.5 102.786L106.367 102.918V103.182L106.235 103.38V103.578H106.367V103.182L106.5 103.05V102.918V102.852V102.786ZM108.615 102.654V102.522H108.483L108.351 101.993H108.152L108.417 101.663L108.285 101.333L108.02 101.068L107.888 100.87L107.623 100.672V100.408L107.293 100.276L107.095 100.21L106.764 99.8795L106.5 99.5492L106.367 99.7474H106.235L106.367 100.012L106.235 100.276V100.606L106.169 100.738V101.002L106.037 101.134V101.465L105.706 101.597V101.927H106.301V102.389L106.5 102.786L106.764 102.257L106.698 102.125L106.566 101.861V101.531L106.896 101.333L107.028 101.2L107.557 101.002L107.888 101.333L108.086 101.663V102.125L107.954 102.257L108.086 102.389L108.483 102.588V103.05L108.615 102.918H108.813L108.615 102.654ZM103.723 94.067H103.855V93.4725L104.45 93.9349V93.4064L104.186 93.0762H104.12H103.789V92.6138L103.525 92.2836L103.393 92.4157H103.26V92.5478H103.128L102.996 92.812V93.0762L102.467 93.6046L102.335 93.9349H102.137H102.004L101.343 95.0577V93.9349L101.013 94.0009V94.067V94.3312L100.55 94.7935L100.285 95.1238V95.2559L100.021 95.6522L99.6905 95.9164L99.0955 96.0485L99.7566 97.0393L98.6989 96.5108V96.7751L98.5006 96.643V96.9072L98.3684 97.2374V97.6337L97.509 97.5016L97.1784 97.3035H96.7818L96.6496 97.0393L96.5173 97.3695L96.3851 97.5016V97.6998V97.8979V98.0961L96.5173 98.3603L96.7818 98.6245H96.8479L98.8311 97.6337L97.1784 99.3511L97.3767 99.6152L97.509 99.8134V100.276L97.3767 100.408L97.509 100.474V101.134L97.7734 100.936L97.9056 101.267H98.0378L98.17 101.399L98.4345 101.267H98.5006L98.8311 100.804L99.1617 101.465V101.795L99.36 101.663L99.4922 101.795L99.6905 101.729L99.7566 101.465H100.285L100.418 101.597H100.682L100.814 101.399L101.145 101.861L101.409 101.729L101.475 101.927H101.608L101.938 102.323L101.806 102.389L102.004 102.323H102.203L102.401 102.191L102.533 101.861V101.2L101.608 101.597L102.599 100.606L102.203 100.21H102.996L103.128 100.078L102.269 99.5492H103.393V99.4171L103.723 99.1529V98.6905L103.855 98.5584V98.03H103.988L104.252 97.6998L104.12 96.9732L103.723 96.7751L104.318 96.3787L104.054 96.1145V95.9164L103.723 95.6522L103.988 95.3219L103.789 94.9256L103.855 94.8596L103.393 94.7275L103.988 94.3972L103.723 94.067ZM113.044 101.927H112.912H113.11H113.044ZM108.615 99.7474H108.483L108.218 99.8134L108.086 99.6813L108.02 99.7474L107.888 100.012H108.086L108.218 99.8795L108.615 99.7474ZM107.822 97.8319L107.69 97.6337L107.425 97.8979H107.491H107.623L107.888 97.8319H107.822ZM90.3032 97.3695L90.3693 97.3035V97.2374L90.3032 97.3695ZM90.5015 96.709L90.3693 96.5769V96.4448L90.2371 96.3127L90.1049 96.0485L89.5099 95.454L89.9066 95.1898V94.9256L89.7743 94.7935V94.3312L89.9066 94.1991V93.6706V93.5385L89.7743 93.2743L89.1133 92.6138H88.4522V92.4157L88.32 92.3496L88.1877 92.0194V91.8873H87.8572L87.5928 92.1515L86.9317 91.491L86.6012 91.4249V90.7644L86.9978 90.6323L86.8656 90.5002V90.236H86.7334L86.6012 90.0378L86.3367 89.7736V89.6415L85.6757 89.7736L85.3451 89.4434L85.4773 89.1792L85.3451 88.981V88.8489L85.279 88.6508L85.1468 89.0471L85.279 89.1792L85.1468 89.3113H85.279V90.1039L85.6095 89.9718V90.4341L85.7417 90.5662V90.6983L85.874 90.7644L85.9401 91.0286H86.0062L86.3367 91.4249L86.4689 91.491L86.535 91.6231H86.7334V92.0194L86.9978 92.1515L87.13 92.2836L87.3944 92.6799L87.5267 93.4725L87.5928 93.6706L87.725 94.0009L87.5928 94.5293L87.9233 94.8596L87.7911 94.9917L87.9233 95.1238L88.0555 95.3219L88.32 95.454L88.5844 95.9824L88.4522 96.1145L88.981 96.7751L89.3116 96.643L89.4438 96.7751H89.9727L89.6421 97.0393L89.8404 97.2374L90.171 97.3035L90.3032 97.3695V97.1053L90.6337 97.4356V97.2374L90.5015 96.709ZM88.32 96.1145L88.1216 96.3127L88.0555 96.5769H88.3861L88.32 96.1145ZM87.5928 96.4448L87.4606 96.5769H87.725L87.5928 96.4448ZM110.797 91.8873V91.9533L110.863 92.1515H111.127L111.326 92.2836L110.797 91.8873ZM69.5453 91.2928V91.1607L69.2809 90.6323V90.5662H69.0165V90.4341H68.2232L68.1571 90.7644V90.9625L68.2893 91.2928L68.2232 91.4249L68.3554 91.7552L68.4876 92.2836H68.6859L68.8181 92.2175H69.2809L69.4131 92.1515L69.5453 92.0194L69.6775 91.7552L69.5453 91.2928ZM112.185 90.3681L112.053 89.9057L112.185 89.6415L112.053 89.5094V90.1699L111.722 89.9057L111.458 90.236L111.326 90.1039V90.236L110.731 90.5662L110.4 90.6983L110.731 91.0286L111.326 92.1515L111.458 92.0194L111.259 91.8873L111.392 91.491L111.722 90.8965L112.185 90.7644V90.3681ZM109.739 90.236V90.3681L109.805 90.236H109.739ZM68.5537 89.9718V89.5755H68.4215V89.9057H68.2232V90.236L68.6198 89.9718H68.5537ZM24.7903 18.7026L24.6581 18.6365V18.7686L24.9886 18.8347L24.7903 18.7026ZM25.4514 17.3815V17.2494L25.3191 17.1834L24.9886 16.8531V16.655L24.6581 16.5889L24.3936 16.655L24.6581 17.0513V17.1834L24.9225 17.4476L24.6581 17.7118L24.7903 18.042L24.5258 18.1081V18.4384V18.5044L24.7242 18.5705V18.1081L24.8564 17.976L24.7903 17.9099L25.1869 17.5136H25.4514V17.3815ZM114.895 39.971L115.16 39.7068V39.6408L115.028 39.4426V39.1784H114.961L114.829 38.3858L114.697 38.2537V37.9235L114.499 37.7253L114.3 37.2629L114.366 37.1969H114.3L114.036 36.3382V36.1401L113.97 36.008L113.838 35.4135L113.904 35.3475L113.772 34.9511L113.838 34.819L113.705 34.6869L113.838 34.5548L113.705 34.4227L113.573 34.0925L113.441 34.0264L113.11 33.6962V33.2338L113.177 33.1678L113.11 33.0357H112.846L112.317 32.5073L112.582 32.2431V32.1109V31.9788H112.449L112.317 31.7807H112.185L112.053 31.6486L111.59 31.4504L111.524 31.3844L111.259 31.2523L111.061 31.0541L110.995 30.922H110.664L110.598 30.856L110.532 30.922H110.4L110.532 31.0541H110.334V31.3183H110.202L110.069 31.5825V31.6486L109.937 31.7807L110.069 31.9128L109.937 32.2431L109.276 32.9036V32.6394L108.747 32.7715L108.615 32.6394V32.7054L107.822 32.0449L107.954 31.7146V31.5825L107.69 31.2523V30.7899L107.491 30.856L107.227 31.1202H106.764L106.632 30.9881L106.5 31.0541L106.037 30.856L105.839 30.3936L106.103 29.7992L106.235 29.601V29.3368L106.5 29.0726V28.7423L106.764 28.5442V28.2139L106.896 28.0818V28.0158L107.161 27.6855L107.293 27.4213L107.425 27.2892L107.293 27.0911L107.425 26.959V26.6947L107.557 25.9021H107.69L107.756 25.5719H107.822V25.5058L108.152 25.1095L108.285 24.8453L108.417 24.7132L108.285 24.383L108.417 24.2509V24.0527L108.549 23.9206L108.483 23.7885V23.3922L108.351 23.0619L108.681 22.5996L108.88 22.3354V22.2033L108.615 21.807L108.747 21.4107L108.946 21.2125L109.078 20.9483L109.408 20.6841L109.541 20.3538H110.069V20.4199L110.334 20.2217H110.598L110.863 20.0236H111.259L111.458 19.8254H111.788L111.92 19.4952L112.383 19.6933L112.846 19.4952L113.177 19.6273C101.211 8.13437 84.9485 1.06689 67.0332 1.06689C66.7027 1.06689 66.3721 1.06689 66.0416 1.06689L65.7772 1.3311H65.5788L64.455 2.45397L64.9839 1.13295C60.6869 1.26505 56.5221 1.79346 52.4234 2.71817L53.1506 2.91633H51.2334C50.2418 3.18053 49.1841 3.44474 48.1925 3.70894L48.3908 4.0392V4.3034H48.4569L48.5891 4.69971L48.7213 4.76576H48.8535L49.3824 4.83181L50.0435 4.1713V4.89786L50.1757 5.09602L50.3079 5.22812L50.4401 5.36022H50.8368L51.1673 5.55837H51.2334L51.6301 5.95468L51.7623 6.61519L51.8945 6.94545L51.8284 7.07755L52.0928 7.20965L52.4895 7.80411V8.13437L52.7539 8.33253L52.8861 8.72883L52.7539 9.12514H52.82V9.25724L53.3489 9.78565L53.415 9.8517L53.4811 9.78565L53.7455 9.91775L53.9439 9.78565L54.9355 9.52145L54.671 9.8517L54.8033 9.9838L54.9355 10.0499H55.3321L55.9271 11.8332L54.8694 10.7764H54.6049L54.2083 10.4462V10.7764V10.8425L54.8694 12.4937L53.4811 11.1067H53.1506L52.7539 10.7104V10.3801L52.4895 10.3141H52.0928L51.4318 9.91775H50.9029L50.7707 8.92699L50.9029 8.66278L50.5724 8.39858V8.00227L50.4401 7.67201L50.7707 7.40781V7.1436L50.6385 6.8794L50.5062 6.7473L50.3079 6.8794L49.6468 7.0115H49.2502L48.8535 6.61519L48.5891 6.48309L48.523 6.35099L48.0603 6.28494L47.7297 5.95468L47.5975 5.82258H46.8703L47.2009 5.95468L47.5975 6.61519L47.267 7.27571L46.8042 7.40781L46.2092 7.1436L46.077 7.07755L46.0109 6.8794H45.9448L45.8126 7.0115L45.7465 7.07755H45.8787L46.0109 7.40781L46.1431 7.53991H46.4737L46.7381 7.80411H47.0025L47.0686 7.73806H47.4653L47.5975 7.93622H47.928L48.0603 8.33253L48.1264 8.39858V8.53068H48.2586L49.8452 7.87017L48.4569 9.25724L48.7874 10.0499L47.9941 9.25724H47.7297L47.1347 8.86093H46.8042L46.3414 9.32329L46.2092 8.86093H46.077H45.5482L45.3498 8.72883L45.0193 8.86093L44.6888 8.06832L44.8871 8.00227L44.7549 7.87017V7.80411L44.5565 7.53991L44.4243 7.20965L44.0938 7.53991L44.1599 7.60596L44.226 8.39858L44.0938 8.79488L44.3582 8.92699L44.8871 9.38934V9.52145H45.0193L45.3498 9.8517L45.6804 10.3801L45.6143 11.1727V11.3048L45.8126 11.6351L45.6804 12.0974V12.1635L46.0109 12.4937L46.1431 12.824L46.2753 12.758L46.5398 12.824V12.758L46.9364 12.3616L47.267 12.4937L47.5314 12.3616L47.8619 12.5598L48.1925 12.4277L48.3247 12.824L48.5891 12.9561H49.0519L49.4485 13.4185V13.4845L49.6468 13.6166L49.7791 13.8808L49.9113 14.0129L49.9774 14.145L50.8368 14.4753L49.9113 14.8716L50.0435 15.0037L50.3079 15.2679L50.2418 15.4V15.5321L50.5724 15.0697L50.7046 15.4661H50.8368L51.2995 15.9284L50.9029 16.2587L50.5724 16.3908L50.3079 16.5229L49.9113 16.655L49.5807 16.3908H49.3163L48.7874 15.8624L48.9197 15.7303V15.5982L48.7874 15.4661L48.3908 15.3339L48.523 15.0037H48.3908L48.2586 14.6734L47.8619 14.4092V14.145L47.6636 14.3432L47.3992 14.4753L47.267 14.6074L47.1347 14.7395L47.2009 15.0697V15.1358L47.5975 15.3339L47.928 16.3247L47.7958 16.655L47.5314 16.9852V17.1173L47.7958 17.4476L47.5314 18.042V18.3063L47.267 18.5705V18.9007L46.9364 19.0328V19.3631L46.4737 19.7594L45.8787 19.6273L45.8126 19.5612H45.6804L45.2837 19.6933L44.9532 19.4952L44.1599 19.3631L43.8955 19.0989L43.7632 19.4291L43.4327 19.0989H42.7716L43.5649 18.1741H43.9616L44.3582 18.1081L44.5565 17.9099L45.1515 18.2402L45.2176 18.1741H45.7465V17.8439L46.077 17.976V17.7778L45.6804 17.3815L46.1431 17.1834V17.0513L46.0109 16.9192L46.1431 16.5889V16.4568L46.2753 16.3247L46.077 16.1266L45.9448 15.5982L46.077 15.2679V14.9376L45.8126 14.8055L45.7465 14.6074L45.4159 14.5413L44.9532 13.8808L44.8871 13.5506L44.7549 13.4185V13.2864H44.6226L44.4904 12.824L44.5565 12.5598L44.2921 12.1635V11.9653L44.0277 11.7011V11.503L43.8955 11.3709L43.7632 10.7104V10.5783L43.4988 10.3141V10.1159L43.1683 10.248V9.91775L43.0361 9.8517L42.9699 9.38934L42.7716 9.19119L42.5733 8.72883L42.7716 8.53068L42.6394 8.20042L42.7716 8.06832V7.93622L42.9038 7.40781L42.8377 7.1436V6.8794L42.7055 6.7473V6.41704L42.5733 6.08678L42.1105 5.88863H42.0444L41.9122 6.02073C41.5817 6.15284 41.2511 6.28494 40.9867 6.41704L40.7223 6.68124V6.81335L40.7884 6.8794V7.20965L40.8545 7.40781L40.9867 8.20042V8.33253L41.2511 8.59673L40.9867 8.92699V9.05909L41.1189 9.38934L40.7223 9.78565L40.3917 10.248L40.5239 10.6443L40.3917 10.7764L40.5901 10.9746L40.7223 11.1727H40.9867L42.4411 12.6259L41.2511 12.1635V12.6259L40.9867 12.824L41.0528 12.9561L41.3172 13.0882V13.1543L41.4495 13.2203H41.78L41.8461 13.2864L42.0444 13.0222L42.4411 13.4185V13.7487H42.5733L43.0361 14.2771L43.1683 14.2111H43.2344L43.3666 14.3432H44.226L43.5649 15.0037V15.4661L43.6971 15.6642L43.5649 15.7963V16.4568L42.7716 16.1266L42.5072 15.5982L42.375 15.4661H41.9783L41.8461 15.1358L41.78 15.0697L41.3172 15.0037L40.7884 14.6734L40.3256 14.5413L40.2595 14.4092H39.929L39.7968 14.2771L39.334 14.7395L39.0035 14.0129L38.6068 13.8808L38.3424 13.7487L37.6813 13.6166L36.888 13.7487L36.7558 13.6827L36.5575 13.8148L36.4253 13.7487L36.293 13.8148V13.8808V14.3432H36.3592V14.4753H36.5575L36.888 15.0037V15.0697H36.9541L38.2102 16.3247L36.7558 15.8624V15.9945L36.4914 16.1266L36.6236 16.2587L36.4914 16.1926V16.4568L36.2269 16.721H35.3675L35.1031 16.1926L35.2353 15.9945L35.1031 15.6642L35.2353 15.5321H35.1031L34.9048 15.6642L34.8387 15.7303V16.1266H34.1776V16.1926L33.7148 16.3908H33.1199H33.0538L32.9215 16.5229L32.7893 16.3908L32.6571 16.5229L32.7893 16.5889L32.591 16.7871L32.7232 16.9192L32.2605 17.3815L31.8638 17.2494L31.2027 18.9007V17.5136L31.1366 17.5797L30.6078 17.3155L30.5417 17.1834L29.8806 17.5797L29.4178 17.1173L29.4839 17.0513V16.7871L29.0873 16.9192H29.0212L28.6906 17.3815L28.5584 17.4476L28.1618 17.9099L28.4262 18.5705L27.4346 18.4384H27.1702V18.7686L28.6245 18.5044L26.9718 19.4952L26.8396 19.6273H26.6413L26.3108 19.9575L26.1785 19.6933H25.7158L25.253 19.0328L24.9225 18.7686H24.8564L25.1869 19.0989L25.1208 19.297L25.253 19.4291L25.1208 19.4952L24.9886 19.8254V20.3538V20.4199L25.3191 21.873L24.3275 20.8822L23.997 20.7501L22.9392 21.807L23.4681 20.4859L23.2037 20.552L23.0054 20.3538V20.7501L21.8815 21.5428L22.3443 20.4199L22.4104 20.2217V19.9575L22.0798 19.6273L22.0137 19.4291L21.8815 19.297L21.8154 19.231V19.4291L21.3527 19.0989C20.4933 19.8915 19.6339 20.7501 18.8406 21.6088H18.9067L19.0389 21.6749L19.3694 21.5428L19.7 21.873L19.9644 21.9391L20.4271 22.0051L20.7577 21.9391L20.8899 21.807H21.2204L21.3527 21.7409L21.8815 21.6088V22.0712V22.2033L22.2782 22.5996L22.6748 23.2601L22.2121 23.7224L21.8154 23.9867L21.551 24.6472L21.0221 24.0527L20.7577 23.9206V24.1188L20.8899 24.1848V25.1095L20.6255 25.3737H20.4271L20.2288 25.5719H19.8322L19.6339 25.3737H19.3694L19.2372 25.2416H18.9067L18.6422 24.9774V24.8453H18.5761L18.51 25.0435L17.8489 24.6472L17.1879 24.8453L17.5184 24.0527L17.4523 23.9206V23.7885L17.1879 23.5903V23.4582C15.2707 25.6379 13.4197 27.9497 11.767 30.3936V30.4597L12.0976 30.7899L12.4281 30.6578H12.4942L12.8908 30.2615L13.1553 30.5257L13.2875 30.3936H13.2214C13.2214 30.3276 13.2875 30.2615 13.2875 30.2615L13.5519 29.9313L13.9486 30.3936V30.5257L14.0147 30.6578H14.4774L14.9402 31.1202L14.6758 31.7807L14.3452 31.6486V31.7146L14.213 31.8467L14.4113 31.9788L13.9486 32.177V32.6394L13.618 32.3091L13.5519 32.4412V32.7715H12.1637L11.8992 32.6394H11.5687L11.4365 32.5733L11.1059 32.6394L10.7093 32.7715L10.5771 32.6394L10.3126 32.7715L10.1804 33.1017H10.3126L10.0482 33.7622L10.3787 33.432L10.7093 34.2246L10.5771 34.819V35.2154L10.7093 35.6777L10.5771 36.074L10.2465 36.7345H9.71767L9.38713 36.4043L9.25491 36.1401L8.92437 35.7438L8.79216 35.8098L8.65994 35.9419H8.39551H8.3294H8.26329V36.7345L7.99886 36.4703L7.86665 36.6024V37.0648L7.73443 37.1308V37.2629L7.86665 37.395V37.8574V37.9235L8.06497 37.8574L8.39551 38.3198H8.46162L8.92437 38.1877L9.1888 38.4519L9.32102 38.65L9.58545 38.9142L9.45324 39.2445L9.58545 39.8389L8.13108 39.971L7.13946 39.905L6.74281 40.2352L6.28006 40.3673L6.14784 40.2352C4.75958 43.2075 3.63574 46.378 2.71023 49.5485L3.37131 49.8127V50.209L3.76796 49.8127H4.29682L4.42904 50.1429L4.69347 50.4732L4.82568 50.7374L4.9579 50.8695L5.09012 51.0016H5.22233L6.34617 52.1245H6.47838L6.80892 52.2566L7.60221 53.0492L7.73443 52.9171L8.13108 53.3794L8.39551 53.5115L8.85826 54.0399L8.92437 54.172L9.05659 54.2381L9.51934 54.6344L9.32102 55.0968H8.99048L8.92437 55.427L9.05659 55.7573L8.99048 55.9554L9.05659 56.1536H9.25491L9.51934 56.682L9.84988 56.8141V57.1443L10.1143 57.2765L10.2465 57.4086H10.511V57.7388L10.6432 58.003H10.7754L10.9076 57.937L10.5771 57.7388L10.9737 57.3425L10.4449 56.8141L10.6432 56.6159L10.5771 56.2857L10.7093 55.8233L11.3704 55.5591L11.5026 55.8894L11.767 55.6252L12.0314 55.7573L12.0976 55.5591L12.6264 55.2949L12.8908 55.5591V55.2949H13.5519L13.6841 55.4931H13.8825L14.3452 55.6252V55.7573L14.4774 55.6252L14.7419 55.8894L15.2707 55.427V55.4931L15.6013 55.361H15.8657L15.9979 55.2289L15.6674 54.8986L15.5352 54.5683L15.4029 54.4362L14.7419 53.6436H15.2046L15.4029 53.5115H15.4691L15.3368 52.9831L15.7996 52.5868H15.8657V52.4547V51.9924L15.7335 51.7282L15.8657 51.4639V51.3318L15.7335 51.0016L15.9318 50.8034L16.064 50.4732H16.5268H16.5929V50.4071L16.3946 50.209L16.659 49.9448V48.8219H17.3862V48.4916L17.8489 48.3595H17.9812L18.3117 48.0293L18.5761 48.2935L18.8406 48.0293L19.1711 48.3595H19.3033L19.4355 48.8219L19.5677 48.8879L19.7 48.8219L19.9644 48.954L20.0966 48.6237L20.2949 48.8219L20.4933 48.6237L20.6916 48.7558L20.8238 48.6237L21.1543 48.7558L21.3527 48.6898L21.551 48.4256L21.3527 47.8311H22.4765L22.5426 47.9632H22.6748L22.9392 48.0953L23.0715 47.9632H23.3359L23.402 47.8972L23.5342 47.5669H23.7987V47.5009L24.0631 47.2367H24.3936L24.5919 47.1046H25.0547H25.1208L25.253 46.9725L25.7819 46.8404L26.1785 47.2367L25.9802 47.7651L25.5175 47.9632L25.1869 48.4916L25.3852 48.5577V48.954L24.8564 49.4824L24.9886 49.6145L24.7242 50.4071L24.4597 50.275L24.5919 50.4071V50.6053L24.9225 50.5392L25.3852 50.8034L25.6497 50.9355L26.3108 51.4639L26.3769 51.596L26.5091 51.6621L26.6413 51.7942H26.7735H27.104L27.2363 51.9263H27.3685H27.5007L27.7651 52.1905H27.8312L27.9634 52.0584L28.5584 52.5208H28.6906L29.0212 52.9831L29.1534 53.2473L29.2195 53.5776L29.55 54.0399L29.0873 54.2381L29.2195 54.4362L28.9551 54.7005L28.8229 54.9647L28.4923 55.2949L28.2279 55.427L28.0957 55.7573H27.7651V55.8233L27.104 55.6912L27.0379 55.6252H26.2446H26.1785H25.7819L25.3191 55.8894L24.7903 55.7573L24.2614 55.427L23.997 55.2949L23.7987 55.1628L23.6664 55.2949L23.2037 55.0968L22.8731 54.7665V54.7005L22.6087 54.9647L22.4765 54.8326L22.3443 54.9647L21.6832 54.3041H21.2204L21.1543 54.2381L21.0221 54.3041H20.4933L20.4271 54.4362L19.8983 54.7005H19.6339H19.5016L19.4355 54.8326L19.1711 54.9647L18.9728 55.1628L18.8406 55.361V55.6252H18.1134L17.6506 55.4931L17.1879 55.9554H17.0556L17.1879 56.0875L16.3946 56.4178H15.8657L15.7335 56.3517L15.3368 56.4838L15.2046 56.1536L15.0724 56.4838V56.5499L15.1385 56.6159H15.2046H16.1962L15.5352 57.2765L15.6013 57.4086L15.9318 57.2765V57.937H17.3201L15.6674 58.5975V58.7296L15.7996 58.6635L16.2624 58.8617L16.5268 59.3901L16.3946 59.5222L16.5929 59.7203L16.7251 59.5882V59.8524H17.3862L17.1879 60.0506H17.8489V60.513L17.9812 60.579L18.1134 60.4469H18.2456L18.3778 60.3148H18.4439L18.3117 59.9846L19.105 59.7864L19.5016 59.9185L19.9644 60.1166H20.2949L20.6916 60.579L20.8238 60.7111L21.6171 60.6451L21.8815 60.513H21.9476V60.4469L22.5426 59.7864H22.8731L23.2698 60.0506L23.6664 59.6543L24.3275 59.9185V60.3809L23.997 60.7111L24.2614 60.9753L23.997 61.2395L24.1953 61.5698L24.3275 61.9661L24.1953 62.2303V62.6266L24.0631 63.0229L23.9309 63.8155L23.5342 64.2779V64.476L23.2037 64.8063L23.1376 65.4668L22.807 66.0613L22.5426 66.3915L22.4104 66.7218L21.9476 66.8539L21.2866 66.7218L20.7577 66.8539V67.8446L20.8899 67.9767V68.0428L21.2204 68.373V68.7033L21.4849 68.8354L21.6171 69.1657L21.9476 69.4959L22.0798 69.2317V68.9675L22.3443 68.307L22.4765 68.1749L23.1376 66.4576V68.241L23.0054 68.4391V69.0996L23.7987 69.4299L23.5342 69.6941L23.8648 70.0243L23.9309 70.2225L24.0631 70.3546L24.1953 70.5527L24.5258 71.3454V71.6756L24.7242 71.8077L24.8564 72.0719L25.1208 72.204L25.3191 72.6664L25.5836 72.7985L25.7819 73.3929L26.1785 73.7892L26.5091 74.0534L26.7735 74.3837V74.4498H27.104L27.2363 74.78L27.3685 74.9121L27.5007 75.2424L27.699 75.4405L27.7651 75.5726L27.8973 75.7047L27.7651 76.2992L27.8973 76.6294L27.9634 76.9597L28.6906 77.6863H28.8229H29.1534L29.2856 77.9505L29.6823 78.2807V78.4128L30.0128 78.5449L29.8806 78.8752L30.0789 79.5357L30.3433 79.6678V79.9981L30.8722 80.5265H31.1366L31.2688 81.0549L31.5994 81.1209L31.8638 81.7814L31.996 82.0456L32.1282 82.6401V83.2346H31.996L32.1282 83.4327L32.1944 84.2914L32.4588 84.5556V85.2161L32.6571 85.4142V85.5464L32.9877 85.6785L33.2521 85.4142H33.7148L33.9132 85.15V85.018L34.3098 84.6216H34.7726L34.9048 84.7537H35.1692L35.3014 84.8858L35.632 84.7537L35.8964 84.6877L36.4253 84.2914H36.9541L37.2186 84.0272L37.3508 84.1593L37.6152 83.763L37.9457 83.6309H38.078L39.0035 83.3006L39.1357 83.1685L39.7968 83.0364L40.1273 82.9043L40.3917 82.6401H40.5901L40.7223 82.2438L41.1189 81.7814L41.5817 81.6493H41.7139L41.9783 81.3851L42.1105 81.5172V81.3851H42.3089L42.6394 81.187H42.9038L43.1683 81.0549L43.3005 81.1209V80.6586L43.631 80.3283H43.7632L44.0938 80.1962V79.9981L44.5565 79.4036L45.0193 79.2054L45.0854 79.2715H45.2837V79.1394H45.0193L45.2837 78.5449L45.0193 78.2807H45.3498L45.8787 76.8937V78.0165L46.0109 77.8844L46.1431 78.0165L46.2092 77.8844L46.4737 77.6202L46.8042 77.1579V77.0257V76.8937V76.7616H46.7381L46.2753 76.4313L46.1431 76.1671L45.8787 75.9029L45.7465 75.5726L45.6143 75.3745H44.6226L44.3582 75.5066L43.8293 75.3745L43.6971 75.5066L43.2344 75.3084L42.6394 74.78L42.5072 74.6479L42.1105 74.1855L41.9783 73.525L41.8461 73.3929L41.3172 73.9213L41.5817 74.1855L40.9206 74.8461V74.9782H40.6562L40.3256 75.1103H39.929L39.7968 74.9782H39.6646L39.4001 74.9121L39.0035 75.2424L38.6729 75.1103H38.5407L38.0119 75.3084L37.8796 74.78H37.7474L37.6152 74.4498H37.6813V74.1855L37.4169 74.4498L36.9541 73.9874L36.8219 73.7232L36.293 73.1287L35.8303 72.0059L35.6981 71.8738L35.3014 71.4775L34.9709 71.3454L34.7065 70.6848L34.6404 70.5527L34.5081 70.4206L33.7809 69.6941H34.0454L33.2521 69.1657L34.2437 69.0336V68.9015V68.6373V68.5052L33.2521 68.1088H34.442L35.037 67.5144V68.0428H35.1692L35.3014 68.1749L35.5659 67.9107L35.6981 68.1749L35.8964 67.9767L36.2269 68.307L36.5575 68.6373V68.7694L36.888 69.1657L36.9541 69.2978H37.0202L37.1524 69.4959H37.9457L38.0119 69.562L38.2102 69.3638L38.4746 70.0243L38.6729 70.5527L39.0035 70.4867L39.4001 70.6188H39.7307L39.8629 70.7509H40.0612L40.4578 71.1472L40.3917 71.2132L40.6562 71.3454H40.9206L41.185 71.4775L41.4495 71.3454L41.9122 71.4775L42.1767 71.6096L42.3089 71.4775L42.7716 71.1472H42.9699L43.1683 71.0151L43.4988 70.883L44.1599 71.0151H44.2921V71.1472L44.4243 71.4114L44.5565 71.7417L44.821 72.138V72.2701H45.5482L45.6143 72.3361L45.6804 72.2701H46.0109L46.2753 72.4682L46.7381 72.4022L47.0025 72.5343H47.5314H47.5975L47.7297 72.4022L47.8619 72.4682L47.7958 72.3361H48.3247L48.4569 72.6664H48.523L48.7213 72.7324L48.8535 72.6003H49.4485V72.7324H49.5807L49.7791 72.6003H50.2418V72.4682L50.5724 72.138L50.7046 72.204H51.1673L51.2995 72.3361H51.4979L51.564 72.4022L51.6962 72.2701H52.225L52.3573 72.3361L52.4895 72.2701H52.6217L52.8861 72.0059L53.1506 72.2701H53.2167L53.3489 72.204H53.8116L54.1422 72.5343L54.2744 72.8645H54.6049L55.0677 72.7324V73.2608L55.1999 73.3929L55.3321 73.7232L55.4643 73.8553L55.5304 73.9874H55.7949L56.1254 74.1855L56.3237 74.0534L56.6543 73.9213L56.9187 74.5158L56.7865 74.5819L56.7204 74.6479L56.9187 74.9121L57.5137 75.1103L57.8442 74.9121V74.6479H58.8358L58.5053 75.4405H57.3815L57.1831 75.7047H57.4476L57.3154 75.8368V75.9689V76.2992L57.5798 76.5634L58.307 77.0918H58.4392H58.5714L59.1003 76.7616L59.2325 76.6294L59.4308 76.2992V76.2331L59.1664 75.9689L59.4969 75.4405V73.525L60.0919 74.9782H60.2241L60.3563 75.1103L61.8107 74.5158L60.4224 75.9029L62.2073 76.6294H60.2902V76.7616L60.3563 76.8276L60.4885 77.1579V77.4881L60.4224 77.6202L61.1496 77.9505L60.4885 78.2807L60.753 78.8752V79.1394L60.8852 79.4697L60.753 79.6017L61.2818 80.3944H60.9513V80.5265L61.2818 81.3191V81.8475L61.4141 82.1117L61.6785 82.2438L61.8107 82.5741L61.9429 82.7062V82.8383V82.9704H62.0751V83.1685L62.1412 83.2346H62.4057V83.829L62.5379 84.1593L62.604 84.4235L62.8023 84.8858L62.9345 85.15L63.0006 85.4803L63.0667 85.5464L63.199 85.8106L63.3312 85.9427H63.4634L63.7939 86.339L64.1245 86.7353L64.2567 87.0655H64.3889V87.5279L64.5872 87.8581L64.7194 88.3205V88.6508L65.05 89.2452L65.2483 89.4434L65.5127 89.1792L65.645 88.8489L66.1077 88.5187H66.2399L66.3721 88.3866L66.4383 88.2544L66.7027 87.726L67.1654 87.5939L67.0993 86.9995L66.9671 86.7353V86.0087L67.2315 85.5464L67.3638 85.018V84.6877L67.0993 84.5556V83.5648L66.9671 83.1685L67.1654 82.9704L67.0332 82.5741L67.1654 82.2438L67.6282 81.7814H68.091V81.6493L68.4876 81.253L68.9504 81.3851L69.0826 81.253L69.0165 81.1209L69.1487 80.7246L69.4792 80.3944L69.8098 80.3283L69.942 80.1962L70.0742 79.932L70.9997 79.2054L71.198 78.8091L71.3302 78.677L71.5947 77.9505H71.9913L72.1896 77.8184H72.5202L72.6524 77.9505H72.7846L72.9168 77.8184L72.5863 77.4881H73.2474V77.4221L73.3135 77.356V77.5542V77.4221L73.1151 77.2239L73.3796 76.5634L73.5779 76.3652L74.1729 76.1671L74.239 76.101V75.9029V75.3745H74.834L75.1645 75.5066V75.2424L75.6934 75.7708H75.8917L76.2222 75.4405L76.1561 75.3084H76.4205L77.2138 74.5158L77.8749 74.3837L77.941 74.5158L78.0071 74.5819H78.1393L78.2716 74.714L78.4038 74.78H78.536L78.6682 74.714L78.6021 74.78H78.8665L79.1971 75.5726L79.3293 75.7047V75.7708L79.4615 75.6387V76.6294L79.5937 76.7616L79.7259 76.9597H79.8582V77.0257L80.1887 77.1579V76.8937L80.4531 77.1579H81.3125L79.9904 77.5542H80.0565L80.1226 77.6202L80.387 77.7523L80.7176 78.1486V78.611L80.8498 78.7431V79.0733L80.982 79.4036V79.5357L81.5108 79.7339L81.3125 79.932V80.3944L81.4447 80.6586L81.7092 79.866V80.9888L81.7753 81.0549L81.7092 81.1209V81.9135L81.8414 82.1777H81.9736L82.1719 82.0456L82.3042 81.6493L82.1719 81.3851H82.833V81.187L81.8414 80.1962L83.7585 80.9888V81.1209L83.8907 81.253L84.0891 81.5833L84.1552 81.6493L84.684 81.1209V82.0456V82.1117V82.4419L84.7501 82.508L84.8163 83.0364V83.4988L85.4773 84.1593H83.7585V84.2914L84.1552 84.6877L84.2874 84.8858L84.4196 85.018L84.5518 85.6124L84.6179 85.6785L84.8163 86.1408L84.684 86.2729V86.339V86.4711L85.1468 86.9334L85.0146 87.0655L85.1468 87.3297L84.8823 87.5939V87.9242H85.279V87.66L85.5434 87.3958L85.6757 86.6692L85.9401 86.405L86.0723 86.2069L86.2706 86.0087L86.1384 85.8766L86.4028 85.6124V85.4803V85.3482L85.874 85.15L86.2045 84.8198V84.0272L86.6673 84.4895L86.7995 84.3574L86.9978 84.5556L87.2622 84.4235L87.3944 84.5556H87.5267L87.8572 84.6877L88.1877 85.018L87.9233 85.2822V85.3482L88.0555 85.5464L88.4522 85.6785L88.7166 85.9427L88.8488 86.0087L89.4438 86.6032H89.7743L90.1049 87.0655V87.1976L90.3693 87.8581L90.8982 87.3297V87.8581H92.2864V87.726H92.8153H92.8814L93.4103 87.1976V87.7921L93.5425 87.9242L93.873 87.7921L94.0052 87.66V87.5279L94.5341 87.3297L94.7324 87.1316L94.7985 86.9334L94.9308 86.6032L94.7985 86.2069L94.9969 86.1408V86.0748V85.6785L95.1291 85.5464V85.4803L94.9969 85.3482V85.018L94.8646 84.6877L94.9969 84.5556L94.8646 84.3574L94.9969 84.2253L94.8646 83.8951L94.7324 83.763L94.6002 83.4327L94.2697 83.1025L94.4019 82.9704L94.2036 82.7722V82.7062L94.0714 82.3759L93.9391 82.2438L93.4764 81.9135L93.4103 81.7154L93.0136 81.4512L92.2864 81.1209V82.4419L91.6254 80.9228L91.2948 80.5925L91.0965 80.4604L90.171 80.1302L90.6337 79.932L90.766 79.6017V79.0733L90.8982 78.9412L91.0304 78.7431L91.3609 78.4128L91.4931 78.5449V78.2147L91.2287 77.9505L91.4931 77.6863V77.4221H91.8898L92.1542 77.1579L92.4847 77.0257H92.6831L92.3525 76.6955H93.1458L93.4103 76.4313L93.4764 76.4973L93.8069 75.7047L94.1375 76.4973L94.2036 76.4313L94.4019 76.6294L94.5341 76.3652L94.9308 76.4973L95.2613 76.3652L95.5918 76.6955V76.8937L95.7241 76.7616L95.3274 76.3652H96.1207L96.6496 75.8368V76.1671H97.509L97.7734 76.035L97.9056 76.101L98.0378 76.035L98.17 75.9029V75.7708V74.9782L98.6328 75.4405L98.5006 75.2424V74.4498L99.2278 74.78L99.4922 75.0442L99.6905 74.9782L99.9549 74.714L100.153 74.9121V74.8461H100.616H100.748L101.079 74.5158L100.55 73.0627L101.542 74.0534L101.872 73.9213V73.7892H102.004L102.137 73.5911H102.269L101.475 72.7985H102.137L102.731 71.3454L102.93 71.2793L102.798 71.1472H102.269L102.533 70.883L102.335 70.6848H102.665L103.062 70.2885V70.2225H103.326L103.723 69.2317L103.855 69.4959V69.3638L103.988 69.0996L103.921 69.0336L104.12 68.8354H103.789V68.307L104.12 67.9767V67.7125L103.921 67.5144L104.12 67.4483V67.1841L103.988 67.3162L103.525 67.1181L103.393 66.986L103.326 67.052L102.665 68.7694V67.3162L101.872 67.6465L102.665 66.8539V66.7878L102.996 66.4576L102.533 65.8631L103.525 66.2594L103.789 65.9952H103.855L103.988 65.7971H104.054L103.988 65.6649L103.525 65.3347L103.194 65.0705L102.93 64.8063L102.665 64.9384L102.269 64.8063L101.938 64.5421H101.872L101.608 64.41L99.6244 67.052L101.079 63.7495L101.608 63.5513L101.938 63.6834L102.401 63.5513L102.467 63.6834L103.062 63.8155L102.731 63.3532V63.089L102.401 62.8247V62.6266L102.07 62.4945L102.203 62.1642L102.004 61.7679L101.674 61.6358L101.145 61.834V61.3716L100.616 61.1735V60.3809L100.682 60.1166L100.55 59.8524L100.88 58.9938L101.211 59.324L101.277 59.258L101.145 59.1259L101.674 58.5975H101.74V58.4654H101.872L101.542 58.1351L102.335 57.8049L102.467 57.8709H102.665L102.731 57.8049H101.938L101.608 57.4746L101.542 57.3425L101.409 57.4086V57.5407L101.277 57.6728L101.079 58.1351L100.748 58.4654L100.418 58.3333L100.285 58.3993H99.7566L99.4261 57.6067V58.0691L99.1617 57.7388L99.0294 57.8709V57.5407L98.6989 57.1443L98.6328 57.0783L98.3684 56.9462L97.9717 56.8141V56.4838L97.8395 56.1536L97.9717 56.0215V55.8894L98.1039 55.7573V55.5591L98.2362 55.427V54.9647L99.0294 55.0968L98.6989 54.7665H99.0294L99.2278 54.5683L99.36 53.9739L99.8888 53.6436H100.021L100.153 53.5115V53.1813L100.418 52.9171H100.352L100.484 52.785L100.616 52.4547H101.145L101.343 51.9263L101.872 52.7189L102.467 53.1152V53.6436L102.203 53.9078L102.07 54.0399V54.3041L102.93 53.4455L102.665 53.9739H102.996L103.393 53.6436L103.591 53.7757H103.657L104.12 53.1152L104.384 53.7097H104.516L104.913 53.8418H104.979L105.111 53.7097H105.772L105.508 54.3702L105.574 54.5023L105.31 54.8986V55.0968H105.376L106.367 54.7005H106.301L106.103 54.0399L106.169 53.9739V53.9078V53.5776L106.5 53.3134L106.632 53.0492L107.028 52.9171H107.161H107.227V52.785L107.623 52.3887L107.491 52.2566L107.822 51.9924V51.3979L107.623 51.1997V50.6713L107.756 50.1429V49.6145H108.02L108.351 49.2843H108.417L108.483 49.0861L108.813 48.954V48.8219L108.88 48.7558V48.4256L109.078 48.2274V48.0293L109.408 47.699L109.739 47.8311L110.069 47.699L110.4 48.0293V48.2935H110.532L110.598 48.4256L110.731 48.2935L110.863 48.4256L111.127 48.2935L111.259 48.1614H111.458L111.59 48.0293L111.722 47.8972L111.458 47.633L111.92 47.4348L111.59 46.5762L112.185 46.8404V46.7083L112.317 46.5762V46.2459L112.515 46.1138V45.9817L112.714 45.8496L112.846 45.3872L112.912 45.3212L113.11 44.5286L113.243 44.2644V44.0002L113.507 43.736H113.639L113.772 43.5378L113.639 43.0094L113.904 42.7452L113.772 42.2828L114.036 42.0186V41.6223H114.895L114.961 41.4902V41.16L115.16 40.9618L115.028 40.4994L115.16 40.1692V39.8389H114.895V39.971ZM10.7093 31.1202L10.7754 31.0541V30.922C10.7754 30.9881 10.7754 31.0541 10.7093 31.1202ZM91.7576 88.5847L91.8237 88.5187L91.5592 88.4526L91.8237 88.7168V88.8489L91.9559 88.7829L92.1542 88.8489H92.2864L91.7576 88.5847ZM85.1468 88.1884V88.5187H85.279V88.3866L85.1468 88.1884ZM108.747 87.1316H108.615V87.3958H108.681V87.3297L108.813 87.1976L108.747 87.1316ZM111.127 86.1408V86.2729L111.259 86.405L111.392 86.5371V86.4711L111.127 86.1408ZM107.028 84.1593H107.161L107.227 84.0932L107.293 84.1593V83.829L107.028 84.1593ZM107.822 81.1209L107.69 81.0549L107.491 80.5265V80.3944L107.028 80.2623L106.83 80.0641H106.698V80.1302L106.434 80.4604V80.5265V81.0549V81.5172L106.367 81.6493L106.5 81.9135V82.2438L106.235 82.3759L106.169 82.6401V82.7722L106.301 83.0364V83.1685H106.632V83.3006H106.896L107.161 83.6309L107.095 83.4327V83.1025L107.161 82.9704L107.028 82.7062L107.623 82.1117L107.822 81.7814V81.6493V81.3851V81.1209ZM96.8479 78.2147L96.5173 78.3468L96.3851 78.2147L96.1868 78.3468L96.0546 78.2147H95.9885H95.6579H95.5257L95.4596 78.4128L95.1291 78.677L94.9969 78.8091V78.8752V79.2054L95.063 79.4036L95.1952 79.5357H95.3274L95.4596 79.6678H95.7241V79.5357L96.1207 79.4036V79.2715L96.4512 79.1394V79.0073L96.5835 78.611L96.7157 78.4789L96.8479 78.2807V78.2147ZM95.3935 77.0257V77.2239H95.063V77.356L95.1952 77.4881L95.3274 77.6202L95.5918 77.356L95.3935 77.0257ZM106.367 72.6003L106.235 72.4682L106.103 72.6003L105.971 72.7324L106.103 72.7985L105.839 73.1948V73.3269L105.574 73.7232L105.442 73.9874V74.6479H105.574V74.9782H105.772V75.2424L105.971 74.9121L106.169 74.6479L106.037 74.5819L106.169 73.9874V73.8553V73.459L106.301 73.1948L106.367 72.7985V72.6003ZM76.5528 74.78V75.1103H76.6189L76.5528 74.78ZM102.335 72.4682L101.938 72.8645H102.137L102.467 72.5343L102.335 72.4682ZM102.731 72.138L102.798 72.0059L102.467 72.2701L102.798 72.138H102.731ZM114.036 63.0229L114.234 62.8247H114.168V62.6266H114.036L113.772 62.1642H113.573L113.375 61.9H113.243V62.0321L113.044 62.1642L113.243 62.3624L113.441 62.6926L113.573 63.0229V63.3532L113.507 63.6174L114.102 64.1458L114.036 64.0137L114.168 63.4192L114.036 63.0229ZM1.45418 62.2303V61.7679H1.32196L0.991425 61.2395L1.12364 60.7772L1.18975 60.7111L1.05753 60.579L0.859209 60.2488L0.793101 60.1827C0.660885 61.3056 0.594778 62.4945 0.462562 63.6174L1.05753 63.2871L1.12364 63.2211L0.991425 63.089L1.25586 62.8247L1.45418 62.2303ZM21.8154 63.2871H21.7493L21.4849 63.4192H21.8154L21.9476 63.2871H21.8154ZM115.16 61.6358V61.7679L115.292 61.9661L115.424 61.7019L115.49 61.6358H115.16ZM116.35 61.1735L116.217 61.0414L116.085 61.1074V61.3056H116.284H116.35L116.482 61.1735V61.1074L116.35 61.1735ZM121.638 53.9739V53.8418L121.572 53.5776V53.4455L121.44 53.0492L121.374 52.9171H121.242L121.109 52.5868L121.043 52.2566L120.977 52.1245L120.515 51.6621L120.118 51.9924L119.986 51.8603V51.9924L120.118 52.3226L120.052 52.5868L120.25 53.0492L120.382 53.5776L120.25 53.9078L120.382 54.3041L120.184 54.9647L120.316 55.2949L119.986 55.7573L119.853 55.8894V56.0215V56.3517L119.721 56.5499L119.655 56.8801L119.325 57.0783L118.796 57.4086H118.663L118.531 57.7388L118.002 57.4746V57.7388L117.804 58.0691V58.2012L117.672 58.3333L117.738 58.3993V58.4654H118.069L117.738 58.9277L117.87 59.0598L117.209 59.4561L117.077 59.324H116.945H116.548V59.1259L116.217 59.258L115.887 59.3901H115.689L115.424 59.4561L115.094 59.5882L114.961 59.4561L114.829 59.5882L114.763 59.8524L114.631 59.9846L114.168 60.4469L114.036 60.579L113.97 60.6451L113.838 60.9093L113.573 61.0414L113.904 60.9093H114.036V60.7772L114.168 60.4469H114.499L114.631 60.513H114.763H115.094L115.424 60.3809H115.556L115.821 60.2488V60.1827L116.284 59.9185L116.548 59.7864H117.143L117.474 60.0506V60.3809L117.341 60.579V60.7772L117.738 61.1735H117.606L117.672 61.5037L117.738 61.3716V61.2395L117.87 61.1074V60.9753L118.069 60.6451L117.804 60.3809L117.936 59.8524L118.201 59.5882H119.192L118.994 59.7864L119.391 59.8524V59.5222L119.853 59.258H120.184L120.25 59.1919L120.382 59.1259L120.647 58.5314L120.977 58.3993H121.44L121.242 58.0691V56.9462L121.374 56.5499L121.176 56.0215L120.911 55.6252V55.2949L120.977 54.7665L121.374 54.5683V54.4362V54.3041V53.9078L121.638 53.9739ZM4.36293 61.0414L4.56125 60.3809H4.49514L4.36293 60.513H3.83406L3.50353 60.6451L3.10688 60.579L3.23909 60.7111L3.50353 60.8432L3.63574 60.9753L3.96628 61.1074L4.1646 61.0414L4.49514 61.3716L4.56125 61.5037L4.62736 61.3716V61.3056L4.36293 61.0414ZM109.805 59.1259V58.9277L109.342 59.3901V58.3993L109.276 57.8709L109.012 57.6067V57.1443L108.549 56.5499L108.152 56.1536L107.161 56.5499L107.425 56.9462L107.756 57.2765L107.623 57.4086L107.954 58.2012L107.425 58.0691L107.491 58.2012V58.2672L107.954 59.0598L107.623 59.324V59.7203L107.491 59.8524L107.623 60.1827V59.9185L108.086 60.3809L108.549 59.9846L108.813 59.8524L108.88 59.7203H109.342L109.673 59.3901H109.805L109.673 59.258L109.805 59.1259ZM10.9737 59.1919L11.1059 59.324L11.172 59.1919H10.9737ZM11.767 59.4561L11.5026 59.1919L11.8992 59.0598H11.8331L11.4365 59.1919L11.3043 59.1259H11.2381L11.5687 59.9185L11.7009 59.9846L11.8331 60.1166L11.7009 59.8524L11.767 59.4561ZM121.572 59.0598V59.1259L121.638 59.0598H121.572ZM5.94952 58.8617V58.9938L6.08173 58.9277V58.7956L5.94952 58.8617ZM121.572 58.4654V58.6635L121.638 58.5975L121.572 58.4654ZM6.41227 57.8049H6.08173L6.01563 57.7388L6.08173 58.003L6.21395 58.2672H6.14784V58.3993L6.34617 58.2012L6.47838 57.937L6.41227 57.8049ZM6.14784 55.4931L5.8173 55.427H5.48676L5.28844 54.9647V54.8326H5.22233H4.69347L4.62736 54.7005L4.36293 54.5683L4.23071 54.3041L4.03239 54.172L3.56963 53.7757L3.43742 53.4455V53.3134L3.3052 53.1813V52.9171L2.77634 52.2566L2.71023 52.1245H2.57801L2.04915 51.9263C1.91694 52.5868 1.71861 53.2473 1.5864 53.9739L1.71861 54.172L1.78472 54.2381L2.11526 54.7665L2.4458 54.9647L2.97466 55.1628L3.3052 55.2949H3.63574L3.96628 55.6912L4.42904 55.8894H4.75958L4.9579 56.2857V56.4178H5.02401L5.09012 56.6159L5.61898 56.8801L5.68509 57.2765V57.0122L6.01563 56.8801V56.2857L6.14784 56.1536L6.28006 55.9554L6.54449 55.7573L6.14784 55.4931ZM107.954 56.0875L107.623 55.2949V55.1628L106.896 54.8326L106.83 54.7005L105.839 55.6912H105.706V55.9554H105.772L106.103 55.6252L106.5 56.0215H108.152L107.954 56.0875ZM102.07 54.3041V54.3702L102.137 54.3041H102.07ZM21.6832 49.9448L21.2204 50.4071L21.1543 50.4732L21.4188 50.3411L21.8154 50.0108L21.6832 49.9448ZM119.258 49.8127V49.8787H119.325L119.258 49.8127ZM21.0221 49.6145L20.8238 49.6806L21.2204 49.8787L21.3527 49.6145V49.2843L21.0221 49.6145ZM122.762 47.3688L122.366 47.1706V47.0385L122.233 47.1046H121.506L121.374 46.9064H121.176L120.779 46.7083L120.713 46.5762H120.515L120.316 46.2459L120.052 46.1138L119.589 45.6514L119.523 45.4533H119.391L119.192 45.3212L119.457 45.7175L119.589 46.0478L119.655 46.4441V46.5762V46.7083L119.92 47.3688H119.655V47.5009H119.721L120.052 47.9632L119.787 48.0953V48.2274L119.457 48.5577L119.192 48.4256V48.5577L119.523 48.8219L119.589 48.7558L119.92 48.4916H120.382L120.713 48.3595L121.043 48.8219L121.176 48.954L121.44 49.0861L121.506 48.7558L121.638 48.2935L121.969 48.0953L122.299 47.8972L122.762 47.699V47.3688ZM118.928 41.9526L118.796 41.8205H118.663L118.531 41.6223V41.6884V41.7544L118.862 42.0847L118.796 42.4149L119.06 42.2828V42.0186L118.928 41.9526ZM118.531 37.7253V37.6592L118.267 37.5932V37.2629L118.002 36.9987L117.738 36.4703L117.606 36.2722L117.275 35.8098L117.143 35.4796L117.011 35.3475V35.2154H116.68L116.548 34.753L116.217 34.4227L116.085 34.1585L115.953 33.9604V32.9696H115.821L115.49 32.6394V32.5073L115.358 32.3752V31.9788H115.292L115.16 31.7807V31.9788L114.763 32.1109H114.697V32.3091L114.829 32.4412L115.16 32.8375V33.2338V33.6301L115.358 34.0925V34.2246L115.623 34.3567L115.755 34.819L115.821 34.9511L116.085 35.0833L116.416 35.5456V36.2061L116.548 36.4703V36.6024L116.945 36.9987L116.812 37.1969L117.011 37.4611L117.143 37.7253V37.9895L117.275 38.3198V38.9803L117.672 39.2445L117.606 39.5087L117.738 39.5747L118.135 39.905V39.8389L117.936 39.5747L118.069 39.1124V39.0463L117.936 38.7161L118.069 38.4519L117.738 37.9895H118.663H118.796L118.531 37.7253ZM10.3787 32.8375V32.9696H10.511L10.3787 32.8375ZM10.7093 31.1202L10.7754 30.9881C10.7754 30.9881 10.7754 31.0541 10.7093 31.1202ZM20.1627 23.3261V23.2601H19.8322L19.9644 23.3261L20.2288 23.5903L20.361 23.5243L20.1627 23.3261ZM27.699 15.6642H27.5668L27.5007 15.7963V16.1266L27.6329 16.3908H27.8312L27.9634 16.3247L28.0957 16.1926V16.0605V15.9284L27.699 15.6642ZM32.6571 11.9653L32.3927 11.7011L32.1282 11.503L31.7316 11.3709H31.335C31.2027 11.4369 31.0705 11.503 30.9383 11.6351L31.0705 11.7672L31.2027 11.6351L31.996 11.9653V12.0314L32.2605 11.7672L32.3927 12.0974L32.591 12.1635L32.7232 12.0314L32.6571 11.9653ZM30.6078 11.8993H30.5417V12.0314L30.6078 12.0974H30.74V11.8332L30.6078 11.8993Z" fill="url(#paint1_radial)"/>
<path d="M22.3436 76.8928C30.541 78.8083 39.2012 80.1293 48.1257 80.9219C49.7123 99.6144 54.3399 117.514 61.3473 134.159C61.9423 134.225 62.4711 134.291 63.0661 134.291C55.9926 117.712 51.365 99.8786 49.7123 81.054C55.2654 81.4503 60.8845 81.7146 66.6359 81.7146C78.932 81.7146 90.7653 80.6577 102.07 78.6762C98.8305 102.124 85.1461 122.336 65.9749 134.423C66.3054 134.423 66.6359 134.423 66.9665 134.423C67.6276 134.423 68.2225 134.423 68.8836 134.423C87.526 121.94 100.615 101.794 103.722 78.4781C114.366 76.5626 124.414 73.7224 133.669 70.2877C133.669 69.7593 133.669 69.2309 133.669 68.6364C124.414 72.1371 114.432 74.9113 103.855 76.8928C104.185 73.9866 104.317 71.0143 104.317 68.042C104.317 40.0363 89.7737 15.3331 67.8259 1C67.4953 1 67.1648 1 66.8343 1C66.1732 1 65.5782 1 64.9171 1C87.5921 14.7386 102.665 39.6399 102.665 67.9099C102.665 71.0143 102.466 74.0526 102.136 77.0249C90.8314 79.0725 78.8659 80.1293 66.5037 80.1293C60.7523 80.1293 55.0671 79.8651 49.4479 79.4688C49.0512 74.8452 48.919 70.1556 48.919 65.466C48.919 42.8104 53.2821 21.1456 61.0168 1.19815C60.4218 1.2642 59.8929 1.33026 59.298 1.39631C51.5633 21.2777 47.3324 42.8764 47.3324 65.466C47.3324 70.1556 47.5308 74.7792 47.8613 79.4028C38.8706 78.6102 30.2766 77.2231 22.0131 75.3736C21.7487 72.7976 21.6165 70.3537 21.6165 67.7777C21.6165 40.0363 36.1602 15.5313 58.0419 1.66051C56.7859 1.79261 55.5959 2.05682 54.406 2.25497C33.6481 16.7202 20.096 40.6968 20.096 67.8438C20.096 70.2877 20.2282 72.7316 20.4265 75.1094C13.353 73.4582 6.47774 71.3445 0.0652771 68.9667C0.0652771 69.4951 0.0652771 70.0235 0.131385 70.618C6.54385 73.0619 13.4852 75.1094 20.5587 76.7607C23.1369 100.077 35.8958 120.421 54.3399 133.301C55.5298 133.565 56.7859 133.697 57.9758 133.895C38.8045 121.411 25.1863 100.803 22.3436 76.8928Z" fill="url(#paint2_radial)"/>
<path d="M103.527 66.0672C104.951 66.0672 106.106 64.9135 106.106 63.4905C106.106 62.0674 104.951 60.9138 103.527 60.9138C102.103 60.9138 100.948 62.0674 100.948 63.4905C100.948 64.9135 102.103 66.0672 103.527 66.0672Z" fill="url(#paint3_radial)"/>
<path d="M81.4459 16.8582C82.8701 16.8582 84.0247 15.7046 84.0247 14.2815C84.0247 12.8584 82.8701 11.7048 81.4459 11.7048C80.0216 11.7048 78.867 12.8584 78.867 14.2815C78.867 15.7046 80.0216 16.8582 81.4459 16.8582Z" fill="url(#paint4_radial)"/>
<path d="M89.9726 115.274C91.9807 115.274 93.6085 113.647 93.6085 111.641C93.6085 109.635 91.9807 108.008 89.9726 108.008C87.9645 108.008 86.3367 109.635 86.3367 111.641C86.3367 113.647 87.9645 115.274 89.9726 115.274Z" fill="url(#paint5_radial)"/>
<path d="M48.9873 84.0297C51.1779 84.0297 52.9538 82.2553 52.9538 80.0666C52.9538 77.8778 51.1779 76.1035 48.9873 76.1035C46.7967 76.1035 45.0208 77.8778 45.0208 80.0666C45.0208 82.2553 46.7967 84.0297 48.9873 84.0297Z" fill="url(#paint6_radial)"/>
<path d="M52.0374 32.4845C53.8834 32.4845 55.38 30.9892 55.38 29.1447C55.38 27.3002 53.8834 25.8049 52.0374 25.8049C50.1913 25.8049 48.6947 27.3002 48.6947 29.1447C48.6947 30.9892 50.1913 32.4845 52.0374 32.4845Z" fill="url(#paint7_radial)"/>
<path d="M26.709 100.942C28.4985 100.942 29.9491 99.4923 29.9491 97.7044C29.9491 95.9165 28.4985 94.467 26.709 94.467C24.9195 94.467 23.4688 95.9165 23.4688 97.7044C23.4688 99.4923 24.9195 100.942 26.709 100.942Z" fill="url(#paint8_radial)"/>
<path opacity="0.53" d="M77.9618 87.0288L70.1802 89.1687L69.5966 125.178L81.8331 131.967L91.7546 128.329L77.9618 87.0288Z" fill="#2C3045"/>
<path d="M91.2873 82.4395L73.9149 87.0306L94.6917 98.0026L127.491 99.1698L139.805 90.7463L115.624 85.5521L91.2873 82.4395Z" fill="url(#paint9_linear)"/>
<path d="M73.9149 87.0288L96.4814 93.5653L127.335 95.6469L139.805 90.7445V131.403L127.121 137.628L97.2207 133.64L73.9149 125.606V87.0288Z" fill="url(#paint10_linear)"/>
<path d="M96.5982 93.5653H96.4815L73.9149 87.0288V125.606L96.5982 133.426V93.5653Z" fill="url(#paint11_linear)"/>
<path d="M96.5981 93.5664V133.427L97.2206 133.641L127.121 137.629V95.6285L96.5981 93.5664Z" fill="url(#paint12_linear)"/>
<path d="M88.6025 88.7045C91.2671 88.7045 93.4271 87.999 93.4271 87.1288C93.4271 86.2585 91.2671 85.553 88.6025 85.553C85.938 85.553 83.778 86.2585 83.778 87.1288C83.778 87.999 85.938 88.7045 88.6025 88.7045Z" fill="#2E3940"/>
<path d="M122.083 94.0154C125.166 94.0154 127.666 92.9266 127.666 91.5836C127.666 90.2406 125.166 89.1519 122.083 89.1519C118.999 89.1519 116.499 90.2406 116.499 91.5836C116.499 92.9266 118.999 94.0154 122.083 94.0154Z" fill="#2E3940"/>
<path opacity="0.35" d="M74.1096 91.3699L96.3649 98.6456L126.947 100.572L140 95.0856" stroke="url(#paint13_linear)" stroke-width="9" stroke-miterlimit="10"/>
<path opacity="0.35" d="M74.1099 96.4692L96.3652 103.745L126.947 105.671L140 100.185" stroke="url(#paint14_linear)" stroke-width="9" stroke-miterlimit="10"/>
<path opacity="0.35" d="M74.1099 101.563L96.3652 108.839L126.947 110.765L140 105.279" stroke="url(#paint15_linear)" stroke-width="9" stroke-miterlimit="10"/>
<path opacity="0.35" d="M74.1099 106.662L96.3652 113.938L126.947 115.864L140 110.378" stroke="url(#paint16_linear)" stroke-width="9" stroke-miterlimit="10"/>
<path opacity="0.35" d="M74.1099 111.758L96.3652 119.034L126.947 120.96L140 115.474" stroke="url(#paint17_linear)" stroke-width="9" stroke-miterlimit="10"/>
<path opacity="0.35" d="M74.1099 116.876L96.3652 124.132L126.947 126.058L140 120.572" stroke="url(#paint18_linear)" stroke-width="9" stroke-miterlimit="10"/>
<path opacity="0.35" d="M74.1099 121.97L96.3652 129.227L126.947 131.172L140 125.666" stroke="url(#paint19_linear)" stroke-width="9" stroke-miterlimit="10"/>
<path d="M88.25 88C91.1495 88 93.5 87.3284 93.5 86.5C93.5 85.6716 91.1495 85 88.25 85C85.3505 85 83 85.6716 83 86.5C83 87.3284 85.3505 88 88.25 88Z" fill="#2E3940"/>
<path d="M122.402 93.1122C125.494 93.1122 128 92.0207 128 90.6743C128 89.3278 125.494 88.2363 122.402 88.2363C119.311 88.2363 116.805 89.3278 116.805 90.6743C116.805 92.0207 119.311 93.1122 122.402 93.1122Z" fill="#2E3940"/>
<path d="M84 86.6595V52.2163C84 52.2163 84.8972 34.4486 106.917 34C129.962 34.0049 127.454 63.7429 127.454 63.7429V90.8138C127.454 90.8138 123 95 117.195 90.8138V57.0532C117.195 57.0532 117.663 42.172 105.746 42.172C93.8298 42.172 93.2447 54.3032 93.2447 54.3032V86.5035C93.2252 86.5035 88.4663 89.4875 84 86.6595Z" fill="url(#paint20_linear)"/>
<g filter="url(#filter0_f)">
<path d="M87.5303 87C87.5303 87 85.2959 52.9623 90 46V87H87.5303Z" fill="#627093"/>
</g>
<g filter="url(#filter1_f)">
<path d="M121.254 92.5869V52.9707C121.254 52.9707 121 46 117 42.5L113.795 38.3184C113.795 38.3184 123.19 44.5546 124.661 54.3734L124.871 56.1551V92.5869H121.254Z" fill="#23293F"/>
</g>
<g filter="url(#filter2_f)">
<path d="M89.5002 46.5C89.5002 46.5 105 33.5 117.928 42.5439C117.928 42.5439 113.832 34.2159 103.866 36.2248C93.8799 38.2337 89.5002 46.5 89.5002 46.5Z" fill="#8291B6"/>
</g>
<g filter="url(#filter3_f)">
<path d="M116.805 46.209C116.805 46.209 120.374 49.6611 119.925 54.0299C119.477 58.3987 119.925 91.8667 119.925 91.8667H121.72V54.0299C121.72 54.0494 122.11 47.3597 116.805 46.209Z" fill="#627093"/>
</g>
<g filter="url(#filter4_f)">
<path d="M88.6079 55.5708C88.6079 55.5708 89.271 42.5035 99.9784 40.8262C99.9784 40.8262 95.0831 43.1276 92.6646 47.0673C90.1487 51.202 88.6079 55.5708 88.6079 55.5708Z" fill="#606162"/>
</g>
<g filter="url(#filter5_f)">
<path d="M126.03 90.8917L125.66 53.1719" stroke="#353B53" stroke-miterlimit="10"/>
</g>
<g filter="url(#filter6_f)">
<path d="M89.0515 88.0637C89.0515 88.0637 87.4912 54.1471 91.9575 46.6773C96.4238 39.2074 104.908 39.8705 104.908 39.8705C104.908 39.8705 96.8724 41.4308 94.532 47.789C92.1916 54.1471 91.1774 55.0443 91.626 59.062C92.0746 63.0797 91.743 87.5176 91.743 87.5176L89.0515 88.0637Z" fill="#353B53"/>
</g>
<g filter="url(#filter7_f)">
<path d="M90 87L91 56" stroke="#2A344D" stroke-miterlimit="10" stroke-linecap="round" stroke-linejoin="round"/>
</g>
</g>
<defs>
<filter id="filter0_f" x="85" y="44" width="7" height="45" filterUnits="userSpaceOnUse" color-interpolation-filters="sRGB">
<feFlood flood-opacity="0" result="BackgroundImageFix"/>
<feBlend mode="normal" in="SourceGraphic" in2="BackgroundImageFix" result="shape"/>
<feGaussianBlur stdDeviation="1" result="effect1_foregroundBlur"/>
</filter>
<filter id="filter1_f" x="109.795" y="34.3184" width="19.0752" height="62.2685" filterUnits="userSpaceOnUse" color-interpolation-filters="sRGB">
<feFlood flood-opacity="0" result="BackgroundImageFix"/>
<feBlend mode="normal" in="SourceGraphic" in2="BackgroundImageFix" result="shape"/>
<feGaussianBlur stdDeviation="2" result="effect1_foregroundBlur"/>
</filter>
<filter id="filter2_f" x="86.5002" y="32.9121" width="34.4275" height="16.5879" filterUnits="userSpaceOnUse" color-interpolation-filters="sRGB">
<feFlood flood-opacity="0" result="BackgroundImageFix"/>
<feBlend mode="normal" in="SourceGraphic" in2="BackgroundImageFix" result="shape"/>
<feGaussianBlur stdDeviation="1.5" result="effect1_foregroundBlur"/>
</filter>
<filter id="filter3_f" x="114.805" y="44.209" width="8.92128" height="49.6577" filterUnits="userSpaceOnUse" color-interpolation-filters="sRGB">
<feFlood flood-opacity="0" result="BackgroundImageFix"/>
<feBlend mode="normal" in="SourceGraphic" in2="BackgroundImageFix" result="shape"/>
<feGaussianBlur stdDeviation="1" result="effect1_foregroundBlur"/>
</filter>
<filter id="filter4_f" x="85.6079" y="37.8262" width="17.3705" height="20.7447" filterUnits="userSpaceOnUse" color-interpolation-filters="sRGB">
<feFlood flood-opacity="0" result="BackgroundImageFix"/>
<feBlend mode="normal" in="SourceGraphic" in2="BackgroundImageFix" result="shape"/>
<feGaussianBlur stdDeviation="1.5" result="effect1_foregroundBlur"/>
</filter>
<filter id="filter5_f" x="122.16" y="50.167" width="7.37051" height="43.7296" filterUnits="userSpaceOnUse" color-interpolation-filters="sRGB">
<feFlood flood-opacity="0" result="BackgroundImageFix"/>
<feBlend mode="normal" in="SourceGraphic" in2="BackgroundImageFix" result="shape"/>
<feGaussianBlur stdDeviation="1.5" result="effect1_foregroundBlur"/>
</filter>
<filter id="filter6_f" x="86.7875" y="37.8555" width="20.1204" height="52.2083" filterUnits="userSpaceOnUse" color-interpolation-filters="sRGB">
<feFlood flood-opacity="0" result="BackgroundImageFix"/>
<feBlend mode="normal" in="SourceGraphic" in2="BackgroundImageFix" result="shape"/>
<feGaussianBlur stdDeviation="1" result="effect1_foregroundBlur"/>
</filter>
<filter id="filter7_f" x="86.5" y="52.5" width="8.00001" height="38" filterUnits="userSpaceOnUse" color-interpolation-filters="sRGB">
<feFlood flood-opacity="0" result="BackgroundImageFix"/>
<feBlend mode="normal" in="SourceGraphic" in2="BackgroundImageFix" result="shape"/>
<feGaussianBlur stdDeviation="1.5" result="effect1_foregroundBlur"/>
</filter>
<radialGradient id="paint0_radial" cx="0" cy="0" r="1" gradientUnits="userSpaceOnUse" gradientTransform="translate(51.4132 47.6884) scale(76.5123 76.4466)">
<stop offset="0.1458" stop-color="#96A1BB"/>
<stop offset="0.8886" stop-color="#5F6A8D"/>
<stop offset="1" stop-color="#4E5E83"/>
</radialGradient>
<radialGradient id="paint1_radial" cx="0" cy="0" r="1" gradientUnits="userSpaceOnUse" gradientTransform="translate(46.6547 43.2682) scale(86.2893 86.2153)">
<stop offset="0.21875" stop-color="#F3F5F7" stop-opacity="0.5"/>
<stop offset="0.614583" stop-color="#D5D9DF" stop-opacity="0.2"/>
<stop offset="1" stop-color="#D4D8DE" stop-opacity="0"/>
</radialGradient>
<radialGradient id="paint2_radial" cx="0" cy="0" r="1" gradientUnits="userSpaceOnUse" gradientTransform="translate(66.9899 67.6637) scale(66.7783 66.721)">
<stop stop-color="#24DEDD"/>
<stop offset="0.859375" stop-color="#24D2D1"/>
<stop offset="1" stop-color="#25DFDE" stop-opacity="0"/>
</radialGradient>
<radialGradient id="paint3_radial" cx="0" cy="0" r="1" gradientUnits="userSpaceOnUse" gradientTransform="translate(103.558 63.519) scale(2.5849 2.58268)">
<stop offset="0.2738" stop-color="white"/>
</radialGradient>
<radialGradient id="paint4_radial" cx="0" cy="0" r="1" gradientUnits="userSpaceOnUse" gradientTransform="translate(81.4771 14.31) scale(2.5849 2.58268)">
<stop offset="0.2738" stop-color="white"/>
</radialGradient>
<radialGradient id="paint5_radial" cx="0" cy="0" r="1" gradientUnits="userSpaceOnUse" gradientTransform="translate(89.9876 111.629) scale(3.61224 3.60914)">
<stop stop-color="white"/>
</radialGradient>
<radialGradient id="paint6_radial" cx="0" cy="0" r="1" gradientUnits="userSpaceOnUse" gradientTransform="translate(49.0036 80.0529) scale(3.94063 3.93724)">
<stop stop-color="white"/>
</radialGradient>
<radialGradient id="paint7_radial" cx="0" cy="0" r="1" gradientUnits="userSpaceOnUse" gradientTransform="translate(52.0511 29.1332) scale(3.32085 3.318)">
<stop stop-color="white"/>
</radialGradient>
<radialGradient id="paint8_radial" cx="0" cy="0" r="1" gradientUnits="userSpaceOnUse" gradientTransform="translate(26.7483 97.7403) scale(3.2477 3.24491)">
<stop offset="0.2738" stop-color="white"/>
</radialGradient>
<linearGradient id="paint9_linear" x1="91.3127" y1="104.427" x2="122.4" y2="73.3401" gradientUnits="userSpaceOnUse">
<stop offset="0.396" stop-color="#627093"/>
<stop offset="0.995" stop-color="#2C3045"/>
</linearGradient>
<linearGradient id="paint10_linear" x1="74.8756" y1="127.306" x2="139.729" y2="90.6121" gradientUnits="userSpaceOnUse">
<stop offset="0.396" stop-color="#4D5B7D"/>
<stop offset="0.995" stop-color="#3A445E"/>
</linearGradient>
<linearGradient id="paint11_linear" x1="96.5945" y1="110.223" x2="73.9112" y2="110.223" gradientUnits="userSpaceOnUse">
<stop offset="0.0148515" stop-color="#363E55"/>
<stop offset="0.995" stop-color="#2C3045"/>
</linearGradient>
<linearGradient id="paint12_linear" x1="92.6536" y1="126.458" x2="131.975" y2="104.21" gradientUnits="userSpaceOnUse">
<stop offset="0.396" stop-color="#3F4760"/>
<stop offset="0.995" stop-color="#526084"/>
</linearGradient>
<linearGradient id="paint13_linear" x1="140.336" y1="95.9933" x2="73.8339" y2="95.9933" gradientUnits="userSpaceOnUse">
<stop offset="0.3663" stop-color="white"/>
<stop offset="1" stop-color="#2C3045"/>
</linearGradient>
<linearGradient id="paint14_linear" x1="140.336" y1="101.093" x2="73.8342" y2="101.093" gradientUnits="userSpaceOnUse">
<stop offset="0.3663" stop-color="white"/>
<stop offset="1" stop-color="#212643"/>
</linearGradient>
<linearGradient id="paint15_linear" x1="140.336" y1="106.187" x2="73.8342" y2="106.187" gradientUnits="userSpaceOnUse">
<stop offset="0.3663" stop-color="white"/>
<stop offset="1" stop-color="#272D4E"/>
</linearGradient>
<linearGradient id="paint16_linear" x1="140.336" y1="111.285" x2="73.8342" y2="111.285" gradientUnits="userSpaceOnUse">
<stop offset="0.3663" stop-color="white"/>
<stop offset="1" stop-color="#292F51"/>
</linearGradient>
<linearGradient id="paint17_linear" x1="140.336" y1="116.381" x2="73.8342" y2="116.381" gradientUnits="userSpaceOnUse">
<stop offset="0.3663" stop-color="white"/>
<stop offset="1" stop-color="#242943"/>
</linearGradient>
<linearGradient id="paint18_linear" x1="140.336" y1="121.49" x2="73.8348" y2="121.49" gradientUnits="userSpaceOnUse">
<stop offset="0.3663" stop-color="white"/>
<stop offset="1" stop-color="#272C4A"/>
</linearGradient>
<linearGradient id="paint19_linear" x1="140.337" y1="126.594" x2="73.8348" y2="126.594" gradientUnits="userSpaceOnUse">
<stop offset="0.3663" stop-color="white"/>
<stop offset="1" stop-color="#31385C"/>
</linearGradient>
<linearGradient id="paint20_linear" x1="86.5" y1="65.5" x2="125.5" y2="66.5" gradientUnits="userSpaceOnUse">
<stop stop-color="#353B53"/>
<stop offset="0.109375" stop-color="#5C647D"/>
<stop offset="0.203125" stop-color="#8595BE"/>
<stop offset="0.354856" stop-color="#6F789A"/>
<stop offset="1" stop-color="#384464"/>
</linearGradient>
<clipPath id="clip0">
<rect y="1" width="140" height="137" fill="white"/>
</clipPath>
</defs>
</svg>
