<svg width="140" height="140" viewBox="0 0 140 140" fill="none" xmlns="http://www.w3.org/2000/svg">
<g clip-path="url(#clip0)">
<path d="M6.08447 28.267V95.5298C6.08447 98.4021 7.58821 101.055 10.0212 102.542L62.6184 137.516C68.0927 140.845 74.9355 140.845 80.4098 137.516L130.946 102.542C133.379 101.038 134.882 98.3852 134.882 95.5298V28.8921L6.08447 28.267Z" fill="url(#paint0_linear)"/>
<path d="M6.08447 28.8921V95.5298C6.08447 98.4021 7.58821 101.055 10.0212 102.542L62.6184 137.516C68.0927 140.845 74.9355 140.845 80.4098 137.516L130.946 102.542C133.379 101.038 134.882 98.3852 134.882 95.5298V28.8921H6.08447Z" fill="url(#paint1_linear)"/>
<path d="M132.267 36.358L80.7509 67.852C75.0738 71.3157 67.9268 71.3157 62.2498 67.852L7.86165 34.6177C5.1752 32.9788 5.44553 28.9744 8.35164 27.7241L65.6628 3.19117C69.3968 1.60294 73.6039 1.60294 77.321 3.19117L131.54 26.3893C135.747 28.1972 136.17 33.9925 132.267 36.358Z" fill="url(#paint2_linear)"/>
<path d="M132.264 34.3495L80.7479 65.8436C75.0709 69.3073 67.9239 69.3073 62.2469 65.8436L7.85872 32.6092C5.17227 30.9703 5.4426 26.966 8.34871 25.7157L65.6598 1.18274C69.3939 -0.405478 73.6009 -0.405478 77.3181 1.18274L131.537 24.3809C135.744 26.1888 136.167 31.9841 132.264 34.3495Z" fill="url(#paint3_linear)"/>
<path d="M93.7577 114.394C93.7577 114.23 93.8379 114.077 93.9723 113.983L94.3578 113.715C94.6893 113.485 95.1432 113.722 95.1432 114.126V119.278C95.1432 119.441 95.063 119.595 94.9285 119.688L94.5431 119.956C94.2115 120.187 93.7577 119.949 93.7577 119.546V114.394ZM96.951 117.376C96.951 117.777 97.4011 118.015 97.733 117.788L98.1185 117.525C98.2549 117.432 98.3365 117.278 98.3365 117.112V111.929C98.3365 111.525 97.8826 111.288 97.5511 111.519L97.1656 111.787C97.0312 111.88 96.951 112.033 96.951 112.197V117.376ZM100.144 115.179C100.144 115.581 100.594 115.819 100.926 115.592L101.312 115.329C101.448 115.236 101.53 115.081 101.53 114.916V109.699C101.53 109.295 101.076 109.058 100.744 109.288L100.359 109.556C100.225 109.65 100.144 109.803 100.144 109.967V115.179ZM103.338 113.016C103.338 113.418 103.788 113.656 104.12 113.429L104.505 113.166C104.642 113.073 104.723 112.918 104.723 112.753V107.503C104.723 107.099 104.269 106.862 103.938 107.092L103.552 107.36C103.418 107.453 103.338 107.607 103.338 107.77V113.016ZM106.514 110.82C106.514 111.222 106.964 111.459 107.296 111.233L107.682 110.97C107.818 110.876 107.9 110.722 107.9 110.557V105.272C107.9 104.868 107.446 104.631 107.114 104.862L106.729 105.13C106.594 105.223 106.514 105.376 106.514 105.54V110.82ZM109.707 108.623C109.707 109.025 110.158 109.263 110.489 109.036L110.875 108.773C111.011 108.68 111.093 108.525 111.093 108.36V103.042C111.093 102.638 110.639 102.401 110.308 102.631L109.922 102.899C109.788 102.993 109.707 103.146 109.707 103.31V108.623ZM112.901 106.461C112.901 106.863 113.351 107.1 113.683 106.874L114.068 106.61C114.205 106.517 114.286 106.363 114.286 106.198V100.846C114.286 100.442 113.832 100.204 113.501 100.435L113.115 100.703C112.981 100.796 112.901 100.95 112.901 101.113V106.461ZM116.094 104.281C116.094 104.683 116.544 104.921 116.876 104.694L117.262 104.431C117.398 104.338 117.48 104.183 117.48 104.018V98.6152C117.48 98.2115 117.026 97.9742 116.694 98.2047L116.309 98.4726C116.174 98.5661 116.094 98.7195 116.094 98.8832V104.281ZM119.271 102.085C119.271 102.487 119.721 102.724 120.053 102.498L120.438 102.234C120.574 102.141 120.656 101.987 120.656 101.821V96.4019C120.656 95.9981 120.202 95.7609 119.871 95.9913L119.485 96.2593C119.351 96.3527 119.271 96.5061 119.271 96.6698V102.085ZM122.682 94.0462C122.546 94.1393 122.464 94.2939 122.464 94.4591V99.9051C122.464 100.307 122.914 100.545 123.246 100.318L123.631 100.055C123.768 99.9616 123.849 99.8071 123.849 99.6419V94.1958C123.849 93.794 123.399 93.5563 123.067 93.7829L122.682 94.0462Z" fill="#2FAAAF"/>
<path d="M59.4322 100.746L12.9941 71.9728C11.7649 71.2026 11 69.8547 11 68.3968L11.1366 47.6557C11.1366 46.3628 12.557 45.5651 13.6497 46.2528L60.3064 75.1913C61.3717 75.8515 62 77.0068 62 78.2447L61.8634 99.3984C61.9181 100.636 60.5249 101.434 59.4322 100.746Z" fill="url(#paint4_linear)"/>
<path d="M14.0717 77.8575C14.0782 78.3202 13.777 78.468 13.3744 78.2023C12.9877 77.9365 12.6444 77.3508 12.6382 76.9041C12.6317 76.4414 12.9329 76.2936 13.3355 76.5593C13.722 76.8092 14.0493 77.395 14.0717 77.8575Z" fill="#2CD8CF"/>
<path d="M16.5201 79.4989C16.5265 79.9615 16.2254 80.1094 15.8228 79.8437C15.4361 79.5778 15.0928 78.9922 15.0865 78.5455C15.0801 78.0828 15.3812 77.935 15.7839 78.2006C16.1703 78.4505 16.4977 79.0364 16.5201 79.4989Z" fill="#2CD8CF"/>
<path d="M18.9688 81.1403C18.9753 81.603 18.6741 81.7508 18.2715 81.4852C17.8848 81.2193 17.5415 80.6337 17.5353 80.1869C17.5288 79.7243 17.8299 79.5764 18.2326 79.8421C18.6191 80.092 18.9624 80.6777 18.9688 81.1403Z" fill="#2CD8CF"/>
<path d="M21.4171 82.7817C21.4235 83.2444 21.1224 83.3922 20.7197 83.1265C20.333 82.8607 19.9897 82.275 19.9835 81.8283C19.9771 81.3656 20.2782 81.2178 20.6808 81.4834C21.0835 81.7491 21.4106 82.319 21.4171 82.7817Z" fill="#2CD8CF"/>
<path d="M23.8658 84.4231C23.8723 84.8857 23.5711 85.0336 23.1685 84.7679C22.7818 84.502 22.4385 83.9164 22.4322 83.4697C22.4258 83.007 22.7269 82.8591 23.1296 83.1248C23.532 83.3745 23.8593 83.9604 23.8658 84.4231Z" fill="#2CD8CF"/>
<path d="M26.3141 86.0644C26.3206 86.5271 26.0195 86.6749 25.6168 86.4093C25.2301 86.1434 24.8868 85.5577 24.8806 85.111C24.8741 84.6483 25.1753 84.5005 25.5779 84.7662C25.9804 85.0159 26.3077 85.6017 26.3141 86.0644Z" fill="#2CD8CF"/>
<path d="M28.7625 87.7059C28.769 88.1686 28.4678 88.3164 28.0652 88.0507C27.6785 87.7849 27.3352 87.1992 27.329 86.7525C27.3225 86.2898 27.6236 86.142 28.0263 86.4076C28.4287 86.6573 28.7561 87.2432 28.7625 87.7059Z" fill="#2CD8CF"/>
<path d="M31.2112 89.3473C31.2177 89.8099 30.9166 89.9578 30.5139 89.6921C30.1272 89.4262 29.7839 88.8406 29.7777 88.3938C29.7712 87.9312 30.0724 87.7833 30.475 88.049C30.8775 88.2987 31.2048 88.8846 31.2112 89.3473Z" fill="#2CD8CF"/>
<path d="M33.6596 90.988C33.666 91.4506 33.3649 91.5985 32.9622 91.3328C32.5755 91.0669 32.2322 90.4813 32.226 90.0345C32.2198 89.5878 32.5207 89.424 32.9233 89.6897C33.3258 89.9394 33.6531 90.5253 33.6596 90.988Z" fill="#2CD8CF"/>
<path d="M36.1082 92.6301C36.1147 93.0928 35.8135 93.2406 35.4109 92.975C35.0242 92.7091 34.6809 92.1234 34.6747 91.6767C34.6682 91.214 34.9694 91.0662 35.372 91.3318C35.7744 91.5815 36.1018 92.1674 36.1082 92.6301Z" fill="#2CD8CF"/>
<path d="M38.5725 94.2712C38.5789 94.7339 38.2778 94.8817 37.8751 94.6161C37.4884 94.3502 37.1451 93.7645 37.1389 93.3178C37.1324 92.8551 37.4336 92.7073 37.8362 92.9729C38.2227 93.2229 38.55 93.8088 38.5725 94.2712Z" fill="#2CD8CF"/>
<path d="M41.0209 95.8964C41.0274 96.3591 40.7263 96.5069 40.3236 96.2412C39.9369 95.9753 39.5936 95.3897 39.5874 94.9429C39.5809 94.4802 39.8821 94.3324 40.2847 94.5981C40.6714 94.864 40.9987 95.4498 41.0209 95.8964Z" fill="#2CD8CF"/>
<path d="M43.4694 97.5388C43.4758 98.0015 43.1747 98.1493 42.772 97.8836C42.3853 97.6177 42.0421 97.0321 42.0358 96.5853C42.0296 96.1386 42.3305 95.9748 42.7332 96.2405C43.1199 96.5064 43.4472 97.0922 43.4694 97.5388Z" fill="#2CD8CF"/>
<path d="M45.9177 99.1792C45.9241 99.6419 45.623 99.7897 45.2203 99.524C44.8336 99.2582 44.4904 98.6725 44.4841 98.2258C44.4777 97.7631 44.7788 97.6152 45.1814 97.8809C45.5681 98.1468 45.8955 98.7327 45.9177 99.1792Z" fill="#2CD8CF"/>
<path d="M48.3664 100.821C48.3729 101.283 48.0717 101.431 47.6691 101.165C47.2824 100.9 46.9391 100.314 46.9329 99.8672C46.9264 99.4045 47.2275 99.2567 47.6302 99.5224C48.0169 99.7883 48.3602 100.374 48.3664 100.821Z" fill="#2CD8CF"/>
<path d="M50.8147 102.463C50.8212 102.926 50.52 103.073 50.1174 102.808C49.7307 102.542 49.3874 101.956 49.3812 101.509C49.3749 101.063 49.6758 100.899 50.0785 101.165C50.4652 101.431 50.8085 102.016 50.8147 102.463Z" fill="#2CD8CF"/>
<path d="M53.2634 104.104C53.2699 104.567 52.9688 104.715 52.5661 104.449C52.1794 104.183 51.8361 103.598 51.8299 103.151C51.8237 102.704 52.1246 102.54 52.5272 102.806C52.9299 103.072 53.2572 103.658 53.2634 104.104Z" fill="#2CD8CF"/>
<path d="M55.7118 105.746C55.7183 106.208 55.4171 106.356 55.0145 106.091C54.6278 105.825 54.2845 105.239 54.2783 104.792C54.272 104.346 54.5729 104.182 54.9756 104.448C55.3782 104.713 55.7056 105.299 55.7118 105.746Z" fill="#2CD8CF"/>
<path d="M58.1601 107.387C58.1665 107.85 57.8654 107.998 57.4627 107.732C57.076 107.466 56.7327 106.88 56.7265 106.434C56.7203 105.987 57.0212 105.823 57.4238 106.089C57.8265 106.355 58.1538 106.94 58.1601 107.387Z" fill="#2CD8CF"/>
<path d="M14.14 80.4733C14.1464 80.936 13.8453 81.0838 13.4426 80.8181C13.0559 80.5522 12.7126 79.9666 12.7064 79.5198C12.7 79.0571 13.0011 78.9093 13.4037 79.175C13.7904 79.4409 14.1337 80.0265 14.14 80.4733Z" fill="#2CD8CF"/>
<path d="M16.5887 82.1147C16.5951 82.5774 16.294 82.7252 15.8914 82.4596C15.5047 82.1937 15.1614 81.608 15.1551 81.1613C15.1487 80.6986 15.4498 80.5508 15.8525 80.8165C16.2392 81.0823 16.5825 81.668 16.5887 82.1147Z" fill="#2CD8CF"/>
<path d="M19.037 83.757C19.0435 84.2197 18.7423 84.3675 18.3397 84.1019C17.953 83.836 17.6097 83.2503 17.6035 82.8036C17.5972 82.3568 17.8981 82.1931 18.3008 82.4587C18.7034 82.7244 19.0308 83.3103 19.037 83.757Z" fill="#2CD8CF"/>
<path d="M21.4858 85.3976C21.4922 85.8603 21.1911 86.0081 20.7885 85.7424C20.4018 85.4765 20.0585 84.8909 20.0522 84.4441C20.0458 83.9815 20.3469 83.8336 20.7496 84.0993C21.1522 84.365 21.4796 84.9508 21.4858 85.3976Z" fill="#2CD8CF"/>
<path d="M23.9341 87.0399C23.9405 87.5026 23.6394 87.6504 23.2368 87.3847C22.8501 87.1188 22.5068 86.5332 22.5005 86.0864C22.4943 85.6397 22.7952 85.4759 23.1979 85.7416C23.6005 86.0072 23.9279 86.5931 23.9341 87.0399Z" fill="#2CD8CF"/>
<path d="M26.3824 88.6803C26.3889 89.1429 26.0877 89.2908 25.6851 89.0251C25.2984 88.7592 24.9551 88.1736 24.9488 87.7268C24.9424 87.2642 25.2435 87.1163 25.6462 87.382C26.0488 87.6477 26.3762 88.2335 26.3824 88.6803Z" fill="#2CD8CF"/>
<path d="M28.8311 90.3217C28.8376 90.7844 28.5364 90.9322 28.1338 90.6666C27.7471 90.4007 27.4038 89.815 27.3976 89.3683C27.3911 88.9056 27.6923 88.7578 28.0949 89.0235C28.4976 89.2891 28.8249 89.875 28.8311 90.3217Z" fill="#2CD8CF"/>
<path d="M31.2954 91.9628C31.3018 92.4255 31.0007 92.5733 30.598 92.3077C30.2113 92.0418 29.868 91.4562 29.8618 91.0094C29.8553 90.5468 30.1565 90.3989 30.5591 90.6646C30.9458 90.9305 31.2732 91.5163 31.2954 91.9628Z" fill="#2CD8CF"/>
<path d="M33.7442 93.6051C33.7506 94.0678 33.4495 94.2156 33.0468 93.95C32.6601 93.6841 32.3168 93.0984 32.3106 92.6517C32.3044 92.205 32.6053 92.0412 33.0079 92.3069C33.3946 92.5728 33.722 93.1586 33.7442 93.6051Z" fill="#2CD8CF"/>
<path d="M36.1925 95.2457C36.1989 95.7084 35.8978 95.8562 35.4951 95.5906C35.1084 95.3247 34.7651 94.739 34.7589 94.2923C34.7524 93.8296 35.0536 93.6818 35.4562 93.9474C35.8429 94.2133 36.1703 94.7992 36.1925 95.2457Z" fill="#2CD8CF"/>
<path d="M38.6412 96.8871C38.6476 97.3498 38.3465 97.4976 37.9438 97.2319C37.5572 96.966 37.2139 96.3804 37.2076 95.9336C37.2012 95.471 37.5023 95.3231 37.905 95.5888C38.2917 95.8547 38.619 96.4406 38.6412 96.8871Z" fill="#2CD8CF"/>
<path d="M41.0895 98.5295C41.096 98.9922 40.7948 99.14 40.3922 98.8743C40.0055 98.6084 39.6622 98.0228 39.6559 97.576C39.6497 97.1293 39.9506 96.9655 40.3533 97.2312C40.74 97.4971 41.0673 98.083 41.0895 98.5295Z" fill="#2CD8CF"/>
<path d="M43.5379 100.171C43.5443 100.634 43.2432 100.781 42.8405 100.516C42.4538 100.25 42.1105 99.6641 42.1043 99.2174C42.0981 98.7707 42.399 98.6069 42.8016 98.8726C43.1883 99.1384 43.5316 99.7241 43.5379 100.171Z" fill="#2CD8CF"/>
<path d="M45.9865 101.811C45.993 102.274 45.6918 102.422 45.2892 102.156C44.9025 101.89 44.5592 101.305 44.553 100.858C44.5465 100.395 44.8476 100.247 45.2503 100.513C45.637 100.779 45.9803 101.365 45.9865 101.811Z" fill="#2CD8CF"/>
<path d="M48.4349 103.453C48.4414 103.915 48.1402 104.063 47.7376 103.798C47.3509 103.532 47.0076 102.946 47.0013 102.499C46.9949 102.037 47.296 101.889 47.6987 102.154C48.1013 102.42 48.4287 103.006 48.4349 103.453Z" fill="#2CD8CF"/>
<path d="M50.8836 105.095C50.89 105.558 50.5889 105.705 50.1862 105.44C49.7995 105.174 49.4562 104.588 49.45 104.142C49.4438 103.695 49.7447 103.531 50.1473 103.797C50.55 104.062 50.8773 104.648 50.8836 105.095Z" fill="#2CD8CF"/>
<path d="M53.3319 106.736C53.3384 107.199 53.0372 107.347 52.6346 107.081C52.2319 106.816 51.9046 106.23 51.8984 105.783C51.8921 105.336 52.1931 105.172 52.5957 105.438C52.9984 105.704 53.3257 106.29 53.3319 106.736Z" fill="#2CD8CF"/>
<path d="M55.7803 108.378C55.7867 108.841 55.4856 108.988 55.083 108.723C54.6963 108.457 54.353 107.871 54.3467 107.424C54.3405 106.978 54.6414 106.814 55.0441 107.08C55.4467 107.345 55.7741 107.931 55.7803 108.378Z" fill="#2CD8CF"/>
<path d="M58.2289 110.018C58.2354 110.481 57.9343 110.629 57.5316 110.363C57.1449 110.097 56.8016 109.512 56.7954 109.065C56.7889 108.602 57.0901 108.454 57.4927 108.72C57.8954 108.986 58.2227 109.572 58.2289 110.018Z" fill="#2CD8CF"/>
<path d="M14.2089 83.1063C14.2153 83.569 13.9142 83.7168 13.5115 83.4511C13.1249 83.1852 12.7816 82.5996 12.7753 82.1528C12.7691 81.7061 13.07 81.5423 13.4727 81.808C13.8753 82.0736 14.2026 82.6595 14.2089 83.1063Z" fill="#2CD8CF"/>
<path d="M16.6572 84.7477C16.6637 85.2104 16.3626 85.3582 15.9599 85.0925C15.5732 84.8267 15.2299 84.241 15.2237 83.7943C15.2175 83.3476 15.5184 83.1838 15.921 83.4495C16.3237 83.7151 16.651 84.301 16.6572 84.7477Z" fill="#2CD8CF"/>
<path d="M19.106 86.3891C19.1124 86.8518 18.8113 86.9996 18.4086 86.734C18.0219 86.4681 17.6787 85.8824 17.6724 85.4357C17.6662 84.9889 17.9671 84.8251 18.3698 85.0908C18.7724 85.3565 19.0997 85.9424 19.106 86.3891Z" fill="#2CD8CF"/>
<path d="M21.5543 88.0295C21.5607 88.4922 21.2596 88.6401 20.8569 88.3744C20.4702 88.1085 20.127 87.5228 20.1207 87.0761C20.1143 86.6134 20.4154 86.4656 20.818 86.7313C21.2207 86.9969 21.548 87.5828 21.5543 88.0295Z" fill="#2CD8CF"/>
<path d="M24.0026 89.671C24.0091 90.1337 23.708 90.2815 23.3053 90.0159C22.9186 89.75 22.5753 89.1643 22.5691 88.7176C22.5626 88.2549 22.8638 88.1071 23.2664 88.3727C23.6691 88.6384 23.9964 89.2243 24.0026 89.671Z" fill="#2CD8CF"/>
<path d="M26.4672 91.3121C26.4737 91.7748 26.1725 91.9226 25.7699 91.6569C25.3832 91.391 25.0399 90.8054 25.0337 90.3587C25.0272 89.896 25.3284 89.7482 25.731 90.0138C26.1177 90.2797 26.445 90.8656 26.4672 91.3121Z" fill="#2CD8CF"/>
<path d="M28.9155 92.9536C28.9219 93.4162 28.6208 93.5641 28.2181 93.2984C27.8155 93.0327 27.4882 92.4469 27.4819 92.0002C27.4755 91.5375 27.7766 91.3897 28.1793 91.6553C28.566 91.9212 28.8933 92.5071 28.9155 92.9536Z" fill="#2CD8CF"/>
<path d="M31.3643 94.5958C31.3707 95.0585 31.0696 95.2063 30.6669 94.9407C30.2643 94.675 29.937 94.0892 29.9307 93.6424C29.9245 93.1957 30.2254 93.0319 30.6281 93.2976C31.0148 93.5635 31.3421 94.1493 31.3643 94.5958Z" fill="#2CD8CF"/>
<path d="M33.8126 96.2373C33.8191 96.7 33.518 96.8478 33.1153 96.5822C32.7127 96.3165 32.3853 95.7306 32.3791 95.2839C32.3729 94.8372 32.6738 94.6734 33.0764 94.9391C33.4631 95.205 33.7905 95.7908 33.8126 96.2373Z" fill="#2CD8CF"/>
<path d="M36.2613 97.8778C36.2678 98.3405 35.9666 98.4883 35.564 98.2227C35.1613 97.957 34.834 97.3711 34.8277 96.9244C34.8213 96.4617 35.1224 96.3139 35.5251 96.5795C35.9118 96.8454 36.2391 97.4313 36.2613 97.8778Z" fill="#2CD8CF"/>
<path d="M38.7097 99.5192C38.7161 99.9819 38.415 100.13 38.0123 99.864C37.6256 99.5981 37.2823 99.0125 37.2761 98.5657C37.2697 98.103 37.5708 97.9552 37.9734 98.2209C38.3601 98.4868 38.7034 99.0724 38.7097 99.5192Z" fill="#2CD8CF"/>
<path d="M41.158 101.162C41.1645 101.624 40.8633 101.772 40.4607 101.506C40.058 101.241 39.7307 100.655 39.7244 100.208C39.7182 99.7614 40.0191 99.5976 40.4218 99.8633C40.8085 100.129 41.1518 100.715 41.158 101.162Z" fill="#2CD8CF"/>
<path d="M43.6067 102.802C43.6132 103.265 43.3121 103.413 42.9094 103.147C42.5068 102.881 42.1794 102.295 42.1732 101.849C42.1668 101.386 42.4679 101.238 42.8705 101.504C43.2732 101.769 43.6005 102.355 43.6067 102.802Z" fill="#2CD8CF"/>
<path d="M46.055 104.443C46.0614 104.906 45.7603 105.054 45.3577 104.788C44.955 104.522 44.6277 103.937 44.6214 103.49C44.615 103.027 44.9161 102.879 45.3188 103.145C45.7214 103.411 46.0488 103.997 46.055 104.443Z" fill="#2CD8CF"/>
<path d="M48.5037 106.085C48.5102 106.547 48.209 106.695 47.8064 106.43C47.4197 106.164 47.0764 105.578 47.0702 105.131C47.0637 104.669 47.3649 104.521 47.7675 104.787C48.1702 105.052 48.4975 105.638 48.5037 106.085Z" fill="#2CD8CF"/>
<path d="M50.952 107.727C50.9585 108.19 50.6574 108.338 50.2547 108.072C49.868 107.806 49.5247 107.22 49.5185 106.774C49.5123 106.327 49.8132 106.163 50.2158 106.429C50.6185 106.694 50.9458 107.28 50.952 107.727Z" fill="#2CD8CF"/>
<path d="M53.4004 109.368C53.4069 109.831 53.1057 109.979 52.7031 109.713C52.3164 109.447 51.9731 108.862 51.9669 108.415C51.9606 107.968 52.2615 107.805 52.6642 108.07C53.0668 108.336 53.3942 108.922 53.4004 109.368Z" fill="#2CD8CF"/>
<path d="M55.865 111.01C55.8715 111.472 55.5703 111.62 55.1677 111.355C54.781 111.089 54.4377 110.503 54.4315 110.056C54.4252 109.61 54.7261 109.446 55.1288 109.711C55.5155 109.977 55.8428 110.563 55.865 111.01Z" fill="#2CD8CF"/>
<path d="M58.3133 112.65C58.3198 113.113 58.0186 113.261 57.616 112.995C57.2293 112.729 56.886 112.143 56.8798 111.697C56.8733 111.234 57.1744 111.086 57.5771 111.352C57.9638 111.618 58.2911 112.204 58.3133 112.65Z" fill="#2CD8CF"/>
<path d="M14.2774 85.7374C14.2839 86.2001 13.9827 86.3479 13.5801 86.0823C13.1934 85.8164 12.8501 85.2307 12.8439 84.784C12.8374 84.3213 13.1385 84.1735 13.5412 84.4391C13.9438 84.7048 14.2712 85.2907 14.2774 85.7374Z" fill="#2CD8CF"/>
<path d="M16.7261 87.3789C16.7326 87.8416 16.4315 87.9894 16.0288 87.7237C15.6421 87.4579 15.2988 86.8722 15.2926 86.4255C15.2861 85.9628 15.5873 85.815 15.9899 86.0806C16.3926 86.3463 16.7199 86.9322 16.7261 87.3789Z" fill="#2CD8CF"/>
<path d="M19.1744 89.0203C19.1808 89.483 18.8797 89.6308 18.4771 89.3651C18.0744 89.0994 17.7471 88.5136 17.7408 88.0668C17.7344 87.6041 18.0355 87.4563 18.4382 87.722C18.8408 87.9876 19.1681 88.5735 19.1744 89.0203Z" fill="#2CD8CF"/>
<path d="M21.6391 90.6624C21.6455 91.1251 21.3444 91.2729 20.9417 91.0073C20.555 90.7414 20.2117 90.1557 20.2055 89.709C20.1993 89.2622 20.5002 89.0985 20.9028 89.3641C21.2895 89.63 21.6169 90.2159 21.6391 90.6624Z" fill="#2CD8CF"/>
<path d="M24.0874 92.3028C24.0938 92.7655 23.7927 92.9133 23.39 92.6476C22.9874 92.382 22.66 91.7961 22.6538 91.3494C22.6473 90.8867 22.9485 90.7389 23.3511 91.0046C23.7378 91.2704 24.0652 91.8563 24.0874 92.3028Z" fill="#2CD8CF"/>
<path d="M26.5357 93.9451C26.5421 94.4078 26.241 94.5556 25.8383 94.2899C25.4516 94.024 25.1083 93.4384 25.1021 92.9917C25.0959 92.545 25.3968 92.3812 25.7994 92.6468C26.1861 92.9127 26.5135 93.4986 26.5357 93.9451Z" fill="#2CD8CF"/>
<path d="M28.9844 95.5857C28.9909 96.0483 28.6898 96.1961 28.2871 95.9305C27.9004 95.6646 27.5571 95.079 27.5509 94.6322C27.5444 94.1696 27.8456 94.0217 28.2482 94.2874C28.6349 94.5533 28.9623 95.1391 28.9844 95.5857Z" fill="#2CD8CF"/>
<path d="M31.4328 97.2279C31.4392 97.6906 31.1381 97.8384 30.7354 97.5728C30.3487 97.3069 30.0054 96.7212 29.9992 96.2745C29.993 95.8278 30.2939 95.664 30.6965 95.9297C31.0832 96.1956 31.4265 96.7812 31.4328 97.2279Z" fill="#2CD8CF"/>
<path d="M33.8814 98.8684C33.8879 99.3311 33.5867 99.4789 33.1841 99.2132C32.7974 98.9474 32.4541 98.3617 32.4479 97.915C32.4414 97.4523 32.7425 97.3045 33.1452 97.5701C33.5319 97.836 33.8752 98.4217 33.8814 98.8684Z" fill="#2CD8CF"/>
<path d="M36.3298 100.51C36.3362 100.973 36.0351 101.12 35.6324 100.855C35.2457 100.589 34.9025 100.003 34.8962 99.5564C34.8898 99.0938 35.1909 98.9459 35.5936 99.2116C35.9962 99.4773 36.3235 100.063 36.3298 100.51Z" fill="#2CD8CF"/>
<path d="M38.7781 102.151C38.7846 102.614 38.4835 102.762 38.0808 102.496C37.6941 102.23 37.3508 101.645 37.3446 101.198C37.3381 100.735 37.6393 100.587 38.0419 100.853C38.4446 101.119 38.7719 101.705 38.7781 102.151Z" fill="#2CD8CF"/>
<path d="M41.2268 103.794C41.2333 104.256 40.9321 104.404 40.5295 104.138C40.1428 103.873 39.7995 103.287 39.7933 102.84C39.787 102.393 40.088 102.23 40.4906 102.495C40.8933 102.761 41.2206 103.347 41.2268 103.794Z" fill="#2CD8CF"/>
<path d="M43.6753 105.434C43.6817 105.897 43.3806 106.045 42.9779 105.779C42.5912 105.513 42.2479 104.927 42.2417 104.481C42.2352 104.018 42.5364 103.87 42.939 104.136C43.3417 104.401 43.669 104.987 43.6753 105.434Z" fill="#2CD8CF"/>
<path d="M46.1239 107.075C46.1303 107.538 45.8292 107.686 45.4265 107.42C45.0398 107.154 44.6965 106.569 44.6903 106.122C44.6838 105.659 44.985 105.511 45.3876 105.777C45.7903 106.043 46.1176 106.629 46.1239 107.075Z" fill="#2CD8CF"/>
<path d="M48.5723 108.718C48.5787 109.18 48.2776 109.328 47.8749 109.063C47.4883 108.797 47.145 108.211 47.1387 107.764C47.1325 107.318 47.4334 107.154 47.8361 107.42C48.2387 107.685 48.566 108.271 48.5723 108.718Z" fill="#2CD8CF"/>
<path d="M51.0369 110.359C51.0433 110.822 50.7422 110.969 50.3395 110.704C49.9529 110.438 49.6096 109.852 49.6033 109.405C49.5971 108.959 49.898 108.795 50.3007 109.061C50.6874 109.327 51.0147 109.912 51.0369 110.359Z" fill="#2CD8CF"/>
<path d="M53.4851 112C53.4916 112.463 53.1904 112.611 52.7878 112.345C52.4011 112.079 52.0578 111.494 52.0516 111.047C52.0453 110.6 52.3463 110.436 52.7489 110.702C53.1356 110.968 53.4629 111.554 53.4851 112Z" fill="#2CD8CF"/>
<path d="M55.9335 113.641C55.94 114.104 55.6389 114.251 55.2362 113.986C54.8495 113.72 54.5062 113.134 54.5 112.687C54.4935 112.225 54.7947 112.077 55.1973 112.343C55.584 112.608 55.9114 113.194 55.9335 113.641Z" fill="#2CD8CF"/>
<path d="M58.3823 115.282C58.3887 115.745 58.0876 115.893 57.6849 115.627C57.2982 115.361 56.955 114.776 56.9487 114.329C56.9423 113.866 57.2434 113.718 57.646 113.984C58.0327 114.25 58.3601 114.836 58.3823 115.282Z" fill="#2CD8CF"/>
<path d="M14.3462 88.3705C14.3527 88.8332 14.0515 88.981 13.6489 88.7153C13.2622 88.4495 12.9189 87.8638 12.9127 87.4171C12.9064 86.9704 13.2073 86.8066 13.61 87.0723C14.0126 87.3379 14.34 87.9238 14.3462 88.3705Z" fill="#2CD8CF"/>
<path d="M16.8104 90.0117C16.8169 90.4744 16.5158 90.6222 16.1131 90.3565C15.7264 90.0906 15.3831 89.505 15.3769 89.0582C15.3707 88.6115 15.6716 88.4477 16.0742 88.7134C16.4609 88.9793 16.7883 89.5651 16.8104 90.0117Z" fill="#2CD8CF"/>
<path d="M19.2592 91.6521C19.2657 92.1148 18.9645 92.2626 18.5619 91.9969C18.1752 91.7311 17.8319 91.1454 17.8257 90.6987C17.8192 90.236 18.1204 90.0881 18.523 90.3538C18.9097 90.6197 19.237 91.2056 19.2592 91.6521Z" fill="#2CD8CF"/>
<path d="M21.7075 93.2945C21.714 93.7572 21.4129 93.905 21.0102 93.6394C20.6235 93.3735 20.2802 92.7878 20.274 92.3411C20.2678 91.8943 20.5687 91.7305 20.9713 91.9962C21.358 92.2621 21.6853 92.848 21.7075 93.2945Z" fill="#2CD8CF"/>
<path d="M24.1558 94.9349C24.1623 95.3976 23.8611 95.5454 23.4585 95.2797C23.0718 95.0138 22.7285 94.4282 22.7223 93.9815C22.7158 93.5188 23.017 93.371 23.4196 93.6366C23.8063 93.9025 24.1336 94.4884 24.1558 94.9349Z" fill="#2CD8CF"/>
<path d="M26.6046 96.5762C26.611 97.0389 26.3099 97.1867 25.9072 96.9211C25.5205 96.6552 25.1772 96.0696 25.171 95.6228C25.1646 95.1602 25.4657 95.0123 25.8683 95.278C26.255 95.5439 26.5983 96.1295 26.6046 96.5762Z" fill="#2CD8CF"/>
<path d="M29.0529 98.2187C29.0593 98.6813 28.7582 98.8292 28.3555 98.5635C27.9688 98.2976 27.6256 97.712 27.6193 97.2652C27.6131 96.8185 27.914 96.6547 28.3167 96.9204C28.7034 97.1863 29.0466 97.7719 29.0529 98.2187Z" fill="#2CD8CF"/>
<path d="M31.5016 99.86C31.5081 100.323 31.2069 100.471 30.8043 100.205C30.4176 99.939 30.0743 99.3533 30.0681 98.9066C30.0618 98.4599 30.3627 98.2961 30.7654 98.5618C31.168 98.8274 31.4954 99.4133 31.5016 99.86Z" fill="#2CD8CF"/>
<path d="M33.9499 101.5C33.9564 101.963 33.6552 102.111 33.2526 101.845C32.8659 101.579 32.5226 100.994 32.5163 100.547C32.5099 100.084 32.811 99.9365 33.2137 100.202C33.6163 100.468 33.9437 101.054 33.9499 101.5Z" fill="#2CD8CF"/>
<path d="M36.3983 103.142C36.4047 103.605 36.1036 103.752 35.7009 103.487C35.3142 103.221 34.9709 102.635 34.9647 102.189C34.9583 101.726 35.2594 101.578 35.662 101.844C36.0647 102.109 36.392 102.695 36.3983 103.142Z" fill="#2CD8CF"/>
<path d="M38.8471 104.784C38.8535 105.247 38.5524 105.395 38.1497 105.129C37.763 104.863 37.4197 104.278 37.4135 103.831C37.4073 103.384 37.7082 103.22 38.1108 103.486C38.5135 103.752 38.8408 104.338 38.8471 104.784Z" fill="#2CD8CF"/>
<path d="M41.2954 106.425C41.3018 106.887 41.0007 107.035 40.598 106.77C40.2113 106.504 39.868 105.918 39.8618 105.471C39.8553 105.009 40.1565 104.861 40.5591 105.126C40.9618 105.392 41.2891 105.978 41.2954 106.425Z" fill="#2CD8CF"/>
<path d="M43.7441 108.066C43.7505 108.529 43.4494 108.677 43.0467 108.411C42.6601 108.145 42.3168 107.559 42.3105 107.113C42.3041 106.65 42.6052 106.502 43.0079 106.768C43.4105 107.034 43.7376 107.603 43.7441 108.066Z" fill="#2CD8CF"/>
<path d="M46.2083 109.707C46.2148 110.17 45.9136 110.318 45.511 110.052C45.1243 109.786 44.781 109.201 44.7748 108.754C44.7683 108.291 45.0694 108.143 45.4721 108.409C45.8588 108.675 46.1859 109.245 46.2083 109.707Z" fill="#2CD8CF"/>
<path d="M48.657 111.35C48.6635 111.812 48.3623 111.96 47.9597 111.694C47.573 111.429 47.2297 110.843 47.2234 110.396C47.2172 109.949 47.5181 109.786 47.9208 110.051C48.3075 110.317 48.6346 110.887 48.657 111.35Z" fill="#2CD8CF"/>
<path d="M51.1054 112.991C51.1118 113.454 50.8107 113.601 50.408 113.336C50.0213 113.07 49.678 112.484 49.6718 112.038C49.6656 111.591 49.9665 111.427 50.3691 111.693C50.7558 111.959 51.083 112.529 51.1054 112.991Z" fill="#2CD8CF"/>
<path d="M53.5537 114.631C53.5601 115.094 53.259 115.242 52.8563 114.976C52.4696 114.71 52.1263 114.125 52.1201 113.678C52.1136 113.215 52.4148 113.068 52.8174 113.333C53.2041 113.599 53.5312 114.169 53.5537 114.631Z" fill="#2CD8CF"/>
<path d="M56.0024 116.273C56.0088 116.736 55.7077 116.883 55.3051 116.618C54.9184 116.352 54.5751 115.766 54.5688 115.32C54.5624 114.857 54.8635 114.709 55.2662 114.975C55.6529 115.241 55.9959 115.81 56.0024 116.273Z" fill="#2CD8CF"/>
<path d="M58.4507 117.914C58.4572 118.377 58.1561 118.525 57.7534 118.259C57.3667 117.993 57.0234 117.408 57.0172 116.961C57.0107 116.498 57.3119 116.35 57.7145 116.616C58.1012 116.882 58.4443 117.452 58.4507 117.914Z" fill="#2CD8CF"/>
<path d="M14.4306 91.0015C14.4371 91.4642 14.1359 91.612 13.7333 91.3463C13.3466 91.0804 13.0033 90.4948 12.9971 90.048C12.9906 89.5853 13.2917 89.4375 13.6944 89.7032C14.0811 89.9691 14.4084 90.5549 14.4306 91.0015Z" fill="#2CD8CF"/>
<path d="M16.8793 92.6428C16.8858 93.1055 16.5847 93.2533 16.182 92.9877C15.7953 92.7218 15.452 92.1361 15.4458 91.6894C15.4393 91.2267 15.7405 91.0789 16.1431 91.3445C16.5298 91.6104 16.8571 92.1963 16.8793 92.6428Z" fill="#2CD8CF"/>
<path d="M19.3277 94.2851C19.3341 94.7478 19.033 94.8956 18.6303 94.6299C18.2436 94.3641 17.9003 93.7784 17.8941 93.3317C17.8879 92.8849 18.1888 92.7211 18.5914 92.9868C18.9781 93.2527 19.3052 93.8226 19.3277 94.2851Z" fill="#2CD8CF"/>
<path d="M21.7759 95.9257C21.7824 96.3883 21.4813 96.5362 21.0786 96.2705C20.6919 96.0046 20.3486 95.419 20.3424 94.9722C20.3359 94.5095 20.6371 94.3617 21.0397 94.6274C21.4264 94.8933 21.7695 95.463 21.7759 95.9257Z" fill="#2CD8CF"/>
<path d="M24.2247 97.5679C24.2312 98.0306 23.9301 98.1784 23.5274 97.9127C23.1407 97.6468 22.7974 97.0612 22.7912 96.6145C22.785 96.1678 23.0859 96.004 23.4885 96.2696C23.8752 96.5355 24.2183 97.1052 24.2247 97.5679Z" fill="#2CD8CF"/>
<path d="M26.673 99.2083C26.6795 99.671 26.3784 99.8188 25.9757 99.5532C25.589 99.2873 25.2457 98.7016 25.2395 98.2549C25.233 97.7922 25.5342 97.6444 25.9368 97.9101C26.3395 98.1757 26.6666 98.7456 26.673 99.2083Z" fill="#2CD8CF"/>
<path d="M29.1218 100.851C29.1283 101.313 28.8272 101.461 28.4245 101.196C28.0378 100.93 27.6945 100.344 27.6883 99.8973C27.6821 99.4506 27.983 99.2868 28.3856 99.5525C28.7883 99.8181 29.1154 100.388 29.1218 100.851Z" fill="#2CD8CF"/>
<path d="M31.5701 102.491C31.5766 102.954 31.2755 103.102 30.8728 102.836C30.4861 102.57 30.1428 101.985 30.1366 101.538C30.1301 101.075 30.4313 100.927 30.8339 101.193C31.2366 101.459 31.5637 102.029 31.5701 102.491Z" fill="#2CD8CF"/>
<path d="M34.0184 104.133C34.0248 104.595 33.7237 104.743 33.321 104.477C32.9343 104.212 32.5911 103.626 32.5848 103.179C32.5784 102.716 32.8795 102.569 33.2822 102.834C33.6848 103.1 34.0119 103.67 34.0184 104.133Z" fill="#2CD8CF"/>
<path d="M36.4671 105.774C36.4736 106.237 36.1724 106.385 35.7698 106.119C35.3831 105.853 35.0398 105.267 35.0336 104.821C35.0271 104.358 35.3282 104.21 35.7309 104.476C36.1335 104.741 36.4607 105.311 36.4671 105.774Z" fill="#2CD8CF"/>
<path d="M38.9313 107.415C38.9378 107.878 38.6367 108.026 38.234 107.76C37.8473 107.494 37.504 106.908 37.4978 106.462C37.4913 105.999 37.7925 105.851 38.1951 106.117C38.5818 106.383 38.9089 106.953 38.9313 107.415Z" fill="#2CD8CF"/>
<path d="M41.3801 109.057C41.3865 109.519 41.0854 109.667 40.6827 109.401C40.296 109.136 39.9528 108.55 39.9465 108.103C39.9401 107.641 40.2412 107.493 40.6438 107.758C41.0305 108.024 41.3576 108.594 41.3801 109.057Z" fill="#2CD8CF"/>
<path d="M43.8284 110.698C43.8349 111.161 43.5338 111.308 43.1311 111.043C42.7444 110.777 42.4011 110.191 42.3949 109.745C42.3884 109.282 42.6896 109.134 43.0922 109.4C43.4789 109.666 43.806 110.235 43.8284 110.698Z" fill="#2CD8CF"/>
<path d="M46.2772 112.339C46.2836 112.802 45.9825 112.95 45.5798 112.684C45.1931 112.418 44.8499 111.833 44.8436 111.386C44.8372 110.923 45.1383 110.775 45.5409 111.041C45.9276 111.307 46.2548 111.877 46.2772 112.339Z" fill="#2CD8CF"/>
<path d="M48.7255 113.981C48.732 114.443 48.4309 114.591 48.0282 114.326C47.6415 114.06 47.2982 113.474 47.292 113.027C47.2855 112.565 47.5867 112.417 47.9893 112.683C48.376 112.948 48.7031 113.518 48.7255 113.981Z" fill="#2CD8CF"/>
<path d="M51.1738 115.622C51.1802 116.085 50.8791 116.233 50.4764 115.967C50.0897 115.701 49.7465 115.115 49.7402 114.669C49.7338 114.206 50.0349 114.058 50.4376 114.324C50.824 114.574 51.1673 115.159 51.1738 115.622Z" fill="#2CD8CF"/>
<path d="M53.6225 117.264C53.629 117.726 53.3278 117.874 52.9252 117.608C52.5385 117.342 52.1952 116.757 52.189 116.31C52.1825 115.847 52.4836 115.7 52.8863 115.965C53.2728 116.215 53.616 116.801 53.6225 117.264Z" fill="#2CD8CF"/>
<path d="M56.0709 118.905C56.0773 119.368 55.7762 119.516 55.3735 119.25C54.9868 118.984 54.6436 118.398 54.6373 117.952C54.6309 117.489 54.932 117.341 55.3346 117.607C55.7371 117.856 56.0644 118.442 56.0709 118.905Z" fill="#2CD8CF"/>
<path d="M58.5196 120.546C58.5261 121.009 58.2249 121.157 57.8223 120.891C57.4356 120.625 57.0923 120.04 57.086 119.593C57.0796 119.13 57.3807 118.982 57.7834 119.248C58.1858 119.498 58.5131 120.084 58.5196 120.546Z" fill="#2CD8CF"/>
<path d="M14.4995 93.6335C14.5059 94.0962 14.2048 94.2441 13.8021 93.9784C13.4154 93.7125 13.0721 93.1268 13.0659 92.6801C13.0595 92.2174 13.3606 92.0696 13.7632 92.3353C14.1499 92.6011 14.477 93.1711 14.4995 93.6335Z" fill="#2CD8CF"/>
<path d="M16.9478 95.2749C16.9543 95.7376 16.6531 95.8854 16.2505 95.6197C15.8638 95.3539 15.5205 94.7682 15.5143 94.3215C15.5078 93.8588 15.809 93.7109 16.2116 93.9766C16.5983 94.2425 16.9414 94.8122 16.9478 95.2749Z" fill="#2CD8CF"/>
<path d="M19.3962 96.9163C19.4026 97.379 19.1015 97.5268 18.6989 97.2611C18.3122 96.9952 17.9689 96.4096 17.9626 95.9628C17.9562 95.5001 18.2573 95.3523 18.66 95.618C19.0467 95.8839 19.3897 96.4536 19.3962 96.9163Z" fill="#2CD8CF"/>
<path d="M21.8449 98.5577C21.8514 99.0204 21.5502 99.1682 21.1476 98.9025C20.7609 98.6366 20.4176 98.051 20.4114 97.6043C20.4049 97.1416 20.706 96.9938 21.1087 97.2594C21.5113 97.5251 21.8385 98.095 21.8449 98.5577Z" fill="#2CD8CF"/>
<path d="M24.2932 100.199C24.2996 100.662 23.9985 100.81 23.5958 100.544C23.2091 100.278 22.8658 99.6924 22.8596 99.2456C22.8532 98.783 23.1543 98.6351 23.5569 98.9008C23.9596 99.1665 24.2867 99.7364 24.2932 100.199Z" fill="#2CD8CF"/>
<path d="M26.7419 101.84C26.7483 102.303 26.4472 102.451 26.0446 102.185C25.6579 101.919 25.3146 101.334 25.3083 100.887C25.3019 100.424 25.603 100.277 26.0057 100.542C26.4081 100.792 26.7354 101.378 26.7419 101.84Z" fill="#2CD8CF"/>
<path d="M29.1903 103.482C29.1967 103.945 28.8956 104.092 28.4929 103.827C28.1062 103.561 27.7629 102.975 27.7567 102.528C27.7502 102.066 28.0514 101.918 28.454 102.184C28.8565 102.433 29.1838 103.019 29.1903 103.482Z" fill="#2CD8CF"/>
<path d="M31.6386 105.123C31.6451 105.586 31.3439 105.734 30.9413 105.468C30.5546 105.202 30.2113 104.617 30.2051 104.17C30.1986 103.707 30.4997 103.559 30.9024 103.825C31.305 104.091 31.6322 104.661 31.6386 105.123Z" fill="#2CD8CF"/>
<path d="M34.1032 106.764C34.1097 107.227 33.8085 107.375 33.4059 107.109C33.0192 106.843 32.6759 106.258 32.6697 105.811C32.6632 105.348 32.9643 105.2 33.367 105.466C33.7696 105.732 34.0808 106.302 34.1032 106.764Z" fill="#2CD8CF"/>
<path d="M36.5516 108.406C36.558 108.869 36.2569 109.016 35.8542 108.751C35.4676 108.485 35.1243 107.899 35.118 107.452C35.1116 106.99 35.4127 106.842 35.8154 107.108C36.218 107.373 36.5292 107.943 36.5516 108.406Z" fill="#2CD8CF"/>
<path d="M39.0002 110.047C39.0066 110.51 38.7055 110.658 38.3029 110.392C37.9162 110.126 37.5729 109.541 37.5666 109.094C37.5602 108.631 37.8613 108.483 38.264 108.749C38.6504 108.999 38.9778 109.585 39.0002 110.047Z" fill="#2CD8CF"/>
<path d="M41.4485 111.689C41.455 112.151 41.1539 112.299 40.7512 112.034C40.3645 111.768 40.0212 111.182 40.015 110.735C40.0085 110.273 40.3097 110.125 40.7123 110.39C41.115 110.656 41.4261 111.226 41.4485 111.689Z" fill="#2CD8CF"/>
<path d="M43.8973 113.33C43.9037 113.793 43.6026 113.941 43.2 113.675C42.8133 113.409 42.47 112.823 42.4637 112.377C42.4573 111.914 42.7584 111.766 43.1611 112.032C43.5637 112.297 43.8749 112.868 43.8973 113.33Z" fill="#2CD8CF"/>
<path d="M46.3456 114.971C46.3521 115.434 46.051 115.582 45.6483 115.316C45.2616 115.05 44.9183 114.465 44.9121 114.018C44.9056 113.555 45.2068 113.407 45.6094 113.673C45.9959 113.923 46.3392 114.509 46.3456 114.971Z" fill="#2CD8CF"/>
<path d="M48.794 116.613C48.8004 117.076 48.4993 117.223 48.0967 116.958C47.71 116.692 47.3667 116.106 47.3605 115.659C47.354 115.197 47.6551 115.049 48.0578 115.315C48.4442 115.565 48.7875 116.15 48.794 116.613Z" fill="#2CD8CF"/>
<path d="M51.2427 118.254C51.2492 118.717 50.9481 118.865 50.5454 118.599C50.1587 118.333 49.8154 117.748 49.8092 117.301C49.8027 116.838 50.1039 116.69 50.5065 116.956C50.909 117.206 51.2363 117.792 51.2427 118.254Z" fill="#2CD8CF"/>
<path d="M53.691 119.896C53.6974 120.358 53.3963 120.506 52.9937 120.24C52.607 119.975 52.2637 119.389 52.2574 118.942C52.251 118.479 52.5521 118.332 52.9548 118.597C53.3572 118.847 53.6845 119.433 53.691 119.896Z" fill="#2CD8CF"/>
<path d="M56.1397 121.537C56.1462 122 55.845 122.148 55.4424 121.882C55.0557 121.616 54.7124 121.03 54.7062 120.584C54.6997 120.121 55.0008 119.973 55.4035 120.239C55.8059 120.489 56.1333 121.074 56.1397 121.537Z" fill="#2CD8CF"/>
<path d="M58.5881 123.178C58.5945 123.641 58.2934 123.789 57.8907 123.523C57.5041 123.257 57.1608 122.672 57.1545 122.225C57.1481 121.762 57.4492 121.615 57.8519 121.88C58.2543 122.13 58.5816 122.716 58.5881 123.178Z" fill="#2CD8CF"/>
<path d="M14.5679 96.2656C14.5744 96.7283 14.2733 96.8761 13.8706 96.6105C13.4839 96.3446 13.1406 95.7589 13.1344 95.3122C13.1279 94.8495 13.4291 94.7017 13.8317 94.9673C14.2341 95.2171 14.5615 95.8029 14.5679 96.2656Z" fill="#2CD8CF"/>
<path d="M17.0163 97.907C17.0228 98.3697 16.7216 98.5175 16.319 98.2518C15.9323 97.9859 15.589 97.4003 15.5828 96.9535C15.5763 96.4908 15.8774 96.343 16.2801 96.6087C16.6825 96.8584 17.0098 97.4443 17.0163 97.907Z" fill="#2CD8CF"/>
<path d="M19.465 99.5483C19.4715 100.011 19.1704 100.159 18.7677 99.8932C18.381 99.6273 18.0377 99.0416 18.0315 98.5949C18.025 98.1322 18.3262 97.9844 18.7288 98.2501C19.1315 98.5157 19.4586 99.0856 19.465 99.5483Z" fill="#2CD8CF"/>
<path d="M21.9134 101.19C21.9199 101.652 21.6187 101.8 21.2161 101.535C20.8294 101.269 20.4861 100.683 20.4798 100.236C20.4734 99.7737 20.7745 99.6259 21.1772 99.8915C21.5796 100.141 21.9069 100.727 21.9134 101.19Z" fill="#2CD8CF"/>
<path d="M24.3621 102.831C24.3686 103.294 24.0674 103.442 23.6648 103.176C23.2781 102.91 22.9348 102.324 22.9286 101.878C22.9221 101.415 23.2233 101.267 23.6259 101.533C24.0286 101.799 24.3557 102.368 24.3621 102.831Z" fill="#2CD8CF"/>
<path d="M26.8104 104.472C26.8168 104.935 26.5157 105.083 26.113 104.817C25.7263 104.551 25.3831 103.966 25.3768 103.519C25.3704 103.056 25.6715 102.909 26.0742 103.174C26.4768 103.44 26.8039 104.01 26.8104 104.472Z" fill="#2CD8CF"/>
<path d="M29.275 106.114C29.2814 106.576 28.9803 106.724 28.5776 106.459C28.1909 106.193 27.8477 105.607 27.8414 105.16C27.835 104.698 28.1361 104.55 28.5388 104.815C28.9252 105.065 29.2526 105.651 29.275 106.114Z" fill="#2CD8CF"/>
<path d="M31.7233 107.755C31.7298 108.218 31.4287 108.366 31.026 108.1C30.6393 107.834 30.296 107.248 30.2898 106.802C30.2833 106.339 30.5845 106.191 30.9871 106.457C31.3736 106.707 31.7009 107.293 31.7233 107.755Z" fill="#2CD8CF"/>
<path d="M34.1717 109.396C34.1782 109.859 33.877 110.007 33.4744 109.741C33.0877 109.475 32.7444 108.89 32.7381 108.443C32.7317 107.98 33.0328 107.833 33.4355 108.098C33.822 108.348 34.1493 108.934 34.1717 109.396Z" fill="#2CD8CF"/>
<path d="M36.6204 111.038C36.6269 111.501 36.3257 111.648 35.9231 111.383C35.5364 111.117 35.1931 110.531 35.1869 110.085C35.1804 109.622 35.4816 109.474 35.8842 109.74C36.2707 109.99 36.598 110.575 36.6204 111.038Z" fill="#2CD8CF"/>
<path d="M39.0688 112.679C39.0753 113.142 38.7741 113.29 38.3715 113.024C37.9848 112.758 37.6415 112.173 37.6352 111.726C37.6288 111.263 37.9299 111.115 38.3326 111.381C38.7191 111.631 39.0623 112.217 39.0688 112.679Z" fill="#2CD8CF"/>
<path d="M41.5174 114.321C41.5239 114.783 41.2227 114.931 40.8201 114.666C40.4334 114.4 40.0901 113.814 40.0839 113.367C40.0774 112.905 40.3785 112.757 40.7812 113.022C41.1677 113.272 41.511 113.858 41.5174 114.321Z" fill="#2CD8CF"/>
<path d="M43.9658 115.962C43.9722 116.425 43.6711 116.573 43.2684 116.307C42.8817 116.041 42.5384 115.455 42.5322 115.009C42.5258 114.546 42.8269 114.398 43.2295 114.664C43.632 114.914 43.9593 115.499 43.9658 115.962Z" fill="#2CD8CF"/>
<path d="M46.4141 117.603C46.4206 118.066 46.1195 118.214 45.7168 117.948C45.3301 117.682 44.9868 117.097 44.9806 116.65C44.9741 116.187 45.2753 116.04 45.6779 116.305C46.0803 116.555 46.4077 117.141 46.4141 117.603Z" fill="#2CD8CF"/>
<path d="M48.8629 119.245C48.8693 119.708 48.5682 119.855 48.1655 119.59C47.7788 119.324 47.4355 118.738 47.4293 118.292C47.4229 117.829 47.724 117.681 48.1266 117.947C48.5291 118.196 48.8564 118.782 48.8629 119.245Z" fill="#2CD8CF"/>
<path d="M51.3112 120.886C51.3177 121.349 51.0165 121.497 50.6139 121.231C50.2272 120.965 49.8839 120.38 49.8777 119.933C49.8712 119.47 50.1724 119.322 50.575 119.588C50.9774 119.838 51.3048 120.424 51.3112 120.886Z" fill="#2CD8CF"/>
<path d="M53.76 122.528C53.7664 122.99 53.4653 123.138 53.0626 122.873C52.6759 122.607 52.3326 122.021 52.3264 121.574C52.3199 121.112 52.6211 120.964 53.0237 121.229C53.4262 121.479 53.7535 122.065 53.76 122.528Z" fill="#2CD8CF"/>
<path d="M56.2082 124.169C56.2147 124.632 55.9135 124.78 55.5109 124.514C55.1242 124.248 54.7809 123.662 54.7746 123.216C54.7682 122.753 55.0693 122.605 55.472 122.871C55.8744 123.121 56.2017 123.706 56.2082 124.169Z" fill="#2CD8CF"/>
<path d="M58.6728 125.81C58.6792 126.273 58.3781 126.421 57.9755 126.155C57.5888 125.889 57.2455 125.304 57.2392 124.857C57.2328 124.394 57.5339 124.246 57.9366 124.512C58.323 124.762 58.6504 125.348 58.6728 125.81Z" fill="#2CD8CF"/>
<path d="M14.6364 98.8977C14.6429 99.3604 14.3417 99.5082 13.9391 99.2426C13.5524 98.9767 13.2091 98.391 13.2029 97.9443C13.1964 97.4816 13.4975 97.3338 13.9002 97.5994C14.3026 97.8491 14.63 98.435 14.6364 98.8977Z" fill="#2CD8CF"/>
<path d="M17.0852 100.539C17.0916 101.002 16.7905 101.15 16.3878 100.884C16.0011 100.618 15.6578 100.032 15.6516 99.5856C15.6451 99.1229 15.9463 98.9751 16.3489 99.2408C16.7514 99.4905 17.0787 100.076 17.0852 100.539Z" fill="#2CD8CF"/>
<path d="M19.5335 102.18C19.54 102.643 19.2388 102.791 18.8362 102.525C18.4495 102.259 18.1062 101.674 18.1 101.227C18.0935 100.764 18.3946 100.616 18.7973 100.882C19.1997 101.132 19.5271 101.718 19.5335 102.18Z" fill="#2CD8CF"/>
<path d="M21.9822 103.822C21.9887 104.285 21.6876 104.432 21.2849 104.167C20.8982 103.901 20.5549 103.315 20.5487 102.868C20.5422 102.406 20.8434 102.258 21.246 102.524C21.6485 102.773 21.9758 103.359 21.9822 103.822Z" fill="#2CD8CF"/>
<path d="M24.4465 105.463C24.4529 105.926 24.1518 106.073 23.7491 105.808C23.3624 105.542 23.0192 104.956 23.0129 104.51C23.0065 104.047 23.3076 103.899 23.7103 104.165C24.0967 104.415 24.4241 105.001 24.4465 105.463Z" fill="#2CD8CF"/>
<path d="M26.8952 107.104C26.9017 107.567 26.6005 107.715 26.1979 107.449C25.8112 107.183 25.4679 106.598 25.4617 106.151C25.4552 105.688 25.7563 105.54 26.159 105.806C26.5455 106.056 26.8728 106.642 26.8952 107.104Z" fill="#2CD8CF"/>
<path d="M29.3436 108.746C29.35 109.209 29.0489 109.356 28.6462 109.091C28.2595 108.825 27.9163 108.239 27.91 107.792C27.9036 107.33 28.2047 107.182 28.6074 107.448C28.9938 107.697 29.3212 108.283 29.3436 108.746Z" fill="#2CD8CF"/>
<path d="M31.7918 110.387C31.7983 110.85 31.4971 110.998 31.0945 110.732C30.7078 110.466 30.3645 109.881 30.3583 109.434C30.3518 108.971 30.6529 108.823 31.0556 109.089C31.4421 109.339 31.7694 109.925 31.7918 110.387Z" fill="#2CD8CF"/>
<path d="M34.2405 112.029C34.247 112.491 33.9459 112.639 33.5432 112.373C33.1565 112.108 32.8132 111.522 32.807 111.075C32.8005 110.612 33.1017 110.465 33.5043 110.73C33.8908 110.98 34.2341 111.566 34.2405 112.029Z" fill="#2CD8CF"/>
<path d="M36.6889 113.67C36.6954 114.133 36.3942 114.281 35.9916 114.015C35.6049 113.749 35.2616 113.163 35.2554 112.717C35.2489 112.254 35.55 112.106 35.9527 112.372C36.3392 112.622 36.6825 113.207 36.6889 113.67Z" fill="#2CD8CF"/>
<path d="M39.1376 115.311C39.1441 115.774 38.843 115.922 38.4403 115.656C38.0536 115.39 37.7103 114.805 37.7041 114.358C37.6976 113.895 37.9988 113.747 38.4014 114.013C38.8039 114.263 39.1312 114.849 39.1376 115.311Z" fill="#2CD8CF"/>
<path d="M41.5859 116.953C41.5924 117.416 41.2912 117.563 40.8886 117.298C40.5019 117.032 40.1586 116.446 40.1523 115.999C40.1459 115.537 40.447 115.389 40.8497 115.655C41.2521 115.904 41.5795 116.49 41.5859 116.953Z" fill="#2CD8CF"/>
<path d="M44.0343 118.594C44.0407 119.057 43.7396 119.205 43.3369 118.939C42.9502 118.673 42.6069 118.088 42.6007 117.641C42.5942 117.178 42.8954 117.03 43.298 117.296C43.7005 117.546 44.0278 118.132 44.0343 118.594Z" fill="#2CD8CF"/>
<path d="M46.483 120.236C46.4894 120.698 46.1883 120.846 45.7856 120.58C45.3989 120.315 45.0557 119.729 45.0494 119.282C45.043 118.819 45.3441 118.672 45.7468 118.937C46.1492 119.187 46.4765 119.773 46.483 120.236Z" fill="#2CD8CF"/>
<path d="M48.9314 121.877C48.9378 122.34 48.6367 122.488 48.234 122.222C47.8473 121.956 47.504 121.37 47.4978 120.924C47.4913 120.461 47.7925 120.313 48.1951 120.579C48.5976 120.828 48.9249 121.414 48.9314 121.877Z" fill="#2CD8CF"/>
<path d="M51.3801 123.518C51.3865 123.981 51.0854 124.129 50.6827 123.863C50.296 123.597 49.9528 123.012 49.9465 122.565C49.9401 122.102 50.2412 121.954 50.6439 122.22C51.0463 122.47 51.3736 123.056 51.3801 123.518Z" fill="#2CD8CF"/>
<path d="M53.8443 125.16C53.8508 125.622 53.5496 125.77 53.147 125.504C52.7603 125.238 52.417 124.653 52.4108 124.206C52.4043 123.743 52.7054 123.596 53.1081 123.861C53.4946 124.111 53.8219 124.697 53.8443 125.16Z" fill="#2CD8CF"/>
<path d="M56.293 126.801C56.2995 127.264 55.9984 127.412 55.5957 127.146C55.209 126.88 54.8657 126.294 54.8595 125.848C54.853 125.385 55.1542 125.237 55.5568 125.503C55.9433 125.753 56.2706 126.339 56.293 126.801Z" fill="#2CD8CF"/>
<path d="M58.7413 128.442C58.7477 128.905 58.4466 129.053 58.0439 128.787C57.6572 128.521 57.314 127.936 57.3077 127.489C57.3013 127.026 57.6024 126.878 58.0051 127.144C58.3915 127.394 58.7189 127.98 58.7413 128.442Z" fill="#2CD8CF"/>
<path d="M50.4064 74.738L50.3764 75.9826L23.2895 59.2852L23.3195 58.0406L50.4064 74.738Z" fill="url(#paint5_linear)"/>
<path d="M23.1994 63.2419L50.2863 79.9393L50.3163 78.6787L23.2294 61.9973L23.1994 63.2419Z" fill="url(#paint6_linear)"/>
<path d="M23.1093 66.9918L50.1962 83.6732L50.2262 82.4286L23.1393 65.7471L23.1093 66.9918Z" fill="url(#paint7_linear)"/>
<path d="M23.0196 70.9498L50.0905 87.6313L50.1206 86.3866L23.0496 69.6892L23.0196 70.9498Z" fill="url(#paint8_linear)"/>
<path fill-rule="evenodd" clip-rule="evenodd" d="M13 46.0144C12.0663 45.8878 11.1366 46.6097 11.1366 47.6557L11 68.3968C11 69.8547 11.7649 71.2026 12.9941 71.9728L13 71.9765V46.0144Z" fill="url(#paint9_linear)"/>
<path fill-rule="evenodd" clip-rule="evenodd" d="M12.5 69.6039L60.9322 99.3417C61.2307 99.5296 61.5516 99.6066 61.8593 99.5941C61.7162 100.679 60.4039 101.452 59.5 101L13 72.0002C11.7708 71.23 11 69.6948 11 68.2369L11.0016 68C11.3474 68.647 11.8609 69.2035 12.5 69.6039Z" fill="url(#paint10_linear)"/>
</g>
<defs>
<linearGradient id="paint0_linear" x1="13.5719" y1="84.1314" x2="127.488" y2="84.1314" gradientUnits="userSpaceOnUse">
<stop stop-color="#E7EFF5"/>
<stop offset="0.2574" stop-color="#C3C5D2"/>
<stop offset="0.3352" stop-color="#C6C8D5"/>
<stop offset="0.3997" stop-color="#CED3DD"/>
<stop offset="0.4592" stop-color="#DDE4EC"/>
<stop offset="0.4655" stop-color="#DFE6EE"/>
<stop offset="0.5693" stop-color="#98A5B5"/>
<stop offset="0.995" stop-color="#7E8EA0"/>
</linearGradient>
<linearGradient id="paint1_linear" x1="5.91839" y1="84.4439" x2="128.604" y2="84.4439" gradientUnits="userSpaceOnUse">
<stop stop-color="#475375"/>
<stop offset="0.483607" stop-color="#2E364F"/>
<stop offset="0.532513" stop-color="#2E374F"/>
<stop offset="0.593645" stop-color="#27293B"/>
<stop offset="1" stop-color="#2D3146"/>
</linearGradient>
<linearGradient id="paint2_linear" x1="31.9204" y1="54.9195" x2="99.8618" y2="16.479" gradientUnits="userSpaceOnUse">
<stop stop-color="#596482"/>
<stop offset="0.995" stop-color="#2A3D6B"/>
</linearGradient>
<linearGradient id="paint3_linear" x1="31.9175" y1="52.9111" x2="99.8588" y2="14.4706" gradientUnits="userSpaceOnUse">
<stop stop-color="#687599"/>
<stop offset="0.995" stop-color="#49587E"/>
</linearGradient>
<linearGradient id="paint4_linear" x1="14.3993" y1="56.5752" x2="62.1398" y2="62.5903" gradientUnits="userSpaceOnUse">
<stop stop-color="#6A7497"/>
</linearGradient>
<linearGradient id="paint5_linear" x1="23.1106" y1="66.6709" x2="50.583" y2="67.3356" gradientUnits="userSpaceOnUse">
<stop offset="0.995" stop-color="#2CD8CF"/>
</linearGradient>
<linearGradient id="paint6_linear" x1="23.0205" y1="70.6276" x2="50.4929" y2="71.2923" gradientUnits="userSpaceOnUse">
<stop offset="0.995" stop-color="#2CD8CF"/>
</linearGradient>
<linearGradient id="paint7_linear" x1="22.9304" y1="74.3698" x2="50.4028" y2="75.0352" gradientUnits="userSpaceOnUse">
<stop offset="0.995" stop-color="#2CD8CF"/>
</linearGradient>
<linearGradient id="paint8_linear" x1="22.8408" y1="78.3195" x2="50.2971" y2="78.9834" gradientUnits="userSpaceOnUse">
<stop offset="0.995" stop-color="#2CD8CF"/>
</linearGradient>
<linearGradient id="paint9_linear" x1="14.3993" y1="56.5764" x2="19.8731" y2="65.8172" gradientUnits="userSpaceOnUse">
<stop stop-color="#2C344B"/>
<stop offset="0.953125" stop-color="#3D4763"/>
</linearGradient>
<linearGradient id="paint10_linear" x1="14.401" y1="56.3115" x2="62.1782" y2="62.281" gradientUnits="userSpaceOnUse">
<stop stop-color="#3C4561"/>
<stop offset="1" stop-color="#484F66"/>
</linearGradient>
<clipPath id="clip0">
<rect x="6" width="128.967" height="140" fill="white"/>
</clipPath>
</defs>
</svg>
