<svg width="140" height="140" viewBox="0 0 140 140" fill="none" xmlns="http://www.w3.org/2000/svg">
<path d="M123.353 35.9889V102.961C123.353 104.371 124.507 105.524 125.916 105.524C127.326 105.524 128.48 106.678 128.48 108.088V125.392C128.48 126.801 127.326 127.955 125.916 127.955H108.613C107.203 127.955 106.049 126.801 106.049 125.392C106.049 123.982 104.896 122.828 103.486 122.828H36.5138C35.1039 122.828 33.9503 123.982 33.9503 125.392C33.9503 126.801 32.7967 127.955 31.3868 127.955H14.083C12.6731 127.955 11.5195 126.801 11.5195 125.392V108.088C11.5195 106.678 12.6731 105.524 14.083 105.524C15.493 105.524 16.6466 104.371 16.6466 102.961V35.9889C16.6466 34.579 15.493 33.4254 14.083 33.4254C12.6731 33.4254 11.5195 32.2718 11.5195 30.8619V13.5581C11.5195 12.1482 12.6731 10.9946 14.083 10.9946H31.3868C32.7967 10.9946 33.9503 12.1482 33.9503 13.5581C33.9503 14.9681 35.1039 16.1217 36.5138 16.1217H103.486C104.896 16.1217 106.049 14.9681 106.049 13.5581C106.049 12.1482 107.203 10.9946 108.613 10.9946H125.916C127.326 10.9946 128.48 12.1482 128.48 13.5581V30.8619C128.48 32.2718 127.326 33.4254 125.916 33.4254C124.507 33.4254 123.353 34.579 123.353 35.9889Z" fill="url(#paint0_linear)"/>
<path d="M22.5746 22.0498V116.9H117.425V22.0498H22.5746ZM24.0166 36.037V23.4918H36.5618L24.0166 36.037ZM24.0166 58.4357V38.0718L38.5966 23.4918H58.9605L24.0166 58.4357ZM24.0166 80.8344V60.4705L61.0113 23.4758H81.3752L24.0166 80.8344ZM24.0166 103.233V82.8692L83.41 23.4758H103.774L24.0166 103.233ZM115.983 102.913V115.458H103.437L115.983 102.913ZM115.983 80.514V100.878L101.403 115.458H81.0388L115.983 80.514ZM115.983 58.1153V78.4632L78.988 115.458H58.64L115.983 58.1153ZM115.983 35.7165V56.0805L56.5892 115.458H36.2413L115.983 35.7165ZM24.0166 115.458V105.284L105.809 23.4918H115.983V33.6657L34.1905 115.458H24.0166Z" fill="url(#paint1_linear)"/>
<path d="M113.419 26.0553V112.894H26.5801V26.0553H113.419ZM117.425 22.0498H22.5746V116.9H117.425V22.0498Z" fill="#2CD8CF"/>
<path d="M30.5055 14.4392H14.9642V29.9805H30.5055V14.4392Z" fill="url(#paint2_linear)"/>
<path d="M30.2652 14.6796V29.7403H15.2045V14.6796H30.2652ZM30.7458 14.199H14.7239V30.2209H30.7458V14.199Z" fill="#2CD8CF"/>
<path d="M30.5055 108.969H14.9642V124.51H30.5055V108.969Z" fill="url(#paint3_linear)"/>
<path d="M30.2652 109.209V124.27H15.2045V109.209H30.2652ZM30.7458 108.729H14.7239V124.75H30.7458V108.729Z" fill="#2CD8CF"/>
<path d="M125.035 14.4392H109.494V29.9805H125.035V14.4392Z" fill="url(#paint4_linear)"/>
<path d="M124.795 14.6796V29.7403H109.734V14.6796H124.795ZM125.276 14.199H109.254V30.2209H125.276V14.199Z" fill="#2CD8CF"/>
<path d="M125.035 108.969H109.494V124.51H125.035V108.969Z" fill="url(#paint5_linear)"/>
<mask id="path-12-inside-1" fill="white">
<path d="M124.795 109.209V124.27H109.734V109.209H124.795ZM125.276 108.729H109.254V124.75H125.276V108.729Z"/>
</mask>
<path d="M124.795 109.209V124.27H109.734V109.209H124.795ZM125.276 108.729H109.254V124.75H125.276V108.729Z" fill="#2CD8CF"/>
<path d="M124.795 109.209H125.795V108.209H124.795V109.209ZM124.795 124.27V125.27H125.795V124.27H124.795ZM109.734 124.27H108.734V125.27H109.734V124.27ZM109.734 109.209V108.209H108.734V109.209H109.734ZM125.276 108.729H126.276V107.729H125.276V108.729ZM109.254 108.729V107.729H108.254V108.729H109.254ZM109.254 124.75H108.254V125.75H109.254V124.75ZM125.276 124.75V125.75H126.276V124.75H125.276ZM123.795 109.209V124.27H125.795V109.209H123.795ZM124.795 123.27H109.734V125.27H124.795V123.27ZM110.734 124.27V109.209H108.734V124.27H110.734ZM109.734 110.209H124.795V108.209H109.734V110.209ZM125.276 107.729H109.254V109.729H125.276V107.729ZM108.254 108.729V124.75H110.254V108.729H108.254ZM109.254 125.75H125.276V123.75H109.254V125.75ZM126.276 124.75V108.729H124.276V124.75H126.276Z" fill="#2CD8CF" mask="url(#path-12-inside-1)"/>
<defs>
<linearGradient id="paint0_linear" x1="17.1596" y1="38.2462" x2="133.285" y2="106.877" gradientUnits="userSpaceOnUse">
<stop stop-color="#6C7BA3"/>
<stop offset="0.5" stop-color="#5B698D"/>
<stop offset="0.995" stop-color="#435071"/>
</linearGradient>
<linearGradient id="paint1_linear" x1="78.5737" y1="107.897" x2="57.2645" y2="12.4061" gradientUnits="userSpaceOnUse">
<stop offset="1" stop-color="#2CD8CF"/>
</linearGradient>
<linearGradient id="paint2_linear" x1="14.9642" y1="22.2099" x2="30.5055" y2="22.2099" gradientUnits="userSpaceOnUse">
<stop offset="1" stop-color="#919CBD"/>
</linearGradient>
<linearGradient id="paint3_linear" x1="14.9642" y1="116.739" x2="30.5055" y2="116.739" gradientUnits="userSpaceOnUse">
<stop offset="1" stop-color="#919CBD"/>
</linearGradient>
<linearGradient id="paint4_linear" x1="109.494" y1="22.2099" x2="125.035" y2="22.2099" gradientUnits="userSpaceOnUse">
<stop offset="1" stop-color="#919CBD"/>
</linearGradient>
<linearGradient id="paint5_linear" x1="109.494" y1="116.739" x2="125.035" y2="116.739" gradientUnits="userSpaceOnUse">
<stop offset="1" stop-color="#919CBD"/>
</linearGradient>
</defs>
</svg>
