<svg width="140" height="140" viewBox="0 0 140 140" fill="none" xmlns="http://www.w3.org/2000/svg">
<g clip-path="url(#clip0)">
<path d="M1.09113 32.1047V109.48C1.09113 112.334 2.58375 114.928 4.98493 116.42L34.9024 136.461C40.2888 139.769 47.0381 139.769 52.4894 136.461L102.395 101.957C104.796 100.465 106.289 97.8708 106.289 95.0171V17.6414L1.09113 32.1047Z" fill="url(#paint0_linear)"/>
<path d="M103.563 25.0088L52.7492 56.0758C47.168 59.5133 40.0943 59.5133 34.5132 56.0758L2.84351 37.7858C0.182746 36.1644 0.442325 32.208 3.36268 30.9757L62.289 3.15158C65.9881 1.59498 70.1415 1.59498 73.7757 3.15158L102.914 15.1503C107.068 16.9664 107.457 22.7387 103.563 25.0088Z" fill="url(#paint1_linear)"/>
<path d="M103.563 23.0246L52.7492 54.0917C47.168 57.5291 40.0943 57.5291 34.5132 54.0917L2.84351 35.8017C0.182746 34.1802 0.442325 30.2239 3.36268 28.9916L62.289 1.16745C65.9881 -0.389149 70.1415 -0.389149 73.7757 1.16745L102.914 13.1662C107.068 14.9822 107.457 20.7546 103.563 23.0246Z" fill="url(#paint2_linear)"/>
<path d="M65.5987 90.096C65.5987 89.9288 65.6823 89.7726 65.8215 89.6799L66.1844 89.4381C66.5167 89.2167 66.9616 89.4549 66.9616 89.8542V118.552C66.9616 118.719 66.878 118.876 66.7388 118.968L66.3759 119.21C66.0436 119.431 65.5987 119.193 65.5987 118.794V90.096ZM68.7138 116.589C68.7138 116.988 69.1587 117.226 69.491 117.005L69.8538 116.763C69.993 116.67 70.0766 116.514 70.0766 116.347V86.0925C70.0766 85.6932 69.6316 85.455 69.2994 85.6764L68.9365 85.9181C68.7974 86.0108 68.7138 86.167 68.7138 86.3342V116.589ZM71.8937 114.448C71.8937 114.848 72.3387 115.086 72.671 114.865L73.0338 114.623C73.1729 114.53 73.2565 114.374 73.2565 114.207V82.3307C73.2565 81.9314 72.8116 81.6932 72.4793 81.9146L72.1165 82.1563C71.9773 82.2491 71.8937 82.4052 71.8937 82.5724V114.448ZM75.0087 112.308C75.0087 112.707 75.4537 112.946 75.786 112.724L76.1489 112.482C76.288 112.39 76.3716 112.234 76.3716 112.066V78.5689C76.3716 78.1696 75.9267 77.9314 75.5944 78.1528L75.2315 78.3946C75.0923 78.4873 75.0087 78.6435 75.0087 78.8107V112.308ZM78.1887 110.168C78.1887 110.567 78.6336 110.805 78.9659 110.584L79.3287 110.342C79.4679 110.249 79.5515 110.093 79.5515 109.926V74.8072C79.5515 74.4079 79.1066 74.1697 78.7743 74.3911L78.4114 74.6328C78.2723 74.7255 78.1887 74.8817 78.1887 75.0489V110.168ZM81.3686 107.963C81.3686 108.362 81.8136 108.6 82.1459 108.379L82.5087 108.137C82.6479 108.044 82.7315 107.888 82.7315 107.721V70.9805C82.7315 70.5813 82.2865 70.343 81.9542 70.5644L81.5914 70.8062C81.4522 70.8989 81.3686 71.0551 81.3686 71.2223V107.963ZM84.4837 105.822C84.4837 106.222 84.9287 106.46 85.261 106.238L85.6238 105.997C85.7629 105.904 85.8465 105.748 85.8465 105.581V67.2836C85.8465 66.8843 85.4016 66.6461 85.0693 66.8675L84.7065 67.1093C84.5673 67.202 84.4837 67.3581 84.4837 67.5254V105.822ZM87.5987 103.682C87.5987 104.081 88.0437 104.319 88.376 104.098L88.7388 103.856C88.8779 103.764 88.9615 103.607 88.9615 103.44V63.457C88.9615 63.0577 88.5166 62.8195 88.1843 63.0409L87.8215 63.2826C87.6823 63.3754 87.5987 63.5315 87.5987 63.6987V103.682ZM90.7787 101.477C90.7787 101.876 91.2236 102.114 91.5559 101.893L91.9187 101.651C92.0579 101.558 92.1415 101.402 92.1415 101.235V59.6952C92.1415 59.2959 91.6965 59.0577 91.3643 59.2791L91.0014 59.5209C90.8623 59.6136 90.7787 59.7697 90.7787 59.937V101.477ZM94.1033 55.8228C93.9718 55.9167 93.8938 56.0683 93.8938 56.2298V99.3365C93.8938 99.7358 94.3387 99.974 94.671 99.7526L95.0338 99.5109C95.173 99.4181 95.2566 99.262 95.2566 99.0948V55.9708C95.2566 55.5642 94.797 55.3276 94.4661 55.5638L94.1033 55.8228Z" fill="#2FAAAF"/>
<path d="M32.7615 57.7236L10.6966 45.0114C10.0477 44.6222 9.33383 44.3628 8.61996 44.3628C6.34858 44.3628 4.53143 46.2437 4.53143 48.5786V74.9758C4.53143 76.2081 5.18042 77.3756 6.21877 78.0242L16.0831 84.3154C18.9386 86.1314 20.7556 89.4392 20.7556 92.9415V115.123C20.7556 116.355 21.4046 117.588 22.5079 118.236L30.8146 123.23C31.5285 123.749 32.3072 124.009 33.1509 124.009C35.2276 124.009 37.4342 122.322 37.4342 119.598V66.4145C37.4342 62.8474 35.617 59.5396 32.7615 57.7236Z" fill="url(#paint3_linear)"/>
<path d="M10.6314 109.676C10.5016 109.676 10.3719 109.611 10.2421 109.546L6.47803 107.016C6.15354 106.822 5.95886 106.498 5.95886 106.108V102.995C5.95886 102.736 6.21846 102.541 6.41315 102.541C6.47804 102.541 6.54296 102.606 6.67275 102.606L10.6963 105.136C11.0857 105.395 11.3453 105.784 11.3453 106.238V108.897C11.3453 109.092 11.2804 109.286 11.1506 109.416C11.0208 109.611 10.8261 109.676 10.6314 109.676ZM10.6314 101.05C10.5016 101.05 10.3719 100.985 10.2421 100.92L6.47803 98.3903C6.15354 98.1958 5.95886 97.8715 5.95886 97.4823V94.3691C5.95886 94.1097 6.21846 93.9151 6.41315 93.9151C6.47804 93.9151 6.54296 93.98 6.67275 93.98L10.6963 96.5094C11.0857 96.7689 11.3453 97.158 11.3453 97.612V100.271C11.3453 100.466 11.2804 100.66 11.1506 100.79C11.0208 100.985 10.8261 101.05 10.6314 101.05ZM10.6314 92.7477C10.5016 92.7477 10.3719 92.6828 10.2421 92.618L6.47803 90.0885C6.15354 89.8939 5.95886 89.5696 5.95886 89.1805V86.0673C5.95886 85.8079 6.21846 85.6133 6.41315 85.6133C6.47804 85.6133 6.54296 85.6133 6.67275 85.6781L10.6963 88.2076C11.0857 88.467 11.3453 88.8562 11.3453 89.3102V91.9694C11.3453 92.4234 11.0208 92.7477 10.6314 92.7477Z" fill="#2ED8CF"/>
<path d="M6.47846 85.6776C6.54335 85.6776 6.60828 85.6776 6.67318 85.7424L10.6967 88.2719C11.0212 88.4665 11.2808 88.9205 11.2808 89.3096V91.9688C11.2808 92.358 10.9564 92.6174 10.6319 92.6174C10.5021 92.6174 10.3723 92.5525 10.3074 92.5525L6.54338 90.0231C6.21889 89.8285 6.08909 89.5042 6.08909 89.1799V86.0667C6.08909 85.8073 6.28377 85.6776 6.47846 85.6776ZM6.47846 93.9794C6.54335 93.9794 6.60828 93.9794 6.67318 94.0443L10.6967 96.5737C11.0861 96.7683 11.2808 97.2223 11.2808 97.6115V100.271C11.2808 100.66 10.9564 100.919 10.6319 100.919C10.5021 100.919 10.3723 100.854 10.3074 100.854L6.54338 98.3249C6.21889 98.1303 6.08909 97.806 6.08909 97.4817V94.3686C6.08909 94.174 6.28377 93.9794 6.47846 93.9794ZM6.47846 102.67C6.54335 102.67 6.60828 102.67 6.67318 102.735L10.6967 105.265C11.0861 105.459 11.2808 105.913 11.2808 106.302V108.962C11.2808 109.351 10.9564 109.61 10.6319 109.61C10.5021 109.61 10.3723 109.545 10.3074 109.545L6.54338 107.016C6.21889 106.821 6.08909 106.497 6.08909 106.173V103.06C6.08909 102.8 6.28377 102.67 6.47846 102.67ZM6.47846 85.5479C6.21887 85.5479 5.95929 85.7424 5.95929 86.0667V89.1799C5.95929 89.5691 6.15397 89.9582 6.47846 90.1528L10.2425 92.6822C10.3723 92.7471 10.5021 92.812 10.6319 92.812C11.0861 92.812 11.4755 92.4877 11.4755 91.9688V89.3096C11.4755 88.7908 11.2159 88.4016 10.8265 88.0773L6.73806 85.6127C6.67316 85.5479 6.54335 85.5479 6.47846 85.5479ZM6.47846 93.8497C6.21887 93.8497 5.95929 94.0443 5.95929 94.3686V97.4817C5.95929 97.8709 6.15397 98.26 6.47846 98.4546L10.2425 100.984C10.3723 101.049 10.5021 101.114 10.6319 101.114C11.0861 101.114 11.4755 100.79 11.4755 100.271V97.6115C11.4755 97.0926 11.2159 96.7035 10.8265 96.3792L6.80294 93.8497C6.60825 93.9145 6.54335 93.8497 6.47846 93.8497ZM6.47846 102.476C6.21887 102.476 5.95929 102.67 5.95929 102.995V106.108C5.95929 106.497 6.15397 106.886 6.47846 107.081L10.2425 109.61C10.3723 109.675 10.5021 109.74 10.6319 109.74C11.0861 109.74 11.4755 109.416 11.4755 108.897V106.238C11.4755 105.719 11.2159 105.33 10.8265 105.005L6.80294 102.476C6.60825 102.541 6.54335 102.476 6.47846 102.476Z" fill="#0A396F"/>
<path d="M30.2306 94.8876V100.336L28.1534 99.1034V93.6553L30.2306 94.8876ZM28.2183 107.146L30.2956 108.378V102.93L28.2183 101.698V107.146ZM28.2183 115.058L30.2956 116.291V110.843L28.2183 109.61V115.058Z" fill="#0C1116"/>
<path d="M28.8681 94.0444V99.4925L28.2189 99.1034V93.6553L28.8681 94.0444ZM28.2189 107.146L28.8681 107.535V102.087L28.2189 101.698V107.146ZM28.2189 115.058L28.8681 115.448V110L28.2189 109.61V115.058Z" fill="#8A99CD"/>
<path d="M29.0616 62.653V63.561L8.29462 51.4325V50.5894L29.0616 62.653ZM8.29462 54.4808L29.0616 66.6093V65.7013L8.29462 53.5728V54.4808ZM8.29462 57.3346L29.0616 69.4631V68.5551L8.29462 56.4266V57.3346ZM8.29462 60.3181L29.0616 72.4465V71.5385L8.29462 59.4101V60.3181ZM8.29462 63.1718L29.0616 75.3003V74.3923L8.29462 62.2638V63.1718Z" fill="url(#paint4_linear)"/>
<rect x="69.5107" y="71.4893" width="68.2107" height="68.2108"/>
<path d="M103.762 138.876C122.16 138.876 137.075 123.961 137.075 105.563C137.075 87.1644 122.16 72.2495 103.762 72.2495C85.3634 72.2495 70.4485 87.1644 70.4485 105.563C70.4485 123.961 85.3634 138.876 103.762 138.876Z" fill="#C4C4C4" stroke="#292C3E" stroke-width="2" stroke-miterlimit="10"/>
<path d="M103.762 136.978C121.112 136.978 135.177 122.913 135.177 105.563C135.177 88.213 121.112 74.1479 103.762 74.1479C86.4119 74.1479 72.3469 88.213 72.3469 105.563C72.3469 122.913 86.4119 136.978 103.762 136.978Z" fill="url(#paint5_linear)" stroke="#2ED8CF" stroke-miterlimit="10"/>
<path d="M134.107 113.694C138.597 96.9351 128.652 79.709 111.893 75.2184C95.1339 70.7279 77.9078 80.6734 73.4172 97.4323C68.9267 114.191 78.8722 131.417 95.6311 135.908C112.39 140.399 129.616 130.453 134.107 113.694Z" fill="url(#paint6_diamond)" fill-opacity="0.7" stroke="#2ED8CF" stroke-miterlimit="10"/>
<path d="M103.612 117.251C110.051 117.251 115.27 112.032 115.27 105.594C115.27 99.1555 110.051 93.9363 103.612 93.9363C97.1743 93.9363 91.9551 99.1555 91.9551 105.594C91.9551 112.032 97.1743 117.251 103.612 117.251Z" fill="url(#paint7_linear)" stroke="#272A3C" stroke-width="3" stroke-miterlimit="10"/>
<path d="M103.463 111.603C106.864 111.603 109.621 108.846 109.621 105.445C109.621 102.045 106.864 99.2878 103.463 99.2878C100.062 99.2878 97.3057 102.045 97.3057 105.445C97.3057 108.846 100.062 111.603 103.463 111.603Z" fill="#F0F4F7" stroke="#282B3D" stroke-miterlimit="10"/>
<path d="M126.778 91.2315L130.559 101.365C130.768 101.873 130.514 102.47 129.991 102.68L126.404 104.413C125.866 104.623 125.269 104.354 125.074 103.816L121.398 93.5481C121.218 93.0399 121.457 92.472 121.966 92.2628L125.463 90.6636C125.971 90.4544 126.569 90.7084 126.778 91.2315Z" fill="url(#paint8_linear)"/>
<path d="M124.222 93.6382L124.297 93.7876C124.222 93.8325 124.163 93.8923 124.133 93.9371C124.088 93.9819 124.073 94.0417 124.058 94.1164C124.043 94.1912 124.058 94.2659 124.088 94.3406C124.118 94.4154 124.148 94.4452 124.178 94.4901C124.222 94.52 124.267 94.5499 124.312 94.5499C124.357 94.5499 124.402 94.5499 124.447 94.52C124.491 94.4901 124.536 94.4602 124.566 94.4154C124.596 94.3705 124.611 94.3257 124.611 94.2659C124.611 94.2211 124.611 94.1314 124.596 94.0118C124.596 93.8773 124.596 93.7876 124.596 93.7129C124.611 93.6382 124.641 93.5635 124.686 93.5037C124.73 93.4439 124.79 93.3991 124.865 93.3542C124.94 93.3243 125.014 93.2944 125.104 93.2944C125.179 93.2944 125.254 93.3243 125.313 93.3692C125.373 93.414 125.418 93.4887 125.448 93.5635C125.478 93.6531 125.493 93.7577 125.493 93.8474C125.478 93.9371 125.448 94.0268 125.403 94.1015C125.343 94.1613 125.269 94.236 125.194 94.2808L125.119 94.1314C125.209 94.0716 125.283 93.9969 125.313 93.9221C125.343 93.8474 125.328 93.7577 125.298 93.6681C125.254 93.5635 125.209 93.5037 125.149 93.4738C125.089 93.4588 125.029 93.4588 124.955 93.4887C124.895 93.5186 124.865 93.5635 124.835 93.6083C124.805 93.6531 124.805 93.7578 124.82 93.9072C124.835 94.0716 124.835 94.1762 124.82 94.236C124.805 94.3257 124.775 94.4154 124.73 94.4901C124.671 94.5499 124.611 94.6097 124.536 94.6545C124.447 94.6993 124.372 94.7143 124.282 94.7143C124.207 94.7143 124.118 94.6993 124.058 94.6395C123.998 94.5798 123.938 94.52 123.908 94.4303C123.879 94.3107 123.849 94.2061 123.864 94.1164C123.879 94.0268 123.908 93.9221 123.968 93.8474C124.043 93.7577 124.118 93.683 124.222 93.6382Z" fill="#151A1E"/>
<path d="M126.031 95.147L126.106 95.3264L125.209 95.7598C125.044 95.8345 124.925 95.8793 124.835 95.8943C124.746 95.9092 124.641 95.8943 124.551 95.8495C124.462 95.8046 124.402 95.7149 124.357 95.6103C124.312 95.4908 124.297 95.3861 124.327 95.2815C124.342 95.1769 124.402 95.1022 124.477 95.0125C124.551 94.9228 124.671 94.8481 124.85 94.7734L125.732 94.3101L125.807 94.4894L124.925 94.9378C124.79 94.9975 124.701 95.0573 124.641 95.1171C124.581 95.162 124.551 95.2217 124.536 95.2965C124.521 95.3562 124.521 95.431 124.551 95.5057C124.596 95.6253 124.671 95.7 124.76 95.7149C124.835 95.7299 124.985 95.7 125.194 95.5954L126.031 95.147Z" fill="#151A1E"/>
<path d="M124.656 96.3584L126.21 95.6111L126.285 95.7904L125.313 97.0309L126.539 96.463L126.599 96.6274L125.029 97.3597L124.97 97.1953L125.941 95.9698L124.73 96.5527L124.656 96.3584Z" fill="#151A1E"/>
<path d="M125.134 97.6292L126.703 96.9119L126.778 97.0912L125.209 97.8086L125.134 97.6292Z" fill="#151A1E"/>
<path d="M125.299 98.0764L126.883 97.374L126.958 97.5534L125.956 98.7639L127.197 98.2259L127.256 98.3903L125.657 99.0778L125.597 98.9134L126.599 97.7028L125.358 98.2558L125.299 98.0764Z" fill="#151A1E"/>
<path d="M125.777 99.3473L127.376 98.6748L127.705 99.5267L127.51 99.6014L127.241 98.9139L126.748 99.1232L126.972 99.706L126.778 99.7808L126.554 99.1979L125.822 99.4968L125.777 99.3473Z" fill="#151A1E"/>
<path d="M126.942 100.019C127.211 99.9147 127.436 99.8848 127.645 99.9296C127.839 99.9894 127.974 100.094 128.033 100.273C128.078 100.393 128.078 100.512 128.048 100.632C128.018 100.752 127.929 100.871 127.839 100.961C127.72 101.065 127.585 101.14 127.421 101.2C127.256 101.26 127.092 101.29 126.942 101.29C126.793 101.29 126.658 101.245 126.569 101.185C126.464 101.11 126.404 101.036 126.36 100.931C126.315 100.811 126.315 100.692 126.345 100.572C126.374 100.453 126.464 100.333 126.569 100.243C126.673 100.154 126.793 100.079 126.942 100.019ZM126.987 100.199C126.793 100.273 126.658 100.378 126.569 100.498C126.479 100.617 126.479 100.752 126.524 100.871C126.569 100.991 126.658 101.065 126.808 101.11C126.957 101.155 127.122 101.125 127.331 101.05C127.465 100.991 127.57 100.946 127.66 100.856C127.749 100.767 127.809 100.707 127.839 100.617C127.869 100.527 127.869 100.453 127.824 100.363C127.779 100.243 127.69 100.169 127.555 100.124C127.421 100.079 127.241 100.094 126.987 100.199Z" fill="#151A1E"/>
</g>
<defs>
<linearGradient id="paint0_linear" x1="0.944524" y1="78.2892" x2="106.221" y2="78.3725" gradientUnits="userSpaceOnUse">
<stop stop-color="#485476"/>
<stop offset="0.356509" stop-color="#2E354E"/>
<stop offset="0.40366" stop-color="#2F3953"/>
<stop offset="0.460271" stop-color="#27293A"/>
<stop offset="1" stop-color="#2D3146"/>
</linearGradient>
<linearGradient id="paint1_linear" x1="12.4154" y1="30.7538" x2="99.2686" y2="14.366" gradientUnits="userSpaceOnUse">
<stop stop-color="#4E5873"/>
<stop offset="0.995" stop-color="#2A3551"/>
</linearGradient>
<linearGradient id="paint2_linear" x1="12.4154" y1="28.7696" x2="99.2686" y2="12.3819" gradientUnits="userSpaceOnUse">
<stop stop-color="#697698"/>
<stop offset="0.995" stop-color="#384464"/>
</linearGradient>
<linearGradient id="paint3_linear" x1="4.43363" y1="83.5791" x2="36.3298" y2="84.7339" gradientUnits="userSpaceOnUse">
<stop stop-color="#6C7699"/>
<stop offset="1" stop-color="#6A7497"/>
</linearGradient>
<linearGradient id="paint4_linear" x1="8.29449" y1="62.9225" x2="29.069" y2="62.9225" gradientUnits="userSpaceOnUse">
<stop stop-color="#2ED8CF"/>
<stop offset="0.995" stop-color="#1CBEB6"/>
</linearGradient>
<linearGradient id="paint5_linear" x1="79.9362" y1="89.3615" x2="121.638" y2="125.603" gradientUnits="userSpaceOnUse">
<stop stop-color="#323E60"/>
<stop offset="0.520833" stop-color="#96A3C4"/>
<stop offset="1" stop-color="#7F8BA9"/>
</linearGradient>
<radialGradient id="paint6_diamond" cx="0" cy="0" r="1" gradientUnits="userSpaceOnUse" gradientTransform="translate(103.269 105.249) rotate(-25.6742) scale(27.1571)">
<stop stop-color="#323E60"/>
<stop offset="0.463542" stop-color="#96A3C4"/>
<stop offset="1" stop-color="#8593B7"/>
</radialGradient>
<linearGradient id="paint7_linear" x1="91.9607" y1="105.597" x2="115.279" y2="105.597" gradientUnits="userSpaceOnUse">
<stop offset="1" stop-color="#5D6A8B"/>
</linearGradient>
<linearGradient id="paint8_linear" x1="123.435" y1="89.5471" x2="128.532" y2="104.975" gradientUnits="userSpaceOnUse">
<stop stop-color="#C6C8D5"/>
<stop offset="0.1769" stop-color="#CED3DD"/>
<stop offset="0.3317" stop-color="#E7EFF5"/>
<stop offset="1" stop-color="#98A5B5"/>
</linearGradient>
<clipPath id="clip0">
<rect x="1" width="137.021" height="140" fill="white"/>
</clipPath>
</defs>
</svg>
