<svg width="140" height="140" viewBox="0 0 140 140" fill="none" xmlns="http://www.w3.org/2000/svg">
<g clip-path="url(#clip0)">
<path d="M11.7091 52.1885V71.8475C11.7091 74.5821 13.1372 77.1041 15.4464 78.517L65.4598 111.773C70.6556 114.948 77.1731 114.948 82.3841 111.773L134.524 77.0129C136.849 75.5848 138.262 73.0629 138.262 70.3434V51.277L11.7091 52.1885Z" fill="url(#paint0_linear)"/>
<path d="M11.7091 52.7962V71.8475C11.7091 74.5821 13.1372 77.1041 15.4464 78.517L65.4598 111.773C70.6556 114.948 77.1731 114.948 82.3841 111.773L134.524 77.0129C136.849 75.5848 138.262 73.0629 138.262 70.3434V51.277L11.7091 52.7962Z" fill="url(#paint1_linear)"/>
<path d="M94.2799 90.5813L95.6016 89.685L95.5561 95.7467L94.2343 96.6431L94.2799 90.5813ZM97.2728 94.5769L98.5945 93.6957L98.6401 87.6036L97.3184 88.4999L97.2728 94.5769ZM100.326 92.5259L101.648 91.6448L101.694 85.5222L100.372 86.4186L100.326 92.5259ZM103.365 90.4598L104.687 89.5786L104.732 83.4257L103.411 84.322L103.365 90.4598ZM106.419 88.4088L107.74 87.5276L107.786 81.3443L106.464 82.2407L106.419 88.4088ZM109.457 86.3426L110.779 85.4615L110.824 79.2478L109.503 80.1441L109.457 86.3426ZM112.511 84.2917L113.833 83.4105L113.878 77.1664L112.556 78.0628L112.511 84.2917ZM115.549 82.2407L116.871 81.3595L116.917 75.0851L115.595 75.9814L115.549 82.2407ZM118.603 80.1593L119.925 79.2782L119.97 72.9733L118.648 73.8697L118.603 80.1593ZM121.687 71.7883L121.641 78.1084L122.963 77.2272L123.009 70.892L121.687 71.7883Z" fill="#2FAAAF"/>
<path d="M25.337 52.9193C25.6256 52.9193 25.6256 52.4635 25.337 52.4635C25.0483 52.4635 25.0483 52.9193 25.337 52.9193Z" fill="url(#paint2_linear)"/>
<path d="M135.77 56.4888L82.7033 87.9218C77.31 91.2186 70.519 91.2186 65.1106 87.9218L13.3956 56.3217C10.8281 54.7568 11.1016 50.9587 13.8666 49.7737L72.4637 24.9494C76.0187 23.4301 80.0143 23.4301 83.5389 24.9494L135.087 47.0087C139.098 48.7255 139.493 54.2251 135.77 56.4888Z" fill="url(#paint3_linear)"/>
<path d="M135.771 54.6788L82.7035 86.1119C77.3102 89.4086 70.5192 89.4086 65.1107 86.1119L13.3958 54.5117C10.8283 52.9469 11.1017 49.1488 13.8667 47.9638L72.4638 23.1394C76.0188 21.6202 80.0144 21.6202 83.5391 23.1394L135.087 45.1988C139.098 46.9155 139.493 52.4152 135.771 54.6788Z" fill="url(#paint4_linear)"/>
<path d="M83.6034 112.11C83.6034 113.284 82.9054 114.353 81.8214 114.813L75.941 118.139C74.174 118.911 72.1247 118.763 70.4765 117.753L3.35705 76.6648C1.87211 75.759 0.98114 74.1553 0.98114 72.4328V51.2278L77.3072 87.3119L83.6925 89.1681L83.6034 112.11Z" fill="url(#paint5_linear)"/>
<path d="M70.6842 94.8249L1.87198 52.6376C0.550377 51.8358 0.74342 49.8608 2.18381 49.3114L8.36117 46.9652C9.90551 46.386 11.6132 46.5197 13.0387 47.3364L82.6083 87.2962C84.0487 88.1129 84.0932 90.1621 82.6974 91.0531L76.8913 94.7655C75.0054 95.9683 72.5849 95.998 70.6842 94.8249Z" fill="url(#paint6_linear)"/>
<path d="M70.6843 92.8903L1.87204 50.7031C0.550438 49.9012 0.743481 47.9262 2.18387 47.3768L8.36124 45.0306C9.90558 44.4515 11.6133 44.5851 13.0388 45.4018L82.6084 85.3616C84.0488 86.1783 84.0933 88.2276 82.6975 89.1185L76.8913 92.8309C75.0055 94.0337 72.585 94.0634 70.6843 92.8903Z" fill="url(#paint7_linear)"/>
<path opacity="0.18" d="M5.40603 58.2536C5.50998 58.9515 5.13874 59.7682 4.55962 59.8128C3.98049 59.8573 3.38651 59.3227 3.20832 58.61C3.03012 57.8972 3.32711 57.1993 3.89139 57.1547C4.45567 57.1102 5.28724 57.526 5.40603 58.2536Z" fill="#2B2F43"/>
<path d="M5.36164 57.9708C5.53983 58.639 5.24285 59.233 4.70827 59.2775C4.17369 59.3221 3.59456 58.8172 3.41637 58.1341C3.23817 57.4659 3.53516 56.8719 4.06974 56.8274C4.60432 56.7828 5.18345 57.3026 5.36164 57.9708Z" fill="url(#paint8_linear)"/>
<path d="M4.50027 59.4252C3.9657 59.4698 3.38657 58.9649 3.20837 58.2818C3.10443 57.8809 3.16383 57.5245 3.34202 57.2869C3.37172 57.2424 3.40142 57.2127 3.43112 57.183C3.46081 57.1533 3.49051 57.1384 3.52021 57.1087C3.59446 57.0642 3.66871 57.0196 3.77265 57.0048C3.80235 56.9899 3.8469 56.9899 3.8766 56.9899C4.41118 56.9454 4.99031 57.4502 5.1685 58.1333C5.33184 58.7867 5.03485 59.3807 4.50027 59.4252Z" fill="url(#paint9_linear)"/>
<path opacity="0.18" d="M5.16525 71.256C5.26919 71.954 4.89796 72.7707 4.31883 72.8152C3.7397 72.8598 3.14573 72.3252 2.96753 71.6124C2.78934 70.8996 3.08633 70.2017 3.65061 70.1572C4.21489 70.1126 5.04645 70.5284 5.16525 71.256Z" fill="#2B2F43"/>
<path d="M5.12086 70.9732C5.29905 71.6414 5.00206 72.2354 4.46748 72.28C3.9329 72.3245 3.35378 71.8196 3.17558 71.1366C2.99739 70.4683 3.29438 69.8744 3.82896 69.8298C4.36354 69.7853 4.94266 70.305 5.12086 70.9732Z" fill="url(#paint10_linear)"/>
<path d="M4.25949 72.4277C3.72491 72.4722 3.14578 71.9673 2.96759 71.2843C2.86364 70.8833 2.92304 70.5269 3.10124 70.2893C3.13093 70.2448 3.16063 70.2151 3.19033 70.1854C3.22003 70.1557 3.24973 70.1409 3.27943 70.1112C3.35368 70.0666 3.42792 70.0221 3.53187 70.0072C3.56157 69.9924 3.60612 69.9924 3.63581 69.9924C4.17039 69.9478 4.74952 70.4527 4.92771 71.1358C5.09106 71.7891 4.79407 72.3831 4.25949 72.4277Z" fill="url(#paint11_linear)"/>
<path opacity="0.18" d="M69.2502 98.3398C69.3542 99.0377 68.9829 99.8544 68.4038 99.899C67.8247 99.9435 67.2307 99.4089 67.0525 98.6962C66.8743 97.9834 67.1713 97.2855 67.7356 97.2409C68.2998 97.1964 69.1314 97.6122 69.2502 98.3398Z" fill="#2B2F43"/>
<path d="M69.2058 98.057C69.384 98.7252 69.087 99.3192 68.5524 99.3637C68.0179 99.4083 67.4387 98.9034 67.2605 98.2203C67.0824 97.5521 67.3793 96.9581 67.9139 96.9136C68.4485 96.869 69.0276 97.3887 69.2058 98.057Z" fill="url(#paint12_linear)"/>
<path d="M68.3444 99.5114C67.8099 99.556 67.2307 99.0511 67.0526 98.368C66.9486 97.9671 67.008 97.6107 67.1862 97.3731C67.2159 97.3285 67.2456 97.2988 67.2753 97.2691C67.305 97.2394 67.3347 97.2246 67.3644 97.1949C67.4386 97.1503 67.5129 97.1058 67.6168 97.0909C67.6465 97.0761 67.6911 97.0761 67.7208 97.0761C68.2554 97.0316 68.8345 97.5364 69.0127 98.2195C69.176 98.8729 68.879 99.4669 68.3444 99.5114Z" fill="url(#paint13_linear)"/>
<path opacity="0.18" d="M69.0089 111.342C69.1129 112.04 68.7416 112.857 68.1625 112.901C67.5834 112.946 66.9894 112.411 66.8112 111.699C66.633 110.986 66.93 110.288 67.4943 110.243C68.0586 110.199 68.8901 110.615 69.0089 111.342Z" fill="#2B2F43"/>
<path d="M68.9645 111.059C69.1427 111.728 68.8457 112.322 68.3112 112.366C67.7766 112.411 67.1975 111.906 67.0193 111.223C66.8411 110.555 67.1381 109.961 67.6726 109.916C68.2072 109.871 68.7864 110.391 68.9645 111.059Z" fill="url(#paint14_linear)"/>
<path d="M68.1032 112.514C67.5686 112.558 66.9895 112.054 66.8113 111.37C66.7073 110.97 66.7667 110.613 66.9449 110.376C66.9746 110.331 67.0043 110.301 67.034 110.272C67.0637 110.242 67.0934 110.227 67.1231 110.197C67.1974 110.153 67.2716 110.108 67.3756 110.093C67.4053 110.079 67.4498 110.079 67.4795 110.079C68.0141 110.034 68.5932 110.539 68.7714 111.222C68.9347 111.875 68.6378 112.469 68.1032 112.514Z" fill="url(#paint15_linear)"/>
<path d="M79.719 32.5865L76.7109 31.0042L77.1109 30.8303L80.1189 32.3952L79.719 32.5865Z" fill="#2CD8CF"/>
<path d="M78.7107 33.0566L75.72 31.4743L76.1026 31.3004L79.1106 32.8653L78.7107 33.0566Z" fill="#2CD8CF"/>
<path d="M77.7198 33.5074L74.7117 31.9425L75.1117 31.7512L78.1023 33.3335L77.7198 33.5074Z" fill="#2CD8CF"/>
<path d="M76.7112 33.9775L73.7031 32.3952L74.103 32.2213L77.1111 33.7862L76.7112 33.9775Z" fill="#2CD8CF"/>
<path d="M75.7029 34.4298L72.7122 32.865L73.1121 32.6737L76.1028 34.256L75.7029 34.4298Z" fill="#2CD8CF"/>
<path d="M74.7116 34.8983L71.7036 33.3335L72.1035 33.1422L75.1115 34.7071L74.7116 34.8983Z" fill="#2CD8CF"/>
<path d="M73.7033 35.3685L70.7126 33.7862L71.1126 33.6123L74.1032 35.1772L73.7033 35.3685Z" fill="#2CD8CF"/>
<path d="M72.712 35.8208L69.704 34.256L70.1039 34.0647L73.0945 35.647L72.712 35.8208Z" fill="#2CD8CF"/>
<path d="M71.7037 36.2893L68.7131 34.7071L69.0956 34.5332L72.1036 36.0981L71.7037 36.2893Z" fill="#2CD8CF"/>
<path d="M70.6951 36.7417L67.7045 35.1769L68.1044 34.9856L71.095 36.5679L70.6951 36.7417Z" fill="#2CD8CF"/>
<path d="M69.7038 37.2118L66.6958 35.647L67.0957 35.4557L70.1038 37.0379L69.7038 37.2118Z" fill="#2CD8CF"/>
<path d="M68.6955 37.6803L65.7049 36.0981L66.1048 35.9242L69.0955 37.4891L68.6955 37.6803Z" fill="#2CD8CF"/>
<path d="M67.7043 38.1327L64.6962 36.5679L65.0961 36.3766L68.0868 37.9589L67.7043 38.1327Z" fill="#2CD8CF"/>
<path d="M66.696 38.6028L63.7053 37.0206L64.0878 36.8467L67.0959 38.4116L66.696 38.6028Z" fill="#2CD8CF"/>
<path d="M65.7047 39.0726L62.6967 37.4903L63.0966 37.2991L66.0872 38.8813L65.7047 39.0726Z" fill="#2CD8CF"/>
<path d="M64.6965 39.5237L61.6884 37.9588L62.0883 37.7676L65.0964 39.3498L64.6965 39.5237Z" fill="#2CD8CF"/>
<path d="M63.6877 39.9939L60.6971 38.4117L61.097 38.2378L64.0876 39.8027L63.6877 39.9939Z" fill="#2CD8CF"/>
<path d="M62.6969 40.4462L59.6888 38.8813L60.0888 38.6901L63.0968 40.2723L62.6969 40.4462Z" fill="#2CD8CF"/>
<path d="M61.6882 40.9148L58.6975 39.3326L59.08 39.1587L62.0881 40.7236L61.6882 40.9148Z" fill="#2CD8CF"/>
<path d="M60.6974 41.3849L57.6893 39.8027L58.0892 39.6288L61.0799 41.1937L60.6974 41.3849Z" fill="#2CD8CF"/>
<path d="M59.6887 41.8373L56.6807 40.2724L57.0806 40.0812L60.0886 41.6634L59.6887 41.8373Z" fill="#2CD8CF"/>
<path d="M58.6804 42.3058L55.6898 40.7236L56.0897 40.5497L59.0803 42.1146L58.6804 42.3058Z" fill="#2CD8CF"/>
<path d="M57.6891 42.7582L54.6811 41.1933L55.081 41.0021L58.089 42.5843L57.6891 42.7582Z" fill="#2CD8CF"/>
<path d="M56.6808 43.2283L53.6902 41.646L54.0727 41.4722L57.0808 43.0371L56.6808 43.2283Z" fill="#2CD8CF"/>
<path d="M55.6896 43.6968L52.6816 42.1145L53.0815 41.9407L56.0721 43.5056L55.6896 43.6968Z" fill="#2CD8CF"/>
<path d="M54.6813 44.1492L51.6906 42.5843L52.0731 42.3931L55.0812 43.9753L54.6813 44.1492Z" fill="#2CD8CF"/>
<path d="M53.6727 44.6193L50.682 43.037L51.0819 42.8632L54.0726 44.428L53.6727 44.6193Z" fill="#2CD8CF"/>
<path d="M52.6818 45.0701L49.6737 43.5052L50.0736 43.314L53.0817 44.8962L52.6818 45.0701Z" fill="#2CD8CF"/>
<path d="M51.6731 45.5402L48.6824 43.9753L49.0823 43.7841L52.073 45.3663L51.6731 45.5402Z" fill="#2CD8CF"/>
<path d="M50.6822 46.0103L47.6742 44.428L48.0741 44.2542L51.0648 45.819L50.6822 46.0103Z" fill="#2CD8CF"/>
<path d="M49.6735 46.4611L46.6829 44.8962L47.0654 44.705L50.0734 46.2872L49.6735 46.4611Z" fill="#2CD8CF"/>
<path d="M48.6826 46.9312L45.6746 45.3489L46.0745 45.175L49.0651 46.7399L48.6826 46.9312Z" fill="#2CD8CF"/>
<path d="M47.674 47.401L44.666 45.8187L45.0659 45.6274L48.0739 47.2097L47.674 47.401Z" fill="#2CD8CF"/>
<path d="M46.6657 47.8521L43.675 46.2872L44.075 46.0959L47.0656 47.6782L46.6657 47.8521Z" fill="#2CD8CF"/>
<path d="M45.6744 48.3222L42.6664 46.7399L43.0663 46.566L46.0743 48.1309L45.6744 48.3222Z" fill="#2CD8CF"/>
<path d="M44.6661 48.7746L41.6755 47.2097L42.058 47.0184L45.066 48.6007L44.6661 48.7746Z" fill="#2CD8CF"/>
<path d="M43.6749 49.2431L40.6668 47.6608L41.0667 47.4869L44.0574 49.0518L43.6749 49.2431Z" fill="#2CD8CF"/>
<path d="M42.6662 49.7132L39.6582 48.1309L40.0581 47.957L43.0662 49.5219L42.6662 49.7132Z" fill="#2CD8CF"/>
<path d="M41.658 50.1656L38.6673 48.6007L39.0672 48.4094L42.0579 49.9917L41.658 50.1656Z" fill="#2CD8CF"/>
<path d="M40.6667 50.6341L37.6586 49.0518L38.0585 48.8779L41.0666 50.4428L40.6667 50.6341Z" fill="#2CD8CF"/>
<path d="M39.6584 51.0865L36.6677 49.5216L37.0502 49.3303L40.0583 50.9126L39.6584 51.0865Z" fill="#2CD8CF"/>
<path d="M85.5958 35.5594L82.3617 34.151L82.7616 33.9597L85.9957 35.3855L85.5958 35.5594Z" fill="#2CD8CF"/>
<path d="M84.5875 36.0295L81.3708 34.6037L81.7533 34.4298L84.9874 35.8556L84.5875 36.0295Z" fill="#2CD8CF"/>
<path d="M83.5962 36.4977L80.3621 35.0719L80.762 34.8806L83.9788 36.3064L83.5962 36.4977Z" fill="#2CD8CF"/>
<path d="M82.5884 36.9504L79.3543 35.5246L79.7542 35.3507L82.9883 36.7765L82.5884 36.9504Z" fill="#2CD8CF"/>
<path d="M81.5792 37.4205L78.3625 35.9947L78.7625 35.8208L81.9791 37.2292L81.5792 37.4205Z" fill="#2CD8CF"/>
<path d="M80.5888 37.8886L77.3547 36.4629L77.7546 36.2716L80.9887 37.6974L80.5888 37.8886Z" fill="#2CD8CF"/>
<path d="M79.5797 38.3413L76.363 36.9156L76.7456 36.7417L79.9796 38.1675L79.5797 38.3413Z" fill="#2CD8CF"/>
<path d="M78.5889 38.8111L75.3548 37.3854L75.7547 37.1941L78.9714 38.6199L78.5889 38.8111Z" fill="#2CD8CF"/>
<path d="M77.5806 39.2622L74.3639 37.8365L74.7464 37.6626L77.9805 39.0884L77.5806 39.2622Z" fill="#2CD8CF"/>
<path d="M76.5719 39.7323L73.3552 38.3066L73.7551 38.1327L76.9718 39.5411L76.5719 39.7323Z" fill="#2CD8CF"/>
<path d="M75.5807 40.2021L72.3466 38.7763L72.7465 38.5851L75.9806 40.0109L75.5807 40.2021Z" fill="#2CD8CF"/>
<path d="M74.5723 40.6532L71.3557 39.2275L71.7556 39.0536L74.9722 40.4794L74.5723 40.6532Z" fill="#2CD8CF"/>
<path d="M73.5811 41.123L70.347 39.6972L70.7469 39.506L73.9636 40.9318L73.5811 41.123Z" fill="#2CD8CF"/>
<path d="M72.5728 41.5757L69.3561 40.1673L69.7386 39.9761L72.9727 41.4019L72.5728 41.5757Z" fill="#2CD8CF"/>
<path d="M71.5641 42.0442L68.3474 40.6185L68.7473 40.4446L71.964 41.8704L71.5641 42.0442Z" fill="#2CD8CF"/>
<path d="M70.5733 42.514L67.3392 41.0882L67.7391 40.897L70.9732 42.3228L70.5733 42.514Z" fill="#2CD8CF"/>
<path d="M69.5646 42.9668L66.3479 41.5411L66.7478 41.3672L69.9645 42.793L69.5646 42.9668Z" fill="#2CD8CF"/>
<path d="M68.5737 43.4365L65.3397 42.0107L65.7396 41.8195L68.9563 43.2452L68.5737 43.4365Z" fill="#2CD8CF"/>
<path d="M67.565 43.8877L64.3483 42.4793L64.7308 42.2881L67.9649 43.7139L67.565 43.8877Z" fill="#2CD8CF"/>
<path d="M66.5742 44.3578L63.3401 42.9321L63.74 42.7582L66.9567 44.184L66.5742 44.3578Z" fill="#2CD8CF"/>
<path d="M65.5655 44.8276L62.3314 43.4018L62.7313 43.2106L65.9654 44.6364L65.5655 44.8276Z" fill="#2CD8CF"/>
<path d="M64.5572 45.2787L61.3405 43.853L61.7404 43.6791L64.9571 45.1049L64.5572 45.2787Z" fill="#2CD8CF"/>
<path d="M63.566 45.7488L60.3319 44.323L60.7318 44.1492L63.9659 45.5576L63.566 45.7488Z" fill="#2CD8CF"/>
<path d="M62.5576 46.2186L59.3409 44.7928L59.7235 44.6016L62.9575 46.0274L62.5576 46.2186Z" fill="#2CD8CF"/>
<path d="M61.5664 46.6697L58.3323 45.2439L58.7322 45.0701L61.9489 46.4958L61.5664 46.6697Z" fill="#2CD8CF"/>
<path d="M60.5581 47.1395L57.3414 45.7137L57.7239 45.5225L60.958 46.9482L60.5581 47.1395Z" fill="#2CD8CF"/>
<path d="M59.5495 47.5922L56.3328 46.1664L56.7327 45.9926L59.9494 47.4183L59.5495 47.5922Z" fill="#2CD8CF"/>
<path d="M58.5586 48.0607L55.3245 46.6349L55.7244 46.4611L58.9585 47.8694L58.5586 48.0607Z" fill="#2CD8CF"/>
<path d="M57.5499 48.5305L54.3332 47.1047L54.7331 46.9135L57.9498 48.3392L57.5499 48.5305Z" fill="#2CD8CF"/>
<path d="M56.559 48.9832L53.325 47.5574L53.7249 47.3835L56.9416 48.8093L56.559 48.9832Z" fill="#2CD8CF"/>
<path d="M55.5503 49.4514L52.3336 48.0256L52.7161 47.8344L55.9502 49.2601L55.5503 49.4514Z" fill="#2CD8CF"/>
<path d="M54.5421 49.9041L51.3254 48.4957L51.7253 48.3044L54.942 49.7302L54.5421 49.9041Z" fill="#2CD8CF"/>
<path d="M53.5509 50.3742L50.3168 48.9484L50.7167 48.7745L53.9508 50.1829L53.5509 50.3742Z" fill="#2CD8CF"/>
<path d="M52.5425 50.8424L49.3258 49.4166L49.7257 49.2253L52.9424 50.6511L52.5425 50.8424Z" fill="#2CD8CF"/>
<path d="M51.5513 51.2951L48.3172 49.8693L48.7171 49.6954L51.9338 51.1212L51.5513 51.2951Z" fill="#2CD8CF"/>
<path d="M50.5429 51.7649L47.3262 50.3391L47.7088 50.1478L50.9428 51.5736L50.5429 51.7649Z" fill="#2CD8CF"/>
<path d="M49.5517 52.216L46.3176 50.8076L46.7175 50.6163L49.9342 52.0421L49.5517 52.216Z" fill="#2CD8CF"/>
<path d="M48.543 52.6861L45.309 51.2603L45.7089 51.0864L48.943 52.5122L48.543 52.6861Z" fill="#2CD8CF"/>
<path d="M47.5347 53.1559L44.3181 51.7301L44.718 51.5388L47.9347 52.9646L47.5347 53.1559Z" fill="#2CD8CF"/>
<path d="M46.5435 53.607L43.3094 52.1812L43.7093 52.0073L46.9434 53.4331L46.5435 53.607Z" fill="#2CD8CF"/>
<path d="M45.5352 54.0771L42.3185 52.6513L42.701 52.4774L45.9351 53.8858L45.5352 54.0771Z" fill="#2CD8CF"/>
<path d="M116.354 51.1895L113.051 49.9376L113.433 49.7463L116.737 50.9809L116.354 51.1895Z" fill="#2CD8CF"/>
<path d="M115.381 51.7108L112.077 50.4589L112.46 50.2502L115.764 51.5022L115.381 51.7108Z" fill="#2CD8CF"/>
<path d="M114.407 52.2324L111.103 50.9805L111.486 50.7719L114.79 52.0238L114.407 52.2324Z" fill="#2CD8CF"/>
<path d="M113.434 52.7367L110.13 51.4848L110.513 51.2936L113.816 52.5281L113.434 52.7367Z" fill="#2CD8CF"/>
<path d="M112.46 53.258L109.156 52.0061L109.539 51.7975L112.842 53.0494L112.46 53.258Z" fill="#2CD8CF"/>
<path d="M111.486 53.7796L108.182 52.5277L108.565 52.3191L111.868 53.571L111.486 53.7796Z" fill="#2CD8CF"/>
<path d="M110.495 54.2839L107.209 53.032L107.591 52.8407L110.895 54.0752L110.495 54.2839Z" fill="#2CD8CF"/>
<path d="M109.521 54.8067L106.235 53.5548L106.617 53.3462L109.921 54.5981L109.521 54.8067Z" fill="#2CD8CF"/>
<path d="M108.548 55.3283L105.262 54.0764L105.644 53.8678L108.948 55.1197L108.548 55.3283Z" fill="#2CD8CF"/>
<path d="M107.574 55.8326L104.288 54.5807L104.67 54.3894L107.956 55.6239L107.574 55.8326Z" fill="#2CD8CF"/>
<path d="M106.6 56.3539L103.314 55.102L103.696 54.8933L106.982 56.1452L106.6 56.3539Z" fill="#2CD8CF"/>
<path d="M105.626 56.8756L102.323 55.6237L102.723 55.415L106.009 56.6669L105.626 56.8756Z" fill="#2CD8CF"/>
<path d="M104.653 57.3798L101.349 56.1279L101.749 55.9366L105.036 57.1712L104.653 57.3798Z" fill="#2CD8CF"/>
<path d="M103.679 57.9011L100.375 56.6492L100.775 56.4406L104.062 57.6925L103.679 57.9011Z" fill="#2CD8CF"/>
<path d="M102.705 58.4227L99.4015 57.1708L99.784 56.9622L103.088 58.2141L102.705 58.4227Z" fill="#2CD8CF"/>
<path d="M101.732 58.9269L98.4282 57.675L98.8108 57.4838L102.114 58.7183L101.732 58.9269Z" fill="#2CD8CF"/>
<path d="M100.758 59.4482L97.4543 58.1963L97.8368 57.9877L101.14 59.2396L100.758 59.4482Z" fill="#2CD8CF"/>
<path d="M99.7846 59.9698L96.481 58.7179L96.8635 58.5093L100.167 59.7612L99.7846 59.9698Z" fill="#2CD8CF"/>
<path d="M98.8106 60.4742L95.507 59.2223L95.8895 59.031L99.1931 60.2655L98.8106 60.4742Z" fill="#2CD8CF"/>
<path d="M97.8193 60.9955L94.533 59.7436L94.9155 59.5349L98.2192 60.7868L97.8193 60.9955Z" fill="#2CD8CF"/>
<path d="M96.846 61.5171L93.5598 60.2652L93.9423 60.0565L97.2459 61.3084L96.846 61.5171Z" fill="#2CD8CF"/>
<path d="M95.872 62.0213L92.5858 60.7694L92.9683 60.5781L96.2719 61.8126L95.872 62.0213Z" fill="#2CD8CF"/>
<path d="M94.8987 62.5442L91.6125 61.2923L91.995 61.0836L95.2813 62.3355L94.8987 62.5442Z" fill="#2CD8CF"/>
<path d="M93.9247 63.0658L90.6385 61.8139L91.021 61.6052L94.3073 62.8571L93.9247 63.0658Z" fill="#2CD8CF"/>
<path d="M92.9512 63.57L89.6475 62.3181L90.0474 62.1268L93.3337 63.3613L92.9512 63.57Z" fill="#2CD8CF"/>
<path d="M91.9771 64.0914L88.6735 62.8395L89.0734 62.6309L92.3597 63.8828L91.9771 64.0914Z" fill="#2CD8CF"/>
<path d="M91.004 64.613L87.7003 63.3611L88.1002 63.1525L91.3865 64.4044L91.004 64.613Z" fill="#2CD8CF"/>
<path d="M90.0299 65.1172L86.7263 63.8653L87.1088 63.6741L90.4125 64.9086L90.0299 65.1172Z" fill="#2CD8CF"/>
<path d="M89.0559 65.6385L85.7523 64.3866L86.1348 64.178L89.4384 65.4299L89.0559 65.6385Z" fill="#2CD8CF"/>
<path d="M88.0826 66.1601L84.779 64.9082L85.1615 64.6996L88.4652 65.9515L88.0826 66.1601Z" fill="#2CD8CF"/>
<path d="M87.1087 66.6645L83.8051 65.4126L84.1876 65.2213L87.4912 66.4558L87.1087 66.6645Z" fill="#2CD8CF"/>
<path d="M86.1354 67.1858L82.8318 65.9339L83.2143 65.7252L86.5179 66.9771L86.1354 67.1858Z" fill="#2CD8CF"/>
<path d="M85.1614 67.7073L81.8578 66.4554L82.2403 66.2467L85.5439 67.4986L85.1614 67.7073Z" fill="#2CD8CF"/>
<path d="M84.17 68.2116L80.8837 66.9597L81.2663 66.7684L84.5699 68.0029L84.17 68.2116Z" fill="#2CD8CF"/>
<path d="M83.1968 68.7329L79.9105 67.481L80.2931 67.2723L83.5967 68.5242L83.1968 68.7329Z" fill="#2CD8CF"/>
<path d="M82.2228 69.2545L78.9365 68.0026L79.319 67.7939L82.6053 69.0459L82.2228 69.2545Z" fill="#2CD8CF"/>
<path d="M81.2495 69.7587L77.9633 68.5068L78.3458 68.3156L81.632 69.5501L81.2495 69.7587Z" fill="#2CD8CF"/>
<path d="M80.2755 70.2816L76.9893 69.0297L77.3718 68.821L80.658 70.0729L80.2755 70.2816Z" fill="#2CD8CF"/>
<path d="M79.302 70.8033L75.9984 69.5514L76.3983 69.3428L79.6845 70.5947L79.302 70.8033Z" fill="#2CD8CF"/>
<path d="M78.328 71.3075L75.0244 70.0556L75.4243 69.8644L78.7105 71.0989L78.328 71.3075Z" fill="#2CD8CF"/>
<path d="M77.3543 71.8288L74.0507 70.5769L74.4332 70.3683L77.7368 71.6202L77.3543 71.8288Z" fill="#2CD8CF"/>
<path d="M109.418 48.6523L106.131 47.4178L106.514 47.2091L109.8 48.461L109.418 48.6523Z" fill="#2CD8CF"/>
<path d="M108.444 49.1739L105.157 47.922L105.54 47.7307L108.826 48.9652L108.444 49.1739Z" fill="#2CD8CF"/>
<path d="M107.47 49.6953L104.184 48.4434L104.567 48.2347L107.853 49.4866L107.47 49.6953Z" fill="#2CD8CF"/>
<path d="M106.496 50.1995L103.192 48.965L103.592 48.7563L106.879 50.0083L106.496 50.1995Z" fill="#2CD8CF"/>
<path d="M105.523 50.7211L102.219 49.4692L102.619 49.278L105.905 50.5125L105.523 50.7211Z" fill="#2CD8CF"/>
<path d="M104.549 51.2424L101.245 49.9905L101.628 49.7819L104.931 51.0338L104.549 51.2424Z" fill="#2CD8CF"/>
<path d="M103.576 51.7466L100.272 50.5121L100.654 50.3035L103.958 51.5554L103.576 51.7466Z" fill="#2CD8CF"/>
<path d="M102.601 52.2682L99.2979 51.0163L99.6804 50.8251L102.984 52.0596L102.601 52.2682Z" fill="#2CD8CF"/>
<path d="M101.627 52.7911L98.3239 51.5392L98.7064 51.3306L102.01 52.5825L101.627 52.7911Z" fill="#2CD8CF"/>
<path d="M100.654 53.2953L97.3506 52.0608L97.7331 51.8522L101.037 53.1041L100.654 53.2953Z" fill="#2CD8CF"/>
<path d="M99.6802 53.8171L96.3766 52.5652L96.7591 52.3739L100.063 53.6084L99.6802 53.8171Z" fill="#2CD8CF"/>
<path d="M98.6896 54.3384L95.4034 53.0865L95.7859 52.8778L99.0895 54.1297L98.6896 54.3384Z" fill="#2CD8CF"/>
<path d="M97.7156 54.8426L94.4293 53.6081L94.8118 53.3994L98.1155 54.6513L97.7156 54.8426Z" fill="#2CD8CF"/>
<path d="M96.7416 55.3642L93.4553 54.1123L93.8379 53.921L97.1241 55.1555L96.7416 55.3642Z" fill="#2CD8CF"/>
<path d="M95.7684 55.8855L92.4821 54.6336L92.8646 54.4249L96.1509 55.6768L95.7684 55.8855Z" fill="#2CD8CF"/>
<path d="M94.7943 56.3897L91.5081 55.1552L91.8906 54.9465L95.1768 56.1984L94.7943 56.3897Z" fill="#2CD8CF"/>
<path d="M93.8208 56.9113L90.5172 55.6594L90.9171 55.4681L94.2033 56.7027L93.8208 56.9113Z" fill="#2CD8CF"/>
<path d="M92.8468 57.4327L89.5432 56.1808L89.9431 55.9722L93.2293 57.2241L92.8468 57.4327Z" fill="#2CD8CF"/>
<path d="M91.8735 57.9369L88.5699 56.7024L88.9524 56.4938L92.2561 57.7457L91.8735 57.9369Z" fill="#2CD8CF"/>
<path d="M90.8995 58.4585L87.5959 57.2066L87.9784 57.0154L91.282 58.2499L90.8995 58.4585Z" fill="#2CD8CF"/>
<path d="M89.9263 58.9798L86.6227 57.7279L87.0052 57.5193L90.3088 58.7712L89.9263 58.9798Z" fill="#2CD8CF"/>
<path d="M88.9523 59.4841L85.6487 58.2495L86.0312 58.0409L89.3348 59.2928L88.9523 59.4841Z" fill="#2CD8CF"/>
<path d="M87.9783 60.0057L84.6746 58.7538L85.0571 58.5625L88.3608 59.797L87.9783 60.0057Z" fill="#2CD8CF"/>
<path d="M87.0051 60.5286L83.7014 59.2768L84.0839 59.0681L87.3876 60.32L87.0051 60.5286Z" fill="#2CD8CF"/>
<path d="M86.0136 61.0329L82.7274 59.7984L83.1099 59.5897L86.4136 60.8416L86.0136 61.0329Z" fill="#2CD8CF"/>
<path d="M85.0404 61.5545L81.7542 60.3026L82.1367 60.1113L85.4403 61.3458L85.0404 61.5545Z" fill="#2CD8CF"/>
<path d="M84.0664 62.0758L80.7802 60.8239L81.1627 60.6152L84.4663 61.8671L84.0664 62.0758Z" fill="#2CD8CF"/>
<path d="M83.0924 62.58L79.8062 61.3455L80.1887 61.1368L83.4749 62.3887L83.0924 62.58Z" fill="#2CD8CF"/>
<path d="M82.1191 63.1016L78.8329 61.8497L79.2154 61.6584L82.5017 62.893L82.1191 63.1016Z" fill="#2CD8CF"/>
<path d="M81.1456 63.6229L77.8419 62.371L78.2418 62.1624L81.5281 63.4143L81.1456 63.6229Z" fill="#2CD8CF"/>
<path d="M80.1715 64.1272L76.8679 62.8927L77.2678 62.6841L80.5541 63.936L80.1715 64.1272Z" fill="#2CD8CF"/>
<path d="M79.1975 64.6487L75.8939 63.3968L76.2938 63.2056L79.58 64.4401L79.1975 64.6487Z" fill="#2CD8CF"/>
<path d="M78.2243 65.1702L74.9207 63.9182L75.3032 63.7096L78.6068 64.9615L78.2243 65.1702Z" fill="#2CD8CF"/>
<path d="M77.2503 65.6744L73.9467 64.4399L74.3292 64.2312L77.6328 65.4831L77.2503 65.6744Z" fill="#2CD8CF"/>
<path d="M76.2767 66.196L72.9731 64.9441L73.3556 64.7528L76.6592 65.9873L76.2767 66.196Z" fill="#2CD8CF"/>
<path d="M75.3031 66.7173L71.9995 65.4654L72.382 65.2567L75.6856 66.5086L75.3031 66.7173Z" fill="#2CD8CF"/>
<path d="M74.3295 67.2216L71.0258 65.9871L71.4083 65.7784L74.712 67.0303L74.3295 67.2216Z" fill="#2CD8CF"/>
<path d="M73.3558 67.7432L70.0522 66.4913L70.4347 66.3L73.7383 67.5346L73.3558 67.7432Z" fill="#2CD8CF"/>
<path d="M72.3645 68.2661L69.0782 67.0142L69.4607 66.8055L72.7644 68.0574L72.3645 68.2661Z" fill="#2CD8CF"/>
<path d="M71.3908 68.7703L68.1046 67.5358L68.4871 67.3271L71.7907 68.579L71.3908 68.7703Z" fill="#2CD8CF"/>
<path d="M70.4172 69.2919L67.1309 68.04L67.5134 67.8488L70.7997 69.0833L70.4172 69.2919Z" fill="#2CD8CF"/>
<path d="M56.0549 96.0072L56.0375 100.145C56.0375 100.824 55.2725 101.241 54.6987 100.876L42.9621 93.3991L42.3709 93.0166L41.8667 92.6862L40.7713 91.9907C40.267 91.6603 39.9541 91.1039 39.9715 90.5127L39.9888 86.4441C39.9888 85.7138 40.7887 85.2791 41.3972 85.679L45.9528 88.5827L46.5613 88.9653L47.1699 89.3478L55.2203 94.4771C55.7419 94.8249 56.0549 95.3986 56.0549 96.0072Z" fill="url(#paint16_linear)"/>
<path d="M14.4318 71.5004L14.484 74.5606L19.735 77.8468L19.7002 74.7866L14.4318 71.5004Z" fill="#052338"/>
<path opacity="0.8" d="M14.4318 71.5004L14.4492 72.4393L19.7002 75.7255V74.7866L14.4318 71.5004Z" fill="#8A99CD"/>
<path d="M21.0915 75.2563L21.1437 78.3166L26.3947 81.6028L26.3425 78.5426L21.0915 75.2563Z" fill="#052338"/>
<path opacity="0.8" d="M21.0915 75.2563V76.1953L26.3599 79.4815L26.3425 78.5426L21.0915 75.2563Z" fill="#6F81AF"/>
<path d="M64.0184 110.752V110.908C62.7317 111.76 61.0625 111.552 59.8106 110.647V110.804V91.8516L64.0184 91.9385V110.752Z" fill="url(#paint17_linear)"/>
<path d="M61.2015 90.2513L64.0183 91.9379L62.8707 92.5291C62.1926 92.8768 61.3928 92.9638 60.6625 92.7725C59.654 92.5291 59.4975 91.1555 60.4365 90.7034L61.2015 90.2513Z" fill="url(#paint18_linear)"/>
<path d="M12.8298 79.8021V79.9586C11.5431 80.8106 9.87391 80.6019 8.62201 79.6978V79.8542V60.9019L12.8298 60.9888V79.8021Z" fill="url(#paint19_linear)"/>
<path d="M10.013 59.2838L12.8298 60.9704L11.6822 61.5616C11.0041 61.9093 10.2042 61.9963 9.47397 61.805C8.46549 61.5616 8.309 60.188 9.24793 59.7359L10.013 59.2838Z" fill="url(#paint20_linear)"/>
<path d="M30.3841 84.7895C29.6115 84.8592 28.7758 84.0585 28.5235 82.9794C28.3816 82.3528 28.4604 81.7784 28.7127 81.3781C28.7443 81.3259 28.7916 81.2563 28.8389 81.2041C28.8704 81.1692 28.9177 81.117 28.965 81.0822C29.0754 80.9952 29.1857 80.943 29.3119 80.9082C29.3592 80.8908 29.4065 80.8908 29.4696 80.8734C30.2422 80.8037 31.0779 81.6044 31.3301 82.6835C31.5667 83.78 31.1567 84.7025 30.3841 84.7895Z" fill="#2CD8CF" stroke="url(#paint21_linear)" stroke-width="2" stroke-miterlimit="10"/>
<path d="M36.271 88.7142C35.4984 88.7838 34.6627 87.9832 34.4104 86.9041C34.2685 86.2775 34.3473 85.7031 34.5996 85.3028C34.6312 85.2506 34.6785 85.181 34.7258 85.1287C34.7573 85.0939 34.8046 85.0417 34.8519 85.0069C34.9623 84.9199 35.0726 84.8677 35.1988 84.8328C35.2461 84.8154 35.2934 84.8154 35.3565 84.798C36.1291 84.7284 36.9648 85.5291 37.217 86.6082C37.4536 87.7047 37.0436 88.6272 36.271 88.7142Z" fill="#2CD8CF" stroke="url(#paint22_linear)" stroke-width="2" stroke-miterlimit="10"/>
</g>
<defs>
<linearGradient id="paint0_linear" x1="19.0608" y1="82.712" x2="131.001" y2="82.712" gradientUnits="userSpaceOnUse">
<stop stop-color="#E7EFF5"/>
<stop offset="0.2574" stop-color="#C3C5D2"/>
<stop offset="0.3352" stop-color="#C6C8D5"/>
<stop offset="0.3997" stop-color="#CED3DD"/>
<stop offset="0.4592" stop-color="#DDE4EC"/>
<stop offset="0.4655" stop-color="#DFE6EE"/>
<stop offset="0.5693" stop-color="#98A5B5"/>
<stop offset="0.995" stop-color="#748496"/>
</linearGradient>
<linearGradient id="paint1_linear" x1="11.5401" y1="82.712" x2="132.098" y2="82.712" gradientUnits="userSpaceOnUse">
<stop stop-color="#455173"/>
<stop offset="0.395833" stop-color="#303953"/>
<stop offset="0.521061" stop-color="#38415C"/>
<stop offset="0.578125" stop-color="#2B2F43"/>
<stop offset="1" stop-color="#2B2F43"/>
</linearGradient>
<linearGradient id="paint2_linear" x1="25.1209" y1="52.696" x2="25.5611" y2="52.6855" gradientUnits="userSpaceOnUse">
<stop stop-color="#DFE6EE"/>
<stop offset="0.5" stop-color="#F5F7F8"/>
<stop offset="0.995" stop-color="#ABB6C3"/>
</linearGradient>
<linearGradient id="paint3_linear" x1="11.6334" y1="52.771" x2="136.075" y2="49.6033" gradientUnits="userSpaceOnUse">
<stop offset="0.0001" stop-color="#586382"/>
<stop offset="0.0002" stop-color="#5F6C91"/>
<stop offset="1" stop-color="#2A3C6B"/>
</linearGradient>
<linearGradient id="paint4_linear" x1="36.6496" y1="73.6218" x2="103.837" y2="35.6081" gradientUnits="userSpaceOnUse">
<stop stop-color="#5F6C91"/>
<stop offset="1" stop-color="#49577E"/>
</linearGradient>
<linearGradient id="paint5_linear" x1="-3.82138" y1="84.3634" x2="141.894" y2="86.3804" gradientUnits="userSpaceOnUse">
<stop stop-color="#3F4B6B"/>
<stop offset="0.4897" stop-color="#313A54"/>
<stop offset="0.5095" stop-color="#333C57"/>
<stop offset="0.5367" stop-color="#37405A"/>
<stop offset="0.5574" stop-color="#333851"/>
<stop offset="0.602797" stop-color="#2B2F43"/>
<stop offset="0.995" stop-color="#2B2F43"/>
</linearGradient>
<linearGradient id="paint6_linear" x1="-1.96877" y1="64.8176" x2="133.794" y2="84.3506" gradientUnits="userSpaceOnUse">
<stop stop-color="#4C597C"/>
</linearGradient>
<linearGradient id="paint7_linear" x1="-1.96871" y1="62.8831" x2="133.794" y2="82.4161" gradientUnits="userSpaceOnUse">
<stop stop-color="#49577E"/>
<stop offset="0.5607" stop-color="#58658B"/>
<stop offset="0.779" stop-color="#556389"/>
</linearGradient>
<linearGradient id="paint8_linear" x1="4.00539" y1="57.0584" x2="4.43678" y2="59.0329" gradientUnits="userSpaceOnUse">
<stop stop-color="#36415B"/>
<stop offset="0.0688723" stop-color="#3D4868"/>
<stop offset="0.10904" stop-color="#3D4868"/>
<stop offset="0.190725" stop-color="#545F7C"/>
<stop offset="0.245609" stop-color="#546186"/>
<stop offset="0.3033" stop-color="#5B678C"/>
<stop offset="0.398" stop-color="#4D5879"/>
<stop offset="0.598706" stop-color="#3D4968"/>
<stop offset="0.8097" stop-color="#36415B"/>
</linearGradient>
<linearGradient id="paint9_linear" x1="2.88805" y1="59.2629" x2="6.78453" y2="55.6968" gradientUnits="userSpaceOnUse">
<stop offset="0.0403732" stop-color="#4C5673"/>
<stop offset="0.0956988" stop-color="#4D5674"/>
<stop offset="0.18" stop-color="#4A5472"/>
<stop offset="0.2822" stop-color="#58678E"/>
<stop offset="0.3107" stop-color="#637093"/>
<stop offset="0.4209" stop-color="#556388"/>
<stop offset="0.5185" stop-color="#4D5979"/>
</linearGradient>
<linearGradient id="paint10_linear" x1="3.76461" y1="70.0609" x2="4.196" y2="72.0354" gradientUnits="userSpaceOnUse">
<stop stop-color="#36415B"/>
<stop offset="0.0688723" stop-color="#3D4868"/>
<stop offset="0.10904" stop-color="#3D4868"/>
<stop offset="0.170725" stop-color="#545F7C"/>
<stop offset="0.245609" stop-color="#546186"/>
<stop offset="0.3033" stop-color="#5B678C"/>
<stop offset="0.398" stop-color="#4D5879"/>
<stop offset="0.5241" stop-color="#3D4968"/>
<stop offset="0.8097" stop-color="#36415B"/>
</linearGradient>
<linearGradient id="paint11_linear" x1="2.64726" y1="72.2653" x2="6.54375" y2="68.6992" gradientUnits="userSpaceOnUse">
<stop offset="0.0403732" stop-color="#4C5673"/>
<stop offset="0.0956988" stop-color="#4D5674"/>
<stop offset="0.18" stop-color="#4A5472"/>
<stop offset="0.2822" stop-color="#58678E"/>
<stop offset="0.3107" stop-color="#637093"/>
<stop offset="0.4209" stop-color="#556388"/>
<stop offset="0.5185" stop-color="#4D5979"/>
</linearGradient>
<linearGradient id="paint12_linear" x1="67.8496" y1="97.1446" x2="68.281" y2="99.1191" gradientUnits="userSpaceOnUse">
<stop stop-color="#36415B"/>
<stop offset="0.0688723" stop-color="#3D4868"/>
<stop offset="0.10904" stop-color="#3D4868"/>
<stop offset="0.170725" stop-color="#545F7C"/>
<stop offset="0.245609" stop-color="#546186"/>
<stop offset="0.3033" stop-color="#5B678C"/>
<stop offset="0.398" stop-color="#4D5879"/>
<stop offset="0.5241" stop-color="#3D4968"/>
<stop offset="0.8097" stop-color="#36415B"/>
</linearGradient>
<linearGradient id="paint13_linear" x1="66.7322" y1="99.3491" x2="70.6287" y2="95.783" gradientUnits="userSpaceOnUse">
<stop offset="0.0403732" stop-color="#4C5673"/>
<stop offset="0.0956988" stop-color="#4D5674"/>
<stop offset="0.18" stop-color="#4A5472"/>
<stop offset="0.2822" stop-color="#58678E"/>
<stop offset="0.3107" stop-color="#637093"/>
<stop offset="0.4209" stop-color="#556388"/>
<stop offset="0.5185" stop-color="#4D5979"/>
</linearGradient>
<linearGradient id="paint14_linear" x1="67.6083" y1="110.147" x2="68.0397" y2="112.122" gradientUnits="userSpaceOnUse">
<stop stop-color="#36415B"/>
<stop offset="0.0688723" stop-color="#3D4868"/>
<stop offset="0.10904" stop-color="#3D4868"/>
<stop offset="0.170725" stop-color="#545F7C"/>
<stop offset="0.245609" stop-color="#546186"/>
<stop offset="0.3033" stop-color="#5B678C"/>
<stop offset="0.398" stop-color="#4D5879"/>
<stop offset="0.5241" stop-color="#3D4968"/>
<stop offset="0.8097" stop-color="#36415B"/>
</linearGradient>
<linearGradient id="paint15_linear" x1="66.491" y1="112.352" x2="70.3874" y2="108.785" gradientUnits="userSpaceOnUse">
<stop offset="0.0403732" stop-color="#4C5673"/>
<stop offset="0.0956988" stop-color="#4D5674"/>
<stop offset="0.18" stop-color="#4A5472"/>
<stop offset="0.2822" stop-color="#58678E"/>
<stop offset="0.3107" stop-color="#637093"/>
<stop offset="0.4209" stop-color="#556388"/>
<stop offset="0.5185" stop-color="#4D5979"/>
</linearGradient>
<linearGradient id="paint16_linear" x1="40.6142" y1="92.3729" x2="55.4098" y2="94.1891" gradientUnits="userSpaceOnUse">
<stop offset="1" stop-color="#2CD8CF"/>
</linearGradient>
<linearGradient id="paint17_linear" x1="50.9302" y1="101.497" x2="85.1393" y2="102.006" gradientUnits="userSpaceOnUse">
<stop offset="0.182865" stop-color="#404A66"/>
<stop offset="0.27643" stop-color="#3F4B6A"/>
<stop offset="0.328125" stop-color="#606B8E"/>
<stop offset="0.390485" stop-color="#414D71"/>
<stop offset="0.505208" stop-color="#ABB6C3"/>
</linearGradient>
<linearGradient id="paint18_linear" x1="56.5545" y1="90.9879" x2="68.4595" y2="92.4457" gradientUnits="userSpaceOnUse">
<stop stop-color="#606D93"/>
<stop offset="0.470645" stop-color="#6B79A0"/>
<stop offset="0.779" stop-color="#4A587F"/>
</linearGradient>
<linearGradient id="paint19_linear" x1="-0.26903" y1="70.5363" x2="33.9402" y2="71.0456" gradientUnits="userSpaceOnUse">
<stop offset="0.005" stop-color="#6E7BA3"/>
<stop offset="0.268605" stop-color="#434E6D"/>
<stop offset="0.298603" stop-color="#5C698E"/>
<stop offset="0.344642" stop-color="#505D84"/>
<stop offset="0.382993" stop-color="#455173"/>
</linearGradient>
<linearGradient id="paint20_linear" x1="5.3554" y1="60.0268" x2="17.2603" y2="61.4846" gradientUnits="userSpaceOnUse">
<stop offset="0.28125" stop-color="#5F6C91"/>
<stop offset="0.411458" stop-color="#6D7BA2"/>
<stop offset="0.557292" stop-color="#49577E"/>
</linearGradient>
<linearGradient id="paint21_linear" x1="29.1204" y1="83.7772" x2="31.3876" y2="82.4079" gradientUnits="userSpaceOnUse">
<stop stop-color="#2B2F43"/>
<stop offset="0.421875" stop-color="#353D57"/>
<stop offset="1" stop-color="#2B2F43"/>
</linearGradient>
<linearGradient id="paint22_linear" x1="35.0073" y1="87.7019" x2="37.2746" y2="86.3326" gradientUnits="userSpaceOnUse">
<stop stop-color="#2B2F43"/>
<stop offset="0.421875" stop-color="#353D57"/>
<stop offset="1" stop-color="#2B2F43"/>
</linearGradient>
<clipPath id="clip0">
<rect y="22" width="140" height="96.6338" fill="white"/>
</clipPath>
</defs>
</svg>
