<svg width="140" height="140" viewBox="0 0 140 140" fill="none" xmlns="http://www.w3.org/2000/svg">
<path d="M28.0458 19.1572V111.387C28.0458 113.23 29.0108 114.944 30.5806 115.895L64.425 138.391C67.9391 140.536 72.3605 140.536 75.8745 138.391L108.38 115.909C109.949 114.944 110.914 113.23 110.914 111.401V19.5749L28.0458 19.1572Z" fill="url(#paint0_linear)"/>
<path d="M109.215 24.0819L76.0906 44.331C72.4325 46.5633 67.8383 46.5633 64.1946 44.331L29.198 22.9586C27.4698 21.9073 27.6426 19.3293 29.5148 18.5228L66.3837 2.75274C68.7888 1.73021 71.4964 1.73021 73.8871 2.75274L108.754 17.6731C111.462 18.8397 111.735 22.5553 109.215 24.0819Z" fill="url(#paint1_linear)"/>
<path d="M109.215 22.0961L76.0906 42.3452C72.4325 44.5775 67.8383 44.5775 64.1946 42.3452L29.198 20.9728C27.4698 19.9214 27.6426 17.3435 29.5148 16.537L66.3837 0.766901C68.7888 -0.255634 71.4964 -0.255634 73.8871 0.766901L108.754 15.6873C111.462 16.8538 111.735 20.5695 109.215 22.0961Z" fill="url(#paint2_linear)"/>
<path d="M84.5958 123.783C84.5958 123.718 84.6279 123.656 84.6818 123.619L85.1747 123.277C85.3073 123.185 85.4887 123.28 85.4887 123.441V127.059C85.4887 127.125 85.4565 127.186 85.4027 127.224L84.9097 127.565C84.7771 127.657 84.5958 127.563 84.5958 127.401V123.783ZM86.6408 125.98C86.6408 126.141 86.8202 126.236 86.953 126.146L87.4459 125.812C87.5008 125.775 87.5338 125.713 87.5338 125.646V122.016C87.5338 121.854 87.3524 121.759 87.2198 121.851L86.7269 122.193C86.673 122.231 86.6408 122.292 86.6408 122.358V125.98ZM88.7003 124.583C88.7003 124.744 88.8797 124.839 89.0125 124.749L89.5054 124.415C89.5603 124.378 89.5932 124.316 89.5932 124.249V120.59C89.5932 120.428 89.4119 120.334 89.2792 120.426L88.7863 120.767C88.7324 120.805 88.7003 120.866 88.7003 120.932V124.583ZM90.7454 123.172C90.7454 123.332 90.9247 123.428 91.0575 123.338L91.5505 123.004C91.6054 122.966 91.6383 122.904 91.6383 122.838V119.164C91.6383 119.003 91.4569 118.908 91.3243 119L90.8314 119.342C90.7775 119.379 90.7454 119.44 90.7454 119.506V123.172ZM92.8048 121.761C92.8048 121.921 92.9842 122.016 93.117 121.926L93.6099 121.592C93.6649 121.555 93.6978 121.493 93.6978 121.427V117.738C93.6978 117.577 93.5164 117.482 93.3838 117.574L92.8909 117.916C92.837 117.953 92.8048 118.015 92.8048 118.08V121.761ZM94.8499 120.364C94.8499 120.524 95.0293 120.619 95.1621 120.529L95.655 120.195C95.7099 120.158 95.7428 120.096 95.7428 120.03V116.313C95.7428 116.151 95.5615 116.056 95.4289 116.148L94.9359 116.49C94.8821 116.527 94.8499 116.589 94.8499 116.654V120.364ZM96.9094 118.952C96.9094 119.113 97.0887 119.208 97.2216 119.118L97.7145 118.784C97.7694 118.747 97.8023 118.685 97.8023 118.618V114.887C97.8023 114.725 97.621 114.63 97.4883 114.722L96.9954 115.064C96.9415 115.102 96.9094 115.163 96.9094 115.229V118.952ZM98.9545 117.555C98.9545 117.716 99.1338 117.811 99.2666 117.721L99.7595 117.387C99.8145 117.35 99.8474 117.288 99.8474 117.221V113.461C99.8474 113.3 99.666 113.205 99.5334 113.297L99.0405 113.638C98.9866 113.676 98.9545 113.737 98.9545 113.803V117.555ZM101.014 116.129C101.014 116.29 101.193 116.385 101.326 116.295L101.819 115.961C101.874 115.924 101.907 115.862 101.907 115.796V112.021C101.907 111.859 101.725 111.764 101.593 111.856L101.1 112.198C101.046 112.236 101.014 112.297 101.014 112.363V116.129ZM103.145 110.773C103.091 110.81 103.059 110.871 103.059 110.937V114.732C103.059 114.893 103.238 114.988 103.371 114.898L103.864 114.564C103.919 114.527 103.952 114.465 103.952 114.399V110.595C103.952 110.434 103.771 110.339 103.638 110.431L103.145 110.773Z" fill="#131727"/>
<path d="M84.4581 123.488C84.4581 123.423 84.4902 123.361 84.5441 123.324L85.037 122.982C85.1696 122.89 85.351 122.985 85.351 123.147V126.764C85.351 126.83 85.3188 126.891 85.265 126.929L84.772 127.271C84.6394 127.363 84.4581 127.268 84.4581 127.106V123.488ZM86.5031 125.685C86.5031 125.846 86.6825 125.941 86.8153 125.851L87.3082 125.517C87.3632 125.48 87.3961 125.418 87.3961 125.352V121.721C87.3961 121.559 87.2147 121.464 87.0821 121.556L86.5892 121.898C86.5353 121.936 86.5031 121.997 86.5031 122.063V125.685ZM88.5626 124.288C88.5626 124.449 88.742 124.544 88.8748 124.454L89.3677 124.12C89.4226 124.083 89.4555 124.021 89.4555 123.955V120.295C89.4555 120.134 89.2742 120.039 89.1415 120.131L88.6486 120.473C88.5948 120.51 88.5626 120.571 88.5626 120.637V124.288ZM90.6077 122.877C90.6077 123.037 90.787 123.133 90.9199 123.043L91.4128 122.709C91.4677 122.672 91.5006 122.61 91.5006 122.543V118.869C91.5006 118.708 91.3192 118.613 91.1866 118.705L90.6937 119.047C90.6398 119.084 90.6077 119.145 90.6077 119.211V122.877ZM92.6672 121.466C92.6672 121.626 92.8465 121.721 92.9793 121.631L93.4722 121.297C93.5272 121.26 93.5601 121.198 93.5601 121.132V117.443C93.5601 117.282 93.3787 117.187 93.2461 117.279L92.7532 117.621C92.6993 117.658 92.6672 117.72 92.6672 117.785V121.466ZM94.7122 120.069C94.7122 120.229 94.8916 120.324 95.0244 120.234L95.5173 119.9C95.5722 119.863 95.6051 119.801 95.6051 119.735V116.018C95.6051 115.856 95.4238 115.761 95.2912 115.853L94.7982 116.195C94.7444 116.233 94.7122 116.294 94.7122 116.359V120.069ZM96.7717 118.657C96.7717 118.818 96.9511 118.913 97.0839 118.823L97.5768 118.489C97.6317 118.452 97.6646 118.39 97.6646 118.323V114.592C97.6646 114.43 97.4833 114.336 97.3506 114.427L96.8577 114.769C96.8038 114.807 96.7717 114.868 96.7717 114.934V118.657ZM98.8168 117.26C98.8168 117.421 98.9961 117.516 99.1289 117.426L99.6218 117.092C99.6768 117.055 99.7097 116.993 99.7097 116.926V113.166C99.7097 113.005 99.5283 112.91 99.3957 113.002L98.9028 113.344C98.8489 113.381 98.8168 113.442 98.8168 113.508V117.26ZM100.876 115.835C100.876 115.995 101.056 116.09 101.188 116L101.681 115.666C101.736 115.629 101.769 115.567 101.769 115.501V111.726C101.769 111.564 101.588 111.47 101.455 111.562L100.962 111.903C100.908 111.941 100.876 112.002 100.876 112.068V115.835ZM103.007 110.478C102.953 110.515 102.921 110.576 102.921 110.642V114.438C102.921 114.598 103.101 114.693 103.233 114.603L103.726 114.269C103.781 114.232 103.814 114.17 103.814 114.104V110.3C103.814 110.139 103.633 110.044 103.5 110.136L103.007 110.478Z" fill="#2FAAAF"/>
<path d="M62.7112 132.025C62.1639 132.025 61.6311 131.852 61.1702 131.535L34.0082 113.475C31.9344 112.035 30.6958 109.63 30.6958 107.038V78.1907C30.6958 76.6785 31.8912 75.4255 33.3602 75.4255C33.8354 75.4255 34.3107 75.5696 34.7283 75.8288L62.4232 92.6502C64.2954 93.8312 65.4764 95.977 65.4764 98.2525V129.145C65.4908 130.93 64.0506 132.025 62.7112 132.025Z" fill="url(#paint3_linear)"/>
<path d="M63.4601 87.4654C62.9128 87.451 62.38 87.2782 61.9191 86.9613C61.9191 86.9613 36.8742 72.0698 34.7427 70.5C32.7697 69.0454 31.4447 66.7267 31.4879 64.2208L31.8912 34.8121C31.9056 33.3431 33.1441 32.1477 34.6275 32.1765C35.1172 32.1765 35.5924 32.335 36.0101 32.5798L63.7337 49.286C65.606 50.4525 66.7581 52.5552 66.7293 54.7587L66.3117 84.7002C66.2973 86.4429 64.8283 87.4798 63.4601 87.4654Z" fill="url(#paint4_linear)"/>
<path d="M36.1981 38.8302C36.1981 39.1903 35.9533 39.3055 35.6508 39.1038C35.3484 38.9022 35.0892 38.4414 35.0892 38.0813C35.0892 37.7213 35.334 37.606 35.6364 37.8077C35.9389 38.0093 36.1981 38.4702 36.1981 38.8302Z" fill="#2ED8CF"/>
<path d="M38.0991 40.0687C38.0991 40.4288 37.8543 40.544 37.5518 40.3424C37.2494 40.1407 36.9902 39.6799 36.9902 39.3198C36.9902 38.9598 37.235 38.8446 37.5374 39.0462C37.8399 39.2478 38.0847 39.7231 38.0991 40.0687Z" fill="#2ED8CF"/>
<path d="M39.9858 41.3217C39.9858 41.6817 39.741 41.7969 39.4386 41.5953C39.1361 41.3937 38.8769 40.9328 38.8769 40.5728C38.8769 40.2127 39.1217 40.0975 39.4242 40.2991C39.7266 40.5008 39.9858 40.9616 39.9858 41.3217Z" fill="#2ED8CF"/>
<path d="M41.8868 42.5746C41.8868 42.9346 41.642 43.0499 41.3396 42.8482C41.0371 42.6466 40.7779 42.1857 40.7779 41.8257C40.7779 41.4656 41.0227 41.3504 41.3252 41.5521C41.6276 41.7537 41.8724 42.2145 41.8868 42.5746Z" fill="#2ED8CF"/>
<path d="M43.7735 43.8278C43.7735 44.1878 43.5287 44.303 43.2262 44.1014C42.9238 43.8998 42.6646 43.4389 42.6646 43.0789C42.6646 42.7188 42.9094 42.6036 43.2118 42.8052C43.5143 43.0069 43.7735 43.4677 43.7735 43.8278Z" fill="#2ED8CF"/>
<path d="M45.6602 45.0807C45.6602 45.4407 45.4153 45.556 45.1129 45.3543C44.8104 45.1527 44.5512 44.6918 44.5512 44.3318C44.5512 43.9717 44.796 43.8565 45.0985 44.0582C45.4009 44.2598 45.6602 44.7206 45.6602 45.0807Z" fill="#2ED8CF"/>
<path d="M47.5612 46.3192C47.5612 46.6793 47.3164 46.7945 47.0139 46.5929C46.7115 46.3912 46.4523 45.9304 46.4523 45.5703C46.4523 45.2103 46.6971 45.0951 46.9995 45.2967C47.302 45.5127 47.5468 45.9736 47.5612 46.3192Z" fill="#2ED8CF"/>
<path d="M49.4479 47.5721C49.4479 47.9322 49.203 48.0474 48.9006 47.8458C48.5982 47.6442 48.3389 47.1833 48.3389 46.8232C48.3389 46.4632 48.5838 46.348 48.8862 46.5496C49.1886 46.7656 49.4479 47.2121 49.4479 47.5721Z" fill="#2ED8CF"/>
<path d="M51.3489 48.8251C51.3489 49.1851 51.104 49.3003 50.8016 49.0987C50.4992 48.8971 50.2399 48.4362 50.2399 48.0762C50.2399 47.7161 50.4848 47.6009 50.7872 47.8025C51.0896 48.0186 51.3345 48.465 51.3489 48.8251Z" fill="#2ED8CF"/>
<path d="M53.2355 50.078C53.2355 50.4381 52.9907 50.5533 52.6883 50.3516C52.3858 50.15 52.1266 49.6892 52.1266 49.3291C52.1266 48.9691 52.3714 48.8538 52.6739 49.0555C52.9763 49.2715 53.2355 49.718 53.2355 50.078Z" fill="#2ED8CF"/>
<path d="M55.1222 51.3309C55.1222 51.691 54.8774 51.8062 54.5749 51.6046C54.2725 51.4029 54.0132 50.9421 54.0132 50.582C54.0132 50.222 54.2581 50.1068 54.5605 50.3084C54.863 50.51 55.1222 50.9709 55.1222 51.3309Z" fill="#2ED8CF"/>
<path d="M57.0233 52.5841C57.0233 52.9442 56.7784 53.0594 56.476 52.8577C56.1735 52.6561 55.9143 52.1953 55.9143 51.8352C55.9143 51.4752 56.1591 51.36 56.4616 51.5616C56.764 51.7632 57.0089 52.2241 57.0233 52.5841Z" fill="#2ED8CF"/>
<path d="M58.9099 53.8226C58.9099 54.1827 58.6651 54.2979 58.3626 54.0963C58.0602 53.8946 57.801 53.4338 57.801 53.0737C57.801 52.7137 58.0458 52.5985 58.3482 52.8001C58.6507 53.0161 58.9099 53.477 58.9099 53.8226Z" fill="#2ED8CF"/>
<path d="M60.8109 55.0756C60.8109 55.4356 60.5661 55.5508 60.2636 55.3492C59.9612 55.1476 59.702 54.6867 59.702 54.3267C59.702 53.9666 59.9468 53.8514 60.2492 54.053C60.5517 54.2691 60.7965 54.7155 60.8109 55.0756Z" fill="#2ED8CF"/>
<path d="M36.2413 41.2352C36.2413 41.5953 35.9965 41.7105 35.6941 41.5089C35.3916 41.3072 35.1324 40.8464 35.1324 40.4863C35.1324 40.1263 35.3772 40.0111 35.6797 40.2127C35.9821 40.4143 36.2269 40.8752 36.2413 41.2352Z" fill="#2ED8CF"/>
<path d="M38.128 42.474C38.128 42.8341 37.8832 42.9493 37.5807 42.7476C37.2783 42.546 37.019 42.0852 37.019 41.7251C37.019 41.3651 37.2639 41.2498 37.5663 41.4515C37.8688 41.6675 38.128 42.1284 38.128 42.474Z" fill="#2ED8CF"/>
<path d="M40.0146 43.7269C40.0146 44.087 39.7698 44.2022 39.4673 44.0006C39.1649 43.7989 38.9056 43.3381 38.9056 42.978C38.9056 42.618 39.1505 42.5028 39.4529 42.7044C39.7554 42.9204 40.0146 43.3669 40.0146 43.7269Z" fill="#2ED8CF"/>
<path d="M41.9156 44.9799C41.9156 45.3399 41.6708 45.4551 41.3684 45.2535C41.0659 45.0519 40.8067 44.591 40.8067 44.231C40.8067 43.8709 41.0515 43.7557 41.354 43.9573C41.6564 44.1734 41.9012 44.6198 41.9156 44.9799Z" fill="#2ED8CF"/>
<path d="M43.8023 46.2328C43.8023 46.5928 43.5575 46.7081 43.255 46.5064C42.9526 46.3048 42.6934 45.8439 42.6934 45.4839C42.6934 45.1238 42.9382 45.0086 43.2406 45.2103C43.5431 45.4119 43.8023 45.8727 43.8023 46.2328Z" fill="#2ED8CF"/>
<path d="M45.7034 47.4857C45.7034 47.8458 45.4585 47.961 45.1561 47.7594C44.8537 47.5577 44.5944 47.0969 44.5944 46.7368C44.5944 46.3768 44.8393 46.2616 45.1417 46.4632C45.4441 46.6648 45.689 47.1257 45.7034 47.4857Z" fill="#2ED8CF"/>
<path d="M47.59 48.7242C47.59 49.0843 47.3452 49.1995 47.0428 48.9979C46.7403 48.7963 46.4811 48.3354 46.4811 47.9753C46.4811 47.6153 46.7259 47.5001 47.0284 47.7017C47.3308 47.9177 47.59 48.3786 47.59 48.7242Z" fill="#2ED8CF"/>
<path d="M49.4766 49.9772C49.4766 50.3372 49.2318 50.4524 48.9293 50.2508C48.6269 50.0492 48.3677 49.5883 48.3677 49.2283C48.3677 48.8682 48.6125 48.753 48.9149 48.9546C49.2174 49.1707 49.4766 49.6315 49.4766 49.9772Z" fill="#2ED8CF"/>
<path d="M51.3777 51.2301C51.3777 51.5902 51.1329 51.7054 50.8304 51.5037C50.528 51.3021 50.2687 50.8413 50.2687 50.4812C50.2687 50.1212 50.5136 50.0059 50.816 50.2076C51.1185 50.4236 51.3633 50.8701 51.3777 51.2301Z" fill="#2ED8CF"/>
<path d="M53.2643 52.4833C53.2643 52.8433 53.0195 52.9585 52.7171 52.7569C52.4146 52.5553 52.1554 52.0944 52.1554 51.7344C52.1554 51.3743 52.4002 51.2591 52.7027 51.4607C53.0051 51.6768 53.2643 52.1232 53.2643 52.4833Z" fill="#2ED8CF"/>
<path d="M55.1654 53.7362C55.1654 54.0963 54.9206 54.2115 54.6181 54.0098C54.3157 53.8082 54.0565 53.3474 54.0565 52.9873C54.0565 52.6273 54.3013 52.5121 54.6037 52.7137C54.9062 52.9153 55.151 53.3762 55.1654 53.7362Z" fill="#2ED8CF"/>
<path d="M57.0521 54.9891C57.0521 55.3492 56.8072 55.4644 56.5048 55.2628C56.2024 55.0612 55.9431 54.6003 55.9431 54.2402C55.9431 53.8802 56.1879 53.765 56.4904 53.9666C56.7928 54.1682 57.0521 54.6291 57.0521 54.9891Z" fill="#2ED8CF"/>
<path d="M58.9387 56.2277C58.9387 56.5877 58.6939 56.7029 58.3914 56.5013C58.089 56.2997 57.8298 55.8388 57.8298 55.4788C57.8298 55.1187 58.0746 55.0035 58.377 55.2051C58.6795 55.4212 58.9387 55.882 58.9387 56.2277Z" fill="#2ED8CF"/>
<path d="M60.8398 57.4806C60.8398 57.8406 60.595 57.9559 60.2925 57.7542C59.9901 57.5526 59.7308 57.0917 59.7308 56.7317C59.7308 56.3716 59.9757 56.2564 60.2781 56.4581C60.5805 56.6741 60.8254 57.1205 60.8398 57.4806Z" fill="#2ED8CF"/>
<path d="M36.2701 43.6405C36.2701 44.0006 36.0252 44.1158 35.7228 43.9141C35.4204 43.7125 35.1611 43.2517 35.1611 42.8916C35.1611 42.5316 35.406 42.4163 35.7084 42.618C36.0108 42.8196 36.2557 43.2805 36.2701 43.6405Z" fill="#2ED8CF"/>
<path d="M38.1568 44.879C38.1568 45.2391 37.912 45.3543 37.6095 45.1527C37.3071 44.951 37.0479 44.4902 37.0479 44.1301C37.0479 43.7701 37.2927 43.6549 37.5951 43.8565C37.8976 44.0725 38.1568 44.5334 38.1568 44.879Z" fill="#2ED8CF"/>
<path d="M40.0578 46.132C40.0578 46.492 39.813 46.6072 39.5105 46.4056C39.2081 46.204 38.9489 45.7431 38.9489 45.3831C38.9489 45.023 39.1937 44.9078 39.4961 45.1094C39.7986 45.3255 40.0434 45.7719 40.0578 46.132Z" fill="#2ED8CF"/>
<path d="M41.9445 47.3849C41.9445 47.7449 41.6996 47.8602 41.3972 47.6585C41.0947 47.4569 40.8355 46.996 40.8355 46.636C40.8355 46.2759 41.0803 46.1607 41.3828 46.3624C41.6852 46.564 41.9445 47.0248 41.9445 47.3849Z" fill="#2ED8CF"/>
<path d="M43.8311 48.6378C43.8311 48.9979 43.5863 49.1131 43.2838 48.9115C42.9814 48.7098 42.7222 48.249 42.7222 47.8889C42.7222 47.5289 42.967 47.4137 43.2694 47.6153C43.5719 47.8169 43.8311 48.2778 43.8311 48.6378Z" fill="#2ED8CF"/>
<path d="M45.7322 49.8908C45.7322 50.2508 45.4873 50.366 45.1849 50.1644C44.8825 49.9628 44.6232 49.5019 44.6232 49.1419C44.6232 48.7818 44.8681 48.6666 45.1705 48.8682C45.4729 49.0698 45.7178 49.5307 45.7322 49.8908Z" fill="#2ED8CF"/>
<path d="M47.6188 51.1439C47.6188 51.504 47.3739 51.6192 47.0715 51.4176C46.7691 51.2159 46.5098 50.7551 46.5098 50.395C46.5098 50.035 46.7547 49.9198 47.0571 50.1214C47.3595 50.323 47.6188 50.7839 47.6188 51.1439Z" fill="#2ED8CF"/>
<path d="M49.5198 52.3825C49.5198 52.7425 49.275 52.8577 48.9726 52.6561C48.6701 52.4545 48.4109 51.9936 48.4109 51.6336C48.4109 51.2735 48.6557 51.1583 48.9582 51.3599C49.2606 51.5615 49.5054 52.0368 49.5198 52.3825Z" fill="#2ED8CF"/>
<path d="M51.4065 53.6354C51.4065 53.9954 51.1617 54.1106 50.8592 53.909C50.5568 53.7074 50.2975 53.2465 50.2975 52.8865C50.2975 52.5264 50.5424 52.4112 50.8448 52.6128C51.1473 52.8289 51.4065 53.2753 51.4065 53.6354Z" fill="#2ED8CF"/>
<path d="M53.2931 54.8883C53.2931 55.2484 53.0483 55.3636 52.7459 55.1619C52.4434 54.9603 52.1842 54.4995 52.1842 54.1394C52.1842 53.7794 52.429 53.6641 52.7315 53.8658C53.0339 54.0818 53.2931 54.5283 53.2931 54.8883Z" fill="#2ED8CF"/>
<path d="M55.1942 56.1412C55.1942 56.5013 54.9494 56.6165 54.6469 56.4149C54.3445 56.2133 54.0853 55.7524 54.0853 55.3923C54.0853 55.0323 54.3301 54.9171 54.6325 55.1187C54.935 55.3203 55.1798 55.7812 55.1942 56.1412Z" fill="#2ED8CF"/>
<path d="M57.0809 57.3942C57.0809 57.7542 56.836 57.8694 56.5336 57.6678C56.2312 57.4662 55.9719 57.0053 55.9719 56.6453C55.9719 56.2852 56.2168 56.17 56.5192 56.3716C56.8216 56.5733 57.0809 57.0341 57.0809 57.3942Z" fill="#2ED8CF"/>
<path d="M58.9819 58.6329C58.9819 58.993 58.737 59.1082 58.4346 58.9066C58.1322 58.7049 57.8729 58.2441 57.8729 57.884C57.8729 57.524 58.1178 57.4088 58.4202 57.6104C58.7226 57.8264 58.9675 58.2873 58.9819 58.6329Z" fill="#2ED8CF"/>
<path d="M60.8685 59.8859C60.8685 60.2459 60.6237 60.3611 60.3213 60.1595C60.0188 59.9579 59.7596 59.497 59.7596 59.137C59.7596 58.7769 60.0044 58.6617 60.3069 58.8633C60.6093 59.0794 60.8685 59.5402 60.8685 59.8859Z" fill="#2ED8CF"/>
<path d="M36.2989 46.0455C36.2989 46.4056 36.0541 46.5208 35.7517 46.3192C35.4492 46.1175 35.19 45.6567 35.19 45.2966C35.19 44.9366 35.4348 44.8214 35.7373 45.023C36.0397 45.2246 36.2989 45.6855 36.2989 46.0455Z" fill="#2ED8CF"/>
<path d="M38.1855 47.2985C38.1855 47.6585 37.9407 47.7737 37.6383 47.5721C37.3358 47.3705 37.0766 46.9096 37.0766 46.5496C37.0766 46.1895 37.3214 46.0743 37.6239 46.2759C37.9263 46.4776 38.1855 46.9384 38.1855 47.2985Z" fill="#2ED8CF"/>
<path d="M40.0866 48.537C40.0866 48.897 39.8418 49.0123 39.5393 48.8106C39.2369 48.609 38.9777 48.1481 38.9777 47.7881C38.9777 47.428 39.2225 47.3128 39.5249 47.5145C39.8274 47.7305 40.0722 48.1913 40.0866 48.537Z" fill="#2ED8CF"/>
<path d="M41.9733 49.7899C41.9733 50.15 41.7284 50.2652 41.426 50.0636C41.1236 49.8619 40.8643 49.4011 40.8643 49.041C40.8643 48.681 41.1092 48.5658 41.4116 48.7674C41.714 48.969 41.9733 49.4299 41.9733 49.7899Z" fill="#2ED8CF"/>
<path d="M43.8599 51.0431C43.8599 51.4031 43.6151 51.5184 43.3126 51.3167C43.0102 51.1151 42.751 50.6542 42.751 50.2942C42.751 49.9341 42.9958 49.8189 43.2982 50.0206C43.6007 50.2222 43.8599 50.683 43.8599 51.0431Z" fill="#2ED8CF"/>
<path d="M45.761 52.296C45.761 52.6561 45.5162 52.7713 45.2137 52.5697C44.9113 52.368 44.652 51.9072 44.652 51.5471C44.652 51.1871 44.8969 51.0719 45.1993 51.2735C45.5018 51.4751 45.761 51.936 45.761 52.296Z" fill="#2ED8CF"/>
<path d="M47.6476 53.549C47.6476 53.909 47.4027 54.0242 47.1003 53.8226C46.7979 53.621 46.5386 53.1601 46.5386 52.8001C46.5386 52.44 46.7835 52.3248 47.0859 52.5264C47.3883 52.728 47.6476 53.1889 47.6476 53.549Z" fill="#2ED8CF"/>
<path d="M49.5486 54.7875C49.5486 55.1475 49.3038 55.2627 49.0014 55.0611C48.6989 54.8595 48.4397 54.3986 48.4397 54.0386C48.4397 53.6785 48.6845 53.5633 48.987 53.7649C49.2894 53.981 49.5342 54.4418 49.5486 54.7875Z" fill="#2ED8CF"/>
<path d="M51.4353 56.0404C51.4353 56.4005 51.1905 56.5157 50.888 56.314C50.5856 56.1124 50.3264 55.6516 50.3264 55.2915C50.3264 54.9315 50.5712 54.8162 50.8736 55.0179C51.1761 55.2339 51.4353 55.6804 51.4353 56.0404Z" fill="#2ED8CF"/>
<path d="M53.322 57.2933C53.322 57.6534 53.0771 57.7686 52.7747 57.567C52.4722 57.3653 52.213 56.9045 52.213 56.5444C52.213 56.1844 52.4578 56.0692 52.7603 56.2708C53.0771 56.4868 53.322 56.9333 53.322 57.2933Z" fill="#2ED8CF"/>
<path d="M55.223 58.5465C55.223 58.9066 54.9782 59.0218 54.6757 58.8202C54.3733 58.6185 54.1141 58.1577 54.1141 57.7976C54.1141 57.4376 54.3589 57.3224 54.6613 57.524C54.9638 57.74 55.223 58.1865 55.223 58.5465Z" fill="#2ED8CF"/>
<path d="M57.1097 59.7994C57.1097 60.1595 56.8648 60.2747 56.5624 60.0731C56.26 59.8715 56.0007 59.4106 56.0007 59.0505C56.0007 58.6905 56.2456 58.5753 56.548 58.7769C56.8504 58.9785 57.1097 59.4394 57.1097 59.7994Z" fill="#2ED8CF"/>
<path d="M59.0107 61.0524C59.0107 61.4124 58.7659 61.5276 58.4635 61.326C58.161 61.1244 57.9018 60.6635 57.9018 60.3035C57.9018 59.9434 58.1466 59.8282 58.4491 60.0298C58.7515 60.2315 58.9963 60.6923 59.0107 61.0524Z" fill="#2ED8CF"/>
<path d="M60.8973 62.2909C60.8973 62.6509 60.6525 62.7662 60.3501 62.5645C60.0476 62.3629 59.7884 61.902 59.7884 61.542C59.7884 61.182 60.0332 61.0667 60.3357 61.2684C60.6381 61.4844 60.8973 61.9453 60.8973 62.2909Z" fill="#2ED8CF"/>
<path d="M36.3277 48.4506C36.3277 48.8106 36.0829 48.9258 35.7804 48.7242C35.478 48.5226 35.2188 48.0617 35.2188 47.7017C35.2188 47.3416 35.4636 47.2264 35.766 47.428C36.0685 47.6297 36.3277 48.0905 36.3277 48.4506Z" fill="#2ED8CF"/>
<path d="M38.2144 49.7035C38.2144 50.0635 37.9695 50.1788 37.6671 49.9771C37.3646 49.7755 37.1054 49.3146 37.1054 48.9546C37.1054 48.5945 37.3502 48.4793 37.6527 48.681C37.9551 48.8826 38.2144 49.3434 38.2144 49.7035Z" fill="#2ED8CF"/>
<path d="M40.1154 50.9423C40.1154 51.3023 39.8706 51.4175 39.5681 51.2159C39.2657 51.0143 39.0065 50.5534 39.0065 50.1934C39.0065 49.8333 39.2513 49.7181 39.5537 49.9197C39.8562 50.1358 40.1154 50.5966 40.1154 50.9423Z" fill="#2ED8CF"/>
<path d="M42.0021 52.1952C42.0021 52.5552 41.7572 52.6705 41.4548 52.4688C41.1524 52.2672 40.8931 51.8063 40.8931 51.4463C40.8931 51.0862 41.138 50.971 41.4404 51.1727C41.7428 51.3887 42.0021 51.8351 42.0021 52.1952Z" fill="#2ED8CF"/>
<path d="M43.9031 53.4481C43.9031 53.8082 43.6583 53.9234 43.3559 53.7218C43.0534 53.5201 42.7942 53.0593 42.7942 52.6992C42.7942 52.3392 43.039 52.224 43.3415 52.4256C43.6439 52.6416 43.8887 53.0881 43.9031 53.4481Z" fill="#2ED8CF"/>
<path d="M45.7897 54.7011C45.7897 55.0611 45.5449 55.1763 45.2425 54.9747C44.94 54.7731 44.6808 54.3122 44.6808 53.9522C44.6808 53.5921 44.9256 53.4769 45.2281 53.6785C45.5305 53.8945 45.7897 54.341 45.7897 54.7011Z" fill="#2ED8CF"/>
<path d="M47.6765 55.954C47.6765 56.314 47.4316 56.4292 47.1292 56.2276C46.8267 56.026 46.5675 55.5651 46.5675 55.2051C46.5675 54.845 46.8123 54.7298 47.1148 54.9315C47.4316 55.1331 47.6765 55.5939 47.6765 55.954Z" fill="#2ED8CF"/>
<path d="M49.5775 57.1925C49.5775 57.5526 49.3326 57.6678 49.0302 57.4661C48.7277 57.2645 48.4685 56.8037 48.4685 56.4436C48.4685 56.0836 48.7133 55.9683 49.0158 56.17C49.3182 56.386 49.5775 56.8469 49.5775 57.1925Z" fill="#2ED8CF"/>
<path d="M51.4641 58.4457C51.4641 58.8057 51.2193 58.9209 50.9168 58.7193C50.6144 58.5177 50.3552 58.0568 50.3552 57.6968C50.3552 57.3367 50.6 57.2215 50.9024 57.4231C51.2049 57.6392 51.4641 58.1 51.4641 58.4457Z" fill="#2ED8CF"/>
<path d="M53.3652 59.6986C53.3652 60.0587 53.1203 60.1739 52.8179 59.9722C52.5155 59.7706 52.2562 59.3098 52.2562 58.9497C52.2562 58.5897 52.5011 58.4745 52.8035 58.6761C53.1059 58.8921 53.3508 59.3386 53.3652 59.6986Z" fill="#2ED8CF"/>
<path d="M55.2518 60.9515C55.2518 61.3116 55.007 61.4268 54.7046 61.2252C54.4021 61.0236 54.1429 60.5627 54.1429 60.2026C54.1429 59.8426 54.3877 59.7274 54.6902 59.929C54.9926 60.145 55.2518 60.5915 55.2518 60.9515Z" fill="#2ED8CF"/>
<path d="M57.1385 62.2045C57.1385 62.5645 56.8937 62.6797 56.5912 62.4781C56.2888 62.2765 56.0295 61.8156 56.0295 61.4556C56.0295 61.0955 56.2744 60.9803 56.5768 61.1819C56.8937 61.3836 57.1385 61.8444 57.1385 62.2045Z" fill="#2ED8CF"/>
<path d="M59.0395 63.4574C59.0395 63.8174 58.7947 63.9327 58.4922 63.731C58.1898 63.5294 57.9305 63.0686 57.9305 62.7085C57.9305 62.3485 58.1754 62.2332 58.4778 62.4349C58.7803 62.6365 59.0395 63.0974 59.0395 63.4574Z" fill="#2ED8CF"/>
<path d="M60.9261 64.6959C60.9261 65.056 60.6813 65.1712 60.3789 64.9696C60.0764 64.7679 59.8172 64.3071 59.8172 63.947C59.8172 63.587 60.062 63.4718 60.3645 63.6734C60.6669 63.8894 60.9261 64.3503 60.9261 64.6959Z" fill="#2ED8CF"/>
<path d="M36.3565 50.8558C36.3565 51.2159 36.1117 51.3311 35.8092 51.1295C35.5068 50.9278 35.2476 50.467 35.2476 50.1069C35.2476 49.7469 35.4924 49.6317 35.7948 49.8333C36.0973 50.0349 36.3565 50.4958 36.3565 50.8558Z" fill="#2ED8CF"/>
<path d="M38.2576 52.1088C38.2576 52.4688 38.0127 52.584 37.7103 52.3824C37.4079 52.1808 37.1486 51.7199 37.1486 51.3599C37.1486 50.9998 37.3935 50.8846 37.6959 51.0862C37.9983 51.2879 38.2432 51.7487 38.2576 52.1088Z" fill="#2ED8CF"/>
<path d="M40.1442 53.3473C40.1442 53.7073 39.8994 53.8226 39.597 53.6209C39.2945 53.4193 39.0353 52.9584 39.0353 52.5984C39.0353 52.2383 39.2801 52.1231 39.5826 52.3248C39.885 52.5264 40.1442 53.0017 40.1442 53.3473Z" fill="#2ED8CF"/>
<path d="M42.0309 54.6002C42.0309 54.9603 41.786 55.0755 41.4836 54.8739C41.1812 54.6722 40.9219 54.2114 40.9219 53.8513C40.9219 53.4913 41.1668 53.3761 41.4692 53.5777C41.7716 53.7793 42.0309 54.2402 42.0309 54.6002Z" fill="#2ED8CF"/>
<path d="M43.9319 55.8532C43.9319 56.2132 43.6871 56.3284 43.3847 56.1268C43.0822 55.9252 42.823 55.4643 42.823 55.1043C42.823 54.7442 43.0678 54.629 43.3703 54.8306C43.6727 55.0322 43.9175 55.4931 43.9319 55.8532Z" fill="#2ED8CF"/>
<path d="M45.8185 57.1063C45.8185 57.4664 45.5737 57.5816 45.2713 57.38C44.9688 57.1783 44.7096 56.7175 44.7096 56.3574C44.7096 55.9974 44.9544 55.8822 45.2569 56.0838C45.5593 56.2854 45.8185 56.7463 45.8185 57.1063Z" fill="#2ED8CF"/>
<path d="M47.7197 58.3593C47.7197 58.7193 47.4748 58.8345 47.1724 58.6329C46.87 58.4313 46.6107 57.9704 46.6107 57.6104C46.6107 57.2503 46.8555 57.1351 47.158 57.3367C47.4604 57.5383 47.7053 57.9992 47.7197 58.3593Z" fill="#2ED8CF"/>
<path d="M49.6063 59.6122C49.6063 59.9722 49.3614 60.0875 49.059 59.8858C48.7565 59.6842 48.4973 59.2233 48.4973 58.8633C48.4973 58.5032 48.7421 58.388 49.0446 58.5897C49.347 58.7913 49.6063 59.2521 49.6063 59.6122Z" fill="#2ED8CF"/>
<path d="M51.4929 60.8507C51.4929 61.2108 51.2481 61.326 50.9456 61.1243C50.6432 60.9227 50.384 60.4619 50.384 60.1018C50.384 59.7418 50.6288 59.6266 50.9312 59.8282C51.2337 60.0442 51.4929 60.5051 51.4929 60.8507Z" fill="#2ED8CF"/>
<path d="M53.394 62.1036C53.394 62.4637 53.1491 62.5789 52.8467 62.3773C52.5443 62.1757 52.285 61.7148 52.285 61.3547C52.285 60.9947 52.5299 60.8795 52.8323 61.0811C53.1347 61.2971 53.394 61.7436 53.394 62.1036Z" fill="#2ED8CF"/>
<path d="M55.2806 63.3566C55.2806 63.7166 55.0358 63.8318 54.7334 63.6302C54.4309 63.4286 54.1717 62.9677 54.1717 62.6077C54.1717 62.2476 54.4165 62.1324 54.719 62.334C55.0214 62.5501 55.2806 62.9965 55.2806 63.3566Z" fill="#2ED8CF"/>
<path d="M57.1817 64.6095C57.1817 64.9695 56.9369 65.0848 56.6344 64.8831C56.332 64.6815 56.0728 64.2207 56.0728 63.8606C56.0728 63.5006 56.3176 63.3853 56.62 63.587C56.9225 63.7886 57.1673 64.2495 57.1817 64.6095Z" fill="#2ED8CF"/>
<path d="M59.0683 65.8624C59.0683 66.2225 58.8235 66.3377 58.521 66.1361C58.2186 65.9344 57.9594 65.4736 57.9594 65.1135C57.9594 64.7535 58.2042 64.6383 58.5066 64.8399C58.8091 65.0415 59.0683 65.5024 59.0683 65.8624Z" fill="#2ED8CF"/>
<path d="M60.955 67.1012C60.955 67.4612 60.7101 67.5765 60.4077 67.3748C60.1052 67.1732 59.846 66.7123 59.846 66.3523C59.846 65.9923 60.0908 65.877 60.3933 66.0787C60.7101 66.2947 60.955 66.7556 60.955 67.1012Z" fill="#2ED8CF"/>
<path d="M36.3853 53.2609C36.3853 53.6209 36.1405 53.7361 35.838 53.5345C35.5356 53.3329 35.2764 52.872 35.2764 52.512C35.2764 52.1519 35.5212 52.0367 35.8236 52.2383C36.1261 52.44 36.3853 52.9008 36.3853 53.2609Z" fill="#2ED8CF"/>
<path d="M38.2864 54.5138C38.2864 54.8738 38.0415 54.9891 37.7391 54.7874C37.4367 54.5858 37.1774 54.1249 37.1774 53.7649C37.1774 53.4049 37.4223 53.2896 37.7247 53.4913C38.0271 53.6929 38.272 54.1538 38.2864 54.5138Z" fill="#2ED8CF"/>
<path d="M40.173 55.7667C40.173 56.1268 39.9282 56.242 39.6258 56.0404C39.3233 55.8387 39.0641 55.3779 39.0641 55.0178C39.0641 54.6578 39.3089 54.5426 39.6114 54.7442C39.9138 54.9458 40.173 55.4067 40.173 55.7667Z" fill="#2ED8CF"/>
<path d="M42.0741 57.0055C42.0741 57.3655 41.8293 57.4808 41.5268 57.2791C41.2244 57.0775 40.9651 56.6166 40.9651 56.2566C40.9651 55.8966 41.21 55.7813 41.5124 55.983C41.8149 56.1846 42.0597 56.6599 42.0741 57.0055Z" fill="#2ED8CF"/>
<path d="M43.9607 58.2584C43.9607 58.6185 43.7159 58.7337 43.4134 58.5321C43.111 58.3304 42.8517 57.8696 42.8517 57.5095C42.8517 57.1495 43.0966 57.0343 43.399 57.2359C43.7015 57.4519 43.9607 57.8984 43.9607 58.2584Z" fill="#2ED8CF"/>
<path d="M45.8474 59.5114C45.8474 59.8714 45.6026 59.9866 45.3001 59.785C44.9977 59.5834 44.7385 59.1225 44.7385 58.7625C44.7385 58.4024 44.9833 58.2872 45.2857 58.4888C45.5882 58.7049 45.8474 59.1513 45.8474 59.5114Z" fill="#2ED8CF"/>
<path d="M47.7484 60.7643C47.7484 61.1243 47.5036 61.2395 47.2011 61.0379C46.8987 60.8363 46.6395 60.3754 46.6395 60.0154C46.6395 59.6553 46.8843 59.5401 47.1867 59.7418C47.4892 59.9434 47.734 60.4042 47.7484 60.7643Z" fill="#2ED8CF"/>
<path d="M49.6351 62.0172C49.6351 62.3773 49.3902 62.4925 49.0878 62.2909C48.7854 62.0892 48.5261 61.6284 48.5261 61.2683C48.5261 60.9083 48.771 60.7931 49.0734 60.9947C49.3758 61.1963 49.6351 61.6572 49.6351 62.0172Z" fill="#2ED8CF"/>
<path d="M51.5361 63.2557C51.5361 63.6158 51.2913 63.731 50.9889 63.5294C50.6864 63.3278 50.4272 62.8669 50.4272 62.5068C50.4272 62.1468 50.672 62.0316 50.9745 62.2332C51.2769 62.4492 51.5217 62.9101 51.5361 63.2557Z" fill="#2ED8CF"/>
<path d="M53.4228 64.5087C53.4228 64.8687 53.178 64.9839 52.8755 64.7823C52.5731 64.5807 52.3138 64.1198 52.3138 63.7598C52.3138 63.3997 52.5587 63.2845 52.8611 63.4861C53.1636 63.7022 53.4228 64.1486 53.4228 64.5087Z" fill="#2ED8CF"/>
<path d="M55.3094 65.7618C55.3094 66.1219 55.0646 66.2371 54.7622 66.0355C54.4597 65.8339 54.2005 65.373 54.2005 65.0129C54.2005 64.6529 54.4453 64.5377 54.7478 64.7393C55.0502 64.9553 55.3094 65.4018 55.3094 65.7618Z" fill="#2ED8CF"/>
<path d="M57.2104 67.0148C57.2104 67.3748 56.9656 67.49 56.6632 67.2884C56.3607 67.0868 56.1015 66.6259 56.1015 66.2659C56.1015 65.9058 56.3463 65.7906 56.6488 65.9922C56.9512 66.2083 57.196 66.6547 57.2104 67.0148Z" fill="#2ED8CF"/>
<path d="M59.0971 68.2677C59.0971 68.6278 58.8523 68.743 58.5498 68.5413C58.2474 68.3397 57.9882 67.8789 57.9882 67.5188C57.9882 67.1588 58.233 67.0435 58.5354 67.2452C58.8379 67.4468 59.0971 67.9077 59.0971 68.2677Z" fill="#2ED8CF"/>
<path d="M60.9982 69.5206C60.9982 69.8807 60.7533 69.9959 60.4509 69.7943C60.1485 69.5926 59.8892 69.1318 59.8892 68.7717C59.8892 68.4117 60.1341 68.2965 60.4365 68.4981C60.7389 68.6997 60.9838 69.1606 60.9982 69.5206Z" fill="#2ED8CF"/>
<path d="M36.4285 55.6659C36.4285 56.0259 36.1837 56.1412 35.8813 55.9395C35.5788 55.7379 35.3196 55.277 35.3196 54.917C35.3196 54.557 35.5644 54.4417 35.8669 54.6434C36.1693 54.8594 36.4141 55.3059 36.4285 55.6659Z" fill="#2ED8CF"/>
<path d="M38.3152 56.9191C38.3152 57.2791 38.0704 57.3943 37.7679 57.1927C37.4655 56.9911 37.2062 56.5302 37.2062 56.1702C37.2062 55.8101 37.4511 55.6949 37.7535 55.8965C38.0559 56.0982 38.3152 56.559 38.3152 56.9191Z" fill="#2ED8CF"/>
<path d="M40.2018 58.172C40.2018 58.5321 39.957 58.6473 39.6546 58.4456C39.3521 58.244 39.0929 57.7832 39.0929 57.4231C39.0929 57.0631 39.3377 56.9478 39.6402 57.1495C39.9426 57.3511 40.2018 57.812 40.2018 58.172Z" fill="#2ED8CF"/>
<path d="M42.1029 59.4105C42.1029 59.7706 41.8581 59.8858 41.5556 59.6842C41.2532 59.4825 40.994 59.0217 40.994 58.6616C40.994 58.3016 41.2388 58.1864 41.5412 58.388C41.8437 58.604 42.0885 59.0649 42.1029 59.4105Z" fill="#2ED8CF"/>
<path d="M43.9896 60.6635C43.9896 61.0235 43.7447 61.1387 43.4423 60.9371C43.1398 60.7355 42.8806 60.2746 42.8806 59.9146C42.8806 59.5545 43.1254 59.4393 43.4279 59.6409C43.7303 59.857 43.9896 60.3034 43.9896 60.6635Z" fill="#2ED8CF"/>
<path d="M45.8906 61.9164C45.8906 62.2764 45.6458 62.3916 45.3434 62.19C45.0409 61.9884 44.7817 61.5275 44.7817 61.1675C44.7817 60.8074 45.0265 60.6922 45.3289 60.8939C45.6314 61.1099 45.8762 61.5563 45.8906 61.9164Z" fill="#2ED8CF"/>
<path d="M47.7772 63.1693C47.7772 63.5294 47.5324 63.6446 47.2299 63.443C46.9275 63.2413 46.6683 62.7805 46.6683 62.4204C46.6683 62.0604 46.9131 61.9452 47.2155 62.1468C47.518 62.3484 47.7772 62.8093 47.7772 63.1693Z" fill="#2ED8CF"/>
<path d="M49.6639 64.4222C49.6639 64.7823 49.419 64.8975 49.1166 64.6959C48.8142 64.4943 48.5549 64.0334 48.5549 63.6733C48.5549 63.3133 48.7998 63.1981 49.1022 63.3997C49.4046 63.6013 49.6639 64.0622 49.6639 64.4222Z" fill="#2ED8CF"/>
<path d="M51.5649 65.6754C51.5649 66.0355 51.3201 66.1507 51.0177 65.9491C50.7152 65.7474 50.456 65.2866 50.456 64.9265C50.456 64.5665 50.7008 64.4513 51.0033 64.6529C51.3057 64.8545 51.5505 65.3154 51.5649 65.6754Z" fill="#2ED8CF"/>
<path d="M53.4516 66.9139C53.4516 67.274 53.2068 67.3892 52.9043 67.1876C52.6019 66.986 52.3427 66.5251 52.3427 66.165C52.3427 65.805 52.5875 65.6898 52.8899 65.8914C53.1924 66.1074 53.4516 66.5683 53.4516 66.9139Z" fill="#2ED8CF"/>
<path d="M55.3526 68.1669C55.3526 68.5269 55.1078 68.6421 54.8053 68.4405C54.5029 68.2389 54.2437 67.778 54.2437 67.418C54.2437 67.0579 54.4885 66.9427 54.7909 67.1443C55.0934 67.3604 55.3382 67.8068 55.3526 68.1669Z" fill="#2ED8CF"/>
<path d="M57.2393 69.4198C57.2393 69.7799 56.9944 69.8951 56.692 69.6934C56.3895 69.4918 56.1303 69.031 56.1303 68.6709C56.1303 68.3109 56.3751 68.1956 56.6776 68.3973C56.98 68.6133 57.2393 69.0598 57.2393 69.4198Z" fill="#2ED8CF"/>
<path d="M59.1259 70.6727C59.1259 71.0328 58.8811 71.148 58.5786 70.9464C58.2762 70.7447 58.017 70.2839 58.017 69.9238C58.017 69.5638 58.2618 69.4486 58.5642 69.6502C58.8667 69.8518 59.1259 70.3127 59.1259 70.6727Z" fill="#2ED8CF"/>
<path d="M61.027 71.9257C61.027 72.2857 60.7821 72.4009 60.4797 72.1993C60.1773 71.9977 59.918 71.5368 59.918 71.1768C59.918 70.8167 60.1629 70.7015 60.4653 70.9031C60.7677 71.1048 61.0126 71.5656 61.027 71.9257Z" fill="#2ED8CF"/>
<path d="M36.4573 58.0712C36.4573 58.4312 36.2125 58.5464 35.9101 58.3448C35.6076 58.1432 35.3484 57.6823 35.3484 57.3223C35.3484 56.9622 35.5932 56.847 35.8957 57.0486C36.1981 57.2647 36.4429 57.7111 36.4573 58.0712Z" fill="#2ED8CF"/>
<path d="M38.344 59.3241C38.344 59.6842 38.0992 59.7994 37.7967 59.5977C37.4943 59.3961 37.235 58.9353 37.235 58.5896C37.235 58.2296 37.4799 58.1143 37.7823 58.316C38.0848 58.5176 38.344 58.9641 38.344 59.3241Z" fill="#2ED8CF"/>
<path d="M40.2451 60.577C40.2451 60.9371 40.0002 61.0523 39.6978 60.8507C39.3953 60.649 39.1361 60.1882 39.1361 59.8281C39.1361 59.4681 39.3809 59.3529 39.6834 59.5545C39.9858 59.7561 40.2307 60.217 40.2451 60.577Z" fill="#2ED8CF"/>
<path d="M42.1317 61.8156C42.1317 62.1756 41.8868 62.2908 41.5844 62.0892C41.2819 61.8876 41.0227 61.4267 41.0227 61.0667C41.0227 60.7066 41.2675 60.5914 41.57 60.793C41.8724 60.9946 42.1317 61.4699 42.1317 61.8156Z" fill="#2ED8CF"/>
<path d="M44.0184 63.0685C44.0184 63.4285 43.7735 63.5437 43.4711 63.3421C43.1687 63.1405 42.9094 62.6796 42.9094 62.3196C42.9094 61.9595 43.1543 61.8443 43.4567 62.046C43.7591 62.2476 44.0184 62.7228 44.0184 63.0685Z" fill="#2ED8CF"/>
<path d="M45.9194 64.3217C45.9194 64.6817 45.6745 64.7969 45.3721 64.5953C45.0697 64.3937 44.8104 63.9328 44.8104 63.5728C44.8104 63.2127 45.0553 63.0975 45.3577 63.2991C45.6601 63.5008 45.905 63.9616 45.9194 64.3217Z" fill="#2ED8CF"/>
<path d="M47.806 65.5746C47.806 65.9346 47.5612 66.0499 47.2588 65.8482C46.9563 65.6466 46.6971 65.1857 46.6971 64.8257C46.6971 64.4656 46.9419 64.3504 47.2444 64.5521C47.5468 64.7681 47.806 65.2145 47.806 65.5746Z" fill="#2ED8CF"/>
<path d="M49.7071 66.8275C49.7071 67.1876 49.4623 67.3028 49.1598 67.1012C48.8574 66.8995 48.5981 66.4387 48.5981 66.0786C48.5981 65.7186 48.843 65.6034 49.1454 65.805C49.4479 66.0066 49.6927 66.4675 49.7071 66.8275Z" fill="#2ED8CF"/>
<path d="M51.5937 68.0804C51.5937 68.4405 51.3489 68.5557 51.0465 68.3541C50.744 68.1525 50.4848 67.6916 50.4848 67.3316C50.4848 66.9715 50.7296 66.8563 51.0321 67.0579C51.3345 67.2595 51.5937 67.7204 51.5937 68.0804Z" fill="#2ED8CF"/>
<path d="M53.4803 69.319C53.4803 69.679 53.2355 69.7942 52.9331 69.5926C52.6306 69.391 52.3714 68.9301 52.3714 68.5701C52.3714 68.21 52.6162 68.0948 52.9187 68.2964C53.2211 68.5125 53.4803 68.9733 53.4803 69.319Z" fill="#2ED8CF"/>
<path d="M55.3814 70.5719C55.3814 70.932 55.1366 71.0472 54.8341 70.8455C54.5317 70.6439 54.2725 70.1831 54.2725 69.823C54.2725 69.463 54.5173 69.3477 54.8197 69.5494C55.1222 69.7654 55.367 70.2119 55.3814 70.5719Z" fill="#2ED8CF"/>
<path d="M57.2681 71.8248C57.2681 72.1849 57.0232 72.3001 56.7208 72.0985C56.4184 71.8968 56.1591 71.436 56.1591 71.0759C56.1591 70.7159 56.404 70.6007 56.7064 70.8023C57.0088 71.0183 57.2681 71.4648 57.2681 71.8248Z" fill="#2ED8CF"/>
<path d="M59.1691 73.078C59.1691 73.4381 58.9243 73.5533 58.6219 73.3516C58.3194 73.15 58.0602 72.6892 58.0602 72.3291C58.0602 71.9691 58.305 71.8538 58.6075 72.0555C58.9099 72.2715 59.1547 72.718 59.1691 73.078Z" fill="#2ED8CF"/>
<path d="M61.0558 74.3309C61.0558 74.691 60.811 74.8062 60.5085 74.6046C60.2061 74.4029 59.9468 73.9421 59.9468 73.582C59.9468 73.222 60.1917 73.1068 60.4941 73.3084C60.7966 73.51 61.0558 73.9709 61.0558 74.3309Z" fill="#2ED8CF"/>
<path d="M36.4861 60.4762C36.4861 60.8362 36.2413 60.9515 35.9389 60.7498C35.6364 60.5482 35.3772 60.0873 35.3772 59.7273C35.3772 59.3673 35.622 59.252 35.9245 59.4537C36.2269 59.6553 36.4861 60.1162 36.4861 60.4762Z" fill="#2ED8CF"/>
<path d="M38.3728 61.7291C38.3728 62.0892 38.128 62.2044 37.8255 62.0028C37.5231 61.8011 37.2639 61.3403 37.2639 60.9802C37.2639 60.6202 37.5087 60.505 37.8111 60.7066C38.1136 60.9082 38.3728 61.3691 38.3728 61.7291Z" fill="#2ED8CF"/>
<path d="M40.2739 62.9821C40.2739 63.3421 40.029 63.4573 39.7266 63.2557C39.4242 63.0541 39.1649 62.5932 39.1649 62.2332C39.1649 61.8731 39.4097 61.7579 39.7122 61.9595C40.0146 62.1612 40.2595 62.622 40.2739 62.9821Z" fill="#2ED8CF"/>
<path d="M42.1605 64.2352C42.1605 64.5953 41.9157 64.7105 41.6132 64.5089C41.3108 64.3072 41.0516 63.8464 41.0516 63.4863C41.0516 63.1263 41.2964 63.0111 41.5988 63.2127C41.9013 63.4143 42.1605 63.8752 42.1605 64.2352Z" fill="#2ED8CF"/>
<path d="M44.0615 65.4738C44.0615 65.8338 43.8167 65.949 43.5142 65.7474C43.2118 65.5458 42.9526 65.0849 42.9526 64.7249C42.9526 64.3648 43.1974 64.2496 43.4998 64.4512C43.8023 64.6673 44.0471 65.1281 44.0615 65.4738Z" fill="#2ED8CF"/>
<path d="M45.9482 66.7267C45.9482 67.0867 45.7033 67.202 45.4009 67.0003C45.0985 66.7987 44.8392 66.3378 44.8392 65.9778C44.8392 65.6177 45.0841 65.5025 45.3865 65.7042C45.6889 65.9202 45.9482 66.3666 45.9482 66.7267Z" fill="#2ED8CF"/>
<path d="M47.8348 67.9796C47.8348 68.3397 47.59 68.4549 47.2876 68.2533C46.9851 68.0516 46.7259 67.5908 46.7259 67.2307C46.7259 66.8707 46.9707 66.7555 47.2732 66.9571C47.5756 67.1731 47.8348 67.6196 47.8348 67.9796Z" fill="#2ED8CF"/>
<path d="M49.7359 69.2325C49.7359 69.5926 49.4911 69.7078 49.1886 69.5062C48.8862 69.3046 48.627 68.8437 48.627 68.4837C48.627 68.1236 48.8718 68.0084 49.1742 68.21C49.4767 68.4116 49.7215 68.8725 49.7359 69.2325Z" fill="#2ED8CF"/>
<path d="M51.6226 70.4855C51.6226 70.8455 51.3777 70.9607 51.0753 70.7591C50.7728 70.5575 50.5136 70.0966 50.5136 69.7366C50.5136 69.3765 50.7584 69.2613 51.0609 69.4629C51.3633 69.6646 51.6226 70.1254 51.6226 70.4855Z" fill="#2ED8CF"/>
<path d="M53.5236 71.724C53.5236 72.0841 53.2787 72.1993 52.9763 71.9976C52.6738 71.796 52.4146 71.3352 52.4146 70.9751C52.4146 70.6151 52.6594 70.4998 52.9619 70.7015C53.2643 70.9175 53.5092 71.3784 53.5236 71.724Z" fill="#2ED8CF"/>
<path d="M55.4102 72.9772C55.4102 73.3372 55.1654 73.4524 54.8629 73.2508C54.5605 73.0492 54.3013 72.5883 54.3013 72.2283C54.3013 71.8682 54.5461 71.753 54.8485 71.9546C55.151 72.1707 55.4102 72.6171 55.4102 72.9772Z" fill="#2ED8CF"/>
<path d="M57.2969 74.2301C57.2969 74.5902 57.052 74.7054 56.7496 74.5037C56.4472 74.3021 56.1879 73.8413 56.1879 73.4812C56.1879 73.1212 56.4328 73.0059 56.7352 73.2076C57.0376 73.4236 57.2969 73.8701 57.2969 74.2301Z" fill="#2ED8CF"/>
<path d="M59.1979 75.483C59.1979 75.8431 58.9531 75.9583 58.6507 75.7567C58.3482 75.555 58.089 75.0942 58.089 74.7341C58.089 74.3741 58.3338 74.2589 58.6363 74.4605C58.9387 74.6765 59.1835 75.123 59.1979 75.483Z" fill="#2ED8CF"/>
<path d="M61.0846 76.736C61.0846 77.096 60.8398 77.2112 60.5373 77.0096C60.2349 76.808 59.9756 76.3471 59.9756 75.9871C59.9756 75.627 60.2205 75.5118 60.5229 75.7134C60.8254 75.9151 61.0846 76.3759 61.0846 76.736Z" fill="#2ED8CF"/>
<path d="M36.515 62.8815C36.515 63.2415 36.2701 63.3567 35.9677 63.1551C35.6652 62.9535 35.406 62.4926 35.406 62.1326C35.406 61.7725 35.6508 61.6573 35.9533 61.8589C36.2557 62.075 36.515 62.5214 36.515 62.8815Z" fill="#2ED8CF"/>
<path d="M38.4016 64.1344C38.4016 64.4945 38.1568 64.6097 37.8543 64.408C37.5519 64.2064 37.2927 63.7456 37.2927 63.3855C37.2927 63.0255 37.5375 62.9102 37.8399 63.1119C38.1568 63.3279 38.4016 63.7744 38.4016 64.1344Z" fill="#2ED8CF"/>
<path d="M40.3027 65.3873C40.3027 65.7474 40.0578 65.8626 39.7554 65.661C39.453 65.4593 39.1937 64.9985 39.1937 64.6384C39.1937 64.2784 39.4386 64.1632 39.741 64.3648C40.0434 64.5664 40.3027 65.0273 40.3027 65.3873Z" fill="#2ED8CF"/>
<path d="M42.1893 66.6403C42.1893 67.0003 41.9444 67.1155 41.642 66.9139C41.3396 66.7123 41.0803 66.2514 41.0803 65.8914C41.0803 65.5313 41.3252 65.4161 41.6276 65.6177C41.93 65.8194 42.1893 66.2802 42.1893 66.6403Z" fill="#2ED8CF"/>
<path d="M44.0903 67.8788C44.0903 68.2388 43.8455 68.3541 43.5431 68.1524C43.2406 67.9508 42.9814 67.4899 42.9814 67.1299C42.9814 66.7698 43.2262 66.6546 43.5287 66.8563C43.8311 67.0579 44.0759 67.5331 44.0903 67.8788Z" fill="#2ED8CF"/>
<path d="M45.977 69.1317C45.977 69.4918 45.7322 69.607 45.4297 69.4054C45.1273 69.2037 44.868 68.7429 44.868 68.3828C44.868 68.0228 45.1129 67.9076 45.4153 68.1092C45.7178 68.3252 45.977 68.7717 45.977 69.1317Z" fill="#2ED8CF"/>
<path d="M47.8636 70.3846C47.8636 70.7447 47.6188 70.8599 47.3164 70.6583C47.0139 70.4567 46.7547 69.9958 46.7547 69.6358C46.7547 69.2757 46.9995 69.1605 47.302 69.3621C47.6044 69.5637 47.8636 70.0246 47.8636 70.3846Z" fill="#2ED8CF"/>
<path d="M49.7647 71.6378C49.7647 71.9979 49.5199 72.1131 49.2174 71.9115C48.915 71.7098 48.6558 71.249 48.6558 70.8889C48.6558 70.5289 48.9006 70.4137 49.203 70.6153C49.5055 70.8313 49.7647 71.2778 49.7647 71.6378Z" fill="#2ED8CF"/>
<path d="M51.6513 72.8907C51.6513 73.2508 51.4065 73.366 51.104 73.1644C50.8016 72.9628 50.5424 72.5019 50.5424 72.1419C50.5424 71.7818 50.7872 71.6666 51.0896 71.8682C51.3921 72.0698 51.6513 72.5307 51.6513 72.8907Z" fill="#2ED8CF"/>
<path d="M53.5524 74.1437C53.5524 74.5037 53.3075 74.6189 53.0051 74.4173C52.7027 74.2157 52.4434 73.7548 52.4434 73.3948C52.4434 73.0347 52.6883 72.9195 52.9907 73.1211C53.2931 73.3228 53.538 73.7836 53.5524 74.1437Z" fill="#2ED8CF"/>
<path d="M55.439 75.3822C55.439 75.7423 55.1942 75.8575 54.8918 75.6558C54.5893 75.4542 54.3301 74.9934 54.3301 74.6333C54.3301 74.2733 54.5749 74.158 54.8774 74.3597C55.1798 74.5613 55.439 75.0366 55.439 75.3822Z" fill="#2ED8CF"/>
<path d="M57.3257 76.6351C57.3257 76.9952 57.0808 77.1104 56.7784 76.9088C56.476 76.7071 56.2167 76.2463 56.2167 75.8862C56.2167 75.5262 56.4616 75.411 56.764 75.6126C57.0809 75.8286 57.3257 76.2751 57.3257 76.6351Z" fill="#2ED8CF"/>
<path d="M59.2267 77.8881C59.2267 78.2481 58.9819 78.3633 58.6795 78.1617C58.377 77.9601 58.1178 77.4992 58.1178 77.1392C58.1178 76.7791 58.3626 76.6639 58.6651 76.8655C58.9675 77.0816 59.2267 77.528 59.2267 77.8881Z" fill="#2ED8CF"/>
<path d="M61.1134 79.141C61.1134 79.501 60.8686 79.6163 60.5661 79.4146C60.2637 79.213 60.0045 78.7521 60.0045 78.3921C60.0045 78.0321 60.2493 77.9168 60.5517 78.1185C60.8542 78.3201 61.1134 78.781 61.1134 79.141Z" fill="#2ED8CF"/>
<path d="M36.5438 65.2865C36.5438 65.6466 36.2989 65.7618 35.9965 65.5601C35.694 65.3585 35.4348 64.8977 35.4348 64.5376C35.4348 64.1776 35.6796 64.0623 35.9821 64.264C36.2845 64.48 36.5438 64.9265 36.5438 65.2865Z" fill="#2ED8CF"/>
<path d="M38.4448 66.5394C38.4448 66.8995 38.1999 67.0147 37.8975 66.8131C37.595 66.6114 37.3358 66.1506 37.3358 65.7905C37.3358 65.4305 37.5806 65.3153 37.8831 65.5169C38.1855 65.7185 38.4304 66.1794 38.4448 66.5394Z" fill="#2ED8CF"/>
<path d="M40.3315 67.7924C40.3315 68.1524 40.0866 68.2676 39.7842 68.066C39.4818 67.8644 39.2225 67.4035 39.2225 67.0435C39.2225 66.6834 39.4674 66.5682 39.7698 66.7698C40.0722 66.9715 40.3315 67.4323 40.3315 67.7924Z" fill="#2ED8CF"/>
<path d="M42.2181 69.0453C42.2181 69.4053 41.9732 69.5206 41.6708 69.3189C41.3684 69.1173 41.1091 68.6564 41.1091 68.2964C41.1091 67.9363 41.354 67.8211 41.6564 68.0228C41.9588 68.2244 42.2181 68.6852 42.2181 69.0453Z" fill="#2ED8CF"/>
<path d="M44.1191 70.2838C44.1191 70.6439 43.8743 70.7591 43.5719 70.5575C43.2694 70.3558 43.0102 69.895 43.0102 69.5349C43.0102 69.1749 43.255 69.0597 43.5575 69.2613C43.8599 69.4629 44.1191 69.9382 44.1191 70.2838Z" fill="#2ED8CF"/>
<path d="M46.0058 71.537C46.0058 71.897 45.761 72.0123 45.4585 71.8106C45.1561 71.609 44.8969 71.1481 44.8969 70.7881C44.8969 70.428 45.1417 70.3128 45.4441 70.5145C45.7466 70.7161 46.0058 71.1913 46.0058 71.537Z" fill="#2ED8CF"/>
<path d="M47.9069 72.7899C47.9069 73.15 47.662 73.2652 47.3596 73.0636C47.0571 72.8619 46.7979 72.4011 46.7979 72.041C46.7979 71.681 47.0427 71.5658 47.3452 71.7674C47.6476 71.9834 47.8925 72.4299 47.9069 72.7899Z" fill="#2ED8CF"/>
<path d="M49.7935 74.0428C49.7935 74.4029 49.5487 74.5181 49.2462 74.3165C48.9438 74.1149 48.6846 73.654 48.6846 73.294C48.6846 72.9339 48.9294 72.8187 49.2318 73.0203C49.5343 73.2363 49.7935 73.6828 49.7935 74.0428Z" fill="#2ED8CF"/>
<path d="M51.6802 75.2958C51.6802 75.6558 51.4353 75.771 51.1329 75.5694C50.8305 75.3678 50.5712 74.9069 50.5712 74.5469C50.5712 74.1868 50.8161 74.0716 51.1185 74.2732C51.4353 74.4749 51.6802 74.9357 51.6802 75.2958Z" fill="#2ED8CF"/>
<path d="M53.5812 76.5487C53.5812 76.9088 53.3364 77.024 53.034 76.8223C52.7315 76.6207 52.4723 76.1599 52.4723 75.7998C52.4723 75.4398 52.7171 75.3245 53.0196 75.5262C53.322 75.7278 53.5812 76.1887 53.5812 76.5487Z" fill="#2ED8CF"/>
<path d="M55.4678 77.7872C55.4678 78.1473 55.223 78.2625 54.9206 78.0609C54.6181 77.8592 54.3589 77.3984 54.3589 77.0383C54.3589 76.6783 54.6037 76.5631 54.9062 76.7647C55.2086 76.9807 55.4678 77.4416 55.4678 77.7872Z" fill="#2ED8CF"/>
<path d="M57.3689 79.0404C57.3689 79.4005 57.1241 79.5157 56.8216 79.314C56.5192 79.1124 56.2599 78.6516 56.2599 78.2915C56.2599 77.9315 56.5048 77.8163 56.8072 78.0179C57.1097 78.2195 57.3545 78.6804 57.3689 79.0404Z" fill="#2ED8CF"/>
<path d="M59.2556 80.2933C59.2556 80.6534 59.0107 80.7686 58.7083 80.567C58.4058 80.3653 58.1466 79.9045 58.1466 79.5444C58.1466 79.1844 58.3914 79.0692 58.6939 79.2708C58.9963 79.4868 59.2556 79.9333 59.2556 80.2933Z" fill="#2ED8CF"/>
<path d="M61.1422 81.5463C61.1422 81.9063 60.8974 82.0215 60.5949 81.8199C60.2925 81.6183 60.0333 81.1574 60.0333 80.7974C60.0333 80.4373 60.2781 80.3221 60.5805 80.5237C60.8974 80.7398 61.1422 81.1862 61.1422 81.5463Z" fill="#2ED8CF"/>
<path d="M34.4987 81.5902C34.4987 81.9503 34.2395 82.0655 33.937 81.8638C33.6346 81.6622 33.3754 81.2014 33.3754 80.8413C33.3754 80.4813 33.6346 80.3661 33.937 80.5677C34.2395 80.7837 34.4987 81.2302 34.4987 81.5902Z" fill="#2ED8CF"/>
<path d="M36.4142 82.872C36.4142 83.232 36.1549 83.3472 35.8525 83.1456C35.5357 82.944 35.2908 82.4831 35.2908 82.1231C35.2908 81.763 35.5501 81.6478 35.8525 81.8494C36.1549 82.051 36.4142 82.5119 36.4142 82.872Z" fill="#2ED8CF"/>
<path d="M38.3296 84.1393C38.3296 84.4993 38.0704 84.6146 37.768 84.4129C37.4511 84.2113 37.2063 83.7504 37.2063 83.3904C37.2063 83.0303 37.4655 82.9151 37.768 83.1168C38.0704 83.3328 38.3296 83.7792 38.3296 84.1393Z" fill="#2ED8CF"/>
<path d="M40.2451 85.421C40.2451 85.7811 39.9858 85.8963 39.6834 85.6947C39.3665 85.493 39.1217 85.0322 39.1217 84.6721C39.1217 84.3121 39.3809 84.1969 39.6834 84.3985C39.9858 84.6001 40.2451 85.061 40.2451 85.421Z" fill="#2ED8CF"/>
<path d="M42.1605 86.6886C42.1605 87.0486 41.9013 87.1639 41.5988 86.9622C41.282 86.7606 41.0372 86.2997 41.0372 85.9397C41.0372 85.5797 41.2964 85.4644 41.5988 85.6661C41.9013 85.8821 42.1605 86.3286 42.1605 86.6886Z" fill="#2ED8CF"/>
<path d="M44.076 87.9703C44.076 88.3304 43.8168 88.4456 43.5143 88.244C43.1975 88.0424 42.9526 87.5815 42.9526 87.2214C42.9526 86.8614 43.2119 86.7462 43.5143 86.9478C43.8168 87.1494 44.076 87.6103 44.076 87.9703Z" fill="#2ED8CF"/>
<path d="M45.9914 89.2377C45.9914 89.5977 45.7322 89.7129 45.4297 89.5113C45.1273 89.3097 44.868 88.8488 44.868 88.4888C44.868 88.1287 45.1273 88.0135 45.4297 88.2151C45.7322 88.4312 45.9914 88.892 45.9914 89.2377Z" fill="#2ED8CF"/>
<path d="M47.9069 90.5194C47.9069 90.8795 47.6476 90.9947 47.3452 90.793C47.0283 90.5914 46.7835 90.1306 46.7835 89.7705C46.7835 89.4105 47.0427 89.2953 47.3452 89.4969C47.6476 89.6985 47.9069 90.1594 47.9069 90.5194Z" fill="#2ED8CF"/>
<path d="M49.8223 91.7868C49.8223 92.1468 49.5631 92.262 49.2606 92.0604C48.9438 91.8588 48.699 91.3979 48.699 91.0379C48.699 90.6778 48.9582 90.5626 49.2606 90.7642C49.5631 90.9802 49.8223 91.4411 49.8223 91.7868Z" fill="#2ED8CF"/>
<path d="M51.7378 93.0685C51.7378 93.4285 51.4786 93.5438 51.1761 93.3421C50.8737 93.1405 50.6144 92.6796 50.6144 92.3196C50.6144 91.9595 50.8737 91.8443 51.1761 92.046C51.4786 92.2476 51.7378 92.7084 51.7378 93.0685Z" fill="#2ED8CF"/>
<path d="M53.6533 94.3358C53.6533 94.6959 53.394 94.8111 53.0916 94.6095C52.7747 94.4078 52.5299 93.947 52.5299 93.5869C52.5299 93.2269 52.7891 93.1117 53.0916 93.3133C53.394 93.5149 53.6533 93.9902 53.6533 94.3358Z" fill="#2ED8CF"/>
<path d="M55.5687 95.6176C55.5687 95.9776 55.3094 96.0928 55.007 95.8912C54.6901 95.6896 54.4453 95.2287 54.4453 94.8687C54.4453 94.5086 54.7045 94.3934 55.007 94.595C55.3094 94.7967 55.5687 95.2575 55.5687 95.6176Z" fill="#2ED8CF"/>
<path d="M57.4841 96.8849C57.4841 97.2449 57.2249 97.3602 56.9225 97.1585C56.6056 96.9569 56.3608 96.496 56.3608 96.136C56.3608 95.7759 56.62 95.6607 56.9225 95.8624C57.2249 96.0784 57.4841 96.5392 57.4841 96.8849Z" fill="#2ED8CF"/>
<path d="M59.3996 98.1669C59.3996 98.5269 59.1404 98.6421 58.8379 98.4405C58.5211 98.2389 58.2762 97.778 58.2762 97.418C58.2762 97.0579 58.5355 96.9427 58.8379 97.1443C59.1404 97.346 59.3996 97.8068 59.3996 98.1669Z" fill="#2ED8CF"/>
<path d="M34.4987 83.9952C34.4987 84.3553 34.2395 84.4705 33.937 84.2689C33.6202 84.0673 33.3754 83.6064 33.3754 83.2463C33.3754 82.8863 33.6346 82.7711 33.937 82.9727C34.2395 83.1743 34.4987 83.6352 34.4987 83.9952Z" fill="#2ED8CF"/>
<path d="M36.4142 85.277C36.4142 85.637 36.1549 85.7522 35.8525 85.5506C35.5501 85.349 35.2908 84.8881 35.2908 84.5281C35.2908 84.168 35.5501 84.0528 35.8525 84.2544C36.1549 84.4561 36.4142 84.9169 36.4142 85.277Z" fill="#2ED8CF"/>
<path d="M38.3296 86.5446C38.3296 86.9046 38.0704 87.0198 37.768 86.8182C37.4511 86.6166 37.2063 86.1557 37.2063 85.7957C37.2063 85.4356 37.4655 85.3204 37.768 85.522C38.0704 85.7381 38.3296 86.1989 38.3296 86.5446Z" fill="#2ED8CF"/>
<path d="M40.2451 87.8263C40.2451 88.1864 39.9858 88.3016 39.6834 88.0999C39.3665 87.8983 39.1217 87.4375 39.1217 87.0774C39.1217 86.7174 39.3809 86.6021 39.6834 86.8038C39.9858 87.0054 40.2451 87.4663 40.2451 87.8263Z" fill="#2ED8CF"/>
<path d="M42.1605 89.0936C42.1605 89.4537 41.9013 89.5689 41.5988 89.3673C41.282 89.1656 41.0372 88.7048 41.0372 88.3447C41.0372 87.9847 41.2964 87.8695 41.5988 88.0711C41.9013 88.2871 42.1605 88.748 42.1605 89.0936Z" fill="#2ED8CF"/>
<path d="M44.076 90.3754C44.076 90.7354 43.8168 90.8506 43.5143 90.649C43.1975 90.4474 42.9526 89.9865 42.9526 89.6265C42.9526 89.2664 43.2119 89.1512 43.5143 89.3528C43.8168 89.5545 44.076 90.0153 44.076 90.3754Z" fill="#2ED8CF"/>
<path d="M45.9914 91.6427C45.9914 92.0028 45.7322 92.118 45.4297 91.9163C45.1129 91.7147 44.868 91.2539 44.868 90.8938C44.868 90.5338 45.1273 90.4185 45.4297 90.6202C45.7322 90.8362 45.9914 91.2971 45.9914 91.6427Z" fill="#2ED8CF"/>
<path d="M47.9069 92.9244C47.9069 93.2845 47.6476 93.3997 47.3452 93.1981C47.0283 92.9965 46.7835 92.5356 46.7835 92.1755C46.7835 91.8155 47.0427 91.7003 47.3452 91.9019C47.6476 92.1035 47.9069 92.5644 47.9069 92.9244Z" fill="#2ED8CF"/>
<path d="M49.8223 94.1918C49.8223 94.5518 49.5631 94.667 49.2606 94.4654C48.9438 94.2638 48.699 93.8029 48.699 93.4429C48.699 93.0828 48.9582 92.9676 49.2606 93.1692C49.5631 93.3709 49.8223 93.8461 49.8223 94.1918Z" fill="#2ED8CF"/>
<path d="M51.7378 95.4738C51.7378 95.8338 51.4786 95.949 51.1761 95.7474C50.8593 95.5458 50.6144 95.0849 50.6144 94.7249C50.6144 94.3648 50.8737 94.2496 51.1761 94.4512C51.4786 94.6529 51.7378 95.1137 51.7378 95.4738Z" fill="#2ED8CF"/>
<path d="M53.6533 96.7411C53.6533 97.1011 53.394 97.2164 53.0916 97.0147C52.7747 96.8131 52.5299 96.3522 52.5299 95.9922C52.5299 95.6321 52.7891 95.5169 53.0916 95.7186C53.394 95.9346 53.6533 96.3954 53.6533 96.7411Z" fill="#2ED8CF"/>
<path d="M55.5687 98.0228C55.5687 98.3829 55.3094 98.4981 55.007 98.2965C54.6901 98.0948 54.4453 97.634 54.4453 97.2739C54.4453 96.9139 54.7045 96.7987 55.007 97.0003C55.3094 97.2019 55.5687 97.6628 55.5687 98.0228Z" fill="#2ED8CF"/>
<path d="M57.4841 99.3046C57.4841 99.6646 57.2249 99.7798 56.9225 99.5782C56.6056 99.3766 56.3608 98.9157 56.3608 98.5557C56.3608 98.1956 56.62 98.0804 56.9225 98.282C57.2249 98.4837 57.4841 98.9445 57.4841 99.3046Z" fill="#2ED8CF"/>
<path d="M59.3996 100.572C59.3996 100.932 59.1404 101.047 58.8379 100.846C58.5211 100.644 58.2762 100.183 58.2762 99.823C58.2762 99.463 58.5355 99.3477 58.8379 99.5494C59.1404 99.751 59.3996 100.212 59.3996 100.572Z" fill="#2ED8CF"/>
<path d="M34.4987 86.4005C34.4987 86.7606 34.2395 86.8758 33.937 86.6742C33.6202 86.4725 33.3754 86.0117 33.3754 85.6516C33.3754 85.2916 33.6346 85.1764 33.937 85.378C34.2395 85.594 34.4987 86.0549 34.4987 86.4005Z" fill="#2ED8CF"/>
<path d="M36.4142 87.6823C36.4142 88.0423 36.1549 88.1575 35.8525 87.9559C35.5357 87.7543 35.2908 87.2934 35.2908 86.9334C35.2908 86.5733 35.5501 86.4581 35.8525 86.6597C36.1549 86.8613 36.4142 87.3222 36.4142 87.6823Z" fill="#2ED8CF"/>
<path d="M38.3296 88.9496C38.3296 89.3096 38.0704 89.4249 37.768 89.2232C37.4511 89.0216 37.2063 88.5607 37.2063 88.2007C37.2063 87.8406 37.4655 87.7254 37.768 87.9271C38.0704 88.1431 38.3296 88.6039 38.3296 88.9496Z" fill="#2ED8CF"/>
<path d="M40.2451 90.2313C40.2451 90.5914 39.9858 90.7066 39.6834 90.505C39.3665 90.3033 39.1217 89.8425 39.1217 89.4824C39.1217 89.1224 39.3809 89.0072 39.6834 89.2088C39.9858 89.4104 40.2451 89.8713 40.2451 90.2313Z" fill="#2ED8CF"/>
<path d="M42.1605 91.4987C42.1605 91.8587 41.9013 91.9739 41.5988 91.7723C41.282 91.5707 41.0372 91.1098 41.0372 90.7498C41.0372 90.3897 41.2964 90.2745 41.5988 90.4761C41.9013 90.6922 42.1605 91.153 42.1605 91.4987Z" fill="#2ED8CF"/>
<path d="M44.076 92.7804C44.076 93.1404 43.8168 93.2557 43.5143 93.054C43.1975 92.8524 42.9526 92.3915 42.9526 92.0315C42.9526 91.6715 43.2119 91.5562 43.5143 91.7579C43.8168 91.9595 44.076 92.4204 44.076 92.7804Z" fill="#2ED8CF"/>
<path d="M45.9914 94.0477C45.9914 94.4078 45.7322 94.523 45.4297 94.3214C45.1129 94.1197 44.868 93.6589 44.868 93.2988C44.868 92.9388 45.1273 92.8236 45.4297 93.0252C45.7322 93.2268 45.9914 93.7021 45.9914 94.0477Z" fill="#2ED8CF"/>
<path d="M47.9069 95.3297C47.9069 95.6898 47.6476 95.805 47.3452 95.6034C47.0283 95.4017 46.7835 94.9409 46.7835 94.5808C46.7835 94.2208 47.0427 94.1056 47.3452 94.3072C47.6476 94.5088 47.9069 94.9697 47.9069 95.3297Z" fill="#2ED8CF"/>
<path d="M49.8223 96.597C49.8223 96.9571 49.5631 97.0723 49.2606 96.8707C48.9582 96.6691 48.699 96.2082 48.699 95.8481C48.699 95.4881 48.9582 95.3729 49.2606 95.5745C49.5631 95.7905 49.8223 96.2514 49.8223 96.597Z" fill="#2ED8CF"/>
<path d="M51.7378 97.8788C51.7378 98.2388 51.4786 98.3541 51.1761 98.1524C50.8593 97.9508 50.6144 97.4899 50.6144 97.1299C50.6144 96.7698 50.8737 96.6546 51.1761 96.8563C51.4786 97.0579 51.7378 97.5187 51.7378 97.8788Z" fill="#2ED8CF"/>
<path d="M53.6533 99.1605C53.6533 99.5206 53.394 99.6358 53.0916 99.4342C52.7747 99.2325 52.5299 98.7717 52.5299 98.4116C52.5299 98.0516 52.7891 97.9364 53.0916 98.138C53.394 98.3396 53.6533 98.8005 53.6533 99.1605Z" fill="#2ED8CF"/>
<path d="M55.5687 100.428C55.5687 100.788 55.3094 100.903 55.007 100.701C54.6901 100.5 54.4453 100.039 54.4453 99.679C54.4453 99.3189 54.7045 99.2037 55.007 99.4053C55.3094 99.607 55.5687 100.068 55.5687 100.428Z" fill="#2ED8CF"/>
<path d="M57.4841 101.71C57.4841 102.07 57.2249 102.185 56.9225 101.983C56.6056 101.782 56.3608 101.321 56.3608 100.961C56.3608 100.601 56.62 100.485 56.9225 100.687C57.2249 100.889 57.4841 101.35 57.4841 101.71Z" fill="#2ED8CF"/>
<path d="M59.3996 102.977C59.3996 103.337 59.1404 103.452 58.8379 103.251C58.5355 103.049 58.2762 102.588 58.2762 102.228C58.2762 101.868 58.5355 101.753 58.8379 101.954C59.1404 102.17 59.3996 102.617 59.3996 102.977Z" fill="#2ED8CF"/>
<path d="M34.4987 88.8056C34.4987 89.1656 34.2395 89.2808 33.937 89.0792C33.6346 88.8776 33.3754 88.4167 33.3754 88.0567C33.3754 87.6966 33.6346 87.5814 33.937 87.783C34.2395 87.999 34.4987 88.4599 34.4987 88.8056Z" fill="#2ED8CF"/>
<path d="M36.4142 90.0873C36.4142 90.4473 36.1549 90.5625 35.8525 90.3609C35.5357 90.1593 35.2908 89.6984 35.2908 89.3384C35.2908 88.9783 35.5501 88.8631 35.8525 89.0647C36.1549 89.2664 36.4142 89.7272 36.4142 90.0873Z" fill="#2ED8CF"/>
<path d="M38.3296 91.3546C38.3296 91.7147 38.0704 91.8299 37.768 91.6283C37.4511 91.4266 37.2063 90.9658 37.2063 90.6057C37.2063 90.2457 37.4655 90.1305 37.768 90.3321C38.0704 90.5481 38.3296 91.009 38.3296 91.3546Z" fill="#2ED8CF"/>
<path d="M40.2451 92.6364C40.2451 92.9964 39.9858 93.1116 39.6834 92.91C39.3665 92.7084 39.1217 92.2475 39.1217 91.8875C39.1217 91.5274 39.3809 91.4122 39.6834 91.6138C39.9858 91.8155 40.2451 92.2763 40.2451 92.6364Z" fill="#2ED8CF"/>
<path d="M42.1605 93.9039C42.1605 94.264 41.9013 94.3792 41.5988 94.1776C41.282 93.9759 41.0372 93.5151 41.0372 93.155C41.0372 92.795 41.2964 92.6798 41.5988 92.8814C41.9013 93.0974 42.1605 93.5583 42.1605 93.9039Z" fill="#2ED8CF"/>
<path d="M44.076 95.1857C44.076 95.5457 43.8168 95.6609 43.5143 95.4593C43.1975 95.2577 42.9526 94.7968 42.9526 94.4368C42.9526 94.0767 43.2119 93.9615 43.5143 94.1631C43.8168 94.3648 44.076 94.8256 44.076 95.1857Z" fill="#2ED8CF"/>
<path d="M45.9914 96.4674C45.9914 96.8275 45.7322 96.9427 45.4297 96.741C45.1273 96.5394 44.868 96.0786 44.868 95.7185C44.868 95.3585 45.1273 95.2433 45.4297 95.4449C45.7322 95.6465 45.9914 96.1074 45.9914 96.4674Z" fill="#2ED8CF"/>
<path d="M47.9069 97.7348C47.9069 98.0948 47.6476 98.21 47.3452 98.0084C47.0283 97.8068 46.7835 97.3459 46.7835 96.9859C46.7835 96.6258 47.0427 96.5106 47.3452 96.7122C47.6476 96.9138 47.9069 97.3747 47.9069 97.7348Z" fill="#2ED8CF"/>
<path d="M49.8223 99.0165C49.8223 99.3765 49.5631 99.4917 49.2606 99.2901C48.9438 99.0885 48.699 98.6276 48.699 98.2676C48.699 97.9075 48.9582 97.7923 49.2606 97.9939C49.5631 98.1956 49.8223 98.6564 49.8223 99.0165Z" fill="#2ED8CF"/>
<path d="M51.7378 100.284C51.7378 100.644 51.4786 100.759 51.1761 100.557C50.8593 100.356 50.6144 99.895 50.6144 99.5349C50.6144 99.1749 50.8737 99.0597 51.1761 99.2613C51.4786 99.4773 51.7378 99.9238 51.7378 100.284Z" fill="#2ED8CF"/>
<path d="M53.6533 101.566C53.6533 101.926 53.394 102.041 53.0916 101.839C52.7747 101.638 52.5299 101.177 52.5299 100.817C52.5299 100.457 52.7891 100.341 53.0916 100.543C53.394 100.745 53.6533 101.206 53.6533 101.566Z" fill="#2ED8CF"/>
<path d="M55.5687 102.833C55.5687 103.193 55.3094 103.308 55.007 103.107C54.6901 102.905 54.4453 102.444 54.4453 102.084C54.4453 101.724 54.7045 101.609 55.007 101.81C55.3094 102.026 55.5687 102.473 55.5687 102.833Z" fill="#2ED8CF"/>
<path d="M57.4841 104.115C57.4841 104.475 57.2249 104.59 56.9225 104.389C56.6056 104.187 56.3608 103.726 56.3608 103.366C56.3608 103.006 56.62 102.891 56.9225 103.092C57.2249 103.294 57.4841 103.755 57.4841 104.115Z" fill="#2ED8CF"/>
<path d="M59.3996 105.382C59.3996 105.742 59.1404 105.857 58.8379 105.656C58.5211 105.454 58.2762 104.993 58.2762 104.633C58.2762 104.273 58.5355 104.158 58.8379 104.36C59.1404 104.561 59.3996 105.022 59.3996 105.382Z" fill="#2ED8CF"/>
<path d="M34.4987 91.2106C34.4987 91.5706 34.2395 91.6858 33.937 91.4842C33.6202 91.2826 33.3754 90.8217 33.3754 90.4617C33.3754 90.1016 33.6346 89.9864 33.937 90.188C34.2395 90.3897 34.4987 90.8649 34.4987 91.2106Z" fill="#2ED8CF"/>
<path d="M36.4142 92.4923C36.4142 92.8524 36.1549 92.9676 35.8525 92.766C35.5501 92.5643 35.2908 92.1035 35.2908 91.7434C35.2908 91.3834 35.5501 91.2682 35.8525 91.4698C36.1549 91.6714 36.4142 92.1323 36.4142 92.4923Z" fill="#2ED8CF"/>
<path d="M38.3296 93.7743C38.3296 94.1343 38.0704 94.2496 37.768 94.0479C37.4511 93.8463 37.2063 93.3854 37.2063 93.0254C37.2063 92.6654 37.4655 92.5501 37.768 92.7518C38.0704 92.9534 38.3296 93.4143 38.3296 93.7743Z" fill="#2ED8CF"/>
<path d="M40.2451 95.0416C40.2451 95.4017 39.9858 95.5169 39.6834 95.3153C39.3665 95.1136 39.1217 94.6528 39.1217 94.2927C39.1217 93.9327 39.3809 93.8175 39.6834 94.0191C39.9858 94.2207 40.2451 94.6816 40.2451 95.0416Z" fill="#2ED8CF"/>
<path d="M42.1605 96.3234C42.1605 96.6834 41.9013 96.7986 41.5988 96.597C41.282 96.3954 41.0372 95.9345 41.0372 95.5745C41.0372 95.2144 41.2964 95.0992 41.5988 95.3008C41.9013 95.5025 42.1605 95.9633 42.1605 96.3234Z" fill="#2ED8CF"/>
<path d="M44.076 97.5907C44.076 97.9508 43.8168 98.066 43.5143 97.8643C43.1975 97.6627 42.9526 97.2019 42.9526 96.8418C42.9526 96.4818 43.2119 96.3665 43.5143 96.5682C43.8168 96.7842 44.076 97.2307 44.076 97.5907Z" fill="#2ED8CF"/>
<path d="M45.9914 98.8724C45.9914 99.2325 45.7322 99.3477 45.4297 99.1461C45.1129 98.9445 44.868 98.4836 44.868 98.1235C44.868 97.7635 45.1273 97.6483 45.4297 97.8499C45.7322 98.0515 45.9914 98.5124 45.9914 98.8724Z" fill="#2ED8CF"/>
<path d="M47.9069 100.14C47.9069 100.5 47.6476 100.615 47.3452 100.413C47.0283 100.212 46.7835 99.7509 46.7835 99.3909C46.7835 99.0308 47.0427 98.9156 47.3452 99.1172C47.6476 99.3333 47.9069 99.7797 47.9069 100.14Z" fill="#2ED8CF"/>
<path d="M49.8223 101.422C49.8223 101.782 49.5631 101.897 49.2606 101.695C48.9438 101.494 48.699 101.033 48.699 100.673C48.699 100.313 48.9582 100.197 49.2606 100.399C49.5631 100.601 49.8223 101.061 49.8223 101.422Z" fill="#2ED8CF"/>
<path d="M51.7378 102.689C51.7378 103.049 51.4786 103.164 51.1761 102.963C50.8593 102.761 50.6144 102.3 50.6144 101.94C50.6144 101.58 50.8737 101.465 51.1761 101.667C51.4786 101.883 51.7378 102.329 51.7378 102.689Z" fill="#2ED8CF"/>
<path d="M53.6533 103.971C53.6533 104.331 53.394 104.446 53.0916 104.244C52.7747 104.043 52.5299 103.582 52.5299 103.222C52.5299 102.862 52.7891 102.747 53.0916 102.948C53.394 103.15 53.6533 103.611 53.6533 103.971Z" fill="#2ED8CF"/>
<path d="M55.5687 105.238C55.5687 105.598 55.3094 105.713 55.007 105.512C54.6901 105.31 54.4453 104.849 54.4453 104.489C54.4453 104.129 54.7045 104.014 55.007 104.216C55.3094 104.432 55.5687 104.878 55.5687 105.238Z" fill="#2ED8CF"/>
<path d="M57.4841 106.52C57.4841 106.88 57.2249 106.995 56.9225 106.794C56.6056 106.592 56.3608 106.131 56.3608 105.771C56.3608 105.411 56.62 105.296 56.9225 105.497C57.2249 105.699 57.4841 106.16 57.4841 106.52Z" fill="#2ED8CF"/>
<path d="M59.3996 107.787C59.3996 108.147 59.1404 108.263 58.8379 108.061C58.5211 107.859 58.2762 107.398 58.2762 107.038C58.2762 106.678 58.5355 106.563 58.8379 106.765C59.1404 106.981 59.3996 107.427 59.3996 107.787Z" fill="#2ED8CF"/>
<path d="M34.4987 93.6303C34.4987 93.9903 34.2395 94.1055 33.937 93.9039C33.6202 93.7023 33.3754 93.2414 33.3754 92.8814C33.3754 92.5213 33.6346 92.4061 33.937 92.6077C34.2395 92.8093 34.4987 93.2702 34.4987 93.6303Z" fill="#2ED8CF"/>
<path d="M36.4142 94.8976C36.4142 95.2576 36.1549 95.3729 35.8525 95.1712C35.5357 94.9696 35.2908 94.5087 35.2908 94.1487C35.2908 93.7886 35.5501 93.6734 35.8525 93.8751C36.1549 94.0911 36.4142 94.5375 36.4142 94.8976Z" fill="#2ED8CF"/>
<path d="M38.3296 96.1793C38.3296 96.5394 38.0704 96.6546 37.768 96.453C37.4511 96.2513 37.2063 95.7905 37.2063 95.4304C37.2063 95.0704 37.4655 94.9552 37.768 95.1568C38.0704 95.3584 38.3296 95.8193 38.3296 96.1793Z" fill="#2ED8CF"/>
<path d="M40.2451 97.4467C40.2451 97.8067 39.9858 97.9219 39.6834 97.7203C39.3665 97.5187 39.1217 97.0578 39.1217 96.6978C39.1217 96.3377 39.3809 96.2225 39.6834 96.4241C39.9858 96.6402 40.2451 97.0866 40.2451 97.4467Z" fill="#2ED8CF"/>
<path d="M42.1605 98.7284C42.1605 99.0884 41.9013 99.2037 41.5988 99.002C41.282 98.8004 41.0372 98.3395 41.0372 97.9795C41.0372 97.6195 41.2964 97.5042 41.5988 97.7059C41.9013 97.9075 42.1605 98.3683 42.1605 98.7284Z" fill="#2ED8CF"/>
<path d="M44.076 99.9957C44.076 100.356 43.8168 100.471 43.5143 100.269C43.1975 100.068 42.9526 99.6069 42.9526 99.2468C42.9526 98.8868 43.2119 98.7716 43.5143 98.9732C43.8168 99.1892 44.076 99.6357 44.076 99.9957Z" fill="#2ED8CF"/>
<path d="M45.9914 101.277C45.9914 101.638 45.7322 101.753 45.4297 101.551C45.1129 101.349 44.868 100.889 44.868 100.529C44.868 100.169 45.1273 100.053 45.4297 100.255C45.7322 100.457 45.9914 100.917 45.9914 101.277Z" fill="#2ED8CF"/>
<path d="M47.9069 102.545C47.9069 102.905 47.6476 103.02 47.3452 102.819C47.0283 102.617 46.7835 102.156 46.7835 101.796C46.7835 101.436 47.0427 101.321 47.3452 101.523C47.6476 101.739 47.9069 102.185 47.9069 102.545Z" fill="#2ED8CF"/>
<path d="M49.8223 103.827C49.8223 104.187 49.5631 104.302 49.2606 104.1C48.9438 103.899 48.699 103.438 48.699 103.078C48.699 102.718 48.9582 102.603 49.2606 102.804C49.5631 103.006 49.8223 103.467 49.8223 103.827Z" fill="#2ED8CF"/>
<path d="M51.7378 105.094C51.7378 105.454 51.4786 105.569 51.1761 105.368C50.8593 105.166 50.6144 104.705 50.6144 104.345C50.6144 103.985 50.8737 103.87 51.1761 104.072C51.4786 104.273 51.7378 104.734 51.7378 105.094Z" fill="#2ED8CF"/>
<path d="M53.6533 106.376C53.6533 106.736 53.394 106.851 53.0916 106.649C52.7891 106.448 52.5299 105.987 52.5299 105.627C52.5299 105.267 52.7891 105.152 53.0916 105.353C53.394 105.555 53.6533 106.016 53.6533 106.376Z" fill="#2ED8CF"/>
<path d="M55.5687 107.643C55.5687 108.003 55.3094 108.118 55.007 107.917C54.6901 107.715 54.4453 107.254 54.4453 106.894C54.4453 106.534 54.7045 106.419 55.007 106.621C55.3094 106.837 55.5687 107.298 55.5687 107.643Z" fill="#2ED8CF"/>
<path d="M57.4841 108.925C57.4841 109.285 57.2249 109.4 56.9225 109.199C56.6056 108.997 56.3608 108.536 56.3608 108.176C56.3608 107.816 56.62 107.701 56.9225 107.902C57.2249 108.104 57.4841 108.565 57.4841 108.925Z" fill="#2ED8CF"/>
<path d="M59.3996 110.192C59.3996 110.552 59.1404 110.668 58.8379 110.466C58.5355 110.264 58.2762 109.803 58.2762 109.443C58.2762 109.083 58.5355 108.968 58.8379 109.17C59.1404 109.386 59.3996 109.847 59.3996 110.192Z" fill="#2ED8CF"/>
<path d="M34.4987 96.0353C34.4987 96.3953 34.2395 96.5105 33.937 96.3089C33.6346 96.1073 33.3754 95.6464 33.3754 95.2864C33.3754 94.9263 33.6346 94.8111 33.937 95.0127C34.2395 95.2144 34.4987 95.6752 34.4987 96.0353Z" fill="#2ED8CF"/>
<path d="M36.4142 97.3026C36.4142 97.6627 36.1549 97.7779 35.8525 97.5763C35.5357 97.3746 35.2908 96.9138 35.2908 96.5537C35.2908 96.1937 35.5501 96.0785 35.8525 96.2801C36.1549 96.4817 36.4142 96.9426 36.4142 97.3026Z" fill="#2ED8CF"/>
<path d="M38.3296 98.5844C38.3296 98.9444 38.0704 99.0596 37.768 98.858C37.4511 98.6564 37.2063 98.1955 37.2063 97.8355C37.2063 97.4754 37.4655 97.3602 37.768 97.5618C38.0704 97.7634 38.3296 98.2243 38.3296 98.5844Z" fill="#2ED8CF"/>
<path d="M40.2451 99.8517C40.2451 100.212 39.9858 100.327 39.6834 100.125C39.3665 99.9237 39.1217 99.4628 39.1217 99.1028C39.1217 98.7427 39.3809 98.6275 39.6834 98.8292C39.9858 99.0452 40.2451 99.4916 40.2451 99.8517Z" fill="#2ED8CF"/>
<path d="M42.1605 101.134C42.1605 101.494 41.9013 101.609 41.5988 101.407C41.282 101.206 41.0372 100.745 41.0372 100.385C41.0372 100.025 41.2964 99.9095 41.5988 100.111C41.9013 100.313 42.1605 100.774 42.1605 101.134Z" fill="#2ED8CF"/>
<path d="M44.076 102.401C44.076 102.761 43.8168 102.876 43.5143 102.675C43.1975 102.473 42.9526 102.012 42.9526 101.652C42.9526 101.292 43.2119 101.177 43.5143 101.378C43.8168 101.594 44.076 102.041 44.076 102.401Z" fill="#2ED8CF"/>
<path d="M45.9914 103.683C45.9914 104.043 45.7322 104.158 45.4297 103.956C45.1273 103.755 44.868 103.294 44.868 102.934C44.868 102.574 45.1273 102.459 45.4297 102.66C45.7322 102.862 45.9914 103.323 45.9914 103.683Z" fill="#2ED8CF"/>
<path d="M47.9069 104.95C47.9069 105.31 47.6476 105.425 47.3452 105.224C47.0283 105.022 46.7835 104.561 46.7835 104.201C46.7835 103.841 47.0427 103.726 47.3452 103.928C47.6476 104.144 47.9069 104.59 47.9069 104.95Z" fill="#2ED8CF"/>
<path d="M49.8223 106.232C49.8223 106.592 49.5631 106.707 49.2606 106.505C48.9438 106.304 48.699 105.843 48.699 105.483C48.699 105.123 48.9582 105.008 49.2606 105.209C49.5631 105.411 49.8223 105.872 49.8223 106.232Z" fill="#2ED8CF"/>
<path d="M51.7378 107.499C51.7378 107.859 51.4786 107.974 51.1761 107.773C50.8593 107.571 50.6144 107.11 50.6144 106.75C50.6144 106.39 50.8737 106.275 51.1761 106.477C51.4786 106.693 51.7378 107.154 51.7378 107.499Z" fill="#2ED8CF"/>
<path d="M53.6533 108.781C53.6533 109.141 53.394 109.256 53.0916 109.055C52.7747 108.853 52.5299 108.392 52.5299 108.032C52.5299 107.672 52.7891 107.557 53.0916 107.758C53.394 107.96 53.6533 108.421 53.6533 108.781Z" fill="#2ED8CF"/>
<path d="M55.5687 110.048C55.5687 110.408 55.3094 110.523 55.007 110.322C54.6901 110.12 54.4453 109.659 54.4453 109.299C54.4453 108.939 54.7045 108.824 55.007 109.026C55.3094 109.242 55.5687 109.703 55.5687 110.048Z" fill="#2ED8CF"/>
<path d="M57.4841 111.33C57.4841 111.69 57.2249 111.805 56.9225 111.604C56.6056 111.402 56.3608 110.941 56.3608 110.581C56.3608 110.221 56.62 110.106 56.9225 110.308C57.2249 110.509 57.4841 110.97 57.4841 111.33Z" fill="#2ED8CF"/>
<path d="M59.3996 112.598C59.3996 112.958 59.1404 113.073 58.8379 112.871C58.5211 112.67 58.2762 112.209 58.2762 111.849C58.2762 111.489 58.5355 111.373 58.8379 111.575C59.1404 111.791 59.3996 112.252 59.3996 112.598Z" fill="#2ED8CF"/>
<path d="M34.4987 98.4403C34.4987 98.8004 34.2395 98.9156 33.937 98.7139C33.6202 98.5123 33.3754 98.0515 33.3754 97.6914C33.3754 97.3314 33.6346 97.2162 33.937 97.4178C34.2395 97.6194 34.4987 98.0803 34.4987 98.4403Z" fill="#2ED8CF"/>
<path d="M36.4142 99.7079C36.4142 100.068 36.1549 100.183 35.8525 99.9815C35.5501 99.7799 35.2908 99.319 35.2908 98.959C35.2908 98.5989 35.5501 98.4837 35.8525 98.6854C36.1549 98.9014 36.4142 99.3478 36.4142 99.7079Z" fill="#2ED8CF"/>
<path d="M38.3296 100.99C38.3296 101.35 38.0704 101.465 37.768 101.263C37.4511 101.062 37.2063 100.601 37.2063 100.241C37.2063 99.8807 37.4655 99.7655 37.768 99.9671C38.0704 100.169 38.3296 100.63 38.3296 100.99Z" fill="#2ED8CF"/>
<path d="M40.2451 102.257C40.2451 102.617 39.9858 102.732 39.6834 102.531C39.3665 102.329 39.1217 101.868 39.1217 101.508C39.1217 101.148 39.3809 101.033 39.6834 101.234C39.9858 101.45 40.2451 101.897 40.2451 102.257Z" fill="#2ED8CF"/>
<path d="M42.1605 103.539C42.1605 103.899 41.9013 104.014 41.5988 103.812C41.282 103.611 41.0372 103.15 41.0372 102.79C41.0372 102.43 41.2964 102.315 41.5988 102.516C41.9013 102.718 42.1605 103.179 42.1605 103.539Z" fill="#2ED8CF"/>
<path d="M44.076 104.806C44.076 105.166 43.8168 105.281 43.5143 105.08C43.1975 104.878 42.9526 104.417 42.9526 104.057C42.9526 103.697 43.2119 103.582 43.5143 103.784C43.8168 104 44.076 104.46 44.076 104.806Z" fill="#2ED8CF"/>
<path d="M45.9914 106.088C45.9914 106.448 45.7322 106.563 45.4297 106.361C45.1129 106.16 44.868 105.699 44.868 105.339C44.868 104.979 45.1273 104.864 45.4297 105.065C45.7322 105.267 45.9914 105.728 45.9914 106.088Z" fill="#2ED8CF"/>
<path d="M47.9069 107.355C47.9069 107.715 47.6476 107.83 47.3452 107.629C47.0283 107.427 46.7835 106.966 46.7835 106.606C46.7835 106.246 47.0427 106.131 47.3452 106.333C47.6476 106.549 47.9069 107.009 47.9069 107.355Z" fill="#2ED8CF"/>
<path d="M49.8223 108.637C49.8223 108.997 49.5631 109.112 49.2606 108.911C48.9438 108.709 48.699 108.248 48.699 107.888C48.699 107.528 48.9582 107.413 49.2606 107.615C49.5631 107.816 49.8223 108.277 49.8223 108.637Z" fill="#2ED8CF"/>
<path d="M51.7378 109.904C51.7378 110.264 51.4786 110.38 51.1761 110.178C50.8737 109.976 50.6144 109.516 50.6144 109.156C50.6144 108.795 50.8737 108.68 51.1761 108.882C51.4786 109.098 51.7378 109.559 51.7378 109.904Z" fill="#2ED8CF"/>
<path d="M53.6533 111.186C53.6533 111.546 53.394 111.661 53.0916 111.46C52.7747 111.258 52.5299 110.797 52.5299 110.437C52.5299 110.077 52.7891 109.962 53.0916 110.164C53.394 110.365 53.6533 110.826 53.6533 111.186Z" fill="#2ED8CF"/>
<path d="M55.5687 112.454C55.5687 112.814 55.3094 112.929 55.007 112.727C54.6901 112.526 54.4453 112.065 54.4453 111.705C54.4453 111.345 54.7045 111.229 55.007 111.431C55.3094 111.647 55.5687 112.108 55.5687 112.454Z" fill="#2ED8CF"/>
<path d="M57.4841 113.735C57.4841 114.095 57.2249 114.21 56.9225 114.009C56.6056 113.807 56.3608 113.346 56.3608 112.986C56.3608 112.626 56.62 112.511 56.9225 112.713C57.2249 112.914 57.4841 113.375 57.4841 113.735Z" fill="#2ED8CF"/>
<path d="M59.3996 115.003C59.3996 115.363 59.1404 115.478 58.8379 115.276C58.5211 115.075 58.2762 114.614 58.2762 114.254C58.2762 113.894 58.5355 113.778 58.8379 113.98C59.1404 114.182 59.3996 114.657 59.3996 115.003Z" fill="#2ED8CF"/>
<path d="M34.4987 100.846C34.4987 101.206 34.2395 101.321 33.937 101.119C33.6202 100.918 33.3754 100.457 33.3754 100.097C33.3754 99.7366 33.6346 99.6214 33.937 99.8231C34.2395 100.025 34.4987 100.486 34.4987 100.846Z" fill="#2ED8CF"/>
<path d="M36.4142 102.113C36.4142 102.473 36.1549 102.588 35.8525 102.387C35.5357 102.185 35.2908 101.724 35.2908 101.364C35.2908 101.004 35.5501 100.889 35.8525 101.09C36.1549 101.306 36.4142 101.767 36.4142 102.113Z" fill="#2ED8CF"/>
<path d="M38.3296 103.395C38.3296 103.755 38.0704 103.87 37.768 103.668C37.4511 103.467 37.2063 103.006 37.2063 102.646C37.2063 102.286 37.4655 102.17 37.768 102.372C38.0704 102.574 38.3296 103.035 38.3296 103.395Z" fill="#2ED8CF"/>
<path d="M40.2451 104.662C40.2451 105.022 39.9858 105.137 39.6834 104.936C39.3665 104.734 39.1217 104.273 39.1217 103.913C39.1217 103.553 39.3809 103.438 39.6834 103.639C39.9858 103.855 40.2451 104.316 40.2451 104.662Z" fill="#2ED8CF"/>
<path d="M42.1605 105.944C42.1605 106.304 41.9013 106.419 41.5988 106.217C41.282 106.016 41.0372 105.555 41.0372 105.195C41.0372 104.835 41.2964 104.72 41.5988 104.921C41.9013 105.123 42.1605 105.584 42.1605 105.944Z" fill="#2ED8CF"/>
<path d="M44.076 107.211C44.076 107.571 43.8168 107.686 43.5143 107.485C43.1975 107.283 42.9526 106.822 42.9526 106.462C42.9526 106.102 43.2119 105.987 43.5143 106.189C43.8168 106.405 44.076 106.865 44.076 107.211Z" fill="#2ED8CF"/>
<path d="M45.9914 108.493C45.9914 108.853 45.7322 108.968 45.4297 108.767C45.1129 108.565 44.868 108.104 44.868 107.744C44.868 107.384 45.1273 107.269 45.4297 107.471C45.7322 107.672 45.9914 108.133 45.9914 108.493Z" fill="#2ED8CF"/>
<path d="M47.9069 109.76C47.9069 110.12 47.6476 110.236 47.3452 110.034C47.0283 109.832 46.7835 109.372 46.7835 109.011C46.7835 108.651 47.0427 108.536 47.3452 108.738C47.6476 108.954 47.9069 109.415 47.9069 109.76Z" fill="#2ED8CF"/>
<path d="M49.8223 111.042C49.8223 111.402 49.5631 111.517 49.2606 111.316C48.9438 111.114 48.699 110.653 48.699 110.293C48.699 109.933 48.9582 109.818 49.2606 110.02C49.5631 110.221 49.8223 110.682 49.8223 111.042Z" fill="#2ED8CF"/>
<path d="M51.7378 112.309C51.7378 112.67 51.4786 112.785 51.1761 112.583C50.8593 112.381 50.6144 111.921 50.6144 111.561C50.6144 111.201 50.8737 111.085 51.1761 111.287C51.4786 111.489 51.7378 111.964 51.7378 112.309Z" fill="#2ED8CF"/>
<path d="M53.6533 113.591C53.6533 113.951 53.394 114.066 53.0916 113.865C52.7891 113.663 52.5299 113.202 52.5299 112.842C52.5299 112.482 52.7891 112.367 53.0916 112.569C53.394 112.77 53.6533 113.231 53.6533 113.591Z" fill="#2ED8CF"/>
<path d="M55.5687 114.873C55.5687 115.233 55.3094 115.348 55.007 115.147C54.6901 114.945 54.4453 114.484 54.4453 114.124C54.4453 113.764 54.7045 113.649 55.007 113.85C55.3094 114.052 55.5687 114.513 55.5687 114.873Z" fill="#2ED8CF"/>
<path d="M57.4841 116.14C57.4841 116.5 57.2249 116.616 56.9225 116.414C56.6056 116.212 56.3608 115.751 56.3608 115.391C56.3608 115.031 56.62 114.916 56.9225 115.118C57.2249 115.319 57.4841 115.78 57.4841 116.14Z" fill="#2ED8CF"/>
<path d="M59.3996 117.422C59.3996 117.782 59.1404 117.897 58.8379 117.696C58.5355 117.494 58.2762 117.033 58.2762 116.673C58.2762 116.313 58.5355 116.198 58.8379 116.399C59.1404 116.601 59.3996 117.062 59.3996 117.422Z" fill="#2ED8CF"/>
<path d="M34.4987 103.251C34.4987 103.611 34.2395 103.726 33.937 103.524C33.6346 103.323 33.3754 102.862 33.3754 102.502C33.3754 102.142 33.6346 102.026 33.937 102.228C34.2395 102.43 34.4987 102.891 34.4987 103.251Z" fill="#2ED8CF"/>
<path d="M36.4142 104.518C36.4142 104.878 36.1549 104.993 35.8525 104.792C35.5357 104.59 35.2908 104.129 35.2908 103.769C35.2908 103.409 35.5501 103.294 35.8525 103.495C36.1549 103.697 36.4142 104.172 36.4142 104.518Z" fill="#2ED8CF"/>
<path d="M38.3296 105.8C38.3296 106.16 38.0704 106.275 37.768 106.073C37.4511 105.872 37.2063 105.411 37.2063 105.051C37.2063 104.691 37.4655 104.576 37.768 104.777C38.0704 104.979 38.3296 105.44 38.3296 105.8Z" fill="#2ED8CF"/>
<path d="M40.2451 107.067C40.2451 107.427 39.9858 107.543 39.6834 107.341C39.3665 107.139 39.1217 106.678 39.1217 106.318C39.1217 105.958 39.3809 105.843 39.6834 106.045C39.9858 106.261 40.2451 106.722 40.2451 107.067Z" fill="#2ED8CF"/>
<path d="M42.1605 108.349C42.1605 108.709 41.9013 108.824 41.5988 108.623C41.282 108.421 41.0372 107.96 41.0372 107.6C41.0372 107.24 41.2964 107.125 41.5988 107.326C41.9013 107.528 42.1605 107.989 42.1605 108.349Z" fill="#2ED8CF"/>
<path d="M44.076 109.616C44.076 109.976 43.8168 110.092 43.5143 109.89C43.1975 109.688 42.9526 109.227 42.9526 108.867C42.9526 108.507 43.2119 108.392 43.5143 108.594C43.8168 108.81 44.076 109.271 44.076 109.616Z" fill="#2ED8CF"/>
<path d="M45.9914 110.898C45.9914 111.258 45.7322 111.373 45.4297 111.172C45.1129 110.97 44.868 110.509 44.868 110.149C44.868 109.789 45.1273 109.674 45.4297 109.876C45.7322 110.077 45.9914 110.538 45.9914 110.898Z" fill="#2ED8CF"/>
<path d="M47.9069 112.18C47.9069 112.54 47.6476 112.655 47.3452 112.453C47.0283 112.252 46.7835 111.791 46.7835 111.431C46.7835 111.071 47.0427 110.956 47.3452 111.157C47.6476 111.359 47.9069 111.82 47.9069 112.18Z" fill="#2ED8CF"/>
<path d="M49.8223 113.447C49.8223 113.807 49.5631 113.922 49.2606 113.721C48.9582 113.519 48.699 113.058 48.699 112.698C48.699 112.338 48.9582 112.223 49.2606 112.425C49.5631 112.626 49.8223 113.087 49.8223 113.447Z" fill="#2ED8CF"/>
<path d="M51.7378 114.729C51.7378 115.089 51.4786 115.204 51.1761 115.003C50.8593 114.801 50.6144 114.34 50.6144 113.98C50.6144 113.62 50.8737 113.505 51.1761 113.706C51.4786 113.908 51.7378 114.369 51.7378 114.729Z" fill="#2ED8CF"/>
<path d="M53.6533 115.996C53.6533 116.356 53.394 116.471 53.0916 116.27C52.7747 116.068 52.5299 115.607 52.5299 115.247C52.5299 114.887 52.7891 114.772 53.0916 114.974C53.394 115.175 53.6533 115.636 53.6533 115.996Z" fill="#2ED8CF"/>
<path d="M55.5687 117.278C55.5687 117.638 55.3094 117.753 55.007 117.552C54.6901 117.35 54.4453 116.889 54.4453 116.529C54.4453 116.169 54.7045 116.054 55.007 116.256C55.3094 116.457 55.5687 116.918 55.5687 117.278Z" fill="#2ED8CF"/>
<path d="M57.4841 118.546C57.4841 118.906 57.2249 119.021 56.9225 118.819C56.6056 118.618 56.3608 118.157 56.3608 117.797C56.3608 117.437 56.62 117.321 56.9225 117.523C57.2249 117.739 57.4841 118.185 57.4841 118.546Z" fill="#2ED8CF"/>
<path d="M59.3996 119.827C59.3996 120.187 59.1404 120.303 58.8379 120.101C58.5211 119.899 58.2762 119.438 58.2762 119.078C58.2762 118.718 58.5355 118.603 58.8379 118.805C59.1404 119.006 59.3996 119.467 59.3996 119.827Z" fill="#2ED8CF"/>
<path d="M34.4987 105.656C34.4987 106.016 34.2395 106.131 33.937 105.929C33.6202 105.728 33.3754 105.267 33.3754 104.907C33.3754 104.547 33.6346 104.431 33.937 104.633C34.2395 104.835 34.4987 105.296 34.4987 105.656Z" fill="#2ED8CF"/>
<path d="M36.4142 106.923C36.4142 107.283 36.1549 107.398 35.8525 107.197C35.5501 106.995 35.2908 106.534 35.2908 106.174C35.2908 105.814 35.5501 105.699 35.8525 105.901C36.1549 106.117 36.4142 106.578 36.4142 106.923Z" fill="#2ED8CF"/>
<path d="M38.3296 108.205C38.3296 108.565 38.0704 108.68 37.768 108.479C37.4511 108.277 37.2063 107.816 37.2063 107.456C37.2063 107.096 37.4655 106.981 37.768 107.182C38.0704 107.384 38.3296 107.845 38.3296 108.205Z" fill="#2ED8CF"/>
<path d="M40.2451 109.487C40.2451 109.847 39.9858 109.962 39.6834 109.76C39.3665 109.559 39.1217 109.098 39.1217 108.738C39.1217 108.378 39.3809 108.263 39.6834 108.464C39.9858 108.666 40.2451 109.127 40.2451 109.487Z" fill="#2ED8CF"/>
<path d="M42.1605 110.754C42.1605 111.114 41.9013 111.229 41.5988 111.028C41.282 110.826 41.0372 110.365 41.0372 110.005C41.0372 109.645 41.2964 109.53 41.5988 109.731C41.9013 109.933 42.1605 110.394 42.1605 110.754Z" fill="#2ED8CF"/>
<path d="M44.076 112.036C44.076 112.396 43.8168 112.511 43.5143 112.309C43.1975 112.108 42.9526 111.647 42.9526 111.287C42.9526 110.927 43.2119 110.812 43.5143 111.013C43.8168 111.215 44.076 111.676 44.076 112.036Z" fill="#2ED8CF"/>
<path d="M45.9914 113.303C45.9914 113.663 45.7322 113.778 45.4297 113.577C45.1273 113.375 44.868 112.914 44.868 112.554C44.868 112.194 45.1273 112.079 45.4297 112.281C45.7322 112.482 45.9914 112.943 45.9914 113.303Z" fill="#2ED8CF"/>
<path d="M47.9069 114.585C47.9069 114.945 47.6476 115.06 47.3452 114.858C47.0283 114.657 46.7835 114.196 46.7835 113.836C46.7835 113.476 47.0427 113.361 47.3452 113.562C47.6476 113.764 47.9069 114.225 47.9069 114.585Z" fill="#2ED8CF"/>
<path d="M49.8223 115.852C49.8223 116.212 49.5631 116.328 49.2606 116.126C48.9438 115.924 48.699 115.464 48.699 115.104C48.699 114.743 48.9582 114.628 49.2606 114.83C49.5631 115.032 49.8223 115.492 49.8223 115.852Z" fill="#2ED8CF"/>
<path d="M51.7378 117.134C51.7378 117.494 51.4786 117.609 51.1761 117.408C50.8737 117.206 50.6144 116.745 50.6144 116.385C50.6144 116.025 50.8737 115.91 51.1761 116.112C51.4786 116.313 51.7378 116.774 51.7378 117.134Z" fill="#2ED8CF"/>
<path d="M53.6533 118.401C53.6533 118.762 53.394 118.877 53.0916 118.675C52.7747 118.474 52.5299 118.013 52.5299 117.653C52.5299 117.293 52.7891 117.177 53.0916 117.379C53.394 117.595 53.6533 118.041 53.6533 118.401Z" fill="#2ED8CF"/>
<path d="M55.5687 119.683C55.5687 120.043 55.3094 120.158 55.007 119.957C54.6901 119.755 54.4453 119.294 54.4453 118.934C54.4453 118.574 54.7045 118.459 55.007 118.661C55.3094 118.862 55.5687 119.323 55.5687 119.683Z" fill="#2ED8CF"/>
<path d="M57.4841 120.951C57.4841 121.311 57.2249 121.426 56.9225 121.224C56.6056 121.023 56.3608 120.562 56.3608 120.202C56.3608 119.842 56.62 119.726 56.9225 119.928C57.2249 120.144 57.4841 120.591 57.4841 120.951Z" fill="#2ED8CF"/>
<path d="M59.3996 122.232C59.3996 122.592 59.1404 122.708 58.8379 122.506C58.5211 122.304 58.2762 121.843 58.2762 121.483C58.2762 121.123 58.5355 121.008 58.8379 121.21C59.1404 121.411 59.3996 121.872 59.3996 122.232Z" fill="#2ED8CF"/>
<path d="M34.4987 108.061C34.4987 108.421 34.2395 108.536 33.937 108.335C33.6202 108.133 33.3754 107.672 33.3754 107.312C33.3754 106.952 33.6346 106.837 33.937 107.038C34.2395 107.24 34.4987 107.701 34.4987 108.061Z" fill="#2ED8CF"/>
<path d="M36.4142 109.343C36.4142 109.703 36.1549 109.818 35.8525 109.616C35.5357 109.415 35.2908 108.954 35.2908 108.594C35.2908 108.234 35.5501 108.118 35.8525 108.32C36.1549 108.522 36.4142 108.983 36.4142 109.343Z" fill="#2ED8CF"/>
<path d="M38.3296 110.61C38.3296 110.97 38.0704 111.085 37.768 110.884C37.4511 110.682 37.2063 110.221 37.2063 109.861C37.2063 109.501 37.4655 109.386 37.768 109.587C38.0704 109.789 38.3296 110.25 38.3296 110.61Z" fill="#2ED8CF"/>
<path d="M40.2451 111.892C40.2451 112.252 39.9858 112.367 39.6834 112.165C39.3665 111.964 39.1217 111.503 39.1217 111.143C39.1217 110.783 39.3809 110.668 39.6834 110.869C39.9858 111.071 40.2451 111.532 40.2451 111.892Z" fill="#2ED8CF"/>
<path d="M42.1605 113.159C42.1605 113.519 41.9013 113.634 41.5988 113.433C41.282 113.231 41.0372 112.77 41.0372 112.41C41.0372 112.05 41.2964 111.935 41.5988 112.137C41.9013 112.353 42.1605 112.799 42.1605 113.159Z" fill="#2ED8CF"/>
<path d="M44.076 114.441C44.076 114.801 43.8168 114.916 43.5143 114.714C43.1975 114.513 42.9526 114.052 42.9526 113.692C42.9526 113.332 43.2119 113.217 43.5143 113.418C43.8168 113.62 44.076 114.081 44.076 114.441Z" fill="#2ED8CF"/>
<path d="M45.9914 115.708C45.9914 116.068 45.7322 116.184 45.4297 115.982C45.1129 115.78 44.868 115.32 44.868 114.959C44.868 114.599 45.1273 114.484 45.4297 114.686C45.7322 114.887 45.9914 115.348 45.9914 115.708Z" fill="#2ED8CF"/>
<path d="M47.9069 116.99C47.9069 117.35 47.6476 117.465 47.3452 117.264C47.0283 117.062 46.7835 116.601 46.7835 116.241C46.7835 115.881 47.0427 115.766 47.3452 115.968C47.6476 116.169 47.9069 116.63 47.9069 116.99Z" fill="#2ED8CF"/>
<path d="M49.8223 118.257C49.8223 118.618 49.5631 118.733 49.2606 118.531C48.9438 118.329 48.699 117.869 48.699 117.509C48.699 117.149 48.9582 117.033 49.2606 117.235C49.5631 117.451 49.8223 117.897 49.8223 118.257Z" fill="#2ED8CF"/>
<path d="M51.7378 119.539C51.7378 119.899 51.4786 120.014 51.1761 119.813C50.8593 119.611 50.6144 119.15 50.6144 118.79C50.6144 118.43 50.8737 118.315 51.1761 118.517C51.4786 118.718 51.7378 119.179 51.7378 119.539Z" fill="#2ED8CF"/>
<path d="M53.6533 120.807C53.6533 121.167 53.394 121.282 53.0916 121.08C52.7891 120.879 52.5299 120.418 52.5299 120.058C52.5299 119.698 52.7891 119.582 53.0916 119.784C53.394 120 53.6533 120.446 53.6533 120.807Z" fill="#2ED8CF"/>
<path d="M55.5687 122.088C55.5687 122.448 55.3094 122.564 55.007 122.362C54.6901 122.16 54.4453 121.699 54.4453 121.339C54.4453 120.979 54.7045 120.864 55.007 121.066C55.3094 121.267 55.5687 121.728 55.5687 122.088Z" fill="#2ED8CF"/>
<path d="M57.4841 123.356C57.4841 123.716 57.2249 123.831 56.9225 123.629C56.6056 123.428 56.3608 122.967 56.3608 122.607C56.3608 122.247 56.62 122.131 56.9225 122.333C57.2249 122.549 57.4841 122.996 57.4841 123.356Z" fill="#2ED8CF"/>
<path d="M59.3996 124.638C59.3996 124.998 59.1404 125.113 58.8379 124.911C58.5355 124.71 58.2762 124.249 58.2762 123.889C58.2762 123.529 58.5355 123.413 58.8379 123.615C59.1404 123.817 59.3996 124.278 59.3996 124.638Z" fill="#2ED8CF"/>
<path d="M61.0252 117.993C60.8523 117.662 60.7659 117.331 60.7659 117.057V108.947C60.7659 108.588 61.021 108.299 61.4731 108.241C61.9252 108.183 62.7842 108.241 63.5182 109.648C63.691 109.979 63.7774 110.311 63.7774 110.584V118.865C63.7774 119.38 62.9374 119.869 62.466 119.66C61.9116 119.413 61.2967 118.525 61.0252 117.993Z" fill="url(#paint5_linear)"/>
<path d="M61.0293 118.205C60.8564 117.874 60.77 117.543 60.77 117.269V108.988C60.77 107.908 62.1238 108.455 62.8151 109.823C62.9879 110.155 63.0743 110.486 63.0743 110.759V119.041C63.0743 120.121 61.7205 119.559 61.0293 118.205Z" fill="url(#paint6_linear)"/>
<path d="M62.0181 73.3123C61.8453 72.9811 61.7589 72.6498 61.7589 72.3762V64.2662C61.7589 63.9071 62.0139 63.6185 62.466 63.5604C62.9181 63.5022 63.7771 63.5603 64.5111 64.9672C64.6839 65.2984 64.7703 65.6297 64.7703 65.9033V74.1844C64.7703 74.6992 63.9304 75.1882 63.4589 74.9788C62.9045 74.7325 62.2896 73.844 62.0181 73.3123Z" fill="url(#paint7_linear)"/>
<path d="M62.0222 73.5243C61.8494 73.1931 61.763 72.8619 61.763 72.5882V64.3071C61.763 63.227 63.1168 63.7743 63.8081 65.1424C63.9809 65.4737 64.0673 65.8049 64.0673 66.0786V74.3597C64.0673 75.4398 62.7135 74.8781 62.0222 73.5243Z" fill="url(#paint8_linear)"/>
<defs>
<linearGradient id="paint0_linear" x1="30.9787" y1="79.4326" x2="108.426" y2="79.4326" gradientUnits="userSpaceOnUse">
<stop stop-color="#475375"/>
<stop offset="0.2574" stop-color="#333C57"/>
<stop offset="0.3997" stop-color="#2E354E"/>
<stop offset="0.515259" stop-color="#3B4560"/>
<stop offset="0.634166" stop-color="#2C3045"/>
<stop offset="1" stop-color="#2C3045"/>
</linearGradient>
<linearGradient id="paint1_linear" x1="44.6721" y1="36.0254" x2="99.3096" y2="5.11207" gradientUnits="userSpaceOnUse">
<stop stop-color="#545F7C"/>
<stop offset="0.520833" stop-color="#45506D"/>
<stop offset="1" stop-color="#344265"/>
</linearGradient>
<linearGradient id="paint2_linear" x1="44.6721" y1="34.0395" x2="99.3096" y2="3.12623" gradientUnits="userSpaceOnUse">
<stop stop-color="#687599"/>
<stop offset="1" stop-color="#49587E"/>
</linearGradient>
<linearGradient id="paint3_linear" x1="30.9461" y1="101.633" x2="65.2069" y2="105.839" gradientUnits="userSpaceOnUse">
<stop stop-color="#6C7699"/>
<stop offset="1" stop-color="#6A7497"/>
</linearGradient>
<linearGradient id="paint4_linear" x1="31.9253" y1="57.4679" x2="66.2433" y2="62.1755" gradientUnits="userSpaceOnUse">
<stop stop-color="#6C7699"/>
<stop offset="1" stop-color="#6A7497"/>
</linearGradient>
<linearGradient id="paint5_linear" x1="61.4756" y1="113.837" x2="63.7793" y2="113.837" gradientUnits="userSpaceOnUse">
<stop offset="0.395833" stop-color="#2E3348"/>
</linearGradient>
<linearGradient id="paint6_linear" x1="60.7725" y1="114.012" x2="63.0762" y2="114.012" gradientUnits="userSpaceOnUse">
<stop stop-color="#8892B5"/>
</linearGradient>
<linearGradient id="paint7_linear" x1="62.4685" y1="69.1558" x2="64.7722" y2="69.1558" gradientUnits="userSpaceOnUse">
<stop offset="0.395833" stop-color="#2E3348"/>
</linearGradient>
<linearGradient id="paint8_linear" x1="61.7655" y1="69.331" x2="64.0692" y2="69.331" gradientUnits="userSpaceOnUse">
<stop stop-color="#8892B5"/>
</linearGradient>
</defs>
</svg>
