<svg width="140" height="140" viewBox="0 0 140 140" fill="none" xmlns="http://www.w3.org/2000/svg">
<path d="M0.0825043 44.6761V76.1659C0.0825043 79.282 1.70979 82.1731 4.35847 83.783L61.4694 121.747C67.4073 125.365 74.8513 125.365 80.7891 121.747L135.65 83.783C138.298 82.1557 139.926 79.2647 139.926 76.1659V45.3686L0.0825043 44.6761Z" fill="url(#paint0_linear)"/>
<path d="M0.0825043 45.3687V76.166C0.0825043 79.2821 1.70979 82.1731 4.35847 83.7831L61.4694 121.747C67.4073 125.366 74.8513 125.366 80.7891 121.747L135.65 83.7831C138.298 82.1558 139.926 79.2647 139.926 76.166V45.3687H0.0825043Z" fill="url(#paint1_linear)"/>
<path d="M137.069 53.3065L81.1527 87.4796C74.9897 91.2362 67.2342 91.2362 61.0712 87.4796L2.02139 51.4022C-0.904265 49.6191 -0.592657 45.2739 2.55805 43.9236L64.7759 17.2984C68.8268 15.5672 73.3971 15.5672 77.4307 17.2984L136.29 42.4867C140.86 44.4256 141.31 50.7097 137.069 53.3065Z" fill="url(#paint2_linear)"/>
<path d="M137.069 51.3065L81.1527 85.4796C74.9897 89.2362 67.2342 89.2362 61.0712 85.4796L2.02139 49.4022C-0.904265 47.6191 -0.592657 43.2739 2.55805 41.9236L64.7759 15.2984C68.8268 13.5672 73.3971 13.5672 77.4307 15.2984L136.29 40.4867C140.86 42.4256 141.31 48.7097 137.069 51.3065Z" fill="url(#paint3_linear)"/>
<path d="M95.2788 97.6871C95.2788 97.5227 95.3596 97.3688 95.4949 97.2755L96.001 96.9265C96.3327 96.6977 96.7849 96.9352 96.7849 97.3381V103.048C96.7849 103.212 96.7041 103.366 96.5688 103.46L96.0627 103.809C95.731 104.037 95.2788 103.8 95.2788 103.397V97.6871ZM98.7411 101.017C98.7411 101.418 99.1898 101.656 99.5218 101.431L100.028 101.088C100.165 100.995 100.247 100.84 100.247 100.674V94.9318C100.247 94.5289 99.795 94.2914 99.4634 94.5202L98.9573 94.8692C98.8219 94.9625 98.7411 95.1164 98.7411 95.2808V101.017ZM102.203 98.6453C102.203 99.0465 102.652 99.2843 102.984 99.0591L103.49 98.7159C103.627 98.6229 103.71 98.4679 103.71 98.3021V92.5255C103.71 92.1225 103.257 91.8851 102.926 92.1139L102.42 92.4629C102.284 92.5562 102.203 92.7101 102.203 92.8745V98.6453ZM105.666 96.2563C105.666 96.6575 106.114 96.8953 106.446 96.6701L106.952 96.3269C107.09 96.2339 107.172 96.0789 107.172 95.9131V90.1018C107.172 89.6989 106.72 89.4615 106.388 89.6902L105.882 90.0393C105.747 90.1326 105.666 90.2865 105.666 90.4509V96.2563ZM109.128 93.9019C109.128 94.3031 109.577 94.5409 109.909 94.3158L110.415 93.9725C110.552 93.8795 110.634 93.7245 110.634 93.5587V87.7128C110.634 87.3099 110.182 87.0725 109.85 87.3012L109.344 87.6503C109.209 87.7436 109.128 87.8975 109.128 88.0619V93.9019ZM112.59 91.5129C112.59 91.9141 113.039 92.1519 113.371 91.9267L113.877 91.5835C114.014 91.4905 114.096 91.3355 114.096 91.1697V85.2892C114.096 84.8863 113.644 84.6489 113.313 84.8776L112.807 85.2266C112.671 85.32 112.59 85.4739 112.59 85.6383V91.5129ZM116.053 89.1586C116.053 89.5597 116.501 89.7975 116.833 89.5724L117.339 89.2292C117.477 89.1361 117.559 88.9811 117.559 88.8153V82.9002C117.559 82.4973 117.107 82.2599 116.775 82.4886L116.269 82.8377C116.134 82.931 116.053 83.0849 116.053 83.2493V89.1586ZM119.515 86.7869C119.515 87.188 119.964 87.4258 120.296 87.2007L120.802 86.8575C120.939 86.7644 121.021 86.6094 121.021 86.4437V80.4939C121.021 80.091 120.569 79.8536 120.237 80.0823L119.731 80.4313C119.596 80.5247 119.515 80.6786 119.515 80.8429V86.7869ZM122.977 84.3979C122.977 84.799 123.426 85.0368 123.758 84.8117L124.264 84.4685C124.401 84.3754 124.483 84.2204 124.483 84.0547V78.0703C124.483 77.6674 124.031 77.4299 123.7 77.6587L123.193 78.0077C123.058 78.101 122.977 78.2549 122.977 78.4193V84.3979ZM126.656 75.5841C126.52 75.6774 126.44 75.8313 126.44 75.9957V82.0089C126.44 82.41 126.888 82.6478 127.22 82.4227L127.726 82.0795C127.864 81.9864 127.946 81.8314 127.946 81.6656V75.6467C127.946 75.2437 127.494 75.0063 127.162 75.2351L126.656 75.5841Z" fill="#131727"/>
<path d="M95.2788 87.4559C95.2788 87.2915 95.3596 87.1376 95.4949 87.0443L96.001 86.6953C96.3327 86.4665 96.7849 86.704 96.7849 87.1069V92.8168C96.7849 92.9812 96.7041 93.135 96.5688 93.2284L96.0627 93.5774C95.731 93.8062 95.2788 93.5687 95.2788 93.1658V87.4559ZM98.7411 90.7858C98.7411 91.1869 99.1898 91.4248 99.5218 91.1996L100.028 90.8564C100.165 90.7633 100.247 90.6084 100.247 90.4426V84.7006C100.247 84.2977 99.795 84.0602 99.4634 84.289L98.9573 84.638C98.8219 84.7313 98.7411 84.8852 98.7411 85.0496V90.7858ZM102.203 88.4141C102.203 88.8153 102.652 89.0531 102.984 88.8279L103.49 88.4847C103.627 88.3917 103.71 88.2367 103.71 88.0709V82.2943C103.71 81.8913 103.257 81.6539 102.926 81.8827L102.42 82.2317C102.284 82.325 102.203 82.4789 102.203 82.6433V88.4141ZM105.666 86.0251C105.666 86.4263 106.114 86.6641 106.446 86.4389L106.952 86.0957C107.09 86.0027 107.172 85.8477 107.172 85.6819V79.8706C107.172 79.4677 106.72 79.2303 106.388 79.459L105.882 79.8081C105.747 79.9014 105.666 80.0553 105.666 80.2197V86.0251ZM109.128 83.6707C109.128 84.0719 109.577 84.3097 109.909 84.0845L110.415 83.7413C110.552 83.6483 110.634 83.4933 110.634 83.3275V77.4816C110.634 77.0787 110.182 76.8413 109.85 77.07L109.344 77.4191C109.209 77.5124 109.128 77.6663 109.128 77.8307V83.6707ZM112.59 81.2817C112.59 81.6829 113.039 81.9207 113.371 81.6956L113.877 81.3523C114.014 81.2593 114.096 81.1043 114.096 80.9385V75.058C114.096 74.6551 113.644 74.4177 113.313 74.6464L112.807 74.9955C112.671 75.0888 112.59 75.2427 112.59 75.4071V81.2817ZM116.053 78.9274C116.053 79.3285 116.501 79.5663 116.833 79.3412L117.339 78.998C117.477 78.9049 117.559 78.7499 117.559 78.5841V72.669C117.559 72.2661 117.107 72.0287 116.775 72.2574L116.269 72.6065C116.134 72.6998 116.053 72.8537 116.053 73.0181V78.9274ZM119.515 76.5557C119.515 76.9568 119.964 77.1946 120.296 76.9695L120.802 76.6263C120.939 76.5332 121.021 76.3782 121.021 76.2124V70.2627C121.021 69.8598 120.569 69.6224 120.237 69.8511L119.731 70.2001C119.596 70.2935 119.515 70.4474 119.515 70.6117V76.5557ZM122.977 74.1667C122.977 74.5678 123.426 74.8056 123.758 74.5805L124.264 74.2373C124.401 74.1442 124.483 73.9892 124.483 73.8235V67.8391C124.483 67.4362 124.031 67.1987 123.7 67.4275L123.193 67.7765C123.058 67.8698 122.977 68.0237 122.977 68.1881V74.1667ZM126.656 65.3529C126.52 65.4462 126.44 65.6001 126.44 65.7645V71.7777C126.44 72.1788 126.888 72.4166 127.22 72.1915L127.726 71.8483C127.864 71.7552 127.946 71.6002 127.946 71.4344V65.4155C127.946 65.0125 127.494 64.7751 127.162 65.0039L126.656 65.3529Z" fill="#131727"/>
<path d="M95 97.2239C95 97.0595 95.0808 96.9056 95.2161 96.8123L95.7222 96.4632C96.0539 96.2345 96.5061 96.4719 96.5061 96.8748V102.585C96.5061 102.749 96.4253 102.903 96.29 102.996L95.7839 103.345C95.4522 103.574 95 103.337 95 102.934V97.2239ZM98.4623 100.554C98.4623 100.955 98.911 101.193 99.243 100.968L99.7491 100.624C99.8863 100.531 99.9684 100.376 99.9684 100.211V94.4685C99.9684 94.0656 99.5162 93.8282 99.1846 94.0569L98.6785 94.406C98.5431 94.4993 98.4623 94.6532 98.4623 94.8176V100.554ZM101.925 98.1821C101.925 98.5832 102.373 98.821 102.705 98.5959L103.211 98.2526C103.349 98.1596 103.431 98.0046 103.431 97.8388V92.0622C103.431 91.6593 102.979 91.4219 102.647 91.6506L102.141 91.9996C102.005 92.093 101.925 92.2469 101.925 92.4112V98.1821ZM105.387 95.7931C105.387 96.1942 105.836 96.432 106.168 96.2069L106.674 95.8637C106.811 95.7706 106.893 95.6156 106.893 95.4498V89.6386C106.893 89.2357 106.441 88.9982 106.109 89.227L105.603 89.576C105.468 89.6693 105.387 89.8232 105.387 89.9876V95.7931ZM108.849 93.4387C108.849 93.8398 109.298 94.0776 109.63 93.8525L110.136 93.5093C110.273 93.4162 110.355 93.2612 110.355 93.0955V87.2496C110.355 86.8467 109.903 86.6092 109.572 86.838L109.065 87.187C108.93 87.2803 108.849 87.4342 108.849 87.5986V93.4387ZM112.312 91.0497C112.312 91.4508 112.76 91.6886 113.092 91.4635L113.598 91.1203C113.736 91.0272 113.818 90.8722 113.818 90.7065V84.826C113.818 84.423 113.366 84.1856 113.034 84.4144L112.528 84.7634C112.392 84.8567 112.312 85.0106 112.312 85.175V91.0497ZM115.774 88.6953C115.774 89.0964 116.223 89.3343 116.555 89.1091L117.061 88.7659C117.198 88.6729 117.28 88.5179 117.28 88.3521V82.437C117.28 82.034 116.828 81.7966 116.496 82.0254L115.99 82.3744C115.855 82.4677 115.774 82.6216 115.774 82.786V88.6953ZM119.236 86.3236C119.236 86.7248 119.685 86.9626 120.017 86.7374L120.523 86.3942C120.66 86.3012 120.742 86.1462 120.742 85.9804V80.0307C120.742 79.6277 120.29 79.3903 119.958 79.619L119.452 79.9681C119.317 80.0614 119.236 80.2153 119.236 80.3797V86.3236ZM122.699 83.9346C122.699 84.3358 123.147 84.5736 123.479 84.3484L123.985 84.0052C124.122 83.9122 124.205 83.7572 124.205 83.5914V77.607C124.205 77.2041 123.752 76.9667 123.421 77.1954L122.915 77.5445C122.779 77.6378 122.699 77.7917 122.699 77.9561V83.9346ZM126.377 75.1208C126.242 75.2142 126.161 75.3681 126.161 75.5324V81.5456C126.161 81.9468 126.609 82.1846 126.941 81.9594L127.448 81.6162C127.585 81.5232 127.667 81.3682 127.667 81.2024V75.1834C127.667 74.7805 127.215 74.543 126.883 74.7718L126.377 75.1208Z" fill="#2FAAAF"/>
<path d="M95 86.9927C95 86.8283 95.0808 86.6744 95.2161 86.5811L95.7222 86.232C96.0539 86.0033 96.5061 86.2407 96.5061 86.6436V92.3535C96.5061 92.5179 96.4253 92.6718 96.29 92.7651L95.7839 93.1142C95.4522 93.3429 95 93.1055 95 92.7025V86.9927ZM98.4623 90.3225C98.4623 90.7237 98.911 90.9615 99.243 90.7364L99.7491 90.3931C99.8863 90.3001 99.9684 90.1451 99.9684 89.9793V84.2373C99.9684 83.8344 99.5162 83.597 99.1846 83.8257L98.6785 84.1747C98.5431 84.2681 98.4623 84.422 98.4623 84.5864V90.3225ZM101.925 87.9508C101.925 88.352 102.373 88.5898 102.705 88.3647L103.211 88.0214C103.349 87.9284 103.431 87.7734 103.431 87.6076V81.831C103.431 81.4281 102.979 81.1906 102.647 81.4194L102.141 81.7684C102.005 81.8618 101.925 82.0157 101.925 82.18V87.9508ZM105.387 85.5619C105.387 85.963 105.836 86.2008 106.168 85.9757L106.674 85.6325C106.811 85.5394 106.893 85.3844 106.893 85.2186V79.4074C106.893 79.0045 106.441 78.767 106.109 78.9958L105.603 79.3448C105.468 79.4381 105.387 79.592 105.387 79.7564V85.5619ZM108.849 83.2075C108.849 83.6086 109.298 83.8464 109.63 83.6213L110.136 83.2781C110.273 83.185 110.355 83.03 110.355 82.8643V77.0184C110.355 76.6155 109.903 76.378 109.572 76.6068L109.065 76.9558C108.93 77.0491 108.849 77.203 108.849 77.3674V83.2075ZM112.312 80.8185C112.312 81.2196 112.76 81.4574 113.092 81.2323L113.598 80.8891C113.736 80.796 113.818 80.641 113.818 80.4753V74.5948C113.818 74.1918 113.366 73.9544 113.034 74.1832L112.528 74.5322C112.392 74.6255 112.312 74.7794 112.312 74.9438V80.8185ZM115.774 78.4641C115.774 78.8652 116.223 79.1031 116.555 78.8779L117.061 78.5347C117.198 78.4417 117.28 78.2867 117.28 78.1209V72.2058C117.28 71.8028 116.828 71.5654 116.496 71.7942L115.99 72.1432C115.855 72.2365 115.774 72.3904 115.774 72.5548V78.4641ZM119.236 76.0924C119.236 76.4936 119.685 76.7314 120.017 76.5062L120.523 76.163C120.66 76.07 120.742 75.915 120.742 75.7492V69.7995C120.742 69.3965 120.29 69.1591 119.958 69.3878L119.452 69.7369C119.317 69.8302 119.236 69.9841 119.236 70.1485V76.0924ZM122.699 73.7034C122.699 74.1046 123.147 74.3424 123.479 74.1172L123.985 73.774C124.122 73.681 124.205 73.526 124.205 73.3602V67.3758C124.205 66.9729 123.752 66.7355 123.421 66.9642L122.915 67.3133C122.779 67.4066 122.699 67.5605 122.699 67.7249V73.7034ZM126.377 64.8896C126.242 64.983 126.161 65.1369 126.161 65.3012V71.3144C126.161 71.7156 126.609 71.9534 126.941 71.7282L127.448 71.385C127.585 71.292 127.667 71.137 127.667 70.9712V64.9522C127.667 64.5493 127.215 64.3118 126.883 64.5406L126.377 64.8896Z" fill="#2FAAAF"/>
<path d="M60.619 118.5L4.13279 80.9703C3.4345 80.5374 3 79.7797 3 78.9601L3.07769 55.9307C3.07769 55.2039 3.88461 54.7555 4.50532 55.1421L61.038 90.0672C61.6432 90.4384 62.0001 91.0878 62.0001 91.7837V117.742C62.0311 118.438 61.2397 118.887 60.619 118.5Z" fill="url(#paint4_linear)"/>
<path d="M52.0814 92.7348V90.8531L48.5771 88.4882V90.3525L47.5069 89.6448V94.8236L53.1517 98.6214V93.4425L52.0814 92.7348Z" fill="#383C52"/>
<path fill-rule="evenodd" clip-rule="evenodd" d="M52.0814 90.8531V91.8531L48.5771 89.4882V88.4882L52.0814 90.8531ZM48.5771 90.3525L47.5069 89.6448V90.6448L48.5771 91.3525V90.3525ZM52.0814 92.7348V93.7348L53.1517 94.4425V93.4425L52.0814 92.7348Z" fill="#8A99CD"/>
<path d="M49.4921 96.17L49.7165 96.3081V93.0282L49.4921 92.8901V96.17Z" fill="#2BD9D0"/>
<path d="M48.7672 95.6871L48.9916 95.8425V92.5453L48.7672 92.3899V95.6871Z" fill="#2BD9D0"/>
<path d="M50.2173 96.6368L50.4417 96.8094V93.5296L50.2173 93.3569V96.6368Z" fill="#2BD9D0"/>
<path d="M50.9422 97.1371L51.1666 97.3097V94.0125L50.9422 93.8572V97.1371Z" fill="#2BD9D0"/>
<path d="M51.6674 94.324V97.6384L51.8919 97.7765V94.4793L51.6674 94.324Z" fill="#2BD9D0"/>
<path d="M52.0814 107.219V109.066L48.5771 106.735V104.871L47.5069 104.146V98.9673L53.1517 102.748V107.909L52.0814 107.219Z" fill="#383C52"/>
<path fill-rule="evenodd" clip-rule="evenodd" d="M52.0814 107.219V106.219L53.1517 106.909V107.909L52.0814 107.219ZM52.0814 108.066V109.066L48.5771 106.736V105.736L52.0814 108.066ZM48.5771 104.871V103.871L47.5069 103.146V104.146L48.5771 104.871Z" fill="#8A99CD"/>
<path d="M49.4921 100.28L49.7165 100.435V103.715L49.4921 103.577V100.28Z" fill="#2BD9D0"/>
<path d="M48.7672 99.8129L48.9916 99.9682V103.248L48.7672 103.076V99.8129Z" fill="#2BD9D0"/>
<path d="M50.2173 100.78L50.4417 100.935V104.198L50.2173 104.06V100.78Z" fill="#2BD9D0"/>
<path d="M50.9422 101.263L51.1666 101.401V104.698L50.9422 104.542V101.263Z" fill="#2BD9D0"/>
<path d="M51.6674 105.009V101.729L51.8919 101.902V105.182L51.6674 105.009Z" fill="#2BD9D0"/>
<path d="M42.7772 86.4519V84.5703L39.2729 82.2225V84.1042L38.2026 83.3619V88.6097L43.8475 92.3902V87.1597L42.7772 86.4519Z" fill="#383C52"/>
<path fill-rule="evenodd" clip-rule="evenodd" d="M42.7772 84.5703V85.5703L39.2729 83.2225V82.2225L42.7772 84.5703ZM39.2729 84.1042V85.1042L38.2026 84.3619V83.3619L39.2729 84.1042ZM42.7772 86.4519V87.4519L43.8475 88.1597V87.1597L42.7772 86.4519Z" fill="#8A99CD"/>
<path d="M40.1878 89.9044L40.4122 90.077V86.7799L40.1878 86.6245V89.9044Z" fill="#2BD9D0"/>
<path d="M39.463 89.4387L39.6874 89.5768V86.2796L39.463 86.1243V89.4387Z" fill="#2BD9D0"/>
<path d="M40.9131 90.4233L41.1375 90.5787V87.247L40.9131 87.1089V90.4233Z" fill="#2BD9D0"/>
<path d="M41.6379 90.906L41.8624 91.0441V87.7469L41.6379 87.5916V90.906Z" fill="#2BD9D0"/>
<path d="M42.3632 88.0919V91.3718L42.5876 91.5444V88.2473L42.3632 88.0919Z" fill="#2BD9D0"/>
<path d="M42.7772 101.004V102.886L39.2729 100.538V98.6735L38.2026 97.9312V92.7351L43.8475 96.5156V101.712L42.7772 101.004Z" fill="#383C52"/>
<path fill-rule="evenodd" clip-rule="evenodd" d="M42.7772 101.004V100.004L43.8475 100.712V101.712L42.7772 101.004ZM42.7772 101.886V102.886L39.2729 100.538V99.5378L42.7772 101.886ZM39.2729 98.6734V97.6734L38.2026 96.9312V97.9312L39.2729 98.6734Z" fill="#8A99CD"/>
<path d="M40.1878 94.0475L40.4122 94.2201V97.5L40.1878 97.3446V94.0475Z" fill="#2BD9D0"/>
<path d="M39.463 93.5807L39.6874 93.7188V97.0332L39.463 96.8778V93.5807Z" fill="#2BD9D0"/>
<path d="M40.9131 94.5477L41.1375 94.7031V98.0003L40.9131 97.8449V94.5477Z" fill="#2BD9D0"/>
<path d="M41.6379 95.0128L41.8624 95.1682V98.4653L41.6379 98.3272V95.0128Z" fill="#2BD9D0"/>
<path d="M42.3632 98.7947V95.5148L42.5876 95.6701V98.9673L42.3632 98.7947Z" fill="#2BD9D0"/>
<path d="M33.4725 80.2031V78.3215L29.951 75.9392V77.8208L28.8979 77.1303V82.3609L34.5428 86.1242V80.9281L33.4725 80.2031Z" fill="#383C52"/>
<path fill-rule="evenodd" clip-rule="evenodd" d="M33.4725 78.3215V79.3215L29.951 76.9392V75.9392L33.4725 78.3215ZM29.951 77.8208L28.8979 77.1303V78.1303L29.951 78.8208V77.8208ZM33.4725 80.2031V81.2031L34.5428 81.9281V80.9281L33.4725 80.2031Z" fill="#8A99CD"/>
<path d="M30.8656 83.6891L31.1073 83.8444V80.5127L30.8656 80.3746V83.6891Z" fill="#2BD9D0"/>
<path d="M30.1407 83.1888L30.3824 83.3442V80.047L30.1407 79.8744V83.1888Z" fill="#2BD9D0"/>
<path d="M31.5908 84.1731L31.8325 84.3112V81.0141L31.5908 80.8414V84.1731Z" fill="#2BD9D0"/>
<path d="M32.3157 84.6389L32.5574 84.8115V81.497L32.3157 81.3417V84.6389Z" fill="#2BD9D0"/>
<path d="M33.041 81.8085V85.1402L33.2827 85.2955V81.9638L33.041 81.8085Z" fill="#2BD9D0"/>
<path d="M33.4725 94.8064V96.688L29.951 94.3575V92.4586L28.8979 91.7336V86.5031L34.5428 90.2663V95.5141L33.4725 94.8064Z" fill="#383C52"/>
<path fill-rule="evenodd" clip-rule="evenodd" d="M33.4725 94.8064V93.8064L34.5428 94.5141V95.5141L33.4725 94.8064ZM33.4725 95.688V96.688L29.951 94.3576V93.3576L33.4725 95.688ZM29.951 92.4587V91.4587L28.8979 90.7336V91.7336L29.951 92.4587Z" fill="#8A99CD"/>
<path d="M30.8656 87.8313L31.1073 87.9867V91.2838L30.8656 91.1285V87.8313Z" fill="#2CC6C0"/>
<path d="M30.1407 87.3311L30.3824 87.4864V90.8181L30.1407 90.6627V87.3311Z" fill="#2CC6C0"/>
<path d="M31.5908 88.3157L31.8325 88.4538V91.7855L31.5908 91.6301V88.3157Z" fill="#2CC6C0"/>
<path d="M32.3157 88.7808L32.5574 88.9534V92.2506L32.3157 92.1125V88.7808Z" fill="#2CC6C0"/>
<path d="M33.041 92.5785V89.2986L33.2827 89.4539V92.7511L33.041 92.5785Z" fill="#2CC6C0"/>
<path d="M24.1507 73.9357V72.0369L20.6464 69.6719V71.5708L19.5761 70.8457V76.0936L25.221 79.8914V74.6435L24.1507 73.9357Z" fill="#383C52"/>
<path fill-rule="evenodd" clip-rule="evenodd" d="M24.1507 72.0369V73.0369L20.6464 70.6719V69.6719L24.1507 72.0369ZM20.6464 71.5708V72.5708L19.5761 71.8457V70.8457L20.6464 71.5708ZM24.1507 73.9357V74.9357L25.221 75.6435V74.6435L24.1507 73.9357Z" fill="#8A99CD"/>
<path d="M21.5613 77.4391L21.7858 77.5772V74.2628L21.5613 74.1074V77.4391Z" fill="#2BD9D0"/>
<path d="M20.8365 76.956L21.0609 77.1114V73.7624L20.8365 73.6071V76.956Z" fill="#2BD9D0"/>
<path d="M22.2866 77.9048L22.5283 78.0775V74.763L22.2866 74.6077V77.9048Z" fill="#2BD9D0"/>
<path d="M23.0115 78.4061L23.2532 78.5615V75.2298L23.0115 75.0745V78.4061Z" fill="#2BD9D0"/>
<path d="M23.7368 75.5747V78.9064L23.9784 79.0445V75.7301L23.7368 75.5747Z" fill="#2BD9D0"/>
<path d="M24.1507 88.5918V90.4907L20.6464 88.143V86.2441L19.5761 85.519V80.2885L25.221 84.0344V89.2996L24.1507 88.5918Z" fill="#383C52"/>
<path fill-rule="evenodd" clip-rule="evenodd" d="M24.1507 88.5918V87.5918L25.221 88.2996V89.2996L24.1507 88.5918ZM24.1507 89.4907V90.4907L20.6464 88.143V87.143L24.1507 89.4907ZM20.6464 86.2441V85.2441L19.5761 84.519V85.519L20.6464 86.2441Z" fill="#8A99CD"/>
<path d="M21.5613 81.6007L21.7858 81.7561V85.0705L21.5613 84.9152V81.6007Z" fill="#2BD9D0"/>
<path d="M20.8365 81.1005L21.0609 81.2731V84.6048L20.8365 84.4494V81.1005Z" fill="#2BD9D0"/>
<path d="M22.2866 82.1011L22.5283 82.2392V85.5709L22.2866 85.4155V82.1011Z" fill="#2BD9D0"/>
<path d="M23.0115 82.5677L23.2532 82.7404V86.0375L23.0115 85.8994V82.5677Z" fill="#2BD9D0"/>
<path d="M23.7368 86.3653V83.0681L23.9784 83.2235V86.5379L23.7368 86.3653Z" fill="#2BD9D0"/>
<path d="M14.8461 67.6529V65.754L11.3418 63.4062V65.3051L10.2715 64.5974V69.8625L15.9164 73.6603V68.3952L14.8461 67.6529Z" fill="#383C52"/>
<path fill-rule="evenodd" clip-rule="evenodd" d="M14.8461 65.754V66.754L11.3418 64.4062V63.4062L14.8461 65.754ZM11.3418 65.3051V66.3051L10.2715 65.5974V64.5974L11.3418 65.3051ZM14.8461 67.6529V68.6529L15.9164 69.3952V68.3952L14.8461 67.6529Z" fill="#8A99CD"/>
<path d="M12.2567 71.1738L12.4811 71.3464V67.9975L12.2567 67.8594V71.1738Z" fill="#2BD9D0"/>
<path d="M11.5318 70.7084L11.7562 70.8465V67.5321L11.5318 67.3767V70.7084Z" fill="#2BD9D0"/>
<path d="M12.982 71.6924L13.2064 71.8477V68.4988L12.982 68.3262V71.6924Z" fill="#2BD9D0"/>
<path d="M13.7068 72.1754L13.9312 72.3135V68.9818L13.7068 68.8264V72.1754Z" fill="#2BD9D0"/>
<path d="M14.4321 69.3268V72.6412L14.6565 72.8138V69.4649L14.4321 69.3268Z" fill="#2BD9D0"/>
<path d="M14.8461 82.3783V84.2944L11.3418 81.9467V80.0478L10.2715 79.34V74.0404L15.9164 77.8209V83.086L14.8461 82.3783Z" fill="#383C52"/>
<path fill-rule="evenodd" clip-rule="evenodd" d="M14.8461 82.3783V81.3783L15.9164 82.0861V83.0861L14.8461 82.3783ZM14.8461 83.2945V84.2945L11.3418 81.9467V80.9467L14.8461 83.2945ZM11.3418 80.0479V79.0479L10.2715 78.3401V79.3401L11.3418 80.0479Z" fill="#8A99CD"/>
<path d="M12.2567 75.3862L12.4811 75.5416V78.856L12.2567 78.7007V75.3862Z" fill="#2BD9D0"/>
<path d="M11.5318 74.886L11.7562 75.0586V78.3903L11.5318 78.2349V74.886Z" fill="#2BD9D0"/>
<path d="M12.982 75.853L13.2064 76.0084V79.3573L12.982 79.202V75.853Z" fill="#2BD9D0"/>
<path d="M13.7068 76.3533L13.9312 76.5086V79.8231L13.7068 79.685V76.3533Z" fill="#2BD9D0"/>
<path d="M14.4321 80.1505V76.8361L14.6565 76.9742V80.3231L14.4321 80.1505Z" fill="#2BD9D0"/>
<defs>
<linearGradient id="paint0_linear" x1="8.20313" y1="84.5685" x2="131.885" y2="84.5685" gradientUnits="userSpaceOnUse">
<stop stop-color="#E7EFF5"/>
<stop offset="0.2574" stop-color="#C3C5D2"/>
<stop offset="0.3352" stop-color="#C6C8D5"/>
<stop offset="0.3997" stop-color="#CED3DD"/>
<stop offset="0.4592" stop-color="#DDE4EC"/>
<stop offset="0.4655" stop-color="#DFE6EE"/>
<stop offset="0.5693" stop-color="#98A5B5"/>
<stop offset="0.995" stop-color="#7E8EA0"/>
</linearGradient>
<linearGradient id="paint1_linear" x1="-0.106434" y1="84.9148" x2="133.097" y2="84.9148" gradientUnits="userSpaceOnUse">
<stop stop-color="#475375"/>
<stop offset="0.406195" stop-color="#2E354E"/>
<stop offset="0.522558" stop-color="#3C4661"/>
<stop offset="0.642676" stop-color="#2C3045"/>
</linearGradient>
<linearGradient id="paint2_linear" x1="3.5" y1="47" x2="136" y2="44" gradientUnits="userSpaceOnUse">
<stop stop-color="#545F7C"/>
<stop offset="0.494792" stop-color="#45516D"/>
<stop offset="0.995" stop-color="#344265"/>
</linearGradient>
<linearGradient id="paint3_linear" x1="3.5" y1="45" x2="136" y2="42" gradientUnits="userSpaceOnUse">
<stop stop-color="#687699"/>
<stop offset="0.995" stop-color="#526084"/>
</linearGradient>
<linearGradient id="paint4_linear" x1="4.89847" y1="60.5776" x2="32.0095" y2="64.0295" gradientUnits="userSpaceOnUse">
<stop stop-color="#5E6B8C"/>
</linearGradient>
</defs>
</svg>
