<svg width="140" height="140" viewBox="0 0 140 140" fill="none" xmlns="http://www.w3.org/2000/svg">
<g clip-path="url(#clip0)">
<path d="M116.849 137.133C117.019 136.912 117.188 136.658 117.357 136.404C117.51 136.15 117.645 135.879 117.764 135.608L119.39 132.897L119.34 132.812L22.9233 74.3967C21.9068 73.7868 20.1279 74.8541 18.9589 76.7855C17.7899 78.7169 17.6713 80.8007 18.7048 81.4106L115.189 139.877L116.849 137.133Z" fill="url(#paint0_linear)"/>
<path opacity="0.6" d="M116.866 137.133C117.035 136.912 117.205 136.658 117.374 136.404C117.527 136.15 117.662 135.879 117.781 135.608L119.39 132.914L119.356 132.812L22.957 74.3967C21.9405 73.7868 20.1616 74.8541 18.9926 76.7855C17.8236 78.7169 17.705 80.8007 18.7384 81.4106L115.222 139.877L116.866 137.133Z" fill="url(#paint1_linear)"/>
<path d="M18.7894 77.2275C18.8064 77.1767 18.8403 77.1259 18.8572 77.075L115.223 135.474L115.138 135.609L18.7894 77.2275ZM19.2469 76.4143C19.213 76.4651 19.1791 76.5329 19.1283 76.6007C19.0436 76.7362 18.9588 76.8717 18.8911 77.0242L115.257 135.423L115.612 134.83L19.2469 76.4143Z" fill="url(#paint2_linear)"/>
<path opacity="0.4" d="M81.4917 111.551L81.7289 111.145L118.137 132.729L117.663 132.983L81.4917 111.551Z" fill="url(#paint3_linear)"/>
<path d="M119.069 137.439C117.9 139.371 116.121 140.455 115.104 139.828C114.088 139.218 114.189 137.151 115.358 135.203C116.527 133.272 118.306 132.187 119.323 132.814C120.356 133.441 120.238 135.508 119.069 137.439Z" fill="url(#paint4_linear)"/>
<path d="M73.4168 103.774C73.4168 107.48 70.3769 110.503 66.6198 110.503C64.912 110.503 63.3408 109.871 62.1453 108.847C60.7108 107.617 59.8057 105.79 59.8057 103.774C59.8057 103.672 59.8057 103.552 59.8057 103.45C59.8057 103.416 59.8057 103.399 59.8057 103.365C59.8057 103.245 59.8227 103.125 59.8398 103.023C59.8569 102.801 59.8911 102.596 59.9423 102.391C59.9594 102.323 59.9764 102.254 59.9935 102.186C60.0106 102.101 60.0448 102.015 60.0618 101.93C60.1643 101.606 60.2668 101.298 60.4205 100.991C60.4717 100.871 60.54 100.752 60.5912 100.649C60.5912 100.649 60.5912 100.632 60.6083 100.632C60.6083 100.615 60.6254 100.598 60.6425 100.581V100.564C60.7449 100.376 60.8645 100.188 60.984 100.017C61.1548 99.7782 61.3427 99.5391 61.5305 99.3171C61.5818 99.2487 61.633 99.1975 61.7013 99.1463C61.7867 99.0609 61.8721 98.9755 61.9575 98.8901C62.0599 98.8047 62.1453 98.7193 62.2478 98.6339C62.4698 98.4461 62.6918 98.2924 62.9309 98.1387C62.948 98.1216 62.9651 98.1216 62.9651 98.1216C63.2725 97.9337 63.5799 97.763 63.9214 97.6263C63.9556 97.6093 63.9898 97.5922 64.0239 97.5922H64.041C64.2459 97.5068 64.4679 97.4385 64.69 97.3702C64.7924 97.336 64.8949 97.3189 64.9974 97.2848C65.0315 97.2677 65.0827 97.2677 65.1169 97.2506C65.5268 97.1652 65.9537 97.0969 66.3977 97.0969C66.4319 97.0969 66.4661 97.0969 66.5002 97.0969C66.5344 97.0969 66.5685 97.0969 66.6027 97.0969C68.43 97.0969 70.0866 97.8142 71.3162 98.9755C72.6141 100.154 73.4168 101.879 73.4168 103.774Z" fill="url(#paint5_radial)"/>
<path opacity="0.5" d="M66.0388 108.643C68.5383 108.643 70.5645 106.617 70.5645 104.117C70.5645 101.618 68.5383 99.5916 66.0388 99.5916C63.5394 99.5916 61.5132 101.618 61.5132 104.117C61.5132 106.617 63.5394 108.643 66.0388 108.643Z" fill="url(#paint6_linear)"/>
<path d="M67.5113 79.0523C67.2233 79.0184 66.9353 79.0015 66.6304 79.0015C66.3254 79.0015 66.0204 79.0184 65.7494 79.0523H62.5812L62.5474 79.137V99.9416C62.5474 101.128 64.3771 102.11 66.6473 102.11C68.9175 102.11 70.7472 101.145 70.7472 99.9416V79.0523H67.5113Z" fill="url(#paint7_linear)"/>
<path d="M67.5113 79.0523C67.2233 79.0184 66.9353 79.0015 66.6304 79.0015C66.3254 79.0015 66.0204 79.0184 65.7494 79.0523L62.6151 79.0692L62.5474 79.1539V99.9586C62.5474 101.145 64.3771 102.127 66.6473 102.127C68.9175 102.127 70.7472 101.161 70.7472 99.9586V79.0523H67.5113Z" fill="url(#paint8_linear)"/>
<path d="M67.1218 101.958C67.071 101.958 67.0202 101.974 66.9694 101.974V81.1868H67.1218V101.958ZM66.19 101.974C66.2578 101.974 66.3256 101.974 66.3933 101.974C66.5628 101.974 66.7152 101.974 66.8677 101.958V81.2037H66.1731V101.974H66.19Z" fill="url(#paint9_linear)"/>
<path d="M63.53 81.5765H63.0557V79.3232L63.53 79.5943V81.5765Z" fill="url(#paint10_linear)"/>
<path d="M66.6136 81.323C68.878 81.323 70.7136 80.3521 70.7136 79.1544C70.7136 77.9567 68.878 76.9858 66.6136 76.9858C64.3493 76.9858 62.5137 77.9567 62.5137 79.1544C62.5137 80.3521 64.3493 81.323 66.6136 81.323Z" fill="url(#paint11_linear)"/>
<path d="M119.506 109.651C119.506 110.989 118.71 112.209 117.473 112.734L110.781 116.529C108.765 117.41 106.444 117.241 104.564 116.089L28.037 69.2445C26.3598 68.2111 25.3433 66.3983 25.3433 64.433V40.2739L112.34 81.3919L119.608 83.5096L119.506 109.651Z" fill="url(#paint12_linear)"/>
<path d="M104.784 89.9638L26.3596 41.8657C24.8518 40.9509 25.072 38.6976 26.7154 38.0708L33.7463 35.3939C35.4913 34.7332 37.4565 34.8857 39.083 35.8175L118.371 81.3573C119.997 82.2891 120.065 84.6271 118.473 85.6436L111.848 89.8791C109.697 91.2683 106.952 91.2852 104.784 89.9638Z" fill="url(#paint13_linear)"/>
<path d="M104.784 88.9916L26.3598 40.8936C24.852 39.9787 25.0723 37.7254 26.7156 37.0986L33.7465 34.4218C35.4915 33.761 37.4568 33.9135 39.0832 34.8453L118.371 80.3851C119.998 81.3169 120.065 83.6549 118.473 84.6714L111.849 88.9069C109.697 90.2961 106.952 90.3131 104.784 88.9916Z" fill="url(#paint14_linear)"/>
<path d="M102.446 110.361L28.7654 65.0246V47.6592L102.446 92.9787V110.361Z" fill="url(#paint15_linear)"/>
<path opacity="0.91" d="M33.5432 64.3308L33.5093 57.2322C33.3399 57.2152 33.2382 57.1983 33.0688 57.1475C32.7469 57.0458 32.1709 56.69 31.832 56.4867V55.0128L32.2556 55.233C32.7977 55.521 33.1027 55.4872 33.306 55.4533C33.3907 55.4363 33.577 55.4024 33.7295 55.25C33.8312 55.1483 33.882 55.0467 33.9667 54.9111L35.3898 55.8091L35.4237 65.5337L33.5432 64.3308Z" fill="white"/>
<path opacity="0.91" d="M43.0306 68.6171C42.8611 68.9221 42.6748 69.1423 42.3868 69.2779C42.031 69.4473 41.4888 69.532 40.4215 68.8543C38.9984 67.9564 38.4054 66.5672 38.1682 65.7709C38.0158 65.2457 37.9819 64.8391 37.948 64.6527L39.8285 65.6015C39.8285 65.737 39.7947 66.1944 40.0827 66.7027C40.2521 67.0076 40.4554 67.1601 40.557 67.2109C40.6248 67.2618 40.7942 67.3465 40.9636 67.3465C41.2855 67.3295 41.4041 67.0924 41.4888 66.7535C41.6244 66.313 41.6752 65.9064 41.7091 64.873C41.6413 64.9916 41.5905 65.0254 41.5566 65.0593C41.3533 65.2288 40.8281 65.449 39.981 64.9238C39.0492 64.3139 38.2529 63.128 37.931 61.8404C37.8633 61.5862 37.7786 61.1288 37.7786 60.5528C37.7786 60.1292 37.7786 59.2144 38.3546 58.7061C38.4224 58.6384 38.6257 58.4859 38.8967 58.435C39.1847 58.3842 39.7777 58.4181 40.6248 58.9433C40.8789 59.0958 41.5227 59.5363 42.1157 60.4003C42.912 61.5524 43.488 63.128 43.488 65.5337C43.488 65.7201 43.5049 67.6684 43.0306 68.6171ZM41.0653 61.1288C40.845 60.773 40.6417 60.6375 40.5232 60.5528C40.4384 60.502 40.2521 60.4003 40.0488 60.4172C39.7608 60.4342 39.5575 60.6883 39.5575 61.5185C39.5575 62.3825 39.8285 62.9077 40.1335 63.2635C40.2013 63.3482 40.3876 63.5346 40.574 63.6362C40.9975 63.8734 41.455 63.7887 41.455 62.7044C41.455 61.959 41.2855 61.4676 41.0653 61.1288Z" fill="white"/>
<path opacity="0.91" d="M44.4538 71.1925V69.4983C44.7418 69.3967 45.0468 69.312 45.3179 69.2103C45.6398 69.0917 45.9786 68.9562 46.2836 68.8037C47.1815 68.431 47.893 68.0244 47.893 66.4827C47.893 66.11 47.8592 65.8728 47.8253 65.7033C47.7575 65.4323 47.5711 64.924 47.0798 64.6191C46.9951 64.5682 46.8257 64.4666 46.6224 64.4666C46.3683 64.4835 46.2158 64.7038 46.2158 65.4323C46.2158 65.6695 46.2327 65.9575 46.2666 66.2116L44.3691 64.8901C44.3522 64.5005 44.2844 63.2807 44.9282 62.6877C45.4873 62.1964 46.3005 62.4674 47.1476 62.9926C47.4695 63.1959 48.8418 64.0769 49.5195 65.8389C49.8583 66.7029 49.8583 67.3806 49.8583 67.6517C49.8583 69.1426 49.1806 69.7016 48.9265 69.9219C48.2827 70.4301 47.5881 70.6504 46.8088 70.8706L49.9091 72.7681V74.5978L44.4538 71.1925Z" fill="white"/>
<path opacity="0.91" d="M51.1458 75.3932L51.1289 73.0044L52.9756 74.1734L52.9925 76.5622L51.1458 75.3932Z" fill="white"/>
<path opacity="0.91" d="M56.2621 78.6123L56.2283 71.5137C56.0588 71.4967 55.9572 71.4798 55.7878 71.429C55.4659 71.3273 54.8899 70.9715 54.551 70.7682V69.2943L54.9746 69.5145C55.5167 69.8025 55.8217 69.7686 56.025 69.7348C56.1097 69.7178 56.296 69.6839 56.4485 69.5315C56.5502 69.4298 56.601 69.3282 56.6857 69.1926L58.1088 70.0905L58.1427 79.8152L56.2621 78.6123Z" fill="white"/>
<path opacity="0.91" d="M65.8174 83.4758C65.648 83.6622 65.4617 83.7808 65.2075 83.8316C64.9195 83.8824 64.3435 83.8655 63.4795 83.3233C63.2253 83.1709 62.5985 82.7473 61.9886 81.8663C61.1923 80.7143 60.6163 79.1387 60.6163 76.7329C60.6163 76.4957 60.5993 74.6491 61.0568 73.7003C61.2262 73.3615 61.3956 73.209 61.4973 73.1243C62.0902 72.6499 62.8187 72.8532 63.6997 73.4123C64.0047 73.5987 64.8518 74.1578 65.4955 75.3945C65.7666 75.9197 65.9021 76.3772 65.953 76.5635C66.0546 76.9362 66.1054 77.2581 66.1563 77.597L64.2757 76.6482C64.2757 76.5127 64.3266 76.0722 64.0216 75.5639C63.8352 75.242 63.6319 75.1065 63.5472 75.0387C63.4795 74.9879 63.327 74.9201 63.1406 74.9201C62.8187 74.9201 62.7001 75.1743 62.6154 75.5131C62.4799 75.9705 62.4291 76.3602 62.4121 77.4106C62.4968 77.2581 62.5815 77.1565 62.734 77.0718C62.9373 76.9701 63.3948 76.8854 64.1402 77.3598C64.4282 77.5292 65.072 78.0205 65.6141 79.0031C66.3257 80.2568 66.3257 81.3242 66.3257 81.6969C66.3257 82.7981 66.0377 83.2556 65.8174 83.4758ZM63.9538 78.9693C63.8861 78.9015 63.7166 78.7151 63.5133 78.5965C63.1067 78.3763 62.6324 78.461 62.6324 79.5453C62.6324 80.2907 62.8187 80.782 63.022 81.1209C63.2423 81.4767 63.4625 81.6291 63.5642 81.6969C63.6489 81.7477 63.8352 81.8494 64.0385 81.8324C64.3266 81.8155 64.5299 81.5614 64.5299 80.7143C64.5299 79.8672 64.2588 79.3081 63.9538 78.9693Z" fill="white"/>
<path opacity="0.91" d="M67.2574 85.5426L67.2405 83.1538L69.0871 84.3228L69.1041 86.7116L67.2574 85.5426Z" fill="white"/>
<path opacity="0.91" d="M72.3737 88.7444L72.3398 81.6458C72.1704 81.6288 72.0688 81.6119 71.8994 81.561C71.5775 81.4594 71.0014 81.1036 70.6626 80.9003V79.4264L71.0861 79.6466C71.6283 79.9346 71.9332 79.9007 72.1365 79.8669C72.2213 79.8499 72.4076 79.816 72.5601 79.6635C72.6617 79.5619 72.7126 79.4602 72.7973 79.3247L74.2204 80.2226L74.2543 89.9473L72.3737 88.7444Z" fill="white"/>
<path opacity="0.91" d="M82.8946 95.3684L80.76 90.2012L78.6253 92.6747L76.2534 91.1838L79.4385 87.7107L76.66 81.3406L79.1166 82.8823L80.7261 86.9483L82.3356 84.9153L84.7413 86.4231L82.0306 89.3371L85.2834 96.8763L82.8946 95.3684Z" fill="white"/>
<path opacity="0.91" d="M85.8258 97.2155L85.8088 94.8267L87.6555 95.9956L87.6725 98.3845L85.8258 97.2155Z" fill="white"/>
<path opacity="0.91" d="M94.8729 102.908L92.7382 97.7402L90.6036 100.214L88.2317 98.7229L91.4168 95.2498L88.6383 88.8796L91.0949 90.4214L92.7043 94.4874L94.3138 92.4544L96.7196 93.9622L94.0089 96.8762L97.2617 104.415L94.8729 102.908Z" fill="white"/>
<path d="M66.7489 40.2554C66.4609 40.2215 66.1729 40.2046 65.8679 40.2046C65.563 40.2046 65.258 40.2215 64.9869 40.2554H61.8188L61.7849 40.3401V61.1448C61.7849 62.3307 63.6146 63.3133 65.8848 63.3133C68.1381 63.3133 69.9848 62.3476 69.9848 61.1448V40.2554H66.7489Z" fill="url(#paint16_linear)"/>
<path d="M66.7489 40.2554C66.4609 40.2215 66.1729 40.2046 65.8679 40.2046C65.563 40.2046 65.258 40.2215 64.9869 40.2554L61.8527 40.2724L61.7849 40.3571V61.1617C61.7849 62.3476 63.6146 63.3303 65.8848 63.3303C68.1381 63.3303 69.9848 62.3646 69.9848 61.1617V40.2554H66.7489Z" fill="url(#paint17_linear)"/>
<path d="M62.7676 42.7796H62.2932V40.5264L62.7676 40.7974V42.7796Z" fill="url(#paint18_linear)"/>
<path d="M65.8512 42.5261C68.1155 42.5261 69.9511 41.5552 69.9511 40.3575C69.9511 39.1599 68.1155 38.189 65.8512 38.189C63.5868 38.189 61.7512 39.1599 61.7512 40.3575C61.7512 41.5552 63.5868 42.5261 65.8512 42.5261Z" fill="url(#paint19_linear)"/>
<path d="M121.302 75.3264C121.302 76.6648 120.506 77.8846 119.286 78.4098L112.594 82.2387C110.578 83.1197 108.257 82.9672 106.376 81.8321L29.6634 35.2758C27.9862 34.2593 26.9527 32.4296 26.9527 30.4643L26.8511 6.30518L114.017 47.0843L121.302 49.1851V75.3264Z" fill="url(#paint20_linear)"/>
<path d="M104.733 76.106L30.8664 31.0745L30.7986 13.6921L104.665 58.7237L104.733 76.106Z" fill="url(#paint21_linear)"/>
<path opacity="0.91" d="M36.1015 30.5147L36.0506 23.416C35.8812 23.3991 35.7796 23.3991 35.6101 23.3313C35.2882 23.2296 34.7122 22.8739 34.3564 22.6706V21.1966L34.78 21.4169C35.3221 21.7049 35.644 21.671 35.8304 21.6371C35.9151 21.6202 36.1015 21.5863 36.2539 21.4338C36.3556 21.3322 36.4064 21.2305 36.4911 21.095L37.9312 21.9929L37.999 31.7175L36.1015 30.5147Z" fill="white"/>
<path opacity="0.91" d="M45.6057 34.7507C45.4363 35.0556 45.2499 35.2759 44.9619 35.4114C44.6061 35.5808 44.064 35.6655 42.9966 35.0048C41.5566 34.1069 40.9806 32.7346 40.7434 31.9214C40.5909 31.3962 40.557 30.9896 40.5231 30.8032L42.4037 31.752C42.4037 31.8875 42.3698 32.3449 42.6747 32.8532C42.8442 33.1581 43.0475 33.3106 43.1491 33.3614C43.2169 33.4123 43.3863 33.497 43.5557 33.497C43.8776 33.48 43.9793 33.2428 44.0809 32.904C44.2165 32.4635 44.2673 32.0569 44.2842 31.0235C44.2165 31.1421 44.1656 31.1759 44.1317 31.2098C43.9284 31.3792 43.4032 31.5995 42.5562 31.0743C41.6074 30.4813 40.8281 29.2784 40.4892 28.0078C40.4215 27.7537 40.3368 27.2962 40.3198 26.7202C40.3198 26.2967 40.3198 25.3818 40.8958 24.8566C40.9636 24.7888 41.1669 24.6364 41.438 24.5686C41.726 24.5178 42.319 24.5517 43.1661 25.0769C43.4202 25.2293 44.064 25.6698 44.6569 26.5169C45.4702 27.669 46.0292 29.2276 46.0462 31.6503C46.0462 31.8706 46.0801 33.8019 45.6057 34.7507ZM43.6065 27.2793C43.3863 26.9405 43.183 26.788 43.0644 26.7202C42.9797 26.6694 42.7933 26.5677 42.59 26.5847C42.302 26.6016 42.0987 26.8727 42.0987 27.6859C42.0987 28.5499 42.3698 29.0751 42.6747 29.4309C42.7425 29.5156 42.9289 29.702 43.1152 29.8036C43.5388 30.0408 43.9962 29.9561 43.9793 28.8549C43.9962 28.1095 43.8268 27.6181 43.6065 27.2793Z" fill="white"/>
<path opacity="0.91" d="M47.029 37.3416L47.0121 35.6474C47.3001 35.5457 47.5881 35.461 47.8761 35.3594C48.198 35.2408 48.5369 35.0883 48.8418 34.9528C49.7397 34.5631 50.4513 34.1734 50.4344 32.6148C50.4344 32.2421 50.4005 32.0049 50.3666 31.8355C50.2988 31.5644 50.1125 31.0731 49.6211 30.7512C49.5364 30.7004 49.367 30.5987 49.1637 30.6156C48.9096 30.6326 48.7571 30.8528 48.7571 31.5813C48.7571 31.8185 48.791 32.1065 48.8079 32.3607L46.9104 31.0561C46.8935 30.6665 46.8088 29.4467 47.4526 28.8537C48.0117 28.3624 48.8249 28.6165 49.672 29.1586C49.9939 29.3619 51.3831 30.2429 52.0438 31.9879C52.3827 32.852 52.3996 33.5297 52.3996 33.8007C52.4165 35.2916 51.7389 35.8507 51.4678 36.0709C50.824 36.5792 50.1463 36.7994 49.3501 37.0197L52.4504 38.9002L52.4674 40.73L47.029 37.3416Z" fill="white"/>
<path opacity="0.91" d="M53.7381 41.5096L53.7212 39.1208L55.5848 40.2729L55.6018 42.6617L53.7381 41.5096Z" fill="white"/>
<path opacity="0.91" d="M58.8715 44.7114L58.8207 37.6128C58.6512 37.5958 58.5496 37.5958 58.3802 37.5281C58.0583 37.4264 57.4822 37.0706 57.1265 36.8673V35.3934L57.55 35.6136C58.0922 35.9017 58.414 35.8678 58.6004 35.8339C58.6851 35.8169 58.8715 35.7831 59.024 35.6306C59.1256 35.5289 59.1764 35.4273 59.2611 35.2917L60.7012 36.1897L60.769 45.9143L58.8715 44.7114Z" fill="white"/>
<path d="M68.6637 49.2526C68.3927 49.8286 67.6134 50.3199 66.0378 49.3373C65.8175 49.2018 64.7332 48.4733 64.0047 47.3212C63.7506 46.8977 63.1915 45.8134 63.1915 44.6444C63.1746 43.4754 63.7675 43.2382 64.0725 43.1705C64.2419 43.1366 64.4283 43.1705 64.5977 43.2044C64.4283 42.9672 64.3097 42.8147 64.2419 42.6961C63.5642 41.6118 63.4965 40.697 63.4795 40.3242C63.4795 40.1209 63.5134 39.6804 63.6998 39.3247C63.9708 38.8333 64.5977 38.4267 65.9869 39.2908C66.1563 39.3924 66.5291 39.6466 66.9357 40.0362C67.427 40.5275 68.4774 41.7474 68.4774 43.4924C68.4774 43.8143 68.4774 44.6105 67.8844 44.8477C67.7489 44.8985 67.6472 44.9155 67.3592 44.9155C67.9014 45.5084 68.1047 45.8134 68.3249 46.22C68.8162 47.1518 68.8332 47.8464 68.8332 48.1853C68.8501 48.6088 68.7993 48.9815 68.6637 49.2526ZM66.1055 44.8985C65.8853 44.7461 65.6989 44.7291 65.6481 44.7122C65.394 44.6952 65.106 44.8816 65.106 45.644C65.106 45.7456 65.106 46.0336 65.1907 46.3725C65.3431 46.8977 65.6312 47.3721 66.0208 47.6092C66.2749 47.7617 66.4444 47.7787 66.5291 47.7617C66.8001 47.7278 66.9526 47.5415 66.9357 46.7621C66.9357 45.7965 66.4782 45.1696 66.1055 44.8985ZM65.953 40.9511C65.4278 40.6631 65.2415 41.0697 65.2415 41.6288C65.2415 41.6796 65.2584 41.9168 65.2923 42.1201C65.3262 42.3403 65.4448 42.9841 66.0208 43.3399C66.3597 43.5601 66.7663 43.5601 66.7493 42.6961C66.7493 42.6114 66.7663 41.3916 65.953 40.9511Z" fill="white"/>
<path opacity="0.91" d="M69.9002 51.59L69.8833 49.2012L71.7469 50.3532L71.7639 52.742L69.9002 51.59Z" fill="white"/>
<path opacity="0.91" d="M75.0168 54.7761L74.9659 47.6775C74.7965 47.6605 74.6949 47.6605 74.5254 47.5928C74.2035 47.4911 73.6275 47.1353 73.2717 46.932V45.4581L73.6953 45.6783C74.2374 45.9664 74.5593 45.9325 74.7457 45.8986C74.8304 45.8816 75.0168 45.8478 75.1692 45.6953C75.2709 45.5936 75.3217 45.492 75.4064 45.3564L76.8465 46.2544L76.9143 55.979L75.0168 54.7761Z" fill="white"/>
<path opacity="0.91" d="M85.5716 61.3491L83.42 56.1988L81.3023 58.6893L78.9304 57.2153L82.0986 53.7253L79.3031 47.3721L81.7597 48.8968L83.3861 52.946L84.9787 50.896L87.3844 52.4038L84.6737 55.3348L87.9605 62.857L85.5716 61.3491Z" fill="white"/>
<path opacity="0.91" d="M88.5196 63.1952L88.5027 60.8064L90.3663 61.9584L90.3832 64.3473L88.5196 63.1952Z" fill="white"/>
<path opacity="0.91" d="M97.5836 68.8367L95.432 63.6863L93.3142 66.1768L90.9424 64.7029L94.1105 61.2128L91.3151 54.8596L93.7717 56.3844L95.3981 60.4335L96.9906 58.3835L99.3964 59.8914L96.6857 62.8223L99.9724 70.3445L97.5836 68.8367Z" fill="white"/>
<path d="M106.495 55.6905L27.8848 7.89748C26.3769 6.98262 26.5802 4.74629 28.2236 4.1025L35.2545 1.3918C36.9995 0.714123 38.9648 0.8666 40.5912 1.78146L120.066 47.0163C121.709 47.9481 121.777 50.2861 120.184 51.3026L113.577 55.5719C111.425 56.9781 108.681 57.012 106.495 55.6905Z" fill="url(#paint22_linear)"/>
<path d="M106.495 54.7184L27.885 6.92531C26.3772 6.01045 26.5805 3.77412 28.2239 3.13033L35.2547 0.419631C36.9997 -0.258045 38.965 -0.105568 40.5914 0.809294L120.066 46.0441C121.709 46.9759 121.777 49.3139 120.184 50.3304L113.577 54.5998C111.425 56.006 108.681 56.0398 106.495 54.7184Z" fill="url(#paint23_linear)"/>
</g>
<defs>
<linearGradient id="paint0_linear" x1="70.1588" y1="103.259" x2="64.6537" y2="112.41" gradientUnits="userSpaceOnUse">
<stop stop-color="#E7EFF5"/>
<stop offset="0.1867" stop-color="#C3C5D2"/>
<stop offset="0.3352" stop-color="#C6C8D5"/>
<stop offset="0.3577" stop-color="#C6CAD6"/>
<stop offset="0.4626" stop-color="#C6CFDA"/>
<stop offset="0.995" stop-color="#7E8EA0"/>
</linearGradient>
<linearGradient id="paint1_linear" x1="71.7239" y1="100.679" x2="61.2183" y2="118.142" gradientUnits="userSpaceOnUse">
<stop stop-color="#B9C5D3"/>
<stop offset="0.0891947" stop-color="#A8B5C5" stop-opacity="0.9108"/>
<stop offset="0.2285" stop-color="#95A4B4" stop-opacity="0.7715"/>
<stop offset="0.3918" stop-color="#8897A9" stop-opacity="0.6082"/>
<stop offset="0.5994" stop-color="#8090A2" stop-opacity="0.4006"/>
<stop offset="1" stop-color="#7E8EA0" stop-opacity="0"/>
</linearGradient>
<linearGradient id="paint2_linear" x1="67.253" y1="124.998" x2="67.1514" y2="81.9149" gradientUnits="userSpaceOnUse">
<stop stop-color="white" stop-opacity="0.3"/>
<stop offset="1" stop-color="white" stop-opacity="0"/>
</linearGradient>
<linearGradient id="paint3_linear" x1="84.8769" y1="113.143" x2="116.242" y2="132.012" gradientUnits="userSpaceOnUse">
<stop stop-color="white" stop-opacity="0"/>
<stop offset="1" stop-color="white" stop-opacity="0.5"/>
</linearGradient>
<linearGradient id="paint4_linear" x1="118.652" y1="132.291" x2="109.593" y2="157.234" gradientUnits="userSpaceOnUse">
<stop stop-color="#DFE6EE"/>
<stop offset="0.5" stop-color="#F5F7F8"/>
<stop offset="0.995" stop-color="#ABB6C3"/>
</linearGradient>
<radialGradient id="paint5_radial" cx="0" cy="0" r="1" gradientUnits="userSpaceOnUse" gradientTransform="translate(65.0527 101.754) scale(7.8039 7.71577)">
<stop offset="0.1458" stop-color="#66FFF7"/>
<stop offset="0.8886" stop-color="#1BC5BD"/>
<stop offset="1" stop-color="#15B6AE"/>
</radialGradient>
<linearGradient id="paint6_linear" x1="66.8924" y1="100.333" x2="65.1558" y2="107.936" gradientUnits="userSpaceOnUse">
<stop stop-color="white" stop-opacity="0.2"/>
<stop offset="1" stop-color="white" stop-opacity="0"/>
</linearGradient>
<linearGradient id="paint7_linear" x1="62.7634" y1="90.5593" x2="71.3913" y2="90.5593" gradientUnits="userSpaceOnUse">
<stop stop-color="#E7EFF5"/>
<stop offset="0.2098" stop-color="#C3C5D2"/>
<stop offset="0.3352" stop-color="#C6C8D5"/>
<stop offset="0.3571" stop-color="#C6CAD6"/>
<stop offset="0.4592" stop-color="#C6CFDA"/>
<stop offset="0.653" stop-color="#98A5B5"/>
<stop offset="0.995" stop-color="#7E8EA0"/>
</linearGradient>
<linearGradient id="paint8_linear" x1="62.7634" y1="90.5593" x2="71.3913" y2="90.5593" gradientUnits="userSpaceOnUse">
<stop stop-color="#B9C5D3"/>
<stop offset="0.0891947" stop-color="#A8B5C5" stop-opacity="0.9108"/>
<stop offset="0.2285" stop-color="#95A4B4" stop-opacity="0.7715"/>
<stop offset="0.3918" stop-color="#8897A9" stop-opacity="0.6082"/>
<stop offset="0.5994" stop-color="#8090A2" stop-opacity="0.4006"/>
<stop offset="1" stop-color="#7E8EA0" stop-opacity="0"/>
</linearGradient>
<linearGradient id="paint9_linear" x1="66.6557" y1="98.2303" x2="66.6557" y2="83.1593" gradientUnits="userSpaceOnUse">
<stop stop-color="white" stop-opacity="0"/>
<stop offset="1" stop-color="white" stop-opacity="0.3"/>
</linearGradient>
<linearGradient id="paint10_linear" x1="63.2948" y1="81.372" x2="63.2948" y2="79.4332" gradientUnits="userSpaceOnUse">
<stop stop-color="white" stop-opacity="0"/>
<stop offset="1" stop-color="white" stop-opacity="0.5"/>
</linearGradient>
<linearGradient id="paint11_linear" x1="62.2929" y1="79.9997" x2="69.2057" y2="78.6472" gradientUnits="userSpaceOnUse">
<stop stop-color="#DFE6EE"/>
<stop offset="0.5" stop-color="#F5F7F8"/>
<stop offset="0.995" stop-color="#ABB6C3"/>
</linearGradient>
<linearGradient id="paint12_linear" x1="19.8624" y1="78.0305" x2="185.951" y2="80.3295" gradientUnits="userSpaceOnUse">
<stop stop-color="#455071"/>
<stop offset="0.2574" stop-color="#3B4563"/>
<stop offset="0.3352" stop-color="#36405D"/>
<stop offset="0.4519" stop-color="#313A55"/>
<stop offset="0.4897" stop-color="#2F3853"/>
<stop offset="0.5095" stop-color="#2E3752"/>
<stop offset="0.5367" stop-color="#2A3047"/>
<stop offset="0.5574" stop-color="#32364B"/>
<stop offset="0.995" stop-color="#A4B1C0"/>
</linearGradient>
<linearGradient id="paint13_linear" x1="21.9748" y1="55.752" x2="176.718" y2="78.016" gradientUnits="userSpaceOnUse">
<stop offset="0.03125" stop-color="#515C7A"/>
<stop offset="0.625" stop-color="#394668"/>
</linearGradient>
<linearGradient id="paint14_linear" x1="21.975" y1="54.7798" x2="176.719" y2="77.0438" gradientUnits="userSpaceOnUse">
<stop stop-color="#677496"/>
<stop offset="0.3975" stop-color="#4D597B"/>
<stop offset="0.4896" stop-color="#465273"/>
<stop offset="0.6576" stop-color="#3B4868"/>
<stop offset="0.7817" stop-color="#ABB6C3"/>
</linearGradient>
<linearGradient id="paint15_linear" x1="34.1749" y1="54.6354" x2="101.175" y2="61.3221" gradientUnits="userSpaceOnUse">
<stop offset="1" stop-color="#2ED8CF"/>
</linearGradient>
<linearGradient id="paint16_linear" x1="62.0018" y1="51.7633" x2="70.6297" y2="51.7633" gradientUnits="userSpaceOnUse">
<stop stop-color="#E7EFF5"/>
<stop offset="0.2098" stop-color="#C3C5D2"/>
<stop offset="0.3352" stop-color="#C6C8D5"/>
<stop offset="0.3571" stop-color="#C6CAD6"/>
<stop offset="0.4592" stop-color="#C6CFDA"/>
<stop offset="0.653" stop-color="#98A5B5"/>
<stop offset="0.995" stop-color="#7E8EA0"/>
</linearGradient>
<linearGradient id="paint17_linear" x1="62.0018" y1="51.7633" x2="70.6297" y2="51.7633" gradientUnits="userSpaceOnUse">
<stop stop-color="#B9C5D3"/>
<stop offset="0.0891947" stop-color="#A8B5C5" stop-opacity="0.9108"/>
<stop offset="0.2285" stop-color="#95A4B4" stop-opacity="0.7715"/>
<stop offset="0.3918" stop-color="#8897A9" stop-opacity="0.6082"/>
<stop offset="0.5994" stop-color="#8090A2" stop-opacity="0.4006"/>
<stop offset="1" stop-color="#7E8EA0" stop-opacity="0"/>
</linearGradient>
<linearGradient id="paint18_linear" x1="62.5332" y1="42.5759" x2="62.5332" y2="40.6371" gradientUnits="userSpaceOnUse">
<stop stop-color="white" stop-opacity="0"/>
<stop offset="1" stop-color="white" stop-opacity="0.5"/>
</linearGradient>
<linearGradient id="paint19_linear" x1="61.5312" y1="41.2037" x2="68.4441" y2="39.8511" gradientUnits="userSpaceOnUse">
<stop stop-color="#DFE6EE"/>
<stop offset="0.5" stop-color="#F5F7F8"/>
<stop offset="0.995" stop-color="#ABB6C3"/>
</linearGradient>
<linearGradient id="paint20_linear" x1="21.5318" y1="44.1021" x2="187.629" y2="45.767" gradientUnits="userSpaceOnUse">
<stop stop-color="#475374"/>
<stop offset="0.5095" stop-color="#2E3751"/>
<stop offset="0.5367" stop-color="#292D41"/>
<stop offset="0.5574" stop-color="#2C3045"/>
<stop offset="0.995" stop-color="#A4B1C0"/>
</linearGradient>
<linearGradient id="paint21_linear" x1="36.2406" y1="20.6524" x2="103.272" y2="27.0805" gradientUnits="userSpaceOnUse">
<stop offset="1" stop-color="#2ED8CF"/>
</linearGradient>
<linearGradient id="paint22_linear" x1="23.567" y1="21.8038" x2="178.385" y2="43.4689" gradientUnits="userSpaceOnUse">
<stop offset="0.00629663" stop-color="#545F7C"/>
<stop offset="0.672181" stop-color="#374466"/>
</linearGradient>
<linearGradient id="paint23_linear" x1="23.5673" y1="20.8316" x2="178.385" y2="42.4968" gradientUnits="userSpaceOnUse">
<stop stop-color="#697698"/>
<stop offset="0.208857" stop-color="#5B688A"/>
<stop offset="0.36088" stop-color="#515E80"/>
<stop offset="0.6779" stop-color="#384464"/>
<stop offset="0.7817" stop-color="#ABB6C3"/>
</linearGradient>
<clipPath id="clip0">
<rect x="17" width="105.972" height="140" fill="white"/>
</clipPath>
</defs>
</svg>
