<svg width="140" height="140" viewBox="0 0 140 140" fill="none" xmlns="http://www.w3.org/2000/svg">
<g clip-path="url(#clip0)">
<path d="M102.764 29.7108C102.764 29.6951 102.764 29.6951 102.764 29.6795C102.764 29.6639 102.764 29.6326 102.764 29.617C102.764 29.5857 102.764 29.5701 102.764 29.5388C102.764 29.5232 102.764 29.4919 102.764 29.4763C102.764 29.4607 102.764 29.4294 102.764 29.4138C102.764 29.3982 102.701 29.3669 102.764 29.3669C102.764 29.3356 102.764 29.3044 102.748 29.2731C102.748 29.2575 102.748 29.2418 102.748 29.2262V29.2106C102.748 29.1481 102.733 29.1012 102.717 29.0387C102.717 29.023 102.717 29.0074 102.717 29.0074C102.717 28.9605 102.701 28.9136 102.701 28.8824C102.701 28.8667 102.701 28.8667 102.701 28.8511C102.701 28.8355 102.686 28.8042 102.686 28.7886C102.686 28.7573 102.67 28.7417 102.67 28.7104C102.67 28.6948 102.654 28.6792 102.654 28.6635C102.654 28.6323 102.639 28.6166 102.639 28.5854C102.639 28.5698 102.623 28.5541 102.623 28.5385C102.623 28.5072 102.607 28.4916 102.607 28.4603C102.607 28.4291 102.592 28.4135 102.592 28.3822C102.592 28.3666 102.592 28.3666 102.576 28.3509C102.561 28.3197 102.561 28.2728 102.545 28.2415C102.545 28.2259 102.529 28.1946 102.529 28.179V28.1634C102.514 28.1009 102.498 28.0383 102.467 27.9915C102.467 27.9758 102.467 27.9758 102.451 27.9602C102.436 27.9133 102.42 27.8664 102.404 27.8195C102.404 27.8039 102.404 27.8039 102.389 27.7883C102.389 27.7726 102.373 27.7414 102.373 27.7257C102.357 27.6945 102.357 27.6789 102.342 27.6476C102.342 27.632 102.326 27.6163 102.326 27.5851C102.311 27.5694 102.311 27.5382 102.295 27.5226C102.295 27.5069 102.279 27.4913 102.279 27.4757C102.264 27.4444 102.248 27.4131 102.232 27.3819C102.232 27.3663 102.217 27.3506 102.217 27.335V27.3194C102.185 27.2568 102.17 27.21 102.139 27.1474C102.139 27.1474 102.139 27.1474 102.139 27.1318C102.123 27.1162 102.123 27.1005 102.107 27.0849C102.092 27.038 102.076 27.0068 102.045 26.9599C102.045 26.9599 102.045 26.9442 102.029 26.9442C102.014 26.913 101.998 26.8817 101.982 26.8348C101.967 26.8036 101.951 26.7723 101.935 26.7567C101.935 26.7567 101.935 26.7411 101.92 26.7411C101.873 26.6473 101.826 26.5691 101.763 26.4753L101.748 26.4597C101.748 26.4441 101.732 26.4441 101.732 26.4285C101.654 26.3034 101.576 26.1784 101.498 26.069L101.482 26.0533C101.482 26.0377 101.466 26.0377 101.466 26.0221C101.404 25.9283 101.341 25.8345 101.263 25.7407C101.248 25.7251 101.248 25.7251 101.232 25.7095C101.185 25.6626 101.154 25.6001 101.107 25.5532C101.107 25.5532 101.107 25.5532 101.091 25.5376C101.06 25.5063 101.029 25.4594 100.998 25.4281C100.982 25.4125 100.966 25.3969 100.966 25.3813C100.919 25.3344 100.873 25.2718 100.826 25.225C100.81 25.2093 100.81 25.1937 100.794 25.1937C100.763 25.1624 100.732 25.1155 100.701 25.0843L100.685 25.0687C100.669 25.053 100.654 25.0218 100.622 25.0061C100.607 24.9749 100.576 24.9592 100.56 24.928L100.544 24.9124C100.529 24.8967 100.497 24.8655 100.482 24.8498C100.466 24.8342 100.435 24.8029 100.419 24.7873C100.404 24.7717 100.404 24.7717 100.388 24.7561C100.372 24.7404 100.341 24.7092 100.326 24.6935C100.31 24.6779 100.294 24.6623 100.279 24.6466C100.263 24.631 100.247 24.631 100.247 24.6154C100.232 24.5998 100.2 24.5685 100.185 24.5529C100.169 24.5372 100.154 24.5216 100.138 24.506C100.122 24.4903 100.107 24.4747 100.091 24.4747C100.075 24.4591 100.044 24.4435 100.029 24.4122C100.013 24.3966 99.9973 24.3966 99.9973 24.3809C99.9817 24.3653 99.966 24.3497 99.9348 24.334C99.9191 24.3184 99.8879 24.3028 99.8722 24.2872C99.8566 24.2872 99.8566 24.2715 99.841 24.2715C99.8097 24.2559 99.7941 24.2403 99.7628 24.209C99.7472 24.1934 99.7316 24.1777 99.7003 24.1621C99.7003 24.1621 99.6847 24.1621 99.6847 24.1465C99.6378 24.1152 99.5909 24.084 99.544 24.0527C99.4971 24.0214 99.4502 23.9902 99.4033 23.9746C99.3877 23.9746 99.3877 23.9589 99.3721 23.9589L56.3997 2.39413C56.3684 2.3785 56.3215 2.34724 56.2903 2.33161C56.2747 2.33161 56.259 2.31598 56.2434 2.31598C56.2278 2.30035 56.2121 2.30035 56.1809 2.28472C56.1652 2.28472 56.1496 2.26909 56.134 2.26909C56.1027 2.25346 56.0871 2.25346 56.0558 2.23783C56.0402 2.23783 56.0246 2.2222 56.0089 2.2222C56.0089 2.2222 55.9933 2.2222 55.9933 2.20657C55.9464 2.19094 55.8995 2.15968 55.8526 2.14405H55.837C55.7901 2.12842 55.7589 2.11279 55.712 2.09716H55.6963C55.6807 2.09716 55.6651 2.08153 55.6495 2.08153C55.6338 2.08153 55.6026 2.0659 55.5869 2.0659C55.5713 2.0659 55.5557 2.0659 55.5557 2.05027C55.5401 2.05027 55.5088 2.03464 55.4932 2.03464C55.4775 2.03464 55.4619 2.01901 55.4463 2.01901C55.4306 2.01901 55.415 2.01901 55.3994 2.00338C55.3837 2.00338 55.3525 1.98775 55.3369 1.98775C55.3212 1.98775 55.3212 1.98775 55.3056 1.98775C55.29 1.98775 55.2587 1.98775 55.2431 1.97212C55.2275 1.97212 55.1962 1.95649 55.1806 1.95649H55.1649C55.1493 1.95649 55.118 1.95649 55.1024 1.95649C55.0712 1.95649 55.0555 1.95649 55.0243 1.95649H55.0086C54.993 1.95649 54.9774 1.95649 54.9617 1.95649C54.9305 1.95649 54.8992 1.95649 54.868 1.95649H54.8523C54.8367 1.95649 54.8211 1.95649 54.8211 1.95649C54.7898 1.95649 54.7429 1.95649 54.7117 1.95649C54.696 1.95649 54.696 1.95649 54.6804 1.95649C54.6648 1.95649 54.6648 1.95649 54.6491 1.95649C54.6023 1.95649 54.5397 1.97212 54.4928 1.97212V1.93115C54.515 2.00969 54.4424 1.95611 54.4424 1.97174C54.4112 1.97174 54.3487 1.98737 54.3487 1.98737C54.3487 1.98737 54.3174 2.003 54.3018 2.003C54.2862 2.003 54.2549 2.01863 54.2393 2.01863H54.2236C54.1924 2.03426 54.1498 2.01901 54.1299 2.04989C54.1214 2.06301 54.0053 2.09755 54.0329 2.05027C53.986 2.0659 53.9862 2.04989 53.9549 2.06552C53.9549 2.06552 43.7137 3.20978 41.8047 3.40882C41.603 3.42985 41.4974 3.58373 41.5019 3.58075C41.5019 3.58075 41.5758 3.5374 41.6269 3.51823L41.6738 3.5026C41.7051 3.48697 41.7732 3.59638 41.8044 3.59638C41.8357 3.58075 41.8513 3.58075 41.8826 3.56512C41.8982 3.56512 41.9138 3.54949 41.9295 3.54949C41.9607 3.53386 41.992 3.53386 42.0233 3.53386C42.0389 3.53386 42.0545 3.53386 42.0545 3.51823H42.0701C42.117 3.5026 42.1795 3.5026 42.2264 3.5026C42.2421 3.5026 42.2577 3.5026 42.289 3.5026C42.3202 3.5026 41.7575 3.39319 41.7888 3.39319C41.8044 3.39319 41.8357 3.39319 41.8513 3.39319C41.8701 3.39319 41.8889 3.39319 41.9077 3.39319C41.9202 3.39319 41.9326 3.39319 41.9451 3.39319C41.9607 3.39319 41.992 3.39319 42.0076 3.39319C42.0389 3.39319 42.0545 3.39319 42.0858 3.39319C42.117 3.39319 42.1327 3.39319 42.1639 3.40882C42.1795 3.40882 42.1639 3.33799 42.2264 3.42445C42.2577 3.42445 42.289 3.44008 42.3202 3.44008C42.3358 3.44008 42.3671 3.45571 42.3827 3.45571C42.414 3.45571 42.4453 3.47134 42.4765 3.48697C42.4921 3.48697 42.5234 3.5026 42.539 3.5026C42.5703 3.51823 42.6016 3.51823 42.6484 3.53386C42.6641 3.53386 42.6797 3.54949 42.6953 3.54949C42.7422 3.56512 42.7891 3.58075 42.836 3.59638H42.8516C42.8985 3.61201 42.961 3.64327 43.0079 3.6589C43.0236 3.6589 43.0392 3.67453 43.0548 3.67453C43.0861 3.69016 43.133 3.70579 43.1642 3.73705C43.1799 3.75268 43.1955 3.75268 43.2268 3.76831C43.2736 3.79957 43.3205 3.8152 43.3831 3.84646L88.7437 30.1015C88.8062 30.1328 88.8531 30.164 88.9157 30.2109C88.9625 30.2422 89.0251 30.2734 89.0719 30.3203C89.0876 30.336 89.1032 30.3516 89.1345 30.3672C89.1657 30.3985 89.2126 30.4141 89.2439 30.4454C89.2595 30.461 89.2908 30.4766 89.3064 30.4923C89.3377 30.5235 89.3689 30.5391 89.4002 30.5704C89.4158 30.586 89.4471 30.6017 89.4627 30.6329C89.494 30.6642 89.5252 30.6798 89.5565 30.7111C89.5721 30.7267 89.6034 30.758 89.619 30.7736C89.6503 30.8049 89.6815 30.8205 89.7128 30.8517C89.7284 30.8674 89.7597 30.8986 89.7753 30.9143C89.8066 30.9455 89.8378 30.9768 89.8691 30.9924C89.8847 31.0081 89.916 31.0393 89.9316 31.0549C89.9629 31.0862 89.9941 31.1175 90.0254 31.1487C90.041 31.1644 90.0566 31.1956 90.0879 31.2112C90.1192 31.2581 90.166 31.2894 90.1973 31.3363C90.2129 31.3519 90.2129 31.3675 90.2286 31.3675C90.2755 31.4144 90.3223 31.477 90.3692 31.5395C90.3849 31.5551 90.4005 31.5707 90.4161 31.5864C90.4474 31.6333 90.4786 31.6645 90.5099 31.7114C90.5568 31.7583 90.5881 31.8208 90.6349 31.8677C90.6506 31.8833 90.6506 31.899 90.6662 31.899C90.7287 31.9927 90.7912 32.0865 90.8538 32.1803C90.8694 32.1959 90.8694 32.2116 90.885 32.2272C90.9632 32.3522 91.0413 32.4617 91.1195 32.5867C91.1351 32.6023 91.1351 32.618 91.1507 32.6336C91.1976 32.7274 91.2445 32.8055 91.307 32.8993C91.3227 32.9306 91.3383 32.9618 91.3539 32.9931C91.3696 33.0243 91.3852 33.0556 91.4008 33.1025C91.4321 33.1494 91.4477 33.1963 91.4633 33.2432C91.479 33.2588 91.479 33.2744 91.4946 33.2901C91.5259 33.3526 91.5571 33.4151 91.5884 33.4776C91.5884 33.4932 91.604 33.5089 91.604 33.5245C91.6196 33.5714 91.6509 33.6183 91.6665 33.6652C91.6822 33.6808 91.6822 33.7121 91.6978 33.7277C91.7134 33.7746 91.729 33.8215 91.7447 33.8684C91.7447 33.884 91.7603 33.9153 91.7603 33.9309C91.7759 33.9934 91.8072 34.0403 91.8228 34.1028C91.8228 34.1185 91.8385 34.1185 91.8385 34.1341C91.8541 34.1966 91.8853 34.2591 91.901 34.3373C91.901 34.3529 91.9166 34.3842 91.9166 34.3998C91.9322 34.4467 91.9479 34.4936 91.9635 34.5405C91.9635 34.5717 91.9791 34.5874 91.9791 34.6186C91.9948 34.6655 91.9948 34.6968 92.0104 34.7437C92.0104 34.7749 92.026 34.7906 92.026 34.8218C92.0416 34.8687 92.0416 34.9156 92.0573 34.9468C92.0573 34.9781 92.0729 34.9937 92.0729 35.025C92.0885 35.0719 92.0885 35.1344 92.1042 35.1813C92.1042 35.1969 92.1042 35.2126 92.1042 35.2126C92.1198 35.2751 92.1198 35.3376 92.1354 35.4001C92.1354 35.4158 92.1354 35.4314 92.1354 35.447C92.1354 35.4939 92.1511 35.5408 92.1511 35.5877C92.1511 35.6033 92.1511 35.6346 92.1511 35.6502C92.1511 35.6971 92.1511 35.744 92.1667 35.7752C92.1667 35.7909 92.1667 35.8221 92.1667 35.8378C92.1667 35.9003 92.1667 35.9628 92.1667 36.0253L91.6367 134.69C91.6367 134.752 91.6367 134.815 91.6367 134.877C91.6367 134.893 91.6367 134.909 91.6367 134.924C91.6367 134.971 91.6367 135.002 91.6211 135.049C91.6211 135.081 91.6211 135.096 91.6211 135.127C91.6211 135.159 91.6055 135.19 91.6055 135.237C91.6055 135.268 91.6055 135.284 91.5899 135.315C91.5899 135.346 91.5742 135.377 91.5742 135.409C91.5742 135.44 91.5586 135.471 91.5586 135.487C91.5586 135.518 91.543 135.549 91.543 135.565C91.543 135.596 91.5273 135.628 91.5117 135.659C91.5117 135.69 91.4961 135.706 91.4961 135.737C91.4804 135.768 91.4804 135.815 91.4648 135.846C91.4648 135.862 91.4492 135.893 91.4492 135.909C91.4336 135.971 91.4023 136.034 91.371 136.081C91.3554 136.128 91.3241 136.175 91.3085 136.206C91.3085 136.222 91.2929 136.221 91.2929 136.237C91.2773 136.268 91.2616 136.3 91.2304 136.331C91.1991 136.393 91.1522 136.44 91.121 136.487C91.1053 136.503 91.1053 136.503 91.0897 136.518C91.0584 136.565 91.0115 136.612 90.9647 136.644C90.9647 136.644 90.9647 136.659 90.949 136.659C90.9021 136.706 90.8552 136.737 90.8083 136.784C90.7927 136.8 90.7927 136.8 90.7771 136.815C90.7302 136.847 90.4686 136.925 90.6208 136.925L101.466 130.743C101.513 130.711 101.576 130.68 101.623 130.633C101.638 130.618 101.638 130.618 101.654 130.602C101.701 130.571 101.748 130.524 101.795 130.477C101.795 130.477 101.795 130.461 101.81 130.461C101.857 130.414 101.889 130.383 101.935 130.336C101.951 130.321 101.951 130.321 101.967 130.305C102.014 130.258 102.045 130.211 102.076 130.149C102.092 130.117 102.107 130.086 102.123 130.055C102.123 130.039 102.139 130.039 102.139 130.024C102.154 129.977 102.185 129.945 102.201 129.899C102.232 129.836 102.248 129.789 102.279 129.727V129.711C102.279 129.695 102.295 129.68 102.295 129.664C102.311 129.633 102.326 129.586 102.326 129.555C102.326 129.539 102.326 129.539 102.342 129.523C102.342 129.508 102.342 129.492 102.357 129.477C102.373 129.445 102.373 129.414 102.389 129.383C102.389 129.367 102.389 129.352 102.404 129.336C102.404 129.32 102.404 129.305 102.42 129.289C102.42 129.258 102.436 129.242 102.436 129.211C102.436 129.195 102.436 129.18 102.451 129.164C102.451 129.148 102.451 129.133 102.451 129.117C102.451 129.086 102.451 129.07 102.467 129.039C102.467 129.023 102.467 129.008 102.467 128.992C102.467 128.976 102.467 128.945 102.467 128.93C102.467 128.914 102.467 128.883 102.467 128.851C102.467 128.836 102.467 128.836 102.467 128.82C102.467 128.789 102.467 128.758 102.467 128.726C102.467 128.711 102.467 128.695 102.467 128.679V128.664C102.467 128.617 102.467 128.554 102.467 128.492C102.467 128.492 102.467 128.492 102.467 128.476L102.607 79.156L102.748 29.8358C102.764 29.8202 102.764 29.7576 102.764 29.7108Z" fill="url(#paint0_linear)"/>
<path d="M88.7435 30.0868C90.6347 31.1809 92.182 33.8536 92.1664 36.0262L91.8851 134.667C91.8851 136.839 90.3221 137.73 88.4309 136.636L43.3541 110.612C41.4629 109.518 39.9155 106.845 39.9311 104.673L40.2125 6.0323C40.2125 3.85974 41.7755 2.96883 43.6667 4.06293L88.7435 30.0868Z" fill="url(#paint1_linear)"/>
<path d="M91.885 134.45L91.8068 135.201L91.6036 135.826L91.291 136.326L90.869 136.67L90.3532 136.857L89.7749 136.873L89.1341 136.732L88.4307 136.42L43.354 110.396L42.6663 109.911L42.0254 109.317L41.4471 108.614L40.9313 107.833L40.5093 107.004L40.1967 106.145L39.9936 105.285L39.931 104.457L40.2124 5.81595L40.2905 5.06571L40.4937 4.44052L40.8063 3.94036L41.2283 3.5965L41.7441 3.40894L42.3224 3.39331L42.9789 3.53398L43.6666 3.84658L88.7433 29.8704L89.4311 30.355L90.0719 30.9489L90.6502 31.6522L91.166 32.4337L91.588 33.2621L91.9006 34.1218L92.1038 34.9814L92.1663 35.8098L91.885 134.45Z" fill="url(#paint2_linear)"/>
<path d="M90.9194 134.919L90.8413 135.67L90.6381 136.295L90.3255 136.795L89.9035 137.139L89.3877 137.326L88.8094 137.342L88.1686 137.201L87.4652 136.889L42.3885 110.865L41.7008 110.38L41.0599 109.786L40.4816 109.083L39.9658 108.302L39.5438 107.473L39.2312 106.614L39.028 105.754L38.9655 104.926L39.2469 6.28495L39.325 5.53471L39.5282 4.90951L39.8408 4.40935L40.2628 4.06549L40.7786 3.87793L41.3569 3.8623L42.0134 4.00297L42.7011 4.31557L87.7778 30.3394L88.4655 30.824L89.1064 31.4179L89.6847 32.1212L90.2005 32.9027L90.6225 33.7311L90.9351 34.5908L91.1383 35.4504L91.2008 36.2788L90.9194 134.919Z" fill="url(#paint3_linear)"/>
<path d="M82.3821 35.1028C83.7575 35.8999 84.8829 37.838 84.8829 39.4323L84.6797 111.189C84.6797 112.768 83.5387 113.409 82.1632 112.627L49.3716 93.6838C47.9962 92.8867 46.8708 90.9486 46.8708 89.3543L47.074 17.5816C47.074 16.003 48.215 15.3622 49.5904 16.1437L82.3821 35.1028Z" fill="url(#paint4_linear)"/>
<path d="M65.4235 114.018C65.4235 116.8 63.4854 117.816 61.0784 116.284C58.6557 114.753 56.7332 111.298 56.7332 108.547C56.7332 105.797 58.6714 104.749 61.0784 106.281C63.4854 107.766 65.4235 111.236 65.4235 114.018Z" fill="url(#paint5_linear)"/>
<path d="M63.8922 21.2399L70.0347 25.0223C70.1754 25.0848 70.3317 24.9911 70.3473 24.8348L70.4567 23.4906C70.4567 23.3968 70.4099 23.3186 70.3317 23.2718L64.2048 19.5049C64.0641 19.4424 63.9078 19.5362 63.8922 19.6925L63.7828 21.0367C63.7671 21.1148 63.814 21.193 63.8922 21.2399Z" fill="white"/>
<path opacity="0.91" d="M55.2487 71.5302L54.4138 46.3447L58.9226 49.3658L59.7575 74.5512L55.2487 71.5302Z" fill="white"/>
<path opacity="0.91" d="M77.2918 74.7178C75.713 76.9343 73.1625 75.4769 70.5514 73.7311L67.5303 71.712L67.8036 79.9553L63.2796 76.9191L62.4447 51.7336L71.4015 57.7302C73.117 58.8839 74.7414 60.2502 76.1836 62.8462C76.3657 63.1802 76.7149 63.8026 77.0489 64.6376C77.4588 65.7154 78.1419 67.9471 78.2178 70.4368C78.2178 71.2565 78.2178 73.3819 77.2918 74.7178ZM73.1473 64.7894C72.3883 62.9221 71.0827 62.0416 70.0049 61.3281L67.1053 59.3849L67.3634 67.021L70.096 68.8579C70.8854 69.3893 71.2194 69.617 71.6292 69.784C73.2081 70.4975 73.8001 69.5563 73.709 67.4005C73.6787 66.1861 73.3902 65.4118 73.1473 64.7894Z" fill="white"/>
</g>
<defs>
<linearGradient id="paint0_linear" x1="71.2796" y1="-32.3784" x2="81.3515" y2="105.697" gradientUnits="userSpaceOnUse">
<stop stop-color="#6F7B9C"/>
<stop offset="0.2624" stop-color="#637096"/>
<stop offset="0.3352" stop-color="#637095"/>
<stop offset="0.3997" stop-color="#455173"/>
<stop offset="0.4344" stop-color="#404C6B"/>
<stop offset="0.479872" stop-color="#4E5471"/>
<stop offset="0.587742" stop-color="#3A3F5A"/>
<stop offset="0.674693" stop-color="#30364E"/>
<stop offset="0.738539" stop-color="#2C3046"/>
<stop offset="0.903721" stop-color="#2C3046"/>
</linearGradient>
<linearGradient id="paint1_linear" x1="39.9311" y1="70.3496" x2="92.1665" y2="70.3496" gradientUnits="userSpaceOnUse">
<stop offset="0.995" stop-color="#353C4D"/>
</linearGradient>
<linearGradient id="paint2_linear" x1="39.931" y1="70.1332" x2="92.1663" y2="70.1332" gradientUnits="userSpaceOnUse">
<stop stop-color="#7583A9"/>
<stop offset="0.995" stop-color="#404F75"/>
</linearGradient>
<linearGradient id="paint3_linear" x1="38.9655" y1="70.6022" x2="91.2008" y2="70.6022" gradientUnits="userSpaceOnUse">
<stop stop-color="#55658E"/>
<stop offset="0.3168" stop-color="#5B6A93"/>
<stop offset="0.995" stop-color="#394564"/>
</linearGradient>
<linearGradient id="paint4_linear" x1="46.8746" y1="64.3923" x2="84.8812" y2="64.3923" gradientUnits="userSpaceOnUse">
<stop offset="1" stop-color="#2ED8CF"/>
</linearGradient>
<linearGradient id="paint5_linear" x1="56.7201" y1="111.288" x2="65.4199" y2="111.288" gradientUnits="userSpaceOnUse">
<stop offset="1" stop-color="#2ED8CF"/>
</linearGradient>
<clipPath id="clip0">
<rect x="38" width="64.6897" height="140" fill="white"/>
</clipPath>
</defs>
</svg>
