<svg width="140" height="140" viewBox="0 0 140 140" fill="none" xmlns="http://www.w3.org/2000/svg">
<g clip-path="url(#clip0)">
<path d="M13.077 41.6497V100.85C13.077 103.378 14.4005 105.713 16.5419 107.022L62.8348 137.804C67.653 140.734 73.6757 140.734 78.4938 137.804L122.972 107.022C125.114 105.698 126.437 103.364 126.437 100.85V42.1999L13.077 41.6497Z" fill="url(#paint0_linear)"/>
<path d="M13.077 42.1985V100.849C13.077 103.377 14.4005 105.712 16.5419 107.02L62.8348 137.803C67.653 140.733 73.6757 140.733 78.4938 137.803L122.972 107.02C125.114 105.697 126.437 103.362 126.437 100.849V42.1985H13.077Z" fill="url(#paint1_linear)"/>
<path d="M124.135 48.7688L78.7939 76.488C73.7973 79.5365 67.5069 79.5365 62.5103 76.488L14.6411 47.2371C12.2767 45.7946 12.5146 42.2702 15.0724 41.1698L65.5143 19.5773C68.8007 18.1795 72.5035 18.1795 75.7751 19.5773L123.496 39.995C127.198 41.5862 127.57 46.6868 124.135 48.7688Z" fill="url(#paint2_linear)"/>
<path d="M124.133 47.0003L78.7915 74.7196C73.7949 77.7681 67.5045 77.7681 62.5079 74.7196L14.6387 45.4686C12.2743 44.0262 12.5122 40.5018 15.07 39.4013L65.5118 17.8089C68.7983 16.411 72.5011 16.411 75.7727 17.8089L123.493 38.2265C127.196 39.8177 127.568 44.9184 124.133 47.0003Z" fill="url(#paint3_linear)"/>
<path d="M90.2419 117.484C90.2419 117.32 90.322 117.167 90.4565 117.073L90.6759 116.921C91.0074 116.69 91.4613 116.928 91.4613 117.331V121.72C91.4613 121.884 91.3811 122.037 91.2466 122.13L91.0272 122.283C90.6957 122.513 90.2419 122.276 90.2419 121.872V117.484ZM93.0524 119.964C93.0524 120.365 93.5025 120.603 93.8344 120.376L94.0538 120.227C94.1902 120.133 94.2718 119.979 94.2718 119.814V115.398C94.2718 114.994 93.818 114.757 93.4865 114.988L93.267 115.14C93.1326 115.234 93.0524 115.387 93.0524 115.551V119.964ZM95.863 118.03C95.863 118.432 96.3131 118.67 96.645 118.443L96.8644 118.293C97.0008 118.2 97.0824 118.046 97.0824 117.88V113.435C97.0824 113.031 96.6286 112.794 96.297 113.025L96.0776 113.177C95.9432 113.271 95.863 113.424 95.863 113.588V118.03ZM98.6736 116.127C98.6736 116.529 99.1237 116.766 99.4556 116.54L99.675 116.39C99.8114 116.297 99.893 116.142 99.893 115.977V111.502C99.893 111.098 99.4392 110.861 99.1076 111.091L98.8882 111.244C98.7538 111.337 98.6736 111.491 98.6736 111.655V116.127ZM101.469 114.194C101.469 114.596 101.919 114.833 102.251 114.607L102.471 114.457C102.607 114.364 102.689 114.209 102.689 114.044V109.539C102.689 109.135 102.235 108.898 101.903 109.128L101.684 109.281C101.549 109.374 101.469 109.528 101.469 109.692V114.194ZM104.28 112.26C104.28 112.662 104.73 112.9 105.062 112.673L105.281 112.524C105.418 112.43 105.499 112.276 105.499 112.111V107.576C105.499 107.172 105.045 106.935 104.714 107.166L104.495 107.318C104.36 107.412 104.28 107.565 104.28 107.729V112.26ZM107.091 110.357C107.091 110.759 107.541 110.997 107.872 110.77L108.092 110.62C108.228 110.527 108.31 110.372 108.31 110.207V105.643C108.31 105.239 107.856 105.002 107.525 105.232L107.305 105.385C107.171 105.478 107.091 105.632 107.091 105.795V110.357ZM109.901 108.439C109.901 108.841 110.351 109.078 110.683 108.852L110.902 108.702C111.039 108.609 111.12 108.454 111.12 108.289V103.68C111.12 103.276 110.667 103.039 110.335 103.269L110.116 103.422C109.981 103.515 109.901 103.669 109.901 103.832V108.439ZM112.697 106.505C112.697 106.907 113.147 107.145 113.479 106.918L113.698 106.768C113.835 106.675 113.916 106.521 113.916 106.356V101.732C113.916 101.328 113.462 101.091 113.131 101.321L112.911 101.474C112.777 101.567 112.697 101.721 112.697 101.884V106.505ZM115.725 99.526C115.589 99.6192 115.507 99.7737 115.507 99.9389V104.587C115.507 104.989 115.957 105.227 116.289 105L116.509 104.85C116.645 104.757 116.727 104.602 116.727 104.437V99.7891C116.727 99.3872 116.277 99.1495 115.945 99.3762L115.725 99.526Z" fill="#2FAAAF"/>
<path d="M60.0094 131.602C59.2659 131.602 58.5372 131.364 57.8977 130.933L20.7504 106.218C17.9101 104.24 16.2148 100.954 16.2148 97.4143V57.9471C16.2148 55.8652 17.8506 54.1699 19.8582 54.1699C20.5125 54.1699 21.1668 54.3632 21.7319 54.7201L59.6228 77.7402C62.1954 79.3611 63.7866 82.2907 63.7866 85.3987V127.647C63.8163 130.1 61.8385 131.602 60.0094 131.602Z" fill="#2CD8CF"/>
<path d="M116.439 46.7722L77.354 70.6791C73.0484 73.3094 67.6203 73.3094 63.3147 70.6791L41.6192 57.4273L22.0011 45.4487C19.9572 44.209 20.175 41.1599 22.3697 40.2217L65.878 21.6088C68.7093 20.4025 71.9091 20.4025 74.7237 21.6088L105.751 34.8774L115.887 39.2165C119.103 40.5735 119.405 44.9796 116.439 46.7722Z" fill="url(#paint4_linear)" stroke="#24DEDE" stroke-miterlimit="10"/>
<path d="M103.559 33.5033C103.559 51.9284 88.5716 66.9733 70.1024 66.9733C61.7133 66.9733 54.0205 63.8583 48.1183 58.7218C41.0887 52.558 36.6455 43.5443 36.6455 33.5033C36.6455 32.9399 36.6455 32.4097 36.6787 31.8795C36.6787 31.747 36.6787 31.5813 36.7118 31.4487C36.745 30.8853 36.7781 30.2889 36.8776 29.7255C37.0103 28.6651 37.176 27.6378 37.375 26.5773C37.4413 26.2459 37.5408 25.8814 37.6071 25.55C37.7066 25.1192 37.8392 24.6884 37.9387 24.2908C38.4029 22.667 38.9998 21.1095 39.6629 19.6182C39.9282 19.0549 40.2266 18.4915 40.4919 17.9281C40.4919 17.895 40.525 17.8619 40.5582 17.8287C40.5914 17.7624 40.6245 17.663 40.6908 17.5968C40.6908 17.5636 40.724 17.5636 40.724 17.5305C41.2545 16.5695 41.7851 15.6747 42.4151 14.78C43.244 13.5538 44.1393 12.394 45.1341 11.3004C45.3993 11.0022 45.6646 10.7039 45.9299 10.4057C46.3278 9.97486 46.7588 9.54406 47.1899 9.1464C47.6541 8.71559 48.1515 8.28479 48.6489 7.85399C49.7099 6.95925 50.8373 6.13078 52.031 5.36859C52.0973 5.33545 52.1636 5.30231 52.23 5.23604C53.7221 4.27501 55.3137 3.44655 56.9385 2.75064C57.1043 2.68436 57.27 2.61808 57.4027 2.55181C57.4358 2.55181 57.469 2.51867 57.5022 2.51867C58.5301 2.121 59.5911 1.72334 60.6522 1.42509C61.1496 1.2594 61.647 1.12684 62.1775 1.02743C62.3764 0.96115 62.5754 0.928011 62.8075 0.861734C64.8302 0.397793 66.9191 0.132684 69.1076 0.0664062C69.2734 0.0664062 69.4392 0.0664062 69.6381 0.0664062C69.8039 0.0664062 69.9697 0.0664062 70.1355 0.0664062C79.1214 0.0664062 87.2784 3.61224 93.2801 9.37837C99.6133 15.4427 103.559 24.0256 103.559 33.5033Z" fill="url(#paint5_radial)"/>
<path d="M56.0097 56.0702V55.8713L55.9434 55.6394L56.0097 55.5731V55.4405L55.9434 55.3411V55.1754L55.8108 55.1091L55.7445 55.2086V55.3743L55.5787 55.5731H55.5455L55.4792 55.7056L55.5455 55.7719L55.4129 55.9045V56.0702L55.1808 56.3021L55.1145 56.2359L54.9818 56.3684L54.9155 56.5341L54.6834 56.6335L54.5176 56.8324H54.2855L54.2192 56.7661L54.186 56.8324H53.8876L53.7881 56.9318L53.7218 56.8655L53.6223 56.9318H53.556L53.6223 56.9981L53.4565 57.1637L53.2908 57.3626L53.4234 57.5283L53.3239 57.5945L53.3571 57.6277V57.7934L53.4234 58.0585L53.4897 58.191V58.2573V58.3236V58.3899L53.3902 58.6881L53.3239 58.7544L53.2576 58.9864H53.2244L53.1581 59.0527V59.2183L53.0255 59.3509L52.926 59.384V59.5166L52.7934 59.6491V59.9143L52.9592 60.1131L52.926 60.1794H52.9923V60.4445L52.8929 60.5107V60.7759L52.9592 60.8421L53.0255 60.9084L53.0918 61.0078L53.1913 60.9747L53.2576 61.0741L53.3902 61.2067H53.556L53.6223 61.1735L53.6887 61.041L54.0866 61.0078H54.186L54.2523 60.9747L54.3187 60.9084L54.385 60.809L54.4513 60.6764V60.5439L54.5176 60.4776L54.385 60.3451L54.5839 60.2125V59.9805H54.7497V59.9474L54.816 59.6491L54.8824 59.4835V59.4172L54.9487 59.1852L55.1145 59.0195L55.2471 58.5887L55.3134 58.4893V58.3567L55.3797 58.191L55.4129 58.0916L55.5124 57.9259L55.5787 57.694L55.645 57.4951L55.6782 57.4289L55.7113 57.3626L55.645 57.2963V57.0643L55.8108 56.9318V56.8655L55.8771 56.7992L55.7445 56.6667L55.8108 56.6004V56.1696H56.1424L56.2087 56.2359L56.0097 56.0702ZM48.2838 58.8538L48.3502 58.9201V58.887C48.317 58.887 48.2838 58.8538 48.2838 58.8538ZM48.3502 58.9201L48.317 59.0195L48.3833 58.9532L48.3502 58.9201ZM56.8055 43.8751L56.7061 43.7757L56.7724 43.61L56.6729 43.5106L56.7392 43.4443H56.5071L56.4408 43.5106L56.3082 43.5769L56.1755 43.7095L56.1092 43.6432L55.9766 43.7095L55.645 43.7757H55.5124L55.4461 43.7095H55.3797L55.2471 43.7757H55.1145L54.9818 43.842L54.8824 43.7757H54.8492L54.5508 43.9746L54.3518 44.0408H54.2855H53.9871L53.8544 44.1071H53.755L53.6887 44.1734L53.6223 44.2397L53.4234 44.306L53.2244 44.2397L53.1581 44.1734H53.0918L53.0255 44.0077L52.7271 43.6763L52.6607 43.7095H52.5613L52.1634 43.3118H52.5944L52.6607 43.2124H52.7271L52.7602 43.1792V43.113L52.7271 43.0798L52.5613 43.0135H52.4286L52.296 42.6822L52.2297 42.6159L52.1634 42.4833H52.0971L51.9644 42.3508L51.8649 42.2845L51.7323 42.1519L51.5665 41.9862L51.4339 41.92L51.3676 41.8537L51.3012 41.92L51.2349 41.8537L51.1686 41.92L51.1023 41.8537L50.7044 41.688L50.6381 41.5223L50.6049 41.456L50.5386 41.3898V41.3235H50.4723L50.3397 40.8264L50.1739 40.3293L49.8091 39.9648H50.0081V39.7991L49.8754 39.7328L49.7096 39.6665L49.5439 39.4346L49.4775 39.1363L49.5107 38.9706L49.4775 38.8049L49.3449 38.4073V38.2084V38.1422L49.2786 38.0759L49.2123 38.0096V37.9433L49.146 37.8771V37.7776H49.1128L48.9138 37.6119L48.7481 37.5457V37.4794H48.6486L48.4496 37.3137L48.2838 36.916L48.3502 36.8498L48.317 36.8166V36.7503L48.2507 36.6841L48.1844 36.5184L48.0186 36.3195L47.8859 36.2533L47.8196 36.0876L47.488 35.5905V35.4248L47.4549 35.3585L47.4217 35.1928L47.3554 35.1265V35.0934L47.1896 34.9277V34.7289L47.2228 34.6626L46.9575 34.3975L46.8912 34.2649L46.6922 33.9998V33.9004L46.5928 33.7679V33.569L46.7917 33.3371L46.8249 33.3702L46.7585 33.1714L46.6591 33.1051L46.5928 32.9725H46.2612L46.0954 33.0388L46.0291 32.9725L45.9627 33.0388L45.8301 33.1051L45.6643 33.2708H45.399L45.2333 33.1714H45.2664L45.1338 33.1051L45.0675 33.1714L44.8685 33.0057L44.7359 32.9725L44.338 32.9063H44.2053L44.0396 33.0719L43.9069 32.7406L43.8406 32.6743L43.7743 32.7074L43.3764 32.6411L43.3432 32.608H43.2769V32.7406L42.9453 32.5417H42.879L42.7132 32.5086L42.6801 32.5417L42.5143 32.4755L42.4148 32.5417L42.1495 32.608L41.9837 32.6743L41.9174 32.7406L41.8511 32.8731L41.8179 32.9063V33.0719L41.8843 33.1714L41.9506 33.4365L41.8843 33.6022L41.6853 33.801L41.4864 33.9667L41.2874 34.033L40.9558 33.8673L40.7569 33.7016L40.6242 33.6353L40.4253 33.569L40.0937 33.4365H40.0274H39.729L39.4969 33.2708L39.3311 32.8731V32.7406L39.2979 32.6743L39.0658 32.6411L38.9 32.5417H38.6679L38.5353 32.5086L38.2037 32.5417L37.8721 32.4755L37.7395 32.3429H37.6731H37.64L37.4742 32.1772L37.441 32.1441L37.3747 32.2103L37.2089 32.0447H37.1758L36.9105 31.879L36.8773 31.8127C36.8442 32.3429 36.8442 32.9063 36.8442 33.4365C36.8442 43.4775 41.2874 52.5243 48.317 58.655V58.6218L48.2507 58.4562L48.317 58.3899L48.2838 58.3567V58.0916H48.5159H48.5491H48.5823V58.0253L48.9802 57.7602H49.0465L49.0796 57.7271V57.6608L49.2786 57.5283L49.3117 57.462L49.3449 57.4289L49.5107 56.9318L49.5439 57.0312V56.8986L49.776 57.1306L49.8754 57.0643H49.9086V56.8986L50.1739 56.9981L50.3397 56.8986L50.3728 56.8324H50.5718L50.7707 56.7329V56.5672H50.9697V56.501L51.0028 56.4347L50.837 56.269L51.0028 56.1033L51.1355 55.9708V55.8713V55.8051H51.1023L50.9697 55.6725V55.5068L50.8039 55.3411H51.1023V55.2417L51.036 55.076L51.1023 55.0097L51.0691 54.9766V54.7115L51.0028 54.4464V54.2807L51.0691 54.2144L51.0028 54.1481L51.1355 54.0156V53.9824L51.1023 53.9493L50.9697 53.883L50.7044 53.6179L50.7707 53.4522V53.4191L50.6712 53.3197L50.7376 53.1871L50.7044 53.1208L50.406 52.8226H50.8039L50.7376 52.7232L50.8039 52.6569L50.7376 52.5906V52.3255L50.8039 52.1598L50.8702 52.0935L50.837 51.9278L50.7707 51.8616V51.6627L50.9033 51.4639L51.036 51.0994L50.7707 50.8343H51.2018L51.3344 50.6023L51.4007 50.4697V50.3372L51.5665 50.1715V49.9727L51.666 49.8732V49.807L51.7986 49.6744H51.9313H51.9976L52.1302 49.5419H52.1634L52.5613 49.0779V49.575L52.6276 49.4756L52.6939 49.343L52.8597 49.1773L52.926 49.1442L52.9592 49.0779L53.0255 49.0116L53.3239 48.6803L53.4234 48.614L53.755 48.2826L53.9208 48.15L54.0866 48.0175L54.2523 47.9512L54.4513 47.7855L54.9487 47.3216L55.2139 47.0233L55.2471 46.9239L55.5787 46.4931V46.4268L55.7445 46.1617V46.0292L56.0429 45.4658V45.3995V45.2338L56.2419 45.035H56.3082L56.3413 45.0019L56.4408 44.7699L56.6066 44.5379V44.4716H56.4076L56.8055 44.074H56.7392L56.8055 43.8751ZM83.1665 50.4697L83.1002 50.4035L83.067 50.3372L83.0007 50.2709L82.9344 50.304L82.6691 50.2046V50.0389L82.6028 49.9727L82.7354 49.9395L82.5696 49.8732V49.807V49.7407V49.7076L82.4038 49.7738V49.6744H82.2712L82.0391 49.4424V49.4093L81.4091 49.807L81.9396 49.0779H81.4423L81.6744 48.8459H81.608L81.3759 48.5808V48.4483L81.2433 48.3157L81.177 48.382L80.978 48.2163V48.1832L80.4143 47.9512H80.5138L80.2817 47.5535V47.421H80.1822L80.0828 47.2884L79.917 47.1227H79.7843L79.6517 46.9902H79.4196V46.6919H79.3533L79.3201 46.5594H79.287L79.2206 46.3937H79.1875L79.0217 46.46L78.9554 46.3937H78.9222L78.7564 46.46L78.5906 46.3937L78.3917 46.228L78.458 46.3937L78.5575 46.4268L78.7233 46.6257H78.7896L78.9222 46.7914L78.9885 46.7251L79.287 46.9239L79.4527 47.189L79.5522 47.2553H79.718V47.5204V47.5867H79.8506L79.9833 47.7855H80.0164H80.1822V47.9843H80.2154L80.2485 48.15V48.1832L80.348 48.4483V48.4814H80.4143L80.6465 48.6471V48.8128L80.7128 48.9454L80.8454 49.0779L80.9117 49.343L81.1107 49.6744L81.0443 49.8401L81.0775 49.9064L81.2101 49.9727L81.4091 50.2046L81.4423 50.304L81.6412 50.3372V50.4366L81.807 50.5029V50.6023H81.8733L82.0391 50.8011L82.3044 50.9668V51.0331H82.437L82.7354 51.3313H82.9012L82.9344 51.1656L83.1665 51.2319L83.2328 51.0331L83.1665 50.8674L83.2328 50.7017L83.1996 50.6686L83.1665 50.4697ZM90.0634 51.0662L89.9971 51.1325V51.2651L89.9308 51.3645V51.4639H89.9971V51.2651L90.0634 51.1988V51.1325V51.0994V51.0662ZM91.1245 51V50.9337H91.0582L90.9919 50.6686H90.8924L91.025 50.5029L90.9587 50.3372L90.8261 50.2046L90.7598 50.1052L90.6271 50.0058V49.8732L90.4613 49.807L90.3619 49.7738L90.1961 49.6081L90.0634 49.4424L89.9971 49.5419H89.9308L89.9971 49.6744L89.9308 49.807V49.9727L89.8977 50.0389V50.1715L89.8313 50.2378V50.4035L89.6655 50.4697V50.6354H89.964V50.8674L90.0634 51.0662L90.1961 50.8011L90.1629 50.7348L90.0966 50.6023V50.4366L90.2624 50.3372L90.3287 50.2709L90.594 50.1715L90.7598 50.3372L90.8592 50.5029V50.7348L90.7929 50.8011L90.8592 50.8674L91.0582 50.9668V51.1988L91.1245 51.1325H91.224L91.1245 51ZM88.6708 46.6919H88.7371V46.3937L89.0355 46.6257V46.3605L88.9029 46.1949H88.8697H88.7039V45.9629L88.5713 45.7972L88.505 45.8635H88.4387V45.9297H88.3724L88.306 46.0623V46.1949L88.0408 46.46L87.9745 46.6257H87.875H87.8087L87.4771 47.189V46.6257L87.3113 46.6588V46.6919V46.8245L87.0792 47.0565L86.9465 47.2222V47.2884L86.8139 47.4873L86.6481 47.6198L86.3497 47.6861L86.6813 48.1832L86.1507 47.9181V48.0506L86.0513 47.9843V48.1169L85.985 48.2826V48.4814L85.5539 48.4151L85.3881 48.3157H85.1892L85.1228 48.1832L85.0565 48.3489L84.9902 48.4151V48.5146V48.614V48.7134L85.0565 48.8459L85.1892 48.9785H85.2223L86.2171 48.4814L85.3881 49.343L85.4876 49.4756L85.5539 49.575V49.807L85.4876 49.8732L85.5539 49.9064V50.2378L85.6865 50.1384L85.7528 50.304H85.8192L85.8855 50.3703L86.0181 50.304H86.0513L86.2171 50.0721L86.3829 50.4035V50.5692L86.4823 50.5029L86.5486 50.5692L86.6481 50.536L86.6813 50.4035H86.9465L87.0129 50.4697H87.1455L87.2118 50.3703L87.3776 50.6023L87.5102 50.536L87.5434 50.6354H87.6097L87.7755 50.8343L87.7092 50.8674L87.8087 50.8343H87.9081L88.0076 50.768L88.0739 50.6023V50.2709L87.6097 50.4697L88.1071 49.9727L87.9081 49.7738H88.306L88.3724 49.7076L87.9413 49.4424H88.505V49.3762L88.6708 49.2436V49.0116L88.7371 48.9454V48.6803H88.8034L88.9361 48.5146L88.8697 48.15L88.6708 48.0506L88.9692 47.8518L88.8366 47.7192V47.6198L88.6708 47.4873L88.8034 47.3216L88.7039 47.1227L88.7371 47.0896L88.505 47.0233L88.8034 46.8576L88.6708 46.6919ZM93.3461 50.6354H93.2798H93.3793H93.3461ZM91.1245 49.5419H91.0582L90.9256 49.575L90.8592 49.5087L90.8261 49.5419L90.7598 49.6744H90.8592L90.9256 49.6081L91.1245 49.5419ZM90.7266 48.5808L90.6603 48.4814L90.5277 48.614H90.5608H90.6271L90.7598 48.5808H90.7266ZM81.9396 48.3489L81.9728 48.3157V48.2826L81.9396 48.3489ZM82.0391 48.0175L81.9728 47.9512V47.8849L81.9065 47.8186L81.8402 47.6861L81.5417 47.3878L81.7407 47.2553V47.1227L81.6744 47.0565V46.8245L81.7407 46.7582V46.4931V46.4268L81.6744 46.2943L81.3428 45.9629H81.0112V45.8635L80.9449 45.8303L80.8786 45.6646V45.5984H80.7128L80.5801 45.7309L80.2485 45.3995L80.0828 45.3664V45.035L80.2817 44.9687L80.2154 44.9024V44.7699H80.1491L80.0828 44.6705L79.9501 44.5379V44.4716L79.6185 44.5379L79.4527 44.3722L79.5191 44.2397L79.4527 44.1403V44.074L79.4196 43.9746L79.3533 44.1734L79.4196 44.2397L79.3533 44.306H79.4196V44.7036L79.5854 44.6373V44.8693L79.6517 44.9356V45.0019L79.718 45.035L79.7512 45.1676H79.7843L79.9501 45.3664L80.0164 45.3995L80.0496 45.4658H80.1491V45.6646L80.2817 45.7309L80.348 45.7972L80.4807 45.996L80.547 46.3937L80.5801 46.4931L80.6465 46.6588L80.5801 46.9239L80.7459 47.0896L80.6796 47.1559L80.7459 47.2222L80.8122 47.3216L80.9449 47.3878L81.0775 47.653L81.0112 47.7192L81.2765 48.0506L81.4423 47.9843L81.5086 48.0506H81.7738L81.608 48.1832L81.7075 48.2826L81.8733 48.3157L81.9396 48.3489V48.2163L82.1054 48.382V48.2826L82.0391 48.0175ZM80.9449 47.7192L80.8454 47.8186L80.8122 47.9512H80.978L80.9449 47.7192ZM80.5801 47.8849L80.5138 47.9512H80.6465L80.5801 47.8849ZM92.2187 45.5984V45.6315L92.2519 45.7309H92.3845L92.484 45.7972L92.2187 45.5984ZM71.5279 45.3001V45.2338L71.3953 44.9687V44.9356H71.2626V44.8693H70.8647L70.8316 45.035V45.1344L70.8979 45.3001L70.8647 45.3664L70.931 45.5321L70.9974 45.7972H71.0968L71.1631 45.764H71.3953L71.4616 45.7309L71.5279 45.6646L71.5942 45.5321L71.5279 45.3001ZM92.9151 44.8362L92.8487 44.6042L92.9151 44.4716L92.8487 44.4054V44.7368L92.683 44.6042L92.5503 44.7699L92.484 44.7036V44.7699L92.1856 44.9356L92.0198 45.0019L92.1856 45.1676L92.484 45.7309L92.5503 45.6646L92.4508 45.5984L92.5172 45.3995L92.683 45.1013L92.9151 45.035V44.8362ZM91.6882 44.7699V44.8362L91.7214 44.7699H91.6882ZM71.0305 44.6373V44.4385H70.9642V44.6042H70.8647V44.7699L71.0637 44.6373H71.0305ZM49.0796 8.88073L49.0133 8.84759V8.91387L49.1791 8.94701L49.0796 8.88073ZM49.4112 8.21796V8.15168L49.3449 8.11855L49.1791 7.95285V7.85344L49.0133 7.8203L48.8807 7.85344L49.0133 8.05227V8.11855L49.146 8.2511L49.0133 8.38365L49.0796 8.54935L48.947 8.58249V8.74818V8.78132L49.0465 8.81446V8.58249L49.1128 8.51621L49.0796 8.48307L49.2786 8.28424H49.4112V8.21796ZM94.2746 19.5514L94.4072 19.4188V19.3857L94.3409 19.2863V19.1537H94.3077L94.2414 18.7561L94.1751 18.6898V18.5241L94.0756 18.4247L93.9761 18.1927L94.0093 18.1596H93.9761L93.8435 17.7288V17.6293L93.8103 17.5631L93.744 17.2648L93.7772 17.2317L93.7109 17.0328L93.744 16.9666L93.6777 16.9003L93.744 16.834L93.6777 16.7677L93.6114 16.602L93.5451 16.5689L93.3793 16.4032V16.1712L93.4124 16.1381L93.3793 16.0718H93.2466L92.9814 15.8067L93.114 15.6742V15.6079V15.5416H93.0477L92.9814 15.4422H92.9151L92.8487 15.3759L92.6166 15.2765L92.5835 15.2434L92.4508 15.1771L92.3514 15.0777L92.3182 15.0114H92.1524L92.1193 14.9782L92.0861 15.0114H92.0198L92.0861 15.0777H91.9866V15.2102H91.9203L91.854 15.3428V15.3759L91.7877 15.4422L91.854 15.5085L91.7877 15.6742L91.4561 16.0055V15.873L91.1908 15.9393L91.1245 15.873V15.9061L90.7266 15.5747L90.7929 15.409V15.3428L90.6603 15.1771V14.9451L90.5608 14.9782L90.4282 15.1108H90.1961L90.1298 15.0445L90.0634 15.0777L89.8313 14.9782L89.7319 14.7463L89.8645 14.448L89.9308 14.3486V14.2161L90.0634 14.0835V13.9178L90.1961 13.8184V13.6527L90.2624 13.5864V13.5533L90.395 13.3876L90.4613 13.255L90.5277 13.1888L90.4613 13.0893L90.5277 13.0231V12.8905L90.594 12.4928H90.6603L90.6935 12.3272H90.7266V12.294L90.8924 12.0952L90.9587 11.9626L91.025 11.8964L90.9587 11.7307L91.025 11.6644V11.565L91.0914 11.4987L91.0582 11.4324V11.2336L90.9919 11.0679L91.1577 10.8359L91.2571 10.7034V10.6371L91.1245 10.4382L91.1908 10.2394L91.2903 10.14L91.3566 10.0074L91.5224 9.87489L91.5887 9.7092H91.854V9.74234L91.9866 9.64292H92.1193L92.2519 9.54351H92.4508L92.5503 9.44409H92.7161L92.7824 9.2784L93.0145 9.37781L93.2466 9.2784L93.4124 9.34468C87.4108 3.57855 79.2538 0.0327148 70.2679 0.0327148C70.1021 0.0327148 69.9363 0.0327148 69.7705 0.0327148L69.6379 0.165269H69.5384L68.9747 0.728627L69.24 0.0658536C67.0847 0.132131 64.9957 0.39724 62.9399 0.861181L63.3046 0.960597H62.343C61.8456 1.09315 61.3151 1.22571 60.8177 1.35826L60.9172 1.52395V1.65651H60.9503L61.0167 1.85534L61.083 1.88848H61.1493L61.4146 1.92162L61.7462 1.59023V1.95476L61.8125 2.05417L61.8788 2.12045L61.9451 2.18673H62.1441L62.3098 2.28614H62.343L62.542 2.48498L62.6083 2.81636L62.6746 2.98205L62.6414 3.04833L62.7741 3.11461L62.973 3.41286V3.57855L63.1056 3.67797L63.172 3.8768L63.1056 4.07563H63.1388V4.14191L63.4041 4.40702L63.4372 4.44016L63.4704 4.40702L63.603 4.47329L63.7025 4.40702L64.1999 4.27446L64.0672 4.44016L64.1336 4.50643L64.1999 4.53957H64.3988L64.6973 5.43431L64.1667 4.9041H64.0341L63.8351 4.7384V4.9041V4.93723L64.1667 5.7657L63.4704 5.06979H63.3046L63.1056 4.87096V4.70526L62.973 4.67213H62.7741L62.4425 4.47329H62.1772L62.1109 3.97621L62.1772 3.84366L62.0114 3.7111V3.51227L61.9451 3.34658L62.1109 3.21403V3.08147L62.0446 2.94892L61.9783 2.88264L61.8788 2.94892L61.5472 3.01519H61.3483L61.1493 2.81636L61.0167 2.75008L60.9835 2.68381L60.7514 2.65067L60.5856 2.48498L60.5193 2.4187H60.1545L60.3203 2.48498L60.5193 2.81636L60.3535 3.14775L60.1214 3.21403L59.823 3.08147L59.7566 3.04833L59.7235 2.94892H59.6903L59.624 3.01519L59.5909 3.04833H59.6572L59.7235 3.21403L59.7898 3.2803H59.9556L60.0882 3.41286H60.2209L60.254 3.37972H60.453L60.5193 3.47913H60.6851L60.7514 3.67797L60.7846 3.7111V3.77738H60.8509L61.6467 3.446L60.9503 4.14191L61.1161 4.53957L60.7182 4.14191H60.5856L60.2872 3.94308H60.1214L59.8893 4.17505L59.823 3.94308H59.7566H59.4914L59.3919 3.8768L59.2261 3.94308L59.0603 3.54541L59.1598 3.51227L59.0935 3.446V3.41286L58.994 3.2803L58.9277 3.11461L58.7619 3.2803L58.7951 3.31344L58.8282 3.7111L58.7619 3.90994L58.8945 3.97621L59.1598 4.20818V4.27446H59.2261L59.3919 4.44016L59.5577 4.70526L59.5245 5.10293V5.16921L59.624 5.3349L59.5577 5.56687V5.60001L59.7235 5.7657L59.7898 5.93139L59.8561 5.89826L59.9888 5.93139V5.89826L60.1877 5.69942L60.3535 5.7657L60.4861 5.69942L60.6519 5.79884L60.8177 5.73256L60.884 5.93139L61.0167 5.99767H61.2488L61.4477 6.22964V6.26278L61.5472 6.32906L61.6135 6.46161L61.6798 6.52789L61.713 6.59417L62.1441 6.75986L61.6798 6.95869L61.7462 7.02497L61.8788 7.15752L61.8456 7.2238V7.29008L62.0114 7.05811L62.0777 7.25694H62.1441L62.3762 7.48891L62.1772 7.6546L62.0114 7.72088L61.8788 7.78716L61.6798 7.85344L61.514 7.72088H61.3814L61.1161 7.45577L61.1825 7.38949V7.32322L61.1161 7.25694L60.9172 7.19066L60.9835 7.02497H60.9172L60.8509 6.85928L60.6519 6.72672V6.59417L60.5524 6.69358L60.4198 6.75986L60.3535 6.82614L60.2872 6.89242L60.3203 7.05811V7.09125L60.5193 7.19066L60.6851 7.68774L60.6188 7.85344L60.4861 8.01913V8.08541L60.6188 8.2511L60.4861 8.54935V8.6819L60.3535 8.81446V8.98015L60.1877 9.04643V9.21212L59.9556 9.41095L59.6572 9.34468L59.624 9.31154H59.5577L59.3587 9.37781L59.193 9.2784L58.7951 9.21212L58.6624 9.07957L58.5961 9.24526L58.4303 9.07957H58.0987L58.4966 8.61562H58.6956L58.8945 8.58249L58.994 8.48307L59.2924 8.64876L59.3256 8.61562H59.5909V8.44993L59.7566 8.51621V8.41679L59.5577 8.21796L59.7898 8.11855V8.05227L59.7235 7.98599L59.7898 7.8203V7.75402L59.8561 7.68774L59.7566 7.58833L59.6903 7.32322L59.7566 7.15752V6.99183L59.624 6.92555L59.5909 6.82614L59.4251 6.793L59.193 6.46161L59.1598 6.29592L59.0935 6.22964V6.16336H59.0272L58.9608 5.93139L58.994 5.79884L58.8614 5.60001V5.50059L58.7287 5.36804V5.26862L58.6624 5.20234L58.5961 4.87096V4.80468L58.4635 4.67213V4.57271L58.2977 4.63899V4.47329L58.2314 4.44016L58.1982 4.20818L58.0987 4.10877L57.9993 3.8768L58.0987 3.77738L58.0324 3.61169L58.0987 3.54541V3.47913L58.165 3.21403L58.1319 3.08147V2.94892L58.0656 2.88264V2.71695L57.9993 2.55125L57.7671 2.45184H57.734L57.6677 2.51811C57.5019 2.58439 57.3361 2.65067 57.2034 2.71695L57.0708 2.8495V2.91578L57.104 2.94892V3.11461L57.1371 3.21403L57.2034 3.61169V3.67797L57.3361 3.81052L57.2034 3.97621V4.04249L57.2698 4.20818L57.0708 4.40702L56.905 4.63899L56.9713 4.83782L56.905 4.9041L57.0045 5.00351L57.0708 5.10293H57.2034L57.9329 5.83198L57.3361 5.60001V5.83198L57.2034 5.93139L57.2366 5.99767L57.3692 6.06395V6.09709L57.4356 6.13023H57.6014L57.6345 6.16336L57.734 6.03081L57.9329 6.22964V6.39534H57.9993L58.2314 6.66044L58.2977 6.62731H58.3308L58.3972 6.69358H58.8282L58.4966 7.02497V7.25694L58.5629 7.35636L58.4966 7.42263V7.75402L58.0987 7.58833L57.9661 7.32322L57.8998 7.25694H57.7008L57.6345 7.09125L57.6014 7.05811L57.3692 7.02497L57.104 6.85928L56.8719 6.793L56.8387 6.72672H56.6729L56.6066 6.66044L56.3745 6.89242L56.2087 6.52789L56.0097 6.46161L55.8771 6.39534L55.5455 6.32906L55.1476 6.39534L55.0813 6.3622L54.9818 6.42847L54.9155 6.39534L54.8492 6.42847V6.46161V6.69358H54.8824V6.75986H54.9818L55.1476 7.02497V7.05811H55.1808L55.8108 7.68774L55.0813 7.45577V7.52205L54.9487 7.58833L55.015 7.6546L54.9487 7.62147V7.75402L54.816 7.88657H54.385L54.2523 7.62147L54.3187 7.52205L54.2523 7.35636L54.3187 7.29008H54.2523L54.1529 7.35636L54.1197 7.38949V7.58833H53.7881V7.62147L53.556 7.72088H53.2576H53.2244L53.1581 7.78716L53.0918 7.72088L53.0255 7.78716L53.0918 7.8203L52.9923 7.91971L53.0586 7.98599L52.8265 8.21796L52.6276 8.15168L52.296 8.98015V8.28424L52.2628 8.31738L51.9976 8.18482L51.9644 8.11855L51.6328 8.31738L51.4007 8.08541L51.4339 8.05227V7.91971L51.2349 7.98599H51.2018L51.036 8.21796L50.9697 8.2511L50.7707 8.48307L50.9033 8.81446L50.406 8.74818H50.2733V8.91387L51.0028 8.78132L50.1739 9.2784L50.1075 9.34468H50.0081L49.8423 9.51037L49.776 9.37781H49.5439L49.3117 9.04643L49.146 8.91387H49.1128L49.2786 9.07957L49.2454 9.17898L49.3117 9.24526L49.2454 9.2784L49.1791 9.44409V9.7092V9.74234L49.3449 10.4714L48.8475 9.97431L48.6817 9.90803L48.1512 10.4382L48.4165 9.77548L48.2838 9.80862L48.1844 9.7092V9.90803L47.6207 10.3057L47.8528 9.74234L47.8859 9.64292V9.51037L47.7201 9.34468L47.687 9.24526L47.6207 9.17898L47.5875 9.14584V9.24526L47.3554 9.07957C46.9243 9.47723 46.4933 9.90803 46.0954 10.3388H46.1285L46.1949 10.372L46.3606 10.3057L46.5264 10.4714L46.6591 10.5045L46.8912 10.5377L47.057 10.5045L47.1233 10.4382H47.2891L47.3554 10.4051L47.6207 10.3388V10.5708V10.6371L47.8196 10.8359L48.0186 11.1673L47.7865 11.3993L47.5875 11.5318L47.4549 11.8632L47.1896 11.565L47.057 11.4987V11.5981L47.1233 11.6312V12.0952L46.9907 12.2277H46.8912L46.7917 12.3272H46.5928L46.4933 12.2277H46.3606L46.2943 12.1615H46.1285L45.9959 12.0289V11.9626H45.9627L45.9296 12.062L45.598 11.8632L45.2664 11.9626L45.4322 11.565L45.399 11.4987V11.4324L45.2664 11.333V11.2667C44.3048 12.3603 43.3764 13.5201 42.5474 14.7463V14.7794L42.7132 14.9451L42.879 14.8788H42.9122L43.1111 14.68L43.2438 14.8126L43.3101 14.7463H43.2769C43.2769 14.7131 43.3101 14.68 43.3101 14.68L43.4427 14.5143L43.6417 14.7463V14.8126L43.6748 14.8788H43.9069L44.139 15.1108L44.0064 15.4422L43.8406 15.3759V15.409L43.7743 15.4753L43.8738 15.5416L43.6417 15.641V15.873L43.4759 15.7073L43.4427 15.7736V15.9393H42.7464L42.6137 15.873H42.448L42.3816 15.8399L42.2158 15.873L42.0169 15.9393L41.9506 15.873L41.8179 15.9393L41.7516 16.105H41.8179L41.6853 16.4363L41.8511 16.2707L42.0169 16.6683L41.9506 16.9666V17.1654L42.0169 17.3974L41.9506 17.5962L41.7848 17.9276H41.5195L41.3537 17.7619L41.2874 17.6293L41.1216 17.4305L41.0553 17.4636L40.989 17.5299H40.8563H40.8232H40.79V17.9276L40.6574 17.795L40.5911 17.8613V18.0933L40.5248 18.1264V18.1927L40.5911 18.259V18.4909V18.5241L40.6906 18.4909L40.8563 18.7229H40.8895L41.1216 18.6566L41.2542 18.7892L41.3206 18.8886L41.4532 19.0212L41.3869 19.1869L41.4532 19.4851L40.7237 19.5514L40.2263 19.5182L40.0274 19.6839L39.7953 19.7502L39.729 19.6839C39.0326 21.1752 38.4689 22.7658 38.0047 24.3565L38.3363 24.489V24.6879L38.5353 24.489H38.8005L38.8668 24.6547L38.9995 24.8204L39.0658 24.953L39.1321 25.0193L39.1984 25.0855H39.2647L39.8284 25.6489H39.8948L40.0605 25.7152L40.4584 26.1128L40.5248 26.0466L40.7237 26.2785L40.8563 26.3448L41.0885 26.6099L41.1216 26.6762L41.1879 26.7093L41.42 26.9082L41.3206 27.1401H41.1548L41.1216 27.3058L41.1879 27.4715L41.1548 27.5709L41.1879 27.6703H41.2874L41.42 27.9355L41.5858 28.0017V28.1674L41.7185 28.2337L41.7848 28.3H41.9174V28.4657L41.9837 28.5982H42.05L42.1164 28.5651L41.9506 28.4657L42.1495 28.2668L41.8843 28.0017L41.9837 27.9023L41.9506 27.7366L42.0169 27.5047L42.3485 27.3721L42.4148 27.5378L42.5474 27.4052L42.6801 27.4715L42.7132 27.3721L42.9785 27.2395L43.1111 27.3721V27.2395H43.4427L43.509 27.339H43.6085L43.8406 27.4052V27.4715L43.9069 27.4052L44.0396 27.5378L44.3048 27.3058V27.339L44.4706 27.2727H44.6032L44.6696 27.2064L44.5038 27.0407L44.4375 26.875L44.3711 26.8087L44.0396 26.4111H44.2717L44.3711 26.3448H44.4043L44.338 26.0797L44.5701 25.8809H44.6032V25.8146V25.5826L44.5369 25.4501L44.6032 25.3175V25.2512L44.5369 25.0855L44.6364 24.9861L44.7027 24.8204H44.9348H44.968V24.7873L44.8685 24.6879L45.0011 24.5553V23.992H45.3659V23.8263L45.598 23.76H45.6643L45.8301 23.5943L45.9627 23.7268L46.0954 23.5943L46.2612 23.76H46.3275L46.3938 23.992L46.4601 24.0251L46.5264 23.992L46.6591 24.0582L46.7254 23.8925L46.8249 23.992L46.9243 23.8925L47.0238 23.9588L47.0901 23.8925L47.2559 23.9588L47.3554 23.9257L47.4549 23.7931L47.3554 23.4949H47.9191L47.9522 23.5612H48.0186L48.1512 23.6274L48.2175 23.5612H48.3502L48.3833 23.528L48.4496 23.3623H48.5823V23.3292L48.7149 23.1966H48.8807L48.9802 23.1304H49.2123H49.2454L49.3117 23.0641L49.577 22.9978L49.776 23.1966L49.6765 23.4617L49.4444 23.5612L49.2786 23.8263L49.3781 23.8594V24.0582L49.1128 24.3233L49.1791 24.3896L49.0465 24.7873L48.9138 24.721L48.9802 24.7873V24.8867L49.146 24.8536L49.3781 24.9861L49.5107 25.0524L49.8423 25.3175L49.8754 25.3838L49.9418 25.4169L50.0081 25.4832H50.0744H50.2402L50.3065 25.5495H50.3728H50.4391L50.5718 25.682H50.6049L50.6712 25.6158L50.9697 25.8477H51.036L51.2018 26.0797L51.2681 26.2122L51.3012 26.3779L51.467 26.6099L51.2349 26.7093L51.3012 26.8087L51.1686 26.9413L51.1023 27.0739L50.9365 27.2395L50.8039 27.3058L50.7376 27.4715H50.5718V27.5047L50.2402 27.4384L50.207 27.4052H49.8091H49.776H49.577L49.3449 27.5378L49.0796 27.4715L48.8144 27.3058L48.6817 27.2395L48.5823 27.1733L48.5159 27.2395L48.2838 27.1401L48.118 26.9744V26.9413L47.9854 27.0739L47.9191 27.0076L47.8528 27.0739L47.5212 26.7425H47.2891L47.2559 26.7093L47.1896 26.7425H46.9243L46.8912 26.8087L46.6259 26.9413H46.4933H46.427L46.3938 27.0076L46.2612 27.0739L46.1617 27.1733L46.0954 27.2727V27.4052H45.7306L45.4985 27.339L45.2664 27.5709H45.2001L45.2664 27.6372L44.8685 27.8029H44.6032L44.5369 27.7698L44.338 27.836L44.2717 27.6703L44.2053 27.836V27.8692L44.2385 27.9023H44.2717H44.769L44.4375 28.2337L44.4706 28.3L44.6364 28.2337V28.5651H45.3327L44.5038 28.8965V28.9628L44.5701 28.9296L44.8022 29.029L44.9348 29.2941L44.8685 29.3604L44.968 29.4598L45.0343 29.3936V29.5261H45.3659L45.2664 29.6255H45.598V29.8575L45.6643 29.8906L45.7306 29.8244H45.797L45.8633 29.7581H45.8964L45.8301 29.5924L46.228 29.493L46.427 29.5593L46.6591 29.6587H46.8249L47.0238 29.8906L47.0901 29.9569L47.488 29.9238L47.6207 29.8575H47.6538V29.8244L47.9522 29.493H48.118L48.317 29.6255L48.5159 29.4267L48.8475 29.5593V29.7912L48.6817 29.9569L48.8144 30.0895L48.6817 30.222L48.7812 30.3877L48.8475 30.5865L48.7812 30.7191V30.9179L48.7149 31.1168L48.6486 31.5144L48.4496 31.7464V31.8458L48.2838 32.0115L48.2507 32.3429L48.0849 32.6411L47.9522 32.8068L47.8859 32.9725L47.6538 33.0388L47.3222 32.9725L47.057 33.0388V33.5359L47.1233 33.6022V33.6353L47.2891 33.801V33.9667L47.4217 34.033L47.488 34.1987L47.6538 34.3644L47.7201 34.2318V34.0992L47.8528 33.7679L47.9191 33.7016L48.2507 32.84V33.7347L48.1844 33.8341V34.1655L48.5823 34.3312L48.4496 34.4638L48.6154 34.6295L48.6486 34.7289L48.7149 34.7952L48.7812 34.8946L48.947 35.2922V35.4579L49.0465 35.5242L49.1128 35.6568L49.2454 35.723L49.3449 35.955L49.4775 36.0213L49.577 36.3195L49.776 36.5184L49.9418 36.6509L50.0744 36.8166V36.8498H50.2402L50.3065 37.0154L50.3728 37.0817L50.4391 37.2474L50.5386 37.3468L50.5718 37.4131L50.6381 37.4794L50.5718 37.7776L50.6381 37.9433L50.6712 38.109L51.036 38.4735H51.1023H51.2681L51.3344 38.6061L51.5334 38.7718V38.8381L51.6992 38.9044L51.6328 39.07L51.7323 39.4014L51.8649 39.4677V39.6334L52.1302 39.8985H52.2628L52.3292 40.1636L52.495 40.1968L52.6276 40.5281L52.6939 40.6607L52.7602 40.9589V41.2572H52.6939L52.7602 41.3566L52.7934 41.7874L52.926 41.92V42.2514L53.0255 42.3508V42.417L53.1913 42.4833L53.3239 42.3508H53.556L53.6555 42.2182V42.1519L53.8544 41.9531H54.0866L54.1529 42.0194H54.2855L54.3518 42.0857L54.5176 42.0194L54.6502 41.9862L54.9155 41.7874H55.1808L55.3134 41.6549L55.3797 41.7211L55.5124 41.5223L55.6782 41.456H55.7445L56.2087 41.2903L56.275 41.2241L56.6066 41.1578L56.7724 41.0915L56.905 40.9589H57.0045L57.0708 40.7601L57.2698 40.5281L57.5019 40.4619H57.5682L57.7008 40.3293L57.7671 40.3956V40.3293H57.8666L58.0324 40.2299H58.165L58.2977 40.1636L58.364 40.1968V39.9648L58.5298 39.7991H58.5961L58.7619 39.7328V39.6334L58.994 39.3352L59.2261 39.2357L59.2593 39.2689H59.3587V39.2026H59.2261L59.3587 38.9044L59.2261 38.7718H59.3919L59.6572 38.0759V38.6392L59.7235 38.573L59.7898 38.6392L59.823 38.573L59.9556 38.4404L60.1214 38.2084V38.1422V38.0759V38.0096H60.0882L59.8561 37.8439L59.7898 37.7114L59.6572 37.5788L59.5909 37.4131L59.5245 37.3137H59.0272L58.8945 37.38L58.6293 37.3137L58.5629 37.38L58.3308 37.2806L58.0324 37.0154L57.9661 36.9492L57.7671 36.7172L57.7008 36.3858L57.6345 36.3195L57.3692 36.5846L57.5019 36.7172L57.1703 37.0486V37.1149H57.0377L56.8719 37.1811H56.6729L56.6066 37.1149H56.5403L56.4076 37.0817L56.2087 37.2474L56.0429 37.1811H55.9766L55.7113 37.2806L55.645 37.0154H55.5787L55.5124 36.8498H55.5455V36.7172L55.4129 36.8498L55.1808 36.6178L55.1145 36.4852L54.8492 36.187L54.6171 35.6236L54.5508 35.5573L54.3518 35.3585L54.186 35.2922L54.0534 34.9608L54.0202 34.8946L53.9539 34.8283L53.5892 34.4638H53.7218L53.3239 34.1987L53.8213 34.1324V34.0661V33.9336V33.8673L53.3239 33.6684H53.9208L54.2192 33.3702V33.6353H54.2855L54.3518 33.7016L54.4845 33.569L54.5508 33.7016L54.6502 33.6022L54.816 33.7679L54.9818 33.9336V33.9998L55.1476 34.1987L55.1808 34.2649H55.2139L55.2803 34.3644H55.6782L55.7113 34.3975L55.8108 34.2981L55.9434 34.6295L56.0429 34.8946L56.2087 34.8614L56.4076 34.9277H56.5734L56.6398 34.994H56.7392L56.9382 35.1928L56.905 35.226L57.0377 35.2922H57.1703L57.3029 35.3585L57.4356 35.2922L57.6677 35.3585L57.8003 35.4248L57.8666 35.3585L58.0987 35.1928H58.1982L58.2977 35.1265L58.4635 35.0603L58.7951 35.1265H58.8614V35.1928L58.9277 35.3254L58.994 35.4911L59.1266 35.6899V35.7562H59.4914L59.5245 35.7893L59.5577 35.7562H59.7235L59.8561 35.8556L60.0882 35.8225L60.2209 35.8887H60.4861H60.5193L60.5856 35.8225L60.6519 35.8556L60.6188 35.7893H60.884L60.9503 35.955H60.9835L61.083 35.9881L61.1493 35.9219H61.4477V35.9881H61.514L61.6135 35.9219H61.8456V35.8556L62.0114 35.6899L62.0777 35.723H62.3098L62.3762 35.7893H62.4756L62.5088 35.8225L62.5751 35.7562H62.8404L62.9067 35.7893L62.973 35.7562H63.0393L63.172 35.6236L63.3046 35.7562H63.3378L63.4041 35.723H63.6362L63.802 35.8887L63.8683 36.0544H64.0341L64.2662 35.9881V36.2533L64.3325 36.3195L64.3988 36.4852L64.4651 36.5515L64.4983 36.6178H64.6309L64.7967 36.7172L64.8962 36.6509L65.062 36.5846L65.1946 36.8829L65.1283 36.916L65.0952 36.9492L65.1946 37.0817L65.4931 37.1811L65.6588 37.0817V36.9492H66.1562L65.9904 37.3468H65.4267L65.3273 37.4794H65.4599L65.3936 37.5457V37.6119V37.7776L65.5262 37.9102L65.891 38.1753H65.9573H66.0236L66.2889 38.0096L66.3552 37.9433L66.4546 37.7776V37.7445L66.322 37.6119L66.4878 37.3468V36.3858L66.7862 37.1149H66.8525L66.9189 37.1811L67.6484 36.8829L66.952 37.5788L67.8473 37.9433H66.8857V38.0096L66.9189 38.0427L66.9852 38.2084V38.3741L66.952 38.4404L67.3168 38.6061L66.9852 38.7718L67.1178 39.07V39.2026L67.1841 39.3683L67.1178 39.4346L67.3831 39.8322H67.2173V39.8985L67.3831 40.2962V40.5613L67.4494 40.6938L67.582 40.7601L67.6484 40.9258L67.7147 40.9921V41.0584V41.1246H67.781V41.2241L67.8141 41.2572H67.9468V41.5554L68.0131 41.7211L68.0462 41.8537L68.1457 42.0857L68.212 42.2182L68.2452 42.3839L68.2784 42.417L68.3447 42.5496L68.411 42.6159H68.4773L68.6431 42.8147L68.8089 43.0135L68.8752 43.1792H68.9415V43.4112L69.041 43.5769L69.1073 43.8089V43.9746L69.2731 44.2728L69.3726 44.3722L69.5052 44.2397L69.5715 44.074L69.8036 43.9083H69.87L69.9363 43.842L69.9694 43.7757L70.1021 43.5106L70.3342 43.4443L70.301 43.1461L70.2347 43.0135V42.649L70.3673 42.417L70.4337 42.1519V41.9862L70.301 41.92V41.4229L70.2347 41.2241L70.3342 41.1246L70.2679 40.9258L70.3342 40.7601L70.5663 40.5281H70.7984V40.4619L70.9974 40.263L71.2295 40.3293L71.2958 40.263L71.2626 40.1968L71.3289 39.9979L71.4947 39.8322L71.6605 39.7991L71.7268 39.7328L71.7932 39.6003L72.2574 39.2357L72.3568 39.0369L72.4232 38.9706L72.5558 38.6061H72.7547L72.8542 38.5398H73.02L73.0863 38.6061H73.1526L73.219 38.5398L73.0532 38.3741H73.3848V38.341L73.4179 38.3079V38.4073V38.341L73.3184 38.2416L73.4511 37.9102L73.5505 37.8108L73.849 37.7114L73.8821 37.6782V37.5788V37.3137H74.1806L74.3464 37.38V37.2474L74.6116 37.5125H74.7111L74.8769 37.3468L74.8437 37.2806H74.9764L75.3743 36.8829L75.7058 36.8166L75.739 36.8829L75.7722 36.916H75.8385L75.9048 36.9823L75.9711 37.0154H76.0374L76.1037 36.9823L76.0706 37.0154H76.2032L76.369 37.4131L76.4353 37.4794V37.5125L76.5016 37.4463V37.9433L76.568 38.0096L76.6343 38.109H76.7006V38.1422L76.8664 38.2084V38.0759L76.999 38.2084H77.4301L76.7669 38.4073H76.8001L76.8332 38.4404L76.9659 38.5067L77.1317 38.7055V38.9375L77.198 39.0038V39.1695L77.2643 39.3352V39.4014L77.5296 39.5008L77.4301 39.6003V39.8322L77.4964 39.9648L77.629 39.5671V40.1305L77.6622 40.1636L77.629 40.1968V40.5944L77.6954 40.727H77.7617L77.8611 40.6607L77.9275 40.4619L77.8611 40.3293H78.1927V40.2299L77.6954 39.7328L78.6569 40.1305V40.1968L78.7233 40.263L78.8227 40.4287L78.8559 40.4619L79.1212 40.1968V40.6607V40.6938V40.8595L79.1543 40.8927L79.1875 41.1578V41.3898L79.5191 41.7211H78.6569V41.7874L78.8559 41.9862L78.9222 42.0857L78.9885 42.1519L79.0548 42.4502L79.088 42.4833L79.1875 42.7153L79.1212 42.7816V42.8147V42.881L79.3533 43.113L79.287 43.1792L79.3533 43.3118L79.2206 43.4443V43.61H79.4196V43.4775L79.5522 43.3449L79.6185 42.9804L79.7512 42.8478L79.8175 42.7484L79.917 42.649L79.8506 42.5827L79.9833 42.4502V42.3839V42.3176L79.718 42.2182L79.8838 42.0525V41.6549L80.1159 41.8868L80.1822 41.8206L80.2817 41.92L80.4143 41.8537L80.4807 41.92H80.547L80.7128 41.9862L80.8786 42.1519L80.7459 42.2845V42.3176L80.8122 42.417L81.0112 42.4833L81.1438 42.6159L81.2101 42.649L81.5086 42.9473H81.6744L81.8402 43.1792V43.2455L81.9728 43.5769L82.2381 43.3118V43.5769H82.9344V43.5106H83.1996H83.2328L83.4981 43.2455V43.5438L83.5644 43.61L83.7302 43.5438L83.7965 43.4775V43.4112L84.0618 43.3118L84.1612 43.2124L84.1944 43.113L84.2607 42.9473L84.1944 42.7484L84.2939 42.7153V42.6822V42.4833L84.3602 42.417V42.3839L84.2939 42.3176V42.1519L84.2276 41.9862L84.2939 41.92L84.2276 41.8206L84.2939 41.7543L84.2276 41.5886L84.1612 41.5223L84.0949 41.3566L83.9291 41.1909L83.9954 41.1246L83.896 41.0252V40.9921L83.8297 40.8264L83.7633 40.7601L83.5312 40.5944L83.4981 40.495L83.2991 40.3624L82.9344 40.1968V40.8595L82.6028 40.0973L82.437 39.9316L82.3375 39.8654L81.8733 39.6997L82.1054 39.6003L82.1717 39.4346V39.1695L82.2381 39.1032L82.3044 39.0038L82.4702 38.8381L82.5365 38.9044V38.7387L82.4038 38.6061L82.5365 38.4735V38.341H82.7354L82.8681 38.2084L83.0339 38.1422H83.1333L82.9675 37.9765H83.3654L83.4981 37.8439L83.5312 37.8771L83.697 37.4794L83.8628 37.8771L83.896 37.8439L83.9954 37.9433L84.0618 37.8108L84.2607 37.8771L84.4265 37.8108L84.5923 37.9765V38.0759L84.6586 38.0096L84.4597 37.8108H84.8576L85.1228 37.5457V37.7114H85.5539L85.6865 37.6451L85.7528 37.6782L85.8192 37.6451L85.8855 37.5788V37.5125V37.1149L86.1176 37.3468L86.0513 37.2474V36.8498L86.416 37.0154L86.5486 37.148L86.6481 37.1149L86.7808 36.9823L86.8802 37.0817V37.0486H87.1123H87.1787L87.3444 36.8829L87.0792 36.1538L87.5766 36.6509L87.7424 36.5846V36.5184H87.8087L87.875 36.4189H87.9413L87.5434 36.0213H87.875L88.1734 35.2922L88.2729 35.2591L88.2066 35.1928H87.9413L88.0739 35.0603L87.9745 34.9608H88.1403L88.3392 34.762V34.7289H88.4718L88.6708 34.2318L88.7371 34.3644V34.2981L88.8034 34.1655L88.7703 34.1324L88.8697 34.033H88.7039V33.7679L88.8697 33.6022V33.4696L88.7703 33.3702L88.8697 33.3371V33.2045L88.8034 33.2708L88.5713 33.1714L88.505 33.1051L88.4718 33.1382L88.1403 33.9998V33.2708L87.7424 33.4365L88.1403 33.0388V33.0057L88.306 32.84L88.0739 32.5417L88.5713 32.7406L88.7039 32.608H88.7371L88.8034 32.5086H88.8366L88.8034 32.4423L88.5713 32.2766L88.4055 32.1441L88.2729 32.0115L88.1403 32.0778L87.9413 32.0115L87.7755 31.879H87.7424L87.6097 31.8127L86.615 33.1382L87.3444 31.4813L87.6097 31.3819L87.7755 31.4482L88.0076 31.3819L88.0408 31.4482L88.3392 31.5144L88.1734 31.2825V31.1499L88.0076 31.0174V30.9179L87.8418 30.8517L87.9081 30.686L87.8087 30.4871L87.6429 30.4209L87.3776 30.5203V30.2883L87.1123 30.1889V29.7912L87.1455 29.6587L87.0792 29.5261L87.245 29.0953L87.4108 29.261L87.4439 29.2279L87.3776 29.1616L87.6429 28.8965H87.676V28.8302H87.7424L87.5766 28.6645L87.9745 28.4988L88.0408 28.532H88.1403L88.1734 28.4988H87.7755L87.6097 28.3331L87.5766 28.2668L87.5102 28.3V28.3663L87.4439 28.4325L87.3444 28.6645L87.1787 28.8302L87.0129 28.7639L86.9465 28.7971H86.6813L86.5155 28.3994V28.6314L86.3829 28.4657L86.3165 28.532V28.3663L86.1507 28.1674L86.1176 28.1343L85.985 28.068L85.786 28.0017V27.836L85.7197 27.6703L85.786 27.6041V27.5378L85.8523 27.4715V27.3721L85.9186 27.3058V27.0739L86.3165 27.1401L86.1507 26.9744H86.3165L86.416 26.875L86.4823 26.5768L86.7476 26.4111H86.8139L86.8802 26.3448V26.1791L87.0129 26.0466H86.9797L87.046 25.9803L87.1123 25.8146H87.3776L87.4771 25.5495L87.7424 25.9471L88.0408 26.146V26.4111L87.9081 26.5436L87.8418 26.6099V26.7425L88.2729 26.3117L88.1403 26.5768H88.306L88.505 26.4111L88.6045 26.4774H88.6376L88.8697 26.146L89.0024 26.4442H89.0687L89.2676 26.5105H89.3008L89.3671 26.4442H89.6987L89.5661 26.7756L89.5992 26.8419L89.4666 27.0407V27.1401H89.4997L89.9971 26.9413H89.964L89.8645 26.6099L89.8977 26.5768V26.5436V26.3779L90.0634 26.2454L90.1298 26.1128L90.3287 26.0466H90.395H90.4282V25.9803L90.6271 25.7814L90.5608 25.7152L90.7266 25.5826V25.2844L90.6271 25.1849V24.9198L90.6935 24.6547V24.3896H90.8261L90.9919 24.2239H91.025L91.0582 24.1245L91.224 24.0582V23.992L91.2571 23.9588V23.7931L91.3566 23.6937V23.5943L91.5224 23.4286L91.6882 23.4949L91.854 23.4286L92.0198 23.5943V23.7268H92.0861L92.1193 23.7931L92.1856 23.7268L92.2519 23.7931L92.3845 23.7268L92.4508 23.6606H92.5503L92.6166 23.5943L92.683 23.528L92.5503 23.3955L92.7824 23.296L92.6166 22.8652L92.9151 22.9978V22.9315L92.9814 22.8652V22.6996L93.0809 22.6333V22.567L93.1803 22.5007L93.2466 22.2687L93.2798 22.2356L93.3793 21.8379L93.4456 21.7054V21.5728L93.5782 21.4403H93.6445L93.7109 21.3409L93.6445 21.0758L93.7772 20.9432L93.7109 20.7112L93.8435 20.5787V20.3798H94.2746L94.3077 20.3136V20.1479L94.4072 20.0485L94.3409 19.8165L94.4072 19.6508V19.4851H94.2746V19.5514ZM42.0169 15.1108L42.05 15.0777V15.0114C42.05 15.0445 42.05 15.0777 42.0169 15.1108ZM82.6691 43.9414L82.7023 43.9083L82.5696 43.8751L82.7023 44.0077V44.074L82.7686 44.0408L82.8681 44.074H82.9344L82.6691 43.9414ZM79.3533 43.7426V43.9083H79.4196V43.842L79.3533 43.7426ZM91.1908 43.2124H91.1245V43.3449H91.1577V43.3118L91.224 43.2455L91.1908 43.2124ZM92.3845 42.7153V42.7816L92.4508 42.8478L92.5172 42.9141V42.881L92.3845 42.7153ZM90.3287 41.7211H90.395L90.4282 41.688L90.4613 41.7211V41.5554L90.3287 41.7211ZM90.7266 40.1968L90.6603 40.1636L90.5608 39.8985V39.8322L90.3287 39.766L90.2292 39.6665H90.1629V39.6997L90.0303 39.8654V39.8985V40.1636V40.3956L89.9971 40.4619L90.0634 40.5944V40.7601L89.9308 40.8264L89.8977 40.9589V41.0252L89.964 41.1578V41.2241H90.1298V41.2903H90.2624L90.395 41.456L90.3619 41.3566V41.1909L90.395 41.1246L90.3287 40.9921L90.6271 40.6938L90.7266 40.5281V40.4619V40.3293V40.1968ZM85.2223 38.7387L85.0565 38.8049L84.9902 38.7387L84.8907 38.8049L84.8244 38.7387H84.7913H84.6255H84.5591L84.526 38.8381L84.3602 38.9706L84.2939 39.0369V39.07V39.2357L84.327 39.3352L84.3934 39.4014H84.4597L84.526 39.4677H84.6586V39.4014L84.8576 39.3352V39.2689L85.0234 39.2026V39.1363L85.0897 38.9375L85.156 38.8712L85.2223 38.7718V38.7387ZM84.4928 38.1422V38.2416H84.327V38.3079L84.3934 38.3741L84.4597 38.4404L84.5923 38.3079L84.4928 38.1422ZM89.9971 35.9219L89.9308 35.8556L89.8645 35.9219L89.7982 35.9881L89.8645 36.0213L89.7319 36.2201V36.2864L89.5992 36.4852L89.5329 36.6178V36.9492H89.5992V37.1149H89.6987V37.2474L89.7982 37.0817L89.8977 36.9492L89.8313 36.916L89.8977 36.6178V36.5515V36.3527L89.964 36.2201L89.9971 36.0213V35.9219ZM75.0427 37.0154V37.1811H75.0758L75.0427 37.0154ZM87.9745 35.8556L87.7755 36.0544H87.875L88.0408 35.8887L87.9745 35.8556ZM88.1734 35.6899L88.2066 35.6236L88.0408 35.7562L88.2066 35.6899H88.1734ZM93.8435 31.1168L93.943 31.0174H93.9098V30.9179H93.8435L93.7109 30.686H93.6114L93.5119 30.5534H93.4456V30.6197L93.3461 30.686L93.4456 30.7854L93.5451 30.9511L93.6114 31.1168V31.2825L93.5782 31.415L93.8767 31.6801L93.8435 31.6138L93.9098 31.3156L93.8435 31.1168ZM37.3747 30.7191V30.4871H37.3084L37.1426 30.222L37.2089 29.9901L37.2421 29.9569L37.1758 29.8906L37.0763 29.7249L37.0431 29.6918C36.9768 30.2552 36.9437 30.8517 36.8773 31.415L37.1758 31.2493L37.2089 31.2162L37.1426 31.1499L37.2752 31.0174L37.3747 30.7191ZM47.5875 31.2493H47.5543L47.4217 31.3156H47.5875L47.6538 31.2493H47.5875ZM94.4072 30.4209V30.4871L94.4735 30.5865L94.5398 30.454L94.573 30.4209H94.4072ZM95.004 30.1889L94.9377 30.1226L94.8714 30.1557V30.2552H94.9709H95.004L95.0704 30.1889V30.1557L95.004 30.1889ZM97.6567 26.5768V26.5105L97.6236 26.3779V26.3117L97.5572 26.1128L97.5241 26.0466H97.4578L97.3914 25.8809L97.3583 25.7152L97.3251 25.6489L97.093 25.4169L96.8941 25.5826L96.8278 25.5163V25.5826L96.8941 25.7483L96.8609 25.8809L96.9604 26.1128L97.0267 26.3779L96.9604 26.5436L97.0267 26.7425L96.9272 27.0739L96.9935 27.2395L96.8278 27.4715L96.7614 27.5378V27.6041V27.7698L96.6951 27.8692L96.662 28.0349L96.4962 28.1343L96.2309 28.3H96.1646L96.0983 28.4657L95.833 28.3331V28.4657L95.7335 28.6314V28.6976L95.6672 28.7639L95.7004 28.7971V28.8302H95.8662L95.7004 29.0622L95.7667 29.1285L95.4351 29.3273L95.3688 29.261H95.3025H95.1035V29.1616L94.9377 29.2279L94.7719 29.2941H94.6725L94.5398 29.3273L94.374 29.3936L94.3077 29.3273L94.2414 29.3936L94.2082 29.5261L94.1419 29.5924L93.9098 29.8244L93.8435 29.8906L93.8103 29.9238L93.744 30.0563L93.6114 30.1226L93.7772 30.0563H93.8435V29.9901L93.9098 29.8244H94.0756L94.1419 29.8575H94.2082H94.374L94.5398 29.7912H94.6061L94.7388 29.7249V29.6918L94.9709 29.5593L95.1035 29.493H95.4019L95.5677 29.6255V29.7912L95.5014 29.8906V29.9901L95.7004 30.1889H95.6341L95.6672 30.3546L95.7004 30.2883V30.222L95.7667 30.1557V30.0895L95.8662 29.9238L95.7335 29.7912L95.7998 29.5261L95.9325 29.3936H96.4299L96.3304 29.493L96.5293 29.5261V29.3604L96.7614 29.2279H96.9272L96.9604 29.1947L97.0267 29.1616L97.1593 28.8633L97.3251 28.7971H97.5572L97.4578 28.6314V28.068L97.5241 27.8692L97.4246 27.6041L97.292 27.4052V27.2395L97.3251 26.9744L97.5241 26.875V26.8087V26.7425V26.5436L97.6567 26.5768ZM38.8337 30.1226L38.9332 29.7912H38.9L38.8337 29.8575H38.5684L38.4026 29.9238L38.2037 29.8906L38.27 29.9569L38.4026 30.0232L38.4689 30.0895L38.6347 30.1557L38.7342 30.1226L38.9 30.2883L38.9332 30.3546L38.9663 30.2883V30.2552L38.8337 30.1226ZM91.7214 29.1616V29.0622L91.4893 29.2941V28.7971L91.4561 28.532L91.3235 28.3994V28.1674L91.0914 27.8692L90.8924 27.6703L90.395 27.8692L90.5277 28.068L90.6935 28.2337L90.6271 28.3L90.7929 28.6976L90.5277 28.6314L90.5608 28.6976V28.7308L90.7929 29.1285L90.6271 29.261V29.4598L90.5608 29.5261L90.6271 29.6918V29.5593L90.8592 29.7912L91.0914 29.5924L91.224 29.5261L91.2571 29.4598H91.4893L91.655 29.2941H91.7214L91.655 29.2279L91.7214 29.1616ZM42.1495 29.1947L42.2158 29.261L42.249 29.1947H42.1495ZM42.5474 29.3273L42.4148 29.1947L42.6137 29.1285H42.5806L42.3816 29.1947L42.3153 29.1616H42.2822L42.448 29.5593L42.5143 29.5924L42.5806 29.6587L42.5143 29.5261L42.5474 29.3273ZM97.6236 29.1285V29.1616L97.6567 29.1285H97.6236ZM39.6295 29.029V29.0953L39.6958 29.0622V28.9959L39.6295 29.029ZM97.6236 28.8302V28.9296L97.6567 28.8965L97.6236 28.8302ZM39.8616 28.4988H39.6958L39.6626 28.4657L39.6958 28.5982L39.7621 28.7308H39.729V28.7971L39.8284 28.6976L39.8948 28.5651L39.8616 28.4988ZM39.729 27.339L39.5632 27.3058H39.3974L39.2979 27.0739V27.0076H39.2647H38.9995L38.9663 26.9413L38.8337 26.875L38.7674 26.7425L38.6679 26.6762L38.4358 26.4774L38.3695 26.3117V26.2454L38.3031 26.1791V26.0466L38.0379 25.7152L38.0047 25.6489H37.9384L37.6731 25.5495C37.6068 25.8809 37.5073 26.2122 37.441 26.5768L37.5073 26.6762L37.5405 26.7093L37.7063 26.9744L37.8721 27.0739L38.1374 27.1733L38.3031 27.2395H38.4689L38.6347 27.4384L38.8668 27.5378H39.0326L39.1321 27.7366V27.8029H39.1653L39.1984 27.9023L39.4637 28.0349L39.4969 28.2337V28.1012L39.6626 28.0349V27.7366L39.729 27.6703L39.7953 27.5709L39.9279 27.4715L39.729 27.339ZM90.7929 27.6372L90.6271 27.2395V27.1733L90.2624 27.0076L90.2292 26.9413L89.7319 27.4384H89.6655V27.5709H89.6987L89.8645 27.4052L90.0634 27.6041H90.8924L90.7929 27.6372ZM87.8418 26.7425V26.7756L87.875 26.7425H87.8418ZM47.5212 24.5553L47.2891 24.7873L47.2559 24.8204L47.3886 24.7541L47.5875 24.5885L47.5212 24.5553ZM96.463 24.489V24.5222H96.4962L96.463 24.489ZM47.1896 24.3896L47.0901 24.4228L47.2891 24.5222L47.3554 24.3896V24.2239L47.1896 24.3896ZM98.2204 23.2629L98.0215 23.1635V23.0972L97.9551 23.1304H97.5904L97.5241 23.0309H97.4246L97.2257 22.9315L97.1925 22.8652H97.093L96.9935 22.6996L96.8609 22.6333L96.6288 22.4013L96.5957 22.3019H96.5293L96.4299 22.2356L96.5625 22.4344L96.6288 22.6001L96.662 22.799V22.8652V22.9315L96.7946 23.2629H96.662V23.3292H96.6951L96.8609 23.5612L96.7283 23.6274V23.6937L96.5625 23.8594L96.4299 23.7931V23.8594L96.5957 23.992L96.6288 23.9588L96.7946 23.8263H97.0267L97.1925 23.76L97.3583 23.992L97.4246 24.0582L97.5572 24.1245L97.5904 23.9588L97.6567 23.7268L97.8225 23.6274L97.9883 23.528L98.2204 23.4286V23.2629ZM96.2972 20.5455L96.2309 20.4793H96.1646L96.0983 20.3798V20.413V20.4461L96.2641 20.6118L96.2309 20.7775L96.3635 20.7112V20.5787L96.2972 20.5455ZM96.0983 18.4247V18.3915L95.9656 18.3584V18.1927L95.833 18.0601L95.7004 17.795L95.6341 17.6956L95.4683 17.4636L95.4019 17.298L95.3356 17.2317V17.1654H95.1698L95.1035 16.9334L94.9377 16.7677L94.8714 16.6352L94.8051 16.5358V16.0387H94.7388L94.573 15.873V15.8067L94.5067 15.7404V15.5416H94.4735L94.4072 15.4422V15.5416L94.2082 15.6079H94.1751V15.7073L94.2414 15.7736L94.4072 15.9724V16.1712V16.3701L94.5067 16.602V16.6683L94.6393 16.7346L94.7056 16.9666L94.7388 17.0328L94.8714 17.0991L95.0372 17.3311V17.6625L95.1035 17.795V17.8613L95.3025 18.0601L95.2362 18.1596L95.3356 18.2921L95.4019 18.4247V18.5572L95.4683 18.7229V19.0543L95.6672 19.1869L95.6341 19.3194L95.7004 19.3525L95.8993 19.5182V19.4851L95.7998 19.3525L95.8662 19.1206V19.0874L95.7998 18.9217L95.8662 18.7892L95.7004 18.5572H96.1646H96.2309L96.0983 18.4247ZM41.8511 15.9724V16.0387H41.9174L41.8511 15.9724ZM42.0169 15.1108L42.05 15.0445C42.05 15.0445 42.05 15.0777 42.0169 15.1108ZM46.7585 11.2004V11.1673H46.5928L46.6591 11.2004L46.7917 11.333L46.858 11.2999L46.7585 11.2004ZM50.5386 7.35636H50.4723L50.4391 7.42263V7.58833L50.5054 7.72088H50.6049L50.6712 7.68774L50.7376 7.62147V7.55519V7.48891L50.5386 7.35636ZM53.0255 5.50059L52.8929 5.36804L52.7602 5.26862L52.5613 5.20234H52.3623C52.296 5.23548 52.2297 5.26862 52.1634 5.3349L52.2297 5.40118L52.296 5.3349L52.6939 5.50059V5.53373L52.8265 5.40118L52.8929 5.56687L52.9923 5.60001L53.0586 5.53373L53.0255 5.50059ZM51.9976 5.46745H51.9644V5.53373L51.9976 5.56687H52.0639V5.43431L51.9976 5.46745Z" fill="url(#paint6_radial)"/>
<path d="M47.8536 38.0763C51.9653 39.0373 56.309 39.7001 60.7854 40.0978C61.5812 49.476 63.9023 58.4566 67.4171 66.8075C67.7155 66.8407 67.9808 66.8738 68.2792 66.8738C64.7313 58.556 62.4102 49.6086 61.5812 40.1641C64.3665 40.3629 67.185 40.4954 70.0698 40.4954C76.2372 40.4954 82.1726 39.9652 87.8427 38.9711C86.2179 50.7353 79.3541 60.8757 69.7382 66.9401C69.904 66.9401 70.0698 66.9401 70.2355 66.9401C70.5671 66.9401 70.8656 66.9401 71.1971 66.9401C80.5478 60.6769 87.1132 50.5696 88.6716 38.8716C94.0101 37.9106 99.0502 36.4857 103.692 34.7624C103.692 34.4973 103.692 34.2322 103.692 33.934C99.0502 35.6903 94.0433 37.0822 88.7379 38.0763C88.9037 36.6182 88.9701 35.127 88.9701 33.6357C88.9701 19.5849 81.6752 7.19109 70.6666 0C70.5008 0 70.335 0 70.1692 0C69.8376 0 69.5392 0 69.2076 0C80.581 6.89284 88.1411 19.3861 88.1411 33.5695C88.1411 35.127 88.0416 36.6514 87.8758 38.1426C82.2057 39.1699 76.2041 39.7001 70.0034 39.7001C67.1187 39.7001 64.267 39.5676 61.4486 39.3687C61.2496 37.049 61.1833 34.6962 61.1833 32.3433C61.1833 20.9768 63.3718 10.1073 67.2513 0.099416C66.9529 0.132555 66.6876 0.165693 66.3892 0.198832C62.5096 10.1736 60.3875 21.0099 60.3875 32.3433C60.3875 34.6962 60.487 37.0159 60.6528 39.3356C56.1432 38.9379 51.8326 38.242 47.6878 37.3141C47.5552 36.0217 47.4889 34.7956 47.4889 33.5032C47.4889 19.5849 54.7837 7.2905 65.7592 0.331387C65.1292 0.397664 64.5323 0.530218 63.9355 0.629634C53.5237 7.887 46.7262 19.9163 46.7262 33.5363C46.7262 34.7624 46.7925 35.9886 46.892 37.1816C43.3441 36.3531 39.8956 35.2927 36.6792 34.0997C36.6792 34.3648 36.6792 34.6299 36.7124 34.9281C39.9288 36.1543 43.4104 37.1816 46.9583 38.01C48.2515 49.708 54.6511 59.9147 63.9023 66.3767C64.4991 66.5093 65.1292 66.5756 65.726 66.675C56.1101 60.4118 49.2794 50.0725 47.8536 38.0763Z" fill="url(#paint7_radial)"/>
<path d="M88.5728 32.6411C89.2872 32.6411 89.8663 32.0625 89.8663 31.3487C89.8663 30.6349 89.2872 30.0563 88.5728 30.0563C87.8584 30.0563 87.2793 30.6349 87.2793 31.3487C87.2793 32.0625 87.8584 32.6411 88.5728 32.6411Z" fill="url(#paint8_radial)"/>
<path d="M77.4976 7.95286C78.212 7.95286 78.7912 7.37423 78.7912 6.66045C78.7912 5.94667 78.212 5.36804 77.4976 5.36804C76.7833 5.36804 76.2041 5.94667 76.2041 6.66045C76.2041 7.37423 76.7833 7.95286 77.4976 7.95286Z" fill="url(#paint9_radial)"/>
<path d="M81.7741 57.3306C82.7813 57.3306 83.5978 56.5145 83.5978 55.5079C83.5978 54.5013 82.7813 53.6853 81.7741 53.6853C80.7669 53.6853 79.9504 54.5013 79.9504 55.5079C79.9504 56.5145 80.7669 57.3306 81.7741 57.3306Z" fill="url(#paint10_radial)"/>
<path d="M61.2165 41.6563C62.3153 41.6563 63.206 40.7661 63.206 39.668C63.206 38.5699 62.3153 37.6797 61.2165 37.6797C60.1178 37.6797 59.227 38.5699 59.227 39.668C59.227 40.7661 60.1178 41.6563 61.2165 41.6563Z" fill="url(#paint11_radial)"/>
<path d="M62.7469 15.7931C63.6729 15.7931 64.4235 15.0431 64.4235 14.1179C64.4235 13.1927 63.6729 12.4427 62.7469 12.4427C61.821 12.4427 61.0703 13.1927 61.0703 14.1179C61.0703 15.0431 61.821 15.7931 62.7469 15.7931Z" fill="url(#paint12_radial)"/>
<path d="M50.0423 50.1394C50.9399 50.1394 51.6675 49.4124 51.6675 48.5156C51.6675 47.6188 50.9399 46.8918 50.0423 46.8918C49.1448 46.8918 48.4171 47.6188 48.4171 48.5156C48.4171 49.4124 49.1448 50.1394 50.0423 50.1394Z" fill="url(#paint13_radial)"/>
<path opacity="0.6" d="M101.5 45.3519C98.738 49.3848 83.1139 56.385 68.0378 56.385C51.9261 56.385 38.1817 50.0078 36.7514 45.5487L22.8591 45.3519L63.3852 70.0411C67.6104 72.615 72.9371 72.615 77.1624 70.0411L115.535 46.6471L101.5 45.3519Z" fill="url(#paint14_linear)"/>
<path d="M50.1615 29H90.7692C91.4179 29 91.9307 29.528 91.9307 30.1615V42.2895C91.9307 42.9381 91.4028 43.451 90.7692 43.451H50.1615C49.5129 43.451 49 42.9231 49 42.2895V30.1615C49 29.528 49.5129 29 50.1615 29Z" fill="url(#paint15_radial)"/>
<path d="M50.1615 30H90.7692C91.4179 30 91.9307 30.528 91.9307 31.1615V43.2895C91.9307 43.9381 91.4028 44.451 90.7692 44.451H50.1615C49.5129 44.451 49 43.9231 49 43.2895V31.1615C49 30.528 49.5129 30 50.1615 30Z" fill="url(#paint16_radial)"/>
<path d="M69.138 39.1756L71.5364 31.0148H74.5986L70.5409 42.4942L67.6295 42.4791L63.7679 30.9998H66.815L69.138 39.1756Z" fill="url(#paint17_linear)"/>
<path d="M62.6515 30.9998L58.5636 35.2536L62.8778 42.4791H59.6497L56.6327 37.2749L54.8528 39.1153L54.8377 42.4791H52.1074L52.1677 30.9998H54.898L54.8678 35.676L59.182 30.9998H62.6515Z" fill="url(#paint18_linear)"/>
<path d="M83.2268 39.0552L85.3989 31.0151H89.5925L89.517 42.4945H86.7566L87.0432 33.2627L84.4335 42.4945H81.9597L79.4858 33.2627L79.6518 42.4945H76.8611L76.9215 31.0151H81.1149L83.2268 39.0552Z" fill="url(#paint19_linear)"/>
<path d="M69.138 39.7889L71.5364 31.6281H74.5986L70.5409 43.1075L67.6295 43.0924L63.7679 31.613H66.815L69.138 39.7889Z" fill="url(#paint20_linear)"/>
<path d="M62.6515 31.613L58.5636 35.8669L62.8778 43.0924H59.6497L56.6327 37.8882L54.8528 39.7285L54.8377 43.0924H52.1074L52.1677 31.613H54.898L54.8678 36.2893L59.182 31.613H62.6515Z" fill="url(#paint21_linear)"/>
<path d="M83.2268 39.6685L85.3989 31.6284H89.5925L89.517 43.1078H86.7566L87.0432 33.876L84.4335 43.1078H81.9597L79.4858 33.876L79.6518 43.1078H76.8611L76.9215 31.6284H81.1149L83.2268 39.6685Z" fill="url(#paint22_linear)"/>
<path d="M91.5536 44.1487L89.8642 43.6509L51.2476 43.5453L49.3771 44.1487C49.5883 44.3448 49.8598 44.4504 50.1615 44.4504H75.1114H90.8447C91.1162 44.4353 91.3575 44.3297 91.5536 44.1487Z" fill="url(#paint23_linear)"/>
</g>
<defs>
<linearGradient id="paint0_linear" x1="19.667" y1="90.8182" x2="119.929" y2="90.8182" gradientUnits="userSpaceOnUse">
<stop stop-color="#E7EFF5"/>
<stop offset="0.2574" stop-color="#C3C5D2"/>
<stop offset="0.3352" stop-color="#C6C8D5"/>
<stop offset="0.3997" stop-color="#CED3DD"/>
<stop offset="0.4592" stop-color="#DDE4EC"/>
<stop offset="0.4655" stop-color="#DFE6EE"/>
<stop offset="0.5693" stop-color="#98A5B5"/>
<stop offset="0.995" stop-color="#7E8EA0"/>
</linearGradient>
<linearGradient id="paint1_linear" x1="12.9308" y1="91.0919" x2="120.911" y2="91.0919" gradientUnits="userSpaceOnUse">
<stop stop-color="#475375"/>
<stop offset="0.483607" stop-color="#2E364F"/>
<stop offset="0.532513" stop-color="#2E374F"/>
<stop offset="0.593645" stop-color="#27293B"/>
<stop offset="1" stop-color="#2D3146"/>
</linearGradient>
<linearGradient id="paint2_linear" x1="35.8163" y1="65.1055" x2="95.6142" y2="31.2725" gradientUnits="userSpaceOnUse">
<stop stop-color="#596482"/>
<stop offset="0.995" stop-color="#2A3D6B"/>
</linearGradient>
<linearGradient id="paint3_linear" x1="35.8138" y1="63.3371" x2="95.6118" y2="29.5041" gradientUnits="userSpaceOnUse">
<stop stop-color="#687599"/>
<stop offset="0.995" stop-color="#49587E"/>
</linearGradient>
<linearGradient id="paint4_linear" x1="40.5122" y1="33.7004" x2="94.2668" y2="61.4589" gradientUnits="userSpaceOnUse">
<stop stop-color="#697792"/>
<stop offset="0.1451" stop-color="#66748E"/>
<stop offset="0.265862" stop-color="#7B8CAB"/>
<stop offset="0.5151" stop-color="#6A7997"/>
<stop offset="0.893031" stop-color="#2E3855"/>
</linearGradient>
<radialGradient id="paint5_radial" cx="0" cy="0" r="1" gradientUnits="userSpaceOnUse" gradientTransform="translate(62.4334 23.4267) scale(38.3771 38.3542)">
<stop offset="0.1458" stop-color="#96A1BB"/>
<stop offset="0.8886" stop-color="#5F6A8D"/>
<stop offset="1" stop-color="#4E5E83"/>
</radialGradient>
<radialGradient id="paint6_radial" cx="0" cy="0" r="1" gradientUnits="userSpaceOnUse" gradientTransform="translate(60.0464 21.2056) scale(43.281 43.2552)">
<stop offset="0.21875" stop-color="#F3F5F7" stop-opacity="0.5"/>
<stop offset="0.614583" stop-color="#D5D9DF" stop-opacity="0.2"/>
<stop offset="1" stop-color="#D4D8DE" stop-opacity="0"/>
</radialGradient>
<radialGradient id="paint7_radial" cx="0" cy="0" r="1" gradientUnits="userSpaceOnUse" gradientTransform="translate(70.2473 33.446) scale(33.4947 33.4747)">
<stop stop-color="#24DEDD"/>
<stop offset="0.859375" stop-color="#24D2D1"/>
<stop offset="1" stop-color="#25DFDE" stop-opacity="0"/>
</radialGradient>
<radialGradient id="paint8_radial" cx="0" cy="0" r="1" gradientUnits="userSpaceOnUse" gradientTransform="translate(88.5885 31.363) scale(1.29654 1.29542)">
<stop offset="0.2738" stop-color="white"/>
</radialGradient>
<radialGradient id="paint9_radial" cx="0" cy="0" r="1" gradientUnits="userSpaceOnUse" gradientTransform="translate(77.5133 6.67477) scale(1.29653 1.29542)">
<stop offset="0.2738" stop-color="white"/>
</radialGradient>
<radialGradient id="paint10_radial" cx="0" cy="0" r="1" gradientUnits="userSpaceOnUse" gradientTransform="translate(81.7816 55.5016) scale(1.81183 1.81075)">
<stop stop-color="white"/>
</radialGradient>
<radialGradient id="paint11_radial" cx="0" cy="0" r="1" gradientUnits="userSpaceOnUse" gradientTransform="translate(61.2247 39.6611) scale(1.97654 1.97536)">
<stop stop-color="white"/>
</radialGradient>
<radialGradient id="paint12_radial" cx="0" cy="0" r="1" gradientUnits="userSpaceOnUse" gradientTransform="translate(62.7538 14.1121) scale(1.66567 1.66424)">
<stop stop-color="white"/>
</radialGradient>
<radialGradient id="paint13_radial" cx="0" cy="0" r="1" gradientUnits="userSpaceOnUse" gradientTransform="translate(50.062 48.5336) scale(1.62898 1.62758)">
<stop offset="0.2738" stop-color="white"/>
</radialGradient>
<linearGradient id="paint14_linear" x1="35.1013" y1="58.66" x2="103.301" y2="58.66" gradientUnits="userSpaceOnUse">
<stop stop-color="#66738D"/>
<stop offset="1" stop-color="#2D3854"/>
</linearGradient>
<radialGradient id="paint15_radial" cx="0" cy="0" r="1" gradientUnits="userSpaceOnUse" gradientTransform="translate(70.4664 36.2306) scale(16.0946 15.3864)">
<stop offset="1" stop-color="#15BDB4"/>
</radialGradient>
<radialGradient id="paint16_radial" cx="0" cy="0" r="1" gradientUnits="userSpaceOnUse" gradientTransform="translate(70.4664 37.2306) scale(16.0946 15.3864)">
<stop offset="0.4738" stop-color="#24DEDE"/>
<stop offset="1" stop-color="#25D7D7"/>
</radialGradient>
<linearGradient id="paint17_linear" x1="69.2481" y1="28.5524" x2="69.0704" y2="44.4096" gradientUnits="userSpaceOnUse">
<stop stop-color="#677A82"/>
</linearGradient>
<linearGradient id="paint18_linear" x1="57.5571" y1="28.5556" x2="57.3788" y2="44.3919" gradientUnits="userSpaceOnUse">
<stop stop-color="#677A82"/>
</linearGradient>
<linearGradient id="paint19_linear" x1="83.303" y1="28.571" x2="83.1522" y2="44.4079" gradientUnits="userSpaceOnUse">
<stop stop-color="#677A82"/>
</linearGradient>
<linearGradient id="paint20_linear" x1="69.2481" y1="29.1656" x2="69.0704" y2="45.0229" gradientUnits="userSpaceOnUse">
<stop stop-color="white"/>
</linearGradient>
<linearGradient id="paint21_linear" x1="57.5571" y1="29.1689" x2="57.3788" y2="45.0052" gradientUnits="userSpaceOnUse">
<stop stop-color="white"/>
</linearGradient>
<linearGradient id="paint22_linear" x1="83.303" y1="29.1842" x2="83.1522" y2="45.0212" gradientUnits="userSpaceOnUse">
<stop stop-color="white"/>
</linearGradient>
<linearGradient id="paint23_linear" x1="70.4666" y1="43.545" x2="70.4666" y2="44.4665" gradientUnits="userSpaceOnUse">
<stop stop-color="white" stop-opacity="0"/>
<stop offset="1" stop-color="#24DEDE"/>
</linearGradient>
<clipPath id="clip0">
<rect x="13" width="114" height="140" fill="white"/>
</clipPath>
</defs>
</svg>
