<svg width="140" height="140" viewBox="0 0 140 140" fill="none" xmlns="http://www.w3.org/2000/svg">
<g clip-path="url(#clip0)">
<path d="M104.543 136.53C104.723 136.312 104.871 136.087 105.023 135.845C105.176 135.604 105.313 135.358 105.434 135.108L107.015 132.56L106.97 132.48L25.5828 81.4508C24.6285 80.8606 22.9274 81.8335 21.7891 83.6535C20.6507 85.4735 20.5128 87.4278 21.4627 88.0334L102.923 139.1L104.543 136.53Z" fill="url(#paint0_linear)"/>
<path opacity="0.6" d="M104.564 136.52C104.743 136.303 104.891 136.077 105.044 135.836C105.196 135.594 105.333 135.348 105.455 135.098L107.015 132.561L106.991 132.47L25.6032 81.441C24.6489 80.8508 22.9478 81.8237 21.8094 83.6437C20.6711 85.4637 20.5332 87.418 21.483 88.0236L102.944 139.09L104.564 136.52Z" fill="url(#paint1_linear)"/>
<path d="M21.6236 84.0583C21.6523 84.0162 21.6656 83.9697 21.6943 83.9277L103.04 134.928L102.969 135.059L21.6236 84.0583ZM22.0745 83.2989C22.0413 83.3564 22.0082 83.414 21.9595 83.4671C21.8733 83.5934 21.8026 83.724 21.7319 83.8546L103.077 134.855L103.42 134.299L22.0745 83.2989Z" fill="url(#paint2_linear)"/>
<path opacity="0.5" d="M80.4995 117.55L80.7426 117.167L105.833 132.356L105.379 132.595L80.4995 117.55Z" fill="url(#paint3_linear)"/>
<path d="M106.649 136.845C105.51 138.665 103.82 139.658 102.855 139.047C101.901 138.457 102.043 136.488 103.181 134.668C104.32 132.848 106.01 131.855 106.975 132.465C107.925 133.071 107.787 135.025 106.649 136.845Z" fill="url(#paint4_linear)"/>
<path d="M69.0752 108.014C69.0752 111.51 66.2074 114.362 62.6629 114.362C61.0517 114.362 59.5695 113.766 58.4416 112.799C57.0883 111.639 56.2344 109.915 56.2344 108.014C56.2344 107.917 56.2344 107.804 56.2344 107.708C56.2344 107.675 56.2344 107.659 56.2344 107.627C56.2344 107.514 56.2505 107.401 56.2666 107.305C56.2827 107.095 56.3149 106.902 56.3633 106.709C56.3794 106.644 56.3955 106.58 56.4116 106.515C56.4277 106.435 56.4599 106.354 56.476 106.274C56.5727 105.968 56.6694 105.678 56.8144 105.388C56.8627 105.275 56.9272 105.162 56.9755 105.065C56.9755 105.065 56.9755 105.049 56.9916 105.049C56.9916 105.033 57.0077 105.017 57.0238 105.001V104.985C57.1205 104.808 57.2333 104.63 57.3461 104.469C57.5072 104.244 57.6844 104.018 57.8616 103.809C57.91 103.744 57.9583 103.696 58.0227 103.647C58.1033 103.567 58.1839 103.486 58.2644 103.406C58.3611 103.325 58.4416 103.245 58.5383 103.164C58.7478 102.987 58.9572 102.842 59.1828 102.697C59.1989 102.681 59.215 102.681 59.215 102.681C59.505 102.504 59.795 102.342 60.1172 102.214C60.1495 102.197 60.1817 102.181 60.2139 102.181H60.23C60.4234 102.101 60.6328 102.036 60.8423 101.972C60.9389 101.94 61.0356 101.924 61.1323 101.891C61.1645 101.875 61.2128 101.875 61.245 101.859C61.6317 101.779 62.0345 101.714 62.4534 101.714C62.4856 101.714 62.5179 101.714 62.5501 101.714C62.5823 101.714 62.6145 101.714 62.6467 101.714C64.3707 101.714 65.9335 102.391 67.0935 103.486C68.318 104.598 69.0752 106.225 69.0752 108.014Z" fill="url(#paint5_radial)"/>
<path opacity="0.5" d="M62.1149 112.606C64.4729 112.606 66.3844 110.695 66.3844 108.337C66.3844 105.979 64.4729 104.067 62.1149 104.067C59.7569 104.067 57.8453 105.979 57.8453 108.337C57.8453 110.695 59.7569 112.606 62.1149 112.606Z" fill="url(#paint6_linear)"/>
<path d="M63.5809 85.2812C63.307 85.249 63.0331 85.2329 62.7431 85.2329C62.4531 85.2329 62.1631 85.249 61.9053 85.2812H58.8925L58.8602 85.3618V105.163C58.8602 106.291 60.6003 107.225 62.7592 107.225C64.9182 107.225 66.6582 106.307 66.6582 105.163V85.2812H63.5809Z" fill="url(#paint7_linear)"/>
<path d="M63.5809 85.2812C63.307 85.249 63.0331 85.2329 62.7431 85.2329C62.4531 85.2329 62.1631 85.249 61.9053 85.2812L58.9247 85.2974L58.8602 85.3779V105.163C58.8602 106.291 60.6003 107.225 62.7592 107.225C64.9182 107.225 66.6582 106.307 66.6582 105.163V85.2812H63.5809Z" fill="url(#paint8_linear)"/>
<path d="M63.2102 107.063C63.1619 107.063 63.1136 107.08 63.0652 107.08V87.3108H63.2102V107.063ZM62.3241 107.08C62.3885 107.08 62.453 107.08 62.5174 107.08C62.6786 107.08 62.8236 107.08 62.9686 107.063V87.3269H62.308V107.08H62.3241Z" fill="url(#paint9_linear)"/>
<path d="M59.7949 87.6648H59.3438V85.5381L59.7949 85.7959V87.6648Z" fill="url(#paint10_linear)"/>
<path d="M62.7271 87.4395C64.8805 87.4395 66.6261 86.5162 66.6261 85.3772C66.6261 84.2382 64.8805 83.3149 62.7271 83.3149C60.5738 83.3149 58.8281 84.2382 58.8281 85.3772C58.8281 86.5162 60.5738 87.4395 62.7271 87.4395Z" fill="url(#paint11_linear)"/>
<path d="M102.581 75.5924L101.598 75.5378C97.9913 67.3416 85.096 61.3311 69.7964 61.3311C54.8247 61.3311 42.749 67.0684 38.5962 73.68L37.0663 73.6253V76.4667C36.3013 86.6846 51.7101 97.9953 69.5232 98.4871C91.0519 99.0882 102.581 89.0342 102.581 78.5977C102.581 78.3791 102.581 78.1606 102.527 77.8874L102.581 75.5924Z" fill="url(#paint12_linear)"/>
<path d="M102.583 75.5929C102.583 86.0294 91.0536 96.0834 69.5249 95.4824C51.7118 94.9906 36.303 83.6798 37.068 73.4073C37.669 65.1018 51.6572 56.7417 69.7435 56.7417C87.8297 56.7417 102.583 65.1565 102.583 75.5929Z" fill="url(#paint13_linear)"/>
<path d="M82.5843 83.1321L74.8799 89.5798C73.0221 91.1644 70.29 91.2737 68.2683 89.9076L48.7067 76.7937C47.4499 75.9741 46.7396 74.5534 46.7396 73.0781V42.2058L84.5514 49.8009V79.034C84.4967 80.6186 83.7864 82.0939 82.5843 83.1321Z" fill="url(#paint14_linear)"/>
<path d="M51.7089 72.1738L66.2142 81.3723L66.8471 85.9204L51.0013 75.7117L51.7089 72.1738Z" fill="url(#paint15_linear)"/>
<path d="M41.4382 8.76516L86.3534 3.02783L123.018 19.6388L96.4074 45.4841L41.4382 8.76516Z" fill="url(#paint16_linear)"/>
<path d="M95.8611 84.6089L122.745 45.1032L123.018 19.6404L96.0796 45.7043L95.8611 84.6089Z" fill="url(#paint17_linear)"/>
<path d="M109.194 57.6646C109.194 58.0639 109.639 58.3021 109.971 58.0806L110.282 57.873C110.422 57.7803 110.505 57.6242 110.505 57.457V47.9272C110.505 47.5214 110.047 47.2846 109.716 47.5191L109.405 47.7397C109.272 47.8335 109.194 47.9856 109.194 48.1477V57.6646ZM111.489 54.0583C111.489 54.4576 111.934 54.6958 112.266 54.4743L112.577 54.2667C112.717 54.174 112.8 54.0179 112.8 53.8507V44.2115C112.8 43.8058 112.342 43.569 112.011 43.8035L111.7 44.0241C111.567 44.1179 111.489 44.27 111.489 44.4321V54.0583ZM113.729 50.452C113.729 50.8513 114.174 51.0895 114.506 50.868L114.818 50.6604C114.957 50.5677 115.04 50.4115 115.04 50.2444V40.6052C115.04 40.1994 114.583 39.9627 114.251 40.1972L113.94 40.4178C113.808 40.5115 113.729 40.6636 113.729 40.8258V50.452ZM116.024 46.8456C116.024 47.245 116.469 47.4832 116.801 47.2617L117.113 47.0541C117.252 46.9613 117.335 46.8052 117.335 46.638V36.9443C117.335 36.5385 116.877 36.3017 116.546 36.5362L116.235 36.7568C116.103 36.8506 116.024 37.0027 116.024 37.1648V46.8456ZM118.319 43.1847C118.319 43.584 118.764 43.8222 119.096 43.6007L119.408 43.3931C119.547 43.3004 119.63 43.1442 119.63 42.9771V33.2833C119.63 32.8775 119.172 32.6407 118.841 32.8753L118.53 33.0959C118.398 33.1896 118.319 33.3417 118.319 33.5039V43.1847Z" fill="#2FAAAF"/>
<path d="M99.6312 97.1215L99.4673 97.2854C97.2271 99.4164 93.7847 99.6896 91.2712 97.7772L32.5318 60.0747C31.0018 58.9819 30.1276 57.1787 30.1276 55.3209V3.19312L101.216 37.5625V93.2966C101.27 94.7719 100.669 96.1379 99.6312 97.1215Z" fill="url(#paint18_linear)"/>
<path d="M99.6312 97.1215L99.4673 97.2854C97.2271 99.4164 93.7847 99.6896 91.2712 97.7772L32.5318 60.0747C31.0018 58.9819 30.1276 57.1787 30.1276 55.3209V3.19312L101.216 37.5625V93.2966C101.27 94.7719 100.669 96.1379 99.6312 97.1215Z" fill="url(#paint19_linear)"/>
<path d="M87.3371 87.3955C86.8999 87.3955 86.4628 87.2862 86.0803 87.013L35.4825 55.6489C33.9526 54.6654 33.0237 52.9715 33.0237 51.1683V14.3401C33.0237 13.4658 33.734 12.9194 34.4443 12.9194C34.7175 12.9194 34.9361 12.9741 35.1546 13.138L87.5556 44.1196C88.8124 44.8846 89.5774 46.2506 89.5774 47.7259V85.1552C89.5774 86.5759 88.4299 87.3955 87.3371 87.3955Z" fill="url(#paint20_linear)"/>
<path d="M91.1619 40.567L31.1112 5.0502C29.7998 4.23058 29.9091 2.31813 31.2751 1.66244L34.1165 0.296404C34.9908 -0.140726 36.0836 -0.0860845 36.9578 0.405687L100.068 35.4307C101.598 36.305 101.653 38.4907 100.232 39.4742L98.9757 40.3485C96.6807 41.9331 93.5661 42.0423 91.1619 40.567Z" fill="url(#paint21_linear)"/>
</g>
<defs>
<linearGradient id="paint0_linear" x1="65.4877" y1="106.629" x2="60.2222" y2="115.067" gradientUnits="userSpaceOnUse">
<stop stop-color="#E7EFF5"/>
<stop offset="0.1867" stop-color="#C3C5D2"/>
<stop offset="0.3352" stop-color="#C6C8D5"/>
<stop offset="0.3577" stop-color="#C6CAD6"/>
<stop offset="0.4626" stop-color="#C6CFDA"/>
<stop offset="0.995" stop-color="#7E8EA0"/>
</linearGradient>
<linearGradient id="paint1_linear" x1="66.9853" y1="104.252" x2="56.9369" y2="120.354" gradientUnits="userSpaceOnUse">
<stop stop-color="#B9C5D3"/>
<stop offset="0.0891947" stop-color="#A8B5C5" stop-opacity="0.9108"/>
<stop offset="0.2285" stop-color="#95A4B4" stop-opacity="0.7715"/>
<stop offset="0.3918" stop-color="#8897A9" stop-opacity="0.6082"/>
<stop offset="0.5994" stop-color="#8090A2" stop-opacity="0.4006"/>
<stop offset="1" stop-color="#7E8EA0" stop-opacity="0"/>
</linearGradient>
<linearGradient id="paint2_linear" x1="62.3047" y1="125.355" x2="62.8151" y2="88.6561" gradientUnits="userSpaceOnUse">
<stop stop-color="white" stop-opacity="0.3"/>
<stop offset="1" stop-color="white" stop-opacity="0"/>
</linearGradient>
<linearGradient id="paint3_linear" x1="82.9049" y1="118.537" x2="104.432" y2="131.971" gradientUnits="userSpaceOnUse">
<stop stop-color="white" stop-opacity="0"/>
<stop offset="1" stop-color="white" stop-opacity="0.5"/>
</linearGradient>
<linearGradient id="paint4_linear" x1="106.485" y1="131.92" x2="97.5178" y2="155.408" gradientUnits="userSpaceOnUse">
<stop stop-color="#DFE6EE"/>
<stop offset="0.5" stop-color="#F5F7F8"/>
<stop offset="0.995" stop-color="#ABB6C3"/>
</linearGradient>
<radialGradient id="paint5_radial" cx="0" cy="0" r="1" gradientUnits="userSpaceOnUse" gradientTransform="translate(61.1844 106.108) scale(7.36228 7.27913)">
<stop offset="0.1458" stop-color="#66FFF7"/>
<stop offset="0.8886" stop-color="#1BC5BD"/>
<stop offset="1" stop-color="#15B6AE"/>
</radialGradient>
<linearGradient id="paint6_linear" x1="62.9201" y1="104.767" x2="61.2818" y2="111.94" gradientUnits="userSpaceOnUse">
<stop stop-color="white" stop-opacity="0.2"/>
<stop offset="1" stop-color="white" stop-opacity="0"/>
</linearGradient>
<linearGradient id="paint7_linear" x1="59.0665" y1="96.221" x2="67.2742" y2="96.221" gradientUnits="userSpaceOnUse">
<stop stop-color="#E7EFF5"/>
<stop offset="0.2098" stop-color="#C3C5D2"/>
<stop offset="0.3352" stop-color="#C6C8D5"/>
<stop offset="0.3571" stop-color="#C6CAD6"/>
<stop offset="0.4592" stop-color="#C6CFDA"/>
<stop offset="0.653" stop-color="#98A5B5"/>
<stop offset="0.995" stop-color="#7E8EA0"/>
</linearGradient>
<linearGradient id="paint8_linear" x1="59.0665" y1="96.221" x2="67.2742" y2="96.221" gradientUnits="userSpaceOnUse">
<stop stop-color="#B9C5D3"/>
<stop offset="0.0891947" stop-color="#A8B5C5" stop-opacity="0.9108"/>
<stop offset="0.2285" stop-color="#95A4B4" stop-opacity="0.7715"/>
<stop offset="0.3918" stop-color="#8897A9" stop-opacity="0.6082"/>
<stop offset="0.5994" stop-color="#8090A2" stop-opacity="0.4006"/>
<stop offset="1" stop-color="#7E8EA0" stop-opacity="0"/>
</linearGradient>
<linearGradient id="paint9_linear" x1="62.7689" y1="103.518" x2="62.7689" y2="89.1811" gradientUnits="userSpaceOnUse">
<stop stop-color="white" stop-opacity="0"/>
<stop offset="1" stop-color="white" stop-opacity="0.3"/>
</linearGradient>
<linearGradient id="paint10_linear" x1="59.5721" y1="87.4803" x2="59.5721" y2="85.6359" gradientUnits="userSpaceOnUse">
<stop stop-color="white" stop-opacity="0"/>
<stop offset="1" stop-color="white" stop-opacity="0.5"/>
</linearGradient>
<linearGradient id="paint11_linear" x1="58.6188" y1="86.1745" x2="65.195" y2="84.8879" gradientUnits="userSpaceOnUse">
<stop stop-color="#DFE6EE"/>
<stop offset="0.5" stop-color="#F5F7F8"/>
<stop offset="0.995" stop-color="#ABB6C3"/>
</linearGradient>
<linearGradient id="paint12_linear" x1="37.0472" y1="79.9657" x2="102.582" y2="79.9657" gradientUnits="userSpaceOnUse">
<stop stop-color="#3D4866"/>
<stop offset="0.3104" stop-color="#282F49"/>
<stop offset="0.75" stop-color="#2E3549"/>
<stop offset="1" stop-color="#232735"/>
</linearGradient>
<linearGradient id="paint13_linear" x1="26.6605" y1="86.5947" x2="103.465" y2="68.2605" gradientUnits="userSpaceOnUse">
<stop stop-color="#59658A"/>
<stop offset="0.5" stop-color="#4D5A7D"/>
<stop offset="0.995" stop-color="#676E9A"/>
</linearGradient>
<linearGradient id="paint14_linear" x1="46.6927" y1="66.508" x2="84.4919" y2="66.508" gradientUnits="userSpaceOnUse">
<stop stop-color="#8A96AE"/>
<stop offset="0.588542" stop-color="#6B789A"/>
<stop offset="0.65625" stop-color="#7C8DAE"/>
<stop offset="0.703125" stop-color="#5B6F98"/>
<stop offset="0.7821" stop-color="#506593"/>
</linearGradient>
<linearGradient id="paint15_linear" x1="57.0157" y1="77.4806" x2="54.893" y2="80.6647" gradientUnits="userSpaceOnUse">
<stop stop-color="#465275"/>
<stop offset="1" stop-color="#353F5D"/>
</linearGradient>
<linearGradient id="paint16_linear" x1="54.493" y1="1.34056" x2="100.254" y2="27.2322" gradientUnits="userSpaceOnUse">
<stop stop-color="#6976A0"/>
<stop offset="0.995" stop-color="#4C5A77"/>
</linearGradient>
<linearGradient id="paint17_linear" x1="126.004" y1="30.7804" x2="99.8236" y2="56.6069" gradientUnits="userSpaceOnUse">
<stop stop-color="#3F4A68"/>
<stop offset="0.995" stop-color="#282F49"/>
</linearGradient>
<linearGradient id="paint18_linear" x1="34.6493" y1="51.1263" x2="100.46" y2="51.1263" gradientUnits="userSpaceOnUse">
<stop stop-color="#E7EFF5"/>
<stop offset="0.2574" stop-color="#C3C5D2"/>
<stop offset="0.6421" stop-color="#C6C8D5"/>
<stop offset="0.8254" stop-color="#CED3DD"/>
<stop offset="0.8651" stop-color="#DDE4EC"/>
<stop offset="0.8962" stop-color="#DFE6EE"/>
<stop offset="0.9307" stop-color="#98A5B5"/>
<stop offset="0.995" stop-color="#7E8EA0"/>
</linearGradient>
<linearGradient id="paint19_linear" x1="34.6493" y1="51.1263" x2="100.46" y2="51.1263" gradientUnits="userSpaceOnUse">
<stop stop-color="#444D6D"/>
<stop offset="0.804862" stop-color="#333A54"/>
<stop offset="0.904314" stop-color="#3C4661"/>
<stop offset="0.9375" stop-color="#2E3344"/>
<stop offset="0.989583" stop-color="#2A2E40"/>
</linearGradient>
<linearGradient id="paint20_linear" x1="36.6021" y1="50.1777" x2="88.9622" y2="50.1777" gradientUnits="userSpaceOnUse">
<stop stop-color="#2FD8CF"/>
<stop offset="1" stop-color="#2AD9D0"/>
</linearGradient>
<linearGradient id="paint21_linear" x1="96.9932" y1="38.209" x2="33.3115" y2="1.76893" gradientUnits="userSpaceOnUse">
<stop stop-color="#6D7397"/>
<stop offset="0.5" stop-color="#697490"/>
<stop offset="0.997397" stop-color="#697794"/>
</linearGradient>
<clipPath id="clip0">
<rect x="14" width="111" height="140" fill="white"/>
</clipPath>
</defs>
</svg>
