<svg width="140" height="140" viewBox="0 0 140 140" fill="none" xmlns="http://www.w3.org/2000/svg">
<g clip-path="url(#clip0)">
<path d="M6.08447 28.267V95.5298C6.08447 98.4021 7.58821 101.055 10.0212 102.542L62.6184 137.516C68.0927 140.845 74.9355 140.845 80.4098 137.516L130.946 102.542C133.379 101.038 134.882 98.3852 134.882 95.5298V28.8921L6.08447 28.267Z" fill="url(#paint0_linear)"/>
<path d="M6.08447 28.8921V95.5298C6.08447 98.4021 7.58821 101.055 10.0212 102.542L62.6184 137.516C68.0927 140.845 74.9355 140.845 80.4098 137.516L130.946 102.542C133.379 101.038 134.882 98.3852 134.882 95.5298V28.8921H6.08447Z" fill="url(#paint1_linear)"/>
<path d="M132.267 36.358L80.7509 67.852C75.0738 71.3157 67.9268 71.3157 62.2498 67.852L7.86165 34.6177C5.1752 32.9788 5.44553 28.9744 8.35164 27.7241L65.6628 3.19117C69.3968 1.60294 73.6039 1.60294 77.321 3.19117L131.54 26.3893C135.747 28.1972 136.17 33.9925 132.267 36.358Z" fill="url(#paint2_linear)"/>
<path d="M132.264 34.3495L80.7479 65.8436C75.0709 69.3073 67.9239 69.3073 62.2469 65.8436L7.85872 32.6092C5.17227 30.9703 5.4426 26.966 8.34871 25.7157L65.6598 1.18274C69.3939 -0.405478 73.6009 -0.405478 77.3181 1.18274L131.537 24.3809C135.744 26.1888 136.167 31.9841 132.264 34.3495Z" fill="url(#paint3_linear)"/>
<path d="M93.7578 114.394C93.7578 114.23 93.8379 114.077 93.9724 113.983L94.3578 113.715C94.6894 113.485 95.1432 113.722 95.1432 114.126V119.278C95.1432 119.441 95.063 119.595 94.9286 119.688L94.5431 119.956C94.2116 120.187 93.7578 119.949 93.7578 119.546V114.394ZM96.9511 117.376C96.9511 117.777 97.4012 118.015 97.7331 117.788L98.1185 117.525C98.255 117.432 98.3366 117.278 98.3366 117.112V111.929C98.3366 111.525 97.8827 111.288 97.5512 111.519L97.1657 111.787C97.0313 111.88 96.9511 112.033 96.9511 112.197V117.376ZM100.144 115.179C100.144 115.581 100.595 115.819 100.926 115.592L101.312 115.329C101.448 115.236 101.53 115.081 101.53 114.916V109.699C101.53 109.295 101.076 109.058 100.745 109.288L100.359 109.556C100.225 109.65 100.144 109.803 100.144 109.967V115.179ZM103.338 113.016C103.338 113.418 103.788 113.656 104.12 113.429L104.505 113.166C104.642 113.073 104.723 112.918 104.723 112.753V107.503C104.723 107.099 104.269 106.862 103.938 107.092L103.552 107.36C103.418 107.453 103.338 107.607 103.338 107.77V113.016ZM106.514 110.82C106.514 111.222 106.964 111.459 107.296 111.233L107.682 110.97C107.818 110.876 107.9 110.722 107.9 110.557V105.272C107.9 104.868 107.446 104.631 107.114 104.862L106.729 105.13C106.594 105.223 106.514 105.376 106.514 105.54V110.82ZM109.708 108.623C109.708 109.025 110.158 109.263 110.49 109.036L110.875 108.773C111.011 108.68 111.093 108.525 111.093 108.36V103.042C111.093 102.638 110.639 102.401 110.308 102.631L109.922 102.899C109.788 102.993 109.708 103.146 109.708 103.31V108.623ZM112.901 106.461C112.901 106.863 113.351 107.1 113.683 106.874L114.068 106.61C114.205 106.517 114.286 106.363 114.286 106.198V100.846C114.286 100.442 113.833 100.204 113.501 100.435L113.115 100.703C112.981 100.796 112.901 100.95 112.901 101.113V106.461ZM116.094 104.281C116.094 104.683 116.544 104.921 116.876 104.694L117.262 104.431C117.398 104.338 117.48 104.183 117.48 104.018V98.6152C117.48 98.2115 117.026 97.9742 116.694 98.2047L116.309 98.4726C116.174 98.5661 116.094 98.7195 116.094 98.8832V104.281ZM119.271 102.085C119.271 102.487 119.721 102.724 120.053 102.498L120.438 102.234C120.575 102.141 120.656 101.987 120.656 101.821V96.4019C120.656 95.9981 120.202 95.7609 119.871 95.9913L119.485 96.2593C119.351 96.3527 119.271 96.5061 119.271 96.6698V102.085ZM122.682 94.0462C122.546 94.1393 122.464 94.2939 122.464 94.4591V99.9051C122.464 100.307 122.914 100.545 123.246 100.318L123.631 100.055C123.768 99.9616 123.849 99.8071 123.849 99.6419V94.1958C123.849 93.794 123.399 93.5563 123.067 93.7829L122.682 94.0462Z" fill="#2FAAAF"/>
<path d="M59.4085 130.471C58.5637 130.471 57.7358 130.2 57.0092 129.71L14.8031 101.629C11.576 99.3821 9.64984 95.6481 9.64984 91.6269V46.785C9.64984 44.4195 11.5084 42.4934 13.7894 42.4934C14.5328 42.4934 15.2762 42.7131 15.9182 43.1186L58.9692 69.2735C61.8922 71.1152 63.7 74.4437 63.7 77.9749V125.976C63.7338 128.764 61.4867 130.471 59.4085 130.471Z" fill="#2CD8CF"/>
<path d="M20.869 71.0134L13 71.7003L20.8093 82.272V79.2408L24.8409 81.7941L23.6613 78.4494L24.8558 76.6128L20.8541 74.0595L20.869 71.0134Z" fill="white"/>
<path d="M25.6324 82.2863L26.9314 83.1075L25.7518 79.7628L26.9314 77.9262L25.6623 77.105L24.4677 78.9416L25.6324 82.2863Z" fill="white"/>
<path d="M27.6927 83.6012L28.9917 84.4224L27.842 81.0927L29.0365 79.2412L27.7225 78.4199L26.5429 80.2714L27.6927 83.6012Z" fill="white"/>
<path d="M20.8692 71.0134L20.8094 82.272V79.2408L24.841 81.7941L23.6614 78.4494L24.8559 76.6128L20.8542 74.0595L20.8692 71.0134Z" fill="url(#paint4_linear)"/>
<path d="M25.6324 82.2863L26.9314 83.1075L25.7518 79.7628L26.9314 77.9262L25.6623 77.105L24.4677 78.9416L25.6324 82.2863Z" fill="url(#paint5_linear)"/>
<path d="M27.6931 83.6012L28.9921 84.4224L27.8424 81.0927L29.0369 79.2412L27.7229 78.4199L26.5433 80.2714L27.6931 83.6012Z" fill="url(#paint6_linear)"/>
<path d="M51.5689 90.5298L59.3632 101.087L51.539 101.729V98.7124L47.5373 96.1591L48.702 94.3224L47.5522 90.9927L51.5689 93.546V90.5298Z" fill="white"/>
<path d="M46.7458 95.6657L45.4617 94.8445L46.6413 93.0079L45.4617 89.6781L46.7458 90.4993L47.9403 93.8291L46.7458 95.6657Z" fill="white"/>
<path d="M44.6703 94.3524L43.3712 93.5311L44.5658 91.6945L43.3712 88.3647L44.6703 89.186L45.835 92.5158L44.6703 94.3524Z" fill="white"/>
<path d="M51.5689 90.5298L51.539 101.729V98.7124L47.5373 96.1591L48.702 94.3224L47.5522 90.9927L51.5689 93.546V90.5298Z" fill="url(#paint7_linear)"/>
<path d="M46.7458 95.6657L45.4617 94.8445L46.6413 93.0079L45.4617 89.6781L46.7458 90.4993L47.9403 93.8291L46.7458 95.6657Z" fill="url(#paint8_linear)"/>
<path d="M44.6703 94.3524L43.3712 93.5311L44.5658 91.6945L43.3712 88.3647L44.6703 89.186L45.835 92.5158L44.6703 94.3524Z" fill="url(#paint9_linear)"/>
<path d="M21.78 85.6753L19.6896 94.6642L28.7382 98.0537L26.8568 94.709L29.7386 93.2755L27.2749 90.8417L26.5283 87.5716L23.6465 89.02L21.78 85.6753Z" fill="white"/>
<path d="M30.291 92.9911L31.2019 92.5282L28.768 90.1093L27.9915 86.8392L27.0956 87.3021L27.8422 90.5722L30.291 92.9911Z" fill="white"/>
<path d="M31.7843 92.2595L32.6951 91.7966L30.2613 89.3627L29.4848 86.0927L28.574 86.5555L29.3355 89.8256L31.7843 92.2595Z" fill="white"/>
<path d="M21.78 85.6753L28.7382 98.0537L26.8568 94.709L29.7386 93.2755L27.2749 90.8417L26.5283 87.5716L23.6465 89.02L21.78 85.6753Z" fill="url(#paint10_linear)"/>
<path d="M30.291 92.9911L31.2019 92.5282L28.768 90.1093L27.9915 86.8392L27.0956 87.3021L27.8422 90.5722L30.291 92.9911Z" fill="url(#paint11_linear)"/>
<path d="M31.7843 92.2595L32.6951 91.7966L30.2613 89.3627L29.4848 86.0927L28.574 86.5555L29.3355 89.8256L31.7843 92.2595Z" fill="url(#paint12_linear)"/>
<path d="M43.5952 74.7599L52.614 78.2091L50.5534 87.1383L48.6869 83.8085L45.835 85.227L45.0734 81.957L42.6246 79.5231L45.4915 78.1046L43.5952 74.7599Z" fill="white"/>
<path d="M45.2977 85.4964L44.3719 85.9593L43.5954 82.6892L41.1616 80.2554L42.0873 79.7925L44.5212 82.2413L45.2977 85.4964Z" fill="white"/>
<path d="M43.8193 86.243L42.8786 86.6909L42.132 83.4209L39.6981 80.987L40.609 80.5391L43.0279 82.9729L43.8193 86.243Z" fill="white"/>
<path d="M43.5952 74.7599L50.5534 87.1383L48.6869 83.8085L45.835 85.227L45.0734 81.957L42.6246 79.5231L45.4915 78.1046L43.5952 74.7599Z" fill="url(#paint13_linear)"/>
<path d="M45.2977 85.4964L44.3719 85.9593L43.5954 82.6892L41.1616 80.2554L42.0873 79.7925L44.5212 82.2413L45.2977 85.4964Z" fill="url(#paint14_linear)"/>
<path d="M43.8193 86.243L42.8786 86.6909L42.132 83.4209L39.6981 80.987L40.609 80.5391L43.0279 82.9729L43.8193 86.243Z" fill="url(#paint15_linear)"/>
<path d="M31.187 100.726L36.0846 112.731L41.0868 106.968L38.399 105.28L38.4289 100.711L36.1294 100.607L33.8747 97.8295L33.8449 102.399L31.187 100.726Z" fill="white"/>
<path d="M38.4439 99.8293V98.3511L36.1593 98.2465L33.8748 95.4692V96.9475L36.1294 99.7248L38.4439 99.8293Z" fill="white"/>
<path d="M38.4438 97.4558V95.9925L36.1592 95.888L33.8896 93.1107V94.574L36.1592 97.3513L38.4438 97.4558Z" fill="white"/>
<path d="M31.187 100.726L41.0868 106.968L38.399 105.28L38.4289 100.711L36.1294 100.607L33.8747 97.8295L33.8449 102.399L31.187 100.726Z" fill="url(#paint16_linear)"/>
<path d="M38.4439 99.8293V98.3511L36.1593 98.2465L33.8748 95.4692V96.9475L36.1294 99.7248L38.4439 99.8293Z" fill="url(#paint17_linear)"/>
<path d="M38.4438 97.4558V95.9925L36.1592 95.888L33.8896 93.1107V94.574L36.1592 97.3513L38.4438 97.4558Z" fill="url(#paint18_linear)"/>
<path d="M31.3363 65.7859L36.2787 60.0521L41.1913 72.0871L38.5185 70.3849V74.954L36.2339 72.1617L33.9643 72.0572L33.9942 67.4881L31.3363 65.7859Z" fill="white"/>
<path d="M38.5184 75.8343V77.3125L36.2339 74.5203L33.9642 74.4157V72.9375L36.2339 73.057L38.5184 75.8343Z" fill="white"/>
<path d="M38.5035 78.2098V79.6731L36.2339 76.8958L33.9642 76.7763V75.313L36.2339 75.4175L38.5035 78.2098Z" fill="white"/>
<path d="M31.3363 65.7855L41.1913 72.0867L38.5185 70.3845V74.9536L36.2339 72.1614L33.9643 72.0568L33.9942 67.4877L31.3363 65.7855Z" fill="url(#paint19_linear)"/>
<path d="M38.5184 75.8343V77.3125L36.2339 74.5203L33.9642 74.4157V72.9375L36.2339 73.057L38.5184 75.8343Z" fill="url(#paint20_linear)"/>
<path d="M38.5035 78.208V79.6713L36.2339 76.894L33.9642 76.7746V75.3113L36.2339 75.4158L38.5035 78.208Z" fill="url(#paint21_linear)"/>
<path d="M43.5204 107.356L52.569 115.359L50.5533 103.847L48.6569 104.788L45.8199 99.7706L45.0136 102.04L42.5797 101.383L45.4167 106.4L43.5204 107.356Z" fill="white"/>
<path d="M45.2677 98.7855L44.3419 97.1729L43.5505 99.4425L41.1166 98.7855L42.0275 100.398L44.4763 101.07L45.2677 98.7855Z" fill="white"/>
<path d="M43.7744 96.1874L42.8785 94.5598L42.0871 96.8444L39.6383 96.1874L40.5641 97.8L42.998 98.4719L43.7744 96.1874Z" fill="white"/>
<path d="M43.5204 107.356L50.5533 103.847L48.6569 104.788L45.8199 99.7706L45.0136 102.04L42.5797 101.383L45.4167 106.4L43.5204 107.356Z" fill="url(#paint22_linear)"/>
<path d="M45.2677 98.7855L44.3419 97.1729L43.5505 99.4425L41.1166 98.7855L42.0275 100.398L44.4763 101.07L45.2677 98.7855Z" fill="url(#paint23_linear)"/>
<path d="M43.7744 96.1874L42.8785 94.5598L42.0871 96.8444L39.6383 96.1874L40.5641 97.8L42.998 98.4719L43.7744 96.1874Z" fill="url(#paint24_linear)"/>
<path d="M21.8995 68.8924L19.9136 57.3203L28.9174 65.3835L27.0211 66.3242L29.8432 71.3711L27.3944 70.6992L26.603 72.9837L23.7958 67.9517L21.8995 68.8924Z" fill="white"/>
<path d="M30.3807 72.3572L31.3065 73.9848L28.8427 73.3129L28.0663 75.5974L27.1555 73.9699L27.9468 71.6853L30.3807 72.3572Z" fill="white"/>
<path d="M31.8591 74.9703L32.77 76.5829L30.3062 75.9259L29.5149 78.2104L28.619 76.5829L29.4103 74.2983L31.8591 74.9703Z" fill="white"/>
<path d="M21.8997 68.8924L28.9176 65.3834L27.0212 66.3241L29.8433 71.3711L27.3945 70.6991L26.6032 72.9837L23.796 67.9517L21.8997 68.8924Z" fill="url(#paint25_linear)"/>
<path d="M30.3807 72.3572L31.3065 73.9848L28.8427 73.3129L28.0663 75.5974L27.1555 73.9699L27.9468 71.6853L30.3807 72.3572Z" fill="url(#paint26_linear)"/>
<path d="M31.8591 74.9703L32.77 76.5829L30.3062 75.9259L29.5149 78.2104L28.619 76.5829L29.4103 74.2983L31.8591 74.9703Z" fill="url(#paint27_linear)"/>
</g>
<defs>
<linearGradient id="paint0_linear" x1="13.5719" y1="84.1314" x2="127.488" y2="84.1314" gradientUnits="userSpaceOnUse">
<stop stop-color="#E7EFF5"/>
<stop offset="0.2574" stop-color="#C3C5D2"/>
<stop offset="0.3352" stop-color="#C6C8D5"/>
<stop offset="0.3997" stop-color="#CED3DD"/>
<stop offset="0.4592" stop-color="#DDE4EC"/>
<stop offset="0.4655" stop-color="#DFE6EE"/>
<stop offset="0.5693" stop-color="#98A5B5"/>
<stop offset="0.995" stop-color="#7E8EA0"/>
</linearGradient>
<linearGradient id="paint1_linear" x1="5.91839" y1="84.4439" x2="128.604" y2="84.4439" gradientUnits="userSpaceOnUse">
<stop stop-color="#475375"/>
<stop offset="0.483607" stop-color="#2E364F"/>
<stop offset="0.532513" stop-color="#2E374F"/>
<stop offset="0.593645" stop-color="#27293B"/>
<stop offset="1" stop-color="#2D3146"/>
</linearGradient>
<linearGradient id="paint2_linear" x1="31.9204" y1="54.9195" x2="99.8618" y2="16.479" gradientUnits="userSpaceOnUse">
<stop stop-color="#596482"/>
<stop offset="0.995" stop-color="#2A3D6B"/>
</linearGradient>
<linearGradient id="paint3_linear" x1="31.9175" y1="52.9111" x2="99.8588" y2="14.4706" gradientUnits="userSpaceOnUse">
<stop stop-color="#687599"/>
<stop offset="0.995" stop-color="#49587E"/>
</linearGradient>
<linearGradient id="paint4_linear" x1="28.6784" y1="76.6427" x2="21.4731" y2="76.6427" gradientUnits="userSpaceOnUse">
<stop stop-color="white"/>
<stop offset="0.995" stop-color="#EBF3F9"/>
</linearGradient>
<linearGradient id="paint5_linear" x1="27.8498" y1="80.1062" x2="22.1864" y2="80.1062" gradientUnits="userSpaceOnUse">
<stop stop-color="white"/>
<stop offset="0.995" stop-color="#EBF3F9"/>
</linearGradient>
<linearGradient id="paint6_linear" x1="27.8381" y1="81.4212" x2="22.1766" y2="81.4212" gradientUnits="userSpaceOnUse">
<stop stop-color="white"/>
<stop offset="0.995" stop-color="#EBF3F9"/>
</linearGradient>
<linearGradient id="paint7_linear" x1="43.7499" y1="96.1292" x2="50.889" y2="96.1292" gradientUnits="userSpaceOnUse">
<stop stop-color="white"/>
<stop offset="0.995" stop-color="#EBF3F9"/>
</linearGradient>
<linearGradient id="paint8_linear" x1="44.5444" y1="92.6719" x2="50.1902" y2="92.6719" gradientUnits="userSpaceOnUse">
<stop stop-color="white"/>
<stop offset="0.995" stop-color="#EBF3F9"/>
</linearGradient>
<linearGradient id="paint9_linear" x1="44.5488" y1="91.3586" x2="50.1966" y2="91.3586" gradientUnits="userSpaceOnUse">
<stop stop-color="white"/>
<stop offset="0.995" stop-color="#EBF3F9"/>
</linearGradient>
<linearGradient id="paint10_linear" x1="31.9027" y1="85.2192" x2="24.5967" y2="92.5252" gradientUnits="userSpaceOnUse">
<stop stop-color="white"/>
<stop offset="0.995" stop-color="#EBF3F9"/>
</linearGradient>
<linearGradient id="paint11_linear" x1="30.8263" y1="88.2359" x2="26.3946" y2="92.6675" gradientUnits="userSpaceOnUse">
<stop stop-color="white"/>
<stop offset="0.995" stop-color="#EBF3F9"/>
</linearGradient>
<linearGradient id="paint12_linear" x1="30.6743" y1="89.1346" x2="26.2448" y2="93.5641" gradientUnits="userSpaceOnUse">
<stop stop-color="white"/>
<stop offset="0.995" stop-color="#EBF3F9"/>
</linearGradient>
<linearGradient id="paint13_linear" x1="40.4666" y1="87.555" x2="47.7439" y2="80.2776" gradientUnits="userSpaceOnUse">
<stop stop-color="white"/>
<stop offset="0.995" stop-color="#EBF3F9"/>
</linearGradient>
<linearGradient id="paint14_linear" x1="41.5509" y1="84.5528" x2="45.9586" y2="80.1451" gradientUnits="userSpaceOnUse">
<stop stop-color="white"/>
<stop offset="0.995" stop-color="#EBF3F9"/>
</linearGradient>
<linearGradient id="paint15_linear" x1="41.7087" y1="83.6632" x2="46.1186" y2="79.2534" gradientUnits="userSpaceOnUse">
<stop stop-color="white"/>
<stop offset="0.995" stop-color="#EBF3F9"/>
</linearGradient>
<linearGradient id="paint16_linear" x1="36.1351" y1="89.2777" x2="36.1351" y2="105.438" gradientUnits="userSpaceOnUse">
<stop stop-color="white"/>
<stop offset="0.995" stop-color="#EBF3F9"/>
</linearGradient>
<linearGradient id="paint17_linear" x1="36.1575" y1="93.8822" x2="36.1575" y2="103.791" gradientUnits="userSpaceOnUse">
<stop stop-color="white"/>
<stop offset="0.995" stop-color="#EBF3F9"/>
</linearGradient>
<linearGradient id="paint18_linear" x1="36.1649" y1="95.1795" x2="36.1649" y2="105.092" gradientUnits="userSpaceOnUse">
<stop stop-color="white"/>
<stop offset="0.995" stop-color="#EBF3F9"/>
</linearGradient>
<linearGradient id="paint19_linear" x1="36.262" y1="83.5377" x2="36.262" y2="67.3112" gradientUnits="userSpaceOnUse">
<stop stop-color="white"/>
<stop offset="0.995" stop-color="#EBF3F9"/>
</linearGradient>
<linearGradient id="paint20_linear" x1="36.2395" y1="78.9012" x2="36.2395" y2="68.9545" gradientUnits="userSpaceOnUse">
<stop stop-color="white"/>
<stop offset="0.995" stop-color="#EBF3F9"/>
</linearGradient>
<linearGradient id="paint21_linear" x1="36.2321" y1="77.5902" x2="36.2321" y2="67.6475" gradientUnits="userSpaceOnUse">
<stop stop-color="white"/>
<stop offset="0.995" stop-color="#EBF3F9"/>
</linearGradient>
<linearGradient id="paint22_linear" x1="37.8059" y1="96.3723" x2="47.0362" y2="105.603" gradientUnits="userSpaceOnUse">
<stop stop-color="white"/>
<stop offset="0.995" stop-color="#EBF3F9"/>
</linearGradient>
<linearGradient id="paint23_linear" x1="41.1115" y1="96.7141" x2="47.5402" y2="103.143" gradientUnits="userSpaceOnUse">
<stop stop-color="white"/>
<stop offset="0.995" stop-color="#EBF3F9"/>
</linearGradient>
<linearGradient id="paint24_linear" x1="42.0227" y1="96.4831" x2="48.4514" y2="102.912" gradientUnits="userSpaceOnUse">
<stop stop-color="white"/>
<stop offset="0.995" stop-color="#EBF3F9"/>
</linearGradient>
<linearGradient id="paint25_linear" x1="34.622" y1="76.353" x2="25.3917" y2="67.1228" gradientUnits="userSpaceOnUse">
<stop stop-color="white"/>
<stop offset="0.995" stop-color="#EBF3F9"/>
</linearGradient>
<linearGradient id="paint26_linear" x1="31.2866" y1="76.0422" x2="24.8579" y2="69.6135" gradientUnits="userSpaceOnUse">
<stop stop-color="white"/>
<stop offset="0.995" stop-color="#EBF3F9"/>
</linearGradient>
<linearGradient id="paint27_linear" x1="30.3718" y1="76.2769" x2="23.9432" y2="69.8482" gradientUnits="userSpaceOnUse">
<stop stop-color="white"/>
<stop offset="0.995" stop-color="#EBF3F9"/>
</linearGradient>
<clipPath id="clip0">
<rect x="6" width="128.967" height="140" fill="white"/>
</clipPath>
</defs>
</svg>
