<svg width="140" height="140" viewBox="0 0 140 140" fill="none" xmlns="http://www.w3.org/2000/svg">
<g clip-path="url(#clip0)">
<path d="M70 140C108.66 140 140 108.66 140 70C140 31.3401 108.66 0 70 0C31.3401 0 0 31.3401 0 70C0 108.66 31.3401 140 70 140Z" fill="url(#paint0_linear)"/>
<path d="M95.6038 90.1123C96.3314 88.5514 96.6667 86.3639 96.6667 83.3333C96.6667 72.5114 91.6813 66.2679 87.6758 61.25C85.2507 58.2113 83.3333 55.8105 83.3333 53.3333L83.3366 52.557C83.3626 47.9557 83.4163 38.3789 78.3301 33.2633C76.1768 31.0986 73.374 30 70 30C62.9981 30 58.3333 33.4017 58.3333 50C58.3333 54.5687 56.4111 58.3105 54.3766 62.2721C53.4847 64.0088 52.5619 65.8057 51.7887 67.7051C50.249 71.4909 46.6667 80.7568 46.6667 85C46.6667 85.2702 46.7318 85.5355 46.8571 85.7747L58.654 108.27C58.9079 108.753 59.3913 109.069 59.9333 109.137C60 109.146 60.0667 109.15 60.1335 109.15C60.6071 109.15 61.071 108.942 61.39 108.586C62.1305 107.76 67.0394 106.667 70 106.667H81.307C81.7415 106.667 82.1582 106.497 82.4691 106.195L96.1621 92.8613C96.8229 92.2184 96.8359 91.1637 96.1947 90.5046C96.0221 90.3271 95.8203 90.1969 95.6038 90.1123Z" fill="#1A1A1A"/>
<path opacity="0.2" d="M54.3766 63.1055C56.4111 59.1439 58.3333 55.402 58.3333 50.8333C58.3333 34.235 62.9981 30.8333 70 30.8333C73.374 30.8333 76.1768 31.932 78.3301 34.0967C82.7759 38.5679 83.2945 46.4463 83.3372 51.4327C83.3401 46.5422 83.0479 38.0084 78.3301 33.2633C76.1768 31.0986 73.374 30 70 30C62.9981 30 58.3333 33.4017 58.3333 50C58.3333 54.5687 56.4111 58.3105 54.3766 62.2721C53.4847 64.0088 52.5619 65.8057 51.7887 67.7051C50.249 71.4909 46.6667 80.7568 46.6667 85C46.6667 85.0759 46.71 85.1428 46.7202 85.2175C47.0026 80.7638 50.3147 72.1629 51.7887 68.5384C52.5619 66.639 53.4847 64.8421 54.3766 63.1055Z" fill="white"/>
<path d="M96.1947 91.3363C96.4014 91.5489 96.5151 91.8065 96.5861 92.0742C96.7251 91.5302 96.6144 90.9345 96.1947 90.503C96.0938 90.3992 95.9672 90.3453 95.8494 90.2737C95.768 90.4979 95.6983 90.7414 95.6039 90.9441C95.8203 91.0287 96.0221 91.1589 96.1947 91.3363Z" fill="#0099D8"/>
<path opacity="0.2" d="M83.3333 54.168C83.3333 56.6452 85.2507 59.0459 87.6758 62.0846C91.6441 67.0559 96.559 73.2443 96.6502 83.8823C96.653 83.6933 96.6667 83.5306 96.6667 83.3346C96.6667 72.5127 91.6813 66.2692 87.6758 61.2513C85.2566 58.2199 83.346 55.8232 83.3366 53.3525C83.3366 53.3641 83.3366 53.38 83.3366 53.3916L83.3333 54.168Z" fill="white"/>
<path d="M83.3333 53.333C83.3333 53.3391 83.3366 53.3448 83.3366 53.3509C83.3399 52.7798 83.3431 52.1365 83.3372 51.4324C83.337 51.8142 83.3384 52.2234 83.3366 52.5566L83.3333 53.333Z" fill="#0099D8"/>
<path d="M83.764 86.037C83.7242 77.9216 82.6214 68.7926 76.2085 55.6841C73.0349 57.8299 67.209 59.5272 66.5091 59.5272C65.2473 59.5272 62.4924 58.6266 60.4683 56.8396C59.6362 59.2945 58.4842 61.5674 57.3414 63.7934C56.4821 65.4649 55.5934 67.1951 54.8773 68.9594C52.8627 73.9089 50.5621 80.4248 50.0978 83.8876C51.5077 84.8271 52.491 86.8604 53.5768 89.1319C54.7015 91.4854 55.9759 94.1531 57.6181 95.2973C60.6233 97.3896 62.1813 100.374 62.5897 103.086C63.7333 103.199 65.1747 103.299 66.8125 103.299C70.8788 103.299 76.3917 102.473 80.4699 99.9978C80.6988 95.5886 81.4732 88.5163 83.764 86.037Z" fill="white"/>
<path d="M96.6502 83.8804C96.6093 86.6137 96.2844 88.6517 95.6039 90.1116C95.6938 90.1468 95.7656 90.2235 95.8494 90.2746C96.3947 88.7717 96.6667 86.8033 96.6667 84.166C96.6667 84.0657 96.651 83.9799 96.6502 83.8804Z" fill="#0099D8"/>
<path opacity="0.1" d="M62.5906 103.088C63.7342 103.202 65.1757 103.301 66.8134 103.301C70.8798 103.301 76.3927 102.475 80.4709 99.9998V99.1665C76.3927 101.641 70.8798 102.467 66.8134 102.467C65.1757 102.467 63.4824 102.353 62.3388 102.239" fill="black"/>
<path opacity="0.3" d="M82.479 105.359C82.1681 105.662 81.7514 105.831 81.3168 105.831H70.0099C67.0493 105.831 62.1404 106.925 61.3999 107.75C61.0808 108.106 60.617 108.315 60.1433 108.315C60.0766 108.315 60.0099 108.31 59.9431 108.302C59.4012 108.233 58.9178 107.918 58.6638 107.434L46.867 84.9391C46.7768 84.767 46.7561 84.5729 46.7301 84.3818C46.7174 84.5802 46.6765 84.8168 46.6765 84.9977C46.6765 85.2679 46.7416 85.5332 46.867 85.7724L58.6638 108.268C58.9178 108.751 59.4012 109.067 59.9431 109.135C60.0099 109.143 60.0766 109.148 60.1433 109.148C60.617 109.148 61.0808 108.94 61.3999 108.583C62.1404 107.758 67.0493 106.664 70.0099 106.664H81.3168C81.7514 106.664 82.1681 106.495 82.479 106.192L96.172 92.859C96.6198 92.4234 96.7451 91.8027 96.596 91.2401C96.5225 91.5272 96.4003 91.8037 96.172 92.0257L82.479 105.359Z" fill="black"/>
<path d="M99.7537 93.5807C99.0636 93.1283 98.3491 92.6595 97.8446 92.1549C97.55 91.8604 97.6851 90.498 97.7567 89.7656C97.895 88.3594 98.0383 86.9076 97.0926 85.8643C96.7362 85.4704 96.0819 85 94.9995 85C94.1076 85 93.4565 85.7064 93.4175 86.5967C93.4165 86.6209 93.4264 86.6427 93.4264 86.6667H86.6662C86.6662 85.7454 85.9207 85 84.9995 85C80.0565 85 79.9995 103.149 79.98 103.547C79.8872 104.541 79.6691 106.873 81.1616 108.511C82.0617 109.499 83.3524 110 84.9995 110C89.3257 110 91.4237 107.77 93.4517 105.615C93.7935 105.251 94.1434 104.88 94.5112 104.512C95.356 103.667 97.008 103.065 98.4663 102.533C100.859 101.659 103.333 100.755 103.333 98.3333C103.333 95.9294 101.349 94.6273 99.7537 93.5807Z" fill="#FDB515"/>
<path d="M57.6188 95.2994C55.9766 94.1552 54.7022 91.4875 53.5775 89.134C52.0898 86.0221 50.804 83.3333 48.3333 83.3333C45.2148 83.3333 44.5329 86.136 44.1683 87.6415C44.0674 88.0566 43.9144 88.6816 43.8997 88.7548C43.6523 88.9078 42.7214 89.0917 42.1061 89.2138C40.0716 89.6174 36.6667 90.2913 36.6667 93.3332C36.6667 94.2187 36.7985 94.9706 36.9434 95.7535C37.2005 97.1402 37.443 98.4488 36.7204 101.25C36.6846 101.385 36.6667 101.527 36.6667 101.667C36.6667 105.674 42.8906 106.193 46.6097 106.502C47.2282 106.554 47.7425 106.593 48.0729 106.645C48.5856 106.727 49.6598 107.222 50.6982 107.7C52.9199 108.725 55.6852 110 58.3333 110C60.2376 110 61.7611 108.769 62.4089 106.709C63.4163 103.498 62.0817 98.4065 57.6188 95.2994Z" fill="#FDB515"/>
<path opacity="0.2" d="M41.8442 90.0471C42.4806 89.9251 43.4439 89.7411 43.6999 89.5881C43.7149 89.5149 43.8732 88.8899 43.9776 88.4749C44.3548 86.9693 45.0603 84.1666 48.2866 84.1666C50.8428 84.1666 52.1732 86.8554 53.7123 89.9674C54.8758 92.3209 56.1944 94.9885 57.8934 96.1327C59.5859 97.2717 60.8347 98.6795 61.6975 100.161C60.8751 98.3786 59.559 96.6497 57.6193 95.2994C55.9771 94.1552 54.7027 91.4876 53.578 89.134C52.0904 86.0221 50.8045 83.3333 48.3338 83.3333C45.2154 83.3333 44.5334 86.136 44.1688 87.6415C44.0679 88.0566 43.9149 88.6816 43.9003 88.7548C43.6529 88.9078 42.7219 89.0917 42.1066 89.2138C40.3397 89.5643 37.5453 90.123 36.8391 92.2558C37.9432 90.8001 40.2817 90.3468 41.8442 90.0471Z" fill="white"/>
<path d="M94.9998 81.6668C94.6804 81.6668 94.3992 81.7803 94.1457 81.9357L83.017 63.7251C81.8018 60.2916 80.2472 56.6495 78.1476 52.5701C77.7277 51.7546 76.7234 51.4308 75.9031 51.8507C75.0861 52.2722 74.7638 53.2781 75.1853 54.0968C82.7098 68.7192 83.3331 77.8468 83.3364 86.574C83.3168 86.9239 83.198 90.0457 84.9933 91.9451C85.8527 92.8533 87.0066 93.3334 88.3331 93.3334L88.9207 93.3367C89.1079 93.3383 89.2967 93.3399 89.4887 93.3399C91.1831 93.3399 93.0157 93.2113 94.4497 91.7888C95.9829 90.2686 96.6665 87.6612 96.6665 83.3334C96.6665 82.4122 95.921 81.6668 94.9998 81.6668Z" fill="#1A1A1A"/>
<path opacity="0.3" d="M94.4504 90.9564C93.0165 92.3789 91.1838 92.5075 89.4894 92.5075C89.2974 92.5075 89.1086 92.5059 88.9214 92.5042L88.3338 92.501C87.0074 92.501 85.8534 92.0208 84.994 91.1126C83.6498 89.6905 83.3788 87.584 83.3357 86.4679C83.3357 86.5033 83.3371 86.5395 83.3371 86.5749C83.3176 86.9248 83.1988 90.0465 84.994 91.946C85.8534 92.8542 87.0074 93.3343 88.3338 93.3343L88.9214 93.3376C89.1086 93.3392 89.2974 93.3408 89.4894 93.3408C91.1838 93.3408 93.0165 93.2122 94.4504 91.7897C95.9836 90.2695 96.6672 87.6621 96.6672 83.3343C96.6672 83.2808 96.6415 83.2356 96.6367 83.1833C96.5612 87.0727 95.8945 89.5247 94.4504 90.9564Z" fill="black"/>
<path d="M73.3333 40.137C71.4014 40.137 70 42.2105 70 45.0686C70 47.9251 71.4014 49.9986 73.3333 49.9986C75.2653 49.9986 76.6667 47.9251 76.6667 45.0686C76.6667 42.2105 75.2653 40.137 73.3333 40.137Z" fill="white"/>
<path d="M73.3332 49.2548C74.1682 49.2548 74.8451 47.9292 74.8451 46.294C74.8451 44.6588 74.1682 43.3333 73.3332 43.3333C72.4982 43.3333 71.8213 44.6588 71.8213 46.294C71.8213 47.9292 72.4982 49.2548 73.3332 49.2548Z" fill="black"/>
<path d="M63.3333 40.137C61.4014 40.137 60 42.2105 60 45.0686C60 47.9251 61.4014 49.9986 63.3333 49.9986C65.2653 49.9986 66.6667 47.9251 66.6667 45.0686C66.6667 42.2105 65.2653 40.137 63.3333 40.137Z" fill="white"/>
<path d="M76.0061 55.8074C72.7958 57.8938 67.1959 59.5285 66.5096 59.5285C65.2478 59.5285 62.4929 58.6278 60.4688 56.8409L83.074 79.4461C82.5373 72.9926 80.8448 65.6515 76.0061 55.8074Z" fill="url(#paint1_linear)"/>
<path d="M63.3339 49.1372C64.1523 49.1372 64.8158 47.8379 64.8158 46.2352C64.8158 44.6325 64.1523 43.3333 63.3339 43.3333C62.5155 43.3333 61.8521 44.6325 61.8521 46.2352C61.8521 47.8379 62.5155 49.1372 63.3339 49.1372Z" fill="black"/>
<path d="M68.6605 46.6993C68.5531 46.6781 68.4424 46.6667 68.3333 46.6667C64.7494 46.6667 58.3333 50.0278 58.3333 53.3334C58.3333 56.4568 64.6371 60.0001 66.6667 60.0001C67.6514 60.0001 78.3333 56.2908 78.3333 53.3334C78.3333 48.9731 70.9294 47.1534 68.6605 46.6993Z" fill="#FDB515"/>
<path d="M68.6605 46.6993C68.5531 46.6781 68.4424 46.6667 68.3333 46.6667C64.7494 46.6667 58.3333 50.0278 58.3333 53.3334C58.3333 56.4568 64.6371 60.0001 66.6667 60.0001C67.6514 60.0001 78.3333 56.2908 78.3333 53.3334C78.3333 48.9731 70.9294 47.1534 68.6605 46.6993Z" fill="#FDB515"/>
<path opacity="0.1" d="M98.4674 101.698C97.0091 102.23 95.3571 102.832 94.5124 103.677C94.1445 104.045 93.7946 104.416 93.4528 104.78C91.4248 106.935 89.3268 109.165 85.0006 109.165C83.3535 109.165 82.0628 108.664 81.1627 107.676C80.1856 106.604 79.9658 105.26 79.94 104.163C79.868 105.314 79.9093 107.134 81.1627 108.509C82.0628 109.497 83.3535 109.998 85.0006 109.998C89.3268 109.998 91.4248 107.769 93.4528 105.614C93.7946 105.249 94.1445 104.878 94.5124 104.51C95.3571 103.665 97.0091 103.063 98.4674 102.531C100.86 101.657 103.334 100.754 103.334 98.3318C103.334 98.2109 103.276 98.1237 103.267 98.0083C102.933 100.041 100.679 100.89 98.4674 101.698Z" fill="black"/>
<path opacity="0.1" d="M62.4089 105.875C61.7611 107.935 60.2376 109.166 58.3333 109.166C55.6852 109.166 52.9199 107.891 50.6982 106.866C49.6598 106.387 48.5856 105.893 48.0729 105.811C47.7425 105.759 47.2282 105.72 46.6097 105.668C43.008 105.368 37.1082 104.843 36.736 101.172C36.7287 101.201 36.7279 101.22 36.7204 101.249C36.6846 101.384 36.6667 101.526 36.6667 101.666C36.6667 105.673 42.8906 106.192 46.6097 106.501C47.2282 106.553 47.7425 106.592 48.0729 106.645C48.5856 106.726 49.6598 107.221 50.6982 107.699C52.9199 108.725 55.6852 109.999 58.3333 109.999C60.2376 109.999 61.7611 108.769 62.4089 106.708C62.6723 105.868 62.7655 104.897 62.6945 103.869C62.6764 104.583 62.5989 105.269 62.4089 105.875Z" fill="black"/>
<path opacity="0.1" d="M66.6303 59.1645C64.762 59.1645 59.3927 56.2271 58.3378 53.3113C58.3378 53.318 58.3333 53.3245 58.3333 53.3312C58.3333 56.4546 64.6371 59.9979 66.6667 59.9979C67.6514 59.9979 78.3333 56.2886 78.3333 53.3312C78.3333 53.2667 78.2984 53.2148 78.2951 53.1514C76.7133 56.0023 67.5495 59.1645 66.6303 59.1645Z" fill="black"/>
<path d="M99.7542 93.5813C99.0641 93.1289 98.3496 92.6601 97.8451 92.1556C97.5505 91.861 97.6856 90.4987 97.7572 89.7662C97.8955 88.36 98.0387 86.9082 97.0931 85.8649C96.9723 85.7312 96.7794 85.6059 96.5707 85.4883C96.3611 88.5229 95.7015 90.5483 94.4499 91.7893C93.016 93.2119 91.1833 93.3404 89.4889 93.3404C89.2969 93.3404 89.1081 93.3388 88.9209 93.3372L88.3333 93.3339C87.0068 93.3339 85.8529 92.8538 84.9935 91.9456L96.3961 103.348C97.0616 103.05 97.7834 102.783 98.4668 102.533C100.859 101.659 103.333 100.756 103.333 98.3339C103.333 95.93 101.349 94.6279 99.7542 93.5813Z" fill="url(#paint2_linear)"/>
<path d="M99.7542 93.5807C99.0641 93.1283 98.3496 92.6595 97.8451 92.1549C97.5505 91.8604 97.6856 90.498 97.7572 89.7656C97.8955 88.3594 98.0387 86.9076 97.0931 85.8643C96.9792 85.7385 96.7774 85.6173 96.5985 85.4938C96.6433 84.8252 96.6667 84.1085 96.6667 83.3333C96.6667 72.5114 91.6813 66.2679 87.6758 61.25C85.2507 58.2113 83.3333 55.8105 83.3333 53.3333L83.3366 52.557C83.3626 47.9557 83.4163 38.3789 78.3301 33.2633C76.1768 31.0986 73.374 30 70 30C62.9981 30 58.3333 33.4017 58.3333 50C58.3333 54.5687 56.4111 58.3105 54.3766 62.2721C53.4847 64.0088 52.5619 65.8057 51.7887 67.7051C50.3929 71.1373 47.346 79.0358 46.7839 83.6503C44.9823 84.4084 44.4613 86.4321 44.1683 87.6416C44.0674 88.0566 43.9144 88.6816 43.8997 88.7549C43.6523 88.9079 42.7214 89.0918 42.1061 89.2139C40.0716 89.6175 36.6667 90.2913 36.6667 93.3333C36.6667 94.2187 36.7985 94.9707 36.9434 95.7536C37.2005 97.1403 37.443 98.4489 36.7204 101.25C36.6846 101.385 36.6667 101.527 36.6667 101.667C36.6667 105.674 42.8906 106.193 46.6097 106.502C47.2282 106.554 47.7425 106.593 48.0729 106.646C48.5856 106.727 49.6598 107.222 50.6982 107.7C52.9199 108.726 55.6852 110 58.3333 110C59.4731 110 60.4458 109.515 61.2065 108.719C61.2647 108.67 61.3387 108.643 61.39 108.586C62.1305 107.76 67.0394 106.667 70 106.667H80.2022C80.386 107.309 80.6506 107.95 81.1621 108.511C82.0622 109.499 83.3529 110 85 110C89.3262 110 91.4242 107.77 93.4522 105.615C93.794 105.251 94.1439 104.88 94.5117 104.512C95.3565 103.667 97.0085 103.065 98.4668 102.533C100.859 101.659 103.333 100.755 103.333 98.3333C103.333 95.9294 101.349 94.6273 99.7542 93.5807Z" fill="url(#paint3_linear)"/>
</g>
<defs>
<linearGradient id="paint0_linear" x1="41" y1="13" x2="114" y2="124" gradientUnits="userSpaceOnUse">
<stop stop-color="#717C9D"/>
<stop offset="1" stop-color="#465071"/>
</linearGradient>
<linearGradient id="paint1_linear" x1="64.6115" y1="52.6982" x2="87.2167" y2="75.3034" gradientUnits="userSpaceOnUse">
<stop stop-opacity="0.1"/>
<stop offset="1" stop-opacity="0"/>
</linearGradient>
<linearGradient id="paint2_linear" x1="89.5384" y1="87.4007" x2="102.529" y2="100.392" gradientUnits="userSpaceOnUse">
<stop stop-opacity="0.1"/>
<stop offset="1" stop-opacity="0"/>
</linearGradient>
<linearGradient id="paint3_linear" x1="47.4835" y1="63.5322" x2="106.952" y2="91.2629" gradientUnits="userSpaceOnUse">
<stop stop-color="white" stop-opacity="0.2"/>
<stop offset="1" stop-color="white" stop-opacity="0"/>
</linearGradient>
<clipPath id="clip0">
<rect width="140" height="140" fill="white"/>
</clipPath>
</defs>
</svg>
