<svg width="140" height="140" viewBox="0 0 140 140" fill="none" xmlns="http://www.w3.org/2000/svg">
<g clip-path="url(#clip0)">
<path d="M6.08459 28.2635V95.5163C6.08459 98.3881 7.58811 101.04 10.0208 102.527L62.61 137.496C68.0834 140.824 74.9253 140.824 80.3987 137.496L130.927 102.527C133.36 101.024 134.863 98.3712 134.863 95.5163V28.8886L6.08459 28.2635Z" fill="url(#paint0_linear)"/>
<path d="M6.08459 28.8888V95.5164C6.08459 98.3883 7.58811 101.041 10.0208 102.527L62.61 137.497C68.0834 140.825 74.9253 140.825 80.3987 137.497L130.927 102.527C133.36 101.024 134.863 98.3714 134.863 95.5164V28.8888H6.08459Z" fill="url(#paint1_linear)"/>
<path d="M132.248 36.3529L80.7396 67.8422C75.0634 71.3054 67.9175 71.3054 62.2413 67.8422L7.86137 34.6129C5.17532 32.9742 5.44561 28.9705 8.35128 27.7203L65.6538 3.19111C69.3872 1.60313 73.5937 1.60313 77.3102 3.19111L131.521 26.3858C135.728 28.1934 136.15 33.9878 132.248 36.3529Z" fill="url(#paint2_linear)"/>
<path d="M132.245 34.3454L80.7369 65.8348C75.0607 69.2979 67.9148 69.2979 62.2386 65.8348L7.85869 32.6054C5.17263 30.9668 5.44293 26.963 8.3486 25.7129L65.6511 1.18366C69.3845 -0.404319 73.591 -0.404319 77.3075 1.18366L131.519 24.3783C135.725 26.1859 136.147 31.9804 132.245 34.3454Z" fill="url(#paint3_linear)"/>
<path d="M93.7445 114.379C93.7445 114.215 93.8247 114.062 93.9591 113.968L94.3444 113.701C94.6759 113.47 95.1298 113.707 95.1298 114.111V119.262C95.1298 119.426 95.0496 119.579 94.9151 119.673L94.5299 119.94C94.1984 120.171 93.7445 119.934 93.7445 119.53V114.379ZM96.9374 117.36C96.9374 117.762 97.3875 118 97.7193 117.773L98.1046 117.51C98.241 117.417 98.3226 117.262 98.3226 117.097V111.915C98.3226 111.511 97.8688 111.274 97.5372 111.504L97.152 111.772C97.0175 111.866 96.9374 112.019 96.9374 112.183V117.36ZM100.13 115.164C100.13 115.566 100.58 115.804 100.912 115.577L101.297 115.314C101.434 115.221 101.515 115.066 101.515 114.901V109.685C101.515 109.281 101.062 109.044 100.73 109.274L100.345 109.542C100.21 109.636 100.13 109.789 100.13 109.953V115.164ZM103.323 113.002C103.323 113.404 103.773 113.641 104.105 113.415L104.49 113.151C104.627 113.058 104.708 112.904 104.708 112.739V107.489C104.708 107.085 104.254 106.848 103.923 107.078L103.538 107.346C103.403 107.44 103.323 107.593 103.323 107.757V113.002ZM106.499 110.806C106.499 111.207 106.949 111.445 107.281 111.218L107.666 110.955C107.803 110.862 107.884 110.708 107.884 110.542V105.259C107.884 104.855 107.43 104.618 107.099 104.848L106.714 105.116C106.579 105.21 106.499 105.363 106.499 105.527V110.806ZM109.692 108.609C109.692 109.011 110.142 109.249 110.474 109.022L110.859 108.759C110.996 108.666 111.077 108.511 111.077 108.346V103.029C111.077 102.625 110.623 102.388 110.292 102.618L109.907 102.886C109.772 102.98 109.692 103.133 109.692 103.297V108.609ZM112.885 106.447C112.885 106.849 113.335 107.087 113.667 106.86L114.052 106.597C114.188 106.504 114.27 106.349 114.27 106.184V100.833C114.27 100.429 113.816 100.192 113.485 100.422L113.099 100.69C112.965 100.784 112.885 100.937 112.885 101.101V106.447ZM116.078 104.268C116.078 104.67 116.528 104.907 116.86 104.681L117.245 104.418C117.381 104.324 117.463 104.17 117.463 104.005V98.603C117.463 98.1992 117.009 97.962 116.677 98.1924L116.292 98.4602C116.158 98.5537 116.078 98.707 116.078 98.8708V104.268ZM119.254 102.072C119.254 102.474 119.704 102.711 120.036 102.485L120.421 102.221C120.557 102.128 120.639 101.974 120.639 101.809V96.3899C120.639 95.9862 120.185 95.7489 119.853 95.9794L119.468 96.2472C119.334 96.3406 119.254 96.494 119.254 96.6577V102.072ZM122.664 94.0344C122.528 94.1276 122.446 94.2821 122.446 94.4473V99.8924C122.446 100.294 122.897 100.532 123.228 100.305L123.614 100.042C123.75 99.949 123.832 99.7945 123.832 99.6293V94.1842C123.832 93.7824 123.382 93.5447 123.05 93.7713L122.664 94.0344Z" fill="#2FAAAF"/>
<path d="M54.6034 132.38L19.1137 108.781L18.9077 75.5235C18.8981 73.971 20.584 73.0001 21.922 73.7875L52.532 91.801C53.75 92.5178 54.4994 93.8243 54.5032 95.2376L54.6034 132.38Z" fill="url(#paint4_linear)"/>
<path d="M21.027 110.087L19.1136 108.781L18.8858 76.0007C18.8858 76.0007 18.79 74.7102 19.5001 73.9994C20.0001 73.4994 21.027 73.4994 21.027 73.4994V110.087Z" fill="url(#paint5_linear)"/>
<path d="M24.8694 82.5223L49.1367 96.858C49.3797 96.9643 49.6378 96.7972 49.6227 96.5239L49.5619 94.0941C49.5619 93.9271 49.4556 93.7752 49.3037 93.6993L25.0517 79.3637C24.8087 79.2574 24.5505 79.4244 24.5657 79.6978L24.6264 82.1275C24.6113 82.2946 24.7176 82.4464 24.8694 82.5223Z" fill="url(#paint6_linear)"/>
<path d="M25.0213 89.1895L49.2885 103.525C49.5315 103.631 49.7897 103.464 49.7745 103.191L49.7138 100.761C49.7138 100.594 49.6075 100.442 49.4556 100.366L25.2035 86.046C24.9605 85.9397 24.7024 86.1068 24.7176 86.3801L24.7783 88.8099C24.7631 88.9617 24.8694 89.1136 25.0213 89.1895Z" fill="url(#paint7_linear)"/>
<path d="M25.1731 95.7629L49.4404 110.007C49.6834 110.114 49.9415 109.947 49.9264 109.673L49.8656 107.244C49.8656 107.076 49.7593 106.925 49.6074 106.849L25.3554 92.6194C25.1124 92.5131 24.8542 92.6801 24.8694 92.9535L24.9302 95.3832C24.915 95.5351 25.0213 95.7022 25.1731 95.7629Z" fill="url(#paint8_linear)"/>
<path d="M25.0213 101.642L49.2885 115.978C49.5315 116.084 49.7897 115.917 49.7745 115.643L49.7138 113.214C49.7138 113.047 49.6075 112.895 49.4556 112.819L25.2035 98.4984C24.9605 98.3921 24.7024 98.5592 24.7176 98.8325L24.7783 101.262C24.7631 101.414 24.8694 101.566 25.0213 101.642Z" fill="url(#paint9_linear)"/>
<path d="M25.1731 108.308L49.4404 122.643C49.6834 122.75 49.9415 122.583 49.9264 122.309L49.8656 119.879C49.8656 119.712 49.7593 119.561 49.6074 119.485L25.3554 105.164C25.1124 105.058 24.8542 105.225 24.8694 105.498L24.9302 107.928C24.915 108.08 25.0213 108.247 25.1731 108.308Z" fill="url(#paint10_linear)"/>
<path d="M37.5801 74.383L16.5627 61.8849C14.8618 60.837 14.7404 59.774 14.7404 58.3465L14.6644 53.001C14.6644 52.1658 15.3174 51.4824 16.1375 51.4824C16.3956 51.4824 16.669 51.5584 16.8968 51.695L38.2939 64.5272C39.3265 65.1802 39.9643 66.3496 39.9643 67.61V73.077C39.9643 74.5652 39.1443 75.3245 37.5801 74.383Z" fill="url(#paint11_linear)"/>
<path d="M46.1146 71.6499L46.1754 74.7327L51.4753 78.0432L51.4297 74.9604L46.1146 71.6499Z" fill="black"/>
<path d="M46.1146 71.6499L46.1298 72.5914L51.4449 75.902L51.4297 74.9604L46.1146 71.6499Z" fill="#8A99CD"/>
<path d="M54.0114 76.2809L54.0721 79.3636L59.372 82.6741L59.3265 79.5914L54.0114 76.2809Z" fill="black"/>
<path d="M54.0114 76.2809L54.0265 77.2224L59.3416 80.533L59.3265 79.5914L54.0114 76.2809Z" fill="#8A99CD"/>
<path d="M121.453 35.4536L78.8559 61.4825C74.1635 64.3375 68.2561 64.3375 63.5484 61.4825L18.5522 33.9958C16.3199 32.6442 16.5629 29.3337 18.9622 28.301L66.373 8.01249C69.4558 6.69131 72.9486 6.69131 76.0162 8.01249L120.861 27.2076C124.353 28.6959 124.687 33.4795 121.453 35.4536Z" fill="url(#paint12_linear)" stroke="#2ED8CF" stroke-miterlimit="10"/>
<g opacity="0.91">
<path d="M61.7901 54.1472L39.4001 38.9341L43.6254 36.5226L61.2834 48.5284L67.9145 44.7365L72.6465 47.9437L61.7901 54.1472Z" fill="white"/>
<path d="M61.7901 54.1472L39.4001 38.9341L43.6254 36.5226L61.2834 48.5284L67.9145 44.7365L72.6465 47.9437L61.7901 54.1472Z" fill="url(#paint13_linear)"/>
</g>
<g opacity="0.91">
<path d="M83.1395 35.8664C86.7827 40.0479 82.8547 42.7102 81.9296 43.233C81.2202 43.6398 78.3569 45.0843 74.0886 44.4868C70.4711 43.9823 67.7828 42.2108 65.111 40.3941L53.1547 32.274L57.2413 29.9348L70.5858 39.0026C72.4964 40.2981 73.3359 40.7301 74.6554 40.8101C76.2782 40.9132 77.3579 40.2882 77.6355 40.1283C78.3912 39.6923 78.9348 39.2355 78.8488 38.4585C78.7239 37.4223 77.4705 36.5541 76.2618 35.7174L62.9473 26.6656L67.0185 24.3412L78.9748 32.4613C80.5411 33.5656 82.0474 34.6378 83.1395 35.8664Z" fill="white"/>
<path d="M83.1395 35.8664C86.7827 40.0479 82.8547 42.7102 81.9296 43.233C81.2202 43.6398 78.3569 45.0843 74.0886 44.4868C70.4711 43.9823 67.7828 42.2108 65.111 40.3941L53.1547 32.274L57.2413 29.9348L70.5858 39.0026C72.4964 40.2981 73.3359 40.7301 74.6554 40.8101C76.2782 40.9132 77.3579 40.2882 77.6355 40.1283C78.3912 39.6923 78.9348 39.2355 78.8488 38.4585C78.7239 37.4223 77.4705 36.5541 76.2618 35.7174L62.9473 26.6656L67.0185 24.3412L78.9748 32.4613C80.5411 33.5656 82.0474 34.6378 83.1395 35.8664Z" fill="url(#paint14_linear)"/>
</g>
<g opacity="0.91">
<path d="M100.883 31.8019L82.0994 26.2533L95.254 35.0275L91.4141 37.2212L70.3974 22.9402L74.2988 20.7177L93.2928 26.3478L79.9433 17.4773L83.7523 15.298L104.769 29.579L100.883 31.8019Z" fill="white"/>
<path d="M100.883 31.8019L82.0994 26.2533L95.254 35.0275L91.4141 37.2212L70.3974 22.9402L74.2988 20.7177L93.2928 26.3478L79.9433 17.4773L83.7523 15.298L104.769 29.579L100.883 31.8019Z" fill="url(#paint15_linear)"/>
</g>
<path opacity="0.91" d="M60.7226 54.1115L38.3856 38.8207L42.6192 36.4238L60.2355 48.491L66.8797 44.7221L71.6005 47.9457L60.7226 54.1115Z" fill="white"/>
<path opacity="0.91" d="M82.1354 35.9048C85.7641 40.0989 81.8268 42.7475 80.8999 43.2671C80.1891 43.6715 77.3209 45.106 73.0546 44.4937C69.4389 43.9766 66.7568 42.1958 64.0913 40.3698L52.1632 32.2082L56.258 29.8832L69.5709 38.9973C71.477 40.2995 72.315 40.7344 73.6342 40.819C75.2566 40.9277 76.3385 40.3064 76.6166 40.1475C77.3739 39.7141 77.9191 39.2593 77.8357 38.482C77.7144 37.4453 76.464 36.5727 75.2583 35.7319L61.9753 26.6339L66.0545 24.3236L77.9826 32.4852C79.545 33.5949 81.0476 34.6724 82.1354 35.9048Z" fill="white"/>
<path opacity="0.91" d="M99.8928 31.9019L81.1287 26.2881L94.2527 35.108L90.4053 37.2883L69.4383 22.9344L73.3473 20.7255L92.3217 26.4215L79.0031 17.5047L82.8197 15.3386L103.787 29.6925L99.8928 31.9019Z" fill="white"/>
</g>
<defs>
<linearGradient id="paint0_linear" x1="13.5708" y1="84.1195" x2="127.469" y2="84.1195" gradientUnits="userSpaceOnUse">
<stop stop-color="#E7EFF5"/>
<stop offset="0.2574" stop-color="#C3C5D2"/>
<stop offset="0.3352" stop-color="#C6C8D5"/>
<stop offset="0.3997" stop-color="#CED3DD"/>
<stop offset="0.4592" stop-color="#DDE4EC"/>
<stop offset="0.4655" stop-color="#DFE6EE"/>
<stop offset="0.5693" stop-color="#98A5B5"/>
<stop offset="0.995" stop-color="#7E8EA0"/>
</linearGradient>
<linearGradient id="paint1_linear" x1="5.91853" y1="84.4323" x2="128.586" y2="84.4323" gradientUnits="userSpaceOnUse">
<stop stop-color="#475375"/>
<stop offset="0.483607" stop-color="#2E364F"/>
<stop offset="0.532513" stop-color="#2E374F"/>
<stop offset="0.593645" stop-color="#27293B"/>
<stop offset="1" stop-color="#2D3146"/>
</linearGradient>
<linearGradient id="paint2_linear" x1="31.9165" y1="54.9116" x2="99.8476" y2="16.477" gradientUnits="userSpaceOnUse">
<stop stop-color="#596482"/>
<stop offset="0.995" stop-color="#2A3D6B"/>
</linearGradient>
<linearGradient id="paint3_linear" x1="31.9138" y1="52.9042" x2="99.8449" y2="14.4695" gradientUnits="userSpaceOnUse">
<stop stop-color="#687599"/>
<stop offset="0.995" stop-color="#49587E"/>
</linearGradient>
<linearGradient id="paint4_linear" x1="18.8432" y1="91.6491" x2="52.8673" y2="91.6491" gradientUnits="userSpaceOnUse">
<stop stop-color="#687599"/>
<stop offset="0.995" stop-color="#4D597C"/>
</linearGradient>
<linearGradient id="paint5_linear" x1="10.1314" y1="116.864" x2="26.7439" y2="73.2267" gradientUnits="userSpaceOnUse">
<stop stop-color="#E8EAEB"/>
<stop offset="0.0918067" stop-color="#2F3851"/>
<stop offset="0.2813" stop-color="#2E364F"/>
<stop offset="0.4844" stop-color="#2C344B"/>
<stop offset="0.7085" stop-color="#292B3E"/>
<stop offset="0.995" stop-color="#2B2E43"/>
</linearGradient>
<linearGradient id="paint6_linear" x1="21.0164" y1="88.7281" x2="50.6884" y2="85.118" gradientUnits="userSpaceOnUse">
<stop offset="1" stop-color="#2ED8CF"/>
</linearGradient>
<linearGradient id="paint7_linear" x1="21.1683" y1="95.4023" x2="50.8395" y2="91.7892" gradientUnits="userSpaceOnUse">
<stop offset="1" stop-color="#2ED8CF"/>
</linearGradient>
<linearGradient id="paint8_linear" x1="21.3201" y1="101.927" x2="50.9868" y2="98.2955" gradientUnits="userSpaceOnUse">
<stop offset="1" stop-color="#2ED8CF"/>
</linearGradient>
<linearGradient id="paint9_linear" x1="21.1683" y1="107.855" x2="50.8395" y2="104.242" gradientUnits="userSpaceOnUse">
<stop offset="1" stop-color="#2ED8CF"/>
</linearGradient>
<linearGradient id="paint10_linear" x1="21.3201" y1="114.52" x2="50.9914" y2="110.907" gradientUnits="userSpaceOnUse">
<stop offset="1" stop-color="#2ED8CF"/>
</linearGradient>
<linearGradient id="paint11_linear" x1="15.7099" y1="61.6932" x2="38.8951" y2="64.5394" gradientUnits="userSpaceOnUse">
<stop offset="1" stop-color="#2ED8CF"/>
</linearGradient>
<linearGradient id="paint12_linear" x1="38.4492" y1="50.8041" x2="94.6579" y2="19.0018" gradientUnits="userSpaceOnUse">
<stop stop-color="#6A7698"/>
<stop offset="1" stop-color="#505D82"/>
</linearGradient>
<linearGradient id="paint13_linear" x1="28.8856" y1="66.9395" x2="63.3439" y2="39.2067" gradientUnits="userSpaceOnUse">
<stop stop-color="#27293B"/>
<stop offset="1" stop-color="#272A3C"/>
</linearGradient>
<linearGradient id="paint14_linear" x1="43.1781" y1="59.7383" x2="81.1396" y2="35.0933" gradientUnits="userSpaceOnUse">
<stop stop-color="#27293B"/>
<stop offset="1" stop-color="#272A3C"/>
</linearGradient>
<linearGradient id="paint15_linear" x1="59.5009" y1="53.6787" x2="100.717" y2="26.7442" gradientUnits="userSpaceOnUse">
<stop stop-color="#27293B"/>
<stop offset="1" stop-color="#272A3C"/>
</linearGradient>
<clipPath id="clip0">
<rect x="6" width="128.967" height="140" fill="white"/>
</clipPath>
</defs>
</svg>
