<svg width="140" height="140" viewBox="0 0 140 140" fill="none" xmlns="http://www.w3.org/2000/svg">
<path d="M16.0918 32.3258V110.234C16.0918 113.107 17.5951 115.719 20.0134 117.221L50.1445 137.4C55.5694 140.731 62.3669 140.731 67.8572 137.4L118.119 102.658C120.538 101.156 122.041 98.5443 122.041 95.6709V17.7629L16.0918 32.3258Z" fill="url(#paint0_linear)"/>
<path d="M119.296 25.1813L68.1188 56.4621C62.4978 59.9232 55.3736 59.9232 49.7526 56.4621L17.8567 38.0462C15.1769 36.4136 15.4383 32.4301 18.3796 31.1893L77.7267 3.17377C81.4523 1.60647 85.6354 1.60647 89.2956 3.17377L118.642 15.2551C122.825 17.0836 123.218 22.8957 119.296 25.1813Z" fill="url(#paint1_linear)"/>
<path d="M119.296 23.183L68.1188 54.4638C62.4978 57.9249 55.3736 57.9249 49.7526 54.4638L17.8567 36.048C15.1769 34.4153 15.4383 30.4318 18.3796 29.191L77.7267 1.17548C81.4523 -0.391826 85.6354 -0.391826 89.2956 1.17548L118.642 13.2568C122.825 15.0853 123.218 20.8974 119.296 23.183Z" fill="url(#paint2_linear)"/>
<path d="M81.0601 90.7143C81.0601 90.547 81.1437 90.3909 81.2829 90.2981L81.6556 90.0499C81.9879 89.8286 82.4328 90.0668 82.4328 90.4661V119.37C82.4328 119.537 82.3491 119.693 82.2099 119.786L81.8373 120.034C81.505 120.256 81.0601 120.017 81.0601 119.618V90.7143ZM84.1974 117.398C84.1974 117.797 84.6423 118.035 84.9746 117.814L85.3472 117.566C85.4864 117.473 85.57 117.317 85.57 117.15V86.6785C85.57 86.2792 85.1251 86.041 84.7928 86.2623L84.4203 86.5105C84.2811 86.6032 84.1974 86.7594 84.1974 86.9266V117.398ZM87.4001 115.243C87.4001 115.642 87.845 115.88 88.1773 115.659L88.5499 115.411C88.6891 115.318 88.7727 115.162 88.7727 114.994V82.8908C88.7727 82.4916 88.3278 82.2534 87.9955 82.4747L87.6229 82.7229C87.4837 82.8156 87.4001 82.9717 87.4001 83.139V115.243ZM90.5374 113.088C90.5374 113.487 90.9823 113.725 91.3145 113.504L91.6872 113.256C91.8264 113.163 91.91 113.007 91.91 112.839V79.1031C91.91 78.7039 91.4651 78.4657 91.1328 78.687L90.7602 78.9352C90.621 79.0279 90.5374 79.1841 90.5374 79.3513V113.088ZM93.74 110.933C93.74 111.332 94.1849 111.57 94.5172 111.349L94.8898 111.101C95.029 111.008 95.1126 110.852 95.1126 110.684V75.3155C95.1126 74.9163 94.6677 74.6781 94.3354 74.8994L93.9629 75.1476C93.8237 75.2403 93.74 75.3964 93.74 75.5637V110.933ZM96.9427 108.712C96.9427 109.111 97.3876 109.35 97.7199 109.128L98.0925 108.88C98.2316 108.787 98.3153 108.631 98.3153 108.464V71.4626C98.3153 71.0633 97.8704 70.8251 97.5381 71.0464L97.1655 71.2946C97.0263 71.3873 96.9427 71.5435 96.9427 71.7107V108.712ZM100.08 106.557C100.08 106.956 100.525 107.195 100.857 106.973L101.23 106.725C101.369 106.632 101.453 106.476 101.453 106.309V67.7402C101.453 67.341 101.008 67.1028 100.675 67.3241L100.303 67.5723C100.164 67.665 100.08 67.8211 100.08 67.9884V106.557ZM103.217 104.402C103.217 104.801 103.662 105.04 103.994 104.818L104.367 104.57C104.506 104.477 104.59 104.321 104.59 104.154V63.8873C104.59 63.488 104.145 63.2498 103.813 63.4712L103.44 63.7193C103.301 63.812 103.217 63.9682 103.217 64.1354V104.402ZM106.42 102.182C106.42 102.581 106.865 102.819 107.197 102.598L107.57 102.35C107.709 102.257 107.793 102.101 107.793 101.934V60.0996C107.793 59.7004 107.348 59.4622 107.015 59.6835L106.643 59.9317C106.504 60.0244 106.42 60.1806 106.42 60.3478V102.182ZM109.767 56.2082C109.635 56.302 109.557 56.4536 109.557 56.6152V100.027C109.557 100.426 110.002 100.664 110.334 100.443L110.707 100.195C110.846 100.102 110.93 99.9458 110.93 99.7786V56.3493C110.93 55.9427 110.47 55.7061 110.139 55.9423L109.767 56.2082Z" fill="#2FAAAF"/>
<path d="M47.9874 58.1206L25.7649 45.321C25.1113 44.9292 24.3924 44.668 23.6734 44.668C21.3858 44.668 19.5557 46.5618 19.5557 48.9127V75.4916C19.5557 76.7324 20.2093 77.9078 21.2551 78.5609L31.1899 84.8954C34.0657 86.7239 35.8958 90.0544 35.8958 93.5809V115.915C35.8958 117.156 36.5494 118.396 37.6605 119.05L46.0266 124.078C46.7456 124.6 47.5299 124.862 48.3796 124.862C50.4711 124.862 52.6934 123.164 52.6934 120.421V66.8714C52.6934 63.2797 50.8633 59.9492 47.9874 58.1206Z" fill="url(#paint3_linear)"/>
<path d="M25.7002 110.429C25.5695 110.429 25.4388 110.364 25.3081 110.298L21.5172 107.752C21.1904 107.556 20.9943 107.229 20.9943 106.837V103.703C20.9943 103.441 21.2557 103.246 21.4518 103.246C21.5172 103.246 21.5826 103.311 21.7133 103.311L25.7656 105.858C26.1578 106.119 26.4192 106.511 26.4192 106.968V109.645C26.4192 109.841 26.3538 110.037 26.2231 110.168C26.0924 110.364 25.8963 110.429 25.7002 110.429ZM25.7002 101.744C25.5695 101.744 25.4388 101.678 25.3081 101.613L21.5172 99.0661C21.1904 98.8702 20.9943 98.5437 20.9943 98.1519V95.0172C20.9943 94.756 21.2557 94.5601 21.4518 94.5601C21.5172 94.5601 21.5826 94.6254 21.7133 94.6254L25.7656 97.1723C26.1578 97.4335 26.4192 97.8253 26.4192 98.2825V100.96C26.4192 101.156 26.3538 101.352 26.2231 101.482C26.0924 101.678 25.8963 101.744 25.7002 101.744ZM25.7002 93.3846C25.5695 93.3846 25.4388 93.3193 25.3081 93.254L21.5172 90.7072C21.1904 90.5112 20.9943 90.1847 20.9943 89.7929V86.6583C20.9943 86.3971 21.2557 86.2012 21.4518 86.2012C21.5172 86.2012 21.5826 86.2012 21.7133 86.2665L25.7656 88.8133C26.1578 89.0746 26.4192 89.4664 26.4192 89.9235V92.601C26.4192 93.0581 26.0924 93.3846 25.7002 93.3846Z" fill="#2ED8CF"/>
<path d="M21.5176 86.2664C21.583 86.2664 21.6483 86.2664 21.7137 86.3317L25.766 88.8785C26.0928 89.0744 26.3543 89.5316 26.3543 89.9234V92.6009C26.3543 92.9927 26.0275 93.2539 25.7007 93.2539C25.57 93.2539 25.4392 93.1886 25.3739 93.1886L21.583 90.6417C21.2562 90.4458 21.1254 90.1193 21.1254 89.7928V86.6582C21.1254 86.397 21.3215 86.2664 21.5176 86.2664ZM21.5176 94.6253C21.583 94.6253 21.6483 94.6253 21.7137 94.6906L25.766 97.2375C26.1582 97.4334 26.3543 97.8905 26.3543 98.2823V100.96C26.3543 101.352 26.0275 101.613 25.7007 101.613C25.57 101.613 25.4392 101.548 25.3739 101.548L21.583 99.0007C21.2562 98.8048 21.1254 98.4783 21.1254 98.1517V95.0171C21.1254 94.8212 21.3215 94.6253 21.5176 94.6253ZM21.5176 103.376C21.583 103.376 21.6483 103.376 21.7137 103.441L25.766 105.988C26.1582 106.184 26.3543 106.641 26.3543 107.033V109.711C26.3543 110.102 26.0275 110.364 25.7007 110.364C25.57 110.364 25.4392 110.298 25.3739 110.298L21.583 107.751C21.2562 107.556 21.1254 107.229 21.1254 106.903V103.768C21.1254 103.507 21.3215 103.376 21.5176 103.376ZM21.5176 86.1357C21.2562 86.1357 20.9947 86.3317 20.9947 86.6582V89.7928C20.9947 90.1846 21.1908 90.5764 21.5176 90.7723L25.3085 93.3192C25.4392 93.3845 25.57 93.4498 25.7007 93.4498C26.1582 93.4498 26.5504 93.1233 26.5504 92.6009V89.9234C26.5504 89.401 26.2889 89.0091 25.8967 88.6826L21.7791 86.2011C21.7137 86.1357 21.583 86.1357 21.5176 86.1357ZM21.5176 94.4947C21.2562 94.4947 20.9947 94.6906 20.9947 95.0171V98.1517C20.9947 98.5436 21.1908 98.9354 21.5176 99.1313L25.3085 101.678C25.4392 101.743 25.57 101.809 25.7007 101.809C26.1582 101.809 26.5504 101.482 26.5504 100.96V98.2823C26.5504 97.7599 26.2889 97.3681 25.8967 97.0416L21.8444 94.4947C21.6483 94.56 21.583 94.4947 21.5176 94.4947ZM21.5176 103.18C21.2562 103.18 20.9947 103.376 20.9947 103.703V106.837C20.9947 107.229 21.1908 107.621 21.5176 107.817L25.3085 110.364C25.4392 110.429 25.57 110.494 25.7007 110.494C26.1582 110.494 26.5504 110.168 26.5504 109.645V106.968C26.5504 106.445 26.2889 106.054 25.8967 105.727L21.8444 103.18C21.6483 103.245 21.583 103.18 21.5176 103.18Z" fill="#0A396F"/>
<path d="M45.4388 95.5403V101.026L43.3473 99.7851V94.2996L45.4388 95.5403ZM43.4127 107.883L45.5042 109.124V103.638L43.4127 102.397V107.883ZM43.4127 115.85L45.5042 117.091V111.605L43.4127 110.364V115.85Z" fill="#0C1116"/>
<path d="M44.0665 94.6914V100.177L43.4129 99.7851V94.2996L44.0665 94.6914ZM43.4129 107.883L44.0665 108.275V102.789L43.4129 102.397V107.883ZM43.4129 115.85L44.0665 116.242V110.756L43.4129 110.364V115.85Z" fill="#8A99CD"/>
<path d="M44.262 63.0843V63.9986L23.3467 51.7867V50.9377L44.262 63.0843ZM23.3467 54.856L44.262 67.0679V66.1536L23.3467 53.9417V54.856ZM23.3467 57.7294L44.262 69.9413V69.027L23.3467 56.8151V57.7294ZM23.3467 60.7334L44.262 72.9453V72.031L23.3467 59.8191V60.7334ZM23.3467 63.6068L44.262 75.8187V74.9044L23.3467 62.6925V63.6068Z" fill="url(#paint4_linear)"/>
<defs>
<linearGradient id="paint0_linear" x1="15.9441" y1="78.828" x2="121.972" y2="78.9119" gradientUnits="userSpaceOnUse">
<stop stop-color="#485476"/>
<stop offset="0.356509" stop-color="#2E354E"/>
<stop offset="0.40366" stop-color="#2F3953"/>
<stop offset="0.460271" stop-color="#27293A"/>
<stop offset="1" stop-color="#2D3146"/>
</linearGradient>
<linearGradient id="paint1_linear" x1="27.497" y1="30.9658" x2="114.969" y2="14.457" gradientUnits="userSpaceOnUse">
<stop stop-color="#4E5873"/>
<stop offset="0.995" stop-color="#2A3551"/>
</linearGradient>
<linearGradient id="paint2_linear" x1="27.497" y1="28.9675" x2="114.969" y2="12.4587" gradientUnits="userSpaceOnUse">
<stop stop-color="#697698"/>
<stop offset="0.995" stop-color="#384464"/>
</linearGradient>
<linearGradient id="paint3_linear" x1="19.4572" y1="84.1541" x2="51.5811" y2="85.3174" gradientUnits="userSpaceOnUse">
<stop stop-color="#6C7699"/>
<stop offset="1" stop-color="#6A7497"/>
</linearGradient>
<linearGradient id="paint4_linear" x1="23.3466" y1="63.3557" x2="44.2695" y2="63.3557" gradientUnits="userSpaceOnUse">
<stop stop-color="#2ED8CF"/>
<stop offset="0.995" stop-color="#1CBEB6"/>
</linearGradient>
</defs>
</svg>
