<svg width="140" height="140" viewBox="0 0 140 140" fill="none" xmlns="http://www.w3.org/2000/svg">
<g clip-path="url(#clip0)">
<path d="M113.427 71.8769C113.351 61.6438 119.953 55.3262 128.824 56.2152C130.905 56.4232 132.38 54.8911 132.361 52.5456L132.304 44.1662C132.266 39.0024 128.427 33.5926 123.717 32.0983L109.322 27.5208C108.963 15.9258 100.186 4.0471 89.4614 0.831516C78.7365 -2.38407 70.0733 4.00927 69.9031 15.1314L55.2249 10.5728C50.6663 9.1542 46.9779 11.8212 47.0157 16.5311L47.0914 28.8449C46.9211 28.7882 46.7509 28.7314 46.5807 28.6747C35.6666 25.1564 26.8899 31.266 26.9656 42.3503C27.0413 53.4157 35.9503 65.5025 46.8644 69.3423C47.1481 69.4369 47.3751 69.7395 47.3751 70.0233L47.4507 80.1618C47.4886 85.7796 51.9526 91.9649 57.4001 93.9888L125.098 119.335C129.41 120.981 132.872 118.465 132.834 113.736L132.777 105.016C132.758 102.444 131.15 99.6066 128.862 98.2069C120.085 92.835 113.503 81.9966 113.427 71.8769Z" fill="url(#paint0_linear)"/>
<path d="M33.34 29.7338L11.3984 51.316C10.9444 51.7511 11.3038 52.5266 12.0037 52.6023L31.0891 54.6451C31.4296 54.683 31.7322 54.5316 31.8646 54.2668L42.1734 34.387C42.3626 34.0276 42.1734 33.5736 41.7762 33.3655L34.3236 29.6203C33.9831 29.4501 33.5859 29.4879 33.34 29.7338Z" fill="url(#paint1_linear)"/>
<path d="M29.5759 31.1714L48.5857 11.9536L69.9031 15.1314L50.9501 34.5194L29.5759 31.1714Z" fill="url(#paint2_linear)"/>
<path d="M74.5751 3.61207L54.6385 23.7567L87.4374 35.7868L101.529 21.241L101.548 21.2221C106.088 15.3584 101.227 6.3926 93.8686 2.70414L91.2583 1.39899C83.4274 -1.51395 77.4124 0.699131 74.5751 3.61207Z" fill="url(#paint3_linear)"/>
<path d="M109.303 27.5208L90.1423 47.0791L105.672 52.6212L110.911 75.641L131.018 55.7422C131.018 55.7422 132.361 54.1155 132.361 53.2643C132.361 52.4131 132.266 43.2204 132.266 43.2204C132.266 43.2204 132.248 38.0187 126.668 33.5547C123.868 31.3416 109.303 27.5208 109.303 27.5208Z" fill="url(#paint4_linear)"/>
<path d="M99.354 106.719C99.354 106.719 109.928 67.7724 115.659 82.3749C119.177 91.3975 126.535 96.7883 128.616 98.0367C130.696 99.2851 133.08 102.009 133.004 104.071C132.928 106.151 132.928 106.151 132.928 106.151V114.909C132.928 114.909 132.985 117.349 129.959 119.865C127.613 121.813 111.706 138.042 111.706 138.042L99.354 106.719Z" fill="url(#paint5_linear)"/>
<path d="M94.3793 91.1703C94.2847 80.975 100.886 74.7141 109.738 75.6599C111.819 75.8868 113.276 74.3547 113.257 72.0281L113.181 63.6865C113.143 58.5416 109.284 53.1508 104.594 51.6187L90.218 47.0034C89.8775 35.4651 81.0819 23.5864 70.376 20.3329C59.651 17.0795 51.0068 23.3972 50.8555 34.4815L36.1773 29.8662C31.6187 28.4286 27.9492 31.0768 27.987 35.7677L28.0816 48.0248C27.9114 47.968 27.7411 47.9113 27.5709 47.8545C16.6757 44.2796 7.8991 50.3513 7.99368 61.36C8.08825 72.3686 16.9784 84.4554 27.8925 88.333C28.1762 88.4276 28.4032 88.7303 28.4032 89.014L28.4788 99.0958C28.5167 104.695 32.9806 110.88 38.4282 112.904L106.069 138.496C110.382 140.142 113.843 137.683 113.786 132.973L113.711 124.291C113.692 121.737 112.084 118.9 109.795 117.481C101.056 112.053 94.4739 101.252 94.3793 91.1703Z" fill="url(#paint6_linear)"/>
<path d="M93.3864 92.1632C93.2918 81.9679 99.8932 75.707 108.746 76.6528C110.826 76.8798 112.283 75.3476 112.264 73.0211L112.188 64.6795C112.15 59.5345 108.292 54.1437 103.601 52.6116L89.2251 47.9963C88.8846 36.458 80.089 24.5793 69.383 21.3259C58.6581 18.0724 50.0139 24.3901 49.8626 35.4744L35.1844 30.8591C30.6258 29.4216 26.9563 32.0697 26.9941 36.7606L27.0887 49.0177C26.9184 48.9609 26.7482 48.9042 26.578 48.8475C15.6828 45.2725 6.90618 51.3443 7.00076 62.3529C7.09533 73.3615 15.9855 85.4483 26.8995 89.326C27.1833 89.4205 27.4102 89.7232 27.4102 90.0069L27.4859 100.089C27.5237 105.688 31.9877 111.873 37.4353 113.897L105.076 139.489C109.389 141.135 112.85 138.676 112.793 133.966L112.718 125.284C112.699 122.73 111.091 119.893 108.802 118.474C100.063 113.046 93.481 102.245 93.3864 92.1632Z" fill="url(#paint7_linear)"/>
<path d="M80.1587 86.5829C80.0961 79.674 84.464 75.4312 90.3212 76.0721C91.6979 76.2259 92.6616 75.1877 92.6491 73.611L92.5991 67.9582C92.574 64.4717 90.0209 60.8186 86.917 59.7803L77.4053 56.6527C77.18 48.8337 71.3603 40.7839 64.2765 38.5792C57.1803 36.3745 51.4607 40.6557 51.3606 48.1671L41.6486 45.0395C38.6323 44.0653 36.2043 45.8599 36.2294 49.0387L36.2919 57.3449C36.1793 57.3064 36.0667 57.268 35.954 57.2295C28.7451 54.8069 22.9379 58.9215 23.0005 66.3816C23.0631 73.8418 28.9454 82.0325 36.1668 84.6602C36.3545 84.7243 36.5047 84.9294 36.5047 85.1217L36.5548 91.9537C36.5798 95.7479 39.5334 99.9394 43.1379 101.311L87.8932 118.654C90.7468 119.769 93.0371 118.103 92.9995 114.911L92.9495 109.027C92.937 107.297 91.8732 105.374 90.3588 104.413C84.5766 100.734 80.2213 93.415 80.1587 86.5829Z" fill="url(#paint8_linear)"/>
</g>
<defs>
<linearGradient id="paint0_linear" x1="24.3759" y1="45.6738" x2="127.142" y2="64.0426" gradientUnits="userSpaceOnUse">
<stop offset="0.010713" stop-color="#556181"/>
<stop offset="0.167471" stop-color="#546080"/>
<stop offset="0.333943" stop-color="#474E6A"/>
<stop offset="0.342496" stop-color="#2B2E42"/>
<stop offset="0.56771" stop-color="#2B2F44"/>
<stop offset="0.657492" stop-color="#27293B"/>
<stop offset="0.723489" stop-color="#27293B"/>
<stop offset="0.888224" stop-color="#303853"/>
<stop offset="1" stop-color="#343D59"/>
</linearGradient>
<linearGradient id="paint1_linear" x1="14.5546" y1="59.3971" x2="31.0025" y2="43.566" gradientUnits="userSpaceOnUse">
<stop stop-color="#67728F"/>
<stop offset="0.681303" stop-color="#626F91"/>
<stop offset="1" stop-color="#515A78"/>
</linearGradient>
<linearGradient id="paint2_linear" x1="34.8014" y1="30.7801" x2="57.5" y2="41.4985" gradientUnits="userSpaceOnUse">
<stop stop-color="#5B6787"/>
<stop offset="0.47593" stop-color="#4F5A79"/>
<stop offset="0.997921" stop-color="#40435B"/>
</linearGradient>
<linearGradient id="paint3_linear" x1="59.6475" y1="15.6299" x2="93.992" y2="18.5826" gradientUnits="userSpaceOnUse">
<stop offset="0.0729673" stop-color="#5E6885"/>
<stop offset="0.3601" stop-color="#556081"/>
<stop offset="0.995" stop-color="#27293B"/>
</linearGradient>
<linearGradient id="paint4_linear" x1="98.7523" y1="38.0659" x2="124.562" y2="59.359" gradientUnits="userSpaceOnUse">
<stop offset="0.00861087" stop-color="#3D4867"/>
<stop offset="0.4888" stop-color="#2E364F"/>
<stop offset="0.586161" stop-color="#333B53"/>
<stop offset="0.792" stop-color="#282A3D"/>
<stop offset="1" stop-color="#2D3146"/>
</linearGradient>
<linearGradient id="paint5_linear" x1="125.357" y1="121.6" x2="96.3617" y2="90.3546" gradientUnits="userSpaceOnUse">
<stop stop-color="#2C3045"/>
<stop offset="0.146811" stop-color="#27293B"/>
<stop offset="0.283984" stop-color="#2E374F"/>
<stop offset="0.414122" stop-color="#384464"/>
<stop offset="0.640592" stop-color="#2C3249"/>
<stop offset="0.764959" stop-color="#2C3148"/>
<stop offset="1" stop-color="#2F3751"/>
</linearGradient>
<linearGradient id="paint6_linear" x1="7.99292" y1="79.2426" x2="113.787" y2="79.2426" gradientUnits="userSpaceOnUse">
<stop stop-color="#687498"/>
<stop offset="0.479167" stop-color="#475579"/>
<stop offset="0.995" stop-color="#2A3C6B"/>
</linearGradient>
<linearGradient id="paint7_linear" x1="7" y1="80.2355" x2="112.794" y2="80.2355" gradientUnits="userSpaceOnUse">
<stop stop-color="#818DAC"/>
<stop offset="0.995" stop-color="#4E5D87"/>
</linearGradient>
<linearGradient id="paint8_linear" x1="23" y1="78.5" x2="93" y2="78.5" gradientUnits="userSpaceOnUse">
<stop offset="0.995" stop-color="#2CD8CF"/>
</linearGradient>
<clipPath id="clip0">
<rect x="7" width="126.1" height="140" fill="white"/>
</clipPath>
</defs>
</svg>
