<svg width="140" height="140" viewBox="0 0 140 140" fill="none" xmlns="http://www.w3.org/2000/svg">
<g clip-path="url(#clip0)">
<path d="M124.687 63.2148C124.628 55.2115 129.791 50.2704 136.729 50.9657C138.357 51.1285 139.51 49.9302 139.496 48.0958L139.451 41.5423C139.422 37.5036 136.419 33.2727 132.735 32.104L121.477 28.524C121.196 19.4556 114.332 10.1652 105.944 7.65033C97.556 5.13543 90.7806 10.1356 90.6474 18.8342L79.1677 15.269C75.6024 14.1595 72.7177 16.2454 72.7473 19.9289L72.8065 29.5595C72.6733 29.5151 72.5402 29.4708 72.407 29.4264C63.8712 26.6748 57.007 31.4531 57.0662 40.1221C57.1253 48.7763 64.0931 58.2294 72.6289 61.2324C72.8508 61.3064 73.0284 61.5431 73.0284 61.765L73.0875 69.6943C73.1171 74.088 76.6084 78.9255 80.8689 80.5084L133.815 100.332C137.188 101.619 139.895 99.6512 139.865 95.9528L139.821 89.133C139.806 87.1211 138.549 84.902 136.759 83.8073C129.895 79.606 124.746 71.1293 124.687 63.2148Z" fill="url(#paint0_linear)"/>
<path d="M62.0516 30.2535L44.8912 47.1329C44.5361 47.4731 44.8172 48.0797 45.3646 48.1388L60.2912 49.7365C60.5575 49.7661 60.7942 49.6478 60.8977 49.4407L68.9602 33.8927C69.1081 33.6116 68.9602 33.2566 68.6495 33.0938L62.8209 30.1647C62.5546 30.0316 62.244 30.0612 62.0516 30.2535Z" fill="url(#paint1_linear)"/>
<path d="M59.1078 31.3793L73.9753 16.3491L90.6476 18.8344L75.8245 33.9978L59.1078 31.3793Z" fill="url(#paint2_linear)"/>
<path d="M94.3015 9.82437L78.7091 25.5795L104.361 34.9881L115.382 23.6119L115.397 23.5971C118.947 19.0111 115.146 11.999 109.391 9.11428L107.349 8.09353C101.225 5.81533 96.5205 7.54617 94.3015 9.82437Z" fill="url(#paint3_linear)"/>
<path d="M121.462 28.5234L106.477 43.8199L118.622 48.1544L122.72 66.1581L138.445 50.5954C138.445 50.5954 139.496 49.3231 139.496 48.6574C139.496 47.9917 139.422 40.8021 139.422 40.8021C139.422 40.8021 139.407 36.7338 135.043 33.2426C132.853 31.5117 121.462 28.5234 121.462 28.5234Z" fill="url(#paint4_linear)"/>
<path d="M113.681 90.464C113.681 90.464 121.951 60.0041 126.433 71.4247C129.185 78.4812 134.939 82.6974 136.567 83.6738C138.194 84.6501 140.058 86.7804 139.999 88.3929C139.94 90.0202 139.94 90.0202 139.94 90.0202V96.8696C139.94 96.8696 139.984 98.7779 137.617 100.745C135.783 102.269 123.341 114.962 123.341 114.962L113.681 90.464Z" fill="url(#paint5_linear)"/>
<path d="M109.79 78.304C109.716 70.3303 114.879 65.4337 121.803 66.1733C123.43 66.3509 124.569 65.1526 124.554 63.333L124.495 56.8091C124.465 52.7852 121.448 48.5691 117.779 47.3708L106.536 43.7612C106.269 34.7371 99.3904 25.4468 91.0173 22.9023C82.6294 20.3578 75.8687 25.2989 75.7504 33.9679L64.2706 30.3583C60.7054 29.2339 57.8354 31.305 57.865 34.9738L57.939 44.56C57.8058 44.5156 57.6727 44.4713 57.5396 44.4269C49.0185 41.6309 42.1543 46.3796 42.2283 54.9895C42.3022 63.5993 49.2552 73.0523 57.791 76.085C58.0129 76.159 58.1905 76.3957 58.1905 76.6176L58.2496 84.5025C58.2792 88.8814 61.7705 93.7189 66.031 95.3018L118.933 115.317C122.306 116.604 125.013 114.681 124.968 110.998L124.909 104.207C124.894 102.21 123.637 99.9913 121.847 98.8818C115.012 94.6361 109.864 86.189 109.79 78.304Z" fill="url(#paint6_linear)"/>
<path d="M109.014 79.0799C108.94 71.1062 114.103 66.2096 121.026 66.9492C122.653 67.1268 123.792 65.9285 123.778 64.1089L123.718 57.5849C123.689 53.5611 120.671 49.3449 117.002 48.1467L105.759 44.5371C105.493 35.513 98.6138 26.2227 90.2407 23.6782C81.8528 21.1337 75.0922 26.0747 74.9738 34.7437L63.494 31.1341C59.9288 30.0098 57.0589 32.0809 57.0885 35.7497L57.1624 45.3359C57.0293 45.2915 56.8961 45.2471 56.763 45.2028C48.2419 42.4068 41.3777 47.1555 41.4517 55.7653C41.5257 64.3752 48.4786 73.8282 57.0145 76.8609C57.2364 76.9348 57.4139 77.1715 57.4139 77.3934L57.4731 85.2784C57.5027 89.6573 60.9939 94.4948 65.2545 96.0777L118.156 116.093C121.529 117.38 124.236 115.457 124.192 111.774L124.133 104.983C124.118 102.986 122.86 100.767 121.07 99.6577C114.236 95.4119 109.088 86.9649 109.014 79.0799Z" fill="url(#paint7_linear)"/>
<path d="M98.6683 74.7163C98.6194 69.3128 102.036 65.9946 106.616 66.4958C107.693 66.6161 108.447 65.8041 108.437 64.571L108.398 60.15C108.378 57.4232 106.382 54.5661 103.954 53.754L96.5149 51.3079C96.3387 45.1927 91.7871 38.897 86.247 37.1727C80.697 35.4484 76.2237 38.7967 76.1454 44.6714L68.5497 42.2253C66.1907 41.4634 64.2918 42.8669 64.3113 45.3531L64.3603 51.8493C64.2722 51.8192 64.1841 51.7891 64.096 51.7591C58.4579 49.8643 53.9161 53.0824 53.9651 58.9169C54.014 64.7515 58.6145 71.1574 64.2624 73.2126C64.4092 73.2627 64.5267 73.4231 64.5267 73.5735L64.5658 78.9168C64.5854 81.8842 66.8955 85.1624 69.7145 86.235L104.718 99.7988C106.949 100.671 108.741 99.3678 108.711 96.8715L108.672 92.2701C108.662 90.9167 107.83 89.4129 106.646 88.6611C102.124 85.7839 98.7173 80.0596 98.6683 74.7163Z" fill="url(#paint8_linear)"/>
<path d="M83.2362 78.8561C83.177 70.8528 88.3399 65.9118 95.2781 66.6071C96.9054 66.7698 98.0593 65.5715 98.0445 63.7371L98.0001 57.1836C97.9705 53.145 94.9674 48.914 91.2838 47.7454L80.026 44.1653C79.7449 35.0969 72.8807 25.8066 64.4928 23.2917C56.1049 20.7768 49.3294 25.777 49.1963 34.4756L37.7165 30.9103C34.1513 29.8008 31.2666 31.8867 31.2961 35.5703L31.3553 45.2009C31.2222 45.1565 31.089 45.1121 30.9559 45.0677C22.42 42.3161 15.5558 47.0944 15.615 55.7634C15.6742 64.4177 22.6419 73.8707 31.1778 76.8738C31.3997 76.9478 31.5772 77.1844 31.5772 77.4063L31.6364 85.3357C31.666 89.7293 35.1572 94.5668 39.4178 96.1497L92.3638 115.973C95.7367 117.26 98.4439 115.293 98.4143 111.594L98.3699 104.774C98.3551 102.762 97.0977 100.543 95.3077 99.4487C88.4435 95.2473 83.2953 86.7706 83.2362 78.8561Z" fill="url(#paint9_linear)"/>
<path d="M20.6005 45.8963L3.44005 62.7757C3.085 63.1159 3.36608 63.7225 3.91344 63.7817L18.8401 65.3794C19.1064 65.4089 19.3431 65.2906 19.4466 65.0835L27.5091 49.5355C27.657 49.2544 27.5091 48.8994 27.1984 48.7366L21.3698 45.8075C21.1035 45.6744 20.7928 45.704 20.6005 45.8963Z" fill="url(#paint10_linear)"/>
<path d="M17.6567 47.0222L32.5242 31.9919L49.1965 34.4773L34.3734 49.6406L17.6567 47.0222Z" fill="url(#paint11_linear)"/>
<path d="M52.8504 25.4672L37.258 41.2223L62.9099 50.631L73.9311 39.2547L73.9459 39.24C77.4964 34.654 73.6944 27.6418 67.9397 24.7571L65.8982 23.7363C59.7737 21.4581 55.0694 23.189 52.8504 25.4672Z" fill="url(#paint12_linear)"/>
<path d="M80.0113 44.1663L65.0255 59.4628L77.171 63.7973L81.2688 81.801L96.9943 66.2382C96.9943 66.2382 98.0446 64.9659 98.0446 64.3002C98.0446 63.6345 97.9707 56.4449 97.9707 56.4449C97.9707 56.4449 97.9559 52.3767 93.5918 48.8854C91.4023 47.1545 80.0113 44.1663 80.0113 44.1663Z" fill="url(#paint13_linear)"/>
<path d="M72.2299 106.107C72.2299 106.107 80.4995 75.647 84.9819 87.0676C87.7335 94.1241 93.4882 98.3402 95.1155 99.3166C96.7428 100.293 98.6068 102.423 98.5476 104.036C98.4884 105.663 98.4884 105.663 98.4884 105.663V112.512C98.4884 112.512 98.5328 114.421 96.1658 116.388C94.3314 117.912 81.8901 130.605 81.8901 130.605L72.2299 106.107Z" fill="url(#paint14_linear)"/>
<path d="M68.3391 93.9447C68.2652 85.971 73.4281 81.0743 80.3515 81.814C81.9787 81.9915 83.1178 80.7932 83.1031 78.9736L83.0439 72.4497C83.0143 68.4258 79.9964 64.2097 76.3276 63.0114L65.0846 59.4018C64.8183 50.3778 57.9393 41.0874 49.5662 38.5429C41.1782 35.9985 34.4176 40.9395 34.2993 49.6085L22.8195 45.9989C19.2542 44.8746 16.3843 46.9457 16.4139 50.6145L16.4879 60.2006C16.3547 60.1563 16.2216 60.1119 16.0884 60.0675C7.56737 57.2715 0.703183 62.0203 0.77715 70.6301C0.851118 79.2399 7.80407 88.693 16.3399 91.7256C16.5618 91.7996 16.7394 92.0363 16.7394 92.2582L16.7985 100.143C16.8281 104.522 20.3194 109.359 24.5799 110.942L77.4815 130.958C80.8544 132.245 83.5616 130.322 83.5173 126.638L83.4581 119.848C83.4433 117.851 82.1859 115.632 80.3958 114.522C73.5612 110.277 68.4131 101.83 68.3391 93.9447Z" fill="url(#paint15_linear)"/>
<path d="M67.5626 94.7205C67.4886 86.7468 72.6515 81.8502 79.5749 82.5899C81.2022 82.7674 82.3413 81.5691 82.3265 79.7495L82.2673 73.2256C82.2377 69.2017 79.2199 64.9856 75.5511 63.7873L64.308 60.1777C64.0417 51.1536 57.1627 41.8633 48.7896 39.3188C40.4017 36.7743 33.641 41.7154 33.5227 50.3844L22.0429 46.7748C18.4777 45.6504 15.6077 47.7215 15.6373 51.3903L15.7113 60.9765C15.5782 60.9321 15.445 60.8878 15.3119 60.8434C6.79082 58.0474 -0.0733753 62.7961 0.000592227 71.406C0.0745598 80.0158 7.02751 89.4688 15.5634 92.5015C15.7853 92.5755 15.9628 92.8122 15.9628 93.0341L16.022 100.919C16.0516 105.298 19.5428 110.135 23.8034 111.718L76.705 131.734C80.0779 133.021 82.7851 131.098 82.7407 127.414L82.6815 120.624C82.6667 118.627 81.4093 116.408 79.6193 115.298C72.7847 111.053 67.6365 102.605 67.5626 94.7205Z" fill="url(#paint16_linear)"/>
<path d="M57.2172 90.3577C57.1683 84.9542 60.5844 81.6359 65.1653 82.1372C66.242 82.2575 66.9957 81.4454 66.9859 80.2124L66.9468 75.7913C66.9272 73.0645 64.9304 70.2074 62.5029 69.3954L55.0638 66.9493C54.8876 60.8341 50.336 54.5384 44.7958 52.8141C39.2458 51.0898 34.7726 54.4381 34.6943 60.3128L27.0985 57.8667C24.7396 57.1048 22.8406 58.5083 22.8602 60.9945L22.9091 67.4907C22.821 67.4606 22.733 67.4305 22.6449 67.4004C17.0068 65.5057 12.465 68.7237 12.5139 74.5583C12.5629 80.3928 17.1634 86.7988 22.8113 88.8539C22.9581 88.904 23.0755 89.0644 23.0755 89.2148L23.1147 94.5581C23.1343 97.5255 25.4443 100.804 28.2634 101.876L63.2664 115.44C65.4981 116.312 67.2894 115.009 67.26 112.513L67.2209 107.911C67.2111 106.558 66.3791 105.054 65.1947 104.302C60.6725 101.425 57.2661 95.701 57.2172 90.3577Z" fill="url(#paint17_linear)"/>
</g>
<defs>
<linearGradient id="paint0_linear" x1="55.0407" y1="42.7213" x2="135.414" y2="57.0875" gradientUnits="userSpaceOnUse">
<stop offset="0.010713" stop-color="#556181"/>
<stop offset="0.167471" stop-color="#546080"/>
<stop offset="0.333943" stop-color="#474E6A"/>
<stop offset="0.342496" stop-color="#2B2E42"/>
<stop offset="0.56771" stop-color="#2B2F44"/>
<stop offset="0.657492" stop-color="#27293B"/>
<stop offset="0.723489" stop-color="#27293B"/>
<stop offset="0.888224" stop-color="#303853"/>
<stop offset="1" stop-color="#343D59"/>
</linearGradient>
<linearGradient id="paint1_linear" x1="47.3596" y1="53.453" x2="60.2235" y2="41.0716" gradientUnits="userSpaceOnUse">
<stop stop-color="#67728F"/>
<stop offset="0.681303" stop-color="#626F91"/>
<stop offset="1" stop-color="#515A78"/>
</linearGradient>
<linearGradient id="paint2_linear" x1="63.1947" y1="31.0733" x2="80.9471" y2="39.4561" gradientUnits="userSpaceOnUse">
<stop stop-color="#5B6787"/>
<stop offset="0.47593" stop-color="#4F5A79"/>
<stop offset="0.997921" stop-color="#40435B"/>
</linearGradient>
<linearGradient id="paint3_linear" x1="82.6266" y1="19.2235" x2="109.487" y2="21.5328" gradientUnits="userSpaceOnUse">
<stop offset="0.0729673" stop-color="#5E6885"/>
<stop offset="0.3601" stop-color="#556081"/>
<stop offset="0.995" stop-color="#27293B"/>
</linearGradient>
<linearGradient id="paint4_linear" x1="113.21" y1="36.7707" x2="133.396" y2="53.424" gradientUnits="userSpaceOnUse">
<stop offset="0.00861087" stop-color="#3D4867"/>
<stop offset="0.4888" stop-color="#2E364F"/>
<stop offset="0.586161" stop-color="#333B53"/>
<stop offset="0.792" stop-color="#282A3D"/>
<stop offset="1" stop-color="#2D3146"/>
</linearGradient>
<linearGradient id="paint5_linear" x1="134.018" y1="102.103" x2="111.341" y2="77.6656" gradientUnits="userSpaceOnUse">
<stop stop-color="#2C3045"/>
<stop offset="0.146811" stop-color="#27293B"/>
<stop offset="0.283984" stop-color="#2E374F"/>
<stop offset="0.414122" stop-color="#384464"/>
<stop offset="0.640592" stop-color="#2C3249"/>
<stop offset="0.764959" stop-color="#2C3148"/>
<stop offset="1" stop-color="#2F3751"/>
</linearGradient>
<linearGradient id="paint6_linear" x1="42.2277" y1="68.9754" x2="124.969" y2="68.9754" gradientUnits="userSpaceOnUse">
<stop stop-color="#687498"/>
<stop offset="0.479167" stop-color="#475579"/>
<stop offset="0.995" stop-color="#2A3C6B"/>
</linearGradient>
<linearGradient id="paint7_linear" x1="41.4511" y1="69.7513" x2="124.192" y2="69.7513" gradientUnits="userSpaceOnUse">
<stop stop-color="#818DAC"/>
<stop offset="0.995" stop-color="#4E5D87"/>
</linearGradient>
<linearGradient id="paint8_linear" x1="53.9647" y1="68.3947" x2="108.711" y2="68.3947" gradientUnits="userSpaceOnUse">
<stop offset="0.995" stop-color="#2CD8CF"/>
</linearGradient>
<linearGradient id="paint9_linear" x1="13.5896" y1="58.3627" x2="93.9626" y2="72.7289" gradientUnits="userSpaceOnUse">
<stop offset="0.010713" stop-color="#556181"/>
<stop offset="0.167471" stop-color="#546080"/>
<stop offset="0.333943" stop-color="#474E6A"/>
<stop offset="0.342496" stop-color="#2B2E42"/>
<stop offset="0.56771" stop-color="#2B2F44"/>
<stop offset="0.657492" stop-color="#27293B"/>
<stop offset="0.723489" stop-color="#27293B"/>
<stop offset="0.888224" stop-color="#303853"/>
<stop offset="1" stop-color="#343D59"/>
</linearGradient>
<linearGradient id="paint10_linear" x1="5.90851" y1="69.0958" x2="18.7723" y2="56.7144" gradientUnits="userSpaceOnUse">
<stop stop-color="#67728F"/>
<stop offset="0.681303" stop-color="#626F91"/>
<stop offset="1" stop-color="#515A78"/>
</linearGradient>
<linearGradient id="paint11_linear" x1="21.7436" y1="46.7161" x2="39.496" y2="55.0989" gradientUnits="userSpaceOnUse">
<stop stop-color="#5B6787"/>
<stop offset="0.47593" stop-color="#4F5A79"/>
<stop offset="0.997921" stop-color="#40435B"/>
</linearGradient>
<linearGradient id="paint12_linear" x1="41.1755" y1="34.8663" x2="68.0363" y2="37.1756" gradientUnits="userSpaceOnUse">
<stop offset="0.0729673" stop-color="#5E6885"/>
<stop offset="0.3601" stop-color="#556081"/>
<stop offset="0.995" stop-color="#27293B"/>
</linearGradient>
<linearGradient id="paint13_linear" x1="71.7594" y1="52.4136" x2="91.9452" y2="69.0669" gradientUnits="userSpaceOnUse">
<stop offset="0.00861087" stop-color="#3D4867"/>
<stop offset="0.4888" stop-color="#2E364F"/>
<stop offset="0.586161" stop-color="#333B53"/>
<stop offset="0.792" stop-color="#282A3D"/>
<stop offset="1" stop-color="#2D3146"/>
</linearGradient>
<linearGradient id="paint14_linear" x1="92.567" y1="117.745" x2="69.8897" y2="93.3085" gradientUnits="userSpaceOnUse">
<stop stop-color="#2C3045"/>
<stop offset="0.146811" stop-color="#27293B"/>
<stop offset="0.283984" stop-color="#2E374F"/>
<stop offset="0.414122" stop-color="#384464"/>
<stop offset="0.640592" stop-color="#2C3249"/>
<stop offset="0.764959" stop-color="#2C3148"/>
<stop offset="1" stop-color="#2F3751"/>
</linearGradient>
<linearGradient id="paint15_linear" x1="0.776558" y1="84.616" x2="83.5178" y2="84.616" gradientUnits="userSpaceOnUse">
<stop stop-color="#687498"/>
<stop offset="0.479167" stop-color="#475579"/>
<stop offset="0.995" stop-color="#2A3C6B"/>
</linearGradient>
<linearGradient id="paint16_linear" x1="4.86927e-07" y1="85.3919" x2="82.7412" y2="85.3919" gradientUnits="userSpaceOnUse">
<stop stop-color="#818DAC"/>
<stop offset="0.995" stop-color="#4E5D87"/>
</linearGradient>
<linearGradient id="paint17_linear" x1="12.5136" y1="84.036" x2="67.2604" y2="84.036" gradientUnits="userSpaceOnUse">
<stop offset="0.995" stop-color="#2CD8CF"/>
</linearGradient>
<clipPath id="clip0">
<rect y="7" width="140" height="125" fill="white"/>
</clipPath>
</defs>
</svg>
