<svg width="140" height="140" viewBox="0 0 140 140" fill="none" xmlns="http://www.w3.org/2000/svg">
<g clip-path="url(#clip0)">
<path d="M11.7091 52.1885V71.8475C11.7091 74.5821 13.1372 77.1041 15.4464 78.517L65.4598 111.773C70.6556 114.948 77.1731 114.948 82.3841 111.773L134.524 77.0129C136.849 75.5848 138.262 73.0629 138.262 70.3434V51.277L11.7091 52.1885Z" fill="url(#paint0_linear)"/>
<path d="M11.7091 52.7962V71.8475C11.7091 74.5821 13.1372 77.1041 15.4464 78.517L65.4598 111.773C70.6556 114.948 77.1731 114.948 82.3841 111.773L134.524 77.0129C136.849 75.5848 138.262 73.0629 138.262 70.3434V51.277L11.7091 52.7962Z" fill="url(#paint1_linear)"/>
<path d="M94.2798 90.5813L95.6016 89.685L95.556 95.7467L94.2343 96.6431L94.2798 90.5813ZM97.2727 94.5769L98.5945 93.6957L98.64 87.6036L97.3183 88.4999L97.2727 94.5769ZM100.326 92.5259L101.648 91.6448L101.694 85.5222L100.372 86.4186L100.326 92.5259ZM103.365 90.4598L104.687 89.5786L104.732 83.4257L103.41 84.322L103.365 90.4598ZM106.419 88.4088L107.74 87.5276L107.786 81.3443L106.464 82.2407L106.419 88.4088ZM109.457 86.3426L110.779 85.4615L110.824 79.2478L109.503 80.1441L109.457 86.3426ZM112.511 84.2917L113.832 83.4105L113.878 77.1664L112.556 78.0628L112.511 84.2917ZM115.549 82.2407L116.871 81.3595L116.916 75.0851L115.595 75.9814L115.549 82.2407ZM118.603 80.1593L119.925 79.2782L119.97 72.9733L118.648 73.8697L118.603 80.1593ZM121.687 71.7883L121.641 78.1084L122.963 77.2272L123.009 70.892L121.687 71.7883Z" fill="#2FAAAF"/>
<path d="M25.337 52.9193C25.6256 52.9193 25.6256 52.4635 25.337 52.4635C25.0483 52.4635 25.0483 52.9193 25.337 52.9193Z" fill="url(#paint2_linear)"/>
<path d="M135.77 56.4888L82.7033 87.9218C77.31 91.2186 70.519 91.2186 65.1106 87.9218L13.3956 56.3217C10.8281 54.7568 11.1016 50.9587 13.8666 49.7737L72.4637 24.9494C76.0187 23.4301 80.0143 23.4301 83.5389 24.9494L135.087 47.0087C139.098 48.7255 139.493 54.2251 135.77 56.4888Z" fill="url(#paint3_linear)"/>
<path d="M135.771 54.6788L82.7035 86.1119C77.3102 89.4086 70.5192 89.4086 65.1107 86.1119L13.3958 54.5117C10.8283 52.9469 11.1017 49.1488 13.8667 47.9638L72.4638 23.1394C76.0188 21.6202 80.0144 21.6202 83.5391 23.1394L135.087 45.1988C139.098 46.9155 139.493 52.4152 135.771 54.6788Z" fill="url(#paint4_linear)"/>
<path d="M69.1927 30.7135L30.8663 49.1417L29.218 48.0577L29.2477 45.8006L67.8414 28.9613L69.3115 29.3474L69.1927 30.7135Z" fill="url(#paint5_linear)"/>
<path d="M69.2528 29.4236L31.3274 47.0201C31.164 47.0944 30.971 47.0795 30.8225 46.9756L29.3079 45.9807C29.2039 45.9064 29.2188 45.7431 29.3376 45.6985L67.6639 28.2505C67.7382 28.2208 67.8421 28.2208 67.9015 28.2802L69.2677 29.2454C69.3271 29.2899 69.3271 29.379 69.2528 29.4236Z" fill="url(#paint6_linear)"/>
<path d="M123.226 57.8007L86.5925 77.9365C86.4291 78.0256 86.2509 78.0256 86.0876 77.9365L84.5136 77.0456C84.3948 76.9862 84.4096 76.8228 84.5136 76.7634L121.563 56.7464C121.637 56.7019 121.726 56.7019 121.8 56.7464L123.226 57.6225C123.3 57.6671 123.3 57.7562 123.226 57.8007Z" fill="url(#paint7_linear)"/>
<path d="M122.573 57.3936L85.6304 78.4591L83.9102 77.4931L83.7819 75.2395L121.102 55.7402L122.596 56.0224L122.573 57.3936Z" fill="url(#paint8_linear)"/>
<path d="M122.542 56.1013L85.941 76.3093C85.7833 76.3948 85.5897 76.3935 85.4343 76.3002L83.8537 75.4137C83.7448 75.3469 83.7482 75.183 83.8636 75.1302L120.875 55.0423C120.947 55.0075 121.05 55.0002 121.114 55.0553L122.544 55.9225C122.607 55.9628 122.613 56.0517 122.542 56.1013Z" fill="url(#paint9_linear)"/>
<path d="M83.6034 112.11C83.6034 113.284 82.9054 114.353 81.8214 114.813L75.941 118.139C74.174 118.911 72.1247 118.763 70.4765 117.753L3.35705 76.6648C1.87211 75.759 0.98114 74.1553 0.98114 72.4328V51.2278L77.3072 87.3119L83.6925 89.1681L83.6034 112.11Z" fill="url(#paint10_linear)"/>
<path d="M83.6034 112.11C83.6034 113.284 82.9054 114.353 81.8214 114.813L75.941 118.139C74.174 118.911 72.1247 118.763 70.4765 117.753L3.35705 76.6648C1.87211 75.759 0.98114 74.1553 0.98114 72.4328V51.2278L77.3072 87.3119L83.6925 89.1681L83.6034 112.11Z" fill="url(#paint11_linear)"/>
<path d="M70.6842 94.8249L1.87198 52.6376C0.550377 51.8358 0.74342 49.8608 2.18381 49.3114L8.36117 46.9652C9.90551 46.386 11.6132 46.5197 13.0387 47.3364L82.6083 87.2962C84.0487 88.1129 84.0932 90.1621 82.6974 91.0531L76.8913 94.7655C75.0054 95.9683 72.5849 95.998 70.6842 94.8249Z" fill="url(#paint12_linear)"/>
<path d="M70.6843 92.8903L1.87204 50.7031C0.550438 49.9012 0.743481 47.9262 2.18387 47.3768L8.36124 45.0306C9.90558 44.4515 11.6133 44.5851 13.0388 45.4018L82.6084 85.3616C84.0488 86.1783 84.0933 88.2276 82.6975 89.1185L76.8913 92.8309C75.0055 94.0337 72.585 94.0634 70.6843 92.8903Z" fill="url(#paint13_linear)"/>
<path opacity="0.18" d="M5.40603 58.2536C5.50998 58.9515 5.13874 59.7682 4.55962 59.8128C3.98049 59.8573 3.38651 59.3227 3.20832 58.61C3.03012 57.8972 3.32711 57.1993 3.89139 57.1547C4.45567 57.1102 5.28724 57.526 5.40603 58.2536Z" fill="#2B2F43"/>
<path d="M5.36164 57.9708C5.53983 58.639 5.24285 59.233 4.70827 59.2775C4.17369 59.3221 3.59456 58.8172 3.41637 58.1341C3.23817 57.4659 3.53516 56.8719 4.06974 56.8274C4.60432 56.7828 5.18345 57.3026 5.36164 57.9708Z" fill="url(#paint14_linear)"/>
<path d="M4.50027 59.4252C3.9657 59.4698 3.38657 58.9649 3.20837 58.2818C3.10443 57.8809 3.16383 57.5245 3.34202 57.2869C3.37172 57.2424 3.40142 57.2127 3.43112 57.183C3.46081 57.1533 3.49051 57.1384 3.52021 57.1087C3.59446 57.0642 3.66871 57.0196 3.77265 57.0048C3.80235 56.9899 3.8469 56.9899 3.8766 56.9899C4.41118 56.9454 4.99031 57.4502 5.1685 58.1333C5.33184 58.7867 5.03485 59.3807 4.50027 59.4252Z" fill="url(#paint15_linear)"/>
<path opacity="0.18" d="M5.16525 71.256C5.26919 71.954 4.89796 72.7707 4.31883 72.8152C3.7397 72.8598 3.14573 72.3252 2.96753 71.6124C2.78934 70.8996 3.08633 70.2017 3.65061 70.1572C4.21489 70.1126 5.04645 70.5284 5.16525 71.256Z" fill="#2B2F43"/>
<path d="M5.12086 70.9732C5.29905 71.6414 5.00206 72.2354 4.46748 72.28C3.9329 72.3245 3.35378 71.8196 3.17558 71.1366C2.99739 70.4683 3.29438 69.8744 3.82896 69.8298C4.36354 69.7853 4.94266 70.305 5.12086 70.9732Z" fill="url(#paint16_linear)"/>
<path d="M4.25949 72.4277C3.72491 72.4722 3.14578 71.9673 2.96759 71.2843C2.86364 70.8833 2.92304 70.5269 3.10124 70.2893C3.13093 70.2448 3.16063 70.2151 3.19033 70.1854C3.22003 70.1557 3.24973 70.1409 3.27943 70.1112C3.35368 70.0666 3.42792 70.0221 3.53187 70.0072C3.56157 69.9924 3.60612 69.9924 3.63581 69.9924C4.17039 69.9478 4.74952 70.4527 4.92771 71.1358C5.09106 71.7891 4.79407 72.3831 4.25949 72.4277Z" fill="url(#paint17_linear)"/>
<path d="M7.76713 60.7904C7.76713 61.0577 7.58894 61.1468 7.35135 60.9983C7.11376 60.835 6.92072 60.4786 6.92072 60.2113C6.92072 59.944 7.09891 59.8549 7.3365 60.0034C7.55924 60.1668 7.75228 60.5083 7.76713 60.7904Z" fill="#2ED8CF"/>
<path d="M9.2072 61.7865C9.2072 62.0538 9.029 62.1429 8.79141 61.9944C8.55382 61.8311 8.36078 61.4747 8.36078 61.2074C8.36078 60.9401 8.53897 60.851 8.77656 60.9995C9.01415 61.148 9.2072 61.5193 9.2072 61.7865Z" fill="#2ED8CF"/>
<path d="M10.6629 62.7954C10.6629 63.0627 10.4847 63.1518 10.2472 63.0033C10.0096 62.84 9.81653 62.4836 9.81653 62.2163C9.81653 61.949 9.99472 61.8599 10.2323 62.0084C10.4699 62.1718 10.6629 62.5133 10.6629 62.7954Z" fill="#2ED8CF"/>
<path d="M12.1182 63.7912C12.1182 64.0585 11.94 64.1476 11.7024 63.9991C11.4648 63.8357 11.2718 63.4793 11.2718 63.212C11.2718 62.9448 11.45 62.8557 11.6876 63.0042C11.9252 63.1675 12.1182 63.5239 12.1182 63.7912Z" fill="#2ED8CF"/>
<path d="M13.573 64.8001C13.573 65.0674 13.3948 65.1565 13.1572 65.008C12.9196 64.8595 12.7266 64.4882 12.7266 64.221C12.7266 63.9537 12.9048 63.8646 13.1423 64.0131C13.3799 64.1764 13.573 64.5328 13.573 64.8001Z" fill="#2ED8CF"/>
<path d="M15.0287 65.7957C15.0287 66.063 14.8505 66.1521 14.6129 66.0036C14.3754 65.8402 14.1823 65.4839 14.1823 65.2166C14.1823 64.9493 14.3605 64.8602 14.5981 65.0087C14.8208 65.172 15.0139 65.5284 15.0287 65.7957Z" fill="#2ED8CF"/>
<path d="M16.4835 66.8046C16.4835 67.0719 16.3053 67.161 16.0677 67.0125C15.8301 66.8491 15.6371 66.4928 15.6371 66.2255C15.6371 65.9582 15.8153 65.8691 16.0529 66.0176C16.2756 66.1809 16.4687 66.5373 16.4835 66.8046Z" fill="#2ED8CF"/>
<path d="M17.9241 67.8135C17.9241 68.0808 17.7459 68.1699 17.5083 68.0214C17.2707 67.8581 17.0777 67.5017 17.0777 67.2344C17.0777 66.9671 17.2559 66.878 17.4935 67.0265C17.7311 67.175 17.9241 67.5314 17.9241 67.8135Z" fill="#2ED8CF"/>
<path d="M19.3793 68.8092C19.3793 69.0765 19.2011 69.1656 18.9635 69.0171C18.7259 68.8538 18.5329 68.4974 18.5329 68.2301C18.5329 67.9628 18.7111 67.8737 18.9487 68.0222C19.1863 68.1856 19.3793 68.5419 19.3793 68.8092Z" fill="#2ED8CF"/>
<path d="M7.78172 62.3647C7.78172 62.632 7.60353 62.7211 7.36594 62.5726C7.12835 62.4241 6.9353 62.0528 6.9353 61.7855C6.9353 61.5182 7.1135 61.4291 7.35109 61.5776C7.58868 61.7261 7.78172 62.0825 7.78172 62.3647Z" fill="#2ED8CF"/>
<path d="M9.23747 63.3585C9.23747 63.6257 9.05928 63.7148 8.82169 63.5664C8.58409 63.403 8.39105 63.0466 8.39105 62.7793C8.39105 62.512 8.56925 62.4229 8.80684 62.5714C9.04443 62.7348 9.23747 63.0912 9.23747 63.3585Z" fill="#2ED8CF"/>
<path d="M10.6922 64.3693C10.6922 64.6366 10.514 64.7257 10.2765 64.5772C10.0389 64.4138 9.84583 64.0575 9.84583 63.7902C9.84583 63.5229 10.024 63.4338 10.2616 63.5823C10.4843 63.7456 10.6774 64.102 10.6922 64.3693Z" fill="#2ED8CF"/>
<path d="M12.1329 65.3631C12.1329 65.6304 11.9547 65.7195 11.7171 65.571C11.4795 65.4076 11.2864 65.0512 11.2864 64.7839C11.2864 64.5167 11.4646 64.4276 11.7022 64.5761C11.9398 64.7394 12.1329 65.0958 12.1329 65.3631Z" fill="#2ED8CF"/>
<path d="M13.5881 66.3738C13.5881 66.6411 13.4099 66.7302 13.1723 66.5817C12.9347 66.4184 12.7417 66.062 12.7417 65.7947C12.7417 65.5274 12.9199 65.4383 13.1575 65.5868C13.3951 65.7501 13.5881 66.1065 13.5881 66.3738Z" fill="#2ED8CF"/>
<path d="M15.0433 67.3847C15.0433 67.652 14.8651 67.7411 14.6275 67.5926C14.3899 67.4292 14.1969 67.0728 14.1969 66.8055C14.1969 66.5383 14.3751 66.4492 14.6127 66.5977C14.8503 66.7462 15.0433 67.1025 15.0433 67.3847Z" fill="#2ED8CF"/>
<path d="M16.4986 68.3783C16.4986 68.6456 16.3204 68.7347 16.0828 68.5862C15.8452 68.4229 15.6522 68.0665 15.6522 67.7992C15.6522 67.5319 15.8304 67.4428 16.0679 67.5913C16.3055 67.7398 16.4986 68.111 16.4986 68.3783Z" fill="#2ED8CF"/>
<path d="M17.9538 69.3892C17.9538 69.6565 17.7756 69.7456 17.5381 69.5971C17.3005 69.4337 17.1074 69.0774 17.1074 68.8101C17.1074 68.5428 17.2856 68.4537 17.5232 68.6022C17.7608 68.7655 17.9538 69.1071 17.9538 69.3892Z" fill="#2ED8CF"/>
<path d="M19.4091 70.3848C19.4091 70.6521 19.2309 70.7412 18.9933 70.5927C18.7557 70.4294 18.5627 70.073 18.5627 69.8057C18.5627 69.5384 18.7409 69.4493 18.9785 69.5978C19.2012 69.7611 19.3943 70.1175 19.4091 70.3848Z" fill="#2ED8CF"/>
<path d="M7.79686 63.9404C7.79686 64.2076 7.61866 64.2967 7.38107 64.1482C7.14348 63.9849 6.95044 63.6285 6.95044 63.3612C6.95044 63.0939 7.12863 63.0048 7.36622 63.1533C7.60381 63.3167 7.79686 63.6731 7.79686 63.9404Z" fill="#2ED8CF"/>
<path d="M9.25206 64.9341C9.25206 65.2014 9.07386 65.2905 8.83627 65.142C8.59868 64.9787 8.40564 64.6223 8.40564 64.355C8.40564 64.0877 8.58383 63.9986 8.82142 64.1471C9.05901 64.3104 9.25206 64.6668 9.25206 64.9341Z" fill="#2ED8CF"/>
<path d="M10.7073 65.945C10.7073 66.2123 10.5291 66.3014 10.2915 66.1529C10.0539 66.0044 9.8609 65.6331 9.8609 65.3659C9.8609 65.0986 10.0391 65.0095 10.2767 65.158C10.5143 65.3213 10.7073 65.6777 10.7073 65.945Z" fill="#2ED8CF"/>
<path d="M12.1626 66.9539C12.1626 67.2212 11.9844 67.3103 11.7468 67.1618C11.5092 66.9984 11.3162 66.6421 11.3162 66.3748C11.3162 66.1075 11.4944 66.0184 11.7319 66.1669C11.9695 66.3154 12.1626 66.6718 12.1626 66.9539Z" fill="#2ED8CF"/>
<path d="M13.6178 67.9495C13.6178 68.2168 13.4396 68.3059 13.2021 68.1574C12.9645 67.994 12.7714 67.6377 12.7714 67.3704C12.7714 67.1031 12.9496 67.014 13.1872 67.1625C13.4099 67.3258 13.603 67.6822 13.6178 67.9495Z" fill="#2ED8CF"/>
<path d="M15.0726 68.9584C15.0726 69.2257 14.8944 69.3148 14.6568 69.1663C14.4192 69.0029 14.2262 68.6466 14.2262 68.3793C14.2262 68.112 14.4044 68.0229 14.642 68.1714C14.8647 68.3347 15.0578 68.6763 15.0726 68.9584Z" fill="#2ED8CF"/>
<path d="M16.5137 69.9541C16.5137 70.2214 16.3355 70.3105 16.0979 70.162C15.8603 69.9987 15.6673 69.6423 15.6673 69.375C15.6673 69.1077 15.8455 69.0186 16.0831 69.1671C16.3207 69.3156 16.5137 69.6868 16.5137 69.9541Z" fill="#2ED8CF"/>
<path d="M17.9685 70.963C17.9685 71.2303 17.7903 71.3194 17.5527 71.1709C17.3151 71.0076 17.1221 70.6512 17.1221 70.3839C17.1221 70.1166 17.3003 70.0275 17.5379 70.176C17.7755 70.3394 17.9685 70.6809 17.9685 70.963Z" fill="#2ED8CF"/>
<path d="M19.4238 71.9587C19.4238 72.2259 19.2456 72.315 19.008 72.1665C18.7704 72.0181 18.5773 71.6468 18.5773 71.3795C18.5773 71.1122 18.7555 71.0231 18.9931 71.1716C19.2307 71.335 19.4238 71.6914 19.4238 71.9587Z" fill="#2ED8CF"/>
<path d="M7.82638 65.5115C7.82638 65.7787 7.63334 65.8678 7.4106 65.7045C7.18785 65.5412 6.99481 65.1848 6.99481 64.9175C6.99481 64.6502 7.18785 64.5611 7.4106 64.7244C7.64819 64.8878 7.82638 65.2293 7.82638 65.5115Z" fill="#2ED8CF"/>
<path d="M9.28213 66.5222C9.28213 66.7895 9.08909 66.8786 8.86635 66.7152C8.62875 66.5519 8.45056 66.1955 8.45056 65.9282C8.45056 65.6609 8.6436 65.5718 8.86635 65.7352C9.08909 65.8985 9.28213 66.2549 9.28213 66.5222Z" fill="#2ED8CF"/>
<path d="M10.722 67.5169C10.722 67.7842 10.5438 67.8733 10.3062 67.7248C10.0686 67.5614 9.87555 67.205 9.87555 66.9378C9.87555 66.6705 10.0537 66.5814 10.2913 66.7299C10.5289 66.8932 10.722 67.2496 10.722 67.5169Z" fill="#2ED8CF"/>
<path d="M12.1772 68.5276C12.1772 68.7949 11.999 68.884 11.7614 68.7355C11.5239 68.5722 11.3308 68.2158 11.3308 67.9485C11.3308 67.6812 11.509 67.5921 11.7466 67.7406C11.9842 67.9039 12.1772 68.2455 12.1772 68.5276Z" fill="#2ED8CF"/>
<path d="M13.6325 69.5214C13.6325 69.7887 13.4543 69.8778 13.2167 69.7293C12.9791 69.5659 12.7861 69.2096 12.7861 68.9423C12.7861 68.675 12.9643 68.5859 13.2019 68.7344C13.4394 68.8977 13.6325 69.2541 13.6325 69.5214Z" fill="#2ED8CF"/>
<path d="M15.0882 70.5323C15.0882 70.7995 14.91 70.8886 14.6724 70.7401C14.4348 70.5768 14.2418 70.2204 14.2418 69.9531C14.2418 69.6858 14.42 69.5967 14.6575 69.7452C14.8951 69.9086 15.0882 70.2501 15.0882 70.5323Z" fill="#2ED8CF"/>
<path d="M16.543 71.526C16.543 71.7933 16.3648 71.8824 16.1272 71.7339C15.8896 71.5706 15.6966 71.2142 15.6966 70.9469C15.6966 70.6796 15.8748 70.5905 16.1124 70.739C16.35 70.9024 16.5282 71.2587 16.543 71.526Z" fill="#2ED8CF"/>
<path d="M17.9982 72.5368C17.9982 72.8041 17.82 72.8932 17.5824 72.7447C17.3448 72.5813 17.1518 72.2249 17.1518 71.9577C17.1518 71.6904 17.33 71.6013 17.5676 71.7498C17.7903 71.9131 17.9834 72.2546 17.9982 72.5368Z" fill="#2ED8CF"/>
<path d="M19.4388 73.5305C19.4388 73.7978 19.2606 73.8869 19.023 73.7384C18.7854 73.5899 18.5924 73.2187 18.5924 72.9514C18.5924 72.6841 18.7706 72.595 19.0082 72.7435C19.2458 72.9069 19.4388 73.2633 19.4388 73.5305Z" fill="#2ED8CF"/>
<path d="M53.1324 89.0634C53.1324 89.3307 52.9394 89.4347 52.7166 89.2713C52.479 89.108 52.3008 88.7665 52.3008 88.4992C52.3008 88.2319 52.4939 88.1279 52.7166 88.2913C52.9394 88.4398 53.1324 88.7813 53.1324 89.0634Z" fill="#2BD9D0"/>
<path d="M54.5578 90.0296C54.5578 90.2969 54.3647 90.4009 54.142 90.2375C53.9044 90.0742 53.7262 89.7326 53.7262 89.4654C53.7262 89.1981 53.9192 89.0941 54.142 89.2575C54.3796 89.406 54.5578 89.7623 54.5578 90.0296Z" fill="#2BD9D0"/>
<path d="M55.9984 90.9951C55.9984 91.2624 55.8053 91.3663 55.5826 91.203C55.345 91.0396 55.1668 90.6981 55.1668 90.4308C55.1668 90.1635 55.3599 90.0596 55.5826 90.2229C55.8202 90.3714 55.9984 90.7278 55.9984 90.9951Z" fill="#2BD9D0"/>
<path d="M57.4385 91.9757C57.4385 92.243 57.2455 92.3469 57.0227 92.1836C56.7851 92.0202 56.6069 91.6787 56.6069 91.4114C56.6069 91.1441 56.8 91.0402 57.0227 91.2035C57.2603 91.352 57.4385 91.6935 57.4385 91.9757Z" fill="#2BD9D0"/>
<path d="M58.8787 92.9411C58.8787 93.2084 58.6857 93.3124 58.4629 93.149C58.2253 92.9857 58.0471 92.6441 58.0471 92.3769C58.0471 92.1096 58.2402 92.0056 58.4629 92.169C58.7005 92.3174 58.8787 92.6738 58.8787 92.9411Z" fill="#2BD9D0"/>
<path d="M60.3193 93.9046C60.3193 94.1719 60.1263 94.2759 59.9035 94.1125C59.6659 93.9492 59.4877 93.6076 59.4877 93.3404C59.4877 93.0731 59.6808 92.9691 59.9035 93.1325C60.1411 93.281 60.3193 93.6373 60.3193 93.9046Z" fill="#2BD9D0"/>
<path d="M61.7599 94.8852C61.7599 95.1525 61.5669 95.2565 61.3441 95.0931C61.1214 94.9298 60.9283 94.5882 60.9283 94.3209C60.9283 94.0536 61.1214 93.9497 61.3441 94.113C61.5669 94.2615 61.7599 94.6031 61.7599 94.8852Z" fill="#2BD9D0"/>
<path d="M63.2005 95.8507C63.2005 96.118 63.0074 96.2219 62.7847 96.0586C62.5471 95.8952 62.3689 95.5537 62.3689 95.2864C62.3689 95.0191 62.5619 94.9152 62.7847 95.0785C63.0074 95.227 63.2005 95.5834 63.2005 95.8507Z" fill="#2BD9D0"/>
<path d="M64.6406 96.8161C64.6406 97.0834 64.4476 97.1874 64.2249 97.024C63.9873 96.8607 63.8091 96.5191 63.8091 96.2518C63.8091 95.9846 64.0021 95.8806 64.2249 96.044C64.4476 96.1924 64.6406 96.5488 64.6406 96.8161Z" fill="#2BD9D0"/>
<path d="M53.1323 90.638C53.1323 90.9053 52.9392 91.0093 52.7165 90.8459C52.4789 90.6826 52.3007 90.341 52.3007 90.0737C52.3007 89.8065 52.4938 89.7025 52.7165 89.8659C52.9392 90.0143 53.1323 90.3559 53.1323 90.638Z" fill="#2BD9D0"/>
<path d="M54.5578 91.6035C54.5578 91.8707 54.3647 91.9747 54.142 91.8113C53.9044 91.648 53.7262 91.3065 53.7262 91.0392C53.7262 90.7719 53.9192 90.668 54.142 90.8313C54.3796 90.9798 54.5578 91.3362 54.5578 91.6035Z" fill="#2BD9D0"/>
<path d="M55.9984 92.5689C55.9984 92.8362 55.8053 92.9401 55.5826 92.7768C55.3599 92.6134 55.1668 92.2719 55.1668 92.0046C55.1668 91.7374 55.3599 91.6334 55.5826 91.7968C55.8202 91.9601 55.9984 92.3016 55.9984 92.5689Z" fill="#2BD9D0"/>
<path d="M57.4385 93.5494C57.4385 93.8167 57.2455 93.9207 57.0227 93.7573C56.7851 93.594 56.6069 93.2524 56.6069 92.9851C56.6069 92.7178 56.8 92.6139 57.0227 92.7772C57.2603 92.9257 57.4385 93.2673 57.4385 93.5494Z" fill="#2BD9D0"/>
<path d="M58.8787 94.5148C58.8787 94.7821 58.6857 94.8861 58.4629 94.7227C58.2253 94.5594 58.0471 94.2179 58.0471 93.9506C58.0471 93.6833 58.2402 93.5793 58.4629 93.7427C58.7005 93.8912 58.8787 94.2476 58.8787 94.5148Z" fill="#2BD9D0"/>
<path d="M60.3193 95.4803C60.3193 95.7476 60.1263 95.8515 59.9035 95.6882C59.6659 95.5248 59.4877 95.1833 59.4877 94.916C59.4877 94.6487 59.6808 94.5448 59.9035 94.7081C60.1411 94.8715 60.3193 95.213 60.3193 95.4803Z" fill="#2BD9D0"/>
<path d="M61.7599 96.4591C61.7599 96.7264 61.5669 96.8303 61.3441 96.667C61.1065 96.5036 60.9283 96.1621 60.9283 95.8948C60.9283 95.6275 61.1214 95.5236 61.3441 95.6869C61.5669 95.8354 61.7599 96.1769 61.7599 96.4591Z" fill="#2BD9D0"/>
<path d="M63.2005 97.4244C63.2005 97.6917 63.0074 97.7956 62.7847 97.6323C62.5471 97.4689 62.3689 97.1274 62.3689 96.8601C62.3689 96.5928 62.5619 96.4889 62.7847 96.6522C63.0074 96.8007 63.2005 97.1571 63.2005 97.4244Z" fill="#2BD9D0"/>
<path d="M64.6406 98.3898C64.6406 98.6571 64.4476 98.7611 64.2249 98.5977C63.9873 98.4344 63.8091 98.0929 63.8091 97.8256C63.8091 97.5583 64.0021 97.4543 64.2249 97.6177C64.4476 97.781 64.6406 98.1226 64.6406 98.3898Z" fill="#2BD9D0"/>
<path d="M53.1323 92.2137C53.1323 92.481 52.9392 92.585 52.7165 92.4216C52.4789 92.2583 52.3007 91.9167 52.3007 91.6494C52.3007 91.3821 52.4938 91.2782 52.7165 91.4415C52.9392 91.59 53.1323 91.9316 53.1323 92.2137Z" fill="#2BD9D0"/>
<path d="M54.5578 93.1772C54.5578 93.4445 54.3647 93.5484 54.142 93.3851C53.9044 93.2218 53.7262 92.8802 53.7262 92.6129C53.7262 92.3456 53.9192 92.2417 54.142 92.405C54.3647 92.5684 54.5578 92.9099 54.5578 93.1772Z" fill="#2BD9D0"/>
<path d="M55.9984 94.1427C55.9984 94.41 55.8053 94.5139 55.5826 94.3506C55.345 94.1872 55.1668 93.8457 55.1668 93.5784C55.1668 93.3111 55.3599 93.2071 55.5826 93.3705C55.8202 93.5338 55.9984 93.8754 55.9984 94.1427Z" fill="#2BD9D0"/>
<path d="M57.4385 95.1214C57.4385 95.3887 57.2455 95.4927 57.0227 95.3293C56.7851 95.166 56.6069 94.8244 56.6069 94.5571C56.6069 94.2899 56.8 94.1859 57.0227 94.3493C57.2603 94.4977 57.4385 94.8393 57.4385 95.1214Z" fill="#2BD9D0"/>
<path d="M58.8787 96.0868C58.8787 96.3541 58.6857 96.458 58.4629 96.2947C58.2253 96.1313 58.0471 95.7898 58.0471 95.5225C58.0471 95.2552 58.2402 95.1512 58.4629 95.3146C58.7005 95.4631 58.8787 95.8195 58.8787 96.0868Z" fill="#2BD9D0"/>
<path d="M60.3193 97.0522C60.3193 97.3195 60.1263 97.4235 59.9035 97.2601C59.6659 97.0968 59.4877 96.7552 59.4877 96.4879C59.4877 96.2206 59.6808 96.1167 59.9035 96.28C60.1411 96.4434 60.3193 96.7849 60.3193 97.0522Z" fill="#2BD9D0"/>
<path d="M61.7599 98.0328C61.7599 98.3001 61.5669 98.4041 61.3441 98.2407C61.1065 98.0774 60.9283 97.7358 60.9283 97.4685C60.9283 97.2012 61.1214 97.0973 61.3441 97.2606C61.5669 97.4091 61.7599 97.7507 61.7599 98.0328Z" fill="#2BD9D0"/>
<path d="M63.2005 98.9983C63.2005 99.2655 63.0074 99.3695 62.7847 99.2062C62.5471 99.0428 62.3689 98.7013 62.3689 98.434C62.3689 98.1667 62.5619 98.0627 62.7847 98.2261C63.0074 98.3746 63.2005 98.731 63.2005 98.9983Z" fill="#2BD9D0"/>
<path d="M64.6406 99.9637C64.6406 100.231 64.4476 100.335 64.2249 100.172C64.0021 100.008 63.8091 99.6667 63.8091 99.3994C63.8091 99.1321 64.0021 99.0282 64.2249 99.1915C64.4476 99.3549 64.6406 99.6964 64.6406 99.9637Z" fill="#2BD9D0"/>
<path d="M53.1323 93.7868C53.1323 94.0541 52.9392 94.158 52.7165 93.9947C52.4938 93.8313 52.3007 93.4898 52.3007 93.2076C52.3007 92.9255 52.4938 92.8364 52.7165 92.9997C52.9541 93.1631 53.1323 93.5046 53.1323 93.7868Z" fill="#2BD9D0"/>
<path d="M54.5577 94.7659C54.5577 95.0332 54.3647 95.1372 54.142 94.9738C53.9192 94.8105 53.7262 94.4689 53.7262 94.1868C53.7262 93.9195 53.9192 93.8155 54.142 93.9789C54.3796 94.1422 54.5726 94.4986 54.5577 94.7659Z" fill="#2BD9D0"/>
<path d="M55.9984 95.7165C55.9984 95.9838 55.8053 96.0877 55.5826 95.9244C55.345 95.7611 55.1668 95.4195 55.1668 95.1522C55.1668 94.8849 55.3599 94.781 55.5826 94.9443C55.8202 95.1077 55.9984 95.4492 55.9984 95.7165Z" fill="#2BD9D0"/>
<path d="M57.4385 96.6971C57.4385 96.9644 57.2455 97.0684 57.0227 96.905C56.7851 96.7417 56.6069 96.4001 56.6069 96.1328C56.6069 95.8655 56.8 95.7616 57.0227 95.9249C57.2603 96.0734 57.4385 96.415 57.4385 96.6971Z" fill="#2BD9D0"/>
<path d="M58.8787 97.6626C58.8787 97.9299 58.6857 98.0338 58.4629 97.8705C58.2402 97.7071 58.0471 97.3656 58.0471 97.0983C58.0471 96.831 58.2402 96.727 58.4629 96.8904C58.7005 97.0389 58.8787 97.3953 58.8787 97.6626Z" fill="#2BD9D0"/>
<path d="M60.3193 98.626C60.3193 98.8933 60.1263 98.9973 59.9035 98.8339C59.6659 98.6706 59.4877 98.3291 59.4877 98.0618C59.4877 97.7945 59.6808 97.6905 59.9035 97.8539C60.1411 98.0172 60.3193 98.3588 60.3193 98.626Z" fill="#2BD9D0"/>
<path d="M61.7599 99.6066C61.7599 99.8739 61.5669 99.9779 61.3441 99.8145C61.1065 99.6512 60.9283 99.3097 60.9283 99.0424C60.9283 98.7751 61.1214 98.6711 61.3441 98.8345C61.5669 98.983 61.7599 99.3245 61.7599 99.6066Z" fill="#2BD9D0"/>
<path d="M63.2005 100.572C63.2005 100.839 63.0074 100.943 62.7847 100.78C62.5471 100.617 62.3689 100.275 62.3689 100.008C62.3689 99.7405 62.5619 99.6366 62.7847 99.7999C63.0074 99.9633 63.2005 100.305 63.2005 100.572Z" fill="#2BD9D0"/>
<path d="M64.6406 101.538C64.6406 101.805 64.4476 101.909 64.2249 101.745C63.9873 101.582 63.8091 101.241 63.8091 100.973C63.8091 100.706 64.0021 100.602 64.2249 100.765C64.4476 100.929 64.6406 101.27 64.6406 101.538Z" fill="#2BD9D0"/>
<path d="M52.8797 97.0683C52.8797 97.3356 52.6867 97.4247 52.4639 97.2614C52.2264 97.098 52.0482 96.7417 52.0482 96.4744C52.0482 96.2071 52.2412 96.118 52.4639 96.2813C52.6867 96.4447 52.8797 96.8011 52.8797 97.0683Z" fill="#2ED8CF"/>
<path d="M54.32 98.0921C54.32 98.3594 54.1269 98.4485 53.9042 98.2852C53.6666 98.1218 53.4884 97.7655 53.4884 97.4982C53.4884 97.2309 53.6814 97.1418 53.9042 97.3051C54.1269 97.4685 54.32 97.81 54.32 98.0921Z" fill="#2ED8CF"/>
<path d="M55.7606 99.1161C55.7606 99.3833 55.5675 99.4724 55.3448 99.3091C55.1072 99.1457 54.929 98.7894 54.929 98.5221C54.929 98.2548 55.1221 98.1657 55.3448 98.3291C55.5675 98.4775 55.7606 98.8339 55.7606 99.1161Z" fill="#2ED8CF"/>
<path d="M57.2007 100.142C57.2007 100.409 57.0077 100.498 56.7849 100.335C56.5473 100.172 56.3691 99.8153 56.3691 99.548C56.3691 99.2807 56.5622 99.1916 56.7849 99.3549C57.0077 99.5034 57.2007 99.8598 57.2007 100.142Z" fill="#2ED8CF"/>
<path d="M58.6262 101.166C58.6262 101.433 58.4331 101.522 58.2104 101.359C57.9728 101.196 57.7946 100.839 57.7946 100.572C57.7946 100.305 57.9877 100.216 58.2104 100.379C58.448 100.527 58.6262 100.884 58.6262 101.166Z" fill="#2ED8CF"/>
<path d="M60.0668 102.177C60.0668 102.444 59.8738 102.533 59.651 102.37C59.4134 102.206 59.2352 101.85 59.2352 101.583C59.2352 101.315 59.4283 101.226 59.651 101.39C59.8886 101.553 60.0668 101.909 60.0668 102.177Z" fill="#2ED8CF"/>
<path d="M61.5074 103.201C61.5074 103.468 61.3144 103.557 61.0916 103.394C60.854 103.23 60.6758 102.874 60.6758 102.607C60.6758 102.34 60.8689 102.25 61.0916 102.414C61.3292 102.577 61.5074 102.933 61.5074 103.201Z" fill="#2ED8CF"/>
<path d="M62.948 104.227C62.948 104.494 62.755 104.583 62.5322 104.42C62.2946 104.257 62.1165 103.9 62.1165 103.633C62.1165 103.366 62.3095 103.276 62.5322 103.44C62.755 103.603 62.948 103.96 62.948 104.227Z" fill="#2ED8CF"/>
<path d="M64.3882 105.251C64.3882 105.518 64.1952 105.607 63.9724 105.444C63.7348 105.28 63.5566 104.924 63.5566 104.657C63.5566 104.389 63.7497 104.3 63.9724 104.464C64.1952 104.627 64.3882 104.983 64.3882 105.251Z" fill="#2ED8CF"/>
<path d="M52.8799 98.6419C52.8799 98.9091 52.6868 98.9982 52.4641 98.8349C52.2265 98.6716 52.0483 98.3152 52.0483 98.0479C52.0483 97.7806 52.2413 97.6915 52.4641 97.8548C52.6868 98.0182 52.8799 98.3746 52.8799 98.6419Z" fill="#2ED8CF"/>
<path d="M54.32 99.6659C54.32 99.9332 54.1269 100.022 53.9042 99.8589C53.6666 99.6956 53.4884 99.3392 53.4884 99.0719C53.4884 98.8046 53.6814 98.7155 53.9042 98.8789C54.1269 99.0422 54.32 99.3986 54.32 99.6659Z" fill="#2ED8CF"/>
<path d="M55.7606 100.692C55.7606 100.959 55.5675 101.048 55.3448 100.885C55.1072 100.721 54.929 100.365 54.929 100.098C54.929 99.8305 55.1221 99.7414 55.3448 99.9047C55.5675 100.068 55.7606 100.41 55.7606 100.692Z" fill="#2ED8CF"/>
<path d="M57.2007 101.716C57.2007 101.983 57.0077 102.072 56.7849 101.909C56.5473 101.745 56.3691 101.389 56.3691 101.122C56.3691 100.855 56.5622 100.765 56.7849 100.929C57.0077 101.077 57.2007 101.434 57.2007 101.716Z" fill="#2ED8CF"/>
<path d="M58.6262 102.742C58.6262 103.009 58.4331 103.098 58.2104 102.935C57.9728 102.771 57.7946 102.415 57.7946 102.148C57.7946 101.88 57.9877 101.791 58.2104 101.955C58.448 102.103 58.6262 102.46 58.6262 102.742Z" fill="#2ED8CF"/>
<path d="M60.0668 103.751C60.0668 104.018 59.8738 104.107 59.651 103.944C59.4134 103.78 59.2352 103.424 59.2352 103.157C59.2352 102.889 59.4283 102.8 59.651 102.964C59.8886 103.127 60.0668 103.483 60.0668 103.751Z" fill="#2ED8CF"/>
<path d="M61.5074 104.775C61.5074 105.042 61.3144 105.131 61.0916 104.968C60.854 104.804 60.6758 104.448 60.6758 104.181C60.6758 103.913 60.8689 103.824 61.0916 103.988C61.3292 104.151 61.5074 104.507 61.5074 104.775Z" fill="#2ED8CF"/>
<path d="M62.948 105.799C62.948 106.066 62.755 106.155 62.5322 105.992C62.2946 105.828 62.1165 105.472 62.1165 105.205C62.1165 104.937 62.3095 104.848 62.5322 105.012C62.755 105.175 62.948 105.531 62.948 105.799Z" fill="#2ED8CF"/>
<path d="M64.3882 106.825C64.3882 107.092 64.1952 107.181 63.9724 107.018C63.7348 106.854 63.5566 106.498 63.5566 106.231C63.5566 105.963 63.7497 105.874 63.9724 106.038C64.1952 106.201 64.3882 106.557 64.3882 106.825Z" fill="#2ED8CF"/>
<path d="M52.8799 100.218C52.8799 100.485 52.6868 100.574 52.4641 100.411C52.2413 100.247 52.0483 99.891 52.0483 99.6237C52.0483 99.3564 52.2413 99.2673 52.4641 99.4306C52.6868 99.594 52.8799 99.9503 52.8799 100.218Z" fill="#2ED8CF"/>
<path d="M54.32 101.242C54.32 101.509 54.1269 101.598 53.9042 101.435C53.6666 101.271 53.4884 100.915 53.4884 100.648C53.4884 100.38 53.6814 100.291 53.9042 100.455C54.1269 100.618 54.32 100.974 54.32 101.242Z" fill="#2ED8CF"/>
<path d="M55.7606 102.266C55.7606 102.533 55.5675 102.622 55.3448 102.459C55.1072 102.295 54.929 101.939 54.929 101.672C54.929 101.404 55.1221 101.315 55.3448 101.479C55.5675 101.642 55.7606 101.998 55.7606 102.266Z" fill="#2ED8CF"/>
<path d="M57.1861 103.29C57.1861 103.557 56.993 103.646 56.7703 103.483C56.5327 103.319 56.3545 102.963 56.3545 102.696C56.3545 102.428 56.5475 102.339 56.7703 102.503C57.0079 102.666 57.1861 103.008 57.1861 103.29Z" fill="#2ED8CF"/>
<path d="M58.6262 104.314C58.6262 104.581 58.4331 104.67 58.2104 104.507C57.9728 104.343 57.7946 103.987 57.7946 103.72C57.7946 103.452 57.9877 103.363 58.2104 103.527C58.448 103.675 58.6262 104.031 58.6262 104.314Z" fill="#2ED8CF"/>
<path d="M60.0668 105.34C60.0668 105.607 59.8738 105.696 59.651 105.533C59.4134 105.369 59.2352 105.013 59.2352 104.746C59.2352 104.478 59.4283 104.389 59.651 104.553C59.8886 104.701 60.0668 105.057 60.0668 105.34Z" fill="#2ED8CF"/>
<path d="M61.5074 106.348C61.5074 106.616 61.3144 106.705 61.0916 106.541C60.854 106.378 60.6758 106.022 60.6758 105.754C60.6758 105.487 60.8689 105.398 61.0916 105.561C61.3144 105.725 61.5074 106.081 61.5074 106.348Z" fill="#2ED8CF"/>
<path d="M62.948 107.372C62.948 107.64 62.755 107.729 62.5322 107.565C62.2946 107.402 62.1165 107.046 62.1165 106.778C62.1165 106.511 62.3095 106.422 62.5322 106.585C62.755 106.749 62.948 107.105 62.948 107.372Z" fill="#2ED8CF"/>
<path d="M64.3882 108.398C64.3882 108.666 64.1952 108.755 63.9724 108.591C63.7348 108.428 63.5566 108.072 63.5566 107.804C63.5566 107.537 63.7497 107.448 63.9724 107.611C64.1952 107.775 64.3882 108.131 64.3882 108.398Z" fill="#2ED8CF"/>
<path d="M52.8798 101.791C52.8798 102.058 52.6868 102.147 52.4641 101.984C52.2413 101.821 52.0483 101.464 52.0483 101.182C52.0483 100.915 52.2413 100.826 52.4641 100.989C52.7016 101.167 52.8947 101.524 52.8798 101.791Z" fill="#2ED8CF"/>
<path d="M54.32 102.83C54.32 103.098 54.1269 103.187 53.9042 103.023C53.6814 102.86 53.4884 102.504 53.4884 102.221C53.4884 101.954 53.6814 101.865 53.9042 102.028C54.1269 102.192 54.32 102.548 54.32 102.83Z" fill="#2ED8CF"/>
<path d="M55.7606 103.839C55.7606 104.107 55.5675 104.196 55.3448 104.033C55.1072 103.869 54.929 103.513 54.929 103.245C54.929 102.978 55.1221 102.889 55.3448 103.052C55.5675 103.216 55.7606 103.572 55.7606 103.839Z" fill="#2ED8CF"/>
<path d="M57.1861 104.863C57.1861 105.131 56.993 105.22 56.7703 105.056C56.5327 104.893 56.3545 104.537 56.3545 104.269C56.3545 104.002 56.5475 103.913 56.7703 104.076C57.0079 104.24 57.1861 104.581 57.1861 104.863Z" fill="#2ED8CF"/>
<path d="M58.6262 105.887C58.6262 106.155 58.4331 106.244 58.2104 106.08C57.9728 105.917 57.7946 105.561 57.7946 105.293C57.7946 105.026 57.9877 104.937 58.2104 105.1C58.448 105.264 58.6262 105.605 58.6262 105.887Z" fill="#2ED8CF"/>
<path d="M60.0668 106.913C60.0668 107.181 59.8738 107.27 59.651 107.106C59.4134 106.943 59.2352 106.587 59.2352 106.319C59.2352 106.052 59.4283 105.963 59.651 106.126C59.8738 106.275 60.0668 106.631 60.0668 106.913Z" fill="#2ED8CF"/>
<path d="M61.5074 107.939C61.5074 108.206 61.3144 108.296 61.0916 108.132C60.854 107.969 60.6758 107.613 60.6758 107.345C60.6758 107.078 60.8689 106.989 61.0916 107.152C61.3144 107.301 61.5074 107.657 61.5074 107.939Z" fill="#2ED8CF"/>
<path d="M62.948 108.948C62.948 109.215 62.755 109.304 62.5322 109.141C62.2946 108.978 62.1165 108.621 62.1165 108.354C62.1165 108.087 62.3095 107.998 62.5322 108.161C62.755 108.324 62.948 108.681 62.948 108.948Z" fill="#2ED8CF"/>
<path d="M64.3882 109.972C64.3882 110.239 64.1952 110.329 63.9724 110.165C63.7348 110.002 63.5566 109.645 63.5566 109.378C63.5566 109.111 63.7497 109.022 63.9724 109.185C64.1952 109.348 64.3882 109.705 64.3882 109.972Z" fill="#2ED8CF"/>
<path d="M7.32179 68.4677C7.32179 68.7498 7.14359 68.8389 6.906 68.6756C6.66841 68.5122 6.47537 68.1559 6.46052 67.8886C6.44567 67.6213 6.63871 67.5173 6.8763 67.6807C7.11389 67.844 7.30694 68.2004 7.32179 68.4677Z" fill="#2ED8CF"/>
<path d="M8.77687 69.4634C8.77687 69.7456 8.59867 69.8347 8.36108 69.6713C8.12349 69.508 7.93045 69.1516 7.9156 68.8843C7.90075 68.617 8.09379 68.5131 8.33138 68.6764C8.58383 68.8397 8.77687 69.1961 8.77687 69.4634Z" fill="#2ED8CF"/>
<path d="M10.2469 70.4567C10.2469 70.7388 10.0687 70.8279 9.8311 70.6646C9.59351 70.5012 9.40047 70.1448 9.38562 69.8776C9.38562 69.5954 9.56381 69.5063 9.8014 69.6697C10.039 69.833 10.2469 70.1894 10.2469 70.4567Z" fill="#2ED8CF"/>
<path d="M11.7168 71.4524C11.7168 71.7345 11.5386 71.8236 11.301 71.6603C11.0634 71.497 10.8704 71.1406 10.8555 70.8733C10.8555 70.5911 11.0337 70.502 11.2713 70.6654C11.5089 70.8287 11.7168 71.1851 11.7168 71.4524Z" fill="#2ED8CF"/>
<path d="M13.187 72.4467C13.187 72.7288 13.0088 72.8179 12.7712 72.6546C12.5336 72.4912 12.3406 72.1349 12.3258 71.8676C12.3109 71.6003 12.5039 71.4963 12.7415 71.6597C12.9791 71.823 13.1722 72.1794 13.187 72.4467Z" fill="#2ED8CF"/>
<path d="M14.6575 73.4419C14.6575 73.7241 14.4793 73.8132 14.2417 73.6498C14.0042 73.4865 13.8111 73.1301 13.7963 72.8628C13.7963 72.5806 13.9745 72.4915 14.212 72.6549C14.4496 72.8182 14.6427 73.1746 14.6575 73.4419Z" fill="#2ED8CF"/>
<path d="M16.1123 74.4375C16.1123 74.7197 15.9341 74.8088 15.6965 74.6454C15.4589 74.4821 15.2659 74.1257 15.251 73.8584C15.251 73.5762 15.4292 73.4872 15.6668 73.6505C15.9193 73.8138 16.1123 74.1702 16.1123 74.4375Z" fill="#2ED8CF"/>
<path d="M17.5827 75.4313C17.5827 75.7134 17.4045 75.8025 17.1669 75.6392C16.9293 75.4758 16.7363 75.1195 16.7214 74.8522C16.7214 74.57 16.8996 74.4809 17.1372 74.6443C17.3748 74.8076 17.5827 75.164 17.5827 75.4313Z" fill="#2ED8CF"/>
<path d="M19.0526 76.427C19.0526 76.7091 18.8744 76.7982 18.6368 76.6349C18.3992 76.4716 18.2061 76.1152 18.1913 75.8479C18.1913 75.5658 18.3695 75.4767 18.6071 75.64C18.8447 75.8033 19.0526 76.1597 19.0526 76.427Z" fill="#2ED8CF"/>
<path d="M7.35101 70.0713C7.35101 70.3534 7.17282 70.4425 6.93523 70.2792C6.69764 70.1158 6.5046 69.7595 6.48975 69.4922C6.48975 69.21 6.66794 69.1209 6.90553 69.2843C7.15797 69.4328 7.35101 69.7892 7.35101 70.0713Z" fill="#2ED8CF"/>
<path d="M8.82124 71.0656C8.82124 71.3477 8.64304 71.4368 8.40545 71.2735C8.16786 71.1101 7.97482 70.7538 7.95997 70.4865C7.94512 70.2192 8.13816 70.1152 8.37575 70.2786C8.61334 70.4271 8.82124 70.7835 8.82124 71.0656Z" fill="#2ED8CF"/>
<path d="M10.2916 72.0613C10.2916 72.3435 10.1134 72.4326 9.87585 72.2692C9.63826 72.1059 9.44522 71.7495 9.43037 71.4822C9.41552 71.2149 9.60856 71.111 9.84615 71.2743C10.0837 71.4228 10.2916 71.7792 10.2916 72.0613Z" fill="#2ED8CF"/>
<path d="M11.7617 73.0546C11.7617 73.3367 11.5835 73.4258 11.3459 73.2625C11.1083 73.0991 10.9152 72.7428 10.9004 72.4755C10.9004 72.1933 11.0786 72.1042 11.3162 72.2676C11.5538 72.4161 11.7468 72.7724 11.7617 73.0546Z" fill="#2ED8CF"/>
<path d="M13.2321 74.0502C13.2321 74.3323 13.0539 74.4214 12.8163 74.2581C12.5787 74.0947 12.3856 73.7384 12.3708 73.4711C12.3708 73.1889 12.549 73.0998 12.7866 73.2632C13.0242 73.4117 13.2172 73.768 13.2321 74.0502Z" fill="#2ED8CF"/>
<path d="M14.7015 75.0459C14.7015 75.328 14.5233 75.4171 14.2857 75.2538C14.0481 75.0905 13.8551 74.7341 13.8402 74.4668C13.8402 74.1846 14.0184 74.0956 14.256 74.2589C14.4936 74.4074 14.6866 74.7638 14.7015 75.0459Z" fill="#2ED8CF"/>
<path d="M16.1572 76.0397C16.1572 76.3218 15.979 76.4109 15.7414 76.2476C15.5038 76.0842 15.3107 75.7279 15.2959 75.4606C15.2959 75.1784 15.4741 75.0893 15.7117 75.2527C15.9641 75.4012 16.1572 75.7576 16.1572 76.0397Z" fill="#2ED8CF"/>
<path d="M17.6271 77.0354C17.6271 77.3175 17.4489 77.4066 17.2113 77.2433C16.9737 77.0799 16.7807 76.7236 16.7658 76.4563C16.7658 76.1741 16.944 76.0851 17.1816 76.2484C17.4192 76.3969 17.6271 76.7533 17.6271 77.0354Z" fill="#2ED8CF"/>
<path d="M19.0975 78.0291C19.0975 78.3112 18.9193 78.4003 18.6817 78.237C18.4441 78.0736 18.2511 77.7172 18.2362 77.4499C18.2362 77.1678 18.4144 77.0787 18.652 77.242C18.8896 77.3905 19.0826 77.7469 19.0975 78.0291Z" fill="#2ED8CF"/>
<path d="M7.39576 71.6607C7.39576 71.9428 7.21757 72.0319 6.97998 71.8686C6.74239 71.7052 6.54934 71.3488 6.53449 71.0816C6.51965 70.8143 6.71269 70.7103 6.95028 70.8737C7.20272 71.037 7.39576 71.3934 7.39576 71.6607Z" fill="#2ED8CF"/>
<path d="M8.86616 72.6564C8.86616 72.9386 8.68797 73.0276 8.45038 72.8643C8.21278 72.701 8.01974 72.3446 8.00489 72.0773C7.99004 71.81 8.18309 71.706 8.42068 71.8694C8.65827 72.0327 8.86616 72.3891 8.86616 72.6564Z" fill="#2ED8CF"/>
<path d="M10.336 73.6502C10.336 73.9323 10.1578 74.0214 9.92022 73.8581C9.68263 73.6948 9.48959 73.3384 9.47474 73.0711C9.45989 72.8038 9.65293 72.6998 9.89052 72.8632C10.1281 73.0265 10.3212 73.3829 10.336 73.6502Z" fill="#2ED8CF"/>
<path d="M11.8061 74.6454C11.8061 74.9275 11.6279 75.0166 11.3903 74.8533C11.1527 74.69 10.9597 74.3336 10.9448 74.0663C10.9448 73.7841 11.123 73.695 11.3606 73.8584C11.5982 74.0217 11.7912 74.3781 11.8061 74.6454Z" fill="#2ED8CF"/>
<path d="M13.2759 75.641C13.2759 75.9231 13.0977 76.0122 12.8602 75.8489C12.6226 75.6855 12.4295 75.3292 12.4147 75.0619C12.4147 74.7797 12.5929 74.6906 12.8305 74.854C13.068 75.0173 13.2611 75.3737 13.2759 75.641Z" fill="#2ED8CF"/>
<path d="M14.7315 76.6353C14.7315 76.9174 14.5533 77.0065 14.3157 76.8432C14.0781 76.6798 13.8851 76.3234 13.8702 76.0562C13.8554 75.7889 14.0484 75.6849 14.286 75.8483C14.5385 76.0116 14.7315 76.368 14.7315 76.6353Z" fill="#2ED8CF"/>
<path d="M16.2016 77.6305C16.2016 77.9127 16.0234 78.0018 15.7858 77.8384C15.5482 77.6751 15.3552 77.3187 15.3403 77.0514C15.3403 76.7692 15.5185 76.6801 15.7561 76.8435C15.9937 77.0068 16.2016 77.3632 16.2016 77.6305Z" fill="#2ED8CF"/>
<path d="M17.6714 78.6243C17.6714 78.9064 17.4933 78.9955 17.2557 78.8322C17.0181 78.6688 16.825 78.3125 16.8102 78.0452C16.8102 77.763 16.9884 77.6739 17.226 77.8373C17.4636 78.0006 17.6714 78.357 17.6714 78.6243Z" fill="#2ED8CF"/>
<path d="M19.1419 79.6199C19.1419 79.902 18.9637 79.9911 18.7261 79.8278C18.4885 79.6644 18.2954 79.3081 18.2806 79.0408C18.2806 78.7586 18.4588 78.6695 18.6964 78.8329C18.934 78.9962 19.127 79.3526 19.1419 79.6199Z" fill="#2ED8CF"/>
<path d="M7.45524 73.2489C7.45524 73.531 7.27705 73.6201 7.03946 73.4568C6.80187 73.2934 6.60883 72.937 6.60883 72.6549C6.60883 72.3728 6.78702 72.2837 7.02461 72.447C7.24735 72.6252 7.45524 72.9816 7.45524 73.2489Z" fill="#2ED8CF"/>
<path d="M8.91044 74.2578C8.91044 74.54 8.73225 74.6291 8.49466 74.4657C8.25707 74.3024 8.06403 73.946 8.06403 73.6638C8.06403 73.3817 8.24222 73.2926 8.47981 73.4559C8.7174 73.6193 8.91044 73.9905 8.91044 74.2578Z" fill="#2ED8CF"/>
<path d="M10.3804 75.2542C10.3804 75.5363 10.2023 75.6254 9.96466 75.462C9.72707 75.2987 9.53402 74.9423 9.51917 74.6751C9.50433 74.4078 9.69737 74.3038 9.93496 74.4672C10.1726 74.6157 10.3656 74.972 10.3804 75.2542Z" fill="#2ED8CF"/>
<path d="M11.851 76.2475C11.851 76.5296 11.6728 76.6187 11.4352 76.4553C11.1976 76.292 11.0045 75.9356 10.9897 75.6683C10.9897 75.3862 11.1679 75.2971 11.4055 75.4604C11.6431 75.6089 11.8361 75.9653 11.851 76.2475Z" fill="#2ED8CF"/>
<path d="M13.3062 77.2432C13.3062 77.5253 13.128 77.6144 12.8904 77.4511C12.6528 77.2877 12.4598 76.9313 12.4449 76.664C12.4449 76.3819 12.6231 76.2928 12.8607 76.4562C13.1132 76.6047 13.3062 76.961 13.3062 77.2432Z" fill="#2ED8CF"/>
<path d="M14.7761 78.2389C14.7761 78.521 14.5979 78.6101 14.3603 78.4468C14.1227 78.2834 13.9296 77.9271 13.9148 77.6598C13.9148 77.3776 14.093 77.2885 14.3306 77.4519C14.5682 77.6004 14.7761 77.9568 14.7761 78.2389Z" fill="#2ED8CF"/>
<path d="M16.246 79.2327C16.246 79.5148 16.0678 79.6039 15.8302 79.4406C15.5926 79.2772 15.3996 78.9209 15.3847 78.6536C15.3847 78.3714 15.5629 78.2823 15.8005 78.4457C16.0381 78.609 16.246 78.9506 16.246 79.2327Z" fill="#2ED8CF"/>
<path d="M17.7164 80.2283C17.7164 80.5104 17.5382 80.5995 17.3006 80.4362C17.063 80.2728 16.87 79.9165 16.8551 79.6492C16.8551 79.367 17.0333 79.2779 17.2709 79.4413C17.5085 79.5898 17.7015 79.9462 17.7164 80.2283Z" fill="#2ED8CF"/>
<path d="M19.1862 81.2221C19.1862 81.5042 19.008 81.5933 18.7704 81.43C18.5328 81.2666 18.3398 80.9102 18.325 80.6429C18.325 80.3608 18.5031 80.2717 18.7407 80.435C18.9783 80.5835 19.1714 80.9399 19.1862 81.2221Z" fill="#2ED8CF"/>
<path d="M48.0837 99.8575L22.8397 84.325C22.1715 83.9092 21.7557 83.1816 21.7557 82.3946L21.8299 71.1981C21.8299 70.5002 22.6021 70.0695 23.1961 70.4408L48.5589 86.0624C49.138 86.4188 49.4796 87.0424 49.4796 87.7106L49.4053 99.1299C49.435 99.7981 48.6777 100.229 48.0837 99.8575Z" fill="url(#paint18_linear)"/>
<path opacity="0.18" d="M69.2503 98.3398C69.3542 99.0377 68.983 99.8544 68.4039 99.899C67.8247 99.9435 67.2307 99.4089 67.0526 98.6962C66.8744 97.9834 67.1714 97.2855 67.7356 97.2409C68.2999 97.1964 69.1315 97.6122 69.2503 98.3398Z" fill="#2B2F43"/>
<path d="M69.2058 98.057C69.384 98.7252 69.087 99.3192 68.5524 99.3637C68.0179 99.4083 67.4387 98.9034 67.2605 98.2203C67.0824 97.5521 67.3793 96.9581 67.9139 96.9136C68.4485 96.869 69.0276 97.3887 69.2058 98.057Z" fill="url(#paint19_linear)"/>
<path d="M68.3445 99.5114C67.8099 99.556 67.2308 99.0511 67.0526 98.368C66.9487 97.9671 67.0081 97.6107 67.1863 97.3731C67.216 97.3285 67.2457 97.2988 67.2754 97.2691C67.3051 97.2394 67.3348 97.2246 67.3644 97.1949C67.4387 97.1503 67.5129 97.1058 67.6169 97.0909C67.6466 97.0761 67.6911 97.0761 67.7208 97.0761C68.2554 97.0316 68.8345 97.5364 69.0127 98.2195C69.1761 98.8729 68.8791 99.4669 68.3445 99.5114Z" fill="url(#paint20_linear)"/>
<path opacity="0.18" d="M69.0089 111.342C69.1129 112.04 68.7416 112.857 68.1625 112.901C67.5834 112.946 66.9894 112.411 66.8112 111.699C66.633 110.986 66.93 110.288 67.4943 110.243C68.0586 110.199 68.8901 110.615 69.0089 111.342Z" fill="#2B2F43"/>
<path d="M68.9645 111.059C69.1427 111.728 68.8457 112.322 68.3111 112.366C67.7765 112.411 67.1974 111.906 67.0192 111.223C66.841 110.555 67.138 109.961 67.6726 109.916C68.2072 109.871 68.7863 110.391 68.9645 111.059Z" fill="url(#paint21_linear)"/>
<path d="M68.1032 112.514C67.5686 112.558 66.9895 112.054 66.8113 111.37C66.7073 110.97 66.7667 110.613 66.9449 110.376C66.9746 110.331 67.0043 110.301 67.034 110.272C67.0637 110.242 67.0934 110.227 67.1231 110.197C67.1974 110.153 67.2716 110.108 67.3756 110.093C67.4053 110.079 67.4498 110.079 67.4795 110.079C68.0141 110.034 68.5932 110.539 68.7714 111.222C68.9347 111.875 68.6378 112.469 68.1032 112.514Z" fill="url(#paint22_linear)"/>
</g>
<defs>
<linearGradient id="paint0_linear" x1="19.0608" y1="82.712" x2="131.001" y2="82.712" gradientUnits="userSpaceOnUse">
<stop stop-color="#E7EFF5"/>
<stop offset="0.2574" stop-color="#C3C5D2"/>
<stop offset="0.3352" stop-color="#C6C8D5"/>
<stop offset="0.3997" stop-color="#CED3DD"/>
<stop offset="0.4592" stop-color="#DDE4EC"/>
<stop offset="0.4655" stop-color="#DFE6EE"/>
<stop offset="0.5693" stop-color="#98A5B5"/>
<stop offset="0.995" stop-color="#748496"/>
</linearGradient>
<linearGradient id="paint1_linear" x1="11.5401" y1="82.712" x2="132.098" y2="82.712" gradientUnits="userSpaceOnUse">
<stop stop-color="#455173"/>
<stop offset="0.395833" stop-color="#303953"/>
<stop offset="0.521061" stop-color="#38415C"/>
<stop offset="0.578125" stop-color="#2B2F43"/>
<stop offset="1" stop-color="#2B2F43"/>
</linearGradient>
<linearGradient id="paint2_linear" x1="25.1209" y1="52.696" x2="25.5611" y2="52.6855" gradientUnits="userSpaceOnUse">
<stop stop-color="#DFE6EE"/>
<stop offset="0.5" stop-color="#F5F7F8"/>
<stop offset="0.995" stop-color="#ABB6C3"/>
</linearGradient>
<linearGradient id="paint3_linear" x1="11.6334" y1="52.771" x2="136.075" y2="49.6033" gradientUnits="userSpaceOnUse">
<stop offset="0.0001" stop-color="#586382"/>
<stop offset="0.0002" stop-color="#5F6C91"/>
<stop offset="1" stop-color="#2A3C6B"/>
</linearGradient>
<linearGradient id="paint4_linear" x1="36.6496" y1="73.6218" x2="103.837" y2="35.6081" gradientUnits="userSpaceOnUse">
<stop stop-color="#5F6C91"/>
<stop offset="1" stop-color="#49577E"/>
</linearGradient>
<linearGradient id="paint5_linear" x1="25.5393" y1="34.8928" x2="45.9419" y2="38.4618" gradientUnits="userSpaceOnUse">
<stop offset="0.258862" stop-color="#9598A8"/>
<stop offset="0.259234" stop-color="#2B2F43"/>
<stop offset="0.310976" stop-color="#515670"/>
<stop offset="0.363461" stop-color="#687393"/>
<stop offset="0.408934" stop-color="#566389"/>
<stop offset="0.8275" stop-color="#2B2F43"/>
<stop offset="0.9951" stop-color="#2B2F43"/>
</linearGradient>
<linearGradient id="paint6_linear" x1="22.6962" y1="39.6789" x2="81.9879" y2="35.1874" gradientUnits="userSpaceOnUse">
<stop offset="0.5" stop-color="#5F6C91"/>
<stop offset="0.768301" stop-color="#49577E"/>
<stop offset="0.798977" stop-color="#576691"/>
<stop offset="0.995" stop-color="#49577E"/>
</linearGradient>
<linearGradient id="paint7_linear" x1="77.4824" y1="71.192" x2="126.47" y2="64.113" gradientUnits="userSpaceOnUse">
<stop offset="0.5" stop-color="#59668C"/>
<stop offset="0.7981" stop-color="#4B5980"/>
<stop offset="0.995" stop-color="#49577E"/>
</linearGradient>
<linearGradient id="paint8_linear" x1="79.3191" y1="64.618" x2="99.9215" y2="66.7502" gradientUnits="userSpaceOnUse">
<stop offset="0.258862" stop-color="#9598A8"/>
<stop offset="0.259234" stop-color="#2B2F43"/>
<stop offset="0.310976" stop-color="#515670"/>
<stop offset="0.363461" stop-color="#687393"/>
<stop offset="0.408934" stop-color="#566389"/>
<stop offset="0.8275" stop-color="#2B2F43"/>
<stop offset="0.9951" stop-color="#2B2F43"/>
</linearGradient>
<linearGradient id="paint9_linear" x1="76.8172" y1="69.5902" x2="135.649" y2="60.9596" gradientUnits="userSpaceOnUse">
<stop offset="0.5" stop-color="#5F6C91"/>
<stop offset="0.768301" stop-color="#49577E"/>
<stop offset="0.798977" stop-color="#576691"/>
<stop offset="0.995" stop-color="#49577E"/>
</linearGradient>
<linearGradient id="paint10_linear" x1="-3.82138" y1="84.3634" x2="141.894" y2="86.3804" gradientUnits="userSpaceOnUse">
<stop stop-color="#3F4B6B"/>
<stop offset="0.4897" stop-color="#313A54"/>
<stop offset="0.5095" stop-color="#333C57"/>
<stop offset="0.5367" stop-color="#37405A"/>
<stop offset="0.5574" stop-color="#333851"/>
<stop offset="0.602797" stop-color="#2B2F43"/>
<stop offset="0.995" stop-color="#2B2F43"/>
</linearGradient>
<linearGradient id="paint11_linear" x1="-3.82138" y1="84.3634" x2="141.894" y2="86.3804" gradientUnits="userSpaceOnUse">
<stop/>
<stop offset="0.0442921" stop-color="#C3C6D2" stop-opacity="0"/>
</linearGradient>
<linearGradient id="paint12_linear" x1="-1.96877" y1="64.8176" x2="133.794" y2="84.3506" gradientUnits="userSpaceOnUse">
<stop stop-color="#40507B"/>
</linearGradient>
<linearGradient id="paint13_linear" x1="-1.96871" y1="62.8831" x2="133.794" y2="82.4161" gradientUnits="userSpaceOnUse">
<stop stop-color="#49577E"/>
<stop offset="0.5607" stop-color="#58658B"/>
<stop offset="0.779" stop-color="#556389"/>
</linearGradient>
<linearGradient id="paint14_linear" x1="4.00539" y1="57.0584" x2="4.43678" y2="59.0329" gradientUnits="userSpaceOnUse">
<stop stop-color="#36415B"/>
<stop offset="0.0688723" stop-color="#3D4868"/>
<stop offset="0.10904" stop-color="#3D4868"/>
<stop offset="0.170725" stop-color="#545F7C"/>
<stop offset="0.245609" stop-color="#546186"/>
<stop offset="0.3033" stop-color="#5B678C"/>
<stop offset="0.398" stop-color="#4D5879"/>
<stop offset="0.5241" stop-color="#3D4968"/>
<stop offset="0.8097" stop-color="#36415B"/>
</linearGradient>
<linearGradient id="paint15_linear" x1="2.88805" y1="59.2629" x2="6.78453" y2="55.6968" gradientUnits="userSpaceOnUse">
<stop offset="0.0403732" stop-color="#4C5673"/>
<stop offset="0.0956988" stop-color="#4D5674"/>
<stop offset="0.18" stop-color="#4A5472"/>
<stop offset="0.2822" stop-color="#58678E"/>
<stop offset="0.3107" stop-color="#637093"/>
<stop offset="0.4209" stop-color="#556388"/>
<stop offset="0.5185" stop-color="#4D5979"/>
</linearGradient>
<linearGradient id="paint16_linear" x1="3.76461" y1="70.0609" x2="4.196" y2="72.0354" gradientUnits="userSpaceOnUse">
<stop stop-color="#36415B"/>
<stop offset="0.0688723" stop-color="#3D4868"/>
<stop offset="0.10904" stop-color="#3D4868"/>
<stop offset="0.170725" stop-color="#545F7C"/>
<stop offset="0.245609" stop-color="#546186"/>
<stop offset="0.3033" stop-color="#5B678C"/>
<stop offset="0.398" stop-color="#4D5879"/>
<stop offset="0.5241" stop-color="#3D4968"/>
<stop offset="0.8097" stop-color="#36415B"/>
</linearGradient>
<linearGradient id="paint17_linear" x1="2.64726" y1="72.2653" x2="6.54375" y2="68.6992" gradientUnits="userSpaceOnUse">
<stop offset="0.0403732" stop-color="#4C5673"/>
<stop offset="0.0956988" stop-color="#4D5674"/>
<stop offset="0.18" stop-color="#4A5472"/>
<stop offset="0.2822" stop-color="#58678E"/>
<stop offset="0.3107" stop-color="#637093"/>
<stop offset="0.4209" stop-color="#556388"/>
<stop offset="0.5185" stop-color="#4D5979"/>
</linearGradient>
<linearGradient id="paint18_linear" x1="23.6035" y1="76.013" x2="49.5498" y2="79.3051" gradientUnits="userSpaceOnUse">
<stop stop-color="#2BD9D0"/>
</linearGradient>
<linearGradient id="paint19_linear" x1="67.8496" y1="97.1446" x2="68.281" y2="99.1191" gradientUnits="userSpaceOnUse">
<stop stop-color="#36415B"/>
<stop offset="0.0688723" stop-color="#3D4868"/>
<stop offset="0.10904" stop-color="#3D4868"/>
<stop offset="0.170725" stop-color="#545F7C"/>
<stop offset="0.245609" stop-color="#546186"/>
<stop offset="0.3033" stop-color="#5B678C"/>
<stop offset="0.398" stop-color="#4D5879"/>
<stop offset="0.5241" stop-color="#3D4968"/>
<stop offset="0.8097" stop-color="#36415B"/>
</linearGradient>
<linearGradient id="paint20_linear" x1="66.7323" y1="99.3491" x2="70.6288" y2="95.783" gradientUnits="userSpaceOnUse">
<stop offset="0.0403732" stop-color="#4C5673"/>
<stop offset="0.0956988" stop-color="#4D5674"/>
<stop offset="0.18" stop-color="#4A5472"/>
<stop offset="0.2822" stop-color="#58678E"/>
<stop offset="0.3107" stop-color="#637093"/>
<stop offset="0.4209" stop-color="#556388"/>
<stop offset="0.5185" stop-color="#4D5979"/>
</linearGradient>
<linearGradient id="paint21_linear" x1="67.6082" y1="110.147" x2="68.0396" y2="112.122" gradientUnits="userSpaceOnUse">
<stop stop-color="#36415B"/>
<stop offset="0.0688723" stop-color="#3D4868"/>
<stop offset="0.10904" stop-color="#3D4868"/>
<stop offset="0.170725" stop-color="#545F7C"/>
<stop offset="0.245609" stop-color="#546186"/>
<stop offset="0.3033" stop-color="#5B678C"/>
<stop offset="0.398" stop-color="#4D5879"/>
<stop offset="0.5241" stop-color="#3D4968"/>
<stop offset="0.8097" stop-color="#36415B"/>
</linearGradient>
<linearGradient id="paint22_linear" x1="66.491" y1="112.352" x2="70.3874" y2="108.785" gradientUnits="userSpaceOnUse">
<stop offset="0.0403732" stop-color="#4C5673"/>
<stop offset="0.0956988" stop-color="#4D5674"/>
<stop offset="0.18" stop-color="#4A5472"/>
<stop offset="0.2822" stop-color="#58678E"/>
<stop offset="0.3107" stop-color="#637093"/>
<stop offset="0.4209" stop-color="#556388"/>
<stop offset="0.5185" stop-color="#4D5979"/>
</linearGradient>
<clipPath id="clip0">
<rect y="22" width="140" height="96.6338" fill="white"/>
</clipPath>
</defs>
</svg>
