<svg width="140" height="140" viewBox="0 0 140 140" fill="none" xmlns="http://www.w3.org/2000/svg">
<g clip-path="url(#clip0)">
<path d="M6.08449 28.2627V95.5154C6.08449 98.3873 7.588 101.04 10.0207 102.526L62.6099 137.496C68.0833 140.824 74.9252 140.824 80.3986 137.496L130.927 102.526C133.359 101.023 134.863 98.3704 134.863 95.5154V28.8878L6.08449 28.2627Z" fill="url(#paint0_linear)"/>
<path d="M6.08449 28.8876V95.5152C6.08449 98.3871 7.588 101.039 10.0207 102.526L62.6099 137.495C68.0833 140.823 74.9252 140.823 80.3986 137.495L130.927 102.526C133.359 101.022 134.863 98.3702 134.863 95.5152V28.8876H6.08449Z" fill="url(#paint1_linear)"/>
<path d="M132.248 36.3528L80.7396 67.8421C75.0634 71.3052 67.9175 71.3052 62.2413 67.8421L7.8614 34.6127C5.17535 32.9741 5.44564 28.9703 8.35131 27.7202L65.6538 3.19099C69.3872 1.603 73.5937 1.603 77.3102 3.19099L131.521 26.3856C135.728 28.1932 136.15 33.9877 132.248 36.3528Z" fill="url(#paint2_linear)"/>
<path d="M132.245 34.3443L80.7367 65.8337C75.0605 69.2968 67.9146 69.2968 62.2384 65.8337L7.85847 32.6043C5.17242 30.9657 5.44272 26.9619 8.34838 25.7118L65.6509 1.18256C69.3843 -0.405418 73.5908 -0.405418 77.3073 1.18256L131.518 24.3772C135.725 26.1848 136.147 31.9793 132.245 34.3443Z" fill="url(#paint3_linear)"/>
<path d="M93.7445 114.377C93.7445 114.213 93.8246 114.06 93.9591 113.966L94.3443 113.699C94.6759 113.468 95.1297 113.705 95.1297 114.109V119.26C95.1297 119.424 95.0496 119.577 94.9151 119.671L94.5299 119.938C94.1983 120.169 93.7445 119.932 93.7445 119.528V114.377ZM96.9373 117.358C96.9373 117.76 97.3874 117.998 97.7193 117.771L98.1046 117.508C98.241 117.415 98.3226 117.26 98.3226 117.095V111.913C98.3226 111.509 97.8687 111.272 97.5372 111.502L97.1519 111.77C97.0175 111.864 96.9373 112.017 96.9373 112.181V117.358ZM100.13 115.162C100.13 115.564 100.58 115.802 100.912 115.575L101.297 115.312C101.434 115.219 101.515 115.064 101.515 114.899V109.683C101.515 109.279 101.062 109.042 100.73 109.273L100.345 109.54C100.21 109.634 100.13 109.787 100.13 109.951V115.162ZM103.323 113C103.323 113.402 103.773 113.639 104.105 113.413L104.49 113.15C104.627 113.056 104.708 112.902 104.708 112.737V107.487C104.708 107.083 104.254 106.846 103.923 107.076L103.538 107.344C103.403 107.438 103.323 107.591 103.323 107.755V113ZM106.499 110.804C106.499 111.205 106.949 111.443 107.281 111.216L107.666 110.953C107.803 110.86 107.884 110.706 107.884 110.54V105.257C107.884 104.853 107.43 104.616 107.099 104.846L106.714 105.114C106.579 105.208 106.499 105.361 106.499 105.525V110.804ZM109.692 108.607C109.692 109.009 110.142 109.247 110.474 109.02L110.859 108.757C110.996 108.664 111.077 108.51 111.077 108.344V103.027C111.077 102.623 110.623 102.386 110.292 102.617L109.906 102.884C109.772 102.978 109.692 103.131 109.692 103.295V108.607ZM112.885 106.445C112.885 106.847 113.335 107.085 113.667 106.858L114.052 106.595C114.188 106.502 114.27 106.347 114.27 106.182V100.831C114.27 100.427 113.816 100.19 113.485 100.42L113.099 100.688C112.965 100.782 112.885 100.935 112.885 101.099V106.445ZM116.078 104.266C116.078 104.668 116.528 104.905 116.86 104.679L117.245 104.416C117.381 104.322 117.463 104.168 117.463 104.003V98.601C117.463 98.1973 117.009 97.96 116.677 98.1905L116.292 98.4583C116.158 98.5517 116.078 98.7051 116.078 98.8688V104.266ZM119.254 102.07C119.254 102.472 119.704 102.709 120.036 102.483L120.421 102.219C120.557 102.126 120.639 101.972 120.639 101.807V96.388C120.639 95.9842 120.185 95.747 119.853 95.9774L119.468 96.2452C119.334 96.3387 119.254 96.492 119.254 96.6558V102.07ZM122.664 94.0325C122.528 94.1257 122.446 94.2802 122.446 94.4454V99.8905C122.446 100.292 122.896 100.53 123.228 100.303L123.614 100.04C123.75 99.9471 123.832 99.7925 123.832 99.6273V94.1823C123.832 93.7804 123.382 93.5427 123.05 93.7694L122.664 94.0325Z" fill="#2FAAAF"/>
<path d="M54.6033 132.38L19.1135 108.781L18.8857 72L54.497 92.9567L54.6033 132.38Z" fill="url(#paint4_linear)"/>
<path d="M21.027 110.087L19.1135 108.781L18.8857 72L21.027 73.2604V110.087Z" fill="url(#paint5_linear)"/>
<path d="M24.8693 82.5231L49.1366 96.8587C49.3796 96.965 49.6377 96.7979 49.6225 96.5246L49.5618 94.0948C49.5618 93.9278 49.4555 93.7759 49.3036 93.7L25.0515 79.3644C24.8086 79.2581 24.5504 79.4251 24.5656 79.6985L24.6263 82.1282C24.6111 82.2953 24.7174 82.4472 24.8693 82.5231Z" fill="url(#paint6_linear)"/>
<path d="M25.0212 89.1898L49.2884 103.525C49.5314 103.632 49.7896 103.465 49.7744 103.191L49.7136 100.762C49.7136 100.594 49.6073 100.443 49.4555 100.367L25.2034 86.0463C24.9604 85.94 24.7022 86.107 24.7174 86.3804L24.7782 88.8101C24.763 88.962 24.8693 89.1139 25.0212 89.1898Z" fill="url(#paint7_linear)"/>
<path d="M25.173 95.7646L49.4403 110.009C49.6833 110.115 49.9414 109.948 49.9262 109.675L49.8655 107.245C49.8655 107.078 49.7592 106.926 49.6073 106.85L25.3553 92.6211C25.1123 92.5148 24.8541 92.6818 24.8693 92.9552L24.9301 95.385C24.9149 95.5368 25.0212 95.7039 25.173 95.7646Z" fill="url(#paint8_linear)"/>
<path d="M25.0212 101.642L49.2884 115.978C49.5314 116.084 49.7896 115.917 49.7744 115.644L49.7136 113.214C49.7136 113.047 49.6073 112.895 49.4555 112.819L25.2034 98.4988C24.9604 98.3925 24.7022 98.5595 24.7174 98.8329L24.7782 101.263C24.763 101.415 24.8693 101.566 25.0212 101.642Z" fill="url(#paint9_linear)"/>
<path d="M25.173 108.309L49.4403 122.644C49.6833 122.751 49.9414 122.584 49.9262 122.31L49.8655 119.88C49.8655 119.713 49.7592 119.562 49.6073 119.486L25.3553 105.165C25.1123 105.059 24.8541 105.226 24.8693 105.499L24.9301 107.929C24.9149 108.081 25.0212 108.248 25.173 108.309Z" fill="url(#paint10_linear)"/>
<path d="M37.5803 74.3829L16.5628 61.8848C14.862 60.837 14.7405 59.774 14.7405 58.3465L14.6646 53.001C14.6646 52.1658 15.3176 51.4824 16.1376 51.4824C16.3958 51.4824 16.6691 51.5584 16.8969 51.695L38.294 64.5272C39.3267 65.1802 39.9645 66.3495 39.9645 67.61V73.0769C39.9645 74.5652 39.1444 75.3245 37.5803 74.3829Z" fill="url(#paint11_linear)"/>
<path d="M46.1147 71.6504L46.1755 74.7331L51.4754 78.0437L51.4299 74.9609L46.1147 71.6504Z" fill="black"/>
<path d="M46.1147 71.6504L46.1299 72.5919L51.445 75.9025L51.4299 74.9609L46.1147 71.6504Z" fill="#8A99CD"/>
<path d="M54.0112 76.2812L54.072 79.364L59.3719 82.6745L59.3263 79.5918L54.0112 76.2812Z" fill="black"/>
<path d="M54.0112 76.2812L54.0264 77.2228L59.3415 80.5334L59.3263 79.5918L54.0112 76.2812Z" fill="#8A99CD"/>
<path d="M121.453 35.4535L78.8559 61.4824C74.1635 64.3374 68.2561 64.3374 63.5484 61.4824L18.5522 33.9957C16.3199 32.6441 16.5629 29.3336 18.9622 28.3009L66.373 8.01237C69.4558 6.69119 72.9486 6.69119 76.0162 8.01237L120.861 27.2075C124.353 28.6957 124.687 33.4793 121.453 35.4535Z" fill="url(#paint12_linear)" stroke="#2ED8CF" stroke-miterlimit="10"/>
<path opacity="0.4" d="M108 22.4436L38.7232 47L17.5266 33.9554C15.3218 32.6064 15.5499 29.2801 17.922 28.2684L64.9225 7.9887C67.9788 6.67043 71.4305 6.67043 74.4716 7.9887L108 22.4436Z" fill="url(#paint13_linear)"/>
<g opacity="0.91">
<path opacity="0.91" d="M71.0267 48.4943L51.826 42.9775L65.3025 51.8116L61.4038 54.0763L39.85 39.6595L43.8109 37.3511L63.2365 42.9659L49.5507 34.019L53.4186 31.7686L74.9724 46.1854L71.0267 48.4943Z" fill="url(#paint14_linear)"/>
<path opacity="0.91" d="M87.9369 38.6708L83.859 36.9038L78.1501 40.2216L80.6961 42.8832L76.565 45.2927L61.6296 28.1179L65.6678 25.7664L92.0676 36.2765L87.9369 38.6708ZM68.4915 30.2598L75.3107 37.2166L79.2408 34.9225L68.4915 30.2598Z" fill="url(#paint15_linear)"/>
<path opacity="0.91" d="M102.135 26.1497C104.006 29.0335 101.699 30.9221 101.091 31.4198C100.685 31.7719 100.219 32.1069 99.7077 32.4102C96.6911 34.1552 93.6497 34.2434 91.5574 34.1027C90.6936 34.0304 90.2097 33.9547 88.6686 33.6791L89.1348 30.3966C89.2861 30.4165 90.0417 30.5462 90.6636 30.5806C92.7403 30.736 94.8053 30.2834 96.074 29.5478C96.2442 29.4467 96.755 29.1434 97.0565 28.7273C97.1352 28.6386 98.0702 27.3913 96.5222 26.3558C94.6615 25.1132 92.5752 26.2489 90.9608 26.8675C90.1299 27.2064 89.2392 27.5131 88.2892 27.7724C86.8184 28.1675 85.2622 28.3776 83.3135 28.0134C82.9359 27.941 82.1205 27.779 81.1755 27.3851C80.8306 27.2377 80.0369 26.8637 79.2034 26.3062C79.0245 26.1943 78.4006 25.7344 77.8816 25.3233C76.7566 24.3617 76.1473 23.4312 75.9516 22.392C75.7568 21.3225 76.066 19.676 78.5572 18.2185C79.4853 17.6851 81.646 16.5972 85.5797 16.643C86.5521 16.6427 87.2033 16.7084 89.067 16.8724L88.931 20.2867C87.0089 20.0449 85.796 19.9618 84.1602 20.291C83.915 20.3594 83.1039 20.547 82.4542 20.922C80.9072 21.8161 81.4009 23.0468 82.354 23.6688C82.9048 24.0353 83.4935 24.1599 83.7354 24.1978C84.9906 24.3885 85.8115 23.8822 87.5175 23.2513C88.5471 22.8729 89.6214 22.5263 90.7099 22.2105C91.3852 21.9884 93.8558 21.1988 97.1006 22.3931C97.5811 22.5751 98.5408 22.9846 99.5832 23.6702C100.163 24.068 101.323 24.8939 102.135 26.1497Z" fill="url(#paint16_linear)"/>
</g>
<g opacity="0.91">
<path opacity="0.91" d="M70.0267 48.4943L50.826 42.9775L64.3025 51.8116L60.4038 54.0763L38.85 39.6595L42.8109 37.3511L62.2365 42.9659L48.5507 34.019L52.4186 31.7686L73.9724 46.1854L70.0267 48.4943Z" fill="white"/>
<path opacity="0.91" d="M86.9369 38.6708L82.859 36.9038L77.1501 40.2216L79.6961 42.8832L75.565 45.2927L60.6296 28.1179L64.6678 25.7664L91.0676 36.2765L86.9369 38.6708ZM67.4915 30.2598L74.3107 37.2166L78.2408 34.9225L67.4915 30.2598Z" fill="white"/>
<path opacity="0.91" d="M101.135 26.1497C103.006 29.0335 100.699 30.9221 100.091 31.4198C99.6847 31.7719 99.2185 32.1069 98.7077 32.4102C95.6911 34.1552 92.6497 34.2434 90.5574 34.1027C89.6936 34.0304 89.2097 33.9547 87.6686 33.6791L88.1348 30.3966C88.2861 30.4165 89.0417 30.5462 89.6636 30.5806C91.7403 30.736 93.8053 30.2834 95.074 29.5478C95.2442 29.4467 95.755 29.1434 96.0565 28.7273C96.1352 28.6386 97.0702 27.3913 95.5222 26.3558C93.6615 25.1132 91.5752 26.2489 89.9608 26.8675C89.1299 27.2064 88.2392 27.5131 87.2892 27.7724C85.8184 28.1675 84.2622 28.3776 82.3135 28.0134C81.9359 27.941 81.1205 27.779 80.1755 27.3851C79.8306 27.2377 79.0369 26.8637 78.2034 26.3062C78.0245 26.1943 77.4006 25.7344 76.8816 25.3233C75.7566 24.3617 75.1473 23.4312 74.9516 22.392C74.7568 21.3225 75.066 19.676 77.5572 18.2185C78.4853 17.6851 80.646 16.5972 84.5797 16.643C85.5521 16.6427 86.2033 16.7084 88.067 16.8724L87.931 20.2867C86.0089 20.0449 84.796 19.9618 83.1602 20.291C82.915 20.3594 82.1039 20.547 81.4542 20.922C79.9072 21.8161 80.4009 23.0468 81.354 23.6688C81.9048 24.0353 82.4935 24.1599 82.7354 24.1978C83.9906 24.3885 84.8115 23.8822 86.5175 23.2513C87.5471 22.8729 88.6214 22.5263 89.7099 22.2105C90.3852 21.9884 92.8558 21.1988 96.1006 22.3931C96.5811 22.5751 97.5408 22.9846 98.5832 23.6702C99.1634 24.068 100.323 24.8939 101.135 26.1497Z" fill="white"/>
</g>
</g>
<defs>
<linearGradient id="paint0_linear" x1="13.5707" y1="84.1187" x2="127.469" y2="84.1187" gradientUnits="userSpaceOnUse">
<stop stop-color="#E7EFF5"/>
<stop offset="0.2574" stop-color="#C3C5D2"/>
<stop offset="0.3352" stop-color="#C6C8D5"/>
<stop offset="0.3997" stop-color="#CED3DD"/>
<stop offset="0.4592" stop-color="#DDE4EC"/>
<stop offset="0.4655" stop-color="#DFE6EE"/>
<stop offset="0.5693" stop-color="#98A5B5"/>
<stop offset="0.995" stop-color="#7E8EA0"/>
</linearGradient>
<linearGradient id="paint1_linear" x1="5.91843" y1="84.431" x2="128.585" y2="84.431" gradientUnits="userSpaceOnUse">
<stop stop-color="#475375"/>
<stop offset="0.483607" stop-color="#2E364F"/>
<stop offset="0.532513" stop-color="#2E374F"/>
<stop offset="0.593645" stop-color="#27293B"/>
<stop offset="1" stop-color="#2D3146"/>
</linearGradient>
<linearGradient id="paint2_linear" x1="31.9165" y1="54.9115" x2="99.8476" y2="16.4768" gradientUnits="userSpaceOnUse">
<stop stop-color="#596482"/>
<stop offset="0.995" stop-color="#2A3D6B"/>
</linearGradient>
<linearGradient id="paint3_linear" x1="31.9136" y1="52.9031" x2="99.8447" y2="14.4684" gradientUnits="userSpaceOnUse">
<stop stop-color="#687599"/>
<stop offset="0.995" stop-color="#49587E"/>
</linearGradient>
<linearGradient id="paint4_linear" x1="18.8431" y1="91.6483" x2="52.8672" y2="91.6483" gradientUnits="userSpaceOnUse">
<stop stop-color="#687599"/>
<stop offset="0.995" stop-color="#3F4966"/>
</linearGradient>
<linearGradient id="paint5_linear" x1="10.1313" y1="116.864" x2="26.7437" y2="73.2273" gradientUnits="userSpaceOnUse">
<stop stop-color="#E8EAEB"/>
<stop offset="0.0918067" stop-color="#2F3851"/>
<stop offset="0.2813" stop-color="#2E364F"/>
<stop offset="0.4844" stop-color="#2C344B"/>
<stop offset="0.7085" stop-color="#292B3E"/>
<stop offset="0.995" stop-color="#2B2E43"/>
</linearGradient>
<linearGradient id="paint6_linear" x1="21.0163" y1="88.7288" x2="50.6883" y2="85.1187" gradientUnits="userSpaceOnUse">
<stop offset="1" stop-color="#2ED8CF"/>
</linearGradient>
<linearGradient id="paint7_linear" x1="21.1681" y1="95.4026" x2="50.8394" y2="91.7894" gradientUnits="userSpaceOnUse">
<stop offset="1" stop-color="#2ED8CF"/>
</linearGradient>
<linearGradient id="paint8_linear" x1="21.32" y1="101.929" x2="50.9867" y2="98.2972" gradientUnits="userSpaceOnUse">
<stop offset="1" stop-color="#2ED8CF"/>
</linearGradient>
<linearGradient id="paint9_linear" x1="21.1681" y1="107.855" x2="50.8394" y2="104.242" gradientUnits="userSpaceOnUse">
<stop offset="1" stop-color="#2ED8CF"/>
</linearGradient>
<linearGradient id="paint10_linear" x1="21.32" y1="114.521" x2="50.9912" y2="110.908" gradientUnits="userSpaceOnUse">
<stop offset="1" stop-color="#2ED8CF"/>
</linearGradient>
<linearGradient id="paint11_linear" x1="15.7101" y1="61.6932" x2="38.8952" y2="64.5394" gradientUnits="userSpaceOnUse">
<stop offset="1" stop-color="#2ED8CF"/>
</linearGradient>
<linearGradient id="paint12_linear" x1="38.4492" y1="50.804" x2="94.6579" y2="19.0016" gradientUnits="userSpaceOnUse">
<stop stop-color="#6A7698"/>
<stop offset="1" stop-color="#505D82"/>
</linearGradient>
<linearGradient id="paint13_linear" x1="20.13" y1="43.0375" x2="83.2211" y2="16.9964" gradientUnits="userSpaceOnUse">
<stop stop-color="white" stop-opacity="0.8"/>
<stop offset="1" stop-color="white" stop-opacity="0"/>
</linearGradient>
<linearGradient id="paint14_linear" x1="63.4999" y1="38.4993" x2="52.4999" y2="47.9993" gradientUnits="userSpaceOnUse">
<stop stop-color="#32363D"/>
<stop offset="1" stop-color="#62666D"/>
</linearGradient>
<linearGradient id="paint15_linear" x1="79.0001" y1="29.9993" x2="71.0001" y2="38.4993" gradientUnits="userSpaceOnUse">
<stop offset="0.0790179" stop-color="#4A4F5F"/>
<stop offset="1" stop-color="#5C6067"/>
</linearGradient>
<linearGradient id="paint16_linear" x1="83.5" y1="30.9998" x2="95.5" y2="20.4998" gradientUnits="userSpaceOnUse">
<stop stop-color="#4E535E"/>
<stop offset="1" stop-color="#3E4452"/>
</linearGradient>
<clipPath id="clip0">
<rect x="6" width="128.967" height="140" fill="white"/>
</clipPath>
</defs>
</svg>
