<svg width="140" height="140" viewBox="0 0 140 140" fill="none" xmlns="http://www.w3.org/2000/svg">
<path d="M0.082489 45.6761V77.1659C0.082489 80.282 1.70978 83.1731 4.35845 84.783L61.4694 122.747C67.4073 126.365 74.8512 126.365 80.7891 122.747L135.65 84.783C138.298 83.1557 139.926 80.2647 139.926 77.1659V46.3686L0.082489 45.6761Z" fill="url(#paint0_linear)"/>
<path d="M0.082489 46.3687V77.166C0.082489 80.2821 1.70978 83.1731 4.35845 84.7831L61.4694 122.747C67.4073 126.366 74.8513 126.366 80.7891 122.747L135.65 84.7831C138.298 83.1558 139.926 80.2647 139.926 77.166V46.3687H0.082489Z" fill="url(#paint1_linear)"/>
<path d="M137.069 54.3065L81.1527 88.4796C74.9897 92.2362 67.2342 92.2362 61.0712 88.4796L2.02139 52.4022C-0.904265 50.6191 -0.592657 46.2739 2.55805 44.9236L64.7759 18.2984C68.8268 16.5672 73.3971 16.5672 77.4307 18.2984L136.29 43.4867C140.86 45.4256 141.31 51.7097 137.069 54.3065Z" fill="url(#paint2_linear)"/>
<path d="M137.069 52.3065L81.1527 86.4796C74.9897 90.2362 67.2342 90.2362 61.0712 86.4796L2.02139 50.4022C-0.904265 48.6191 -0.592657 44.2739 2.55805 42.9236L64.7759 16.2984C68.8268 14.5672 73.3971 14.5672 77.4307 16.2984L136.29 41.4867C140.86 43.4256 141.31 49.7097 137.069 52.3065Z" fill="url(#paint3_linear)"/>
<path d="M95.2788 98.6871C95.2788 98.5227 95.3596 98.3688 95.4949 98.2755L96.001 97.9265C96.3327 97.6977 96.7849 97.9352 96.7849 98.3381V104.048C96.7849 104.212 96.7041 104.366 96.5688 104.46L96.0627 104.809C95.731 105.037 95.2788 104.8 95.2788 104.397V98.6871ZM98.7411 102.017C98.7411 102.418 99.1898 102.656 99.5218 102.431L100.028 102.088C100.165 101.995 100.247 101.84 100.247 101.674V95.9318C100.247 95.5289 99.795 95.2914 99.4634 95.5202L98.9573 95.8692C98.8219 95.9625 98.7411 96.1164 98.7411 96.2808V102.017ZM102.203 99.6453C102.203 100.046 102.652 100.284 102.984 100.059L103.49 99.7159C103.627 99.6229 103.71 99.4679 103.71 99.3021V93.5255C103.71 93.1225 103.257 92.8851 102.926 93.1139L102.42 93.4629C102.284 93.5562 102.203 93.7101 102.203 93.8745V99.6453ZM105.666 97.2563C105.666 97.6575 106.114 97.8953 106.446 97.6701L106.952 97.3269C107.09 97.2339 107.172 97.0789 107.172 96.9131V91.1018C107.172 90.6989 106.72 90.4615 106.388 90.6902L105.882 91.0393C105.747 91.1326 105.666 91.2865 105.666 91.4509V97.2563ZM109.128 94.9019C109.128 95.3031 109.577 95.5409 109.909 95.3158L110.415 94.9725C110.552 94.8795 110.634 94.7245 110.634 94.5587V88.7128C110.634 88.3099 110.182 88.0725 109.85 88.3012L109.344 88.6503C109.209 88.7436 109.128 88.8975 109.128 89.0619V94.9019ZM112.59 92.5129C112.59 92.9141 113.039 93.1519 113.371 92.9267L113.877 92.5835C114.014 92.4905 114.096 92.3355 114.096 92.1697V86.2892C114.096 85.8863 113.644 85.6489 113.313 85.8776L112.807 86.2266C112.671 86.32 112.59 86.4739 112.59 86.6383V92.5129ZM116.053 90.1586C116.053 90.5597 116.501 90.7975 116.833 90.5724L117.339 90.2292C117.477 90.1361 117.559 89.9811 117.559 89.8153V83.9002C117.559 83.4973 117.107 83.2599 116.775 83.4886L116.269 83.8377C116.134 83.931 116.053 84.0849 116.053 84.2493V90.1586ZM119.515 87.7869C119.515 88.188 119.964 88.4258 120.296 88.2007L120.802 87.8575C120.939 87.7644 121.021 87.6094 121.021 87.4437V81.4939C121.021 81.091 120.569 80.8536 120.237 81.0823L119.731 81.4313C119.596 81.5247 119.515 81.6786 119.515 81.8429V87.7869ZM122.977 85.3979C122.977 85.799 123.426 86.0368 123.758 85.8117L124.264 85.4685C124.401 85.3754 124.483 85.2204 124.483 85.0547V79.0703C124.483 78.6674 124.031 78.4299 123.7 78.6587L123.193 79.0077C123.058 79.101 122.977 79.2549 122.977 79.4193V85.3979ZM126.656 76.5841C126.52 76.6774 126.44 76.8313 126.44 76.9957V83.0089C126.44 83.41 126.888 83.6478 127.22 83.4227L127.726 83.0795C127.864 82.9864 127.946 82.8314 127.946 82.6656V76.6467C127.946 76.2437 127.494 76.0063 127.162 76.2351L126.656 76.5841Z" fill="#131727"/>
<path d="M95.2788 88.4559C95.2788 88.2915 95.3596 88.1376 95.4949 88.0443L96.001 87.6953C96.3327 87.4665 96.7849 87.704 96.7849 88.1069V93.8168C96.7849 93.9812 96.7041 94.135 96.5688 94.2284L96.0627 94.5774C95.731 94.8062 95.2788 94.5687 95.2788 94.1658V88.4559ZM98.7411 91.7858C98.7411 92.1869 99.1898 92.4248 99.5218 92.1996L100.028 91.8564C100.165 91.7633 100.247 91.6084 100.247 91.4426V85.7006C100.247 85.2977 99.795 85.0602 99.4634 85.289L98.9573 85.638C98.8219 85.7313 98.7411 85.8852 98.7411 86.0496V91.7858ZM102.203 89.4141C102.203 89.8153 102.652 90.0531 102.984 89.8279L103.49 89.4847C103.627 89.3917 103.71 89.2367 103.71 89.0709V83.2943C103.71 82.8913 103.257 82.6539 102.926 82.8827L102.42 83.2317C102.284 83.325 102.203 83.4789 102.203 83.6433V89.4141ZM105.666 87.0251C105.666 87.4263 106.114 87.6641 106.446 87.4389L106.952 87.0957C107.09 87.0027 107.172 86.8477 107.172 86.6819V80.8706C107.172 80.4677 106.72 80.2303 106.388 80.459L105.882 80.8081C105.747 80.9014 105.666 81.0553 105.666 81.2197V87.0251ZM109.128 84.6707C109.128 85.0719 109.577 85.3097 109.909 85.0845L110.415 84.7413C110.552 84.6483 110.634 84.4933 110.634 84.3275V78.4816C110.634 78.0787 110.182 77.8413 109.85 78.07L109.344 78.4191C109.209 78.5124 109.128 78.6663 109.128 78.8307V84.6707ZM112.59 82.2817C112.59 82.6829 113.039 82.9207 113.371 82.6956L113.877 82.3523C114.014 82.2593 114.096 82.1043 114.096 81.9385V76.058C114.096 75.6551 113.644 75.4177 113.313 75.6464L112.807 75.9955C112.671 76.0888 112.59 76.2427 112.59 76.4071V82.2817ZM116.053 79.9274C116.053 80.3285 116.501 80.5663 116.833 80.3412L117.339 79.998C117.477 79.9049 117.559 79.7499 117.559 79.5841V73.669C117.559 73.2661 117.107 73.0287 116.775 73.2574L116.269 73.6065C116.134 73.6998 116.053 73.8537 116.053 74.0181V79.9274ZM119.515 77.5557C119.515 77.9568 119.964 78.1946 120.296 77.9695L120.802 77.6263C120.939 77.5332 121.021 77.3782 121.021 77.2124V71.2627C121.021 70.8598 120.569 70.6224 120.237 70.8511L119.731 71.2001C119.596 71.2935 119.515 71.4474 119.515 71.6117V77.5557ZM122.977 75.1667C122.977 75.5678 123.426 75.8056 123.758 75.5805L124.264 75.2373C124.401 75.1442 124.483 74.9892 124.483 74.8235V68.8391C124.483 68.4362 124.031 68.1987 123.7 68.4275L123.193 68.7765C123.058 68.8698 122.977 69.0237 122.977 69.1881V75.1667ZM126.656 66.3529C126.52 66.4462 126.44 66.6001 126.44 66.7645V72.7777C126.44 73.1788 126.888 73.4166 127.22 73.1915L127.726 72.8483C127.864 72.7552 127.946 72.6002 127.946 72.4344V66.4155C127.946 66.0125 127.494 65.7751 127.162 66.0039L126.656 66.3529Z" fill="#131727"/>
<path d="M95 98.2239C95 98.0595 95.0808 97.9056 95.2161 97.8123L95.7222 97.4632C96.0539 97.2345 96.5061 97.4719 96.5061 97.8748V103.585C96.5061 103.749 96.4253 103.903 96.29 103.996L95.7839 104.345C95.4522 104.574 95 104.337 95 103.934V98.2239ZM98.4623 101.554C98.4623 101.955 98.911 102.193 99.243 101.968L99.7491 101.624C99.8863 101.531 99.9684 101.376 99.9684 101.211V95.4685C99.9684 95.0656 99.5162 94.8282 99.1846 95.0569L98.6785 95.406C98.5431 95.4993 98.4623 95.6532 98.4623 95.8176V101.554ZM101.925 99.1821C101.925 99.5832 102.373 99.821 102.705 99.5959L103.211 99.2526C103.349 99.1596 103.431 99.0046 103.431 98.8388V93.0622C103.431 92.6593 102.979 92.4219 102.647 92.6506L102.141 92.9996C102.005 93.093 101.925 93.2469 101.925 93.4112V99.1821ZM105.387 96.7931C105.387 97.1942 105.836 97.432 106.168 97.2069L106.674 96.8637C106.811 96.7706 106.893 96.6156 106.893 96.4498V90.6386C106.893 90.2357 106.441 89.9982 106.109 90.227L105.603 90.576C105.468 90.6693 105.387 90.8232 105.387 90.9876V96.7931ZM108.849 94.4387C108.849 94.8398 109.298 95.0776 109.63 94.8525L110.136 94.5093C110.273 94.4162 110.355 94.2612 110.355 94.0955V88.2496C110.355 87.8467 109.903 87.6092 109.572 87.838L109.065 88.187C108.93 88.2803 108.849 88.4342 108.849 88.5986V94.4387ZM112.312 92.0497C112.312 92.4508 112.76 92.6886 113.092 92.4635L113.598 92.1203C113.736 92.0272 113.818 91.8722 113.818 91.7065V85.826C113.818 85.423 113.366 85.1856 113.034 85.4144L112.528 85.7634C112.392 85.8567 112.312 86.0106 112.312 86.175V92.0497ZM115.774 89.6953C115.774 90.0964 116.223 90.3343 116.555 90.1091L117.061 89.7659C117.198 89.6729 117.28 89.5179 117.28 89.3521V83.437C117.28 83.034 116.828 82.7966 116.496 83.0254L115.99 83.3744C115.855 83.4677 115.774 83.6216 115.774 83.786V89.6953ZM119.236 87.3236C119.236 87.7248 119.685 87.9626 120.017 87.7374L120.523 87.3942C120.66 87.3012 120.742 87.1462 120.742 86.9804V81.0307C120.742 80.6277 120.29 80.3903 119.958 80.619L119.452 80.9681C119.317 81.0614 119.236 81.2153 119.236 81.3797V87.3236ZM122.699 84.9346C122.699 85.3358 123.147 85.5736 123.479 85.3484L123.985 85.0052C124.122 84.9122 124.205 84.7572 124.205 84.5914V78.607C124.205 78.2041 123.752 77.9667 123.421 78.1954L122.915 78.5445C122.779 78.6378 122.699 78.7917 122.699 78.9561V84.9346ZM126.377 76.1208C126.242 76.2142 126.161 76.3681 126.161 76.5324V82.5456C126.161 82.9468 126.609 83.1846 126.941 82.9594L127.448 82.6162C127.585 82.5232 127.667 82.3682 127.667 82.2024V76.1834C127.667 75.7805 127.215 75.543 126.883 75.7718L126.377 76.1208Z" fill="#2FAAAF"/>
<path d="M95 87.9927C95 87.8283 95.0808 87.6744 95.2161 87.5811L95.7222 87.232C96.0539 87.0033 96.5061 87.2407 96.5061 87.6436V93.3535C96.5061 93.5179 96.4253 93.6718 96.29 93.7651L95.7839 94.1142C95.4522 94.3429 95 94.1055 95 93.7025V87.9927ZM98.4623 91.3225C98.4623 91.7237 98.911 91.9615 99.243 91.7364L99.7491 91.3931C99.8863 91.3001 99.9684 91.1451 99.9684 90.9793V85.2373C99.9684 84.8344 99.5162 84.597 99.1846 84.8257L98.6785 85.1747C98.5431 85.2681 98.4623 85.422 98.4623 85.5864V91.3225ZM101.925 88.9508C101.925 89.352 102.373 89.5898 102.705 89.3647L103.211 89.0214C103.349 88.9284 103.431 88.7734 103.431 88.6076V82.831C103.431 82.4281 102.979 82.1906 102.647 82.4194L102.141 82.7684C102.005 82.8618 101.925 83.0157 101.925 83.18V88.9508ZM105.387 86.5619C105.387 86.963 105.836 87.2008 106.168 86.9757L106.674 86.6325C106.811 86.5394 106.893 86.3844 106.893 86.2186V80.4074C106.893 80.0045 106.441 79.767 106.109 79.9958L105.603 80.3448C105.468 80.4381 105.387 80.592 105.387 80.7564V86.5619ZM108.849 84.2075C108.849 84.6086 109.298 84.8464 109.63 84.6213L110.136 84.2781C110.273 84.185 110.355 84.03 110.355 83.8643V78.0184C110.355 77.6155 109.903 77.378 109.572 77.6068L109.065 77.9558C108.93 78.0491 108.849 78.203 108.849 78.3674V84.2075ZM112.312 81.8185C112.312 82.2196 112.76 82.4574 113.092 82.2323L113.598 81.8891C113.736 81.796 113.818 81.641 113.818 81.4753V75.5948C113.818 75.1918 113.366 74.9544 113.034 75.1832L112.528 75.5322C112.392 75.6255 112.312 75.7794 112.312 75.9438V81.8185ZM115.774 79.4641C115.774 79.8652 116.223 80.1031 116.555 79.8779L117.061 79.5347C117.198 79.4417 117.28 79.2867 117.28 79.1209V73.2058C117.28 72.8028 116.828 72.5654 116.496 72.7942L115.99 73.1432C115.855 73.2365 115.774 73.3904 115.774 73.5548V79.4641ZM119.236 77.0924C119.236 77.4936 119.685 77.7314 120.017 77.5062L120.523 77.163C120.66 77.07 120.742 76.915 120.742 76.7492V70.7995C120.742 70.3965 120.29 70.1591 119.958 70.3878L119.452 70.7369C119.317 70.8302 119.236 70.9841 119.236 71.1485V77.0924ZM122.699 74.7034C122.699 75.1046 123.147 75.3424 123.479 75.1172L123.985 74.774C124.122 74.681 124.205 74.526 124.205 74.3602V68.3758C124.205 67.9729 123.752 67.7355 123.421 67.9642L122.915 68.3133C122.779 68.4066 122.699 68.5605 122.699 68.7249V74.7034ZM126.377 65.8896C126.242 65.983 126.161 66.1369 126.161 66.3012V72.3144C126.161 72.7156 126.609 72.9534 126.941 72.7282L127.448 72.385C127.585 72.292 127.667 72.137 127.667 71.9712V65.9522C127.667 65.5493 127.215 65.3118 126.883 65.5406L126.377 65.8896Z" fill="#2FAAAF"/>
<path d="M60.619 119.5L4.13279 81.9703C3.4345 81.5374 3 80.7797 3 79.9601L3.07769 56.9307C3.07769 56.2039 3.88461 55.7555 4.50532 56.1421L61.038 91.0672C61.6432 91.4384 62.0001 92.0878 62.0001 92.7837V118.742C62.0311 119.438 61.2397 119.887 60.619 119.5Z" fill="url(#paint4_linear)"/>
<path d="M52.0814 93.7348V91.8531L48.5771 89.4882V91.3525L47.5069 90.6448V95.8236L53.1517 99.6214V94.4425L52.0814 93.7348Z" fill="#383C52"/>
<path fill-rule="evenodd" clip-rule="evenodd" d="M52.0814 91.8531V92.8531L48.5771 90.4882V89.4882L52.0814 91.8531ZM48.5771 91.3525L47.5069 90.6448V91.6448L48.5771 92.3525V91.3525ZM52.0814 93.7348V94.7348L53.1517 95.4425V94.4425L52.0814 93.7348Z" fill="#8A99CD"/>
<path d="M49.4921 97.17L49.7165 97.3081V94.0282L49.4921 93.8901V97.17Z" fill="#2BD9D0"/>
<path d="M48.7672 96.6871L48.9916 96.8425V93.5453L48.7672 93.3899V96.6871Z" fill="#2BD9D0"/>
<path d="M50.2173 97.6368L50.4417 97.8094V94.5296L50.2173 94.3569V97.6368Z" fill="#2BD9D0"/>
<path d="M50.9422 98.1371L51.1666 98.3097V95.0125L50.9422 94.8572V98.1371Z" fill="#2BD9D0"/>
<path d="M51.6674 95.324V98.6384L51.8919 98.7765V95.4793L51.6674 95.324Z" fill="#2BD9D0"/>
<path d="M52.0814 108.219V110.066L48.5771 107.735V105.871L47.5069 105.146V99.9673L53.1517 103.748V108.909L52.0814 108.219Z" fill="#383C52"/>
<path fill-rule="evenodd" clip-rule="evenodd" d="M52.0814 108.219V107.219L53.1517 107.909V108.909L52.0814 108.219ZM52.0814 109.066V110.066L48.5771 107.736V106.736L52.0814 109.066ZM48.5771 105.871V104.871L47.5069 104.146V105.146L48.5771 105.871Z" fill="#8A99CD"/>
<path d="M49.4921 101.28L49.7165 101.435V104.715L49.4921 104.577V101.28Z" fill="#2BD9D0"/>
<path d="M48.7672 100.813L48.9916 100.968V104.248L48.7672 104.076V100.813Z" fill="#2BD9D0"/>
<path d="M50.2173 101.78L50.4417 101.935V105.198L50.2173 105.06V101.78Z" fill="#2BD9D0"/>
<path d="M50.9422 102.263L51.1666 102.401V105.698L50.9422 105.542V102.263Z" fill="#2BD9D0"/>
<path d="M51.6674 106.009V102.729L51.8919 102.902V106.182L51.6674 106.009Z" fill="#2BD9D0"/>
<path d="M42.7772 87.4519V85.5703L39.2729 83.2225V85.1042L38.2026 84.3619V89.6097L43.8475 93.3902V88.1597L42.7772 87.4519Z" fill="#383C52"/>
<path fill-rule="evenodd" clip-rule="evenodd" d="M42.7772 85.5703V86.5703L39.2729 84.2225V83.2225L42.7772 85.5703ZM39.2729 85.1042V86.1042L38.2026 85.3619V84.3619L39.2729 85.1042ZM42.7772 87.4519V88.4519L43.8475 89.1597V88.1597L42.7772 87.4519Z" fill="#8A99CD"/>
<path d="M40.1878 90.9044L40.4122 91.077V87.7799L40.1878 87.6245V90.9044Z" fill="#2BD9D0"/>
<path d="M39.463 90.4387L39.6874 90.5768V87.2796L39.463 87.1243V90.4387Z" fill="#2BD9D0"/>
<path d="M40.9131 91.4233L41.1375 91.5787V88.247L40.9131 88.1089V91.4233Z" fill="#2BD9D0"/>
<path d="M41.6379 91.906L41.8624 92.0441V88.7469L41.6379 88.5916V91.906Z" fill="#2BD9D0"/>
<path d="M42.3632 89.0919V92.3718L42.5876 92.5444V89.2473L42.3632 89.0919Z" fill="#2BD9D0"/>
<path d="M42.7772 102.004V103.886L39.2729 101.538V99.6735L38.2026 98.9312V93.7351L43.8475 97.5156V102.712L42.7772 102.004Z" fill="#383C52"/>
<path fill-rule="evenodd" clip-rule="evenodd" d="M42.7772 102.004V101.004L43.8475 101.712V102.712L42.7772 102.004ZM42.7772 102.886V103.886L39.2729 101.538V100.538L42.7772 102.886ZM39.2729 99.6734V98.6734L38.2026 97.9312V98.9312L39.2729 99.6734Z" fill="#8A99CD"/>
<path d="M40.1878 95.0475L40.4122 95.2201V98.5L40.1878 98.3446V95.0475Z" fill="#2BD9D0"/>
<path d="M39.463 94.5807L39.6874 94.7188V98.0332L39.463 97.8778V94.5807Z" fill="#2BD9D0"/>
<path d="M40.9131 95.5477L41.1375 95.7031V99.0003L40.9131 98.8449V95.5477Z" fill="#2BD9D0"/>
<path d="M41.6379 96.0128L41.8624 96.1682V99.4653L41.6379 99.3272V96.0128Z" fill="#2BD9D0"/>
<path d="M42.3632 99.7947V96.5148L42.5876 96.6701V99.9673L42.3632 99.7947Z" fill="#2BD9D0"/>
<path d="M33.4725 81.2031V79.3215L29.951 76.9392V78.8208L28.8979 78.1303V83.3609L34.5428 87.1242V81.9281L33.4725 81.2031Z" fill="#383C52"/>
<path fill-rule="evenodd" clip-rule="evenodd" d="M33.4725 79.3215V80.3215L29.951 77.9392V76.9392L33.4725 79.3215ZM29.951 78.8208L28.8979 78.1303V79.1303L29.951 79.8208V78.8208ZM33.4725 81.2031V82.2031L34.5428 82.9281V81.9281L33.4725 81.2031Z" fill="#8A99CD"/>
<path d="M30.8656 84.6891L31.1072 84.8444V81.5127L30.8656 81.3746V84.6891Z" fill="#2BD9D0"/>
<path d="M30.1407 84.1888L30.3824 84.3442V81.047L30.1407 80.8744V84.1888Z" fill="#2BD9D0"/>
<path d="M31.5909 85.1731L31.8325 85.3112V82.0141L31.5909 81.8414V85.1731Z" fill="#2BD9D0"/>
<path d="M32.3157 85.6389L32.5574 85.8115V82.497L32.3157 82.3417V85.6389Z" fill="#2BD9D0"/>
<path d="M33.041 82.8085V86.1402L33.2827 86.2955V82.9638L33.041 82.8085Z" fill="#2BD9D0"/>
<path d="M33.4725 95.8064V97.688L29.951 95.3575V93.4586L28.8979 92.7336V87.5031L34.5428 91.2663V96.5141L33.4725 95.8064Z" fill="#383C52"/>
<path fill-rule="evenodd" clip-rule="evenodd" d="M33.4725 95.8064V94.8064L34.5428 95.5141V96.5141L33.4725 95.8064ZM33.4725 96.688V97.688L29.951 95.3576V94.3576L33.4725 96.688ZM29.951 93.4587V92.4587L28.8979 91.7336V92.7336L29.951 93.4587Z" fill="#8A99CD"/>
<path d="M30.8656 88.8313L31.1072 88.9867V92.2838L30.8656 92.1285V88.8313Z" fill="#2CC6C0"/>
<path d="M30.1407 88.3311L30.3824 88.4864V91.8181L30.1407 91.6627V88.3311Z" fill="#2CC6C0"/>
<path d="M31.5909 89.3157L31.8325 89.4538V92.7855L31.5909 92.6301V89.3157Z" fill="#2CC6C0"/>
<path d="M32.3157 89.7808L32.5574 89.9534V93.2506L32.3157 93.1125V89.7808Z" fill="#2CC6C0"/>
<path d="M33.041 93.5785V90.2986L33.2827 90.4539V93.7511L33.041 93.5785Z" fill="#2CC6C0"/>
<path d="M24.1507 74.9357V73.0369L20.6464 70.6719V72.5708L19.5761 71.8457V77.0936L25.221 80.8914V75.6435L24.1507 74.9357Z" fill="#383C52"/>
<path fill-rule="evenodd" clip-rule="evenodd" d="M24.1507 73.0369V74.0369L20.6464 71.6719V70.6719L24.1507 73.0369ZM20.6464 72.5708V73.5708L19.5761 72.8457V71.8457L20.6464 72.5708ZM24.1507 74.9357V75.9357L25.221 76.6435V75.6435L24.1507 74.9357Z" fill="#8A99CD"/>
<path d="M21.5614 78.4391L21.7858 78.5772V75.2628L21.5614 75.1074V78.4391Z" fill="#2BD9D0"/>
<path d="M20.8365 77.956L21.0609 78.1114V74.7624L20.8365 74.6071V77.956Z" fill="#2BD9D0"/>
<path d="M22.2866 78.9048L22.5283 79.0775V75.763L22.2866 75.6077V78.9048Z" fill="#2BD9D0"/>
<path d="M23.0115 79.4061L23.2532 79.5615V76.2298L23.0115 76.0745V79.4061Z" fill="#2BD9D0"/>
<path d="M23.7368 76.5747V79.9064L23.9784 80.0445V76.7301L23.7368 76.5747Z" fill="#2BD9D0"/>
<path d="M24.1507 89.5918V91.4907L20.6464 89.143V87.2441L19.5761 86.519V81.2885L25.221 85.0344V90.2996L24.1507 89.5918Z" fill="#383C52"/>
<path fill-rule="evenodd" clip-rule="evenodd" d="M24.1507 89.5918V88.5918L25.221 89.2996V90.2996L24.1507 89.5918ZM24.1507 90.4907V91.4907L20.6464 89.143V88.143L24.1507 90.4907ZM20.6464 87.2441V86.2441L19.5761 85.519V86.519L20.6464 87.2441Z" fill="#8A99CD"/>
<path d="M21.5614 82.6007L21.7858 82.7561V86.0705L21.5614 85.9152V82.6007Z" fill="#2BD9D0"/>
<path d="M20.8365 82.1005L21.0609 82.2731V85.6048L20.8365 85.4494V82.1005Z" fill="#2BD9D0"/>
<path d="M22.2866 83.1011L22.5283 83.2392V86.5709L22.2866 86.4155V83.1011Z" fill="#2BD9D0"/>
<path d="M23.0115 83.5677L23.2532 83.7404V87.0375L23.0115 86.8994V83.5677Z" fill="#2BD9D0"/>
<path d="M23.7368 87.3653V84.0681L23.9784 84.2235V87.5379L23.7368 87.3653Z" fill="#2BD9D0"/>
<path d="M14.8461 68.6529V66.754L11.3418 64.4062V66.3051L10.2715 65.5974V70.8625L15.9164 74.6603V69.3952L14.8461 68.6529Z" fill="#383C52"/>
<path fill-rule="evenodd" clip-rule="evenodd" d="M14.8461 66.754V67.754L11.3418 65.4062V64.4062L14.8461 66.754ZM11.3418 66.3051V67.3051L10.2715 66.5974V65.5974L11.3418 66.3051ZM14.8461 68.6529V69.6529L15.9164 70.3952V69.3952L14.8461 68.6529Z" fill="#8A99CD"/>
<path d="M12.2567 72.1738L12.4811 72.3464V68.9975L12.2567 68.8594V72.1738Z" fill="#2BD9D0"/>
<path d="M11.5318 71.7084L11.7562 71.8465V68.5321L11.5318 68.3767V71.7084Z" fill="#2BD9D0"/>
<path d="M12.982 72.6924L13.2064 72.8477V69.4988L12.982 69.3262V72.6924Z" fill="#2BD9D0"/>
<path d="M13.7068 73.1754L13.9313 73.3135V69.9818L13.7068 69.8264V73.1754Z" fill="#2BD9D0"/>
<path d="M14.4321 70.3268V73.6412L14.6565 73.8138V70.4649L14.4321 70.3268Z" fill="#2BD9D0"/>
<path d="M14.8461 83.3783V85.2944L11.3418 82.9467V81.0478L10.2715 80.34V75.0404L15.9164 78.8209V84.086L14.8461 83.3783Z" fill="#383C52"/>
<path fill-rule="evenodd" clip-rule="evenodd" d="M14.8461 83.3783V82.3783L15.9164 83.0861V84.0861L14.8461 83.3783ZM14.8461 84.2945V85.2945L11.3418 82.9467V81.9467L14.8461 84.2945ZM11.3418 81.0479V80.0479L10.2715 79.3401V80.3401L11.3418 81.0479Z" fill="#8A99CD"/>
<path d="M12.2567 76.3862L12.4811 76.5416V79.856L12.2567 79.7007V76.3862Z" fill="#2BD9D0"/>
<path d="M11.5318 75.886L11.7562 76.0586V79.3903L11.5318 79.2349V75.886Z" fill="#2BD9D0"/>
<path d="M12.982 76.853L13.2064 77.0084V80.3573L12.982 80.202V76.853Z" fill="#2BD9D0"/>
<path d="M13.7068 77.3533L13.9313 77.5086V80.8231L13.7068 80.685V77.3533Z" fill="#2BD9D0"/>
<path d="M14.4321 81.1505V77.8361L14.6565 77.9742V81.3231L14.4321 81.1505Z" fill="#2BD9D0"/>
<defs>
<linearGradient id="paint0_linear" x1="8.20311" y1="85.5685" x2="131.885" y2="85.5685" gradientUnits="userSpaceOnUse">
<stop stop-color="#E7EFF5"/>
<stop offset="0.2574" stop-color="#C3C5D2"/>
<stop offset="0.3352" stop-color="#C6C8D5"/>
<stop offset="0.3997" stop-color="#CED3DD"/>
<stop offset="0.4592" stop-color="#DDE4EC"/>
<stop offset="0.4655" stop-color="#DFE6EE"/>
<stop offset="0.5693" stop-color="#98A5B5"/>
<stop offset="0.995" stop-color="#7E8EA0"/>
</linearGradient>
<linearGradient id="paint1_linear" x1="-0.10645" y1="85.9148" x2="133.097" y2="85.9148" gradientUnits="userSpaceOnUse">
<stop stop-color="#475375"/>
<stop offset="0.406195" stop-color="#2E354E"/>
<stop offset="0.522558" stop-color="#3C4661"/>
<stop offset="0.642676" stop-color="#2C3045"/>
</linearGradient>
<linearGradient id="paint2_linear" x1="3.5" y1="48" x2="136" y2="45" gradientUnits="userSpaceOnUse">
<stop stop-color="#545F7C"/>
<stop offset="0.494792" stop-color="#45516D"/>
<stop offset="0.995" stop-color="#344265"/>
</linearGradient>
<linearGradient id="paint3_linear" x1="3.5" y1="46" x2="136" y2="43" gradientUnits="userSpaceOnUse">
<stop stop-color="#687699"/>
<stop offset="0.995" stop-color="#526084"/>
</linearGradient>
<linearGradient id="paint4_linear" x1="4.89847" y1="61.5776" x2="32.0095" y2="65.0295" gradientUnits="userSpaceOnUse">
<stop stop-color="#5E6B8C"/>
</linearGradient>
</defs>
</svg>
