<svg width="140" height="140" viewBox="0 0 140 140" fill="none" xmlns="http://www.w3.org/2000/svg">
<path d="M0.0825195 45.6761V77.1659C0.0825195 80.282 1.70981 83.1731 4.35848 84.783L61.4694 122.747C67.4073 126.365 74.8513 126.365 80.7892 122.747L135.65 84.783C138.298 83.1557 139.926 80.2647 139.926 77.1659V46.3686L0.0825195 45.6761Z" fill="url(#paint0_linear)"/>
<path d="M0.0825195 46.3687V77.166C0.0825195 80.2821 1.70981 83.1731 4.35848 84.7831L61.4694 122.747C67.4073 126.366 74.8513 126.366 80.7892 122.747L135.65 84.7831C138.298 83.1558 139.926 80.2647 139.926 77.166V46.3687H0.0825195Z" fill="url(#paint1_linear)"/>
<path d="M137.069 54.3065L81.1527 88.4796C74.9897 92.2362 67.2342 92.2362 61.0712 88.4796L2.02139 52.4022C-0.904265 50.6191 -0.592657 46.2739 2.55805 44.9236L64.7759 18.2984C68.8268 16.5672 73.3971 16.5672 77.4307 18.2984L136.29 43.4867C140.86 45.4256 141.31 51.7097 137.069 54.3065Z" fill="url(#paint2_linear)"/>
<path d="M137.069 52.3065L81.1527 86.4796C74.9897 90.2362 67.2342 90.2362 61.0712 86.4796L2.02139 50.4022C-0.904265 48.6191 -0.592657 44.2739 2.55805 42.9236L64.7759 16.2984C68.8268 14.5672 73.3971 14.5672 77.4307 16.2984L136.29 41.4867C140.86 43.4256 141.31 49.7097 137.069 52.3065Z" fill="url(#paint3_linear)"/>
<path d="M95.2788 98.6871C95.2788 98.5227 95.3596 98.3688 95.4949 98.2755L96.001 97.9265C96.3327 97.6977 96.7849 97.9352 96.7849 98.3381V104.048C96.7849 104.212 96.7041 104.366 96.5688 104.46L96.0627 104.809C95.731 105.037 95.2788 104.8 95.2788 104.397V98.6871ZM98.7411 102.017C98.7411 102.418 99.1898 102.656 99.5218 102.431L100.028 102.088C100.165 101.995 100.247 101.84 100.247 101.674V95.9318C100.247 95.5289 99.795 95.2914 99.4634 95.5202L98.9573 95.8692C98.8219 95.9625 98.7411 96.1164 98.7411 96.2808V102.017ZM102.203 99.6453C102.203 100.046 102.652 100.284 102.984 100.059L103.49 99.7159C103.627 99.6229 103.71 99.4679 103.71 99.3021V93.5255C103.71 93.1225 103.257 92.8851 102.926 93.1139L102.42 93.4629C102.284 93.5562 102.203 93.7101 102.203 93.8745V99.6453ZM105.666 97.2563C105.666 97.6575 106.114 97.8953 106.446 97.6701L106.952 97.3269C107.09 97.2339 107.172 97.0789 107.172 96.9131V91.1018C107.172 90.6989 106.72 90.4615 106.388 90.6902L105.882 91.0393C105.747 91.1326 105.666 91.2865 105.666 91.4509V97.2563ZM109.128 94.9019C109.128 95.3031 109.577 95.5409 109.909 95.3158L110.415 94.9725C110.552 94.8795 110.634 94.7245 110.634 94.5587V88.7128C110.634 88.3099 110.182 88.0725 109.85 88.3012L109.344 88.6503C109.209 88.7436 109.128 88.8975 109.128 89.0619V94.9019ZM112.59 92.5129C112.59 92.9141 113.039 93.1519 113.371 92.9267L113.877 92.5835C114.014 92.4905 114.096 92.3355 114.096 92.1697V86.2892C114.096 85.8863 113.644 85.6489 113.313 85.8776L112.807 86.2266C112.671 86.32 112.59 86.4739 112.59 86.6383V92.5129ZM116.053 90.1586C116.053 90.5597 116.501 90.7975 116.833 90.5724L117.339 90.2292C117.477 90.1361 117.559 89.9811 117.559 89.8153V83.9002C117.559 83.4973 117.107 83.2599 116.775 83.4886L116.269 83.8377C116.134 83.931 116.053 84.0849 116.053 84.2493V90.1586ZM119.515 87.7869C119.515 88.188 119.964 88.4258 120.296 88.2007L120.802 87.8575C120.939 87.7644 121.021 87.6094 121.021 87.4437V81.4939C121.021 81.091 120.569 80.8536 120.237 81.0823L119.731 81.4313C119.596 81.5247 119.515 81.6786 119.515 81.8429V87.7869ZM122.977 85.3979C122.977 85.799 123.426 86.0368 123.758 85.8117L124.264 85.4685C124.401 85.3754 124.483 85.2204 124.483 85.0547V79.0703C124.483 78.6674 124.031 78.4299 123.7 78.6587L123.193 79.0077C123.058 79.101 122.977 79.2549 122.977 79.4193V85.3979ZM126.656 76.5841C126.52 76.6774 126.44 76.8313 126.44 76.9957V83.0089C126.44 83.41 126.888 83.6478 127.22 83.4227L127.726 83.0795C127.864 82.9864 127.946 82.8314 127.946 82.6656V76.6467C127.946 76.2437 127.494 76.0063 127.162 76.2351L126.656 76.5841Z" fill="#131727"/>
<path d="M95.2788 88.4559C95.2788 88.2915 95.3596 88.1376 95.4949 88.0443L96.001 87.6953C96.3327 87.4665 96.7849 87.704 96.7849 88.1069V93.8168C96.7849 93.9812 96.7041 94.135 96.5688 94.2284L96.0627 94.5774C95.731 94.8062 95.2788 94.5687 95.2788 94.1658V88.4559ZM98.7411 91.7858C98.7411 92.1869 99.1898 92.4248 99.5218 92.1996L100.028 91.8564C100.165 91.7633 100.247 91.6084 100.247 91.4426V85.7006C100.247 85.2977 99.795 85.0602 99.4634 85.289L98.9573 85.638C98.8219 85.7313 98.7411 85.8852 98.7411 86.0496V91.7858ZM102.203 89.4141C102.203 89.8153 102.652 90.0531 102.984 89.8279L103.49 89.4847C103.627 89.3917 103.71 89.2367 103.71 89.0709V83.2943C103.71 82.8913 103.257 82.6539 102.926 82.8827L102.42 83.2317C102.284 83.325 102.203 83.4789 102.203 83.6433V89.4141ZM105.666 87.0251C105.666 87.4263 106.114 87.6641 106.446 87.4389L106.952 87.0957C107.09 87.0027 107.172 86.8477 107.172 86.6819V80.8706C107.172 80.4677 106.72 80.2303 106.388 80.459L105.882 80.8081C105.747 80.9014 105.666 81.0553 105.666 81.2197V87.0251ZM109.128 84.6707C109.128 85.0719 109.577 85.3097 109.909 85.0845L110.415 84.7413C110.552 84.6483 110.634 84.4933 110.634 84.3275V78.4816C110.634 78.0787 110.182 77.8413 109.85 78.07L109.344 78.4191C109.209 78.5124 109.128 78.6663 109.128 78.8307V84.6707ZM112.59 82.2817C112.59 82.6829 113.039 82.9207 113.371 82.6956L113.877 82.3523C114.014 82.2593 114.096 82.1043 114.096 81.9385V76.058C114.096 75.6551 113.644 75.4177 113.313 75.6464L112.807 75.9955C112.671 76.0888 112.59 76.2427 112.59 76.4071V82.2817ZM116.053 79.9274C116.053 80.3285 116.501 80.5663 116.833 80.3412L117.339 79.998C117.477 79.9049 117.559 79.7499 117.559 79.5841V73.669C117.559 73.2661 117.107 73.0287 116.775 73.2574L116.269 73.6065C116.134 73.6998 116.053 73.8537 116.053 74.0181V79.9274ZM119.515 77.5557C119.515 77.9568 119.964 78.1946 120.296 77.9695L120.802 77.6263C120.939 77.5332 121.021 77.3782 121.021 77.2124V71.2627C121.021 70.8598 120.569 70.6224 120.237 70.8511L119.731 71.2001C119.596 71.2935 119.515 71.4474 119.515 71.6117V77.5557ZM122.977 75.1667C122.977 75.5678 123.426 75.8056 123.758 75.5805L124.264 75.2373C124.401 75.1442 124.483 74.9892 124.483 74.8235V68.8391C124.483 68.4362 124.031 68.1987 123.7 68.4275L123.193 68.7765C123.058 68.8698 122.977 69.0237 122.977 69.1881V75.1667ZM126.656 66.3529C126.52 66.4462 126.44 66.6001 126.44 66.7645V72.7777C126.44 73.1788 126.888 73.4166 127.22 73.1915L127.726 72.8483C127.864 72.7552 127.946 72.6002 127.946 72.4344V66.4155C127.946 66.0125 127.494 65.7751 127.162 66.0039L126.656 66.3529Z" fill="#131727"/>
<path d="M95 98.2239C95 98.0595 95.0808 97.9056 95.2161 97.8123L95.7222 97.4632C96.0539 97.2345 96.5061 97.4719 96.5061 97.8748V103.585C96.5061 103.749 96.4253 103.903 96.29 103.996L95.7839 104.345C95.4522 104.574 95 104.337 95 103.934V98.2239ZM98.4623 101.554C98.4623 101.955 98.911 102.193 99.243 101.968L99.7491 101.624C99.8863 101.531 99.9684 101.376 99.9684 101.211V95.4685C99.9684 95.0656 99.5162 94.8282 99.1846 95.0569L98.6785 95.406C98.5431 95.4993 98.4623 95.6532 98.4623 95.8176V101.554ZM101.925 99.1821C101.925 99.5832 102.373 99.821 102.705 99.5959L103.211 99.2526C103.349 99.1596 103.431 99.0046 103.431 98.8388V93.0622C103.431 92.6593 102.979 92.4219 102.647 92.6506L102.141 92.9996C102.005 93.093 101.925 93.2469 101.925 93.4112V99.1821ZM105.387 96.7931C105.387 97.1942 105.836 97.432 106.168 97.2069L106.674 96.8637C106.811 96.7706 106.893 96.6156 106.893 96.4498V90.6386C106.893 90.2357 106.441 89.9982 106.109 90.227L105.603 90.576C105.468 90.6693 105.387 90.8232 105.387 90.9876V96.7931ZM108.849 94.4387C108.849 94.8398 109.298 95.0776 109.63 94.8525L110.136 94.5093C110.273 94.4162 110.355 94.2612 110.355 94.0955V88.2496C110.355 87.8467 109.903 87.6092 109.572 87.838L109.065 88.187C108.93 88.2803 108.849 88.4342 108.849 88.5986V94.4387ZM112.312 92.0497C112.312 92.4508 112.76 92.6886 113.092 92.4635L113.598 92.1203C113.736 92.0272 113.818 91.8722 113.818 91.7065V85.826C113.818 85.423 113.366 85.1856 113.034 85.4144L112.528 85.7634C112.392 85.8567 112.312 86.0106 112.312 86.175V92.0497ZM115.774 89.6953C115.774 90.0964 116.223 90.3343 116.555 90.1091L117.061 89.7659C117.198 89.6729 117.28 89.5179 117.28 89.3521V83.437C117.28 83.034 116.828 82.7966 116.496 83.0254L115.99 83.3744C115.855 83.4677 115.774 83.6216 115.774 83.786V89.6953ZM119.236 87.3236C119.236 87.7248 119.685 87.9626 120.017 87.7374L120.523 87.3942C120.66 87.3012 120.742 87.1462 120.742 86.9804V81.0307C120.742 80.6277 120.29 80.3903 119.958 80.619L119.452 80.9681C119.317 81.0614 119.236 81.2153 119.236 81.3797V87.3236ZM122.699 84.9346C122.699 85.3358 123.147 85.5736 123.479 85.3484L123.985 85.0052C124.122 84.9122 124.205 84.7572 124.205 84.5914V78.607C124.205 78.2041 123.752 77.9667 123.421 78.1954L122.915 78.5445C122.779 78.6378 122.699 78.7917 122.699 78.9561V84.9346ZM126.377 76.1208C126.242 76.2142 126.161 76.3681 126.161 76.5324V82.5456C126.161 82.9468 126.609 83.1846 126.941 82.9594L127.448 82.6162C127.585 82.5232 127.667 82.3682 127.667 82.2024V76.1834C127.667 75.7805 127.215 75.543 126.883 75.7718L126.377 76.1208Z" fill="#2FAAAF"/>
<path d="M95 87.9927C95 87.8283 95.0808 87.6744 95.2161 87.5811L95.7222 87.232C96.0539 87.0033 96.5061 87.2407 96.5061 87.6436V93.3535C96.5061 93.5179 96.4253 93.6718 96.29 93.7651L95.7839 94.1142C95.4522 94.3429 95 94.1055 95 93.7025V87.9927ZM98.4623 91.3225C98.4623 91.7237 98.911 91.9615 99.243 91.7364L99.7491 91.3931C99.8863 91.3001 99.9684 91.1451 99.9684 90.9793V85.2373C99.9684 84.8344 99.5162 84.597 99.1846 84.8257L98.6785 85.1747C98.5431 85.2681 98.4623 85.422 98.4623 85.5864V91.3225ZM101.925 88.9508C101.925 89.352 102.373 89.5898 102.705 89.3647L103.211 89.0214C103.349 88.9284 103.431 88.7734 103.431 88.6076V82.831C103.431 82.4281 102.979 82.1906 102.647 82.4194L102.141 82.7684C102.005 82.8618 101.925 83.0157 101.925 83.18V88.9508ZM105.387 86.5619C105.387 86.963 105.836 87.2008 106.168 86.9757L106.674 86.6325C106.811 86.5394 106.893 86.3844 106.893 86.2186V80.4074C106.893 80.0045 106.441 79.767 106.109 79.9958L105.603 80.3448C105.468 80.4381 105.387 80.592 105.387 80.7564V86.5619ZM108.849 84.2075C108.849 84.6086 109.298 84.8464 109.63 84.6213L110.136 84.2781C110.273 84.185 110.355 84.03 110.355 83.8643V78.0184C110.355 77.6155 109.903 77.378 109.572 77.6068L109.065 77.9558C108.93 78.0491 108.849 78.203 108.849 78.3674V84.2075ZM112.312 81.8185C112.312 82.2196 112.76 82.4574 113.092 82.2323L113.598 81.8891C113.736 81.796 113.818 81.641 113.818 81.4753V75.5948C113.818 75.1918 113.366 74.9544 113.034 75.1832L112.528 75.5322C112.392 75.6255 112.312 75.7794 112.312 75.9438V81.8185ZM115.774 79.4641C115.774 79.8652 116.223 80.1031 116.555 79.8779L117.061 79.5347C117.198 79.4417 117.28 79.2867 117.28 79.1209V73.2058C117.28 72.8028 116.828 72.5654 116.496 72.7942L115.99 73.1432C115.855 73.2365 115.774 73.3904 115.774 73.5548V79.4641ZM119.236 77.0924C119.236 77.4936 119.685 77.7314 120.017 77.5062L120.523 77.163C120.66 77.07 120.742 76.915 120.742 76.7492V70.7995C120.742 70.3965 120.29 70.1591 119.958 70.3878L119.452 70.7369C119.317 70.8302 119.236 70.9841 119.236 71.1485V77.0924ZM122.699 74.7034C122.699 75.1046 123.147 75.3424 123.479 75.1172L123.985 74.774C124.122 74.681 124.205 74.526 124.205 74.3602V68.3758C124.205 67.9729 123.752 67.7355 123.421 67.9642L122.915 68.3133C122.779 68.4066 122.699 68.5605 122.699 68.7249V74.7034ZM126.377 65.8896C126.242 65.983 126.161 66.1369 126.161 66.3012V72.3144C126.161 72.7156 126.609 72.9534 126.941 72.7282L127.448 72.385C127.585 72.292 127.667 72.137 127.667 71.9712V65.9522C127.667 65.5493 127.215 65.3118 126.883 65.5406L126.377 65.8896Z" fill="#2FAAAF"/>
<path d="M87.8466 31L99.0265 38.105L87.8466 45.1577V41.344H79.2266L80.8984 38.105L79.2266 34.8137H87.8466V31Z" fill="url(#paint4_linear)"/>
<path d="M78.1296 41.3439H76.2489L77.9207 38.1049L76.2489 34.8136H78.1296L79.8014 38.1049L78.1296 41.3439Z" fill="url(#paint5_linear)"/>
<path d="M75.1515 41.3439H73.2708L74.9426 38.1049L73.2708 34.8136H75.1515L76.8233 38.1049L75.1515 41.3439Z" fill="url(#paint6_linear)"/>
<path d="M87.8466 31V45.1577V41.344H79.2266L80.8984 38.105L79.2266 34.8137H87.8466V31Z" fill="url(#paint7_linear)"/>
<path d="M78.1296 41.3439H76.2489L77.9207 38.1049L76.2489 34.8136H78.1296L79.8014 38.1049L78.1296 41.3439Z" fill="url(#paint8_linear)"/>
<path d="M75.1515 41.3439H73.2708L74.9426 38.1049L73.2708 34.8136H75.1515L76.8233 38.1049L75.1515 41.3439Z" fill="url(#paint9_linear)"/>
<path d="M91.82 46.7966L103 53.9016L91.82 60.9544V57.1406H83.2L84.8718 53.9016L83.2 50.6103H91.82V46.7966Z" fill="url(#paint10_linear)"/>
<path d="M82.103 57.1407H80.2223L81.8941 53.9016L80.2223 50.6104H82.103L83.7748 53.9016L82.103 57.1407Z" fill="url(#paint11_linear)"/>
<path d="M79.1249 57.1407H77.2442L78.916 53.9016L77.2442 50.6104H79.1249L80.7967 53.9016L79.1249 57.1407Z" fill="url(#paint12_linear)"/>
<path d="M91.82 46.7966V60.9544V57.1406H83.2L84.8718 53.9016L83.2 50.6103H91.82V46.7966Z" fill="url(#paint13_linear)"/>
<path d="M82.103 57.1407H80.2223L81.8941 53.9016L80.2223 50.6104H82.103L83.7748 53.9016L82.103 57.1407Z" fill="url(#paint14_linear)"/>
<path d="M79.1249 57.1407H77.2442L78.916 53.9016L77.2442 50.6104H79.1249L80.7967 53.9016L79.1249 57.1407Z" fill="url(#paint15_linear)"/>
<path d="M54.1532 69.2683L42.9733 62.1633L54.1532 55.1106V58.9243H62.7733L61.1015 62.1633L62.7733 65.4546H54.1532V69.2683Z" fill="url(#paint16_linear)"/>
<path d="M63.8702 58.9243H65.751L64.0792 62.1633L65.751 65.4546H63.8702L62.1985 62.1633L63.8702 58.9243Z" fill="url(#paint17_linear)"/>
<path d="M66.8483 58.9243H68.7291L67.0573 62.1633L68.7291 65.4546H66.8483L65.1766 62.1633L66.8483 58.9243Z" fill="url(#paint18_linear)"/>
<path d="M54.1532 69.2683V55.1106V58.9243H62.7733L61.1015 62.1633L62.7733 65.4546H54.1532V69.2683Z" fill="url(#paint19_linear)"/>
<path d="M63.8702 58.9243H65.751L64.0792 62.1633L65.751 65.4546H63.8702L62.1985 62.1633L63.8702 58.9243Z" fill="url(#paint20_linear)"/>
<path d="M66.8483 58.9243H68.7291L67.0573 62.1633L68.7291 65.4546H66.8483L65.1766 62.1633L66.8483 58.9243Z" fill="url(#paint21_linear)"/>
<path d="M50.18 53.4717L39.0001 46.3667L50.18 39.314V43.1277H58.8L57.1282 46.3667L58.8 49.658H50.18V53.4717Z" fill="url(#paint22_linear)"/>
<path d="M59.897 43.1276H61.7777L60.1059 46.3667L61.7777 49.658H59.897L58.2252 46.3667L59.897 43.1276Z" fill="url(#paint23_linear)"/>
<path d="M62.8751 43.1276H64.7558L63.084 46.3667L64.7558 49.658H62.8751L61.2033 46.3667L62.8751 43.1276Z" fill="url(#paint24_linear)"/>
<path d="M50.18 53.4717V39.314V43.1277H58.8L57.1282 46.3667L58.8 49.658H50.18V53.4717Z" fill="url(#paint25_linear)"/>
<path d="M59.897 43.1276H61.7777L60.1059 46.3667L61.7777 49.658H59.897L58.2252 46.3667L59.897 43.1276Z" fill="url(#paint26_linear)"/>
<path d="M62.8751 43.1276H64.7558L63.084 46.3667L64.7558 49.658H62.8751L61.2033 46.3667L62.8751 43.1276Z" fill="url(#paint27_linear)"/>
<path d="M86.8466 30L98.0265 37.105L86.8466 44.1577V40.344H78.2266L79.8984 37.105L78.2266 33.8137H86.8466V30Z" fill="url(#paint28_linear)"/>
<path d="M77.1296 40.3439H75.2489L76.9207 37.1049L75.2489 33.8136H77.1296L78.8014 37.1049L77.1296 40.3439Z" fill="url(#paint29_linear)"/>
<path d="M74.1515 40.3439H72.2708L73.9426 37.1049L72.2708 33.8136H74.1515L75.8233 37.1049L74.1515 40.3439Z" fill="url(#paint30_linear)"/>
<path d="M86.8466 30V44.1577V40.344H78.2266L79.8984 37.105L78.2266 33.8137H86.8466V30Z" fill="url(#paint31_linear)"/>
<path d="M77.1296 40.3439H75.2489L76.9207 37.1049L75.2489 33.8136H77.1296L78.8014 37.1049L77.1296 40.3439Z" fill="url(#paint32_linear)"/>
<path d="M74.1515 40.3439H72.2708L73.9426 37.1049L72.2708 33.8136H74.1515L75.8233 37.1049L74.1515 40.3439Z" fill="url(#paint33_linear)"/>
<path d="M90.82 45.7966L102 52.9016L90.82 59.9544V56.1406H82.2L83.8718 52.9016L82.2 49.6103H90.82V45.7966Z" fill="url(#paint34_linear)"/>
<path d="M81.103 56.1407H79.2223L80.8941 52.9016L79.2223 49.6104H81.103L82.7748 52.9016L81.103 56.1407Z" fill="url(#paint35_linear)"/>
<path d="M78.1249 56.1407H76.2442L77.916 52.9016L76.2442 49.6104H78.1249L79.7967 52.9016L78.1249 56.1407Z" fill="url(#paint36_linear)"/>
<path d="M90.82 45.7966V59.9544V56.1406H82.2L83.8718 52.9016L82.2 49.6103H90.82V45.7966Z" fill="url(#paint37_linear)"/>
<path d="M81.103 56.1407H79.2223L80.8941 52.9016L79.2223 49.6104H81.103L82.7748 52.9016L81.103 56.1407Z" fill="url(#paint38_linear)"/>
<path d="M78.1249 56.1407H76.2442L77.916 52.9016L76.2442 49.6104H78.1249L79.7967 52.9016L78.1249 56.1407Z" fill="url(#paint39_linear)"/>
<path d="M53.1532 68.2683L41.9733 61.1633L53.1532 54.1106V57.9243H61.7733L60.1015 61.1633L61.7733 64.4546H53.1532V68.2683Z" fill="url(#paint40_linear)"/>
<path d="M62.8702 57.9243H64.751L63.0792 61.1633L64.751 64.4546H62.8702L61.1985 61.1633L62.8702 57.9243Z" fill="url(#paint41_linear)"/>
<path d="M65.8483 57.9243H67.7291L66.0573 61.1633L67.7291 64.4546H65.8483L64.1766 61.1633L65.8483 57.9243Z" fill="url(#paint42_linear)"/>
<path d="M53.1532 68.2683V54.1106V57.9243H61.7733L60.1015 61.1633L61.7733 64.4546H53.1532V68.2683Z" fill="url(#paint43_linear)"/>
<path d="M62.8702 57.9243H64.751L63.0792 61.1633L64.751 64.4546H62.8702L61.1985 61.1633L62.8702 57.9243Z" fill="url(#paint44_linear)"/>
<path d="M65.8483 57.9243H67.7291L66.0573 61.1633L67.7291 64.4546H65.8483L64.1766 61.1633L65.8483 57.9243Z" fill="url(#paint45_linear)"/>
<path d="M49.18 52.4717L38.0001 45.3667L49.18 38.314V42.1277H57.8L56.1282 45.3667L57.8 48.658H49.18V52.4717Z" fill="url(#paint46_linear)"/>
<path d="M58.897 42.1276H60.7777L59.1059 45.3667L60.7777 48.658H58.897L57.2252 45.3667L58.897 42.1276Z" fill="url(#paint47_linear)"/>
<path d="M61.8751 42.1276H63.7558L62.084 45.3667L63.7558 48.658H61.8751L60.2033 45.3667L61.8751 42.1276Z" fill="url(#paint48_linear)"/>
<path d="M49.18 52.4717V38.314V42.1277H57.8L56.1282 45.3667L57.8 48.658H49.18V52.4717Z" fill="url(#paint49_linear)"/>
<path d="M58.897 42.1276H60.7777L59.1059 45.3667L60.7777 48.658H58.897L57.2252 45.3667L58.897 42.1276Z" fill="url(#paint50_linear)"/>
<path d="M61.8751 42.1276H63.7558L62.084 45.3667L63.7558 48.658H61.8751L60.2033 45.3667L61.8751 42.1276Z" fill="url(#paint51_linear)"/>
<defs>
<linearGradient id="paint0_linear" x1="8.20314" y1="85.5685" x2="131.885" y2="85.5685" gradientUnits="userSpaceOnUse">
<stop stop-color="#E7EFF5"/>
<stop offset="0.2574" stop-color="#C3C5D2"/>
<stop offset="0.3352" stop-color="#C6C8D5"/>
<stop offset="0.3997" stop-color="#CED3DD"/>
<stop offset="0.4592" stop-color="#DDE4EC"/>
<stop offset="0.4655" stop-color="#DFE6EE"/>
<stop offset="0.5693" stop-color="#98A5B5"/>
<stop offset="0.995" stop-color="#7E8EA0"/>
</linearGradient>
<linearGradient id="paint1_linear" x1="-0.106419" y1="85.9148" x2="133.097" y2="85.9148" gradientUnits="userSpaceOnUse">
<stop stop-color="#475375"/>
<stop offset="0.406195" stop-color="#2E354E"/>
<stop offset="0.522558" stop-color="#3C4661"/>
<stop offset="0.642676" stop-color="#2C3045"/>
</linearGradient>
<linearGradient id="paint2_linear" x1="3.5" y1="48" x2="136" y2="45" gradientUnits="userSpaceOnUse">
<stop stop-color="#545F7C"/>
<stop offset="0.494792" stop-color="#45516D"/>
<stop offset="0.995" stop-color="#344265"/>
</linearGradient>
<linearGradient id="paint3_linear" x1="3.5" y1="46" x2="136" y2="43" gradientUnits="userSpaceOnUse">
<stop stop-color="#687699"/>
<stop offset="0.995" stop-color="#526084"/>
</linearGradient>
<linearGradient id="paint4_linear" x1="72.085" y1="38.0994" x2="116.998" y2="38.0994" gradientUnits="userSpaceOnUse">
<stop stop-color="#1E4644"/>
<stop offset="0.995" stop-color="#062727"/>
</linearGradient>
<linearGradient id="paint5_linear" x1="74.9675" y1="38.0882" x2="83.0259" y2="38.0882" gradientUnits="userSpaceOnUse">
<stop stop-color="#1E4644"/>
<stop offset="0.995" stop-color="#062727"/>
</linearGradient>
<linearGradient id="paint6_linear" x1="71.9895" y1="38.0882" x2="80.0478" y2="38.0882" gradientUnits="userSpaceOnUse">
<stop stop-color="#1E4644"/>
<stop offset="0.995" stop-color="#062727"/>
</linearGradient>
<linearGradient id="paint7_linear" x1="76.1175" y1="38.0994" x2="95.6707" y2="38.0994" gradientUnits="userSpaceOnUse">
<stop stop-color="#1E4644"/>
<stop offset="0.995" stop-color="#062727"/>
</linearGradient>
<linearGradient id="paint8_linear" x1="74.9675" y1="38.0882" x2="83.0259" y2="38.0882" gradientUnits="userSpaceOnUse">
<stop stop-color="#1E4644"/>
<stop offset="0.995" stop-color="#062727"/>
</linearGradient>
<linearGradient id="paint9_linear" x1="71.9895" y1="38.0882" x2="80.0478" y2="38.0882" gradientUnits="userSpaceOnUse">
<stop stop-color="#1E4644"/>
<stop offset="0.995" stop-color="#062727"/>
</linearGradient>
<linearGradient id="paint10_linear" x1="76.0584" y1="53.896" x2="120.972" y2="53.896" gradientUnits="userSpaceOnUse">
<stop stop-color="#1E4644"/>
<stop offset="0.995" stop-color="#062727"/>
</linearGradient>
<linearGradient id="paint11_linear" x1="78.9409" y1="53.885" x2="86.9993" y2="53.885" gradientUnits="userSpaceOnUse">
<stop stop-color="#1E4644"/>
<stop offset="0.995" stop-color="#062727"/>
</linearGradient>
<linearGradient id="paint12_linear" x1="75.9629" y1="53.885" x2="84.0211" y2="53.885" gradientUnits="userSpaceOnUse">
<stop stop-color="#1E4644"/>
<stop offset="0.995" stop-color="#062727"/>
</linearGradient>
<linearGradient id="paint13_linear" x1="80.0908" y1="53.896" x2="99.6441" y2="53.896" gradientUnits="userSpaceOnUse">
<stop stop-color="#1E4644"/>
<stop offset="0.995" stop-color="#062727"/>
</linearGradient>
<linearGradient id="paint14_linear" x1="78.9409" y1="53.885" x2="86.9993" y2="53.885" gradientUnits="userSpaceOnUse">
<stop stop-color="#1E4644"/>
<stop offset="0.995" stop-color="#062727"/>
</linearGradient>
<linearGradient id="paint15_linear" x1="75.9629" y1="53.885" x2="84.0211" y2="53.885" gradientUnits="userSpaceOnUse">
<stop stop-color="#1E4644"/>
<stop offset="0.995" stop-color="#062727"/>
</linearGradient>
<linearGradient id="paint16_linear" x1="69.9149" y1="62.1689" x2="25.0017" y2="62.1689" gradientUnits="userSpaceOnUse">
<stop stop-color="#1E4644"/>
<stop offset="0.995" stop-color="#062727"/>
</linearGradient>
<linearGradient id="paint17_linear" x1="67.0323" y1="62.18" x2="58.974" y2="62.18" gradientUnits="userSpaceOnUse">
<stop stop-color="#1E4644"/>
<stop offset="0.995" stop-color="#062727"/>
</linearGradient>
<linearGradient id="paint18_linear" x1="70.0104" y1="62.18" x2="61.9521" y2="62.18" gradientUnits="userSpaceOnUse">
<stop stop-color="#1E4644"/>
<stop offset="0.995" stop-color="#062727"/>
</linearGradient>
<linearGradient id="paint19_linear" x1="65.8824" y1="62.1689" x2="46.3292" y2="62.1689" gradientUnits="userSpaceOnUse">
<stop stop-color="#1E4644"/>
<stop offset="0.995" stop-color="#062727"/>
</linearGradient>
<linearGradient id="paint20_linear" x1="67.0323" y1="62.18" x2="58.974" y2="62.18" gradientUnits="userSpaceOnUse">
<stop stop-color="#1E4644"/>
<stop offset="0.995" stop-color="#062727"/>
</linearGradient>
<linearGradient id="paint21_linear" x1="70.0104" y1="62.18" x2="61.9521" y2="62.18" gradientUnits="userSpaceOnUse">
<stop stop-color="#1E4644"/>
<stop offset="0.995" stop-color="#062727"/>
</linearGradient>
<linearGradient id="paint22_linear" x1="65.9416" y1="46.3723" x2="21.0285" y2="46.3723" gradientUnits="userSpaceOnUse">
<stop stop-color="#1E4644"/>
<stop offset="0.995" stop-color="#062727"/>
</linearGradient>
<linearGradient id="paint23_linear" x1="63.0591" y1="46.3833" x2="55.0007" y2="46.3833" gradientUnits="userSpaceOnUse">
<stop stop-color="#1E4644"/>
<stop offset="0.995" stop-color="#062727"/>
</linearGradient>
<linearGradient id="paint24_linear" x1="66.0371" y1="46.3833" x2="57.9789" y2="46.3833" gradientUnits="userSpaceOnUse">
<stop stop-color="#1E4644"/>
<stop offset="0.995" stop-color="#062727"/>
</linearGradient>
<linearGradient id="paint25_linear" x1="61.9092" y1="46.3723" x2="42.3559" y2="46.3723" gradientUnits="userSpaceOnUse">
<stop stop-color="#1E4644"/>
<stop offset="0.995" stop-color="#062727"/>
</linearGradient>
<linearGradient id="paint26_linear" x1="63.0591" y1="46.3833" x2="55.0007" y2="46.3833" gradientUnits="userSpaceOnUse">
<stop stop-color="#1E4644"/>
<stop offset="0.995" stop-color="#062727"/>
</linearGradient>
<linearGradient id="paint27_linear" x1="66.0371" y1="46.3833" x2="57.9789" y2="46.3833" gradientUnits="userSpaceOnUse">
<stop stop-color="#1E4644"/>
<stop offset="0.995" stop-color="#062727"/>
</linearGradient>
<linearGradient id="paint28_linear" x1="71.085" y1="37.0994" x2="115.998" y2="37.0994" gradientUnits="userSpaceOnUse">
<stop stop-color="#30EEE5"/>
<stop offset="0.995" stop-color="#15C8D3"/>
</linearGradient>
<linearGradient id="paint29_linear" x1="73.9675" y1="37.0882" x2="82.0259" y2="37.0882" gradientUnits="userSpaceOnUse">
<stop stop-color="#30EEE5"/>
<stop offset="0.995" stop-color="#15C8D3"/>
</linearGradient>
<linearGradient id="paint30_linear" x1="70.9895" y1="37.0882" x2="79.0478" y2="37.0882" gradientUnits="userSpaceOnUse">
<stop stop-color="#30EEE5"/>
<stop offset="0.995" stop-color="#15C8D3"/>
</linearGradient>
<linearGradient id="paint31_linear" x1="75.1175" y1="37.0994" x2="94.6707" y2="37.0994" gradientUnits="userSpaceOnUse">
<stop stop-color="#30EEE5"/>
<stop offset="0.995" stop-color="#15C8D3"/>
</linearGradient>
<linearGradient id="paint32_linear" x1="73.9675" y1="37.0882" x2="82.0259" y2="37.0882" gradientUnits="userSpaceOnUse">
<stop stop-color="#30EEE5"/>
<stop offset="0.995" stop-color="#15C8D3"/>
</linearGradient>
<linearGradient id="paint33_linear" x1="70.9895" y1="37.0882" x2="79.0478" y2="37.0882" gradientUnits="userSpaceOnUse">
<stop stop-color="#30EEE5"/>
<stop offset="0.995" stop-color="#15C8D3"/>
</linearGradient>
<linearGradient id="paint34_linear" x1="75.0584" y1="52.896" x2="119.972" y2="52.896" gradientUnits="userSpaceOnUse">
<stop stop-color="#30EEE5"/>
<stop offset="0.995" stop-color="#15C8D3"/>
</linearGradient>
<linearGradient id="paint35_linear" x1="77.9409" y1="52.885" x2="85.9993" y2="52.885" gradientUnits="userSpaceOnUse">
<stop stop-color="#30EEE5"/>
<stop offset="0.995" stop-color="#15C8D3"/>
</linearGradient>
<linearGradient id="paint36_linear" x1="74.9629" y1="52.885" x2="83.0211" y2="52.885" gradientUnits="userSpaceOnUse">
<stop stop-color="#30EEE5"/>
<stop offset="0.995" stop-color="#15C8D3"/>
</linearGradient>
<linearGradient id="paint37_linear" x1="79.0908" y1="52.896" x2="98.6441" y2="52.896" gradientUnits="userSpaceOnUse">
<stop stop-color="#30EEE5"/>
<stop offset="0.995" stop-color="#15C8D3"/>
</linearGradient>
<linearGradient id="paint38_linear" x1="77.9409" y1="52.885" x2="85.9993" y2="52.885" gradientUnits="userSpaceOnUse">
<stop stop-color="#30EEE5"/>
<stop offset="0.995" stop-color="#15C8D3"/>
</linearGradient>
<linearGradient id="paint39_linear" x1="74.9629" y1="52.885" x2="83.0211" y2="52.885" gradientUnits="userSpaceOnUse">
<stop stop-color="#30EEE5"/>
<stop offset="0.995" stop-color="#15C8D3"/>
</linearGradient>
<linearGradient id="paint40_linear" x1="68.9149" y1="61.1689" x2="24.0017" y2="61.1689" gradientUnits="userSpaceOnUse">
<stop stop-color="#30EEE5"/>
<stop offset="0.995" stop-color="#15C8D3"/>
</linearGradient>
<linearGradient id="paint41_linear" x1="66.0323" y1="61.18" x2="57.974" y2="61.18" gradientUnits="userSpaceOnUse">
<stop stop-color="#30EEE5"/>
<stop offset="0.995" stop-color="#15C8D3"/>
</linearGradient>
<linearGradient id="paint42_linear" x1="69.0104" y1="61.18" x2="60.9521" y2="61.18" gradientUnits="userSpaceOnUse">
<stop stop-color="#30EEE5"/>
<stop offset="0.995" stop-color="#15C8D3"/>
</linearGradient>
<linearGradient id="paint43_linear" x1="64.8824" y1="61.1689" x2="45.3292" y2="61.1689" gradientUnits="userSpaceOnUse">
<stop stop-color="#30EEE5"/>
<stop offset="0.995" stop-color="#15C8D3"/>
</linearGradient>
<linearGradient id="paint44_linear" x1="66.0323" y1="61.18" x2="57.974" y2="61.18" gradientUnits="userSpaceOnUse">
<stop stop-color="#30EEE5"/>
<stop offset="0.995" stop-color="#15C8D3"/>
</linearGradient>
<linearGradient id="paint45_linear" x1="69.0104" y1="61.18" x2="60.9521" y2="61.18" gradientUnits="userSpaceOnUse">
<stop stop-color="#30EEE5"/>
<stop offset="0.995" stop-color="#15C8D3"/>
</linearGradient>
<linearGradient id="paint46_linear" x1="64.9416" y1="45.3723" x2="20.0285" y2="45.3723" gradientUnits="userSpaceOnUse">
<stop stop-color="#30EEE5"/>
<stop offset="0.995" stop-color="#15C8D3"/>
</linearGradient>
<linearGradient id="paint47_linear" x1="62.0591" y1="45.3833" x2="54.0007" y2="45.3833" gradientUnits="userSpaceOnUse">
<stop stop-color="#30EEE5"/>
<stop offset="0.995" stop-color="#15C8D3"/>
</linearGradient>
<linearGradient id="paint48_linear" x1="65.0371" y1="45.3833" x2="56.9789" y2="45.3833" gradientUnits="userSpaceOnUse">
<stop stop-color="#30EEE5"/>
<stop offset="0.995" stop-color="#15C8D3"/>
</linearGradient>
<linearGradient id="paint49_linear" x1="60.9092" y1="45.3723" x2="41.3559" y2="45.3723" gradientUnits="userSpaceOnUse">
<stop stop-color="#30EEE5"/>
<stop offset="0.995" stop-color="#15C8D3"/>
</linearGradient>
<linearGradient id="paint50_linear" x1="62.0591" y1="45.3833" x2="54.0007" y2="45.3833" gradientUnits="userSpaceOnUse">
<stop stop-color="#30EEE5"/>
<stop offset="0.995" stop-color="#15C8D3"/>
</linearGradient>
<linearGradient id="paint51_linear" x1="65.0371" y1="45.3833" x2="56.9789" y2="45.3833" gradientUnits="userSpaceOnUse">
<stop stop-color="#30EEE5"/>
<stop offset="0.995" stop-color="#15C8D3"/>
</linearGradient>
</defs>
</svg>
