<svg width="140" height="140" viewBox="0 0 140 140" fill="none" xmlns="http://www.w3.org/2000/svg">
<path d="M0.0917969 32.3258V110.234C0.0917969 113.107 1.59508 115.719 4.01342 117.221L34.1446 137.4C39.5695 140.731 46.3669 140.731 51.8572 137.4L102.119 102.658C104.538 101.156 106.041 98.5443 106.041 95.6709V17.7629L0.0917969 32.3258Z" fill="url(#paint0_linear)"/>
<path d="M103.296 25.1813L52.1188 56.4621C46.4978 59.9232 39.3736 59.9232 33.7526 56.4621L1.85668 38.0462C-0.823092 36.4136 -0.561659 32.4301 2.37956 31.1893L61.7267 3.17377C65.4523 1.60647 69.6354 1.60647 73.2956 3.17377L102.642 15.2551C106.825 17.0836 107.218 22.8957 103.296 25.1813Z" fill="url(#paint1_linear)"/>
<path d="M103.296 23.183L52.1188 54.4638C46.4978 57.9249 39.3736 57.9249 33.7526 54.4638L1.85668 36.048C-0.823092 34.4153 -0.561659 30.4318 2.37956 29.191L61.7267 1.17548C65.4523 -0.391826 69.6354 -0.391826 73.2956 1.17548L102.642 13.2568C106.825 15.0853 107.218 20.8974 103.296 23.183Z" fill="url(#paint2_linear)"/>
<path d="M65.0601 90.7143C65.0601 90.547 65.1437 90.3909 65.2829 90.2981L65.6556 90.0499C65.9879 89.8286 66.4328 90.0668 66.4328 90.4661V119.37C66.4328 119.537 66.3491 119.693 66.2099 119.786L65.8373 120.034C65.505 120.256 65.0601 120.017 65.0601 119.618V90.7143ZM68.1974 117.398C68.1974 117.797 68.6423 118.035 68.9746 117.814L69.3472 117.566C69.4864 117.473 69.57 117.317 69.57 117.15V86.6785C69.57 86.2792 69.1251 86.041 68.7928 86.2623L68.4203 86.5105C68.2811 86.6032 68.1974 86.7594 68.1974 86.9266V117.398ZM71.4001 115.243C71.4001 115.642 71.845 115.88 72.1773 115.659L72.5499 115.411C72.6891 115.318 72.7727 115.162 72.7727 114.994V82.8908C72.7727 82.4916 72.3278 82.2534 71.9955 82.4747L71.6229 82.7229C71.4837 82.8156 71.4001 82.9717 71.4001 83.139V115.243ZM74.5374 113.088C74.5374 113.487 74.9823 113.725 75.3145 113.504L75.6872 113.256C75.8264 113.163 75.91 113.007 75.91 112.839V79.1031C75.91 78.7039 75.4651 78.4657 75.1328 78.687L74.7602 78.9352C74.621 79.0279 74.5374 79.1841 74.5374 79.3513V113.088ZM77.74 110.933C77.74 111.332 78.1849 111.57 78.5172 111.349L78.8898 111.101C79.029 111.008 79.1126 110.852 79.1126 110.684V75.3155C79.1126 74.9163 78.6677 74.6781 78.3354 74.8994L77.9629 75.1476C77.8237 75.2403 77.74 75.3964 77.74 75.5637V110.933ZM80.9427 108.712C80.9427 109.111 81.3876 109.35 81.7199 109.128L82.0925 108.88C82.2316 108.787 82.3153 108.631 82.3153 108.464V71.4626C82.3153 71.0633 81.8704 70.8251 81.5381 71.0464L81.1655 71.2946C81.0263 71.3873 80.9427 71.5435 80.9427 71.7107V108.712ZM84.08 106.557C84.08 106.956 84.5249 107.195 84.8572 106.973L85.2298 106.725C85.369 106.632 85.4526 106.476 85.4526 106.309V67.7402C85.4526 67.341 85.0077 67.1028 84.6754 67.3241L84.3029 67.5723C84.1637 67.665 84.08 67.8211 84.08 67.9884V106.557ZM87.2173 104.402C87.2173 104.801 87.6622 105.04 87.9945 104.818L88.367 104.57C88.5062 104.477 88.5898 104.321 88.5898 104.154V63.8873C88.5898 63.488 88.145 63.2498 87.8127 63.4712L87.4401 63.7193C87.3009 63.812 87.2173 63.9682 87.2173 64.1354V104.402ZM90.42 102.182C90.42 102.581 90.8649 102.819 91.1972 102.598L91.5697 102.35C91.7089 102.257 91.7925 102.101 91.7925 101.934V60.0996C91.7925 59.7004 91.3476 59.4622 91.0153 59.6835L90.6428 59.9317C90.5036 60.0244 90.42 60.1806 90.42 60.3478V102.182ZM93.7668 56.2082C93.6353 56.302 93.5573 56.4536 93.5573 56.6152V100.027C93.5573 100.426 94.0022 100.664 94.3345 100.443L94.707 100.195C94.8462 100.102 94.9298 99.9458 94.9298 99.7786V56.3493C94.9298 55.9427 94.4703 55.7061 94.1394 55.9423L93.7668 56.2082Z" fill="#2FAAAF"/>
<path d="M31.9875 58.1206L9.76496 45.321C9.11136 44.9292 8.39242 44.668 7.67346 44.668C5.38585 44.668 3.55573 46.5618 3.55573 48.9127V75.4916C3.55573 76.7324 4.20935 77.9078 5.25512 78.5609L15.1899 84.8954C18.0658 86.7239 19.8958 90.0544 19.8958 93.5809V115.915C19.8958 117.156 20.5494 118.396 21.6606 119.05L30.0267 124.078C30.7456 124.6 31.5299 124.862 32.3796 124.862C34.4712 124.862 36.6935 123.164 36.6935 120.421V66.8714C36.6935 63.2797 34.8633 59.9492 31.9875 58.1206Z" fill="url(#paint3_linear)"/>
<path d="M9.70028 110.429C9.56956 110.429 9.43885 110.364 9.30813 110.298L5.5172 107.752C5.1904 107.556 4.99432 107.229 4.99432 106.837V103.703C4.99432 103.441 5.25577 103.246 5.45185 103.246C5.51721 103.246 5.58259 103.311 5.71331 103.311L9.76562 105.858C10.1578 106.119 10.4192 106.511 10.4192 106.968V109.645C10.4192 109.841 10.3539 110.037 10.2232 110.168C10.0924 110.364 9.89636 110.429 9.70028 110.429ZM9.70028 101.744C9.56956 101.744 9.43885 101.678 9.30813 101.613L5.5172 99.0661C5.1904 98.8702 4.99432 98.5437 4.99432 98.1519V95.0172C4.99432 94.756 5.25577 94.5601 5.45185 94.5601C5.51721 94.5601 5.58259 94.6254 5.71331 94.6254L9.76562 97.1723C10.1578 97.4335 10.4192 97.8253 10.4192 98.2825V100.96C10.4192 101.156 10.3539 101.352 10.2232 101.482C10.0924 101.678 9.89636 101.744 9.70028 101.744ZM9.70028 93.3846C9.56956 93.3846 9.43885 93.3193 9.30813 93.254L5.5172 90.7072C5.1904 90.5112 4.99432 90.1847 4.99432 89.7929V86.6583C4.99432 86.3971 5.25577 86.2012 5.45185 86.2012C5.51721 86.2012 5.58259 86.2012 5.71331 86.2665L9.76562 88.8133C10.1578 89.0746 10.4192 89.4664 10.4192 89.9235V92.601C10.4192 93.0581 10.0924 93.3846 9.70028 93.3846Z" fill="#2ED8CF"/>
<path d="M5.51763 86.2664C5.58299 86.2664 5.64838 86.2664 5.71374 86.3317L9.76605 88.8785C10.0929 89.0744 10.3543 89.5316 10.3543 89.9234V92.6009C10.3543 92.9927 10.0275 93.2539 9.7007 93.2539C9.56998 93.2539 9.43926 93.1886 9.3739 93.1886L5.58301 90.6417C5.25621 90.4458 5.12548 90.1193 5.12548 89.7928V86.6582C5.12548 86.397 5.32154 86.2664 5.51763 86.2664ZM5.51763 94.6253C5.58299 94.6253 5.64838 94.6253 5.71374 94.6906L9.76605 97.2375C10.1582 97.4334 10.3543 97.8905 10.3543 98.2823V100.96C10.3543 101.352 10.0275 101.613 9.7007 101.613C9.56998 101.613 9.43926 101.548 9.3739 101.548L5.58301 99.0007C5.25621 98.8048 5.12548 98.4783 5.12548 98.1517V95.0171C5.12548 94.8212 5.32154 94.6253 5.51763 94.6253ZM5.51763 103.376C5.58299 103.376 5.64838 103.376 5.71374 103.441L9.76605 105.988C10.1582 106.184 10.3543 106.641 10.3543 107.033V109.711C10.3543 110.102 10.0275 110.364 9.7007 110.364C9.56998 110.364 9.43926 110.298 9.3739 110.298L5.58301 107.751C5.25621 107.556 5.12548 107.229 5.12548 106.903V103.768C5.12548 103.507 5.32154 103.376 5.51763 103.376ZM5.51763 86.1357C5.25618 86.1357 4.99475 86.3317 4.99475 86.6582V89.7928C4.99475 90.1846 5.19082 90.5764 5.51763 90.7723L9.30856 93.3192C9.43928 93.3845 9.56998 93.4498 9.7007 93.4498C10.1582 93.4498 10.5504 93.1233 10.5504 92.6009V89.9234C10.5504 89.401 10.2889 89.0091 9.89678 88.6826L5.77908 86.2011C5.71372 86.1357 5.58299 86.1357 5.51763 86.1357ZM5.51763 94.4947C5.25618 94.4947 4.99475 94.6906 4.99475 95.0171V98.1517C4.99475 98.5436 5.19082 98.9354 5.51763 99.1313L9.30856 101.678C9.43928 101.743 9.56998 101.809 9.7007 101.809C10.1582 101.809 10.5504 101.482 10.5504 100.96V98.2823C10.5504 97.7599 10.2889 97.3681 9.89678 97.0416L5.84443 94.4947C5.64835 94.56 5.58299 94.4947 5.51763 94.4947ZM5.51763 103.18C5.25618 103.18 4.99475 103.376 4.99475 103.703V106.837C4.99475 107.229 5.19082 107.621 5.51763 107.817L9.30856 110.364C9.43928 110.429 9.56998 110.494 9.7007 110.494C10.1582 110.494 10.5504 110.168 10.5504 109.645V106.968C10.5504 106.445 10.2889 106.054 9.89678 105.727L5.84443 103.18C5.64835 103.245 5.58299 103.18 5.51763 103.18Z" fill="#0A396F"/>
<path d="M29.4389 95.5403V101.026L27.3474 99.7851V94.2996L29.4389 95.5403ZM27.4127 107.883L29.5043 109.124V103.638L27.4127 102.397V107.883ZM27.4127 115.85L29.5043 117.091V111.605L27.4127 110.364V115.85Z" fill="#0C1116"/>
<path d="M28.0665 94.6914V100.177L27.4129 99.7851V94.2996L28.0665 94.6914ZM27.4129 107.883L28.0665 108.275V102.789L27.4129 102.397V107.883ZM27.4129 115.85L28.0665 116.242V110.756L27.4129 110.364V115.85Z" fill="#8A99CD"/>
<path d="M28.262 63.0843V63.9986L7.34668 51.7867V50.9377L28.262 63.0843ZM7.34668 54.856L28.262 67.0679V66.1536L7.34668 53.9417V54.856ZM7.34668 57.7294L28.262 69.9413V69.027L7.34668 56.8151V57.7294ZM7.34668 60.7334L28.262 72.9453V72.031L7.34668 59.8191V60.7334ZM7.34668 63.6068L28.262 75.8187V74.9044L7.34668 62.6925V63.6068Z" fill="url(#paint4_linear)"/>
<path d="M139.854 102.903C139.854 123.238 123.308 139.843 102.918 139.843C93.6568 139.843 85.1642 136.405 78.6484 130.736C70.8879 123.933 65.9827 113.985 65.9827 102.903C65.9827 102.281 65.9827 101.696 66.0193 101.111C66.0193 100.965 66.0193 100.782 66.0559 100.635C66.0925 100.014 66.1292 99.3553 66.239 98.7335C66.3854 97.5631 66.5684 96.4293 66.7881 95.2589C66.8613 94.8932 66.9711 94.4908 67.0443 94.1251C67.1541 93.6496 67.3005 93.1742 67.4104 92.7353C67.9228 90.9431 68.5818 89.2241 69.3139 87.5783C69.6067 86.9565 69.9362 86.3347 70.229 85.7129C70.229 85.6764 70.2656 85.6398 70.3022 85.6032C70.3388 85.5301 70.3754 85.4204 70.4487 85.3472C70.4487 85.3106 70.4853 85.3106 70.4853 85.2741C71.071 84.2134 71.6567 83.2259 72.3522 82.2384C73.2673 80.8851 74.2557 79.605 75.3539 78.398C75.6467 78.0689 75.9395 77.7397 76.2324 77.4105C76.6717 76.9351 77.1475 76.4596 77.6234 76.0207C78.1359 75.5452 78.685 75.0698 79.2341 74.5943C80.4055 73.6068 81.6501 72.6924 82.9679 71.8512C83.0411 71.8146 83.1143 71.778 83.1875 71.7049C84.8348 70.6442 86.5919 69.7299 88.3856 68.9618C88.5686 68.8887 88.7516 68.8155 88.8981 68.7424C88.9347 68.7424 88.9713 68.7058 89.0079 68.7058C90.1427 68.2669 91.3141 67.828 92.4854 67.4988C93.0345 67.316 93.5836 67.1697 94.1693 67.0599C94.389 66.9868 94.6086 66.9502 94.8648 66.8771C97.0978 66.365 99.404 66.0724 101.82 65.9993C102.003 65.9993 102.186 65.9993 102.406 65.9993C102.589 65.9993 102.772 65.9993 102.955 65.9993C112.875 65.9993 121.88 69.9127 128.506 76.2767C135.497 82.9699 139.854 92.4427 139.854 102.903Z" fill="url(#paint5_radial)"/>
<path d="M87.3609 127.81V127.591L87.2877 127.335L87.3609 127.262V127.115L87.2877 127.006V126.823L87.1412 126.75L87.068 126.859V127.042L86.885 127.262H86.8484L86.7752 127.408L86.8484 127.481L86.702 127.627V127.81L86.4457 128.066L86.3725 127.993L86.2261 128.139L86.1529 128.322L85.8966 128.432L85.7136 128.651H85.4574L85.3842 128.578L85.3476 128.651H85.0181L84.9083 128.761L84.8351 128.688L84.7253 128.761H84.652L84.7253 128.834L84.5422 129.017L84.3592 129.237L84.5056 129.419L84.3958 129.493L84.4324 129.529V129.712L84.5056 130.005L84.5788 130.151V130.224V130.297V130.37L84.469 130.7L84.3958 130.773L84.3226 131.029H84.286L84.2128 131.102V131.285L84.0663 131.431L83.9565 131.468V131.614L83.8101 131.76V132.053L83.9931 132.272L83.9565 132.345H84.0297V132.638L83.9199 132.711V133.004L83.9931 133.077L84.0663 133.15L84.1396 133.26L84.2494 133.223L84.3226 133.333L84.469 133.479H84.652L84.7253 133.443L84.7985 133.296L85.2377 133.26H85.3476L85.4208 133.223L85.494 133.15L85.5672 133.04L85.6404 132.894V132.748L85.7136 132.675L85.5672 132.528L85.7868 132.382V132.126H85.9699V132.089L86.0431 131.76L86.1163 131.577V131.504L86.1895 131.248L86.3725 131.065L86.5189 130.59L86.5922 130.48V130.334L86.6654 130.151L86.702 130.041L86.8118 129.858L86.885 129.602L86.9582 129.383L86.9948 129.31L87.0314 129.237L86.9582 129.163V128.907L87.1412 128.761V128.688L87.2145 128.615L87.068 128.469L87.1412 128.395V127.92H87.5073L87.5805 127.993L87.3609 127.81ZM78.8317 130.882L78.9049 130.956V130.919C78.8683 130.919 78.8317 130.882 78.8317 130.882ZM78.9049 130.956L78.8683 131.065L78.9415 130.992L78.9049 130.956ZM88.2394 114.351L88.1296 114.241L88.2028 114.058L88.093 113.948L88.1662 113.875H87.91L87.8368 113.948L87.6903 114.022L87.5439 114.168L87.4707 114.095L87.3243 114.168L86.9582 114.241H86.8118L86.7386 114.168H86.6654L86.5189 114.241H86.3725L86.2261 114.314L86.1163 114.241H86.0797L85.7502 114.46L85.5306 114.534H85.4574H85.1279L84.9815 114.607H84.8717L84.7985 114.68L84.7253 114.753L84.5056 114.826L84.286 114.753L84.2128 114.68H84.1396L84.0663 114.497L83.7369 114.131L83.6637 114.168H83.5539L83.1146 113.729H83.5905L83.6637 113.619H83.7369L83.7735 113.583V113.51L83.7369 113.473L83.5539 113.4H83.4074L83.261 113.034L83.1878 112.961L83.1146 112.815H83.0414L82.895 112.668L82.7851 112.595L82.6387 112.449L82.4557 112.266L82.3093 112.193L82.236 112.12L82.1628 112.193L82.0896 112.12L82.0164 112.193L81.9432 112.12L81.5039 111.937L81.4307 111.754L81.3941 111.681L81.3209 111.608V111.535H81.2477L81.1013 110.986L80.9182 110.437L80.5156 110.035H80.7352V109.852L80.5888 109.779L80.4058 109.706L80.2227 109.45L80.1495 109.121L80.1861 108.938L80.1495 108.755L80.0031 108.316V108.097V108.023L79.9299 107.95L79.8567 107.877V107.804L79.7834 107.731V107.621H79.7468L79.5272 107.438L79.3442 107.365V107.292H79.2344L79.0147 107.109L78.8317 106.67L78.9049 106.597L78.8683 106.56V106.487L78.7951 106.414L78.7219 106.231L78.5388 106.012L78.3924 105.939L78.3192 105.756L77.9532 105.207V105.024L77.9165 104.951L77.8799 104.768L77.8067 104.695V104.659L77.6237 104.476V104.256L77.6603 104.183L77.3675 103.89L77.2942 103.744L77.0746 103.452V103.342L76.9648 103.196V102.976L77.1844 102.72L77.221 102.757L77.1478 102.537L77.038 102.464L76.9648 102.318H76.5987L76.4157 102.391L76.3425 102.318L76.2693 102.391L76.1229 102.464L75.9398 102.647H75.647L75.4639 102.537H75.5006L75.3541 102.464L75.2809 102.537L75.0613 102.354L74.9149 102.318L74.4756 102.245H74.3292L74.1461 102.427L73.9997 102.062L73.9265 101.989L73.8533 102.025L73.414 101.952L73.3774 101.915H73.3042V102.062L72.9381 101.842H72.8649L72.6819 101.806L72.6453 101.842L72.4623 101.769L72.3524 101.842L72.0596 101.915L71.8766 101.989L71.8033 102.062L71.7301 102.208L71.6935 102.245V102.427L71.7667 102.537L71.84 102.83L71.7667 103.013L71.5471 103.232L71.3275 103.415L71.1078 103.488L70.7418 103.305L70.5221 103.122L70.3757 103.049L70.1561 102.976L69.79 102.83H69.7168H69.3874L69.1311 102.647L68.9481 102.208V102.062L68.9115 101.989L68.6552 101.952L68.4722 101.842H68.216L68.0695 101.806L67.7035 101.842L67.3374 101.769L67.191 101.623H67.1178H67.0812L66.8981 101.44L66.8615 101.403L66.7883 101.477L66.6053 101.294H66.5687L66.2758 101.111L66.2392 101.038C66.2026 101.623 66.2026 102.245 66.2026 102.83C66.2026 113.912 71.1078 123.897 78.8683 130.663V130.626L78.7951 130.444L78.8683 130.37L78.8317 130.334V130.041H79.0879H79.1245H79.1611V129.968L79.6004 129.676H79.6736L79.7102 129.639V129.566L79.9299 129.419L79.9665 129.346L80.0031 129.31L80.1861 128.761L80.2227 128.871V128.725L80.479 128.981L80.5888 128.907H80.6254V128.725L80.9182 128.834L81.1013 128.725L81.1379 128.651H81.3575L81.5771 128.542V128.359H81.7968V128.286L81.8334 128.213L81.6504 128.03L81.8334 127.847L81.9798 127.7V127.591V127.518H81.9432L81.7968 127.371V127.188L81.6137 127.006H81.9432V126.896L81.87 126.713L81.9432 126.64L81.9066 126.603V126.311L81.8334 126.018V125.835L81.9066 125.762L81.8334 125.689L81.9798 125.543V125.506L81.9432 125.469L81.7968 125.396L81.5039 125.104L81.5771 124.921V124.884L81.4673 124.775L81.5405 124.628L81.5039 124.555L81.1745 124.226H81.6137L81.5405 124.116L81.6137 124.043L81.5405 123.97V123.677L81.6137 123.494L81.687 123.421L81.6504 123.238L81.5771 123.165V122.946L81.7236 122.726L81.87 122.324L81.5771 122.031H82.053L82.1994 121.775L82.2727 121.629V121.483L82.4557 121.3V121.08L82.5655 120.971V120.898L82.7119 120.751H82.8583H82.9316L83.078 120.605H83.1146L83.5539 120.093V120.642L83.6271 120.532L83.7003 120.386L83.8833 120.203L83.9565 120.166L83.9931 120.093L84.0663 120.02L84.3958 119.654L84.5056 119.581L84.8717 119.215L85.0547 119.069L85.2377 118.923L85.4208 118.849L85.6404 118.667L86.1895 118.155L86.4823 117.825L86.5189 117.716L86.885 117.24V117.167L87.068 116.874V116.728L87.3975 116.106V116.033V115.85L87.6171 115.631H87.6903L87.7269 115.594L87.8368 115.338L88.0198 115.082V115.009H87.8002L88.2394 114.57H88.1662L88.2394 114.351ZM117.341 121.629L117.268 121.556L117.231 121.483L117.158 121.41L117.085 121.446L116.792 121.337V121.154L116.719 121.08L116.865 121.044L116.682 120.971V120.898V120.824V120.788L116.499 120.861V120.751H116.353L116.097 120.495V120.459L115.401 120.898L115.987 120.093H115.438L115.694 119.837H115.621L115.364 119.544V119.398L115.218 119.252L115.145 119.325L114.925 119.142V119.105L114.303 118.849H114.413L114.156 118.411V118.264H114.047L113.937 118.118L113.754 117.935H113.607L113.461 117.789H113.205V117.46H113.131L113.095 117.313H113.058L112.985 117.13H112.948L112.765 117.204L112.692 117.13H112.656L112.473 117.204L112.29 117.13L112.07 116.948L112.143 117.13L112.253 117.167L112.436 117.386H112.509L112.656 117.569L112.729 117.496L113.058 117.716L113.241 118.008L113.351 118.081H113.534V118.374V118.447H113.681L113.827 118.667H113.864H114.047V118.886H114.083L114.12 119.069V119.105L114.23 119.398V119.435H114.303L114.559 119.618V119.8L114.632 119.947L114.779 120.093L114.852 120.386L115.072 120.751L114.998 120.934L115.035 121.007L115.181 121.08L115.401 121.337L115.438 121.446L115.657 121.483V121.593L115.84 121.666V121.775H115.914L116.097 121.995L116.389 122.178V122.251H116.536L116.865 122.58H117.048L117.085 122.397L117.341 122.47L117.414 122.251L117.341 122.068L117.414 121.885L117.378 121.849L117.341 121.629ZM124.955 122.287L124.882 122.361V122.507L124.809 122.617V122.726H124.882V122.507L124.955 122.434V122.361V122.324V122.287ZM126.127 122.214V122.141H126.053L125.98 121.849H125.87L126.017 121.666L125.944 121.483L125.797 121.337L125.724 121.227L125.577 121.117V120.971L125.394 120.898L125.285 120.861L125.102 120.678L124.955 120.495L124.882 120.605H124.809L124.882 120.751L124.809 120.898V121.08L124.772 121.154V121.3L124.699 121.373V121.556L124.516 121.629V121.812H124.845V122.068L124.955 122.287L125.102 121.995L125.065 121.922L124.992 121.775V121.593L125.175 121.483L125.248 121.41L125.541 121.3L125.724 121.483L125.834 121.666V121.922L125.761 121.995L125.834 122.068L126.053 122.178V122.434L126.127 122.361H126.236L126.127 122.214ZM123.418 117.46H123.491V117.13L123.82 117.386V117.094L123.674 116.911H123.637H123.454V116.655L123.308 116.472L123.235 116.545H123.162V116.618H123.088L123.015 116.765V116.911L122.722 117.204L122.649 117.386H122.539H122.466L122.1 118.008V117.386L121.917 117.423V117.46V117.606L121.661 117.862L121.514 118.045V118.118L121.368 118.337L121.185 118.484L120.855 118.557L121.221 119.105L120.636 118.813V118.959L120.526 118.886V119.032L120.453 119.215V119.435L119.977 119.361L119.794 119.252H119.574L119.501 119.105L119.428 119.288L119.354 119.361V119.471V119.581V119.691L119.428 119.837L119.574 119.983H119.611L120.709 119.435L119.794 120.386L119.904 120.532L119.977 120.642V120.898L119.904 120.971L119.977 121.007V121.373L120.123 121.263L120.196 121.446H120.27L120.343 121.519L120.489 121.446H120.526L120.709 121.19L120.892 121.556V121.739L121.002 121.666L121.075 121.739L121.185 121.702L121.221 121.556H121.514L121.587 121.629H121.734L121.807 121.519L121.99 121.775L122.137 121.702L122.173 121.812H122.246L122.429 122.031L122.356 122.068L122.466 122.031H122.576L122.686 121.958L122.759 121.775V121.41L122.246 121.629L122.795 121.08L122.576 120.861H123.015L123.088 120.788L122.612 120.495H123.235V120.422L123.418 120.276V120.02L123.491 119.947V119.654H123.564L123.711 119.471L123.637 119.069L123.418 118.959L123.747 118.74L123.601 118.593V118.484L123.418 118.337L123.564 118.155L123.454 117.935L123.491 117.899L123.235 117.825L123.564 117.642L123.418 117.46ZM128.579 121.812H128.506H128.616H128.579ZM126.127 120.605H126.053L125.907 120.642L125.834 120.568L125.797 120.605L125.724 120.751H125.834L125.907 120.678L126.127 120.605ZM125.687 119.544L125.614 119.435L125.468 119.581H125.504H125.577L125.724 119.544H125.687ZM115.987 119.288L116.023 119.252V119.215L115.987 119.288ZM116.097 118.923L116.023 118.849V118.776L115.95 118.703L115.877 118.557L115.547 118.228L115.767 118.081V117.935L115.694 117.862V117.606L115.767 117.533V117.24V117.167L115.694 117.021L115.328 116.655H114.962V116.545L114.889 116.509L114.815 116.326V116.253H114.632L114.486 116.399L114.12 116.033L113.937 115.997V115.631L114.156 115.558L114.083 115.485V115.338H114.01L113.937 115.229L113.79 115.082V115.009L113.424 115.082L113.241 114.899L113.315 114.753L113.241 114.643V114.57L113.205 114.46L113.131 114.68L113.205 114.753L113.131 114.826H113.205V115.265L113.388 115.192V115.448L113.461 115.521V115.594L113.534 115.631L113.571 115.777H113.607L113.79 115.997L113.864 116.033L113.9 116.106H114.01V116.326L114.156 116.399L114.23 116.472L114.376 116.692L114.449 117.13L114.486 117.24L114.559 117.423L114.486 117.716L114.669 117.899L114.596 117.972L114.669 118.045L114.742 118.155L114.889 118.228L115.035 118.52L114.962 118.593L115.255 118.959L115.438 118.886L115.511 118.959H115.804L115.621 119.105L115.73 119.215L115.914 119.252L115.987 119.288V119.142L116.17 119.325V119.215L116.097 118.923ZM114.889 118.593L114.779 118.703L114.742 118.849H114.925L114.889 118.593ZM114.486 118.776L114.413 118.849H114.559L114.486 118.776ZM127.335 116.253V116.289L127.371 116.399H127.518L127.627 116.472L127.335 116.253ZM104.492 115.923V115.85L104.346 115.558V115.521H104.2V115.448H103.76L103.724 115.631V115.741L103.797 115.923L103.76 115.997L103.834 116.18L103.907 116.472H104.017L104.09 116.436H104.346L104.419 116.399L104.492 116.326L104.566 116.18L104.492 115.923ZM128.103 115.411L128.03 115.155L128.103 115.009L128.03 114.936V115.302L127.847 115.155L127.701 115.338L127.627 115.265V115.338L127.298 115.521L127.115 115.594L127.298 115.777L127.627 116.399L127.701 116.326L127.591 116.253L127.664 116.033L127.847 115.704L128.103 115.631V115.411ZM126.749 115.338V115.411L126.785 115.338H126.749ZM103.943 115.192V114.973H103.87V115.155H103.76V115.338L103.98 115.192H103.943ZM79.7102 75.7281L79.637 75.6915V75.7646L79.8201 75.8012L79.7102 75.7281ZM80.0763 74.9966V74.9234L80.0031 74.8868L79.8201 74.704V74.5942L79.637 74.5577L79.4906 74.5942L79.637 74.8137V74.8868L79.7834 75.0331L79.637 75.1794L79.7102 75.3623L79.5638 75.3989V75.5818V75.6183L79.6736 75.6549V75.3989L79.7468 75.3257L79.7102 75.2892L79.9299 75.0697H80.0763V74.9966ZM129.604 87.5051L129.751 87.3588V87.3222L129.677 87.2125V87.0662H129.641L129.568 86.6273L129.494 86.5541V86.3712L129.385 86.2615L129.275 86.0055L129.311 85.9689H129.275L129.128 85.4935V85.3837L129.092 85.3106L129.018 84.9814L129.055 84.9448L128.982 84.7254L129.018 84.6522L128.945 84.5791L129.018 84.5059L128.945 84.4328L128.872 84.2499L128.799 84.2133L128.616 84.0305V83.7745L128.652 83.7379L128.616 83.6647H128.469L128.177 83.3721L128.323 83.2258V83.1527V83.0795H128.25L128.177 82.9698H128.103L128.03 82.8967L127.774 82.7869L127.737 82.7504L127.591 82.6772L127.481 82.5675L127.444 82.4943H127.261L127.225 82.4578L127.188 82.4943H127.115L127.188 82.5675H127.078V82.7138H127.005L126.932 82.8601V82.8967L126.859 82.9698L126.932 83.043L126.859 83.2258L126.493 83.5916V83.4453L126.2 83.5184L126.127 83.4453V83.4819L125.687 83.1161L125.761 82.9332V82.8601L125.614 82.6772V82.4212L125.504 82.4578L125.358 82.6041H125.102L125.028 82.5309L124.955 82.5675L124.699 82.4578L124.589 82.2017L124.736 81.8726L124.809 81.7629V81.6166L124.955 81.4703V81.2874L125.102 81.1777V80.9948L125.175 80.9216V80.8851L125.321 80.7022L125.394 80.5559L125.468 80.4827L125.394 80.373L125.468 80.2999V80.1536L125.541 79.7147H125.614L125.651 79.5318H125.687V79.4952L125.87 79.2758L125.944 79.1295L126.017 79.0563L125.944 78.8735L126.017 78.8003V78.6906L126.09 78.6174L126.053 78.5443V78.3248L125.98 78.142L126.163 77.8859L126.273 77.7397V77.6665L126.127 77.4471L126.2 77.2276L126.31 77.1179L126.383 76.9716L126.566 76.8253L126.639 76.6424H126.932V76.679L127.078 76.5693H127.225L127.371 76.4595H127.591L127.701 76.3498H127.884L127.957 76.1669L128.213 76.2767L128.469 76.1669L128.652 76.2401C122.027 69.8761 113.022 65.9626 103.101 65.9626C102.918 65.9626 102.735 65.9626 102.552 65.9626L102.406 66.1089H102.296L101.674 66.7307L101.967 65.9992C99.5873 66.0724 97.2811 66.365 95.0115 66.877L95.4142 66.9867H94.3526C93.8035 67.133 93.2178 67.2793 92.6687 67.4256L92.7786 67.6085V67.7548H92.8152L92.8884 67.9742L92.9616 68.0108H93.0348L93.3277 68.0474L93.6937 67.6817V68.084L93.7669 68.1937L93.8401 68.2668L93.9133 68.34H94.133L94.316 68.4497H94.3526L94.5723 68.6692L94.6455 69.0349L94.7187 69.2178L94.6821 69.2909L94.8285 69.3641L95.0481 69.6933V69.8761L95.1946 69.9858L95.2678 70.2053L95.1946 70.4247H95.2312V70.4979L95.524 70.7905L95.5606 70.8271L95.5972 70.7905L95.7436 70.8636L95.8535 70.7905L96.4026 70.6442L96.2561 70.8271L96.3293 70.9002L96.4026 70.9368H96.6222L96.9516 71.9243L96.3659 71.3391H96.2195L95.9999 71.1562V71.3391V71.3757L96.3659 72.29L95.5972 71.522H95.4142L95.1946 71.3025V71.1197L95.0481 71.0831H94.8285L94.4624 70.8636H94.1696L94.0964 70.315L94.1696 70.1687L93.9866 70.0224V69.803L93.9133 69.6201L94.0964 69.4738V69.3275L94.0232 69.1812L93.95 69.1081L93.8401 69.1812L93.4741 69.2544H93.2544L93.0348 69.0349L92.8884 68.9618L92.8518 68.8886L92.5955 68.852L92.4125 68.6692L92.3393 68.596H91.9366L92.1197 68.6692L92.3393 69.0349L92.1563 69.4007L91.9 69.4738L91.5706 69.3275L91.4974 69.2909L91.4607 69.1812H91.4241L91.3509 69.2544L91.3143 69.2909H91.3875L91.4607 69.4738L91.534 69.547H91.717L91.8634 69.6933H92.0098L92.0464 69.6567H92.2661L92.3393 69.7664H92.5223L92.5955 69.9858L92.6321 70.0224V70.0956H92.7054L93.5839 69.7298L92.8152 70.4979L92.9982 70.9368L92.5589 70.4979H92.4125L92.0831 70.2784H91.9L91.6438 70.5345L91.5706 70.2784H91.4974H91.2045L91.0947 70.2053L90.9117 70.2784L90.7286 69.8395L90.8384 69.803L90.7652 69.7298V69.6933L90.6554 69.547L90.5822 69.3641L90.3992 69.547L90.4358 69.5835L90.4724 70.0224L90.3992 70.2419L90.5456 70.315L90.8384 70.571V70.6442H90.9117L91.0947 70.8271L91.2777 71.1197L91.2411 71.5586V71.6317L91.3509 71.8146L91.2777 72.0706V72.1072L91.4607 72.29L91.534 72.4729L91.6072 72.4363L91.7536 72.4729V72.4363L91.9732 72.2169L92.1563 72.29L92.3027 72.2169L92.4857 72.3266L92.6687 72.2535L92.742 72.4729L92.8884 72.5461H93.1446L93.3643 72.8021V72.8387L93.4741 72.9118L93.5473 73.0581L93.6205 73.1313L93.6571 73.2044L94.133 73.3873L93.6205 73.6067L93.6937 73.6799L93.8401 73.8262L93.8035 73.8993V73.9725L93.9866 73.7165L94.0598 73.9359H94.133L94.3892 74.1919L94.1696 74.3748L93.9866 74.4479L93.8401 74.5211L93.6205 74.5942L93.4375 74.4479H93.291L92.9982 74.1553L93.0714 74.0822V74.009L92.9982 73.9359L92.7786 73.8627L92.8518 73.6799H92.7786L92.7054 73.497L92.4857 73.3507V73.2044L92.3759 73.3141L92.2295 73.3873L92.1563 73.4604L92.0831 73.5336L92.1197 73.7165V73.753L92.3393 73.8627L92.5223 74.4114L92.4491 74.5942L92.3027 74.7771V74.8503L92.4491 75.0331L92.3027 75.3623V75.5086L92.1563 75.6549V75.8378L91.9732 75.9109V76.0938L91.717 76.3132L91.3875 76.2401L91.3509 76.2035H91.2777L91.0581 76.2767L90.8751 76.1669L90.4358 76.0938L90.2894 75.9475L90.2161 76.1304L90.0331 75.9475H89.6671L90.1063 75.4355H90.326L90.5456 75.3989L90.6554 75.2892L90.9849 75.472L91.0215 75.4355H91.3143V75.2526L91.4974 75.3257V75.216L91.2777 74.9966L91.534 74.8868V74.8137L91.4607 74.7405L91.534 74.5577V74.4845L91.6072 74.4114L91.4974 74.3016L91.4241 74.009L91.4974 73.8262V73.6433L91.3509 73.5702L91.3143 73.4604L91.1313 73.4239L90.8751 73.0581L90.8384 72.8752L90.7652 72.8021V72.7289H90.692L90.6188 72.4729L90.6554 72.3266L90.509 72.1072V71.9974L90.3626 71.8511V71.7414L90.2894 71.6683L90.2161 71.3025V71.2294L90.0697 71.0831V70.9734L89.8867 71.0465V70.8636L89.8135 70.8271L89.7769 70.571L89.6671 70.4613L89.5572 70.2053L89.6671 70.0956L89.5938 69.9127L89.6671 69.8395V69.7664L89.7403 69.4738L89.7037 69.3275V69.1812L89.6304 69.1081V68.9252L89.5572 68.7423L89.301 68.6326H89.2644L89.1912 68.7057C89.0082 68.7789 88.8251 68.852 88.6787 68.9252L88.5323 69.0715V69.1446L88.5689 69.1812V69.3641L88.6055 69.4738L88.6787 69.9127V69.9858L88.8251 70.1321L88.6787 70.315V70.3882L88.7519 70.571L88.5323 70.7905L88.3492 71.0465L88.4225 71.266L88.3492 71.3391L88.4591 71.4488L88.5323 71.5586H88.6787L89.484 72.3632L88.8251 72.1072V72.3632L88.6787 72.4729L88.7153 72.5461L88.8617 72.6192V72.6558L88.9349 72.6924H89.118L89.1546 72.7289L89.2644 72.5826L89.484 72.8021V72.985H89.5572L89.8135 73.2776L89.8867 73.241H89.9233L89.9965 73.3141H90.4724L90.1063 73.6799V73.9359L90.1795 74.0456L90.1063 74.1188V74.4845L89.6671 74.3016L89.5206 74.009L89.4474 73.9359H89.2278L89.1546 73.753L89.118 73.7165L88.8617 73.6799L88.5689 73.497L88.3126 73.4239L88.276 73.3507H88.093L88.0198 73.2776L87.7635 73.5336L87.5805 73.1313L87.3609 73.0581L87.2145 72.985L86.8484 72.9118L86.4091 72.985L86.3359 72.9484L86.2261 73.0215L86.1529 72.985L86.0797 73.0215V73.0581V73.3141H86.1163V73.3873H86.2261L86.4091 73.6799V73.7165H86.4457L87.1412 74.4114L86.3359 74.1553V74.2285L86.1895 74.3016L86.2627 74.3748L86.1895 74.3382V74.4845L86.0431 74.6308H85.5672L85.4208 74.3382L85.494 74.2285L85.4208 74.0456L85.494 73.9725H85.4208L85.3109 74.0456L85.2743 74.0822V74.3016H84.9083V74.3382L84.652 74.4479H84.3226H84.286L84.2128 74.5211L84.1396 74.4479L84.0663 74.5211L84.1396 74.5577L84.0297 74.6674L84.103 74.7405L83.8467 74.9966L83.6271 74.9234L83.261 75.8378V75.0697L83.2244 75.1063L82.9316 74.96L82.895 74.8868L82.5289 75.1063L82.2727 74.8503L82.3093 74.8137V74.6674L82.0896 74.7405H82.053L81.87 74.9966L81.7968 75.0331L81.5771 75.2892L81.7236 75.6549L81.1745 75.5818H81.0281V75.7646L81.8334 75.6183L80.9182 76.1669L80.845 76.2401H80.7352L80.5522 76.423L80.479 76.2767H80.2227L79.9665 75.9109L79.7834 75.7646H79.7468L79.9299 75.9475L79.8933 76.0572L79.9665 76.1304L79.8933 76.1669L79.8201 76.3498V76.6424V76.679L80.0031 77.4836L79.454 76.935L79.271 76.8619L78.6853 77.4471L78.9781 76.7156L78.8317 76.7521L78.7219 76.6424V76.8619L78.0996 77.3008L78.3558 76.679L78.3924 76.5693V76.423L78.2094 76.2401L78.1728 76.1304L78.0996 76.0572L78.063 76.0206V76.1304L77.8067 75.9475C77.3308 76.3864 76.855 76.8619 76.4157 77.3373H76.4523L76.5255 77.3739L76.7085 77.3008L76.8916 77.4836L77.038 77.5202L77.2942 77.5568L77.4773 77.5202L77.5505 77.4471H77.7335L77.8067 77.4105L78.0996 77.3373V77.5934V77.6665L78.3192 77.8859L78.5388 78.2517L78.2826 78.5077L78.063 78.654L77.9165 79.0198L77.6237 78.6906L77.4773 78.6174V78.7272L77.5505 78.7637V79.2758L77.4041 79.4221H77.2942L77.1844 79.5318H76.9648L76.855 79.4221H76.7085L76.6353 79.3489H76.4523L76.3059 79.2026V79.1295H76.2693L76.2327 79.2392L75.8666 79.0198L75.5006 79.1295L75.6836 78.6906L75.647 78.6174V78.5443L75.5006 78.4346V78.3614C74.439 79.5684 73.414 80.8485 72.4989 82.2017V82.2383L72.6819 82.4212L72.8649 82.348H72.9015L73.1212 82.1286L73.2676 82.2749L73.3408 82.2017H73.3042C73.3042 82.1652 73.3408 82.1286 73.3408 82.1286L73.4872 81.9457L73.7069 82.2017V82.2749L73.7435 82.348H73.9997L74.2559 82.6041L74.1095 82.9698L73.9265 82.8967V82.9332L73.8533 83.0064L73.9631 83.0795L73.7069 83.1893V83.4453L73.5238 83.2624L73.4872 83.3356V83.5184H72.7185L72.5721 83.4453H72.389L72.3158 83.4087L72.1328 83.4453L71.9132 83.5184L71.84 83.4453L71.6935 83.5184L71.6203 83.7013H71.6935L71.5471 84.067L71.7301 83.8842L71.9132 84.3231L71.84 84.6522V84.8717L71.9132 85.1277L71.84 85.3472L71.6569 85.7129H71.3641L71.181 85.53L71.1078 85.3837L70.9248 85.1643L70.8516 85.2009L70.7784 85.274H70.632H70.5954H70.5587V85.7129L70.4123 85.5666L70.3391 85.6398V85.8958L70.2659 85.9324V86.0055L70.3391 86.0786V86.3347V86.3712L70.4489 86.3347L70.632 86.5907H70.6686L70.9248 86.5175L71.0712 86.6638L71.1444 86.7736L71.2909 86.9199L71.2177 87.1027L71.2909 87.4319L70.4855 87.5051L69.9364 87.4685L69.7168 87.6514L69.4606 87.7245L69.3874 87.6514C68.6186 89.2972 67.9963 91.0528 67.4838 92.8084L67.8499 92.9547V93.1741L68.0695 92.9547H68.3624L68.4356 93.1375L68.582 93.3204L68.6552 93.4667L68.7284 93.5399L68.8017 93.613H68.8749L69.4972 94.2348H69.5704L69.7534 94.3079L70.1927 94.7468L70.2659 94.6737L70.4855 94.9297L70.632 95.0028L70.8882 95.2954L70.9248 95.3686L70.998 95.4052L71.2543 95.6246L71.1444 95.8806H70.9614L70.9248 96.0635L70.998 96.2464L70.9614 96.3561L70.998 96.4658H71.1078L71.2543 96.7584L71.4373 96.8316V97.0144L71.5837 97.0876L71.6569 97.1607H71.8033V97.3436L71.8766 97.4899H71.9498L72.023 97.4533L71.84 97.3436L72.0596 97.1242L71.7667 96.8316L71.8766 96.7218L71.84 96.539L71.9132 96.2829L72.2792 96.1366L72.3524 96.3195L72.4989 96.1732L72.6453 96.2464L72.6819 96.1366L72.9747 95.9904L73.1212 96.1366V95.9904H73.4872L73.5604 96.1001H73.6703L73.9265 96.1732V96.2464L73.9997 96.1732L74.1461 96.3195L74.439 96.0635V96.1001L74.622 96.0269H74.7684L74.8416 95.9538L74.6586 95.7709L74.5854 95.588L74.5122 95.5149L74.1461 95.076H74.4024L74.5122 95.0028H74.5488L74.4756 94.7102L74.7318 94.4908H74.7684V94.4176V94.1616L74.6952 94.0153L74.7684 93.869V93.7959L74.6952 93.613L74.805 93.5033L74.8782 93.3204H75.1345H75.1711V93.2838L75.0613 93.1741L75.2077 93.0278V92.406H75.6104V92.2232L75.8666 92.15H75.9398L76.1229 91.9672L76.2693 92.1134L76.4157 91.9672L76.5987 92.15H76.6719L76.7452 92.406L76.8184 92.4426L76.8916 92.406L77.038 92.4792L77.1112 92.2963L77.221 92.406L77.3308 92.2963L77.4407 92.3695L77.5139 92.2963L77.6969 92.3695L77.8067 92.3329L77.9165 92.1866L77.8067 91.8574H78.429L78.4656 91.9306H78.5388L78.6853 92.0037L78.7585 91.9306H78.9049L78.9415 91.894L79.0147 91.7111H79.1611V91.6746L79.3076 91.5283H79.4906L79.6004 91.4551H79.8567H79.8933L79.9665 91.382L80.2593 91.3088L80.479 91.5283L80.3691 91.8209L80.1129 91.9306L79.9299 92.2232L80.0397 92.2597V92.4792L79.7468 92.7718L79.8201 92.8449L79.6736 93.2838L79.5272 93.2107L79.6004 93.2838V93.3936L79.7834 93.357L80.0397 93.5033L80.1861 93.5764L80.5522 93.869L80.5888 93.9422L80.662 93.9788L80.7352 94.0519H80.8084H80.9914L81.0647 94.125H81.1379H81.2111L81.3575 94.2713H81.3941L81.4673 94.1982L81.7968 94.4542H81.87L82.053 94.7102L82.1262 94.8565L82.1628 95.0394L82.3459 95.2954L82.0896 95.4052L82.1628 95.5149L82.0164 95.6612L81.9432 95.8075L81.7602 95.9904L81.6137 96.0635L81.5405 96.2464H81.3575V96.2829L80.9914 96.2098L80.9548 96.1732H80.5156H80.479H80.2593L80.0031 96.3195L79.7102 96.2464L79.4174 96.0635L79.271 95.9904L79.1611 95.9172L79.0879 95.9904L78.8317 95.8806L78.6487 95.6978V95.6612L78.5022 95.8075L78.429 95.7343L78.3558 95.8075L77.9898 95.4417H77.7335L77.6969 95.4052L77.6237 95.4417H77.3308L77.2942 95.5149L77.0014 95.6612H76.855H76.7818L76.7452 95.7343L76.5987 95.8075L76.4889 95.9172L76.4157 96.0269V96.1732H76.013L75.7568 96.1001L75.5006 96.3561H75.4273L75.5006 96.4292L75.0613 96.6121H74.7684L74.6952 96.5755L74.4756 96.6487L74.4024 96.4658L74.3292 96.6487V96.6853L74.3658 96.7218H74.4024H74.9515L74.5854 97.0876L74.622 97.1607L74.805 97.0876V97.4533H75.5738L74.6586 97.8191V97.8922L74.7318 97.8557L74.9881 97.9654L75.1345 98.258L75.0613 98.3311L75.1711 98.4408L75.2443 98.3677V98.514H75.6104L75.5006 98.6237H75.8666V98.8797L75.9398 98.9163L76.013 98.8432H76.0862L76.1595 98.77H76.1961L76.1229 98.5871L76.5621 98.4774L76.7818 98.5506L77.038 98.6603H77.221L77.4407 98.9163L77.5139 98.9895L77.9532 98.9529L78.0996 98.8797H78.1362V98.8432L78.4656 98.4774H78.6487L78.8683 98.6237L79.0879 98.4043L79.454 98.5506V98.8066L79.271 98.9895L79.4174 99.1358L79.271 99.2821L79.3808 99.4649L79.454 99.6844L79.3808 99.8307V100.05L79.3076 100.27L79.2344 100.708L79.0147 100.964V101.074L78.8317 101.257L78.7951 101.623L78.6121 101.952L78.4656 102.135L78.3924 102.318L78.1362 102.391L77.7701 102.318L77.4773 102.391V102.94L77.5505 103.013V103.049L77.7335 103.232V103.415L77.8799 103.488L77.9532 103.671L78.1362 103.854L78.2094 103.708V103.561L78.3558 103.196L78.429 103.122L78.7951 102.171V103.159L78.7219 103.269V103.634L79.1611 103.817L79.0147 103.964L79.1978 104.146L79.2344 104.256L79.3076 104.329L79.3808 104.439L79.5638 104.878V105.061L79.6736 105.134L79.7468 105.28L79.8933 105.353L80.0031 105.609L80.1495 105.683L80.2593 106.012L80.479 106.231L80.662 106.378L80.8084 106.56V106.597H80.9914L81.0647 106.78L81.1379 106.853L81.2111 107.036L81.3209 107.146L81.3575 107.219L81.4307 107.292L81.3575 107.621L81.4307 107.804L81.4673 107.987L81.87 108.389H81.9432H82.1262L82.1994 108.535L82.4191 108.718V108.791L82.6021 108.865L82.5289 109.047L82.6387 109.413L82.7851 109.486V109.669L83.078 109.962H83.2244L83.2976 110.254L83.4806 110.291L83.6271 110.657L83.7003 110.803L83.7735 111.132V111.461H83.7003L83.7735 111.571L83.8101 112.047L83.9565 112.193V112.559L84.0663 112.668V112.742L84.2494 112.815L84.3958 112.668H84.652L84.7619 112.522V112.449L84.9815 112.229H85.2377L85.3109 112.303H85.4574L85.5306 112.376L85.7136 112.303L85.86 112.266L86.1529 112.047H86.4457L86.5922 111.9L86.6654 111.973L86.8118 111.754L86.9948 111.681H87.068L87.5805 111.498L87.6537 111.425L88.0198 111.352L88.2028 111.279L88.3492 111.132H88.4591L88.5323 110.913L88.7519 110.657L89.0081 110.584H89.0814L89.2278 110.437L89.301 110.51V110.437H89.4108L89.5938 110.328H89.7403L89.8867 110.254L89.9599 110.291V110.035L90.1429 109.852H90.2161L90.3992 109.779V109.669L90.6554 109.34L90.9117 109.23L90.9483 109.267H91.0581V109.194H90.9117L91.0581 108.865L90.9117 108.718H91.0947L91.3875 107.95V108.572L91.4607 108.499L91.534 108.572L91.5706 108.499L91.717 108.353L91.9 108.097V108.023V107.95V107.877H91.8634L91.6072 107.694L91.534 107.548L91.3875 107.402L91.3143 107.219L91.2411 107.109H90.692L90.5456 107.182L90.2528 107.109L90.1795 107.182L89.9233 107.072L89.5938 106.78L89.5206 106.707L89.301 106.451L89.2278 106.085L89.1546 106.012L88.8617 106.304L89.0081 106.451L88.6421 106.816V106.89H88.4957L88.3126 106.963H88.093L88.0198 106.89H87.9466L87.8002 106.853L87.5805 107.036L87.3975 106.963H87.3243L87.0314 107.072L86.9582 106.78H86.885L86.8118 106.597H86.8484V106.451L86.702 106.597L86.4457 106.341L86.3725 106.195L86.0797 105.865L85.8234 105.244L85.7502 105.171L85.5306 104.951L85.3476 104.878L85.2011 104.512L85.1645 104.439L85.0913 104.366L84.6886 103.964H84.8351L84.3958 103.671L84.9449 103.598V103.525V103.378V103.305L84.3958 103.086H85.0547L85.3842 102.757V103.049H85.4574L85.5306 103.122L85.677 102.976L85.7502 103.122L85.86 103.013L86.0431 103.196L86.2261 103.378V103.452L86.4091 103.671L86.4457 103.744H86.4823L86.5555 103.854H86.9948L87.0314 103.89L87.1412 103.781L87.2877 104.146L87.3975 104.439L87.5805 104.403L87.8002 104.476H87.9832L88.0564 104.549H88.1662L88.3858 104.768L88.3492 104.805L88.4957 104.878H88.6421L88.7885 104.951L88.9349 104.878L89.1912 104.951L89.3376 105.024L89.4108 104.951L89.6671 104.768H89.7769L89.8867 104.695L90.0697 104.622L90.4358 104.695H90.509V104.768L90.5822 104.915L90.6554 105.097L90.8018 105.317V105.39H91.2045L91.2411 105.427L91.2777 105.39H91.4607L91.6072 105.5L91.8634 105.463L92.0098 105.536H92.3027H92.3393L92.4125 105.463L92.4857 105.5L92.4491 105.427H92.742L92.8152 105.609H92.8518L92.9616 105.646L93.0348 105.573H93.3643V105.646H93.4375L93.5473 105.573H93.8035V105.5L93.9866 105.317L94.0598 105.353H94.316L94.3892 105.427H94.499L94.5356 105.463L94.6089 105.39H94.9017L94.9749 105.427L95.0481 105.39H95.1213L95.2678 105.244L95.4142 105.39H95.4508L95.524 105.353H95.7803L95.9633 105.536L96.0365 105.719H96.2195L96.4758 105.646V105.939L96.549 106.012L96.6222 106.195L96.6954 106.268L96.732 106.341H96.8784L97.0615 106.451L97.1713 106.378L97.3543 106.304L97.5007 106.634L97.4275 106.67L97.3909 106.707L97.5007 106.853L97.8302 106.963L98.0132 106.853V106.707H98.5623L98.3793 107.146H97.757L97.6472 107.292H97.7936L97.7204 107.365V107.438V107.621L97.8668 107.767L98.2695 108.06H98.3427H98.4159L98.7087 107.877L98.7819 107.804L98.8918 107.621V107.584L98.7453 107.438L98.9284 107.146V106.085L99.2578 106.89H99.331L99.4042 106.963L100.21 106.634L99.4408 107.402L100.429 107.804H99.3676V107.877L99.4042 107.914L99.4775 108.097V108.279L99.4408 108.353L99.8435 108.535L99.4775 108.718L99.6239 109.047V109.194L99.6971 109.377L99.6239 109.45L99.9167 109.889H99.7337V109.962L99.9167 110.401V110.693L99.9899 110.84L100.136 110.913L100.21 111.096L100.283 111.169V111.242V111.315H100.356V111.425L100.393 111.461H100.539V111.791L100.612 111.973L100.649 112.12L100.759 112.376L100.832 112.522L100.868 112.705L100.905 112.742L100.978 112.888L101.052 112.961H101.125L101.308 113.18L101.491 113.4L101.564 113.583H101.637V113.839L101.747 114.022L101.82 114.278V114.46L102.003 114.79L102.113 114.899L102.26 114.753L102.333 114.57L102.589 114.387H102.662L102.735 114.314L102.772 114.241L102.918 113.948L103.175 113.875L103.138 113.546L103.065 113.4V112.998L103.211 112.742L103.284 112.449V112.266L103.138 112.193V111.644L103.065 111.425L103.175 111.315L103.101 111.096L103.175 110.913L103.431 110.657H103.687V110.584L103.907 110.364L104.163 110.437L104.236 110.364L104.2 110.291L104.273 110.072L104.456 109.889L104.639 109.852L104.712 109.779L104.785 109.633L105.298 109.23L105.408 109.011L105.481 108.938L105.627 108.535H105.847L105.957 108.462H106.14L106.213 108.535H106.286L106.359 108.462L106.176 108.279H106.542V108.243L106.579 108.206V108.316V108.243L106.469 108.133L106.616 107.767L106.725 107.658L107.055 107.548L107.091 107.511V107.402V107.109H107.421L107.604 107.182V107.036L107.897 107.328H108.007L108.19 107.146L108.153 107.072H108.299L108.739 106.634L109.105 106.56L109.141 106.634L109.178 106.67H109.251L109.324 106.743L109.398 106.78H109.471L109.544 106.743L109.507 106.78H109.654L109.837 107.219L109.91 107.292V107.328L109.983 107.255V107.804L110.057 107.877L110.13 107.987H110.203V108.023L110.386 108.097V107.95L110.532 108.097H111.008L110.276 108.316H110.313L110.349 108.353L110.496 108.426L110.679 108.645V108.901L110.752 108.974V109.157L110.825 109.34V109.413L111.118 109.523L111.008 109.633V109.889L111.082 110.035L111.228 109.596V110.218L111.265 110.254L111.228 110.291V110.73L111.301 110.876H111.374L111.484 110.803L111.557 110.584L111.484 110.437H111.85V110.328L111.301 109.779L112.363 110.218V110.291L112.436 110.364L112.546 110.547L112.582 110.584L112.875 110.291V110.803V110.84V111.022L112.912 111.059L112.948 111.352V111.608L113.315 111.973H112.363V112.047L112.582 112.266L112.656 112.376L112.729 112.449L112.802 112.778L112.839 112.815L112.948 113.071L112.875 113.144V113.18V113.254L113.131 113.51L113.058 113.583L113.131 113.729L112.985 113.875V114.058H113.205V113.912L113.351 113.766L113.424 113.363L113.571 113.217L113.644 113.107L113.754 112.998L113.681 112.924L113.827 112.778V112.705V112.632L113.534 112.522L113.717 112.339V111.9L113.973 112.156L114.047 112.083L114.156 112.193L114.303 112.12L114.376 112.193H114.449L114.632 112.266L114.815 112.449L114.669 112.595V112.632L114.742 112.742L114.962 112.815L115.108 112.961L115.181 112.998L115.511 113.327H115.694L115.877 113.583V113.656L116.023 114.022L116.316 113.729V114.022H117.085V113.948H117.378H117.414L117.707 113.656V113.985L117.78 114.058L117.963 113.985L118.037 113.912V113.839L118.33 113.729L118.439 113.619L118.476 113.51L118.549 113.327L118.476 113.107L118.586 113.071V113.034V112.815L118.659 112.742V112.705L118.586 112.632V112.449L118.513 112.266L118.586 112.193L118.513 112.083L118.586 112.01L118.513 111.827L118.439 111.754L118.366 111.571L118.183 111.388L118.256 111.315L118.146 111.205V111.169L118.073 110.986L118 110.913L117.744 110.73L117.707 110.62L117.488 110.474L117.085 110.291V111.022L116.719 110.181L116.536 109.998L116.426 109.925L115.914 109.742L116.17 109.633L116.243 109.45V109.157L116.316 109.084L116.389 108.974L116.572 108.791L116.646 108.865V108.682L116.499 108.535L116.646 108.389V108.243H116.865L117.012 108.097L117.195 108.023H117.305L117.122 107.841H117.561L117.707 107.694L117.744 107.731L117.927 107.292L118.11 107.731L118.146 107.694L118.256 107.804L118.33 107.658L118.549 107.731L118.732 107.658L118.915 107.841V107.95L118.988 107.877L118.769 107.658H119.208L119.501 107.365V107.548H119.977L120.123 107.475L120.196 107.511L120.27 107.475L120.343 107.402V107.328V106.89L120.599 107.146L120.526 107.036V106.597L120.929 106.78L121.075 106.926L121.185 106.89L121.331 106.743L121.441 106.853V106.816H121.697H121.77L121.954 106.634L121.661 105.829L122.21 106.378L122.393 106.304V106.231H122.466L122.539 106.122H122.612L122.173 105.683H122.539L122.869 104.878L122.978 104.841L122.905 104.768H122.612L122.759 104.622L122.649 104.512H122.832L123.052 104.293V104.256H123.198L123.418 103.708L123.491 103.854V103.781L123.564 103.634L123.528 103.598L123.637 103.488H123.454V103.196L123.637 103.013V102.866L123.528 102.757L123.637 102.72V102.574L123.564 102.647L123.308 102.537L123.235 102.464L123.198 102.501L122.832 103.452V102.647L122.393 102.83L122.832 102.391V102.354L123.015 102.171L122.759 101.842L123.308 102.062L123.454 101.915H123.491L123.564 101.806H123.601L123.564 101.733L123.308 101.55L123.125 101.403L122.978 101.257L122.832 101.33L122.612 101.257L122.429 101.111H122.393L122.246 101.038L121.148 102.501L121.954 100.672L122.246 100.562L122.429 100.635L122.686 100.562L122.722 100.635L123.052 100.708L122.869 100.452V100.306L122.686 100.16V100.05L122.503 99.977L122.576 99.7941L122.466 99.5747L122.283 99.5015L121.99 99.6112V99.3552L121.697 99.2455V98.8066L121.734 98.6603L121.661 98.514L121.844 98.0385L122.027 98.2214L122.063 98.1848L121.99 98.1117L122.283 97.8191H122.32V97.7459H122.393L122.21 97.5631L122.649 97.3802L122.722 97.4168H122.832L122.869 97.3802H122.429L122.246 97.1973L122.21 97.1242L122.137 97.1607V97.2339L122.063 97.307L121.954 97.5631L121.77 97.7459L121.587 97.6728L121.514 97.7094H121.221L121.038 97.2705V97.5265L120.892 97.3436L120.819 97.4168V97.2339L120.636 97.0144L120.599 96.9779L120.453 96.9047L120.233 96.8316V96.6487L120.16 96.4658L120.233 96.3927V96.3195L120.306 96.2464V96.1366L120.379 96.0635V95.8075L120.819 95.8806L120.636 95.6978H120.819L120.929 95.588L121.002 95.2589L121.295 95.076H121.368L121.441 95.0028V94.82L121.587 94.6737H121.551L121.624 94.6005L121.697 94.4176H121.99L122.1 94.125L122.393 94.5639L122.722 94.7834V95.076L122.576 95.2223L122.503 95.2954V95.4417L122.978 94.9663L122.832 95.2589H123.015L123.235 95.076L123.345 95.1491H123.381L123.637 94.7834L123.784 95.1126H123.857L124.077 95.1857H124.113L124.186 95.1126H124.553L124.406 95.4783L124.443 95.5515L124.296 95.7709V95.8806H124.333L124.882 95.6612H124.845L124.736 95.2954L124.772 95.2589V95.2223V95.0394L124.955 94.8931L125.028 94.7468L125.248 94.6737H125.321H125.358V94.6005L125.577 94.3811L125.504 94.3079L125.687 94.1616V93.8325L125.577 93.7227V93.4301L125.651 93.1375V92.8449H125.797L125.98 92.6621H126.017L126.053 92.5523L126.236 92.4792V92.406L126.273 92.3695V92.1866L126.383 92.0769V91.9672L126.566 91.7843L126.749 91.8574L126.932 91.7843L127.115 91.9672V92.1134H127.188L127.225 92.1866L127.298 92.1134L127.371 92.1866L127.518 92.1134L127.591 92.0403H127.701L127.774 91.9672L127.847 91.894L127.701 91.7477L127.957 91.638L127.774 91.1625L128.103 91.3088V91.2357L128.177 91.1625V90.9796L128.286 90.9065V90.8333L128.396 90.7602L128.469 90.5042L128.506 90.4676L128.616 90.0287L128.689 89.8824V89.7361L128.835 89.5898H128.909L128.982 89.4801L128.909 89.1875L129.055 89.0412L128.982 88.7852L129.128 88.6389V88.4194H129.604L129.641 88.3463V88.1634L129.751 88.0537L129.677 87.7977L129.751 87.6148V87.4319H129.604V87.5051ZM71.9132 82.6041L71.9498 82.5675V82.4943C71.9498 82.5309 71.9498 82.5675 71.9132 82.6041ZM116.792 114.424L116.829 114.387L116.682 114.351L116.829 114.497V114.57L116.902 114.534L117.012 114.57H117.085L116.792 114.424ZM113.131 114.204V114.387H113.205V114.314L113.131 114.204ZM126.2 113.619H126.127V113.766H126.163V113.729L126.236 113.656L126.2 113.619ZM127.518 113.071V113.144L127.591 113.217L127.664 113.29V113.254L127.518 113.071ZM125.248 111.973H125.321L125.358 111.937L125.394 111.973V111.791L125.248 111.973ZM125.687 110.291L125.614 110.254L125.504 109.962V109.889L125.248 109.816L125.138 109.706H125.065V109.742L124.919 109.925V109.962V110.254V110.51L124.882 110.584L124.955 110.73V110.913L124.809 110.986L124.772 111.132V111.205L124.845 111.352V111.425H125.028V111.498H125.175L125.321 111.681L125.285 111.571V111.388L125.321 111.315L125.248 111.169L125.577 110.84L125.687 110.657V110.584V110.437V110.291ZM119.611 108.682L119.428 108.755L119.354 108.682L119.245 108.755L119.171 108.682H119.135H118.952H118.879L118.842 108.791L118.659 108.938L118.586 109.011V109.047V109.23L118.622 109.34L118.696 109.413H118.769L118.842 109.486H118.988V109.413L119.208 109.34V109.267L119.391 109.194V109.121L119.464 108.901L119.538 108.828L119.611 108.718V108.682ZM118.805 108.023V108.133H118.622V108.206L118.696 108.279L118.769 108.353L118.915 108.206L118.805 108.023ZM124.882 105.573L124.809 105.5L124.736 105.573L124.662 105.646L124.736 105.683L124.589 105.902V105.975L124.443 106.195L124.37 106.341V106.707H124.443V106.89H124.553V107.036L124.662 106.853L124.772 106.707L124.699 106.67L124.772 106.341V106.268V106.048L124.845 105.902L124.882 105.683V105.573ZM108.373 106.78V106.963H108.409L108.373 106.78ZM122.649 105.5L122.429 105.719H122.539L122.722 105.536L122.649 105.5ZM122.869 105.317L122.905 105.244L122.722 105.39L122.905 105.317H122.869ZM129.128 100.27L129.238 100.16H129.201V100.05H129.128L128.982 99.7941H128.872L128.762 99.6478H128.689V99.721L128.579 99.7941L128.689 99.9038L128.799 100.087L128.872 100.27V100.452L128.835 100.599L129.165 100.891L129.128 100.818L129.201 100.489L129.128 100.27ZM66.7883 99.8307V99.5747H66.7151L66.5321 99.2821L66.6053 99.026L66.6419 98.9895L66.5687 98.9163L66.4589 98.7334L66.4223 98.6969C66.3491 99.3186 66.3125 99.977 66.2392 100.599L66.5687 100.416L66.6053 100.379L66.5321 100.306L66.6785 100.16L66.7883 99.8307ZM78.063 100.416H78.0264L77.8799 100.489H78.063L78.1362 100.416H78.063ZM129.751 99.5015V99.5747L129.824 99.6844L129.897 99.5381L129.934 99.5015H129.751ZM130.409 99.2455L130.336 99.1723L130.263 99.2089V99.3186H130.373H130.409L130.483 99.2455V99.2089L130.409 99.2455ZM133.338 95.2589V95.1857L133.301 95.0394V94.9663L133.228 94.7468L133.192 94.6737H133.118L133.045 94.4908L133.009 94.3079L132.972 94.2348L132.716 93.9788L132.496 94.1616L132.423 94.0885V94.1616L132.496 94.3445L132.459 94.4908L132.569 94.7468L132.642 95.0394L132.569 95.2223L132.642 95.4417L132.533 95.8075L132.606 95.9904L132.423 96.2464L132.35 96.3195V96.3927V96.5755L132.276 96.6853L132.24 96.8681L132.057 96.9779L131.764 97.1607H131.691L131.617 97.3436L131.325 97.1973V97.3436L131.215 97.5265V97.5996L131.142 97.6728L131.178 97.7094V97.7459H131.361L131.178 98.002L131.251 98.0751L130.885 98.2945L130.812 98.2214H130.739H130.519V98.1117L130.336 98.1848L130.153 98.258H130.043L129.897 98.2945L129.714 98.3677L129.641 98.2945L129.568 98.3677L129.531 98.514L129.458 98.5871L129.201 98.8432L129.128 98.9163L129.092 98.9529L129.018 99.0992L128.872 99.1723L129.055 99.0992H129.128V99.026L129.201 98.8432H129.385L129.458 98.8797H129.531H129.714L129.897 98.8066H129.97L130.117 98.7334V98.6969L130.373 98.5506L130.519 98.4774H130.849L131.032 98.6237V98.8066L130.959 98.9163V99.026L131.178 99.2455H131.105L131.142 99.4284L131.178 99.3552V99.2821L131.251 99.2089V99.1358L131.361 98.9529L131.215 98.8066L131.288 98.514L131.434 98.3677H131.984L131.874 98.4774L132.093 98.514V98.3311L132.35 98.1848H132.533L132.569 98.1483L132.642 98.1117L132.789 97.7825L132.972 97.7094H133.228L133.118 97.5265V96.9047L133.192 96.6853L133.082 96.3927L132.935 96.1732V95.9904L132.972 95.6978L133.192 95.588V95.5149V95.4417V95.2223L133.338 95.2589ZM68.399 99.1723L68.5088 98.8066H68.4722L68.399 98.8797H68.1061L67.9231 98.9529L67.7035 98.9163L67.7767 98.9895L67.9231 99.0626L67.9963 99.1358L68.1794 99.2089L68.2892 99.1723L68.4722 99.3552L68.5088 99.4284L68.5454 99.3552V99.3186L68.399 99.1723ZM126.785 98.1117V98.002L126.529 98.258V97.7094L126.493 97.4168L126.346 97.2705V97.0144L126.09 96.6853L125.87 96.4658L125.321 96.6853L125.468 96.9047L125.651 97.0876L125.577 97.1607L125.761 97.5996L125.468 97.5265L125.504 97.5996V97.6362L125.761 98.0751L125.577 98.2214V98.4408L125.504 98.514L125.577 98.6969V98.5506L125.834 98.8066L126.09 98.5871L126.236 98.514L126.273 98.4408H126.529L126.712 98.258H126.785L126.712 98.1848L126.785 98.1117ZM72.0596 98.1483L72.1328 98.2214L72.1694 98.1483H72.0596ZM72.4989 98.2945L72.3524 98.1483L72.5721 98.0751H72.5355L72.3158 98.1483L72.2426 98.1117H72.206L72.389 98.5506L72.4623 98.5871L72.5355 98.6603L72.4623 98.514L72.4989 98.2945ZM133.301 98.0751V98.1117L133.338 98.0751H133.301ZM69.2775 97.9654V98.0385L69.3507 98.002V97.9288L69.2775 97.9654ZM133.301 97.7459V97.8557L133.338 97.8191L133.301 97.7459ZM69.5338 97.3802H69.3507L69.3141 97.3436L69.3507 97.4899L69.424 97.6362H69.3874V97.7094L69.4972 97.5996L69.5704 97.4533L69.5338 97.3802ZM69.3874 96.1001L69.2043 96.0635H69.0213L68.9115 95.8075V95.7343H68.8749H68.582L68.5454 95.6612L68.399 95.588L68.3258 95.4417L68.216 95.3686L67.9597 95.1491L67.8865 94.9663V94.8931L67.8133 94.82V94.6737L67.5205 94.3079L67.4838 94.2348H67.4106L67.1178 94.125C67.0446 94.4908 66.9348 94.8565 66.8615 95.2589L66.9348 95.3686L66.9714 95.4052L67.1544 95.6978L67.3374 95.8075L67.6303 95.9172L67.8133 95.9904H67.9963L68.1794 96.2098L68.4356 96.3195H68.6186L68.7284 96.539V96.6121H68.7651L68.8017 96.7218L69.0945 96.8681L69.1311 97.0876V96.9413L69.3141 96.8681V96.539L69.3874 96.4658L69.4606 96.3561L69.607 96.2464L69.3874 96.1001ZM125.761 96.4292L125.577 95.9904V95.9172L125.175 95.7343L125.138 95.6612L124.589 96.2098H124.516V96.3561H124.553L124.736 96.1732L124.955 96.3927H125.87L125.761 96.4292ZM122.503 95.4417V95.4783L122.539 95.4417H122.503ZM77.9898 93.0278L77.7335 93.2838L77.6969 93.3204L77.8433 93.2473L78.063 93.0644L77.9898 93.0278ZM132.02 92.9547V92.9912H132.057L132.02 92.9547ZM77.6237 92.8449L77.5139 92.8815L77.7335 92.9912L77.8067 92.8449V92.6621L77.6237 92.8449ZM133.96 91.6014L133.741 91.4917V91.4185L133.667 91.4551H133.265L133.192 91.3454H133.082L132.862 91.2357L132.825 91.1625H132.716L132.606 90.9796L132.459 90.9065L132.203 90.6505L132.167 90.5407H132.093L131.984 90.4676L132.13 90.687L132.203 90.8699L132.24 91.0894V91.1625V91.2357L132.386 91.6014H132.24V91.6746H132.276L132.459 91.9306L132.313 92.0037V92.0769L132.13 92.2597L131.984 92.1866V92.2597L132.167 92.406L132.203 92.3695L132.386 92.2232H132.642L132.825 92.15L133.009 92.406L133.082 92.4792L133.228 92.5523L133.265 92.3695L133.338 92.1134L133.521 92.0037L133.704 91.894L133.96 91.7843V91.6014ZM131.837 88.6023L131.764 88.5291H131.691L131.617 88.4194V88.456V88.4926L131.801 88.6754L131.764 88.8583L131.91 88.7852V88.6389L131.837 88.6023ZM131.617 86.2615V86.2249L131.471 86.1884V86.0055L131.325 85.8592L131.178 85.5666L131.105 85.4569L130.922 85.2009L130.849 85.018L130.776 84.9448V84.8717H130.593L130.519 84.6157L130.336 84.4328L130.263 84.2865L130.19 84.1768V83.6282H130.117L129.934 83.4453V83.3721L129.86 83.299V83.0795H129.824L129.751 82.9698V83.0795L129.531 83.1527H129.494V83.2624L129.568 83.3356L129.751 83.555V83.7745V83.9939L129.86 84.2499V84.3231L130.007 84.3962L130.08 84.6522L130.117 84.7254L130.263 84.7985L130.446 85.0546V85.4203L130.519 85.5666V85.6398L130.739 85.8592L130.666 85.9689L130.776 86.1152L130.849 86.2615V86.4078L130.922 86.5907V86.9564L131.142 87.1027L131.105 87.249L131.178 87.2856L131.398 87.4685V87.4319L131.288 87.2856L131.361 87.0296V86.993L131.288 86.8101L131.361 86.6638L131.178 86.4078H131.691H131.764L131.617 86.2615ZM71.7301 83.555V83.6282H71.8033L71.7301 83.555ZM71.9132 82.6041L71.9498 82.5309C71.9498 82.5309 71.9498 82.5675 71.9132 82.6041ZM77.1478 78.2883V78.2517H76.9648L77.038 78.2883L77.1844 78.4346L77.2576 78.398L77.1478 78.2883ZM81.3209 74.0456H81.2477L81.2111 74.1188V74.3016L81.2843 74.4479H81.3941L81.4673 74.4114L81.5405 74.3382V74.2651V74.1919L81.3209 74.0456ZM84.0663 71.9974L83.9199 71.8511L83.7735 71.7414L83.5539 71.6683H83.3342C83.261 71.7049 83.1878 71.7414 83.1146 71.8146L83.1878 71.8877L83.261 71.8146L83.7003 71.9974V72.034L83.8467 71.8877L83.9199 72.0706L84.0297 72.1072L84.103 72.034L84.0663 71.9974ZM82.9316 71.9609H82.895V72.034L82.9316 72.0706H83.0048V71.9243L82.9316 71.9609Z" fill="url(#paint6_radial)"/>
<path d="M78.3556 107.95C82.8947 109.011 87.6901 109.742 92.6319 110.181C93.5104 120.532 96.0728 130.444 99.9531 139.66C100.283 139.697 100.575 139.733 100.905 139.733C96.988 130.553 94.4256 120.678 93.5104 110.254C96.5853 110.474 99.6968 110.62 102.882 110.62C109.69 110.62 116.243 110.035 122.502 108.938C120.709 121.922 113.131 133.113 102.515 139.807C102.699 139.807 102.882 139.807 103.065 139.807C103.431 139.807 103.76 139.807 104.126 139.807C114.449 132.894 121.697 121.739 123.417 108.828C129.311 107.767 134.875 106.195 140 104.293C140 104 140 103.708 140 103.378C134.875 105.317 129.348 106.853 123.491 107.95C123.674 106.341 123.747 104.695 123.747 103.049C123.747 87.5416 115.694 73.8627 103.54 65.926C103.357 65.926 103.174 65.926 102.991 65.926C102.625 65.926 102.296 65.926 101.93 65.926C114.486 73.5335 122.832 87.3221 122.832 102.976C122.832 104.695 122.722 106.377 122.539 108.023C116.279 109.157 109.654 109.742 102.808 109.742C99.6236 109.742 96.4755 109.596 93.364 109.377C93.1444 106.816 93.0712 104.22 93.0712 101.623C93.0712 89.0777 95.4871 77.0813 99.77 66.0357C99.4406 66.0723 99.1477 66.1089 98.8183 66.1455C94.5354 77.1544 92.1926 89.1143 92.1926 101.623C92.1926 104.22 92.3024 106.78 92.4855 109.34C87.507 108.901 82.7483 108.133 78.1725 107.109C78.0261 105.683 77.9529 104.329 77.9529 102.903C77.9529 87.5416 86.0062 73.9724 98.1228 66.2918C97.4273 66.3649 96.7684 66.5112 96.1094 66.6209C84.6152 74.6308 77.111 87.9073 77.111 102.939C77.111 104.293 77.1842 105.646 77.294 106.963C73.3771 106.048 69.5701 104.878 66.0193 103.561C66.0193 103.854 66.0193 104.146 66.056 104.476C69.6067 105.829 73.4504 106.963 77.3672 107.877C78.7948 120.788 85.8598 132.053 96.0728 139.185C96.7317 139.331 97.4273 139.404 98.0862 139.514C87.4704 132.601 79.9296 121.19 78.3556 107.95Z" fill="url(#paint7_radial)"/>
<path d="M123.309 101.956C124.097 101.956 124.737 101.317 124.737 100.529C124.737 99.7408 124.097 99.1021 123.309 99.1021C122.52 99.1021 121.881 99.7408 121.881 100.529C121.881 101.317 122.52 101.956 123.309 101.956Z" fill="url(#paint8_radial)"/>
<path d="M111.082 74.7068C111.871 74.7068 112.51 74.068 112.51 73.2801C112.51 72.4921 111.871 71.8533 111.082 71.8533C110.293 71.8533 109.654 72.4921 109.654 73.2801C109.654 74.068 110.293 74.7068 111.082 74.7068Z" fill="url(#paint9_radial)"/>
<path d="M115.804 129.202C116.916 129.202 117.817 128.302 117.817 127.191C117.817 126.08 116.916 125.179 115.804 125.179C114.692 125.179 113.791 126.08 113.791 127.191C113.791 128.302 114.692 129.202 115.804 129.202Z" fill="url(#paint10_radial)"/>
<path d="M93.1087 111.903C94.3217 111.903 95.3051 110.92 95.3051 109.708C95.3051 108.496 94.3217 107.514 93.1087 107.514C91.8957 107.514 90.9124 108.496 90.9124 109.708C90.9124 110.92 91.8957 111.903 93.1087 111.903Z" fill="url(#paint11_radial)"/>
<path d="M94.7974 83.3605C95.8196 83.3605 96.6483 82.5325 96.6483 81.5112C96.6483 80.4898 95.8196 79.6619 94.7974 79.6619C93.7752 79.6619 92.9465 80.4898 92.9465 81.5112C92.9465 82.5325 93.7752 83.3605 94.7974 83.3605Z" fill="url(#paint12_radial)"/>
<path d="M80.7726 121.266C81.7635 121.266 82.5668 120.464 82.5668 119.474C82.5668 118.484 81.7635 117.681 80.7726 117.681C79.7817 117.681 78.9785 118.484 78.9785 119.474C78.9785 120.464 79.7817 121.266 80.7726 121.266Z" fill="url(#paint13_radial)"/>
<defs>
<linearGradient id="paint0_linear" x1="-0.0558522" y1="78.828" x2="105.972" y2="78.9119" gradientUnits="userSpaceOnUse">
<stop stop-color="#485476"/>
<stop offset="0.356509" stop-color="#2E354E"/>
<stop offset="0.40366" stop-color="#2F3953"/>
<stop offset="0.460271" stop-color="#27293A"/>
<stop offset="1" stop-color="#2D3146"/>
</linearGradient>
<linearGradient id="paint1_linear" x1="11.497" y1="30.9658" x2="98.9689" y2="14.457" gradientUnits="userSpaceOnUse">
<stop stop-color="#4E5873"/>
<stop offset="0.995" stop-color="#2A3551"/>
</linearGradient>
<linearGradient id="paint2_linear" x1="11.497" y1="28.9675" x2="98.9689" y2="12.4587" gradientUnits="userSpaceOnUse">
<stop stop-color="#697698"/>
<stop offset="0.995" stop-color="#384464"/>
</linearGradient>
<linearGradient id="paint3_linear" x1="3.45723" y1="84.1541" x2="35.5812" y2="85.3174" gradientUnits="userSpaceOnUse">
<stop stop-color="#6C7699"/>
<stop offset="1" stop-color="#6A7497"/>
</linearGradient>
<linearGradient id="paint4_linear" x1="7.34655" y1="63.3557" x2="28.2694" y2="63.3557" gradientUnits="userSpaceOnUse">
<stop stop-color="#2ED8CF"/>
<stop offset="0.995" stop-color="#1CBEB6"/>
</linearGradient>
<radialGradient id="paint5_radial" cx="0" cy="0" r="1" gradientUnits="userSpaceOnUse" gradientTransform="translate(94.4518 91.7816) scale(42.3672 42.3308)">
<stop offset="0.1458" stop-color="#96A1BB"/>
<stop offset="0.8886" stop-color="#5F6A8D"/>
<stop offset="1" stop-color="#4E5E83"/>
</radialGradient>
<radialGradient id="paint6_radial" cx="0" cy="0" r="1" gradientUnits="userSpaceOnUse" gradientTransform="translate(91.8173 89.3308) scale(47.781 47.74)">
<stop offset="0.21875" stop-color="#F3F5F7" stop-opacity="0.5"/>
<stop offset="0.614583" stop-color="#D5D9DF" stop-opacity="0.2"/>
<stop offset="1" stop-color="#D4D8DE" stop-opacity="0"/>
</radialGradient>
<radialGradient id="paint7_radial" cx="0" cy="0" r="1" gradientUnits="userSpaceOnUse" gradientTransform="translate(103.078 102.84) scale(36.9772 36.9455)">
<stop stop-color="#24DEDD"/>
<stop offset="0.859375" stop-color="#24D2D1"/>
<stop offset="1" stop-color="#25DFDE" stop-opacity="0"/>
</radialGradient>
<radialGradient id="paint8_radial" cx="0" cy="0" r="1" gradientUnits="userSpaceOnUse" gradientTransform="translate(123.326 100.545) scale(1.43134 1.43011)">
<stop offset="0.2738" stop-color="white"/>
</radialGradient>
<radialGradient id="paint9_radial" cx="0" cy="0" r="1" gradientUnits="userSpaceOnUse" gradientTransform="translate(111.099 73.2959) scale(1.43134 1.43011)">
<stop offset="0.2738" stop-color="white"/>
</radialGradient>
<radialGradient id="paint10_radial" cx="0" cy="0" r="1" gradientUnits="userSpaceOnUse" gradientTransform="translate(115.812 127.184) scale(2.00021 1.99849)">
<stop stop-color="white"/>
</radialGradient>
<radialGradient id="paint11_radial" cx="0" cy="0" r="1" gradientUnits="userSpaceOnUse" gradientTransform="translate(93.1178 109.701) scale(2.18204 2.18017)">
<stop stop-color="white"/>
</radialGradient>
<radialGradient id="paint12_radial" cx="0" cy="0" r="1" gradientUnits="userSpaceOnUse" gradientTransform="translate(94.805 81.5048) scale(1.83886 1.83728)">
<stop stop-color="white"/>
</radialGradient>
<radialGradient id="paint13_radial" cx="0" cy="0" r="1" gradientUnits="userSpaceOnUse" gradientTransform="translate(80.7944 119.494) scale(1.79835 1.7968)">
<stop offset="0.2738" stop-color="white"/>
</radialGradient>
</defs>
</svg>
