<svg width="140" height="140" viewBox="0 0 140 140" fill="none" xmlns="http://www.w3.org/2000/svg">
<g clip-path="url(#clip0)">
<path d="M106.398 106.833L105.008 106.756C99.9108 95.1721 81.6861 86.6775 60.0635 86.6775C38.9043 86.6775 21.8379 94.786 15.969 104.13L13.8067 104.053V108.068C12.7256 122.509 34.5026 138.494 59.6774 139.189C90.1034 140.039 106.398 125.83 106.398 111.08C106.398 110.771 106.398 110.462 106.32 110.076L106.398 106.833Z" fill="url(#paint0_linear)"/>
<path d="M106.399 106.833C106.399 121.582 90.105 135.792 59.679 134.942C34.5042 134.247 12.7271 118.262 13.8083 103.744C14.6577 92.0059 34.427 80.1907 59.9879 80.1907C85.5488 80.1907 106.399 92.0831 106.399 106.833Z" fill="url(#paint1_linear)"/>
<path d="M78.1361 117.49L67.2476 126.602C64.622 128.841 60.7608 128.996 57.9036 127.065L30.2576 108.532C28.4814 107.373 27.4775 105.365 27.4775 103.28V59.6492L80.9161 70.3832V111.698C80.8389 113.937 79.835 116.022 78.1361 117.49Z" fill="url(#paint2_linear)"/>
<path d="M34.4998 102L54.9998 115L55.8943 121.428L33.4998 107L34.4998 102Z" fill="url(#paint3_linear)"/>
<path d="M19.9855 12.3885L83.4632 4.28003L135.28 27.7559L97.6723 64.2826L19.9855 12.3885Z" fill="url(#paint4_linear)"/>
<path d="M96.9001 119.574L134.894 63.742L135.28 27.7559L97.209 64.5914L96.9001 119.574Z" fill="url(#paint5_linear)"/>
<path d="M115.743 81.8818C115.743 82.2812 116.188 82.5194 116.52 82.2979L117.373 81.7289C117.512 81.6362 117.596 81.4801 117.596 81.3129V67.3344C117.596 66.9286 117.138 66.6918 116.807 66.9264L115.954 67.5308C115.821 67.6246 115.743 67.7767 115.743 67.9389V81.8818ZM118.986 76.7851C118.986 77.1844 119.431 77.4226 119.763 77.2011L120.617 76.6322C120.756 76.5395 120.839 76.3834 120.839 76.2162V62.0832C120.839 61.6774 120.381 61.4406 120.05 61.6752L119.197 62.2797C119.065 62.3734 118.986 62.5255 118.986 62.6877V76.7851ZM122.152 71.6883C122.152 72.0877 122.597 72.3259 122.929 72.1044L123.783 71.5355C123.922 71.4427 124.006 71.2866 124.006 71.1194V56.9865C124.006 56.5807 123.548 56.3439 123.217 56.5784L122.363 57.1829C122.231 57.2767 122.152 57.4288 122.152 57.5909V71.6883ZM125.395 66.5916C125.395 66.9909 125.841 67.2291 126.173 67.0076L127.026 66.4387C127.165 66.346 127.249 66.1899 127.249 66.0227V51.8125C127.249 51.4067 126.791 51.1699 126.46 51.4045L125.606 52.0089C125.474 52.1027 125.395 52.2548 125.395 52.417V66.5916ZM128.639 61.4176C128.639 61.817 129.084 62.0552 129.416 61.8337L130.27 61.2647C130.409 61.172 130.492 61.0159 130.492 60.8487V46.6385C130.492 46.2327 130.034 45.996 129.703 46.2305L128.85 46.835C128.718 46.9287 128.639 47.0808 128.639 47.243V61.4176Z" fill="#2FAAAF"/>
<path d="M102.228 137.259L101.997 137.49C98.8304 140.502 93.9653 140.888 90.413 138.185L7.39785 84.9013C5.23559 83.3568 4 80.8084 4 78.1828V4.51172L104.468 53.0852V131.853C104.545 133.938 103.695 135.869 102.228 137.259Z" fill="url(#paint6_linear)"/>
<path d="M102.228 137.259L101.997 137.49C98.8304 140.502 93.9653 140.888 90.413 138.185L7.39785 84.9013C5.23559 83.3568 4 80.8084 4 78.1828V4.51172L104.468 53.0852V131.853C104.545 133.938 103.695 135.869 102.228 137.259Z" fill="url(#paint7_linear)"/>
<path d="M84.8531 123.513C84.2353 123.513 83.6175 123.359 83.077 122.973L11.5681 78.6463C9.40588 77.2563 8.09308 74.8623 8.09308 72.3139V20.2654C8.09308 19.0298 9.09696 18.2576 10.1009 18.2576C10.487 18.2576 10.7958 18.3348 11.1047 18.5665L85.162 62.3521C86.9381 63.4333 88.0193 65.3638 88.0193 67.4489V120.347C88.0193 122.355 86.3975 123.513 84.8531 123.513Z" fill="url(#paint8_linear)"/>
<path d="M90.2586 57.3325L5.39017 7.13734C3.53681 5.97899 3.6912 3.27617 5.62179 2.34949L9.63746 0.418902C10.873 -0.198886 12.4175 -0.121661 13.653 0.573349L102.846 50.0736C105.008 51.3091 105.086 54.3981 103.078 55.7881L101.302 57.0237C98.0582 59.2631 93.6564 59.4176 90.2586 57.3325Z" fill="url(#paint9_linear)"/>
<path d="M37.6003 94.7462L31.4185 91.0553V55.0371L37.6003 58.2189V94.7462Z" fill="#70FFF6"/>
<path d="M47.4363 100.727L41.2363 97.0361V50.6543L47.4363 53.8361V100.727Z" fill="#FFC38B"/>
<path d="M56.8908 106.436L50.709 102.745V72.9453L56.8908 76.1453V106.436Z" fill="#70FFF6"/>
<path d="M18.0181 70.8012C18.0181 70.8012 31.4544 53.583 43.6181 68.5103C55.7817 83.4375 50.5999 95.8557 78.3999 88.4194" stroke="#E9F2FF" stroke-width="2" stroke-miterlimit="10" stroke-linecap="round"/>
<path d="M43.5092 69.7098C44.3928 69.7098 45.1092 68.9934 45.1092 68.1098C45.1092 67.2261 44.3928 66.5098 43.5092 66.5098C42.6255 66.5098 41.9092 67.2261 41.9092 68.1098C41.9092 68.9934 42.6255 69.7098 43.5092 69.7098Z" fill="#A1FFFC"/>
</g>
<defs>
<linearGradient id="paint0_linear" x1="13.7798" y1="113.014" x2="106.399" y2="113.014" gradientUnits="userSpaceOnUse">
<stop stop-color="#3D4866"/>
<stop offset="0.3104" stop-color="#282F49"/>
<stop offset="0.75" stop-color="#2E3549"/>
<stop offset="1" stop-color="#232735"/>
</linearGradient>
<linearGradient id="paint1_linear" x1="-0.900402" y1="122.381" x2="107.645" y2="96.47" gradientUnits="userSpaceOnUse">
<stop stop-color="#59658A"/>
<stop offset="0.5" stop-color="#4D5A7D"/>
<stop offset="0.995" stop-color="#676E9A"/>
</linearGradient>
<linearGradient id="paint2_linear" x1="27.4112" y1="93.9949" x2="80.8321" y2="93.9949" gradientUnits="userSpaceOnUse">
<stop stop-color="#8A96AE"/>
<stop offset="0.588542" stop-color="#6B789A"/>
<stop offset="0.65625" stop-color="#7C8DAE"/>
<stop offset="0.703125" stop-color="#5B6F98"/>
<stop offset="0.7821" stop-color="#506593"/>
</linearGradient>
<linearGradient id="paint3_linear" x1="41.9998" y1="109.5" x2="38.9998" y2="114" gradientUnits="userSpaceOnUse">
<stop stop-color="#465275"/>
<stop offset="1" stop-color="#353F5D"/>
</linearGradient>
<linearGradient id="paint4_linear" x1="38.4355" y1="1.89545" x2="103.109" y2="38.4875" gradientUnits="userSpaceOnUse">
<stop stop-color="#6976A0"/>
<stop offset="0.995" stop-color="#4C5A77"/>
</linearGradient>
<linearGradient id="paint5_linear" x1="139.5" y1="43.4999" x2="102.5" y2="79.9999" gradientUnits="userSpaceOnUse">
<stop stop-color="#3F4A68"/>
<stop offset="0.995" stop-color="#282F49"/>
</linearGradient>
<linearGradient id="paint6_linear" x1="10.3905" y1="72.2547" x2="103.4" y2="72.2547" gradientUnits="userSpaceOnUse">
<stop stop-color="#E7EFF5"/>
<stop offset="0.2574" stop-color="#C3C5D2"/>
<stop offset="0.6421" stop-color="#C6C8D5"/>
<stop offset="0.8254" stop-color="#CED3DD"/>
<stop offset="0.8651" stop-color="#DDE4EC"/>
<stop offset="0.8962" stop-color="#DFE6EE"/>
<stop offset="0.9307" stop-color="#98A5B5"/>
<stop offset="0.995" stop-color="#7E8EA0"/>
</linearGradient>
<linearGradient id="paint7_linear" x1="10.3905" y1="72.2547" x2="103.4" y2="72.2547" gradientUnits="userSpaceOnUse">
<stop stop-color="#444D6D"/>
<stop offset="0.804862" stop-color="#333A54"/>
<stop offset="0.904314" stop-color="#3C4661"/>
<stop offset="0.9375" stop-color="#2E3344"/>
<stop offset="0.989583" stop-color="#2A2E40"/>
</linearGradient>
<linearGradient id="paint8_linear" x1="13.1504" y1="70.914" x2="87.1499" y2="70.914" gradientUnits="userSpaceOnUse">
<stop stop-color="#2FD8CF"/>
<stop offset="1" stop-color="#2AD9D0"/>
</linearGradient>
<linearGradient id="paint9_linear" x1="98.4998" y1="54" x2="8.49982" y2="2.5" gradientUnits="userSpaceOnUse">
<stop stop-color="#6D7397"/>
<stop offset="0.5" stop-color="#697490"/>
<stop offset="0.997397" stop-color="#697794"/>
</linearGradient>
<clipPath id="clip0">
<rect x="4" width="131.28" height="140" fill="white"/>
</clipPath>
</defs>
</svg>
