<svg width="140" height="145" viewBox="0 0 140 145" fill="none" xmlns="http://www.w3.org/2000/svg">
<path d="M102.961 30.7211C102.961 30.7049 102.961 30.7049 102.961 30.6888C102.961 30.6726 102.961 30.6403 102.961 30.6241C102.961 30.5918 102.961 30.5757 102.961 30.5433C102.961 30.5272 102.961 30.4949 102.961 30.4787C102.961 30.4625 102.961 30.4302 102.961 30.4141C102.961 30.3979 102.896 30.3656 102.961 30.3656C102.961 30.3333 102.961 30.3009 102.944 30.2686C102.944 30.2525 102.944 30.2363 102.944 30.2201V30.204C102.944 30.1393 102.928 30.0909 102.912 30.0262C102.912 30.0101 102.912 29.9939 102.912 29.9939C102.912 29.9454 102.896 29.8969 102.896 29.8646C102.896 29.8485 102.896 29.8485 102.896 29.8323C102.896 29.8161 102.88 29.7838 102.88 29.7677C102.88 29.7353 102.864 29.7192 102.864 29.6869C102.864 29.6707 102.847 29.6545 102.847 29.6384C102.847 29.6061 102.831 29.5899 102.831 29.5576C102.831 29.5414 102.815 29.5253 102.815 29.5091C102.815 29.4768 102.799 29.4606 102.799 29.4283C102.799 29.396 102.783 29.3798 102.783 29.3475C102.783 29.3314 102.783 29.3314 102.767 29.3152C102.751 29.2829 102.751 29.2344 102.734 29.2021C102.734 29.1859 102.718 29.1536 102.718 29.1374V29.1213C102.702 29.0566 102.686 28.992 102.654 28.9435C102.654 28.9274 102.654 28.9274 102.637 28.9112C102.621 28.8627 102.605 28.8142 102.589 28.7658C102.589 28.7496 102.589 28.7496 102.573 28.7334C102.573 28.7173 102.557 28.685 102.557 28.6688C102.54 28.6365 102.54 28.6203 102.524 28.588C102.524 28.5718 102.508 28.5557 102.508 28.5234C102.492 28.5072 102.492 28.4749 102.476 28.4587C102.476 28.4426 102.46 28.4264 102.46 28.4102C102.443 28.3779 102.427 28.3456 102.411 28.3133C102.411 28.2971 102.395 28.281 102.395 28.2648V28.2487C102.363 28.184 102.347 28.1355 102.314 28.0709C102.314 28.0709 102.314 28.0709 102.314 28.0547C102.298 28.0386 102.298 28.0224 102.282 28.0063C102.266 27.9578 102.25 27.9255 102.217 27.877C102.217 27.877 102.217 27.8608 102.201 27.8608C102.185 27.8285 102.169 27.7962 102.153 27.7477C102.136 27.7154 102.12 27.6831 102.104 27.6669C102.104 27.6669 102.104 27.6507 102.088 27.6507C102.04 27.5538 101.991 27.473 101.926 27.376L101.91 27.3599C101.91 27.3437 101.894 27.3437 101.894 27.3276C101.813 27.1983 101.732 27.069 101.652 26.9559L101.636 26.9397C101.636 26.9236 101.619 26.9236 101.619 26.9074C101.555 26.8104 101.49 26.7135 101.409 26.6165C101.393 26.6004 101.393 26.6004 101.377 26.5842C101.328 26.5357 101.296 26.4711 101.248 26.4226C101.248 26.4226 101.248 26.4226 101.232 26.4065C101.199 26.3741 101.167 26.3257 101.135 26.2933C101.118 26.2772 101.102 26.261 101.102 26.2449C101.054 26.1964 101.005 26.1317 100.957 26.0833C100.941 26.0671 100.941 26.0509 100.924 26.0509C100.892 26.0186 100.86 25.9701 100.828 25.9378L100.811 25.9217C100.795 25.9055 100.779 25.8732 100.747 25.857C100.731 25.8247 100.698 25.8085 100.682 25.7762L100.666 25.7601C100.65 25.7439 100.617 25.7116 100.601 25.6954C100.585 25.6793 100.553 25.6469 100.537 25.6308C100.52 25.6146 100.52 25.6146 100.504 25.5985C100.488 25.5823 100.456 25.55 100.44 25.5338C100.424 25.5177 100.407 25.5015 100.391 25.4854C100.375 25.4692 100.359 25.4692 100.359 25.453C100.343 25.4369 100.31 25.4046 100.294 25.3884C100.278 25.3722 100.262 25.3561 100.246 25.3399C100.23 25.3238 100.213 25.3076 100.197 25.3076C100.181 25.2914 100.149 25.2753 100.133 25.243C100.117 25.2268 100.1 25.2268 100.1 25.2106C100.084 25.1945 100.068 25.1783 100.036 25.1622C100.02 25.146 99.9872 25.1298 99.9711 25.1137C99.9549 25.1137 99.9549 25.0975 99.9387 25.0975C99.9064 25.0814 99.8903 25.0652 99.8579 25.0329C99.8418 25.0167 99.8256 25.0006 99.7933 24.9844C99.7933 24.9844 99.7771 24.9844 99.7771 24.9682C99.7287 24.9359 99.6802 24.9036 99.6317 24.8713C99.5832 24.839 99.5347 24.8066 99.4863 24.7905C99.4701 24.7905 99.4701 24.7743 99.454 24.7743L55.0252 2.47867C54.9928 2.46251 54.9444 2.43019 54.9121 2.41403C54.8959 2.41403 54.8797 2.39787 54.8636 2.39787C54.8474 2.38171 54.8313 2.38171 54.7989 2.36555C54.7828 2.36555 54.7666 2.34939 54.7505 2.34939C54.7181 2.33323 54.702 2.33323 54.6697 2.31707C54.6535 2.31707 54.6373 2.30092 54.6212 2.30092C54.6212 2.30092 54.605 2.30092 54.605 2.28476C54.5565 2.2686 54.5081 2.23628 54.4596 2.22012H54.4434C54.3949 2.20396 54.3626 2.1878 54.3141 2.17164H54.298C54.2818 2.17164 54.2657 2.15548 54.2495 2.15548C54.2333 2.15548 54.201 2.13932 54.1849 2.13932C54.1687 2.13932 54.1525 2.13932 54.1525 2.12316C54.1364 2.12316 54.1041 2.107 54.0879 2.107C54.0717 2.107 54.0556 2.09084 54.0394 2.09084C54.0233 2.09084 54.0071 2.09084 53.991 2.07468C53.9748 2.07468 53.9425 2.05852 53.9263 2.05852C53.9102 2.05852 53.9102 2.05852 53.894 2.05852C53.8778 2.05852 53.8455 2.05852 53.8294 2.04236C53.8132 2.04236 53.7809 2.0262 53.7647 2.0262H53.7486C53.7324 2.0262 53.7001 2.0262 53.6839 2.0262C53.6516 2.0262 53.6354 2.0262 53.6031 2.0262H53.587C53.5708 2.0262 53.5546 2.0262 53.5385 2.0262C53.5062 2.0262 53.4738 2.0262 53.4415 2.0262H53.4254C53.4092 2.0262 53.393 2.0262 53.393 2.0262C53.3607 2.0262 53.3122 2.0262 53.2799 2.0262C53.2638 2.0262 53.2638 2.0262 53.2476 2.0262C53.2314 2.0262 53.2314 2.0262 53.2153 2.0262C53.1668 2.0262 53.1022 2.04236 53.0537 2.04236V2C53.0766 2.0812 53.0016 2.0258 53.0016 2.04196C52.9693 2.04196 52.9046 2.05812 52.9046 2.05812C52.9046 2.05812 52.8723 2.07428 52.8562 2.07428C52.84 2.07428 52.8077 2.09044 52.7915 2.09044H52.7754C52.743 2.1066 52.6991 2.09084 52.6784 2.12276C52.6696 2.13633 52.5496 2.17203 52.5781 2.12316C52.5296 2.13932 52.5298 2.12276 52.4975 2.13892C52.4975 2.13892 41.9092 3.32197 39.9356 3.52775C39.727 3.54949 39.6178 3.70859 39.6225 3.7055C39.6225 3.7055 39.6989 3.66068 39.7517 3.64086L39.8002 3.6247C39.8325 3.60854 39.9029 3.72166 39.9352 3.72166C39.9676 3.7055 39.9837 3.7055 40.016 3.68934C40.0322 3.68934 40.0484 3.67318 40.0645 3.67318C40.0968 3.65702 40.1292 3.65702 40.1615 3.65702C40.1776 3.65702 40.1938 3.65702 40.1938 3.64086H40.21C40.2584 3.6247 40.3231 3.6247 40.3716 3.6247C40.3877 3.6247 40.4039 3.6247 40.4362 3.6247C40.4685 3.6247 39.8868 3.51159 39.9191 3.51159C39.9352 3.51159 39.9676 3.51159 39.9837 3.51159C40.0032 3.51159 40.0226 3.51159 40.0421 3.51159C40.0549 3.51159 40.0678 3.51159 40.0807 3.51159C40.0968 3.51159 40.1292 3.51159 40.1453 3.51159C40.1776 3.51159 40.1938 3.51159 40.2261 3.51159C40.2584 3.51159 40.2746 3.51159 40.3069 3.52775C40.3231 3.52775 40.3069 3.45452 40.3716 3.54391C40.4039 3.54391 40.4362 3.56007 40.4685 3.56007C40.4847 3.56007 40.517 3.57623 40.5332 3.57623C40.5655 3.57623 40.5978 3.59239 40.6301 3.60855C40.6463 3.60855 40.6786 3.6247 40.6948 3.6247C40.7271 3.64086 40.7594 3.64086 40.8079 3.65702C40.824 3.65702 40.8402 3.67318 40.8563 3.67318C40.9048 3.68934 40.9533 3.7055 41.0018 3.72166H41.0179C41.0664 3.73782 41.1311 3.77014 41.1795 3.7863C41.1957 3.7863 41.2119 3.80246 41.228 3.80246C41.2603 3.81862 41.3088 3.83478 41.3411 3.8671C41.3573 3.88326 41.3735 3.88326 41.4058 3.89942C41.4543 3.93174 41.5027 3.9479 41.5674 3.98022L88.4654 31.1251C88.53 31.1574 88.5785 31.1897 88.6431 31.2382C88.6916 31.2705 88.7563 31.3028 88.8047 31.3513C88.8209 31.3675 88.8371 31.3836 88.8694 31.3998C88.9017 31.4321 88.9502 31.4483 88.9825 31.4806C88.9986 31.4968 89.031 31.5129 89.0471 31.5291C89.0794 31.5614 89.1118 31.5776 89.1441 31.6099C89.1602 31.626 89.1926 31.6422 89.2087 31.6745C89.241 31.7068 89.2734 31.723 89.3057 31.7553C89.3218 31.7715 89.3542 31.8038 89.3703 31.82C89.4026 31.8523 89.435 31.8684 89.4673 31.9008C89.4834 31.9169 89.5158 31.9492 89.5319 31.9654C89.5642 31.9977 89.5966 32.03 89.6289 32.0462C89.645 32.0624 89.6774 32.0947 89.6935 32.1108C89.7258 32.1432 89.7582 32.1755 89.7905 32.2078C89.8066 32.224 89.8228 32.2563 89.8551 32.2724C89.8874 32.3209 89.9359 32.3532 89.9682 32.4017C89.9844 32.4179 89.9844 32.434 90.0005 32.434C90.049 32.4825 90.0975 32.5472 90.146 32.6118C90.1621 32.6279 90.1783 32.6441 90.1945 32.6603C90.2268 32.7087 90.2591 32.7411 90.2914 32.7895C90.3399 32.838 90.3722 32.9027 90.4207 32.9511C90.4369 32.9673 90.4369 32.9835 90.453 32.9835C90.5177 33.0804 90.5823 33.1774 90.6469 33.2743C90.6631 33.2905 90.6631 33.3067 90.6793 33.3228C90.7601 33.4521 90.8409 33.5652 90.9216 33.6945C90.9378 33.7107 90.9378 33.7268 90.954 33.743C91.0025 33.8399 91.0509 33.9208 91.1156 34.0177C91.1317 34.05 91.1479 34.0824 91.164 34.1147C91.1802 34.147 91.1964 34.1793 91.2125 34.2278C91.2448 34.2763 91.261 34.3247 91.2772 34.3732C91.2933 34.3894 91.2933 34.4055 91.3095 34.4217C91.3418 34.4863 91.3741 34.551 91.4064 34.6156C91.4064 34.6318 91.4226 34.6479 91.4226 34.6641C91.4388 34.7126 91.4711 34.7611 91.4872 34.8095C91.5034 34.8257 91.5034 34.858 91.5196 34.8742C91.5357 34.9227 91.5519 34.9711 91.568 35.0196C91.568 35.0358 91.5842 35.0681 91.5842 35.0843C91.6004 35.1489 91.6327 35.1974 91.6488 35.262C91.6488 35.2782 91.665 35.2782 91.665 35.2943C91.6812 35.359 91.7135 35.4236 91.7296 35.5044C91.7296 35.5206 91.7458 35.5529 91.7458 35.5691C91.7619 35.6175 91.7781 35.666 91.7943 35.7145C91.7943 35.7468 91.8104 35.763 91.8104 35.7953C91.8266 35.8438 91.8266 35.8761 91.8428 35.9246C91.8428 35.9569 91.8589 35.973 91.8589 36.0054C91.8751 36.0538 91.8751 36.1023 91.8912 36.1346C91.8912 36.167 91.9074 36.1831 91.9074 36.2154C91.9235 36.2639 91.9235 36.3286 91.9397 36.377C91.9397 36.3932 91.9397 36.4094 91.9397 36.4094C91.9559 36.474 91.9559 36.5386 91.972 36.6033C91.972 36.6194 91.972 36.6356 91.972 36.6518C91.972 36.7002 91.9882 36.7487 91.9882 36.7972C91.9882 36.8134 91.9882 36.8457 91.9882 36.8618C91.9882 36.9103 91.9882 36.9588 92.0043 36.9911C92.0043 37.0073 92.0043 37.0396 92.0043 37.0557C92.0043 37.1204 92.0043 37.185 92.0043 37.2497L91.4564 139.258C91.4564 139.323 91.4564 139.387 91.4564 139.452C91.4564 139.468 91.4564 139.484 91.4564 139.5C91.4564 139.549 91.4564 139.581 91.4403 139.63C91.4403 139.662 91.4403 139.678 91.4403 139.71C91.4403 139.743 91.4241 139.775 91.4241 139.824C91.4241 139.856 91.4241 139.872 91.408 139.904C91.408 139.937 91.3918 139.969 91.3918 140.001C91.3918 140.034 91.3756 140.066 91.3756 140.082C91.3756 140.114 91.3595 140.147 91.3595 140.163C91.3595 140.195 91.3433 140.228 91.3272 140.26C91.3272 140.292 91.311 140.308 91.311 140.341C91.2948 140.373 91.2948 140.421 91.2787 140.454C91.2787 140.47 91.2625 140.502 91.2625 140.518C91.2464 140.583 91.2141 140.648 91.1817 140.696C91.1656 140.745 91.1333 140.793 91.1171 140.825C91.1171 140.842 91.1009 140.842 91.1009 140.858C91.0848 140.89 91.0686 140.922 91.0363 140.955C91.004 141.019 90.9555 141.068 90.9232 141.116C90.907 141.133 90.907 141.133 90.8909 141.149C90.8585 141.197 90.8101 141.246 90.7616 141.278C90.7616 141.278 90.7616 141.294 90.7454 141.294C90.6969 141.343 90.6485 141.375 90.6 141.423C90.5838 141.44 90.5838 141.44 90.5677 141.456C90.5192 141.488 90.2487 141.569 90.4061 141.569L101.619 135.177C101.668 135.145 101.732 135.112 101.781 135.064C101.797 135.048 101.797 135.048 101.813 135.032C101.862 134.999 101.91 134.951 101.959 134.902C101.959 134.902 101.959 134.886 101.975 134.886C102.023 134.838 102.056 134.805 102.104 134.757C102.12 134.741 102.12 134.741 102.136 134.725C102.185 134.676 102.217 134.628 102.25 134.563C102.266 134.531 102.282 134.498 102.298 134.466C102.298 134.45 102.314 134.45 102.314 134.434C102.33 134.385 102.363 134.353 102.379 134.304C102.411 134.24 102.427 134.191 102.46 134.127V134.111C102.46 134.094 102.476 134.078 102.476 134.062C102.492 134.03 102.508 133.981 102.508 133.949C102.508 133.933 102.508 133.933 102.524 133.917C102.524 133.9 102.524 133.884 102.54 133.868C102.557 133.836 102.557 133.803 102.573 133.771C102.573 133.755 102.573 133.739 102.589 133.723C102.589 133.707 102.589 133.69 102.605 133.674C102.605 133.642 102.621 133.626 102.621 133.593C102.621 133.577 102.621 133.561 102.637 133.545C102.637 133.529 102.637 133.513 102.637 133.496C102.637 133.464 102.637 133.448 102.654 133.416C102.654 133.399 102.654 133.383 102.654 133.367C102.654 133.351 102.654 133.319 102.654 133.303C102.654 133.286 102.654 133.254 102.654 133.222C102.654 133.206 102.654 133.206 102.654 133.189C102.654 133.157 102.654 133.125 102.654 133.092C102.654 133.076 102.654 133.06 102.654 133.044V133.028C102.654 132.979 102.654 132.915 102.654 132.85C102.654 132.85 102.654 132.85 102.654 132.834L102.799 81.8421L102.944 30.8504C102.961 30.8342 102.961 30.7696 102.961 30.7211Z" fill="url(#paint0_linear)"/>
<path d="M88.465 31.1094C90.4203 32.2406 92.0201 35.0039 92.004 37.2501L91.7131 139.234C91.7131 141.48 90.0971 142.401 88.1418 141.27L41.5373 114.364C39.582 113.233 37.9822 110.47 37.9984 108.223L38.2892 6.23967C38.2892 3.99348 39.9052 3.07238 41.8605 4.20355L88.465 31.1094Z" fill="url(#paint1_linear)"/>
<path d="M91.713 139.01L91.6322 139.785L91.4221 140.432L91.0989 140.949L90.6626 141.304L90.1293 141.498L89.5314 141.515L88.8689 141.369L88.1417 141.046L41.5372 114.14L40.8262 113.639L40.1636 113.025L39.5657 112.298L39.0324 111.49L38.5961 110.633L38.2729 109.745L38.0629 108.856L37.9982 107.999L38.2891 6.01573L38.3699 5.24007L38.58 4.59368L38.9032 4.07657L39.3395 3.72106L39.8728 3.52715L40.4707 3.51099L41.1494 3.65642L41.8604 3.97962L88.4649 30.8855L89.1759 31.3864L89.8384 32.0005L90.4363 32.7277L90.9696 33.5356L91.4059 34.3921L91.7291 35.2809L91.9392 36.1697L92.0038 37.0261L91.713 139.01Z" fill="url(#paint2_linear)"/>
<path d="M90.7147 139.495L90.6339 140.271L90.4239 140.917L90.1007 141.435L89.6643 141.79L89.1311 141.984L88.5332 142L87.8706 141.855L87.1434 141.531L40.539 114.626L39.8279 114.125L39.1654 113.511L38.5675 112.783L38.0342 111.975L37.5979 111.119L37.2747 110.23L37.0646 109.341L37 108.485L37.2909 6.50133L37.3717 5.72567L37.5817 5.07928L37.9049 4.56217L38.3413 4.20666L38.8745 4.01274L39.4724 3.99658L40.1511 4.14202L40.8622 4.46521L87.4666 31.3711L88.1777 31.872L88.8402 32.4861L89.4381 33.2133L89.9714 34.0212L90.4077 34.8777L90.7309 35.7665L90.941 36.6553L91.0056 37.5117L90.7147 139.495Z" fill="url(#paint3_linear)"/>
<path d="M81.8879 36.2954C83.3099 37.1196 84.4734 39.1234 84.4734 40.7717L84.2633 114.961C84.2633 116.593 83.0837 117.255 81.6616 116.447L47.7586 96.8618C46.3366 96.0377 45.1731 94.0339 45.1731 92.3856L45.3832 18.1805C45.3832 16.5483 46.5628 15.8858 47.9849 16.6938L81.8879 36.2954Z" fill="url(#paint4_linear)"/>
<path d="M64.3547 117.885C64.3547 120.761 62.3509 121.812 59.8624 120.228C57.3576 118.644 55.37 115.073 55.37 112.229C55.37 109.385 57.3738 108.302 59.8624 109.886C62.3509 111.421 64.3547 115.009 64.3547 117.885Z" fill="url(#paint5_linear)"/>
<path d="M62.7717 21.9636L69.1224 25.8743C69.2679 25.9389 69.4294 25.842 69.4456 25.6804L69.5587 24.2906C69.5587 24.1937 69.5102 24.1129 69.4294 24.0644L63.0949 20.1699C62.9494 20.1053 62.7878 20.2022 62.7717 20.3638L62.6586 21.7536C62.6424 21.8344 62.6909 21.9152 62.7717 21.9636Z" fill="white"/>
<defs>
<linearGradient id="paint0_linear" x1="70.4094" y1="-33.4724" x2="80.8227" y2="109.282" gradientUnits="userSpaceOnUse">
<stop stop-color="#6F7B9C"/>
<stop offset="0.2624" stop-color="#637096"/>
<stop offset="0.3352" stop-color="#637095"/>
<stop offset="0.3997" stop-color="#455173"/>
<stop offset="0.4344" stop-color="#404C6B"/>
<stop offset="0.479872" stop-color="#484E6B"/>
<stop offset="0.519864" stop-color="#393D57"/>
<stop offset="0.543897" stop-color="#30364E"/>
<stop offset="0.590135" stop-color="#2C3046"/>
<stop offset="0.628601" stop-color="#2C3046"/>
</linearGradient>
<linearGradient id="paint1_linear" x1="37.9984" y1="72.7368" x2="92.004" y2="72.7368" gradientUnits="userSpaceOnUse">
<stop offset="0.995" stop-color="#353C4D"/>
</linearGradient>
<linearGradient id="paint2_linear" x1="37.9982" y1="72.5128" x2="92.0038" y2="72.5128" gradientUnits="userSpaceOnUse">
<stop stop-color="#7583A9"/>
<stop offset="0.995" stop-color="#404F75"/>
</linearGradient>
<linearGradient id="paint3_linear" x1="37" y1="72.9984" x2="91.0056" y2="72.9984" gradientUnits="userSpaceOnUse">
<stop stop-color="#55658E"/>
<stop offset="0.3168" stop-color="#5B6A93"/>
<stop offset="0.995" stop-color="#394564"/>
</linearGradient>
<linearGradient id="paint4_linear" x1="45.1769" y1="66.5776" x2="84.4716" y2="66.5776" gradientUnits="userSpaceOnUse">
<stop offset="1" stop-color="#2ED8CF"/>
</linearGradient>
<linearGradient id="paint5_linear" x1="55.3563" y1="115.062" x2="64.351" y2="115.062" gradientUnits="userSpaceOnUse">
<stop offset="1" stop-color="#2ED8CF"/>
</linearGradient>
</defs>
</svg>
