<svg width="140" height="140" viewBox="0 0 140 140" fill="none" xmlns="http://www.w3.org/2000/svg">
<path d="M0.0825195 44.676V76.1658C0.0825195 79.2819 1.70981 82.1729 4.35848 83.7829L61.4694 121.747C67.4073 125.365 74.8513 125.365 80.7892 121.747L135.65 83.7829C138.298 82.1556 139.926 79.2646 139.926 76.1658V45.3685L0.0825195 44.676Z" fill="url(#paint0_linear)"/>
<path d="M0.0825195 45.3687V76.166C0.0825195 79.2821 1.70981 82.1731 4.35848 83.7831L61.4694 121.747C67.4073 125.366 74.8513 125.366 80.7892 121.747L135.65 83.7831C138.298 82.1558 139.926 79.2647 139.926 76.166V45.3687H0.0825195Z" fill="url(#paint1_linear)"/>
<path d="M137.069 53.3065L81.1527 87.4796C74.9897 91.2362 67.2342 91.2362 61.0712 87.4796L2.02139 51.4022C-0.904265 49.6191 -0.592657 45.2739 2.55805 43.9236L64.7759 17.2984C68.8268 15.5672 73.3971 15.5672 77.4307 17.2984L136.29 42.4867C140.86 44.4256 141.31 50.7097 137.069 53.3065Z" fill="url(#paint2_linear)"/>
<path d="M137.069 51.3065L81.1527 85.4796C74.9897 89.2362 67.2342 89.2362 61.0712 85.4796L2.02139 49.4022C-0.904265 47.6191 -0.592657 43.2739 2.55805 41.9236L64.7759 15.2984C68.8268 13.5672 73.3971 13.5672 77.4307 15.2984L136.29 40.4867C140.86 42.4256 141.31 48.7097 137.069 51.3065Z" fill="url(#paint3_linear)"/>
<path d="M95.2788 97.6872C95.2788 97.5229 95.3596 97.369 95.4949 97.2756L96.001 96.9266C96.3327 96.6978 96.7849 96.9353 96.7849 97.3382V103.048C96.7849 103.212 96.7041 103.366 96.5688 103.46L96.0627 103.809C95.731 104.037 95.2788 103.8 95.2788 103.397V97.6872ZM98.7411 101.017C98.7411 101.418 99.1898 101.656 99.5218 101.431L100.028 101.088C100.165 100.995 100.247 100.84 100.247 100.674V94.9319C100.247 94.529 99.795 94.2915 99.4634 94.5203L98.9573 94.8693C98.8219 94.9627 98.7411 95.1165 98.7411 95.2809V101.017ZM102.203 98.6454C102.203 99.0466 102.652 99.2844 102.984 99.0592L103.49 98.716C103.627 98.623 103.71 98.468 103.71 98.3022V92.5256C103.71 92.1227 103.257 91.8852 102.926 92.114L102.42 92.463C102.284 92.5563 102.203 92.7102 102.203 92.8746V98.6454ZM105.666 96.2564C105.666 96.6576 106.114 96.8954 106.446 96.6702L106.952 96.327C107.09 96.234 107.172 96.079 107.172 95.9132V90.102C107.172 89.699 106.72 89.4616 106.388 89.6904L105.882 90.0394C105.747 90.1327 105.666 90.2866 105.666 90.451V96.2564ZM109.128 93.9021C109.128 94.3032 109.577 94.541 109.909 94.3159L110.415 93.9727C110.552 93.8796 110.634 93.7246 110.634 93.5588V87.713C110.634 87.31 110.182 87.0726 109.85 87.3014L109.344 87.6504C109.209 87.7437 109.128 87.8976 109.128 88.062V93.9021ZM112.59 91.5131C112.59 91.9142 113.039 92.152 113.371 91.9269L113.877 91.5837C114.014 91.4906 114.096 91.3356 114.096 91.1698V85.2893C114.096 84.8864 113.644 84.649 113.313 84.8777L112.807 85.2268C112.671 85.3201 112.59 85.474 112.59 85.6384V91.5131ZM116.053 89.1587C116.053 89.5598 116.501 89.7976 116.833 89.5725L117.339 89.2293C117.477 89.1362 117.559 88.9812 117.559 88.8155V82.9003C117.559 82.4974 117.107 82.26 116.775 82.4887L116.269 82.8378C116.134 82.9311 116.053 83.085 116.053 83.2494V89.1587ZM119.515 86.787C119.515 87.1881 119.964 87.426 120.296 87.2008L120.802 86.8576C120.939 86.7645 121.021 86.6095 121.021 86.4438V80.494C121.021 80.0911 120.569 79.8537 120.237 80.0824L119.731 80.4315C119.596 80.5248 119.515 80.6787 119.515 80.8431V86.787ZM122.977 84.398C122.977 84.7991 123.426 85.037 123.758 84.8118L124.264 84.4686C124.401 84.3755 124.483 84.2205 124.483 84.0548V78.0704C124.483 77.6675 124.031 77.4301 123.7 77.6588L123.193 78.0078C123.058 78.1012 122.977 78.2551 122.977 78.4194V84.398ZM126.656 75.5842C126.52 75.6775 126.44 75.8314 126.44 75.9958V82.009C126.44 82.4101 126.888 82.648 127.22 82.4228L127.726 82.0796C127.864 81.9865 127.946 81.8315 127.946 81.6658V75.6468C127.946 75.2439 127.494 75.0064 127.162 75.2352L126.656 75.5842Z" fill="#131727"/>
<path d="M95.2788 87.456C95.2788 87.2917 95.3596 87.1378 95.4949 87.0444L96.001 86.6954C96.3327 86.4666 96.7849 86.7041 96.7849 87.107V92.8169C96.7849 92.9813 96.7041 93.1352 96.5688 93.2285L96.0627 93.5775C95.731 93.8063 95.2788 93.5688 95.2788 93.1659V87.456ZM98.7411 90.7859C98.7411 91.1871 99.1898 91.4249 99.5218 91.1997L100.028 90.8565C100.165 90.7635 100.247 90.6085 100.247 90.4427V84.7007C100.247 84.2978 99.795 84.0603 99.4634 84.2891L98.9573 84.6381C98.8219 84.7315 98.7411 84.8853 98.7411 85.0497V90.7859ZM102.203 88.4142C102.203 88.8154 102.652 89.0532 102.984 88.828L103.49 88.4848C103.627 88.3918 103.71 88.2368 103.71 88.071V82.2944C103.71 81.8915 103.257 81.654 102.926 81.8828L102.42 82.2318C102.284 82.3251 102.203 82.479 102.203 82.6434V88.4142ZM105.666 86.0252C105.666 86.4264 106.114 86.6642 106.446 86.439L106.952 86.0958C107.09 86.0028 107.172 85.8478 107.172 85.682V79.8708C107.172 79.4678 106.72 79.2304 106.388 79.4592L105.882 79.8082C105.747 79.9015 105.666 80.0554 105.666 80.2198V86.0252ZM109.128 83.6709C109.128 84.072 109.577 84.3098 109.909 84.0847L110.415 83.7415C110.552 83.6484 110.634 83.4934 110.634 83.3276V77.4818C110.634 77.0788 110.182 76.8414 109.85 77.0702L109.344 77.4192C109.209 77.5125 109.128 77.6664 109.128 77.8308V83.6709ZM112.59 81.2819C112.59 81.683 113.039 81.9208 113.371 81.6957L113.877 81.3525C114.014 81.2594 114.096 81.1044 114.096 80.9386V75.0581C114.096 74.6552 113.644 74.4178 113.313 74.6465L112.807 74.9956C112.671 75.0889 112.59 75.2428 112.59 75.4072V81.2819ZM116.053 78.9275C116.053 79.3286 116.501 79.5664 116.833 79.3413L117.339 78.9981C117.477 78.905 117.559 78.75 117.559 78.5843V72.6691C117.559 72.2662 117.107 72.0288 116.775 72.2575L116.269 72.6066C116.134 72.6999 116.053 72.8538 116.053 73.0182V78.9275ZM119.515 76.5558C119.515 76.9569 119.964 77.1948 120.296 76.9696L120.802 76.6264C120.939 76.5333 121.021 76.3783 121.021 76.2126V70.2628C121.021 69.8599 120.569 69.6225 120.237 69.8512L119.731 70.2003C119.596 70.2936 119.515 70.4475 119.515 70.6119V76.5558ZM122.977 74.1668C122.977 74.5679 123.426 74.8058 123.758 74.5806L124.264 74.2374C124.401 74.1443 124.483 73.9893 124.483 73.8236V67.8392C124.483 67.4363 124.031 67.1988 123.7 67.4276L123.193 67.7766C123.058 67.87 122.977 68.0239 122.977 68.1882V74.1668ZM126.656 65.353C126.52 65.4463 126.44 65.6002 126.44 65.7646V71.7778C126.44 72.1789 126.888 72.4168 127.22 72.1916L127.726 71.8484C127.864 71.7553 127.946 71.6003 127.946 71.4346V65.4156C127.946 65.0127 127.494 64.7752 127.162 65.004L126.656 65.353Z" fill="#131727"/>
<path d="M95 97.2239C95 97.0595 95.0808 96.9056 95.2161 96.8123L95.7222 96.4632C96.0539 96.2345 96.5061 96.4719 96.5061 96.8748V102.585C96.5061 102.749 96.4253 102.903 96.29 102.996L95.7839 103.345C95.4522 103.574 95 103.337 95 102.934V97.2239ZM98.4623 100.554C98.4623 100.955 98.911 101.193 99.243 100.968L99.7491 100.624C99.8863 100.531 99.9684 100.376 99.9684 100.211V94.4685C99.9684 94.0656 99.5162 93.8282 99.1846 94.0569L98.6785 94.406C98.5431 94.4993 98.4623 94.6532 98.4623 94.8176V100.554ZM101.925 98.1821C101.925 98.5832 102.373 98.821 102.705 98.5959L103.211 98.2526C103.349 98.1596 103.431 98.0046 103.431 97.8388V92.0622C103.431 91.6593 102.979 91.4219 102.647 91.6506L102.141 91.9996C102.005 92.093 101.925 92.2469 101.925 92.4112V98.1821ZM105.387 95.7931C105.387 96.1942 105.836 96.432 106.168 96.2069L106.674 95.8637C106.811 95.7706 106.893 95.6156 106.893 95.4498V89.6386C106.893 89.2357 106.441 88.9982 106.109 89.227L105.603 89.576C105.468 89.6693 105.387 89.8232 105.387 89.9876V95.7931ZM108.849 93.4387C108.849 93.8398 109.298 94.0776 109.63 93.8525L110.136 93.5093C110.273 93.4162 110.355 93.2612 110.355 93.0955V87.2496C110.355 86.8467 109.903 86.6092 109.572 86.838L109.065 87.187C108.93 87.2803 108.849 87.4342 108.849 87.5986V93.4387ZM112.312 91.0497C112.312 91.4508 112.76 91.6886 113.092 91.4635L113.598 91.1203C113.736 91.0272 113.818 90.8722 113.818 90.7065V84.826C113.818 84.423 113.366 84.1856 113.034 84.4144L112.528 84.7634C112.392 84.8567 112.312 85.0106 112.312 85.175V91.0497ZM115.774 88.6953C115.774 89.0964 116.223 89.3343 116.555 89.1091L117.061 88.7659C117.198 88.6729 117.28 88.5179 117.28 88.3521V82.437C117.28 82.034 116.828 81.7966 116.496 82.0254L115.99 82.3744C115.855 82.4677 115.774 82.6216 115.774 82.786V88.6953ZM119.236 86.3236C119.236 86.7248 119.685 86.9626 120.017 86.7374L120.523 86.3942C120.66 86.3012 120.742 86.1462 120.742 85.9804V80.0307C120.742 79.6277 120.29 79.3903 119.958 79.619L119.452 79.9681C119.317 80.0614 119.236 80.2153 119.236 80.3797V86.3236ZM122.699 83.9346C122.699 84.3358 123.147 84.5736 123.479 84.3484L123.985 84.0052C124.122 83.9122 124.205 83.7572 124.205 83.5914V77.607C124.205 77.2041 123.752 76.9667 123.421 77.1954L122.915 77.5445C122.779 77.6378 122.699 77.7917 122.699 77.9561V83.9346ZM126.377 75.1208C126.242 75.2142 126.161 75.3681 126.161 75.5324V81.5456C126.161 81.9468 126.609 82.1846 126.941 81.9594L127.448 81.6162C127.585 81.5232 127.667 81.3682 127.667 81.2024V75.1834C127.667 74.7805 127.215 74.543 126.883 74.7718L126.377 75.1208Z" fill="#2FAAAF"/>
<path d="M95 86.9927C95 86.8283 95.0808 86.6744 95.2161 86.5811L95.7222 86.232C96.0539 86.0033 96.5061 86.2407 96.5061 86.6436V92.3535C96.5061 92.5179 96.4253 92.6718 96.29 92.7651L95.7839 93.1142C95.4522 93.3429 95 93.1055 95 92.7025V86.9927ZM98.4623 90.3225C98.4623 90.7237 98.911 90.9615 99.243 90.7364L99.7491 90.3931C99.8863 90.3001 99.9684 90.1451 99.9684 89.9793V84.2373C99.9684 83.8344 99.5162 83.597 99.1846 83.8257L98.6785 84.1747C98.5431 84.2681 98.4623 84.422 98.4623 84.5864V90.3225ZM101.925 87.9508C101.925 88.352 102.373 88.5898 102.705 88.3647L103.211 88.0214C103.349 87.9284 103.431 87.7734 103.431 87.6076V81.831C103.431 81.4281 102.979 81.1906 102.647 81.4194L102.141 81.7684C102.005 81.8618 101.925 82.0157 101.925 82.18V87.9508ZM105.387 85.5619C105.387 85.963 105.836 86.2008 106.168 85.9757L106.674 85.6325C106.811 85.5394 106.893 85.3844 106.893 85.2186V79.4074C106.893 79.0045 106.441 78.767 106.109 78.9958L105.603 79.3448C105.468 79.4381 105.387 79.592 105.387 79.7564V85.5619ZM108.849 83.2075C108.849 83.6086 109.298 83.8464 109.63 83.6213L110.136 83.2781C110.273 83.185 110.355 83.03 110.355 82.8643V77.0184C110.355 76.6155 109.903 76.378 109.572 76.6068L109.065 76.9558C108.93 77.0491 108.849 77.203 108.849 77.3674V83.2075ZM112.312 80.8185C112.312 81.2196 112.76 81.4574 113.092 81.2323L113.598 80.8891C113.736 80.796 113.818 80.641 113.818 80.4753V74.5948C113.818 74.1918 113.366 73.9544 113.034 74.1832L112.528 74.5322C112.392 74.6255 112.312 74.7794 112.312 74.9438V80.8185ZM115.774 78.4641C115.774 78.8652 116.223 79.1031 116.555 78.8779L117.061 78.5347C117.198 78.4417 117.28 78.2867 117.28 78.1209V72.2058C117.28 71.8028 116.828 71.5654 116.496 71.7942L115.99 72.1432C115.855 72.2365 115.774 72.3904 115.774 72.5548V78.4641ZM119.236 76.0924C119.236 76.4936 119.685 76.7314 120.017 76.5062L120.523 76.163C120.66 76.07 120.742 75.915 120.742 75.7492V69.7995C120.742 69.3965 120.29 69.1591 119.958 69.3878L119.452 69.7369C119.317 69.8302 119.236 69.9841 119.236 70.1485V76.0924ZM122.699 73.7034C122.699 74.1046 123.147 74.3424 123.479 74.1172L123.985 73.774C124.122 73.681 124.205 73.526 124.205 73.3602V67.3758C124.205 66.9729 123.752 66.7355 123.421 66.9642L122.915 67.3133C122.779 67.4066 122.699 67.5605 122.699 67.7249V73.7034ZM126.377 64.8896C126.242 64.983 126.161 65.1369 126.161 65.3012V71.3144C126.161 71.7156 126.609 71.9534 126.941 71.7282L127.448 71.385C127.585 71.292 127.667 71.137 127.667 70.9712V64.9522C127.667 64.5493 127.215 64.3118 126.883 64.5406L126.377 64.8896Z" fill="#2FAAAF"/>
<path d="M70.9739 74.0819C48.6645 74.0819 30.5182 62.7342 30.5182 48.8013C30.5182 34.8685 48.6645 23.5208 70.9739 23.5208C93.2832 23.5208 111.43 34.8685 111.43 48.8013C111.43 62.7342 93.2832 74.0819 70.9739 74.0819Z" fill="url(#paint4_radial)"/>
<path d="M70.9739 24.0072C76.4127 24.0072 81.7005 24.6787 86.6525 26.0048C91.4367 27.2806 95.7173 29.0935 99.3935 31.4101C103.036 33.7098 105.89 36.3621 107.871 39.3165C109.885 42.3213 110.926 45.5108 110.926 48.801C110.926 52.0911 109.902 55.2638 107.871 58.2854C105.89 61.2398 103.036 63.8921 99.3935 66.1918C95.7173 68.5084 91.4367 70.3213 86.6525 71.5971C81.6837 72.9233 76.4127 73.5947 70.9739 73.5947C65.535 73.5947 60.2473 72.9233 55.2952 71.5971C50.511 70.3213 46.2305 68.5084 42.5542 66.1918C38.9115 63.8921 36.0578 61.2398 34.077 58.2854C32.0626 55.2806 31.0218 52.0911 31.0218 48.801C31.0218 45.5276 32.0458 42.3381 34.077 39.3165C36.0578 36.3621 38.9115 33.7098 42.5542 31.4101C46.2305 29.0935 50.511 27.2806 55.2952 26.0048C60.2473 24.6787 65.535 24.0072 70.9739 24.0072ZM70.9739 23C48.3456 23 30.0146 34.5492 30.0146 48.7842C30.0146 63.0192 48.3456 74.5683 70.9739 74.5683C93.6022 74.5683 111.933 63.0192 111.933 48.7842C111.933 34.5492 93.6022 23 70.9739 23Z" fill="#2ED8CF"/>
<path d="M69.9536 50.3509C69.9536 50.3509 73.9803 29.6118 96.5348 32.6626L69.9536 50.3509Z" fill="#08233D"/>
<path d="M69 48.1834C69 48.1834 89.8842 44.81 95 67L69 48.1834Z" fill="#08233D"/>
<path d="M72.0483 47.9844C72.0483 47.9844 56.7222 64.8381 37.4512 49.4112L72.0483 47.9844Z" fill="#08233D"/>
<path d="M73 49C73 49 55.5509 46.4172 57.097 27L73 49Z" fill="#08233D"/>
<path d="M69.9479 44.1337C69.9479 44.1337 78.8063 60.3146 62.3778 71.4318L69.9479 44.1337Z" fill="#08233D"/>
<path d="M70.9739 68.3903C88.6537 68.3903 102.986 59.4317 102.986 48.3807C102.986 37.3297 88.6537 28.3711 70.9739 28.3711C53.2942 28.3711 38.9619 37.3297 38.9619 48.3807C38.9619 59.4317 53.2942 68.3903 70.9739 68.3903Z" stroke="#2ED8CF" stroke-miterlimit="10"/>
<path d="M70.9735 62.7343C83.6655 62.7343 93.9543 56.3085 93.9543 48.3818C93.9543 40.4551 83.6655 34.0293 70.9735 34.0293C58.2815 34.0293 47.9927 40.4551 47.9927 48.3818C47.9927 56.3085 58.2815 62.7343 70.9735 62.7343Z" stroke="#2ED8CF" stroke-miterlimit="10"/>
<path d="M70.9742 57.6316C79.1512 57.6316 85.78 53.4905 85.78 48.3822C85.78 43.2739 79.1512 39.1328 70.9742 39.1328C62.7972 39.1328 56.1685 43.2739 56.1685 48.3822C56.1685 53.4905 62.7972 57.6316 70.9742 57.6316Z" stroke="#2ED8CF" stroke-miterlimit="10"/>
<path d="M70.9738 52.461C74.5802 52.461 77.5038 50.6347 77.5038 48.3819C77.5038 46.129 74.5802 44.3027 70.9738 44.3027C67.3674 44.3027 64.4438 46.129 64.4438 48.3819C64.4438 50.6347 67.3674 52.461 70.9738 52.461Z" stroke="#2ED8CF" stroke-miterlimit="10"/>
<path d="M30.0146 50.6296L111 45" stroke="#2ED8CF" stroke-miterlimit="10"/>
<path d="M72.6691 74.3677L69.3286 23.0176" stroke="#2ED8CF" stroke-miterlimit="10"/>
<path d="M60.121 108.882L5.10483 74.1081C4.42377 73.6844 4 72.9428 4 72.1406L4.07568 64.9109C4.07568 64.1996 4.86269 63.7607 5.46807 64.1391L60.6053 98.3215C61.1956 98.6847 61.5437 99.3204 61.5437 100.001L61.468 108.141C61.4983 108.822 60.7264 109.261 60.121 108.882Z" fill="url(#paint5_linear)"/>
<defs>
<linearGradient id="paint0_linear" x1="8.20314" y1="84.5684" x2="131.885" y2="84.5684" gradientUnits="userSpaceOnUse">
<stop stop-color="#E7EFF5"/>
<stop offset="0.2574" stop-color="#C3C5D2"/>
<stop offset="0.3352" stop-color="#C6C8D5"/>
<stop offset="0.3997" stop-color="#CED3DD"/>
<stop offset="0.4592" stop-color="#DDE4EC"/>
<stop offset="0.4655" stop-color="#DFE6EE"/>
<stop offset="0.5693" stop-color="#98A5B5"/>
<stop offset="0.995" stop-color="#7E8EA0"/>
</linearGradient>
<linearGradient id="paint1_linear" x1="-0.106419" y1="84.9148" x2="133.097" y2="84.9148" gradientUnits="userSpaceOnUse">
<stop stop-color="#475375"/>
<stop offset="0.406195" stop-color="#2E354E"/>
<stop offset="0.522558" stop-color="#3C4661"/>
<stop offset="0.642676" stop-color="#2C3045"/>
</linearGradient>
<linearGradient id="paint2_linear" x1="3.5" y1="47" x2="136" y2="44" gradientUnits="userSpaceOnUse">
<stop stop-color="#545F7C"/>
<stop offset="0.494792" stop-color="#45516D"/>
<stop offset="0.995" stop-color="#344265"/>
</linearGradient>
<linearGradient id="paint3_linear" x1="3.5" y1="45" x2="136" y2="42" gradientUnits="userSpaceOnUse">
<stop stop-color="#687699"/>
<stop offset="0.995" stop-color="#526084"/>
</linearGradient>
<radialGradient id="paint4_radial" cx="0" cy="0" r="1" gradientUnits="userSpaceOnUse" gradientTransform="translate(31.0002 46.9993) rotate(1.43209) scale(80.025 96.7902)">
<stop stop-color="#2C3045"/>
<stop offset="0.1875" stop-color="#3C4463"/>
<stop offset="0.473958" stop-color="#4B5375"/>
<stop offset="0.786458" stop-color="#3C4463"/>
<stop offset="1" stop-color="#2C3045"/>
</radialGradient>
<linearGradient id="paint5_linear" x1="5.85161" y1="69.459" x2="32.2963" y2="72.8143" gradientUnits="userSpaceOnUse">
<stop stop-color="#2ED8CF"/>
</linearGradient>
</defs>
</svg>
