<svg width="140" height="140" viewBox="0 0 140 140" fill="none" xmlns="http://www.w3.org/2000/svg">
<path d="M68.8618 22.5405L124.986 49.0438L138.69 34.2487C139.906 32.8924 139.423 30.7409 137.739 30.055L85.3562 7.62068C84.374 7.21534 83.2515 7.44919 82.5188 8.2287L68.8618 22.5405Z" fill="url(#paint0_linear)"/>
<path d="M132.891 42.1219L126.327 49.4804L119.312 46.3156L122.134 43.3379C122.539 42.9014 123.163 42.7143 123.739 42.8702L125.049 43.1976C125.906 43.4159 126.826 43.1664 127.45 42.5272L129.695 40.2822C130.053 39.9237 130.584 39.8145 131.067 39.986L132.517 40.5473C133.156 40.7967 133.359 41.6074 132.891 42.1219ZM74.9733 15.5094L68.5189 21.8858L75.5345 25.0818L77.265 23.133C77.7015 22.6341 77.7016 21.9014 77.2806 21.4025L76.7973 20.8412C76.2984 20.2644 76.2517 19.407 76.6882 18.7833L77.873 17.0684C78.2472 16.5384 78.0134 15.8056 77.4209 15.5718L76.4699 15.1976C75.9399 14.9949 75.363 15.1196 74.9733 15.5094Z" fill="url(#paint1_linear)"/>
<path d="M10.6168 88.4414L72.8061 129.381C74.7081 130.66 77.1869 130.644 79.0733 129.366L133.577 92.261C135.993 90.6084 137.443 87.8801 137.443 84.9648V55.7176C137.443 54.1585 136.539 52.7398 135.136 52.0694L64.9486 19.2833C63.5611 18.6285 61.9709 18.6129 60.5678 19.2209L46.9575 24.1942C22.9642 34.889 7.51431 54.0182 7.51431 80.2877V82.6106C7.49872 84.9648 8.66799 87.1474 10.6168 88.4414Z" fill="url(#paint2_linear)"/>
<path d="M78.1971 129.14L133.134 90.7952C135.55 89.1427 137 86.4144 137 83.499V54.1583C137 53.0514 135.8 52.3654 134.849 52.9266L108.067 68.494C87.5969 80.4049 75.5 98.3185 75.5 122V127.706C75.5 129.094 77.0434 129.92 78.1971 129.14Z" fill="url(#paint3_linear)"/>
<path d="M78.637 129.661L133.577 92.2757C135.993 90.6231 137.443 87.8949 137.443 84.9795V55.6387C137.443 54.5318 136.243 53.8459 135.292 54.4071L109.007 69.7011C88.5368 81.612 75.9399 98.8392 75.9399 122.521V128.227C75.9399 129.614 77.4834 130.441 78.637 129.661Z" fill="url(#paint4_linear)"/>
<path d="M97.813 104.483L99.1694 103.548V109.784L97.813 110.719V104.483ZM100.931 108.568L102.287 107.648V101.381L100.931 102.316V108.568ZM104.049 106.432L105.405 105.512V99.2139L104.049 100.149V106.432ZM107.167 104.296L108.524 103.376V97.0469L107.167 97.9823V104.296ZM110.285 102.16L111.642 101.241V94.8798L110.285 95.8152V102.16ZM113.403 100.025L114.76 99.1048V92.7128L113.403 93.6482V100.025ZM116.521 97.8887L117.878 96.9689V90.5457L116.521 91.4812V97.8887ZM119.639 95.7529L120.996 94.833V88.3787L119.639 89.3141V95.7529ZM122.757 93.6014L124.114 92.6816V86.1961L122.757 87.1315V93.6014ZM125.875 84.9645V91.4656L127.232 90.5457V84.0291L125.875 84.9645Z" fill="#2FD8CF"/>
<path d="M11.9579 86.6798V88.2389C11.9579 88.5818 12.1294 88.9092 12.4101 89.0963L59.7263 120.464C60.4123 120.916 61.3165 120.433 61.3165 119.606V117.299C61.3165 116.504 60.9112 115.771 60.2252 115.366L13.517 85.8068C12.831 85.3859 11.9579 85.8847 11.9579 86.6798Z" fill="#33384F"/>
<path d="M60.1783 118.266L49.1093 126.249C47.8153 127.184 46.0692 127.215 44.7284 126.326L2.33868 97.734C1.37209 97.0948 1.40327 95.6605 2.38545 95.0369L13.0959 88.0681L60.1783 118.266Z" fill="url(#paint5_linear)"/>
<path d="M53.7862 114.134L51.0111 116.067C50.0289 116.769 48.7193 116.8 47.706 116.129L15.1225 94.1316C14.3897 93.6483 14.4053 92.5726 15.1536 92.1049L17.4298 90.7485L53.7862 114.134Z" fill="url(#paint6_linear)"/>
<path d="M127.637 48.7334L69.1892 21.5441C68.0667 21.014 66.7572 20.9828 65.6191 21.4973L54.5033 25.3637C44.5411 29.8069 32.4275 37.8358 26.2226 46.4884C24.8507 48.406 25.4587 51.0875 27.501 52.2567L43.6525 60.9405C44.7438 60.1454 46.1001 59.6933 47.55 59.6933C51.2449 59.6933 54.2538 62.7022 54.2538 66.3971C54.2538 66.475 54.2538 66.5685 54.2538 66.6465L80.5077 80.8492C82.2226 81.8313 84.3741 81.3792 85.6057 79.8358C90.6569 73.4282 99.3563 67.1766 106.325 63.1231L127.777 50.6354C128.526 50.2144 128.759 49.2634 127.637 48.7334Z" fill="url(#paint7_linear)"/>
<path d="M21.1091 63.2155L43.0757 75.563C44.2138 76.171 44.6503 77.6053 44.0423 78.7434L40.2539 87.2245C39.6303 88.4093 38.1492 88.8303 36.9799 88.1599L14.9977 75.4227C13.9064 74.7991 13.5011 73.4115 14.0779 72.289L17.8819 64.1821C18.5055 63.0441 19.9554 62.5919 21.1091 63.2155Z" fill="url(#paint8_linear)"/>
<path d="M19.129 67.5505L19.3161 67.6284C19.2849 67.7376 19.2693 67.8311 19.2849 67.909C19.2849 67.987 19.3161 68.0649 19.3629 68.1429C19.4097 68.2208 19.472 68.2832 19.5656 68.33C19.6435 68.3767 19.7059 68.3923 19.7682 68.3923C19.8306 68.3923 19.893 68.3767 19.9397 68.3456C19.9865 68.3144 20.0177 68.2676 20.0489 68.2053C20.08 68.1429 20.08 68.0805 20.08 68.0182C20.08 67.9558 20.0489 67.8935 20.0021 67.8311C19.9709 67.7843 19.893 67.7064 19.7838 67.5972C19.6747 67.4725 19.5967 67.379 19.55 67.3166C19.5032 67.2231 19.472 67.1451 19.472 67.0516C19.472 66.958 19.4876 66.8645 19.5188 66.771C19.5656 66.6774 19.6123 66.5839 19.6903 66.5215C19.7682 66.4592 19.8618 66.428 19.9553 66.428C20.0489 66.428 20.158 66.4592 20.2515 66.5059C20.3607 66.5683 20.4542 66.6462 20.5166 66.7398C20.5789 66.8333 20.6101 66.9425 20.6257 67.0516C20.6257 67.1607 20.6101 67.2854 20.5633 67.3946L20.3763 67.3166C20.423 67.1919 20.423 67.0672 20.3918 66.9736C20.3607 66.8801 20.2827 66.8021 20.1736 66.7398C20.0489 66.6774 19.9553 66.6618 19.8774 66.6774C19.7994 66.7086 19.7526 66.7554 19.7059 66.8489C19.6747 66.9269 19.6747 66.9892 19.6903 67.0516C19.7059 67.1139 19.7838 67.2231 19.9241 67.3478C20.0644 67.4881 20.158 67.5817 20.1892 67.6596C20.2515 67.7531 20.2827 67.8623 20.2983 67.9714C20.2983 68.0805 20.2827 68.1741 20.2359 68.2832C20.1892 68.3923 20.1268 68.4703 20.0489 68.5482C19.9709 68.6106 19.8774 68.6574 19.7682 68.6574C19.6591 68.6574 19.5656 68.6418 19.4564 68.5794C19.3317 68.5015 19.2226 68.4235 19.1602 68.3144C19.0979 68.2208 19.0511 68.0961 19.0511 67.9714C19.0667 67.8155 19.0823 67.6752 19.129 67.5505Z" fill="#151A1E"/>
<path d="M22.0754 67.5352L22.2781 67.6443L21.7792 68.7668C21.6857 68.9694 21.6077 69.1098 21.5298 69.2033C21.4518 69.2968 21.3427 69.3592 21.2335 69.3904C21.1244 69.4216 20.9841 69.3904 20.8594 69.3124C20.7191 69.2345 20.6255 69.1409 20.5632 69.0318C20.5008 68.9227 20.4852 68.798 20.5008 68.6576C20.5164 68.5173 20.5632 68.3458 20.6567 68.1276L21.1244 66.9895L21.3271 67.0986L20.8438 68.2367C20.7658 68.4082 20.7347 68.5329 20.7191 68.6265C20.7035 68.72 20.7191 68.7979 20.7658 68.8759C20.797 68.9539 20.8594 69.0162 20.9529 69.063C21.0932 69.1409 21.2179 69.1565 21.3115 69.0942C21.405 69.0474 21.5142 68.8915 21.6233 68.642L22.0754 67.5352Z" fill="#151A1E"/>
<path d="M21.7324 69.7798L22.6055 67.8311L22.8081 67.9402L22.8861 69.8889L23.5877 68.3611L23.7747 68.4702L22.8705 70.419L22.6834 70.3099L22.6211 68.3611L21.9351 69.8889L21.7324 69.7798Z" fill="#151A1E"/>
<path d="M23.2135 70.6058L24.1333 68.6726L24.336 68.7817L23.4162 70.7149L23.2135 70.6058Z" fill="#151A1E"/>
<path d="M23.7281 70.9017L24.6636 68.9685L24.8662 69.0776L24.8818 71.0264L25.6302 69.5142L25.8172 69.6233L24.8506 71.5565L24.6636 71.4473L24.648 69.4986L23.9152 71.0108L23.7281 70.9017Z" fill="#151A1E"/>
<path d="M25.1937 71.7294L26.1759 69.8118L27.1737 70.3574L27.049 70.5757L26.2539 70.1392L25.9421 70.7316L26.628 71.1058L26.5033 71.3396L25.8173 70.9654L25.3652 71.8385L25.1937 71.7294Z" fill="#151A1E"/>
<path d="M26.8462 71.4328C27.0177 71.121 27.2048 70.9027 27.4387 70.7936C27.6725 70.6845 27.8908 70.6845 28.0935 70.8092C28.2338 70.8872 28.3273 70.9963 28.3897 71.1366C28.452 71.2769 28.4676 71.4484 28.452 71.6199C28.4209 71.807 28.3585 71.9941 28.2494 72.1811C28.1402 72.3682 28.0155 72.5241 27.8752 72.6488C27.7349 72.7736 27.579 72.8359 27.4387 72.8515C27.2828 72.8671 27.158 72.8359 27.0333 72.7736C26.893 72.6956 26.7995 72.5865 26.7371 72.4462C26.6747 72.3059 26.6592 72.1344 26.6903 71.9473C26.6903 71.7758 26.7527 71.6043 26.8462 71.4328ZM27.0333 71.5575C26.9086 71.7914 26.8618 71.9941 26.8774 72.1811C26.893 72.3682 26.9865 72.4929 27.1269 72.5709C27.2672 72.6488 27.4231 72.6488 27.5946 72.5709C27.7661 72.4929 27.9064 72.3214 28.0467 72.0876C28.1246 71.9317 28.187 71.7914 28.2026 71.6511C28.2182 71.5108 28.2182 71.386 28.1714 71.2769C28.1246 71.1678 28.0623 71.0898 27.9531 71.0431C27.8128 70.9651 27.6569 70.9651 27.501 71.0275C27.3451 71.0898 27.1892 71.2613 27.0333 71.5575Z" fill="#151A1E"/>
<path d="M57.8946 86.7414L56.4889 85.9463C55.5264 85.4006 55.0069 84.0131 55.3278 82.8594C55.6486 81.7058 56.7028 81.2069 57.6654 81.7525L59.071 82.5476C60.0336 83.0933 60.5531 84.4808 60.2322 85.6501C59.9114 86.7882 58.8571 87.287 57.8946 86.7414Z" fill="url(#paint9_linear)"/>
<path d="M63.7311 90.0613L62.3255 89.2662C61.3629 88.7205 60.8435 87.3174 61.1643 86.1481C61.4852 84.9789 62.5394 84.48 63.5019 85.0257L64.9076 85.8208C65.8701 86.3664 66.3896 87.7695 66.0688 88.9388C65.7479 90.108 64.6937 90.6225 63.7311 90.0613Z" fill="url(#paint10_linear)"/>
<path d="M69.5675 93.3973L68.1618 92.6022C67.1993 92.0566 66.6798 90.6379 67.0007 89.4686C67.3215 88.2993 68.3758 87.7693 69.3383 88.3149L70.7439 89.11C71.7065 89.6557 72.226 91.0588 71.9051 92.2592C71.5843 93.4285 70.53 93.943 69.5675 93.3973Z" fill="url(#paint11_linear)"/>
<path d="M67.9941 99.1364L66.5884 98.3257C65.6259 97.7645 65.1064 96.3458 65.4272 95.1765C65.7481 94.0072 66.8023 93.4928 67.7649 94.0384L69.1705 94.8491C70.1331 95.3948 70.6526 96.8291 70.3317 98.0139C70.0109 99.1832 68.9566 99.6977 67.9941 99.1364Z" fill="url(#paint12_linear)"/>
<path d="M62.1573 95.737L60.7516 94.9263C59.7891 94.3651 59.2696 92.9619 59.5905 91.7926C59.9113 90.6234 60.9655 90.1245 61.9281 90.6857L63.3337 91.4964C64.2963 92.0421 64.8158 93.4608 64.4949 94.6301C64.1741 95.7994 63.1198 96.2982 62.1573 95.737Z" fill="url(#paint13_linear)"/>
<path d="M56.3058 92.3537L54.9002 91.543C53.9376 90.9818 53.4182 89.5786 53.739 88.4405C54.0599 87.2869 55.1141 86.8036 56.0767 87.3492L57.4823 88.1599C58.4449 88.7056 58.9643 90.1087 58.6435 91.278C58.3226 92.4161 57.2684 92.8994 56.3058 92.3537Z" fill="url(#paint14_linear)"/>
<path d="M54.732 97.9657L53.3263 97.1394C52.3638 96.5626 51.8443 95.1595 52.1652 94.0058C52.486 92.8521 53.5402 92.3688 54.5028 92.9301L55.9085 93.7407C56.871 94.302 57.3905 95.7051 57.0696 96.8744C56.7488 98.0436 55.6945 98.5269 54.732 97.9657Z" fill="url(#paint15_linear)"/>
<path d="M60.5684 101.412L59.1627 100.585C58.2002 100.009 57.6807 98.6055 58.0015 97.4363C58.3224 96.267 59.3766 95.7837 60.3392 96.345L61.7448 97.1557C62.7074 97.7169 63.2268 99.1356 62.906 100.305C62.5851 101.49 61.5309 101.973 60.5684 101.412Z" fill="url(#paint16_linear)"/>
<path d="M66.4051 104.859L64.9995 104.033C64.0369 103.456 63.5175 102.037 63.8383 100.852C64.1592 99.6829 65.2134 99.1684 66.176 99.7297L67.5816 100.54C68.5442 101.102 69.0636 102.536 68.7428 103.721C68.4372 104.937 67.383 105.436 66.4051 104.859Z" fill="url(#paint17_linear)"/>
<path d="M57.0133 86.7414L55.579 85.9463C54.5968 85.4006 54.0668 84.0131 54.3941 82.8594C54.7215 81.7058 55.7973 81.2069 56.7794 81.7525L58.2137 82.5476C59.1959 83.0933 59.726 84.4808 59.3986 85.6501C59.0712 86.7882 57.9955 87.287 57.0133 86.7414Z" fill="url(#paint18_linear)"/>
<path d="M62.969 90.0622L61.5347 89.2671C60.5525 88.7215 60.0224 87.3184 60.3498 86.1491C60.6772 84.9799 61.7529 84.481 62.7351 85.0266L64.1694 85.8217C65.1516 86.3674 65.6817 87.7705 65.3543 88.9398C65.0269 90.109 63.9512 90.6235 62.969 90.0622Z" fill="url(#paint19_linear)"/>
<path d="M68.9242 93.3981L67.4899 92.603C66.5078 92.0573 65.9777 90.6386 66.3051 89.4693C66.6325 88.3001 67.7082 87.77 68.6904 88.3157L70.1247 89.1108C71.1068 89.6564 71.6369 91.0595 71.3095 92.26C70.9821 93.4292 69.9064 93.9437 68.9242 93.3981Z" fill="url(#paint20_linear)"/>
<path d="M67.3187 99.1357L65.8844 98.325C64.9022 97.7637 64.3722 96.345 64.6996 95.1758C65.027 94.0065 66.1027 93.492 67.0849 94.0377L68.5192 94.8484C69.5013 95.394 70.0314 96.8283 69.704 98.0132C69.3766 99.1824 68.3009 99.6969 67.3187 99.1357Z" fill="url(#paint21_linear)"/>
<path d="M61.363 95.7367L59.9287 94.9261C58.9466 94.3648 58.4165 92.9617 58.7439 91.7924C59.0713 90.6231 60.147 90.1242 61.1292 90.6855L62.5635 91.4962C63.5457 92.0419 64.0757 93.4606 63.7483 94.6298C63.4209 95.7991 62.3452 96.298 61.363 95.7367Z" fill="url(#paint22_linear)"/>
<path d="M55.3922 92.3542L53.9579 91.5435C52.9757 90.9822 52.4457 89.5791 52.7731 88.441C53.1004 87.2873 54.1762 86.804 55.1584 87.3497L56.5927 88.1604C57.5748 88.7061 58.1049 90.1092 57.7775 91.2785C57.4501 92.4165 56.3744 92.8998 55.3922 92.3542Z" fill="url(#paint23_linear)"/>
<path d="M53.7863 97.9657L52.3519 97.1394C51.3698 96.5626 50.8397 95.1595 51.1671 94.0058C51.4945 92.8521 52.5702 92.3688 53.5524 92.9301L54.9867 93.7407C55.9689 94.302 56.4989 95.7051 56.1716 96.8744C55.8442 98.0436 54.7684 98.5269 53.7863 97.9657Z" fill="url(#paint24_linear)"/>
<path d="M59.7416 101.411L58.3073 100.585C57.3251 100.008 56.795 98.6048 57.1224 97.4356C57.4498 96.2663 58.5255 95.783 59.5077 96.3443L60.942 97.1549C61.9242 97.7162 62.4543 99.1349 62.1269 100.304C61.7995 101.489 60.7238 101.972 59.7416 101.411Z" fill="url(#paint25_linear)"/>
<path d="M65.6973 104.858L64.263 104.032C63.2808 103.455 62.7507 102.036 63.0781 100.851C63.4055 99.6822 64.4812 99.1677 65.4634 99.7289L66.8977 100.54C67.8799 101.101 68.4099 102.535 68.0826 103.72C67.7708 104.936 66.695 105.435 65.6973 104.858Z" fill="url(#paint26_linear)"/>
<defs>
<linearGradient id="paint0_linear" x1="79.4115" y1="13.5488" x2="116.333" y2="33.2403" gradientUnits="userSpaceOnUse">
<stop stop-color="#DFE6EE"/>
<stop offset="0.229167" stop-color="#DFE6EE"/>
<stop offset="0.432292" stop-color="#D9E3E8"/>
<stop offset="0.995" stop-color="#ABB6C3"/>
</linearGradient>
<linearGradient id="paint1_linear" x1="102.76" y1="27.5999" x2="91.7694" y2="51.4517" gradientUnits="userSpaceOnUse">
<stop offset="1" stop-color="#2ED8CF"/>
</linearGradient>
<linearGradient id="paint2_linear" x1="6.79169" y1="56.5728" x2="111.446" y2="86.6856" gradientUnits="userSpaceOnUse">
<stop stop-color="#65729B"/>
<stop offset="0.161579" stop-color="#626F93"/>
<stop offset="0.270833" stop-color="#64708F"/>
<stop offset="0.378421" stop-color="#606E92"/>
<stop offset="0.711479" stop-color="#4C5874"/>
<stop offset="0.995" stop-color="#323C57"/>
</linearGradient>
<linearGradient id="paint3_linear" x1="75" y1="91.5" x2="153.4" y2="90.8774" gradientUnits="userSpaceOnUse">
<stop offset="0.00520833" stop-color="#57617E"/>
<stop offset="0.870592" stop-color="#394972"/>
</linearGradient>
<linearGradient id="paint4_linear" x1="14.9065" y1="92.0844" x2="154.34" y2="92.0844" gradientUnits="userSpaceOnUse">
<stop stop-color="#E7EFF5"/>
<stop offset="0.2624" stop-color="#C3C5D2"/>
<stop offset="0.3352" stop-color="#C6C8D5"/>
<stop offset="0.3997" stop-color="#CED3DD"/>
<stop offset="0.4344" stop-color="#414A63"/>
<stop offset="0.497325" stop-color="#3F4862"/>
<stop offset="0.667657" stop-color="#373D56"/>
<stop offset="0.870592" stop-color="#32374E"/>
</linearGradient>
<linearGradient id="paint5_linear" x1="2.4646" y1="90.1401" x2="55.7831" y2="124.439" gradientUnits="userSpaceOnUse">
<stop stop-color="#E7EFF5"/>
<stop offset="0.3997" stop-color="#CED3DD"/>
<stop offset="0.4344" stop-color="#DDE4EC"/>
<stop offset="0.4705" stop-color="#DFE6EE"/>
<stop offset="1" stop-color="#98A5B5"/>
</linearGradient>
<linearGradient id="paint6_linear" x1="11.3874" y1="101.121" x2="71.9559" y2="108.201" gradientUnits="userSpaceOnUse">
<stop offset="1" stop-color="#2ED8CF"/>
</linearGradient>
<linearGradient id="paint7_linear" x1="30.9998" y1="38.4995" x2="125" y2="56.9995" gradientUnits="userSpaceOnUse">
<stop stop-color="#98A0B7"/>
<stop offset="0.0572917" stop-color="#98A0B7"/>
<stop offset="0.09375" stop-color="#98A0B7"/>
<stop offset="0.25" stop-color="#97A0BD"/>
<stop offset="1" stop-color="#505D82"/>
</linearGradient>
<linearGradient id="paint8_linear" x1="12.6612" y1="65.4513" x2="44.9207" y2="85.2294" gradientUnits="userSpaceOnUse">
<stop stop-color="#C6C8D5"/>
<stop offset="0.1769" stop-color="#CED3DD"/>
<stop offset="0.3317" stop-color="#E7EFF5"/>
<stop offset="1" stop-color="#98A5B5"/>
</linearGradient>
<linearGradient id="paint9_linear" x1="55.5633" y1="84.2471" x2="60.0567" y2="84.2471" gradientUnits="userSpaceOnUse">
<stop stop-color="#353A55"/>
</linearGradient>
<linearGradient id="paint10_linear" x1="61.3999" y1="87.5468" x2="65.8932" y2="87.5468" gradientUnits="userSpaceOnUse">
<stop stop-color="#353A55"/>
</linearGradient>
<linearGradient id="paint11_linear" x1="67.2362" y1="90.8575" x2="71.7295" y2="90.8575" gradientUnits="userSpaceOnUse">
<stop stop-color="#353A55"/>
</linearGradient>
<linearGradient id="paint12_linear" x1="65.6628" y1="96.5922" x2="70.1561" y2="96.5922" gradientUnits="userSpaceOnUse">
<stop stop-color="#353A55"/>
</linearGradient>
<linearGradient id="paint13_linear" x1="59.826" y1="93.2114" x2="64.3194" y2="93.2114" gradientUnits="userSpaceOnUse">
<stop stop-color="#353A55"/>
</linearGradient>
<linearGradient id="paint14_linear" x1="53.9746" y1="89.8516" x2="58.4679" y2="89.8516" gradientUnits="userSpaceOnUse">
<stop stop-color="#353A55"/>
</linearGradient>
<linearGradient id="paint15_linear" x1="52.4007" y1="95.4477" x2="56.8941" y2="95.4477" gradientUnits="userSpaceOnUse">
<stop stop-color="#353A55"/>
</linearGradient>
<linearGradient id="paint16_linear" x1="58.2371" y1="98.8782" x2="62.7304" y2="98.8782" gradientUnits="userSpaceOnUse">
<stop stop-color="#353A55"/>
</linearGradient>
<linearGradient id="paint17_linear" x1="64.0739" y1="102.3" x2="68.5672" y2="102.3" gradientUnits="userSpaceOnUse">
<stop stop-color="#353A55"/>
</linearGradient>
<linearGradient id="paint18_linear" x1="54.6345" y1="84.2471" x2="59.2195" y2="84.2471" gradientUnits="userSpaceOnUse">
<stop stop-color="#2ED8CF"/>
</linearGradient>
<linearGradient id="paint19_linear" x1="60.5902" y1="87.5478" x2="65.1751" y2="87.5478" gradientUnits="userSpaceOnUse">
<stop stop-color="#2ED8CF"/>
</linearGradient>
<linearGradient id="paint20_linear" x1="66.5454" y1="90.8583" x2="71.1304" y2="90.8583" gradientUnits="userSpaceOnUse">
<stop stop-color="#2ED8CF"/>
</linearGradient>
<linearGradient id="paint21_linear" x1="64.9399" y1="96.5915" x2="69.5249" y2="96.5915" gradientUnits="userSpaceOnUse">
<stop stop-color="#2ED8CF"/>
</linearGradient>
<linearGradient id="paint22_linear" x1="58.9842" y1="93.2111" x2="63.5692" y2="93.2111" gradientUnits="userSpaceOnUse">
<stop stop-color="#2ED8CF"/>
</linearGradient>
<linearGradient id="paint23_linear" x1="53.0134" y1="89.8521" x2="57.5984" y2="89.8521" gradientUnits="userSpaceOnUse">
<stop stop-color="#2ED8CF"/>
</linearGradient>
<linearGradient id="paint24_linear" x1="51.4075" y1="95.4477" x2="55.9924" y2="95.4477" gradientUnits="userSpaceOnUse">
<stop stop-color="#2ED8CF"/>
</linearGradient>
<linearGradient id="paint25_linear" x1="57.3628" y1="98.8775" x2="61.9477" y2="98.8775" gradientUnits="userSpaceOnUse">
<stop stop-color="#2ED8CF"/>
</linearGradient>
<linearGradient id="paint26_linear" x1="63.3185" y1="102.299" x2="67.9034" y2="102.299" gradientUnits="userSpaceOnUse">
<stop stop-color="#2ED8CF"/>
</linearGradient>
</defs>
</svg>
