<svg width="140" height="140" viewBox="0 0 140 140" fill="none" xmlns="http://www.w3.org/2000/svg">
<g clip-path="url(#clip0)">
<path d="M6.08447 28.267V95.5298C6.08447 98.4021 7.58821 101.055 10.0212 102.542L62.6184 137.516C68.0927 140.845 74.9355 140.845 80.4098 137.516L130.946 102.542C133.379 101.038 134.882 98.3852 134.882 95.5298V28.8921L6.08447 28.267Z" fill="url(#paint0_linear)"/>
<path d="M6.08447 28.8921V95.5298C6.08447 98.4021 7.58821 101.055 10.0212 102.542L62.6184 137.516C68.0927 140.845 74.9355 140.845 80.4098 137.516L130.946 102.542C133.379 101.038 134.882 98.3852 134.882 95.5298V28.8921H6.08447Z" fill="url(#paint1_linear)"/>
<path d="M132.267 36.358L80.7509 67.852C75.0738 71.3157 67.9268 71.3157 62.2498 67.852L7.86165 34.6177C5.1752 32.9788 5.44553 28.9744 8.35164 27.7241L65.6628 3.19117C69.3968 1.60294 73.6039 1.60294 77.321 3.19117L131.54 26.3893C135.747 28.1972 136.17 33.9925 132.267 36.358Z" fill="url(#paint2_linear)"/>
<path d="M132.264 34.3495L80.7479 65.8436C75.0709 69.3073 67.9239 69.3073 62.2469 65.8436L7.85872 32.6092C5.17227 30.9703 5.4426 26.966 8.34871 25.7157L65.6598 1.18274C69.3939 -0.405478 73.6009 -0.405478 77.3181 1.18274L131.537 24.3809C135.744 26.1888 136.167 31.9841 132.264 34.3495Z" fill="url(#paint3_linear)"/>
<path d="M93.7578 114.394C93.7578 114.23 93.838 114.077 93.9724 113.983L94.3579 113.715C94.6894 113.485 95.1433 113.722 95.1433 114.126V119.278C95.1433 119.441 95.0631 119.595 94.9287 119.688L94.5432 119.956C94.2117 120.187 93.7578 119.949 93.7578 119.546V114.394ZM96.9511 117.376C96.9511 117.777 97.4012 118.015 97.7331 117.788L98.1186 117.525C98.255 117.432 98.3366 117.278 98.3366 117.112V111.929C98.3366 111.525 97.8828 111.288 97.5512 111.519L97.1658 111.787C97.0313 111.88 96.9511 112.033 96.9511 112.197V117.376ZM100.144 115.179C100.144 115.581 100.595 115.819 100.926 115.592L101.312 115.329C101.448 115.236 101.53 115.081 101.53 114.916V109.699C101.53 109.295 101.076 109.058 100.745 109.288L100.359 109.556C100.225 109.65 100.144 109.803 100.144 109.967V115.179ZM103.338 113.016C103.338 113.418 103.788 113.656 104.12 113.429L104.505 113.166C104.642 113.073 104.723 112.918 104.723 112.753V107.503C104.723 107.099 104.269 106.862 103.938 107.092L103.552 107.36C103.418 107.453 103.338 107.607 103.338 107.77V113.016ZM106.514 110.82C106.514 111.222 106.964 111.459 107.296 111.233L107.682 110.97C107.818 110.876 107.9 110.722 107.9 110.557V105.272C107.9 104.868 107.446 104.631 107.114 104.862L106.729 105.13C106.594 105.223 106.514 105.376 106.514 105.54V110.82ZM109.708 108.623C109.708 109.025 110.158 109.263 110.49 109.036L110.875 108.773C111.011 108.68 111.093 108.525 111.093 108.36V103.042C111.093 102.638 110.639 102.401 110.308 102.631L109.922 102.899C109.788 102.993 109.708 103.146 109.708 103.31V108.623ZM112.901 106.461C112.901 106.863 113.351 107.1 113.683 106.874L114.068 106.61C114.205 106.517 114.286 106.363 114.286 106.198V100.846C114.286 100.442 113.833 100.204 113.501 100.435L113.116 100.703C112.981 100.796 112.901 100.95 112.901 101.113V106.461ZM116.094 104.281C116.094 104.683 116.544 104.921 116.876 104.694L117.262 104.431C117.398 104.338 117.48 104.183 117.48 104.018V98.6152C117.48 98.2115 117.026 97.9742 116.694 98.2047L116.309 98.4726C116.174 98.5661 116.094 98.7195 116.094 98.8832V104.281ZM119.271 102.085C119.271 102.487 119.721 102.724 120.053 102.498L120.438 102.234C120.575 102.141 120.656 101.987 120.656 101.821V96.4019C120.656 95.9981 120.202 95.7609 119.871 95.9913L119.485 96.2593C119.351 96.3527 119.271 96.5061 119.271 96.6698V102.085ZM122.682 94.0462C122.546 94.1393 122.464 94.2939 122.464 94.4591V99.9051C122.464 100.307 122.914 100.545 123.246 100.318L123.632 100.055C123.768 99.9616 123.85 99.8071 123.85 99.6419V94.1958C123.85 93.794 123.399 93.5563 123.068 93.7829L122.682 94.0462Z" fill="#2FAAAF"/>
<path d="M17.5778 54.7722L51.9315 76.5403C52.2547 76.6924 52.5778 76.5023 52.5588 76.141L52.5018 73.0612C52.5018 72.8521 52.3687 72.6429 52.1786 72.5479L17.844 50.7988C17.5208 50.6468 17.1976 50.8369 17.2166 51.1981L17.2737 54.2779C17.2546 54.468 17.3877 54.6772 17.5778 54.7722Z" fill="url(#paint4_linear)"/>
<path d="M17.7491 63.213L52.0837 84.9811C52.4069 85.1332 52.7301 84.943 52.7111 84.5818L52.654 81.502C52.654 81.2929 52.5209 81.0837 52.3308 80.9887L17.9962 59.2396C17.673 59.0875 17.3498 59.2777 17.3688 59.6389L17.4259 62.7187C17.4259 62.9278 17.559 63.118 17.7491 63.213Z" fill="url(#paint5_linear)"/>
<path d="M17.9008 71.5409L52.2354 93.1949C52.5586 93.347 52.8818 93.1569 52.8628 92.7957L52.8058 89.7158C52.8058 89.5067 52.6727 89.2976 52.4826 89.2025L18.167 67.5675C17.8438 67.4154 17.5206 67.6055 17.5396 67.9668L17.5967 71.0466C17.5967 71.2557 17.7107 71.4458 17.9008 71.5409Z" fill="url(#paint6_linear)"/>
<path d="M17.6919 78.9732L52.0455 100.741C52.3687 100.893 52.6919 100.703 52.6728 100.342L52.6158 97.2621C52.6158 97.053 52.4827 96.8439 52.2926 96.7488L17.958 74.9998C17.6348 74.8477 17.3116 75.0378 17.3306 75.399L17.3877 78.4789C17.3687 78.669 17.5017 78.8781 17.6919 78.9732Z" fill="url(#paint7_linear)"/>
<path d="M17.8631 87.4154L52.1977 109.183C52.5209 109.336 52.8441 109.145 52.8251 108.784L52.768 105.704C52.768 105.495 52.635 105.286 52.4448 105.191L18.1102 83.442C17.787 83.2899 17.4638 83.4801 17.4829 83.8413L17.5399 86.9211C17.5399 87.1112 17.673 87.3204 17.8631 87.4154Z" fill="url(#paint8_linear)"/>
<path d="M38.6994 114.581V121.615L24.0986 111.9V104.904C24.0986 104.296 24.783 103.935 25.2964 104.277L37.8629 112.965C38.3952 113.345 38.6994 113.954 38.6994 114.581Z" fill="url(#paint9_linear)"/>
<path d="M123.661 34.3337L79.3075 61.463C74.4216 64.4478 68.2619 64.4478 63.3759 61.463L38.7562 46.425L16.4938 32.8318C14.1744 31.425 14.4216 27.9649 16.9121 26.9002L66.2847 5.77857C69.4976 4.40975 73.1288 4.40975 76.3227 5.77857L111.532 20.8356L123.034 25.7596C126.684 27.2995 127.026 32.2995 123.661 34.3337Z" fill="url(#paint10_linear)" stroke="#24DEDE" stroke-miterlimit="10"/>
<path opacity="0.4" d="M56.8551 71.9801V71.752L56.779 71.5049L56.8551 71.4288V71.2957L56.798 71.1817V70.9725L56.665 70.8965V70.9155L56.5889 71.0296V71.2197L56.4178 71.4478H56.3608V71.4668L56.2847 71.5999L56.3418 71.657L56.2087 71.79V71.9801L55.9425 72.2463L55.8855 72.1703L55.7524 72.3033V72.3224L55.6954 72.4935L55.4482 72.6075L55.2961 72.8357H55.068L55.011 72.7786L54.9729 72.8357L54.9539 72.8166V72.8357H54.6117L54.4977 72.9497L54.4406 72.8737L54.3266 72.9307H54.2505L54.3075 73.0068L54.0984 73.1589L54.1174 73.1779L53.9463 73.406L54.0794 73.5581L53.9653 73.6151L54.0034 73.6532V73.8052L54.0794 74.1094V74.1284L54.1364 74.2615V74.3376L54.1174 74.3946L54.1364 74.4516L54.0224 74.7748L53.9463 74.8319L53.8893 75.079H53.8323L53.7562 75.136V75.3262L53.6231 75.4592L53.5091 75.4973L53.5281 75.6303L53.395 75.7634V76.0486L53.5851 76.2767L53.5471 76.3528L53.6041 76.3718V76.657L53.4901 76.714V76.9992L53.5471 77.0562V77.0752L53.6231 77.1322L53.6802 77.2463V77.2653L53.7942 77.2273L53.8513 77.3414L53.9843 77.4744H54.1935L54.2505 77.4364L54.3266 77.3033L54.7448 77.2653L54.8589 77.2843L54.9159 77.2463L54.992 77.1703L55.049 77.0562L55.106 76.9231V76.8471L55.1821 76.79L55.049 76.657L55.2771 76.5239V76.2767H55.4862L55.5053 76.2387L55.5813 75.8965L55.6383 75.7064L55.6574 75.6303L55.7144 75.3832L55.8665 75.1931L55.9996 74.7178L56.0756 74.6037V74.4706L56.1326 74.2615L56.1707 74.1474L56.2847 73.9763L56.3418 73.7102L56.3988 73.482L56.4368 73.406L56.4748 73.349L56.4178 73.2919V73.0258L56.5699 72.8927V72.8357L56.6269 72.7786L56.4939 72.6455L56.5509 72.5885V72.1322H56.9121L56.9691 72.1893L56.9882 72.1703L56.8551 71.9801ZM48.357 75.022L48.433 75.117V75.098C48.414 75.06 48.376 75.041 48.357 75.022ZM48.433 75.117L48.376 75.2311L48.452 75.1551L48.433 75.117ZM57.7106 58.5961L57.5965 58.482L57.6536 58.3109L57.5395 58.1969L57.6155 58.1208H57.3494L57.2733 58.1969L57.1402 58.2539L57.0072 58.387L56.9311 58.3109H56.9121L56.779 58.368L56.4368 58.425H56.3037L56.2467 58.368H56.1897L56.0566 58.425H55.9235L55.7904 58.482L55.6764 58.425L55.6383 58.444L55.3151 58.6722L55.087 58.7292L55.03 58.7102L55.011 58.7292H54.6878L54.5547 58.8052H54.4406L54.3836 58.8623L54.3266 58.9193L54.0984 58.9763L53.8703 58.9003L53.7942 58.8243H53.7182L53.6612 58.6151L53.338 58.2539L53.2619 58.2919H53.1098L52.6916 57.8737H53.1669L53.2239 57.7596H53.2999L53.338 57.7216L53.3189 57.6646L53.2809 57.6265L53.0718 57.5695H52.9387L52.8056 57.2273L52.7486 57.1703L52.6916 57.0372H52.6345L52.5015 56.9041L52.3874 56.8471L52.2543 56.714L52.0642 56.5049L52.0452 56.4859L51.9121 56.4288L51.8551 56.3718L51.798 56.4288L51.741 56.3718L51.684 56.4288L51.6269 56.3718V56.3908L51.2087 56.2007L51.1517 56.0106L51.1136 55.9535L51.0566 55.8965V55.8395H50.8665L50.7334 55.2691L50.5433 54.7368L50.144 54.3376H50.3722V54.1855L50.2391 54.1284L50.087 54.0714L49.9349 53.8052L49.8779 53.4821L49.9159 53.2729L49.8779 53.1208L49.7448 52.7026V52.4744L49.7638 52.4554L49.7448 52.3984L49.6878 52.3414V52.2843L49.6307 52.2273V52.1703L49.5737 52.1132V51.9992L49.5357 51.9801L49.3836 51.8281L49.2315 51.771L49.2125 51.714H49.0984L48.8703 51.5429L48.6802 51.1056L48.7372 51.0486L48.6992 51.0106V50.8965L48.6231 50.8205L48.5661 50.6684L48.414 50.4402L48.2809 50.3832L48.2239 50.1741L47.8817 49.6608V49.4706L47.8437 49.3946L47.8056 49.2425L47.7486 49.1855V49.1284L47.5775 48.9383V48.7102L47.6155 48.6532V48.6341L47.3304 48.33L47.2733 48.1969L47.0452 47.9117V47.7976L46.9311 47.6646V47.4364L47.1593 47.1893L47.1973 47.2273L47.1212 46.9992L47.0072 46.9421L46.9501 46.809H46.6079L46.3988 46.8661L46.3418 46.809H46.3228L46.2657 46.8661L46.1326 46.9231L45.9425 47.0942H45.6383L45.4482 46.9801H45.1821L45.049 46.9231L44.9729 46.9992L44.7448 46.79L44.6117 46.752L44.1935 46.695L44.0604 46.676L43.8893 46.8661L43.7562 46.4858L43.6992 46.4288H43.6802L43.6041 46.4668L43.1478 46.4098L43.1098 46.3718H42.8817V46.5049L42.5015 46.2767H42.4254L42.2353 46.2387L42.1973 46.2767L42.0452 46.2197L41.9311 46.2957L41.6269 46.3528L41.4748 46.4288L41.4178 46.4858L41.3608 46.6189L41.3228 46.657L41.3037 46.809L41.3798 46.9231L41.4368 47.2273L41.3798 47.4364L41.1516 47.6646L40.9235 47.8166L40.6954 47.8927L40.3532 47.7406L40.125 47.5315L39.992 47.4554L39.7638 47.3794L39.3836 47.2463L39.3075 47.2273L39.2885 47.2463H38.9653L38.6992 47.0562L38.5091 46.6379V46.5049L38.471 46.4478L38.2049 46.4098L38.0148 46.2957H37.7486L37.6155 46.2577L37.2733 46.2957L36.8931 46.2387L36.76 46.1056L36.703 46.0866H36.6459L36.4558 45.9345L36.4178 45.8965L36.3418 45.9725L36.1517 45.8014L36.1136 45.8204L35.8285 45.6303L35.7714 45.5733C35.7334 46.1627 35.7334 46.771 35.7334 47.3604C35.7334 58.387 40.6193 68.2919 48.338 75.022L48.357 74.984L48.2999 74.8319L48.357 74.7558L48.319 74.7178V74.4136H48.5661L48.6041 74.4326L48.6231 74.4136H48.6992L48.6802 74.3566L49.1364 74.0714H49.1935L49.2315 74.0334V73.8052L49.4596 73.6722L49.4977 73.5961L49.5357 73.5581L49.7068 72.9878L49.7448 73.1018V72.9687L49.992 73.2159L50.106 73.1589L50.144 73.1398V72.9497L50.4292 73.0638L50.6383 72.9497L50.6764 72.8737H50.8094L51.0376 72.7596V72.5695H51.2657L51.2847 72.5505V72.4935L51.3228 72.4364L51.1517 72.2463L51.3228 72.0752L51.3037 72.0562L51.4368 71.9231L51.4178 71.809L51.3988 71.752H51.3608L51.2277 71.6189V71.4288L51.0376 71.2577H51.3608L51.3798 71.1436L51.3228 70.9345L51.3798 70.8775L51.3418 70.8395V70.5543L51.3608 70.5353V70.5163L51.3037 70.2311L51.3228 70.2121V70.022L51.3798 69.9649L51.3228 69.9079L51.4558 69.7748V69.7178L51.4178 69.6798L51.2847 69.6227L50.9996 69.3376L51.0566 69.1855L51.0376 69.1474L50.9235 69.0334L50.9805 68.9003L50.9425 68.8243L50.6193 68.5011H51.0566L50.9996 68.387L51.0566 68.33L50.9805 68.2539V67.9497L51.0376 67.7596L51.1136 67.6836L51.0756 67.5125L50.9996 67.4554V67.2083L51.1326 66.9801L51.2657 66.5809L50.9805 66.2957H51.4558L51.4748 66.2767L51.6079 66.0296L51.684 65.8965V65.7634L51.8741 65.5733V65.3452L51.9882 65.2311V65.1741L52.1212 65.041H52.1402L52.2733 65.06L52.3304 65.041L52.4634 64.9079H52.5015L52.9387 64.4136V64.984L53.0148 64.8699L53.0718 64.7368L53.2239 64.5847L53.2809 64.5467L53.3189 64.4897L53.376 64.4326L53.6992 64.0904L53.8132 64.0334L54.1555 63.6532L54.3456 63.5201L54.4977 63.387L54.6878 63.33L54.9159 63.1398L55.4862 62.6455L55.7714 62.3224L55.8855 62.2083L55.9235 62.0942L56.2657 61.6379V61.5809L56.4558 61.2767V61.1436L56.779 60.5353L56.76 60.4782V60.3262L56.9882 60.098H57.0452L57.0832 60.06L57.1973 59.7938L57.3494 59.5277V59.4706H57.1212L57.5395 59.0524H57.4824L57.6155 58.7672V58.5961H57.7106ZM86.2087 66.9801V67.0182V66.9801ZM86.6269 65.8395L86.5509 65.7634L86.4939 65.6874L86.4368 65.6303L86.3608 65.6684L86.0566 65.5543V65.3452L85.9996 65.2691L86.1326 65.2311L85.9235 65.1741L85.9425 65.117L85.9235 65.06V65.041L85.7524 65.098V64.9649H85.6193L85.3532 64.6988V64.6608L84.6688 65.079L85.2581 64.2995H84.7068L84.9539 64.0524L84.8969 64.0714L84.6497 63.7862V63.6532L84.5167 63.5201L84.4406 63.5771L84.2125 63.425V63.349L83.5851 63.1018H83.6992L83.452 62.6836V62.5505H83.376L83.2619 62.4174L83.0528 62.2653H82.9197L82.7866 62.1322H82.5205V61.809L82.4444 61.79L82.4064 61.657H82.3684L82.2923 61.4859H82.2353L82.0262 61.5429L81.9691 61.4859H81.9311L81.76 61.5429L81.5509 61.4859L81.3228 61.2767H81.3037V61.2957L81.3798 61.4478L81.4939 61.4859L81.684 61.714H81.741L81.8741 61.9231L81.9311 61.8661L82.2543 62.0942L82.4064 62.3984L82.5205 62.4554H82.7106V62.7596L82.7296 62.7786L82.7486 62.8357H82.8817L83.0148 63.0638L83.0528 63.0828H83.2049V63.3109L83.2429 63.33L83.2809 63.5391V63.5771L83.395 63.8813V63.9193L83.471 63.9383L83.7372 64.0904V64.2615L83.7942 64.3946L83.9273 64.5277L83.9844 64.8129L84.2125 65.1741L84.1555 65.3452L84.1935 65.4022L84.3266 65.4782L84.5547 65.7254L84.5927 65.8395L84.8209 65.8775V65.9916L84.9729 66.0676V66.1817L85.03 66.2007L85.1821 66.4288L85.4863 66.5809V66.657H85.6193L85.9425 66.9801H86.1326L86.1707 66.8281L86.4178 66.8851L86.4748 66.657L86.4178 66.4859L86.4939 66.2957L86.4558 66.2577L86.5129 65.8585L86.6269 65.8395ZM94.1745 66.4859L94.1174 66.5429V66.676L94.0414 66.79V66.9041L94.0604 66.8851H94.1364V66.657L94.2125 66.5809L94.2315 66.5049V66.4668H94.1745V66.4859ZM95.3151 66.4098V66.3528L95.2581 66.3338L95.1821 66.0486H95.068L95.2011 65.8585L95.144 65.6493L95.011 65.5163L94.9539 65.4022L94.8209 65.2881V65.1551L94.6117 65.098L94.4977 65.06L94.3075 64.8889L94.1745 64.6798V64.6608L94.1555 64.6798L94.0984 64.7938L94.0414 64.8129L94.0984 64.9459L94.0224 65.079L94.0414 65.2691L94.0034 65.3262V65.4592L93.9463 65.5163V65.6684L93.7562 65.7444V65.8965H93.7372V65.9155H94.0604V66.1817L94.1745 66.4098L94.3075 66.1056L94.2695 66.0486L94.2125 65.9155V65.7064L94.3646 65.5923L94.4216 65.5163L94.7258 65.4022L94.8779 65.5543L94.992 65.7254V65.9916L94.9349 66.0486L94.992 66.1056L95.2201 66.2197H95.2011V66.4859L95.2581 66.4288L95.3722 66.4098V66.3908H95.3151V66.4098ZM92.6345 61.657H92.6916V61.3338L93.0148 61.5999V61.2957L92.8817 61.1056L92.8437 61.0866H92.6916V60.8395L92.5585 60.6493L92.5015 60.7064H92.4444L92.4254 60.7824H92.3494L92.2923 60.9155V61.0486L91.9881 61.3528L91.9311 61.5619L91.817 61.5809L91.798 61.5999L91.741 61.6189L91.3988 62.2653V61.6379L91.2467 61.676L91.2277 61.714V61.8471L90.9805 62.0942L90.8475 62.2463L90.8285 62.3033L90.6954 62.5315L90.4862 62.6646L90.1631 62.7406L90.5433 63.3109L89.9539 63.0068V63.1398L89.8399 63.0828V63.2159L89.7828 63.368V63.5961L89.3266 63.5201L89.1364 63.406H88.9083L88.8323 63.2729L88.6992 63.5011L88.6421 63.5581V63.6722L88.6231 63.7862V63.9003L88.6992 64.0334L88.8323 64.1665H88.8703L89.9729 63.6341L89.0414 64.5467H89.0224L89.1364 64.6798L89.1935 64.7938V65.041L89.1364 65.098L89.1935 65.136V65.4782L89.3266 65.3642L89.3836 65.5353H89.4596L89.5167 65.5923H89.5357L89.6688 65.5163L89.7068 65.5353L89.8779 65.2691L90.03 65.6113V65.8014L90.144 65.7444L90.2011 65.8014L90.3151 65.7634L90.3532 65.6303H90.6574L90.7144 65.6874L90.8475 65.6684L90.9045 65.5543L91.0946 65.8014L91.2277 65.7444L91.2657 65.8585H91.3228L91.4748 66.0866L91.4178 66.1246L91.5319 66.0866H91.6459L91.76 66.0296L91.8361 65.8775V65.4973L91.3228 65.7254L91.8931 65.1551L91.665 64.9269H92.1022L92.1593 64.8699L91.703 64.5657H92.3494L92.3304 64.4897L92.4824 64.3566V64.1665L92.5395 64.1094V63.8243L92.5965 63.8052L92.7296 63.5961L92.6535 63.1969L92.4254 63.0828L92.7486 62.8547L92.6155 62.7216L92.5965 62.6075L92.3874 62.4744L92.5205 62.2843L92.4064 62.0562L92.4444 62.0182L92.1973 61.9421L92.5395 61.79V61.657H92.6345ZM97.6916 66.0106L97.7106 66.0296V66.0106H97.6916ZM97.7676 65.9916H97.7106V66.0106H97.8056L97.7676 65.9916ZM95.3532 64.8129H95.2771L95.144 64.8509L95.068 64.7938L95.03 64.8319L94.9729 64.9649L95.068 64.9459L95.125 64.8889L95.3532 64.8319L95.4292 64.7748L95.4482 64.7558L95.3532 64.8129ZM94.8969 63.7482L94.8399 63.6341L94.7068 63.7672L94.7448 63.7862L94.8018 63.8052L94.9349 63.7672L94.8969 63.7482ZM82.5015 59.5087V59.5277L82.5205 59.5087H82.5015ZM85.2391 63.5011L85.2771 63.463V63.425L85.2391 63.5011ZM85.2771 63.368V63.425L85.2961 63.387L85.2771 63.368ZM85.3912 63.1208L85.3342 63.0638V63.0068L85.2771 62.9497L85.2201 62.8167L84.8969 62.4935L85.125 62.3604V62.2083L85.068 62.1513V61.8851L85.125 61.8281V61.5239H85.144L85.125 61.4668L85.049 61.3338L84.6688 60.9535L84.6497 60.9345H84.3075V60.8205L84.2505 60.7824L84.1935 60.5733L84.1364 60.4973H83.9844L83.8513 60.6303L83.5091 60.2881L83.2239 60.2121V59.8509L83.452 59.7748L83.395 59.7178V59.5847H83.338L83.2809 59.4706L83.1478 59.3376V59.2805L82.8056 59.3376L82.5965 59.1474L82.6536 59.0144L82.5775 58.9003V58.8433L82.5395 58.7292L82.4634 58.9573L82.5395 59.0334L82.4824 59.0904H82.5395V59.5467L82.7296 59.4706V59.7178L82.7866 59.7748V59.8509L82.8627 59.8889L82.9007 60.022H82.9387L83.1288 60.2501L83.2049 60.2881L83.2429 60.3452H83.357V60.5733L83.4901 60.6303L83.5471 60.6874L83.6802 60.9155L83.7372 61.3528L83.7752 61.4668L83.8323 61.6189L83.7752 61.9041L83.7562 61.9231L83.9463 62.1132L83.8893 62.1703L83.9653 62.2273L84.0414 62.3414L84.1745 62.3984L84.3075 62.6836L84.2505 62.7406L84.5357 63.0828L84.7258 63.0258L84.7828 63.0828H85.087L84.8969 63.2159L85.011 63.33L85.1631 63.368L85.2201 63.406V63.2539L85.3722 63.406V63.2919L85.3912 63.1208ZM84.1745 62.7976L84.0604 62.9117H84.0414L84.0034 63.0448L84.2125 63.0258L84.1745 62.7976ZM83.7752 62.9878L83.7182 63.0638H83.8513L83.7752 62.9878ZM96.5509 60.4782V60.5163L96.5889 60.6303H96.722L96.8361 60.7064L96.8551 60.6874L96.5509 60.4782ZM73.8703 60.136L73.8893 60.06H73.8703L73.7372 59.7748L73.7182 59.7368H73.5851V59.6798H73.1669L73.1288 59.8509V59.9649L73.1859 60.136L73.1479 60.1931L73.2049 60.3832L73.2619 60.6684L73.376 60.6874L73.433 60.6493H73.6802L73.7562 60.6113L73.8323 60.5353L73.9083 60.4022V60.1741L73.8703 60.136ZM97.3113 59.6417L97.2353 59.3756L97.2923 59.2425L97.2163 59.1665V59.5467L97.0642 59.4136L96.9311 59.5847L96.8741 59.5277V59.6037L96.5509 59.7558V59.7748L96.3988 59.8319L96.6079 60.041L96.9501 60.6874L97.0072 60.6303L96.8931 60.5733L96.9501 60.3452L97.1022 60.022L97.3684 59.9649V59.6417H97.3113ZM95.9425 59.5847L95.9615 59.6417L95.9996 59.5847H95.9425ZM73.2999 59.4326V59.2045H73.2429V59.4136H73.1288V59.5657L73.357 59.4326H73.2999ZM40.5053 40.7064V40.7444V40.7254V40.7064ZM45.2961 40.4212L45.3532 40.4402L45.2961 40.4212ZM49.2125 20.1931L49.1364 20.1741V20.2311L49.3075 20.2881L49.2125 20.1931ZM49.5927 19.4706L49.5737 19.4136L49.5167 19.3756L49.3075 19.1665V19.0524L49.2885 19.0334L49.0794 18.9954L48.9273 19.0334H48.9083V19.0524L49.0414 19.2805V19.3566L49.1745 19.4897L49.0414 19.6227L49.0984 19.8319L49.0414 19.8889V20.098L49.0224 20.136L49.1174 20.1741V19.9079L49.1745 19.8509L49.1364 19.8128L49.3646 19.5847H49.4977L49.5547 19.5277H49.5927V19.4706ZM71.2087 59.2995L71.2277 59.3186L71.2087 59.2995ZM71.3037 59.3756L71.2277 59.3186L71.2657 59.3566L71.2087 59.3946L71.3037 59.3756ZM87.8627 57.3223L87.8817 57.3414L87.9007 57.3033L87.8627 57.3223ZM98.8132 31.9041L98.9463 31.771V31.733L98.8893 31.6189V31.4859H98.8513L98.7942 31.0486L98.7372 30.9916V30.7824L98.6231 30.6684L98.5091 30.4212L98.5471 30.3832L98.5091 30.3642L98.376 29.9079V29.7938L98.338 29.7178L98.2809 29.3946L98.319 29.3566L98.2429 29.1284L98.2809 29.0714L98.2049 28.9954L98.2619 28.9383L98.2049 28.8813L98.2239 28.8623L98.2049 28.8433L98.1479 28.6341L98.0908 28.5961L97.8817 28.387V28.1208L97.9197 28.0828L97.8817 28.0258H97.7486L97.4634 27.7406L97.5965 27.6075V27.5505L97.6155 27.4935L97.5965 27.4744H97.5395L97.4825 27.3604H97.4254L97.3684 27.3033L97.1212 27.1893L97.0832 27.1513L96.9501 27.0942L96.8361 26.9801L96.798 26.9231H96.6269L96.5889 26.8851L96.5509 26.9231H96.4748L96.5509 26.9801H96.4178V27.1132L96.3608 27.0942L96.3037 27.2273L96.3228 27.2653L96.2657 27.3414L96.3228 27.3984L96.2657 27.6075L95.8855 27.9878V27.7976L95.6003 27.8547L95.5433 27.7976L95.5243 27.8357L95.106 27.4744L95.1631 27.2653L95.144 27.2083L95.011 27.0562V26.809L94.8969 26.8471L94.7638 26.9801H94.4026L94.3266 26.9041L94.2695 26.9421L94.0224 26.8471L93.9083 26.5999L94.0414 26.2767L94.1174 26.1627V26.0296L94.2505 25.8965V25.6874L94.3836 25.5733V25.4022L94.4406 25.3452V25.3071L94.5737 25.1551L94.6307 25.022L94.6878 24.9649L94.6307 24.8509L94.6878 24.7938V24.6608L94.7448 24.2045H94.8018L94.8399 24.0524L94.8779 24.0334L94.8589 23.9954L95.03 23.7672L95.087 23.6341L95.144 23.5771L95.087 23.387L95.144 23.33V23.2159L95.2011 23.1589L95.1631 23.0828V22.8737L95.106 22.7216L95.2771 22.4554L95.3912 22.3224L95.4102 22.2463L95.2771 22.0182L95.3532 21.79L95.4672 21.676L95.5243 21.5429L95.6954 21.4098L95.7524 21.2387H96.0376L96.0566 21.2767L96.1897 21.1627H96.3228L96.4558 21.0486H96.684L96.798 20.9345H96.9882L97.0452 20.7824L97.2923 20.8965L97.5395 20.7824L97.7486 20.8395H97.7676C91.1707 14.5087 82.2353 10.6113 72.3874 10.6113C72.1973 10.6113 72.0262 10.6113 71.8361 10.6113L71.684 10.7634H71.5699L70.9615 11.3718L71.2657 10.6303C68.9083 10.7064 66.6079 10.9916 64.3836 11.4859L64.7828 11.6379H63.6992C63.1288 11.771 62.5775 11.9231 62.0262 12.0942L62.1212 12.2843V12.4174H62.1593L62.2163 12.6455L62.2733 12.6836H62.3304L62.6155 12.7216L62.9767 12.3604V12.7596L63.0338 12.8737L63.1098 12.9307L63.1669 13.0068H63.395L63.5851 13.1208H63.6231L63.8513 13.349L63.9083 13.6912L63.9653 13.8433L63.9273 13.9193L63.9463 13.9383L64.0794 13.9954L64.3075 14.3186L64.3266 14.5087L64.4596 14.6227L64.5357 14.8509L64.4596 15.079L64.4786 15.098L64.5167 15.117V15.06L64.8209 15.3642L64.8589 15.4022L64.8969 15.3642L65.03 15.4212L65.144 15.3642L65.7144 15.2311L65.5813 15.3832L65.6574 15.4402L65.7334 15.4782H65.9615L66.2847 16.4668L65.6954 15.8775H65.5623L65.3342 15.7254L65.2961 15.7824V15.8205L65.6574 16.714L64.8969 15.9535H64.6878L64.4596 15.7254V15.5733L64.3266 15.5353H64.0984L63.7372 15.3071H63.452L63.395 14.7938L63.452 14.6608L63.2809 14.5277V14.2995L63.2049 14.0904L63.376 13.9573V13.8243L63.319 13.6912V13.6722L63.2619 13.6151L63.1478 13.6722L62.8056 13.7292H62.5775L62.3494 13.5011L62.2163 13.444L62.1783 13.368L61.9311 13.33L61.779 13.1779L61.722 13.1208H61.3228L61.3037 13.1398L61.5129 13.1969L61.741 13.5391L61.5319 13.9003L61.2657 13.9763L60.9425 13.8433L60.8855 13.8052L60.7714 13.6722H60.7334L60.6764 13.7292L60.6383 13.7672H60.6954L60.7524 13.9573L60.8285 14.0144H61.0376L61.1707 14.1474L61.3037 14.1665L61.3418 14.1284H61.5699L61.6269 14.2425H61.8361L61.8931 14.4706L61.9311 14.5087L61.9501 14.5657L62.0072 14.5847L62.8817 14.2425L62.1212 15.003L62.3304 15.4592L61.9121 15.041L61.779 15.06L61.4558 14.8319H61.2467L60.9996 15.079L60.8855 14.7938L60.8285 14.8128H60.5433L60.4292 14.7368L60.2391 14.7938L60.068 14.3566L60.1821 14.3186L60.125 14.2615V14.2235L60.011 14.1094L59.9539 13.9573L59.7638 14.1665L59.7448 14.1855L59.7828 14.2235L59.8209 14.6417L59.7638 14.8699H59.992L60.2961 15.117L60.3152 15.1741H60.3912L60.5813 15.3452L60.7334 15.6303L60.6764 16.0296L60.6574 16.0866L60.7714 16.2387L60.7144 16.5049L60.7334 16.5429L60.9425 16.752L60.9996 16.9421L61.0566 16.9041L61.1897 16.9421L61.2087 16.9041L61.4368 16.676L61.5889 16.733L61.722 16.676L61.9121 16.79L62.1212 16.733L62.1973 16.9611L62.3304 17.0182H62.5775L62.8056 17.2653V17.3414L62.9197 17.4174L62.9767 17.5505L63.0338 17.6075L63.0718 17.6646L63.5281 17.8357L63.0148 18.0638L63.0718 18.1208L63.2049 18.2539L63.1669 18.33H63.2239L63.2429 18.387L63.452 18.1398L63.5281 18.368L63.5851 18.349L63.8323 18.5961L63.6041 18.8623L63.452 18.9193L63.319 18.9763L63.0908 19.0334L62.9387 18.9003H62.8056L62.5205 18.6151L62.5775 18.5581L62.5015 18.4821L62.4634 18.425L62.2353 18.349L62.2923 18.1589H62.2353L62.1783 17.9878L61.9501 17.8547V17.7216L61.8361 17.8357L61.703 17.8927L61.6269 17.9687L61.5699 18.0258L61.6079 18.2159L61.6269 18.2539L61.8551 18.368L62.0452 18.8813L61.9882 19.0904L61.8551 19.2615L61.8361 19.3186L61.9691 19.4706L61.8361 19.7938V19.9269L61.703 20.06V20.2121L61.5129 20.2691V20.4592L61.2467 20.6874L60.9045 20.6303L60.8665 20.5923H60.7904L60.5623 20.6494L60.3342 20.5923L59.9159 20.5353L59.7828 20.4022L59.7258 20.5923L59.5357 20.4212H59.1555L59.5737 19.9269H59.8018L60.03 19.8889L60.144 19.7748L60.4672 19.9649L60.5053 19.9269H60.8094V19.7558L60.9615 19.8128V19.6988L60.7334 19.4706L60.9806 19.3566V19.2995L60.9235 19.2425L60.9806 19.0334V18.9573L61.0566 18.8813L60.9425 18.7672L60.8855 18.463L60.9425 18.3109V18.1018L60.9235 18.0828L60.7904 18.0258L60.7524 17.9117L60.6003 17.8737L60.3342 17.4935L60.2961 17.3224L60.2201 17.2463L60.2391 17.1893H60.2201L60.144 16.9421L60.1821 16.809L60.049 16.5809V16.3908L59.9159 16.2577L59.8969 16.1627L59.8209 16.0866L59.7638 15.7254L59.7448 15.6684L59.6117 15.5353L59.5927 15.4212L59.3836 15.4782V15.2501L59.3266 15.2121L59.2695 15.041L59.1555 14.9269L59.0414 14.6798L59.1555 14.5657V14.5467L59.0984 14.3946L59.1555 14.3376L59.1364 14.2805L59.1935 13.9763L59.1555 13.8433V13.7102L59.0984 13.6532V13.5011L59.0414 13.3109H59.0224L58.7562 13.2159L58.7182 13.1969L58.6612 13.2539C58.4901 13.33 58.3189 13.406 58.1478 13.4821L58.0148 13.6151L57.9958 13.6722L58.0338 13.7102V13.8623L58.0718 13.9763L58.1288 14.3946V14.4516L58.2619 14.5847L58.2049 14.7938V14.8509L58.2619 15.06L58.0338 15.2881L57.8817 15.5543L57.9577 15.7824L57.9007 15.8395L58.0148 15.9535L58.0718 16.0676H58.1859L58.9653 16.8471L58.319 16.5809V16.8281L58.1859 16.9611L58.2239 17.0372L58.357 17.0942V17.1322L58.414 17.1703H58.5661L58.6041 17.2083L58.7182 17.0752L58.9463 17.3033V17.4744H59.0224L59.2885 17.7596L59.3456 17.7216H59.3836L59.4406 17.7786H59.8969L59.5357 18.1398V18.406L59.5167 18.425L59.5737 18.5391L59.4977 18.6151V18.9763L59.0794 18.7862L58.9463 18.5011L58.8893 18.444L58.6802 18.387L58.6231 18.1969L58.5851 18.1589L58.319 18.1208L58.0148 17.9307L57.7676 17.8737L57.7296 17.7976H57.6726L57.5205 17.7216L57.2543 17.9878L57.1022 17.5885L56.8741 17.5125L56.741 17.4364L56.3228 17.3984L55.9045 17.4554L55.8285 17.4174L55.7144 17.4744L55.6574 17.4364L55.6003 17.4744L55.6193 17.5125V17.7786L55.6574 17.8167L55.6764 17.8927H55.7714L55.9805 18.1969V18.2349L56.0186 18.2539L56.722 18.9573L55.9045 18.6912L55.8855 18.7672L55.7524 18.8243L55.8094 18.8813L55.7334 18.8433H55.7144V18.9763L55.5813 19.1094H55.049L54.9159 18.8243L54.9729 18.7102L54.9159 18.5581L54.9729 18.5011L54.9159 18.4821L54.8969 18.5011L54.7828 18.5581L54.7448 18.5961V18.8052H54.4026V18.8433L54.1555 18.9573H53.8323L53.7942 18.9383L53.7182 19.0144L53.6612 18.9573L53.6041 19.0144L53.6802 19.0524L53.5661 19.1665L53.6231 19.2235L53.376 19.4706L53.1478 19.3946L52.7676 20.3071V19.5467L52.7296 19.5847L52.4444 19.4516L52.4064 19.3756L52.0642 19.6037L51.798 19.3376L51.8361 19.2995V19.1475L51.6079 19.2045L51.5699 19.1855L51.3608 19.4516L51.3037 19.4897L51.0756 19.7748H51.0566L51.1897 20.117L50.6764 20.06L50.6574 20.079L50.5243 20.098V20.2501L51.3418 20.117L50.4102 20.6874L50.3342 20.7634H50.2201L50.03 20.9535L49.9729 20.8205H49.7068L49.4596 20.4592L49.3075 20.3262H49.2695L49.4406 20.4973L49.3836 20.5543L49.4406 20.6113L49.3836 20.6684L49.4026 20.6874L49.3456 20.8965V21.1817L49.3266 21.2007L49.3456 21.2387L49.5547 22.0372L49.0224 21.5049L48.8513 21.4478L48.2619 22.0372L48.5661 21.2957L48.433 21.3338L48.319 21.2197L48.2619 21.4288L47.6536 21.8661L47.9197 21.2197L47.9577 21.1056V20.9725L47.7676 20.8014L47.7106 20.6874L47.6536 20.6303L47.6155 20.5923V20.7254L47.3304 20.5543C46.8551 21.0106 46.3988 21.4668 45.9425 21.9421H45.9805L46.0376 21.9801L46.1897 21.9231L46.3418 22.0752L46.4748 22.1132L46.741 22.1513L46.8931 22.1132L46.9501 22.0562H47.1402L47.2163 22.0182L47.5015 21.9611V22.2083L47.5205 22.2653L47.7486 22.4935L47.9767 22.8357L47.7106 23.1018L47.5775 23.2349L47.4444 23.5771L47.1402 23.2729L47.0262 23.2159V23.33L47.0832 23.368V23.8623L46.9501 23.9954H46.8361L46.722 24.1094H46.5129L46.3988 23.9954H46.2657L46.2087 23.9383H46.0186L45.8855 23.8052V23.7482L45.8475 23.7292L45.7904 23.7862L45.4102 23.5581V23.425L45.068 23.5391L45.2201 23.1208L45.1821 23.0638V23.0068L45.068 22.8927V22.7976C44.0034 23.9954 43.0148 25.2691 42.1022 26.5999L42.1212 26.6379L42.2733 26.79L42.4254 26.733L42.4634 26.752L42.6916 26.5239L42.8247 26.657L42.9007 26.5809H42.8627C42.8817 26.5429 42.9007 26.5239 42.9007 26.5239L43.0338 26.3718L43.2619 26.6379V26.695H43.2809L43.319 26.752H43.5661L43.8132 26.9992L43.6802 27.3794L43.5281 27.3224L43.5091 27.3604L43.433 27.4364L43.5471 27.4935L43.2809 27.6075V27.8357L43.1288 27.6836L43.0908 27.7596V27.9687H42.3304L42.1402 27.8547H41.9691L41.9121 27.8167L41.76 27.8737L41.741 27.8547L41.5129 27.9307L41.4558 27.8737L41.3228 27.9307L41.2657 28.1208H41.3418L41.2087 28.463L41.4178 28.2539L41.5699 28.6722L41.5129 28.9954V29.2235L41.5699 29.4897L41.5129 29.7178L41.3608 30.098H41.0566L40.8665 29.8889L40.8094 29.7558L40.6003 29.5277L40.5243 29.5657L40.4672 29.6227H40.3342H40.3151L40.2771 29.6417V30.098L40.144 29.9649L40.087 30.022V30.2691L40.011 30.3071L40.03 30.3642L40.087 30.4212V30.6684L40.106 30.7064L40.2201 30.6684L40.4102 30.9155L40.4482 30.9345L40.6954 30.8775L40.8285 31.0106L40.8855 31.1246L41.0186 31.2577L40.9615 31.4098L41.0376 31.733L40.2581 31.79L39.6878 31.752L39.4596 31.9041L39.1935 31.9802L39.1364 31.9231C38.376 33.5771 37.7486 35.2881 37.2353 37.0562L37.6155 37.2083V37.4364L37.7296 37.3224H38.0338L38.0908 37.5315L38.2239 37.6646L38.2809 37.7976L38.357 37.8737L38.414 37.9307H38.471L39.0794 38.5391H39.1364L39.2885 38.5961L39.7068 39.0144L39.7638 38.9573L39.992 39.2235L40.011 39.2425L40.144 39.2995L40.3912 39.6037L40.4292 39.6608L40.4862 39.6988L40.7334 39.9269L40.6193 40.1931L40.5813 40.2311L40.5433 40.3832L40.6003 40.5923L40.5433 40.7064L40.6003 40.8205H40.7144L40.8475 41.1056L40.9996 41.1627V41.3148L41.1326 41.3908L41.1897 41.4668H41.3228V41.6189L41.3988 41.752L41.4558 41.733L41.4748 41.714L41.4939 41.733L41.5509 41.695L41.4178 41.6379L41.6459 41.4098L41.3608 41.1056L41.4748 40.9916L41.4368 40.8395L41.5129 40.5923L41.8741 40.4592L41.9311 40.6494L42.0642 40.5163L42.1973 40.5733L42.2353 40.4592L42.5395 40.3262L42.6726 40.4592V40.3452H43.0148L43.0718 40.4592H43.1859L43.433 40.5353L43.452 40.5923L43.5091 40.5353L43.6421 40.6684L43.9463 40.4022L43.9273 40.4402L44.0984 40.3832H44.2315L44.2885 40.3262L44.1174 40.136L44.0604 39.9649L43.9844 39.8889L43.6231 39.4706H43.8893L44.0034 39.3946L44.0414 39.3756L43.9844 39.0714L44.2505 38.8433H44.3075L44.3266 38.7672V38.5011L44.2695 38.368L44.3266 38.2349V38.1779L44.2695 37.9687L44.3836 37.8547L44.4406 37.6455H44.7068L44.7448 37.6265L44.7638 37.5885L44.6497 37.4744L44.7828 37.3414V36.695H45.1821L45.2011 36.676V36.4859L45.4482 36.4098H45.5053L45.6764 36.2387L45.8094 36.3718L45.9425 36.2387L46.1516 36.4478H46.1707L46.2277 36.4288L46.3037 36.676L46.3798 36.714L46.3608 36.733L46.4368 36.695L46.5699 36.752L46.6269 36.5429L46.741 36.657L46.8551 36.5429L46.9691 36.5999L47.0262 36.5429L47.2353 36.5999L47.2543 36.5809L47.3684 36.5429L47.4824 36.4098L47.5015 36.3908L47.3113 36.2007H47.9197L47.9577 36.2577L48.0148 36.2387L48.1478 36.2957L48.2239 36.2387H48.357L48.395 36.2007L48.452 35.9916H48.5851L48.6041 35.9535L48.7372 35.8205H48.8893L49.0034 35.7634H49.2695L49.3075 35.7824L49.3646 35.7254L49.6498 35.6494L49.8779 35.8775L49.7638 36.1627L49.5167 36.2767L49.3836 36.5619L49.4977 36.5999V36.8281L49.2125 37.1132L49.2695 37.1703L49.1364 37.5885L48.9653 37.5315L48.9463 37.5505L49.0034 37.6075V37.7216L49.1555 37.6836L49.4026 37.8167L49.5357 37.8737L49.9159 38.1779L49.9539 38.2539L50.011 38.2919L50.068 38.349L50.125 38.368H50.2771L50.3342 38.425L50.3912 38.444H50.4672L50.6003 38.5771L50.6383 38.5961L50.6954 38.5391L51.0186 38.8052L51.0756 38.8243L51.2277 39.0714L51.2847 39.2045L51.3228 39.4136L51.5129 39.6798L51.4558 39.7368L51.5129 39.8509L51.3798 39.984L51.3228 40.117L51.1707 40.2691L51.0376 40.3452L50.9805 40.5163H50.7904L50.7334 40.5733L50.3722 40.5163L50.3342 40.4782H49.8969L49.8779 40.4592L49.8399 40.4782H49.6688L49.4026 40.6113L49.1174 40.5543L49.0984 40.5353L49.0794 40.5543L48.7752 40.3642L48.6421 40.3071L48.5281 40.2501L48.471 40.3071L48.2239 40.1931L48.0718 40.041L48.0528 40.003L47.9197 40.136L47.8627 40.079L47.8056 40.136L47.4634 39.7938H47.1973L47.1402 39.7558L47.0832 39.7938H46.779L46.722 39.8319L46.4368 39.9649H46.3037L46.2277 39.984L46.1897 40.06L46.0566 40.117L45.9425 40.2311L45.8855 40.3452L45.8665 40.3642V40.4973H45.4672L45.2201 40.4022L44.9349 40.6874H44.8779L44.9539 40.7634L44.5547 40.9155H44.2315L44.1745 40.8775L43.9463 40.9535L43.8893 40.8014L43.8132 41.0106L43.8323 41.0296V41.0676L43.8703 41.1056L43.9083 41.0866H44.4786L44.1364 41.4288L44.1745 41.5049L44.3456 41.4478V41.79H45.106L44.1935 42.1513L44.1745 42.2083L44.1935 42.2273L44.2505 42.1893L44.4977 42.3033L44.6307 42.5885L44.5737 42.6455L44.6878 42.7596L44.7638 42.6836V42.8167H45.125L45.011 42.9307H45.3722V43.1779L45.4482 43.2159H45.4672L45.5243 43.1589H45.5813L45.6383 43.1018L45.6764 43.1208L45.6193 42.9117L46.0566 42.7976L46.2847 42.8547L46.5509 42.9687H46.703L46.9311 43.2159L46.9882 43.2729L47.4064 43.2349L47.5395 43.1779H47.5775L47.5965 43.1398L47.9197 42.7596H48.0908L48.319 42.8927L48.338 42.9117L48.5661 42.6836L48.9083 42.8167V43.1018L48.7182 43.2919L48.8513 43.425L48.7182 43.5581L48.8323 43.7292L48.8893 43.9573L48.8323 44.0904V44.3186L48.7752 44.5467L48.7182 44.9649L48.4901 45.2311V45.3262L48.338 45.4782L48.2999 45.8395L48.1478 46.1817L48.0148 46.3908L47.9577 46.5809L47.7106 46.657L47.3304 46.5999L47.0452 46.657V47.1703L47.1022 47.2273V47.2653L47.3113 47.4554V47.6075L47.4444 47.6646L47.5015 47.8166L47.6916 48.0258L47.7486 47.8927V47.7596L47.8817 47.3984L47.9387 47.3414L48.319 46.3908V47.3794L48.2619 47.4935V47.8357L48.6802 47.9878L48.5471 48.1208L48.6992 48.33L48.7372 48.444L48.7942 48.5011L48.8513 48.6151H48.8703L49.0794 49.0334V49.1855L49.1935 49.2425L49.2505 49.3756L49.3836 49.4326L49.4977 49.6798L49.6307 49.7368L49.7448 50.06L49.6878 50.117L49.7068 50.136L49.7638 50.079L49.992 50.3071L50.2011 50.4402L50.3342 50.6113L50.3532 50.6494H50.4102L50.4672 50.8585L50.5243 50.9155L50.5813 51.0866L50.6954 51.2007L50.7524 51.3908L50.8285 51.4668L50.7714 51.79V51.809L50.8285 51.9992L50.8665 52.1513L51.2657 52.5505L51.3228 52.5695H51.5129L51.5699 52.7026L51.798 52.9117V52.9687L51.9501 53.0258L51.8931 53.2159L52.0072 53.5961L52.1402 53.6532V53.8433L52.4254 54.1284H52.5585L52.6155 54.4136L52.7676 54.4516L52.9007 54.8319L52.9577 54.9649L53.0148 55.2881V55.6113H52.9577V55.6303L53.0338 55.7444L53.0718 56.2197L53.2049 56.3528V56.695L53.1859 56.714L53.2999 56.8281L53.3189 56.8851L53.338 56.8661L53.5281 56.9231H53.5471L53.6802 56.79H53.9463L54.0604 56.657L54.0794 56.5999L54.3075 56.3718H54.5737L54.6307 56.4288H54.7638L54.8209 56.4859L55.011 56.4098L55.144 56.3718V56.3528L55.4482 56.1246H55.7334L55.8665 55.9916L55.9235 56.0486L55.9425 56.0296L56.0756 55.8014L56.2847 55.7444H56.3418L56.8361 55.5923L56.8931 55.5353L57.2353 55.4782L57.3874 55.4022L57.5205 55.2691L57.6345 55.2501L57.7106 55.022L57.9387 54.7558L58.1859 54.6988L58.2429 54.6798L58.376 54.5467L58.433 54.6037L58.452 54.5467H58.6421L58.8132 54.4326H58.9463L59.0794 54.3756L59.1364 54.4136L59.1555 54.3946V54.1284L59.3646 53.9193H59.4406L59.6117 53.8623V53.7482L59.8589 53.406L60.125 53.2919L60.1631 53.33L60.2771 53.3109L60.2581 53.2539H60.125L60.2581 52.9307L60.125 52.7976H60.3342L60.6383 52.0372V52.6455L60.6954 52.5885L60.7524 52.6455L60.7904 52.5885L60.9235 52.4554L61.0946 52.1893L61.1136 52.1322V52.0752L61.1326 52.0182L61.0946 51.9992L60.8285 51.809L60.7714 51.676L60.6383 51.5429L60.5813 51.3908L60.5243 51.2767H59.9539L59.8209 51.3338L59.5357 51.2767H59.5167L59.4596 51.3338L59.2125 51.2197L58.8893 50.9345L58.8323 50.8775L58.6041 50.6303L58.5471 50.2881L58.4901 50.2311L58.2049 50.5163L58.338 50.6494L57.9958 50.9916V51.0676H57.8627L57.8437 51.0866L57.6345 51.1436H57.4064L57.3494 51.0866L57.2923 51.1056L57.1593 51.0676L56.9311 51.2767L56.76 51.2197H56.703L56.4178 51.3338L56.3608 51.0296L56.3418 51.0106H56.2657L56.2087 50.8585H56.0946V50.7254L55.9615 50.8585L55.6954 50.5923L55.6383 50.4592L55.3532 50.136L55.106 49.4897L55.049 49.4136H55.011L54.7828 49.1855L54.5737 49.1284L54.4406 48.7482L54.4026 48.6912L54.3456 48.6341V48.6151L53.9463 48.2159H54.0794L53.6612 47.9307L54.2315 47.8547L54.2125 47.7786V47.6455L54.2315 47.5885L53.6612 47.3604H54.3266L54.6497 47.0372V47.3414H54.7068L54.7638 47.3984L54.8969 47.2653L54.9539 47.3984L55.068 47.2843L55.2581 47.4744L55.4102 47.6455V47.7216L55.5623 47.9497L55.6003 48.0258H55.7334L55.7904 48.1398H56.2087L56.2467 48.1779L56.3608 48.0638L56.4939 48.444L56.6079 48.7292L56.76 48.6912L56.9882 48.7482L57.0072 48.7672H57.1593L57.2163 48.8243H57.3304L57.5585 49.0524L57.5205 49.0904L57.6536 49.1474H57.7866L57.9197 49.2235L58.0528 49.1665L58.319 49.2235L58.452 49.2995L58.5281 49.2425L58.7752 49.0904H58.8893L59.0034 49.0144L59.2125 48.9573L59.5927 49.0334H59.6498V49.0904L59.7258 49.2235L59.7828 49.4326L59.9159 49.6608V49.7178H60.3152L60.3532 49.7558L60.3912 49.7178H60.5813L60.7144 49.8319L60.9615 49.7938L61.0946 49.8509H61.3798L61.4178 49.8699L61.4748 49.8128L61.5509 49.8509L61.5129 49.7748H61.798L61.8551 49.9269L61.8931 49.9459L62.0072 49.984L62.0262 49.9649L62.0832 49.9079H62.4254V49.9649H62.5585L62.6726 49.9079H62.9007V49.8509L63.0908 49.6608L63.1478 49.6988H63.395L63.452 49.7558H63.5661L63.6041 49.7938L63.6802 49.7178H63.9844L64.0414 49.7558L64.0984 49.7178H64.1555L64.2885 49.5847L64.4216 49.7178L64.4596 49.7368L64.5357 49.6988H64.7828L64.9729 49.9079L65.03 50.098H65.2201V50.117L65.4672 50.041V50.3262L65.5433 50.4022L65.6003 50.5733L65.6574 50.6303L65.6764 50.6494V50.6684L65.7144 50.7444H65.8475L66.0376 50.8585L66.1516 50.7824L66.3037 50.7254L66.4368 51.0676L66.3798 51.1056L66.3418 51.1436L66.4558 51.2767L66.779 51.3908L66.9501 51.2767V51.1436H67.5205L67.3113 51.5999H66.684L66.5699 51.733H66.5129L66.4368 51.809V51.8851H66.4558V52.0372L66.5889 52.1703L66.9881 52.4554L67.0642 52.4744L67.1212 52.4554L67.4064 52.2653L67.4824 52.2083V52.1893L67.5775 52.0372V51.9992L67.4444 51.8661L67.5965 51.5809V50.5353L67.9197 51.3148L67.9767 51.2957L68.0338 51.3528L68.8323 51.0296L68.0718 51.79L69.0604 52.1893H68.0148L67.9958 52.2083H67.9767L67.9958 52.2653L68.0338 52.3033L68.0908 52.5125V52.7216L68.0528 52.7786L68.452 52.9307L68.0718 53.0828V53.1018L68.2049 53.425V53.5581L68.2619 53.7672L68.2049 53.8243L68.4901 54.2425H68.9273V54.2995L69.1364 54.7178V55.022L69.1935 55.1551L69.3266 55.2121L69.3836 55.3832L69.4406 55.4402V55.4973L69.4596 55.5543H69.5167V55.6684L69.5547 55.7064H69.6878V56.0296L69.7638 56.2387L69.8018 56.3718L69.9159 56.6189L69.9729 56.752L70.011 56.9041L70.049 56.9421L70.106 57.0752L70.1631 57.1322H70.2201L70.4102 57.3604L70.5623 57.5885L70.6193 57.7976V57.8166H70.6954V58.0828L70.8094 58.2729L70.8665 58.5201V58.7102L71.0186 59.0524L71.1136 59.1665L71.2467 59.0334L71.3037 58.8243L71.5699 58.6531H71.6459L71.703 58.5961L71.741 58.5391L71.722 58.5201L71.8551 58.2159L72.1022 58.1398L72.0642 57.8166L72.0072 57.6836V57.2843L72.1402 57.0182L72.2163 56.714L72.1973 56.5619L72.0642 56.5049V56.0106L72.0072 55.7824L72.1212 55.6684L72.0452 55.4402L72.1022 55.2311L72.3684 54.9649H72.6345V54.9079L72.8627 54.6798L73.1098 54.7368L73.1669 54.6798L73.1288 54.6227L73.2049 54.3946L73.414 54.2045L73.6231 54.1665L73.6802 54.1094L73.7372 53.9763L74.2315 53.5771L74.3456 53.349L74.4216 53.2919L74.5547 52.8927H74.7828L74.8969 52.8357H75.049L75.125 52.9117L75.1821 52.8927V52.8737L75.2581 52.8167L75.049 52.6075H75.4102L75.4292 52.5695L75.4672 52.5315V52.4935L75.4482 52.4364L75.3342 52.3224L75.4672 51.9421L75.5813 51.8281L75.9045 51.714L75.9425 51.676V51.5619L75.9615 51.5429L75.9425 51.5239V51.2197H76.2657L76.4368 51.2767V51.1436L76.741 51.4478H76.8551L77.0072 51.2957L76.9691 51.2387H77.1022L77.5205 50.8205V50.8395L77.8627 50.7634L77.9007 50.8395L77.9387 50.8775H77.9958L78.0718 50.9535L78.1288 50.9916V50.9725H78.1859L78.2619 50.9345L78.2239 50.9725H78.357L78.5091 51.4098L78.5661 51.4668V51.5049L78.6421 51.4288V51.9992L78.6992 52.0752L78.7562 52.1893H78.8132L78.8323 52.2273L78.9843 52.2843V52.1703L79.1174 52.3033H79.5737L79.3456 52.5315L79.3836 52.5505L79.4216 52.5885L79.5547 52.6455L79.7258 52.8737V53.1398L79.8018 53.2159V53.368L79.8779 53.5771L79.8969 53.6341L80.1821 53.7482L80.068 53.8623L80.087 53.8813V54.1284L80.144 54.2615L80.2771 53.8243V54.4516L80.3151 54.4897L80.2771 54.5277V54.9459L80.3342 55.079H80.4102L80.5243 55.022L80.6003 54.7938L80.5433 54.6608H80.9235V54.5467L80.3532 53.9763L81.3988 54.3946V54.4516L81.4558 54.5087L81.5699 54.7178L81.6079 54.7558L81.8931 54.4706V54.984L81.8741 55.003L81.8931 55.041V55.1931L81.9311 55.2311L81.9691 55.5163H81.9882V55.7824L82.3494 56.1436H81.4178V56.2197L81.6459 56.4478L81.703 56.5619L81.76 56.6189L81.817 56.9421L81.8551 56.9801L81.9691 57.2273L81.9121 57.2843V57.3223L81.9311 57.3794L82.1973 57.6265L82.1212 57.7026L82.1783 57.8357L82.0452 57.9687V58.1779H82.2733V58.0448L82.4064 57.9117L82.4634 57.5125L82.5965 57.3794L82.6536 57.2653L82.7676 57.1512L82.6916 57.0752L82.8247 56.9421V56.8851L82.8437 56.8281L82.5585 56.714L82.7486 56.5429V56.1246L82.9958 56.3718L83.0528 56.3147L83.1669 56.4288L83.2999 56.3718L83.357 56.4288H83.414L83.5851 56.4859L83.7942 56.695L83.6612 56.8281V56.8661L83.7182 56.9801L83.9463 57.0562L84.0794 57.1893V57.2083L84.1555 57.2463L84.4786 57.5695H84.6688L84.8209 57.8166V57.8737L84.8399 57.8547L84.9729 58.2349L85.2771 57.9307V58.2349H86.0376V58.1589H86.3228L86.3608 58.1779L86.665 57.8737V58.1969L86.684 58.1779L86.741 58.2349H86.76L86.9311 58.1589L86.9882 58.1018V58.0448L87.2923 57.9307L87.4064 57.8166L87.4444 57.7026L87.5015 57.5505L87.4254 57.3223L87.5585 57.2843L87.5395 57.2463V57.0752L87.6155 56.9992L87.5965 56.9611L87.5395 56.9041V56.752L87.4824 56.5619L87.5395 56.5049L87.4824 56.3908L87.5395 56.3338L87.5205 56.3147L87.4634 56.1246L87.4064 56.0676L87.3494 55.8965L87.1402 55.6874L87.1973 55.6303L87.0832 55.5163V55.4782L87.0262 55.3262L86.9501 55.2501L86.9882 54.984L86.9501 54.8699L86.722 54.7368L86.3228 54.5467V55.2881L85.9805 54.4516L85.8094 54.2615L85.6954 54.1855L85.2011 53.9763L85.4672 53.8623L85.5243 53.6722V53.387L85.5813 53.33L85.6383 53.2159L85.8475 53.0068L85.9045 53.0638V52.9117L85.7714 52.7786L85.9045 52.6455V52.5125H86.1326L86.2657 52.3794L86.4368 52.3224H86.5509L86.3798 52.1322H86.798L86.9311 51.9992L86.9691 52.0372L87.1212 51.6189L87.2923 52.0562L87.3304 52.0182L87.4444 52.1322L87.5015 51.9992L87.7296 52.0752L87.8817 52.0182L88.0528 52.2083V52.3033L88.1098 52.2463L87.8817 52.0182H88.2999L88.6041 51.714V51.9041H89.0794L89.2125 51.8471L89.2695 51.8851L89.3456 51.8471L89.4026 51.79L89.4216 51.733V51.2957L89.6688 51.5429V51.5239L89.6117 51.4098V50.9916L90.011 51.1436L90.144 51.2767L90.2581 51.2387L90.3912 51.1056L90.5053 51.2197L90.5243 51.1817H90.7714L90.8285 51.1627L91.0376 50.9725L90.7334 50.1931L91.3037 50.7634L91.4558 50.7064L91.4748 50.6494H91.5319L91.5889 50.5353H91.6459L91.2277 50.117H91.5699L91.8931 49.3186L92.0072 49.2805L91.9501 49.2235H91.665L91.798 49.0904L91.684 48.9763H91.8931L92.1212 48.7482L92.1402 48.7102H92.2733L92.5015 48.1398L92.5585 48.2729L92.5775 48.2539L92.5965 48.1969H92.6155L92.6916 48.0638L92.6535 48.0258L92.7676 47.9117L92.7486 47.8927H92.6345V47.5885L92.8247 47.4364V47.1893L92.7106 47.0752L92.8247 47.0372V46.9041L92.7676 46.9611L92.5015 46.8471L92.4444 46.79L92.5015 46.809L92.1212 47.7596V46.9421L91.703 47.0942L92.1212 46.676V46.6189L92.2733 46.4668L92.0262 46.1436L92.5585 46.3718V46.3528L92.6916 46.2197H92.7296L92.8056 46.1056L92.8437 46.0866L92.8056 46.0296L92.5585 45.8775L92.3494 45.7444L92.2163 45.6113L92.0832 45.6874L91.8551 45.6113L91.703 45.4782L91.665 45.4973L91.5319 45.4402L90.4292 46.9041L91.2467 45.098L91.5319 44.9839L91.5509 45.003L91.5699 44.9839L91.722 45.041L91.9691 44.9649L92.0072 45.041L92.3304 45.098L92.1783 44.8509V44.7178L91.9691 44.5847V44.4706L91.817 44.4136L91.8741 44.2615L91.76 44.0334L91.6079 43.9763L91.3228 44.0904V43.7672L91.0186 43.6531V43.2159L91.0566 43.0828L90.9996 42.9497L91.1516 42.4935L91.3037 42.6455L91.3418 42.6075L91.2657 42.5315L91.5509 42.2463H91.5889V42.1893L91.6459 42.1703L91.4368 41.9611L91.8551 41.771L91.9121 41.809L91.9311 41.79H92.0452L92.0832 41.752H91.665L91.5129 41.5999L91.4748 41.5239L91.3988 41.5619V41.6379L91.3418 41.695L91.2277 41.9421L91.0756 42.0942L90.9235 42.0372L90.8665 42.0752H90.6003L90.3912 41.657V41.9041L90.2581 41.752L90.1821 41.8281V41.6189L89.9729 41.3908L89.9349 41.3528L89.8018 41.2767L89.5737 41.2007V40.9916L89.5167 40.7824L89.5737 40.7254V40.6684L89.6307 40.6113V40.4973L89.6878 40.4402V40.1551L90.106 40.2311H90.125L89.9729 40.079H90.1821L90.2961 39.9649L90.3532 39.6417L90.6383 39.4326H90.7144L90.7714 39.3756V39.2235L90.9045 39.0904L90.8665 39.0714L90.9235 39.0144L90.9805 38.8052H91.2657L91.3798 38.5201L91.684 38.9573L91.9881 39.1094V39.3946L91.8551 39.5277L91.798 39.6037V39.7368L92.2543 39.2805L92.1212 39.5847H92.2733L92.5015 39.3946L92.5965 39.4706H92.6345L92.9007 39.1094L93.0338 39.4326L93.0908 39.4516L93.3189 39.5277H93.357L93.414 39.4706H93.7942L93.6612 39.8509L93.6992 39.9269L93.5661 40.1551V40.2311H93.6041L94.1174 40.003H94.0794L93.9653 39.6608L94.0034 39.6227L93.9843 39.5847V39.3566L94.1364 39.2235L94.1935 39.0904L94.4216 39.0144H94.4786L94.4977 38.9954L94.5357 38.9763V38.9193L94.7638 38.6912L94.7068 38.6341L94.8589 38.5011V38.1589L94.7448 38.0448V37.7596L94.8018 37.4744V37.1893H94.9349L95.125 36.9992H95.1631L95.2011 36.8851L95.4102 36.8281L95.4292 36.771L95.4672 36.733V36.5619L95.5813 36.4478V36.3338L95.7524 36.1627L95.9045 36.2197L96.0566 36.1627L96.2277 36.3338V36.4668L96.2847 36.4859L96.3228 36.5619L96.3798 36.5049L96.4368 36.5619L96.4558 36.5429L96.5889 36.4859L96.6459 36.4288H96.76L96.8171 36.3718L96.8741 36.3148L96.741 36.1817L96.9882 36.0676V36.0486L96.8171 35.5923L97.1402 35.7254L97.1212 35.6684L97.1783 35.6113V35.4212L97.2923 35.3642V35.3071L97.4064 35.2311L97.4825 34.984L97.5205 34.9459L97.6345 34.5277L97.7106 34.3946V34.2615L97.8437 34.1284L97.9197 34.1474L97.9958 34.0334L97.9767 34.0144L97.9007 33.7292L98.0338 33.5961L97.9767 33.349L98.1098 33.2159V32.9307H98.5661L98.6041 32.8737V32.7216L98.7182 32.6075L98.6992 32.5885L98.6421 32.3224L98.6992 32.1132V31.9041H98.8132ZM41.5129 27.0372L41.5509 26.9992V26.9421C41.5319 26.9802 41.5319 26.9992 41.5129 27.0372ZM86.0946 58.6531L86.1326 58.6151L85.9996 58.5771L86.1326 58.7102V58.7672L86.1516 58.7862L86.2087 58.7482L86.3037 58.7862L86.3608 58.7672L86.0946 58.6531ZM82.4444 58.444V58.5961L82.5015 58.5771V58.5011L82.4444 58.444ZM85.6383 58.5201L85.6764 58.5581L85.6954 58.5391L85.6383 58.5201ZM95.4292 57.8737L95.3532 57.8927V58.0258H95.3912L95.4102 57.9878L95.4672 57.9307L95.4292 57.8737ZM96.703 57.3414H96.684L96.703 57.4174L96.76 57.4935L96.8361 57.5695V57.5315L96.703 57.3414ZM94.4596 56.2387H94.5357L94.5737 56.2007L94.6117 56.2577V56.0866L94.4596 56.2387ZM94.6307 56.2577L94.6497 56.2957V56.2767L94.6307 56.2577ZM94.4977 55.9345V55.9535L94.5357 55.9916L94.4977 55.9345ZM94.8969 54.5467L94.8399 54.5087L94.7258 54.2045L94.7448 54.1474L94.4977 54.0904L94.3836 53.9763L94.3266 53.9573V53.9954L94.1935 54.1855L94.2125 54.2235V54.5087L94.1555 54.7938L94.1174 54.8699L94.1745 55.003V55.2121L94.0414 55.2881L94.0034 55.4212L94.0224 55.4782L94.0794 55.6113V55.6874H94.2315V55.7444H94.3646L94.4977 55.9155L94.4596 55.8014V55.5923L94.4977 55.5353L94.4406 55.4022L94.7638 55.079L94.8779 54.8699L94.8969 54.8128L94.9159 54.6798L94.8969 54.5467ZM88.8703 52.9497L88.7182 53.0068L88.6612 52.9497L88.5471 53.0068L88.4901 52.9497L88.452 52.9687H88.2429L88.2239 52.9497H88.1669L88.1288 53.0638L87.9767 53.1969L87.9197 53.2539L87.9387 53.2919V53.5011L87.9767 53.5961V53.6151L88.0338 53.6722H88.1098L88.1669 53.7292H88.2999V53.6532L88.5281 53.5771V53.5201L88.7372 53.463L88.7182 53.406L88.7752 53.1779L88.8323 53.1208L88.8893 53.0068L88.9273 52.9687L88.8703 52.9497ZM88.0528 52.3033V52.4174H87.8437L87.8247 52.4744L87.8817 52.5315L87.9577 52.5885L88.0908 52.4554V52.4364L88.0528 52.3033ZM94.0984 49.8699L94.0414 49.7938L93.9843 49.8509L93.9273 49.9079L93.9083 49.9269L93.9653 49.9649L93.8323 50.1931L93.8132 50.2691L93.6802 50.4973L93.6231 50.6303V50.9725L93.6802 50.9916V51.1817H93.7942V51.3148L93.9083 51.1627L94.0224 51.0296L93.9653 50.9916L94.0224 50.6684L94.0414 50.5923L94.0224 50.3642L94.0984 50.2311L94.1364 50.003V49.8889H94.0984V49.8699ZM77.7106 51.0866V51.2387L77.7486 51.2197L77.7106 51.0866ZM91.8931 49.7938L91.665 50.022H91.779L91.9311 49.8699L91.8931 49.7938ZM92.1022 49.6227L92.1402 49.5657L91.9881 49.6988L92.1593 49.6417L92.1022 49.6227ZM98.2999 44.5847L98.414 44.4706H98.395V44.3566H98.319L98.1859 44.1094H98.0718L97.9577 43.9763H97.9007L97.8817 44.0334L97.7676 44.0904L97.8817 44.1855L97.9958 44.3946L98.0718 44.5657V44.7748L98.0148 44.9079L98.338 45.2121H98.357L98.319 45.1551L98.376 44.8319L98.2999 44.5847ZM36.3988 44.1665L36.3798 44.1474V43.9193L36.3228 43.9003L36.1136 43.5961L36.1897 43.349L36.2277 43.3109L36.1707 43.2539L36.0566 43.0638L36.0186 43.0258H35.9996C35.9235 43.6532 35.8665 44.2805 35.8285 44.9269L36.1517 44.7368L36.1897 44.6988L36.1326 44.6417L36.2657 44.5087L36.3988 44.1665ZM47.5965 44.7368L47.5585 44.7178L47.4254 44.7938H47.5775L47.6536 44.7368H47.5965ZM98.9273 43.8243L98.9083 43.8813L98.9653 43.9954L99.0224 43.8623L99.0604 43.8243H98.9273ZM99.6117 43.5961L99.5357 43.5391H99.5167L99.4596 43.5771L99.4406 43.6912L99.5547 43.7102L99.5927 43.7292V43.7102L99.6497 43.6531V43.6151L99.6117 43.5961ZM101.095 42.8357V42.8737L101.114 42.8547L101.095 42.8357ZM102.501 39.6227V39.5467L102.463 39.4136L102.482 39.3566L102.425 39.1284L102.387 39.0714H102.33L102.254 38.9193L102.216 38.7102L102.178 38.6532L101.912 38.387L101.684 38.5391L101.627 38.4821V38.5391H101.646L101.722 38.7292L101.684 38.8623L101.798 39.1094L101.855 39.4136L101.798 39.6037L101.855 39.8319L101.741 40.1931L101.817 40.3452L101.665 40.5923L101.589 40.6494L101.57 40.7064V40.9155L101.513 41.0296L101.475 41.2387L101.285 41.3528L101 41.5619L100.943 41.5809L100.885 41.733L100.6 41.5999V41.714L100.486 41.8661V41.9421L100.429 41.9992L100.467 42.0372V42.0752H100.619L100.429 42.3414L100.486 42.3984L100.125 42.6265L100.049 42.5695L99.992 42.5885H99.7638L99.7448 42.4744L99.5737 42.5315L99.3836 42.5885H99.2695L99.1364 42.6265L98.9273 42.7026L98.8513 42.6265L98.7752 42.6836L98.7372 42.8167L98.6802 42.8737V42.8927L98.433 43.1398L98.376 43.1969L98.338 43.2349L98.2809 43.368L98.1479 43.444V43.463L98.357 43.406L98.414 43.425V43.349L98.4901 43.1589H98.6992L98.7562 43.1969L98.8132 43.1779L99.0224 43.1589L99.1745 43.1018H99.2315L99.3646 43.0448V43.0068L99.6117 42.8737L99.7448 42.8167H100.068L100.277 42.9497V43.1589L100.22 43.2729V43.387L100.448 43.6151L100.391 43.6341L100.429 43.7862L100.467 43.7292V43.6531L100.524 43.5961V43.5391L100.638 43.349L100.676 43.33L100.638 43.3109L100.505 43.1779L100.581 42.8927L100.714 42.7596H101.247L101.133 42.8737L101.152 42.8927L101.38 42.9307V42.7216L101.627 42.5885H101.779L101.817 42.5505L101.874 42.5125L102.007 42.1893L102.197 42.1322H102.444L102.33 41.9801V41.3528L102.387 41.1246L102.273 40.8395L102.14 40.6113V40.4592L102.178 40.1741L102.406 40.06V40.003L102.387 39.9269V39.6988L102.501 39.6227ZM38.0148 43.5011L38.1288 43.1589H38.0908L38.0718 43.1398L38.0148 43.1969H37.7486L37.5395 43.2539L37.3113 43.2159L37.3684 43.2729L37.5015 43.33L37.5585 43.387L37.7106 43.444L37.8247 43.406L38.0148 43.5961L38.0528 43.6531L38.1098 43.6912L38.1288 43.6722V43.6341L38.0148 43.5011ZM95.9805 42.4744L95.9615 42.3604L95.6954 42.6265V42.0942L95.6574 41.809L95.5243 41.676V41.4098L95.2771 41.0866L95.049 40.8585L94.4786 41.0866L94.6117 41.3148L94.7638 41.4668L94.7068 41.5239L94.7258 41.5429L94.9349 41.9992L94.6307 41.9421L94.6688 41.9992V42.0372L94.9349 42.4554L94.7258 42.5885V42.7976L94.6688 42.8547L94.7258 43.0258V42.8927L94.992 43.1589L95.2581 42.9307L95.3912 42.8737L95.4292 42.8167H95.6764L95.8285 42.6646H95.8855L95.8285 42.6075L95.9805 42.4744ZM41.6459 42.4935L41.722 42.5695L41.76 42.4935H41.6459ZM41.798 42.4554L41.779 42.4935L41.798 42.4554ZM42.0642 42.6265L41.9311 42.4935L42.1593 42.4174L42.1212 42.3984L41.8931 42.4744L41.8361 42.4364L41.798 42.4744L41.9691 42.8927L42.0452 42.9307L42.1212 42.9878L42.0642 42.8547V42.6265ZM102.463 42.3984V42.4364L102.501 42.3984H102.463ZM38.8893 42.3033V42.3604L38.9463 42.3224V42.2463L38.8893 42.3033ZM102.482 42.0752L102.501 42.1893L102.539 42.1513L102.482 42.0752ZM39.1174 41.714H38.9653L38.9273 41.676L38.9653 41.809L39.0224 41.9421V41.9611H38.9844V42.0182L39.0984 41.9041H39.1174L39.1745 41.771L39.1174 41.714ZM39.0034 40.4402L38.8513 40.4022H38.6231L38.5091 40.1551V40.079L38.471 40.06H38.2239L38.1669 40.003L38.0338 39.9459L37.9767 39.8128L37.8627 39.7368L37.6155 39.4897L37.5585 39.2995V39.2235L37.5015 39.1665V39.0144L37.2163 38.6722L37.1783 38.6151L37.1212 38.5961L36.8361 38.463C36.741 38.8433 36.665 39.2045 36.5889 39.5847L36.6459 39.6988L36.684 39.7368L36.8931 40.022L37.0452 40.136L37.3304 40.2501V40.2691L37.3494 40.2501L37.5585 40.3071H37.7296L37.8437 40.5163L38.0908 40.6303H38.2999L38.414 40.8585V40.8965H38.452L38.4901 41.0106L38.5091 40.9916L38.8132 41.1246L38.8513 41.3528V41.2197L39.0034 41.1627V40.8395L39.0604 40.7824L39.1174 40.6684L39.2315 40.5543L39.0034 40.4402ZM94.9729 40.7824L94.7638 40.3642L94.7448 40.3071L94.3456 40.098L94.3075 40.041L93.7372 40.6113H93.6802V40.7444L93.7182 40.7634L93.8703 40.6113L94.0984 40.8395H94.992L94.9729 40.7824ZM91.741 39.7748L91.76 39.8128L91.798 39.7748H91.741ZM47.5395 37.3984L47.2923 37.6455L47.2353 37.6836L47.3684 37.6265L47.5965 37.4744L47.5395 37.3984ZM101.209 37.3414L101.228 37.3794L101.266 37.3604L101.209 37.3414ZM47.1783 37.1893L47.0642 37.2273L47.2923 37.3414L47.3494 37.2083V37.0372L47.1783 37.1893ZM103.129 35.9725L102.901 35.8585V35.8014L102.844 35.8395H102.444L102.368 35.7254H102.254L102.026 35.6113L101.988 35.5543H101.874L101.76 35.4022L101.627 35.3452L101.361 35.079L101.323 34.9649H101.247L101.133 34.9079L101.266 35.136L101.323 35.3071L101.361 35.5353L101.342 35.5923L101.361 35.6494L101.494 36.0106H101.361L101.38 36.0676L101.418 36.0866L101.608 36.3528L101.475 36.4098L101.456 36.4859L101.304 36.6379L101.171 36.5809V36.6379L101.19 36.6189L101.361 36.752L101.399 36.714L101.57 36.5809H101.836L101.855 36.5999L102.007 36.5429L102.178 36.79L102.254 36.8471L102.387 36.9041L102.425 36.752L102.501 36.5049L102.692 36.4098L102.882 36.2957L102.901 36.3148L103.148 36.2007V36.0676L103.129 35.9725ZM101 33.0068L100.943 32.9497H100.866L100.79 32.8357L100.809 32.8737V32.9117L100.962 33.1018L100.924 33.2919L101.057 33.2349V33.1018L101 33.0068ZM100.79 30.6684L100.771 30.6303L100.638 30.5923V30.3832L100.505 30.2501L100.372 29.9649L100.315 29.8509L100.106 29.5847L100.049 29.4326L99.9729 29.3566V29.2995H99.7828L99.7068 29.0524V29.0334L99.5547 28.8813L99.4977 28.7482L99.4216 28.6341V28.0638L99.3646 28.0448L99.1555 27.8357V27.7786L99.0984 27.7216V27.5315L99.0604 27.5125L99.0034 27.3984L98.9844 27.3794V27.5125L98.7562 27.5695H98.7182L98.7372 27.6836L98.8132 27.7596L98.9653 27.9878V28.2159L98.9844 28.2349V28.463L99.0984 28.7292L99.1174 28.7862L99.2505 28.8433L99.3266 29.0904L99.3646 29.1475L99.4977 29.2045L99.7068 29.4706V29.8129L99.7638 29.9459V30.003L99.992 30.2311L99.9349 30.3452V30.3642L100.049 30.4973L100.106 30.6303L100.125 30.7634L100.182 30.9725V31.3148L100.296 31.5049L100.258 31.6379V31.657L100.315 31.695L100.543 31.8851V31.8281L100.429 31.695L100.486 31.4478V31.4098L100.41 31.2197L100.467 31.0866L100.315 30.8395H100.809L100.828 30.8585L100.847 30.8395H100.905L100.79 30.6684ZM41.3228 27.9878V28.0448H41.3798L41.3228 27.9878ZM41.5129 27.0372C41.4939 27.0562 41.4939 27.0752 41.4748 27.0942L41.5509 27.0182V26.9611C41.5319 26.9802 41.5319 26.9992 41.5129 27.0372ZM46.703 22.7406L46.684 22.7026H46.5319L46.5129 22.7216L46.5319 22.7406L46.6079 22.7786L46.741 22.9117L46.817 22.8737H46.8361L46.703 22.7406ZM50.8285 18.5201H50.7714L50.7334 18.5961V18.7672L50.8094 18.9003L50.9045 18.8813L50.9615 18.8433L51.0186 18.7672V18.6912L51.0376 18.6341L50.8285 18.5201ZM53.5661 16.5049L53.433 16.3528L53.2999 16.2387L53.0718 16.1817H52.8627C52.7866 16.2197 52.7106 16.2767 52.6536 16.3148L52.7106 16.3718L52.7866 16.2957L53.2049 16.4478L53.2239 16.4859L53.357 16.3528L53.433 16.5619L53.5471 16.5999L53.6041 16.5429L53.5661 16.5049ZM52.4444 16.4668H52.4064V16.5239L52.4444 16.5619L52.5015 16.5429V16.3908L52.4444 16.4668Z" fill="url(#paint11_radial)"/>
<path opacity="0.3" d="M73.2622 38.4788C91.3007 38.4788 105.924 33.9591 105.924 28.3837C105.924 22.8084 91.3007 18.2887 73.2622 18.2887C55.2237 18.2887 40.6006 22.8084 40.6006 28.3837C40.6006 33.9591 55.2237 38.4788 73.2622 38.4788Z" stroke="url(#paint12_linear)" stroke-miterlimit="10" stroke-dasharray="1 1"/>
<path opacity="0.3" d="M73.3759 32.5273C89.388 32.5273 102.368 28.5183 102.368 23.5729C102.368 18.6275 89.388 14.6185 73.3759 14.6185C57.3639 14.6185 44.3835 18.6275 44.3835 23.5729C44.3835 28.5183 57.3639 32.5273 73.3759 32.5273Z" stroke="url(#paint13_linear)" stroke-miterlimit="10" stroke-dasharray="1 1"/>
<path opacity="0.4" d="M72.9959 27.4129C85.3121 27.4129 95.2963 24.3317 95.2963 20.5308C95.2963 16.7299 85.3121 13.6487 72.9959 13.6487C60.6798 13.6487 50.6956 16.7299 50.6956 20.5308C50.6956 24.3317 60.6798 27.4129 72.9959 27.4129Z" stroke="url(#paint14_linear)" stroke-miterlimit="10" stroke-dasharray="1 1"/>
<path opacity="0.4" d="M73.4141 21.1785C82.2653 21.1785 89.4407 18.9569 89.4407 16.2165C89.4407 13.4761 82.2653 11.2545 73.4141 11.2545C64.5628 11.2545 57.3875 13.4761 57.3875 16.2165C57.3875 18.9569 64.5628 21.1785 73.4141 21.1785Z" stroke="url(#paint15_linear)" stroke-miterlimit="10" stroke-dasharray="1 1"/>
<path opacity="0.3" d="M73.0719 44.1823C91.4569 44.1823 106.361 39.5775 106.361 33.8971C106.361 28.2168 91.4569 23.6119 73.0719 23.6119C54.6869 23.6119 39.783 28.2168 39.783 33.8971C39.783 39.5775 54.6869 44.1823 73.0719 44.1823Z" stroke="url(#paint16_linear)" stroke-miterlimit="10" stroke-dasharray="1 1"/>
<path opacity="0.1" d="M109.004 37.7941C109.004 44.1629 92.2735 49.334 71.6271 49.334C50.9808 49.334 34.2507 44.1629 34.2507 37.7941C34.2507 33.5735 41.5891 29.8853 52.5207 27.8701C43.6804 29.7522 37.8629 32.8891 37.8629 36.4633C37.8629 42.2237 52.977 46.8815 71.6081 46.8815C90.2393 46.8815 105.353 42.2237 105.353 36.4633C105.353 32.8891 99.5549 29.7522 90.6956 27.8701C101.684 29.8853 109.004 33.5735 109.004 37.7941Z" fill="url(#paint17_linear)"/>
<path opacity="0.06" d="M101.969 30.5318C101.969 35.7219 88.3569 39.9234 71.5508 39.9234C54.7447 39.9234 41.1326 35.7219 41.1326 30.5318C41.1326 27.0907 47.1022 24.0869 56.0185 22.4519C48.8132 23.9728 44.0983 26.5394 44.0983 29.4481C44.0983 34.1249 56.3987 37.9272 71.5698 37.9272C86.7409 37.9272 99.0413 34.1249 99.0413 29.4481C99.0413 26.5394 94.3265 23.9728 87.1212 22.4519C95.9995 24.0869 101.969 27.0907 101.969 30.5318Z" fill="url(#paint18_linear)"/>
<path opacity="0.3" d="M72.882 51.4814C91.9075 51.4814 107.331 46.7148 107.331 40.835C107.331 34.9552 91.9075 30.1886 72.882 30.1886C53.8565 30.1886 38.4333 34.9552 38.4333 40.835C38.4333 46.7148 53.8565 51.4814 72.882 51.4814Z" stroke="url(#paint19_linear)" stroke-miterlimit="10" stroke-dasharray="1 1"/>
<path opacity="0.2" d="M33.4904 31.1771C34.9709 31.1771 36.171 29.977 36.171 28.4965C36.171 27.0161 34.9709 25.8159 33.4904 25.8159C32.01 25.8159 30.8098 27.0161 30.8098 28.4965C30.8098 29.977 32.01 31.1771 33.4904 31.1771Z" fill="url(#paint20_linear)"/>
<path opacity="0.2" d="M56.1138 50.4741C51.7032 49.8087 48.4332 45.4171 48.8515 40.7213C49.2697 36.0255 53.2051 32.7175 57.6157 33.3829C62.0264 34.0483 65.2964 38.4399 64.8781 43.1357C64.4599 47.8506 60.5245 51.1395 56.1138 50.4741Z" fill="url(#paint21_linear)"/>
</g>
<defs>
<linearGradient id="paint0_linear" x1="13.5719" y1="84.1314" x2="127.488" y2="84.1314" gradientUnits="userSpaceOnUse">
<stop stop-color="#E7EFF5"/>
<stop offset="0.2574" stop-color="#C3C5D2"/>
<stop offset="0.3352" stop-color="#C6C8D5"/>
<stop offset="0.3997" stop-color="#CED3DD"/>
<stop offset="0.4592" stop-color="#DDE4EC"/>
<stop offset="0.4655" stop-color="#DFE6EE"/>
<stop offset="0.5693" stop-color="#98A5B5"/>
<stop offset="0.995" stop-color="#7E8EA0"/>
</linearGradient>
<linearGradient id="paint1_linear" x1="5.91839" y1="84.4439" x2="128.604" y2="84.4439" gradientUnits="userSpaceOnUse">
<stop stop-color="#475375"/>
<stop offset="0.483607" stop-color="#2E364F"/>
<stop offset="0.532513" stop-color="#2E374F"/>
<stop offset="0.593645" stop-color="#27293B"/>
<stop offset="1" stop-color="#2D3146"/>
</linearGradient>
<linearGradient id="paint2_linear" x1="31.9204" y1="54.9195" x2="99.8618" y2="16.479" gradientUnits="userSpaceOnUse">
<stop stop-color="#596482"/>
<stop offset="0.995" stop-color="#2A3D6B"/>
</linearGradient>
<linearGradient id="paint3_linear" x1="31.9175" y1="52.9111" x2="99.8588" y2="14.4706" gradientUnits="userSpaceOnUse">
<stop stop-color="#687599"/>
<stop offset="0.995" stop-color="#49587E"/>
</linearGradient>
<linearGradient id="paint4_linear" x1="12.1949" y1="63.4799" x2="53.8689" y2="58.5073" gradientUnits="userSpaceOnUse">
<stop offset="1" stop-color="#24DEDE"/>
</linearGradient>
<linearGradient id="paint5_linear" x1="12.3472" y1="71.9206" x2="54.0211" y2="66.9481" gradientUnits="userSpaceOnUse">
<stop offset="1" stop-color="#24DEDE"/>
</linearGradient>
<linearGradient id="paint6_linear" x1="12.5206" y1="80.1923" x2="54.1676" y2="75.2037" gradientUnits="userSpaceOnUse">
<stop offset="1" stop-color="#24DEDE"/>
</linearGradient>
<linearGradient id="paint7_linear" x1="12.309" y1="87.6808" x2="53.9829" y2="82.7082" gradientUnits="userSpaceOnUse">
<stop offset="1" stop-color="#24DEDE"/>
</linearGradient>
<linearGradient id="paint8_linear" x1="12.4612" y1="96.123" x2="54.1352" y2="91.1505" gradientUnits="userSpaceOnUse">
<stop offset="1" stop-color="#24DEDE"/>
</linearGradient>
<linearGradient id="paint9_linear" x1="24.681" y1="104.235" x2="42.5199" y2="127.268" gradientUnits="userSpaceOnUse">
<stop stop-color="#24DEDE"/>
</linearGradient>
<linearGradient id="paint10_linear" x1="37.5" y1="19.5" x2="98.5" y2="51" gradientUnits="userSpaceOnUse">
<stop stop-color="#7D8DAD"/>
<stop offset="0.1451" stop-color="#7B8CAB"/>
<stop offset="0.265862" stop-color="#7B8CAB"/>
<stop offset="0.5151" stop-color="#6A7997"/>
<stop offset="0.893031" stop-color="#4E5976"/>
</linearGradient>
<radialGradient id="paint11_radial" cx="0" cy="0" r="1" gradientUnits="userSpaceOnUse" gradientTransform="translate(70.1344 38.6635) scale(33.0748 33.0781)">
<stop offset="0.155" stop-color="#F3F5F7" stop-opacity="0.9"/>
<stop offset="0.7377" stop-color="#D5D9DF" stop-opacity="0.3"/>
<stop offset="1" stop-color="#D4D8DE" stop-opacity="0"/>
</radialGradient>
<linearGradient id="paint12_linear" x1="73.1213" y1="38.5791" x2="73.3931" y2="18.199" gradientUnits="userSpaceOnUse">
<stop stop-color="#DFE6EE"/>
<stop offset="0.995" stop-color="#ABB6C3" stop-opacity="0"/>
</linearGradient>
<linearGradient id="paint13_linear" x1="73.2628" y1="32.631" x2="73.5044" y2="14.5127" gradientUnits="userSpaceOnUse">
<stop stop-color="#DFE6EE"/>
<stop offset="0.995" stop-color="#ABB6C3" stop-opacity="0"/>
</linearGradient>
<linearGradient id="paint14_linear" x1="72.9105" y1="27.5154" x2="73.0968" y2="13.5441" gradientUnits="userSpaceOnUse">
<stop stop-color="#DFE6EE"/>
<stop offset="0.995" stop-color="#ABB6C3" stop-opacity="0"/>
</linearGradient>
<linearGradient id="paint15_linear" x1="73.348" y1="21.2731" x2="73.4827" y2="11.1704" gradientUnits="userSpaceOnUse">
<stop stop-color="#DFE6EE"/>
<stop offset="0.995" stop-color="#ABB6C3" stop-opacity="0"/>
</linearGradient>
<linearGradient id="paint16_linear" x1="72.9285" y1="44.285" x2="73.2054" y2="23.5198" gradientUnits="userSpaceOnUse">
<stop stop-color="#DFE6EE"/>
<stop offset="0.995" stop-color="#ABB6C3" stop-opacity="0"/>
</linearGradient>
<linearGradient id="paint17_linear" x1="71.4876" y1="49.3501" x2="71.7774" y2="27.6226" gradientUnits="userSpaceOnUse">
<stop stop-color="#DFE6EE"/>
<stop offset="0.995" stop-color="#ABB6C3" stop-opacity="0"/>
</linearGradient>
<linearGradient id="paint18_linear" x1="71.4209" y1="39.9378" x2="71.6568" y2="22.2514" gradientUnits="userSpaceOnUse">
<stop stop-color="#DFE6EE"/>
<stop offset="0.995" stop-color="#ABB6C3" stop-opacity="0"/>
</linearGradient>
<linearGradient id="paint19_linear" x1="72.7338" y1="51.5831" x2="73.0203" y2="30.0974" gradientUnits="userSpaceOnUse">
<stop stop-color="#DFE6EE"/>
<stop offset="0.995" stop-color="#ABB6C3" stop-opacity="0"/>
</linearGradient>
<linearGradient id="paint20_linear" x1="33.3601" y1="25.9184" x2="33.6162" y2="31.2672" gradientUnits="userSpaceOnUse">
<stop stop-color="#DDE5EC"/>
<stop offset="0.1507" stop-color="#C8D9E3" stop-opacity="0.8404"/>
<stop offset="0.3912" stop-color="#A6C1CB" stop-opacity="0.5856"/>
<stop offset="0.578125" stop-color="#91B0B9" stop-opacity="0.387662"/>
<stop offset="0.6475" stop-color="#50DBFF" stop-opacity="0.3142"/>
<stop offset="0.9442" stop-color="#90AEB5" stop-opacity="0"/>
</linearGradient>
<linearGradient id="paint21_linear" x1="57.7223" y1="33.326" x2="55.576" y2="46.3175" gradientUnits="userSpaceOnUse">
<stop stop-color="white" stop-opacity="0.8"/>
<stop offset="1" stop-color="white" stop-opacity="0"/>
</linearGradient>
<clipPath id="clip0">
<rect x="6" width="128.967" height="140" fill="white"/>
</clipPath>
</defs>
</svg>
