<svg width="140" height="140" viewBox="0 0 140 140" fill="none" xmlns="http://www.w3.org/2000/svg">
<g clip-path="url(#clip0)">
<path d="M6.08447 28.2627V95.5154C6.08447 98.3873 7.58799 101.04 10.0206 102.526L62.6098 137.496C68.0833 140.824 74.9251 140.824 80.3986 137.496L130.927 102.526C133.359 101.023 134.863 98.3704 134.863 95.5154V28.8878L6.08447 28.2627Z" fill="url(#paint0_linear)"/>
<path d="M6.08447 28.8876V95.5152C6.08447 98.3871 7.58799 101.039 10.0206 102.526L62.6098 137.495C68.0833 140.823 74.9251 140.823 80.3986 137.495L130.927 102.526C133.359 101.022 134.863 98.3702 134.863 95.5152V28.8876H6.08447Z" fill="url(#paint1_linear)"/>
<path d="M132.248 36.3528L80.7396 67.8421C75.0634 71.3052 67.9175 71.3052 62.2413 67.8421L7.86137 34.6127C5.17532 32.9741 5.44561 28.9703 8.35128 27.7202L65.6538 3.19099C69.3872 1.603 73.5937 1.603 77.3102 3.19099L131.521 26.3856C135.728 28.1932 136.15 33.9877 132.248 36.3528Z" fill="url(#paint2_linear)"/>
<path d="M132.245 34.3443L80.7366 65.8337C75.0605 69.2968 67.9145 69.2968 62.2384 65.8337L7.85844 32.6043C5.17239 30.9657 5.44268 26.9619 8.34835 25.7118L65.6508 1.18256C69.3843 -0.405418 73.5907 -0.405418 77.3073 1.18256L131.518 24.3772C135.725 26.1848 136.147 31.9793 132.245 34.3443Z" fill="url(#paint3_linear)"/>
<path d="M93.7444 114.377C93.7444 114.213 93.8246 114.06 93.959 113.966L94.3442 113.699C94.6758 113.468 95.1296 113.705 95.1296 114.109V119.26C95.1296 119.424 95.0495 119.577 94.915 119.671L94.5298 119.938C94.1982 120.169 93.7444 119.932 93.7444 119.528V114.377ZM96.9372 117.358C96.9372 117.76 97.3873 117.998 97.7192 117.771L98.1045 117.508C98.2409 117.415 98.3225 117.26 98.3225 117.095V111.913C98.3225 111.509 97.8686 111.272 97.5371 111.502L97.1518 111.77C97.0174 111.864 96.9372 112.017 96.9372 112.181V117.358ZM100.13 115.162C100.13 115.564 100.58 115.802 100.912 115.575L101.297 115.312C101.434 115.219 101.515 115.064 101.515 114.899V109.683C101.515 109.279 101.062 109.042 100.73 109.273L100.345 109.54C100.21 109.634 100.13 109.787 100.13 109.951V115.162ZM103.323 113C103.323 113.402 103.773 113.639 104.105 113.413L104.49 113.15C104.627 113.056 104.708 112.902 104.708 112.737V107.487C104.708 107.083 104.254 106.846 103.923 107.076L103.538 107.344C103.403 107.438 103.323 107.591 103.323 107.755V113ZM106.499 110.804C106.499 111.205 106.949 111.443 107.281 111.216L107.666 110.953C107.803 110.86 107.884 110.706 107.884 110.54V105.257C107.884 104.853 107.43 104.616 107.099 104.846L106.714 105.114C106.579 105.208 106.499 105.361 106.499 105.525V110.804ZM109.692 108.607C109.692 109.009 110.142 109.247 110.474 109.02L110.859 108.757C110.995 108.664 111.077 108.51 111.077 108.344V103.027C111.077 102.623 110.623 102.386 110.292 102.617L109.906 102.884C109.772 102.978 109.692 103.131 109.692 103.295V108.607ZM112.885 106.445C112.885 106.847 113.335 107.085 113.667 106.858L114.052 106.595C114.188 106.502 114.27 106.347 114.27 106.182V100.831C114.27 100.427 113.816 100.19 113.485 100.42L113.099 100.688C112.965 100.782 112.885 100.935 112.885 101.099V106.445ZM116.077 104.266C116.077 104.668 116.528 104.905 116.859 104.679L117.245 104.416C117.381 104.322 117.463 104.168 117.463 104.003V98.601C117.463 98.1973 117.009 97.96 116.677 98.1905L116.292 98.4583C116.158 98.5517 116.077 98.7051 116.077 98.8688V104.266ZM119.253 102.07C119.253 102.472 119.704 102.709 120.035 102.483L120.421 102.219C120.557 102.126 120.639 101.972 120.639 101.807V96.388C120.639 95.9842 120.185 95.747 119.853 95.9774L119.468 96.2452C119.334 96.3387 119.253 96.492 119.253 96.6558V102.07ZM122.664 94.0325C122.528 94.1257 122.446 94.2802 122.446 94.4454V99.8905C122.446 100.292 122.896 100.53 123.228 100.303L123.614 100.04C123.75 99.9471 123.832 99.7925 123.832 99.6273V94.1823C123.832 93.7804 123.381 93.5427 123.05 93.7694L122.664 94.0325Z" fill="#2FAAAF"/>
<path d="M54.6033 132.38L19.1135 108.781L18.8857 72L54.497 92.9567L54.6033 132.38Z" fill="url(#paint4_linear)"/>
<path d="M21.027 110.087L19.1135 108.781L18.8857 72L21.027 73.2604V110.087Z" fill="url(#paint5_linear)"/>
<path d="M24.8693 82.5231L49.1366 96.8587C49.3796 96.965 49.6377 96.7979 49.6225 96.5246L49.5618 94.0948C49.5618 93.9278 49.4555 93.7759 49.3036 93.7L25.0515 79.3644C24.8086 79.2581 24.5504 79.4251 24.5656 79.6985L24.6263 82.1282C24.6111 82.2953 24.7174 82.4472 24.8693 82.5231Z" fill="url(#paint6_linear)"/>
<path d="M25.0212 89.1898L49.2884 103.525C49.5314 103.632 49.7896 103.465 49.7744 103.191L49.7136 100.762C49.7136 100.594 49.6073 100.443 49.4555 100.367L25.2034 86.0463C24.9604 85.94 24.7022 86.107 24.7174 86.3804L24.7782 88.8101C24.763 88.962 24.8693 89.1139 25.0212 89.1898Z" fill="url(#paint7_linear)"/>
<path d="M25.173 95.7646L49.4403 110.009C49.6833 110.115 49.9414 109.948 49.9262 109.675L49.8655 107.245C49.8655 107.078 49.7592 106.926 49.6073 106.85L25.3552 92.6211C25.1123 92.5148 24.8541 92.6818 24.8693 92.9552L24.93 95.385C24.9148 95.5368 25.0212 95.7039 25.173 95.7646Z" fill="url(#paint8_linear)"/>
<path d="M25.0212 101.642L49.2884 115.978C49.5314 116.084 49.7896 115.917 49.7744 115.644L49.7136 113.214C49.7136 113.047 49.6073 112.895 49.4555 112.819L25.2034 98.4988C24.9604 98.3925 24.7022 98.5595 24.7174 98.8329L24.7782 101.263C24.763 101.415 24.8693 101.566 25.0212 101.642Z" fill="url(#paint9_linear)"/>
<path d="M25.173 108.309L49.4403 122.644C49.6833 122.751 49.9414 122.584 49.9262 122.31L49.8655 119.88C49.8655 119.713 49.7592 119.562 49.6073 119.486L25.3552 105.165C25.1123 105.059 24.8541 105.226 24.8693 105.499L24.93 107.929C24.9148 108.081 25.0212 108.248 25.173 108.309Z" fill="url(#paint10_linear)"/>
<path d="M37.5803 74.3829L16.5628 61.8848C14.862 60.837 14.7405 59.774 14.7405 58.3465L14.6646 53.001C14.6646 52.1658 15.3176 51.4824 16.1376 51.4824C16.3958 51.4824 16.6691 51.5584 16.8969 51.695L38.294 64.5272C39.3267 65.1802 39.9645 66.3495 39.9645 67.61V73.0769C39.9645 74.5652 39.1444 75.3245 37.5803 74.3829Z" fill="url(#paint11_linear)"/>
<path d="M46.1147 71.6504L46.1755 74.7331L51.4754 78.0437L51.4299 74.9609L46.1147 71.6504Z" fill="black"/>
<path d="M46.1147 71.6504L46.1299 72.5919L51.445 75.9025L51.4299 74.9609L46.1147 71.6504Z" fill="#8A99CD"/>
<path d="M54.0112 76.2812L54.072 79.364L59.3719 82.6745L59.3263 79.5918L54.0112 76.2812Z" fill="black"/>
<path d="M54.0112 76.2812L54.0264 77.2228L59.3415 80.5334L59.3263 79.5918L54.0112 76.2812Z" fill="#8A99CD"/>
<path d="M121.453 35.4535L78.8559 61.4824C74.1635 64.3374 68.2561 64.3374 63.5484 61.4824L18.5522 33.9957C16.3199 32.6441 16.5629 29.3336 18.9622 28.3009L66.373 8.01237C69.4558 6.69119 72.9486 6.69119 76.0162 8.01237L120.861 27.2075C124.353 28.6957 124.687 33.4793 121.453 35.4535Z" fill="url(#paint12_linear)" stroke="#2ED8CF" stroke-miterlimit="10"/>
<g opacity="0.91">
<path d="M68.9756 43.7444C70.9685 46.8306 68.5202 48.8331 67.8611 49.3699C67.4215 49.7328 66.9364 50.0939 66.3918 50.4224C63.1737 52.2886 59.9327 52.3911 57.6892 52.2435C56.7647 52.1773 56.2517 52.0814 54.5913 51.7892L55.0918 48.2828C55.2581 48.3044 56.0583 48.4418 56.7254 48.4828C58.9379 48.6444 61.1448 48.1676 62.4973 47.3841C62.6841 47.2697 63.2282 46.9565 63.5493 46.513C63.6287 46.4249 64.623 45.0804 62.9785 43.9833C60.9933 42.6603 58.7734 43.8661 57.0456 44.5287C56.1654 44.8897 55.1953 45.2169 54.1966 45.4974C52.6306 45.9079 50.9648 46.1473 48.8824 45.7627C48.4751 45.6862 47.6002 45.5155 46.5982 45.0968C46.2247 44.9304 45.3884 44.5484 44.4997 43.9517C44.3223 43.8233 43.6419 43.341 43.0969 42.8944C41.9059 41.8604 41.2297 40.8768 41.0292 39.7748C40.8153 38.6268 41.1566 36.8771 43.8156 35.3235C44.7951 34.7535 47.1043 33.5968 51.2972 33.6375C52.3302 33.6471 53.0271 33.7045 55.0108 33.8877L54.8698 37.5296C52.8131 37.2676 51.5245 37.1873 49.7781 37.5452C49.5166 37.6263 48.6428 37.8204 47.9587 38.2195C46.3108 39.1739 46.8375 40.486 47.8453 41.1482C48.423 41.5353 49.0562 41.6662 49.3282 41.7071C50.6729 41.9111 51.5444 41.3826 53.3644 40.6932C54.4594 40.2796 55.5976 39.9286 56.7807 39.5944C57.5039 39.3641 60.151 38.5091 63.6117 39.7981C64.1206 40.0002 65.1524 40.4353 66.264 41.1622C66.8575 41.5347 68.0998 42.4187 68.9756 43.7444Z" fill="white"/>
<path d="M68.9756 43.7444C70.9685 46.8306 68.5202 48.8331 67.8611 49.3699C67.4215 49.7328 66.9364 50.0939 66.3918 50.4224C63.1737 52.2886 59.9327 52.3911 57.6892 52.2435C56.7647 52.1773 56.2517 52.0814 54.5913 51.7892L55.0918 48.2828C55.2581 48.3044 56.0583 48.4418 56.7254 48.4828C58.9379 48.6444 61.1448 48.1676 62.4973 47.3841C62.6841 47.2697 63.2282 46.9565 63.5493 46.513C63.6287 46.4249 64.623 45.0804 62.9785 43.9833C60.9933 42.6603 58.7734 43.8661 57.0456 44.5287C56.1654 44.8897 55.1953 45.2169 54.1966 45.4974C52.6306 45.9079 50.9648 46.1473 48.8824 45.7627C48.4751 45.6862 47.6002 45.5155 46.5982 45.0968C46.2247 44.9304 45.3884 44.5484 44.4997 43.9517C44.3223 43.8233 43.6419 43.341 43.0969 42.8944C41.9059 41.8604 41.2297 40.8768 41.0292 39.7748C40.8153 38.6268 41.1566 36.8771 43.8156 35.3235C44.7951 34.7535 47.1043 33.5968 51.2972 33.6375C52.3302 33.6471 53.0271 33.7045 55.0108 33.8877L54.8698 37.5296C52.8131 37.2676 51.5245 37.1873 49.7781 37.5452C49.5166 37.6263 48.6428 37.8204 47.9587 38.2195C46.3108 39.1739 46.8375 40.486 47.8453 41.1482C48.423 41.5353 49.0562 41.6662 49.3282 41.7071C50.6729 41.9111 51.5444 41.3826 53.3644 40.6932C54.4594 40.2796 55.5976 39.9286 56.7807 39.5944C57.5039 39.3641 60.151 38.5091 63.6117 39.7981C64.1206 40.0002 65.1524 40.4353 66.264 41.1622C66.8575 41.5347 68.0998 42.4187 68.9756 43.7444Z" fill="url(#paint13_linear)"/>
</g>
<g opacity="0.91">
<path d="M85.4317 38.713L81.3513 36.944L75.6447 40.2793L78.1864 42.9309L74.0658 45.3397L59.1376 28.1813L63.18 25.8302L89.5517 36.3193L85.4317 38.713ZM66.0148 30.3321L72.8282 37.2675L76.7614 34.9882L66.0148 30.3321Z" fill="white"/>
<path d="M85.4317 38.713L81.3513 36.944L75.6447 40.2793L78.1864 42.9309L74.0658 45.3397L59.1376 28.1813L63.18 25.8302L89.5517 36.3193L85.4317 38.713ZM66.0148 30.3321L72.8282 37.2675L76.7614 34.9882L66.0148 30.3321Z" fill="url(#paint14_linear)"/>
</g>
<g opacity="0.91">
<path d="M100.109 30.1627L82.0275 24.9794L94.7144 33.2973L91.0451 35.4348L70.7493 21.8832L74.4806 19.7177L92.7718 24.9851L79.9064 16.5691L83.5448 14.4456L103.841 27.9972L100.109 30.1627Z" fill="white"/>
<path d="M100.109 30.1627L82.0275 24.9794L94.7144 33.2973L91.0451 35.4348L70.7493 21.8832L74.4806 19.7177L92.7718 24.9851L79.9064 16.5691L83.5448 14.4456L103.841 27.9972L100.109 30.1627Z" fill="url(#paint15_linear)"/>
</g>
<path opacity="0.91" d="M67.9763 43.7057C69.9692 46.7919 67.5209 48.7944 66.8618 49.3312C66.4223 49.6941 65.9372 50.0552 65.3925 50.3837C62.1744 52.2499 58.9334 52.3524 56.6899 52.2048C55.7654 52.1386 55.2524 52.0427 53.592 51.7505L54.0925 48.2441C54.2588 48.2657 55.059 48.4031 55.7261 48.4441C57.9387 48.6057 60.1455 48.1289 61.4981 47.3454C61.6848 47.231 62.2289 46.9178 62.55 46.4743C62.6294 46.3862 63.6237 45.0417 61.9793 43.9446C59.994 42.6216 57.7741 43.8274 56.0464 44.49C55.1661 44.851 54.196 45.1782 53.1973 45.4587C51.6313 45.8692 49.9655 46.1086 47.8832 45.724C47.4758 45.6475 46.601 45.4768 45.5989 45.0581C45.2254 44.8917 44.3892 44.5097 43.5004 43.913C43.323 43.7846 42.6426 43.3023 42.0976 42.8557C40.9067 41.8217 40.2305 40.8381 40.03 39.7361C39.8161 38.5881 40.1574 36.8384 42.8163 35.2848C43.7958 34.7148 46.105 33.5581 50.2979 33.5988C51.3309 33.6084 52.0278 33.6658 54.0116 33.849L53.8706 37.4909C51.8139 37.2289 50.5252 37.1486 48.7788 37.5065C48.5173 37.5876 47.6436 37.7817 46.9594 38.1808C45.3116 39.1352 45.8382 40.4473 46.846 41.1095C47.4237 41.4966 48.057 41.6275 48.3289 41.6684C49.6736 41.8724 50.5451 41.3439 52.3651 40.6545C53.4601 40.2409 54.5983 39.8899 55.7815 39.5557C56.5047 39.3254 59.1517 38.4704 62.6124 39.7594C63.1213 39.9615 64.1531 40.3966 65.2648 41.1235C65.8582 41.496 67.1006 42.38 67.9763 43.7057Z" fill="white"/>
<path opacity="0.91" d="M84.4324 38.6743L80.352 36.9053L74.6454 40.2406L77.1871 42.8922L73.0665 45.301L58.1383 28.1426L62.1807 25.7916L88.5524 36.2806L84.4324 38.6743ZM65.0155 30.2934L71.829 37.2288L75.7621 34.9495L65.0155 30.2934Z" fill="white"/>
<path opacity="0.91" d="M99.11 30.1241L81.0282 24.9407L93.7152 33.2586L90.0458 35.3961L69.7501 21.8445L73.4813 19.679L91.7726 24.9464L78.9071 16.5304L82.5455 14.4069L102.841 27.9585L99.11 30.1241Z" fill="white"/>
</g>
<defs>
<linearGradient id="paint0_linear" x1="13.5707" y1="84.1187" x2="127.469" y2="84.1187" gradientUnits="userSpaceOnUse">
<stop stop-color="#E7EFF5"/>
<stop offset="0.2574" stop-color="#C3C5D2"/>
<stop offset="0.3352" stop-color="#C6C8D5"/>
<stop offset="0.3997" stop-color="#CED3DD"/>
<stop offset="0.4592" stop-color="#DDE4EC"/>
<stop offset="0.4655" stop-color="#DFE6EE"/>
<stop offset="0.5693" stop-color="#98A5B5"/>
<stop offset="0.995" stop-color="#7E8EA0"/>
</linearGradient>
<linearGradient id="paint1_linear" x1="5.91841" y1="84.431" x2="128.585" y2="84.431" gradientUnits="userSpaceOnUse">
<stop stop-color="#475375"/>
<stop offset="0.483607" stop-color="#2E364F"/>
<stop offset="0.532513" stop-color="#2E374F"/>
<stop offset="0.593645" stop-color="#27293B"/>
<stop offset="1" stop-color="#2D3146"/>
</linearGradient>
<linearGradient id="paint2_linear" x1="31.9165" y1="54.9115" x2="99.8476" y2="16.4768" gradientUnits="userSpaceOnUse">
<stop stop-color="#596482"/>
<stop offset="0.995" stop-color="#2A3D6B"/>
</linearGradient>
<linearGradient id="paint3_linear" x1="31.9136" y1="52.9031" x2="99.8447" y2="14.4684" gradientUnits="userSpaceOnUse">
<stop stop-color="#687599"/>
<stop offset="0.995" stop-color="#49587E"/>
</linearGradient>
<linearGradient id="paint4_linear" x1="18.8431" y1="91.6483" x2="52.8672" y2="91.6483" gradientUnits="userSpaceOnUse">
<stop stop-color="#687599"/>
<stop offset="0.995" stop-color="#414A64"/>
</linearGradient>
<linearGradient id="paint5_linear" x1="10.1313" y1="116.864" x2="26.7437" y2="73.2273" gradientUnits="userSpaceOnUse">
<stop stop-color="#E8EAEB"/>
<stop offset="0.0918067" stop-color="#2F3851"/>
<stop offset="0.2813" stop-color="#2E364F"/>
<stop offset="0.4844" stop-color="#2C344B"/>
<stop offset="0.7085" stop-color="#292B3E"/>
<stop offset="0.995" stop-color="#2B2E43"/>
</linearGradient>
<linearGradient id="paint6_linear" x1="21.0163" y1="88.7288" x2="50.6883" y2="85.1187" gradientUnits="userSpaceOnUse">
<stop offset="1" stop-color="#2ED8CF"/>
</linearGradient>
<linearGradient id="paint7_linear" x1="21.1681" y1="95.4026" x2="50.8394" y2="91.7894" gradientUnits="userSpaceOnUse">
<stop offset="1" stop-color="#2ED8CF"/>
</linearGradient>
<linearGradient id="paint8_linear" x1="21.32" y1="101.929" x2="50.9867" y2="98.2972" gradientUnits="userSpaceOnUse">
<stop offset="1" stop-color="#2ED8CF"/>
</linearGradient>
<linearGradient id="paint9_linear" x1="21.1681" y1="107.855" x2="50.8394" y2="104.242" gradientUnits="userSpaceOnUse">
<stop offset="1" stop-color="#2ED8CF"/>
</linearGradient>
<linearGradient id="paint10_linear" x1="21.32" y1="114.521" x2="50.9912" y2="110.908" gradientUnits="userSpaceOnUse">
<stop offset="1" stop-color="#2ED8CF"/>
</linearGradient>
<linearGradient id="paint11_linear" x1="15.7101" y1="61.6932" x2="38.8952" y2="64.5394" gradientUnits="userSpaceOnUse">
<stop offset="1" stop-color="#2ED8CF"/>
</linearGradient>
<linearGradient id="paint12_linear" x1="38.4492" y1="50.804" x2="94.6579" y2="19.0016" gradientUnits="userSpaceOnUse">
<stop stop-color="#6A7698"/>
<stop offset="1" stop-color="#505D82"/>
</linearGradient>
<linearGradient id="paint13_linear" x1="55.7013" y1="33.7969" x2="54.9908" y2="52.1473" gradientUnits="userSpaceOnUse">
<stop stop-color="#17191F"/>
<stop offset="1" stop-color="#535457"/>
</linearGradient>
<linearGradient id="paint14_linear" x1="74.5761" y1="26.2715" x2="73.8382" y2="45.3309" gradientUnits="userSpaceOnUse">
<stop stop-color="#17191F"/>
<stop offset="1" stop-color="#535457"/>
</linearGradient>
<linearGradient id="paint15_linear" x1="87.695" y1="14.6063" x2="86.8948" y2="35.2741" gradientUnits="userSpaceOnUse">
<stop stop-color="#17191F"/>
<stop offset="1" stop-color="#535457"/>
</linearGradient>
<clipPath id="clip0">
<rect x="6" width="128.967" height="140" fill="white"/>
</clipPath>
</defs>
</svg>
