<svg width="140" height="140" viewBox="0 0 140 140" fill="none" xmlns="http://www.w3.org/2000/svg">
<path d="M0.0946045 72.8785V94.173C0.0946045 97.1352 1.63547 99.8669 4.12709 101.397L58.0903 137.42C63.6964 140.86 70.7287 140.86 76.3512 137.42L132.609 99.7682C135.117 98.2213 136.642 95.4895 136.642 92.5438V71.8911L0.0946045 72.8785Z" fill="url(#paint0_linear)"/>
<path d="M0.0946045 73.5367V94.173C0.0946045 97.1352 1.63547 99.8669 4.12709 101.397L58.0903 137.42C63.6964 140.86 70.7287 140.86 76.3512 137.42L132.609 99.7682C135.117 98.2213 136.642 95.4895 136.642 92.5438V71.8911L0.0946045 73.5367Z" fill="url(#paint1_linear)"/>
<path d="M89.1862 114.464L90.6123 113.493L90.5631 120.059L89.137 121.03L89.1862 114.464ZM92.4155 118.792L93.8416 117.838L93.8908 111.239L92.4646 112.21L92.4155 118.792ZM95.7103 116.571L97.1364 115.616L97.1856 108.984L95.7595 109.955L95.7103 116.571ZM98.9887 114.332L100.415 113.378L100.464 106.713L99.0379 107.684L98.9887 114.332ZM102.284 112.111L103.71 111.156L103.759 104.459L102.333 105.43L102.284 112.111ZM105.562 109.873L106.988 108.918L107.037 102.188L105.611 103.159L105.562 109.873ZM108.857 107.651L110.283 106.697L110.332 99.9332L108.906 100.904L108.857 107.651ZM112.135 105.43L113.561 104.475L113.611 97.6787L112.184 98.6496L112.135 105.43ZM115.43 103.175L116.856 102.221L116.905 95.3912L115.479 96.3622L115.43 103.175ZM118.758 94.1076L118.709 100.953L120.135 99.999L120.184 93.1367L118.758 94.1076Z" fill="#2FAAAF"/>
<path d="M14.7983 73.6695C15.1098 73.6695 15.1098 73.1758 14.7983 73.1758C14.4869 73.1758 14.4869 73.6695 14.7983 73.6695Z" fill="url(#paint2_linear)"/>
<path d="M133.953 77.5363L76.6954 111.584C70.8762 115.155 63.5488 115.155 57.7132 111.584L1.91404 77.3553C-0.856243 75.6603 -0.561183 71.5462 2.4222 70.2626L65.647 43.3729C69.4828 41.7273 73.794 41.7273 77.597 43.3729L133.216 67.2675C137.543 69.1271 137.97 75.0843 133.953 77.5363Z" fill="url(#paint3_linear)"/>
<path d="M133.953 75.5758L76.6954 109.624C70.8762 113.195 63.5488 113.195 57.7132 109.624L1.91404 75.3948C-0.856243 73.6998 -0.561183 69.5857 2.4222 68.3021L65.647 41.4124C69.4828 39.7668 73.794 39.7668 77.597 41.4124L133.216 65.3071C137.543 67.1666 137.97 73.1238 133.953 75.5758Z" fill="url(#paint4_linear)"/>
<path d="M9.64441 93.4506V97.794L8.01996 96.7767V92.4495L9.64441 93.4506Z" fill="black"/>
<path d="M8.51855 92.7563V97.0997L8.01996 96.7767V92.4495L8.51855 92.7563Z" fill="#8A99CD"/>
<path d="M6.68484 91.9801V96.3235L5.06039 95.3224V90.979L6.68484 91.9801Z" fill="black"/>
<path d="M5.55899 91.3019V95.6292L5.06039 95.3224V90.979L5.55899 91.3019Z" fill="#8A99CD"/>
<path d="M51.4564 118.135V122.478L49.832 121.461V117.134L51.4564 118.135Z" fill="black"/>
<path d="M50.3306 117.441V121.784L49.832 121.461V117.134L50.3306 117.441Z" fill="#8A99CD"/>
<path d="M48.4969 116.664V121.008L46.8724 120.007V115.663L48.4969 116.664Z" fill="black"/>
<path d="M47.371 115.986V120.314L46.8724 120.007V115.663L47.371 115.986Z" fill="#8A99CD"/>
<path d="M5.46266 82.6646L9.95 85.3934C10.1752 85.5226 10.3521 85.8939 10.3199 86.2007L10.2556 88.4774C10.2234 88.8004 10.0143 88.9295 9.77308 88.7842L5.25357 85.9585C5.0284 85.8132 4.86756 85.4741 4.88365 85.1673L4.98015 82.9875C5.01231 82.6808 5.2214 82.5354 5.46266 82.6646Z" fill="url(#paint5_linear)"/>
<path d="M5.84796 84.7968L5.9123 84.8291C5.9123 84.8776 5.92838 84.926 5.94446 84.9744C5.96055 85.0067 5.97663 85.0552 5.99272 85.0875C6.02488 85.1198 6.04097 85.152 6.07313 85.1682C6.1053 85.1843 6.12138 85.2005 6.13747 85.1843C6.15355 85.1682 6.16964 85.1682 6.18572 85.152C6.2018 85.1359 6.2018 85.1036 6.2018 85.0875C6.2018 85.0552 6.2018 85.0229 6.18572 84.9906C6.18572 84.9583 6.15355 84.926 6.13747 84.9098C6.12138 84.8937 6.08922 84.8614 6.04097 84.813C5.99272 84.7645 5.96055 84.7161 5.92838 84.6838C5.89621 84.6354 5.88013 84.6031 5.86405 84.5546C5.84796 84.5062 5.84796 84.4577 5.84796 84.4093C5.84796 84.3609 5.84796 84.3124 5.86405 84.2801C5.88013 84.2478 5.9123 84.2317 5.92838 84.2317C5.96055 84.2317 5.99272 84.2317 6.02488 84.264C6.07313 84.2963 6.1053 84.3286 6.13747 84.3609C6.16964 84.4093 6.18572 84.4577 6.21789 84.5062C6.23397 84.5546 6.25005 84.6192 6.23397 84.6676L6.16964 84.6354C6.16964 84.5708 6.15355 84.5062 6.13747 84.4739C6.12138 84.4254 6.08922 84.3932 6.04097 84.377C5.99272 84.3447 5.96055 84.3447 5.94446 84.3609C5.92838 84.377 5.9123 84.4093 5.9123 84.4577C5.9123 84.49 5.9123 84.5223 5.92838 84.5546C5.94446 84.5869 5.97663 84.6354 6.04097 84.6838C6.1053 84.7484 6.13747 84.7807 6.16964 84.8291C6.2018 84.8776 6.21789 84.926 6.25005 84.9744C6.26614 85.0229 6.26614 85.0713 6.26614 85.1359C6.26614 85.1843 6.25005 85.2328 6.23397 85.2651C6.21789 85.2974 6.2018 85.3297 6.15355 85.3297C6.1053 85.3297 6.08922 85.3297 6.04097 85.2974C5.99272 85.2651 5.94446 85.2328 5.9123 85.1843C5.88013 85.1359 5.84796 85.0875 5.83188 85.0229C5.84796 84.926 5.84796 84.8453 5.84796 84.7968Z" fill="#151A1E"/>
<path d="M6.76464 84.6672L6.84506 84.7156L6.82897 85.2807C6.82897 85.3776 6.81289 85.4584 6.81289 85.5068C6.79681 85.5552 6.78072 85.5875 6.74855 85.6037C6.71639 85.6198 6.66814 85.6198 6.61988 85.5875C6.57163 85.5552 6.52338 85.5068 6.49122 85.4584C6.45905 85.4099 6.44296 85.3453 6.42688 85.2807C6.4108 85.2162 6.4108 85.1193 6.4108 85.0224V84.4573L6.49122 84.5057L6.47513 85.0708C6.47513 85.1516 6.47513 85.2162 6.49122 85.2646C6.49122 85.313 6.5073 85.3453 6.53947 85.3776C6.55555 85.4099 6.58772 85.4422 6.61988 85.4584C6.66814 85.4907 6.71639 85.4907 6.73247 85.4584C6.74855 85.4261 6.76464 85.3453 6.78072 85.2323L6.76464 84.6672Z" fill="#151A1E"/>
<path d="M6.92572 85.7652L6.95789 84.7803L7.03831 84.8287L7.31173 85.7652L7.3439 84.9902L7.40823 85.0386L7.37606 86.0236L7.31173 85.9751L7.05439 85.0386L7.02222 85.8137L6.92572 85.7652Z" fill="#151A1E"/>
<path d="M7.50464 86.1048L7.55289 85.136L7.63331 85.1844L7.58506 86.1532L7.50464 86.1048Z" fill="#151A1E"/>
<path d="M7.69748 86.2335L7.74573 85.2646L7.82615 85.3131L8.0674 86.2496L8.11565 85.4907L8.17999 85.5391L8.11565 86.508L8.05132 86.4595L7.81006 85.523L7.76181 86.2819L7.69748 86.2335Z" fill="#151A1E"/>
<path d="M8.26041 86.5728L8.32474 85.604L8.71075 85.8301L8.69467 85.9431L8.38908 85.7655L8.37299 86.0723L8.63033 86.2337L8.61425 86.3467L8.35691 86.1853L8.32474 86.6212L8.26041 86.5728Z" fill="#151A1E"/>
<path d="M8.74311 86.3622C8.75919 86.2007 8.79136 86.0877 8.85569 86.0231C8.92003 85.9585 8.98436 85.9585 9.06478 86.0069C9.11303 86.0392 9.16129 86.0877 9.19345 86.1523C9.22562 86.2168 9.25779 86.2976 9.27387 86.3783C9.28996 86.4752 9.28996 86.5559 9.27387 86.6528C9.25779 86.7497 9.2417 86.8304 9.20954 86.895C9.17737 86.9596 9.1452 86.9919 9.09695 87.008C9.0487 87.0242 9.00045 87.008 8.96828 86.9919C8.92003 86.9596 8.87178 86.9111 8.83961 86.8466C8.80744 86.782 8.77528 86.7012 8.75919 86.6044C8.72703 86.5398 8.72702 86.459 8.74311 86.3622ZM8.80744 86.4267C8.79136 86.5398 8.80744 86.6528 8.83961 86.7335C8.87178 86.8304 8.92003 86.8788 8.96828 86.9111C9.01653 86.9434 9.06478 86.9434 9.11303 86.895C9.16129 86.8466 9.17737 86.7658 9.19345 86.6366C9.19345 86.5559 9.19345 86.4913 9.19345 86.4267C9.17737 86.3622 9.16129 86.2976 9.12912 86.2491C9.09695 86.2007 9.06478 86.1684 9.03262 86.1523C8.98436 86.12 8.93611 86.12 8.88786 86.1684C8.85569 86.1846 8.82353 86.2653 8.80744 86.4267Z" fill="#151A1E"/>
<path d="M41.8113 113.666L41.8756 117.364L12.9411 99.1827L12.9894 95.6951L41.8113 113.666Z" fill="black"/>
<path d="M41.8116 113.666L41.8437 114.958L12.9735 96.8092L12.9896 95.6951L41.8116 113.666Z" fill="#8A99CD"/>
<path d="M117.777 76.4174L76.5064 101.751C71.9548 104.529 66.229 104.529 61.6773 101.751L34.7854 85.2496L18.0906 75.0127C15.9354 73.6887 16.1605 70.4755 18.4927 69.4744L64.4115 49.7433C67.4031 48.4677 70.7807 48.4677 73.7561 49.7433L117.198 68.4087C117.777 68.6509 118.26 68.99 118.646 69.3937C120.592 71.3636 120.383 74.8351 117.777 76.4174Z" fill="url(#paint6_linear)" stroke="#2ED8CF" stroke-miterlimit="10"/>
<path d="M132.874 77.2466L72.8493 48.5703L21.0599 13.403C19.5319 12.3697 19.0816 10.3029 20.0144 8.72053L24.0032 2.00355C25.1612 0.0498143 27.6703 -0.579902 29.6164 0.582652L137.94 65.5242C139.95 66.719 140.594 69.3348 139.404 71.337L136.669 76.0679C135.897 77.3919 134.241 77.9086 132.874 77.2466Z" fill="url(#paint7_linear)"/>
<path d="M138.374 66.0899L76.1623 32.4404L29.4392 0.486328L82.9174 28.0808L138.374 66.0899Z" fill="url(#paint8_linear)"/>
<defs>
<linearGradient id="paint0_linear" x1="8.02687" y1="105.941" x2="128.807" y2="105.941" gradientUnits="userSpaceOnUse">
<stop stop-color="#E7EFF5"/>
<stop offset="0.2574" stop-color="#C3C5D2"/>
<stop offset="0.3352" stop-color="#C6C8D5"/>
<stop offset="0.3997" stop-color="#CED3DD"/>
<stop offset="0.4592" stop-color="#DDE4EC"/>
<stop offset="0.4655" stop-color="#DFE6EE"/>
<stop offset="0.5693" stop-color="#98A5B5"/>
<stop offset="0.995" stop-color="#748496"/>
</linearGradient>
<linearGradient id="paint1_linear" x1="-0.0877918" y1="105.941" x2="129.991" y2="105.941" gradientUnits="userSpaceOnUse">
<stop stop-color="#455173"/>
<stop offset="0.395833" stop-color="#303953"/>
<stop offset="0.521061" stop-color="#38415C"/>
<stop offset="0.578125" stop-color="#2B2F43"/>
<stop offset="1" stop-color="#2B2F43"/>
</linearGradient>
<linearGradient id="paint2_linear" x1="14.5652" y1="73.4276" x2="15.0401" y2="73.4163" gradientUnits="userSpaceOnUse">
<stop stop-color="#DFE6EE"/>
<stop offset="0.5" stop-color="#F5F7F8"/>
<stop offset="0.995" stop-color="#ABB6C3"/>
</linearGradient>
<linearGradient id="paint3_linear" x1="0.0126348" y1="73.5092" x2="134.283" y2="70.1047" gradientUnits="userSpaceOnUse">
<stop offset="0.0001" stop-color="#586382"/>
<stop offset="0.0002" stop-color="#5F6C91"/>
<stop offset="1" stop-color="#2A3C6B"/>
</linearGradient>
<linearGradient id="paint4_linear" x1="27.0043" y1="96.0948" x2="99.6346" y2="55.1615" gradientUnits="userSpaceOnUse">
<stop stop-color="#5F6C91"/>
<stop offset="1" stop-color="#49577E"/>
</linearGradient>
<linearGradient id="paint5_linear" x1="4.12381" y1="83.4114" x2="10.568" y2="84.2632" gradientUnits="userSpaceOnUse">
<stop stop-color="#C6C8D5"/>
<stop offset="0.1769" stop-color="#CED3DD"/>
<stop offset="0.3317" stop-color="#E7EFF5"/>
<stop offset="1" stop-color="#D3D9E2"/>
</linearGradient>
<linearGradient id="paint6_linear" x1="23.9901" y1="74.7609" x2="101.324" y2="77.3938" gradientUnits="userSpaceOnUse">
<stop stop-color="#969EB6"/>
<stop offset="1" stop-color="#505D82"/>
</linearGradient>
<linearGradient id="paint7_linear" x1="23.1579" y1="5.76315" x2="133.9" y2="76.2375" gradientUnits="userSpaceOnUse">
<stop stop-color="#5F6C91"/>
<stop offset="0.2574" stop-color="#3B4564"/>
<stop offset="0.3352" stop-color="#303954"/>
<stop offset="0.40744" stop-color="#313B55"/>
<stop offset="0.480341" stop-color="#454F6C"/>
<stop offset="0.549407" stop-color="#393D53"/>
<stop offset="0.995" stop-color="#2B2F43"/>
</linearGradient>
<linearGradient id="paint8_linear" x1="65.9457" y1="58.6003" x2="86.4293" y2="29.9608" gradientUnits="userSpaceOnUse">
<stop offset="0.2435" stop-color="#5F6C91"/>
<stop offset="0.995" stop-color="#4C587A"/>
</linearGradient>
</defs>
</svg>
