<svg width="140" height="140" viewBox="0 0 140 140" fill="none" xmlns="http://www.w3.org/2000/svg">
<g clip-path="url(#clip0)">
<path d="M0.0969238 54.3567V76.0785C0.0969238 79.1001 1.67486 81.8867 4.22642 83.4478L59.4878 120.194C65.2288 123.702 72.4303 123.702 78.1881 120.194L135.8 81.786C138.368 80.208 139.929 77.4214 139.929 74.4166V53.3495L0.0969238 54.3567Z" fill="url(#paint0_linear)"/>
<path d="M0.0969238 55.0281V76.0785C0.0969238 79.1001 1.67486 81.8867 4.22642 83.4478L59.4878 120.194C65.2288 123.702 72.4303 123.702 78.1881 120.194L135.8 81.786C138.368 80.208 139.929 77.4214 139.929 74.4166V53.3495L0.0969238 55.0281Z" fill="url(#paint1_linear)"/>
<path d="M91.3317 96.7766L92.7922 95.7862L92.7418 102.484L91.2814 103.474L91.3317 96.7766ZM94.6387 101.192L96.0991 100.218L96.1495 93.4865L94.689 94.4769L94.6387 101.192ZM98.0128 98.9253L99.4732 97.9517L99.5236 91.1867L98.0631 92.1771L98.0128 98.9253ZM101.37 96.6423L102.831 95.6687L102.881 88.8702L101.42 89.8606L101.37 96.6423ZM104.744 94.3762L106.205 93.4025L106.255 86.5704L104.795 87.5608L104.744 94.3762ZM108.102 92.0932L109.562 91.1196L109.612 84.2539L108.152 85.2443L108.102 92.0932ZM111.476 89.827L112.936 88.8534L112.986 81.9541L111.526 82.9445L111.476 89.827ZM114.833 87.5608L116.293 86.5872L116.344 79.6543L114.883 80.6447L114.833 87.5608ZM118.207 85.261L119.667 84.2874L119.718 77.321L118.257 78.3114L118.207 85.261ZM121.615 76.0116L121.564 82.9949L123.025 82.0212L123.075 75.0212L121.615 76.0116Z" fill="#2FAAAF"/>
<path d="M15.1542 55.1634C15.4732 55.1634 15.4732 54.6598 15.1542 54.6598C14.8353 54.6598 14.8353 55.1634 15.1542 55.1634Z" fill="url(#paint2_linear)"/>
<path d="M137.176 59.1079L78.5404 93.8393C72.5812 97.482 65.0776 97.482 59.1016 93.8393L1.96009 58.9233C-0.876841 57.1942 -0.574683 52.9976 2.48047 51.6882L67.2263 24.259C71.1544 22.5803 75.5692 22.5803 79.4637 24.259L136.421 48.6331C140.852 50.53 141.289 56.6067 137.176 59.1079Z" fill="url(#paint3_linear)"/>
<path d="M137.176 57.1079L78.5404 91.8393C72.5812 95.482 65.0776 95.482 59.1016 91.8393L1.96009 56.9233C-0.876841 55.1942 -0.574683 50.9976 2.48047 49.6882L67.2263 22.259C71.1544 20.5803 75.5692 20.5803 79.4637 22.259L136.421 46.6331C140.852 48.53 141.289 54.6067 137.176 57.1079Z" fill="url(#paint4_linear)"/>
<path d="M69.9547 79.3645C47.6604 79.3645 29.5197 69.2361 29.5197 56.7995C29.5197 44.3628 47.6604 34.2344 69.9547 34.2344C92.2489 34.2344 110.39 44.3628 110.39 56.7995C110.39 69.2361 92.2489 79.3645 69.9547 79.3645Z" fill="url(#paint5_linear)"/>
<path d="M69.9543 34.4051C92.1569 34.4051 110.237 44.4474 110.237 56.7979C110.237 69.1484 92.1722 79.1907 69.9543 79.1907C47.7364 79.1907 29.672 69.1484 29.672 56.7979C29.672 44.4474 47.7364 34.4051 69.9543 34.4051ZM69.9543 34.0605C47.5379 34.0605 29.3666 44.2407 29.3666 56.7979C29.3666 69.3551 47.5379 79.5352 69.9543 79.5352C92.3707 79.5352 110.542 69.3551 110.542 56.7979C110.542 44.2407 92.3707 34.0605 69.9543 34.0605Z" fill="#2B2F43"/>
<path opacity="0.6" d="M62.8535 74.8317V74.6939L62.7924 74.5561L62.8535 74.5045V74.4183L62.8077 74.3494V74.2289L62.716 74.1772V74.1944L62.655 74.2633V74.3667L62.5328 74.5045H62.487V74.5217L62.4259 74.6078L62.4717 74.6423L62.3801 74.7284V74.8317L62.1969 74.9868L62.151 74.9351L62.0594 75.0212V75.0384L62.0136 75.1418L61.8456 75.2107L61.7388 75.3485H61.5861L61.5402 75.314L61.5097 75.3485L61.4944 75.3313V75.3485H61.2654L61.189 75.4174L61.1432 75.3657L61.0669 75.4002H61.0058L61.0516 75.4519L60.9142 75.5552L60.9294 75.5724L60.8073 75.7102L60.8989 75.8136L60.8225 75.848L60.8531 75.8653V75.9686L60.9142 76.1581V76.1753L60.96 76.2614V76.3131L60.9447 76.3476L60.96 76.382L60.8836 76.5715L60.8225 76.6059L60.7767 76.761H60.7309L60.6698 76.7954V76.916L60.5782 77.0021L60.5019 77.0194L60.5171 77.1055L60.4255 77.1916V77.3639L60.5477 77.5017L60.5171 77.5533L60.563 77.5706V77.7428L60.4561 77.76V77.9323L60.5019 77.9667V77.984L60.563 78.0184L60.6088 78.0873V78.1045L60.6851 78.0873L60.7309 78.1562L60.8225 78.2423H60.96L61.0058 78.2251L61.0669 78.139L61.357 78.1218L61.4333 78.139L61.4792 78.1218L61.5402 78.0701L61.5861 78.0012L61.6319 77.9151V77.8289L61.6929 77.7945L61.6013 77.7084L61.754 77.6222V77.4844H61.8915L61.9067 77.4672L61.9678 77.2605L62.0136 77.1572L62.0289 77.1055L62.0747 76.9504L62.1816 76.8299L62.2732 76.537L62.3343 76.4681V76.382L62.3801 76.2614L62.4106 76.1925L62.487 76.0892L62.5328 75.9342L62.5786 75.7964L62.6091 75.7447L62.6397 75.7102L62.5939 75.6758V75.5208L62.7008 75.4346V75.4002L62.7466 75.3657L62.655 75.2796L62.7008 75.2451V74.9695H62.9451L62.9909 75.004L63.0062 74.9868L62.8535 74.8317ZM56.9898 76.6748L57.0356 76.7265V76.7093C57.0356 76.7093 57.0203 76.6921 56.9898 76.6748ZM57.0509 76.7437L57.0203 76.8126L57.0814 76.761L57.0509 76.7437ZM63.449 66.7186L63.3726 66.6497L63.4185 66.5464L63.3421 66.4775L63.4032 66.4258H63.2199L63.1589 66.4775L63.0672 66.5119L62.9756 66.5981L62.9145 66.5464H62.8993L62.8077 66.5808L62.5786 66.6153H62.4412L62.3954 66.5808H62.3496L62.2579 66.6153H62.1663L62.0747 66.6497L61.9983 66.6153L61.9678 66.6325L61.754 66.7703L61.6013 66.8048L61.5555 66.7875L61.5402 66.8048H61.3265L61.2348 66.8565H61.1585L61.1127 66.8909L61.0669 66.9254L60.9142 66.9598L60.7615 66.9081L60.7004 66.8565H60.6393L60.5935 66.7359L60.3797 66.5119L60.3186 66.5292H60.2117L59.9216 66.2708H60.2576L60.3034 66.2019H60.3644L60.395 66.1847L60.3797 66.1502L60.3492 66.133L60.2117 66.0985H60.1201L60.0285 65.8918L59.9827 65.8574L59.9369 65.7713H59.8911L59.7995 65.6851L59.7231 65.6507L59.6315 65.5646L59.5093 65.444L59.4941 65.4268L59.4024 65.3923L59.3566 65.3579L59.3108 65.3923L59.265 65.3579L59.2192 65.3923L59.1734 65.3579V65.3751L58.8833 65.2717L58.8374 65.1511L58.8069 65.1167L58.7611 65.0822V65.0133H58.7153L58.6237 64.6688L58.4862 64.3416L58.2114 64.1004H58.3641V63.9971L58.2725 63.9626L58.1656 63.9282L58.0587 63.7731L58.0129 63.5837L58.0434 63.4631L58.0129 63.3597L57.9212 63.1013V62.9635L57.9365 62.9463L57.9212 62.9119L57.8754 62.8774V62.843L57.8296 62.8085V62.7741L57.7838 62.7396V62.6707L57.7533 62.6535L57.6464 62.5501L57.5395 62.5157L57.5242 62.4812H57.4479L57.2952 62.3779L57.173 62.1023L57.2188 62.0678L57.1883 62.0506V61.9817L57.1272 61.93L57.0814 61.8267L56.9745 61.6889L56.8829 61.6544L56.8371 61.5338L56.608 61.2238V61.1032L56.5775 61.0515L56.5469 60.9482L56.5011 60.9137V60.8793L56.379 60.7587V60.6209L56.4095 60.5865V60.5692L56.211 60.3798L56.1652 60.2936L56.0125 60.1214V60.0525L55.9361 59.9663V59.8458L56.0888 59.708L56.1194 59.7252L56.0583 59.5874L55.982 59.5529L55.9361 59.4668H55.7071L55.5697 59.5013L55.5239 59.4668H55.5086L55.4628 59.5013L55.3712 59.5357L55.249 59.6391H55.0352L54.9131 59.5702H54.7298L54.6382 59.5357L54.5771 59.5874L54.4244 59.4668L54.3328 59.4496L54.0427 59.4151L53.951 59.3979L53.8289 59.5013L53.7373 59.2773L53.6915 59.2429H53.6762L53.6151 59.2601L53.2944 59.2257L53.2639 59.2084H53.2181V59.2946L52.9738 59.1568H52.9127L52.7905 59.1395L52.76 59.1568L52.6531 59.1223L52.5767 59.174L52.363 59.2084L52.2561 59.2601L52.2103 59.2946L52.1645 59.3807L52.1339 59.3979L52.1186 59.5013L52.1797 59.5702L52.2255 59.7596L52.1797 59.8802L52.027 60.018L51.8743 60.1214L51.7216 60.173L51.4926 60.0697L51.3399 59.9491L51.2483 59.8974L51.0956 59.8458L50.836 59.7596L50.7749 59.7424L50.7596 59.7596H50.5458L50.3626 59.6563L50.2404 59.3979V59.3118L50.2099 59.2773L50.0267 59.2601L49.9045 59.1912H49.7212L49.6296 59.174L49.4006 59.1912L49.141 59.1568L49.0494 59.0706L49.0036 59.0534H48.9577L48.8203 58.9501L48.7898 58.9328L48.7287 58.9845L48.6065 58.8812L48.576 58.8984L48.3775 58.795L48.3469 58.7606C48.3317 59.1223 48.3164 59.484 48.3164 59.8458C48.3164 66.5292 51.6758 72.5408 56.9898 76.6404L57.005 76.6059L56.9592 76.5026L57.005 76.4509L56.9745 76.4337V76.2098H57.1425L57.173 76.227L57.1883 76.2098H57.2494L57.2341 76.1753L57.5548 76.0031H57.6006L57.6311 75.9858V75.9514L57.7838 75.8653L57.8144 75.8136L57.8449 75.7964L57.9671 75.4519L57.9976 75.5208V75.4346L58.1656 75.5724L58.2419 75.538L58.2725 75.5208V75.4174L58.471 75.4863L58.6084 75.4174L58.6389 75.3657H58.7306L58.8833 75.2968V75.1935H59.036L59.0512 75.1762V75.1418L59.0818 75.1073L58.9596 75.004L59.0818 74.9006L59.0665 74.8834L59.1581 74.7973L59.1428 74.7284L59.1276 74.6939H59.0818L58.9901 74.6078V74.4872L58.868 74.3839H59.0818L59.097 74.315L59.0512 74.1944L59.097 74.16L59.0665 74.1427V73.9705L59.0818 73.9533V73.936L59.036 73.7638L59.0512 73.7466V73.626L59.097 73.5915L59.0512 73.5571L59.1428 73.4709V73.4365L59.1123 73.4193L59.0207 73.3848L58.8222 73.2126L58.868 73.1092L58.8527 73.092L58.7764 73.0231L58.8222 72.937L58.7916 72.8853L58.5779 72.6958H58.8833L58.8374 72.6269L58.8833 72.5925L58.8222 72.5408V72.3513L58.868 72.248L58.9291 72.1963L58.8985 72.0929L58.8374 72.0585V71.9035L58.9291 71.7656L59.0207 71.5245L58.8222 71.3522H59.1581L59.1734 71.335L59.265 71.1972L59.3261 71.1111V71.025L59.4482 70.9216V70.7838L59.5246 70.7149V70.6805L59.6162 70.5943H59.6315L59.7231 70.6116L59.7689 70.5943L59.8605 70.5082H59.8911L60.1965 70.1982V70.5427L60.2576 70.4738L60.3034 70.3876L60.4103 70.2843L60.4561 70.2671L60.4866 70.2326L60.5324 70.1982L60.7462 69.9914L60.8225 69.957L61.0516 69.7331L61.1738 69.6469L61.2807 69.5608L61.4028 69.5264L61.5555 69.423L61.9373 69.113L62.1358 68.9235L62.2121 68.8546L62.2427 68.7857L62.4717 68.5101V68.4756L62.5939 68.2861V68.2L62.8077 67.8383L62.7924 67.8038V67.7005L62.9451 67.5627H62.9909L63.0214 67.5455L63.0978 67.3904L63.2047 67.2354V67.201H63.052L63.3421 66.9426H63.2963L63.449 66.7186ZM83.0557 71.8001V71.8173V71.8001ZM83.3458 71.1111L83.2847 71.0594L83.2389 71.0077L83.1931 70.9733L83.132 70.9905L82.9183 70.9216V70.801L82.8725 70.7494L82.9641 70.7321L82.8266 70.6977L82.8419 70.6632L82.8266 70.6288V70.6116L82.7045 70.646V70.5599H82.6129L82.4296 70.4049V70.3876L81.9563 70.646L82.3533 70.1637H81.9868L82.1548 70.0259L82.109 70.0431L81.941 69.8709V69.7847L81.8494 69.6986L81.7883 69.7331L81.6356 69.6297V69.6125L81.208 69.4747H81.2844L81.1164 69.2163V69.1302H81.0553L80.979 69.0441L80.8415 68.9407H80.7499L80.6583 68.8546H80.4751V68.6651L80.4598 68.6307L80.4292 68.5445H80.3987L80.3376 68.4412H80.3071L80.1697 68.4756L80.1238 68.4412H80.0933L79.9711 68.4756L79.8337 68.4412L79.681 68.3206H79.6963V68.3378L79.7574 68.4412L79.8337 68.4584L79.9559 68.5962H80.0017L80.0933 68.7168L80.1391 68.6823L80.3529 68.8201L80.4598 69.0096L80.5361 69.0441H80.6583V69.2335L80.6736 69.2508L80.6888 69.2852H80.7805L80.8721 69.423L80.9026 69.4402H81.0095V69.578L81.0401 69.5953L81.0706 69.7158V69.7331L81.1469 69.9225V69.9398L81.208 69.957L81.3913 70.0603V70.1637L81.4371 70.2498L81.5287 70.3359L81.5745 70.5082L81.7272 70.7321L81.6814 70.8355L81.7119 70.8699L81.8036 70.9216L81.9563 71.0766L81.9868 71.1455L82.1395 71.1628V71.2317L82.2464 71.2833V71.3522L82.2922 71.3695L82.3991 71.5073L82.6129 71.6106V71.6623H82.7045L82.9183 71.8518H83.0404L83.0557 71.7484L83.2237 71.7829L83.2695 71.6451L83.2237 71.5417L83.2847 71.4384L83.2542 71.4211L83.3 71.18L83.3458 71.1111ZM88.5529 71.5073L88.5071 71.5417V71.6278L88.446 71.6967V71.7656L88.4613 71.7484H88.5224V71.6106L88.5834 71.5589L88.5987 71.5073V71.49H88.5529V71.5073ZM89.3317 71.4556V71.4211L89.2859 71.4039L89.2248 71.2317H89.1484L89.2401 71.1283L89.1942 71.0077L89.1026 70.9216L89.0568 70.8527L88.9652 70.7838V70.6977L88.8278 70.6632L88.7514 70.646L88.6292 70.5427L88.5376 70.4221V70.4049L88.5224 70.4221L88.4766 70.491L88.4307 70.5082L88.4766 70.5943L88.4155 70.6805L88.4307 70.7838L88.4002 70.8183V70.9044L88.3544 70.9388V71.0422L88.2322 71.0939V71.1972H88.217V71.2144H88.4307V71.3695L88.5071 71.5073L88.5987 71.3178L88.5682 71.2833L88.5224 71.1972V71.0422L88.6292 70.9733L88.6751 70.9216L88.8888 70.8527L88.9957 70.9561L89.0721 71.0594V71.2144L89.0263 71.2489L89.0721 71.2833L89.2248 71.3522H89.2095V71.5073L89.2553 71.4728L89.3317 71.4556V71.4384V71.4556ZM87.484 68.579H87.5298V68.3895L87.7436 68.5445V68.355L87.652 68.2517L87.6214 68.2345H87.5298V68.0794L87.4382 67.9589L87.3924 67.9933H87.3466L87.3313 68.045H87.2702L87.2244 68.1311V68.2172L87.0106 68.4067L86.9648 68.5273L86.8885 68.5445L86.8732 68.5618L86.8274 68.579L86.5983 68.9752V68.579L86.4914 68.5962L86.4762 68.6134V68.6996L86.3082 68.8374L86.2166 68.9407L86.2013 68.9752L86.1097 69.113L85.9723 69.1991L85.7585 69.2508L86.0181 69.5953L85.6211 69.4058V69.4919L85.5447 69.4575V69.5436L85.4989 69.6469V69.7847L85.1782 69.7331L85.0408 69.6642H84.8881L84.827 69.578L84.7354 69.7158L84.6896 69.7503V69.8192L84.6743 69.8881V69.957L84.7354 70.0431L84.827 70.1292H84.8576L85.6211 69.802L84.9797 70.3532H84.9644L85.0408 70.4393L85.0866 70.5082V70.646L85.0408 70.6805L85.0866 70.6977V70.9044L85.1782 70.8355L85.224 70.9388H85.2851L85.3309 70.9733H85.3462L85.4378 70.9216L85.4684 70.9388L85.5905 70.7838L85.6974 70.9905V71.0939L85.7738 71.0594L85.8196 71.0939L85.8959 71.0766L85.9265 70.9905H86.1402L86.1861 71.025L86.2777 71.0077L86.3235 70.9388L86.4456 71.0939L86.5373 71.0594L86.5678 71.1283H86.6136L86.7205 71.2661L86.6747 71.2833L86.751 71.2661H86.8274L86.9037 71.2317L86.9648 71.1283V70.9044L86.6136 71.0422L86.9954 70.6977L86.8427 70.5599H87.1481L87.1939 70.5254L86.8732 70.3359H87.316L87.3008 70.2843L87.4076 70.1982V70.0948L87.4535 70.0603V69.8881L87.4993 69.8709L87.5909 69.7503L87.5298 69.5091L87.3771 69.4402L87.5909 69.3024L87.4993 69.2163L87.484 69.1474L87.3466 69.0613L87.4382 68.9579L87.3618 68.8201L87.3924 68.8029L87.2244 68.7512L87.4535 68.6479V68.579H87.484ZM91.0114 71.1972H90.9656V71.2144H91.0266L91.0114 71.1972ZM89.3622 70.491H89.3011L89.2095 70.5082L89.1484 70.4738L89.1179 70.491L89.0721 70.5771L89.1332 70.5599L89.179 70.5254L89.3622 70.491L89.408 70.4738L89.4233 70.4565L89.3622 70.491ZM89.0415 69.8364L88.9957 69.7675L88.9041 69.8536L88.9347 69.8709L88.9805 69.8881L89.0721 69.8709L89.0415 69.8364ZM82.3991 69.6986L82.4296 69.6814V69.6642L82.3991 69.6986ZM82.4144 69.6125V69.6469V69.6125ZM82.4907 69.4575L82.4449 69.423V69.3886L82.3991 69.3541L82.3533 69.268L82.1395 69.0785L82.2922 68.9924V68.9063L82.2464 68.8718V68.7168L82.2922 68.6823V68.4929H82.3075L82.2922 68.4584L82.2311 68.3723L81.9715 68.1483L81.9563 68.1311H81.7272V68.0622L81.6814 68.045L81.6356 67.9244L81.6203 67.89H81.5287L81.4371 67.9761L81.208 67.7694L81.0095 67.7177V67.4938L81.1622 67.4421L81.1164 67.4077V67.3215H81.0706L81.0248 67.2526L80.9332 67.1665V67.1321L80.7041 67.1665L80.5667 67.0459L80.6125 66.9598L80.5514 66.8909V66.8565L80.5209 66.7875L80.4598 66.9254L80.5209 66.977L80.4751 67.0115H80.5209V67.2871L80.6583 67.2354V67.3732L80.7041 67.4077V67.4593L80.7652 67.4766L80.7957 67.5627H80.8263L80.9637 67.7005L81.0248 67.7177L81.0553 67.7522H81.1317V67.89L81.2233 67.9244L81.2691 67.9589L81.3607 68.0967L81.4065 68.3723L81.4371 68.4412L81.4829 68.5445L81.4371 68.7168L81.4218 68.734L81.544 68.8374L81.4981 68.8718L81.5592 68.9063L81.6203 68.9752L81.7119 69.0096L81.8036 69.1819L81.7577 69.2163L81.9563 69.423L82.0784 69.3886L82.1242 69.423H82.338L82.2158 69.5091L82.2922 69.578L82.3991 69.5953L82.4449 69.6125V69.5264L82.5518 69.6297V69.5608L82.4907 69.4575ZM81.6661 69.268L81.5898 69.3369H81.5745L81.544 69.423L81.6814 69.4058L81.6661 69.268ZM81.3913 69.3713L81.3455 69.423H81.4371L81.3913 69.3713ZM90.1715 67.8555V67.8727L90.2021 67.9416H90.2937L90.37 67.9933L90.3853 67.9761L90.1715 67.8555ZM74.5656 67.6488L74.5808 67.5971H74.5656L74.4739 67.4249L74.4587 67.4077H74.3518V67.3732H74.0617L74.0311 67.4766V67.5455L74.0769 67.6488L74.0464 67.6833L74.0922 67.7866L74.138 67.9589L74.2144 67.9761L74.2602 67.9589H74.4281L74.4892 67.9416L74.5503 67.89L74.6114 67.8038V67.666L74.5656 67.6488ZM90.6907 67.3388L90.6296 67.1837L90.6754 67.0976L90.6144 67.0459V67.2699L90.5075 67.1837L90.4158 67.2871L90.37 67.2526V67.3043L90.1563 67.4077V67.4249L90.0494 67.4593L90.1868 67.5799L90.4158 67.9761L90.4617 67.9416L90.3853 67.9072L90.4311 67.7694L90.538 67.5799L90.7212 67.5455L90.6907 67.3388ZM89.7592 67.3043L89.7745 67.3388L89.805 67.3043H89.7592ZM74.1685 67.2182V67.0804H74.1227V67.201H74.0464V67.3043L74.1991 67.2182H74.1685ZM51.5995 55.8495V55.8667V55.8495ZM54.8825 55.6945L54.9283 55.7117L54.8825 55.6945ZM57.5853 43.4129L57.5242 43.3956V43.4301L57.6464 43.4646L57.5853 43.4129ZM57.8602 42.965L57.8449 42.9306L57.7991 42.9133L57.6617 42.7928V42.7239L57.6464 42.7066L57.509 42.6894L57.4021 42.7066H57.3868L57.4784 42.8444V42.8961L57.57 42.9822L57.4784 43.0684L57.5242 43.1889L57.4784 43.2234V43.344L57.4631 43.3612L57.5395 43.3784V43.2062L57.5853 43.1717L57.5548 43.1545L57.7075 43.0167H57.7991L57.8449 42.9822H57.8754L57.8602 42.965ZM72.7942 67.1837L72.7332 67.1493L72.7637 67.1665L72.7179 67.1837H72.7942ZM84.2009 65.9435H84.2315H84.2009ZM91.7291 50.5097L91.8207 50.4236V50.4063L91.7749 50.3374V50.2513H91.7596L91.7138 49.9757L91.668 49.9412V49.8207L91.5916 49.7518L91.5153 49.614L91.5458 49.5967L91.5153 49.5795L91.4237 49.3039V49.235L91.3931 49.1833L91.3473 48.9939L91.3779 48.9766L91.3168 48.8388L91.3473 48.8044L91.2862 48.7527L91.332 48.7183L91.2862 48.6838L91.3015 48.6666L91.2862 48.6494L91.2404 48.5288L91.1946 48.5115L91.0572 48.391V48.2359L91.0877 48.2187L91.0572 48.1843H90.9656L90.7671 48.012L90.8587 47.9259V47.8914L90.8739 47.857L90.8587 47.8398H90.8434L90.7976 47.7709H90.7518L90.706 47.7364L90.538 47.6675L90.5075 47.6503L90.4158 47.6158L90.3395 47.5469L90.309 47.5125H90.1868L90.1563 47.4953L90.1257 47.5125H90.0799L90.141 47.5469H90.0494V47.6331L90.0036 47.6158L89.9577 47.702L89.973 47.7192L89.9272 47.7709L89.973 47.8053L89.9272 47.9259L89.6676 48.1498V48.0637L89.4691 48.0981L89.4233 48.0637L89.408 48.0809L89.1179 47.857L89.1637 47.7364L89.1484 47.702L89.0568 47.5986V47.4436L88.9805 47.4608L88.8888 47.5469H88.7056L88.6445 47.4953L88.5987 47.5125L88.4307 47.4436L88.3544 47.2886L88.446 47.0991L88.5071 47.0302V46.9441L88.5987 46.8579V46.7373L88.6903 46.6684V46.5651L88.7361 46.5306V46.5134L88.8278 46.4101L88.8736 46.3239L88.9194 46.2895L88.8736 46.2206L88.9194 46.1861V46.1L88.9652 45.8244H89.011L89.0415 45.7211L89.0721 45.7038L89.0568 45.6866L89.179 45.5488L89.2248 45.4627L89.2706 45.4282L89.2248 45.3249L89.2706 45.2904V45.2215L89.3164 45.1871L89.2859 45.1354V45.0148L89.2401 44.9115L89.3622 44.7564L89.4386 44.6703L89.4538 44.6186L89.3622 44.4808L89.4233 44.343L89.4996 44.2741L89.5455 44.188L89.6676 44.1019L89.7134 43.9985H89.9119L89.9272 44.0158L90.0188 43.9469H90.1104L90.2021 43.878H90.3548L90.4311 43.8091H90.5533L90.5991 43.7057L90.7671 43.7746L90.935 43.7057L91.0725 43.7402H91.0877C86.5525 39.8989 80.3834 37.5391 73.6188 37.5391C73.4967 37.5391 73.3745 37.5391 73.2371 37.5391L73.1302 37.6252H73.0538L72.6415 37.9869L72.8553 37.5391C71.2367 37.5735 69.6486 37.763 68.1063 38.0558L68.3812 38.1592H67.633C67.2512 38.2453 66.8695 38.3314 66.4877 38.4348L66.5641 38.5554V38.6415H66.5946L66.6404 38.7793L66.6862 38.7965H66.732L66.9306 38.8137L67.1749 38.5898V38.831L67.2207 38.8999L67.2818 38.9343L67.3276 38.986H67.4803L67.6024 39.0549H67.633L67.7857 39.1927L67.8315 39.3994L67.8773 39.5027L67.8468 39.5544L67.862 39.5716L67.9536 39.6061L68.1063 39.7956L68.1216 39.8989L68.2132 39.9678L68.2743 40.1056L68.2132 40.2434L68.2285 40.2607L68.2591 40.2779V40.3123L68.4728 40.5018L68.5034 40.519L68.5339 40.5018L68.6255 40.5363L68.7019 40.5018L69.0836 40.4157L68.992 40.519L69.0531 40.5535L69.1142 40.5707H69.2669L69.4806 41.1736L69.0836 40.8291H68.992L68.8393 40.7257L68.8088 40.7602V40.7774L69.0531 41.3286L68.5339 40.8635H68.3965L68.2438 40.7257V40.6224L68.1522 40.6052H67.9995L67.7551 40.4674H67.5566L67.5108 40.1573L67.5566 40.0712L67.4345 39.985V39.8472L67.3734 39.7267L67.4955 39.6405V39.5544L67.4497 39.4683V39.4511L67.4039 39.4166L67.3276 39.4511L67.0985 39.4855H66.9458L66.7931 39.3477L66.7015 39.3133L66.671 39.2616L66.503 39.2444L66.3961 39.141L66.3503 39.1066H66.0754L66.0602 39.1238L66.1976 39.1582L66.3503 39.3649L66.2129 39.5889L66.0296 39.6405L65.8158 39.5544L65.77 39.5372L65.6937 39.4511H65.6631L65.6173 39.4855L65.5868 39.5027H65.6326L65.6784 39.6061L65.7395 39.6405H65.8769L65.9685 39.7267L66.0602 39.7439L66.0907 39.7267H66.2434L66.2892 39.7956H66.4266L66.4725 39.9334L66.503 39.9506L66.5183 39.985L66.5641 40.0023L67.1749 39.7956L66.6557 40.2607L66.7931 40.5363L66.503 40.2779L66.4114 40.2951L66.1976 40.1573H66.0602L65.8922 40.2951L65.8158 40.1229L65.77 40.1401H65.5715L65.4952 40.0884L65.373 40.1229L65.2509 39.8472L65.3272 39.83L65.2814 39.7956V39.7783L65.205 39.7094L65.1592 39.6061L65.0371 39.7267L65.0218 39.7439L65.0523 39.7611L65.0829 40.0195L65.0371 40.1573L65.1287 40.1918L65.3425 40.3468L65.3577 40.3812H65.4188L65.541 40.4846L65.6479 40.6568L65.6021 40.898L65.5868 40.9324L65.6631 41.0358L65.6173 41.1908L65.6326 41.208L65.77 41.3286L65.8158 41.432L65.8617 41.4147L65.9533 41.432L65.9685 41.4147L66.1212 41.2769L66.2281 41.3114L66.3198 41.2769L66.4419 41.3458L66.5793 41.3114L66.6404 41.4492L66.732 41.4836H66.9L67.0527 41.6387V41.6903L67.1291 41.742L67.1749 41.8282L67.2207 41.8626L67.2512 41.8971L67.5719 42.0004L67.2207 42.1382L67.2665 42.1727L67.3581 42.2588L67.3276 42.3105H67.3734L67.3887 42.3449L67.5261 42.2071L67.5872 42.3449L67.633 42.3277L67.8009 42.4655L67.633 42.6033L67.5261 42.6377L67.4345 42.6722L67.2818 42.7066L67.0222 42.6205H66.9306L66.732 42.4483L66.7779 42.4138L66.7168 42.3621L66.6862 42.3277L66.5335 42.276L66.5793 42.1727H66.5335L66.4877 42.0693L66.335 41.9832V41.8971L66.2587 41.966L66.1671 42.0004L66.106 42.0521L66.0602 42.0865L66.0907 42.1899L66.106 42.2071L66.2587 42.276L66.3808 42.5861L66.335 42.7066L66.2434 42.81L66.2281 42.8444L66.3198 42.9478L66.2281 43.1373V43.2234L66.1365 43.3095V43.4129L66.0144 43.4473V43.5507L65.8311 43.6885L65.6021 43.654L65.5715 43.6368H65.5104L65.3577 43.6713L65.205 43.6368L64.9149 43.6024L64.8233 43.5162L64.7775 43.6368L64.6553 43.5335H64.3957L64.6859 43.2234H64.8386L64.9913 43.2062L65.0676 43.1373L65.2814 43.2406L65.3119 43.2234H65.5257V43.12L65.6326 43.1545V43.0856L65.4799 42.9478L65.6479 42.8789V42.8444L65.6021 42.81L65.6479 42.6894V42.6377L65.709 42.5861L65.6326 42.5172L65.5868 42.3277L65.6326 42.2243V42.1038L65.6173 42.0865L65.5257 42.0521L65.4952 41.9832L65.3883 41.966L65.205 41.742L65.1745 41.6387L65.1134 41.587L65.1287 41.5525H65.1134L65.0523 41.3975L65.0829 41.3114L64.9913 41.1736V41.1047L64.8996 41.0186L64.8844 40.9497L64.8233 40.898L64.7775 40.6741L64.7622 40.6396L64.6706 40.5535L64.6553 40.4846L64.5179 40.519V40.3985L64.4721 40.3812L64.4263 40.2779L64.3499 40.209L64.2736 40.0712L64.3499 40.0023V39.985L64.3041 39.8817L64.3499 39.8472L64.3347 39.8128L64.3805 39.6233L64.3499 39.5372V39.4511L64.3041 39.4166V39.3133L64.2583 39.2099H64.2736L64.0903 39.141L64.0598 39.1238L64.014 39.1582C63.8918 39.2099 63.7697 39.2444 63.6628 39.296L63.5712 39.3822L63.5559 39.4166L63.5864 39.4338V39.5372L63.617 39.6061L63.6628 39.8645V39.8989L63.7544 39.985L63.7086 40.1056V40.1401L63.7544 40.2607L63.6017 40.3985L63.4948 40.5535L63.5559 40.6913L63.5101 40.7257L63.5864 40.7946L63.6322 40.8635H63.7086L64.243 41.3458L63.8002 41.1908V41.3458L63.7086 41.432L63.7391 41.4836L63.8307 41.5181V41.5353L63.8766 41.5525H63.9834L64.014 41.5698L64.0903 41.4836L64.243 41.6214V41.7248H64.3041L64.4874 41.8971L64.5332 41.8798H64.5637L64.6095 41.9143H64.9302L64.6859 42.1382V42.2932L64.6706 42.3105L64.7164 42.3794L64.6553 42.431V42.655L64.3652 42.5516L64.2736 42.3794L64.2278 42.3449L64.0903 42.3105L64.0445 42.2071L64.014 42.1899L63.8307 42.1727L63.617 42.0693L63.449 42.0349L63.4185 41.9832H63.3574L63.2963 41.9315L63.1131 42.0865L63.0062 41.8454L62.8535 41.7937L62.7618 41.742L62.4717 41.7248L62.1816 41.7593L62.1205 41.742L62.0442 41.7765L61.9983 41.7593L61.9525 41.7765L61.9678 41.7937V41.9487L61.9983 41.966L62.0136 42.0176H62.0747L62.2121 42.2071V42.2243L62.2427 42.2416L62.7313 42.6722L62.1663 42.5172L62.151 42.5688L62.0594 42.6033L62.1052 42.6377L62.0442 42.6205H62.0289V42.7066L61.9373 42.7928H61.6013L61.5097 42.6205L61.5555 42.5516L61.5097 42.4483L61.5555 42.4138L61.5097 42.3966L61.4944 42.4138L61.4181 42.4483L61.3875 42.4655V42.5861H61.1585V42.6033L60.9905 42.6722H60.7615L60.7309 42.655L60.6698 42.7066L60.624 42.6722L60.5782 42.7066L60.6393 42.7239L60.563 42.7928L60.6088 42.8272L60.4408 42.965L60.2881 42.9133L60.0285 43.4646V42.9995L59.998 43.0167L59.7995 42.9306L59.7689 42.8789L59.5399 43.0167L59.3566 42.8617L59.3872 42.8444V42.7411L59.2345 42.7755L59.2039 42.7583L59.0665 42.9133L59.0207 42.9306L58.868 43.1028H58.8527L58.9443 43.3095L58.5779 43.2751L58.5626 43.2923L58.471 43.3095V43.4129L59.036 43.3267L58.3946 43.6713L58.3335 43.7229H58.2572L58.135 43.8263L58.0892 43.7402H57.906L57.738 43.5162L57.6311 43.4301H57.6158L57.738 43.5335L57.6922 43.5679L57.738 43.6024L57.6922 43.6368L57.7075 43.654L57.6617 43.7746V43.9469L57.6464 43.9641L57.6617 43.9813L57.7991 44.4636L57.4326 44.1363L57.3104 44.1019L56.9134 44.4464L57.1272 43.9985L57.0356 44.0158L56.9592 43.9469L56.9134 44.0674L56.5011 44.343L56.6844 43.9469L56.7149 43.878V43.8263L56.5928 43.7229L56.5469 43.654L56.5011 43.6196L56.4706 43.6024V43.6885L56.2721 43.5851C55.9514 43.8607 55.6307 44.1363 55.3101 44.4292H55.3406L55.3864 44.4464L55.4933 44.4119L55.6002 44.5153L55.6918 44.5325L55.8751 44.5497L55.982 44.5325L56.0278 44.4981H56.1499L56.211 44.4808L56.4095 44.4464V44.6014L56.4248 44.6359L56.5775 44.7737L56.7302 44.9804L56.5469 45.1354L56.4553 45.2215L56.3637 45.4282L56.1499 45.2388L56.0736 45.2043V45.2732L56.1194 45.2904V45.6005L56.0278 45.6866H55.9514L55.8751 45.7211H55.7376L55.6613 45.6522H55.5697L55.5239 45.6177H55.4017L55.3101 45.5316V45.4971L55.2795 45.4799L55.2337 45.5144L54.9741 45.3766L54.7451 45.4455L54.852 45.1871L54.8214 45.1526V45.1182L54.7451 45.0493V44.9976C54.0121 45.7211 53.325 46.4962 52.6989 47.3058L52.7142 47.3402L52.8211 47.4436L52.928 47.4091L52.9585 47.4264L53.1112 47.2886L53.2028 47.3747L53.2639 47.323H53.2334C53.2486 47.3058 53.2639 47.2886 53.2639 47.2886L53.3555 47.1852L53.5082 47.3402V47.3747H53.5235L53.554 47.4091H53.722L53.89 47.5469L53.7983 47.7709L53.6915 47.7364L53.6762 47.7536L53.6151 47.8053L53.6915 47.8398L53.5082 47.9087V48.0465L53.4013 47.9431L53.3708 47.9948V48.1154H52.8516L52.7294 48.0465H52.6073L52.5615 48.0292L52.4546 48.0637L52.4393 48.0465L52.2866 48.0981L52.2408 48.0637L52.1492 48.0981L52.1034 48.2015H52.1645L52.0728 48.4082L52.2103 48.2876L52.3172 48.546L52.2713 48.7355V48.8733L52.3172 49.0283L52.2713 49.1661L52.1645 49.39H51.9507L51.8132 49.2695L51.7674 49.1833L51.63 49.0455L51.5689 49.0628L51.5231 49.0972H51.4315H51.4162H51.3857V49.3728L51.2941 49.3384L51.2483 49.3728V49.5278L51.1872 49.5451L51.2024 49.5795L51.2483 49.614V49.7518L51.2635 49.769L51.3399 49.7518L51.462 49.9068L51.4926 49.924L51.6605 49.8896L51.7522 49.9757L51.798 50.0446L51.8896 50.1307L51.8438 50.2341L51.9049 50.4236L51.3704 50.458L50.9887 50.4408L50.836 50.5441L50.6527 50.5958L50.6069 50.5614C50.0877 51.5604 49.6449 52.6112 49.2937 53.6791L49.5533 53.7653V53.9031L49.6296 53.8342H49.8434L49.8892 53.9547L49.9808 54.0409L50.0267 54.127L50.0877 54.1787L50.1335 54.2131H50.1794L50.5916 54.5748H50.6375L50.7443 54.6093L51.0345 54.8677L51.0803 54.8332L51.233 54.9882L51.2483 55.0055L51.3399 55.0399L51.5078 55.2294L51.5384 55.2639L51.5842 55.2811L51.7522 55.4189L51.6758 55.5739L51.6453 55.5911L51.6147 55.6945L51.6605 55.8151L51.63 55.884L51.6605 55.9529H51.7369L51.8285 56.1251L51.9354 56.1596V56.2629L52.027 56.3146L52.0728 56.3663H52.1645V56.4696L52.2255 56.5557L52.2713 56.5385L52.2866 56.5213L52.3019 56.5385L52.3477 56.5213L52.2561 56.4868L52.4088 56.349L52.2103 56.1596L52.2866 56.0907L52.2561 55.9873L52.3172 55.8323L52.5615 55.7462L52.6073 55.8495L52.6989 55.7634L52.7905 55.7978L52.8211 55.7289L53.0348 55.6428L53.1265 55.7289V55.6428H53.3555L53.4013 55.7117H53.4777L53.6456 55.7634L53.6609 55.7978L53.7067 55.7634L53.7983 55.8495L54.0121 55.6945L53.9969 55.7117L54.119 55.6773H54.2106L54.2564 55.6428L54.1343 55.5395L54.0885 55.4361L54.0274 55.3844L53.7831 55.1261H53.9663L54.0427 55.0744L54.0732 55.0571L54.0274 54.8677L54.2106 54.7299H54.2564L54.2717 54.6782V54.5232L54.2259 54.437L54.2717 54.3509V54.3165L54.2259 54.1959L54.3023 54.127L54.3481 54.0064H54.5313L54.5618 53.9892L54.5771 53.972L54.5008 53.9031L54.5924 53.8169V53.4207H54.8672L54.8825 53.4035V53.2829L55.0505 53.2313H55.0963L55.2185 53.1279L55.3101 53.214L55.4017 53.1279L55.5391 53.2485H55.5544L55.6002 53.2313L55.6613 53.3863L55.7224 53.4035L55.7071 53.4207L55.7682 53.4035L55.8598 53.438L55.9056 53.3174L55.982 53.3863L56.0583 53.3174L56.1347 53.3518L56.1805 53.3174L56.3179 53.3518L56.3332 53.3346L56.4095 53.3174L56.4859 53.2313L56.5011 53.214L56.379 53.1107H56.7913L56.8218 53.1451L56.8676 53.1279L56.9592 53.1624L57.0203 53.1279H57.1119L57.1425 53.1107L57.1883 52.9901H57.2799L57.2952 52.9729L57.3868 52.8868H57.4937L57.57 52.8523H57.7533L57.7838 52.8695L57.8296 52.8351L58.0281 52.7834L58.1808 52.9212L58.1045 53.0935L57.9365 53.1624L57.8449 53.3346L57.9212 53.3518V53.4897L57.7227 53.6619L57.7685 53.6964L57.6769 53.9547L57.5548 53.9203L57.5395 53.9375L57.5853 53.972V54.0409L57.6922 54.0236L57.8602 54.1098L57.9518 54.1442L58.2114 54.3337L58.2419 54.3854L58.2877 54.4026L58.3335 54.437L58.3793 54.4543H58.4862L58.532 54.4887L58.5779 54.5059H58.6389L58.7306 54.5921L58.7611 54.6093L58.8069 54.5748L59.0207 54.7299L59.0665 54.7471L59.1734 54.8849L59.2192 54.971L59.2497 55.0916L59.3719 55.2466L59.3261 55.2811L59.3719 55.35L59.2803 55.4361L59.2345 55.5222L59.1276 55.6256L59.036 55.6773L58.9901 55.7806H58.868L58.8222 55.8151L58.5779 55.7806L58.5473 55.7634H58.2419L58.1656 55.7117L58.135 55.7289H58.0129L57.8296 55.8151L57.6311 55.7806L57.6158 55.7634L57.6006 55.7806L57.3868 55.6773L57.2952 55.6428L57.2188 55.6084L57.173 55.6428L57.005 55.5739L56.8982 55.4706L56.8829 55.4533L56.7913 55.5395L56.7455 55.505L56.6996 55.5395L56.4706 55.3328H56.2874L56.2415 55.3155L56.1957 55.3328H55.982L55.9361 55.35L55.7376 55.4361H55.646L55.5849 55.4533L55.5544 55.505L55.4628 55.5395L55.3864 55.6084L55.3406 55.6773L55.3253 55.6945V55.7806H55.0505L54.8825 55.7289L54.684 55.9012H54.6382L54.6993 55.9529L54.4244 56.0562H54.2106L54.1648 56.039L54.0121 56.0907L53.9663 55.9873L53.9052 56.1079L53.9205 56.1251V56.1423L53.951 56.1596L53.9816 56.1423H54.3633L54.1343 56.349L54.1648 56.4007L54.287 56.3663V56.573H54.8062L54.1648 56.7969L54.1496 56.8314L54.1648 56.8486L54.2106 56.8314L54.3786 56.9002L54.4702 57.0725L54.4244 57.107L54.5008 57.1759L54.5618 57.1242V57.2103H54.8062L54.7298 57.2792H54.9741V57.417L55.0352 57.4342H55.0505L55.0963 57.3998H55.1421L55.1879 57.3653L55.2185 57.3826L55.1726 57.262L55.478 57.1931L55.6307 57.2275L55.814 57.2964H55.9209L56.0736 57.4515L56.1194 57.4859L56.4095 57.4687L56.5011 57.4342H56.5317L56.5469 57.417L56.7607 57.1931H56.8829L57.0356 57.2792L57.0509 57.2964L57.2036 57.1586L57.4326 57.2448V57.417L57.3104 57.5204L57.4021 57.6065L57.3104 57.6926L57.3868 57.796L57.4326 57.9338L57.3868 58.0199V58.1577L57.341 58.2955L57.2952 58.5539L57.1425 58.7089V58.7778L57.0356 58.8812L57.005 59.1051L56.8982 59.3118L56.8065 59.4324L56.7607 59.5357L56.5928 59.5874L56.3332 59.5529L56.1347 59.5874V59.8974L56.1805 59.9319V59.9491L56.3179 60.0525V60.1558L56.4095 60.1903L56.4553 60.2936L56.5928 60.4142L56.6386 60.3281V60.242L56.7302 60.018L56.776 59.9836L57.0356 59.4151V60.018L56.9898 60.0869V60.2936L57.2799 60.397L57.1883 60.4831L57.2952 60.6037L57.3257 60.6726L57.3715 60.707L57.4173 60.7759H57.4326L57.57 61.0343V61.1377L57.6464 61.1721L57.6922 61.2582L57.7838 61.2927L57.8602 61.4305L57.9518 61.4649L58.0281 61.6544L57.9823 61.6889L57.9976 61.7061L58.0434 61.6716L58.1961 61.8094L58.3335 61.8956L58.4252 61.9989L58.4404 62.0162H58.4862L58.532 62.1367L58.5779 62.1712L58.6237 62.2745L58.7 62.3434L58.7458 62.4468L58.8069 62.4985L58.7611 62.6879V62.7052L58.8069 62.8257L58.8374 62.9291L59.1123 63.1702L59.1581 63.1875H59.2955L59.3414 63.2736L59.4941 63.3942V63.4286L59.6009 63.4631L59.5551 63.5664L59.6315 63.7904L59.7231 63.8248V63.9282L59.9216 64.1004H60.0132L60.059 64.2727L60.1659 64.2899L60.2576 64.5138L60.3034 64.5999L60.3492 64.7894V64.9789H60.3034V64.9961L60.3644 65.065L60.395 65.3579L60.4866 65.444V65.6507L60.4713 65.6679L60.5477 65.7368L60.563 65.7713L60.5782 65.754L60.7004 65.7885H60.7157L60.8073 65.7024H60.9905L61.0669 65.6162L61.0821 65.5818L61.2348 65.444H61.4181L61.4639 65.4784H61.5555L61.6013 65.5129L61.7388 65.4612L61.8304 65.444V65.4268L62.0442 65.289H62.2427L62.3343 65.2028L62.3801 65.2373L62.3954 65.22L62.487 65.0822L62.6244 65.0478H62.6702L63.0214 64.9444L63.0672 64.91L63.2963 64.8755L63.4032 64.8239L63.4948 64.7377L63.5712 64.7205L63.6322 64.5827L63.7849 64.4277L63.9529 64.3932L63.9987 64.376L64.0903 64.2899L64.1361 64.3243L64.1514 64.2899H64.2736L64.3957 64.221H64.4874L64.579 64.1865L64.6248 64.2038L64.6401 64.1865V64.0315L64.7775 63.9109H64.8386L64.9607 63.8765V63.8076L65.1287 63.6009L65.3119 63.532L65.3425 63.5492L65.4188 63.532L65.4036 63.4975H65.3119L65.4036 63.308L65.3119 63.2219H65.4494L65.6631 62.7568V63.1186L65.709 63.0841L65.7548 63.1186L65.7853 63.0841L65.8769 62.998L65.9991 62.843L66.0144 62.8085V62.7741L66.0296 62.7396L65.9991 62.7224L65.8158 62.619L65.77 62.5329L65.6784 62.4468L65.6326 62.3434L65.5868 62.2745H65.205L65.1134 62.309L64.9149 62.2745H64.8996L64.8538 62.309L64.6859 62.2401L64.4721 62.0678L64.4263 62.0334L64.2736 61.8784L64.2278 61.6716L64.182 61.6372L63.9834 61.8094L64.0751 61.8956L63.846 62.1023V62.154H63.8155L63.8002 62.1712L63.6628 62.2056H63.5101L63.4643 62.1712L63.4185 62.1884L63.3268 62.1712L63.1741 62.2918L63.052 62.2573H63.0062L62.8077 62.3262L62.7618 62.1367L62.7466 62.1195H62.6855L62.6397 62.0162H62.5633V61.93L62.4717 62.0162L62.2885 61.8611L62.2427 61.775L62.0442 61.5855L61.8762 61.1893L61.8304 61.1377H61.7998L61.6471 60.9999L61.5097 60.9654L61.4181 60.7415L61.3875 60.707L61.3417 60.6726V60.6554L61.0669 60.4142H61.1585L60.8684 60.242L61.2501 60.1903L61.2348 60.1386V60.0525L61.2501 60.018L60.8684 59.8802H61.3265L61.5402 59.6907V59.8802H61.5861L61.6319 59.9147L61.7235 59.8285L61.7693 59.9147L61.8456 59.8458L61.9678 59.9491L62.0747 60.0525V60.1041L62.1816 60.242L62.2121 60.2936H62.3037L62.3496 60.3625H62.6397L62.6702 60.3798L62.7466 60.3109L62.8382 60.5348L62.9145 60.707L63.0214 60.6898L63.1741 60.7243L63.1894 60.7415H63.2963L63.3421 60.7759H63.4185L63.5712 60.9137L63.5406 60.931L63.6322 60.9654H63.7239L63.8155 61.0171L63.9071 60.9826L64.0903 61.0171L64.182 61.0688L64.243 61.0343L64.411 60.931H64.4874L64.5637 60.8793L64.7011 60.8448L64.9607 60.8965H65.0065V60.931L65.0676 61.0171L65.1134 61.1377L65.205 61.2755V61.3099H65.4799L65.5104 61.3271L65.541 61.3099H65.6631L65.7548 61.3788L65.9227 61.3616L66.0144 61.396H66.2129L66.2434 61.4133L66.2892 61.3788L66.3503 61.396H66.4114H66.6099L66.6557 61.4994L66.6862 61.5166L66.7626 61.5338L66.7779 61.5166L66.8237 61.4822H67.0527V61.5166H67.1443L67.2207 61.4822H67.3734V61.4477L67.4955 61.3444L67.5414 61.3616H67.7093L67.7551 61.396H67.8315L67.862 61.4133L67.9231 61.3616H68.1369L68.1827 61.3788L68.2285 61.3616H68.2743L68.3659 61.2755L68.4576 61.3616L68.4881 61.3788L68.5492 61.3616H68.7171L68.8546 61.4822L68.9004 61.6027H69.0226V61.62L69.1905 61.5683V61.7405L69.2516 61.7922L69.2974 61.8956L69.3432 61.93L69.3585 61.9473V61.9645L69.389 62.0162H69.4806L69.6028 62.0851L69.6792 62.0334L69.7861 61.9989L69.8777 62.2056L69.8319 62.2229L69.8013 62.2401L69.8777 62.3262L70.0915 62.3951L70.2136 62.3262V62.2401H70.5954L70.4579 62.5157H70.0304L69.954 62.6018H69.9082L69.8471 62.6535V62.7052H69.8624V62.8085L69.954 62.8946L70.2289 63.0669L70.29 63.0841L70.3358 63.0669L70.5343 62.9635L70.5954 62.9291V62.9119L70.6564 62.8085V62.7741L70.5648 62.6879L70.6717 62.5157V61.8784L70.8855 62.3607L70.9313 62.3434L70.9771 62.3779L71.5268 62.1884L71.0077 62.6535L71.6795 62.8946H70.9618L70.9466 62.9119H70.9313L70.9466 62.9463L70.9771 62.9635L71.0229 63.0841V63.2047L70.9924 63.2391L71.2672 63.3425L71.0077 63.4458V63.4631L71.0993 63.6526V63.7387L71.1451 63.8593L71.0993 63.8937L71.2978 64.1521H71.1909V64.1865L71.3283 64.4449V64.6344L71.3741 64.7205L71.4658 64.755L71.5116 64.8583L71.5574 64.8928V64.9272L71.5726 64.9617H71.6185V65.0306L71.649 65.0478H71.7406V65.2373L71.8017 65.3579L71.8322 65.444L71.9086 65.5818L71.9544 65.6679L71.9849 65.7713L72.0155 65.7885L72.0613 65.8746L72.1071 65.9091H72.1529L72.2751 66.0469L72.382 66.1847L72.4278 66.3052V66.3225H72.4888V66.4775L72.5652 66.5808L72.611 66.7186V66.822L72.7179 67.0287L72.7942 67.0976L72.8859 67.0115L72.9317 66.8909L73.1149 66.7875H73.176L73.2218 66.7531L73.2523 66.7186L73.2371 66.7014L73.3287 66.5119L73.4967 66.4603L73.4661 66.2708L73.4203 66.1847V65.9435L73.5119 65.7885L73.573 65.599L73.5577 65.4957L73.4661 65.4612V65.1511L73.4203 65.0133L73.4967 64.9444L73.4356 64.8066L73.4814 64.6861L73.6646 64.531H73.8479V64.4966L74.0006 64.3588L74.1685 64.3932L74.2144 64.3588L74.1838 64.3243L74.2449 64.1865L74.3823 64.0832L74.5198 64.066L74.5656 64.0315L74.6114 63.9454L74.9626 63.7042L75.0389 63.5664L75.1 63.532L75.1916 63.2908H75.3443L75.4207 63.2564H75.5276L75.5887 63.308L75.6345 63.2908V63.2736L75.6955 63.2391L75.5581 63.1186H75.8024L75.8177 63.1013L75.8482 63.0841V63.0669L75.833 63.0324L75.7566 62.9635L75.8482 62.7396L75.9246 62.6707L76.1384 62.6018L76.1689 62.5846V62.5157L76.1842 62.4985L76.1689 62.4812V62.2918H76.3827L76.5049 62.3262V62.2573L76.7186 62.4468H76.795L76.9019 62.3434L76.8713 62.309H76.963L77.2531 62.0506V62.0678L77.4821 62.0162L77.5127 62.0678L77.5432 62.0851H77.589L77.6501 62.1367L77.6959 62.154V62.1367H77.7417L77.8028 62.1195L77.7723 62.1367H77.8639L77.9708 62.4123L78.0166 62.4468V62.464L78.0777 62.4123V62.7568L78.1235 62.8085L78.1693 62.8774H78.2151L78.2304 62.8946L78.3373 62.9291V62.8602L78.4289 62.9463H78.7495L78.5968 63.0841L78.6274 63.1013L78.6579 63.1186L78.7495 63.153L78.8717 63.2908V63.4458L78.9328 63.4975V63.6009L78.9939 63.7215L79.0091 63.7559L79.2076 63.8248L79.1313 63.8937L79.1466 63.9109V64.066L79.1924 64.1521L79.284 63.8765V64.2554L79.3145 64.2727L79.284 64.2899V64.5483L79.3298 64.6344H79.3909L79.4672 64.5999L79.5283 64.4621L79.4825 64.376H79.7421V64.3243L79.3603 63.9798L80.078 64.2382V64.2727L80.1238 64.3071L80.2002 64.4277L80.2307 64.4449L80.4292 64.2727V64.5827L80.414 64.5999L80.4292 64.6172V64.7205L80.4598 64.7377L80.4903 64.91H80.5056V65.065L80.7499 65.289H80.1086V65.3406L80.2613 65.4784L80.3071 65.5473L80.3529 65.5818L80.3987 65.7713L80.4292 65.7885L80.5056 65.9263L80.4598 65.9607V65.978L80.4751 66.0124L80.6583 66.1502L80.5972 66.2019L80.643 66.288L80.5514 66.3741V66.4947H80.7041V66.4086L80.7957 66.3225L80.8415 66.0813L80.9332 65.9952L80.979 65.9263L81.0553 65.8574L80.9942 65.8057L81.0859 65.7196V65.6851L81.1011 65.6507L80.9026 65.5818L81.0248 65.4784V65.22L81.1928 65.3579L81.2386 65.3234L81.3149 65.3923L81.4065 65.3579L81.4523 65.3923H81.4981L81.6203 65.4268L81.7577 65.5473L81.6661 65.6335V65.6507L81.7119 65.7196L81.8646 65.7713L81.9563 65.8574V65.8746L82.0173 65.8918L82.2311 66.0813H82.3533L82.4602 66.2191V66.2536L82.4754 66.2363L82.5671 66.4603L82.7808 66.2708V66.4603H83.3V66.4086H83.4985L83.5291 66.4258L83.7428 66.2363V66.4258L83.7581 66.4086L83.8039 66.443H83.8192L83.9414 66.3914L83.9872 66.3569V66.3225L84.2009 66.2536L84.2773 66.1847L84.3078 66.1158L84.3536 66.0124L84.2926 65.8746L84.3842 65.8402L84.3689 65.8229V65.6851L84.43 65.6335L84.4147 65.6162L84.3689 65.5818V65.4784L84.3231 65.3579L84.3689 65.3234L84.3231 65.2545L84.3689 65.22L84.3536 65.2028L84.3078 65.0995L84.262 65.065L84.2162 64.9617L84.0788 64.8411L84.1246 64.8066L84.0482 64.7377V64.7205L84.0024 64.6172L83.9414 64.5655L83.7581 64.4449L83.7276 64.376L83.5749 64.2899L83.3 64.1865V64.6344L83.071 64.1176L82.9488 64.0143L82.8725 63.9626L82.5212 63.842L82.7045 63.7731L82.7503 63.6526V63.4803L82.7961 63.4458L82.8419 63.3769L82.9793 63.2564L83.0252 63.2908V63.1875L82.9335 63.1013L83.0252 63.0152V62.9291H83.1779L83.2695 62.843L83.3916 62.8085H83.468L83.3458 62.7052H83.636L83.7276 62.619L83.7581 62.6363L83.865 62.3779L83.9872 62.6535L84.0177 62.6363L84.0941 62.7052L84.1399 62.619L84.2926 62.6707L84.3995 62.6363L84.5216 62.7396V62.8085L84.5674 62.7741L84.4147 62.6363H84.7049L84.9186 62.4468V62.5501H85.2546L85.3462 62.5157L85.392 62.5329L85.4531 62.5157L85.4989 62.4812L85.5142 62.4468V62.2573L85.6821 62.3951V62.3779L85.6363 62.309V62.0506L85.9112 62.154L86.0028 62.2401L86.0792 62.2229L86.1708 62.1367L86.2471 62.2056L86.2624 62.1884H86.4304L86.4762 62.1712L86.6136 62.0678L86.3998 61.5855L86.7816 61.93L86.8885 61.8956L86.9037 61.8611H86.9496L86.9954 61.7922H87.0412L86.751 61.5338H86.9801L87.1939 61.0515L87.2702 61.0343L87.2244 60.9999H86.8732L86.9648 60.9137L86.8885 60.8448H87.0259L87.1786 60.707L87.1939 60.6898H87.2855L87.4382 60.3453L87.484 60.4314L87.4993 60.4142L87.5145 60.3798H87.5298L87.5909 60.2936L87.5603 60.2764L87.6367 60.2075L87.6214 60.1903H87.5451V60.0008L87.6825 59.8974V59.8113L87.6062 59.7424L87.6825 59.7252V59.6391L87.6367 59.6735L87.4535 59.6046L87.4076 59.5702L87.3771 59.5874L87.1175 60.1558V59.6563L86.8274 59.7596L87.1175 59.5013V59.4668L87.2244 59.3635L87.0564 59.174L87.4229 59.3118V59.2946L87.5145 59.2084H87.5451L87.6062 59.1395L87.6367 59.1223L87.6062 59.0879L87.4382 58.9845L87.3008 58.8984L87.2091 58.8123L87.1175 58.8639L86.9648 58.8123L86.8579 58.7261L86.8274 58.7434L86.7358 58.7089L85.9723 59.6046L86.5373 58.5022L86.7358 58.4333L86.751 58.4505L86.7663 58.4333L86.8732 58.4677L87.0412 58.4161L87.0717 58.4677L87.2855 58.5022L87.1786 58.3644V58.2783L87.0412 58.1921V58.1232L86.9343 58.0888L86.9801 57.9854L86.9037 57.8476L86.7968 57.8132L86.5983 57.8821V57.7443L86.3846 57.6754V57.3998L86.4151 57.3137L86.3693 57.2275L86.4762 56.9519L86.5831 57.0553L86.6136 57.0381L86.5525 56.9864L86.751 56.8141H86.7816V56.7452L86.8274 56.728L86.69 56.6074L86.9801 56.5041L87.0259 56.5213L87.0412 56.5041H87.1175L87.1481 56.4868H86.8579L86.751 56.3835L86.7205 56.3318L86.6594 56.349V56.4007L86.6136 56.4352L86.5373 56.5902L86.4304 56.6935L86.3235 56.6591L86.2777 56.6763H86.0792L85.9417 56.4179V56.5557L85.8501 56.4524L85.789 56.5041V56.4007L85.6516 56.2629L85.6211 56.2457L85.5294 56.194L85.3767 56.1423V56.0218L85.3309 55.9012L85.3767 55.8667V55.8323L85.4225 55.7978V55.7289L85.4684 55.6945V55.5395L85.7585 55.5911H85.7738L85.6669 55.4878H85.8043L85.8806 55.4189L85.9265 55.2294L86.125 55.1088H86.1861L86.2319 55.0744V54.971L86.3235 54.8849L86.2929 54.8677L86.3387 54.8332L86.3846 54.7126H86.5831L86.6594 54.5404L86.8732 54.816L87.087 54.9193V55.0916L86.9954 55.1777L86.9496 55.2294V55.3155L87.2702 55.0399L87.1786 55.2122H87.2855L87.4382 55.1088L87.5145 55.1605H87.5451L87.7283 54.9366L87.8199 55.1261L87.8657 55.1433L88.0185 55.195H88.049L88.0948 55.1605H88.3544L88.2628 55.3844L88.2933 55.4361L88.2017 55.5739V55.6256H88.2322L88.5987 55.4878H88.5682L88.4918 55.2811L88.5224 55.2639L88.5071 55.2466V55.1088L88.614 55.0227L88.6598 54.9366L88.8125 54.8849H88.8583L88.8736 54.8677L88.9041 54.8504V54.816L89.0568 54.6782L89.011 54.6437L89.1179 54.5576V54.3509L89.0415 54.282V54.1098L89.0874 53.9375V53.7653H89.179L89.3011 53.6619H89.3317L89.3622 53.593L89.4996 53.5586L89.5149 53.5241L89.5455 53.5069V53.4035L89.6218 53.3346V53.2657L89.744 53.1624L89.8509 53.1968L89.9577 53.1624L90.0799 53.2657V53.3518L90.1257 53.3691L90.1563 53.4207L90.2021 53.3863L90.2479 53.4207L90.2631 53.4035L90.3548 53.3691L90.4006 53.3346H90.4769L90.5227 53.3002L90.5685 53.2657L90.4769 53.1796L90.6449 53.1107V53.0935L90.5227 52.8179L90.7365 52.904L90.7212 52.8695L90.7671 52.8351V52.7317L90.8434 52.6973V52.6628L90.9198 52.6112L90.9808 52.4734L91.0114 52.4561L91.0877 52.1978L91.1488 52.1116V51.9222L91.2404 51.836L91.3015 51.8533L91.3626 51.7843L91.3473 51.7671L91.2862 51.5949L91.3779 51.5087L91.332 51.3709L91.4237 51.2848V51.147H91.7443L91.7749 51.1126V51.0092L91.8512 50.9403L91.836 50.9231L91.7901 50.7681L91.836 50.6475V50.5097H91.7291ZM52.2866 47.5642L52.3172 47.5469V47.5125C52.3019 47.5297 52.2866 47.5469 52.2866 47.5642ZM82.9793 66.7531L83.0099 66.7359L82.9183 66.7186L83.0099 66.8048V66.8392L83.0252 66.8565L83.071 66.8392L83.1473 66.8565L83.1931 66.8392L82.9793 66.7531ZM80.4598 66.6153V66.7186L80.5056 66.7014V66.6497L80.4598 66.6153ZM82.6739 66.667L82.7045 66.6842L82.7198 66.667H82.6739ZM89.408 66.2708L89.3469 66.288V66.3741H89.3775L89.3928 66.3569L89.4386 66.3225L89.408 66.2708ZM90.2784 65.9435V65.9952L90.3242 66.0469L90.3853 66.0985V66.0813L90.2784 65.9435ZM88.7361 65.2717H88.7972L88.8278 65.2545L88.8583 65.289V65.1856L88.7361 65.2717ZM88.8583 65.289L88.8736 65.3062V65.289H88.8583ZM88.7667 65.0995L88.7972 65.1339L88.7667 65.0995ZM89.0415 64.2554L88.9957 64.2382L88.9194 64.0487L88.9347 64.0143L88.7667 63.9798L88.6903 63.9109L88.6445 63.8937V63.9109L88.5529 64.0143L88.5682 64.0315V64.2038L88.5224 64.376L88.4918 64.4277L88.5376 64.5138V64.6344L88.446 64.6861L88.4155 64.7722L88.4307 64.8066L88.4766 64.8928V64.9444H88.5834V64.9789H88.6751L88.7667 65.0822L88.7361 65.0133V64.8928L88.7667 64.8583L88.7209 64.7722L88.9347 64.5827L89.011 64.4621L89.0263 64.4277L89.0415 64.3416V64.2554ZM84.8881 63.2908L84.7812 63.3253L84.7354 63.2908L84.659 63.3253L84.6132 63.2908H84.5827H84.4453H84.43H84.3842L84.3536 63.3597L84.2468 63.4458L84.2009 63.4803L84.2162 63.4975V63.6181L84.2468 63.687V63.7042L84.2926 63.7387H84.3536L84.3995 63.7731H84.4911V63.7215L84.6438 63.6698V63.6353L84.7812 63.6009L84.7659 63.5664L84.8117 63.4286L84.8576 63.3942L84.9034 63.3253L84.9339 63.308L84.8881 63.2908ZM84.3231 62.8946V62.9635H84.1857L84.1704 62.998L84.2162 63.0324L84.2773 63.0669L84.3689 62.9808V62.9635L84.3231 62.8946ZM88.4918 61.4133L88.446 61.3616L88.4002 61.396L88.3544 61.4305L88.3391 61.4477L88.3849 61.4649L88.2933 61.6027L88.278 61.6544L88.1864 61.7922L88.1406 61.8784V62.0851L88.1864 62.1023V62.2056H88.2628V62.2918L88.3391 62.1884L88.4155 62.1023L88.4002 62.0851L88.446 61.8956L88.4613 61.8439L88.446 61.7061L88.5071 61.62L88.5376 61.4822V61.4133H88.4918ZM77.2073 62.154V62.2573L77.2378 62.2401L77.2073 62.154ZM86.9801 61.3788L86.8274 61.5166H86.9037L87.0106 61.4133L86.9801 61.3788ZM87.1175 61.2755L87.1481 61.241L87.0412 61.3271L87.1633 61.2927L87.1175 61.2755ZM91.3931 58.2094L91.4695 58.1405H91.4389V58.0716H91.3779L91.2862 57.9338H91.2099L91.1335 57.8476H91.0877L91.0725 57.8821L90.9961 57.9165L91.0725 57.9854L91.1488 58.106L91.2099 58.2094V58.3299L91.1793 58.4161L91.3931 58.6056H91.4084L91.3779 58.5711L91.4237 58.3816L91.3931 58.2094ZM48.7592 57.9682L48.744 57.8132L48.6982 57.796L48.5607 57.6065L48.6218 57.4515L48.6523 57.4342L48.6065 57.3998L48.5302 57.2964L48.4996 57.2792H48.4844C48.4386 57.6582 48.3928 58.0371 48.3775 58.4333L48.6065 58.3127L48.6371 58.2955L48.5913 58.261L48.6829 58.1749L48.7592 57.9682ZM56.4706 58.2955L56.4401 58.2783L56.3484 58.3299H56.4553L56.5164 58.2955H56.4706ZM91.8207 57.7615L91.8054 57.796L91.8512 57.8649L91.897 57.7787L91.9276 57.7615H91.8207ZM92.2788 57.6065L92.2177 57.572L92.1719 57.5893L92.1566 57.6582L92.233 57.6754L92.2635 57.6926V57.6754L92.3093 57.6409V57.6237L92.2788 57.6065ZM93.3019 57.1414V57.1586V57.1414ZM94.2639 55.195V55.1433L94.2333 55.0571L94.2486 55.0227L94.2028 54.8849L94.1723 54.8504H94.1265L94.0654 54.7471L94.0348 54.6265L94.0043 54.5921L93.8211 54.437L93.6684 54.5404L93.6225 54.5059V54.5404H93.6378L93.6989 54.6437L93.6684 54.7299L93.7447 54.8677L93.7905 55.0571L93.7447 55.1605L93.7905 55.2983L93.7142 55.5222L93.7752 55.6256L93.6684 55.7634L93.6073 55.7978L93.592 55.8323V55.9529L93.5462 56.0218L93.5157 56.1423L93.3935 56.2112L93.195 56.3318L93.1492 56.349L93.1034 56.4524L92.9049 56.3663V56.4352L92.8285 56.5385V56.5902L92.7827 56.6246L92.8132 56.6419V56.6591H92.9201L92.798 56.8141L92.8438 56.8486L92.5995 56.9864L92.5384 56.9519L92.4926 56.9692H92.3399L92.3246 56.9002L92.2024 56.9347L92.0803 56.9692H92.0039L91.9123 56.9864L91.7749 57.0381L91.7138 56.9864L91.6527 57.0208L91.6222 57.107L91.5764 57.1414V57.1586L91.4084 57.3137L91.3626 57.3481L91.332 57.3653L91.2862 57.4515L91.1946 57.5031V57.5204L91.332 57.4859L91.3779 57.5031V57.4515L91.4389 57.3481H91.5764L91.6222 57.3653L91.668 57.3481L91.8054 57.3309L91.9123 57.2964H91.9581L92.0497 57.262L92.2177 57.1759L92.3093 57.1414H92.5231L92.6605 57.2275V57.3481L92.6147 57.417V57.4859L92.7674 57.6237L92.7216 57.6409L92.7522 57.7443L92.7827 57.7098V57.6582L92.8285 57.6237V57.5893L92.9049 57.4687L92.9354 57.4515L92.9049 57.4342L92.8132 57.3481L92.8743 57.1759L92.9659 57.0897H93.3324L93.2561 57.1586L93.2713 57.1759L93.424 57.1931V57.0725L93.592 56.9864H93.6989L93.7294 56.9692L93.7752 56.9519L93.8669 56.7624L93.989 56.728H94.157L94.0807 56.6246V56.2285L94.1265 56.0907L94.0501 55.9184L93.9585 55.7806V55.6773L93.989 55.505L94.1417 55.4361V55.4017L94.1265 55.35V55.2122L94.2639 55.195ZM49.8892 57.5548L49.9656 57.3481H49.935L49.9198 57.3309L49.8739 57.3653H49.6754L49.538 57.3998L49.3853 57.3826L49.4311 57.417L49.5227 57.4515L49.5685 57.4859L49.6754 57.5204L49.7518 57.5031L49.8739 57.6065L49.9045 57.6409L49.9503 57.6582L49.9656 57.6409V57.6237L49.8892 57.5548ZM89.7898 56.9175L89.7745 56.8486L89.5913 57.0036V56.6763L89.5607 56.5041L89.4691 56.4179V56.2629L89.3011 56.0734L89.1484 55.9356L88.7667 56.0734L88.8583 56.2112L88.9652 56.3146L88.9194 56.349L88.9347 56.3663L89.0721 56.6419L88.8583 56.6074L88.8888 56.6419V56.6591L89.0721 56.9175L88.9347 57.0036V57.1242L88.8888 57.1586L88.9347 57.262V57.1759L89.1179 57.3309L89.3011 57.1931L89.3928 57.1586L89.4233 57.1242H89.5913L89.6982 57.0208H89.744L89.6982 56.9864L89.7898 56.9175ZM52.3782 56.9347L52.4393 56.9864L52.4699 56.9347H52.3782ZM52.4699 56.9175L52.4546 56.9347L52.4699 56.9175ZM52.6684 57.0208L52.5767 56.9347L52.7294 56.883L52.6989 56.8658L52.5462 56.9175L52.5004 56.9002L52.4851 56.9175L52.6073 57.1759L52.6684 57.1931L52.7294 57.2275L52.6836 57.1414V57.0208H52.6684ZM94.2486 56.883V56.9002L94.2792 56.883H94.2486ZM50.4695 56.8314V56.8658L50.5153 56.8486V56.7969L50.4695 56.8314ZM94.2639 56.6763L94.2792 56.7452L94.3097 56.728L94.2639 56.6763ZM50.6375 56.4696H50.5306L50.5 56.4524L50.5306 56.5385L50.5764 56.6246V56.6419H50.5458V56.6763L50.6222 56.6074H50.6375L50.6833 56.5213L50.6375 56.4696ZM50.5611 55.6945L50.4542 55.6773H50.3015L50.2252 55.5222V55.4706L50.1946 55.4533H50.0267L49.9808 55.4189L49.8892 55.3844L49.8434 55.2983L49.7671 55.2466L49.5991 55.1088L49.5533 55.0055V54.9538L49.5075 54.9193V54.8332L49.309 54.6265L49.2784 54.5921L49.2326 54.5748L49.0341 54.5059C48.973 54.7299 48.9119 54.9538 48.8509 55.195L48.8967 55.2639L48.9272 55.2811L49.0646 55.4533L49.1715 55.5222L49.37 55.5911V55.6084L49.3853 55.5911L49.5227 55.6256H49.6449L49.7212 55.7462L49.8892 55.8151H50.0267L50.103 55.9529V55.9701H50.1335L50.1641 56.039L50.1794 56.0218L50.3931 56.1079L50.4237 56.2457V56.1596L50.5306 56.1251V55.9356L50.5764 55.9012L50.6222 55.8323L50.6985 55.7634L50.5611 55.6945ZM89.1026 55.9012L88.9652 55.6428L88.9499 55.6084L88.6751 55.4878L88.6445 55.4533L88.2628 55.7978H88.217V55.884L88.2475 55.9012L88.3544 55.7978L88.5071 55.9356H89.1332L89.1026 55.9012ZM86.8579 55.2983L86.8732 55.3155L86.9037 55.2983H86.8579ZM56.4401 53.8514L56.2721 53.9892L56.2263 54.0064L56.3179 53.972L56.4706 53.8686L56.4401 53.8514ZM93.3935 53.8169L93.4088 53.8342L93.4393 53.8169H93.3935ZM56.1805 53.7308L56.1041 53.748L56.2568 53.8169L56.3026 53.7308V53.6275L56.1805 53.7308ZM94.7067 52.9901L94.554 52.9212V52.8868L94.5082 52.904H94.2333L94.1723 52.8351H94.0959L93.9432 52.7662L93.9127 52.7317H93.8363L93.76 52.6284L93.6684 52.5939L93.4851 52.4389L93.4546 52.37H93.4088L93.3324 52.3356L93.424 52.4734L93.4698 52.5767L93.5004 52.7145L93.4851 52.749L93.5004 52.7834L93.592 53.0073H93.5004L93.5157 53.0418L93.5462 53.059L93.6684 53.214L93.5767 53.2485L93.5615 53.3002L93.4546 53.4035L93.363 53.3691V53.4035L93.3782 53.3863L93.5004 53.4724L93.5309 53.4552L93.6531 53.3691H93.8363L93.8516 53.3863L93.9585 53.3518L94.0807 53.5069L94.1417 53.5413L94.2333 53.5758L94.2639 53.4724L94.325 53.3346L94.4471 53.2657L94.5846 53.1968L94.5998 53.214L94.7678 53.1451V53.059L94.7067 52.9901ZM93.2408 51.1815L93.195 51.147H93.1339L93.0728 51.0781L93.0881 51.0953V51.1126L93.195 51.2159L93.1644 51.3193L93.2561 51.2848V51.1987L93.2408 51.1815ZM93.1034 49.769L93.0881 49.7518L92.9965 49.7345V49.614L92.9049 49.5278L92.8132 49.3556L92.7674 49.2867L92.63 49.1317L92.5842 49.0283L92.5231 48.9766V48.9422H92.4009L92.3399 48.7872V48.7699L92.233 48.6666L92.1872 48.5805L92.1261 48.5115V48.167L92.0803 48.1498L91.9428 48.0292V47.9948L91.9123 47.9603V47.857L91.8818 47.8398L91.836 47.7709L91.8207 47.7536V47.8398L91.668 47.8742H91.6374L91.6527 47.9431L91.7138 47.9948L91.8207 48.1326V48.2704L91.836 48.2876V48.4254L91.9123 48.5805L91.9276 48.6149L92.0192 48.6494L92.0803 48.7872L92.1108 48.8216L92.2024 48.8561L92.3399 49.0111V49.2178L92.3857 49.3039V49.3384L92.5384 49.4762L92.4926 49.5451V49.5623L92.5689 49.6484L92.6147 49.7345L92.63 49.8207L92.6758 49.9412V50.148L92.7522 50.2685L92.7216 50.3547V50.3719L92.7674 50.3891L92.9201 50.4925V50.458L92.8438 50.3719L92.8896 50.2341V50.2169L92.8285 50.1135L92.8743 50.0274L92.7674 49.8896H93.1186L93.1339 49.9068L93.1492 49.8896H93.195L93.1034 49.769ZM52.1645 48.1326V48.167H52.2103L52.1645 48.1326ZM52.2866 47.5642C52.2866 47.5814 52.2713 47.5814 52.2561 47.5986L52.3172 47.5469V47.5125C52.3019 47.5297 52.2866 47.5469 52.2866 47.5642ZM55.8598 44.9459L55.8445 44.9287H55.7376L55.7224 44.9459L55.7376 44.9631L55.7987 44.9804L55.8903 45.0665L55.9514 45.0493H55.9667L55.8598 44.9459ZM58.7 42.3966H58.6542L58.6237 42.4483V42.5516L58.6847 42.6377L58.7458 42.6205L58.7916 42.6033L58.8374 42.5516V42.4999L58.8527 42.4655L58.7 42.3966ZM60.5782 41.1736L60.4866 41.0702L60.395 41.0013L60.2423 40.9669H60.1049C60.0591 41.0013 59.998 41.0186 59.9522 41.053L59.998 41.0875L60.059 41.0358L60.3492 41.1391L60.3644 41.1564L60.4561 41.0702L60.5171 41.1908L60.5935 41.208L60.6393 41.1736H60.5782ZM59.8147 41.1391H59.7842V41.1736L59.8147 41.1908L59.8605 41.1736V41.0875L59.8147 41.1391Z" fill="url(#paint6_radial)"/>
<g opacity="0.3">
<path opacity="0.3" d="M64.2125 56.9533L67.1444 54.1973" stroke="#BBE4FF" stroke-width="0.8" stroke-miterlimit="10"/>
<path opacity="0.3" d="M62.1665 56.5408L65.1136 53.7676" stroke="#BBE4FF" stroke-width="0.8" stroke-miterlimit="10"/>
<path opacity="0.3" d="M60.1355 56.1096L63.0673 53.3535" stroke="#BBE4FF" stroke-width="0.8" stroke-miterlimit="10"/>
<path opacity="0.3" d="M58.0892 55.6971L61.0363 52.9238" stroke="#BBE4FF" stroke-width="0.8" stroke-miterlimit="10"/>
<path opacity="0.3" d="M56.0586 55.2658L58.9904 52.5098" stroke="#BBE4FF" stroke-width="0.8" stroke-miterlimit="10"/>
<path opacity="0.3" d="M54.0122 54.8518L56.9593 52.0957" stroke="#BBE4FF" stroke-width="0.8" stroke-miterlimit="10"/>
<path opacity="0.3" d="M51.9813 54.4412L54.9132 51.668" stroke="#BBE4FF" stroke-width="0.8" stroke-miterlimit="10"/>
<path opacity="0.3" d="M49.9353 54.006L52.8824 51.25" stroke="#BBE4FF" stroke-width="0.8" stroke-miterlimit="10"/>
<path opacity="0.3" d="M47.9041 53.5936L50.8359 50.8203" stroke="#BBE4FF" stroke-width="0.8" stroke-miterlimit="10"/>
<path opacity="0.3" d="M45.8578 53.1662L48.7896 50.4102" stroke="#BBE4FF" stroke-width="0.8" stroke-miterlimit="10"/>
<path opacity="0.3" d="M43.8274 52.7498L46.7592 49.9766" stroke="#BBE4FF" stroke-width="0.8" stroke-miterlimit="10"/>
<path opacity="0.3" d="M41.7808 52.3185L44.7126 49.5625" stroke="#BBE4FF" stroke-width="0.8" stroke-miterlimit="10"/>
<path opacity="0.3" d="M39.7496 51.9084L42.6815 49.1523" stroke="#BBE4FF" stroke-width="0.8" stroke-miterlimit="10"/>
<path opacity="0.3" d="M37.7042 51.492L40.6361 48.7188" stroke="#BBE4FF" stroke-width="0.8" stroke-miterlimit="10"/>
<path opacity="0.3" d="M35.6727 51.0627L38.6046 48.3066" stroke="#BBE4FF" stroke-width="0.8" stroke-miterlimit="10"/>
</g>
<g opacity="0.4">
<path opacity="0.4" d="M46.9271 74.4181L51.0042 75.865" stroke="#BBE4FF" stroke-width="0.5" stroke-miterlimit="10"/>
<path opacity="0.4" d="M48.3629 73.1621L52.4247 74.5918" stroke="#BBE4FF" stroke-width="0.5" stroke-miterlimit="10"/>
<path opacity="0.4" d="M49.7828 71.8887L53.8447 73.3356" stroke="#BBE4FF" stroke-width="0.5" stroke-miterlimit="10"/>
<path opacity="0.4" d="M51.203 70.6309L55.2801 72.0778" stroke="#BBE4FF" stroke-width="0.5" stroke-miterlimit="10"/>
<path opacity="0.4" d="M52.6234 69.3711L56.7005 70.8008" stroke="#BBE4FF" stroke-width="0.5" stroke-miterlimit="10"/>
<path opacity="0.4" d="M54.0581 68.1152L58.1199 69.5449" stroke="#BBE4FF" stroke-width="0.5" stroke-miterlimit="10"/>
<path opacity="0.4" d="M55.4783 66.8418L59.5401 68.2887" stroke="#BBE4FF" stroke-width="0.5" stroke-miterlimit="10"/>
<path opacity="0.4" d="M56.8984 65.584L60.9755 67.0137" stroke="#BBE4FF" stroke-width="0.5" stroke-miterlimit="10"/>
<path opacity="0.4" d="M58.334 64.3242L62.3958 65.7539" stroke="#BBE4FF" stroke-width="0.5" stroke-miterlimit="10"/>
<path opacity="0.4" d="M59.754 63.0488L63.8159 64.4958" stroke="#BBE4FF" stroke-width="0.5" stroke-miterlimit="10"/>
<path opacity="0.4" d="M61.1744 61.7949L65.2515 63.2418" stroke="#BBE4FF" stroke-width="0.5" stroke-miterlimit="10"/>
<path opacity="0.4" d="M62.6095 60.5391L66.6713 61.9687" stroke="#BBE4FF" stroke-width="0.5" stroke-miterlimit="10"/>
<path opacity="0.4" d="M64.0299 59.2617L68.0917 60.7086" stroke="#BBE4FF" stroke-width="0.5" stroke-miterlimit="10"/>
<path opacity="0.4" d="M65.45 58.002L69.5118 59.4489" stroke="#BBE4FF" stroke-width="0.5" stroke-miterlimit="10"/>
<path opacity="0.4" d="M66.8696 56.7461L70.9467 58.1758" stroke="#BBE4FF" stroke-width="0.5" stroke-miterlimit="10"/>
</g>
<path d="M96.6922 49.1818C100.158 54.625 101.67 60.0854 100.067 61.3773C98.4635 62.6692 94.3711 59.3103 90.9201 53.8499C87.4691 48.3895 85.9421 42.9463 87.5454 41.6544C89.1335 40.3625 93.2259 43.7386 96.6922 49.1818Z" fill="url(#paint7_linear)"/>
<path d="M47.0037 67.0959C43.4763 61.7044 41.9035 56.2612 43.4916 54.9521C45.0644 53.643 49.2026 56.9503 52.73 62.3418C56.2573 67.7333 57.8302 73.1764 56.2421 74.4856C54.654 75.8119 50.5158 72.5047 47.0037 67.0959Z" fill="url(#paint8_linear)"/>
<rect x="84.5829" y="38.8301" width="12.216" height="13.7802"/>
<rect x="60.3036" y="60.3613" width="12.9795" height="14.6415"/>
<rect x="90.8435" y="55.1973" width="12.0633" height="13.7802"/>
<rect x="44.5757" y="38.3145" width="12.0633" height="13.7802"/>
<path opacity="0.26" d="M32.7871 48.6152L108.236 64.6864" stroke="#BBE4FF" stroke-width="0.5" stroke-miterlimit="10"/>
<path opacity="0.26" d="M92.3862 37.8477L48.0574 75.9499" stroke="#BBE4FF" stroke-width="0.5" stroke-miterlimit="10"/>
<g opacity="0.6">
<mask id="mask0" mask-type="alpha" maskUnits="userSpaceOnUse" x="29" y="33" width="82" height="47">
<g opacity="0.6">
<g opacity="0.6">
<rect x="29" y="33.6641" width="82" height="46.3359"/>
</g>
</g>
</mask>
<g mask="url(#mask0)">
<g opacity="0.75">
<path opacity="0.75" d="M69.9693 79.5508C92.3853 79.5508 110.557 69.371 110.557 56.8135C110.557 44.256 92.3853 34.0762 69.9693 34.0762C47.5533 34.0762 29.3816 44.256 29.3816 56.8135C29.3816 69.371 47.5533 79.5508 69.9693 79.5508Z" fill="#083D7C"/>
</g>
</g>
</g>
<g opacity="0.4">
<path opacity="0.26" d="M70.3056 76.7951C90.2169 76.7951 106.358 67.9186 106.358 56.9689C106.358 46.0191 90.2169 37.1426 70.3056 37.1426C50.3943 37.1426 34.2531 46.0191 34.2531 56.9689C34.2531 67.9186 50.3943 76.7951 70.3056 76.7951Z" stroke="#BBE4FF" stroke-miterlimit="10"/>
<path opacity="0.26" d="M70.3053 78.4143C91.8442 78.4143 109.305 68.8129 109.305 56.9689C109.305 45.1249 91.8442 35.5234 70.3053 35.5234C48.7664 35.5234 31.3057 45.1249 31.3057 56.9689C31.3057 68.8129 48.7664 78.4143 70.3053 78.4143Z" stroke="#BBE4FF" stroke-miterlimit="10"/>
<path opacity="0.26" d="M70.3055 74.8306C88.2349 74.8306 102.77 66.8333 102.77 56.9681C102.77 47.1028 88.2349 39.1055 70.3055 39.1055C52.3761 39.1055 37.8414 47.1028 37.8414 56.9681C37.8414 66.8333 52.3761 74.8306 70.3055 74.8306Z" stroke="#BBE4FF" stroke-miterlimit="10"/>
<path opacity="0.26" d="M70.3054 73.0764C86.4806 73.0764 99.5933 65.8657 99.5933 56.9708C99.5933 48.076 86.4806 40.8652 70.3054 40.8652C54.1301 40.8652 41.0175 48.076 41.0175 56.9708C41.0175 65.8657 54.1301 73.0764 70.3054 73.0764Z" stroke="#BBE4FF" stroke-miterlimit="10"/>
<path opacity="0.26" d="M70.3054 71.5118C84.9036 71.5118 96.7378 65.0028 96.7378 56.9737C96.7378 48.9445 84.9036 42.4355 70.3054 42.4355C55.7072 42.4355 43.873 48.9445 43.873 56.9737C43.873 65.0028 55.7072 71.5118 70.3054 71.5118Z" stroke="#BBE4FF" stroke-miterlimit="10"/>
<path opacity="0.26" d="M70.3054 70.0801C83.4699 70.0801 94.1418 64.2113 94.1418 56.9717C94.1418 49.7321 83.4699 43.8633 70.3054 43.8633C57.1408 43.8633 46.4689 49.7321 46.4689 56.9717C46.4689 64.2113 57.1408 70.0801 70.3054 70.0801Z" stroke="#BBE4FF" stroke-miterlimit="10"/>
<path opacity="0.26" d="M70.3056 68.8062C82.1883 68.8062 91.8211 63.508 91.8211 56.9724C91.8211 50.4368 82.1883 45.1387 70.3056 45.1387C58.423 45.1387 48.7902 50.4368 48.7902 56.9724C48.7902 63.508 58.423 68.8062 70.3056 68.8062Z" stroke="#BBE4FF" stroke-miterlimit="10"/>
<path opacity="0.26" d="M70.3057 67.6523C81.0245 67.6523 89.7139 62.8708 89.7139 56.9726C89.7139 51.0744 81.0245 46.293 70.3057 46.293C59.5868 46.293 50.8975 51.0744 50.8975 56.9726C50.8975 62.8708 59.5868 67.6523 70.3057 67.6523Z" stroke="#BBE4FF" stroke-miterlimit="10"/>
<path opacity="0.26" d="M70.3049 66.6016C79.978 66.6016 87.8196 62.2906 87.8196 56.9727C87.8196 51.6548 79.978 47.3438 70.3049 47.3438C60.6318 47.3438 52.7902 51.6548 52.7902 56.9727C52.7902 62.2906 60.6318 66.6016 70.3049 66.6016Z" stroke="#BBE4FF" stroke-miterlimit="10"/>
<path opacity="0.26" d="M70.3054 65.6541C79.0255 65.6541 86.0946 61.7672 86.0946 56.9726C86.0946 52.1779 79.0255 48.291 70.3054 48.291C61.5853 48.291 54.5162 52.1779 54.5162 56.9726C54.5162 61.7672 61.5853 65.6541 70.3054 65.6541Z" stroke="#BBE4FF" stroke-miterlimit="10"/>
<path opacity="0.26" d="M70.3054 64.8098C78.1738 64.8098 84.5523 61.3008 84.5523 56.9723C84.5523 52.6437 78.1738 49.1348 70.3054 49.1348C62.437 49.1348 56.0585 52.6437 56.0585 56.9723C56.0585 61.3008 62.437 64.8098 70.3054 64.8098Z" stroke="#BBE4FF" stroke-miterlimit="10"/>
<path opacity="0.26" d="M70.3051 64.0498C77.406 64.0498 83.1624 60.8801 83.1624 56.9702C83.1624 53.0603 77.406 49.8906 70.3051 49.8906C63.2042 49.8906 57.4478 53.0603 57.4478 56.9702C57.4478 60.8801 63.2042 64.0498 70.3051 64.0498Z" stroke="#BBE4FF" stroke-miterlimit="10"/>
<path opacity="0.26" d="M70.3053 63.3443C76.7147 63.3443 81.9105 60.4909 81.9105 56.971C81.9105 53.4511 76.7147 50.5977 70.3053 50.5977C63.8959 50.5977 58.7001 53.4511 58.7001 56.971C58.7001 60.4909 63.8959 63.3443 70.3053 63.3443Z" stroke="#BBE4FF" stroke-miterlimit="10"/>
<path opacity="0.26" d="M70.3052 62.5526C75.9134 62.5526 80.4598 60.0539 80.4598 56.9716C80.4598 53.8893 75.9134 51.3906 70.3052 51.3906C64.697 51.3906 60.1506 53.8893 60.1506 56.9716C60.1506 60.0539 64.697 62.5526 70.3052 62.5526Z" stroke="#BBE4FF" stroke-miterlimit="10"/>
<path opacity="0.26" d="M70.3052 61.6537C75.011 61.6537 78.8259 59.5561 78.8259 56.9685C78.8259 54.3809 75.011 52.2832 70.3052 52.2832C65.5994 52.2832 61.7845 54.3809 61.7845 56.9685C61.7845 59.5561 65.5994 61.6537 70.3052 61.6537Z" stroke="#BBE4FF" stroke-miterlimit="10"/>
<path opacity="0.26" d="M70.3051 60.6407C73.9905 60.6407 76.9781 58.998 76.9781 56.9717C76.9781 54.9454 73.9905 53.3027 70.3051 53.3027C66.6197 53.3027 63.6321 54.9454 63.6321 56.9717C63.6321 58.998 66.6197 60.6407 70.3051 60.6407Z" stroke="#BBE4FF" stroke-miterlimit="10"/>
</g>
<g opacity="0.4">
<path opacity="0.26" d="M33.3058 66.6004L70.2134 56.7303L70.3509 56.6959L70.3967 56.6786L70.4272 56.6614H70.4425H70.4577H70.473H70.4883V56.6442L106.571 46.998" stroke="#BBE4FF" stroke-width="0.5" stroke-miterlimit="10"/>
<path opacity="0.26" d="M40.6965 72.5602L70.3509 56.7302L70.3967 56.6957L70.4273 56.6785H70.4425L70.4578 56.6613H70.4731H70.4884V56.6441L99.4403 41.1758" stroke="#BBE4FF" stroke-width="0.5" stroke-miterlimit="10"/>
<path opacity="0.26" d="M48.0565 75.9535L70.4118 56.7129L70.4271 56.6956H70.4424V56.6784H70.4576L70.4729 56.6612H70.4882V56.644L92.3396 37.834" stroke="#BBE4FF" stroke-width="0.5" stroke-miterlimit="10"/>
<path opacity="0.26" d="M48.0565 75.9535L70.4119 56.7129" stroke="#BBE4FF" stroke-width="0.5" stroke-miterlimit="10"/>
<path opacity="0.26" d="M54.3784 77.8128L70.4272 56.7119H70.4425V56.6946H70.4577V56.6774H70.473V56.6602H70.4883L86.2317 35.9727" stroke="#BBE4FF" stroke-width="0.5" stroke-miterlimit="10"/>
<path opacity="0.26" d="M59.7383 78.8118L70.4426 56.7118H70.4578V56.6946V56.6774H70.4731V56.6601L81.0094 34.9219" stroke="#BBE4FF" stroke-width="0.5" stroke-miterlimit="10"/>
<path opacity="0.26" d="M64.4569 79.3306L70.458 56.7139V56.6966H70.4733V56.6794V56.6622L76.3981 34.3555" stroke="#BBE4FF" stroke-width="0.5" stroke-miterlimit="10"/>
<path opacity="0.26" d="M68.8083 79.5379L70.4728 56.7144V56.6972V56.68V56.6627L72.1066 34.0977" stroke="#BBE4FF" stroke-width="0.5" stroke-miterlimit="10"/>
<path opacity="0.26" d="M73.0687 79.4862L70.4727 56.7144V56.6972V56.68V56.6627H70.4575L67.8921 34.0977" stroke="#BBE4FF" stroke-width="0.5" stroke-miterlimit="10"/>
<path opacity="0.26" d="M77.4517 79.1584L70.4733 56.7138V56.6966V56.6794H70.458V56.6622L63.5254 34.3555" stroke="#BBE4FF" stroke-width="0.5" stroke-miterlimit="10"/>
<path opacity="0.26" d="M82.2157 78.4868L70.4884 56.7141H70.4731V56.6969L70.4578 56.6797V56.6624L58.7457 34.9414" stroke="#BBE4FF" stroke-width="0.5" stroke-miterlimit="10"/>
<path opacity="0.26" d="M87.6519 77.2637L70.4884 56.714H70.4731V56.6968H70.4578V56.6795H70.4426V56.6623L53.2485 36.0781" stroke="#BBE4FF" stroke-width="0.5" stroke-miterlimit="10"/>
<path opacity="0.26" d="M94.0348 75.1122L70.4884 56.7157H70.4731V56.6984H70.4579L70.4426 56.6812L70.4273 56.664L46.7283 38.1641" stroke="#BBE4FF" stroke-width="0.5" stroke-miterlimit="10"/>
<path opacity="0.26" d="M101.288 71.2537L70.4881 56.7155H70.4728L70.4576 56.6983H70.4423L70.427 56.6811H70.3965L39.2151 41.9707" stroke="#BBE4FF" stroke-width="0.5" stroke-miterlimit="10"/>
<path opacity="0.26" d="M108.022 64.7081L70.5037 56.7156H70.4884H70.4732H70.4579H70.4426L70.4273 56.6983H70.3968H70.351L32.1301 48.5508" stroke="#BBE4FF" stroke-width="0.5" stroke-miterlimit="10"/>
<path opacity="0.26" d="M110.481 55.6782L70.5036 56.7117H70.4883H70.4731H70.4578H70.4425H70.4273H70.412L70.3509 56.729H70.2135L29.412 57.7969" stroke="#BBE4FF" stroke-width="0.5" stroke-miterlimit="10"/>
</g>
<path opacity="0.8" d="M36.0122 70C31.5875 66.3144 29 61.8603 29 57.0568C29 44.3231 47.2195 34 69.6952 34C74.3496 34 78.8356 34.4367 83 35.2576L69.8942 56.7773L36.0122 70Z" fill="url(#paint9_linear)"/>
<path opacity="0.4" d="M36.3447 69.5649L70.1373 56.5254" stroke="white" stroke-width="0.5" stroke-miterlimit="10"/>
<path opacity="0.6" d="M73.0081 39.0391C76.0774 39.0391 79.055 39.263 81.8953 39.6936C82.9184 39.8486 83.4375 41.175 82.842 42.1396C82.0327 43.4487 80.6584 44.1377 79.2688 43.931C77.2685 43.6554 75.1765 43.5004 73.0234 43.5004C58.6848 43.5004 47.0644 50.0115 47.0644 58.0385C47.0644 59.8644 47.6752 61.6214 48.7746 63.2405C49.8282 64.7736 49.248 67.0129 47.6294 67.6502C45.7511 68.3737 43.6897 67.788 42.3154 66.1861C40.2387 63.7229 39.0629 60.9668 39.0629 58.0557C39.0476 47.5656 54.2413 39.0391 73.0081 39.0391Z" fill="url(#paint10_linear)"/>
<path opacity="0.3" d="M70.153 37.4883C73.2223 37.4883 76.1999 37.7122 79.0402 38.1428C80.0632 38.2979 80.5824 39.6242 79.9869 40.5888C79.1776 41.8979 77.8033 42.587 76.4137 42.3803C74.4133 42.1046 72.3214 41.9496 70.1683 41.9496C55.8297 41.9496 44.2093 48.4608 44.2093 56.4877C44.2093 58.3136 44.8201 60.0706 45.9195 61.6898C46.9731 63.2228 46.3929 65.4621 44.7743 66.0994C42.896 66.8229 40.8346 66.2372 39.4603 64.6353C37.3836 62.1721 36.2078 59.416 36.2078 56.505C36.1925 46.0148 51.4014 37.4883 70.153 37.4883Z" fill="url(#paint11_linear)"/>
<path opacity="0.3" d="M67.3886 42.6035C69.618 42.6035 71.7864 42.7758 73.8325 43.0858C74.5808 43.2064 74.9472 44.171 74.5197 44.86C73.9394 45.8074 72.9316 46.3069 71.9238 46.1691C70.4731 45.9624 68.9461 45.8591 67.3886 45.8591C56.9744 45.8591 48.5301 50.5788 48.5301 56.4182C48.5301 57.7445 48.973 59.0192 49.767 60.1905C50.5305 61.3101 50.1182 62.9293 48.9424 63.3944C47.5834 63.9112 46.0869 63.4978 45.0944 62.3264C43.5826 60.535 42.7428 58.5369 42.7428 56.4182C42.7428 48.7874 53.783 42.6035 67.3886 42.6035Z" fill="url(#paint12_linear)"/>
<path d="M59.1528 112.242L4.13657 77.4675C3.45551 77.0437 3.03174 76.3021 3.03174 75.5L3.10742 68.2703C3.10742 67.559 3.89443 67.1201 4.49981 67.4984L59.6371 101.681C60.2273 102.044 60.5754 102.68 60.5754 103.361L60.4997 111.5C60.53 112.181 59.7581 112.62 59.1528 112.242Z" fill="url(#paint13_linear)"/>
</g>
<defs>
<linearGradient id="paint0_linear" x1="8.22001" y1="88.0831" x2="131.906" y2="88.0831" gradientUnits="userSpaceOnUse">
<stop stop-color="#E7EFF5"/>
<stop offset="0.2574" stop-color="#C3C5D2"/>
<stop offset="0.3352" stop-color="#C6C8D5"/>
<stop offset="0.3997" stop-color="#CED3DD"/>
<stop offset="0.4592" stop-color="#DDE4EC"/>
<stop offset="0.4655" stop-color="#DFE6EE"/>
<stop offset="0.5693" stop-color="#98A5B5"/>
<stop offset="0.995" stop-color="#748496"/>
</linearGradient>
<linearGradient id="paint1_linear" x1="-0.0898604" y1="88.0831" x2="133.118" y2="88.0831" gradientUnits="userSpaceOnUse">
<stop stop-color="#455173"/>
<stop offset="0.395833" stop-color="#303953"/>
<stop offset="0.521061" stop-color="#38415C"/>
<stop offset="0.578125" stop-color="#2B2F43"/>
<stop offset="1" stop-color="#2B2F43"/>
</linearGradient>
<linearGradient id="paint2_linear" x1="14.9155" y1="54.9166" x2="15.4018" y2="54.9051" gradientUnits="userSpaceOnUse">
<stop stop-color="#DFE6EE"/>
<stop offset="0.5" stop-color="#F5F7F8"/>
<stop offset="0.995" stop-color="#ABB6C3"/>
</linearGradient>
<linearGradient id="paint3_linear" x1="0.0129387" y1="55" x2="137.513" y2="51.5" gradientUnits="userSpaceOnUse">
<stop offset="0.0001" stop-color="#586382"/>
<stop offset="0.0002" stop-color="#5F6C91"/>
<stop offset="1" stop-color="#2A3C6B"/>
</linearGradient>
<linearGradient id="paint4_linear" x1="27.654" y1="78.0387" x2="101.891" y2="36.036" gradientUnits="userSpaceOnUse">
<stop stop-color="#5F6C91"/>
<stop offset="1" stop-color="#49577E"/>
</linearGradient>
<linearGradient id="paint5_linear" x1="69.9507" y1="38.7566" x2="69.9507" y2="66.9075" gradientUnits="userSpaceOnUse">
<stop stop-color="#8595B4"/>
<stop offset="0.651042" stop-color="#636F90"/>
</linearGradient>
<radialGradient id="paint6_radial" cx="0" cy="0" r="1" gradientUnits="userSpaceOnUse" gradientTransform="translate(71.8842 58.3859) scale(29.6861 26.1684)">
<stop offset="0.155" stop-color="#F3F5F7" stop-opacity="0.8"/>
<stop offset="0.4197" stop-color="#E8EBEE" stop-opacity="0.5728"/>
<stop offset="0.7377" stop-color="#D5D9DF" stop-opacity="0.3"/>
<stop offset="1" stop-color="#D4D8DE" stop-opacity="0"/>
</radialGradient>
<linearGradient id="paint7_linear" x1="94.5948" y1="62.0502" x2="92.4053" y2="39.3092" gradientUnits="userSpaceOnUse">
<stop stop-color="white" stop-opacity="0.1"/>
<stop offset="0.8003" stop-color="white" stop-opacity="0"/>
</linearGradient>
<linearGradient id="paint8_linear" x1="48.949" y1="54.2068" x2="51.4601" y2="76.9075" gradientUnits="userSpaceOnUse">
<stop stop-color="white" stop-opacity="0.1"/>
<stop offset="0.8003" stop-color="white" stop-opacity="0"/>
</linearGradient>
<linearGradient id="paint9_linear" x1="37.935" y1="79.0832" x2="71.8919" y2="29.1094" gradientUnits="userSpaceOnUse">
<stop stop-color="white" stop-opacity="0.6"/>
<stop offset="0.8003" stop-color="white" stop-opacity="0.1"/>
</linearGradient>
<linearGradient id="paint10_linear" x1="46.723" y1="75.6546" x2="73.8549" y2="35.271" gradientUnits="userSpaceOnUse">
<stop stop-color="white" stop-opacity="0.6"/>
<stop offset="0.8003" stop-color="white" stop-opacity="0.1"/>
</linearGradient>
<linearGradient id="paint11_linear" x1="43.8755" y1="74.1038" x2="71.0073" y2="33.7202" gradientUnits="userSpaceOnUse">
<stop stop-color="white" stop-opacity="0.6"/>
<stop offset="0.8003" stop-color="white" stop-opacity="0.1"/>
</linearGradient>
<linearGradient id="paint12_linear" x1="48.3116" y1="69.1865" x2="68.0128" y2="39.8629" gradientUnits="userSpaceOnUse">
<stop stop-color="white" stop-opacity="0.6"/>
<stop offset="0.8003" stop-color="white" stop-opacity="0.1"/>
</linearGradient>
<linearGradient id="paint13_linear" x1="4.88335" y1="72.8183" x2="31.3281" y2="76.1737" gradientUnits="userSpaceOnUse">
<stop stop-color="#2ED8CF"/>
</linearGradient>
<clipPath id="clip0">
<rect y="17" width="140" height="106" fill="white"/>
</clipPath>
</defs>
</svg>
