<svg width="140" height="140" viewBox="0 0 140 140" fill="none" xmlns="http://www.w3.org/2000/svg">
<g clip-path="url(#clip0)">
<path d="M75.2247 91.4825L74.2036 91.4258C70.4593 82.9162 57.0708 76.6758 41.1862 76.6758C25.6419 76.6758 13.1044 82.6325 8.7929 89.497L7.20441 89.4402V92.3902C6.41017 102.999 22.4083 114.742 40.9025 115.253C63.2545 115.877 75.2247 105.438 75.2247 94.6027C75.2247 94.3758 75.2247 94.1489 75.168 93.8652L75.2247 91.4825Z" fill="url(#paint0_linear)"/>
<path d="M75.2262 91.4833C75.2262 102.319 63.256 112.757 40.904 112.133C22.4097 111.623 6.41164 99.8794 7.20587 89.214C7.82991 80.5909 22.353 71.9111 41.1309 71.9111C59.9088 71.9111 75.2262 80.6477 75.2262 91.4833Z" fill="url(#paint1_linear)"/>
<path d="M54.4628 99.311L46.4637 106.005C44.5349 107.65 41.6984 107.764 39.5993 106.346L19.2897 92.7302C17.9849 91.8792 17.2474 90.4042 17.2474 88.8725V56.8196L56.5051 64.7052V95.0562C56.4483 96.7014 55.7109 98.2331 54.4628 99.311Z" fill="url(#paint2_linear)"/>
<path d="M22.4064 87.9324L37.4663 97.4826L38.1235 102.205L21.6717 91.6055L22.4064 87.9324Z" fill="url(#paint3_linear)"/>
<path d="M11.7434 22.1005L58.3762 16.1438L96.4425 33.39L68.8146 60.2237L11.7434 22.1005Z" fill="url(#paint4_linear)"/>
<path d="M68.2475 100.844L96.159 59.8272L96.4427 33.3906L68.4743 60.4512L68.2475 100.844Z" fill="url(#paint5_linear)"/>
<path d="M82.09 72.9055C82.09 73.3049 82.5351 73.5431 82.8673 73.3216L83.2289 73.0805C83.368 72.9878 83.4515 72.8317 83.4515 72.6645V62.723C83.4515 62.3172 82.9937 62.0804 82.6625 62.315L82.301 62.5711C82.1686 62.6648 82.09 62.8169 82.09 62.9791V72.9055ZM84.4727 69.1613C84.4727 69.5606 84.9178 69.7988 85.2501 69.5773L85.6116 69.3363C85.7507 69.2436 85.8343 69.0874 85.8343 68.9203V58.8653C85.8343 58.4595 85.3764 58.2227 85.0453 58.4573L84.6837 58.7134C84.5514 58.8071 84.4727 58.9592 84.4727 59.1214V69.1613ZM86.7987 65.4171C86.7987 65.8164 87.2437 66.0546 87.576 65.8331L87.9376 65.592C88.0767 65.4993 88.1602 65.3432 88.1602 65.176V55.1211C88.1602 54.7153 87.7023 54.4785 87.3712 54.7131L87.0097 54.9691C86.8773 55.0629 86.7987 55.215 86.7987 55.3772V65.4171ZM89.1813 61.6728C89.1813 62.0722 89.6264 62.3104 89.9587 62.0888L90.3202 61.8478C90.4593 61.7551 90.5429 61.599 90.5429 61.4318V51.3201C90.5429 50.9143 90.085 50.6775 89.7539 50.9121L89.3923 51.1682C89.26 51.2619 89.1813 51.414 89.1813 51.5762V61.6728ZM91.5641 57.8719C91.5641 58.2712 92.0091 58.5094 92.3414 58.2879L92.703 58.0468C92.8421 57.9541 92.9256 57.798 92.9256 57.6308V47.5191C92.9256 47.1134 92.4678 46.8766 92.1366 47.1111L91.7751 47.3672C91.6427 47.461 91.5641 47.6131 91.5641 47.7752V57.8719Z" fill="#2FAAAF"/>
<path d="M72.1616 113.835L71.9914 114.005C69.6655 116.217 66.0914 116.501 63.4818 114.516L2.49617 75.3713C0.907707 74.2366 0 72.3645 0 70.4357V16.3145L73.8068 51.9981V109.864C73.8635 111.395 73.2395 112.814 72.1616 113.835Z" fill="url(#paint6_linear)"/>
<path d="M72.1616 113.835L71.9914 114.005C69.6655 116.217 66.0914 116.501 63.4818 114.516L2.49617 75.3713C0.907707 74.2366 0 72.3645 0 70.4357V16.3145L73.8068 51.9981V109.864C73.8635 111.395 73.2395 112.814 72.1616 113.835Z" fill="url(#paint7_linear)"/>
<path d="M59.3974 103.737C58.9436 103.737 58.4898 103.624 58.0927 103.34L5.55993 70.7764C3.97147 69.7552 3.00704 67.9965 3.00704 66.1244V27.8878C3.00704 26.9802 3.74453 26.4128 4.48203 26.4128C4.76568 26.4128 4.99257 26.4696 5.21949 26.6398L59.6244 58.8061C60.9292 59.6004 61.7235 61.0187 61.7235 62.5504V101.411C61.7235 102.886 60.5321 103.737 59.3974 103.737Z" fill="url(#paint8_linear)"/>
<path d="M63.3685 55.1184L1.0214 18.2433C-0.340137 17.3924 -0.226717 15.4068 1.19155 14.726L4.1416 13.3077C5.04929 12.8539 6.18388 12.9106 7.09157 13.4212L72.6157 49.7857C74.2041 50.6934 74.2609 52.9626 72.7859 53.9837L71.4811 54.8914C69.0984 56.5366 65.8647 56.6501 63.3685 55.1184Z" fill="url(#paint9_linear)"/>
<path d="M24.6838 82.604L20.1424 79.8925V53.4324L24.6838 55.7698V82.604Z" fill="#70FFF6"/>
<path d="M31.9097 86.9977L27.3549 84.2863V50.2126L31.9097 52.5501V86.9977Z" fill="#FFC38B"/>
<path d="M38.8552 91.1919L34.3139 88.4804V66.5884L38.8552 68.9392V91.1919Z" fill="#70FFF6"/>
<path d="M10.298 65.0131C10.298 65.0131 20.1688 52.3641 29.1046 63.3301C38.0405 74.2962 34.2337 83.419 54.6565 77.956" stroke="#E9F2FF" stroke-width="2" stroke-miterlimit="10" stroke-linecap="round"/>
<path d="M29.0247 64.2114C29.6738 64.2114 30.2001 63.6852 30.2001 63.036C30.2001 62.3868 29.6738 61.8606 29.0247 61.8606C28.3755 61.8606 27.8492 62.3868 27.8492 63.036C27.8492 63.6852 28.3755 64.2114 29.0247 64.2114Z" fill="#A1FFFC"/>
<path d="M122.557 38.3885C111.156 35.1484 93.6657 34.7134 93.6657 34.7134C93.6657 34.7134 76.1749 35.1484 64.7745 38.3885C53.374 41.6287 52.1589 47.5089 52.1589 47.5089C52.1589 47.5089 54.529 83.9754 56.9741 98.7061C59.4342 113.437 93.6657 122.092 93.6657 122.092C93.6657 122.092 127.897 113.422 130.357 98.7061C132.817 83.9754 135.172 47.5089 135.172 47.5089C135.172 47.5089 133.957 41.6287 122.557 38.3885Z" fill="url(#paint10_linear)" stroke="url(#paint11_linear)" stroke-width="10" stroke-miterlimit="10"/>
<path d="M120.345 40.9804C109.68 37.9503 93.3144 37.5303 93.3144 37.5303C93.3144 37.5303 76.9487 37.9353 66.2832 40.9804C55.6178 44.0105 55.0972 48.0618 55.0972 48.0618C55.0972 48.0618 56.6978 83.6422 58.9929 97.4278C61.288 111.213 93.3294 119.314 93.3294 119.314C93.3294 119.314 125.371 111.198 127.666 97.4278C129.961 83.6572 131.916 48.0618 131.916 48.0618C131.916 48.0618 131.011 44.0105 120.345 40.9804Z" fill="url(#paint12_linear)"/>
<path d="M119.005 43.2488C108.87 40.3959 93.3174 40.0005 93.3174 40.0005C93.3174 40.0005 77.7652 40.3818 67.63 43.2488C57.4947 46.1017 57 49.9161 57 49.9161C57 49.9161 58.521 83.4154 60.702 96.3947C62.883 109.374 93.3317 117 93.3317 117C93.3317 117 123.78 109.36 125.961 96.3947C128.142 83.4295 130 49.9161 130 49.9161C130 49.9161 129.14 46.1017 119.005 43.2488Z" fill="url(#paint13_linear)"/>
<path d="M75.1758 77.8794C72.9245 77.2323 71.2838 76.4393 70.2539 75.5005C69.2331 74.5526 68.7226 73.3859 68.7226 72.0005C68.7226 70.4328 69.347 69.1385 70.5957 68.1177C71.8535 67.0877 73.485 66.5728 75.4902 66.5728C76.8574 66.5728 78.0742 66.8371 79.1406 67.3657C80.2161 67.8944 81.0456 68.6235 81.6289 69.5532C82.2213 70.4829 82.5176 71.4992 82.5176 72.6021H79.8789C79.8789 71.3989 79.4961 70.4556 78.7305 69.772C77.9648 69.0793 76.8848 68.7329 75.4902 68.7329C74.1959 68.7329 73.1842 69.02 72.4551 69.5942C71.735 70.1593 71.375 70.9478 71.375 71.9595C71.375 72.7707 71.7168 73.4588 72.4004 74.0239C73.0931 74.5799 74.2643 75.0903 75.914 75.5552C77.5729 76.02 78.8672 76.535 79.7969 77.1001C80.7357 77.6561 81.4284 78.3078 81.875 79.0552C82.3307 79.8026 82.5586 80.6821 82.5586 81.6938C82.5586 83.3071 81.9297 84.6014 80.6719 85.5767C79.414 86.5428 77.7324 87.0259 75.6269 87.0259C74.2598 87.0259 72.9837 86.7661 71.7988 86.2466C70.6139 85.7179 69.6979 84.9979 69.0508 84.0864C68.4127 83.175 68.0937 82.1405 68.0937 80.9829H70.7324C70.7324 82.186 71.1745 83.1385 72.0586 83.8403C72.9518 84.533 74.1413 84.8794 75.6269 84.8794C77.0124 84.8794 78.0742 84.5968 78.8125 84.0317C79.5508 83.4666 79.9199 82.6965 79.9199 81.7212C79.9199 80.7459 79.5781 79.994 78.8945 79.4653C78.2109 78.9276 76.9713 78.3989 75.1758 77.8794ZM96.9277 81.5571H88.5879L86.7148 86.7524H84.0078L91.6094 66.8462H93.9062L101.521 86.7524H98.8281L96.9277 81.5571ZM89.3808 79.397H96.1484L92.7578 70.0864L89.3808 79.397ZM110.066 77.8794C107.815 77.2323 106.174 76.4393 105.145 75.5005C104.124 74.5526 103.613 73.3859 103.613 72.0005C103.613 70.4328 104.238 69.1385 105.486 68.1177C106.744 67.0877 108.376 66.5728 110.381 66.5728C111.748 66.5728 112.965 66.8371 114.031 67.3657C115.107 67.8944 115.936 68.6235 116.52 69.5532C117.112 70.4829 117.408 71.4992 117.408 72.6021H114.77C114.77 71.3989 114.387 70.4556 113.621 69.772C112.855 69.0793 111.775 68.7329 110.381 68.7329C109.087 68.7329 108.075 69.02 107.346 69.5942C106.626 70.1593 106.266 70.9478 106.266 71.9595C106.266 72.7707 106.607 73.4588 107.291 74.0239C107.984 74.5799 109.155 75.0903 110.805 75.5552C112.464 76.02 113.758 76.535 114.687 77.1001C115.626 77.6561 116.319 78.3078 116.766 79.0552C117.221 79.8026 117.449 80.6821 117.449 81.6938C117.449 83.3071 116.82 84.6014 115.562 85.5767C114.305 86.5428 112.623 87.0259 110.518 87.0259C109.15 87.0259 107.874 86.7661 106.689 86.2466C105.505 85.7179 104.589 84.9979 103.941 84.0864C103.303 83.175 102.984 82.1405 102.984 80.9829H105.623C105.623 82.186 106.065 83.1385 106.949 83.8403C107.842 84.533 109.032 84.8794 110.518 84.8794C111.903 84.8794 112.965 84.5968 113.703 84.0317C114.441 83.4666 114.811 82.6965 114.811 81.7212C114.811 80.7459 114.469 79.994 113.785 79.4653C113.102 78.9276 111.862 78.3989 110.066 77.8794Z" fill="url(#paint14_linear)"/>
<path d="M74.1758 77.8794C71.9245 77.2323 70.2838 76.4393 69.2539 75.5005C68.2331 74.5526 67.7226 73.3859 67.7226 72.0005C67.7226 70.4328 68.347 69.1385 69.5957 68.1177C70.8535 67.0877 72.485 66.5728 74.4902 66.5728C75.8574 66.5728 77.0742 66.8371 78.1406 67.3657C79.2161 67.8944 80.0456 68.6235 80.6289 69.5532C81.2213 70.4829 81.5176 71.4992 81.5176 72.6021H78.8789C78.8789 71.3989 78.4961 70.4556 77.7305 69.772C76.9648 69.0793 75.8848 68.7329 74.4902 68.7329C73.1959 68.7329 72.1842 69.02 71.4551 69.5942C70.735 70.1593 70.375 70.9478 70.375 71.9595C70.375 72.7707 70.7168 73.4588 71.4004 74.0239C72.0931 74.5799 73.2643 75.0903 74.914 75.5552C76.5729 76.02 77.8672 76.535 78.7969 77.1001C79.7357 77.6561 80.4284 78.3078 80.875 79.0552C81.3307 79.8026 81.5586 80.6821 81.5586 81.6938C81.5586 83.3071 80.9297 84.6014 79.6719 85.5767C78.414 86.5428 76.7324 87.0259 74.6269 87.0259C73.2598 87.0259 71.9837 86.7661 70.7988 86.2466C69.6139 85.7179 68.6979 84.9979 68.0508 84.0864C67.4127 83.175 67.0937 82.1405 67.0937 80.9829H69.7324C69.7324 82.186 70.1745 83.1385 71.0586 83.8403C71.9518 84.533 73.1413 84.8794 74.6269 84.8794C76.0124 84.8794 77.0742 84.5968 77.8125 84.0317C78.5508 83.4666 78.9199 82.6965 78.9199 81.7212C78.9199 80.7459 78.5781 79.994 77.8945 79.4653C77.2109 78.9276 75.9713 78.3989 74.1758 77.8794ZM95.9277 81.5571H87.5879L85.7148 86.7524H83.0078L90.6094 66.8462H92.9062L100.521 86.7524H97.8281L95.9277 81.5571ZM88.3808 79.397H95.1484L91.7578 70.0864L88.3808 79.397ZM109.066 77.8794C106.815 77.2323 105.174 76.4393 104.145 75.5005C103.124 74.5526 102.613 73.3859 102.613 72.0005C102.613 70.4328 103.238 69.1385 104.486 68.1177C105.744 67.0877 107.376 66.5728 109.381 66.5728C110.748 66.5728 111.965 66.8371 113.031 67.3657C114.107 67.8944 114.936 68.6235 115.52 69.5532C116.112 70.4829 116.408 71.4992 116.408 72.6021H113.77C113.77 71.3989 113.387 70.4556 112.621 69.772C111.855 69.0793 110.775 68.7329 109.381 68.7329C108.087 68.7329 107.075 69.02 106.346 69.5942C105.626 70.1593 105.266 70.9478 105.266 71.9595C105.266 72.7707 105.607 73.4588 106.291 74.0239C106.984 74.5799 108.155 75.0903 109.805 75.5552C111.464 76.02 112.758 76.535 113.687 77.1001C114.626 77.6561 115.319 78.3078 115.766 79.0552C116.221 79.8026 116.449 80.6821 116.449 81.6938C116.449 83.3071 115.82 84.6014 114.562 85.5767C113.305 86.5428 111.623 87.0259 109.518 87.0259C108.15 87.0259 106.874 86.7661 105.689 86.2466C104.505 85.7179 103.589 84.9979 102.941 84.0864C102.303 83.175 101.984 82.1405 101.984 80.9829H104.623C104.623 82.186 105.065 83.1385 105.949 83.8403C106.842 84.533 108.032 84.8794 109.518 84.8794C110.903 84.8794 111.965 84.5968 112.703 84.0317C113.441 83.4666 113.811 82.6965 113.811 81.7212C113.811 80.7459 113.469 79.994 112.785 79.4653C112.102 78.9276 110.862 78.3989 109.066 77.8794Z" fill="white"/>
</g>
<defs>
<linearGradient id="paint0_linear" x1="7.18466" y1="96.0231" x2="75.2254" y2="96.0231" gradientUnits="userSpaceOnUse">
<stop stop-color="#3D4866"/>
<stop offset="0.3104" stop-color="#282F49"/>
<stop offset="0.75" stop-color="#2E3549"/>
<stop offset="1" stop-color="#232735"/>
</linearGradient>
<linearGradient id="paint1_linear" x1="-3.5996" y1="102.906" x2="76.1417" y2="83.8704" gradientUnits="userSpaceOnUse">
<stop stop-color="#59658A"/>
<stop offset="0.5" stop-color="#4D5A7D"/>
<stop offset="0.995" stop-color="#676E9A"/>
</linearGradient>
<linearGradient id="paint2_linear" x1="17.1986" y1="82.0511" x2="56.4434" y2="82.0511" gradientUnits="userSpaceOnUse">
<stop stop-color="#8A96AE"/>
<stop offset="0.588542" stop-color="#6B789A"/>
<stop offset="0.65625" stop-color="#7C8DAE"/>
<stop offset="0.703125" stop-color="#5B6F98"/>
<stop offset="0.7821" stop-color="#506593"/>
</linearGradient>
<linearGradient id="paint3_linear" x1="27.9161" y1="93.4421" x2="25.7122" y2="96.748" gradientUnits="userSpaceOnUse">
<stop stop-color="#465275"/>
<stop offset="1" stop-color="#353F5D"/>
</linearGradient>
<linearGradient id="paint4_linear" x1="25.2974" y1="14.392" x2="72.8086" y2="41.2738" gradientUnits="userSpaceOnUse">
<stop stop-color="#6976A0"/>
<stop offset="0.995" stop-color="#4C5A77"/>
</linearGradient>
<linearGradient id="paint5_linear" x1="99.5429" y1="44.9567" x2="72.3615" y2="71.7708" gradientUnits="userSpaceOnUse">
<stop stop-color="#3F4A68"/>
<stop offset="0.995" stop-color="#282F49"/>
</linearGradient>
<linearGradient id="paint6_linear" x1="4.69465" y1="66.0807" x2="73.0222" y2="66.0807" gradientUnits="userSpaceOnUse">
<stop stop-color="#E7EFF5"/>
<stop offset="0.2574" stop-color="#C3C5D2"/>
<stop offset="0.6421" stop-color="#C6C8D5"/>
<stop offset="0.8254" stop-color="#CED3DD"/>
<stop offset="0.8651" stop-color="#DDE4EC"/>
<stop offset="0.8962" stop-color="#DFE6EE"/>
<stop offset="0.9307" stop-color="#98A5B5"/>
<stop offset="0.995" stop-color="#7E8EA0"/>
</linearGradient>
<linearGradient id="paint7_linear" x1="4.69465" y1="66.0807" x2="73.0222" y2="66.0807" gradientUnits="userSpaceOnUse">
<stop stop-color="#444D6D"/>
<stop offset="0.804862" stop-color="#333A54"/>
<stop offset="0.904314" stop-color="#3C4661"/>
<stop offset="0.9375" stop-color="#2E3344"/>
<stop offset="0.989583" stop-color="#2A2E40"/>
</linearGradient>
<linearGradient id="paint8_linear" x1="6.72234" y1="65.0959" x2="61.0848" y2="65.0959" gradientUnits="userSpaceOnUse">
<stop stop-color="#2FD8CF"/>
<stop offset="1" stop-color="#2AD9D0"/>
</linearGradient>
<linearGradient id="paint9_linear" x1="69.4228" y1="52.6702" x2="3.30585" y2="14.8366" gradientUnits="userSpaceOnUse">
<stop stop-color="#6D7397"/>
<stop offset="0.5" stop-color="#697490"/>
<stop offset="0.997397" stop-color="#697794"/>
</linearGradient>
<linearGradient id="paint10_linear" x1="93.6628" y1="122.088" x2="93.6628" y2="34.7098" gradientUnits="userSpaceOnUse">
<stop stop-color="#DEE3EA"/>
<stop offset="0.995" stop-color="#39393B" stop-opacity="0.6"/>
</linearGradient>
<linearGradient id="paint11_linear" x1="50.646" y1="78.4225" x2="136.68" y2="78.4225" gradientUnits="userSpaceOnUse">
<stop stop-color="#2B2F41"/>
<stop offset="0.239583" stop-color="#6C7396"/>
<stop offset="0.484375" stop-color="#5A6182"/>
<stop offset="0.671875" stop-color="#8289AC"/>
<stop offset="0.84375" stop-color="#4B5873"/>
<stop offset="1" stop-color="#343D5A"/>
</linearGradient>
<linearGradient id="paint12_linear" x1="94.0001" y1="36.001" x2="94.0001" y2="119.001" gradientUnits="userSpaceOnUse">
<stop stop-color="#2E3550"/>
<stop offset="0.0416667" stop-color="#464F6E"/>
<stop offset="0.536458" stop-color="#677293"/>
<stop offset="1" stop-color="#464F6E"/>
</linearGradient>
<linearGradient id="paint13_linear" x1="94" y1="112" x2="94" y2="35.0005" gradientUnits="userSpaceOnUse">
<stop stop-color="#5C6991"/>
<stop offset="1" stop-color="#4C5A77"/>
<stop offset="1" stop-color="#3F4B6C"/>
</linearGradient>
<linearGradient id="paint14_linear" x1="118" y1="75.0005" x2="67" y2="75.0005" gradientUnits="userSpaceOnUse">
<stop stop-color="#3C3F47"/>
<stop offset="1" stop-color="#53555A"/>
</linearGradient>
<clipPath id="clip0">
<rect y="13" width="140" height="114.897" fill="white"/>
</clipPath>
</defs>
</svg>
