<svg width="140" height="140" viewBox="0 0 140 140" fill="none" xmlns="http://www.w3.org/2000/svg">
<g clip-path="url(#clip0)">
<path d="M17.0928 32.3469V110.312C17.0928 113.187 18.5972 115.801 21.0173 117.304L51.1704 137.498C56.5992 140.831 63.4017 140.831 68.8959 137.498L119.195 102.731C121.615 101.228 123.119 98.6137 123.119 95.7382V17.7734L17.0928 32.3469Z" fill="url(#paint0_linear)"/>
<path d="M120.371 25.1921L69.1568 56.4957C63.5317 59.9593 56.4023 59.9593 50.7772 56.4957L18.858 38.0664C16.1763 36.4326 16.4379 32.4462 19.3813 31.2045L78.7718 3.16852C82.5 1.60008 86.6862 1.60008 90.349 3.16852L119.717 15.2586C123.903 17.0885 124.296 22.9048 120.371 25.1921Z" fill="url(#paint1_linear)"/>
<path d="M120.371 23.1999L69.1568 54.5035C63.5317 57.9671 56.4023 57.9671 50.7772 54.5035L18.858 36.0742C16.1763 34.4404 16.4379 30.454 19.3813 29.2123L78.7718 1.17633C82.5 -0.392111 86.6862 -0.392111 90.349 1.17633L119.717 13.2664C123.903 15.0963 124.296 20.9126 120.371 23.1999Z" fill="url(#paint2_linear)"/>
<path d="M82.1074 90.7718C82.1074 90.6046 82.191 90.4484 82.3302 90.3557L82.7039 90.1068C83.0362 89.8855 83.4811 90.1237 83.4811 90.523V119.449C83.4811 119.616 83.3974 119.772 83.2582 119.865L82.8846 120.114C82.5523 120.335 82.1074 120.097 82.1074 119.698V90.7718ZM85.247 117.476C85.247 117.875 85.6919 118.113 86.0242 117.892L86.3978 117.643C86.537 117.55 86.6206 117.394 86.6206 117.227V86.7326C86.6206 86.3333 86.1757 86.0951 85.8434 86.3165L85.4699 86.5653C85.3307 86.658 85.247 86.8142 85.247 86.9814V117.476ZM88.452 115.319C88.452 115.718 88.8969 115.956 89.2292 115.735L89.6028 115.486C89.742 115.394 89.8256 115.237 89.8256 115.07V82.9422C89.8256 82.5429 89.3807 82.3047 89.0484 82.5261L88.6749 82.7749C88.5357 82.8676 88.452 83.0238 88.452 83.191V115.319ZM91.5916 113.162C91.5916 113.562 92.0365 113.8 92.3688 113.578L92.7424 113.33C92.8816 113.237 92.9652 113.081 92.9652 112.913V79.1518C92.9652 78.7525 92.5203 78.5143 92.188 78.7356L91.8144 78.9845C91.6752 79.0772 91.5916 79.2334 91.5916 79.4006V113.162ZM94.7966 111.006C94.7966 111.405 95.2415 111.643 95.5738 111.422L95.9473 111.173C96.0865 111.08 96.1701 110.924 96.1701 110.757V75.3614C96.1701 74.9621 95.7252 74.7239 95.393 74.9452L95.0194 75.1941C94.8802 75.2868 94.7966 75.443 94.7966 75.6102V111.006ZM98.0016 108.784C98.0016 109.183 98.4465 109.421 98.7788 109.2L99.1523 108.951C99.2915 108.858 99.3752 108.702 99.3752 108.535V71.5056C99.3752 71.1064 98.9303 70.8681 98.598 71.0895L98.2244 71.3383C98.0852 71.431 98.0016 71.5872 98.0016 71.7544V108.784ZM101.141 106.627C101.141 107.026 101.586 107.265 101.918 107.043L102.292 106.794C102.431 106.702 102.515 106.546 102.515 106.378V67.7806C102.515 67.3813 102.07 67.1431 101.738 67.3644L101.364 67.6132C101.225 67.706 101.141 67.8621 101.141 68.0294V106.627ZM104.281 104.471C104.281 104.87 104.726 105.108 105.058 104.887L105.431 104.638C105.571 104.545 105.654 104.389 105.654 104.222V63.9248C105.654 63.5255 105.209 63.2873 104.877 63.5087L104.504 63.7575C104.364 63.8502 104.281 64.0064 104.281 64.1736V104.471ZM107.486 102.249C107.486 102.648 107.931 102.886 108.263 102.665L108.637 102.416C108.776 102.323 108.859 102.167 108.859 102V60.1344C108.859 59.7351 108.414 59.4969 108.082 59.7182L107.709 59.9671C107.569 60.0598 107.486 60.216 107.486 60.3832V102.249ZM110.835 56.2409C110.703 56.3347 110.625 56.4863 110.625 56.6479V100.092C110.625 100.491 111.07 100.729 111.403 100.508L111.776 100.259C111.915 100.167 111.999 100.01 111.999 99.8431V56.3813C111.999 55.9747 111.539 55.7381 111.208 55.9743L110.835 56.2409Z" fill="#2FAAAF"/>
<path d="M49.0096 58.1695L26.7709 45.3606C26.1168 44.9684 25.3974 44.707 24.6779 44.707C22.3886 44.707 20.5571 46.6022 20.5571 48.9549V75.5531C20.5571 76.7948 21.2112 77.9711 22.2578 78.6247L32.1998 84.9638C35.0777 86.7936 36.9091 90.1266 36.9091 93.6556V116.006C36.9091 117.248 37.5632 118.489 38.6752 119.143L47.0474 124.175C47.7669 124.698 48.5517 124.959 49.4021 124.959C51.4951 124.959 53.719 123.26 53.719 120.515V66.9267C53.719 63.3323 51.8876 59.9994 49.0096 58.1695Z" fill="url(#paint3_linear)"/>
<path d="M26.7069 110.515C26.5761 110.515 26.4453 110.45 26.3145 110.384L22.5208 107.836C22.1938 107.64 21.9976 107.313 21.9976 106.921V103.784C21.9976 103.522 22.2592 103.326 22.4554 103.326C22.5208 103.326 22.5863 103.392 22.7171 103.392L26.7723 105.94C27.1648 106.202 27.4264 106.594 27.4264 107.051V109.731C27.4264 109.927 27.361 110.123 27.2302 110.254C27.0994 110.45 26.9032 110.515 26.7069 110.515ZM26.7069 101.823C26.5761 101.823 26.4453 101.758 26.3145 101.693L22.5208 99.1439C22.1938 98.9478 21.9976 98.621 21.9976 98.2289V95.092C21.9976 94.8306 22.2592 94.6346 22.4554 94.6346C22.5208 94.6346 22.5863 94.6999 22.7171 94.6999L26.7723 97.2487C27.1648 97.5101 27.4264 97.9022 27.4264 98.3596V101.039C27.4264 101.235 27.361 101.431 27.2302 101.562C27.0994 101.758 26.9032 101.823 26.7069 101.823ZM26.7069 93.4582C26.5761 93.4582 26.4453 93.3929 26.3145 93.3275L22.5208 90.7788C22.1938 90.5828 21.9976 90.256 21.9976 89.8639V86.727C21.9976 86.4656 22.2592 86.2695 22.4554 86.2695C22.5208 86.2695 22.5863 86.2695 22.7171 86.3349L26.7723 88.8836C27.1648 89.145 27.4264 89.5371 27.4264 89.9946V92.674C27.4264 93.1315 27.0994 93.4582 26.7069 93.4582Z" fill="#2ED8CF"/>
<path d="M22.5257 86.3221C22.5911 86.3221 22.6565 86.3221 22.722 86.3875L26.7772 88.9362C27.1043 89.1322 27.3659 89.5897 27.3659 89.9818V92.6612C27.3659 93.0534 27.0389 93.3148 26.7118 93.3148C26.581 93.3148 26.4502 93.2494 26.3848 93.2494L22.5911 90.7007C22.2641 90.5046 22.1333 90.1779 22.1333 89.8511V86.7142C22.1333 86.4528 22.3295 86.3221 22.5257 86.3221ZM22.5257 94.6872C22.5911 94.6872 22.6565 94.6872 22.722 94.7525L26.7772 97.3012C27.1697 97.4973 27.3659 97.9548 27.3659 98.3469V101.026C27.3659 101.418 27.0389 101.68 26.7118 101.68C26.581 101.68 26.4502 101.614 26.3848 101.614L22.5911 99.0657C22.2641 98.8697 22.1333 98.5429 22.1333 98.2162V95.0793C22.1333 94.8832 22.3295 94.6872 22.5257 94.6872ZM22.5257 103.444C22.5911 103.444 22.6565 103.444 22.722 103.51L26.7772 106.058C27.1697 106.254 27.3659 106.712 27.3659 107.104V109.783C27.3659 110.176 27.0389 110.437 26.7118 110.437C26.581 110.437 26.4502 110.372 26.3848 110.372L22.5911 107.823C22.2641 107.627 22.1333 107.3 22.1333 106.973V103.836C22.1333 103.575 22.3295 103.444 22.5257 103.444ZM22.5257 86.1914C22.2641 86.1914 22.0024 86.3875 22.0024 86.7142V89.8511C22.0024 90.2432 22.1987 90.6353 22.5257 90.8314L26.3194 93.3801C26.4502 93.4455 26.581 93.5108 26.7118 93.5108C27.1697 93.5108 27.5621 93.1841 27.5621 92.6612V89.9818C27.5621 89.459 27.3005 89.0669 26.908 88.7401L22.7873 86.2568C22.7219 86.1914 22.5911 86.1914 22.5257 86.1914ZM22.5257 94.5564C22.2641 94.5564 22.0024 94.7525 22.0024 95.0793V98.2162C22.0024 98.6083 22.1987 99.0004 22.5257 99.1964L26.3194 101.745C26.4502 101.811 26.581 101.876 26.7118 101.876C27.1697 101.876 27.5621 101.549 27.5621 101.026V98.3469C27.5621 97.824 27.3005 97.4319 26.908 97.1052L22.8527 94.5564C22.6565 94.6218 22.5911 94.5564 22.5257 94.5564ZM22.5257 103.248C22.2641 103.248 22.0024 103.444 22.0024 103.771V106.908C22.0024 107.3 22.1987 107.692 22.5257 107.888L26.3194 110.437C26.4502 110.502 26.581 110.568 26.7118 110.568C27.1697 110.568 27.5621 110.241 27.5621 109.718V107.039C27.5621 106.516 27.3005 106.124 26.908 105.797L22.8527 103.248C22.6565 103.314 22.5911 103.248 22.5257 103.248Z" fill="#0A396F"/>
<path d="M46.4612 95.5979V101.087L44.3682 99.8458V94.3562L46.4612 95.5979ZM44.4336 107.949L46.5267 109.191V103.702L44.4336 102.46V107.949ZM44.4336 115.922L46.5267 117.164V111.674L44.4336 110.433V115.922Z" fill="#0C1116"/>
<path d="M45.0857 94.7476V100.237L44.4316 99.845V94.3555L45.0857 94.7476ZM44.4316 107.949L45.0857 108.341V102.851L44.4316 102.459V107.949ZM44.4316 115.922L45.0857 116.314V110.824L44.4316 110.432V115.922Z" fill="#8A99CD"/>
<path d="M45.2816 63.132V64.0469L24.3511 51.8261V50.9766L45.2816 63.132ZM24.3511 54.8977L45.2816 67.1185V66.2036L24.3511 53.9827V54.8977ZM24.3511 57.7732L45.2816 69.994V69.079L24.3511 56.8582V57.7732ZM24.3511 60.7793L45.2816 73.0001V72.0852L24.3511 59.8644V60.7793ZM24.3511 63.6548L45.2816 75.8756V74.9607L24.3511 62.7399V63.6548Z" fill="url(#paint4_linear)"/>
</g>
<defs>
<linearGradient id="paint0_linear" x1="16.945" y1="78.8831" x2="123.05" y2="78.967" gradientUnits="userSpaceOnUse">
<stop stop-color="#485476"/>
<stop offset="0.356509" stop-color="#2E354E"/>
<stop offset="0.40366" stop-color="#2F3953"/>
<stop offset="0.460271" stop-color="#27293A"/>
<stop offset="1" stop-color="#2D3146"/>
</linearGradient>
<linearGradient id="paint1_linear" x1="28.5054" y1="30.9808" x2="116.041" y2="14.46" gradientUnits="userSpaceOnUse">
<stop stop-color="#4E5873"/>
<stop offset="0.995" stop-color="#2A3551"/>
</linearGradient>
<linearGradient id="paint2_linear" x1="28.5054" y1="28.9887" x2="116.041" y2="12.4678" gradientUnits="userSpaceOnUse">
<stop stop-color="#697698"/>
<stop offset="0.995" stop-color="#384464"/>
</linearGradient>
<linearGradient id="paint3_linear" x1="20.4586" y1="84.2219" x2="52.6059" y2="85.3861" gradientUnits="userSpaceOnUse">
<stop stop-color="#6C7699"/>
<stop offset="1" stop-color="#6A7497"/>
</linearGradient>
<linearGradient id="paint4_linear" x1="24.3509" y1="63.4036" x2="45.2891" y2="63.4036" gradientUnits="userSpaceOnUse">
<stop stop-color="#2ED8CF"/>
<stop offset="0.995" stop-color="#1CBEB6"/>
</linearGradient>
<clipPath id="clip0">
<rect x="17" width="106.12" height="140" fill="white"/>
</clipPath>
</defs>
</svg>
