<svg width="140" height="140" viewBox="0 0 140 140" fill="none" xmlns="http://www.w3.org/2000/svg">
<path opacity="0.9" d="M129.368 70.779C129.368 102.685 102.803 128.737 70.0671 128.737C55.1977 128.737 41.5625 123.343 31.101 114.449C18.6412 103.775 10.7657 88.1665 10.7657 70.779C10.7657 69.8034 10.7657 68.8853 10.8245 67.9671C10.8245 67.7376 10.8245 67.4507 10.8833 67.2211C10.9421 66.2456 11.0008 65.2127 11.1772 64.2371C11.4122 62.4008 11.7061 60.6219 12.0587 58.7856C12.1763 58.2117 12.3526 57.5805 12.4701 57.0067C12.6465 56.2607 12.8816 55.5147 13.0579 54.8261C13.8807 52.0142 14.9386 49.3171 16.114 46.7348C16.5842 45.7593 17.1132 44.7838 17.5833 43.8082C17.5833 43.7508 17.6421 43.6934 17.7009 43.6361C17.7597 43.5213 17.8184 43.3491 17.936 43.2344C17.936 43.177 17.9948 43.177 17.9948 43.1196C18.9351 41.4554 19.8755 39.9061 20.9921 38.3567C22.4615 36.2335 24.0483 34.225 25.8115 32.3313C26.2817 31.8148 26.7518 31.2984 27.222 30.7819C27.9273 30.0359 28.6913 29.2899 29.4554 28.6013C30.2782 27.8553 31.1598 27.1093 32.0414 26.3633C33.9221 24.8139 35.9203 23.3793 38.0361 22.0595C38.1537 22.0021 38.2712 21.9447 38.3888 21.8299C41.0335 20.1658 43.8546 18.7312 46.7344 17.5261C47.0283 17.4113 47.3222 17.2965 47.5573 17.1818C47.616 17.1818 47.6748 17.1244 47.7336 17.1244C49.5555 16.4358 51.4362 15.7472 53.317 15.2307C54.1985 14.9438 55.0801 14.7142 56.0205 14.5421C56.3731 14.4273 56.7258 14.3699 57.1372 14.2552C60.7223 13.4518 64.4249 12.9927 68.3039 12.8779C68.5978 12.8779 68.8916 12.8779 69.2443 12.8779C69.5381 12.8779 69.832 12.8779 70.1259 12.8779C86.0532 12.8779 100.511 19.0181 111.149 29.003C122.375 39.5044 129.368 54.367 129.368 70.779Z" fill="url(#paint0_radial)"/>
<path d="M69.9999 135.153C106.57 135.153 136.216 106.193 136.216 70.4684C136.216 34.744 106.57 5.78369 69.9999 5.78369C33.4297 5.78369 3.78369 34.744 3.78369 70.4684C3.78369 106.193 33.4297 135.153 69.9999 135.153Z" stroke="#292C3E" stroke-width="6.8217" stroke-miterlimit="10"/>
<path d="M69.9999 135.153C106.57 135.153 136.216 106.193 136.216 70.4684C136.216 34.744 106.57 5.78369 69.9999 5.78369C33.4297 5.78369 3.78369 34.744 3.78369 70.4684C3.78369 106.193 33.4297 135.153 69.9999 135.153Z" stroke="url(#paint1_linear)" stroke-width="6.8217" stroke-miterlimit="10"/>
<g clip-path="url(#clip0)">
<path d="M107.476 82.5892C107.449 82.8823 107.395 83.3353 107.314 83.8149C107.152 84.5343 107.422 84.8807 108.124 85.014C109.177 85.2271 110.203 85.5735 111.256 85.7334C113.551 86.0532 115.792 85.9732 117.844 84.6942C121.408 82.4293 121.651 77.1801 117.412 75.2616C116.467 74.8353 115.495 74.4889 114.55 74.0359C113.713 73.6362 112.822 73.2365 112.147 72.6503C110.959 71.6378 111.121 70.1723 112.444 69.3463C112.903 69.0532 113.524 68.84 114.064 68.84C115.549 68.84 117.007 68.9999 118.573 69.0798C118.708 68.467 118.843 67.8008 119.005 67.0547C116.251 65.9889 113.497 65.5093 110.716 66.6284C108.718 67.4278 107.557 68.9199 107.368 71.0782C107.179 73.1832 107.962 74.8353 109.879 75.9011C110.689 76.3541 111.553 76.7271 112.39 77.1535C113.308 77.6331 114.28 78.0328 115.144 78.5923C116.737 79.6582 116.683 81.5767 115.009 82.5359C114.388 82.8823 113.605 83.1221 112.876 83.0955C111.094 82.9889 109.339 82.7491 107.476 82.5892Z" fill="#1C3496"/>
<path d="M27.3129 69.0535C27.4209 68.6272 27.5829 68.0676 27.6369 67.508C27.6639 67.2949 27.4479 66.9485 27.2589 66.8685C24.5859 65.8827 21.9129 65.5096 19.2129 66.7087C17.2959 67.5613 16.2699 69.0535 16.1079 71.1319C15.9459 73.2102 16.7289 74.8356 18.6189 75.8748C19.5639 76.3811 20.5359 76.8074 21.4809 77.287C22.2909 77.6867 23.1279 78.0598 23.8839 78.566C25.3689 79.5786 25.4499 81.2839 23.9919 82.3231C23.3439 82.7761 22.4259 83.0692 21.6429 83.0425C19.8339 83.0159 18.0519 82.7494 16.2159 82.5896C16.1889 82.8827 16.1619 83.3356 16.0539 83.762C15.8919 84.4548 16.0539 84.8544 16.8099 84.9877C18.4029 85.2541 19.9959 85.7071 21.5889 85.8403C23.6409 86.0269 25.5579 85.5206 27.2319 84.1883C29.8779 82.0833 30.2019 77.367 26.6109 75.4751C25.5849 74.9422 24.4779 74.5425 23.4249 74.0629C22.7229 73.7432 21.9669 73.4767 21.3459 73.0504C20.4819 72.4642 19.8339 71.7181 20.1849 70.5457C20.4819 69.5598 21.5079 68.8137 22.7499 68.8137C24.2349 68.8137 25.6659 68.9469 27.3129 69.0535Z" fill="#1C3496"/>
<path d="M95.056 69.8531C95.164 68.7606 95.245 67.8013 95.407 66.8687C95.515 66.2559 95.191 66.096 94.678 65.9894C93.247 65.723 92.059 66.176 91.006 67.1086C90.277 67.7481 89.521 68.4142 88.792 69.0537C88.711 68.281 88.63 67.375 88.549 66.4424C87.415 66.4424 86.362 66.4424 85.282 66.4424C85.282 72.7841 85.282 79.0725 85.282 85.3876C86.551 85.3876 87.766 85.3876 89.116 85.3876C89.116 84.9879 89.116 84.6415 89.116 84.2951C89.116 80.8844 89.089 77.5004 89.143 74.0897C89.143 73.5035 89.305 72.864 89.602 72.3844C90.844 70.4393 92.437 69.1869 95.056 69.8531Z" fill="#1C3496"/>
<path d="M61.117 82.9626C60.604 83.0159 60.145 83.0692 59.713 83.1491C57.58 83.4156 57.013 82.9359 57.013 80.7776C57.013 76.2745 57.013 71.798 57.013 67.2949C57.013 66.9218 56.959 66.5488 56.959 66.2024C55.609 66.2024 54.394 66.2024 53.206 66.2024C53.152 66.309 53.125 66.3889 53.125 66.4422C53.125 71.9845 53.098 77.5535 53.125 83.0958C53.125 84.3215 53.746 85.3074 54.988 85.6805C57.256 86.3732 59.443 85.787 61.657 85.1209C61.441 84.3215 61.279 83.682 61.117 82.9626Z" fill="#1C3496"/>
<path d="M99.187 66.4153C99.187 72.7836 99.187 79.072 99.187 85.3604C100.483 85.3604 101.698 85.3604 102.913 85.3604C102.913 79.0187 102.913 72.757 102.913 66.4153C101.671 66.4153 100.483 66.4153 99.187 66.4153Z" fill="#1C3496"/>
<path d="M96.352 36.3054C97.027 38.2506 97.135 39.9559 95.812 41.3948C95.299 41.9543 94.651 42.4073 94.003 42.8336C92.707 43.7662 91.654 44.8321 91.384 46.4841C91.195 47.7631 91.303 47.923 92.599 48.2427C93.112 48.376 93.598 48.5092 94.084 48.6957C95.164 49.122 96.217 49.5484 97.432 50.0546C96.46 47.6032 97.081 45.4449 98.08 43.2866C99.16 40.9684 98.458 38.3305 96.352 36.3054Z" fill="#FE0509"/>
<path d="M83.554 35C85.66 37.7712 85.633 39.2633 83.743 42.0078C82.717 43.5 82.204 45.1254 82.906 46.9107C83.122 47.4702 83.419 47.6567 84.067 47.5768C85.471 47.4436 86.902 47.4436 88.333 47.4169C88.711 47.4169 89.116 47.4436 89.683 47.4702C88.036 45.6317 87.577 43.6599 87.712 41.5016C87.901 38.4107 86.497 36.2524 83.554 35Z" fill="#FE0509"/>
<path d="M107.827 42.4875C107.773 42.8339 107.719 43.1537 107.665 43.5001C107.341 45.312 106.315 46.5111 104.56 47.0973C104.02 47.2838 103.426 47.3371 102.859 47.497C101.131 47.9766 99.6731 48.8026 99.0791 50.6145C98.9981 50.8543 98.9981 51.3073 99.1601 51.4405C100.618 52.6929 102.103 53.9186 103.588 55.1443C103.615 55.091 103.669 54.9578 103.669 54.7979C103.831 52.7728 104.803 51.1474 106.288 49.8151C108.61 47.7901 108.907 45.2854 107.827 42.4875Z" fill="#FE0509"/>
<path d="M116.116 52.1069C115.981 52.3467 115.846 52.5866 115.684 52.8264C114.523 54.7449 112.795 55.4909 110.581 55.1179C109.852 54.9847 109.096 54.9047 108.367 54.9314C107.017 54.958 105.829 55.411 104.938 56.4768C104.776 56.69 104.641 57.0897 104.749 57.2762C105.64 59.0082 106.585 60.6869 107.503 62.3922C108.421 60.2072 110.284 59.0082 112.498 58.1022C115.117 57.063 116.17 54.8781 116.116 52.1069Z" fill="#FE0509"/>
<path d="M73.753 51.0678C71.188 50.8812 69.487 49.2825 67.84 47.4706C66.112 45.5787 63.331 45.1257 61.009 46.1649C61.333 46.2182 61.576 46.2715 61.819 46.3248C64.06 46.7511 65.356 48.0834 65.734 50.295C65.815 50.6947 65.842 51.121 65.923 51.5207C66.328 53.2261 67.111 54.6383 68.839 55.3044C69.082 55.411 69.568 55.3311 69.73 55.1446C71.08 53.8389 72.349 52.5066 73.753 51.0678Z" fill="#FE0509"/>
<path d="M71.2419 38.5972C71.5119 38.757 71.7819 38.9436 72.0519 39.1034C73.6449 40.1426 74.3739 41.5548 74.1579 43.4467C74.1039 43.9796 73.9149 44.5125 73.8339 45.0454C73.5909 46.7241 73.6179 48.3762 74.8869 49.7351C75.3189 50.1881 75.6699 50.3213 76.2909 49.9483C77.2629 49.3887 78.3159 48.9357 79.369 48.5094C79.963 48.2429 80.611 48.1097 81.448 47.8432C79.1259 46.6442 77.992 44.8589 77.2359 42.6473C76.2909 39.8762 74.0769 38.7304 71.2419 38.5972Z" fill="#FE0509"/>
<path d="M54.259 57.169C57.526 56.2098 59.497 57.5687 60.874 60.2333C61.468 61.3791 62.521 62.2051 63.844 62.5781C65.275 62.9778 65.626 62.7646 66.085 61.4057C66.193 61.0327 66.328 60.6596 66.49 60.3132C67.003 59.2208 67.543 58.1549 68.029 57.169C66.922 57.169 65.815 57.3289 64.762 57.1157C63.628 56.9026 62.548 56.3963 61.495 55.9167C59.038 54.7976 56.176 55.2239 54.259 57.169Z" fill="#FE0509"/>
<path d="M49.2368 75.3419C49.2098 77.7666 48.7238 80.0848 47.4278 82.1365C45.4028 85.3074 42.3248 86.2933 38.7608 85.8936C35.2239 85.4939 33.1179 83.3356 32.2539 80.0049C31.3899 76.6741 31.4979 73.3701 33.0909 70.2525C34.7648 66.9751 38.7068 65.2964 42.7298 66.0425C46.4018 66.7353 48.6968 69.3732 49.1288 73.4234C49.1828 74.0629 49.1828 74.7024 49.2368 75.3419ZM45.3758 76.1679C45.0518 74.5958 44.8358 73.0503 44.3768 71.5582C43.8098 69.7463 42.4598 68.787 40.8128 68.7604C38.9498 68.7337 37.5188 69.5597 36.7898 71.2651C35.4938 74.276 35.4398 77.3936 36.6548 80.4579C37.3028 82.1099 38.9228 83.1491 40.6238 83.0425C42.4868 82.9359 43.8908 82.0566 44.4848 80.298C44.8898 78.9923 45.0518 77.5801 45.3758 76.1679Z" fill="white"/>
<path d="M79.531 85.52C78.505 85.52 77.56 85.52 76.534 85.52C76.399 84.9071 76.291 84.3209 76.129 83.6281C75.859 83.788 75.643 83.8946 75.454 84.0278C73.834 85.2535 71.971 85.8131 69.946 85.9463C65.221 86.2661 63.142 82.2159 64.6 78.4588C65.68 75.6877 68.002 74.6485 70.756 74.2488C72.241 74.0357 73.726 74.009 75.373 73.8758C75.481 72.6767 75.67 71.4244 75.13 70.1987C74.752 69.2927 73.942 69.1062 73.078 68.973C70.621 68.6532 68.218 68.7598 65.788 69.7457C65.572 68.973 65.329 68.2002 65.086 67.3742C68.569 66.1485 72.025 65.4291 75.643 66.1751C78.046 66.6814 79.477 68.52 79.585 71.1313C79.666 73.3962 79.612 75.6877 79.612 77.9526C79.612 80.3507 79.612 82.7488 79.585 85.1736C79.585 85.3068 79.558 85.3867 79.531 85.52ZM75.427 79.125C75.427 78.5121 75.454 77.8993 75.4 77.2864C75.373 77.0466 75.184 76.6469 75.022 76.6469C72.943 76.4338 70.837 76.3272 69.082 77.7661C67.462 79.0983 67.786 81.9228 69.595 82.7488C71.431 83.5748 72.97 82.7488 74.563 81.9228C75.805 81.3099 75.292 80.2175 75.4 79.3115C75.427 79.2582 75.427 79.2049 75.427 79.125Z" fill="white"/>
<path d="M107.476 82.589C109.339 82.7489 111.094 82.9887 112.876 83.042C113.578 83.0687 114.388 82.8288 115.009 82.4824C116.683 81.5232 116.737 79.6047 115.144 78.5389C114.28 77.9793 113.308 77.5796 112.39 77.1C111.553 76.6737 110.689 76.3006 109.879 75.8477C107.962 74.8085 107.179 73.1564 107.368 71.0248C107.557 68.8665 108.718 67.3743 110.716 66.5749C113.524 65.4558 116.251 65.9354 119.005 67.0013C118.843 67.7473 118.708 68.4135 118.573 69.0263C117.034 68.9198 115.549 68.7865 114.064 68.7865C113.524 68.7865 112.903 68.9997 112.444 69.2928C111.121 70.1188 110.959 71.5843 112.147 72.5969C112.849 73.1831 113.713 73.5828 114.55 73.9824C115.468 74.4354 116.467 74.7818 117.412 75.2082C121.624 77.1266 121.408 82.3759 117.844 84.6408C115.792 85.9464 113.551 86.0263 111.256 85.6799C110.203 85.5201 109.177 85.1737 108.124 84.9605C107.422 84.8273 107.152 84.4809 107.314 83.7614C107.395 83.3351 107.449 82.8555 107.476 82.589Z" fill="white"/>
<path d="M27.3129 69.0535C25.6659 68.9736 24.2349 68.8403 22.7769 68.8137C21.5349 68.8137 20.5359 69.5331 20.2119 70.5457C19.8609 71.7181 20.5089 72.4642 21.3729 73.0504C21.9939 73.4767 22.7499 73.7432 23.4519 74.0629C24.5049 74.5425 25.6119 74.9422 26.6379 75.4751C30.2289 77.367 29.9049 82.0833 27.2589 84.1883C25.5849 85.5206 23.6679 86.0269 21.6159 85.8403C20.0229 85.7071 18.4299 85.2541 16.8369 84.9877C16.0809 84.8544 15.8919 84.4548 16.0809 83.762C16.1889 83.3356 16.2159 82.8827 16.2429 82.5896C18.0789 82.7494 19.8609 83.0159 21.6699 83.0425C22.4529 83.0692 23.3709 82.7761 24.0189 82.3231C25.4769 81.2839 25.3959 79.5519 23.9109 78.566C23.1549 78.0598 22.3179 77.7134 21.5079 77.287C20.5629 76.8074 19.5639 76.3811 18.6459 75.8748C16.7559 74.8623 15.9999 73.2102 16.1349 71.1319C16.2969 69.0535 17.3229 67.5613 19.2399 66.7087C21.9399 65.5096 24.6399 65.8827 27.2859 66.8685C27.4749 66.9485 27.6639 67.2949 27.6639 67.508C27.5829 68.0676 27.3939 68.6272 27.3129 69.0535Z" fill="white"/>
<path d="M95.0561 69.8531C92.4371 69.1869 90.8171 70.4393 89.6291 72.3844C89.3321 72.864 89.1701 73.5035 89.1701 74.0897C89.1161 77.5004 89.1431 80.8844 89.1431 84.2951C89.1431 84.6415 89.1431 84.9879 89.1431 85.3876C87.7931 85.3876 86.5781 85.3876 85.3091 85.3876C85.3091 79.0725 85.3091 72.7841 85.3091 66.4424C86.3891 66.4424 87.4421 66.4424 88.5761 66.4424C88.6571 67.3484 88.7381 68.2543 88.8191 69.0537C89.5481 68.4142 90.2771 67.7747 91.0331 67.1086C92.0861 66.176 93.2741 65.723 94.7051 65.9894C95.2181 66.096 95.5151 66.2559 95.4341 66.8687C95.2451 67.8013 95.1641 68.7606 95.0561 69.8531Z" fill="white"/>
<path d="M61.1172 82.9624C61.2792 83.6818 61.4412 84.3213 61.6302 85.094C59.4162 85.7602 57.2292 86.3464 54.9612 85.6536C53.7462 85.2806 53.1252 84.2947 53.0982 83.069C53.0712 77.5266 53.0982 71.9577 53.0982 66.4153C53.0982 66.3621 53.1522 66.3088 53.1792 66.1755C54.3672 66.1755 55.5822 66.1755 56.9322 66.1755C56.9592 66.5486 56.9862 66.895 56.9862 67.268C56.9862 71.7711 56.9862 76.2476 56.9862 80.7508C56.9862 82.8824 57.5532 83.3887 59.6862 83.1223C60.1452 83.0956 60.6042 83.0423 61.1172 82.9624Z" fill="white"/>
<path d="M99.187 66.4153C100.456 66.4153 101.671 66.4153 102.913 66.4153C102.913 72.7303 102.913 78.9921 102.913 85.3604C101.698 85.3604 100.483 85.3604 99.187 85.3604C99.187 79.072 99.187 72.7836 99.187 66.4153Z" fill="white"/>
<path d="M96.352 36.3054C98.458 38.3305 99.16 40.9684 98.08 43.3133C97.081 45.4982 96.46 47.6299 97.432 50.0813C96.217 49.575 95.164 49.122 94.084 48.7223C93.598 48.5358 93.112 48.376 92.599 48.2694C91.303 47.9496 91.195 47.7631 91.384 46.5107C91.654 44.8587 92.707 43.7929 94.003 42.8603C94.624 42.4073 95.299 41.981 95.812 41.4214C97.135 39.9559 97.027 38.2506 96.352 36.3054Z" fill="#2CD8CF"/>
<path d="M83.554 35C86.47 36.2524 87.874 38.4107 87.712 41.5016C87.604 43.6865 88.036 45.6317 89.683 47.4702C89.116 47.4436 88.711 47.3903 88.333 47.4169C86.902 47.4436 85.471 47.4436 84.067 47.5768C83.392 47.6567 83.122 47.4702 82.906 46.9107C82.204 45.0987 82.717 43.4734 83.743 42.0078C85.66 39.2633 85.66 37.7712 83.554 35Z" fill="#2CD8CF"/>
<path d="M107.827 42.4875C108.934 45.2587 108.637 47.7634 106.315 49.8418C104.803 51.1741 103.858 52.7995 103.696 54.8245C103.696 54.9578 103.615 55.1176 103.615 55.1709C102.13 53.9452 100.618 52.7195 99.1869 51.4672C99.0249 51.3339 99.0249 50.881 99.1059 50.6412C99.6999 48.8292 101.158 48.0032 102.886 47.5236C103.453 47.3637 104.02 47.3104 104.587 47.1239C106.342 46.5377 107.368 45.3386 107.692 43.5267C107.719 43.1803 107.773 42.8339 107.827 42.4875Z" fill="#2CD8CF"/>
<path d="M116.116 52.1069C116.17 54.8781 115.144 57.063 112.498 58.1289C110.284 59.0348 108.448 60.2339 107.503 62.4188C106.558 60.7135 105.64 59.0082 104.749 57.3029C104.641 57.1163 104.776 56.69 104.938 56.5035C105.802 55.4377 107.017 54.9847 108.367 54.958C109.096 54.958 109.852 55.0113 110.581 55.1446C112.822 55.5442 114.523 54.7715 115.684 52.853C115.819 52.5866 115.954 52.3467 116.116 52.1069Z" fill="#2CD8CF"/>
<path d="M73.7529 51.0669C72.3489 52.5058 71.0799 53.8647 69.7569 55.1703C69.5679 55.3569 69.1089 55.4368 68.8659 55.3302C67.1109 54.6641 66.3279 53.2252 65.9499 51.5465C65.8689 51.1468 65.8149 50.7205 65.7609 50.3208C65.3829 48.1092 64.0869 46.7769 61.8459 46.3506C61.6029 46.2973 61.3599 46.244 61.0359 46.1907C63.3309 45.1782 66.1389 45.6312 67.8669 47.4964C69.4869 49.2816 71.1879 50.8804 73.7529 51.0669Z" fill="#2CD8CF"/>
<path d="M71.2419 38.5972C74.1039 38.7304 76.2909 39.9028 77.2359 42.6473C77.965 44.8323 79.1259 46.6442 81.448 47.8432C80.611 48.1097 79.963 48.2696 79.369 48.5094C78.3159 48.9624 77.2629 49.3887 76.2909 49.9483C75.6699 50.3213 75.3459 50.1881 74.8869 49.7351C73.5909 48.3762 73.5909 46.7241 73.8339 45.0454C73.9149 44.5125 74.0769 43.9796 74.1579 43.4467C74.3739 41.5815 73.6449 40.1426 72.0519 39.1034C71.7549 38.9436 71.4849 38.757 71.2419 38.5972Z" fill="#2CD8CF"/>
<path d="M54.259 57.1695C56.176 55.2244 59.038 54.8247 61.495 55.9438C62.548 56.4234 63.628 56.9297 64.762 57.1429C65.815 57.356 66.949 57.1961 68.029 57.1961C67.543 58.182 67.003 59.2479 66.49 60.3403C66.328 60.6867 66.193 61.0598 66.085 61.4328C65.626 62.8184 65.248 63.0316 63.844 62.6052C62.521 62.2322 61.468 61.4062 60.874 60.2604C59.47 57.5425 57.526 56.2103 54.259 57.1695Z" fill="#2CD8CF"/>
<path d="M120.976 66.7883V68.6269H120.544V66.7883H119.95V66.4153H121.597V66.7883H120.976Z" fill="white"/>
<path d="M123.595 68.6269L123.649 66.7883L123.163 68.6269H122.785L122.299 66.7883L122.353 68.6269H121.948V66.4153H122.569L123.001 68.0673L123.433 66.4153H124.054V68.6269H123.595Z" fill="white"/>
</g>
<defs>
<radialGradient id="paint0_radial" cx="0" cy="0" r="1" gradientUnits="userSpaceOnUse" gradientTransform="translate(56.474 53.3298) scale(68.0223 66.416)">
<stop offset="0.1458" stop-color="#96A1BB"/>
<stop offset="0.8886" stop-color="#5F6A8D"/>
<stop offset="1" stop-color="#4E5E83"/>
</radialGradient>
<linearGradient id="paint1_linear" x1="-4.36943" y1="86.0765" x2="140.36" y2="89.8603" gradientUnits="userSpaceOnUse">
<stop stop-color="#697698"/>
<stop offset="0.494792" stop-color="#4C5979"/>
<stop offset="1" stop-color="#384464"/>
</linearGradient>
<clipPath id="clip0">
<rect x="16" y="35" width="108" height="51" fill="white"/>
</clipPath>
</defs>
</svg>
