<svg width="140" height="140" viewBox="0 0 140 140" fill="none" xmlns="http://www.w3.org/2000/svg">
<g clip-path="url(#clip0)">
<path d="M106.931 121.726C106.931 131.815 91.8909 139.986 73.4299 139.986C54.969 139.986 39.9829 131.815 39.9829 121.726C39.9829 120.17 39.9426 118.13 40.6269 116.695C44.3164 108.793 57.8133 103.466 73.4299 103.466C89.7711 103.466 103.644 110.107 106.555 118.573C106.931 119.673 106.931 120.572 106.931 121.726Z" fill="url(#paint0_linear)"/>
<path d="M73.6983 137.034C92.1632 137.034 107.132 128.859 107.132 118.774C107.132 108.69 92.1632 100.515 73.6983 100.515C55.2334 100.515 40.2646 108.69 40.2646 118.774C40.2646 128.859 55.2334 137.034 73.6983 137.034Z" fill="url(#paint1_linear)"/>
<path d="M74.9593 105.923C74.4092 105.856 73.8457 105.829 73.2554 105.829C72.6651 105.829 72.1016 105.87 71.5515 105.923L65.4739 105.937L65.4068 106.098V117.77C65.4068 120.051 68.9219 121.916 73.2554 121.916C77.5889 121.916 81.104 120.064 81.104 117.77V105.923H74.9593Z" fill="url(#paint2_linear)"/>
<path d="M74.9593 105.923C74.4092 105.856 73.8457 105.829 73.2554 105.829C72.6651 105.829 72.1016 105.87 71.5515 105.923L65.541 105.964L65.4068 106.125V117.783C65.4068 120.064 68.9219 121.929 73.2554 121.929C77.5889 121.929 81.104 120.078 81.104 117.783V105.937H74.9593V105.923Z" fill="url(#paint3_linear)"/>
<path d="M73.2554 110.27C77.5901 110.27 81.104 108.414 81.104 106.124C81.104 103.834 77.5901 101.978 73.2554 101.978C68.9207 101.978 65.4068 103.834 65.4068 106.124C65.4068 108.414 68.9207 110.27 73.2554 110.27Z" fill="url(#paint4_linear)"/>
<path d="M74.6373 93.0959C74.2214 93.0422 73.8054 93.0288 73.3627 93.0288C72.92 93.0288 72.5041 93.0556 72.0881 93.0959L67.54 93.1093L67.4863 93.2301V104.969C67.4863 106.687 70.1159 108.069 73.3627 108.069C76.6095 108.069 79.2391 106.687 79.2391 104.969V93.0959H74.6373Z" fill="url(#paint5_linear)"/>
<path d="M74.6372 93.0959C74.2213 93.0422 73.8054 93.0288 73.3627 93.0288C72.9199 93.0288 72.504 93.0556 72.0881 93.0959L67.5936 93.1227L67.4997 93.2435V104.969C67.4997 106.687 70.1293 108.069 73.3761 108.069C76.6228 108.069 79.2524 106.687 79.2524 104.969V93.0959H74.6372Z" fill="url(#paint6_linear)"/>
<path d="M73.3627 96.3426C76.6081 96.3426 79.2391 94.9551 79.2391 93.2435C79.2391 91.5318 76.6081 90.1443 73.3627 90.1443C70.1173 90.1443 67.4863 91.5318 67.4863 93.2435C67.4863 94.9551 70.1173 96.3426 73.3627 96.3426Z" fill="url(#paint7_linear)"/>
<path d="M70.2098 24.1752C67.9693 24.3631 65.6885 24.6851 63.3675 25.1681C61.0464 25.651 58.8059 26.2414 56.6727 26.939L32.2415 31.9031L44.115 90.4924C46.6507 99.2399 90.1063 92.9074 77.9243 96.3688C95.1509 92.8671 107.964 84.8307 106.112 75.7344L94.6142 19.2112L70.2098 24.1752Z" fill="url(#paint8_linear)"/>
<path d="M94.6143 19.212C95.2986 24.7261 85.2497 30.2268 70.5453 34.0505C53.1845 38.5718 38.6948 35.258 32.3086 32.2795C30.4303 23.6796 37.0848 6.31881 54.3383 1.40841C70.6526 -3.20683 87.839 3.70261 94.6143 19.212Z" fill="url(#paint9_linear)"/>
<rect x="50.9171" y="15.0264" width="27.3694" height="31.7968"/>
<rect x="56.552" y="19.3196" width="39.1758" height="31.2602"/>
<rect x="36.2933" y="26.1619" width="32.0652" height="22.5395"/>
<path d="M86.0815 25.1558C86.0815 25.1558 72.759 25.4778 66.7082 26.8865C60.6574 28.2952 48.3948 33.8765 48.3948 33.8765L47.8045 31.3408C47.8045 31.3408 61.1001 25.5046 66.1447 24.3374C71.1893 23.1702 85.5046 22.6067 85.5046 22.6067L86.0815 25.1558Z" fill="#2CD8CF"/>
<path d="M84.9142 19.7478C84.9142 19.7478 71.5917 20.0698 65.5409 21.4786C59.4901 22.8873 47.2275 28.4685 47.2275 28.4685L46.6372 25.9328C46.6372 25.9328 59.9328 20.0967 64.9774 18.9294C70.022 17.7622 84.3373 17.1987 84.3373 17.1987L84.9142 19.7478Z" fill="#2CD8CF"/>
<path d="M87.356 30.6031C87.356 30.6031 74.0335 30.9251 67.9827 32.3338C61.9319 33.7425 49.6694 39.3237 49.6694 39.3237L49.079 36.788C49.079 36.788 62.3747 30.9519 67.4192 29.7847C72.4638 28.6174 86.7791 28.054 86.7791 28.054L87.356 30.6031Z" fill="#2CD8CF"/>
<path d="M88.5501 35.889C88.5501 35.889 75.2277 36.2109 69.1769 37.6197C63.1127 39.0284 50.8635 44.6096 50.8635 44.6096L50.2732 42.0739C50.2732 42.0739 63.5688 36.2378 68.6134 35.0706C73.658 33.9033 87.9732 33.3398 87.9732 33.3398L88.5501 35.889Z" fill="#2CD8CF"/>
<path d="M89.7576 41.295C89.7576 41.295 76.4351 41.617 70.3843 43.0257C64.3201 44.4344 52.071 50.0156 52.071 50.0156L51.4807 47.4799C51.4807 47.4799 64.7763 41.6438 69.8209 40.4766C74.8654 39.3093 89.1807 38.7458 89.1807 38.7458L89.7576 41.295Z" fill="#2CD8CF"/>
<path d="M91.0993 46.8094C91.0993 46.8094 77.7768 47.1314 71.726 48.5401C65.6618 49.9488 53.4126 55.53 53.4126 55.53L52.8223 52.9943C52.8223 52.9943 66.118 47.1582 71.1625 45.991C76.2071 44.8237 90.5224 44.2603 90.5224 44.2603L91.0993 46.8094Z" fill="#2CD8CF"/>
<path d="M92.3336 52.3772C92.3336 52.3772 79.0111 52.6992 72.9603 54.108C66.9095 55.5167 54.647 61.0979 54.647 61.0979L54.0566 58.5622C54.0566 58.5622 67.3523 52.7261 72.3968 51.5588C77.4414 50.3916 91.7567 49.8281 91.7567 49.8281L92.3336 52.3772Z" fill="#2CD8CF"/>
<path d="M93.5142 57.8916C93.5142 57.8916 80.1917 58.2136 74.1409 59.6224C68.0901 61.0311 55.8276 66.6123 55.8276 66.6123L55.2372 64.0766C55.2372 64.0766 68.5329 58.2405 73.5774 57.0732C78.622 55.906 92.9373 55.3425 92.9373 55.3425L93.5142 57.8916Z" fill="#2CD8CF"/>
<path d="M94.7619 63.2583C94.7619 63.2583 81.4394 63.5803 75.3886 64.989C69.3378 66.3978 57.0752 71.979 57.0752 71.979L56.4849 69.4433C56.4849 69.4433 69.7806 63.6072 74.8251 62.4399C79.8697 61.2727 94.185 60.7092 94.185 60.7092L94.7619 63.2583Z" fill="#2CD8CF"/>
<path d="M96.0365 68.7315C96.0365 68.7315 82.714 69.0535 76.6632 70.4622C70.6124 71.8709 58.3498 77.4521 58.3498 77.4521L57.7595 74.9164C57.7595 74.9164 71.0552 69.0803 76.0997 67.9131C81.1443 66.7459 95.4596 66.1824 95.4596 66.1824L96.0365 68.7315Z" fill="#2CD8CF"/>
<path d="M77.8707 92.0499C103.912 86.6565 105.616 78.9689 106.354 77.4126C107.024 81.2094 101.202 93.9953 78.5012 97.2152C59.0341 100.301 45.081 94.3039 44.1016 90.4802C49.2267 93.244 64.0384 94.8942 77.8707 92.0499Z" fill="url(#paint10_linear)"/>
<path d="M32.094 30.938L40.9086 27.7583L41.3781 30.0391L41.4586 30.4282L33.3417 32.7358L32.4562 32.9907L32.094 30.938Z" fill="#2CD8CF"/>
<path d="M33.4893 38.0754L42.5185 35.5263L42.4648 35.3116L41.955 32.8564L37.9301 34.292L33.0734 36.0227L33.4893 38.0754Z" fill="#2CD8CF"/>
<path d="M43.5246 40.3559L34.4686 42.9184L34.0527 40.8389L42.9612 37.6726L43.5246 40.3559Z" fill="#2CD8CF"/>
<path d="M35.6897 48.9558L44.7591 46.3932L44.2225 43.71L35.2737 46.9165L35.6897 48.9558Z" fill="#2CD8CF"/>
<path d="M36.7763 54.3088L45.886 51.7463L45.3493 49.063L36.3604 52.2829L36.7763 54.3088Z" fill="#2CD8CF"/>
<path d="M37.8227 59.4474L46.9593 56.8715L46.4226 54.1748L37.4068 57.4082L37.8227 59.4474Z" fill="#2CD8CF"/>
<path d="M48.0327 62.051L38.8693 64.6403L38.4534 62.601L47.4961 59.3677L48.0327 62.051Z" fill="#2CD8CF"/>
<path d="M40.0097 70.2875L49.1731 67.7116L48.6364 65.0283L39.6072 68.2617L40.0097 70.2875Z" fill="#2CD8CF"/>
<path d="M41.1502 75.8822L50.3672 73.2795L49.8306 70.5962L40.7343 73.8564L41.1502 75.8822Z" fill="#2CD8CF"/>
<path d="M42.2501 81.3173L51.494 78.7011L50.9574 76.0178L41.8342 79.278L42.2501 81.3173Z" fill="#2CD8CF"/>
<path d="M94.4668 18.8766L91.059 19.3462L90.4821 16.6898L93.2459 16.4885C93.6886 17.2667 94.0911 18.0582 94.4668 18.8766Z" fill="#2CD8CF"/>
<path d="M95.5806 23.9616L92.5753 24.3909L92.0923 24.458L91.5288 21.7881L94.4402 21.5734L95.0976 21.5198L95.5806 23.9616Z" fill="#2CD8CF"/>
<path d="M96.5731 28.7914L93.1251 29.2744L92.5616 26.6045L96.0767 26.3496L96.5731 28.7914Z" fill="#2CD8CF"/>
<path d="M97.794 34.8287L94.4265 35.3117L93.8362 32.6285L97.2976 32.387L97.794 34.8287Z" fill="#2CD8CF"/>
<path d="M98.8808 40.1815L95.5804 40.6511L94.9766 37.9812L98.3844 37.7397L98.8808 40.1815Z" fill="#2CD8CF"/>
<path d="M99.9271 45.307L96.667 45.7766L96.0632 43.1067L99.4307 42.8518L99.9271 45.307Z" fill="#2CD8CF"/>
<path d="M100.987 50.4999L97.7807 50.956L97.1769 48.2862L100.477 48.0447L100.987 50.4999Z" fill="#2CD8CF"/>
<path d="M102.127 56.1481L99.0148 56.5908L98.4244 53.9209L101.631 53.6794L102.127 56.1481Z" fill="#2CD8CF"/>
<path d="M103.268 61.7279L100.182 62.1706L99.5919 59.4874L102.772 59.2593L103.268 61.7279Z" fill="#2CD8CF"/>
<path d="M104.368 67.1495L101.349 67.5789L100.746 64.909L103.872 64.6809L104.368 67.1495Z" fill="#2CD8CF"/>
<path d="M49.2401 66.9604C49.2401 66.9604 54.6737 88.0107 56.7399 93.2431C58.8328 98.556 69.4318 100.488 77.6829 98.8109C79.8697 98.234 85.6119 96.5033 87.4097 94.0884C87.4097 94.0884 69.5928 98.4219 64.4945 91.66C62.415 88.8962 56.3508 65.5115 56.3508 65.5115L49.2401 66.9604Z" fill="url(#paint11_linear)"/>
<path d="M56.7264 93.2308C58.8193 98.5437 69.4317 100.489 77.6828 98.7986C79.8697 98.2217 85.6119 96.491 87.4097 94.0761C87.4097 94.0761 69.5927 98.4096 64.4945 91.6477" fill="url(#paint12_linear)"/>
<path d="M58.323 58.8705C58.7255 63.3113 56.1764 67.1618 52.6479 67.4838C49.1194 67.8058 45.9263 64.4517 45.5372 60.0109C45.1481 55.5701 47.6838 51.7196 51.2123 51.3976C54.7409 51.0756 57.9205 54.4297 58.323 58.8705Z" fill="url(#paint13_linear)"/>
<path d="M51.2525 67.632C47.724 67.954 44.5309 64.5999 44.1419 60.1591C43.9138 57.5563 44.6785 55.1682 46.0738 53.5583C46.2885 53.3033 46.5166 53.0753 46.7581 52.874C46.9593 52.6996 47.1874 52.5386 47.4155 52.391C47.9387 52.0556 48.5156 51.8007 49.1193 51.6666C49.3474 51.6129 49.5755 51.5726 49.817 51.5592C53.3455 51.2372 56.5386 54.5913 56.9277 59.0321C57.3302 63.4595 54.7811 67.3235 51.2525 67.632Z" fill="url(#paint14_linear)"/>
<path d="M54.3919 59.2468C54.6334 61.9301 53.1039 64.2511 50.9707 64.4389C48.8375 64.6268 46.919 62.6143 46.6775 59.931C46.436 57.2477 47.9655 54.9267 50.0987 54.7389C52.2319 54.5511 54.1504 56.5769 54.3919 59.2468Z" fill="url(#paint15_linear)" stroke="#3F4464" stroke-width="3" stroke-miterlimit="10"/>
</g>
<defs>
<linearGradient id="paint0_linear" x1="28.7619" y1="132.323" x2="107.747" y2="113.469" gradientUnits="userSpaceOnUse">
<stop stop-color="#2E364F"/>
<stop offset="0.238207" stop-color="#2E364F"/>
<stop offset="0.335548" stop-color="#4A526A"/>
<stop offset="0.523134" stop-color="#576386"/>
<stop offset="0.623631" stop-color="#445071"/>
<stop offset="0.7821" stop-color="#2D3146"/>
</linearGradient>
<linearGradient id="paint1_linear" x1="29.081" y1="129.428" x2="107.853" y2="110.624" gradientUnits="userSpaceOnUse">
<stop stop-color="#687599"/>
<stop offset="0.298239" stop-color="#687599"/>
<stop offset="0.5" stop-color="#7884A7"/>
<stop offset="0.6275" stop-color="#687599"/>
<stop offset="0.995" stop-color="#49577E"/>
</linearGradient>
<linearGradient id="paint2_linear" x1="65.8609" y1="113.874" x2="82.3994" y2="113.874" gradientUnits="userSpaceOnUse">
<stop stop-color="#E7EFF5"/>
<stop offset="0.2098" stop-color="#C3C5D2"/>
<stop offset="0.3352" stop-color="#C6C8D5"/>
<stop offset="0.3571" stop-color="#C6CAD6"/>
<stop offset="0.4592" stop-color="#C6CFDA"/>
<stop offset="0.653" stop-color="#98A5B5"/>
<stop offset="0.995" stop-color="#7E8EA0"/>
</linearGradient>
<linearGradient id="paint3_linear" x1="65.8609" y1="113.874" x2="82.3994" y2="113.874" gradientUnits="userSpaceOnUse">
<stop stop-color="#6C799D"/>
<stop offset="0.120407" stop-color="#566489"/>
<stop offset="0.285923" stop-color="#627094"/>
<stop offset="0.3918" stop-color="#727D9D"/>
<stop offset="0.59386" stop-color="#5F6D92"/>
<stop offset="0.778622" stop-color="#515F85"/>
<stop offset="1" stop-color="#526086"/>
</linearGradient>
<linearGradient id="paint4_linear" x1="64.9586" y1="107.741" x2="78.2096" y2="105.149" gradientUnits="userSpaceOnUse">
<stop stop-color="#8490B1"/>
<stop offset="0.301286" stop-color="#8490B1"/>
<stop offset="0.5" stop-color="#8D98B9"/>
<stop offset="0.642582" stop-color="#7782A5"/>
<stop offset="0.995" stop-color="#63729B"/>
</linearGradient>
<linearGradient id="paint5_linear" x1="67.8345" y1="100.544" x2="80.2038" y2="100.544" gradientUnits="userSpaceOnUse">
<stop stop-color="#E7EFF5"/>
<stop offset="0.2098" stop-color="#C3C5D2"/>
<stop offset="0.3352" stop-color="#C6C8D5"/>
<stop offset="0.3571" stop-color="#C6CAD6"/>
<stop offset="0.4592" stop-color="#C6CFDA"/>
<stop offset="0.653" stop-color="#98A5B5"/>
<stop offset="0.995" stop-color="#7E8EA0"/>
</linearGradient>
<linearGradient id="paint6_linear" x1="67.8345" y1="100.544" x2="80.2038" y2="100.544" gradientUnits="userSpaceOnUse">
<stop stop-color="#6C799D"/>
<stop offset="0.0891947" stop-color="#58668B"/>
<stop offset="0.2285" stop-color="#5F6D91"/>
<stop offset="0.3918" stop-color="#727D9D"/>
<stop offset="0.5994" stop-color="#5C6A90"/>
<stop offset="1" stop-color="#526086"/>
</linearGradient>
<linearGradient id="paint7_linear" x1="67.1596" y1="94.4512" x2="77.0702" y2="92.5121" gradientUnits="userSpaceOnUse">
<stop stop-color="#DFE6EE"/>
<stop offset="0.5" stop-color="#F5F7F8"/>
<stop offset="0.995" stop-color="#ABB6C3"/>
</linearGradient>
<linearGradient id="paint8_linear" x1="41.2242" y1="66.6822" x2="106.984" y2="53.3073" gradientUnits="userSpaceOnUse">
<stop stop-color="#76809C"/>
<stop offset="0.2574" stop-color="#69779B"/>
<stop offset="0.391201" stop-color="#6A7494"/>
<stop offset="0.598958" stop-color="#535677"/>
<stop offset="0.995" stop-color="#404360"/>
</linearGradient>
<linearGradient id="paint9_linear" x1="40.3114" y1="40.8838" x2="81.9947" y2="2.72945" gradientUnits="userSpaceOnUse">
<stop stop-color="#6E7A9C"/>
<stop offset="0.2574" stop-color="#6A7597"/>
<stop offset="0.5842" stop-color="#4F5373"/>
<stop offset="0.995" stop-color="#444765"/>
</linearGradient>
<linearGradient id="paint10_linear" x1="80.9591" y1="73.1012" x2="63.9118" y2="108.941" gradientUnits="userSpaceOnUse">
<stop offset="0.244284" stop-color="#3E445F"/>
<stop offset="0.922404" stop-color="#687599"/>
</linearGradient>
<linearGradient id="paint11_linear" x1="44.0006" y1="88.0624" x2="69.7009" y2="81.2148" gradientUnits="userSpaceOnUse">
<stop stop-color="#546288"/>
<stop offset="0.2574" stop-color="#C3C5D2"/>
<stop offset="0.3352" stop-color="#556389"/>
<stop offset="0.3997" stop-color="#546289"/>
<stop offset="0.470996" stop-color="#7C85A2"/>
<stop offset="0.534979" stop-color="#606B8B"/>
<stop offset="0.586782" stop-color="#546081"/>
<stop offset="0.662177" stop-color="#4C597A"/>
<stop offset="0.995" stop-color="#4D5A7C"/>
</linearGradient>
<linearGradient id="paint12_linear" x1="64.5413" y1="95.2868" x2="95.8654" y2="97.793" gradientUnits="userSpaceOnUse">
<stop offset="0.00417352" stop-color="#DDE4EC" stop-opacity="0"/>
<stop offset="0.00427352" stop-color="#4D5A7B"/>
<stop offset="0.175849" stop-color="#576386"/>
<stop offset="0.307755" stop-color="#485475"/>
<stop offset="0.5233" stop-color="#39415C"/>
</linearGradient>
<linearGradient id="paint13_linear" x1="50.4966" y1="52.9217" x2="53.2323" y2="65.4727" gradientUnits="userSpaceOnUse">
<stop stop-color="#505C7D"/>
<stop offset="0.1121" stop-color="#69769A"/>
<stop offset="0.2138" stop-color="#8B95B0"/>
<stop offset="0.365" stop-color="#7983A3"/>
<stop offset="0.4753" stop-color="#6F7A9A"/>
<stop offset="0.7252" stop-color="#4D5879"/>
</linearGradient>
<linearGradient id="paint14_linear" x1="44.0935" y1="59.5924" x2="56.9712" y2="59.5924" gradientUnits="userSpaceOnUse">
<stop offset="0.005" stop-color="#49577E"/>
<stop offset="0.5" stop-color="#7D89AB"/>
<stop offset="1" stop-color="#687599"/>
</linearGradient>
<linearGradient id="paint15_linear" x1="46.6735" y1="59.9332" x2="54.387" y2="59.244" gradientUnits="userSpaceOnUse">
<stop offset="1" stop-color="#2CD8CF"/>
</linearGradient>
<clipPath id="clip0">
<rect x="32" width="75.1318" height="140" fill="white"/>
</clipPath>
</defs>
</svg>
