<svg width="137" height="148" viewBox="0 0 137 148" fill="none" xmlns="http://www.w3.org/2000/svg">
  <g clip-path="url(#clip0)" filter="url(#filter0_d)">
    <path
      d="M4.08449 28.2627V95.5154C4.08449 98.3873 5.588 101.04 8.02065 102.526L60.6099 137.496C66.0833 140.824 72.9252 140.824 78.3986 137.496L128.927 102.526C131.359 101.023 132.863 98.3704 132.863 95.5154V28.8878L4.08449 28.2627Z"
      fill="url(#paint0_linear)"/>
    <path
      d="M4.08449 28.8876V95.5152C4.08449 98.3871 5.588 101.039 8.02065 102.526L60.6099 137.495C66.0833 140.823 72.9252 140.823 78.3986 137.495L128.927 102.526C131.359 101.022 132.863 98.3702 132.863 95.5152V28.8876H4.08449Z"
      fill="url(#paint1_linear)"/>
    <path
      d="M130.248 36.3528L78.7396 67.8421C73.0634 71.3052 65.9175 71.3052 60.2413 67.8421L5.8614 34.6127C3.17535 32.9741 3.44564 28.9703 6.35131 27.7202L63.6538 3.19099C67.3872 1.603 71.5937 1.603 75.3102 3.19099L129.521 26.3856C133.728 28.1932 134.15 33.9877 130.248 36.3528Z"
      fill="url(#paint2_linear)"/>
    <path
      d="M130.245 34.3443L78.7367 65.8337C73.0605 69.2968 65.9146 69.2968 60.2384 65.8337L5.85847 32.6043C3.17242 30.9657 3.44272 26.9619 6.34838 25.7118L63.6509 1.18256C67.3843 -0.405418 71.5908 -0.405418 75.3073 1.18256L129.518 24.3772C133.725 26.1848 134.147 31.9793 130.245 34.3443Z"
      fill="url(#paint3_linear)"/>
    <path
      d="M91.7445 114.377C91.7445 114.213 91.8246 114.06 91.9591 113.966L92.3443 113.699C92.6759 113.468 93.1297 113.705 93.1297 114.109V119.26C93.1297 119.424 93.0496 119.577 92.9151 119.671L92.5299 119.938C92.1983 120.169 91.7445 119.932 91.7445 119.528V114.377ZM94.9373 117.358C94.9373 117.76 95.3874 117.998 95.7193 117.771L96.1046 117.508C96.241 117.415 96.3226 117.26 96.3226 117.095V111.913C96.3226 111.509 95.8687 111.272 95.5372 111.502L95.1519 111.77C95.0175 111.864 94.9373 112.017 94.9373 112.181V117.358ZM98.1302 115.162C98.1302 115.564 98.5803 115.802 98.9122 115.575L99.2974 115.312C99.4339 115.219 99.5154 115.064 99.5154 114.899V109.683C99.5154 109.279 99.0616 109.042 98.7301 109.272L98.3448 109.54C98.2104 109.634 98.1302 109.787 98.1302 109.951V115.162ZM101.323 113C101.323 113.402 101.773 113.639 102.105 113.413L102.49 113.149C102.627 113.056 102.708 112.902 102.708 112.737V107.487C102.708 107.083 102.254 106.846 101.923 107.076L101.538 107.344C101.403 107.438 101.323 107.591 101.323 107.755V113ZM104.499 110.804C104.499 111.205 104.949 111.443 105.281 111.216L105.666 110.953C105.803 110.86 105.884 110.706 105.884 110.54V105.257C105.884 104.853 105.43 104.616 105.099 104.846L104.714 105.114C104.579 105.208 104.499 105.361 104.499 105.525V110.804ZM107.692 108.607C107.692 109.009 108.142 109.247 108.474 109.02L108.859 108.757C108.996 108.664 109.077 108.509 109.077 108.344V103.027C109.077 102.623 108.623 102.386 108.292 102.616L107.906 102.884C107.772 102.978 107.692 103.131 107.692 103.295V108.607ZM110.885 106.445C110.885 106.847 111.335 107.085 111.667 106.858L112.052 106.595C112.188 106.502 112.27 106.347 112.27 106.182V100.831C112.27 100.427 111.816 100.19 111.485 100.42L111.099 100.688C110.965 100.782 110.885 100.935 110.885 101.099V106.445ZM114.078 104.266C114.078 104.668 114.528 104.905 114.86 104.679L115.245 104.416C115.381 104.322 115.463 104.168 115.463 104.003V98.601C115.463 98.1972 115.009 97.96 114.677 98.1904L114.292 98.4582C114.158 98.5517 114.078 98.705 114.078 98.8688V104.266ZM117.254 102.07C117.254 102.472 117.704 102.709 118.036 102.483L118.421 102.219C118.557 102.126 118.639 101.972 118.639 101.807V96.3879C118.639 95.9842 118.185 95.7469 117.853 95.9774L117.468 96.2452C117.334 96.3386 117.254 96.492 117.254 96.6557V102.07ZM120.664 94.0324C120.528 94.1256 120.446 94.2801 120.446 94.4453V99.8904C120.446 100.292 120.896 100.53 121.228 100.303L121.614 100.04C121.75 99.947 121.832 99.7925 121.832 99.6273V94.1822C121.832 93.7803 121.382 93.5427 121.05 93.7693L120.664 94.0324Z"
      fill="#2FAAAF"/>
    <path
      d="M57.4004 130.451C56.5557 130.451 55.7279 130.181 55.0015 129.691L12.8018 101.614C9.57511 99.3672 7.64926 95.6337 7.64926 91.6131V46.778C7.64926 44.4129 9.50754 42.4871 11.7881 42.4871C12.5315 42.4871 13.2748 42.7067 13.9167 43.1121L56.9611 69.2631C59.8837 71.1045 61.6913 74.4325 61.6913 77.9632V125.957C61.7251 128.745 59.4783 130.451 57.4004 130.451Z"
      fill="#2CD8CF"/>
    <path
      d="M31.9667 73.6109C31.9823 67.758 27.4717 59.9698 21.8686 56.2396C16.2811 52.5094 11.7393 54.2263 11.7393 60.0791C11.7393 65.9319 16.2498 73.7201 21.8374 77.4503C21.853 77.4659 21.8686 77.4659 21.8842 77.4815L31.9355 84.224L31.9823 73.6577C31.9667 73.6577 31.9667 73.6421 31.9667 73.6109Z"
      fill="white"/>
    <path
      d="M50.6335 94.9781C49.0259 94.9781 47.1842 94.3069 45.2801 93.0271L45.1709 92.9491L35.2757 86.3159L35.3225 75.8276C35.3381 72.269 37.0705 70.1308 39.9423 70.1308C41.5499 70.1308 43.4072 70.8019 45.3113 72.0817C50.852 75.7807 55.3158 83.4909 55.269 89.2813C55.2534 92.8398 53.5209 94.9781 50.6335 94.9781Z"
      fill="url(#paint4_linear)"/>
    <path
      d="M27.1595 105.075C25.5676 105.075 23.7259 104.404 21.8374 103.124C16.3591 99.4252 11.8953 91.6995 11.8953 85.9247C11.8953 82.3661 13.5966 80.2279 16.4683 80.2279C18.0603 80.2279 19.902 80.899 21.8061 82.1789L21.9154 82.2413L31.7794 88.8589L31.7326 99.3472C31.7169 102.937 30.0157 105.075 27.1595 105.075Z"
      fill="url(#paint5_linear)"/>
    <path
      d="M50.4462 120.762C48.8542 120.762 47.0125 120.091 45.124 118.827C39.6457 115.128 35.1976 107.418 35.2288 101.628L35.2756 91.2329L45.0616 97.8037L45.1708 97.8661C50.6647 101.565 55.0972 109.275 55.0504 115.066C55.0348 118.624 53.318 120.762 50.4462 120.762Z"
      fill="url(#paint6_linear)"/>
    <path
      d="M35.3537 91.389L45.0304 97.8817L45.1396 97.9442C50.6179 101.628 55.0348 109.307 54.988 115.066C54.9568 118.593 53.2556 120.684 50.4462 120.684C48.8698 120.684 47.0437 120.013 45.1708 118.749C39.7082 115.066 35.2756 107.371 35.3068 101.612V101.503L35.3537 91.389ZM35.1976 91.0768L35.1508 101.503V101.612C35.1196 107.418 39.5677 115.159 45.0772 118.874C47.0437 120.201 48.8854 120.825 50.4462 120.825C53.24 120.825 55.1129 118.78 55.1441 115.05C55.1909 109.244 50.7427 101.503 45.2177 97.7881L45.1084 97.7257L35.1976 91.0768Z"
      fill="white"/>
    <path
      d="M45.2176 97.8655C50.7115 101.549 55.1284 109.243 55.0816 115.018C55.0348 120.793 50.5554 122.494 45.0771 118.811C39.6145 115.127 35.1819 107.433 35.2131 101.658V101.643V101.627V101.486L35.26 91.1854L45.0459 97.7562L45.1708 97.8343L45.1864 97.8499L45.2176 97.8655ZM45.2176 97.7406C45.202 97.725 45.1864 97.725 45.1708 97.7094L35.1351 90.9669L35.0883 101.533C35.0883 101.549 35.0883 101.564 35.0883 101.58C35.0571 107.433 39.5364 115.221 45.0771 118.951C50.6178 122.682 55.1596 120.965 55.2065 115.112C55.2533 109.259 50.7895 101.455 45.2176 97.7406Z"
      fill="url(#paint7_linear)"/>
  </g>
  <defs>
    <filter id="filter0_d" x="0" y="0" width="136.967" height="148" filterUnits="userSpaceOnUse"
            color-interpolation-filters="sRGB">
      <feFlood flood-opacity="0" result="BackgroundImageFix"/>
      <feColorMatrix in="SourceAlpha" type="matrix" values="0 0 0 0 0 0 0 0 0 0 0 0 0 0 0 0 0 0 127 0"/>
      <feOffset dy="4"/>
      <feGaussianBlur stdDeviation="2"/>
      <feColorMatrix type="matrix" values="0 0 0 0 0 0 0 0 0 0 0 0 0 0 0 0 0 0 0.25 0"/>
      <feBlend mode="normal" in2="BackgroundImageFix" result="effect1_dropShadow"/>
      <feBlend mode="normal" in="SourceGraphic" in2="effect1_dropShadow" result="shape"/>
    </filter>
    <linearGradient id="paint0_linear" x1="11.5707" y1="84.1187" x2="125.469" y2="84.1187"
                    gradientUnits="userSpaceOnUse">
      <stop stop-color="#E7EFF5"/>
      <stop offset="0.2574" stop-color="#C3C5D2"/>
      <stop offset="0.3352" stop-color="#C6C8D5"/>
      <stop offset="0.3997" stop-color="#CED3DD"/>
      <stop offset="0.4592" stop-color="#DDE4EC"/>
      <stop offset="0.4655" stop-color="#DFE6EE"/>
      <stop offset="0.5693" stop-color="#98A5B5"/>
      <stop offset="0.995" stop-color="#7E8EA0"/>
</linearGradient>
    <linearGradient id="paint1_linear" x1="3.91843" y1="84.431" x2="126.585" y2="84.431" gradientUnits="userSpaceOnUse">
      <stop stop-color="#475375"/>
      <stop offset="0.483607" stop-color="#2E364F"/>
      <stop offset="0.532513" stop-color="#2E374F"/>
      <stop offset="0.593645" stop-color="#27293B"/>
      <stop offset="1" stop-color="#2D3146"/>
</linearGradient>
    <linearGradient id="paint2_linear" x1="29.9165" y1="54.9115" x2="97.8476" y2="16.4768"
                    gradientUnits="userSpaceOnUse">
      <stop stop-color="#596482"/>
      <stop offset="0.995" stop-color="#2A3D6B"/>
</linearGradient>
    <linearGradient id="paint3_linear" x1="29.9136" y1="52.9031" x2="97.8447" y2="14.4684"
                    gradientUnits="userSpaceOnUse">
      <stop stop-color="#687599"/>
      <stop offset="0.995" stop-color="#49587E"/>
</linearGradient>
    <linearGradient id="paint4_linear" x1="35.2757" y1="82.5544" x2="55.2693" y2="82.5544"
                    gradientUnits="userSpaceOnUse">
      <stop stop-color="white"/>
    </linearGradient>
    <linearGradient id="paint5_linear" x1="11.8953" y1="92.6515" x2="31.7794" y2="92.6515"
                    gradientUnits="userSpaceOnUse">
      <stop stop-color="white"/>
    </linearGradient>
    <linearGradient id="paint6_linear" x1="35.2286" y1="105.998" x2="55.0508" y2="105.998"
                    gradientUnits="userSpaceOnUse">
      <stop stop-color="white"/>
    </linearGradient>
    <linearGradient id="paint7_linear" x1="35.0881" y1="105.945" x2="55.2068" y2="105.945"
                    gradientUnits="userSpaceOnUse">
      <stop stop-color="white"/>
    </linearGradient>
    <clipPath id="clip0">
      <rect width="128.967" height="140" fill="white" transform="translate(4)"/>
    </clipPath>
  </defs>
</svg>
