<svg width="140" height="140" viewBox="0 0 140 140" fill="none" xmlns="http://www.w3.org/2000/svg">
<path d="M0.0825195 44.6761V76.1659C0.0825195 79.282 1.70981 82.1731 4.35848 83.783L61.4694 121.747C67.4073 125.365 74.8513 125.365 80.7892 121.747L135.65 83.783C138.298 82.1557 139.926 79.2647 139.926 76.1659V45.3686L0.0825195 44.6761Z" fill="url(#paint0_linear)"/>
<path d="M0.0825195 45.3687V76.166C0.0825195 79.2821 1.70981 82.1731 4.35848 83.7831L61.4694 121.747C67.4073 125.366 74.8513 125.366 80.7892 121.747L135.65 83.7831C138.298 82.1558 139.926 79.2647 139.926 76.166V45.3687H0.0825195Z" fill="url(#paint1_linear)"/>
<path d="M137.069 53.3065L81.1527 87.4796C74.9897 91.2362 67.2342 91.2362 61.0712 87.4796L2.02139 51.4022C-0.904265 49.6191 -0.592657 45.2739 2.55805 43.9236L64.7759 17.2984C68.8268 15.5672 73.3971 15.5672 77.4307 17.2984L136.29 42.4867C140.86 44.4256 141.31 50.7097 137.069 53.3065Z" fill="url(#paint2_linear)"/>
<path d="M137.069 51.3065L81.1527 85.4796C74.9897 89.2362 67.2342 89.2362 61.0712 85.4796L2.02139 49.4022C-0.904265 47.6191 -0.592657 43.2739 2.55805 41.9236L64.7759 15.2984C68.8268 13.5672 73.3971 13.5672 77.4307 15.2984L136.29 40.4867C140.86 42.4256 141.31 48.7097 137.069 51.3065Z" fill="url(#paint3_linear)"/>
<path d="M95.2788 97.6871C95.2788 97.5227 95.3596 97.3688 95.4949 97.2755L96.001 96.9265C96.3327 96.6977 96.7849 96.9352 96.7849 97.3381V103.048C96.7849 103.212 96.7041 103.366 96.5688 103.46L96.0627 103.809C95.731 104.037 95.2788 103.8 95.2788 103.397V97.6871ZM98.7411 101.017C98.7411 101.418 99.1898 101.656 99.5218 101.431L100.028 101.088C100.165 100.995 100.247 100.84 100.247 100.674V94.9318C100.247 94.5289 99.795 94.2914 99.4634 94.5202L98.9573 94.8692C98.8219 94.9625 98.7411 95.1164 98.7411 95.2808V101.017ZM102.203 98.6453C102.203 99.0465 102.652 99.2843 102.984 99.0591L103.49 98.7159C103.627 98.6229 103.71 98.4679 103.71 98.3021V92.5255C103.71 92.1225 103.257 91.8851 102.926 92.1139L102.42 92.4629C102.284 92.5562 102.203 92.7101 102.203 92.8745V98.6453ZM105.666 96.2563C105.666 96.6575 106.114 96.8953 106.446 96.6701L106.952 96.3269C107.09 96.2339 107.172 96.0789 107.172 95.9131V90.1018C107.172 89.6989 106.72 89.4615 106.388 89.6902L105.882 90.0393C105.747 90.1326 105.666 90.2865 105.666 90.4509V96.2563ZM109.128 93.9019C109.128 94.3031 109.577 94.5409 109.909 94.3158L110.415 93.9725C110.552 93.8795 110.634 93.7245 110.634 93.5587V87.7128C110.634 87.3099 110.182 87.0725 109.85 87.3012L109.344 87.6503C109.209 87.7436 109.128 87.8975 109.128 88.0619V93.9019ZM112.59 91.5129C112.59 91.9141 113.039 92.1519 113.371 91.9267L113.877 91.5835C114.014 91.4905 114.096 91.3355 114.096 91.1697V85.2892C114.096 84.8863 113.644 84.6489 113.313 84.8776L112.807 85.2266C112.671 85.32 112.59 85.4739 112.59 85.6383V91.5129ZM116.053 89.1586C116.053 89.5597 116.501 89.7975 116.833 89.5724L117.339 89.2292C117.477 89.1361 117.559 88.9811 117.559 88.8153V82.9002C117.559 82.4973 117.107 82.2599 116.775 82.4886L116.269 82.8377C116.134 82.931 116.053 83.0849 116.053 83.2493V89.1586ZM119.515 86.7869C119.515 87.188 119.964 87.4258 120.296 87.2007L120.802 86.8575C120.939 86.7644 121.021 86.6094 121.021 86.4437V80.4939C121.021 80.091 120.569 79.8536 120.237 80.0823L119.731 80.4313C119.596 80.5247 119.515 80.6786 119.515 80.8429V86.7869ZM122.977 84.3979C122.977 84.799 123.426 85.0368 123.758 84.8117L124.264 84.4685C124.401 84.3754 124.483 84.2204 124.483 84.0547V78.0703C124.483 77.6674 124.031 77.4299 123.7 77.6587L123.193 78.0077C123.058 78.101 122.977 78.2549 122.977 78.4193V84.3979ZM126.656 75.5841C126.52 75.6774 126.44 75.8313 126.44 75.9957V82.0089C126.44 82.41 126.888 82.6478 127.22 82.4227L127.726 82.0795C127.864 81.9864 127.946 81.8314 127.946 81.6656V75.6467C127.946 75.2437 127.494 75.0063 127.162 75.2351L126.656 75.5841Z" fill="#131727"/>
<path d="M95.2788 87.4559C95.2788 87.2915 95.3596 87.1376 95.4949 87.0443L96.001 86.6953C96.3327 86.4665 96.7849 86.704 96.7849 87.1069V92.8168C96.7849 92.9812 96.7041 93.135 96.5688 93.2284L96.0627 93.5774C95.731 93.8062 95.2788 93.5687 95.2788 93.1658V87.4559ZM98.7411 90.7858C98.7411 91.1869 99.1898 91.4248 99.5218 91.1996L100.028 90.8564C100.165 90.7633 100.247 90.6084 100.247 90.4426V84.7006C100.247 84.2977 99.795 84.0602 99.4634 84.289L98.9573 84.638C98.8219 84.7313 98.7411 84.8852 98.7411 85.0496V90.7858ZM102.203 88.4141C102.203 88.8153 102.652 89.0531 102.984 88.8279L103.49 88.4847C103.627 88.3917 103.71 88.2367 103.71 88.0709V82.2943C103.71 81.8913 103.257 81.6539 102.926 81.8827L102.42 82.2317C102.284 82.325 102.203 82.4789 102.203 82.6433V88.4141ZM105.666 86.0251C105.666 86.4263 106.114 86.6641 106.446 86.4389L106.952 86.0957C107.09 86.0027 107.172 85.8477 107.172 85.6819V79.8706C107.172 79.4677 106.72 79.2303 106.388 79.459L105.882 79.8081C105.747 79.9014 105.666 80.0553 105.666 80.2197V86.0251ZM109.128 83.6707C109.128 84.0719 109.577 84.3097 109.909 84.0845L110.415 83.7413C110.552 83.6483 110.634 83.4933 110.634 83.3275V77.4816C110.634 77.0787 110.182 76.8413 109.85 77.07L109.344 77.4191C109.209 77.5124 109.128 77.6663 109.128 77.8307V83.6707ZM112.59 81.2817C112.59 81.6829 113.039 81.9207 113.371 81.6956L113.877 81.3523C114.014 81.2593 114.096 81.1043 114.096 80.9385V75.058C114.096 74.6551 113.644 74.4177 113.313 74.6464L112.807 74.9955C112.671 75.0888 112.59 75.2427 112.59 75.4071V81.2817ZM116.053 78.9274C116.053 79.3285 116.501 79.5663 116.833 79.3412L117.339 78.998C117.477 78.9049 117.559 78.7499 117.559 78.5841V72.669C117.559 72.2661 117.107 72.0287 116.775 72.2574L116.269 72.6065C116.134 72.6998 116.053 72.8537 116.053 73.0181V78.9274ZM119.515 76.5557C119.515 76.9568 119.964 77.1946 120.296 76.9695L120.802 76.6263C120.939 76.5332 121.021 76.3782 121.021 76.2124V70.2627C121.021 69.8598 120.569 69.6224 120.237 69.8511L119.731 70.2001C119.596 70.2935 119.515 70.4474 119.515 70.6117V76.5557ZM122.977 74.1667C122.977 74.5678 123.426 74.8056 123.758 74.5805L124.264 74.2373C124.401 74.1442 124.483 73.9892 124.483 73.8235V67.8391C124.483 67.4362 124.031 67.1987 123.7 67.4275L123.193 67.7765C123.058 67.8698 122.977 68.0237 122.977 68.1881V74.1667ZM126.656 65.3529C126.52 65.4462 126.44 65.6001 126.44 65.7645V71.7777C126.44 72.1788 126.888 72.4166 127.22 72.1915L127.726 71.8483C127.864 71.7552 127.946 71.6002 127.946 71.4344V65.4155C127.946 65.0125 127.494 64.7751 127.162 65.0039L126.656 65.3529Z" fill="#131727"/>
<path d="M95 97.2239C95 97.0595 95.0808 96.9056 95.2161 96.8123L95.7222 96.4632C96.0539 96.2345 96.5061 96.4719 96.5061 96.8748V102.585C96.5061 102.749 96.4253 102.903 96.29 102.996L95.7839 103.345C95.4522 103.574 95 103.337 95 102.934V97.2239ZM98.4623 100.554C98.4623 100.955 98.911 101.193 99.243 100.968L99.7491 100.624C99.8863 100.531 99.9684 100.376 99.9684 100.211V94.4685C99.9684 94.0656 99.5162 93.8282 99.1846 94.0569L98.6785 94.406C98.5431 94.4993 98.4623 94.6532 98.4623 94.8176V100.554ZM101.925 98.1821C101.925 98.5832 102.373 98.821 102.705 98.5959L103.211 98.2526C103.349 98.1596 103.431 98.0046 103.431 97.8388V92.0622C103.431 91.6593 102.979 91.4219 102.647 91.6506L102.141 91.9996C102.005 92.093 101.925 92.2469 101.925 92.4112V98.1821ZM105.387 95.7931C105.387 96.1942 105.836 96.432 106.168 96.2069L106.674 95.8637C106.811 95.7706 106.893 95.6156 106.893 95.4498V89.6386C106.893 89.2357 106.441 88.9982 106.109 89.227L105.603 89.576C105.468 89.6693 105.387 89.8232 105.387 89.9876V95.7931ZM108.849 93.4387C108.849 93.8398 109.298 94.0776 109.63 93.8525L110.136 93.5093C110.273 93.4162 110.355 93.2612 110.355 93.0955V87.2496C110.355 86.8467 109.903 86.6092 109.572 86.838L109.065 87.187C108.93 87.2803 108.849 87.4342 108.849 87.5986V93.4387ZM112.312 91.0497C112.312 91.4508 112.76 91.6886 113.092 91.4635L113.598 91.1203C113.736 91.0272 113.818 90.8722 113.818 90.7065V84.826C113.818 84.423 113.366 84.1856 113.034 84.4144L112.528 84.7634C112.392 84.8567 112.312 85.0106 112.312 85.175V91.0497ZM115.774 88.6953C115.774 89.0964 116.223 89.3343 116.555 89.1091L117.061 88.7659C117.198 88.6729 117.28 88.5179 117.28 88.3521V82.437C117.28 82.034 116.828 81.7966 116.496 82.0254L115.99 82.3744C115.855 82.4677 115.774 82.6216 115.774 82.786V88.6953ZM119.236 86.3236C119.236 86.7248 119.685 86.9626 120.017 86.7374L120.523 86.3942C120.66 86.3012 120.742 86.1462 120.742 85.9804V80.0307C120.742 79.6277 120.29 79.3903 119.958 79.619L119.452 79.9681C119.317 80.0614 119.236 80.2153 119.236 80.3797V86.3236ZM122.699 83.9346C122.699 84.3358 123.147 84.5736 123.479 84.3484L123.985 84.0052C124.122 83.9122 124.205 83.7572 124.205 83.5914V77.607C124.205 77.2041 123.752 76.9667 123.421 77.1954L122.915 77.5445C122.779 77.6378 122.699 77.7917 122.699 77.9561V83.9346ZM126.377 75.1208C126.242 75.2142 126.161 75.3681 126.161 75.5324V81.5456C126.161 81.9468 126.609 82.1846 126.941 81.9594L127.448 81.6162C127.585 81.5232 127.667 81.3682 127.667 81.2024V75.1834C127.667 74.7805 127.215 74.543 126.883 74.7718L126.377 75.1208Z" fill="#2FAAAF"/>
<path d="M95 86.9927C95 86.8283 95.0808 86.6744 95.2161 86.5811L95.7222 86.232C96.0539 86.0033 96.5061 86.2407 96.5061 86.6436V92.3535C96.5061 92.5179 96.4253 92.6718 96.29 92.7651L95.7839 93.1142C95.4522 93.3429 95 93.1055 95 92.7025V86.9927ZM98.4623 90.3225C98.4623 90.7237 98.911 90.9615 99.243 90.7364L99.7491 90.3931C99.8863 90.3001 99.9684 90.1451 99.9684 89.9793V84.2373C99.9684 83.8344 99.5162 83.597 99.1846 83.8257L98.6785 84.1747C98.5431 84.2681 98.4623 84.422 98.4623 84.5864V90.3225ZM101.925 87.9508C101.925 88.352 102.373 88.5898 102.705 88.3647L103.211 88.0214C103.349 87.9284 103.431 87.7734 103.431 87.6076V81.831C103.431 81.4281 102.979 81.1906 102.647 81.4194L102.141 81.7684C102.005 81.8618 101.925 82.0157 101.925 82.18V87.9508ZM105.387 85.5619C105.387 85.963 105.836 86.2008 106.168 85.9757L106.674 85.6325C106.811 85.5394 106.893 85.3844 106.893 85.2186V79.4074C106.893 79.0045 106.441 78.767 106.109 78.9958L105.603 79.3448C105.468 79.4381 105.387 79.592 105.387 79.7564V85.5619ZM108.849 83.2075C108.849 83.6086 109.298 83.8464 109.63 83.6213L110.136 83.2781C110.273 83.185 110.355 83.03 110.355 82.8643V77.0184C110.355 76.6155 109.903 76.378 109.572 76.6068L109.065 76.9558C108.93 77.0491 108.849 77.203 108.849 77.3674V83.2075ZM112.312 80.8185C112.312 81.2196 112.76 81.4574 113.092 81.2323L113.598 80.8891C113.736 80.796 113.818 80.641 113.818 80.4753V74.5948C113.818 74.1918 113.366 73.9544 113.034 74.1832L112.528 74.5322C112.392 74.6255 112.312 74.7794 112.312 74.9438V80.8185ZM115.774 78.4641C115.774 78.8652 116.223 79.1031 116.555 78.8779L117.061 78.5347C117.198 78.4417 117.28 78.2867 117.28 78.1209V72.2058C117.28 71.8028 116.828 71.5654 116.496 71.7942L115.99 72.1432C115.855 72.2365 115.774 72.3904 115.774 72.5548V78.4641ZM119.236 76.0924C119.236 76.4936 119.685 76.7314 120.017 76.5062L120.523 76.163C120.66 76.07 120.742 75.915 120.742 75.7492V69.7995C120.742 69.3965 120.29 69.1591 119.958 69.3878L119.452 69.7369C119.317 69.8302 119.236 69.9841 119.236 70.1485V76.0924ZM122.699 73.7034C122.699 74.1046 123.147 74.3424 123.479 74.1172L123.985 73.774C124.122 73.681 124.205 73.526 124.205 73.3602V67.3758C124.205 66.9729 123.752 66.7355 123.421 66.9642L122.915 67.3133C122.779 67.4066 122.699 67.5605 122.699 67.7249V73.7034ZM126.377 64.8896C126.242 64.983 126.161 65.1369 126.161 65.3012V71.3144C126.161 71.7156 126.609 71.9534 126.941 71.7282L127.448 71.385C127.585 71.292 127.667 71.137 127.667 70.9712V64.9522C127.667 64.5493 127.215 64.3118 126.883 64.5406L126.377 64.8896Z" fill="#2FAAAF"/>
<path d="M87.8466 30L99.0265 37.105L87.8466 44.1577V40.344H79.2266L80.8984 37.105L79.2266 33.8137H87.8466V30Z" fill="url(#paint4_linear)"/>
<path d="M78.1296 40.3439H76.2489L77.9207 37.1049L76.2489 33.8136H78.1296L79.8014 37.1049L78.1296 40.3439Z" fill="url(#paint5_linear)"/>
<path d="M75.1515 40.3439H73.2708L74.9426 37.1049L73.2708 33.8136H75.1515L76.8233 37.1049L75.1515 40.3439Z" fill="url(#paint6_linear)"/>
<path d="M87.8466 30V44.1577V40.344H79.2266L80.8984 37.105L79.2266 33.8137H87.8466V30Z" fill="url(#paint7_linear)"/>
<path d="M78.1296 40.3439H76.2489L77.9207 37.1049L76.2489 33.8136H78.1296L79.8014 37.1049L78.1296 40.3439Z" fill="url(#paint8_linear)"/>
<path d="M75.1515 40.3439H73.2708L74.9426 37.1049L73.2708 33.8136H75.1515L76.8233 37.1049L75.1515 40.3439Z" fill="url(#paint9_linear)"/>
<path d="M91.82 45.7966L103 52.9016L91.82 59.9544V56.1406H83.2L84.8718 52.9016L83.2 49.6103H91.82V45.7966Z" fill="url(#paint10_linear)"/>
<path d="M82.103 56.1407H80.2223L81.8941 52.9016L80.2223 49.6104H82.103L83.7748 52.9016L82.103 56.1407Z" fill="url(#paint11_linear)"/>
<path d="M79.1249 56.1407H77.2442L78.916 52.9016L77.2442 49.6104H79.1249L80.7967 52.9016L79.1249 56.1407Z" fill="url(#paint12_linear)"/>
<path d="M91.82 45.7966V59.9544V56.1406H83.2L84.8718 52.9016L83.2 49.6103H91.82V45.7966Z" fill="url(#paint13_linear)"/>
<path d="M82.103 56.1407H80.2223L81.8941 52.9016L80.2223 49.6104H82.103L83.7748 52.9016L82.103 56.1407Z" fill="url(#paint14_linear)"/>
<path d="M79.1249 56.1407H77.2442L78.916 52.9016L77.2442 49.6104H79.1249L80.7967 52.9016L79.1249 56.1407Z" fill="url(#paint15_linear)"/>
<path d="M54.1532 68.2683L42.9733 61.1633L54.1532 54.1106V57.9243H62.7733L61.1015 61.1633L62.7733 64.4546H54.1532V68.2683Z" fill="url(#paint16_linear)"/>
<path d="M63.8702 57.9243H65.751L64.0792 61.1633L65.751 64.4546H63.8702L62.1985 61.1633L63.8702 57.9243Z" fill="url(#paint17_linear)"/>
<path d="M66.8483 57.9243H68.7291L67.0573 61.1633L68.7291 64.4546H66.8483L65.1766 61.1633L66.8483 57.9243Z" fill="url(#paint18_linear)"/>
<path d="M54.1532 68.2683V54.1106V57.9243H62.7733L61.1015 61.1633L62.7733 64.4546H54.1532V68.2683Z" fill="url(#paint19_linear)"/>
<path d="M63.8702 57.9243H65.751L64.0792 61.1633L65.751 64.4546H63.8702L62.1985 61.1633L63.8702 57.9243Z" fill="url(#paint20_linear)"/>
<path d="M66.8483 57.9243H68.7291L67.0573 61.1633L68.7291 64.4546H66.8483L65.1766 61.1633L66.8483 57.9243Z" fill="url(#paint21_linear)"/>
<path d="M50.18 52.4717L39.0001 45.3667L50.18 38.314V42.1277H58.8L57.1282 45.3667L58.8 48.658H50.18V52.4717Z" fill="url(#paint22_linear)"/>
<path d="M59.897 42.1276H61.7777L60.1059 45.3667L61.7777 48.658H59.897L58.2252 45.3667L59.897 42.1276Z" fill="url(#paint23_linear)"/>
<path d="M62.8751 42.1276H64.7558L63.084 45.3667L64.7558 48.658H62.8751L61.2033 45.3667L62.8751 42.1276Z" fill="url(#paint24_linear)"/>
<path d="M50.18 52.4717V38.314V42.1277H58.8L57.1282 45.3667L58.8 48.658H50.18V52.4717Z" fill="url(#paint25_linear)"/>
<path d="M59.897 42.1276H61.7777L60.1059 45.3667L61.7777 48.658H59.897L58.2252 45.3667L59.897 42.1276Z" fill="url(#paint26_linear)"/>
<path d="M62.8751 42.1276H64.7558L63.084 45.3667L64.7558 48.658H62.8751L61.2033 45.3667L62.8751 42.1276Z" fill="url(#paint27_linear)"/>
<path d="M86.8466 29L98.0265 36.105L86.8466 43.1577V39.344H78.2266L79.8984 36.105L78.2266 32.8137H86.8466V29Z" fill="url(#paint28_linear)"/>
<path d="M77.1296 39.3439H75.2489L76.9207 36.1049L75.2489 32.8136H77.1296L78.8014 36.1049L77.1296 39.3439Z" fill="url(#paint29_linear)"/>
<path d="M74.1515 39.3439H72.2708L73.9426 36.1049L72.2708 32.8136H74.1515L75.8233 36.1049L74.1515 39.3439Z" fill="url(#paint30_linear)"/>
<path d="M86.8466 29V43.1577V39.344H78.2266L79.8984 36.105L78.2266 32.8137H86.8466V29Z" fill="url(#paint31_linear)"/>
<path d="M77.1296 39.3439H75.2489L76.9207 36.1049L75.2489 32.8136H77.1296L78.8014 36.1049L77.1296 39.3439Z" fill="url(#paint32_linear)"/>
<path d="M74.1515 39.3439H72.2708L73.9426 36.1049L72.2708 32.8136H74.1515L75.8233 36.1049L74.1515 39.3439Z" fill="url(#paint33_linear)"/>
<path d="M90.82 44.7966L102 51.9016L90.82 58.9544V55.1406H82.2L83.8718 51.9016L82.2 48.6103H90.82V44.7966Z" fill="url(#paint34_linear)"/>
<path d="M81.103 55.1407H79.2223L80.8941 51.9016L79.2223 48.6104H81.103L82.7748 51.9016L81.103 55.1407Z" fill="url(#paint35_linear)"/>
<path d="M78.1249 55.1407H76.2442L77.916 51.9016L76.2442 48.6104H78.1249L79.7967 51.9016L78.1249 55.1407Z" fill="url(#paint36_linear)"/>
<path d="M90.82 44.7966V58.9544V55.1406H82.2L83.8718 51.9016L82.2 48.6103H90.82V44.7966Z" fill="url(#paint37_linear)"/>
<path d="M81.103 55.1407H79.2223L80.8941 51.9016L79.2223 48.6104H81.103L82.7748 51.9016L81.103 55.1407Z" fill="url(#paint38_linear)"/>
<path d="M78.1249 55.1407H76.2442L77.916 51.9016L76.2442 48.6104H78.1249L79.7967 51.9016L78.1249 55.1407Z" fill="url(#paint39_linear)"/>
<path d="M53.1532 67.2683L41.9733 60.1633L53.1532 53.1106V56.9243H61.7733L60.1015 60.1633L61.7733 63.4546H53.1532V67.2683Z" fill="url(#paint40_linear)"/>
<path d="M62.8702 56.9243H64.751L63.0792 60.1633L64.751 63.4546H62.8702L61.1985 60.1633L62.8702 56.9243Z" fill="url(#paint41_linear)"/>
<path d="M65.8483 56.9243H67.7291L66.0573 60.1633L67.7291 63.4546H65.8483L64.1766 60.1633L65.8483 56.9243Z" fill="url(#paint42_linear)"/>
<path d="M53.1532 67.2683V53.1106V56.9243H61.7733L60.1015 60.1633L61.7733 63.4546H53.1532V67.2683Z" fill="url(#paint43_linear)"/>
<path d="M62.8702 56.9243H64.751L63.0792 60.1633L64.751 63.4546H62.8702L61.1985 60.1633L62.8702 56.9243Z" fill="url(#paint44_linear)"/>
<path d="M65.8483 56.9243H67.7291L66.0573 60.1633L67.7291 63.4546H65.8483L64.1766 60.1633L65.8483 56.9243Z" fill="url(#paint45_linear)"/>
<path d="M49.18 51.4717L38.0001 44.3667L49.18 37.314V41.1277H57.8L56.1282 44.3667L57.8 47.658H49.18V51.4717Z" fill="url(#paint46_linear)"/>
<path d="M58.897 41.1276H60.7777L59.1059 44.3667L60.7777 47.658H58.897L57.2252 44.3667L58.897 41.1276Z" fill="url(#paint47_linear)"/>
<path d="M61.8751 41.1276H63.7558L62.084 44.3667L63.7558 47.658H61.8751L60.2033 44.3667L61.8751 41.1276Z" fill="url(#paint48_linear)"/>
<path d="M49.18 51.4717V37.314V41.1277H57.8L56.1282 44.3667L57.8 47.658H49.18V51.4717Z" fill="url(#paint49_linear)"/>
<path d="M58.897 41.1276H60.7777L59.1059 44.3667L60.7777 47.658H58.897L57.2252 44.3667L58.897 41.1276Z" fill="url(#paint50_linear)"/>
<path d="M61.8751 41.1276H63.7558L62.084 44.3667L63.7558 47.658H61.8751L60.2033 44.3667L61.8751 41.1276Z" fill="url(#paint51_linear)"/>
<defs>
<linearGradient id="paint0_linear" x1="8.20314" y1="84.5685" x2="131.885" y2="84.5685" gradientUnits="userSpaceOnUse">
<stop stop-color="#E7EFF5"/>
<stop offset="0.2574" stop-color="#C3C5D2"/>
<stop offset="0.3352" stop-color="#C6C8D5"/>
<stop offset="0.3997" stop-color="#CED3DD"/>
<stop offset="0.4592" stop-color="#DDE4EC"/>
<stop offset="0.4655" stop-color="#DFE6EE"/>
<stop offset="0.5693" stop-color="#98A5B5"/>
<stop offset="0.995" stop-color="#7E8EA0"/>
</linearGradient>
<linearGradient id="paint1_linear" x1="-0.106419" y1="84.9148" x2="133.097" y2="84.9148" gradientUnits="userSpaceOnUse">
<stop stop-color="#475375"/>
<stop offset="0.406195" stop-color="#2E354E"/>
<stop offset="0.522558" stop-color="#3C4661"/>
<stop offset="0.642676" stop-color="#2C3045"/>
</linearGradient>
<linearGradient id="paint2_linear" x1="3.5" y1="47" x2="136" y2="44" gradientUnits="userSpaceOnUse">
<stop stop-color="#545F7C"/>
<stop offset="0.494792" stop-color="#45516D"/>
<stop offset="0.995" stop-color="#344265"/>
</linearGradient>
<linearGradient id="paint3_linear" x1="3.5" y1="45" x2="136" y2="42" gradientUnits="userSpaceOnUse">
<stop stop-color="#687699"/>
<stop offset="0.995" stop-color="#526084"/>
</linearGradient>
<linearGradient id="paint4_linear" x1="72.085" y1="37.0994" x2="116.998" y2="37.0994" gradientUnits="userSpaceOnUse">
<stop stop-color="#1E4644"/>
<stop offset="0.995" stop-color="#062727"/>
</linearGradient>
<linearGradient id="paint5_linear" x1="74.9675" y1="37.0882" x2="83.0259" y2="37.0882" gradientUnits="userSpaceOnUse">
<stop stop-color="#1E4644"/>
<stop offset="0.995" stop-color="#062727"/>
</linearGradient>
<linearGradient id="paint6_linear" x1="71.9895" y1="37.0882" x2="80.0478" y2="37.0882" gradientUnits="userSpaceOnUse">
<stop stop-color="#1E4644"/>
<stop offset="0.995" stop-color="#062727"/>
</linearGradient>
<linearGradient id="paint7_linear" x1="76.1175" y1="37.0994" x2="95.6707" y2="37.0994" gradientUnits="userSpaceOnUse">
<stop stop-color="#1E4644"/>
<stop offset="0.995" stop-color="#062727"/>
</linearGradient>
<linearGradient id="paint8_linear" x1="74.9675" y1="37.0882" x2="83.0259" y2="37.0882" gradientUnits="userSpaceOnUse">
<stop stop-color="#1E4644"/>
<stop offset="0.995" stop-color="#062727"/>
</linearGradient>
<linearGradient id="paint9_linear" x1="71.9895" y1="37.0882" x2="80.0478" y2="37.0882" gradientUnits="userSpaceOnUse">
<stop stop-color="#1E4644"/>
<stop offset="0.995" stop-color="#062727"/>
</linearGradient>
<linearGradient id="paint10_linear" x1="76.0584" y1="52.896" x2="120.972" y2="52.896" gradientUnits="userSpaceOnUse">
<stop stop-color="#1E4644"/>
<stop offset="0.995" stop-color="#062727"/>
</linearGradient>
<linearGradient id="paint11_linear" x1="78.9409" y1="52.885" x2="86.9993" y2="52.885" gradientUnits="userSpaceOnUse">
<stop stop-color="#1E4644"/>
<stop offset="0.995" stop-color="#062727"/>
</linearGradient>
<linearGradient id="paint12_linear" x1="75.9629" y1="52.885" x2="84.0211" y2="52.885" gradientUnits="userSpaceOnUse">
<stop stop-color="#1E4644"/>
<stop offset="0.995" stop-color="#062727"/>
</linearGradient>
<linearGradient id="paint13_linear" x1="80.0908" y1="52.896" x2="99.6441" y2="52.896" gradientUnits="userSpaceOnUse">
<stop stop-color="#1E4644"/>
<stop offset="0.995" stop-color="#062727"/>
</linearGradient>
<linearGradient id="paint14_linear" x1="78.9409" y1="52.885" x2="86.9993" y2="52.885" gradientUnits="userSpaceOnUse">
<stop stop-color="#1E4644"/>
<stop offset="0.995" stop-color="#062727"/>
</linearGradient>
<linearGradient id="paint15_linear" x1="75.9629" y1="52.885" x2="84.0211" y2="52.885" gradientUnits="userSpaceOnUse">
<stop stop-color="#1E4644"/>
<stop offset="0.995" stop-color="#062727"/>
</linearGradient>
<linearGradient id="paint16_linear" x1="69.9149" y1="61.1689" x2="25.0017" y2="61.1689" gradientUnits="userSpaceOnUse">
<stop stop-color="#1E4644"/>
<stop offset="0.995" stop-color="#062727"/>
</linearGradient>
<linearGradient id="paint17_linear" x1="67.0323" y1="61.18" x2="58.974" y2="61.18" gradientUnits="userSpaceOnUse">
<stop stop-color="#1E4644"/>
<stop offset="0.995" stop-color="#062727"/>
</linearGradient>
<linearGradient id="paint18_linear" x1="70.0104" y1="61.18" x2="61.9521" y2="61.18" gradientUnits="userSpaceOnUse">
<stop stop-color="#1E4644"/>
<stop offset="0.995" stop-color="#062727"/>
</linearGradient>
<linearGradient id="paint19_linear" x1="65.8824" y1="61.1689" x2="46.3292" y2="61.1689" gradientUnits="userSpaceOnUse">
<stop stop-color="#1E4644"/>
<stop offset="0.995" stop-color="#062727"/>
</linearGradient>
<linearGradient id="paint20_linear" x1="67.0323" y1="61.18" x2="58.974" y2="61.18" gradientUnits="userSpaceOnUse">
<stop stop-color="#1E4644"/>
<stop offset="0.995" stop-color="#062727"/>
</linearGradient>
<linearGradient id="paint21_linear" x1="70.0104" y1="61.18" x2="61.9521" y2="61.18" gradientUnits="userSpaceOnUse">
<stop stop-color="#1E4644"/>
<stop offset="0.995" stop-color="#062727"/>
</linearGradient>
<linearGradient id="paint22_linear" x1="65.9416" y1="45.3723" x2="21.0285" y2="45.3723" gradientUnits="userSpaceOnUse">
<stop stop-color="#1E4644"/>
<stop offset="0.995" stop-color="#062727"/>
</linearGradient>
<linearGradient id="paint23_linear" x1="63.0591" y1="45.3833" x2="55.0007" y2="45.3833" gradientUnits="userSpaceOnUse">
<stop stop-color="#1E4644"/>
<stop offset="0.995" stop-color="#062727"/>
</linearGradient>
<linearGradient id="paint24_linear" x1="66.0371" y1="45.3833" x2="57.9789" y2="45.3833" gradientUnits="userSpaceOnUse">
<stop stop-color="#1E4644"/>
<stop offset="0.995" stop-color="#062727"/>
</linearGradient>
<linearGradient id="paint25_linear" x1="61.9092" y1="45.3723" x2="42.3559" y2="45.3723" gradientUnits="userSpaceOnUse">
<stop stop-color="#1E4644"/>
<stop offset="0.995" stop-color="#062727"/>
</linearGradient>
<linearGradient id="paint26_linear" x1="63.0591" y1="45.3833" x2="55.0007" y2="45.3833" gradientUnits="userSpaceOnUse">
<stop stop-color="#1E4644"/>
<stop offset="0.995" stop-color="#062727"/>
</linearGradient>
<linearGradient id="paint27_linear" x1="66.0371" y1="45.3833" x2="57.9789" y2="45.3833" gradientUnits="userSpaceOnUse">
<stop stop-color="#1E4644"/>
<stop offset="0.995" stop-color="#062727"/>
</linearGradient>
<linearGradient id="paint28_linear" x1="71.085" y1="36.0994" x2="115.998" y2="36.0994" gradientUnits="userSpaceOnUse">
<stop stop-color="#30EEE5"/>
<stop offset="0.995" stop-color="#15C8D3"/>
</linearGradient>
<linearGradient id="paint29_linear" x1="73.9675" y1="36.0882" x2="82.0259" y2="36.0882" gradientUnits="userSpaceOnUse">
<stop stop-color="#30EEE5"/>
<stop offset="0.995" stop-color="#15C8D3"/>
</linearGradient>
<linearGradient id="paint30_linear" x1="70.9895" y1="36.0882" x2="79.0478" y2="36.0882" gradientUnits="userSpaceOnUse">
<stop stop-color="#30EEE5"/>
<stop offset="0.995" stop-color="#15C8D3"/>
</linearGradient>
<linearGradient id="paint31_linear" x1="75.1175" y1="36.0994" x2="94.6707" y2="36.0994" gradientUnits="userSpaceOnUse">
<stop stop-color="#30EEE5"/>
<stop offset="0.995" stop-color="#15C8D3"/>
</linearGradient>
<linearGradient id="paint32_linear" x1="73.9675" y1="36.0882" x2="82.0259" y2="36.0882" gradientUnits="userSpaceOnUse">
<stop stop-color="#30EEE5"/>
<stop offset="0.995" stop-color="#15C8D3"/>
</linearGradient>
<linearGradient id="paint33_linear" x1="70.9895" y1="36.0882" x2="79.0478" y2="36.0882" gradientUnits="userSpaceOnUse">
<stop stop-color="#30EEE5"/>
<stop offset="0.995" stop-color="#15C8D3"/>
</linearGradient>
<linearGradient id="paint34_linear" x1="75.0584" y1="51.896" x2="119.972" y2="51.896" gradientUnits="userSpaceOnUse">
<stop stop-color="#30EEE5"/>
<stop offset="0.995" stop-color="#15C8D3"/>
</linearGradient>
<linearGradient id="paint35_linear" x1="77.9409" y1="51.885" x2="85.9993" y2="51.885" gradientUnits="userSpaceOnUse">
<stop stop-color="#30EEE5"/>
<stop offset="0.995" stop-color="#15C8D3"/>
</linearGradient>
<linearGradient id="paint36_linear" x1="74.9629" y1="51.885" x2="83.0211" y2="51.885" gradientUnits="userSpaceOnUse">
<stop stop-color="#30EEE5"/>
<stop offset="0.995" stop-color="#15C8D3"/>
</linearGradient>
<linearGradient id="paint37_linear" x1="79.0908" y1="51.896" x2="98.6441" y2="51.896" gradientUnits="userSpaceOnUse">
<stop stop-color="#30EEE5"/>
<stop offset="0.995" stop-color="#15C8D3"/>
</linearGradient>
<linearGradient id="paint38_linear" x1="77.9409" y1="51.885" x2="85.9993" y2="51.885" gradientUnits="userSpaceOnUse">
<stop stop-color="#30EEE5"/>
<stop offset="0.995" stop-color="#15C8D3"/>
</linearGradient>
<linearGradient id="paint39_linear" x1="74.9629" y1="51.885" x2="83.0211" y2="51.885" gradientUnits="userSpaceOnUse">
<stop stop-color="#30EEE5"/>
<stop offset="0.995" stop-color="#15C8D3"/>
</linearGradient>
<linearGradient id="paint40_linear" x1="68.9149" y1="60.1689" x2="24.0017" y2="60.1689" gradientUnits="userSpaceOnUse">
<stop stop-color="#30EEE5"/>
<stop offset="0.995" stop-color="#15C8D3"/>
</linearGradient>
<linearGradient id="paint41_linear" x1="66.0323" y1="60.18" x2="57.974" y2="60.18" gradientUnits="userSpaceOnUse">
<stop stop-color="#30EEE5"/>
<stop offset="0.995" stop-color="#15C8D3"/>
</linearGradient>
<linearGradient id="paint42_linear" x1="69.0104" y1="60.18" x2="60.9521" y2="60.18" gradientUnits="userSpaceOnUse">
<stop stop-color="#30EEE5"/>
<stop offset="0.995" stop-color="#15C8D3"/>
</linearGradient>
<linearGradient id="paint43_linear" x1="64.8824" y1="60.1689" x2="45.3292" y2="60.1689" gradientUnits="userSpaceOnUse">
<stop stop-color="#30EEE5"/>
<stop offset="0.995" stop-color="#15C8D3"/>
</linearGradient>
<linearGradient id="paint44_linear" x1="66.0323" y1="60.18" x2="57.974" y2="60.18" gradientUnits="userSpaceOnUse">
<stop stop-color="#30EEE5"/>
<stop offset="0.995" stop-color="#15C8D3"/>
</linearGradient>
<linearGradient id="paint45_linear" x1="69.0104" y1="60.18" x2="60.9521" y2="60.18" gradientUnits="userSpaceOnUse">
<stop stop-color="#30EEE5"/>
<stop offset="0.995" stop-color="#15C8D3"/>
</linearGradient>
<linearGradient id="paint46_linear" x1="64.9416" y1="44.3723" x2="20.0285" y2="44.3723" gradientUnits="userSpaceOnUse">
<stop stop-color="#30EEE5"/>
<stop offset="0.995" stop-color="#15C8D3"/>
</linearGradient>
<linearGradient id="paint47_linear" x1="62.0591" y1="44.3833" x2="54.0007" y2="44.3833" gradientUnits="userSpaceOnUse">
<stop stop-color="#30EEE5"/>
<stop offset="0.995" stop-color="#15C8D3"/>
</linearGradient>
<linearGradient id="paint48_linear" x1="65.0371" y1="44.3833" x2="56.9789" y2="44.3833" gradientUnits="userSpaceOnUse">
<stop stop-color="#30EEE5"/>
<stop offset="0.995" stop-color="#15C8D3"/>
</linearGradient>
<linearGradient id="paint49_linear" x1="60.9092" y1="44.3723" x2="41.3559" y2="44.3723" gradientUnits="userSpaceOnUse">
<stop stop-color="#30EEE5"/>
<stop offset="0.995" stop-color="#15C8D3"/>
</linearGradient>
<linearGradient id="paint50_linear" x1="62.0591" y1="44.3833" x2="54.0007" y2="44.3833" gradientUnits="userSpaceOnUse">
<stop stop-color="#30EEE5"/>
<stop offset="0.995" stop-color="#15C8D3"/>
</linearGradient>
<linearGradient id="paint51_linear" x1="65.0371" y1="44.3833" x2="56.9789" y2="44.3833" gradientUnits="userSpaceOnUse">
<stop stop-color="#30EEE5"/>
<stop offset="0.995" stop-color="#15C8D3"/>
</linearGradient>
</defs>
</svg>
