<svg width="140" height="140" viewBox="0 0 140 140" fill="none" xmlns="http://www.w3.org/2000/svg">
<g clip-path="url(#clip0)">
<path d="M8.08405 27.1093V91.5981C8.08405 94.352 9.52599 96.8953 11.859 98.3208L62.2946 131.853C67.544 135.044 74.1056 135.044 79.3549 131.853L127.814 98.3208C130.147 96.8791 131.589 94.3358 131.589 91.5981V27.7086L8.08405 27.1093Z" fill="url(#paint0_linear)"/>
<path d="M8.08405 27.7085V91.598C8.08405 94.3519 9.52599 96.8951 11.859 98.3207L62.2946 131.853C67.544 135.044 74.1056 135.044 79.3549 131.853L127.814 98.3207C130.147 96.8789 131.589 94.3357 131.589 91.598V27.7085H8.08405Z" fill="url(#paint1_linear)"/>
<path d="M129.081 34.8669L79.682 65.0622C74.2382 68.383 67.3849 68.383 61.9412 65.0622L9.78819 33.1984C7.21213 31.6271 7.47136 27.7879 10.258 26.5891L65.2139 3.06794C68.7945 1.54522 72.8287 1.54522 76.393 3.06794L128.384 25.3094C132.418 27.0427 132.823 32.599 129.081 34.8669Z" fill="url(#paint2_linear)"/>
<path d="M129.078 32.941L79.6791 63.1363C74.2354 66.4571 67.3821 66.4571 61.9384 63.1363L9.78538 31.2725C7.20933 29.7012 7.46855 25.862 10.2552 24.6632L65.2111 1.14204C68.7917 -0.38068 72.8259 -0.38068 76.3902 1.14204L128.381 23.3835C132.415 25.1168 132.82 30.6731 129.078 32.941Z" fill="url(#paint3_linear)"/>
<path d="M92.1543 109.695C92.1543 109.532 92.2344 109.378 92.3689 109.285L92.6974 109.056C93.029 108.826 93.4828 109.063 93.4828 109.467V114.356C93.4828 114.52 93.4026 114.673 93.2681 114.767L92.9396 114.995C92.6081 115.226 92.1543 114.988 92.1543 114.585V109.695ZM95.2164 112.504C95.2164 112.906 95.6664 113.144 95.9983 112.917L96.3269 112.693C96.4633 112.6 96.5449 112.445 96.5449 112.28V107.361C96.5449 106.957 96.0911 106.72 95.7595 106.95L95.431 107.179C95.2965 107.272 95.2164 107.426 95.2164 107.589V112.504ZM98.2785 110.399C98.2785 110.8 98.7285 111.038 99.0604 110.811L99.389 110.587C99.5254 110.494 99.607 110.339 99.607 110.174V105.223C99.607 104.819 99.1532 104.582 98.8217 104.812L98.4931 105.041C98.3587 105.134 98.2785 105.287 98.2785 105.451V110.399ZM101.341 108.325C101.341 108.727 101.791 108.965 102.123 108.738L102.451 108.514C102.588 108.42 102.669 108.266 102.669 108.101V103.117C102.669 102.713 102.215 102.476 101.884 102.706L101.555 102.935C101.421 103.028 101.341 103.181 101.341 103.345V108.325ZM104.386 106.219C104.386 106.621 104.837 106.859 105.168 106.632L105.497 106.408C105.633 106.315 105.715 106.16 105.715 105.995V100.979C105.715 100.575 105.261 100.338 104.93 100.568L104.601 100.796C104.467 100.89 104.386 101.043 104.386 101.207V106.219ZM107.449 104.113C107.449 104.515 107.899 104.753 108.231 104.526L108.559 104.302C108.696 104.209 108.777 104.054 108.777 103.889V98.8403C108.777 98.4366 108.323 98.1993 107.992 98.4297L107.663 98.6581C107.529 98.7515 107.449 98.9049 107.449 99.0687V104.113ZM110.511 102.04C110.511 102.442 110.961 102.679 111.293 102.453L111.621 102.228C111.758 102.135 111.839 101.981 111.839 101.815V96.7344C111.839 96.3307 111.385 96.0934 111.054 96.3238L110.725 96.5522C110.591 96.6456 110.511 96.799 110.511 96.9628V102.04ZM113.573 99.9501C113.573 100.352 114.023 100.59 114.355 100.363L114.683 100.139C114.82 100.046 114.901 99.891 114.901 99.7258V94.5961C114.901 94.1924 114.448 93.9551 114.116 94.1856L113.787 94.4139C113.653 94.5073 113.573 94.6607 113.573 94.8245V99.9501ZM116.619 97.8442C116.619 98.2461 117.069 98.4837 117.401 98.2571L117.729 98.0328C117.866 97.9396 117.947 97.7851 117.947 97.6199V92.474C117.947 92.0703 117.493 91.833 117.162 92.0635L116.833 92.2918C116.699 92.3853 116.619 92.5386 116.619 92.7024V97.8442ZM119.899 90.17C119.762 90.2632 119.681 90.4177 119.681 90.5829V95.7545C119.681 96.1564 120.131 96.394 120.463 96.1674L120.791 95.9431C120.928 95.8499 121.009 95.6954 121.009 95.5302V90.3586C121.009 89.9567 120.559 89.7191 120.227 89.9457L119.899 90.17Z" fill="#2FAAAF"/>
<path d="M59.2166 125.098C58.4065 125.098 57.6126 124.839 56.916 124.369L16.4443 97.4462C13.3498 95.2917 11.5028 91.7117 11.5028 87.8563V44.8637C11.5028 42.5958 13.285 40.7491 15.4722 40.7491C16.1851 40.7491 16.898 40.9597 17.5136 41.3485L58.7954 66.4248C61.5982 68.1905 63.3318 71.3818 63.3318 74.7674V120.789C63.3642 123.462 61.2094 125.098 59.2166 125.098Z" fill="#2CD8CF"/>
<path d="M54.81 95.7388L53.3211 96.8161C52.8106 97.0288 52.2292 97.0004 51.4351 96.4901L45.0114 92.4499L42.9978 90.1535L40.0199 89.3171L28.5196 82.0732L27.8815 80.5422L25.1731 79.961L20.4368 76.984C20.0114 76.7288 19.7562 76.2752 19.7562 75.7791V70.5056L54.7959 89.2604L54.81 95.7388Z" fill="url(#paint4_linear)"/>
<path d="M51.832 90.0398L44.756 85.7728L39.9631 82.8809L31.5825 77.8343L29.5547 76.6152L20.0397 70.8881C19.671 70.6613 19.7135 70.0943 20.1247 69.9383L21.4861 69.4138L54.8099 89.2459L53.6046 90.0256C53.0657 90.3658 52.3709 90.38 51.832 90.0398Z" fill="url(#paint5_linear)"/>
<path d="M42.5439 90.5067C41.3528 89.9538 40.0198 89.3159 40.0198 89.3159L39.1265 82.4122C39.1265 82.4122 41.0692 82.1854 42.5865 82.8942C44.359 83.7306 44.5859 84.3543 44.6852 85.7577L45.0113 92.463C45.0113 92.4488 43.7351 91.0595 42.5439 90.5067Z" fill="url(#paint6_linear)"/>
<path d="M44.0753 82.9092C45.1105 92.7756 44.8127 99.7643 43.5648 99.8919C42.317 100.02 40.5728 93.2576 39.5234 83.3912C38.4883 73.5247 38.6584 65.4019 39.9205 65.2744C41.1684 65.1468 43.0402 73.0428 44.0753 82.9092Z" fill="url(#paint7_linear)"/>
<path d="M27.0873 80.8677C26.3641 80.414 25.173 79.9604 25.173 79.9604L28.0374 75.7218C28.4628 75.1264 29.5405 74.9705 30.5048 75.6084L30.6182 75.6226C31.5825 76.2747 32.0079 76.8984 31.4265 77.7631L28.4912 82.0584C28.5195 82.0584 27.8105 81.3213 27.0873 80.8677Z" fill="url(#paint8_linear)"/>
<path d="M45.0254 99.736L42.1042 100.048L41.3952 95.1005L44.685 94.7461L45.0254 99.736Z" fill="url(#paint9_linear)"/>
<path d="M42.1043 100.048C42.1043 100.048 40.119 102.345 42.0901 105.151C44.1321 108.057 48.3295 106.881 48.3295 106.881C48.3295 106.881 45.3091 105.747 45.9472 103.025C46.4151 101.026 45.0255 99.7504 45.0255 99.7504L42.1043 100.048Z" fill="url(#paint10_linear)"/>
<path d="M19.1888 91.7843L20.1815 88.0277C20.2382 87.7725 20.3233 87.5599 20.4367 87.3897L35.3686 65.2611C35.9359 64.4673 37.2121 64.5524 37.6659 65.5872C38.1196 66.6362 37.5524 68.2948 37.0277 69.0603L22.8474 89.9697C22.7339 90.1399 22.6063 90.2391 22.4503 90.2958L19.4157 92.323C19.2456 92.408 19.0612 92.2946 19.1888 91.7843Z" fill="url(#paint11_linear)"/>
<path d="M36.1061 70.4482L33.8939 67.4146L34.6029 66.3798L36.8151 69.3992L36.1061 70.4482Z" fill="url(#paint12_linear)"/>
<path d="M106.389 98.1762C106.418 98.1762 106.446 98.1762 106.46 98.1762C106.503 98.1762 106.559 98.1904 106.602 98.1904C106.63 98.1904 106.644 98.1904 106.673 98.2046C106.729 98.2187 106.786 98.2187 106.843 98.2329C106.857 98.2329 106.857 98.2329 106.871 98.2329C106.942 98.2471 106.999 98.2754 107.07 98.2896C107.084 98.2896 107.112 98.3038 107.127 98.318C107.169 98.3321 107.212 98.3605 107.254 98.3747C107.297 98.3889 107.325 98.403 107.368 98.4314L100.419 94.6464C100.391 94.6322 100.363 94.6181 100.334 94.6039C100.32 94.6039 100.32 94.5897 100.306 94.5897C100.263 94.5755 100.221 94.5472 100.178 94.533C100.164 94.5188 100.136 94.5188 100.121 94.5046C100.051 94.4763 99.9938 94.4621 99.9229 94.4479C99.9087 94.4479 99.9087 94.4479 99.8946 94.4479C99.8378 94.4338 99.7811 94.4196 99.7244 94.4196C99.696 94.4196 99.6819 94.4196 99.6535 94.4054C99.611 94.4054 99.5542 94.3912 99.5117 94.3912C99.4833 94.3912 99.455 94.3912 99.4408 94.3912C99.3982 94.3912 99.3415 94.3912 99.2848 94.3912C99.2564 94.3912 99.2423 94.3912 99.2139 94.3912C99.143 94.3912 99.0721 94.4054 98.987 94.4054L88.5928 95.8655L95.5412 99.6505L105.935 98.1904C106.006 98.1762 106.077 98.1762 106.162 98.1762C106.191 98.1762 106.205 98.1762 106.233 98.1762C106.29 98.1762 106.332 98.1762 106.389 98.1762Z" fill="url(#paint13_linear)"/>
<path d="M87.3874 85.3758C87.3591 85.3616 87.3307 85.3474 87.3024 85.3333C87.3024 85.3333 87.3024 85.3333 87.2882 85.3333C87.2173 85.2907 87.1322 85.2624 87.0613 85.234C87.0046 85.2199 86.9478 85.1915 86.8769 85.1773C86.8628 85.1773 86.8486 85.1773 86.8344 85.1632C86.806 85.1632 86.7777 85.149 86.7493 85.149C86.6926 85.1348 86.6359 85.1348 86.5792 85.1206C86.5508 85.1206 86.5224 85.1064 86.4799 85.1064C86.4232 85.1064 86.3665 85.1064 86.2956 85.1064C86.2672 85.1064 86.2388 85.1064 86.2105 85.1064C86.1254 85.1064 86.0261 85.1206 85.941 85.1348L63.2666 88.3244C63.1674 88.3386 63.0823 88.3527 62.9972 88.3811C62.983 88.3811 62.9547 88.3953 62.9405 88.3953C62.8554 88.4236 62.7561 88.452 62.6711 88.4803C62.6569 88.4803 62.6427 88.4945 62.6143 88.5087C62.586 88.5228 62.5434 88.537 62.5151 88.5512C62.4725 88.5654 62.43 88.5937 62.4016 88.6079C62.3733 88.6221 62.3449 88.6362 62.3165 88.6504C62.2173 88.7071 62.118 88.7638 62.0046 88.8347C61.9195 88.9056 61.8202 88.9765 61.7352 89.0473C61.6501 89.1324 61.565 89.2175 61.4799 89.3025L61.4657 89.3167C61.409 89.3876 61.3523 89.4585 61.2956 89.5293C61.2672 89.5577 61.253 89.6002 61.2247 89.6286C61.1963 89.6711 61.1679 89.7278 61.1396 89.7703C61.1112 89.827 61.0687 89.8837 61.0403 89.9404C61.0261 89.9546 61.0261 89.9688 61.012 89.983C60.9552 90.0822 60.9127 90.1814 60.8701 90.2807C60.856 90.3232 60.8276 90.3799 60.8134 90.4366C60.7992 90.4649 60.7992 90.4933 60.7851 90.5216C60.7709 90.5642 60.7567 90.6067 60.7425 90.6351C60.7283 90.6918 60.7142 90.7626 60.7 90.8193C60.6858 90.8619 60.6858 90.8902 60.6716 90.9328C60.6574 91.0036 60.6433 91.0745 60.6433 91.1454C60.6433 91.1737 60.6291 91.2163 60.6291 91.2446C60.6149 91.3438 60.6149 91.4573 60.6149 91.5565L60.6007 99.7927L67.5491 103.578L67.5633 95.3415C67.5633 95.2422 67.5633 95.1288 67.5775 95.0296C67.5775 95.0012 67.5916 94.9587 67.5916 94.9304C67.6058 94.8595 67.6058 94.7886 67.62 94.7177C67.6342 94.6752 67.6342 94.6327 67.6484 94.6043C67.6625 94.5476 67.6767 94.4767 67.6909 94.42C67.7051 94.3775 67.7193 94.335 67.7334 94.3066C67.7618 94.2216 67.7902 94.1507 67.8185 94.0656C67.8753 93.9522 67.932 93.8388 67.9887 93.7254C68.0171 93.6687 68.0596 93.612 68.088 93.5553C68.1447 93.4702 68.1872 93.3852 68.2439 93.3143C68.3007 93.2434 68.3574 93.1584 68.4283 93.0875C68.5134 93.0024 68.5985 92.9174 68.6835 92.8323C68.7686 92.7614 68.8537 92.6764 68.953 92.6197C69.0522 92.5488 69.1657 92.4921 69.2649 92.4354C69.2933 92.4212 69.3216 92.407 69.35 92.3929C69.4209 92.3503 69.506 92.322 69.5769 92.2795C69.5911 92.2653 69.6053 92.2653 69.6336 92.2511C69.7187 92.2086 69.818 92.1802 69.903 92.166C69.9172 92.166 69.9456 92.1519 69.9598 92.1519C70.0448 92.1235 70.1441 92.1093 70.2292 92.0952L92.9036 88.9056C92.9887 88.8914 93.0879 88.8914 93.173 88.8772C93.2014 88.8772 93.2297 88.8772 93.2581 88.8772C93.3148 88.8772 93.3715 88.8772 93.4425 88.8772C93.4708 88.8772 93.4992 88.8772 93.5417 88.8914C93.5984 88.8914 93.6552 88.9056 93.7119 88.9198C93.7402 88.9198 93.7686 88.9339 93.797 88.9339C93.8679 88.9481 93.9529 88.9765 94.0239 88.9906C94.1089 89.019 94.1798 89.0474 94.2507 89.0899C94.2791 89.1041 94.3074 89.1182 94.3358 89.1324L87.3874 85.3758Z" fill="url(#paint14_linear)"/>
<path d="M87.3873 85.3758C87.359 85.3616 87.3306 85.3474 87.3022 85.3333C87.3022 85.3333 87.3022 85.3333 87.2881 85.3333C87.2172 85.2907 87.1321 85.2624 87.0612 85.234C87.0045 85.2199 86.9477 85.1915 86.8768 85.1773C86.8627 85.1773 86.8485 85.1773 86.8343 85.1632C86.8059 85.1632 86.7776 85.149 86.7492 85.149C86.6925 85.1348 86.6358 85.1348 86.5791 85.1206C86.5507 85.1206 86.5223 85.1064 86.4798 85.1064C86.4231 85.1064 86.3663 85.1064 86.2954 85.1064C86.2671 85.1064 86.2387 85.1064 86.2104 85.1064C86.1253 85.1064 86.026 85.1206 85.9409 85.1348L63.2665 88.3244C63.1673 88.3386 63.0822 88.3527 62.9971 88.3811C62.9829 88.3811 62.9546 88.3953 62.9404 88.3953C62.8553 88.4236 62.756 88.452 62.6709 88.4803C62.6568 88.4803 62.6426 88.4945 62.6142 88.5087C62.5859 88.5228 62.5433 88.537 62.515 88.5512C62.4724 88.5654 62.4299 88.5937 62.4015 88.6079C62.3732 88.6221 62.3448 88.6362 62.3164 88.6504C62.2172 88.7071 62.1179 88.7638 62.0045 88.8347C61.9194 88.9056 61.8201 88.9765 61.735 89.0473C61.65 89.1324 61.5649 89.2175 61.4798 89.3025L61.4656 89.3167C61.4089 89.3876 61.3522 89.4585 61.2955 89.5293C61.2671 89.5577 61.2529 89.6002 61.2246 89.6286C61.1962 89.6711 61.1678 89.7278 61.1395 89.7703C61.1111 89.827 61.0686 89.8837 61.0402 89.9404C61.026 89.9546 61.026 89.9688 61.0118 89.983C60.9551 90.0822 60.9126 90.1814 60.87 90.2807C60.8559 90.3232 60.8275 90.3799 60.8133 90.4366C60.7991 90.4649 60.7991 90.4933 60.785 90.5216C60.7708 90.5642 60.7566 90.6067 60.7424 90.6351C60.7282 90.6918 60.7141 90.7626 60.6999 90.8193C60.6857 90.8619 60.6857 90.8902 60.6715 90.9328C60.6573 91.0036 60.6432 91.0745 60.6432 91.1454C60.6432 91.1737 60.629 91.2163 60.629 91.2446C60.6148 91.3438 60.6148 91.4573 60.6148 91.5565L60.6006 99.7927L67.549 103.578L67.5632 95.3415C67.5632 95.2422 67.5632 95.1288 67.5774 95.0296C67.5774 95.0012 67.5915 94.9587 67.5915 94.9304C67.6057 94.8595 67.6057 94.7886 67.6199 94.7177C67.6341 94.6752 67.6341 94.6327 67.6483 94.6043C67.6624 94.5476 67.6766 94.4767 67.6908 94.42C67.705 94.3775 67.7192 94.335 67.7333 94.3066C67.7617 94.2216 67.7901 94.1507 67.8184 94.0656C67.8751 93.9522 67.9319 93.8388 67.9886 93.7254C68.0169 93.6687 68.0595 93.612 68.0878 93.5553C68.1446 93.4702 68.1871 93.3852 68.2438 93.3143C68.3006 93.2434 68.3573 93.1584 68.4282 93.0875C68.5133 93.0024 68.5983 92.9174 68.6834 92.8323C68.7685 92.7614 68.8536 92.6764 68.9529 92.6197C69.0521 92.5488 69.1656 92.4921 69.2648 92.4354C69.2932 92.4212 69.3215 92.407 69.3499 92.3929C69.4208 92.3503 69.5059 92.322 69.5768 92.2795C69.591 92.2653 69.6051 92.2653 69.6335 92.2511C69.7186 92.2086 69.8179 92.1802 69.9029 92.166C69.9171 92.166 69.9455 92.1519 69.9597 92.1519C70.0447 92.1235 70.144 92.1093 70.2291 92.0952L92.9035 88.9056C92.9886 88.8914 93.0878 88.8914 93.1729 88.8772C93.2013 88.8772 93.2296 88.8772 93.258 88.8772C93.3147 88.8772 93.3714 88.8772 93.4423 88.8772C93.4707 88.8772 93.4991 88.8772 93.5416 88.8914C93.5983 88.8914 93.6551 88.9056 93.7118 88.9198C93.7401 88.9198 93.7685 88.9339 93.7969 88.9339C93.8678 88.9481 93.9528 88.9765 94.0237 88.9906C94.1088 89.019 94.1797 89.0474 94.2506 89.0899C94.279 89.1041 94.3073 89.1182 94.3357 89.1324L87.3873 85.3758Z" fill="url(#paint15_linear)"/>
<path d="M60.6149 99.8065L55.4249 100.529L50.2348 101.252C50.1923 101.252 50.1498 101.267 50.1072 101.267C50.0647 101.281 50.0221 101.281 49.9796 101.295C49.9654 101.295 49.9512 101.295 49.9512 101.309C49.937 101.309 49.9229 101.309 49.9229 101.323C49.8945 101.338 49.8661 101.338 49.8378 101.352C49.8094 101.366 49.7811 101.366 49.7527 101.38C49.7385 101.38 49.7243 101.394 49.7243 101.394L49.696 101.408C49.6534 101.423 49.6251 101.437 49.5825 101.451C49.54 101.465 49.5116 101.479 49.4691 101.493C49.4549 101.493 49.4549 101.508 49.4407 101.508C49.4266 101.508 49.4266 101.522 49.4124 101.522C49.384 101.536 49.3557 101.55 49.3273 101.564C49.2989 101.579 49.2706 101.593 49.2422 101.607C49.228 101.621 49.2138 101.621 49.1997 101.635C49.1855 101.649 49.1713 101.649 49.1571 101.664C49.1429 101.678 49.1146 101.692 49.1004 101.692C49.0862 101.692 49.0579 101.72 49.0437 101.72C49.0437 101.72 49.0295 101.72 49.0295 101.734C49.0295 101.734 49.0295 101.734 49.0153 101.749C48.9728 101.777 48.9161 101.819 48.8735 101.862C48.831 101.905 48.7743 101.933 48.7317 101.975C48.7317 101.975 48.7317 101.975 48.7175 101.975C48.7175 101.975 48.7175 101.975 48.7034 101.975C48.6892 101.975 48.6892 101.99 48.6892 101.99C48.6892 102.004 48.675 102.004 48.675 102.018C48.6466 102.046 48.6041 102.075 48.5757 102.117C48.5474 102.146 48.519 102.188 48.4765 102.216L48.4623 102.231L48.4481 102.245L48.4339 102.259L48.4197 102.273C48.3914 102.316 48.3488 102.344 48.3205 102.387C48.2921 102.429 48.2638 102.472 48.2354 102.5L48.2212 102.514L48.207 102.528C48.1787 102.585 48.1361 102.628 48.1078 102.684C48.0794 102.741 48.0511 102.783 48.0227 102.84C48.0227 102.84 48.0227 102.854 48.0085 102.854C47.9943 102.854 48.0085 102.869 47.9943 102.869C47.9802 102.883 47.9802 102.897 47.966 102.925C47.9518 102.939 47.9518 102.954 47.9376 102.982C47.9376 102.996 47.9234 103.01 47.9234 103.024C47.9234 103.039 47.9093 103.053 47.9093 103.067C47.8951 103.095 47.8809 103.138 47.8667 103.166C47.8525 103.195 47.8384 103.237 47.8242 103.265C47.8242 103.28 47.81 103.28 47.81 103.294C47.81 103.308 47.7958 103.308 47.7958 103.322C47.7816 103.35 47.7816 103.365 47.7675 103.393C47.7533 103.421 47.7533 103.436 47.7391 103.464C47.7391 103.478 47.7249 103.506 47.7249 103.521C47.7249 103.535 47.7107 103.563 47.7107 103.577C47.6965 103.606 47.6966 103.634 47.6966 103.662C47.6966 103.691 47.6824 103.719 47.6824 103.747C47.6824 103.762 47.6682 103.79 47.6682 103.804C47.6682 103.818 47.654 103.847 47.654 103.861C47.654 103.889 47.6398 103.918 47.6398 103.96C47.6398 103.988 47.6257 104.031 47.6257 104.059C47.6257 104.073 47.6257 104.088 47.6257 104.102C47.6257 104.116 47.6257 104.13 47.6257 104.144C47.6257 104.187 47.6115 104.244 47.6115 104.286C47.6115 104.329 47.6115 104.385 47.6115 104.428L47.5831 119.015L47.5547 133.602C47.5547 133.729 47.5547 133.843 47.5689 133.97C47.5831 134.084 47.5973 134.197 47.6257 134.311C47.654 134.424 47.6824 134.523 47.7391 134.651C47.7958 134.779 47.8525 134.892 47.9376 135.048C47.966 135.09 47.9802 135.119 48.0227 135.161C48.0511 135.204 48.0936 135.26 48.1645 135.346C48.207 135.388 48.2496 135.445 48.2921 135.487C48.3347 135.53 48.3772 135.572 48.4339 135.615C48.4623 135.643 48.4907 135.657 48.519 135.686C48.5474 135.714 48.5757 135.728 48.6041 135.757C48.6325 135.785 48.6608 135.799 48.7034 135.813C48.7459 135.828 48.7743 135.856 48.8026 135.87L52.2768 137.755L55.9452 139.871C55.8743 139.828 55.8175 139.8 55.7608 139.757C55.7041 139.715 55.6474 139.672 55.5765 139.616C55.5339 139.573 55.4772 139.531 55.4347 139.488C55.3921 139.446 55.3496 139.403 55.307 139.346C55.2361 139.261 55.1936 139.205 55.1652 139.162C55.1369 139.12 55.1085 139.077 55.0802 139.049C54.9951 138.893 54.9384 138.765 54.8816 138.652C54.8391 138.538 54.7966 138.425 54.7682 138.312C54.7398 138.198 54.7256 138.085 54.7115 137.971C54.6973 137.858 54.6973 137.73 54.6973 137.603L54.5315 122.786L54.5598 108.199C54.5598 108.156 54.5598 108.099 54.5598 108.057C54.5598 108.014 55.8503 105.69 55.8928 105.69L61.5508 104.485L67.6058 103.506L64.1316 101.621L60.6149 99.8065Z" fill="url(#paint16_linear)"/>
<path d="M60.6149 99.8065L55.4249 100.529L50.2348 101.252C50.1923 101.252 50.1498 101.267 50.1072 101.267C50.0647 101.281 50.0221 101.281 49.9796 101.295C49.9654 101.295 49.9512 101.295 49.9512 101.309C49.937 101.309 49.9229 101.309 49.9229 101.323C49.8945 101.338 49.8661 101.338 49.8378 101.352C49.8094 101.366 49.7811 101.366 49.7527 101.38C49.7385 101.38 49.7243 101.394 49.7243 101.394L49.696 101.408C49.6534 101.423 49.6251 101.437 49.5825 101.451C49.54 101.465 49.5116 101.479 49.4691 101.493C49.4549 101.493 49.4549 101.508 49.4407 101.508C49.4266 101.508 49.4266 101.522 49.4124 101.522C49.384 101.536 49.3557 101.55 49.3273 101.564C49.2989 101.579 49.2706 101.593 49.2422 101.607C49.228 101.621 49.2138 101.621 49.1997 101.635C49.1855 101.649 49.1713 101.649 49.1571 101.664C49.1429 101.678 49.1146 101.692 49.1004 101.692C49.0862 101.692 49.0579 101.72 49.0437 101.72C49.0437 101.72 49.0295 101.72 49.0295 101.734C49.0295 101.734 49.0295 101.734 49.0153 101.749C48.9728 101.777 48.9161 101.819 48.8735 101.862C48.831 101.905 48.7743 101.933 48.7317 101.975C48.7317 101.975 48.7317 101.975 48.7175 101.975C48.7175 101.975 48.7175 101.975 48.7034 101.975C48.6892 101.975 48.6892 101.99 48.6892 101.99C48.6892 102.004 48.675 102.004 48.675 102.018C48.6466 102.046 48.6041 102.075 48.5757 102.117C48.5474 102.146 48.519 102.188 48.4765 102.216L48.4623 102.231L48.4481 102.245L48.4339 102.259L48.4197 102.273C48.3914 102.316 48.3488 102.344 48.3205 102.387C48.2921 102.429 48.2638 102.472 48.2354 102.5L48.2212 102.514L48.207 102.528C48.1787 102.585 48.1361 102.628 48.1078 102.684C48.0794 102.741 48.0511 102.783 48.0227 102.84C48.0227 102.84 48.0227 102.854 48.0085 102.854C47.9943 102.854 48.0085 102.869 47.9943 102.869C47.9802 102.883 47.9802 102.897 47.966 102.925C47.9518 102.939 47.9518 102.954 47.9376 102.982C47.9376 102.996 47.9234 103.01 47.9234 103.024C47.9234 103.039 47.9093 103.053 47.9093 103.067C47.8951 103.095 47.8809 103.138 47.8667 103.166C47.8525 103.195 47.8384 103.237 47.8242 103.265C47.8242 103.28 47.81 103.28 47.81 103.294C47.81 103.308 47.7958 103.308 47.7958 103.322C47.7816 103.35 47.7816 103.365 47.7675 103.393C47.7533 103.421 47.7533 103.436 47.7391 103.464C47.7391 103.478 47.7249 103.506 47.7249 103.521C47.7249 103.535 47.7107 103.563 47.7107 103.577C47.6965 103.606 47.6966 103.634 47.6966 103.662C47.6966 103.691 47.6824 103.719 47.6824 103.747C47.6824 103.762 47.6682 103.79 47.6682 103.804C47.6682 103.818 47.654 103.847 47.654 103.861C47.654 103.889 47.6398 103.918 47.6398 103.96C47.6398 103.988 47.6257 104.031 47.6257 104.059C47.6257 104.073 47.6257 104.088 47.6257 104.102C47.6257 104.116 47.6257 104.13 47.6257 104.144C47.6257 104.187 47.6115 104.244 47.6115 104.286C47.6115 104.329 47.6115 104.385 47.6115 104.428L47.5831 119.015L47.5547 133.602C47.5547 133.729 47.5547 133.843 47.5689 133.97C47.5831 134.084 47.5973 134.197 47.6257 134.311C47.654 134.424 47.6824 134.523 47.7391 134.651C47.7958 134.779 47.8525 134.892 47.9376 135.048C47.966 135.09 47.9802 135.119 48.0227 135.161C48.0511 135.204 48.0936 135.26 48.1645 135.346C48.207 135.388 48.2496 135.445 48.2921 135.487C48.3347 135.53 48.3772 135.572 48.4339 135.615C48.4623 135.643 48.4907 135.657 48.519 135.686C48.5474 135.714 48.5757 135.728 48.6041 135.757C48.6325 135.785 48.6608 135.799 48.7034 135.813C48.7459 135.828 48.7743 135.856 48.8026 135.87L52.2768 137.755L55.9452 139.871C55.8743 139.828 55.8175 139.8 55.7608 139.757C55.7041 139.715 55.6474 139.672 55.5765 139.616C55.5339 139.573 55.4772 139.531 55.4347 139.488C55.3921 139.446 55.3496 139.403 55.307 139.346C55.2361 139.261 55.1936 139.205 55.1652 139.162C55.1369 139.12 55.1085 139.077 55.0802 139.049C54.9951 138.893 54.9384 138.765 54.8816 138.652C54.8391 138.538 54.7966 138.425 54.7682 138.312C54.7398 138.198 54.7256 138.085 54.7115 137.971C54.6973 137.858 54.6973 137.73 54.6973 137.603L54.5315 122.786L54.5598 108.199C54.5598 108.156 54.5598 108.099 54.5598 108.057C54.5598 108.014 55.8503 105.69 55.8928 105.69L61.5508 104.485L67.6058 103.506L64.1316 101.621L60.6149 99.8065Z" fill="url(#paint17_linear)"/>
<path d="M108.601 100.684L108.545 129.873C108.545 130.128 108.516 130.369 108.459 130.596C108.403 130.837 108.318 131.063 108.218 131.276C108.105 131.489 108.062 131.574 108.006 131.659C107.85 131.9 107.75 132.013 107.665 132.112C107.538 132.254 107.396 132.382 107.254 132.495C107.141 132.58 107.027 132.665 106.914 132.736C106.602 132.92 106.247 133.062 105.879 133.105L102.504 133.572L99.937 133.927L99.9796 112.351C99.9796 111.274 99.1713 110.508 98.1787 110.65L64.9115 115.328C63.9189 115.47 63.0964 116.462 63.0964 117.539L63.0539 139.129L57.1123 139.966C56.7436 140.022 56.4033 139.98 56.0772 139.881C55.9637 139.838 55.8361 139.796 55.7368 139.739C55.595 139.668 55.4532 139.569 55.3256 139.47C55.2263 139.385 55.1413 139.3 55.0562 139.214C54.9285 139.044 54.8718 138.973 54.8293 138.903C54.6591 138.605 54.5882 138.392 54.5315 138.18C54.4748 137.953 54.4464 137.726 54.4464 137.471L54.5031 108.283C54.5031 106.695 55.6943 105.249 57.169 105.036L67.5633 103.576L67.5774 95.34C67.5774 94.9006 67.6767 94.4611 67.8469 94.0642C67.9603 93.7948 68.1021 93.5397 68.2723 93.3129C68.329 93.242 68.3857 93.1711 68.4566 93.1002C68.6126 92.9159 68.7828 92.76 68.9813 92.6324C69.4492 92.3205 69.8321 92.1646 70.2575 92.1079L92.9319 88.9183C93.329 88.8616 93.6977 88.9041 94.038 89.0176C94.1231 89.0459 94.194 89.0742 94.2649 89.1168C94.3925 89.1877 94.5201 89.2585 94.6336 89.3436C94.6903 89.3861 94.747 89.4428 94.8037 89.4854C95.0164 89.7122 95.1299 89.8539 95.2292 90.024C95.3426 90.2225 95.3851 90.3359 95.4277 90.4493C95.5269 90.747 95.5837 91.0589 95.5837 91.4133L95.5695 99.6495L105.964 98.1894C107.41 97.9909 108.601 99.1108 108.601 100.684Z" fill="url(#paint18_linear)"/>
<path d="M63.0539 139.131L63.0965 117.555C63.0965 116.478 63.9048 115.485 64.9116 115.344L98.1787 110.665C99.1855 110.524 99.9938 111.289 99.9796 112.367L99.9371 133.942L63.0539 139.131Z" fill="url(#paint19_linear)"/>
<path d="M70.8247 138.038L69.2932 138.251L69.3925 123.026L70.9239 122.813L70.8247 138.038Z" fill="url(#paint20_linear)"/>
<path d="M74.2422 137.557L72.7107 137.769L72.81 122.544L74.3415 122.332L74.2422 137.557Z" fill="url(#paint21_linear)"/>
<path d="M77.6454 137.074L76.114 137.287L76.2274 122.076L77.7447 121.864L77.6454 137.074Z" fill="url(#paint22_linear)"/>
<path d="M81.0629 136.607L79.5315 136.819L79.6307 121.594L81.1622 121.382L81.0629 136.607Z" fill="url(#paint23_linear)"/>
<path d="M84.4803 136.125L82.9489 136.338L83.0481 121.113L84.5796 120.9L84.4803 136.125Z" fill="url(#paint24_linear)"/>
<path d="M87.8837 135.643L86.3522 135.856L86.4656 120.645L87.9971 120.432L87.8837 135.643Z" fill="url(#paint25_linear)"/>
<path d="M91.3012 135.175L89.7697 135.387L89.869 120.162L91.4005 119.95L91.3012 135.175Z" fill="url(#paint26_linear)"/>
<path d="M94.7186 134.693L93.1871 134.906L93.2864 119.681L94.8178 119.468L94.7186 134.693Z" fill="url(#paint27_linear)"/>
</g>
<defs>
<linearGradient id="paint0_linear" x1="15.2637" y1="80.6698" x2="124.498" y2="80.6698" gradientUnits="userSpaceOnUse">
<stop stop-color="#E7EFF5"/>
<stop offset="0.2574" stop-color="#C3C5D2"/>
<stop offset="0.3352" stop-color="#C6C8D5"/>
<stop offset="0.3997" stop-color="#CED3DD"/>
<stop offset="0.4592" stop-color="#DDE4EC"/>
<stop offset="0.4655" stop-color="#DFE6EE"/>
<stop offset="0.5693" stop-color="#98A5B5"/>
<stop offset="0.995" stop-color="#7E8EA0"/>
</linearGradient>
<linearGradient id="paint1_linear" x1="7.92478" y1="80.9694" x2="125.568" y2="80.9694" gradientUnits="userSpaceOnUse">
<stop stop-color="#475375"/>
<stop offset="0.483607" stop-color="#2E364F"/>
<stop offset="0.532513" stop-color="#2E374F"/>
<stop offset="0.593645" stop-color="#27293B"/>
<stop offset="1" stop-color="#2D3146"/>
</linearGradient>
<linearGradient id="paint2_linear" x1="32.8583" y1="52.6629" x2="98.0027" y2="15.7994" gradientUnits="userSpaceOnUse">
<stop stop-color="#596482"/>
<stop offset="0.995" stop-color="#2A3D6B"/>
</linearGradient>
<linearGradient id="paint3_linear" x1="32.8554" y1="50.737" x2="97.9999" y2="13.8735" gradientUnits="userSpaceOnUse">
<stop stop-color="#687599"/>
<stop offset="0.995" stop-color="#49587E"/>
</linearGradient>
<linearGradient id="paint4_linear" x1="17.7392" y1="83.4626" x2="79.5314" y2="84.3182" gradientUnits="userSpaceOnUse">
<stop stop-color="#E7EFF5"/>
<stop offset="0.2574" stop-color="#C3C5D2"/>
<stop offset="0.3352" stop-color="#C6C8D5"/>
<stop offset="0.4519" stop-color="#CED3DD"/>
<stop offset="0.4897" stop-color="#D8DEE7"/>
<stop offset="0.5095" stop-color="#DFE6EE"/>
<stop offset="0.5358" stop-color="#DDE4EC"/>
<stop offset="0.575" stop-color="#A4B1C0"/>
<stop offset="0.995" stop-color="#A4B1C0"/>
</linearGradient>
<linearGradient id="paint5_linear" x1="10.3503" y1="70.9647" x2="79.2546" y2="94.0076" gradientUnits="userSpaceOnUse">
<stop stop-color="#ABB6C3"/>
<stop offset="0.0249062" stop-color="#B1BBC7"/>
<stop offset="0.2028" stop-color="#D6DCE2"/>
<stop offset="0.3465" stop-color="#EDF0F2"/>
<stop offset="0.4372" stop-color="#F5F7F8"/>
<stop offset="0.4707" stop-color="#EBEEF1"/>
<stop offset="0.5802" stop-color="#CFD6DD"/>
<stop offset="0.6904" stop-color="#BBC4CE"/>
<stop offset="0.8005" stop-color="#AFBAC6"/>
<stop offset="0.9108" stop-color="#ABB6C3"/>
</linearGradient>
<linearGradient id="paint6_linear" x1="37.0451" y1="87.8589" x2="44.7992" y2="87.1742" gradientUnits="userSpaceOnUse">
<stop stop-color="#ABB6C3"/>
<stop offset="0.0160742" stop-color="#B1BBC7"/>
<stop offset="0.1309" stop-color="#D6DCE2"/>
<stop offset="0.2236" stop-color="#EDF0F2"/>
<stop offset="0.2822" stop-color="#F5F7F8"/>
<stop offset="0.3327" stop-color="#EBEEF1"/>
<stop offset="0.4983" stop-color="#CFD6DD"/>
<stop offset="0.6647" stop-color="#BBC4CE"/>
<stop offset="0.8312" stop-color="#AFBAC6"/>
<stop offset="0.9978" stop-color="#ABB6C3"/>
</linearGradient>
<linearGradient id="paint7_linear" x1="39.4624" y1="82.8248" x2="44.0134" y2="82.3455" gradientUnits="userSpaceOnUse">
<stop offset="0.005" stop-color="#ABB6C3"/>
<stop offset="0.5" stop-color="#F5F7F8"/>
<stop offset="1" stop-color="#CFD7E0"/>
</linearGradient>
<linearGradient id="paint8_linear" x1="25.3161" y1="76.1029" x2="30.3753" y2="79.3953" gradientUnits="userSpaceOnUse">
<stop stop-color="#ABB6C3"/>
<stop offset="0.0160742" stop-color="#B1BBC7"/>
<stop offset="0.1309" stop-color="#D6DCE2"/>
<stop offset="0.2236" stop-color="#EDF0F2"/>
<stop offset="0.2822" stop-color="#F5F7F8"/>
<stop offset="0.3327" stop-color="#EBEEF1"/>
<stop offset="0.4983" stop-color="#CFD6DD"/>
<stop offset="0.6647" stop-color="#BBC4CE"/>
<stop offset="0.8312" stop-color="#AFBAC6"/>
<stop offset="0.9978" stop-color="#ABB6C3"/>
</linearGradient>
<linearGradient id="paint9_linear" x1="41.6506" y1="97.5805" x2="44.9492" y2="97.2331" gradientUnits="userSpaceOnUse">
<stop stop-color="#56597A"/>
<stop offset="0.2131" stop-color="#454F6B"/>
<stop offset="0.4819" stop-color="#606C8B"/>
<stop offset="0.5881" stop-color="#6C7899"/>
<stop offset="0.776" stop-color="#4D5171"/>
<stop offset="0.9194" stop-color="#494D70"/>
<stop offset="1" stop-color="#454869"/>
</linearGradient>
<linearGradient id="paint10_linear" x1="42.7251" y1="104.273" x2="48.5241" y2="102.387" gradientUnits="userSpaceOnUse">
<stop stop-color="#CFD7E0"/>
<stop offset="0.3464" stop-color="#F5F7F8"/>
<stop offset="0.491" stop-color="#F1F3F5"/>
<stop offset="0.6462" stop-color="#E4E8EC"/>
<stop offset="0.8064" stop-color="#CED5DC"/>
<stop offset="0.969" stop-color="#B0BBC7"/>
<stop offset="0.995" stop-color="#ABB6C3"/>
</linearGradient>
<linearGradient id="paint11_linear" x1="27.1335" y1="77.271" x2="29.9715" y2="79.2382" gradientUnits="userSpaceOnUse">
<stop offset="0.005" stop-color="#ABB6C3"/>
<stop offset="0.5" stop-color="#F5F7F8"/>
<stop offset="1" stop-color="#CFD7E0"/>
</linearGradient>
<linearGradient id="paint12_linear" x1="33.7526" y1="67.1684" x2="37.2106" y2="68.9768" gradientUnits="userSpaceOnUse">
<stop stop-color="#475579"/>
<stop offset="0.2131" stop-color="#585B79"/>
<stop offset="0.453125" stop-color="#4F5A7A"/>
<stop offset="0.598958" stop-color="#363956"/>
<stop offset="0.776" stop-color="#27293B"/>
<stop offset="0.9194" stop-color="#272A3C"/>
<stop offset="1" stop-color="#2C3045"/>
</linearGradient>
<linearGradient id="paint13_linear" x1="94.8728" y1="97.0221" x2="121.001" y2="97.0221" gradientUnits="userSpaceOnUse">
<stop offset="0.005" stop-color="#49577E"/>
<stop offset="0.5012" stop-color="#526086"/>
<stop offset="0.6388" stop-color="#2A2D41"/>
<stop offset="1" stop-color="#DFE6EE"/>
</linearGradient>
<linearGradient id="paint14_linear" x1="65.1212" y1="111.313" x2="85.2724" y2="76.4223" gradientUnits="userSpaceOnUse">
<stop offset="0.8647" stop-color="#2B3D6C"/>
</linearGradient>
<linearGradient id="paint15_linear" x1="65.1211" y1="111.313" x2="85.2723" y2="76.4223" gradientUnits="userSpaceOnUse">
<stop offset="0.2756" stop-color="#49577A"/>
<stop offset="0.3777" stop-color="#4D5B82"/>
<stop offset="0.4296" stop-color="#5E6C90"/>
<stop offset="0.556" stop-color="#5C6A8E"/>
<stop offset="0.8647" stop-color="#49577E"/>
</linearGradient>
<linearGradient id="paint16_linear" x1="43.8755" y1="136.488" x2="73.0812" y2="80.7571" gradientUnits="userSpaceOnUse">
<stop offset="0.48" stop-color="#49567A"/>
<stop offset="0.6853" stop-color="#4A587C"/>
</linearGradient>
<linearGradient id="paint17_linear" x1="43.8755" y1="136.488" x2="73.0812" y2="80.7571" gradientUnits="userSpaceOnUse">
<stop offset="0.0436616" stop-color="#414A69"/>
<stop offset="0.2304" stop-color="#465274"/>
<stop offset="0.427967" stop-color="#546185"/>
<stop offset="0.48" stop-color="#5E6B90"/>
<stop offset="0.5045" stop-color="#5B698E"/>
<stop offset="0.6261" stop-color="#49577E"/>
<stop offset="0.6853" stop-color="#4A587C"/>
</linearGradient>
<linearGradient id="paint18_linear" x1="45.294" y1="143.553" x2="121.001" y2="88.7428" gradientUnits="userSpaceOnUse">
<stop stop-color="#2B2E42"/>
<stop offset="0.411458" stop-color="#353B52"/>
<stop offset="0.5124" stop-color="#414864"/>
<stop offset="0.583333" stop-color="#383D57"/>
<stop offset="1" stop-color="#494D62"/>
</linearGradient>
<linearGradient id="paint19_linear" x1="62.7651" y1="138.742" x2="100.002" y2="111.783" gradientUnits="userSpaceOnUse">
<stop offset="1" stop-color="#6A7497"/>
</linearGradient>
<linearGradient id="paint20_linear" x1="66.4448" y1="138.222" x2="75.84" y2="115.107" gradientUnits="userSpaceOnUse">
<stop offset="0.995" stop-color="#2CD8CF"/>
</linearGradient>
<linearGradient id="paint21_linear" x1="69.8623" y1="137.74" x2="79.2575" y2="114.626" gradientUnits="userSpaceOnUse">
<stop offset="0.995" stop-color="#2CD8CF"/>
</linearGradient>
<linearGradient id="paint22_linear" x1="73.2655" y1="137.258" x2="82.6458" y2="114.159" gradientUnits="userSpaceOnUse">
<stop offset="0.995" stop-color="#2CD8CF"/>
</linearGradient>
<linearGradient id="paint23_linear" x1="76.683" y1="136.79" x2="86.0782" y2="113.676" gradientUnits="userSpaceOnUse">
<stop offset="0.995" stop-color="#2CD8CF"/>
</linearGradient>
<linearGradient id="paint24_linear" x1="80.1004" y1="136.309" x2="89.4956" y2="113.194" gradientUnits="userSpaceOnUse">
<stop offset="0.995" stop-color="#2CD8CF"/>
</linearGradient>
<linearGradient id="paint25_linear" x1="83.479" y1="135.826" x2="92.8011" y2="112.671" gradientUnits="userSpaceOnUse">
<stop offset="0.995" stop-color="#2CD8CF"/>
</linearGradient>
<linearGradient id="paint26_linear" x1="86.9213" y1="135.358" x2="96.3164" y2="112.244" gradientUnits="userSpaceOnUse">
<stop offset="0.995" stop-color="#2CD8CF"/>
</linearGradient>
<linearGradient id="paint27_linear" x1="90.3387" y1="134.876" x2="99.7339" y2="111.762" gradientUnits="userSpaceOnUse">
<stop offset="0.995" stop-color="#2CD8CF"/>
</linearGradient>
<clipPath id="clip0">
<rect x="8" width="123.699" height="140" fill="white"/>
</clipPath>
</defs>
</svg>
