<svg width="140" height="140" viewBox="0 0 140 140" fill="none" xmlns="http://www.w3.org/2000/svg">
<g clip-path="url(#clip0)">
<path d="M0.0968628 54.3567V76.0785C0.0968628 79.1001 1.6748 81.8867 4.22636 83.4478L59.4877 120.194C65.2288 123.702 72.4302 123.702 78.188 120.194L135.799 81.786C138.368 80.208 139.929 77.4214 139.929 74.4166V53.3495L0.0968628 54.3567Z" fill="url(#paint0_linear)"/>
<path d="M0.0968628 55.0281V76.0785C0.0968628 79.1001 1.6748 81.8867 4.22636 83.4478L59.4877 120.194C65.2288 123.702 72.4302 123.702 78.188 120.194L135.799 81.786C138.368 80.208 139.929 77.4214 139.929 74.4166V53.3495L0.0968628 55.0281Z" fill="url(#paint1_linear)"/>
<path d="M29.5237 84.2684L29.4978 90.4153C29.4978 91.4225 28.3562 92.0424 27.5 91.5L7.46354 78.6933L6.58141 78.1251L5.82901 77.6344L4.19449 76.6013C3.44209 76.1106 2.97508 75.2841 3.00103 74.406L3.02697 68.3624C3.02697 67.2777 4.22043 66.632 5.1285 67.226L11.9261 71.5391L12.8341 72.1073L13.7422 72.6755L28.2783 81.9956C29.0567 82.5121 29.5237 83.3644 29.5237 84.2684Z" fill="url(#paint2_linear)"/>
<path d="M59.5237 103.268L59.4978 109.415C59.4978 110.423 58.3562 111.042 57.5 110.5L37.4635 97.6933L36.5814 97.1251L35.829 96.6344L34.1945 95.6013C33.4421 95.1106 32.9751 94.2841 33.001 93.406L33.027 87.3624C33.027 86.2777 34.2204 85.632 35.1285 86.226L41.9261 90.5391L42.8341 91.1073L43.7422 91.6755L58.2783 100.996C59.0567 101.512 59.5237 102.364 59.5237 103.268Z" fill="url(#paint3_linear)"/>
<path d="M91.3317 96.7766L92.7922 95.7862L92.7418 102.484L91.2814 103.474L91.3317 96.7766ZM94.6387 101.192L96.0991 100.218L96.1495 93.4865L94.689 94.4769L94.6387 101.192ZM98.0128 98.9253L99.4732 97.9517L99.5236 91.1867L98.0631 92.1771L98.0128 98.9253ZM101.37 96.6423L102.831 95.6687L102.881 88.8702L101.42 89.8606L101.37 96.6423ZM104.744 94.3762L106.205 93.4025L106.255 86.5704L104.795 87.5608L104.744 94.3762ZM108.102 92.0932L109.562 91.1196L109.612 84.2539L108.152 85.2443L108.102 92.0932ZM111.476 89.827L112.936 88.8534L112.986 81.9541L111.526 82.9445L111.476 89.827ZM114.833 87.5608L116.293 86.5872L116.344 79.6543L114.883 80.6447L114.833 87.5608ZM118.207 85.261L119.667 84.2874L119.718 77.321L118.257 78.3114L118.207 85.261ZM121.615 76.0116L121.564 82.9949L123.025 82.0212L123.075 75.0212L121.615 76.0116Z" fill="#2FAAAF"/>
<path opacity="0.35" d="M27.6267 86.2528C27.7442 87.0418 27.3245 87.9483 26.6866 88.0154C26.0487 88.0826 25.3605 87.4615 25.159 86.6557C24.9576 85.85 25.2933 85.061 25.9312 85.0106C26.5691 84.9603 27.5092 85.4303 27.6267 86.2528Z" fill="#06365E"/>
<path d="M27.5764 85.9333C27.7779 86.6887 27.4422 87.3601 26.8378 87.4105C26.2335 87.4609 25.5788 86.8901 25.3774 86.1179C25.176 85.3625 25.5117 84.6911 26.116 84.6407C26.7371 84.5903 27.3918 85.1779 27.5764 85.9333Z" fill="url(#paint4_linear)"/>
<path d="M26.6028 87.5782C25.9984 87.6286 25.3438 87.0578 25.1423 86.2857C25.0248 85.8324 25.092 85.4295 25.2934 85.161C25.327 85.1106 25.3605 85.077 25.3941 85.0435C25.4277 85.0099 25.4613 84.9931 25.4948 84.9595C25.5788 84.9092 25.6627 84.8588 25.7634 84.842C25.797 84.8252 25.8474 84.8252 25.8809 84.8252C26.4852 84.7749 27.1399 85.3456 27.3414 86.1178C27.5428 86.8564 27.2071 87.5279 26.6028 87.5782Z" fill="url(#paint5_linear)"/>
<path opacity="0.18" d="M6.64346 72.9727C6.76096 73.7616 6.3413 74.6681 5.70341 74.7353C5.06552 74.8024 4.37727 74.1813 4.17583 73.3756C3.97439 72.5698 4.31012 71.7808 4.94801 71.7305C5.5859 71.6801 6.50916 72.1501 6.64346 72.9727Z" fill="#06365E"/>
<path d="M6.59321 72.6376C6.79464 73.393 6.45891 74.0645 5.8546 74.1148C5.25028 74.1652 4.5956 73.5945 4.39416 72.8223C4.19273 72.0501 4.52846 71.3954 5.13277 71.3451C5.73709 71.2947 6.39177 71.8822 6.59321 72.6376Z" fill="url(#paint6_linear)"/>
<path d="M5.61954 74.2827C5.01522 74.3331 4.36055 73.7623 4.15911 72.9901C4.0416 72.5369 4.10875 72.134 4.31019 71.8654C4.34376 71.8151 4.37733 71.7815 4.41091 71.7479C4.44448 71.7144 4.47805 71.6976 4.51163 71.664C4.59556 71.6136 4.67949 71.5633 4.78021 71.5465C4.81378 71.5297 4.86414 71.5297 4.89772 71.5297C5.50203 71.4793 6.15671 72.0501 6.35815 72.8223C6.5428 73.5777 6.22386 74.2324 5.61954 74.2827Z" fill="url(#paint7_linear)"/>
<path opacity="0.35" d="M57.4136 105.623C57.5311 106.412 57.1114 107.319 56.4735 107.386C55.8356 107.453 55.1474 106.832 54.9459 106.026C54.7445 105.22 55.0802 104.431 55.7181 104.381C56.356 104.331 57.2793 104.801 57.4136 105.623Z" fill="#06365E"/>
<path d="M57.3631 105.288C57.5646 106.043 57.2288 106.715 56.6245 106.765C56.0202 106.816 55.3655 106.245 55.1641 105.473C54.9626 104.7 55.2984 104.046 55.9027 103.995C56.507 103.945 57.1617 104.533 57.3631 105.288Z" fill="url(#paint8_linear)"/>
<path d="M56.3727 106.933C55.7684 106.983 55.1137 106.413 54.9123 105.641C54.7948 105.187 54.8619 104.784 55.0634 104.516C55.0969 104.465 55.1305 104.432 55.1641 104.398C55.1977 104.365 55.2312 104.348 55.2648 104.314C55.3487 104.264 55.4327 104.214 55.5334 104.197C55.567 104.18 55.6173 104.18 55.6509 104.18C56.2552 104.13 56.9099 104.7 57.1113 105.473C57.3128 106.228 56.9938 106.883 56.3727 106.933Z" fill="url(#paint9_linear)"/>
<path opacity="0.18" d="M37.0007 92.3127C37.1182 93.1016 36.6985 94.0081 36.0606 94.0752C35.4227 94.1424 34.7345 93.5213 34.533 92.7155C34.3316 91.9098 34.6673 91.1208 35.3052 91.0704C35.9431 91.0201 36.8832 91.4901 37.0007 92.3127Z" fill="#06365E"/>
<path d="M36.9504 91.9931C37.1518 92.7485 36.8161 93.4199 36.2118 93.4703C35.6075 93.5206 34.9528 92.9499 34.7514 92.1777C34.5499 91.4223 34.8857 90.7509 35.49 90.7005C36.1111 90.6502 36.7658 91.2377 36.9504 91.9931Z" fill="url(#paint10_linear)"/>
<path d="M35.9767 93.6382C35.3724 93.6885 34.7177 93.1178 34.5163 92.3456C34.3988 91.8924 34.4659 91.4895 34.6674 91.2209C34.7009 91.1705 34.7345 91.137 34.7681 91.1034C34.8017 91.0698 34.8352 91.053 34.8688 91.0195C34.9527 90.9691 35.0367 90.9187 35.1374 90.902C35.171 90.8852 35.2213 90.8852 35.2549 90.8852C35.8592 90.8348 36.5139 91.4056 36.7153 92.1777C36.9168 92.9163 36.581 93.5878 35.9767 93.6382Z" fill="url(#paint11_linear)"/>
<path d="M15.1543 55.1634C15.4733 55.1634 15.4733 54.6598 15.1543 54.6598C14.8354 54.6598 14.8354 55.1634 15.1543 55.1634Z" fill="url(#paint12_linear)"/>
<path d="M137.176 59.1079L78.5404 93.8393C72.5812 97.482 65.0776 97.482 59.1016 93.8393L1.96009 58.9233C-0.876841 57.1942 -0.574683 52.9976 2.48047 51.6882L67.2263 24.259C71.1544 22.5803 75.5692 22.5803 79.4637 24.259L136.421 48.6331C140.852 50.53 141.289 56.6067 137.176 59.1079Z" fill="url(#paint13_linear)"/>
<path d="M137.176 57.1079L78.5404 91.8393C72.5812 95.482 65.0776 95.482 59.1016 91.8393L1.96009 56.9233C-0.876841 55.1942 -0.574683 50.9976 2.48047 49.6882L67.2263 22.259C71.1544 20.5803 75.5692 20.5803 79.4637 22.259L136.421 46.6331C140.852 48.53 141.289 54.6067 137.176 57.1079Z" fill="url(#paint14_linear)"/>
</g>
<defs>
<linearGradient id="paint0_linear" x1="8.21995" y1="88.0831" x2="131.906" y2="88.0831" gradientUnits="userSpaceOnUse">
<stop stop-color="#E7EFF5"/>
<stop offset="0.2574" stop-color="#C3C5D2"/>
<stop offset="0.3352" stop-color="#C6C8D5"/>
<stop offset="0.3997" stop-color="#CED3DD"/>
<stop offset="0.4592" stop-color="#DDE4EC"/>
<stop offset="0.4655" stop-color="#DFE6EE"/>
<stop offset="0.5693" stop-color="#98A5B5"/>
<stop offset="0.995" stop-color="#748496"/>
</linearGradient>
<linearGradient id="paint1_linear" x1="-0.0899214" y1="88.0831" x2="133.118" y2="88.0831" gradientUnits="userSpaceOnUse">
<stop stop-color="#455173"/>
<stop offset="0.395833" stop-color="#303953"/>
<stop offset="0.521061" stop-color="#38415C"/>
<stop offset="0.578125" stop-color="#2B2F43"/>
<stop offset="1" stop-color="#2B2F43"/>
</linearGradient>
<linearGradient id="paint2_linear" x1="3.96013" y1="77.169" x2="26.0344" y2="79.8911" gradientUnits="userSpaceOnUse">
<stop offset="1" stop-color="#2ED8CF"/>
</linearGradient>
<linearGradient id="paint3_linear" x1="33.9601" y1="96.169" x2="56.0344" y2="98.8911" gradientUnits="userSpaceOnUse">
<stop offset="1" stop-color="#2ED8CF"/>
</linearGradient>
<linearGradient id="paint4_linear" x1="26.0484" y1="84.9029" x2="26.5356" y2="87.1328" gradientUnits="userSpaceOnUse">
<stop stop-color="#A8B5C5"/>
<stop offset="0.0737964" stop-color="#C0CCD8"/>
<stop offset="0.1476" stop-color="#D0DBE5"/>
<stop offset="0.2037" stop-color="#D6E1EA"/>
<stop offset="0.2248" stop-color="#D0DBE5"/>
<stop offset="0.3033" stop-color="#BECAD7"/>
<stop offset="0.398" stop-color="#B1BECD"/>
<stop offset="0.5241" stop-color="#AAB7C7"/>
<stop offset="0.8097" stop-color="#A8B5C5"/>
</linearGradient>
<linearGradient id="paint5_linear" x1="24.7873" y1="87.3941" x2="29.1879" y2="83.3667" gradientUnits="userSpaceOnUse">
<stop offset="0.0403732" stop-color="#ABB6C3"/>
<stop offset="0.0956988" stop-color="#B3BDC8"/>
<stop offset="0.18" stop-color="#C8CFD8"/>
<stop offset="0.2822" stop-color="#EAEDF0"/>
<stop offset="0.3107" stop-color="#F5F7F8"/>
<stop offset="0.4209" stop-color="#E6ECF1"/>
<stop offset="0.5185" stop-color="#DFE6EE"/>
</linearGradient>
<linearGradient id="paint6_linear" x1="5.05956" y1="71.6148" x2="5.54676" y2="73.8447" gradientUnits="userSpaceOnUse">
<stop stop-color="#A8B5C5"/>
<stop offset="0.0737964" stop-color="#C0CCD8"/>
<stop offset="0.1476" stop-color="#D0DBE5"/>
<stop offset="0.2037" stop-color="#D6E1EA"/>
<stop offset="0.2248" stop-color="#D0DBE5"/>
<stop offset="0.3033" stop-color="#BECAD7"/>
<stop offset="0.398" stop-color="#B1BECD"/>
<stop offset="0.5241" stop-color="#AAB7C7"/>
<stop offset="0.8097" stop-color="#A8B5C5"/>
</linearGradient>
<linearGradient id="paint7_linear" x1="3.79835" y1="74.1057" x2="8.19892" y2="70.0783" gradientUnits="userSpaceOnUse">
<stop offset="0.0403732" stop-color="#ABB6C3"/>
<stop offset="0.0956988" stop-color="#B3BDC8"/>
<stop offset="0.18" stop-color="#C8CFD8"/>
<stop offset="0.2822" stop-color="#EAEDF0"/>
<stop offset="0.3107" stop-color="#F5F7F8"/>
<stop offset="0.4209" stop-color="#E6ECF1"/>
<stop offset="0.5185" stop-color="#DFE6EE"/>
</linearGradient>
<linearGradient id="paint8_linear" x1="55.8277" y1="104.264" x2="56.3148" y2="106.494" gradientUnits="userSpaceOnUse">
<stop stop-color="#A8B5C5"/>
<stop offset="0.0737964" stop-color="#C0CCD8"/>
<stop offset="0.1476" stop-color="#D0DBE5"/>
<stop offset="0.2037" stop-color="#D6E1EA"/>
<stop offset="0.2248" stop-color="#D0DBE5"/>
<stop offset="0.3033" stop-color="#BECAD7"/>
<stop offset="0.398" stop-color="#B1BECD"/>
<stop offset="0.5241" stop-color="#AAB7C7"/>
<stop offset="0.8097" stop-color="#A8B5C5"/>
</linearGradient>
<linearGradient id="paint9_linear" x1="54.567" y1="106.756" x2="58.9675" y2="102.729" gradientUnits="userSpaceOnUse">
<stop offset="0.0403732" stop-color="#ABB6C3"/>
<stop offset="0.0956988" stop-color="#B3BDC8"/>
<stop offset="0.18" stop-color="#C8CFD8"/>
<stop offset="0.2822" stop-color="#EAEDF0"/>
<stop offset="0.3107" stop-color="#F5F7F8"/>
<stop offset="0.4209" stop-color="#E6ECF1"/>
<stop offset="0.5185" stop-color="#DFE6EE"/>
</linearGradient>
<linearGradient id="paint10_linear" x1="35.4255" y1="90.9623" x2="35.9127" y2="93.1922" gradientUnits="userSpaceOnUse">
<stop stop-color="#A8B5C5"/>
<stop offset="0.0737964" stop-color="#C0CCD8"/>
<stop offset="0.1476" stop-color="#D0DBE5"/>
<stop offset="0.2037" stop-color="#D6E1EA"/>
<stop offset="0.2248" stop-color="#D0DBE5"/>
<stop offset="0.3033" stop-color="#BECAD7"/>
<stop offset="0.398" stop-color="#B1BECD"/>
<stop offset="0.5241" stop-color="#AAB7C7"/>
<stop offset="0.8097" stop-color="#A8B5C5"/>
</linearGradient>
<linearGradient id="paint11_linear" x1="34.1646" y1="93.4539" x2="38.5651" y2="89.4264" gradientUnits="userSpaceOnUse">
<stop offset="0.0403732" stop-color="#ABB6C3"/>
<stop offset="0.0956988" stop-color="#B3BDC8"/>
<stop offset="0.18" stop-color="#C8CFD8"/>
<stop offset="0.2822" stop-color="#EAEDF0"/>
<stop offset="0.3107" stop-color="#F5F7F8"/>
<stop offset="0.4209" stop-color="#E6ECF1"/>
<stop offset="0.5185" stop-color="#DFE6EE"/>
</linearGradient>
<linearGradient id="paint12_linear" x1="14.9155" y1="54.9166" x2="15.4019" y2="54.9051" gradientUnits="userSpaceOnUse">
<stop stop-color="#DFE6EE"/>
<stop offset="0.5" stop-color="#F5F7F8"/>
<stop offset="0.995" stop-color="#ABB6C3"/>
</linearGradient>
<linearGradient id="paint13_linear" x1="0.0129387" y1="55" x2="137.513" y2="51.5" gradientUnits="userSpaceOnUse">
<stop offset="0.0001" stop-color="#586382"/>
<stop offset="0.0002" stop-color="#5F6C91"/>
<stop offset="1" stop-color="#2A3C6B"/>
</linearGradient>
<linearGradient id="paint14_linear" x1="27.654" y1="78.0387" x2="101.891" y2="36.036" gradientUnits="userSpaceOnUse">
<stop stop-color="#5F6C91"/>
<stop offset="1" stop-color="#49577E"/>
</linearGradient>
<clipPath id="clip0">
<rect y="17" width="140" height="106" fill="white"/>
</clipPath>
</defs>
</svg>
