<svg width="140" height="140" viewBox="0 0 140 140" fill="none" xmlns="http://www.w3.org/2000/svg">
<g clip-path="url(#clip0)">
<path d="M140 68.3699C140 70.822 138.918 72.0959 136.548 74.3973L80.3286 121.26C76.6711 124.123 70.8766 124.479 64.7122 121.26L64.2053 121L3.46564 89.7261C-0.178189 87.6987 -0.041203 86.5069 0.0135915 83.6987V79.2877C0.0409887 78.2877 0.602632 77.5891 1.10948 77.0959L73.8766 112.699L110.233 79.0959L139.781 51.7946L139.945 52.2466V52.5617L140 68.3699Z" fill="url(#paint0_linear)"/>
<path d="M139.959 52.5617C139.945 52.726 139.918 52.8904 139.89 53.0548C139.699 53.9863 139.164 54.7534 138.438 55.6164L81.3698 112.014C75.7945 118.055 71.726 117.616 65.8219 115.219L2.21914 82.6712C0.87667 81.9726 0.0958484 80.9863 0.0136566 79.7397C0.0136566 79.726 0.0136566 79.726 0.0136566 79.726C-4.19905e-05 79.5891 0.0136566 79.4521 0.0136566 79.3151C0.0136566 79.3014 0.0136566 79.3014 0.0136566 79.2877C0.0410539 78.2877 0.602698 77.5891 1.10955 77.0959C1.21914 76.9863 1.32873 76.8904 1.43831 76.7945L59.4383 22.274C62.3013 20.2877 65.8356 19.5616 69.2328 20.2603L136.11 47.3699C138.616 48.274 140.164 50.3014 139.959 52.5617Z" fill="url(#paint1_linear)"/>
<path d="M139.951 50.5617C139.937 50.726 139.91 50.8904 139.883 51.0548C139.691 51.9863 139.157 52.7534 138.43 53.6164L81.362 110.014C75.7867 116.055 71.7182 115.616 65.8141 113.219L2.21132 80.6712C0.868858 79.9726 0.0880359 78.9863 0.00584414 77.7397C0.00584414 77.726 0.00584414 77.726 0.00584414 77.726C-0.00785449 77.5891 0.00584414 77.4521 0.00584414 77.3151C0.00584414 77.3014 0.00584414 77.3014 0.00584414 77.2877C0.0332414 76.2877 0.594885 75.5891 1.10173 75.0959C1.21132 74.9863 1.32091 74.8904 1.4305 74.7945L59.4305 20.274C62.2935 18.2877 65.8278 17.5616 69.225 18.2603L136.102 45.3699C138.609 46.274 140.157 48.3014 139.951 50.5617Z" fill="url(#paint2_linear)"/>
<path d="M28.3012 85.6027L6.97241 76.315L66.8765 19.3972L80.5888 33.9726L28.3012 85.6027Z" fill="url(#paint3_linear)"/>
<path d="M39.493 62.0822C36.5204 66.1918 38.4108 70.5616 38.4519 71.6575C38.493 72.7534 38.8628 74.3425 37.4793 76.0137L29.671 84.274C27.7395 86.3288 23.4656 88.9726 18.6847 86.4657C13.3834 83.6849 6.53406 79.6575 5.41077 78.8356C4.60255 78.2329 4.32858 76.4657 4.97242 75.6438C5.42447 75.0548 5.67105 75.2466 6.38338 74.2877L5.1505 70.7534C5.23269 70.3151 5.35598 69.8356 5.50666 69.3562C5.84913 68.3288 7.28749 67.2055 8.02721 66.1918C13.7121 64.5205 29.082 61.2192 38.9039 59.0685C38.9587 59.0548 39.0135 59.0411 39.0683 59.0274C43.2327 58.1233 39.8628 61.589 39.493 62.0822Z" fill="#2D3045"/>
<path d="M85.1782 33.2465C85.1782 33.9451 85.0549 34.5479 84.3973 35.2191C83.5891 36.041 77.1508 41.2328 77.1508 41.2328C75.6987 42.3835 73.7124 43.7533 71.1508 42.3287L63.4384 37.9451C63.0412 37.7533 62.8083 37.3424 62.8357 36.904L62.9453 35.315L63.0548 33.6574C63.0959 33.4109 63.1644 33.1369 63.2603 32.8629C63.4521 32.2876 63.7535 31.6711 64.1781 31.0958C67.411 30.1506 77.8631 27.1232 83.4384 25.8903C83.4658 25.8766 82.0001 25.4109 82.0275 25.3972C83.4658 25.1232 85.1782 32.5479 85.1782 33.2465Z" fill="#2D3045"/>
<path d="M41.041 61.164C38.0684 65.2736 38.3971 70.2736 38.4382 71.3558C38.4793 72.4517 38.4519 73.0407 37.0684 74.712L29.2602 82.9722C27.3286 85.027 23.2328 87.5065 18.4519 84.9996C13.1506 82.2188 6.7944 78.4654 5.68481 77.6298C4.87659 77.027 4.57522 76.5613 4.63002 75.7942L4.56152 72.3695L4.7533 69.438C4.8355 68.9997 4.95878 68.5202 5.10947 68.0407C5.45193 67.0134 6.89029 65.8901 7.63002 64.8764C13.3149 63.2051 28.6848 59.9038 38.5067 57.7531C38.5615 57.7394 38.6163 57.7257 38.6711 57.712C42.8218 56.8216 41.3971 60.6709 41.041 61.164Z" fill="url(#paint4_linear)"/>
<path d="M84.9999 32.246C84.9999 32.9446 84.8766 33.5474 84.2191 34.2186C83.4108 35.0405 76.9725 40.2323 76.9725 40.2323C75.5204 41.383 73.5341 42.7529 70.9725 41.3282L63.2602 36.9446C62.8629 36.7529 62.6301 36.3419 62.6575 35.9035L62.767 34.3145L62.8766 32.657C62.9177 32.4104 62.9862 32.1364 63.0821 31.8624C63.2739 31.2871 63.5753 30.6707 63.9999 30.0953C67.2328 29.1501 77.6848 26.1227 83.2602 24.8898C83.2875 24.8761 83.8218 24.1227 83.8629 24.1227C85.2875 23.835 84.9999 31.5474 84.9999 32.246Z" fill="url(#paint5_linear)"/>
<path d="M83.5342 27.7672C80.4109 29.7809 70.9725 33.4932 61.4383 41.0685C57.7945 43.9726 52.2876 49.5343 46.8629 55.3151C46.8355 55.3562 46.7945 55.3836 46.7671 55.4247C46.315 55.9178 45.8492 56.3973 45.3972 56.8905C36.9999 65.9179 36.9999 65.9452 29.6027 74.5069C25.7671 78.9452 22.1232 81.137 17.0958 78.685L4.53418 72.3973C4.53418 72.3973 4.60267 69.0685 5.08212 68.0685L16.3972 71.7535C19.3424 73.7809 23.3835 74.6439 26.589 71.5343C26.589 71.5343 33.0547 64.0685 40.6301 55.7946C47.0547 48.7672 54.2739 41.1644 59.0136 37.0685C59.5205 36.6302 59.9999 36.2329 60.4383 35.8768C69.9725 28.3014 79.4109 24.5891 82.5342 22.5754C82.589 22.548 82.6301 22.5069 82.6849 22.4795C84.8082 24.0137 85.5342 26.4795 83.5342 27.7672Z" fill="url(#paint6_linear)"/>
<path d="M82.6984 22.4523C82.6573 22.4797 82.6025 22.5208 82.5478 22.5482C79.4245 24.5619 69.9861 28.2742 60.4519 35.8495C59.9998 36.2057 59.5341 36.603 59.0272 37.0413C54.2738 41.1646 47.1231 48.7673 40.808 55.7399C33.493 63.8221 27.3149 71.0413 27.3149 71.0413C24.1094 74.1372 20.356 75.329 16.1231 73.4386L5.0957 68.0413C5.20529 67.3975 6.43817 65.192 7.56146 63.8769C8.87653 62.3427 33.4382 35.781 46.7943 26.4797C59.2738 17.7947 68.7806 15.7947 73.0957 17.6441C77.4108 19.4934 80.9861 21.4249 82.6984 22.4523Z" fill="url(#paint7_linear)"/>
<path d="M126.055 54.2063L118.698 63.8912C117.918 64.9186 116.603 65.1789 115.383 64.631L84.7259 49.8365C83.8492 49.3707 83.6163 48.2337 84.2465 47.4666L91.4656 39.2611C92.2738 38.2748 93.63 37.9324 94.8081 38.4255L125.288 51.2748C126.438 51.7543 126.822 53.2063 126.055 54.2063Z" fill="#2CD8CF"/>
<path d="M116.63 71L112.027 75.8767C111.562 76.3699 110.808 76.4931 110.205 76.1644L71 55.501C70.4247 55.1859 70.3288 54.4051 70.8082 53.9667L74.9725 49.7261C75.4519 49.2877 76.1369 49.1918 76.7122 49.4795L116.37 69.6027C116.918 69.8767 117.041 70.5753 116.63 71Z" fill="#4F5776"/>
<path d="M87.0274 59.2874L86.9315 59.397C86.6576 59.7121 86.1918 59.808 85.8219 59.6162L79.2466 56.1916C78.6986 55.9039 78.589 55.1779 79.0137 54.7395C79.2877 54.4518 79.7123 54.3833 80.0685 54.5614L86.7398 57.8628C87.274 58.1368 87.411 58.8354 87.0274 59.2874Z" fill="#2CD8CF"/>
<path d="M96.7945 64.3155L96.6986 64.4251C96.4247 64.7402 95.9589 64.8361 95.589 64.6443L89.0136 61.2196C88.4657 60.932 88.3561 60.2059 88.7808 59.7676C89.0547 59.4799 89.4794 59.4114 89.8356 59.5895L96.5068 62.8909C97.0411 63.1648 97.1781 63.8635 96.7945 64.3155Z" fill="#2CD8CF"/>
<path d="M106.972 69.6299L106.877 69.7394C106.603 70.0545 106.137 70.1504 105.767 69.9586L99.1916 66.534C98.6437 66.2463 98.5341 65.5203 98.9587 65.0819C99.2327 64.7942 99.6574 64.7257 100.014 64.9038L106.685 68.2052C107.219 68.4792 107.356 69.1778 106.972 69.6299Z" fill="#2CD8CF"/>
<path d="M73.6719 65.7829C73.713 67.3582 72.0555 68.6869 69.9459 68.7417C67.8363 68.7965 66.1103 67.5774 66.0555 66.002C66.0007 64.4267 67.6719 63.098 69.7815 63.0432C71.8911 62.9884 73.6308 64.2075 73.6719 65.7829Z" fill="#2CD8CF" stroke="url(#paint8_linear)" stroke-width="3" stroke-miterlimit="10"/>
<path d="M97.6719 77.7829C97.713 79.3582 96.0555 80.6869 93.9459 80.7417C91.8363 80.7965 90.1103 79.5774 90.0555 78.002C90.0007 76.4267 91.6719 75.098 93.7815 75.0432C95.8911 74.9884 97.6308 76.2075 97.6719 77.7829Z" fill="#2CD8CF" stroke="url(#paint9_linear)" stroke-width="3" stroke-miterlimit="10"/>
<path d="M85.6719 71.7829C85.713 73.3582 84.0555 74.6869 81.9459 74.7417C79.8363 74.7965 78.1103 73.5774 78.0555 72.002C78.0007 70.4267 79.6719 69.098 81.7815 69.0432C83.8911 68.9884 85.6308 70.2075 85.6719 71.7829Z" fill="#2CD8CF" stroke="url(#paint10_linear)" stroke-width="3" stroke-miterlimit="10"/>
<path d="M62.6175 76.7423C62.6586 78.3177 61.001 79.6464 58.8915 79.7012C56.7819 79.756 55.0559 78.5368 55.0011 76.9615C54.9463 75.3862 56.6175 74.0574 58.7271 74.0026C60.8367 73.9478 62.5764 75.167 62.6175 76.7423Z" fill="#2CD8CF" stroke="url(#paint11_linear)" stroke-width="3" stroke-miterlimit="10"/>
<path d="M86.6175 88.7423C86.6586 90.3177 85.001 91.6464 82.8915 91.7012C80.7819 91.756 79.0559 90.5368 79.0011 88.9615C78.9463 87.3862 80.6175 86.0574 82.7271 86.0026C84.8367 85.9478 86.5764 87.167 86.6175 88.7423Z" fill="#2CD8CF" stroke="url(#paint12_linear)" stroke-width="3" stroke-miterlimit="10"/>
<path d="M74.6175 82.7423C74.6586 84.3177 73.001 85.6464 70.8915 85.7012C68.7819 85.756 67.0559 84.5368 67.0011 82.9615C66.9463 81.3862 68.6175 80.0574 70.7271 80.0026C72.8367 79.9478 74.5764 81.167 74.6175 82.7423Z" fill="#2CD8CF" stroke="url(#paint13_linear)" stroke-width="3" stroke-miterlimit="10"/>
<path d="M51.6175 88.7423C51.6586 90.3177 50.001 91.6464 47.8915 91.7012C45.7819 91.756 44.0559 90.5368 44.0011 88.9615C43.9463 87.3862 45.6175 86.0574 47.7271 86.0026C49.8367 85.9478 51.5764 87.167 51.6175 88.7423Z" fill="#2CD8CF" stroke="url(#paint14_linear)" stroke-width="3" stroke-miterlimit="10"/>
<path d="M75.6175 100.742C75.6586 102.318 74.001 103.646 71.8915 103.701C69.7819 103.756 68.0559 102.537 68.0011 100.962C67.9463 99.3862 69.6175 98.0574 71.7271 98.0026C73.8367 97.9478 75.5764 99.167 75.6175 100.742Z" fill="#2CD8CF" stroke="url(#paint15_linear)" stroke-width="3" stroke-miterlimit="10"/>
<path d="M63.6175 94.7423C63.6586 96.3177 62.001 97.6464 59.8915 97.7012C57.7819 97.756 56.0559 96.5368 56.0011 94.9615C55.9463 93.3862 57.6175 92.0574 59.7271 92.0026C61.8367 91.9478 63.5764 93.167 63.6175 94.7423Z" fill="#2CD8CF" stroke="url(#paint16_linear)" stroke-width="3" stroke-miterlimit="10"/>
</g>
<defs>
<linearGradient id="paint0_linear" x1="-1.5" y1="87.6712" x2="131.958" y2="87.6712" gradientUnits="userSpaceOnUse">
<stop stop-color="#4A5668"/>
<stop offset="0.487888" stop-color="#404561"/>
<stop offset="0.560554" stop-color="#4C5171"/>
<stop offset="0.625649" stop-color="#353B5A"/>
<stop offset="0.995" stop-color="#2D3146"/>
</linearGradient>
<linearGradient id="paint1_linear" x1="37.9976" y1="48.8189" x2="100.49" y2="81.238" gradientUnits="userSpaceOnUse">
<stop stop-color="#505D82"/>
<stop offset="0.995" stop-color="#4D5B83"/>
</linearGradient>
<linearGradient id="paint2_linear" x1="37.9898" y1="46.8189" x2="100.482" y2="79.238" gradientUnits="userSpaceOnUse">
<stop stop-color="#49577E"/>
<stop offset="0.995" stop-color="#5C6A8F"/>
</linearGradient>
<linearGradient id="paint3_linear" x1="43.3554" y1="26.3541" x2="44.0178" y2="71.5526" gradientUnits="userSpaceOnUse">
<stop offset="0.995" stop-color="#44527A"/>
</linearGradient>
<linearGradient id="paint4_linear" x1="4.55715" y1="71.827" x2="41.5647" y2="71.827" gradientUnits="userSpaceOnUse">
<stop stop-color="#464D71"/>
<stop offset="0.3042" stop-color="#565D82"/>
<stop offset="0.431101" stop-color="#60688E"/>
<stop offset="0.4978" stop-color="#515981"/>
<stop offset="1" stop-color="#3B4364"/>
</linearGradient>
<linearGradient id="paint5_linear" x1="62.6529" y1="33.0111" x2="85.0222" y2="33.0111" gradientUnits="userSpaceOnUse">
<stop stop-color="#3A405B"/>
<stop offset="0.348958" stop-color="#42496A"/>
<stop offset="0.473958" stop-color="#5B6288"/>
<stop offset="0.5625" stop-color="#545C85"/>
<stop offset="0.995" stop-color="#454C70"/>
</linearGradient>
<linearGradient id="paint6_linear" x1="4.55721" y1="51.0736" x2="84.7141" y2="51.0736" gradientUnits="userSpaceOnUse">
<stop stop-color="#5C6A8F"/>
<stop offset="0.1685" stop-color="#5E668C"/>
<stop offset="0.198571" stop-color="#727BA5"/>
<stop offset="0.24842" stop-color="#5B698F"/>
<stop offset="0.6327" stop-color="#6E7DA4"/>
<stop offset="0.6881" stop-color="#6475A2"/>
<stop offset="1" stop-color="#5C6A8F"/>
</linearGradient>
<linearGradient id="paint7_linear" x1="15.228" y1="66.8266" x2="74.8154" y2="17.1277" gradientUnits="userSpaceOnUse">
<stop stop-color="#6E7894"/>
<stop offset="0.307292" stop-color="#737F9B"/>
<stop offset="0.714" stop-color="#576383"/>
<stop offset="0.8748" stop-color="#5F6C8D"/>
<stop offset="0.995" stop-color="#65739A"/>
</linearGradient>
<linearGradient id="paint8_linear" x1="69.8634" y1="63.0414" x2="69.8634" y2="68.7435" gradientUnits="userSpaceOnUse">
<stop stop-color="#424965"/>
<stop offset="0.411458" stop-color="#4C5371"/>
<stop offset="1" stop-color="#313751"/>
</linearGradient>
<linearGradient id="paint9_linear" x1="93.8634" y1="75.0414" x2="93.8634" y2="80.7435" gradientUnits="userSpaceOnUse">
<stop offset="0.46875" stop-color="#4C5371"/>
<stop offset="1" stop-color="#313751"/>
</linearGradient>
<linearGradient id="paint10_linear" x1="81.8634" y1="69.0414" x2="81.8634" y2="74.7435" gradientUnits="userSpaceOnUse">
<stop stop-color="#3F4766"/>
<stop offset="0.421875" stop-color="#4C5371"/>
<stop offset="1" stop-color="#313751"/>
</linearGradient>
<linearGradient id="paint11_linear" x1="58.809" y1="74.0009" x2="58.809" y2="79.703" gradientUnits="userSpaceOnUse">
<stop stop-color="#424965"/>
<stop offset="0.411458" stop-color="#4C5371"/>
<stop offset="1" stop-color="#313751"/>
</linearGradient>
<linearGradient id="paint12_linear" x1="82.809" y1="86.0009" x2="82.809" y2="91.703" gradientUnits="userSpaceOnUse">
<stop stop-color="#414A6C"/>
<stop offset="0.46875" stop-color="#4C5371"/>
<stop offset="1" stop-color="#313751"/>
</linearGradient>
<linearGradient id="paint13_linear" x1="70.809" y1="80.0009" x2="70.809" y2="85.703" gradientUnits="userSpaceOnUse">
<stop stop-color="#3F4766"/>
<stop offset="0.421875" stop-color="#4C5371"/>
<stop offset="1" stop-color="#313751"/>
</linearGradient>
<linearGradient id="paint14_linear" x1="47.809" y1="86.0009" x2="47.809" y2="91.703" gradientUnits="userSpaceOnUse">
<stop stop-color="#424965"/>
<stop offset="0.411458" stop-color="#4C5371"/>
<stop offset="1" stop-color="#313751"/>
</linearGradient>
<linearGradient id="paint15_linear" x1="71.809" y1="98.0009" x2="71.809" y2="103.703" gradientUnits="userSpaceOnUse">
<stop stop-color="#414A6C"/>
<stop offset="0.46875" stop-color="#4C5371"/>
<stop offset="1" stop-color="#313751"/>
</linearGradient>
<linearGradient id="paint16_linear" x1="59.809" y1="92.0009" x2="59.809" y2="97.703" gradientUnits="userSpaceOnUse">
<stop stop-color="#3F4766"/>
<stop offset="0.421875" stop-color="#4C5371"/>
<stop offset="1" stop-color="#313751"/>
</linearGradient>
<clipPath id="clip0">
<rect y="17" width="140" height="106.548" fill="white"/>
</clipPath>
</defs>
</svg>
