<svg width="140" height="140" viewBox="0 0 140 140" fill="none" xmlns="http://www.w3.org/2000/svg">
<g clip-path="url(#clip0)">
<path opacity="0.9" d="M130.182 70.7213C130.182 103.064 103.253 129.474 70.068 129.474C54.9949 129.474 41.173 124.006 30.5682 114.989C17.9377 104.169 9.95435 88.347 9.95435 70.7213C9.95435 69.7324 9.95435 68.8017 10.0139 67.8709C10.0139 67.6383 10.0139 67.3474 10.0735 67.1147C10.1331 66.1258 10.1927 65.0787 10.3714 64.0898C10.6097 62.2284 10.9076 60.4251 11.2651 58.5636C11.3842 57.9819 11.5629 57.342 11.6821 56.7603C11.8608 56.0041 12.0991 55.2479 12.2779 54.5499C13.112 51.6995 14.1843 48.9655 15.3759 46.3478C15.8525 45.3589 16.3887 44.37 16.8653 43.3811C16.8653 43.3229 16.9249 43.2647 16.9845 43.2066C17.0441 43.0902 17.1036 42.9157 17.2228 42.7994C17.2228 42.7412 17.2824 42.7412 17.2824 42.683C18.2356 40.9961 19.1889 39.4255 20.3208 37.8549C21.8103 35.7026 23.4189 33.6666 25.2062 31.747C25.6828 31.2234 26.1594 30.6999 26.636 30.1763C27.351 29.4201 28.1255 28.6639 28.9 27.9659C29.7341 27.2096 30.6277 26.4534 31.5214 25.6972C33.4279 24.1266 35.4535 22.6723 37.5983 21.3344C37.7175 21.2762 37.8366 21.2181 37.9558 21.1017C40.6368 19.4148 43.4965 17.9605 46.4158 16.7389C46.7137 16.6226 47.0115 16.5062 47.2499 16.3899C47.3094 16.3899 47.369 16.3317 47.4286 16.3317C49.2755 15.6337 51.182 14.9356 53.0885 14.4121C53.9821 14.1212 54.8758 13.8886 55.829 13.714C56.1865 13.5977 56.5439 13.5395 56.961 13.4232C60.5952 12.6088 64.3486 12.1434 68.2807 12.0271C68.5786 12.0271 68.8765 12.0271 69.234 12.0271C69.5318 12.0271 69.8297 12.0271 70.1276 12.0271C86.2731 12.0271 100.929 18.2514 111.713 28.3731C123.092 39.0183 130.182 54.0845 130.182 70.7213Z" fill="url(#paint0_radial)"/>
<path d="M70 135.977C107.071 135.977 137.123 106.62 137.123 70.4065C137.123 34.1927 107.071 4.83569 70 4.83569C32.9288 4.83569 2.87671 34.1927 2.87671 70.4065C2.87671 106.62 32.9288 135.977 70 135.977Z" stroke="#292C3E" stroke-width="6.8217" stroke-miterlimit="10"/>
<path d="M70 135.977C107.071 135.977 137.123 106.62 137.123 70.4065C137.123 34.1927 107.071 4.83569 70 4.83569C32.9288 4.83569 2.87671 34.1927 2.87671 70.4065C2.87671 106.62 32.9288 135.977 70 135.977Z" stroke="url(#paint1_linear)" stroke-width="6.8217" stroke-miterlimit="10"/>
<path d="M34.1499 89H27.8657V63.7974H18.3955V57.4912H43.5981V63.7974H34.1499V89ZM69.8871 89H48.288V57.4912H69.8871V63.7974H54.5941V70.1035H64.9433V76.4097H54.5941V82.6938H69.8871V89ZM100.131 89H92.4847L86.4202 78.8267L80.3338 89H72.7313L82.3992 73.2456L72.7313 57.4912H80.3338L86.4202 67.6646L92.4847 57.4912H100.131L90.4632 73.2456L100.131 89ZM117.653 89H111.369V63.7974H101.899V57.4912H127.101V63.7974H117.653V89Z" fill="white"/>
</g>
<defs>
<radialGradient id="paint0_radial" cx="0" cy="0" r="1" gradientUnits="userSpaceOnUse" gradientTransform="translate(56.2888 53.0331) scale(68.9541 67.3259)">
<stop offset="0.1458" stop-color="#96A1BB"/>
<stop offset="0.8886" stop-color="#5F6A8D"/>
<stop offset="1" stop-color="#4E5E83"/>
</radialGradient>
<linearGradient id="paint1_linear" x1="-5.3881" y1="86.2284" x2="141.324" y2="90.064" gradientUnits="userSpaceOnUse">
<stop stop-color="#697698"/>
<stop offset="0.494792" stop-color="#4C5979"/>
<stop offset="1" stop-color="#384464"/>
</linearGradient>
<clipPath id="clip0">
<rect y="1" width="140" height="138.082" fill="white"/>
</clipPath>
</defs>
</svg>
