<svg width="140" height="140" viewBox="0 0 140 140" fill="none" xmlns="http://www.w3.org/2000/svg">
<g clip-path="url(#clip0)">
<path d="M6.08447 28.267V95.5298C6.08447 98.4021 7.58821 101.055 10.0212 102.542L62.6184 137.516C68.0927 140.845 74.9355 140.845 80.4098 137.516L130.946 102.542C133.379 101.038 134.882 98.3852 134.882 95.5298V28.8921L6.08447 28.267Z" fill="url(#paint0_linear)"/>
<path d="M6.08447 28.8921V95.5298C6.08447 98.4021 7.58821 101.055 10.0212 102.542L62.6184 137.516C68.0927 140.845 74.9355 140.845 80.4098 137.516L130.946 102.542C133.379 101.038 134.882 98.3852 134.882 95.5298V28.8921H6.08447Z" fill="url(#paint1_linear)"/>
<path d="M132.267 36.358L80.7509 67.852C75.0739 71.3157 67.9269 71.3157 62.2498 67.852L7.86169 34.6177C5.17523 32.9788 5.44556 28.9744 8.35167 27.7241L65.6628 3.19117C69.3968 1.60294 73.6039 1.60294 77.321 3.19117L131.54 26.3893C135.747 28.1972 136.17 33.9925 132.267 36.358Z" fill="url(#paint2_linear)"/>
<path d="M132.264 34.3495L80.748 65.8436C75.0709 69.3073 67.9239 69.3073 62.2469 65.8436L7.85876 32.6092C5.1723 30.9703 5.44263 26.966 8.34874 25.7157L65.6599 1.18274C69.3939 -0.405478 73.601 -0.405478 77.3181 1.18274L131.537 24.3809C135.744 26.1888 136.167 31.9841 132.264 34.3495Z" fill="url(#paint3_linear)"/>
<path d="M93.7578 114.394C93.7578 114.23 93.8379 114.077 93.9724 113.983L94.3578 113.715C94.6894 113.485 95.1432 113.722 95.1432 114.126V119.278C95.1432 119.441 95.0631 119.595 94.9286 119.688L94.5432 119.956C94.2116 120.187 93.7578 119.949 93.7578 119.546V114.394ZM96.9511 117.376C96.9511 117.777 97.4012 118.015 97.7331 117.788L98.1186 117.525C98.255 117.432 98.3366 117.278 98.3366 117.112V111.929C98.3366 111.525 97.8827 111.288 97.5512 111.519L97.1657 111.787C97.0313 111.88 96.9511 112.033 96.9511 112.197V117.376ZM100.144 115.179C100.144 115.581 100.595 115.819 100.926 115.592L101.312 115.329C101.448 115.236 101.53 115.081 101.53 114.916V109.699C101.53 109.295 101.076 109.058 100.745 109.288L100.359 109.556C100.225 109.65 100.144 109.803 100.144 109.967V115.179ZM103.338 113.016C103.338 113.418 103.788 113.656 104.12 113.429L104.505 113.166C104.642 113.073 104.723 112.918 104.723 112.753V107.503C104.723 107.099 104.269 106.862 103.938 107.092L103.552 107.36C103.418 107.453 103.338 107.607 103.338 107.77V113.016ZM106.514 110.82C106.514 111.222 106.964 111.459 107.296 111.233L107.682 110.97C107.818 110.876 107.9 110.722 107.9 110.557V105.272C107.9 104.868 107.446 104.631 107.114 104.862L106.729 105.13C106.594 105.223 106.514 105.376 106.514 105.54V110.82ZM109.708 108.623C109.708 109.025 110.158 109.263 110.49 109.036L110.875 108.773C111.011 108.68 111.093 108.525 111.093 108.36V103.042C111.093 102.638 110.639 102.401 110.308 102.631L109.922 102.899C109.788 102.993 109.708 103.146 109.708 103.31V108.623ZM112.901 106.461C112.901 106.863 113.351 107.1 113.683 106.874L114.068 106.61C114.205 106.517 114.286 106.363 114.286 106.198V100.846C114.286 100.442 113.833 100.204 113.501 100.435L113.116 100.703C112.981 100.796 112.901 100.95 112.901 101.113V106.461ZM116.094 104.281C116.094 104.683 116.544 104.921 116.876 104.694L117.262 104.431C117.398 104.338 117.48 104.183 117.48 104.018V98.6152C117.48 98.2115 117.026 97.9742 116.694 98.2047L116.309 98.4726C116.174 98.5661 116.094 98.7195 116.094 98.8832V104.281ZM119.271 102.085C119.271 102.487 119.721 102.724 120.053 102.498L120.438 102.234C120.575 102.141 120.656 101.987 120.656 101.821V96.4019C120.656 95.9981 120.202 95.7609 119.871 95.9913L119.485 96.2593C119.351 96.3527 119.271 96.5061 119.271 96.6698V102.085ZM122.682 94.0462C122.546 94.1393 122.464 94.2939 122.464 94.4591V99.9051C122.464 100.307 122.914 100.545 123.246 100.318L123.631 100.055C123.768 99.9616 123.849 99.8071 123.849 99.6419V94.1958C123.849 93.794 123.399 93.5563 123.068 93.7829L122.682 94.0462Z" fill="#2FAAAF"/>
<path d="M59.4085 130.471C58.5637 130.471 57.7358 130.2 57.0092 129.71L14.8031 101.629C11.576 99.3821 9.64984 95.6481 9.64984 91.6269V46.785C9.64984 44.4195 11.5084 42.4934 13.7894 42.4934C14.5328 42.4934 15.2762 42.7131 15.9182 43.1186L58.9692 69.2735C61.8922 71.1152 63.7 74.4437 63.7 77.9749V125.976C63.7338 128.764 61.4867 130.471 59.4085 130.471Z" fill="#2CD8CF"/>
<g clip-path="url(#clip1)">
<path d="M34.8266 97.4057C32.7608 96.1504 31.087 97.0955 31.087 99.5026C31.087 101.91 32.7608 104.893 34.8266 106.148C36.8924 107.403 38.5661 106.458 38.5661 104.051C38.5661 101.644 36.8773 98.6609 34.8266 97.4057ZM42.9691 74.6935C40.9787 71.3856 38.3098 68.7127 34.9321 66.66C31.7354 64.7108 29.1569 64.1791 27.1816 65.0504C25.2214 65.9217 24.0603 68.0629 24 70.662C23.9397 73.2463 29.1871 75.9044 29.3831 74.723C29.5791 73.4678 30.4537 71.7695 31.4489 71.3708C32.4441 70.9721 33.6957 71.2232 35.1885 72.1387C36.7416 73.0838 37.963 74.3095 38.8828 75.8306C39.7875 77.3516 40.2549 78.7988 40.2549 80.1426C40.2549 81.1173 39.9986 81.8556 39.4708 82.3577C39.1391 82.6679 38.1137 83.1256 36.4098 83.7459C34.7059 84.3661 33.5599 85.1635 32.9869 86.1382C32.4139 87.1128 32.1275 88.6339 32.1275 90.6865C32.1275 90.8933 32.1425 91.4544 32.1425 92.37L37.4654 95.604C37.4352 93.6548 37.5709 92.4143 37.8725 91.8531C38.1741 91.2772 38.9431 90.7604 40.1795 90.2878C42.562 89.3722 44.1302 88.4566 44.854 87.5263C45.5778 86.596 45.9547 85.3555 45.9397 83.8049C45.9547 81.0434 44.9746 78.0014 42.9691 74.6935Z" fill="white"/>
</g>
</g>
<defs>
<linearGradient id="paint0_linear" x1="13.5719" y1="84.1314" x2="127.488" y2="84.1314" gradientUnits="userSpaceOnUse">
<stop stop-color="#E7EFF5"/>
<stop offset="0.2574" stop-color="#C3C5D2"/>
<stop offset="0.3352" stop-color="#C6C8D5"/>
<stop offset="0.3997" stop-color="#CED3DD"/>
<stop offset="0.4592" stop-color="#DDE4EC"/>
<stop offset="0.4655" stop-color="#DFE6EE"/>
<stop offset="0.5693" stop-color="#98A5B5"/>
<stop offset="0.995" stop-color="#7E8EA0"/>
</linearGradient>
<linearGradient id="paint1_linear" x1="5.91839" y1="84.4439" x2="128.604" y2="84.4439" gradientUnits="userSpaceOnUse">
<stop stop-color="#475375"/>
<stop offset="0.483607" stop-color="#2E364F"/>
<stop offset="0.532513" stop-color="#2E374F"/>
<stop offset="0.593645" stop-color="#27293B"/>
<stop offset="1" stop-color="#2D3146"/>
</linearGradient>
<linearGradient id="paint2_linear" x1="31.9205" y1="54.9195" x2="99.8618" y2="16.479" gradientUnits="userSpaceOnUse">
<stop stop-color="#596482"/>
<stop offset="0.995" stop-color="#2A3D6B"/>
</linearGradient>
<linearGradient id="paint3_linear" x1="31.9175" y1="52.9111" x2="99.8589" y2="14.4706" gradientUnits="userSpaceOnUse">
<stop stop-color="#687599"/>
<stop offset="0.995" stop-color="#49587E"/>
</linearGradient>
<clipPath id="clip0">
<rect x="6" width="128.967" height="140" fill="white"/>
</clipPath>
<clipPath id="clip1">
<rect x="24" y="60" width="22" height="53" fill="white"/>
</clipPath>
</defs>
</svg>
