<svg width="140" height="140" viewBox="0 0 140 140" fill="none" xmlns="http://www.w3.org/2000/svg">
<g clip-path="url(#clip0)">
<path d="M128.996 113.358C130.128 113.065 143.664 109.437 139.041 90.9661C137.11 85.4657 111.618 72.8266 98.9785 74.9721C86.3394 77.1177 71.2037 85.1146 64.572 90.9661C64.572 90.9661 54.6831 109.769 75.4167 116.283C75.4167 116.264 100.071 120.964 128.996 113.358Z" fill="#8694A5"/>
<path d="M128.626 112.792C129.757 112.499 143.293 108.871 138.671 90.4004C136.74 84.9001 111.247 72.2609 98.6079 74.4065C86.6515 76.435 72.4325 83.7103 65.3327 89.4447C64.533 90.0883 63.9089 90.9465 63.5383 91.9023C61.7243 96.4859 57.8819 110.315 75.0461 115.718C75.0461 115.698 99.7197 120.399 128.626 112.792Z" fill="url(#paint0_linear)"/>
<path d="M81.8533 50.6301C81.5607 52.6196 81.8728 55.5843 80.0589 55.3308C78.2254 55.0577 74.9681 51.6639 75.2412 49.6744C75.5337 47.6849 77.2502 46.3 79.0641 46.5536C80.8976 46.8267 82.1459 48.6601 81.8533 50.6301Z" fill="url(#paint1_linear)"/>
<path d="M100.441 87.3966C107.034 87.3966 112.378 84.7506 112.378 81.4866C112.378 78.2226 107.034 75.5767 100.441 75.5767C93.8487 75.5767 88.5044 78.2226 88.5044 81.4866C88.5044 84.7506 93.8487 87.3966 100.441 87.3966Z" fill="#8796B8"/>
<path d="M110.876 47.6849C110.876 45.7344 109.297 44.1545 107.346 44.1545H92.9515C91.001 44.1545 89.4211 45.7344 89.4211 47.6849V79.1462C89.4211 79.5167 89.4797 79.8873 89.5967 80.2189C89.4797 80.492 89.4211 80.765 89.4211 81.0381C89.4211 83.6128 94.2193 85.6998 100.149 85.6998C106.078 85.6998 110.876 83.6128 110.876 81.0381C110.876 80.9211 110.857 80.8236 110.837 80.7065C110.857 80.5895 110.876 80.4725 110.876 80.3554V47.6849Z" fill="url(#paint2_linear)"/>
<path d="M110.798 63.4058C110.798 63.4058 110.876 70.9931 97.028 77.8198C90.767 80.0239 88.9921 70.2129 88.9921 70.2129L110.798 63.4058Z" fill="#D0A16C"/>
<path d="M120.96 54.8432C119.966 57.2423 115.967 58.7442 113.783 57.8469C111.618 56.9497 112.086 54.0045 113.08 51.6054C114.075 49.2063 116.65 47.9775 118.815 48.8747C120.98 49.7719 121.955 52.4441 120.96 54.8432Z" fill="url(#paint3_linear)"/>
<path d="M76.8991 39.5319C76.8991 39.5319 76.6845 50.7081 80.9756 61.2797C83.1796 66.702 87.5682 71.6953 91.6837 75.5182C99.3491 82.6375 116.104 59.7778 117.606 49.6939C119.107 39.6294 92.1128 23.772 92.1128 23.772L76.8991 39.5319Z" fill="url(#paint4_linear)"/>
<path d="M115.811 55.3502C115.811 55.3502 118.561 55.3502 118.737 54.2774C118.912 53.2047 119.946 51.8978 119.946 51.8978C119.946 51.8978 119.615 49.7328 117.684 50.5325C115.733 51.3322 115.811 55.3502 115.811 55.3502Z" fill="#D8AC7F"/>
<path d="M79.4737 51.6249L80.9171 39.2979C80.9171 39.2979 90.5134 31.691 90.728 29.76C90.923 27.829 99.8172 38.8687 105.24 38.8687C110.662 38.8687 113.315 46.0465 113.315 46.0465C113.315 46.0465 113.529 52.1515 114.953 53.2243C116.377 54.297 128.236 48.6992 119.029 29.5455C111.871 15.424 97.2621 20.7683 97.2621 20.7683C97.2621 20.7683 73.6418 15.424 76.6065 46.2806C76.6065 46.2806 76.9576 50.6106 79.4737 51.6249Z" fill="#3A271F"/>
<path d="M79.4737 51.6248L80.0003 38.342C80.0003 38.342 90.0648 30.7351 90.2793 28.8042C90.4939 26.8732 99.8172 37.9129 105.493 37.9129C111.169 37.9129 113.958 45.0907 113.958 45.0907C113.958 45.0907 113.432 52.1514 114.914 53.2242C116.416 54.2969 129.582 47.7433 119.946 28.5701C112.456 14.4486 97.1255 19.793 97.1255 19.793C97.1255 19.793 72.3934 14.4486 75.4947 45.3052C75.4947 45.3052 76.8405 50.6105 79.4737 51.6248Z" fill="url(#paint5_linear)"/>
<path opacity="0.2" d="M134.399 95.6472C132.468 86.9676 118.483 86.9676 118.737 87.6892C118.971 88.4109 109.57 94.4379 89.5772 90.9465C69.5653 87.4552 66.6785 103.586 66.6785 103.586C66.6785 103.586 64.299 103.644 62.368 104.327C63.5383 108.754 66.9711 113.143 75.0461 115.679C75.0461 115.679 99.7002 120.379 128.626 112.772C129.23 112.616 133.385 111.505 136.408 107.682C136.194 105.419 135.648 101.226 134.399 95.6472Z" fill="url(#paint6_linear)"/>
<path d="M71.5938 113.377C71.9644 110.373 72.8031 103.722 72.8031 103.722L73.6808 115.21L72.8421 115.054C72.0424 114.918 71.4963 114.177 71.5938 113.377Z" fill="#33A85D"/>
<path d="M128.314 112.343C128.314 112.109 129.679 101.264 129.679 101.264L130.459 111.465C130.518 112.109 129.933 112.636 129.289 112.519L128.314 112.343Z" fill="#8593B4"/>
<path opacity="0.32" d="M98.881 19.7929C98.881 19.7929 98.998 19.7733 99.2126 19.7343C101.163 19.4223 111.228 18.1544 116.591 25.2542C122.54 33.1341 121.936 34.8506 121.936 34.8506C121.936 34.8506 117.079 23.7718 110.818 21.6848C104.557 19.5978 98.881 19.7929 98.881 19.7929Z" fill="#472C20"/>
<g opacity="0.21" filter="url(#filter0_f)">
<path d="M92.7955 28.7651C92.7955 28.7651 101.846 36.0014 104.479 35.4553C107.112 34.9287 117.606 36.6256 115.031 51.8978C115.031 51.8978 117.489 36.5085 104.479 36.5671C100.149 36.5671 92.7955 28.7651 92.7955 28.7651Z" fill="#957868"/>
</g>
<g opacity="0.13" filter="url(#filter1_f)">
<path d="M76.899 32.4516C76.899 32.4516 78.0888 22.9722 87.6657 21.0413C87.6462 21.0413 82.3019 23.1283 76.899 32.4516Z" fill="#FFFAF8"/>
</g>
<path d="M81.5022 124.748C82.8675 124.397 99.2906 119.989 93.6927 97.578C93.6927 97.5585 93.6927 97.5585 93.6732 97.539C91.2936 90.8489 60.3785 75.5376 45.0477 78.1317C29.756 80.7454 11.4214 90.3613 3.36596 97.461C3.34645 97.4805 3.20992 97.6951 3.19042 97.7341C2.62478 98.8653 -8.04435 120.574 16.4537 128.279C16.4732 128.279 16.4732 128.279 16.4927 128.279C17.2339 128.435 46.8617 133.876 81.5022 124.748Z" fill="#2A2E43"/>
<path d="M81.0731 124.066C82.4384 123.715 98.8615 119.306 93.2636 96.8954C93.2636 96.8759 93.2636 96.8759 93.2441 96.8564C90.8645 90.1663 59.9494 74.855 44.6186 77.4491C31.3553 79.6922 15.8295 87.26 6.66226 93.8527C3.79506 95.9202 1.72755 98.9044 0.849833 102.337C-1.00312 109.593 -1.3152 122.135 16.0246 127.596H16.0441C16.7658 127.733 46.3935 133.194 81.0731 124.066Z" fill="#3B4767"/>
<path d="M24.2946 48.6211C23.9435 51.0397 24.3336 54.6286 22.1101 54.3165C19.8865 54.0044 15.9271 49.8694 16.2782 47.4508C16.6292 45.0322 18.7163 43.3353 20.9203 43.6669C23.1243 43.9985 24.6457 46.2025 24.2946 48.6211Z" fill="url(#paint7_linear)"/>
<path opacity="0.6" d="M46.8616 93.2481C54.8654 93.2481 61.3537 90.0345 61.3537 86.0703C61.3537 82.1062 54.8654 78.8926 46.8616 78.8926C38.8579 78.8926 32.3696 82.1062 32.3696 86.0703C32.3696 90.0345 38.8579 93.2481 46.8616 93.2481Z" fill="#2CD8CF"/>
<path d="M59.5203 45.3051C59.5203 42.789 57.4918 40.7605 54.9757 40.7605H38.026C35.5099 40.7605 33.4814 42.789 33.4814 45.3051V83.2225C33.4814 83.6516 33.5399 84.0612 33.6569 84.4513C33.6764 84.5098 33.6764 84.5683 33.6569 84.6268C33.5399 84.9194 33.4814 85.2314 33.4814 85.5435C33.4814 88.6643 39.3133 91.1999 46.4911 91.1999C53.6689 91.1999 59.5008 88.6643 59.5008 85.5435C59.5008 85.4265 59.4813 85.29 59.4618 85.1729C59.4618 85.1534 59.4618 85.1339 59.4618 85.0949C59.4813 84.9584 59.5008 84.8414 59.5008 84.7048V45.3051H59.5203Z" fill="url(#paint8_linear)"/>
<path d="M59.4032 64.5174C59.2082 66.3703 57.4723 74.3283 42.7461 81.6036C42.7266 81.6036 42.7266 81.6231 42.7071 81.6231C35.7634 84.0417 33.3643 74.2893 33.0132 72.6119C32.9937 72.4753 33.0718 72.3388 33.1888 72.2998L59.0522 64.2248C59.2277 64.1858 59.4227 64.3418 59.4032 64.5174Z" fill="#D0A16C"/>
<path d="M71.7693 53.7314C70.56 56.6571 65.7033 58.4516 63.0702 57.3788C60.437 56.2865 61.0222 52.7172 62.2315 49.7914C63.4408 46.8657 66.5615 45.3834 69.1947 46.4756C71.8083 47.5679 72.9786 50.8057 71.7693 53.7314Z" fill="url(#paint9_linear)"/>
<path d="M18.3456 35.0652C18.3066 35.1237 18.2676 35.1823 18.2676 35.2408C18.2481 36.5281 18.2676 49.3622 23.2023 61.5332C25.8745 68.1259 31.1993 74.1724 36.212 78.834C45.5158 87.4746 65.8593 59.7193 67.6733 47.4898C69.4287 35.7869 39.5083 17.6669 36.9142 16.1261C36.8167 16.0675 36.6801 16.0871 36.5826 16.1651L18.3456 35.0652Z" fill="url(#paint10_linear)"/>
<path d="M65.5082 54.0628C65.5082 54.2188 65.6253 54.3358 65.7813 54.3358C66.581 54.2968 68.8826 54.1213 69.0386 53.0485C69.2142 51.9367 70.1504 50.6104 70.4235 50.2398C70.4625 50.1813 70.482 50.1033 70.4625 50.0253C70.3454 49.5182 69.7798 47.6457 67.7318 48.4844C65.7423 49.3231 65.5277 53.029 65.5082 54.0628Z" fill="#D8AC7F"/>
<path d="M21.4274 49.4597L23.1243 34.9872C23.1243 34.9092 23.1633 34.8506 23.2218 34.8116C24.2751 33.9729 34.8077 25.5273 35.0417 23.3038C35.2953 20.9632 46.0814 34.363 52.6546 34.363C58.9741 34.363 62.1924 42.399 62.4265 43.0427C62.446 43.0622 62.446 43.1012 62.446 43.1207C62.4655 43.7253 62.7775 50.552 64.4355 51.8003C66.1714 53.1071 80.5464 46.3195 69.3897 23.0502C61.0221 6.49066 44.2285 11.9325 43.0387 12.3616C42.9997 12.3811 42.9412 12.3811 42.9022 12.3616C41.3418 12.03 14.4251 6.95878 17.9165 43.3157C17.9165 43.3157 18.3066 48.1724 21.0373 49.6548C21.2128 49.7523 21.4079 49.6353 21.4274 49.4597Z" fill="#3A271F"/>
<path d="M21.4079 49.4403L22.032 33.8364C22.032 33.7584 22.071 33.6804 22.1295 33.6414C23.2803 32.7636 34.2615 24.3571 34.5151 22.1335C34.7687 19.793 46.0814 33.1928 52.9861 33.1928C59.5398 33.1928 62.9336 41.0922 63.2262 41.8529C63.2457 41.8919 63.2457 41.9309 63.2457 41.9699C63.1872 42.7306 62.68 50.552 64.416 51.8003C66.2299 53.1072 82.2238 45.1492 70.521 21.88C61.7438 5.30089 44.1115 10.7817 42.9022 11.1913C42.8631 11.2108 42.8241 11.2108 42.7656 11.1913C41.2052 10.8793 12.9038 5.72999 16.5707 42.126C16.5707 42.1455 16.5707 42.1455 16.5707 42.165C16.6682 42.5356 18.1701 48.1334 21.0178 49.6548C21.1933 49.7523 21.3884 49.6158 21.4079 49.4403Z" fill="url(#paint11_linear)"/>
<path opacity="0.2" d="M88.0753 103.254C85.7347 92.7215 68.7656 92.7215 69.0581 93.5992C69.3507 94.4769 57.9404 101.791 33.6569 97.5587C10.8363 93.5797 6.36972 110.666 5.9211 112.714C5.9016 112.831 5.80408 112.909 5.66754 112.928C5.00438 112.967 2.80034 113.104 0.869362 113.748C0.732828 113.787 0.654809 113.943 0.693819 114.079C2.17618 119.365 6.36972 124.592 16.0051 127.616C16.0246 127.616 16.0246 127.616 16.0441 127.616C16.8048 127.752 46.4131 133.213 81.0731 124.085C81.7948 123.89 86.788 122.564 90.4549 117.98C90.4939 117.922 90.5134 117.863 90.5134 117.785C90.2209 114.976 89.5772 109.944 88.0753 103.254Z" fill="url(#paint12_linear)"/>
<path d="M11.87 124.514C12.1626 122.154 12.6502 118.234 12.9623 115.64C13.0013 115.328 13.4694 115.328 13.4889 115.659L14.3276 126.66C14.3471 126.835 14.1911 126.972 14.0156 126.933L13.5864 126.855C12.4942 126.66 11.7335 125.626 11.87 124.514Z" fill="#2F406D"/>
<path d="M80.7025 123.266C80.839 121.979 81.5802 116.127 82.0093 112.655C82.0483 112.343 82.5164 112.343 82.5359 112.675L83.2576 122.096C83.3356 123.051 82.4774 123.832 81.5217 123.656L80.917 123.539C80.7805 123.539 80.683 123.402 80.7025 123.266Z" fill="#1C2B54"/>
<path opacity="0.32" d="M44.9502 11.1718C44.9502 11.1718 45.0867 11.1523 45.3403 11.0938C47.7004 10.7037 59.9299 9.18235 66.425 17.8035C69.6433 22.075 71.2817 24.8447 72.1204 26.6196C72.2569 26.9317 71.8083 27.1658 71.6523 26.8537C69.5262 22.8162 64.9231 15.3069 59.4228 13.4734C51.8354 10.9378 44.9502 11.1718 44.9502 11.1718Z" fill="#472C20"/>
<g opacity="0.21" filter="url(#filter2_f)">
<path d="M40.6787 25.0593C40.4251 24.8448 40.7372 24.4547 41.0102 24.6497C44.5211 27.1853 49.7289 30.5987 51.7574 30.1891C54.9367 29.5454 67.6928 31.6129 64.572 50.1425C64.572 50.1425 67.5563 31.4764 51.7574 31.5349C48.4611 31.5544 43.7409 27.8485 40.6787 25.0593Z" fill="#957868"/>
</g>
<g opacity="0.13" filter="url(#filter3_f)">
<path d="M18.5992 24.9813C19.3989 22.0166 21.915 15.6385 29.2683 13.2394C29.5609 13.1419 29.7559 13.5515 29.5024 13.7076C27.2593 15.1704 23.2413 18.4667 19.0868 25.1764C18.9113 25.4494 18.5212 25.2934 18.5992 24.9813Z" fill="#FFFAF8"/>
</g>
</g>
<defs>
<filter id="filter0_f" x="90.7955" y="26.7651" width="26.6387" height="27.1327" filterUnits="userSpaceOnUse" color-interpolation-filters="sRGB">
<feFlood flood-opacity="0" result="BackgroundImageFix"/>
<feBlend mode="normal" in="SourceGraphic" in2="BackgroundImageFix" result="shape"/>
<feGaussianBlur stdDeviation="1" result="effect1_foregroundBlur"/>
</filter>
<filter id="filter1_f" x="72.899" y="17.0413" width="18.7666" height="19.4103" filterUnits="userSpaceOnUse" color-interpolation-filters="sRGB">
<feFlood flood-opacity="0" result="BackgroundImageFix"/>
<feBlend mode="normal" in="SourceGraphic" in2="BackgroundImageFix" result="shape"/>
<feGaussianBlur stdDeviation="2" result="effect1_foregroundBlur"/>
</filter>
<filter id="filter2_f" x="38.585" y="22.5967" width="28.4747" height="29.5458" filterUnits="userSpaceOnUse" color-interpolation-filters="sRGB">
<feFlood flood-opacity="0" result="BackgroundImageFix"/>
<feBlend mode="normal" in="SourceGraphic" in2="BackgroundImageFix" result="shape"/>
<feGaussianBlur stdDeviation="1" result="effect1_foregroundBlur"/>
</filter>
<filter id="filter3_f" x="14.589" y="9.22461" width="19.0305" height="20.0926" filterUnits="userSpaceOnUse" color-interpolation-filters="sRGB">
<feFlood flood-opacity="0" result="BackgroundImageFix"/>
<feBlend mode="normal" in="SourceGraphic" in2="BackgroundImageFix" result="shape"/>
<feGaussianBlur stdDeviation="2" result="effect1_foregroundBlur"/>
</filter>
<linearGradient id="paint0_linear" x1="100.746" y1="74.1481" x2="100.746" y2="117.138" gradientUnits="userSpaceOnUse">
<stop stop-color="#DCE1F0"/>
<stop offset="1" stop-color="#91A1C5"/>
</linearGradient>
<linearGradient id="paint1_linear" x1="75.159" y1="50.3077" x2="81.9139" y2="51.2851" gradientUnits="userSpaceOnUse">
<stop offset="0.3465" stop-color="#EBCAA2"/>
<stop offset="1" stop-color="#D7A371"/>
</linearGradient>
<linearGradient id="paint2_linear" x1="85.8398" y1="49.8073" x2="114.457" y2="78.4247" gradientUnits="userSpaceOnUse">
<stop offset="0.3465" stop-color="#EBCAA2"/>
<stop offset="1" stop-color="#D7A371"/>
</linearGradient>
<linearGradient id="paint3_linear" x1="116.816" y1="48.4478" x2="115.387" y2="58.1731" gradientUnits="userSpaceOnUse">
<stop offset="0.3465" stop-color="#EBCAA2"/>
<stop offset="1" stop-color="#D7A371"/>
</linearGradient>
<linearGradient id="paint4_linear" x1="80.2533" y1="35.6285" x2="110.388" y2="65.763" gradientUnits="userSpaceOnUse">
<stop offset="0.3465" stop-color="#EBCAA2"/>
<stop offset="1" stop-color="#D7A371"/>
</linearGradient>
<linearGradient id="paint5_linear" x1="82.358" y1="22.2894" x2="115.374" y2="55.3052" gradientUnits="userSpaceOnUse">
<stop offset="0.3465" stop-color="#60504B"/>
<stop offset="1" stop-color="#351B13"/>
</linearGradient>
<linearGradient id="paint6_linear" x1="99.3959" y1="117.138" x2="99.3959" y2="87.4004" gradientUnits="userSpaceOnUse">
<stop stop-color="white" stop-opacity="0"/>
<stop offset="0.8663" stop-color="#E8EBEE"/>
</linearGradient>
<linearGradient id="paint7_linear" x1="16.1625" y1="48.2238" x2="24.3616" y2="49.4101" gradientUnits="userSpaceOnUse">
<stop offset="0.3465" stop-color="#EBCAA2"/>
<stop offset="1" stop-color="#D7A371"/>
</linearGradient>
<linearGradient id="paint8_linear" x1="29.1662" y1="47.7321" x2="63.8243" y2="82.3902" gradientUnits="userSpaceOnUse">
<stop offset="0.3465" stop-color="#EBCAA2"/>
<stop offset="1" stop-color="#D7A371"/>
</linearGradient>
<linearGradient id="paint9_linear" x1="66.7229" y1="45.9658" x2="64.9886" y2="57.7704" gradientUnits="userSpaceOnUse">
<stop offset="0.3465" stop-color="#EBCAA2"/>
<stop offset="1" stop-color="#D7A371"/>
</linearGradient>
<linearGradient id="paint10_linear" x1="22.3491" y1="30.4082" x2="58.9237" y2="66.9828" gradientUnits="userSpaceOnUse">
<stop offset="0.3465" stop-color="#EBCAA2"/>
<stop offset="1" stop-color="#D7A371"/>
</linearGradient>
<linearGradient id="paint11_linear" x1="24.9012" y1="14.2147" x2="64.9756" y2="54.2892" gradientUnits="userSpaceOnUse">
<stop offset="0.3465" stop-color="#60504B"/>
<stop offset="1" stop-color="#351B13"/>
</linearGradient>
<linearGradient id="paint12_linear" x1="45.6053" y1="129.341" x2="45.6053" y2="93.2462" gradientUnits="userSpaceOnUse">
<stop stop-color="white" stop-opacity="0"/>
<stop offset="0.8663" stop-color="#586485"/>
</linearGradient>
<clipPath id="clip0">
<rect y="10" width="140" height="120.245" fill="white"/>
</clipPath>
</defs>
</svg>
