<svg width="140" height="140" viewBox="0 0 140 140" fill="none" xmlns="http://www.w3.org/2000/svg">
<path d="M126.759 115.265H9.54004C5.94937 115.265 3.04419 112.346 3.04419 108.738V25.7967C3.04419 22.1891 5.94937 19.2703 9.54004 19.2703H126.759C130.35 19.2703 133.255 22.1891 133.255 25.7967V108.738C133.255 112.346 130.35 115.265 126.759 115.265Z" fill="#2B2E42"/>
<path d="M126.759 109.92H9.54004C5.94937 109.92 3.04419 107.001 3.04419 103.393V20.4517C3.04419 16.8442 5.94937 13.9253 9.54004 13.9253H126.759C130.35 13.9253 133.255 16.8442 133.255 20.4517V103.393C133.255 106.985 130.35 109.92 126.759 109.92Z" fill="url(#paint0_linear)"/>
<path d="M3.04419 20.4517V32.3732H133.255V20.4517C133.255 16.8442 130.35 13.9253 126.759 13.9253H9.54004C5.94937 13.9253 3.04419 16.8442 3.04419 20.4517Z" fill="url(#paint1_linear)"/>
<path d="M15.7911 27.1265C17.9093 27.1265 19.6265 25.4013 19.6265 23.273C19.6265 21.1447 17.9093 19.4194 15.7911 19.4194C13.6728 19.4194 11.9556 21.1447 11.9556 23.273C11.9556 25.4013 13.6728 27.1265 15.7911 27.1265Z" fill="#F9CF7A"/>
<path d="M27.0078 27.1265C29.1261 27.1265 30.8433 25.4013 30.8433 23.273C30.8433 21.1447 29.1261 19.4194 27.0078 19.4194C24.8896 19.4194 23.1724 21.1447 23.1724 23.273C23.1724 25.4013 24.8896 27.1265 27.0078 27.1265Z" fill="#81EF8E"/>
<path d="M38.594 27.1275C40.7123 27.1275 42.4295 25.4022 42.4295 23.274C42.4295 21.1457 40.7123 19.4204 38.594 19.4204C36.4758 19.4204 34.7585 21.1457 34.7585 23.274C34.7585 25.4022 36.4758 27.1275 38.594 27.1275Z" fill="#F46245"/>
<path opacity="0.54" d="M100.531 125.432C118.919 125.432 133.826 110.455 133.826 91.98C133.826 73.5049 118.919 58.5278 100.531 58.5278C82.1424 58.5278 67.2356 73.5049 67.2356 91.98C67.2356 110.455 82.1424 125.432 100.531 125.432Z" fill="#272A3B"/>
<path d="M103.501 128.418C122.674 128.418 138.217 112.802 138.217 93.5389C138.217 74.2759 122.674 58.6602 103.501 58.6602C84.3286 58.6602 68.7861 74.2759 68.7861 93.5389C68.7861 112.802 84.3286 128.418 103.501 128.418Z" fill="url(#paint2_linear)"/>
<path d="M103.501 125.417C121.024 125.417 135.23 111.144 135.23 93.5386C135.23 75.9329 121.024 61.6606 103.501 61.6606C85.9781 61.6606 71.7728 75.9329 71.7728 93.5386C71.7728 111.144 85.9781 125.417 103.501 125.417Z" fill="url(#paint3_radial)"/>
<path d="M48.9395 58.9875H13.4408C11.9556 58.9875 10.7478 57.7741 10.7478 56.2819C10.7478 54.7896 11.9556 53.5762 13.4408 53.5762H48.9395C50.4247 53.5762 51.6325 54.7896 51.6325 56.2819C51.6325 57.7741 50.4247 58.9875 48.9395 58.9875Z" fill="white"/>
<path d="M122.581 74.3694L100.221 90.2591L106.766 96.8184L122.581 74.3694Z" fill="#FF5050"/>
<path d="M106.766 96.8179L122.581 74.3689L103.501 93.5383L106.766 96.8179Z" fill="#C91820"/>
<path d="M84.4219 112.707L100.221 90.2583L106.766 96.8175L84.4219 112.707Z" fill="#E1E9EC"/>
<path d="M106.766 96.8175L84.4219 112.707L103.501 93.5378L106.766 96.8175Z" fill="#ACB3C5"/>
<path d="M103.746 61.759H103.257V67.3344H103.746V61.759Z" fill="#FFFEFD"/>
<path d="M105.744 61.8908L105.546 65.1973L106.035 65.2267L106.232 61.9202L105.744 61.8908Z" fill="#FFFEFD"/>
<path d="M98.2645 62.2002L97.7823 62.2856L98.7456 67.7763L99.2278 67.6909L98.2645 62.2002Z" fill="#FFFEFD"/>
<path d="M100.73 61.9689L100.243 62.0251L100.62 65.3157L101.107 65.2594L100.73 61.9689Z" fill="#FFFEFD"/>
<path d="M92.9089 63.5798L92.4488 63.748L94.3466 68.9872L94.8067 68.819L92.9089 63.5798Z" fill="#FFFEFD"/>
<path d="M95.2871 62.8724L94.8178 63.0127L95.7581 66.1877L96.2274 66.0474L95.2871 62.8724Z" fill="#FFFEFD"/>
<path d="M87.8952 65.9081L87.4711 66.1541L90.2457 70.9823L90.6698 70.7363L87.8952 65.9081Z" fill="#FFFEFD"/>
<path d="M90.1252 64.8034L89.6873 65.0234L91.162 67.9861L91.5999 67.766L90.1252 64.8034Z" fill="#FFFEFD"/>
<path d="M83.3643 69.0537L82.9892 69.3699L86.5562 73.6406L86.9313 73.3244L83.3643 69.0537Z" fill="#FFFEFD"/>
<path d="M85.3764 67.5756L84.9832 67.8687L86.9474 70.5289L87.3407 70.2358L85.3764 67.5756Z" fill="#FFFEFD"/>
<path d="M79.4283 72.9044L79.1136 73.2812L83.3643 76.8651L83.679 76.4883L79.4283 72.9044Z" fill="#FFFEFD"/>
<path d="M81.1458 71.1183L80.8091 71.4756L83.2034 73.7529L83.54 73.3956L81.1458 71.1183Z" fill="#FFFEFD"/>
<path d="M76.2264 77.4246L75.9816 77.8506L80.7872 80.6383L81.0321 80.2122L76.2264 77.4246Z" fill="#FFFEFD"/>
<path d="M77.5914 75.366L77.3217 75.7766L80.0733 77.6014L80.343 77.1908L77.5914 75.366Z" fill="#FFFEFD"/>
<path d="M73.8461 82.4506L73.6786 82.9128L78.8932 84.8196L79.0607 84.3573L73.8461 82.4506Z" fill="#FFFEFD"/>
<path d="M74.8211 80.1607L74.6265 80.6121L77.6517 81.9291L77.8464 81.4777L74.8211 80.1607Z" fill="#FFFEFD"/>
<path d="M72.3671 87.7814L72.2821 88.2659L77.747 89.2338L77.832 88.7493L72.3671 87.7814Z" fill="#FFFEFD"/>
<path d="M72.9474 85.3862L72.8337 85.8647L76.0406 86.6339L76.1543 86.1554L72.9474 85.3862Z" fill="#FFFEFD"/>
<path d="M77.4037 93.292H71.8545V93.7839H77.4037V93.292Z" fill="#FFFEFD"/>
<path d="M72.0461 90.8005L72.0168 91.2915L75.3078 91.4896L75.3371 90.9986L72.0461 90.8005Z" fill="#FFFEFD"/>
<path d="M77.7744 97.8468L72.3095 98.8147L72.3945 99.2992L77.8594 98.3313L77.7744 97.8468Z" fill="#FFFEFD"/>
<path d="M75.3371 95.9694L72.062 96.3484L72.118 96.8371L75.3932 96.4581L75.3371 95.9694Z" fill="#FFFEFD"/>
<path d="M78.8995 102.273L73.6849 104.18L73.8524 104.642L79.067 102.735L78.8995 102.273Z" fill="#FFFEFD"/>
<path d="M76.1574 100.802L72.9973 101.746L73.137 102.218L76.297 101.273L76.1574 100.802Z" fill="#FFFEFD"/>
<path d="M80.7929 106.439L75.9872 109.227L76.2321 109.653L81.0377 106.865L80.7929 106.439Z" fill="#FFFEFD"/>
<path d="M77.842 105.497L74.8932 106.979L75.1123 107.419L78.061 105.937L77.842 105.497Z" fill="#FFFEFD"/>
<path d="M83.349 110.216L79.0983 113.8L79.4131 114.177L83.6638 110.593L83.349 110.216Z" fill="#FFFEFD"/>
<path d="M80.2938 109.786L77.6461 111.76L77.9378 112.155L80.5855 110.182L80.2938 109.786Z" fill="#FFFEFD"/>
<path d="M86.5716 113.458L83.0046 117.729L83.3797 118.045L86.9467 113.774L86.5716 113.458Z" fill="#FFFEFD"/>
<path d="M83.4573 113.586L81.1907 115.991L81.5463 116.329L83.8129 113.924L83.4573 113.586Z" fill="#FFFEFD"/>
<path d="M90.2505 116.122L87.4759 120.95L87.8999 121.196L90.6745 116.368L90.2505 116.122Z" fill="#FFFEFD"/>
<path d="M87.2111 116.783L85.3949 119.547L85.8035 119.818L87.6198 117.054L87.2111 116.783Z" fill="#FFFEFD"/>
<path d="M94.3249 118.09L92.427 123.33L92.8871 123.498L94.785 118.259L94.3249 118.09Z" fill="#FFFEFD"/>
<path d="M91.4525 119.258L90.1417 122.297L90.591 122.493L91.9018 119.453L91.4525 119.258Z" fill="#FFFEFD"/>
<path d="M98.7125 119.315L97.7492 124.806L98.2314 124.891L99.1947 119.4L98.7125 119.315Z" fill="#FFFEFD"/>
<path d="M96.0899 120.969L95.3243 124.191L95.8006 124.305L96.5661 121.083L96.0899 120.969Z" fill="#FFFEFD"/>
<path d="M103.746 119.759H103.257V125.334H103.746V119.759Z" fill="#FFFEFD"/>
<path d="M100.971 121.841L100.774 125.147L101.263 125.177L101.46 121.87L100.971 121.841Z" fill="#FFFEFD"/>
<path d="M108.286 119.315L107.803 119.4L108.767 124.891L109.249 124.805L108.286 119.315Z" fill="#FFFEFD"/>
<path d="M106.391 121.821L105.904 121.877L106.282 125.168L106.768 125.111L106.391 121.821Z" fill="#FFFEFD"/>
<path d="M112.641 118.085L112.181 118.253L114.079 123.492L114.539 123.324L112.641 118.085Z" fill="#FFFEFD"/>
<path d="M111.217 120.841L110.748 120.981L111.688 124.156L112.157 124.016L111.217 120.841Z" fill="#FFFEFD"/>
<path d="M116.751 116.123L116.327 116.369L119.102 121.197L119.526 120.951L116.751 116.123Z" fill="#FFFEFD"/>
<path d="M115.832 119.098L115.394 119.318L116.869 122.281L117.307 122.061L115.832 119.098Z" fill="#FFFEFD"/>
<path d="M120.439 113.476L120.064 113.792L123.631 118.063L124.006 117.747L120.439 113.476Z" fill="#FFFEFD"/>
<path d="M120.062 116.562L119.669 116.855L121.633 119.516L122.026 119.223L120.062 116.562Z" fill="#FFFEFD"/>
<path d="M123.647 110.208L123.332 110.585L127.583 114.169L127.898 113.792L123.647 110.208Z" fill="#FFFEFD"/>
<path d="M123.795 113.311L123.458 113.669L125.853 115.946L126.189 115.589L123.795 113.311Z" fill="#FFFEFD"/>
<path d="M126.227 106.438L125.983 106.864L130.788 109.652L131.033 109.226L126.227 106.438Z" fill="#FFFEFD"/>
<path d="M126.881 109.488L126.612 109.898L129.363 111.723L129.633 111.313L126.881 109.488Z" fill="#FFFEFD"/>
<path d="M128.08 102.279L127.913 102.741L133.127 104.648L133.295 104.185L128.08 102.279Z" fill="#FFFEFD"/>
<path d="M129.266 105.169L129.071 105.62L132.096 106.937L132.291 106.486L129.266 105.169Z" fill="#FFFEFD"/>
<path d="M129.234 97.8637L129.149 98.3481L134.614 99.316L134.699 98.8316L129.234 97.8637Z" fill="#FFFEFD"/>
<path d="M130.882 100.478L130.768 100.956L133.975 101.725L134.089 101.247L130.882 100.478Z" fill="#FFFEFD"/>
<path d="M135.132 93.2913H129.583V93.7832H135.132V93.2913Z" fill="#FFFEFD"/>
<path d="M131.683 95.5902L131.654 96.0813L134.945 96.2794L134.974 95.7884L131.683 95.5902Z" fill="#FFFEFD"/>
<path d="M134.62 87.7938L129.156 88.7617L129.241 89.2462L134.705 88.2783L134.62 87.7938Z" fill="#FFFEFD"/>
<path d="M134.891 90.2661L131.616 90.645L131.672 91.1337L134.947 90.7548L134.891 90.2661Z" fill="#FFFEFD"/>
<path d="M133.135 82.4321L127.92 84.3389L128.088 84.8011L133.302 82.8944L133.135 82.4321Z" fill="#FFFEFD"/>
<path d="M133.838 84.797L130.678 85.7417L130.818 86.2132L133.978 85.2685L133.838 84.797Z" fill="#FFFEFD"/>
<path d="M130.783 77.4467L125.977 80.2344L126.222 80.6604L131.028 77.8727L130.783 77.4467Z" fill="#FFFEFD"/>
<path d="M131.883 79.6565L128.934 81.1382L129.153 81.5782L132.102 80.0965L131.883 79.6565Z" fill="#FFFEFD"/>
<path d="M127.55 72.9352L123.299 76.519L123.614 76.8959L127.865 73.3121L127.55 72.9352Z" fill="#FFFEFD"/>
<path d="M129.061 74.9256L126.413 76.8992L126.705 77.2942L129.353 75.3207L129.061 74.9256Z" fill="#FFFEFD"/>
<path d="M123.676 69.0449L120.109 73.3157L120.484 73.6319L124.051 69.3612L123.676 69.0449Z" fill="#FFFEFD"/>
<path d="M125.452 70.7364L123.186 73.1418L123.541 73.4801L125.808 71.0746L125.452 70.7364Z" fill="#FFFEFD"/>
<path d="M119.117 65.891L116.342 70.7192L116.766 70.9652L119.541 66.137L119.117 65.891Z" fill="#FFFEFD"/>
<path d="M121.144 67.2457L119.328 70.0103L119.737 70.2813L121.553 67.5167L121.144 67.2457Z" fill="#FFFEFD"/>
<path d="M114.058 63.6004L112.16 68.8396L112.62 69.0078L114.518 63.7687L114.058 63.6004Z" fill="#FFFEFD"/>
<path d="M116.346 64.577L115.035 67.6165L115.485 67.8121L116.795 64.7726L116.346 64.577Z" fill="#FFFEFD"/>
<path d="M108.757 62.2108L107.794 67.7014L108.276 67.7868L109.239 62.2962L108.757 62.2108Z" fill="#FFFEFD"/>
<path d="M111.137 62.7665L110.371 65.9885L110.848 66.1028L111.613 62.8808L111.137 62.7665Z" fill="#FFFEFD"/>
<path d="M60.6908 46.7871H13.4408C11.9556 46.7871 10.7478 45.5736 10.7478 44.0814C10.7478 42.5892 11.9556 41.3757 13.4408 41.3757H60.6908C62.176 41.3757 63.3838 42.5892 63.3838 44.0814C63.3838 45.5736 62.176 46.7871 60.6908 46.7871Z" fill="white"/>
<defs>
<linearGradient id="paint0_linear" x1="68.1465" y1="13.9213" x2="68.1465" y2="109.916" gradientUnits="userSpaceOnUse">
<stop stop-color="#647196"/>
<stop offset="1" stop-color="#49577E"/>
</linearGradient>
<linearGradient id="paint1_linear" x1="68.1496" y1="13.9253" x2="68.1496" y2="32.3732" gradientUnits="userSpaceOnUse">
<stop stop-color="#2CD8CF"/>
<stop offset="1" stop-color="#2CD8CF"/>
</linearGradient>
<linearGradient id="paint2_linear" x1="103.498" y1="58.6562" x2="103.498" y2="128.414" gradientUnits="userSpaceOnUse">
<stop offset="0.2921" stop-color="#6B7598"/>
<stop offset="1" stop-color="#49577E"/>
</linearGradient>
<radialGradient id="paint3_radial" cx="0" cy="0" r="1" gradientUnits="userSpaceOnUse" gradientTransform="translate(103.498 93.5346) scale(31.7285 31.8779)">
<stop stop-color="#65F7EF"/>
<stop offset="1" stop-color="#2CD8CF"/>
</radialGradient>
</defs>
</svg>
