<svg width="140" height="140" viewBox="0 0 140 140" fill="none" xmlns="http://www.w3.org/2000/svg">
<path d="M34.8917 99.8173C34.8917 99.8173 28.0819 104.431 29.5494 115.849H95.8826C95.8826 115.849 96.13 101.284 90.7877 99.8173C85.4289 98.3673 34.8917 99.8173 34.8917 99.8173Z" fill="url(#paint0_linear)"/>
<path d="M38.3048 90.8696L45.972 104.776H75.8821L84.0274 90.8696H38.3048Z" fill="url(#paint1_linear)"/>
<path d="M112.602 94.9731H9.25212C5.62465 94.9731 2.6897 92.0403 2.6897 88.4154V15.5548C2.6897 11.9299 5.62465 8.99707 9.25212 8.99707H112.602C116.23 8.99707 119.164 11.9299 119.164 15.5548V88.4154C119.164 92.0403 116.23 94.9731 112.602 94.9731Z" fill="url(#paint2_linear)"/>
<rect x="7.16016" y="12.2932" width="107.401" height="77.4693" rx="4" fill="url(#paint3_linear)"/>
<path d="M13.4403 86.8667C11.9563 86.8667 10.7527 85.6639 10.7527 84.181V18.1913C10.7527 16.7084 11.9563 15.5056 13.4403 15.5056H108.513C109.997 15.5056 111.201 16.7084 111.201 18.1913V84.181C111.201 85.6639 109.997 86.8667 108.513 86.8667H13.4403Z" fill="url(#paint4_linear)"/>
<path d="M108.496 16.1824C109.618 16.1824 110.525 17.0886 110.525 18.2091V84.1987C110.525 85.3192 109.618 86.2254 108.496 86.2254H13.4238C12.3025 86.2254 11.3957 85.3192 11.3957 84.1987V18.2091C11.3957 17.0886 12.3025 16.1824 13.4238 16.1824H108.496ZM108.496 14.8643H13.4238C11.5771 14.8643 10.0766 16.3636 10.0766 18.2091V84.1987C10.0766 86.0441 11.5771 87.5435 13.4238 87.5435H108.496C110.343 87.5435 111.844 86.0441 111.844 84.1987V18.2091C111.844 16.3636 110.343 14.8643 108.496 14.8643Z" fill="#3F4766"/>
<path opacity="0.68" d="M63.5653 95.0558H58.2725C56.3103 95.0558 54.7109 93.4576 54.7109 91.4968V91.2497C54.7109 89.2889 56.3103 87.6907 58.2725 87.6907H63.5653C65.5274 87.6907 67.1268 89.2889 67.1268 91.2497V91.4968C67.1433 93.4576 65.5439 95.0558 63.5653 95.0558Z" fill="#323B52"/>
<path d="M64.1754 93.7882H58.1571C56.838 93.7882 55.7663 92.7173 55.7663 91.3991V91.2343C55.7663 89.9162 56.838 88.8452 58.1571 88.8452H64.1754C65.4945 88.8452 66.5663 89.9162 66.5663 91.2343V91.3991C66.5498 92.7173 65.478 93.7882 64.1754 93.7882Z" fill="url(#paint5_linear)"/>
<path opacity="0.83" d="M58.2396 89.735H64.0765C65.2966 89.735 66.3024 90.6082 66.5003 91.7616C66.5333 91.6133 66.5498 91.465 66.5498 91.3167C66.5498 89.9492 65.445 88.8452 64.0765 88.8452H58.2396C56.871 88.8452 55.7663 89.9492 55.7663 91.3167C55.7663 91.465 55.7828 91.6133 55.8158 91.7616C56.0136 90.6082 57.0194 89.735 58.2396 89.735Z" fill="white"/>
<path d="M29.5496 115.849H95.8828C95.8828 115.849 95.9158 114.069 95.7179 111.697H29.3682C29.3022 112.965 29.3517 114.35 29.5496 115.849Z" fill="url(#paint6_linear)"/>
<path d="M95.8002 111.729H29.368V112.553H95.8002V111.729Z" fill="url(#paint7_linear)"/>
<path d="M42.2785 62.5982C42.2785 62.5982 50.8361 64.4436 51.7264 60.2585C51.8419 59.5335 51.5121 59.171 51.4956 58.9568C51.4626 58.4296 52.5674 58.6273 52.4519 57.8364C52.3365 57.0455 52.5674 56.8643 52.2046 56.5018C51.9573 56.2546 52.1716 56.0404 52.32 55.9416C52.4025 55.8921 52.4519 55.8098 52.4354 55.7109C52.419 55.2331 52.3035 54.0632 51.611 53.849C51.611 53.6513 54.2986 53.3053 54.3976 52.3496C54.513 51.394 53.4083 48.5764 51.3142 47.0441C51.3142 47.0441 53.3588 45.6106 52.4684 43.1226C51.578 40.6346 51.7924 38.6409 51.7924 38.6409C51.7924 38.6409 49.7313 33.0553 48.3298 32.8575C46.9283 32.6598 39.5085 30.9462 35.6337 32.8575C27.2905 36.9603 27.307 56.3864 27.307 56.3864L25.2624 61.3954C25.2624 61.3954 29.9286 68.9747 38.8324 70.2929L42.2785 62.5982Z" fill="url(#paint8_linear)"/>
<path d="M54.4306 52.3004C54.4306 52.3004 54.6615 53.2396 50.7207 53.9316C50.5723 53.9646 50.7372 53.8822 51.067 53.7504C51.677 53.4868 52.8148 53.0254 53.1445 52.6465C53.6392 52.0698 54.4306 52.3004 54.4306 52.3004Z" fill="#D99C70"/>
<path d="M25.3119 60.7366C25.3119 60.7366 22.245 62.4831 22.5418 63.5871C22.8386 64.691 29.4011 74.0169 40.201 72.5669C41.3882 72.3527 39.7888 70.4085 39.1623 70.2602C38.5192 70.1119 31.3137 68.4972 25.3119 60.7366Z" fill="#323B53"/>
<path d="M25.3119 60.3083C25.3119 60.3083 22.245 62.0549 22.5418 63.1588C22.8386 64.2463 29.4011 73.5887 40.201 72.1387C41.3882 71.9245 39.7888 69.9803 39.1623 69.832C38.5192 69.6672 31.3137 68.0689 25.3119 60.3083Z" fill="#F4F4F4"/>
<path d="M51.3143 61.2476C51.1 61.264 50.968 61.2805 50.968 61.2805C50.968 61.2805 43.5153 62.714 38.8325 58.9243C38.8325 58.9243 39.624 61.3135 42.2621 62.6316L42.2786 62.5822C42.2786 62.5987 49.3687 64.1145 51.3143 61.2476Z" fill="#D99C70"/>
<path d="M52.1189 58.4598C52.351 58.2993 52.4678 58.0661 52.3797 57.9389C52.2916 57.8117 52.032 57.8386 51.7999 57.9992C51.5678 58.1597 51.451 58.3929 51.5391 58.5201C51.6272 58.6473 51.8867 58.6203 52.1189 58.4598Z" fill="#D99C70"/>
<path opacity="0.14" d="M52.1852 55.9157C52.3381 55.8914 52.4262 55.6459 52.3819 55.3673C52.3377 55.0887 52.1778 54.8825 52.0249 54.9068C51.872 54.931 51.784 55.1765 51.8283 55.4551C51.8725 55.7337 52.0323 55.9399 52.1852 55.9157Z" fill="white"/>
<path opacity="0.14" d="M52.1852 57.745C52.3381 57.7207 52.4262 57.4752 52.3819 57.1966C52.3377 56.918 52.1778 56.7119 52.0249 56.7361C51.872 56.7604 51.784 57.0059 51.8283 57.2845C51.8725 57.5631 52.0323 57.7693 52.1852 57.745Z" fill="white"/>
<path d="M52.3861 55.7607C52.3861 55.7607 50.1931 56.4692 49.1049 56.1727C49.1049 56.1727 49.5336 56.7988 52.3861 57.0295V55.7607Z" fill="#D99C70"/>
<path d="M48.5113 31.0288C48.5113 31.0288 51.0835 35.5105 40.2505 35.4611C40.2505 35.4611 38.7501 41.7717 39.9537 44.3915C39.9537 44.3915 33.9025 40.157 33.9849 39.7615C34.0509 39.3661 35.4524 32.5447 35.4524 32.5447L48.5113 31.0288Z" fill="#D99C70"/>
<path d="M35.914 49.1192L39.9537 44.4068C39.9537 44.4068 37.431 37.1076 39.9537 34.8338C39.9537 34.8338 48.3299 35.3281 49.6325 31.1924C49.6325 31.1924 38.4862 24.5358 25.8395 31.1924C22.3275 33.0378 19.2771 38.4422 20.9754 44.3739C22.6737 50.3055 26.2353 54.7872 26.2353 54.7872L27.0102 58.3792L34.6444 52.7441C34.6444 52.7441 30.209 51.3765 29.6814 48.1306C29.1537 44.8682 33.0945 45.0659 33.0945 45.0659L35.914 49.1192Z" fill="url(#paint9_linear)"/>
<path d="M80.6803 62.9578C80.6803 62.9578 72.1228 64.8032 71.2324 60.6181C71.117 59.8932 71.4467 59.5307 71.4632 59.3165C71.4962 58.7892 70.3915 58.9869 70.5069 58.196C70.6223 57.4051 70.3915 57.2239 70.7542 56.8614C71.0015 56.6143 70.7872 56.4001 70.6388 56.3012C70.5564 56.2518 70.5069 56.1694 70.5234 56.0705C70.5399 55.5927 70.6553 54.4228 71.3478 54.2086C71.3478 54.0109 68.6602 53.6649 68.5613 52.7093C68.4623 51.7536 69.5506 48.9361 71.6446 47.4037C71.6446 47.4037 69.6 45.9702 70.4904 43.4822C71.3808 40.9942 71.1664 39.0005 71.1664 39.0005C71.1664 39.0005 73.2275 33.4149 74.629 33.2172C76.0305 33.0194 83.4504 31.3059 87.3252 33.2172C95.6684 37.3199 95.6519 56.7461 95.6519 56.7461L97.6964 61.755C97.6964 61.755 93.0302 69.3344 84.1264 70.6525L80.6803 62.9578Z" fill="url(#paint10_linear)"/>
<path d="M68.5448 52.6772C68.5448 52.6772 68.3139 53.6163 72.2547 54.3084C72.4031 54.3413 72.2382 54.2589 71.9084 54.1271C71.2983 53.8635 70.1606 53.4021 69.8309 53.0232C69.3362 52.4465 68.5448 52.6772 68.5448 52.6772Z" fill="#D99C70"/>
<path d="M97.6635 61.1133C97.6635 61.1133 100.73 62.8598 100.434 63.9638C100.137 65.0512 93.5743 74.3936 82.7744 72.9437C81.5872 72.7295 83.1866 70.7852 83.8132 70.6369C84.4397 70.4886 91.6452 68.8739 97.6635 61.1133Z" fill="#0E3331"/>
<path d="M97.6635 60.6853C97.6635 60.6853 100.73 62.4318 100.434 63.5358C100.137 64.6233 93.5743 73.9656 82.7744 72.5156C81.5872 72.3014 83.1866 70.3572 83.8132 70.2089C84.4562 70.0441 91.6452 68.4294 97.6635 60.6853Z" fill="#F4F4F4"/>
<path d="M71.6611 61.6243C71.8755 61.6407 72.0074 61.6572 72.0074 61.6572C72.0074 61.6572 79.4602 63.0907 84.1429 59.301C84.1429 59.301 83.3515 61.6902 80.7133 63.0083L80.6968 62.9589C80.6803 62.9589 73.6068 64.4912 71.6611 61.6243Z" fill="#D99C70"/>
<path d="M71.4179 58.8871C71.5059 58.7599 71.3892 58.5266 71.157 58.3661C70.9249 58.2056 70.6653 58.1786 70.5772 58.3058C70.4891 58.433 70.6059 58.6663 70.838 58.8268C71.0702 58.9873 71.3298 59.0143 71.4179 58.8871Z" fill="#D99C70"/>
<path opacity="0.14" d="M71.1244 55.831C71.1687 55.5524 71.0806 55.3068 70.9277 55.2826C70.7748 55.2583 70.615 55.4645 70.5707 55.7431C70.5265 56.0217 70.6145 56.2672 70.7674 56.2915C70.9203 56.3157 71.0801 56.1096 71.1244 55.831Z" fill="white"/>
<path opacity="0.14" d="M71.1494 57.6569C71.1937 57.3783 71.1056 57.1328 70.9528 57.1085C70.7999 57.0843 70.64 57.2904 70.5958 57.569C70.5515 57.8476 70.6396 58.0932 70.7925 58.1174C70.9454 58.1417 71.1052 57.9355 71.1494 57.6569Z" fill="white"/>
<path d="M70.5729 56.1375C70.5729 56.1375 72.7658 56.846 73.8541 56.5494C73.8541 56.5494 73.4254 57.1755 70.5729 57.4062V56.1375Z" fill="#D99C70"/>
<path d="M74.4642 31.4055C74.4642 31.4055 71.892 35.8872 82.7249 35.8378C82.7249 35.8378 84.2254 42.1484 83.0217 44.7682C83.0217 44.7682 89.073 40.5337 88.9905 40.1382C88.9246 39.7428 87.5231 32.9214 87.5231 32.9214L74.4642 31.4055Z" fill="#D99C70"/>
<path d="M87.0613 49.4969L83.0216 44.7845C83.0216 44.7845 85.5444 37.4853 83.0216 35.2115C83.0216 35.2115 74.6455 35.7058 73.3429 31.5701C73.3429 31.5701 84.4891 24.9134 97.1358 31.5701C100.648 33.4155 103.698 38.8199 102 44.7515C100.302 50.6832 96.7401 55.1649 96.7401 55.1649L95.9651 58.7568L88.3309 53.1218C88.3309 53.1218 92.7663 51.7542 93.294 48.5083C93.8216 45.2458 89.8809 45.4436 89.8809 45.4436L87.0613 49.4969Z" fill="url(#paint11_linear)"/>
<path d="M88.8256 105.568C88.8256 105.568 75.305 108.567 83.1865 118.667C91.068 128.768 108.48 129.592 119.709 124.879C130.937 120.167 133.196 106.211 128.513 101.317C123.831 96.4072 97.6304 96.6379 96.8719 97.2805C96.13 97.8901 88.8256 105.568 88.8256 105.568Z" fill="#2D3146"/>
<path d="M88.2321 104.431C88.2321 104.431 74.7115 107.429 82.593 117.53C90.4745 127.63 107.886 128.454 119.115 123.741C130.344 119.029 132.603 105.073 127.92 100.18C123.237 95.286 97.0369 95.5002 96.2785 96.1428C95.5365 96.7524 88.2321 104.431 88.2321 104.431Z" fill="url(#paint12_linear)"/>
<path opacity="0.63" d="M105.964 115.281C117.428 115.281 126.723 108.671 126.723 100.518C126.723 92.3641 117.428 85.7544 105.964 85.7544C94.4986 85.7544 85.2045 92.3641 85.2045 100.518C85.2045 108.671 94.4986 115.281 105.964 115.281Z" fill="#303E65"/>
<path d="M104.77 114.268C119.568 114.268 131.564 102.281 131.564 87.4936C131.564 72.7063 119.568 60.7188 104.77 60.7188C89.9722 60.7188 77.9762 72.7063 77.9762 87.4936C77.9762 102.281 89.9722 114.268 104.77 114.268Z" fill="url(#paint13_radial)"/>
<path d="M101.406 105.354C108.718 102.959 112.487 94.4374 109.825 86.3192C107.163 78.201 99.0774 73.5607 91.7659 75.9549C84.4543 78.3492 80.6852 86.8712 83.3473 94.9894C86.0094 103.108 94.0946 107.748 101.406 105.354Z" fill="url(#paint14_linear)" stroke="url(#paint15_linear)" stroke-miterlimit="10"/>
<path d="M105.999 87.9691C107.991 93.7985 105.169 99.9264 99.6893 101.637C94.21 103.348 88.1702 100.026 86.157 94.1965C84.1438 88.367 86.9872 82.2391 92.4665 80.5281C97.9459 78.8171 104.006 82.1397 105.999 87.9691Z" fill="url(#paint16_radial)" stroke="#3CEDE4" stroke-miterlimit="10"/>
<path d="M100.406 90.3944C100.834 93.035 99.2355 95.4909 96.8373 95.8742C94.4392 96.2575 92.1553 94.412 91.7414 91.7715C91.3131 89.1309 92.9119 86.675 95.31 86.2917C97.7081 85.9084 99.9777 87.7397 100.406 90.3944Z" fill="url(#paint17_radial)" stroke="url(#paint18_linear)" stroke-width="4" stroke-miterlimit="10"/>
<path d="M98.5575 90.2141C99.051 91.8458 98.344 93.5634 96.9834 94.0358C95.6095 94.5224 94.1022 93.5777 93.5954 91.946C93.0885 90.3143 93.8088 88.5967 95.1694 88.1243C96.5299 87.652 98.0639 88.5824 98.5575 90.2141Z" fill="url(#paint19_linear)"/>
<path d="M96.954 65.9933C96.954 65.9933 89.3052 80.3277 104.701 78.0702C110.836 76.6248 113.928 75.0331 116.764 73.1329C118.798 71.7687 120 70.3232 123.364 68.8615C120.689 64.4277 96.954 65.9933 96.954 65.9933Z" fill="#323B54"/>
<path d="M95.7333 91.1138C95.8712 91.8373 96.4072 92.3025 95.764 92.3929C95.1054 92.4834 94.4774 91.9665 94.3396 91.243C94.2017 90.5194 94.6153 89.8605 95.2739 89.77C95.9171 89.6796 95.5955 90.3902 95.7333 91.1138Z" fill="#FDFFFF"/>
<path d="M123.979 68.8075C119.115 63.7986 112.305 60.7009 104.77 60.7009C104.638 60.7009 104.506 60.7009 104.374 60.7009C99.1639 62.3157 94.1349 65.9735 95.6354 74.113C97.2347 80.1436 109.585 77.3425 118.62 71.312C120.5 70.0598 122.429 69.2853 123.979 68.8075Z" fill="url(#paint20_linear)"/>
<defs>
<linearGradient id="paint0_linear" x1="62.6133" y1="99.1729" x2="62.6133" y2="115.849" gradientUnits="userSpaceOnUse">
<stop offset="0.015625" stop-color="#49577E"/>
<stop offset="1" stop-color="#515E81"/>
</linearGradient>
<linearGradient id="paint1_linear" x1="61.163" y1="90.8657" x2="61.163" y2="104.772" gradientUnits="userSpaceOnUse">
<stop stop-color="#2D3142"/>
<stop offset="0.640625" stop-color="#6C7495"/>
<stop offset="1" stop-color="#4F5778"/>
</linearGradient>
<linearGradient id="paint2_linear" x1="60.9239" y1="8.99312" x2="60.9239" y2="94.9692" gradientUnits="userSpaceOnUse">
<stop stop-color="#697693"/>
<stop offset="0.995" stop-color="#3C4563"/>
</linearGradient>
<linearGradient id="paint3_linear" x1="60.8605" y1="12.2932" x2="60.8605" y2="89.7625" gradientUnits="userSpaceOnUse">
<stop stop-color="#7881A0"/>
<stop offset="1" stop-color="#6B7494"/>
</linearGradient>
<linearGradient id="paint4_linear" x1="60.9735" y1="15.5016" x2="60.9735" y2="86.8628" gradientUnits="userSpaceOnUse">
<stop stop-color="#3CEEE5"/>
<stop offset="1" stop-color="#24BAB1"/>
</linearGradient>
<linearGradient id="paint5_linear" x1="61.1631" y1="88.8508" x2="61.1631" y2="93.7882" gradientUnits="userSpaceOnUse">
<stop stop-color="#D1D8E1"/>
<stop offset="0.995" stop-color="#9CA8B7"/>
</linearGradient>
<linearGradient id="paint6_linear" x1="29.3375" y1="113.769" x2="95.8817" y2="113.769" gradientUnits="userSpaceOnUse">
<stop stop-color="#3A4562"/>
<stop offset="0.995" stop-color="#2D3549"/>
</linearGradient>
<linearGradient id="paint7_linear" x1="29.6087" y1="112.553" x2="96.9541" y2="112.553" gradientUnits="userSpaceOnUse">
<stop stop-color="#3E4D75"/>
</linearGradient>
<linearGradient id="paint8_linear" x1="54.4027" y1="51.1237" x2="25.2593" y2="51.1237" gradientUnits="userSpaceOnUse">
<stop stop-color="#EFC8A9"/>
<stop offset="0.995" stop-color="#FFAC6A"/>
</linearGradient>
<linearGradient id="paint9_linear" x1="49.6293" y1="43.3025" x2="20.4887" y2="43.3025" gradientUnits="userSpaceOnUse">
<stop stop-color="#5F6160"/>
<stop offset="0.995" stop-color="#070707"/>
</linearGradient>
<linearGradient id="paint10_linear" x1="68.5519" y1="51.4833" x2="97.6933" y2="51.4833" gradientUnits="userSpaceOnUse">
<stop stop-color="#EFC8A9"/>
<stop offset="0.995" stop-color="#FFAC6A"/>
</linearGradient>
<linearGradient id="paint11_linear" x1="73.3398" y1="43.6802" x2="102.48" y2="43.6802" gradientUnits="userSpaceOnUse">
<stop stop-color="#5F6160"/>
<stop offset="0.995" stop-color="#070707"/>
</linearGradient>
<linearGradient id="paint12_linear" x1="82.8687" y1="110.01" x2="125.504" y2="115.339" gradientUnits="userSpaceOnUse">
<stop stop-color="#425079"/>
<stop offset="0.135417" stop-color="#687599"/>
<stop offset="0.286458" stop-color="#7F8CAF"/>
<stop offset="0.421875" stop-color="#687599"/>
<stop offset="0.995" stop-color="#3B4971"/>
</linearGradient>
<radialGradient id="paint13_radial" cx="0" cy="0" r="1" gradientUnits="userSpaceOnUse" gradientTransform="translate(99.5951 87.4896) scale(31.9656 31.943)">
<stop stop-color="white"/>
<stop offset="0.594916" stop-color="#5B6287"/>
<stop offset="1" stop-color="#313A52"/>
</radialGradient>
<linearGradient id="paint14_linear" x1="82.8688" y1="86.6811" x2="111.037" y2="93.2953" gradientUnits="userSpaceOnUse">
<stop stop-color="#C4C4C4"/>
<stop offset="0.203125" stop-color="#D1D7E0"/>
<stop offset="0.338542" stop-color="#929297"/>
<stop offset="0.916667" stop-color="white"/>
</linearGradient>
<linearGradient id="paint15_linear" x1="91.7659" y1="75.9549" x2="101.394" y2="105.358" gradientUnits="userSpaceOnUse">
<stop stop-color="#3BECE3"/>
</linearGradient>
<radialGradient id="paint16_radial" cx="0" cy="0" r="1" gradientUnits="userSpaceOnUse" gradientTransform="translate(96.1214 91.0983) rotate(-17.4385) scale(10.9844 10.6131)">
<stop offset="0.2079" stop-color="#8191A3"/>
<stop offset="1" stop-color="#29394A"/>
</radialGradient>
<radialGradient id="paint17_radial" cx="0" cy="0" r="1" gradientUnits="userSpaceOnUse" gradientTransform="translate(96.0709 91.0796) rotate(-9.01889) scale(4.64776 4.6236)">
<stop stop-color="#8191A3"/>
<stop offset="0.4307"/>
</radialGradient>
<linearGradient id="paint18_linear" x1="100.555" y1="92.7847" x2="91.5997" y2="89.3402" gradientUnits="userSpaceOnUse">
<stop stop-color="white"/>
<stop offset="0.245" stop-color="#F8F8F8"/>
<stop offset="0.4728" stop-color="#C7CFD9"/>
<stop offset="0.6955" stop-color="#909094"/>
<stop offset="1" stop-color="#DEE2E7"/>
</linearGradient>
<linearGradient id="paint19_linear" x1="94.8271" y1="93.7137" x2="97.6099" y2="88.5924" gradientUnits="userSpaceOnUse">
<stop stop-color="#25BEB5"/>
<stop offset="1"/>
</linearGradient>
<linearGradient id="paint20_linear" x1="103.177" y1="79.8402" x2="113.658" y2="61.6736" gradientUnits="userSpaceOnUse">
<stop stop-color="#AEB4CB"/>
<stop offset="0.567708" stop-color="#5D6382"/>
<stop offset="0.838542" stop-color="#353C5B"/>
</linearGradient>
</defs>
</svg>
