<svg width="140" height="140" viewBox="0 0 140 140" fill="none" xmlns="http://www.w3.org/2000/svg">
<g clip-path="url(#clip0)">
<ellipse cx="70" cy="105.393" rx="58.6705" ry="32.3699" fill="url(#paint0_linear)"/>
<path d="M111.003 61.8644C111.003 89.9954 88.134 112.966 59.9524 112.966C47.1518 112.966 35.4137 108.21 26.4077 100.367C15.6815 90.9567 8.90173 77.1947 8.90173 61.8644C8.90173 61.0043 8.90173 60.1947 8.95233 59.3852C8.95233 59.1828 8.95233 58.9298 9.00292 58.7275C9.05352 57.8673 9.10411 56.9566 9.2559 56.0965C9.45828 54.4775 9.71126 52.909 10.0148 51.29C10.116 50.784 10.2678 50.2275 10.369 49.7215C10.5208 49.0638 10.7232 48.406 10.875 47.7989C11.5833 45.3197 12.494 42.9417 13.5059 40.6649C13.9107 39.8048 14.366 38.9447 14.7708 38.0846C14.7708 38.034 14.8214 37.9834 14.872 37.9328C14.9226 37.8316 14.9732 37.6798 15.0744 37.5786C15.0744 37.528 15.125 37.528 15.125 37.4774C15.9345 36.0102 16.744 34.6441 17.7053 33.278C18.9702 31.406 20.3363 29.6352 21.8541 27.9655C22.2589 27.5102 22.6637 27.0548 23.0684 26.5995C23.6756 25.9417 24.3333 25.284 24.991 24.6768C25.6994 24.0191 26.4583 23.3614 27.2172 22.7036C28.8363 21.3375 30.5565 20.0727 32.378 18.909C32.4791 18.8584 32.5803 18.8078 32.6815 18.7066C34.9583 17.2393 37.3869 15.9744 39.8661 14.9119C40.119 14.8107 40.372 14.7096 40.5744 14.6084C40.625 14.6084 40.6756 14.5578 40.7262 14.5578C42.2946 13.9506 43.9137 13.3435 45.5327 12.8881C46.2917 12.6352 47.0506 12.4328 47.8601 12.281C48.1637 12.1798 48.4673 12.1292 48.8214 12.028C51.9077 11.3197 55.0952 10.9149 58.4345 10.8137C58.6875 10.8137 58.9405 10.8137 59.2441 10.8137C59.497 10.8137 59.75 10.8137 60.003 10.8137C73.7143 10.8137 86.1608 16.2274 95.3185 25.031C104.982 34.2899 111.003 47.3941 111.003 61.8644Z" fill="url(#paint1_radial)"/>
<path d="M38.4495 96.3167V96.0131L38.3483 95.6589L38.4495 95.5577V95.3553L38.3483 95.2036V94.9506L38.1459 94.8494L38.0447 95.0012V95.2541L37.7917 95.5577H37.7411L37.64 95.7601L37.7411 95.8613L37.5388 96.0637V96.3167L37.1846 96.6708L37.0834 96.5696L36.881 96.772L36.7798 97.025L36.4257 97.1768L36.1727 97.4803H35.8185L35.7173 97.3792L35.6667 97.4803H35.2114L35.0596 97.6321L34.9584 97.5309L34.8066 97.6321H34.7054L34.8066 97.7333L34.5536 97.9863L34.3007 98.2899L34.503 98.5428L34.3513 98.644L34.4019 98.6946V98.9476L34.503 99.3524L34.6042 99.5547V99.6559V99.7571V99.8583L34.4525 100.314L34.3513 100.415L34.2501 100.769H34.1995L34.0983 100.87V101.123L33.8959 101.326L33.7441 101.376V101.579L33.5417 101.781V102.186L33.7947 102.489L33.7441 102.59H33.8453V102.995L33.6935 103.096V103.501L33.7947 103.602L33.8959 103.704L33.9971 103.855L34.1489 103.805L34.2501 103.957L34.4525 104.159H34.7054L34.8066 104.108L34.9078 103.906L35.515 103.855H35.6667L35.7679 103.805L35.8691 103.704L35.9703 103.552L36.0715 103.349V103.147L36.1727 103.046L35.9703 102.843L36.2739 102.641V102.287H36.5269V102.236L36.628 101.781L36.7292 101.528V101.427L36.8304 101.073L37.0834 100.82L37.2858 100.162L37.387 100.01V99.8077L37.4882 99.5547L37.5388 99.403L37.6905 99.15L37.7917 98.7958L37.8929 98.4923L37.9435 98.3911L37.9941 98.2899L37.8929 98.1887V97.8345L38.1459 97.6321V97.5309L38.2471 97.4297L38.0447 97.2274L38.1459 97.1262V96.4684H38.6519L38.7531 96.5696L38.4495 96.3167ZM26.6608 100.567L26.762 100.668V100.617C26.7114 100.617 26.6608 100.567 26.6608 100.567ZM26.762 100.668L26.7114 100.82L26.8126 100.718L26.762 100.668ZM39.6638 77.6976L39.512 77.5458L39.6132 77.2928L39.4614 77.141L39.5626 77.0398H39.2084L39.1072 77.141L38.9048 77.2422L38.7025 77.4446L38.6013 77.3434L38.3989 77.4446L37.8929 77.5458H37.6905L37.5894 77.4446H37.4882L37.2858 77.5458H37.0834L36.881 77.647L36.7292 77.5458H36.6786L36.2233 77.8494L35.9197 77.9506H35.8185H35.3632L35.1608 78.0517H35.009L34.9078 78.1529L34.8066 78.2541L34.503 78.3553L34.1995 78.2541L34.0983 78.1529H33.9971L33.8959 77.9L33.4405 77.394L33.3394 77.4446H33.1876L32.5804 76.8375H33.2382L33.3394 76.6857H33.4405L33.4911 76.6351V76.5339L33.4405 76.4833L33.1876 76.3821H32.9852L32.7828 75.8762L32.6816 75.775L32.5804 75.5726H32.4792L32.2769 75.3702L32.1251 75.269L31.9227 75.0666L31.6697 74.8137L31.4673 74.7125L31.3661 74.6113L31.2649 74.7125L31.1638 74.6113L31.0626 74.7125L30.9614 74.6113L30.3542 74.3583L30.253 74.1053L30.2024 74.0041L30.1013 73.9029V73.8017H30.0001L29.7977 73.0428L29.5447 72.2839L28.9882 71.7273H29.2917V71.4744L29.0894 71.3732L28.8364 71.272L28.5834 70.9178L28.4822 70.4625L28.5328 70.2095L28.4822 69.9565L28.2798 69.3494V69.0458V68.9446L28.1786 68.8434L28.0774 68.7422V68.641L27.9763 68.5398V68.3881H27.9257L27.6221 68.1351L27.3691 68.0339V67.9327H27.2173L26.9138 67.6797L26.6608 67.0726L26.762 66.9714L26.7114 66.9208V66.8196L26.6102 66.7184L26.509 66.4654L26.256 66.1619L26.0536 66.0607L25.9524 65.8077L25.4465 65.0488V64.7958L25.3959 64.6946L25.3453 64.4416L25.2441 64.3404V64.2898L24.9911 64.0369V63.7333L25.0417 63.6321L24.637 63.2273L24.5358 63.0249L24.2322 62.6202V62.4684L24.0804 62.266V61.9625L24.384 61.6083L24.4346 61.6589L24.3334 61.3553L24.1816 61.2541L24.0804 61.0517H23.5745L23.3215 61.1529L23.2203 61.0517L23.1191 61.1529L22.9167 61.2541L22.6637 61.5071H22.259L22.006 61.3553H22.0566L21.8542 61.2541L21.753 61.3553L21.4495 61.1023L21.2471 61.0517L20.6399 60.9505H20.4376L20.1846 61.2035L19.9822 60.6976L19.881 60.5964L19.7798 60.647L19.1727 60.5458L19.1221 60.4952H19.0209V60.6976L18.5149 60.394H18.4137L18.1608 60.3434L18.1102 60.394L17.8572 60.2928L17.7054 60.394L17.3006 60.4952L17.0477 60.5964L16.9465 60.6976L16.8453 60.8999L16.7947 60.9505V61.2035L16.8959 61.3553L16.9971 61.7601L16.8959 62.013L16.5923 62.3166L16.2887 62.5696L15.9852 62.6708L15.4792 62.4178L15.1756 62.1648L14.9733 62.0636L14.6697 61.9625L14.1637 61.7601H14.0625H13.6072L13.253 61.5071L13 60.8999V60.6976L12.9495 60.5964L12.5953 60.5458L12.3423 60.394H11.9881L11.7858 60.3434L11.2798 60.394L10.7739 60.2928L10.5715 60.0904H10.4703H10.4197L10.1667 59.8374L10.1161 59.7868L10.0149 59.888L9.76195 59.6351H9.71135L9.30659 59.3821L9.25599 59.2809C9.2054 60.0904 9.2054 60.9505 9.2054 61.7601C9.2054 77.0904 15.9852 90.903 26.7114 100.263V100.212L26.6102 99.9595L26.7114 99.8583L26.6608 99.8077V99.403H27.0149H27.0655H27.1161V99.3018L27.7233 98.897H27.8245L27.8751 98.8464V98.7452L28.1786 98.5428L28.2292 98.4417L28.2798 98.3911L28.5328 97.6321L28.5834 97.7839V97.5815L28.9376 97.9357L29.0894 97.8345H29.1399V97.5815L29.5447 97.7333L29.7977 97.5815L29.8483 97.4803H30.1519L30.4554 97.3286V97.0756H30.759V96.9744L30.8096 96.8732L30.5566 96.6202L30.8096 96.3672L31.012 96.1649V96.0131V95.9119H30.9614L30.759 95.7095V95.4565L30.506 95.2036H30.9614V95.0518L30.8602 94.7988L30.9614 94.6976L30.9108 94.647V94.2422L30.8096 93.8375V93.5845L30.9108 93.4833L30.8096 93.3821L31.012 93.1797V93.1292L30.9614 93.0785L30.759 92.9774L30.3542 92.5726L30.4554 92.3196V92.269L30.3036 92.1172L30.4048 91.9149L30.3542 91.8137L29.8989 91.3583H30.506L30.4048 91.2065L30.506 91.1053L30.4048 91.0041V90.5994L30.506 90.3464L30.6072 90.2452L30.5566 89.9922L30.4554 89.8911V89.5875L30.6578 89.2839L30.8602 88.7274L30.4554 88.3226H31.1132L31.3155 87.9684L31.4167 87.766V87.5637L31.6697 87.3107V87.0071L31.8215 86.8553V86.7541L32.0239 86.5518H32.2263H32.3274L32.5298 86.3494H32.5804L33.1876 85.641V86.4L33.2888 86.2482L33.39 86.0458L33.6429 85.7928L33.7441 85.7422L33.7947 85.641L33.8959 85.5399L34.3513 85.0339L34.503 84.9327L35.009 84.4268L35.262 84.2244L35.515 84.022L35.7679 83.9208L36.0715 83.6678L36.8304 82.9595L37.2352 82.5041L37.2858 82.3523L37.7917 81.6946V81.5934L38.0447 81.1887V80.9863L38.5001 80.1262V80.025V79.772L38.8036 79.4684H38.9048L38.9554 79.4178L39.1072 79.0637L39.3602 78.7095V78.6083H39.0566L39.6638 78.0012H39.5626L39.6638 77.6976ZM79.887 87.766L79.7858 87.6649L79.7352 87.5637L79.634 87.4625L79.5329 87.5131L79.1281 87.3613V87.1083L79.0269 87.0071L79.2293 86.9565L78.9763 86.8553V86.7541V86.6529V86.6024L78.7233 86.7035V86.5518H78.521L78.1668 86.1976V86.147L77.2055 86.7541L78.015 85.641H77.2561L77.6102 85.2869H77.509L77.1549 84.8821V84.6797L76.9525 84.4773L76.8513 84.5785L76.5477 84.3256V84.275L75.6876 83.9208H75.8394L75.4852 83.3137V83.1113H75.3335L75.1817 82.9089L74.9287 82.6559H74.7263L74.5239 82.4535H74.1698V81.9982H74.0686L74.018 81.7958H73.9674L73.8662 81.5428H73.8156L73.5626 81.644L73.4614 81.5428H73.4108L73.1579 81.644L72.9049 81.5428L72.6013 81.2899L72.7025 81.5428L72.8543 81.5934L73.1073 81.897H73.2085L73.4108 82.15L73.512 82.0488L73.9674 82.3523L74.2204 82.7571L74.3721 82.8583H74.6251V83.2631V83.3643H74.8275L75.0299 83.6678H75.0805H75.3335V83.9714H75.384L75.4346 84.2244V84.275L75.5864 84.6797V84.7303H75.6876L76.0418 84.9833V85.2363L76.143 85.4387L76.3454 85.641L76.4465 86.0458L76.7501 86.5518L76.6489 86.8047L76.6995 86.9059L76.9019 87.0071L77.2055 87.3613L77.2561 87.5131L77.5596 87.5637V87.7155L77.8126 87.8166V87.9684H77.9138L78.1668 88.272L78.5715 88.525V88.6262H78.7739L79.2293 89.0815H79.4823L79.5329 88.8285L79.887 88.9297L79.9882 88.6262L79.887 88.3732L79.9882 88.1202L79.9376 88.0696L79.887 87.766ZM90.4109 88.6768L90.3097 88.7779V88.9803L90.2085 89.1321V89.2839H90.3097V88.9803L90.4109 88.8791V88.7779V88.7274V88.6768ZM92.0299 88.5756V88.4744H91.9287L91.8275 88.0696H91.6757L91.8781 87.8166L91.7769 87.5637L91.5745 87.3613L91.4733 87.2095L91.271 87.0577V86.8553L91.018 86.7541L90.8662 86.7035L90.6132 86.4506L90.4109 86.1976L90.3097 86.3494H90.2085L90.3097 86.5518L90.2085 86.7541V87.0071L90.1579 87.1083V87.3107L90.0567 87.4119V87.6649L89.8037 87.766V88.019H90.2591V88.3732L90.4109 88.6768L90.6132 88.272L90.5626 88.1708L90.4614 87.9684V87.7155L90.7144 87.5637L90.8156 87.4625L91.2204 87.3107L91.4733 87.5637L91.6251 87.8166V88.1708L91.5239 88.272L91.6251 88.3732L91.9287 88.525V88.8791L92.0299 88.7779H92.1817L92.0299 88.5756ZM88.2858 81.9982H88.387V81.5428L88.8424 81.897V81.4922L88.64 81.2393H88.5894H88.3364V80.8851L88.1341 80.6321L88.0329 80.7333H87.9317V80.8345H87.8305L87.7293 81.0369V81.2393L87.3245 81.644L87.2233 81.897H87.0716H86.9704L86.4644 82.7571V81.897L86.2114 81.9476V81.9982V82.2006L85.8573 82.5547L85.6549 82.8077V82.9089L85.4525 83.2125L85.1995 83.4148L84.7442 83.516L85.2501 84.275L84.4406 83.8702V84.0726L84.2888 83.9714V84.1738L84.1876 84.4268V84.7303L83.5299 84.6291L83.2769 84.4773H82.9733L82.8721 84.275L82.771 84.5279L82.6698 84.6291V84.7809V84.9327V85.0845L82.771 85.2869L82.9733 85.4893H83.0239L84.5418 84.7303L83.2769 86.0458L83.4287 86.2482L83.5299 86.4V86.7541L83.4287 86.8553L83.5299 86.9059V87.4119L83.7323 87.2601L83.8335 87.5131H83.9347L84.0358 87.6143L84.2382 87.5131H84.2888L84.5418 87.1589L84.7948 87.6649V87.9178L84.9466 87.8166L85.0477 87.9178L85.1995 87.8672L85.2501 87.6649H85.6549L85.7561 87.766H85.9585L86.0596 87.6143L86.3126 87.9684L86.515 87.8672L86.5656 88.019H86.6668L86.9198 88.3226L86.8186 88.3732L86.9704 88.3226H87.1222L87.2739 88.2214L87.3751 87.9684V87.4625L86.6668 87.766L87.4257 87.0071L87.1222 86.7035H87.7293L87.8305 86.6024L87.1727 86.1976H88.0329V86.0964L88.2858 85.894V85.5399L88.387 85.4387V85.0339H88.4882L88.6906 84.7809L88.5894 84.2244L88.2858 84.0726L88.7412 83.769L88.5388 83.5666V83.4148L88.2858 83.2125L88.4882 82.9595L88.3364 82.6559L88.387 82.6053L88.0329 82.5041L88.4882 82.2512L88.2858 81.9982ZM95.4198 88.019H95.3186H95.4704H95.4198ZM92.0299 86.3494H91.9287L91.7263 86.4L91.6251 86.2988L91.5745 86.3494L91.4733 86.5518H91.6251L91.7263 86.4506L92.0299 86.3494ZM91.4228 84.8821L91.3216 84.7303L91.1192 84.9327H91.1698H91.271L91.4733 84.8821H91.4228ZM78.015 84.5279L78.0656 84.4773V84.4268L78.015 84.5279ZM78.1668 84.022L78.0656 83.9208V83.8196L77.9644 83.7184L77.8632 83.516L77.4079 83.0607L77.7114 82.8583V82.6559L77.6102 82.5547V82.2006L77.7114 82.0994V81.6946V81.5934L77.6102 81.391L77.1043 80.8851H76.5983V80.7333L76.4971 80.6827L76.3959 80.4297V80.3285H76.143L75.9406 80.5309L75.4346 80.025L75.1817 79.9744V79.4684L75.4852 79.3672L75.384 79.266V79.0637H75.2829L75.1817 78.9119L74.9793 78.7095V78.6083L74.4733 78.7095L74.2204 78.4565L74.3215 78.2541L74.2204 78.1023V78.0012L74.1698 77.8494L74.0686 78.1529L74.1698 78.2541L74.0686 78.3553H74.1698V78.9625L74.4227 78.8613V79.2154L74.5239 79.3166V79.4178L74.6251 79.4684L74.6757 79.6708H74.7263L74.9793 79.9744L75.0805 80.025L75.1311 80.1262H75.2829V80.4297L75.4852 80.5309L75.5864 80.6321L75.7888 80.9357L75.89 81.5428L75.9406 81.6946L76.0418 81.9476L75.9406 82.3523L76.1936 82.6053L76.0924 82.7065L76.1936 82.8077L76.2948 82.9595L76.4971 83.0607L76.6995 83.4654L76.5983 83.5666L77.0031 84.0726L77.2561 83.9714L77.3573 84.0726H77.762L77.509 84.275L77.6608 84.4268L77.9138 84.4773L78.015 84.5279V84.3256L78.268 84.5785V84.4268L78.1668 84.022ZM76.4971 83.5666L76.3454 83.7184L76.2948 83.9208H76.5477L76.4971 83.5666ZM75.9406 83.8196L75.8394 83.9208H76.0418L75.9406 83.8196ZM93.6995 80.3285V80.3791L93.7501 80.5309H93.9525L94.1043 80.6321L93.6995 80.3285ZM62.1281 79.8732V79.772L61.9257 79.3672V79.3166H61.7233V79.2154H61.1162L61.0656 79.4684V79.6202L61.1668 79.8732L61.1162 79.9744L61.2174 80.2273L61.3186 80.6321H61.4703L61.5715 80.5815H61.9257L62.0269 80.5309L62.1281 80.4297L62.2293 80.2273L62.1281 79.8732ZM94.762 79.1648L94.6609 78.8107L94.762 78.6083L94.6609 78.5071V79.0131L94.4079 78.8107L94.2055 79.0637L94.1043 78.9625V79.0637L93.6489 79.3166L93.396 79.4178L93.6489 79.6708L94.1043 80.5309L94.2055 80.4297L94.0537 80.3285L94.1549 80.025L94.4079 79.5696L94.762 79.4684V79.1648ZM92.89 79.0637V79.1648L92.9406 79.0637H92.89ZM61.3691 78.8613V78.5577H61.268V78.8107H61.1162V79.0637L61.4198 78.8613H61.3691ZM27.8751 24.269L27.7739 24.2184V24.3195L28.0268 24.3701L27.8751 24.269ZM28.381 23.257V23.1559L28.2798 23.1053L28.0268 22.8523V22.7005L27.7739 22.6499L27.5715 22.7005L27.7739 23.0041V23.1053L27.9763 23.3076L27.7739 23.51L27.8751 23.763L27.6727 23.8136V24.0666V24.1172L27.8245 24.1678V23.8136L27.9257 23.7124L27.8751 23.6618L28.1786 23.3582H28.381V23.257ZM96.8364 40.5606L97.0388 40.3583V40.3077L96.9376 40.1559V39.9535H96.887L96.7859 39.3463L96.6847 39.2452V38.9922L96.5329 38.8404L96.3811 38.4862L96.4317 38.4356H96.3811L96.1787 37.7779V37.6261L96.1281 37.5249L96.0269 37.0696L96.0775 37.019L95.9763 36.7154L96.0269 36.6142L95.9257 36.513L96.0269 36.4118L95.9257 36.3106L95.8245 36.0577L95.7234 36.0071L95.4704 35.7541V35.3999L95.521 35.3493L95.4704 35.2481H95.268L94.8632 34.8434L95.0656 34.641V34.5398V34.4386H94.9644L94.8632 34.2868H94.762L94.6609 34.1856L94.3067 34.0338L94.2561 33.9832L94.0537 33.8821L93.9019 33.7303L93.8513 33.6291H93.5984L93.5478 33.5785L93.4972 33.6291H93.396L93.4972 33.7303H93.3454V33.9327H93.2442L93.143 34.135V34.1856L93.0418 34.2868L93.143 34.388L93.0418 34.641L92.5359 35.1469V34.9446L92.1311 35.0457L92.0299 34.9446V34.9952L91.4228 34.4892L91.5239 34.2362V34.135L91.3216 33.8821V33.5279L91.1698 33.5785L90.9674 33.7809H90.6132L90.512 33.6797L90.4109 33.7303L90.0567 33.5785L89.9049 33.2243L90.1073 32.769L90.2085 32.6172V32.4148L90.4109 32.2124V31.9594L90.6132 31.8077V31.5547L90.7144 31.4535V31.4029L90.9168 31.1499L91.018 30.9475L91.1192 30.8463L91.018 30.6946L91.1192 30.5934V30.391L91.2204 29.7838H91.3216L91.3722 29.5309H91.4228V29.4803L91.6757 29.1767L91.7769 28.9743L91.8781 28.8731L91.7769 28.6201L91.8781 28.519V28.3672L91.9793 28.266L91.9287 28.1648V27.8612L91.8275 27.6082L92.0805 27.2541L92.2323 27.0517V26.9505L92.0299 26.6469L92.1311 26.3434L92.2829 26.1916L92.3841 25.9892L92.637 25.7868L92.7382 25.5338H93.143V25.5844L93.3454 25.4326H93.5478L93.7501 25.2809H94.0537L94.2055 25.1291H94.4585L94.5597 24.8761L94.9138 25.0279L95.268 24.8761L95.521 24.9773C86.3632 16.1737 73.9168 10.76 60.2055 10.76C59.9525 10.76 59.6995 10.76 59.4465 10.76L59.2441 10.9624H59.0924L58.2322 11.8225L58.637 10.8106C55.3483 10.9118 52.1608 11.3166 49.0239 12.0249L49.5804 12.1767H48.1132C47.3543 12.3791 46.5447 12.5814 45.7858 12.7838L45.9376 13.0368V13.2392H45.9882L46.0894 13.5428L46.1906 13.5933H46.2918L46.6965 13.6439L47.2025 13.138V13.6945L47.3037 13.8463L47.4048 13.9475L47.506 14.0487H47.8096L48.0626 14.2005H48.1132L48.4168 14.5041L48.5179 15.01L48.6191 15.263L48.5685 15.3642L48.7709 15.4654L49.0745 15.9207V16.1737L49.2769 16.3255L49.3781 16.6291L49.2769 16.9326H49.3275V17.0338L49.7322 17.4386L49.7828 17.4892L49.8334 17.4386L50.0358 17.5398L50.1876 17.4386L50.9465 17.2362L50.7441 17.4892L50.8453 17.5904L50.9465 17.641H51.2501L51.7054 19.007L50.8959 18.1975H50.6935L50.39 17.9445V18.1975V18.2481L50.8959 19.513L49.8334 18.4505H49.5804L49.2769 18.1469V17.8939L49.0745 17.8434H48.7709L48.265 17.5398H47.8602L47.759 16.7808L47.8602 16.5785L47.6072 16.3761V16.0725L47.506 15.8195L47.759 15.6172V15.4148L47.6578 15.2124L47.5566 15.1112L47.4048 15.2124L46.8989 15.3136H46.5953L46.2918 15.01L46.0894 14.9088L46.0388 14.8076L45.6846 14.757L45.4316 14.5041L45.3304 14.4029H44.7739L45.0269 14.5041L45.3304 15.01L45.0775 15.516L44.7233 15.6172L44.2679 15.4148L44.1667 15.3642L44.1162 15.2124H44.0656L43.9644 15.3136L43.9138 15.3642H44.015L44.1162 15.6172L44.2173 15.7183H44.4703L44.6727 15.9207H44.8751L44.9257 15.8701H45.2293L45.3304 16.0219H45.5834L45.6846 16.3255L45.7352 16.3761V16.4773H45.8364L47.0507 15.9713L45.9882 17.0338L46.2412 17.641L45.634 17.0338H45.4316L44.9763 16.7303H44.7233L44.3691 17.0844L44.2679 16.7303H44.1667H43.762L43.6102 16.6291L43.3572 16.7303L43.1042 16.1231L43.256 16.0725L43.1548 15.9713V15.9207L43.0031 15.7183L42.9019 15.4654L42.6489 15.7183L42.6995 15.7689L42.7501 16.3761L42.6489 16.6797L42.8513 16.7808L43.256 17.135V17.2362H43.3572L43.6102 17.4892L43.8632 17.8939L43.8126 18.5011V18.6023L43.9644 18.8553L43.8632 19.2094V19.26L44.1162 19.513L44.2173 19.766L44.3185 19.7154L44.5209 19.766V19.7154L44.8245 19.4118L45.0775 19.513L45.2798 19.4118L45.5328 19.5636L45.7858 19.4624L45.887 19.766L46.0894 19.8672H46.4435L46.7471 20.2213V20.2719L46.8989 20.3731L47.0001 20.5755L47.1013 20.6767L47.1519 20.7779L47.8096 21.0309L47.1013 21.3344L47.2025 21.4356L47.4048 21.638L47.3543 21.7392V21.8404L47.6072 21.4862L47.7084 21.7898H47.8096L48.1638 22.144L47.8602 22.3969L47.6072 22.4981L47.4048 22.5993L47.1013 22.7005L46.8483 22.4981H46.6459L46.2412 22.0934L46.3423 21.9922V21.891L46.2412 21.7898L45.9376 21.6886L46.0388 21.4356H45.9376L45.8364 21.1826L45.5328 20.9803V20.7779L45.381 20.9297L45.1787 21.0309L45.0775 21.132L44.9763 21.2332L45.0269 21.4862V21.5368L45.3304 21.6886L45.5834 22.4475L45.4822 22.7005L45.2798 22.9535V23.0547L45.4822 23.3076L45.2798 23.763V23.9654L45.0775 24.1678V24.4207L44.8245 24.5219V24.7749L44.4703 25.0785L44.015 24.9773L43.9644 24.9267H43.8632L43.5596 25.0279L43.3066 24.8761L42.6995 24.7749L42.4971 24.5725L42.3959 24.8255L42.1429 24.5725H41.637L42.2441 23.8642H42.5477L42.8513 23.8136L43.0031 23.6618L43.4584 23.9148L43.509 23.8642H43.9138V23.6112L44.1667 23.7124V23.5606L43.8632 23.257L44.2173 23.1053V23.0041L44.1162 22.9029L44.2173 22.6499V22.5487L44.3185 22.4475L44.1667 22.2957L44.0656 21.891L44.1667 21.638V21.385L43.9644 21.2838L43.9138 21.132L43.6608 21.0815L43.3066 20.5755L43.256 20.3225L43.1548 20.2213V20.1201H43.0536L42.9525 19.766L43.0031 19.5636L42.8007 19.26V19.1082L42.5983 18.9059V18.7541L42.4971 18.6529L42.3959 18.1469V18.0457L42.1935 17.8434V17.6916L41.9406 17.7928V17.5398L41.8394 17.4892L41.7888 17.135L41.637 16.9832L41.4852 16.6291L41.637 16.4773L41.5358 16.2243L41.637 16.1231V16.0219L41.7382 15.6172L41.6876 15.4148V15.2124L41.5864 15.1112V14.8582L41.4852 14.6053L41.131 14.4535H41.0804L40.9792 14.5547C40.7263 14.6558 40.4733 14.757 40.2709 14.8582L40.0685 15.0606V15.1618L40.1191 15.2124V15.4654L40.1697 15.6172L40.2709 16.2243V16.3255L40.4733 16.5279L40.2709 16.7808V16.882L40.3721 17.135L40.0685 17.4386L39.8156 17.7928L39.9167 18.0963L39.8156 18.1975L39.9673 18.3493L40.0685 18.5011H40.2709L41.384 19.6142L40.4733 19.26V19.6142L40.2709 19.766L40.3215 19.8672L40.5239 19.9684V20.0189L40.6251 20.0695H40.8781L40.9286 20.1201L41.0804 19.9178L41.384 20.2213V20.4743H41.4852L41.8394 20.8791L41.9406 20.8285H41.9912L42.0923 20.9297H42.7501L42.2441 21.4356V21.7898L42.3453 21.9416L42.2441 22.0428V22.5487L41.637 22.2957L41.4346 21.891L41.3334 21.7898H41.0298L40.9286 21.5368L40.8781 21.4862L40.5239 21.4356L40.1191 21.1826L39.765 21.0815L39.7144 20.9803H39.4614L39.3602 20.8791L39.006 21.2332L38.7531 20.6767L38.4495 20.5755L38.2471 20.4743L37.7411 20.3731L37.134 20.4743L37.0328 20.4237L36.881 20.5249L36.7798 20.4743L36.6786 20.5249V20.5755V20.9297H36.7292V21.0309H36.881L37.134 21.4356V21.4862H37.1846L38.1459 22.4475L37.0328 22.0934V22.1945L36.8304 22.2957L36.9316 22.3969L36.8304 22.3463V22.5487L36.628 22.7511H35.9703L35.7679 22.3463L35.8691 22.1945L35.7679 21.9416L35.8691 21.8404H35.7679L35.6161 21.9416L35.5655 21.9922V22.2957H35.0596V22.3463L34.7054 22.4981H34.2501H34.1995L34.0983 22.5993L33.9971 22.4981L33.8959 22.5993L33.9971 22.6499L33.8453 22.8017L33.9465 22.9029L33.5923 23.257L33.2888 23.1559L32.7828 24.4207V23.3582L32.7322 23.4088L32.3274 23.2065L32.2769 23.1053L31.7709 23.4088L31.4167 23.0547L31.4673 23.0041V22.8017L31.1638 22.9029H31.1132L30.8602 23.257L30.759 23.3076L30.4554 23.6618L30.6578 24.1678L29.8989 24.0666H29.6965V24.3195L30.8096 24.1172L29.5447 24.8761L29.4435 24.9773H29.2917L29.0388 25.2303L28.9376 25.0279H28.5834L28.2292 24.5219L27.9763 24.3195H27.9257L28.1786 24.5725L28.128 24.7243L28.2292 24.8255L28.128 24.8761L28.0268 25.1291V25.5338V25.5844L28.2798 26.6975L27.5209 25.9386L27.2679 25.8374L26.4584 26.6469L26.8632 25.635L26.6608 25.6856L26.509 25.5338V25.8374L25.6489 26.4446L26.003 25.5844L26.0536 25.4326V25.2303L25.8007 24.9773L25.7501 24.8255L25.6489 24.7243L25.5983 24.6737V24.8255L25.2441 24.5725C24.5864 25.1797 23.9286 25.8374 23.3215 26.4951H23.3721L23.4733 26.5457L23.7262 26.4446L23.9792 26.6975L24.1816 26.7481L24.5358 26.7987L24.7887 26.7481L24.8899 26.6469H25.1429L25.2441 26.5963L25.6489 26.4951V26.8493V26.9505L25.9524 27.2541L26.256 27.76L25.9018 28.1142L25.5983 28.3166L25.3959 28.8225L24.9911 28.3672L24.7887 28.266V28.4178L24.8899 28.4684V29.1767L24.6876 29.3791H24.5358L24.384 29.5309H24.0804L23.9286 29.3791H23.7262L23.6251 29.2779H23.3721L23.1697 29.0755V28.9743H23.1191L23.0685 29.1261L22.5626 28.8225L22.0566 28.9743L22.3096 28.3672L22.259 28.266V28.1648L22.0566 28.013V27.9118C20.5893 29.5815 19.1727 31.3523 17.9078 33.2243V33.2749L18.1608 33.5279L18.4137 33.4267H18.4643L18.7679 33.1231L18.9703 33.3255L19.0715 33.2243H19.0209C19.0209 33.1737 19.0715 33.1231 19.0715 33.1231L19.2739 32.8702L19.5774 33.2243V33.3255L19.628 33.4267H19.9822L20.3364 33.7809L20.134 34.2868L19.881 34.1856V34.2362L19.7798 34.3374L19.9316 34.4386L19.5774 34.5904V34.9446L19.3245 34.6916L19.2739 34.7928V35.0457H18.2114L18.009 34.9446H17.756L17.6548 34.894L17.4018 34.9446L17.0983 35.0457L16.9971 34.9446L16.7947 35.0457L16.6935 35.2987H16.7947L16.5923 35.8047L16.8453 35.5517L17.0983 36.1588L16.9971 36.6142V36.9178L17.0983 37.2719L16.9971 37.5755L16.7441 38.0815H16.3393L16.0864 37.8285L15.9852 37.6261L15.7322 37.3225L15.631 37.3731L15.5298 37.4743H15.3274H15.2768H15.2262V38.0815L15.0239 37.8791L14.9227 37.9803V38.3344L14.8215 38.385V38.4862L14.9227 38.5874V38.9416V38.9922L15.0745 38.9416L15.3274 39.2958H15.378L15.7322 39.1946L15.9346 39.3969L16.0358 39.5487L16.2381 39.7511L16.137 40.0041L16.2381 40.4594L15.125 40.5606L14.3661 40.51L14.0625 40.763L13.7084 40.8642L13.6072 40.763C12.5447 43.0398 11.6846 45.4684 10.9762 47.897L11.4822 48.0993V48.4029L11.7858 48.0993H12.1905L12.2917 48.3523L12.4941 48.6053L12.5953 48.8077L12.6965 48.9089L12.7977 49.0101H12.8989L13.759 49.8702H13.8602L14.1131 49.9714L14.7203 50.5785L14.8215 50.4773L15.125 50.8315L15.3274 50.9327L15.6816 51.3374L15.7322 51.4386L15.8334 51.4892L16.1875 51.7928L16.0358 52.147H15.7828L15.7322 52.3999L15.8334 52.6529L15.7828 52.8047L15.8334 52.9565H15.9852L16.1875 53.3612L16.4405 53.4624V53.7154L16.6429 53.8166L16.7441 53.9178H16.9465V54.1708L17.0477 54.3732H17.1489L17.2501 54.3226L16.9971 54.1708L17.3006 53.8672L16.8959 53.4624L17.0477 53.3107L16.9971 53.0577L17.0983 52.7035L17.6042 52.5011L17.7054 52.7541L17.9078 52.5517L18.1102 52.6529L18.1608 52.5011L18.5655 52.2987L18.7679 52.5011V52.2987H19.2739L19.3751 52.4505H19.5268L19.881 52.5517V52.6529L19.9822 52.5517L20.1846 52.7541L20.5893 52.3999V52.4505L20.8423 52.3493H21.0447L21.1459 52.2481L20.8929 51.9952L20.7917 51.7422L20.6905 51.641L20.1846 51.0339H20.5387L20.6905 50.9327H20.7411L20.6399 50.5279L20.9941 50.2243H21.0447V50.1231V49.769L20.9435 49.5666L21.0447 49.3642V49.263L20.9435 49.0101L21.0953 48.8583L21.1965 48.6053H21.5506H21.6012V48.5547L21.4495 48.4029L21.6518 48.2005V47.3404H22.2084V47.0874L22.5626 46.9862H22.6637L22.9167 46.7333L23.1191 46.9356L23.3215 46.7333L23.5745 46.9862H23.6757L23.7768 47.3404L23.878 47.391L23.9792 47.3404L24.1816 47.4416L24.2828 47.1886L24.4346 47.3404L24.5864 47.1886L24.7382 47.2898L24.8393 47.1886L25.0923 47.2898L25.2441 47.2392L25.3959 47.0368L25.2441 46.5815H26.1042L26.1548 46.6827H26.256L26.4584 46.7839L26.5596 46.6827H26.762L26.8126 46.6321L26.9138 46.3791H27.1161V46.3285L27.3185 46.1261H27.5715L27.7233 46.0249H28.0774H28.128L28.2292 45.9237L28.634 45.8225L28.9376 46.1261L28.7858 46.5309L28.4316 46.6827L28.1786 47.0874L28.3304 47.138V47.4416L27.9257 47.8464L28.0268 47.9476L27.8245 48.5547L27.6221 48.4535L27.7233 48.5547V48.7065L27.9763 48.6559L28.3304 48.8583L28.5328 48.9595L29.0388 49.3642L29.0894 49.4654L29.1905 49.516L29.2917 49.6172H29.3929H29.6459L29.7471 49.7184H29.8483H29.9495L30.1519 49.9208H30.2024L30.3036 49.8196L30.759 50.1737H30.8602L31.1132 50.5279L31.2144 50.7303L31.2649 50.9833L31.5179 51.3374L31.1638 51.4892L31.2649 51.641L31.0626 51.8434L30.9614 52.0458L30.7084 52.2987L30.506 52.3999L30.4048 52.6529H30.1519V52.7035L29.6459 52.6023L29.5953 52.5517H28.9882H28.9376H28.634L28.2798 52.7541L27.8751 52.6529L27.4703 52.3999L27.2679 52.2987L27.1161 52.1976L27.0149 52.2987L26.6608 52.147L26.4078 51.894V51.8434L26.2054 52.0458L26.1042 51.9446L26.003 52.0458L25.4971 51.5398H25.1429L25.0923 51.4892L24.9911 51.5398H24.5864L24.5358 51.641L24.131 51.8434H23.9286H23.8274L23.7768 51.9446L23.5745 52.0458L23.4227 52.1976L23.3215 52.3493V52.5517H22.7649L22.4108 52.4505L22.0566 52.8047H21.9554L22.0566 52.9059L21.4495 53.1589H21.0447L20.9435 53.1083L20.6399 53.2095L20.5387 52.9565L20.4376 53.2095V53.2601L20.4881 53.3107H20.5387H21.2977L20.7917 53.8166L20.8423 53.9178L21.0953 53.8166V54.3226H22.1578L20.8929 54.8285V54.9297L20.9941 54.8791L21.3483 55.0309L21.5506 55.4357L21.4495 55.5368L21.6012 55.6886L21.7024 55.5874V55.7898H22.2084L22.0566 55.9416H22.5626V56.2958L22.6637 56.3464L22.7649 56.2452H22.8661L22.9673 56.144H23.0179L22.9167 55.891L23.5239 55.7392L23.8274 55.8404L24.1816 55.9922H24.4346L24.7382 56.3464L24.8393 56.4476L25.4465 56.397L25.6489 56.2958H25.6995V56.2452L26.1548 55.7392H26.4078L26.7114 55.9416L27.0149 55.638L27.5209 55.8404V56.1946L27.2679 56.4476L27.4703 56.6499L27.2679 56.8523L27.4197 57.1053L27.5209 57.4089L27.4197 57.6113V57.9148L27.3185 58.2184L27.2173 58.8255L26.9138 59.1797V59.3315L26.6608 59.5845L26.6102 60.0904L26.3572 60.5458L26.1548 60.7988L26.0536 61.0517L25.6995 61.1529L25.1935 61.0517L24.7887 61.1529V61.9118L24.8899 62.013V62.0636L25.1429 62.3166V62.5696L25.3453 62.6708L25.4465 62.9238L25.6995 63.1767L25.8007 62.9744V62.772L26.003 62.266L26.1042 62.1648L26.6102 60.8493V62.2154L26.509 62.3672V62.8732L27.1161 63.1261L26.9138 63.3285L27.1667 63.5815L27.2173 63.7333L27.3185 63.8345L27.4197 63.9863L27.6727 64.5934V64.8464L27.8245 64.9476L27.9257 65.1499L28.128 65.2511L28.2798 65.6053L28.4822 65.7065L28.634 66.1619L28.9376 66.4654L29.1905 66.6678L29.3929 66.9208V66.9714H29.6459L29.7471 67.2244L29.8483 67.3255L29.9495 67.5785L30.1013 67.7303L30.1519 67.8315L30.253 67.9327L30.1519 68.3881L30.253 68.641L30.3036 68.894L30.8602 69.4506H30.9614H31.2144L31.3155 69.6529L31.6191 69.9059V70.0071L31.8721 70.1083L31.7709 70.3613L31.9227 70.8672L32.1251 70.9684V71.2214L32.5298 71.6261H32.7322L32.8334 72.0309L33.0864 72.0815L33.2888 72.5875L33.39 72.7898L33.4911 73.2452V73.7006H33.39L33.4911 73.8523L33.5417 74.5101L33.7441 74.7125V75.2184L33.8959 75.3702V75.4714L34.1489 75.5726L34.3513 75.3702H34.7054L34.8572 75.1678V75.0666L35.1608 74.7631H35.515L35.6161 74.8642H35.8185L35.9197 74.9654L36.1727 74.8642L36.3751 74.8137L36.7798 74.5101H37.1846L37.387 74.3077L37.4882 74.4089L37.6905 74.1053L37.9435 74.0041H38.0447L38.7531 73.7512L38.8542 73.65L39.3602 73.5488L39.6132 73.4476L39.8156 73.2452H39.9673L40.0685 72.9416L40.3721 72.5875L40.7263 72.4863H40.8275L41.0298 72.2839L41.131 72.3851V72.2839H41.2828L41.5358 72.1321H41.7382L41.9406 72.0309L42.0417 72.0815V71.7273L42.2947 71.4744H42.3959L42.6489 71.3732V71.2214L43.0031 70.766L43.3572 70.6142L43.4078 70.6648H43.5596V70.5636H43.3572L43.5596 70.1083L43.3572 69.9059H43.6102L44.015 68.8434V69.7035L44.1162 69.6023L44.2173 69.7035L44.2679 69.6023L44.4703 69.4L44.7233 69.0458V68.9446V68.8434V68.7422H44.6727L44.3185 68.4892L44.2173 68.2869L44.015 68.0845L43.9138 67.8315L43.8126 67.6797H43.0536L42.8513 67.7809L42.4465 67.6797L42.3453 67.7809L41.9912 67.6291L41.5358 67.2244L41.4346 67.1232L41.131 66.769L41.0298 66.263L40.9286 66.1619L40.5239 66.5666L40.7263 66.769L40.2203 67.275V67.3761H40.0179L39.765 67.4773H39.4614L39.3602 67.3761H39.259L39.0566 67.3255L38.7531 67.5785L38.5001 67.4773H38.3989L37.9941 67.6291L37.8929 67.2244H37.7917L37.6905 66.9714H37.7411V66.769L37.5388 66.9714L37.1846 66.6172L37.0834 66.4148L36.6786 65.9595L36.3245 65.0994L36.2233 64.9982L35.9197 64.6946L35.6667 64.5934L35.4644 64.0874L35.4138 63.9863L35.3126 63.8851L34.756 63.3285H34.9584L34.3513 62.9238L35.1102 62.8226V62.7214V62.519V62.4178L34.3513 62.1142H35.262L35.7173 61.6589V62.0636H35.8185L35.9197 62.1648L36.1221 61.9625L36.2233 62.1648L36.3751 62.013L36.628 62.266L36.881 62.519V62.6202L37.134 62.9238L37.1846 63.0249H37.2352L37.3364 63.1767H37.9435L37.9941 63.2273L38.1459 63.0755L38.3483 63.5815L38.5001 63.9863L38.7531 63.9357L39.0566 64.0369H39.3096L39.4108 64.138H39.5626L39.8661 64.4416L39.8156 64.4922L40.0179 64.5934H40.2203L40.4227 64.6946L40.6251 64.5934L40.9792 64.6946L41.1816 64.7958L41.2828 64.6946L41.637 64.4416H41.7888L41.9406 64.3404L42.1935 64.2392L42.6995 64.3404H42.8007V64.4416L42.9019 64.644L43.0031 64.897L43.2054 65.2005V65.3017H43.762L43.8126 65.3523L43.8632 65.3017H44.1162L44.3185 65.4535L44.6727 65.4029L44.8751 65.5041H45.2798H45.3304L45.4316 65.4029L45.5328 65.4535L45.4822 65.3523H45.887L45.9882 65.6053H46.0388L46.1906 65.6559L46.2918 65.5547H46.7471V65.6559H46.8483L47.0001 65.5547H47.3543V65.4535L47.6072 65.2005L47.7084 65.2511H48.0626L48.1638 65.3523H48.3156L48.3662 65.4029L48.4673 65.3017H48.8721L48.9733 65.3523L49.0745 65.3017H49.1757L49.3781 65.0994L49.5804 65.3017H49.631L49.7322 65.2511H50.0864L50.3394 65.5041L50.4406 65.7571H50.6935L51.0477 65.6559V66.0607L51.1489 66.1619L51.2501 66.4148L51.3513 66.516L51.4019 66.6172H51.6043L51.8572 66.769L52.009 66.6678L52.262 66.5666L52.4644 67.022L52.3632 67.0726L52.3126 67.1232L52.4644 67.3255L52.9197 67.4773L53.1727 67.3255V67.1232H53.9316L53.6787 67.7303H52.8185L52.6668 67.9327H52.8691L52.7679 68.0339V68.1351V68.3881L52.9703 68.5904L53.5269 68.9952H53.6281H53.7293L54.134 68.7422L54.2352 68.641L54.387 68.3881V68.3375L54.1846 68.1351L54.4376 67.7303V66.263L54.893 67.3761H54.9941L55.0953 67.4773L56.2084 67.022L55.1459 68.0845L56.512 68.641H55.0447V68.7422L55.0953 68.7928L55.1965 69.0458V69.2988L55.1459 69.4L55.7025 69.6529L55.1965 69.9059L55.3989 70.3613V70.5636L55.5001 70.8166L55.3989 70.9178L55.8037 71.525H55.5507V71.6261L55.8037 72.2333V72.6381L55.9049 72.8404L56.1072 72.9416L56.2084 73.1946L56.3096 73.2958V73.397V73.4982H56.4108V73.65L56.4614 73.7006H56.6638V74.1559L56.765 74.4089L56.8156 74.6113L56.9674 74.9654L57.0685 75.1678L57.1191 75.4208L57.1697 75.4714L57.2709 75.6738L57.3721 75.775H57.4733L57.7263 76.0785L57.9793 76.3821L58.0805 76.6351H58.1816V76.9893L58.3334 77.2422L58.4346 77.5964V77.8494L58.6876 78.3047L58.8394 78.4565L59.0418 78.2541L59.143 78.0012L59.4971 77.7482H59.5983L59.6995 77.647L59.7501 77.5458L59.9525 77.141L60.3066 77.0398L60.2561 76.5845L60.1549 76.3821V75.8256L60.3572 75.4714L60.4584 75.0666V74.8137L60.2561 74.7125V73.9535L60.1549 73.65L60.3066 73.4982L60.2055 73.1946L60.3066 72.9416L60.6608 72.5875H61.015V72.4863L61.3186 72.1827L61.6727 72.2839L61.7739 72.1827L61.7233 72.0815L61.8245 71.7779L62.0775 71.525L62.3305 71.4744L62.4317 71.3732L62.5328 71.1708L63.2412 70.6142L63.393 70.3107L63.4942 70.2095L63.6965 69.6529H64.0001L64.1519 69.5517H64.4049L64.5061 69.6529H64.6072L64.7084 69.5517L64.4555 69.2988H64.9614V69.2482L65.012 69.1976V69.3494V69.2482L64.8602 69.0964L65.0626 68.5904L65.2144 68.4386L65.6698 68.2869L65.7203 68.2363V68.0845V67.6797H66.1757L66.4287 67.7809V67.5785L66.8334 67.9833H66.9852L67.2382 67.7303L67.1876 67.6291H67.39L67.9971 67.022L68.5031 66.9208L68.5537 67.022L68.6043 67.0726H68.7055L68.8067 67.1738L68.9078 67.2244H69.009L69.1102 67.1738L69.0596 67.2244H69.262L69.515 67.8315L69.6162 67.9327V67.9833L69.7174 67.8821V68.641L69.8186 68.7422L69.9198 68.894H70.0209V68.9446L70.2739 69.0458V68.8434L70.4763 69.0458H71.134L70.1221 69.3494H70.1727L70.2233 69.4L70.4257 69.5011L70.6787 69.8047V70.1589L70.7799 70.2601V70.5131L70.8811 70.766V70.8672L71.2858 71.019L71.134 71.1708V71.525L71.2352 71.7273L71.4376 71.1202V71.9803L71.4882 72.0309L71.4376 72.0815V72.6887L71.5388 72.891H71.64L71.7918 72.7898L71.893 72.4863L71.7918 72.2839H72.2977V72.1321L71.5388 71.3732L73.0061 71.9803V72.0815L73.1073 72.1827L73.259 72.4357L73.3096 72.4863L73.7144 72.0815V72.7898V72.8404V73.0934L73.765 73.144L73.8156 73.5488V73.9029L74.3215 74.4089H73.0061V74.5101L73.3096 74.8137L73.4108 74.9654L73.512 75.0666L73.6132 75.522L73.6638 75.5726L73.8156 75.9268L73.7144 76.0279V76.0785V76.1797L74.0686 76.5339L73.9674 76.6351L74.0686 76.8375L73.8662 77.0398V77.2928H74.1698V77.0904L74.3721 76.8881L74.4733 76.3315L74.6757 76.1291L74.7769 75.9773L74.9287 75.8256L74.8275 75.7244L75.0299 75.522V75.4208V75.3196L74.6251 75.1678L74.8781 74.9148V74.3077L75.2323 74.6619L75.3335 74.5607L75.4852 74.7125L75.6876 74.6113L75.7888 74.7125H75.89L76.143 74.8137L76.3959 75.0666L76.1936 75.269V75.3196L76.2948 75.4714L76.5983 75.5726L76.8007 75.775L76.9019 75.8256L77.3573 76.2809H77.6102L77.8632 76.6351V76.7363L78.0656 77.2422L78.4704 76.8375V77.2422H79.5329V77.141H79.9376H79.9882L80.393 76.7363V77.1916L80.4942 77.2928L80.7471 77.1916L80.8483 77.0904V76.9893L81.2531 76.8375L81.4049 76.6857L81.4555 76.5339L81.5567 76.2809L81.4555 75.9773L81.6073 75.9268V75.8762V75.5726L81.7085 75.4714V75.4208L81.6073 75.3196V75.0666L81.5061 74.8137L81.6073 74.7125L81.5061 74.5607L81.6073 74.4595L81.5061 74.2065L81.4049 74.1053L81.3037 73.8523L81.0507 73.5994L81.1519 73.4982L81.0001 73.3464V73.2958L80.8989 73.0428L80.7977 72.9416L80.4436 72.6887L80.393 72.5369L80.0894 72.3345L79.5329 72.0815V73.0934L79.0269 71.9297L78.7739 71.6767L78.6221 71.5756L77.9138 71.3226L78.268 71.1708L78.3692 70.9178V70.5131L78.4704 70.4119L78.5715 70.2601L78.8245 70.0071L78.9257 70.1083V69.8553L78.7233 69.6529L78.9257 69.4506V69.2482H79.2293L79.4317 69.0458L79.6846 68.9446H79.8364L79.5835 68.6916H80.1906L80.393 68.4892L80.4436 68.5398L80.6965 67.9327L80.9495 68.5398L81.0001 68.4892L81.1519 68.641L81.2531 68.4386L81.5567 68.5398L81.8096 68.4386L82.0626 68.6916V68.8434L82.1638 68.7422L81.8602 68.4386H82.4674L82.8721 68.0339V68.2869H83.5299L83.7323 68.1857L83.8335 68.2363L83.9347 68.1857L84.0358 68.0845V67.9833V67.3761L84.39 67.7303L84.2888 67.5785V66.9714L84.8454 67.2244L85.0477 67.4267L85.1995 67.3761L85.4019 67.1738L85.5537 67.3255V67.275H85.9079H86.0091L86.262 67.022L85.8573 65.9089L86.6162 66.6678L86.8692 66.5666V66.4654H86.9704L87.0716 66.3136H87.1727L86.5656 65.7065H87.0716L87.5269 64.5934L87.6787 64.5428L87.5775 64.4416H87.1727L87.3751 64.2392L87.2233 64.0874H87.4763L87.7799 63.7839V63.7333H87.9823L88.2858 62.9744L88.387 63.1767V63.0755L88.4882 62.8732L88.4376 62.8226L88.5894 62.6708H88.3364V62.266L88.5894 62.013V61.8107L88.4376 61.6589L88.5894 61.6083V61.4059L88.4882 61.5071L88.1341 61.3553L88.0329 61.2541L87.9823 61.3047L87.4763 62.6202V61.5071L86.8692 61.7601L87.4763 61.1529V61.1023L87.7293 60.8493L87.3751 60.394L88.1341 60.6976L88.3364 60.4952H88.387L88.4882 60.3434H88.5388L88.4882 60.2422L88.1341 59.9892L87.8811 59.7868L87.6787 59.5845L87.4763 59.6857L87.1727 59.5845L86.9198 59.3821H86.8692L86.6668 59.2809L85.1489 61.3047L86.262 58.7749L86.6668 58.6232L86.9198 58.7243L87.2739 58.6232L87.3245 58.7243L87.7799 58.8255L87.5269 58.4714V58.269L87.2739 58.0666V57.9148L87.021 57.8136L87.1222 57.5607L86.9704 57.2571L86.7174 57.1559L86.3126 57.3077V56.9535L85.9079 56.8017V56.1946L85.9585 55.9922L85.8573 55.7898L86.1103 55.1321L86.3632 55.3851L86.4138 55.3345L86.3126 55.2333L86.7174 54.8285H86.768V54.7273H86.8692L86.6162 54.4743L87.2233 54.2214L87.3245 54.272H87.4763L87.5269 54.2214H86.9198L86.6668 53.9684L86.6162 53.8672L86.515 53.9178V54.019L86.4138 54.1202L86.262 54.4743L86.0091 54.7273L85.7561 54.6261L85.6549 54.6767H85.2501L84.9971 54.0696V54.4237L84.7948 54.1708L84.6936 54.272V54.019L84.4406 53.7154L84.39 53.6648L84.1876 53.5636L83.884 53.4624V53.2095L83.7829 52.9565L83.884 52.8553V52.7541L83.9852 52.6529V52.5011L84.0864 52.3999V52.0458L84.6936 52.147L84.4406 51.894H84.6936L84.8454 51.7422L84.9466 51.2868L85.3513 51.0339H85.4525L85.5537 50.9327V50.6797L85.7561 50.4773H85.7055L85.8067 50.3761L85.9079 50.1231H86.3126L86.4644 49.7184L86.8692 50.3255L87.3245 50.6291V51.0339L87.1222 51.2362L87.021 51.3374V51.5398L87.6787 50.8821L87.4763 51.2868H87.7293L88.0329 51.0339L88.1847 51.1351H88.2353L88.5894 50.6291L88.7918 51.0845H88.893L89.1966 51.1856H89.2472L89.3483 51.0845H89.8543L89.6519 51.5904L89.7025 51.6916L89.5001 51.9952V52.147H89.5507L90.3097 51.8434H90.2591L90.1073 51.3374L90.1579 51.2868V51.2362V50.9833L90.4109 50.7809L90.512 50.5785L90.8156 50.4773H90.9168H90.9674V50.3761L91.271 50.0726L91.1698 49.9714L91.4228 49.769V49.3136L91.271 49.1618V48.7571L91.3722 48.3523V47.9476H91.5745L91.8275 47.6946H91.8781L91.9287 47.5428L92.1817 47.4416V47.3404L92.2323 47.2898V47.0368L92.3841 46.885V46.7333L92.637 46.4803L92.89 46.5815L93.143 46.4803L93.396 46.7333V46.9356H93.4972L93.5478 47.0368L93.6489 46.9356L93.7501 47.0368L93.9525 46.9356L94.0537 46.8345H94.2055L94.3067 46.7333L94.4079 46.6321L94.2055 46.4297L94.5597 46.2779L94.3067 45.6202L94.762 45.8225V45.7214L94.8632 45.6202V45.3672L95.015 45.266V45.1648L95.1668 45.0636L95.268 44.7095L95.3186 44.6589L95.4704 44.0517L95.5716 43.8493V43.6469L95.7739 43.4446H95.8751L95.9763 43.2928L95.8751 42.888L96.0775 42.6856L95.9763 42.3315L96.1787 42.1291V41.8255H96.8364L96.887 41.7243V41.4714L97.0388 41.3196L96.9376 40.9654L97.0388 40.7124V40.4594H96.8364V40.5606ZM17.0983 33.7809L17.1489 33.7303V33.6291C17.1489 33.6797 17.1489 33.7303 17.0983 33.7809ZM79.1281 77.7988L79.1787 77.7482L78.9763 77.6976L79.1787 77.9V78.0012L79.2799 77.9506L79.4317 78.0012H79.5329L79.1281 77.7988ZM74.0686 77.4952V77.7482H74.1698V77.647L74.0686 77.4952ZM92.1311 76.6857H92.0299V76.8881H92.0805V76.8375L92.1817 76.7363L92.1311 76.6857ZM93.9525 75.9268V76.0279L94.0537 76.1291L94.1549 76.2303V76.1797L93.9525 75.9268ZM90.8156 74.4089H90.9168L90.9674 74.3583L91.018 74.4089V74.1559L90.8156 74.4089ZM91.4228 72.0815L91.3216 72.0309L91.1698 71.6261V71.525L90.8156 71.4238L90.6638 71.272H90.5626V71.3226L90.3603 71.5756V71.6261V72.0309V72.3851L90.3097 72.4863L90.4109 72.6887V72.9416L90.2085 73.0428L90.1579 73.2452V73.3464L90.2591 73.5488V73.65H90.512V73.7512H90.7144L90.9168 74.0041L90.8662 73.8523V73.5994L90.9168 73.4982L90.8156 73.2958L91.271 72.8404L91.4228 72.5875V72.4863V72.2839V72.0815ZM83.0239 69.8553L82.771 69.9565L82.6698 69.8553L82.518 69.9565L82.4168 69.8553H82.3662H82.1132H82.012L81.9614 70.0071L81.7085 70.2095L81.6073 70.3107V70.3613V70.6142L81.6579 70.766L81.7591 70.8672H81.8602L81.9614 70.9684H82.1638V70.8672L82.4674 70.766V70.6648L82.7204 70.5636V70.4625L82.8216 70.1589L82.9227 70.0577L83.0239 69.9059V69.8553ZM81.9108 68.9446V69.0964H81.6579V69.1976L81.7591 69.2988L81.8602 69.4L82.0626 69.1976L81.9108 68.9446ZM90.3097 65.5547L90.2085 65.4535L90.1073 65.5547L90.0061 65.6559L90.1073 65.7065L89.9049 66.0101V66.1113L89.7025 66.4148L89.6013 66.6172V67.1232H89.7025V67.3761H89.8543V67.5785L90.0061 67.3255L90.1579 67.1232L90.0567 67.0726L90.1579 66.6172V66.516V66.2125L90.2591 66.0101L90.3097 65.7065V65.5547ZM67.4912 67.2244V67.4773H67.5418L67.4912 67.2244ZM87.2233 65.4535L86.9198 65.7571H87.0716L87.3245 65.5041L87.2233 65.4535ZM87.5269 65.2005L87.5775 65.0994L87.3245 65.3017L87.5775 65.2005H87.5269ZM96.1787 58.2184L96.3305 58.0666H96.2799V57.9148H96.1787L95.9763 57.5607H95.8245L95.6728 57.3583H95.5716V57.4595L95.4198 57.5607L95.5716 57.7124L95.7234 57.9654L95.8245 58.2184V58.4714L95.7739 58.6738L96.2293 59.0785L96.1787 58.9773L96.2799 58.522L96.1787 58.2184ZM10.0149 57.6113V57.2571H9.91373L9.66076 56.8523L9.76195 56.4982L9.81254 56.4476L9.71135 56.3464L9.55957 56.0934L9.50897 56.0428C9.40778 56.9029 9.35718 57.8136 9.25599 58.6738L9.71135 58.4208L9.76195 58.3702L9.66076 58.269L9.86314 58.0666L10.0149 57.6113ZM25.5983 58.4208H25.5477L25.3453 58.522H25.5983L25.6995 58.4208H25.5983ZM97.0388 57.1559V57.2571L97.14 57.4089L97.2412 57.2065L97.2918 57.1559H97.0388ZM97.9495 56.8017L97.8484 56.7005L97.7472 56.7511V56.9029H97.8989H97.9495L98.0507 56.8017V56.7511L97.9495 56.8017ZM101.997 51.2868V51.1856L101.947 50.9833V50.8821L101.845 50.5785L101.795 50.4773H101.694L101.592 50.2243L101.542 49.9714L101.491 49.8702L101.137 49.516L100.833 49.769L100.732 49.6678V49.769L100.833 50.022L100.783 50.2243L100.935 50.5785L101.036 50.9833L100.935 51.2362L101.036 51.5398L100.884 52.0458L100.985 52.2987L100.732 52.6529L100.631 52.7541V52.8553V53.1083L100.53 53.2601L100.479 53.513L100.226 53.6648L99.8216 53.9178H99.7204L99.6192 54.1708L99.2144 53.9684V54.1708L99.0626 54.4237V54.5249L98.9614 54.6261L99.012 54.6767V54.7273H99.265L99.012 55.0815L99.1132 55.1827L98.6073 55.4862L98.5061 55.3851H98.4049H98.1013V55.2333L97.8484 55.3345L97.5954 55.4357H97.4436L97.2412 55.4862L96.9882 55.5874L96.887 55.4862L96.7859 55.5874L96.7353 55.7898L96.6341 55.891L96.2799 56.2452L96.1787 56.3464L96.1281 56.397L96.0269 56.5993L95.8245 56.7005L96.0775 56.5993H96.1787V56.4982L96.2799 56.2452H96.5329L96.6341 56.2958H96.7353H96.9882L97.2412 56.1946H97.3424L97.5448 56.0934V56.0428L97.8989 55.8404L98.1013 55.7392H98.5567L98.8097 55.9416V56.1946L98.7085 56.3464V56.4982L99.012 56.8017H98.9109L98.9614 57.0547L99.012 56.9535V56.8523L99.1132 56.7511V56.6499L99.265 56.397L99.0626 56.1946L99.1638 55.7898L99.3662 55.5874H100.125L99.9734 55.7392L100.277 55.7898V55.5368L100.631 55.3345H100.884L100.935 55.2839L101.036 55.2333L101.238 54.7779L101.491 54.6767H101.845L101.694 54.4237V53.5636L101.795 53.2601L101.643 52.8553L101.441 52.5517V52.2987L101.491 51.894L101.795 51.7422V51.641V51.5398V51.2362L101.997 51.2868ZM12.2411 56.7005L12.3929 56.1946H12.3423L12.2411 56.2958H11.8364L11.5834 56.397L11.2798 56.3464L11.381 56.4476L11.5834 56.5488L11.6846 56.6499L11.9375 56.7511L12.0893 56.7005L12.3423 56.9535L12.3929 57.0547L12.4435 56.9535V56.9029L12.2411 56.7005ZM92.9406 55.2333V55.0815L92.5864 55.4357V54.6767L92.5359 54.272L92.3335 54.0696V53.7154L91.9793 53.2601L91.6757 52.9565L90.9168 53.2601L91.1192 53.5636L91.3722 53.8166L91.271 53.9178L91.5239 54.5249L91.1192 54.4237L91.1698 54.5249V54.5755L91.5239 55.1827L91.271 55.3851V55.6886L91.1698 55.7898L91.271 56.0428V55.8404L91.6251 56.1946L91.9793 55.891L92.1817 55.7898L92.2323 55.6886H92.5864L92.8394 55.4357H92.9406L92.8394 55.3345L92.9406 55.2333ZM17.3006 55.2839L17.4018 55.3851L17.4524 55.2839H17.3006ZM17.9078 55.4862L17.7054 55.2839L18.009 55.1827H17.9584L17.6548 55.2839L17.5536 55.2333H17.503L17.756 55.8404L17.8572 55.891L17.9584 55.9922L17.8572 55.7898L17.9078 55.4862ZM101.947 55.1827V55.2333L101.997 55.1827H101.947ZM13.4554 55.0309V55.1321L13.5566 55.0815V54.9803L13.4554 55.0309ZM101.947 54.7273V54.8791L101.997 54.8285L101.947 54.7273ZM13.8096 54.2214H13.5566L13.506 54.1708L13.5566 54.3732L13.6578 54.5755H13.6072V54.6767L13.759 54.5249L13.8602 54.3226L13.8096 54.2214ZM13.6072 52.4505L13.3542 52.3999H13.1012L12.9495 52.0458V51.9446H12.8989H12.4941L12.4435 51.8434L12.2411 51.7422L12.1399 51.5398L11.9881 51.4386L11.634 51.1351L11.5328 50.8821V50.7809L11.4316 50.6797V50.4773L11.0268 49.9714L10.9762 49.8702H10.875L10.4703 49.7184C10.3691 50.2243 10.2173 50.7303 10.1161 51.2868L10.2173 51.4386L10.2679 51.4892L10.5209 51.894L10.7739 52.0458L11.1786 52.1976L11.4316 52.2987H11.6846L11.9375 52.6023L12.2917 52.7541H12.5447L12.6965 53.0577V53.1589H12.7471L12.7977 53.3107L13.2024 53.513L13.253 53.8166V53.6142L13.506 53.513V53.0577L13.6072 52.9565L13.7084 52.8047L13.9108 52.6529L13.6072 52.4505ZM91.5239 52.9059L91.271 52.2987V52.1976L90.7144 51.9446L90.6638 51.8434L89.9049 52.6023H89.8037V52.8047H89.8543L90.1073 52.5517L90.4109 52.8553H91.6757L91.5239 52.9059ZM87.021 51.5398V51.5904L87.0716 51.5398H87.021ZM25.4971 48.2005L25.1429 48.5547L25.0923 48.6053L25.2947 48.5041L25.5983 48.2511L25.4971 48.2005ZM100.176 48.0993V48.1499H100.226L100.176 48.0993ZM24.9911 47.9476L24.8393 47.9981L25.1429 48.1499L25.2441 47.9476V47.6946L24.9911 47.9476ZM102.857 46.2273L102.554 46.0755V45.9743L102.453 46.0249H101.896L101.795 45.8731H101.643L101.339 45.7214L101.289 45.6202H101.137L100.985 45.3672L100.783 45.266L100.429 44.9118L100.378 44.76H100.277L100.125 44.6589L100.328 44.9624L100.429 45.2154L100.479 45.519V45.6202V45.7214L100.682 46.2273H100.479V46.3285H100.53L100.783 46.6827L100.58 46.7839V46.885L100.328 47.138L100.125 47.0368V47.138L100.378 47.3404L100.429 47.2898L100.682 47.0874H101.036L101.289 46.9862L101.542 47.3404L101.643 47.4416L101.845 47.5428L101.896 47.2898L101.997 46.9356L102.25 46.7839L102.503 46.6321L102.857 46.4803V46.2273ZM99.9228 42.0785L99.8216 41.9773H99.7204L99.6192 41.8255V41.8761V41.9267L99.8722 42.1797L99.8216 42.4327L100.024 42.3315V42.1291L99.9228 42.0785ZM99.6192 38.8404V38.7898L99.4168 38.7392V38.4862L99.2144 38.2838L99.012 37.8791L98.9109 37.7273L98.6579 37.3731L98.5567 37.1202L98.4555 37.019V36.9178H98.2025L98.1013 36.5636L97.8484 36.3106L97.7472 36.1083L97.646 35.9565V35.1975H97.5448L97.2918 34.9446V34.8434L97.1906 34.7422V34.4386H97.14L97.0388 34.2868V34.4386L96.7353 34.5398H96.6847V34.6916L96.7859 34.7928L97.0388 35.0963V35.3999V35.7035L97.1906 36.0577V36.1588L97.393 36.26L97.4942 36.6142L97.5448 36.7154L97.7472 36.8166L98.0001 37.1708V37.6767L98.1013 37.8791V37.9803L98.4049 38.2838L98.3037 38.4356L98.4555 38.638L98.5567 38.8404V39.0428L98.6579 39.2958V39.8017L98.9614 40.0041L98.9109 40.2065L99.012 40.2571L99.3156 40.51V40.4594L99.1638 40.2571L99.265 39.9029V39.8523L99.1638 39.5993L99.265 39.3969L99.012 39.0428H99.7204H99.8216L99.6192 38.8404ZM16.8453 35.0963V35.1975H16.9465L16.8453 35.0963ZM17.0983 33.7809L17.1489 33.6797C17.1489 33.6797 17.1489 33.7303 17.0983 33.7809ZM24.3334 27.8106V27.76H24.0804L24.1816 27.8106L24.384 28.013L24.4852 27.9624L24.3334 27.8106ZM30.1013 21.9416H30.0001L29.9495 22.0428V22.2957L30.0507 22.4981H30.2024L30.3036 22.4475L30.4048 22.3463V22.2451V22.144L30.1013 21.9416ZM33.8959 19.1082L33.6935 18.9059L33.4911 18.7541L33.1876 18.6529H32.884C32.7828 18.7035 32.6816 18.7541 32.5804 18.8553L32.6816 18.9564L32.7828 18.8553L33.39 19.1082V19.1588L33.5923 18.9564L33.6935 19.2094L33.8453 19.26L33.9465 19.1588L33.8959 19.1082ZM32.3274 19.0576H32.2769V19.1588L32.3274 19.2094H32.4286V19.007L32.3274 19.0576Z" fill="url(#paint2_radial)"/>
<path d="M26.003 68.8449C32.2768 70.3122 38.9048 71.3241 45.7352 71.9313C46.9495 86.2497 50.4912 99.961 55.8543 112.711C56.3096 112.762 56.7144 112.812 57.1697 112.812C51.756 100.113 48.2144 86.4521 46.9495 72.0324C51.1995 72.336 55.5001 72.5384 59.9019 72.5384C69.3126 72.5384 78.3692 71.7289 87.021 70.211C84.5418 88.1723 74.0686 103.655 59.3959 112.913C59.6489 112.913 59.9019 112.913 60.1549 112.913C60.6608 112.913 61.1162 112.913 61.6221 112.913C75.89 103.351 85.9079 87.9194 88.2858 70.0592C96.4317 68.592 104.122 66.4164 111.206 63.7854C111.206 63.3806 111.206 62.9759 111.206 62.5205C104.122 65.2021 96.4823 67.3271 88.387 68.8449C88.64 66.6187 88.7412 64.342 88.7412 62.0652C88.7412 40.6128 77.6102 21.6901 60.8126 10.7109C60.5596 10.7109 60.3066 10.7109 60.0537 10.7109C59.5477 10.7109 59.0924 10.7109 58.5864 10.7109C75.9406 21.2348 87.4763 40.3092 87.4763 61.964C87.4763 64.342 87.3245 66.6693 87.0715 68.9461C78.4198 70.5146 69.262 71.3241 59.8007 71.3241C55.3989 71.3241 51.0477 71.1217 46.7471 70.8182C46.4435 67.2765 46.3423 63.6842 46.3423 60.0919C46.3423 42.7378 49.6816 26.1425 55.6013 10.8627C55.1459 10.9133 54.7412 10.9639 54.2858 11.0145C48.3661 26.2437 45.128 42.7884 45.128 60.0919C45.128 63.6842 45.2798 67.2259 45.5328 70.7676C38.6519 70.1604 32.0745 69.0979 25.75 67.6812C25.5477 65.708 25.4465 63.836 25.4465 61.8628C25.4465 40.6128 36.5774 21.8419 53.3245 11.2169C52.3632 11.3181 51.4525 11.5205 50.5417 11.6722C34.6548 22.7526 24.2828 41.1187 24.2828 61.9134C24.2828 63.7854 24.384 65.6574 24.5358 67.4789C19.1221 66.214 13.8602 64.5949 8.95241 62.7735C8.95241 63.1783 8.95241 63.583 9.003 64.0384C13.9107 65.9104 19.2233 67.4789 24.637 68.7438C26.6102 86.6039 36.3751 102.187 50.4911 112.053C51.4019 112.256 52.3632 112.357 53.2739 112.509C38.6013 102.946 28.1786 87.1604 26.003 68.8449Z" fill="url(#paint3_radial)"/>
<path d="M88.1341 60.5456C89.2239 60.5456 90.1074 59.6621 90.1074 58.5723C90.1074 57.4826 89.2239 56.5991 88.1341 56.5991C87.0444 56.5991 86.1609 57.4826 86.1609 58.5723C86.1609 59.6621 87.0444 60.5456 88.1341 60.5456Z" fill="url(#paint4_radial)"/>
<path d="M71.2355 22.8539C72.3253 22.8539 73.2088 21.9705 73.2088 20.8807C73.2088 19.7909 72.3253 18.9075 71.2355 18.9075C70.1458 18.9075 69.2623 19.7909 69.2623 20.8807C69.2623 21.9705 70.1458 22.8539 71.2355 22.8539Z" fill="url(#paint5_radial)"/>
<path d="M77.7622 98.241C79.299 98.241 80.5449 96.9951 80.5449 95.4583C80.5449 93.9214 79.299 92.6755 77.7622 92.6755C76.2253 92.6755 74.9794 93.9214 74.9794 95.4583C74.9794 96.9951 76.2253 98.241 77.7622 98.241Z" fill="url(#paint6_radial)"/>
<path d="M46.3932 74.31C48.0698 74.31 49.4289 72.9508 49.4289 71.2742C49.4289 69.5977 48.0698 68.2385 46.3932 68.2385C44.7166 68.2385 43.3575 69.5977 43.3575 71.2742C43.3575 72.9508 44.7166 74.31 46.3932 74.31Z" fill="url(#paint7_radial)"/>
<path d="M48.727 34.8273C50.1395 34.8273 51.2846 33.6823 51.2846 32.2698C51.2846 30.8572 50.1395 29.7122 48.727 29.7122C47.3145 29.7122 46.1694 30.8572 46.1694 32.2698C46.1694 33.6823 47.3145 34.8273 48.727 34.8273Z" fill="url(#paint8_radial)"/>
<path d="M29.3425 87.2606C30.7117 87.2606 31.8216 86.1506 31.8216 84.7814C31.8216 83.4122 30.7117 82.3022 29.3425 82.3022C27.9733 82.3022 26.8633 83.4122 26.8633 84.7814C26.8633 86.1506 27.9733 87.2606 29.3425 87.2606Z" fill="url(#paint9_radial)"/>
<path d="M115.582 109.796L114.987 109.763C112.803 104.801 104.996 101.162 95.7328 101.162C86.6683 101.162 79.3571 104.636 76.8429 108.638L75.9166 108.605V110.326C75.4534 116.512 84.7826 123.36 95.5674 123.658C108.602 124.022 115.582 117.935 115.582 111.616C115.582 111.484 115.582 111.351 115.549 111.186L115.582 109.796Z" fill="url(#paint10_linear)"/>
<path d="M115.584 109.798C115.584 116.117 108.603 122.204 95.569 121.84C84.7842 121.542 75.4549 114.694 75.9181 108.475C76.282 103.446 84.7511 98.3848 95.7013 98.3848C106.652 98.3848 115.584 103.479 115.584 109.798Z" fill="url(#paint11_linear)"/>
<path d="M103.475 114.363L98.8103 118.267C97.6855 119.226 96.0314 119.292 94.8073 118.465L82.9638 110.525C82.2029 110.029 81.7729 109.169 81.7729 108.276V89.5842L104.666 94.1827V111.882C104.633 112.841 104.203 113.734 103.475 114.363Z" fill="url(#paint12_linear)"/>
<path d="M84.7813 107.728L93.5635 113.297L93.9467 116.051L84.3529 109.87L84.7813 107.728Z" fill="url(#paint13_linear)"/>
<path d="M78.5634 69.3384L105.757 65.8647L127.955 75.9218L111.844 91.5697L78.5634 69.3384Z" fill="url(#paint14_linear)"/>
<path d="M111.513 115.256L127.79 91.3377L127.955 75.9214L111.646 91.7016L111.513 115.256Z" fill="url(#paint15_linear)"/>
<path d="M119.586 98.7658C119.586 99.0828 119.939 99.272 120.203 99.0961C120.313 99.0225 120.38 98.8985 120.38 98.7658V93.2287C120.38 92.9065 120.016 92.7185 119.753 92.9048C119.648 92.9792 119.586 93.1 119.586 93.2287V98.7658ZM120.975 96.5823C120.975 96.8994 121.328 97.0885 121.592 96.9127C121.703 96.839 121.769 96.7151 121.769 96.5823V90.9791C121.769 90.6569 121.405 90.4689 121.143 90.6552C121.037 90.7296 120.975 90.8504 120.975 90.9791V96.5823ZM122.331 94.3989C122.331 94.716 122.685 94.9051 122.949 94.7292C123.059 94.6556 123.125 94.5316 123.125 94.3989V88.7957C123.125 88.4735 122.762 88.2855 122.499 88.4717C122.394 88.5462 122.331 88.6669 122.331 88.7957V94.3989ZM123.721 92.2155C123.721 92.5326 124.074 92.7217 124.338 92.5458C124.448 92.4722 124.515 92.3482 124.515 92.2155V86.5792C124.515 86.257 124.151 86.069 123.888 86.2552C123.783 86.3296 123.721 86.4504 123.721 86.5792V92.2155ZM125.11 89.999C125.11 90.316 125.464 90.5052 125.728 90.3293C125.838 90.2557 125.904 90.1317 125.904 89.999V84.3627C125.904 84.0405 125.541 83.8525 125.278 84.0387C125.173 84.1131 125.11 84.2339 125.11 84.3627V89.999Z" fill="#2FAAAF"/>
<path d="M113.796 122.833L113.697 122.932C112.34 124.222 110.256 124.388 108.734 123.23L73.171 100.403C72.2447 99.7414 71.7154 98.6496 71.7154 97.5249V65.9644L114.755 86.7731V120.517C114.788 121.41 114.425 122.237 113.796 122.833Z" fill="url(#paint16_linear)"/>
<path d="M113.796 122.833L113.697 122.932C112.34 124.222 110.256 124.388 108.734 123.23L73.171 100.403C72.2447 99.7414 71.7154 98.6496 71.7154 97.5249V65.9644L114.755 86.7731V120.517C114.788 121.41 114.425 122.237 113.796 122.833Z" fill="url(#paint17_linear)"/>
<path d="M106.352 116.943C106.088 116.943 105.823 116.877 105.591 116.711L74.9573 97.7222C74.031 97.1267 73.4686 96.1011 73.4686 95.0094V72.7119C73.4686 72.1826 73.8987 71.8518 74.3287 71.8518C74.4941 71.8518 74.6264 71.8849 74.7588 71.9841L106.485 90.7418C107.246 91.2049 107.709 92.032 107.709 92.9252V115.587C107.709 116.447 107.014 116.943 106.352 116.943Z" fill="url(#paint18_linear)"/>
<path d="M108.669 88.5923L72.3116 67.0889C71.5176 66.5926 71.5837 65.4348 72.4108 65.0378L74.1311 64.2107C74.6604 63.946 75.322 63.9791 75.8514 64.2769L114.061 85.4826C114.988 86.0119 115.021 87.3352 114.161 87.9307L113.4 88.46C112.01 89.4194 110.125 89.4856 108.669 88.5923Z" fill="url(#paint19_linear)"/>
<path d="M140 1H0L11.3295 106.202C12.1387 123.601 38.0347 137.763 69.5045 137.763C103.419 137.763 127.457 122.792 128.615 107.012L140 1Z" fill="url(#paint20_linear)"/>
<path d="M50.835 135.639C50.6353 135.575 50.4369 135.546 50.2372 135.483L47.3217 14.6552L47.9138 14.636L50.835 135.639ZM27.0307 127.205C27.2507 127.39 27.4136 127.624 27.6331 127.792L18.4453 19.6645L17.8533 19.6837L27.0307 127.205ZM111.676 14.9952L111.084 15.0144L104.088 131.771C104.299 131.659 104.492 131.53 104.701 131.383L111.676 14.9952ZM75.9894 137.605C76.2026 137.581 76.3835 137.575 76.5803 137.551L79.4579 13.6127L78.8658 13.6319L75.9894 137.605Z" fill="url(#paint21_linear)"/>
</g>
<defs>
<linearGradient id="paint0_linear" x1="128.671" y1="105.393" x2="13.5688" y2="105.393" gradientUnits="userSpaceOnUse">
<stop stop-color="#2B6DA3"/>
<stop offset="1" stop-color="#86BFE3"/>
</linearGradient>
<radialGradient id="paint1_radial" cx="0" cy="0" r="1" gradientUnits="userSpaceOnUse" gradientTransform="translate(48.2506 46.4797) scale(58.5582)">
<stop offset="0.1458" stop-color="#96A1BB"/>
<stop offset="0.8886" stop-color="#5F6A8D"/>
<stop offset="1" stop-color="#4E5E83"/>
</radialGradient>
<radialGradient id="paint2_radial" cx="0" cy="0" r="1" gradientUnits="userSpaceOnUse" gradientTransform="translate(44.6089 43.0863) scale(66.041)">
<stop offset="0.21875" stop-color="#F3F5F7" stop-opacity="0.5"/>
<stop offset="0.614583" stop-color="#D5D9DF" stop-opacity="0.2"/>
<stop offset="1" stop-color="#D4D8DE" stop-opacity="0"/>
</radialGradient>
<radialGradient id="paint3_radial" cx="0" cy="0" r="1" gradientUnits="userSpaceOnUse" gradientTransform="translate(60.1728 61.7755) scale(51.1084)">
<stop stop-color="#24DEDD"/>
<stop offset="0.859375" stop-color="#24D2D1"/>
<stop offset="1" stop-color="#25DFDE" stop-opacity="0"/>
</radialGradient>
<radialGradient id="paint4_radial" cx="0" cy="0" r="1" gradientUnits="userSpaceOnUse" gradientTransform="translate(88.1581 58.5942) scale(1.97782)">
<stop offset="0.2738" stop-color="white"/>
</radialGradient>
<radialGradient id="paint5_radial" cx="0" cy="0" r="1" gradientUnits="userSpaceOnUse" gradientTransform="translate(71.2595 20.9025) scale(1.97782)">
<stop offset="0.2738" stop-color="white"/>
</radialGradient>
<radialGradient id="paint6_radial" cx="0" cy="0" r="1" gradientUnits="userSpaceOnUse" gradientTransform="translate(77.7736 95.4487) scale(2.76461)">
<stop stop-color="white"/>
</radialGradient>
<radialGradient id="paint7_radial" cx="0" cy="0" r="1" gradientUnits="userSpaceOnUse" gradientTransform="translate(46.4057 71.2638) scale(3.01593)">
<stop stop-color="white"/>
</radialGradient>
<radialGradient id="paint8_radial" cx="0" cy="0" r="1" gradientUnits="userSpaceOnUse" gradientTransform="translate(48.7375 32.2609) scale(2.54093)">
<stop stop-color="white"/>
</radialGradient>
<radialGradient id="paint9_radial" cx="0" cy="0" r="1" gradientUnits="userSpaceOnUse" gradientTransform="translate(29.3725 84.8089) scale(2.48495)">
<stop offset="0.2738" stop-color="white"/>
</radialGradient>
<linearGradient id="paint10_linear" x1="75.905" y1="112.444" x2="115.583" y2="112.444" gradientUnits="userSpaceOnUse">
<stop stop-color="#3D4866"/>
<stop offset="0.3104" stop-color="#282F49"/>
<stop offset="0.75" stop-color="#2E3549"/>
<stop offset="1" stop-color="#232735"/>
</linearGradient>
<linearGradient id="paint11_linear" x1="69.6169" y1="116.459" x2="116.118" y2="105.359" gradientUnits="userSpaceOnUse">
<stop stop-color="#59658A"/>
<stop offset="0.5" stop-color="#4D5A7D"/>
<stop offset="0.995" stop-color="#676E9A"/>
</linearGradient>
<linearGradient id="paint12_linear" x1="81.7445" y1="104.298" x2="104.63" y2="104.298" gradientUnits="userSpaceOnUse">
<stop stop-color="#8A96AE"/>
<stop offset="0.588542" stop-color="#6B789A"/>
<stop offset="0.65625" stop-color="#7C8DAE"/>
<stop offset="0.703125" stop-color="#5B6F98"/>
<stop offset="0.7821" stop-color="#506593"/>
</linearGradient>
<linearGradient id="paint13_linear" x1="87.9943" y1="110.941" x2="86.7091" y2="112.869" gradientUnits="userSpaceOnUse">
<stop stop-color="#465275"/>
<stop offset="1" stop-color="#353F5D"/>
</linearGradient>
<linearGradient id="paint14_linear" x1="86.4673" y1="64.8432" x2="114.173" y2="80.5191" gradientUnits="userSpaceOnUse">
<stop stop-color="#6976A0"/>
<stop offset="0.995" stop-color="#4C5A77"/>
</linearGradient>
<linearGradient id="paint15_linear" x1="129.763" y1="82.6661" x2="113.912" y2="98.3026" gradientUnits="userSpaceOnUse">
<stop stop-color="#3F4A68"/>
<stop offset="0.995" stop-color="#282F49"/>
</linearGradient>
<linearGradient id="paint16_linear" x1="74.453" y1="94.9853" x2="114.298" y2="94.9853" gradientUnits="userSpaceOnUse">
<stop stop-color="#E7EFF5"/>
<stop offset="0.2574" stop-color="#C3C5D2"/>
<stop offset="0.6421" stop-color="#C6C8D5"/>
<stop offset="0.8254" stop-color="#CED3DD"/>
<stop offset="0.8651" stop-color="#DDE4EC"/>
<stop offset="0.8962" stop-color="#DFE6EE"/>
<stop offset="0.9307" stop-color="#98A5B5"/>
<stop offset="0.995" stop-color="#7E8EA0"/>
</linearGradient>
<linearGradient id="paint17_linear" x1="74.453" y1="94.9853" x2="114.298" y2="94.9853" gradientUnits="userSpaceOnUse">
<stop stop-color="#444D6D"/>
<stop offset="0.804862" stop-color="#333A54"/>
<stop offset="0.904314" stop-color="#3C4661"/>
<stop offset="0.9375" stop-color="#2E3344"/>
<stop offset="0.989583" stop-color="#2A2E40"/>
</linearGradient>
<linearGradient id="paint18_linear" x1="75.6352" y1="94.4097" x2="107.336" y2="94.4097" gradientUnits="userSpaceOnUse">
<stop stop-color="#2FD8CF"/>
<stop offset="1" stop-color="#2AD9D0"/>
</linearGradient>
<linearGradient id="paint19_linear" x1="112.199" y1="87.1647" x2="73.6437" y2="65.1022" gradientUnits="userSpaceOnUse">
<stop stop-color="#6D7397"/>
<stop offset="0.5" stop-color="#697490"/>
<stop offset="0.997397" stop-color="#697794"/>
</linearGradient>
<linearGradient id="paint20_linear" x1="70" y1="97.8267" x2="70" y2="5.83369" gradientUnits="userSpaceOnUse">
<stop stop-color="#0E5792" stop-opacity="0.6"/>
<stop offset="0.604" stop-color="#65C6FF" stop-opacity="0.4"/>
<stop offset="1" stop-color="#65C6FF" stop-opacity="0"/>
</linearGradient>
<linearGradient id="paint21_linear" x1="68.3835" y1="135.665" x2="64.5055" y2="16.1266" gradientUnits="userSpaceOnUse">
<stop stop-color="#5FDBFF"/>
<stop offset="1" stop-color="#5FDBFF" stop-opacity="0"/>
</linearGradient>
<clipPath id="clip0">
<rect y="1" width="140" height="138" fill="white"/>
</clipPath>
</defs>
</svg>
