<svg width="140" height="140" viewBox="0 0 140 140" fill="none" xmlns="http://www.w3.org/2000/svg">
<g clip-path="url(#clip0)">
<path d="M119.106 136.851C119.228 136.574 119.314 136.297 119.401 136.002C119.488 135.707 119.557 135.413 119.609 135.118L120.492 132.017L120.423 131.948L21.22 103.154C20.0592 102.825 18.5866 104.332 17.9455 106.549C17.3045 108.767 17.7376 110.829 18.8984 111.175L118.188 139.987L119.106 136.851Z" fill="url(#paint0_linear)"/>
<path opacity="0.6" d="M119.124 136.835C119.246 136.558 119.332 136.28 119.419 135.986C119.506 135.691 119.575 135.397 119.627 135.102L120.493 132.018L120.441 131.932L21.2379 103.138C20.0772 102.808 18.6045 104.316 17.9635 106.533C17.3225 108.751 17.7556 110.813 18.9164 111.159L118.206 139.971L119.124 136.835Z" fill="url(#paint1_linear)"/>
<path d="M17.8934 107.017C17.9108 106.965 17.9108 106.913 17.9281 106.861L117.079 135.638L117.045 135.794L17.8934 107.017ZM18.136 106.099C18.1187 106.168 18.1013 106.237 18.0667 106.307C18.0147 106.463 17.9801 106.619 17.9454 106.775L117.097 135.551L117.287 134.876L18.136 106.099Z" fill="url(#paint2_linear)"/>
<path opacity="0.5" d="M88.6487 124.308L88.7873 123.84L119.21 132.156L118.812 132.537L88.6487 124.308Z" fill="url(#paint3_linear)"/>
<path d="M121.376 136.557C120.735 138.775 119.28 140.299 118.101 139.953C116.941 139.623 116.508 137.544 117.149 135.327C117.79 133.109 119.245 131.585 120.423 131.931C121.584 132.278 122.017 134.339 121.376 136.557Z" fill="url(#paint4_linear)"/>
<path d="M75.8802 120.149C75.8802 123.909 72.7963 126.975 68.9848 126.975C67.2523 126.975 65.6584 126.334 64.4456 125.295C62.9903 124.047 62.0721 122.194 62.0721 120.149C62.0721 120.045 62.0721 119.924 62.0721 119.82C62.0721 119.786 62.0721 119.768 62.0721 119.734C62.0721 119.612 62.0894 119.491 62.1068 119.387C62.1241 119.162 62.1587 118.954 62.2107 118.746C62.228 118.677 62.2454 118.607 62.2627 118.538C62.28 118.451 62.3147 118.365 62.332 118.278C62.4359 117.949 62.5399 117.637 62.6958 117.325C62.7478 117.204 62.8171 117.083 62.8691 116.979C62.8691 116.979 62.8691 116.962 62.8864 116.962C62.8864 116.944 62.9037 116.927 62.921 116.91V116.892C63.025 116.702 63.1463 116.511 63.2675 116.338C63.4408 116.095 63.6314 115.853 63.8219 115.627C63.8739 115.558 63.9259 115.506 63.9952 115.454C64.0818 115.368 64.1684 115.281 64.2551 115.194C64.359 115.108 64.4456 115.021 64.5496 114.934C64.7748 114.744 65 114.588 65.2426 114.432C65.2599 114.415 65.2772 114.415 65.2772 114.415C65.5891 114.224 65.9009 114.051 66.2474 113.912C66.2821 113.895 66.3167 113.878 66.3514 113.878H66.3687C66.5766 113.791 66.8018 113.722 67.0271 113.652C67.131 113.618 67.235 113.6 67.3389 113.566C67.3736 113.549 67.4255 113.548 67.4602 113.531C67.876 113.445 68.3091 113.375 68.7596 113.375C68.7942 113.375 68.8289 113.375 68.8635 113.375C68.8982 113.375 68.9328 113.375 68.9675 113.375C70.8213 113.375 72.5018 114.103 73.7492 115.281C75.0659 116.476 75.8802 118.226 75.8802 120.149Z" fill="url(#paint5_radial)"/>
<path opacity="0.5" d="M68.3957 125.087C70.9313 125.087 72.9869 123.032 72.9869 120.496C72.9869 117.961 70.9313 115.905 68.3957 115.905C65.8601 115.905 63.8046 117.961 63.8046 120.496C63.8046 123.032 65.8601 125.087 68.3957 125.087Z" fill="url(#paint6_linear)"/>
<path d="M69.9726 95.7043C69.6781 95.6697 69.3836 95.6523 69.0717 95.6523C68.7599 95.6523 68.448 95.6697 68.1708 95.7043H64.931L64.8964 95.7909V117.083C64.8964 118.296 66.7675 119.301 69.089 119.301C71.4106 119.301 73.2817 118.313 73.2817 117.083V95.7043H69.9726Z" fill="url(#paint7_linear)"/>
<path d="M69.9726 95.7043C69.6781 95.6697 69.3836 95.6523 69.0717 95.6523C68.7599 95.6523 68.448 95.6697 68.1708 95.7043L64.9657 95.7216L64.8964 95.8083V117.083C64.8964 118.296 66.7675 119.301 69.089 119.301C71.4106 119.301 73.2817 118.313 73.2817 117.083V95.7043H69.9726Z" fill="url(#paint8_linear)"/>
<path d="M69.5742 119.128C69.5222 119.128 69.4702 119.145 69.4182 119.145V97.8875H69.5742V119.128ZM68.6213 119.145C68.6906 119.145 68.7599 119.145 68.8292 119.145C69.0024 119.145 69.1584 119.145 69.3143 119.128V97.9048H68.604V119.145H68.6213Z" fill="url(#paint9_linear)"/>
<path d="M65.9011 98.2671H65.416V95.9802L65.9011 96.2574V98.2671Z" fill="url(#paint10_linear)"/>
<path d="M69.0542 98.025C71.3697 98.025 73.2469 97.0322 73.2469 95.8074C73.2469 94.5827 71.3697 93.5898 69.0542 93.5898C66.7387 93.5898 64.8615 94.5827 64.8615 95.8074C64.8615 97.0322 66.7387 98.025 69.0542 98.025Z" fill="url(#paint11_linear)"/>
<path d="M123.838 54.5262C123.838 84.5131 99.4596 108.999 69.4188 108.999C55.7736 108.999 43.2611 103.929 33.6609 95.5695C22.2271 85.5379 15 70.868 15 54.5262C15 53.6093 15 52.7464 15.0539 51.8834C15.0539 51.6677 15.0539 51.398 15.1079 51.1823C15.1618 50.2654 15.2157 49.2946 15.3775 48.3778C15.5933 46.6519 15.8629 44.98 16.1865 43.2541C16.2944 42.7148 16.4562 42.1215 16.5641 41.5822C16.7259 40.881 16.9416 40.1799 17.1034 39.5327C17.8585 36.89 18.8293 34.3551 19.9079 31.9281C20.3394 31.0112 20.8248 30.0944 21.2563 29.1775C21.2563 29.1236 21.3102 29.0696 21.3641 29.0157C21.4181 28.9078 21.472 28.746 21.5799 28.6382C21.5799 28.5842 21.6338 28.5842 21.6338 28.5303C22.4967 26.9662 23.3597 25.51 24.3844 24.0538C25.7327 22.0583 27.1889 20.1706 28.8069 18.3908C29.2384 17.9054 29.6699 17.42 30.1013 16.9346C30.7485 16.2335 31.4497 15.5324 32.1508 14.8852C32.9059 14.184 33.7149 13.4829 34.5239 12.7818C36.2497 11.3256 38.0835 9.97723 40.0251 8.73676C40.1329 8.68283 40.2408 8.62889 40.3487 8.52103C42.7757 6.95696 45.3645 5.60862 48.0072 4.47602C48.2769 4.36816 48.5465 4.26029 48.7623 4.15242C48.8162 4.15242 48.8702 4.09849 48.9241 4.09849C50.596 3.45129 52.3219 2.80409 54.0477 2.31869C54.8568 2.04902 55.6658 1.83329 56.5287 1.67149C56.8523 1.56362 57.1759 1.50969 57.5534 1.40182C60.8434 0.646755 64.2412 0.215289 67.8008 0.107422C68.0704 0.107422 68.3401 0.107422 68.6637 0.107422C68.9334 0.107422 69.203 0.107422 69.4727 0.107422C84.0886 0.107422 97.3562 5.87829 107.118 15.2627C117.419 25.1325 123.838 39.1012 123.838 54.5262Z" fill="url(#paint12_radial)"/>
<path d="M46.4974 91.2545V90.9309L46.3895 90.5534L46.4974 90.4455V90.2298L46.3895 90.068V89.7983L46.1738 89.6905L46.0659 89.8523V90.1219L45.7963 90.4455H45.7423L45.6345 90.6613L45.7423 90.7691L45.5266 90.9849V91.2545L45.1491 91.6321L45.0412 91.5242L44.8255 91.7399L44.7176 92.0096L44.3401 92.1714L44.0704 92.495H43.6929L43.585 92.3871L43.5311 92.495H43.0457L42.8839 92.6568L42.776 92.5489L42.6142 92.6568H42.5063L42.6142 92.7647L42.3445 93.0343L42.0749 93.3579L42.2906 93.6276L42.1288 93.7355L42.1827 93.7894V94.0591L42.2906 94.4905L42.3985 94.7063V94.8141V94.922V95.0299L42.2367 95.5153L42.1288 95.6231L42.0209 96.0007H41.967L41.8591 96.1085V96.3782L41.6434 96.5939L41.4816 96.6479V96.8636L41.2659 97.0793V97.5108L41.5355 97.8344L41.4816 97.9423H41.5895V98.3737L41.4277 98.4816V98.9131L41.5355 99.0209L41.6434 99.1288L41.7513 99.2906L41.9131 99.2367L42.0209 99.3985L42.2367 99.6142H42.5063L42.6142 99.5603L42.7221 99.3445L43.3693 99.2906H43.5311L43.6389 99.2367L43.7468 99.1288L43.8547 98.967L43.9625 98.7513V98.5355L44.0704 98.4277L43.8547 98.2119L44.1783 97.9962V97.6187H44.4479V97.5647L44.5558 97.0793L44.6637 96.8097V96.7018L44.7715 96.3243L45.0412 96.0546L45.2569 95.3535L45.3648 95.1917V94.9759L45.4727 94.7063L45.5266 94.5445L45.6884 94.2748L45.7963 93.8973L45.9041 93.5737L45.9581 93.4658L46.012 93.3579L45.9041 93.2501V92.8725L46.1738 92.6568V92.5489L46.2817 92.4411L46.0659 92.2253L46.1738 92.1175V91.4163H46.7131L46.821 91.5242L46.4974 91.2545ZM33.9309 95.7849L34.0388 95.8928V95.8389C33.9849 95.8389 33.9309 95.7849 33.9309 95.7849ZM34.0388 95.8928L33.9849 96.0546L34.0927 95.9467L34.0388 95.8928ZM47.7918 71.4071L47.63 71.2453L47.7379 70.9756L47.5761 70.8138L47.6839 70.7059H47.3064L47.1985 70.8138L46.9828 70.9217L46.7671 71.1374L46.6592 71.0295L46.4435 71.1374L45.9041 71.2453H45.6884L45.5805 71.1374H45.4727L45.2569 71.2453H45.0412L44.8255 71.3531L44.6637 71.2453H44.6097L44.1243 71.5689L43.8007 71.6767H43.6929H43.2075L42.9917 71.7846H42.8299L42.7221 71.8925L42.6142 72.0003L42.2906 72.1082L41.967 72.0003L41.8591 71.8925H41.7513L41.6434 71.6228L41.158 71.0835L41.0501 71.1374H40.8883L40.2411 70.4902H40.9423L41.0501 70.3284H41.158L41.2119 70.2745V70.1666L41.158 70.1127L40.8883 70.0048H40.6726L40.4569 69.4655L40.349 69.3576L40.2411 69.1419H40.1333L39.9175 68.9261L39.7557 68.8183L39.54 68.6025L39.2703 68.3329L39.0546 68.225L38.9467 68.1171L38.8389 68.225L38.731 68.1171L38.6231 68.225L38.5153 68.1171L37.8681 67.8475L37.7602 67.5778L37.7063 67.4699L37.5984 67.3621V67.2542H37.4905L37.2748 66.4452L37.0051 65.6362L36.4119 65.0429H36.7355V64.7733L36.5197 64.6654L36.2501 64.5575L35.9804 64.18L35.8725 63.6946L35.9265 63.4249L35.8725 63.1553L35.6568 62.5081V62.1845V62.0766L35.5489 61.9687L35.4411 61.8609V61.753L35.3332 61.6451V61.4833H35.2793L34.9557 61.2137L34.686 61.1058V60.9979H34.5242L34.2006 60.7283L33.9309 60.0811L34.0388 59.9732L33.9849 59.9193V59.8114L33.877 59.7035L33.7691 59.4339L33.4995 59.1103L33.2837 59.0024L33.1759 58.7327L32.6365 57.9237V57.6541L32.5826 57.5462L32.5287 57.2765L32.4208 57.1687V57.1147L32.1511 56.8451V56.5215L32.2051 56.4136L31.7736 55.9821L31.6657 55.7664L31.3421 55.3349V55.1731L31.1803 54.9574V54.6338L31.5039 54.2563L31.5579 54.3102L31.45 53.9866L31.2882 53.8787L31.1803 53.663H30.641L30.3713 53.7709L30.2635 53.663L30.1556 53.7709L29.9399 53.8787L29.6702 54.1484H29.2387L28.9691 53.9866H29.023L28.8073 53.8787L28.6994 53.9866L28.3758 53.7169L28.1601 53.663L27.5129 53.5551H27.2971L27.0275 53.8248L26.8117 53.2854L26.7039 53.1776L26.596 53.2315L25.9488 53.1236L25.8949 53.0697H25.787V53.2854L25.2477 52.9619H25.1398L24.8701 52.9079L24.8162 52.9619L24.5465 52.854L24.3847 52.9619L23.9533 53.0697L23.6836 53.1776L23.5757 53.2854L23.4679 53.5012L23.4139 53.5551V53.8248L23.5218 53.9866L23.6297 54.4181L23.5218 54.6877L23.1982 55.0113L22.8746 55.281L22.551 55.3889L22.0117 55.1192L21.6881 54.8495L21.4723 54.7417L21.1487 54.6338L20.6094 54.4181H20.5015H20.0161L19.6386 54.1484L19.3689 53.5012V53.2854L19.315 53.1776L18.9375 53.1236L18.6678 52.9619H18.2903L18.0745 52.9079L17.5352 52.9619L16.9959 52.854L16.7801 52.6382H16.6723H16.6183L16.3487 52.3686L16.2947 52.3146L16.1869 52.4225L15.9172 52.1529H15.8633L15.4318 51.8832L15.3779 51.7753C15.3239 52.6382 15.3239 53.5551 15.3239 54.4181C15.3239 70.7599 22.551 85.4837 33.9849 95.4613V95.4074L33.877 95.1377L33.9849 95.0299L33.9309 94.9759V94.5445H34.3085H34.3624H34.4163V94.4366L35.0635 94.0051H35.1714L35.2253 93.9512V93.8433L35.5489 93.6276L35.6029 93.5197L35.6568 93.4658L35.9265 92.6568L35.9804 92.8186V92.6029L36.3579 92.9804L36.5197 92.8725H36.5737V92.6029L37.0051 92.7647L37.2748 92.6029L37.3287 92.495H37.6523L37.9759 92.3332V92.0635H38.2995V91.9557L38.3535 91.8478L38.0838 91.5781L38.3535 91.3085L38.5692 91.0927V90.9309V90.8231H38.5153L38.2995 90.6073V90.3377L38.0299 90.068H38.5153V89.9062L38.4074 89.6365L38.5153 89.5287L38.4613 89.4747V89.0433L38.3535 88.6118V88.3421L38.4613 88.2343L38.3535 88.1264L38.5692 87.9107V87.8567L38.5153 87.8028L38.2995 87.6949L37.8681 87.2635L37.9759 86.9938V86.9399L37.8141 86.7781L37.922 86.5623L37.8681 86.4545L37.3827 85.9691H38.0299L37.922 85.8073L38.0299 85.6994L37.922 85.5915V85.1601L38.0299 84.8904L38.1377 84.7825L38.0838 84.5129L37.9759 84.405V84.0814L38.1917 83.7578L38.4074 83.1645L37.9759 82.7331H38.6771L38.8928 82.3555L39.0007 82.1398V81.9241L39.2703 81.6544V81.3308L39.4321 81.169V81.0611L39.6479 80.8454H39.8636H39.9715L40.1872 80.6297H40.2411L40.8883 79.8746V80.6836L40.9962 80.5218L41.1041 80.3061L41.3737 80.0364L41.4816 79.9825L41.5355 79.8746L41.6434 79.7667L42.1288 79.2274L42.2906 79.1195L42.8299 78.5802L43.0996 78.3645L43.3693 78.1487L43.6389 78.0409L43.9625 77.7712L44.7715 77.0161L45.203 76.5307L45.2569 76.3689L45.7963 75.6678V75.5599L46.0659 75.1285V74.9127L46.5513 73.9959V73.888V73.6183L46.8749 73.2947H46.9828L47.0367 73.2408L47.1985 72.8633L47.4682 72.4857V72.3779H47.1446L47.7918 71.7307H47.6839L47.7918 71.4071ZM90.6688 82.1398L90.561 82.0319L90.507 81.9241L90.3992 81.8162L90.2913 81.8701L89.8598 81.7083V81.4387L89.752 81.3308L89.9677 81.2769L89.698 81.169V81.0611V80.9533V80.8993L89.4284 81.0072V80.8454H89.2126L88.8351 80.4679V80.4139L87.8104 81.0611L88.6733 79.8746H87.8643L88.2418 79.4971H88.134L87.7564 79.0656V78.8499L87.5407 78.6341L87.4328 78.742L87.1092 78.4723V78.4184L86.1924 78.0409H86.3542L85.9766 77.3937V77.1779H85.8148L85.653 76.9622L85.3834 76.6925H85.1676L84.9519 76.4768H84.5744V75.9914H84.4665L84.4126 75.7757H84.3586L84.2508 75.506H84.1968L83.9272 75.6139L83.8193 75.506H83.7654L83.4957 75.6139L83.226 75.506L82.9024 75.2363L83.0103 75.506L83.1721 75.5599L83.4418 75.8835H83.5496L83.7654 76.1532L83.8732 76.0453L84.3586 76.3689L84.6283 76.8004L84.7901 76.9083H85.0598V77.3397V77.4476H85.2755L85.4912 77.7712H85.5452H85.8148V78.0948H85.8688L85.9227 78.3645V78.4184L86.0845 78.8499V78.9038H86.1924L86.5699 79.1735V79.4431L86.6778 79.6589L86.8935 79.8746L87.0014 80.3061L87.325 80.8454L87.2171 81.1151L87.271 81.2229L87.4868 81.3308L87.8104 81.7083L87.8643 81.8701L88.1879 81.9241V82.0859L88.4576 82.1937V82.3555H88.5654L88.8351 82.6791L89.2666 82.9488V83.0567H89.4823L89.9677 83.5421H90.2374L90.2913 83.2724L90.6688 83.3803L90.7767 83.0567L90.6688 82.787L90.7767 82.5173L90.7228 82.4634L90.6688 82.1398ZM101.887 83.1106L101.779 83.2185V83.4342L101.671 83.596V83.7578H101.779V83.4342L101.887 83.3263V83.2185V83.1645V83.1106ZM103.613 83.0027V82.8949H103.505L103.397 82.4634H103.235L103.451 82.1937L103.343 81.9241L103.127 81.7083L103.02 81.5465L102.804 81.3847V81.169L102.534 81.0611L102.372 81.0072L102.103 80.7375L101.887 80.4679L101.779 80.6297H101.671L101.779 80.8454L101.671 81.0611V81.3308L101.617 81.4387V81.6544L101.509 81.7623V82.0319L101.24 82.1398V82.4095H101.725V82.787L101.887 83.1106L102.103 82.6791L102.049 82.5713L101.941 82.3555V82.0859L102.211 81.9241L102.318 81.8162L102.75 81.6544L103.02 81.9241L103.181 82.1937V82.5713L103.074 82.6791L103.181 82.787L103.505 82.9488V83.3263L103.613 83.2185H103.775L103.613 83.0027ZM99.6218 75.9914H99.7296V75.506L100.215 75.8835V75.4521L99.9993 75.1824H99.9454H99.6757V74.8049L99.46 74.5352L99.3521 74.6431H99.2442V74.7509H99.1364L99.0285 74.9667V75.1824L98.597 75.6139L98.4892 75.8835H98.3274H98.2195L97.6802 76.8004V75.8835L97.4105 75.9375V75.9914V76.2071L97.033 76.5847L96.8172 76.8543V76.9622L96.6015 77.2858L96.3318 77.5015L95.8464 77.6094L96.3858 78.4184L95.5228 77.9869V78.2027L95.361 78.0948V78.3105L95.2532 78.5802V78.9038L94.552 78.7959L94.2824 78.6341H93.9588L93.8509 78.4184L93.743 78.6881L93.6352 78.7959V78.9577V79.1195V79.2813L93.743 79.4971L93.9588 79.7128H94.0127L95.6307 78.9038L94.2824 80.3061L94.4442 80.5218L94.552 80.6836V81.0611L94.4442 81.169L94.552 81.2229V81.7623L94.7678 81.6005L94.8756 81.8701H94.9835L95.0914 81.978L95.3071 81.8701H95.361L95.6307 81.4926L95.9004 82.0319V82.3016L96.0622 82.1937L96.17 82.3016L96.3318 82.2477L96.3858 82.0319H96.8172L96.9251 82.1398H97.1408L97.2487 81.978L97.5184 82.3555L97.7341 82.2477L97.788 82.4095H97.8959L98.1656 82.7331L98.0577 82.787L98.2195 82.7331H98.3813L98.5431 82.6252L98.651 82.3555V81.8162L97.8959 82.1398L98.7049 81.3308L98.3813 81.0072H99.0285L99.1364 80.8993L98.4352 80.4679H99.3521V80.36L99.6218 80.1443V79.7667L99.7296 79.6589V79.2274H99.8375L100.053 78.9577L99.9454 78.3645L99.6218 78.2027L100.107 77.8791L99.8914 77.6633V77.5015L99.6218 77.2858L99.8375 77.0161L99.6757 76.6925L99.7296 76.6386L99.3521 76.5307L99.8375 76.2611L99.6218 75.9914ZM107.226 82.4095H107.119H107.28H107.226ZM103.613 80.6297H103.505L103.289 80.6836L103.181 80.5757L103.127 80.6297L103.02 80.8454H103.181L103.289 80.7375L103.613 80.6297ZM102.966 79.0656L102.858 78.9038L102.642 79.1195H102.696H102.804L103.02 79.0656H102.966ZM88.6733 78.6881L88.7272 78.6341V78.5802L88.6733 78.6881ZM88.8351 78.1487L88.7272 78.0409V77.933L88.6194 77.8251L88.5115 77.6094L88.0261 77.124L88.3497 76.9083V76.6925L88.2418 76.5847V76.2071L88.3497 76.0993V75.6678V75.5599L88.2418 75.3442L87.7025 74.8049H87.1632V74.6431L87.0553 74.5891L86.9474 74.3195V74.2116H86.6778L86.462 74.4273L85.9227 73.888L85.653 73.8341V73.2947L85.9766 73.1869L85.8688 73.079V72.8633H85.7609L85.653 72.7015L85.4373 72.4857V72.3779L84.898 72.4857L84.6283 72.2161L84.7362 72.0003L84.6283 71.8385V71.7307L84.5744 71.5689L84.4665 71.8925L84.5744 72.0003L84.4665 72.1082H84.5744V72.7554L84.844 72.6475V73.0251L84.9519 73.1329V73.2408L85.0598 73.2947L85.1137 73.5105H85.1676L85.4373 73.8341L85.5452 73.888L85.5991 73.9959H85.7609V74.3195L85.9766 74.4273L86.0845 74.5352L86.3002 74.8588L86.4081 75.506L86.462 75.6678L86.5699 75.9375L86.462 76.3689L86.7317 76.6386L86.6238 76.7465L86.7317 76.8543L86.8396 77.0161L87.0553 77.124L87.271 77.5555L87.1632 77.6633L87.5946 78.2027L87.8643 78.0948L87.9722 78.2027H88.4036L88.134 78.4184L88.2958 78.5802L88.5654 78.6341L88.6733 78.6881V78.4723L88.943 78.742V78.5802L88.8351 78.1487ZM87.0553 77.6633L86.8935 77.8251L86.8396 78.0409H87.1092L87.0553 77.6633ZM86.462 77.933L86.3542 78.0409H86.5699L86.462 77.933ZM105.393 74.2116V74.2655L105.447 74.4273H105.662L105.824 74.5352L105.393 74.2116ZM71.7382 73.7262V73.6183L71.5225 73.1869V73.1329H71.3068V73.0251H70.6596L70.6056 73.2947V73.4565L70.7135 73.7262L70.6596 73.8341L70.7674 74.1037L70.8753 74.5352H71.0371L71.145 74.4813H71.5225L71.6304 74.4273L71.7382 74.3195L71.8461 74.1037L71.7382 73.7262ZM106.525 72.9711L106.417 72.5936L106.525 72.3779L106.417 72.27V72.8093L106.148 72.5936L105.932 72.8633L105.824 72.7554V72.8633L105.339 73.1329L105.069 73.2408L105.339 73.5105L105.824 74.4273L105.932 74.3195L105.77 74.2116L105.878 73.888L106.148 73.4026L106.525 73.2947V72.9711ZM104.53 72.8633V72.9711L104.584 72.8633H104.53ZM70.9292 72.6475V72.3239H70.8214V72.5936H70.6596V72.8633L70.9832 72.6475H70.9292ZM35.2253 14.4534L35.1175 14.3995V14.5074L35.3871 14.5613L35.2253 14.4534ZM35.7647 13.3748V13.2669L35.6568 13.213L35.3871 12.9433V12.7815L35.1175 12.7276L34.9017 12.7815L35.1175 13.1051V13.213L35.3332 13.4287L35.1175 13.6444L35.2253 13.9141L35.0096 13.968V14.2377V14.2916L35.1714 14.3456V13.968L35.2793 13.8602L35.2253 13.8062L35.5489 13.4826H35.7647V13.3748ZM108.737 31.82L108.952 31.6042V31.5503L108.844 31.3885V31.1728H108.79L108.683 30.5256L108.575 30.4177V30.148L108.413 29.9862L108.251 29.6087L108.305 29.5548H108.251L108.035 28.8536V28.6918L107.981 28.584L107.874 28.0986L107.928 28.0446L107.82 27.721L107.874 27.6132L107.766 27.5053L107.874 27.3974L107.766 27.2896L107.658 27.0199L107.55 26.966L107.28 26.6963V26.3188L107.334 26.2648L107.28 26.157H107.065L106.633 25.7255L106.849 25.5098V25.4019V25.294H106.741L106.633 25.1322H106.525L106.417 25.0244L106.04 24.8626L105.986 24.8086L105.77 24.7008L105.608 24.539L105.554 24.4311H105.285L105.231 24.3772L105.177 24.4311H105.069L105.177 24.539H105.015V24.7547H104.907L104.799 24.9704V25.0244L104.692 25.1322L104.799 25.2401L104.692 25.5098L104.152 26.0491V25.8334L103.721 25.9412L103.613 25.8334V25.8873L102.966 25.348L103.074 25.0783V24.9704L102.858 24.7008V24.3232L102.696 24.3772L102.48 24.5929H102.103L101.995 24.485L101.887 24.539L101.509 24.3772L101.348 23.9996L101.563 23.5142L101.671 23.3524V23.1367L101.887 22.921V22.6513L102.103 22.4895V22.2198L102.211 22.112V22.058L102.426 21.7884L102.534 21.5726L102.642 21.4648L102.534 21.303L102.642 21.1951V20.9794L102.75 20.3322H102.858L102.912 20.0625H102.966V20.0086L103.235 19.685L103.343 19.4692L103.451 19.3614L103.343 19.0917L103.451 18.9838V18.822L103.559 18.7142L103.505 18.6063V18.2827L103.397 18.013L103.667 17.6355L103.829 17.4198V17.3119L103.613 16.9883L103.721 16.6647L103.883 16.5029L103.99 16.2872L104.26 16.0714L104.368 15.8018H104.799V15.8557L105.015 15.6939H105.231L105.447 15.5321H105.77L105.932 15.3703H106.202L106.31 15.1006L106.687 15.2624L107.065 15.1006L107.334 15.2085C97.5723 5.82409 84.3047 0.0532227 69.6888 0.0532227C69.4191 0.0532227 69.1494 0.0532227 68.8798 0.0532227L68.664 0.268956H68.5022L67.5854 1.18582L68.0168 0.107156C64.5112 0.215023 61.1134 0.64649 57.7695 1.40156L58.3628 1.56336H56.7987C55.9897 1.77909 55.1268 1.99482 54.3178 2.21056L54.4796 2.48022V2.69596H54.5335L54.6414 3.01956L54.7492 3.07349H54.8571L55.2886 3.12742L55.8279 2.58809V3.18136L55.9358 3.34316L56.0436 3.45102L56.1515 3.55889H56.4751L56.7448 3.72069H56.7987L57.1223 4.04429L57.2302 4.58363L57.338 4.85329L57.2841 4.96116L57.4998 5.06903L57.8234 5.55443V5.82409L58.0392 5.98589L58.147 6.30949L58.0392 6.63309H58.0931V6.74096L58.5246 7.17243L58.5785 7.22636L58.6324 7.17243L58.8482 7.28029L59.01 7.17243L59.819 6.95669L59.6032 7.22636L59.7111 7.33423L59.819 7.38816H60.1426L60.628 8.84436L59.765 7.98143H59.5493L59.2257 7.71176V7.98143V8.03536L59.765 9.38369L58.6324 8.25109H58.3628L58.0392 7.92749V7.65783L57.8234 7.60389H57.4998L56.9605 7.28029H56.529L56.4212 6.47129L56.529 6.25556L56.2594 6.03983V5.71623L56.1515 5.44656L56.4212 5.23083V5.01509L56.3133 4.79936L56.2054 4.69149L56.0436 4.79936L55.5043 4.90723H55.1807L54.8571 4.58363L54.6414 4.47576L54.5874 4.36789L54.2099 4.31396L53.9402 4.04429L53.8324 3.93642H53.2391L53.5088 4.04429L53.8324 4.58363L53.5627 5.12296L53.1852 5.23083L52.6998 5.01509L52.5919 4.96116L52.538 4.79936H52.484L52.3762 4.90723L52.3222 4.96116H52.4301L52.538 5.23083L52.6458 5.33869H52.9155L53.1312 5.55443H53.347L53.4009 5.50049H53.7245L53.8324 5.66229H54.102L54.2099 5.98589L54.2638 6.03983V6.14769H54.3717L55.6661 5.60836L54.5335 6.74096L54.8032 7.38816L54.156 6.74096H53.9402L53.4548 6.41736H53.1852L52.8076 6.79489L52.6998 6.41736H52.5919H52.1604L51.9986 6.30949L51.729 6.41736L51.4593 5.77016L51.6211 5.71623L51.5132 5.60836V5.55443L51.3514 5.33869L51.2435 5.06903L50.9739 5.33869L51.0278 5.39263L51.0818 6.03983L50.9739 6.36343L51.1896 6.47129L51.6211 6.84883V6.95669H51.729L51.9986 7.22636L52.2683 7.65783L52.2144 8.30503V8.41289L52.3762 8.68256L52.2683 9.06009V9.11403L52.538 9.38369L52.6458 9.65336L52.7537 9.59943L52.9694 9.65336V9.59943L53.293 9.27583L53.5627 9.38369L53.7784 9.27583L54.0481 9.43763L54.3178 9.32976L54.4256 9.65336L54.6414 9.76123H55.0189L55.3425 10.1388V10.1927L55.5043 10.3006L55.6122 10.5163L55.72 10.6242L55.774 10.732L56.4751 11.0017L55.72 11.3253L55.8279 11.4332L56.0436 11.6489L55.9897 11.7568V11.8646L56.2594 11.4871L56.3672 11.8107H56.4751L56.8526 12.1882L56.529 12.4579L56.2594 12.5658L56.0436 12.6736L55.72 12.7815L55.4504 12.5658H55.2346L54.8032 12.1343L54.911 12.0264V11.9186L54.8032 11.8107L54.4796 11.7028L54.5874 11.4332H54.4796L54.3717 11.1635L54.0481 10.9478V10.732L53.8863 10.8938L53.6706 11.0017L53.5627 11.1096L53.4548 11.2174L53.5088 11.4871V11.541L53.8324 11.7028L54.102 12.5118L53.9942 12.7815L53.7784 13.0512V13.159L53.9942 13.4287L53.7784 13.9141V14.1298L53.5627 14.3456V14.6152L53.293 14.7231V14.9928L52.9155 15.3164L52.4301 15.2085L52.3762 15.1546H52.2683L51.9447 15.2624L51.675 15.1006L51.0278 14.9928L50.8121 14.777L50.7042 15.0467L50.4345 14.777H49.8952L50.5424 14.022H50.866L51.1896 13.968L51.3514 13.8062L51.8368 14.0759L51.8908 14.022H52.3222V13.7523L52.5919 13.8602V13.6984L52.2683 13.3748L52.6458 13.213V13.1051L52.538 12.9972L52.6458 12.7276V12.6197L52.7537 12.5118L52.5919 12.35L52.484 11.9186L52.5919 11.6489V11.3792L52.3762 11.2714L52.3222 11.1096L52.0526 11.0556L51.675 10.5163L51.6211 10.2466L51.5132 10.1388V10.0309H51.4053L51.2975 9.65336L51.3514 9.43763L51.1357 9.11403V8.95223L50.9199 8.73649V8.57469L50.8121 8.46683L50.7042 7.92749V7.81963L50.4885 7.60389V7.44209L50.2188 7.54996V7.28029L50.111 7.22636L50.057 6.84883L49.8952 6.68703L49.7334 6.30949L49.8952 6.14769L49.7873 5.87803L49.8952 5.77016V5.66229L50.0031 5.23083L49.9492 5.01509V4.79936L49.8413 4.69149V4.42182L49.7334 4.15216L49.3559 3.99036H49.3019L49.1941 4.09822C48.9244 4.20609 48.6547 4.31396 48.439 4.42182L48.2233 4.63756V4.74542L48.2772 4.79936V5.06903L48.3311 5.23083L48.439 5.87803V5.98589L48.6548 6.20163L48.439 6.47129V6.57916L48.5469 6.84883L48.2233 7.17243L47.9536 7.54996L48.0615 7.87356L47.9536 7.98143L48.1154 8.14323L48.2233 8.30503H48.439L49.6255 9.49156L48.6548 9.11403V9.49156L48.439 9.65336L48.493 9.76123L48.7087 9.86909V9.92303L48.8165 9.97696H49.0862L49.1402 10.0309L49.3019 9.81516L49.6255 10.1388V10.4084H49.7334L50.111 10.8399L50.2188 10.786H50.2728L50.3806 10.8938H51.0818L50.5424 11.4332V11.8107L50.6503 11.9725L50.5424 12.0804V12.6197L49.8952 12.35L49.6795 11.9186L49.5716 11.8107H49.248L49.1402 11.541L49.0862 11.4871L48.7087 11.4332L48.2772 11.1635L47.8997 11.0556L47.8457 10.9478H47.5761L47.4682 10.8399L47.0907 11.2174L46.821 10.6242L46.4974 10.5163L46.2817 10.4084L45.7423 10.3006L45.0951 10.4084L44.9873 10.3545L44.8255 10.4624L44.7176 10.4084L44.6097 10.4624V10.5163V10.8938H44.6637V11.0017H44.8255L45.0951 11.4332V11.4871H45.1491L46.1738 12.5118L44.9873 12.1343V12.2422L44.7715 12.35L44.8794 12.4579L44.7715 12.404V12.6197L44.5558 12.8354H43.8547L43.6389 12.404L43.7468 12.2422L43.6389 11.9725L43.7468 11.8646H43.6389L43.4771 11.9725L43.4232 12.0264V12.35H42.8839V12.404L42.5063 12.5658H42.0209H41.967L41.8591 12.6736L41.7513 12.5658L41.6434 12.6736L41.7513 12.7276L41.5895 12.8894L41.6973 12.9972L41.3198 13.3748L40.9962 13.2669L40.4569 14.6152V13.4826L40.4029 13.5366L39.9715 13.3208L39.9175 13.213L39.3782 13.5366L39.0007 13.159L39.0546 13.1051V12.8894L38.731 12.9972H38.6771L38.4074 13.3748L38.2995 13.4287L37.9759 13.8062L38.1917 14.3456L37.3827 14.2377H37.1669V14.5074L38.3535 14.2916L37.0051 15.1006L36.8973 15.2085H36.7355L36.4658 15.4782L36.3579 15.2624H35.9804L35.6029 14.7231L35.3332 14.5074H35.2793L35.5489 14.777L35.495 14.9388L35.6029 15.0467L35.495 15.1006L35.3871 15.3703V15.8018V15.8557L35.6568 17.0422L34.8478 16.2332L34.5781 16.1254L33.7152 16.9883L34.1467 15.9096L33.9309 15.9636L33.7691 15.8018V16.1254L32.8523 16.7726L33.2298 15.8557L33.2837 15.6939V15.4782L33.0141 15.2085L32.9601 15.0467L32.8523 14.9388L32.7983 14.8849V15.0467L32.4208 14.777C31.7197 15.4242 31.0185 16.1254 30.3713 16.8265H30.4253L30.5331 16.8804L30.8028 16.7726L31.0725 17.0422L31.2882 17.0962L31.6657 17.1501L31.9354 17.0962L32.0433 16.9883H32.3129L32.4208 16.9344L32.8523 16.8265V17.204V17.3119L33.1759 17.6355L33.4995 18.1748L33.1219 18.5524L32.7983 18.7681L32.5826 19.3074L32.1511 18.822L31.9354 18.7142V18.876L32.0433 18.9299V19.685L31.8275 19.9007H31.6657L31.5039 20.0625H31.1803L31.0185 19.9007H30.8028L30.6949 19.7928H30.4253L30.2095 19.5771V19.4692H30.1556L30.1017 19.631L29.5623 19.3074L29.023 19.4692L29.2927 18.822L29.2387 18.7142V18.6063L29.023 18.4445V18.3366C27.4589 20.1164 25.9488 22.0041 24.6005 23.9996V24.0536L24.8701 24.3232L25.1398 24.2154H25.1937L25.5173 23.8918L25.7331 24.1075L25.8409 23.9996H25.787C25.787 23.9457 25.8409 23.8918 25.8409 23.8918L26.0567 23.6221L26.3803 23.9996V24.1075L26.4342 24.2154H26.8117L27.1893 24.5929L26.9735 25.1322L26.7039 25.0244V25.0783L26.596 25.1862L26.7578 25.294L26.3803 25.4558V25.8334L26.1106 25.5637L26.0567 25.6716V25.9412H24.9241L24.7083 25.8334H24.4387L24.3308 25.7794L24.0611 25.8334L23.7375 25.9412L23.6297 25.8334L23.4139 25.9412L23.3061 26.2109H23.4139L23.1982 26.7502L23.4679 26.4806L23.7375 27.1278L23.6297 27.6132V27.9368L23.7375 28.3143L23.6297 28.6379L23.36 29.1772H22.9285L22.6589 28.9076L22.551 28.6918L22.2813 28.3682L22.1735 28.4222L22.0656 28.53H21.8499H21.7959H21.742V29.1772L21.5263 28.9615L21.4184 29.0694V29.4469L21.3105 29.5008V29.6087L21.4184 29.7166V30.0941V30.148L21.5802 30.0941L21.8499 30.4716H21.9038L22.2813 30.3638L22.4971 30.5795L22.6049 30.7413L22.8207 30.957L22.7128 31.2267L22.8207 31.7121L21.6341 31.82L20.8251 31.766L20.5015 32.0357L20.124 32.1436L20.0161 32.0357C18.8835 34.4627 17.9667 37.0515 17.2116 39.6403L17.7509 39.856V40.1796L18.0745 39.856H18.506L18.6139 40.1257L18.8296 40.3954L18.9375 40.6111L19.0453 40.719L19.1532 40.8268H19.2611L20.1779 41.7437H20.2858L20.5555 41.8516L21.2027 42.4988L21.3105 42.3909L21.6341 42.7684L21.8499 42.8763L22.2274 43.3078L22.2813 43.4156L22.3892 43.4696L22.7667 43.7932L22.6049 44.1707H22.3353L22.2813 44.4404L22.3892 44.71L22.3353 44.8718L22.3892 45.0336H22.551L22.7667 45.4651L23.0364 45.573V45.8426L23.2521 45.9505L23.36 46.0584H23.5757V46.328L23.6836 46.5438H23.7915L23.8993 46.4898L23.6297 46.328L23.9533 46.0044L23.5218 45.573L23.6836 45.4112L23.6297 45.1415L23.7375 44.764L24.2769 44.5482L24.3847 44.8179L24.6005 44.6022L24.8162 44.71L24.8701 44.5482L25.3016 44.3325L25.5173 44.5482V44.3325H26.0567L26.1645 44.4943H26.3263L26.7039 44.6022V44.71L26.8117 44.6022L27.0275 44.8179L27.4589 44.4404V44.4943L27.7286 44.3864H27.9443L28.0522 44.2786L27.7825 44.0089L27.6747 43.7392L27.5668 43.6314L27.0275 42.9842H27.405L27.5668 42.8763H27.6207L27.5129 42.4448L27.8904 42.1212H27.9443V42.0134V41.6358L27.8365 41.4201L27.9443 41.2044V41.0965L27.8365 40.8268L27.9983 40.665L28.1061 40.3954H28.4837H28.5376V40.3414L28.3758 40.1796L28.5915 39.9639V39.047H29.1848V38.7774L29.5623 38.6695H29.6702L29.9399 38.3998L30.1556 38.6156L30.3713 38.3998L30.641 38.6695H30.7489L30.8567 39.047L30.9646 39.101L31.0725 39.047L31.2882 39.1549L31.3961 38.8852L31.5579 39.047L31.7197 38.8852L31.8815 38.9931L31.9893 38.8852L32.259 38.9931L32.4208 38.9392L32.5826 38.7234L32.4208 38.238H33.3377L33.3916 38.3459H33.4995L33.7152 38.4538L33.8231 38.3459H34.0388L34.0927 38.292L34.2006 38.0223H34.4163V37.9684L34.6321 37.7526H34.9017L35.0635 37.6448H35.4411H35.495L35.6029 37.5369L36.0343 37.429L36.3579 37.7526L36.1961 38.1841L35.8186 38.3459L35.5489 38.7774L35.7107 38.8313V39.1549L35.2793 39.5864L35.3871 39.6942L35.1714 40.3414L34.9557 40.2336L35.0635 40.3414V40.5032L35.3332 40.4493L35.7107 40.665L35.9265 40.7729L36.4658 41.2044L36.5197 41.3122L36.6276 41.3662L36.7355 41.474H36.8433H37.113L37.2209 41.5819H37.3287H37.4366L37.6523 41.7976H37.7063L37.8141 41.6898L38.2995 42.0673H38.4074L38.6771 42.4448L38.7849 42.6606L38.8389 42.9302L39.1085 43.3078L38.731 43.4696L38.8389 43.6314L38.6231 43.8471L38.5153 44.0629L38.2456 44.3325L38.0299 44.4404L37.922 44.71H37.6523V44.764L37.113 44.6561L37.0591 44.6022H36.4119H36.3579H36.0343L35.6568 44.8179L35.2253 44.71L34.7939 44.4404L34.5781 44.3325L34.4163 44.2246L34.3085 44.3325L33.9309 44.1707L33.6613 43.901V43.8471L33.4455 44.0629L33.3377 43.955L33.2298 44.0629L32.6905 43.5235H32.3129L32.259 43.4696L32.1511 43.5235H31.7197L31.6657 43.6314L31.2343 43.8471H31.0185H30.9107L30.8567 43.955L30.641 44.0629L30.4792 44.2246L30.3713 44.3864V44.6022H29.7781L29.4005 44.4943L29.023 44.8718H28.9151L29.023 44.9797L28.3758 45.2494H27.9443L27.8365 45.1954L27.5129 45.3033L27.405 45.0336L27.2971 45.3033V45.3572L27.3511 45.4112H27.405H28.214L27.6747 45.9505L27.7286 46.0584L27.9983 45.9505V46.4898H29.1309L27.7825 47.0292V47.1371L27.8904 47.0831L28.2679 47.2449L28.4837 47.6764L28.3758 47.7842L28.5376 47.946L28.6455 47.8382V48.0539H29.1848L29.023 48.2157H29.5623V48.5932L29.6702 48.6472L29.7781 48.5393H29.8859L29.9938 48.4314H30.0477L29.9399 48.1618L30.5871 48L30.9107 48.1079L31.2882 48.2696H31.5579L31.8815 48.6472L31.9893 48.755L32.6365 48.7011L32.8523 48.5932H32.9062V48.5393L33.3916 48H33.6613L33.9849 48.2157L34.3085 47.8921L34.8478 48.1079V48.4854L34.5781 48.755L34.7939 48.9708L34.5781 49.1865L34.7399 49.4562L34.8478 49.7798L34.7399 49.9955V50.3191L34.6321 50.6427L34.5242 51.2899L34.2006 51.6674V51.8292L33.9309 52.0989L33.877 52.6382L33.6073 53.1236L33.3916 53.3933L33.2837 53.663L32.9062 53.7709L32.3669 53.663L31.9354 53.7709V54.5799L32.0433 54.6877V54.7417L32.3129 55.0113V55.281L32.5287 55.3889L32.6365 55.6585L32.9062 55.9282L33.0141 55.7125V55.4967L33.2298 54.9574L33.3377 54.8495L33.877 53.4473V54.9035L33.7691 55.0653V55.6046L34.4163 55.8743L34.2006 56.09L34.4703 56.3597L34.5242 56.5215L34.6321 56.6293L34.7399 56.7911L35.0096 57.4383V57.708L35.1714 57.8159L35.2793 58.0316L35.495 58.1395L35.6568 58.517L35.8725 58.6249L36.0343 59.1103L36.3579 59.4339L36.6276 59.6496L36.8433 59.9193V59.9732H37.113L37.2209 60.2429L37.3287 60.3507L37.4366 60.6204L37.5984 60.7822L37.6523 60.8901L37.7602 60.9979L37.6523 61.4833L37.7602 61.753L37.8141 62.0227L38.4074 62.6159H38.5153H38.7849L38.8928 62.8317L39.2164 63.1013V63.2092L39.4861 63.3171L39.3782 63.5867L39.54 64.1261L39.7557 64.2339V64.5036L40.1872 64.9351H40.4029L40.5108 65.3665L40.7805 65.4205L40.9962 65.9598L41.1041 66.1755L41.2119 66.6609V67.1463H41.1041L41.2119 67.3081L41.2659 68.0093L41.4816 68.225V68.7643L41.6434 68.9261V69.034L41.9131 69.1419L42.1288 68.9261H42.5063L42.6681 68.7104V68.6025L42.9917 68.2789H43.3693L43.4771 68.3868H43.6929L43.8007 68.4947L44.0704 68.3868L44.2861 68.3329L44.7176 68.0093H45.1491L45.3648 67.7935L45.4727 67.9014L45.6884 67.5778L45.9581 67.4699H46.0659L46.821 67.2003L46.9289 67.0924L47.4682 66.9845L47.7379 66.8767L47.9536 66.6609H48.1154L48.2233 66.3373L48.5469 65.9598L48.9244 65.8519H49.0323L49.248 65.6362L49.3559 65.7441V65.6362H49.5177L49.7873 65.4744H50.0031L50.2188 65.3665L50.3267 65.4205V65.0429L50.5964 64.7733H50.7042L50.9739 64.6654V64.5036L51.3514 64.0182L51.729 63.8564L51.7829 63.9103H51.9447V63.8025H51.729L51.9447 63.3171L51.729 63.1013H51.9986L52.4301 61.9687V62.8856L52.538 62.7777L52.6458 62.8856L52.6998 62.7777L52.9155 62.562L53.1852 62.1845V62.0766V61.9687V61.8609H53.1312L52.7537 61.5912L52.6458 61.3755L52.4301 61.1597L52.3222 60.8901L52.2144 60.7283H51.4053L51.1896 60.8361L50.7582 60.7283L50.6503 60.8361L50.2728 60.6743L49.7873 60.2429L49.6795 60.135L49.3559 59.7575L49.248 59.2181L49.1402 59.1103L48.7087 59.5417L48.9244 59.7575L48.3851 60.2968V60.4047H48.1693L47.8997 60.5125H47.5761L47.4682 60.4047H47.3603L47.1446 60.3507L46.821 60.6204L46.5513 60.5125H46.4435L46.012 60.6743L45.9041 60.2429H45.7963L45.6884 59.9732H45.7423V59.7575L45.5266 59.9732L45.1491 59.5957L45.0412 59.3799L44.6097 58.8945L44.2322 57.9777L44.1243 57.8698L43.8007 57.5462L43.5311 57.4383L43.3153 56.899L43.2614 56.7911L43.1535 56.6833L42.5603 56.09H42.776L42.1288 55.6585L42.9378 55.5507V55.4428V55.2271V55.1192L42.1288 54.7956H43.0996L43.585 54.3102V54.7417H43.6929L43.8007 54.8495L44.0165 54.6338L44.1243 54.8495L44.2861 54.6877L44.5558 54.9574L44.8255 55.2271V55.3349L45.0951 55.6585L45.1491 55.7664H45.203L45.3109 55.9282H45.9581L46.012 55.9821L46.1738 55.8203L46.3895 56.3597L46.5513 56.7911L46.821 56.7372L47.1446 56.8451H47.4143L47.5221 56.9529H47.6839L48.0075 57.2765L47.9536 57.3305L48.1693 57.4383H48.3851L48.6008 57.5462L48.8165 57.4383L49.1941 57.5462L49.4098 57.6541L49.5177 57.5462L49.8952 57.2765H50.057L50.2188 57.1687L50.4885 57.0608L51.0278 57.1687H51.1357V57.2765L51.2435 57.4923L51.3514 57.7619L51.5672 58.0855V58.1934H52.1604L52.2144 58.2473L52.2683 58.1934H52.538L52.7537 58.3552L53.1312 58.3013L53.347 58.4091H53.7784H53.8324L53.9402 58.3013L54.0481 58.3552L53.9942 58.2473H54.4256L54.5335 58.517H54.5874L54.7492 58.5709L54.8571 58.4631H55.3425V58.5709H55.4504L55.6122 58.4631H55.9897V58.3552L56.2594 58.0855L56.3672 58.1395H56.7448L56.8526 58.2473H57.0144L57.0684 58.3013L57.1762 58.1934H57.6077L57.7156 58.2473L57.8234 58.1934H57.9313L58.147 57.9777L58.3628 58.1934H58.4167L58.5246 58.1395H58.9021L59.1718 58.4091L59.2796 58.6788H59.5493L59.9268 58.5709V59.0024L60.0347 59.1103L60.1426 59.3799L60.2504 59.4878L60.3044 59.5957H60.5201L60.7898 59.7575L60.9516 59.6496L61.2212 59.5417L61.437 60.0271L61.3291 60.0811L61.2752 60.135L61.437 60.3507L61.9224 60.5125L62.192 60.3507V60.135H63.001L62.7314 60.7822H61.8145L61.6527 60.9979H61.8684L61.7606 61.1058V61.2137V61.4833L61.9763 61.6991L62.5696 62.1305H62.6774H62.7853L63.2168 61.8609L63.3246 61.753L63.4864 61.4833V61.4294L63.2707 61.2137L63.5404 60.7822V59.2181L64.0258 60.4047H64.1336L64.2415 60.5125L65.428 60.0271L64.2954 61.1597L65.7516 61.753H64.1876V61.8609L64.2415 61.9148L64.3494 62.1845V62.4541L64.2954 62.562L64.8887 62.8317L64.3494 63.1013L64.5651 63.5867V63.8025L64.673 64.0721L64.5651 64.18L64.9966 64.8272H64.7269V64.9351L64.9966 65.5823V66.0137L65.1044 66.2295L65.3202 66.3373L65.428 66.607L65.5359 66.7149V66.8227V66.9306H65.6438V67.0924L65.6977 67.1463H65.9134V67.6317L66.0213 67.9014L66.0752 68.1171L66.237 68.4947L66.3449 68.7104L66.3988 68.9801L66.4528 69.034L66.5606 69.2497L66.6685 69.3576H66.7764L67.046 69.6812L67.3157 70.0048L67.4236 70.2745H67.5314V70.652L67.6932 70.9217L67.8011 71.2992V71.5689L68.0708 72.0543L68.2326 72.2161L68.4483 72.0003L68.5562 71.7307L68.9337 71.461H69.0416L69.1494 71.3531L69.2034 71.2453L69.4191 70.8138L69.7966 70.7059L69.7427 70.2205L69.6348 70.0048V69.4115L69.8506 69.034L69.9584 68.6025V68.3329L69.7427 68.225V67.416L69.6348 67.0924L69.7966 66.9306L69.6888 66.607L69.7966 66.3373L70.1742 65.9598H70.5517V65.8519L70.8753 65.5283L71.2528 65.6362L71.3607 65.5283L71.3068 65.4205L71.4146 65.0969L71.6843 64.8272L71.954 64.7733L72.0618 64.6654L72.1697 64.4497L72.9248 63.8564L73.0866 63.5328L73.1944 63.4249L73.4102 62.8317H73.7338L73.8956 62.7238H74.1652L74.2731 62.8317H74.381L74.4888 62.7238L74.2192 62.4541H74.7585V62.4002L74.8124 62.3463V62.5081V62.4002L74.6506 62.2384L74.8664 61.6991L75.0282 61.5373L75.5136 61.3755L75.5675 61.3215V61.1597V60.7283H76.0529L76.3226 60.8361V60.6204L76.754 61.0519H76.9158L77.1855 60.7822L77.1316 60.6743H77.3473L77.9945 60.0271L78.5338 59.9193L78.5878 60.0271L78.6417 60.0811H78.7496L78.8574 60.1889L78.9653 60.2429H79.0732L79.181 60.1889L79.1271 60.2429H79.3428L79.6125 60.8901L79.7204 60.9979V61.0519L79.8282 60.944V61.753L79.9361 61.8609L80.044 62.0227H80.1518V62.0766L80.4215 62.1845V61.9687L80.6372 62.1845H81.3384L80.2597 62.5081H80.3136L80.3676 62.562L80.5833 62.6699L80.853 62.9935V63.371L80.9608 63.4789V63.7485L81.0687 64.0182V64.1261L81.5002 64.2879L81.3384 64.4497V64.8272L81.4462 65.0429L81.662 64.3957V65.3126L81.7159 65.3665L81.662 65.4205V66.0677L81.7698 66.2834H81.8777L82.0395 66.1755L82.1474 65.8519L82.0395 65.6362H82.5788V65.4744L81.7698 64.6654L83.3339 65.3126V65.4205L83.4418 65.5283L83.6036 65.798L83.6575 65.8519L84.089 65.4205V66.1755V66.2295V66.4991L84.1429 66.5531L84.1968 66.9845V67.3621L84.7362 67.9014H83.3339V68.0093L83.6575 68.3329L83.7654 68.4947L83.8732 68.6025L83.9811 69.0879L84.035 69.1419L84.1968 69.5194L84.089 69.6273V69.6812V69.7891L84.4665 70.1666L84.3586 70.2745L84.4665 70.4902L84.2508 70.7059V70.9756H84.5744V70.7599L84.7901 70.5441L84.898 69.9509L85.1137 69.7351L85.2216 69.5733L85.3834 69.4115L85.2755 69.3037L85.4912 69.0879V68.9801V68.8722L85.0598 68.7104L85.3294 68.4407V67.7935L85.707 68.1711L85.8148 68.0632L85.9766 68.225L86.1924 68.1171L86.3002 68.225H86.4081L86.6778 68.3329L86.9474 68.6025L86.7317 68.8183V68.8722L86.8396 69.034L87.1632 69.1419L87.3789 69.3576L87.4868 69.4115L87.9722 69.8969H88.2418L88.5115 70.2745V70.3823L88.7272 70.9217L89.1587 70.4902V70.9217H90.2913V70.8138H90.7228H90.7767L91.2082 70.3823V70.8677L91.316 70.9756L91.5857 70.8677L91.6936 70.7599V70.652L92.125 70.4902L92.2868 70.3284L92.3408 70.1666L92.4486 69.8969L92.3408 69.5733L92.5026 69.5194V69.4655V69.1419L92.6104 69.034V68.9801L92.5026 68.8722V68.6025L92.3947 68.3329L92.5026 68.225L92.3947 68.0632L92.5026 67.9553L92.3947 67.6857L92.2868 67.5778L92.179 67.3081L91.9093 67.0385L92.0172 66.9306L91.8554 66.7688V66.7149L91.7475 66.4452L91.6396 66.3373L91.2621 66.0677L91.2082 65.9059L90.8846 65.6901L90.2913 65.4205V66.4991L89.752 65.2587L89.4823 64.989L89.3205 64.8811L88.5654 64.6115L88.943 64.4497L89.0508 64.18V63.7485L89.1587 63.6407L89.2666 63.4789L89.5362 63.2092L89.6441 63.3171V63.0474L89.4284 62.8317L89.6441 62.6159V62.4002H89.9677L90.1834 62.1845L90.4531 62.0766H90.6149L90.3452 61.8069H90.9924L91.2082 61.5912L91.2621 61.6451L91.5318 60.9979L91.8014 61.6451L91.8554 61.5912L92.0172 61.753L92.125 61.5373L92.4486 61.6451L92.7183 61.5373L92.988 61.8069V61.9687L93.0958 61.8609L92.7722 61.5373H93.4194L93.8509 61.1058V61.3755H94.552L94.7678 61.2676L94.8756 61.3215L94.9835 61.2676L95.0914 61.1597V61.0519V60.4047L95.4689 60.7822L95.361 60.6204V59.9732L95.9543 60.2429L96.17 60.4586L96.3318 60.4047L96.5476 60.1889L96.7094 60.3507V60.2968H97.0869H97.1948L97.4644 60.0271L97.033 58.8406L97.842 59.6496L98.1116 59.5417V59.4339H98.2195L98.3274 59.2721H98.4352L97.788 58.6249H98.3274L98.8128 57.4383L98.9746 57.3844L98.8667 57.2765H98.4352L98.651 57.0608L98.4892 56.899H98.7588L99.0824 56.5754V56.5215H99.2982L99.6218 55.7125L99.7296 55.9282V55.8203L99.8375 55.6046L99.7836 55.5507L99.9454 55.3889H99.6757V54.9574L99.9454 54.6877V54.472L99.7836 54.3102L99.9454 54.2563V54.0405L99.8375 54.1484L99.46 53.9866L99.3521 53.8787L99.2982 53.9327L98.7588 55.3349V54.1484L98.1116 54.4181L98.7588 53.7709V53.7169L99.0285 53.4473L98.651 52.9619L99.46 53.2854L99.6757 53.0697H99.7296L99.8375 52.9079H99.8914L99.8375 52.8L99.46 52.5304L99.1903 52.3146L98.9746 52.0989L98.7588 52.2068L98.4352 52.0989L98.1656 51.8832H98.1116L97.8959 51.7753L96.2779 53.9327L97.4644 51.236L97.8959 51.0742L98.1656 51.182L98.5431 51.0742L98.597 51.182L99.0824 51.2899L98.8128 50.9124V50.6967L98.5431 50.4809V50.3191L98.2734 50.2113L98.3813 49.9416L98.2195 49.618L97.9498 49.5101L97.5184 49.6719V49.2944L97.0869 49.1326V48.4854L97.1408 48.2696L97.033 48.0539L97.3026 47.3528L97.5723 47.6225L97.6262 47.5685L97.5184 47.4606L97.9498 47.0292H98.0038V46.9213H98.1116L97.842 46.6516L98.4892 46.382L98.597 46.4359H98.7588L98.8128 46.382H98.1656L97.8959 46.1123L97.842 46.0044L97.7341 46.0584V46.1662L97.6262 46.2741L97.4644 46.6516L97.1948 46.9213L96.9251 46.8134L96.8172 46.8674H96.3858L96.1161 46.2202V46.5977L95.9004 46.328L95.7925 46.4359V46.1662L95.5228 45.8426L95.4689 45.7887L95.2532 45.6809L94.9296 45.573V45.3033L94.8217 45.0336L94.9296 44.9258V44.8179L95.0374 44.71V44.5482L95.1453 44.4404V44.0629L95.7925 44.1707L95.5228 43.901H95.7925L95.9543 43.7392L96.0622 43.2538L96.4936 42.9842H96.6015L96.7094 42.8763V42.6066L96.9251 42.3909H96.8712L96.979 42.283L97.0869 42.0134H97.5184L97.6802 41.5819L98.1116 42.2291L98.597 42.5527V42.9842L98.3813 43.1999L98.2734 43.3078V43.5235L98.9746 42.8224L98.7588 43.2538H99.0285L99.3521 42.9842L99.5139 43.092H99.5678L99.9454 42.5527L100.161 43.0381H100.269L100.593 43.146H100.647L100.754 43.0381H101.294L101.078 43.5774L101.132 43.6853L100.916 44.0089V44.1707H100.97L101.779 43.8471H101.725L101.563 43.3078L101.617 43.2538V43.1999V42.9302L101.887 42.7145L101.995 42.4988L102.318 42.3909H102.426H102.48V42.283L102.804 41.9594L102.696 41.8516L102.966 41.6358V41.1504L102.804 40.9886V40.5572L102.912 40.1257V39.6942H103.127L103.397 39.4246H103.451L103.505 39.2628L103.775 39.1549V39.047L103.829 38.9931V38.7234L103.99 38.5616V38.3998L104.26 38.1302L104.53 38.238L104.799 38.1302L105.069 38.3998V38.6156H105.177L105.231 38.7234L105.339 38.6156L105.447 38.7234L105.662 38.6156L105.77 38.5077H105.932L106.04 38.3998L106.148 38.292L105.932 38.0762L106.31 37.9144L106.04 37.2133L106.525 37.429V37.3212L106.633 37.2133V36.9436L106.795 36.8358V36.7279L106.957 36.62L107.065 36.2425L107.119 36.1886L107.28 35.5414L107.388 35.3256V35.1099L107.604 34.8942H107.712L107.82 34.7324L107.712 34.3009L107.928 34.0852L107.82 33.7076L108.035 33.4919V33.1683H108.737L108.79 33.0604V32.7908L108.952 32.629L108.844 32.2514L108.952 31.9818V31.7121H108.737V31.82ZM23.7375 24.5929L23.7915 24.539V24.4311C23.7915 24.485 23.7915 24.539 23.7375 24.5929ZM89.8598 71.5149L89.9138 71.461L89.698 71.4071L89.9138 71.6228V71.7307L90.0216 71.6767L90.1834 71.7307H90.2913L89.8598 71.5149ZM84.4665 71.1913V71.461H84.5744V71.3531L84.4665 71.1913ZM103.721 70.3284H103.613V70.5441H103.667V70.4902L103.775 70.3823L103.721 70.3284ZM105.662 69.5194V69.6273L105.77 69.7351L105.878 69.843V69.7891L105.662 69.5194ZM102.318 67.9014H102.426L102.48 67.8475L102.534 67.9014V67.6317L102.318 67.9014ZM102.966 65.4205L102.858 65.3665L102.696 64.9351V64.8272L102.318 64.7193L102.157 64.5575H102.049V64.6115L101.833 64.8811V64.9351V65.3665V65.7441L101.779 65.8519L101.887 66.0677V66.3373L101.671 66.4452L101.617 66.6609V66.7688L101.725 66.9845V67.0924H101.995V67.2003H102.211L102.426 67.4699L102.372 67.3081V67.0385L102.426 66.9306L102.318 66.7149L102.804 66.2295L102.966 65.9598V65.8519V65.6362V65.4205ZM94.0127 63.0474L93.743 63.1553L93.6352 63.0474L93.4734 63.1553L93.3655 63.0474H93.3116H93.0419H92.934L92.8801 63.2092L92.6104 63.4249L92.5026 63.5328V63.5867V63.8564L92.5565 64.0182L92.6644 64.1261H92.7722L92.8801 64.2339H93.0958V64.1261L93.4194 64.0182V63.9103L93.6891 63.8025V63.6946L93.797 63.371L93.9048 63.2631L94.0127 63.1013V63.0474ZM92.8262 62.0766V62.2384H92.5565V62.3463L92.6644 62.4541L92.7722 62.562L92.988 62.3463L92.8262 62.0766ZM101.779 58.4631L101.671 58.3552L101.563 58.4631L101.456 58.5709L101.563 58.6249L101.348 58.9485V59.0563L101.132 59.3799L101.024 59.5957V60.135H101.132V60.4047H101.294V60.6204L101.456 60.3507L101.617 60.135L101.509 60.0811L101.617 59.5957V59.4878V59.1642L101.725 58.9485L101.779 58.6249V58.4631ZM77.4552 60.2429V60.5125H77.5091L77.4552 60.2429ZM98.4892 58.3552L98.1656 58.6788H98.3274L98.597 58.4091L98.4892 58.3552ZM98.8128 58.0855L98.8667 57.9777L98.597 58.1934L98.8667 58.0855H98.8128ZM108.035 50.6427L108.197 50.4809H108.143V50.3191H108.035L107.82 49.9416H107.658L107.496 49.7258H107.388V49.8337L107.226 49.9416L107.388 50.1034L107.55 50.3731L107.658 50.6427V50.9124L107.604 51.1281L108.089 51.5596L108.035 51.4517L108.143 50.9663L108.035 50.6427ZM16.1869 49.9955V49.618H16.079L15.8093 49.1865L15.9172 48.809L15.9711 48.755L15.8633 48.6472L15.7015 48.3775L15.6475 48.3236C15.5397 49.2404 15.4857 50.2113 15.3779 51.1281L15.8633 50.8585L15.9172 50.8045L15.8093 50.6967L16.0251 50.4809L16.1869 49.9955ZM32.7983 50.8585H32.7444L32.5287 50.9663H32.7983L32.9062 50.8585H32.7983ZM108.952 49.5101V49.618L109.06 49.7798L109.168 49.5641L109.222 49.5101H108.952ZM109.923 49.1326L109.815 49.0247L109.707 49.0787V49.2404H109.869H109.923L110.031 49.1326V49.0787L109.923 49.1326ZM114.238 43.2538V43.146L114.184 42.9302V42.8224L114.076 42.4988L114.022 42.3909H113.914L113.806 42.1212L113.752 41.8516L113.698 41.7437L113.321 41.3662L112.997 41.6358L112.889 41.528V41.6358L112.997 41.9055L112.943 42.1212L113.105 42.4988L113.213 42.9302L113.105 43.1999L113.213 43.5235L113.051 44.0629L113.159 44.3325L112.889 44.71L112.782 44.8179V44.9258V45.1954L112.674 45.3572L112.62 45.6269L112.35 45.7887L111.919 46.0584H111.811L111.703 46.328L111.271 46.1123V46.328L111.11 46.5977V46.7056L111.002 46.8134L111.056 46.8674V46.9213H111.325L111.056 47.2989L111.164 47.4067L110.624 47.7303L110.516 47.6225H110.408H110.085V47.4606L109.815 47.5685L109.546 47.6764H109.384L109.168 47.7303L108.898 47.8382L108.79 47.7303L108.683 47.8382L108.629 48.0539L108.521 48.1618L108.143 48.5393L108.035 48.6472L107.981 48.7011L107.874 48.9169L107.658 49.0247L107.928 48.9169H108.035V48.809L108.143 48.5393H108.413L108.521 48.5932H108.629H108.898L109.168 48.4854H109.276L109.492 48.3775V48.3236L109.869 48.1079L110.085 48H110.57L110.84 48.2157V48.4854L110.732 48.6472V48.809L111.056 49.1326H110.948L111.002 49.4022L111.056 49.2944V49.1865L111.164 49.0787V48.9708L111.325 48.7011L111.11 48.4854L111.217 48.0539L111.433 47.8382H112.242L112.08 48L112.404 48.0539V47.7842L112.782 47.5685H113.051L113.105 47.5146L113.213 47.4606L113.429 46.9752L113.698 46.8674H114.076L113.914 46.5977V45.6809L114.022 45.3572L113.86 44.9258L113.644 44.6022V44.3325L113.698 43.901L114.022 43.7392V43.6314V43.5235V43.1999L114.238 43.2538ZM18.5599 49.0247L18.7217 48.4854H18.6678L18.5599 48.5932H18.1285L17.8588 48.7011L17.5352 48.6472L17.6431 48.755L17.8588 48.8629L17.9667 48.9708L18.2363 49.0787L18.3981 49.0247L18.6678 49.2944L18.7217 49.4022L18.7757 49.2944V49.2404L18.5599 49.0247ZM104.584 47.4606V47.2989L104.206 47.6764V46.8674L104.152 46.4359L103.936 46.2202V45.8426L103.559 45.3572L103.235 45.0336L102.426 45.3572L102.642 45.6809L102.912 45.9505L102.804 46.0584L103.074 46.7056L102.642 46.5977L102.696 46.7056V46.7595L103.074 47.4067L102.804 47.6225V47.946L102.696 48.0539L102.804 48.3236V48.1079L103.181 48.4854L103.559 48.1618L103.775 48.0539L103.829 47.946H104.206L104.476 47.6764H104.584L104.476 47.5685L104.584 47.4606ZM23.9533 47.5146L24.0611 47.6225L24.1151 47.5146H23.9533ZM24.6005 47.7303L24.3847 47.5146L24.7083 47.4067H24.6544L24.3308 47.5146L24.2229 47.4606H24.169L24.4387 48.1079L24.5465 48.1618L24.6544 48.2696L24.5465 48.0539L24.6005 47.7303ZM114.184 47.4067V47.4606L114.238 47.4067H114.184ZM19.8543 47.2449V47.3528L19.9622 47.2989V47.191L19.8543 47.2449ZM114.184 46.9213V47.0831L114.238 47.0292L114.184 46.9213ZM20.2319 46.382H19.9622L19.9083 46.328L19.9622 46.5438L20.0701 46.7595H20.0161V46.8674L20.1779 46.7056L20.2858 46.4898L20.2319 46.382ZM20.0161 44.4943L19.7465 44.4404H19.4768L19.315 44.0629V43.955H19.2611H18.8296L18.7757 43.8471L18.5599 43.7392L18.4521 43.5235L18.2903 43.4156L17.9127 43.092L17.8049 42.8224V42.7145L17.697 42.6066V42.3909L17.2655 41.8516L17.2116 41.7437H17.1037L16.6723 41.5819C16.5644 42.1212 16.4026 42.6606 16.2947 43.2538L16.4026 43.4156L16.4565 43.4696L16.7262 43.901L16.9959 44.0629L17.4273 44.2246L17.697 44.3325H17.9667L18.2363 44.6561L18.6139 44.8179H18.8835L19.0453 45.1415V45.2494H19.0993L19.1532 45.4112L19.5847 45.6269L19.6386 45.9505V45.7348L19.9083 45.6269V45.1415L20.0161 45.0336L20.124 44.8718L20.3397 44.71L20.0161 44.4943ZM103.074 44.9797L102.804 44.3325V44.2246L102.211 43.955L102.157 43.8471L101.348 44.6561H101.24V44.8718H101.294L101.563 44.6022L101.887 44.9258H103.235L103.074 44.9797ZM98.2734 43.5235V43.5774L98.3274 43.5235H98.2734ZM32.6905 39.9639L32.3129 40.3414L32.259 40.3954L32.4747 40.2875L32.7983 40.0178L32.6905 39.9639ZM112.296 39.856V39.91H112.35L112.296 39.856ZM32.1511 39.6942L31.9893 39.7482L32.3129 39.91L32.4208 39.6942V39.4246L32.1511 39.6942ZM115.155 37.8605L114.831 37.6987V37.5908L114.723 37.6448H114.13L114.022 37.483H113.86L113.537 37.3212L113.483 37.2133H113.321L113.159 36.9436L112.943 36.8358L112.566 36.4582L112.512 36.2964H112.404L112.242 36.1886L112.458 36.5122L112.566 36.7818L112.62 37.1054V37.2133V37.3212L112.835 37.8605H112.62V37.9684H112.674L112.943 38.3459L112.728 38.4538V38.5616L112.458 38.8313L112.242 38.7234V38.8313L112.512 39.047L112.566 38.9931L112.835 38.7774H113.213L113.483 38.6695L113.752 39.047L113.86 39.1549L114.076 39.2628L114.13 38.9931L114.238 38.6156L114.507 38.4538L114.777 38.292L115.155 38.1302V37.8605ZM112.026 33.438L111.919 33.3301H111.811L111.703 33.1683V33.2222V33.2762L111.973 33.5458L111.919 33.8155L112.134 33.7076V33.4919L112.026 33.438ZM111.703 29.9862V29.9323L111.487 29.8784V29.6087L111.271 29.393L111.056 28.9615L110.948 28.7997L110.678 28.4222L110.57 28.1525L110.462 28.0446V27.9368H110.193L110.085 27.5592L109.815 27.2896L109.707 27.0738L109.599 26.912V26.103H109.492L109.222 25.8334V25.7255L109.114 25.6176V25.294H109.06L108.952 25.1322V25.294L108.629 25.4019H108.575V25.5637L108.683 25.6716L108.952 25.9952V26.3188V26.6424L109.114 27.0199V27.1278L109.33 27.2356L109.438 27.6132L109.492 27.721L109.707 27.8289L109.977 28.2064V28.7458L110.085 28.9615V29.0694L110.408 29.393L110.301 29.5548L110.462 29.7705L110.57 29.9862V30.202L110.678 30.4716V31.011L111.002 31.2267L110.948 31.4424L111.056 31.4964L111.379 31.766V31.7121L111.217 31.4964L111.325 31.1188V31.0649L111.217 30.7952L111.325 30.5795L111.056 30.202H111.811H111.919L111.703 29.9862ZM23.4679 25.9952V26.103H23.5757L23.4679 25.9952ZM23.7375 24.5929L23.7915 24.485C23.7915 24.485 23.7915 24.539 23.7375 24.5929ZM31.45 18.2288V18.1748H31.1803L31.2882 18.2288L31.5039 18.4445L31.6118 18.3906L31.45 18.2288ZM37.5984 11.9725H37.4905L37.4366 12.0804V12.35L37.5445 12.5658H37.7063L37.8141 12.5118L37.922 12.404V12.2961V12.1882L37.5984 11.9725ZM41.6434 8.95223L41.4277 8.73649L41.2119 8.57469L40.8883 8.46683H40.5647C40.4569 8.52076 40.349 8.57469 40.2411 8.68256L40.349 8.79043L40.4569 8.68256L41.1041 8.95223V9.00616L41.3198 8.79043L41.4277 9.06009L41.5895 9.11403L41.6973 9.00616L41.6434 8.95223ZM39.9715 8.89829H39.9175V9.00616L39.9715 9.06009H40.0793V8.84436L39.9715 8.89829Z" fill="url(#paint13_radial)"/>
<path d="M33.2281 61.9694C39.9158 63.5335 46.9811 64.6122 54.2621 65.2594C55.5565 80.5225 59.3318 95.1384 65.0488 108.73C65.5342 108.784 65.9656 108.838 66.451 108.838C60.6802 95.3002 56.9048 80.7382 55.5565 65.3672C60.0869 65.6908 64.6712 65.9066 69.3634 65.9066C79.395 65.9066 89.0491 65.0436 98.2717 63.4256C95.629 82.572 84.4648 99.0756 68.8241 108.945C69.0938 108.945 69.3634 108.945 69.6331 108.945C70.1724 108.945 70.6578 108.945 71.1972 108.945C86.4064 98.752 97.0852 82.3023 99.62 63.2638C108.303 61.6998 116.501 59.3806 124.052 56.5761C124.052 56.1446 124.052 55.7132 124.052 55.2278C116.501 58.0862 108.357 60.3514 99.7279 61.9694C99.9976 59.5964 100.105 57.1694 100.105 54.7424C100.105 31.8746 88.2401 11.7035 70.3342 0C70.0646 0 69.7949 0 69.5252 0C68.9859 0 68.5005 0 67.9612 0C86.4603 11.2181 98.7571 31.551 98.7571 54.6345C98.7571 57.1694 98.5953 59.6503 98.3256 62.0773C89.103 63.7492 79.3411 64.6122 69.2556 64.6122C64.5634 64.6122 59.9251 64.3964 55.3408 64.0728C55.0172 60.2975 54.9093 56.4682 54.9093 52.639C54.9093 34.1398 58.4689 16.4497 64.7791 0.1618C64.2937 0.215734 63.8622 0.269667 63.3768 0.3236C57.0666 16.5575 53.6149 34.1937 53.6149 52.639C53.6149 56.4682 53.7767 60.2436 54.0464 64.0189C46.7114 63.3717 39.7001 62.2391 32.9584 60.729C32.7427 58.6256 32.6348 56.63 32.6348 54.5266C32.6348 31.8746 44.5001 11.8653 62.3521 0.539334C61.3274 0.6472 60.3566 0.862934 59.3858 1.02473C42.4507 12.8361 31.3943 32.414 31.3943 54.5806C31.3943 56.5761 31.5022 58.5716 31.664 60.5132C25.8931 59.1649 20.2841 57.439 15.0525 55.4974C15.0525 55.9289 15.0525 56.3604 15.1065 56.8458C20.338 58.8413 26.001 60.5132 31.7719 61.8616C33.8753 80.9 44.2844 97.5115 59.3318 108.029C60.3026 108.244 61.3274 108.352 62.2982 108.514C46.6575 98.3205 35.5472 81.4933 33.2281 61.9694Z" fill="url(#paint14_radial)"/>
<path d="M99.46 53.125C100.622 53.125 101.563 52.1833 101.563 51.0216C101.563 49.8599 100.622 48.9182 99.46 48.9182C98.2983 48.9182 97.3566 49.8599 97.3566 51.0216C97.3566 52.1833 98.2983 53.125 99.46 53.125Z" fill="url(#paint15_radial)"/>
<path d="M81.4461 12.9439C82.6078 12.9439 83.5495 12.0021 83.5495 10.8405C83.5495 9.67879 82.6078 8.73706 81.4461 8.73706C80.2845 8.73706 79.3427 9.67879 79.3427 10.8405C79.3427 12.0021 80.2845 12.9439 81.4461 12.9439Z" fill="url(#paint16_radial)"/>
<path d="M88.4036 93.3043C90.0418 93.3043 91.3699 91.9762 91.3699 90.3379C91.3699 88.6997 90.0418 87.3716 88.4036 87.3716C86.7653 87.3716 85.4372 88.6997 85.4372 90.3379C85.4372 91.9762 86.7653 93.3043 88.4036 93.3043Z" fill="url(#paint17_radial)"/>
<path d="M54.9649 67.795C56.7521 67.795 58.2009 66.3462 58.2009 64.559C58.2009 62.7718 56.7521 61.323 54.9649 61.323C53.1777 61.323 51.7289 62.7718 51.7289 64.559C51.7289 66.3462 53.1777 67.795 54.9649 67.795Z" fill="url(#paint18_radial)"/>
<path d="M57.4527 25.7054C58.9584 25.7054 60.179 24.4847 60.179 22.979C60.179 21.4733 58.9584 20.2527 57.4527 20.2527C55.9469 20.2527 54.7263 21.4733 54.7263 22.979C54.7263 24.4847 55.9469 25.7054 57.4527 25.7054Z" fill="url(#paint19_radial)"/>
<path d="M36.7892 81.6009C38.2487 81.6009 39.4319 80.4177 39.4319 78.9582C39.4319 77.4986 38.2487 76.3154 36.7892 76.3154C35.3296 76.3154 34.1465 77.4986 34.1465 78.9582C34.1465 80.4177 35.3296 81.6009 36.7892 81.6009Z" fill="url(#paint20_radial)"/>
</g>
<defs>
<linearGradient id="paint0_linear" x1="69.9067" y1="117.436" x2="66.9472" y2="127.713" gradientUnits="userSpaceOnUse">
<stop stop-color="#E7EFF5"/>
<stop offset="0.1867" stop-color="#C3C5D2"/>
<stop offset="0.3352" stop-color="#C6C8D5"/>
<stop offset="0.3577" stop-color="#C6CAD6"/>
<stop offset="0.4626" stop-color="#C6CFDA"/>
<stop offset="0.995" stop-color="#7E8EA0"/>
</linearGradient>
<linearGradient id="paint1_linear" x1="70.7549" y1="114.536" x2="65.1072" y2="134.149" gradientUnits="userSpaceOnUse">
<stop stop-color="#B9C5D3"/>
<stop offset="0.0891947" stop-color="#A8B5C5" stop-opacity="0.9108"/>
<stop offset="0.2285" stop-color="#95A4B4" stop-opacity="0.7715"/>
<stop offset="0.3918" stop-color="#8897A9" stop-opacity="0.6082"/>
<stop offset="0.5994" stop-color="#8090A2" stop-opacity="0.4006"/>
<stop offset="1" stop-color="#7E8EA0" stop-opacity="0"/>
</linearGradient>
<linearGradient id="paint2_linear" x1="72.1316" y1="137.739" x2="61.8472" y2="99.636" gradientUnits="userSpaceOnUse">
<stop stop-color="white" stop-opacity="0.3"/>
<stop offset="1" stop-color="white" stop-opacity="0"/>
</linearGradient>
<linearGradient id="paint3_linear" x1="91.4272" y1="124.62" x2="117.648" y2="132.171" gradientUnits="userSpaceOnUse">
<stop stop-color="white" stop-opacity="0"/>
<stop offset="1" stop-color="white" stop-opacity="0.5"/>
</linearGradient>
<linearGradient id="paint4_linear" x1="119.756" y1="131.512" x2="117.402" y2="158.445" gradientUnits="userSpaceOnUse">
<stop stop-color="#DFE6EE"/>
<stop offset="0.5" stop-color="#F5F7F8"/>
<stop offset="0.995" stop-color="#ABB6C3"/>
</linearGradient>
<radialGradient id="paint5_radial" cx="0" cy="0" r="1" gradientUnits="userSpaceOnUse" gradientTransform="translate(67.395 118.1) scale(7.91681 7.82741)">
<stop offset="0.1458" stop-color="#66FFF7"/>
<stop offset="0.8886" stop-color="#1BC5BD"/>
<stop offset="1" stop-color="#15B6AE"/>
</radialGradient>
<linearGradient id="paint6_linear" x1="69.2616" y1="116.657" x2="67.4999" y2="124.371" gradientUnits="userSpaceOnUse">
<stop stop-color="white" stop-opacity="0.2"/>
<stop offset="1" stop-color="white" stop-opacity="0"/>
</linearGradient>
<linearGradient id="paint7_linear" x1="65.1182" y1="107.468" x2="73.9441" y2="107.468" gradientUnits="userSpaceOnUse">
<stop stop-color="#E7EFF5"/>
<stop offset="0.2098" stop-color="#C3C5D2"/>
<stop offset="0.3352" stop-color="#C6C8D5"/>
<stop offset="0.3571" stop-color="#C6CAD6"/>
<stop offset="0.4592" stop-color="#C6CFDA"/>
<stop offset="0.653" stop-color="#98A5B5"/>
<stop offset="0.995" stop-color="#7E8EA0"/>
</linearGradient>
<linearGradient id="paint8_linear" x1="65.1182" y1="107.468" x2="73.9441" y2="107.468" gradientUnits="userSpaceOnUse">
<stop stop-color="#B9C5D3"/>
<stop offset="0.0891947" stop-color="#A8B5C5" stop-opacity="0.9108"/>
<stop offset="0.2285" stop-color="#95A4B4" stop-opacity="0.7715"/>
<stop offset="0.3918" stop-color="#8897A9" stop-opacity="0.6082"/>
<stop offset="0.5994" stop-color="#8090A2" stop-opacity="0.4006"/>
<stop offset="1" stop-color="#7E8EA0" stop-opacity="0"/>
</linearGradient>
<linearGradient id="paint9_linear" x1="69.0996" y1="115.316" x2="69.0996" y2="99.8986" gradientUnits="userSpaceOnUse">
<stop stop-color="white" stop-opacity="0"/>
<stop offset="1" stop-color="white" stop-opacity="0.3"/>
</linearGradient>
<linearGradient id="paint10_linear" x1="65.6616" y1="98.0687" x2="65.6616" y2="96.0854" gradientUnits="userSpaceOnUse">
<stop stop-color="white" stop-opacity="0"/>
<stop offset="1" stop-color="white" stop-opacity="0.5"/>
</linearGradient>
<linearGradient id="paint11_linear" x1="64.6365" y1="96.6648" x2="71.708" y2="95.2813" gradientUnits="userSpaceOnUse">
<stop stop-color="#DFE6EE"/>
<stop offset="0.5" stop-color="#F5F7F8"/>
<stop offset="0.995" stop-color="#ABB6C3"/>
</linearGradient>
<radialGradient id="paint12_radial" cx="0" cy="0" r="1" gradientUnits="userSpaceOnUse" gradientTransform="translate(56.9449 38.1264) scale(62.4217)">
<stop offset="0.1458" stop-color="#96A1BB"/>
<stop offset="0.8886" stop-color="#5F6A8D"/>
<stop offset="1" stop-color="#4E5E83"/>
</radialGradient>
<radialGradient id="paint13_radial" cx="0" cy="0" r="1" gradientUnits="userSpaceOnUse" gradientTransform="translate(53.0632 34.5122) scale(70.3981)">
<stop offset="0.21875" stop-color="#F3F5F7" stop-opacity="0.5"/>
<stop offset="0.614583" stop-color="#D5D9DF" stop-opacity="0.2"/>
<stop offset="1" stop-color="#D4D8DE" stop-opacity="0"/>
</radialGradient>
<radialGradient id="paint14_radial" cx="0" cy="0" r="1" gradientUnits="userSpaceOnUse" gradientTransform="translate(69.6522 54.4335) scale(54.4803)">
<stop stop-color="#24DEDD"/>
<stop offset="0.859375" stop-color="#24D2D1"/>
<stop offset="1" stop-color="#25DFDE" stop-opacity="0"/>
</radialGradient>
<radialGradient id="paint15_radial" cx="0" cy="0" r="1" gradientUnits="userSpaceOnUse" gradientTransform="translate(99.4855 51.0449) scale(2.10831)">
<stop offset="0.2738" stop-color="white"/>
</radialGradient>
<radialGradient id="paint16_radial" cx="0" cy="0" r="1" gradientUnits="userSpaceOnUse" gradientTransform="translate(81.4716 10.8638) scale(2.10831)">
<stop offset="0.2738" stop-color="white"/>
</radialGradient>
<radialGradient id="paint17_radial" cx="0" cy="0" r="1" gradientUnits="userSpaceOnUse" gradientTransform="translate(88.4158 90.3277) scale(2.947)">
<stop stop-color="white"/>
</radialGradient>
<radialGradient id="paint18_radial" cx="0" cy="0" r="1" gradientUnits="userSpaceOnUse" gradientTransform="translate(54.9782 64.5478) scale(3.21491)">
<stop stop-color="white"/>
</radialGradient>
<radialGradient id="paint19_radial" cx="0" cy="0" r="1" gradientUnits="userSpaceOnUse" gradientTransform="translate(57.4639 22.9696) scale(2.70857)">
<stop stop-color="white"/>
</radialGradient>
<radialGradient id="paint20_radial" cx="0" cy="0" r="1" gradientUnits="userSpaceOnUse" gradientTransform="translate(36.8212 78.9874) scale(2.6489)">
<stop offset="0.2738" stop-color="white"/>
</radialGradient>
<clipPath id="clip0">
<rect x="15" width="109" height="140" fill="white"/>
</clipPath>
</defs>
</svg>
