<svg width="140" height="140" viewBox="0 0 140 140" fill="none" xmlns="http://www.w3.org/2000/svg">
<g clip-path="url(#clip0)">
<path d="M6.08447 28.2627V95.5154C6.08447 98.3873 7.58799 101.04 10.0206 102.526L62.6098 137.496C68.0833 140.824 74.9251 140.824 80.3986 137.496L130.927 102.526C133.359 101.023 134.863 98.3704 134.863 95.5154V28.8878L6.08447 28.2627Z" fill="url(#paint0_linear)"/>
<path d="M6.08447 28.8876V95.5152C6.08447 98.3871 7.58799 101.039 10.0206 102.526L62.6098 137.495C68.0833 140.823 74.9251 140.823 80.3986 137.495L130.927 102.526C133.359 101.022 134.863 98.3702 134.863 95.5152V28.8876H6.08447Z" fill="url(#paint1_linear)"/>
<path d="M132.248 36.3528L80.7396 67.8421C75.0634 71.3052 67.9175 71.3052 62.2413 67.8421L7.86137 34.6127C5.17532 32.9741 5.44561 28.9703 8.35128 27.7202L65.6538 3.19099C69.3872 1.603 73.5937 1.603 77.3102 3.19099L131.521 26.3856C135.728 28.1932 136.15 33.9877 132.248 36.3528Z" fill="url(#paint2_linear)"/>
<path d="M132.245 34.3443L80.7366 65.8337C75.0605 69.2968 67.9145 69.2968 62.2384 65.8337L7.85844 32.6043C5.17239 30.9657 5.44268 26.9619 8.34835 25.7118L65.6508 1.18256C69.3843 -0.405418 73.5907 -0.405418 77.3073 1.18256L131.518 24.3772C135.725 26.1848 136.147 31.9793 132.245 34.3443Z" fill="url(#paint3_linear)"/>
<path d="M93.7444 114.377C93.7444 114.213 93.8246 114.06 93.9591 113.966L94.3443 113.699C94.6758 113.468 95.1297 113.705 95.1297 114.109V119.26C95.1297 119.424 95.0495 119.577 94.9151 119.671L94.5298 119.938C94.1983 120.169 93.7444 119.932 93.7444 119.528V114.377ZM96.9373 117.358C96.9373 117.76 97.3874 117.998 97.7193 117.771L98.1045 117.508C98.241 117.415 98.3226 117.26 98.3226 117.095V111.913C98.3226 111.509 97.8687 111.272 97.5372 111.502L97.1519 111.77C97.0175 111.864 96.9373 112.017 96.9373 112.181V117.358ZM100.13 115.162C100.13 115.564 100.58 115.802 100.912 115.575L101.297 115.312C101.434 115.219 101.515 115.064 101.515 114.899V109.683C101.515 109.279 101.062 109.042 100.73 109.273L100.345 109.54C100.21 109.634 100.13 109.787 100.13 109.951V115.162ZM103.323 113C103.323 113.402 103.773 113.639 104.105 113.413L104.49 113.15C104.627 113.056 104.708 112.902 104.708 112.737V107.487C104.708 107.083 104.254 106.846 103.923 107.076L103.538 107.344C103.403 107.438 103.323 107.591 103.323 107.755V113ZM106.499 110.804C106.499 111.205 106.949 111.443 107.281 111.216L107.666 110.953C107.803 110.86 107.884 110.706 107.884 110.54V105.257C107.884 104.853 107.43 104.616 107.099 104.846L106.714 105.114C106.579 105.208 106.499 105.361 106.499 105.525V110.804ZM109.692 108.607C109.692 109.009 110.142 109.247 110.474 109.02L110.859 108.757C110.995 108.664 111.077 108.51 111.077 108.344V103.027C111.077 102.623 110.623 102.386 110.292 102.617L109.906 102.884C109.772 102.978 109.692 103.131 109.692 103.295V108.607ZM112.885 106.445C112.885 106.847 113.335 107.085 113.667 106.858L114.052 106.595C114.188 106.502 114.27 106.347 114.27 106.182V100.831C114.27 100.427 113.816 100.19 113.485 100.42L113.099 100.688C112.965 100.782 112.885 100.935 112.885 101.099V106.445ZM116.078 104.266C116.078 104.668 116.528 104.905 116.86 104.679L117.245 104.416C117.381 104.322 117.463 104.168 117.463 104.003V98.601C117.463 98.1973 117.009 97.96 116.677 98.1905L116.292 98.4583C116.158 98.5517 116.078 98.7051 116.078 98.8688V104.266ZM119.254 102.07C119.254 102.472 119.704 102.709 120.035 102.483L120.421 102.219C120.557 102.126 120.639 101.972 120.639 101.807V96.388C120.639 95.9842 120.185 95.747 119.853 95.9774L119.468 96.2452C119.334 96.3387 119.254 96.492 119.254 96.6558V102.07ZM122.664 94.0325C122.528 94.1257 122.446 94.2802 122.446 94.4454V99.8905C122.446 100.292 122.896 100.53 123.228 100.303L123.614 100.04C123.75 99.9471 123.832 99.7925 123.832 99.6273V94.1823C123.832 93.7804 123.382 93.5427 123.05 93.7694L122.664 94.0325Z" fill="#2FAAAF"/>
<path d="M59.4003 130.451C58.5557 130.451 57.7279 130.181 57.0015 129.691L14.8017 101.614C11.5751 99.3672 9.64923 95.6337 9.64923 91.6131V46.778C9.64923 44.4129 11.5075 42.4871 13.7881 42.4871C14.5314 42.4871 15.2747 42.7067 15.9167 43.1121L58.9611 69.2631C61.8837 71.1045 63.6913 74.4325 63.6913 77.9632V125.957C63.7251 128.745 61.4782 130.451 59.4003 130.451Z" fill="#2CD8CF"/>
<path d="M18.4228 77.0057C17.9875 76.868 17.5927 76.541 17.3147 76.074C16.6274 74.9564 16.7864 73.3847 17.6798 72.5571C18.241 72.0444 20.6462 70.2547 24.1486 68.8688C28.6782 67.0831 33.3008 66.7086 37.5177 67.7598C44.7345 69.5784 50.8393 75.4547 55.6271 85.1754C56.2222 86.3681 55.9221 87.9204 54.957 88.6164C53.9919 89.3124 52.7229 88.9141 52.1417 87.699C48.0038 79.3052 42.8907 74.2764 36.9189 72.6969C32.4783 71.5369 28.3127 72.5345 25.6042 73.5761C22.604 74.7433 20.52 76.2604 20.171 76.578C19.6604 77.083 19.022 77.2 18.4228 77.0057ZM23.4317 84.3105C24.0158 83.8351 29.3724 79.6435 35.4467 81.3297C39.5775 82.4958 43.24 86.156 46.3041 92.2486C46.8991 93.4413 48.1682 93.8396 49.1302 93.1236C50.0923 92.4077 50.3786 90.8779 49.7835 89.6852C46.1044 82.3826 41.5605 77.9192 36.2771 76.439C28.7023 74.3082 22.3179 79.1239 21.1051 80.1221C20.1689 80.8952 19.9363 82.4373 20.579 83.6024C20.866 84.129 21.3007 84.4908 21.7558 84.6459C22.3183 84.8254 22.926 84.7333 23.4317 84.3105ZM26.8564 92.0997C27.3965 91.4477 30.3424 89.352 33.5128 89.9917C36.2033 90.5411 38.5009 92.942 40.3598 97.1198C40.9103 98.36 42.1546 98.8231 43.1456 98.1843C44.1366 97.5454 44.4934 96.0253 43.9598 94.7825C40.8354 87.7217 36.8836 85.5714 34.1057 85.0148C29.4191 84.0551 25.2579 86.905 23.9884 88.4412C23.1837 89.398 23.1826 90.9865 23.973 91.9867C24.2497 92.3317 24.5759 92.5469 24.9237 92.6775C25.5827 92.9239 26.3302 92.7292 26.8564 92.0997ZM33.5656 95.0132C31.5551 94.2793 29.5357 95.7663 29.0427 98.3252C28.5498 100.884 29.7822 103.548 31.7758 104.285C33.7864 105.019 35.8058 103.532 36.2987 100.973C36.7886 98.3939 35.5563 95.7298 33.5656 95.0132Z" fill="white"/>
</g>
<defs>
<linearGradient id="paint0_linear" x1="13.5707" y1="84.1187" x2="127.469" y2="84.1187" gradientUnits="userSpaceOnUse">
<stop stop-color="#E7EFF5"/>
<stop offset="0.2574" stop-color="#C3C5D2"/>
<stop offset="0.3352" stop-color="#C6C8D5"/>
<stop offset="0.3997" stop-color="#CED3DD"/>
<stop offset="0.4592" stop-color="#DDE4EC"/>
<stop offset="0.4655" stop-color="#DFE6EE"/>
<stop offset="0.5693" stop-color="#98A5B5"/>
<stop offset="0.995" stop-color="#7E8EA0"/>
</linearGradient>
<linearGradient id="paint1_linear" x1="5.91841" y1="84.431" x2="128.585" y2="84.431" gradientUnits="userSpaceOnUse">
<stop stop-color="#475375"/>
<stop offset="0.483607" stop-color="#2E364F"/>
<stop offset="0.532513" stop-color="#2E374F"/>
<stop offset="0.593645" stop-color="#27293B"/>
<stop offset="1" stop-color="#2D3146"/>
</linearGradient>
<linearGradient id="paint2_linear" x1="31.9165" y1="54.9115" x2="99.8476" y2="16.4768" gradientUnits="userSpaceOnUse">
<stop stop-color="#596482"/>
<stop offset="0.995" stop-color="#2A3D6B"/>
</linearGradient>
<linearGradient id="paint3_linear" x1="31.9136" y1="52.9031" x2="99.8447" y2="14.4684" gradientUnits="userSpaceOnUse">
<stop stop-color="#687599"/>
<stop offset="0.995" stop-color="#49587E"/>
</linearGradient>
<clipPath id="clip0">
<rect x="6" width="128.967" height="140" fill="white"/>
</clipPath>
</defs>
</svg>
