<svg width="140" height="140" viewBox="0 0 140 140" fill="none" xmlns="http://www.w3.org/2000/svg">
<g clip-path="url(#clip0)">
<path d="M6.08447 28.2627V95.5154C6.08447 98.3873 7.58821 101.04 10.0212 102.526L62.6184 137.496C68.0927 140.824 74.9355 140.824 80.4098 137.496L130.946 102.526C133.379 101.023 134.882 98.3704 134.882 95.5154V28.8878L6.08447 28.2627Z" fill="url(#paint0_linear)"/>
<path d="M6.08447 28.8876V95.5152C6.08447 98.3871 7.58821 101.039 10.0212 102.526L62.6184 137.495C68.0927 140.823 74.9355 140.823 80.4098 137.495L130.946 102.526C133.379 101.022 134.882 98.3702 134.882 95.5152V28.8876H6.08447Z" fill="url(#paint1_linear)"/>
<path d="M132.267 36.3528L80.7509 67.8421C75.0738 71.3052 67.9268 71.3052 62.2498 67.8421L7.86165 34.6127C5.1752 32.9741 5.44553 28.9703 8.35164 27.7202L65.6628 3.19099C69.3968 1.603 73.6039 1.603 77.321 3.19099L131.54 26.3856C135.747 28.1932 136.17 33.9877 132.267 36.3528Z" fill="url(#paint2_linear)"/>
<path d="M132.264 34.3443L80.7479 65.8337C75.0709 69.2968 67.9239 69.2968 62.2469 65.8337L7.85872 32.6043C5.17227 30.9657 5.4426 26.9619 8.34871 25.7118L65.6598 1.18256C69.3939 -0.405418 73.6009 -0.405418 77.3181 1.18256L131.537 24.3772C135.744 26.1848 136.167 31.9793 132.264 34.3443Z" fill="url(#paint3_linear)"/>
<path d="M93.7577 114.377C93.7577 114.213 93.8379 114.06 93.9723 113.966L94.3578 113.699C94.6893 113.468 95.1432 113.705 95.1432 114.109V119.26C95.1432 119.424 95.063 119.577 94.9285 119.671L94.543 119.939C94.2115 120.169 93.7577 119.932 93.7577 119.528V114.377ZM96.951 117.358C96.951 117.76 97.4011 117.998 97.733 117.771L98.1184 117.508C98.2549 117.415 98.3365 117.26 98.3365 117.095V111.913C98.3365 111.509 97.8827 111.272 97.5511 111.502L97.1657 111.77C97.0312 111.864 96.951 112.017 96.951 112.181V117.358ZM100.144 115.162C100.144 115.564 100.594 115.802 100.926 115.575L101.312 115.312C101.448 115.219 101.53 115.064 101.53 114.899V109.683C101.53 109.279 101.076 109.042 100.744 109.272L100.359 109.54C100.225 109.634 100.144 109.787 100.144 109.951V115.162ZM103.338 113C103.338 113.402 103.788 113.639 104.12 113.413L104.505 113.15C104.642 113.056 104.723 112.902 104.723 112.737V107.487C104.723 107.083 104.269 106.846 103.938 107.076L103.552 107.344C103.418 107.438 103.338 107.591 103.338 107.755V113ZM106.514 110.804C106.514 111.206 106.964 111.443 107.296 111.217L107.682 110.953C107.818 110.86 107.9 110.706 107.9 110.54V105.257C107.9 104.853 107.446 104.616 107.114 104.846L106.729 105.114C106.594 105.208 106.514 105.361 106.514 105.525V110.804ZM109.707 108.608C109.707 109.009 110.158 109.247 110.489 109.02L110.875 108.757C111.011 108.664 111.093 108.51 111.093 108.344V103.027C111.093 102.623 110.639 102.386 110.308 102.616L109.922 102.884C109.788 102.978 109.707 103.131 109.707 103.295V108.608ZM112.901 106.445C112.901 106.847 113.351 107.085 113.683 106.858L114.068 106.595C114.205 106.502 114.286 106.347 114.286 106.182V100.831C114.286 100.427 113.832 100.19 113.501 100.42L113.115 100.688C112.981 100.782 112.901 100.935 112.901 101.099V106.445ZM116.094 104.266C116.094 104.668 116.544 104.905 116.876 104.679L117.262 104.416C117.398 104.322 117.48 104.168 117.48 104.003V98.6009C117.48 98.1972 117.026 97.9599 116.694 98.1904L116.309 98.4583C116.174 98.5517 116.094 98.7051 116.094 98.8689V104.266ZM119.271 102.07C119.271 102.472 119.721 102.709 120.053 102.483L120.438 102.219C120.574 102.126 120.656 101.972 120.656 101.807V96.3879C120.656 95.9842 120.202 95.7469 119.871 95.9773L119.485 96.2452C119.351 96.3387 119.271 96.4921 119.271 96.6558V102.07ZM122.682 94.0325C122.546 94.1257 122.464 94.2802 122.464 94.4454V99.8905C122.464 100.292 122.914 100.53 123.246 100.303L123.631 100.04C123.768 99.9471 123.849 99.7925 123.849 99.6273V94.1822C123.849 93.7803 123.399 93.5427 123.067 93.7693L122.682 94.0325Z" fill="#2FAAAF"/>
<path d="M59.4084 130.451C58.5636 130.451 57.7357 130.181 57.0092 129.691L14.8031 101.614C11.5759 99.3672 9.64978 95.6337 9.64978 91.6131V46.778C9.64978 44.4129 11.5083 42.4871 13.7893 42.4871C14.5327 42.4871 15.2761 42.7067 15.9182 43.1121L58.9691 69.2631C61.8921 71.1045 63.7 74.4325 63.7 77.9632V125.957C63.7338 128.745 61.4866 130.451 59.4084 130.451Z" fill="#2CD8CF"/>
<path d="M18.5255 76.7716C18.092 76.6284 17.7012 76.2964 17.4292 75.826C16.756 74.6998 16.9348 73.1303 17.8384 72.3139C18.4061 71.8084 20.8336 70.049 24.3531 68.7073C28.9048 66.9786 33.5317 66.6622 37.7351 67.7664C44.9284 69.6755 50.9589 75.6281 55.6242 85.4082C56.2042 86.6083 55.8846 88.1567 54.9108 88.8405C53.9371 89.5243 52.6732 89.1101 52.1073 87.8878C48.0752 79.4426 43.0258 74.35 37.0742 72.6955C32.6486 71.4799 28.4708 72.425 25.7494 73.4325C22.7347 74.5619 20.6319 76.0527 20.2789 76.3659C19.7621 76.8644 19.1222 76.9734 18.5255 76.7716ZM23.4422 84.1388C24.0322 83.6708 29.4411 79.5467 35.4937 81.3091C39.6095 82.5271 43.2257 86.2331 46.2129 92.3637C46.793 93.5638 48.0569 93.9779 49.0279 93.2742C49.9989 92.5704 50.3044 91.0443 49.7243 89.8442C46.1373 82.4959 41.6499 77.9758 36.3855 76.4293C28.838 74.2034 22.3937 78.9385 21.1684 79.9214C20.2226 80.6827 19.9706 82.2217 20.5986 83.3948C20.879 83.9251 21.3091 84.2923 21.7622 84.453C22.3224 84.6396 22.9312 84.5551 23.4422 84.1388ZM26.7687 91.9703C27.317 91.3252 30.289 89.2667 33.4511 89.9462C36.1345 90.5294 38.4017 92.959 40.2079 97.1598C40.7428 98.4068 41.9811 98.8855 42.9801 98.2592C43.9791 97.6328 44.355 96.1173 43.837 94.8679C40.8016 87.7684 36.8772 85.5686 34.1064 84.9772C29.4323 83.9586 25.2356 86.756 23.9469 88.2761C23.1303 89.2227 23.1092 90.8111 23.887 91.8211C24.1593 92.1695 24.4827 92.3889 24.8289 92.5238C25.4847 92.7784 26.2346 92.5932 26.7687 91.9703ZM33.4408 94.968C31.4396 94.2089 29.4017 95.6703 28.8766 98.2229C28.3516 100.775 29.5504 103.455 31.5346 104.216C33.5357 104.975 35.5737 103.514 36.0987 100.961C36.6211 98.3889 35.4222 95.7095 33.4408 94.968Z" fill="white"/>
</g>
<defs>
<linearGradient id="paint0_linear" x1="13.5719" y1="84.1187" x2="127.488" y2="84.1187" gradientUnits="userSpaceOnUse">
<stop stop-color="#E7EFF5"/>
<stop offset="0.2574" stop-color="#C3C5D2"/>
<stop offset="0.3352" stop-color="#C6C8D5"/>
<stop offset="0.3997" stop-color="#CED3DD"/>
<stop offset="0.4592" stop-color="#DDE4EC"/>
<stop offset="0.4655" stop-color="#DFE6EE"/>
<stop offset="0.5693" stop-color="#98A5B5"/>
<stop offset="0.995" stop-color="#7E8EA0"/>
</linearGradient>
<linearGradient id="paint1_linear" x1="5.91839" y1="84.431" x2="128.604" y2="84.431" gradientUnits="userSpaceOnUse">
<stop stop-color="#475375"/>
<stop offset="0.483607" stop-color="#2E364F"/>
<stop offset="0.532513" stop-color="#2E374F"/>
<stop offset="0.593645" stop-color="#27293B"/>
<stop offset="1" stop-color="#2D3146"/>
</linearGradient>
<linearGradient id="paint2_linear" x1="31.9204" y1="54.9115" x2="99.8568" y2="16.468" gradientUnits="userSpaceOnUse">
<stop stop-color="#596482"/>
<stop offset="0.995" stop-color="#2A3D6B"/>
</linearGradient>
<linearGradient id="paint3_linear" x1="31.9175" y1="52.9031" x2="99.8539" y2="14.4596" gradientUnits="userSpaceOnUse">
<stop stop-color="#687599"/>
<stop offset="0.995" stop-color="#49587E"/>
</linearGradient>
<clipPath id="clip0">
<rect x="6" width="128.967" height="140" fill="white"/>
</clipPath>
</defs>
</svg>
