<svg width="40" height="40" viewBox="0 0 40 40" fill="none" xmlns="http://www.w3.org/2000/svg">
<circle cx="20" cy="20" r="20" fill="#F9A132"/>
<path d="M20 29C15.0179 29 11 24.9821 11 20C11 15.0179 15.0179 11 20 11C24.9821 11 29 15.0179 29 20C29 24.9821 24.9821 29 20 29ZM16.9786 23.4071L16.5286 23.15C16.2071 24.5 16.2393 25.3036 16.6571 25.5286C17.0429 25.7536 17.7821 25.4321 18.8107 24.5L18.3286 24.2107C17.8786 24.4679 17.5571 24.5 17.3321 24.3714C17.075 24.2429 16.9786 23.9214 16.9786 23.4071ZM16.2393 18.3929C16.0464 18.2643 15.5321 18.7464 14.6643 19.775L15.8214 20.45C16.3036 19.1643 16.4321 18.4893 16.2393 18.3929ZM23.0857 22.3464C22.8929 22.2179 22.3786 22.7 21.5107 23.7286L22.6679 24.4036C23.15 23.15 23.2786 22.475 23.0857 22.3464ZM23.6 14.4714C23.5679 14.3107 23.4393 14.15 23.3107 14.0857C23.1821 14.0214 22.9893 13.9893 22.8286 14.0214C21.4786 14.4071 20.5143 14.825 19.9357 15.3714C18.9071 16.2714 18.425 17.2357 18.0071 18.0714C17.7179 18.65 17.3643 19.8714 16.9143 21.8C18.9071 22.9893 19.9357 23.5679 19.9679 23.5679C20 23.5357 22.5393 20.8357 22.6036 20.7393C22.6679 20.6429 23.7607 19.0679 23.9536 17.6857C24.05 16.85 23.9214 15.7893 23.6 14.4714ZM20.9321 18.8107C20.6107 18.65 20.4179 18.2964 20.4179 17.9429C20.4179 17.5893 20.6107 17.2679 20.9321 17.075C21.2536 16.8821 21.6393 16.9143 21.9286 17.075C22.3786 17.3643 22.5393 17.9429 22.2821 18.425C21.9929 18.9071 21.4143 19.0679 20.9321 18.8107Z" fill="white"/>
</svg>
