<svg width="40" height="40" viewBox="0 0 40 40" fill="none" xmlns="http://www.w3.org/2000/svg">
<circle cx="20" cy="20" r="20" fill="#32B2F9"/>
<path d="M11.0173 20C11.0173 15.0349 15.0421 11.0098 20.0073 11.0098C24.9724 11.0098 28.9983 15.0346 28.9983 20C28.9983 24.9652 24.9731 28.9903 20.0076 28.9903C15.0429 28.9903 11.0173 24.9655 11.0173 20ZM16.8706 25.7309C17.054 25.8294 17.269 25.8511 17.4684 25.791C17.6678 25.731 17.8351 25.5943 17.9337 25.4108C18.0322 25.2274 18.0538 25.0124 17.9938 24.813C17.9338 24.6137 17.797 24.4463 17.6136 24.3478L17.6161 24.3431C16.9735 23.9695 16.4227 23.4568 16.0041 22.8425C15.5855 22.2283 15.3097 21.5282 15.1969 20.7935C15.3593 20.7453 15.5018 20.646 15.6031 20.5103C15.7044 20.3746 15.7592 20.2097 15.7592 20.0404C15.7592 19.871 15.7044 19.7062 15.6031 19.5704C15.5018 19.4347 15.3593 19.3354 15.1969 19.2872C15.3577 18.2394 15.8485 17.2702 16.598 16.5205C17.3475 15.7707 18.3165 15.2796 19.3643 15.1184C19.4116 15.282 19.5108 15.4257 19.6469 15.528C19.783 15.6303 19.9486 15.6856 20.1189 15.6856C20.2891 15.6856 20.4547 15.6303 20.5908 15.528C20.7269 15.4257 20.8261 15.282 20.8734 15.1184C21.9187 15.2792 22.8858 15.7684 23.6346 16.5153C24.3834 17.2622 24.8751 18.2279 25.0386 19.2728C24.8632 19.3107 24.706 19.4075 24.5932 19.5471C24.4804 19.6868 24.419 19.8609 24.419 20.0404C24.419 20.2199 24.4804 20.3939 24.5932 20.5336C24.706 20.6732 24.8632 20.7701 25.0386 20.8079C24.8752 21.8526 24.3836 22.8183 23.635 23.5652C22.8864 24.312 21.9196 24.8013 20.8745 24.9623C20.8225 24.7803 20.7065 24.6232 20.5479 24.5199C20.3893 24.4166 20.1987 24.3741 20.0112 24.4001C19.8237 24.4261 19.652 24.5189 19.5275 24.6615C19.403 24.8041 19.3342 24.9868 19.3337 25.1761V27.0546C19.3337 27.2628 19.4164 27.4626 19.5637 27.6098C19.7109 27.757 19.9106 27.8398 20.1189 27.8398C20.3271 27.8398 20.5268 27.757 20.674 27.6098C20.8213 27.4626 20.904 27.2628 20.904 27.0546V26.5506C23.8978 26.1931 26.2709 23.8182 26.6273 20.8255H27.0834C27.2916 20.8255 27.4914 20.7428 27.6386 20.5956C27.7859 20.4483 27.8686 20.2486 27.8686 20.0404C27.8686 19.8321 27.7859 19.6324 27.6386 19.4852C27.4914 19.3379 27.2916 19.2552 27.0834 19.2552H26.6266C26.2687 16.2636 23.8963 13.8876 20.904 13.5301V13.0222C20.904 12.8139 20.8213 12.6142 20.674 12.467C20.5268 12.3197 20.3271 12.237 20.1189 12.237C19.9106 12.237 19.7109 12.3197 19.5637 12.467C19.4164 12.6142 19.3337 12.8139 19.3337 13.0222V13.5301C16.3399 13.8876 13.9668 16.2625 13.6104 19.2552H13.0949C12.8867 19.2552 12.6869 19.3379 12.5397 19.4852C12.3925 19.6324 12.3097 19.8321 12.3097 20.0404C12.3097 20.2486 12.3925 20.4483 12.5397 20.5956C12.6869 20.7428 12.8867 20.8255 13.0949 20.8255H13.6108C13.8628 22.929 15.1105 24.7268 16.8691 25.7334L16.8706 25.7309ZM20.1189 17.9646C19.7086 17.9645 19.3076 18.0861 18.9665 18.314C18.6254 18.5418 18.3595 18.8657 18.2025 19.2447C18.0455 19.6237 18.0044 20.0407 18.0844 20.4431C18.1644 20.8454 18.3619 21.215 18.652 21.5051C18.9421 21.7951 19.3116 21.9927 19.714 22.0727C20.1163 22.1527 20.5333 22.1116 20.9123 21.9546C21.2913 21.7976 21.6152 21.5317 21.8431 21.1906C22.0709 20.8495 22.1925 20.4484 22.1925 20.0382C22.1927 19.7658 22.1392 19.4961 22.0351 19.2444C21.931 18.9927 21.7782 18.764 21.5856 18.5714C21.393 18.3788 21.1644 18.2261 20.9127 18.122C20.661 18.0178 20.3912 17.9644 20.1189 17.9646ZM20.1189 19.5385C20.2474 19.5445 20.3687 19.5998 20.4576 19.6929C20.5464 19.786 20.596 19.9097 20.596 20.0384C20.596 20.1671 20.5464 20.2908 20.4576 20.3839C20.3687 20.477 20.2474 20.5323 20.1189 20.5382C19.9903 20.5323 19.869 20.477 19.7801 20.3839C19.6913 20.2908 19.6417 20.1671 19.6417 20.0384C19.6417 19.9097 19.6913 19.786 19.7801 19.6929C19.869 19.5998 19.9903 19.5445 20.1189 19.5385Z" fill="white"/>
</svg>
