<svg width="208" height="209" viewBox="0 0 208 209" fill="none" xmlns="http://www.w3.org/2000/svg">
<circle cx="103.965" cy="104.5" r="56.0194" fill="url(#paint0_linear)" stroke="#8CB8E1" stroke-width="10"/>
<circle cx="103.965" cy="104.5" r="60.5194" stroke="url(#paint1_linear)"/>
<circle opacity="0.2" cx="103.965" cy="104.5" r="86" stroke="#8CB8E1"/>
<path opacity="0.1" d="M207.5 104.5C207.5 161.94 161.159 208.5 104 208.5C46.8408 208.5 0.5 161.94 0.5 104.5C0.5 47.0601 46.8408 0.5 104 0.5C161.159 0.5 207.5 47.0601 207.5 104.5Z" stroke="#8CB8E1"/>
<ellipse cx="103.965" cy="140.709" rx="30.1744" ry="2.01163" fill="#6DADCD"/>
<path d="M93.2363 132.663V122.605H113.353V131.992C113.353 134.674 117.823 137.58 120.058 138.698V140.709H85.8604V138.698C85.8604 138.698 91.8952 134.674 93.2363 132.663Z" fill="url(#paint2_linear)"/>
<rect x="57.6978" y="67.6201" width="89.8527" height="60.3488" fill="#F3F9FB"/>
<rect x="61.7209" y="71" width="81.8062" height="49.6202" fill="url(#paint3_linear)"/>
<path opacity="0.2" d="M85.5 71H78L62 120.5H69.5L85.5 71Z" fill="white"/>
<path opacity="0.2" d="M92.5 71H89L73 120.5H76.5L92.5 71Z" fill="white"/>
<circle cx="101.953" cy="123.946" r="1.34109" fill="#52A6D9"/>
<rect x="87.2017" y="138.698" width="33.5271" height="1.34109" fill="white"/>
<g clip-path="url(#clip0)" filter="url(#filter0_d)">
<path d="M88.87 94.8796L97.9889 102.145L120.695 81.2273C120.695 81.2273 122.218 79.8366 123.549 80.9232C123.944 81.2481 124.402 82.1735 123.372 83.624L99.6655 111.394C99.6655 111.394 97.8484 113.881 95.6909 111.368L85.4596 97.5544C85.4596 97.5544 84.2456 95.6828 85.7637 94.5625C86.2783 94.1882 87.4429 93.6006 88.87 94.8796Z" fill="white"/>
</g>
<circle opacity="0.8" cx="43" cy="34" r="12" fill="#A6D5F1"/>
<g clip-path="url(#clip1)">
<path d="M43 33C44.2344 33 45.388 32.888 46.4609 32.6641C47.5339 32.4401 48.3802 32.1094 49 31.6719V33C49 33.3594 48.7318 33.6927 48.1953 34C47.6589 34.3073 46.9297 34.5508 46.0078 34.7305C45.0859 34.9102 44.0833 35 43 35C41.9167 35 40.9141 34.9102 39.9922 34.7305C39.0703 34.5508 38.3411 34.3073 37.8047 34C37.2682 33.6927 37 33.3594 37 33V31.6719C37.6198 32.1094 38.4661 32.4401 39.5391 32.6641C40.612 32.888 41.7656 33 43 33ZM43 39C44.2344 39 45.388 38.888 46.4609 38.6641C47.5339 38.4401 48.3802 38.1094 49 37.6719V39C49 39.3594 48.7318 39.6927 48.1953 40C47.6589 40.3073 46.9297 40.5508 46.0078 40.7305C45.0859 40.9102 44.0833 41 43 41C41.9167 41 40.9141 40.9101 39.9922 40.7305C39.0703 40.5508 38.3411 40.3073 37.8047 40C37.2682 39.6927 37 39.3594 37 39V37.6719C37.6198 38.1094 38.4661 38.4401 39.5391 38.6641C40.612 38.888 41.7656 39 43 39ZM43 36C44.2344 36 45.388 35.888 46.4609 35.6641C47.5339 35.4401 48.3802 35.1094 49 34.6719V36C49 36.3594 48.7318 36.6927 48.1953 37C47.6589 37.3073 46.9297 37.5508 46.0078 37.7305C45.0859 37.9101 44.0833 38 43 38C41.9167 38 40.9141 37.9102 39.9922 37.7305C39.0703 37.5508 38.3411 37.3073 37.8047 37C37.2682 36.6927 37 36.3594 37 36V34.6719C37.6198 35.1094 38.4661 35.4401 39.5391 35.6641C40.612 35.888 41.7656 36 43 36ZM43 27C44.0833 27 45.0859 27.0898 46.0078 27.2695C46.9297 27.4492 47.6589 27.6927 48.1953 28C48.7318 28.3073 49 28.6406 49 29V30C49 30.3594 48.7318 30.6927 48.1953 31C47.6589 31.3073 46.9297 31.5508 46.0078 31.7305C45.0859 31.9102 44.0833 32 43 32C41.9167 32 40.9141 31.9101 39.9922 31.7305C39.0703 31.5508 38.3411 31.3073 37.8047 31C37.2682 30.6927 37 30.3594 37 30V29C37 28.6406 37.2682 28.3073 37.8047 28C38.3411 27.6927 39.0703 27.4492 39.9922 27.2695C40.9141 27.0898 41.9167 27 43 27Z" fill="white"/>
</g>
<circle cx="196" cy="49" r="12" fill="#A6D5F1"/>
<path d="M201.615 42H190.345C190.123 42 189.909 42.0885 189.751 42.246C189.594 42.4036 189.505 42.6172 189.505 42.84V45.8668H202.455V42.84C202.455 42.6172 202.367 42.4036 202.209 42.246C202.052 42.0885 201.838 42 201.615 42V42ZM194.522 44.5116H191.267V43.3566H194.522V44.5116ZM199.025 43.9348C199.025 44.0878 198.965 44.2345 198.856 44.3427C198.748 44.4508 198.602 44.5116 198.449 44.5116C198.296 44.5116 198.149 44.4508 198.041 44.3427C197.933 44.2345 197.872 44.0878 197.872 43.9348C197.872 43.7818 197.933 43.6351 198.041 43.5269C198.149 43.4188 198.296 43.358 198.449 43.358C198.602 43.358 198.748 43.4188 198.856 43.5269C198.965 43.6351 199.025 43.7818 199.025 43.9348ZM200.927 43.9348C200.927 44.0878 200.866 44.2345 200.758 44.3427C200.649 44.4508 200.503 44.5116 200.35 44.5116C200.197 44.5116 200.05 44.4508 199.942 44.3427C199.834 44.2345 199.773 44.0878 199.773 43.9348C199.773 43.7818 199.834 43.6351 199.942 43.5269C200.05 43.4188 200.197 43.358 200.35 43.358C200.503 43.358 200.649 43.4188 200.758 43.5269C200.866 43.6351 200.927 43.7818 200.927 43.9348ZM189.505 50.9222H202.455V47.0554H189.505V50.9222ZM199.772 48.9874C199.772 48.8344 199.832 48.6877 199.941 48.5795C200.049 48.4714 200.195 48.4106 200.348 48.4106C200.501 48.4106 200.648 48.4714 200.756 48.5795C200.864 48.6877 200.925 48.8344 200.925 48.9874C200.924 49.1394 200.863 49.2848 200.755 49.3921C200.648 49.4993 200.502 49.5596 200.35 49.56C200.197 49.56 200.05 49.4992 199.942 49.3911C199.834 49.2829 199.773 49.1362 199.773 48.9832L199.772 48.9874ZM197.87 48.9874C197.87 48.8344 197.931 48.6877 198.039 48.5795C198.147 48.4714 198.294 48.4106 198.447 48.4106C198.6 48.4106 198.747 48.4714 198.855 48.5795C198.963 48.6877 199.024 48.8344 199.024 48.9874C199.023 49.1394 198.962 49.2848 198.854 49.3921C198.746 49.4993 198.601 49.5596 198.449 49.56C198.296 49.56 198.149 49.4992 198.041 49.3911C197.933 49.2829 197.872 49.1362 197.872 48.9832L197.87 48.9874ZM191.267 48.4106H194.522V49.56H191.267V48.4106ZM189.505 55.1362C189.505 55.359 189.594 55.5726 189.751 55.7302C189.909 55.8877 190.123 55.9762 190.345 55.9762H201.615C201.726 55.9762 201.835 55.9545 201.937 55.9123C202.039 55.87 202.131 55.8082 202.209 55.7302C202.287 55.6522 202.349 55.5596 202.391 55.4577C202.434 55.3557 202.455 55.2465 202.455 55.1362V52.1094H189.505V55.1362ZM199.772 54.04C199.772 53.887 199.832 53.7403 199.941 53.6321C200.049 53.524 200.195 53.4632 200.348 53.4632C200.424 53.463 200.499 53.4778 200.57 53.5067C200.64 53.5356 200.703 53.5781 200.757 53.6316C200.811 53.6852 200.853 53.7489 200.883 53.8189C200.912 53.889 200.927 53.9641 200.927 54.04C200.927 54.193 200.866 54.3397 200.758 54.4479C200.649 54.556 200.503 54.6168 200.35 54.6168C200.274 54.617 200.199 54.6022 200.129 54.5733C200.058 54.5444 199.995 54.5019 199.941 54.4484C199.887 54.3948 199.845 54.3311 199.816 54.2611C199.787 54.191 199.772 54.1159 199.772 54.04ZM197.87 54.04C197.87 53.887 197.931 53.7403 198.039 53.6321C198.147 53.524 198.294 53.4632 198.447 53.4632C198.523 53.463 198.598 53.4778 198.668 53.5067C198.738 53.5356 198.802 53.5781 198.856 53.6316C198.91 53.6852 198.952 53.7489 198.981 53.8189C199.01 53.889 199.025 53.9641 199.025 54.04C199.025 54.193 198.965 54.3397 198.856 54.4479C198.748 54.556 198.602 54.6168 198.449 54.6168C198.373 54.617 198.298 54.6022 198.227 54.5733C198.157 54.5444 198.094 54.5019 198.04 54.4484C197.986 54.3948 197.943 54.3311 197.914 54.2611C197.885 54.191 197.87 54.1159 197.87 54.04ZM191.267 53.466H194.522V54.621H191.267V53.466Z" fill="white"/>
<circle cx="57" cy="179" r="16" fill="#A6D5F1"/>
<g clip-path="url(#clip2)">
<path d="M57.8471 183.044C58.0545 183.165 58.2265 183.338 58.3459 183.547C58.4653 183.755 58.5279 183.991 58.5275 184.231C58.5275 184.721 58.2681 185.173 57.8471 185.418C57.6405 185.538 57.4057 185.602 57.1667 185.602C56.9276 185.602 56.6929 185.538 56.4863 185.418C56.0652 185.173 55.8058 184.721 55.8058 184.231C55.8054 183.991 55.8681 183.755 55.9875 183.547C56.1069 183.338 56.2789 183.165 56.4863 183.044V180.598H51.728C50.9759 180.598 50.3672 179.984 50.3672 179.228V172.37C50.3672 171.613 50.9776 171 51.728 171H62.6181C63.3702 171 63.9789 171.615 63.9789 172.37V179.228C63.9789 179.984 63.3667 180.598 62.6181 180.598H57.8471V183.044ZM51.5457 184.916C51.4266 185.124 51.2548 185.297 51.0476 185.418C50.841 185.538 50.6062 185.602 50.3672 185.602C50.1282 185.602 49.8934 185.538 49.6868 185.418C49.3044 185.196 49.0554 184.802 49.0129 184.365C49.0043 184.321 49 184.276 49 184.231C49 184.186 49.0043 184.142 49.0126 184.099C49.0786 183.404 49.6599 182.861 50.3672 182.861C50.8709 182.861 51.3107 183.136 51.546 183.546H55.2409C55.1657 183.761 55.1254 183.992 55.1254 184.231C55.1254 184.471 55.1657 184.701 55.2409 184.916H51.5457H51.5457ZM65.3206 184.098C65.329 184.141 65.3333 184.186 65.3333 184.231C65.3333 184.277 65.329 184.321 65.3206 184.364C65.2783 184.802 65.0292 185.195 64.6466 185.418C64.44 185.538 64.2052 185.602 63.9662 185.602C63.7271 185.602 63.4924 185.538 63.2858 185.418C63.0786 185.297 62.9068 185.124 62.7877 184.916H59.0924C59.1677 184.701 59.2079 184.471 59.2079 184.231C59.2079 183.992 59.1677 183.761 59.0924 183.546H62.7874C63.0227 183.136 63.4625 182.861 63.9661 182.861C64.6731 182.861 65.2542 183.404 65.3206 184.098L65.3206 184.098ZM53.5937 174.336C53.4729 174.336 53.375 174.434 53.375 174.555V177.034C53.375 177.155 53.4729 177.253 53.5937 177.253H54.6146C54.7354 177.253 54.8333 177.155 54.8333 177.034V174.555C54.8333 174.434 54.7354 174.336 54.6146 174.336H53.5937ZM56.6562 174.336C56.5354 174.336 56.4375 174.434 56.4375 174.555V177.034C56.4375 177.155 56.5354 177.253 56.6562 177.253H57.6771C57.7979 177.253 57.8958 177.155 57.8958 177.034V174.555C57.8958 174.434 57.7979 174.336 57.6771 174.336H56.6562ZM59.7187 174.336C59.5979 174.336 59.5 174.434 59.5 174.555V177.034C59.5 177.155 59.5979 177.253 59.7187 177.253H60.7396C60.8604 177.253 60.9583 177.155 60.9583 177.034V174.555C60.9583 174.434 60.8604 174.336 60.7396 174.336H59.7187Z" fill="white"/>
</g>
<defs>
<filter id="filter0_d" x="81" y="75" width="47" height="47" filterUnits="userSpaceOnUse" color-interpolation-filters="sRGB">
<feFlood flood-opacity="0" result="BackgroundImageFix"/>
<feColorMatrix in="SourceAlpha" type="matrix" values="0 0 0 0 0 0 0 0 0 0 0 0 0 0 0 0 0 0 127 0"/>
<feOffset dy="2"/>
<feGaussianBlur stdDeviation="2"/>
<feColorMatrix type="matrix" values="0 0 0 0 0.335174 0 0 0 0 0.635016 0 0 0 0 0.820833 0 0 0 1 0"/>
<feBlend mode="normal" in2="BackgroundImageFix" result="effect1_dropShadow"/>
<feBlend mode="normal" in="SourceGraphic" in2="effect1_dropShadow" result="shape"/>
</filter>
<linearGradient id="paint0_linear" x1="103.965" y1="43.4806" x2="103.965" y2="165.519" gradientUnits="userSpaceOnUse">
<stop stop-color="#3463AB"/>
<stop offset="1" stop-color="#BAEDFF"/>
</linearGradient>
<linearGradient id="paint1_linear" x1="103.965" y1="43.4806" x2="103.965" y2="165.519" gradientUnits="userSpaceOnUse">
<stop stop-color="#DDEFFF"/>
<stop offset="1" stop-color="#5E9ED9" stop-opacity="0"/>
</linearGradient>
<linearGradient id="paint2_linear" x1="102.959" y1="122.605" x2="102.959" y2="140.709" gradientUnits="userSpaceOnUse">
<stop stop-color="#89B1CE"/>
<stop offset="1" stop-color="#E6F1FF"/>
</linearGradient>
<linearGradient id="paint3_linear" x1="102.624" y1="71" x2="102.624" y2="120.62" gradientUnits="userSpaceOnUse">
<stop stop-color="#B6DDF4"/>
<stop offset="1" stop-color="#72BBE8"/>
</linearGradient>
<clipPath id="clip0">
<rect width="39" height="39" fill="white" transform="translate(85 77)"/>
</clipPath>
<clipPath id="clip1">
<rect width="14" height="14" fill="white" transform="translate(36 27)"/>
</clipPath>
<clipPath id="clip2">
<rect width="18.6667" height="18.6667" fill="white" transform="translate(46.3333 167)"/>
</clipPath>
</defs>
</svg>
