<svg width="40" height="40" viewBox="0 0 40 40" fill="none" xmlns="http://www.w3.org/2000/svg">
<circle cx="20" cy="20" r="20" fill="#44C98D"/>
<path d="M18.7194 21.9242L16.5828 19.7876C16.4984 19.7033 16.3839 19.6559 16.2646 19.6559C16.1453 19.6559 16.0309 19.7033 15.9465 19.7876L15.6288 20.1062C15.5444 20.1906 15.497 20.3051 15.497 20.4244C15.497 20.5437 15.5444 20.6581 15.6288 20.7425L18.174 23.2877L18.4017 23.5154C18.4861 23.5998 18.6005 23.6472 18.7198 23.6472C18.8391 23.6472 18.9536 23.5998 19.038 23.5154L24.1293 18.4241C24.2136 18.3397 24.261 18.2253 24.261 18.106C24.261 17.9867 24.2136 17.8722 24.1293 17.7878L23.8107 17.4692C23.7263 17.3849 23.6118 17.3375 23.4925 17.3375C23.3732 17.3375 23.2588 17.3849 23.1744 17.4692L18.7194 21.9242ZM19.9389 28.1C17.7906 28.1 15.7303 27.2466 14.2113 25.7276C12.6923 24.2085 11.8389 22.1483 11.8389 20C11.8389 17.8518 12.6923 15.7915 14.2113 14.2725C15.7303 12.7534 17.7906 11.9 19.9389 11.9C22.0871 11.9 24.1474 12.7534 25.6664 14.2725C27.1855 15.7915 28.0389 17.8518 28.0389 20C28.0389 22.1483 27.1855 24.2085 25.6664 25.7276C24.1474 27.2466 22.0871 28.1 19.9389 28.1Z" fill="white"/>
</svg>
