<svg width="40" height="40" viewBox="0 0 40 40" fill="none" xmlns="http://www.w3.org/2000/svg">
<circle cx="20" cy="20" r="20" fill="#60ACFC"/>
<path d="M20 12.2109C15.7087 12.2109 12.2273 15.6964 12.2273 20C12.2273 24.3037 15.7087 27.7891 20 27.7891C24.2914 27.7891 27.7728 24.3037 27.7728 20C27.7728 15.6964 24.2914 12.2109 20 12.2109ZM23.8864 20.8591H19.7628C19.6769 20.8591 19.5909 20.8428 19.5132 20.81C19.3977 20.7609 19.2992 20.6789 19.2301 20.5741C19.1609 20.4693 19.1242 20.3465 19.1246 20.2209V16.085C19.1246 15.7332 19.4109 15.4469 19.7628 15.4469C20.1146 15.4469 20.4009 15.7332 20.4009 16.085V19.5828H23.8905C24.2423 19.5828 24.5287 19.8691 24.5287 20.2209C24.5246 20.5728 24.2382 20.8591 23.8864 20.8591H23.8864Z" fill="white"/>
</svg>
