<svg width="40" height="40" viewBox="0 0 40 40" fill="none" xmlns="http://www.w3.org/2000/svg">
<circle cx="20" cy="20" r="20" fill="#8AD77F"/>
<path d="M26.1172 25.6461V25.9238C26.1172 27.3301 23.9164 27.3301 21.3658 27.3301H18.5656C15.9096 27.3301 13.8125 27.3301 13.8125 25.9256V25.6479C13.8107 23.0199 15.9359 20.8842 18.5656 20.8771H21.3641C23.9938 20.8842 26.1207 23.0182 26.1172 25.6461ZM23.7494 16.5002V16.509C23.7529 18.5973 22.0654 20.2936 19.9771 20.2988H19.9666C17.8748 20.3023 16.1768 18.6078 16.1732 16.516C16.1697 14.4242 17.8643 12.7262 19.9561 12.7227H19.9684C22.0531 12.7262 23.7459 14.4154 23.7494 16.5002Z" fill="white"/>
</svg>
