<svg width="40" height="40" viewBox="0 0 40 40" fill="none" xmlns="http://www.w3.org/2000/svg">
<circle cx="20" cy="20" r="20" fill="#2CD3F3"/>
<path d="M22.3426 16.3716H21.7085V18.4855H22.237C23.0826 18.4855 23.3996 18.1684 23.3996 17.4285C23.5053 16.6887 23.0826 16.3716 22.3426 16.3716ZM20.123 11.2981C16.3179 11.2981 13.2527 14.3634 13.2527 18.1684C13.2527 21.9735 20.123 28.2097 20.123 28.2097C20.123 28.2097 26.9934 21.9735 26.9934 18.1685C26.9934 14.3634 23.9281 11.2981 20.123 11.2981ZM19.0661 16.3716H18.5376V20.5995H19.0661V21.6565H16.635V20.5995H17.1635V16.3716H16.635V15.3146H19.0661V16.3716ZM24.2453 18.9083C23.7168 19.3311 23.1883 19.5425 22.4483 19.4368H21.7085V21.6565H20.3344V15.3146H22.5541C24.1396 15.3146 24.9851 15.9488 24.9851 17.3229C24.8794 18.0628 24.6681 18.5913 24.2453 18.9083Z" fill="white"/>
</svg>
