<svg width="40" height="40" viewBox="0 0 40 40" fill="none" xmlns="http://www.w3.org/2000/svg">
<circle cx="20" cy="20" r="20" fill="#FC7F57"/>
<path d="M20 11.3722C15.2354 11.3722 11.3722 15.2339 11.3722 20C11.3722 24.7656 15.235 28.6277 20 28.6277C24.7656 28.6277 28.6277 24.7656 28.6277 20C28.6277 15.2339 24.7656 11.3722 20 11.3722ZM22.8756 22.3011C22.8756 22.6182 22.6179 22.876 22.3007 22.876H17.6992C17.382 22.876 17.1243 22.6182 17.1243 22.3011V17.6992C17.1243 17.3817 17.382 17.1243 17.6992 17.1243H22.3011C22.6182 17.1243 22.876 17.3817 22.876 17.6992V22.3011H22.8756Z" fill="white"/>
</svg>
