<svg width="179" height="32" viewBox="0 0 179 32" fill="none" xmlns="http://www.w3.org/2000/svg">
<g opacity="0.5">
<path d="M158.613 17.4808C158.443 17.1399 158.274 17.1399 158.104 17.1399C157.257 17.1399 156.41 17.1399 155.562 17.1399C155.223 17.1399 155.054 17.3103 154.884 17.6512C153.02 22.0827 151.325 26.5142 149.461 30.9456C149.461 31.1161 149.291 31.2865 149.291 31.457C150.308 31.457 151.155 31.457 152.003 31.457C152.172 31.457 152.342 31.2865 152.342 31.1161C152.681 30.4343 152.85 29.7525 153.189 29.0708C153.189 28.7299 153.189 28.7299 153.528 28.7299C155.562 28.7299 157.596 28.7299 159.799 28.7299C159.969 28.7299 160.308 28.9003 160.308 29.0708C160.647 29.7525 160.816 30.4343 161.155 31.1161C161.155 31.2865 161.494 31.457 161.494 31.457C162.342 31.457 163.189 31.457 164.206 31.457C164.206 31.2865 164.206 31.1161 164.037 31.1161C162.342 26.6846 160.477 22.0827 158.613 17.4808ZM154.206 26.1733C155.054 24.2984 155.732 22.2531 156.579 20.2078C157.426 22.2531 158.274 24.2984 159.121 26.1733C157.426 26.1733 155.901 26.1733 154.206 26.1733Z" fill="white"/>
<path d="M175.222 17.8215C174.544 17.4806 173.866 17.3102 173.188 17.3102C170.816 17.3102 168.273 17.3102 165.9 17.3102H165.731C165.731 22.0825 165.731 26.8549 165.731 31.6272C166.748 31.6272 167.595 31.6272 168.443 31.6272C168.443 30.0933 168.443 28.7297 168.443 27.1958C169.629 27.1958 170.816 27.1958 171.832 27.1958C172.849 27.1958 173.697 27.0253 174.714 26.8549C176.917 26.1731 178.104 24.6392 178.273 22.4234C178.443 20.2077 177.256 18.5033 175.222 17.8215ZM174.375 23.9574C173.866 24.2983 173.358 24.6392 172.68 24.6392C171.324 24.8096 169.968 24.6392 168.612 24.6392C168.612 22.9347 168.612 21.2303 168.612 19.6964H168.782C170.138 19.6964 171.493 19.6964 172.849 19.6964C173.527 19.6964 174.205 20.0372 174.714 20.5486C175.731 21.4008 175.561 23.1052 174.375 23.9574Z" fill="white"/>
<path d="M126.918 24.1285C126.24 23.7876 125.562 23.4467 124.715 23.2763C123.867 22.9354 122.85 22.5945 122.003 22.0832C120.816 21.4014 120.816 20.2083 122.003 19.697C122.85 19.1857 123.867 19.1857 124.884 19.3561C125.901 19.5266 126.749 20.0379 127.766 20.3788C128.105 19.8675 128.443 19.1857 128.782 18.5039C126.918 17.1404 124.715 16.4586 122.511 16.7995C121.325 16.97 120.308 17.4813 119.461 18.3335C117.766 20.0379 117.766 22.5945 119.8 23.958C120.478 24.4694 121.155 24.8103 122.003 24.9807C123.02 25.3216 124.037 25.6625 125.054 26.0033C125.562 26.3442 126.071 26.5147 126.24 27.3669C126.24 28.0486 125.901 28.7304 125.223 29.0713C124.545 29.2417 123.867 29.5826 123.02 29.5826C121.494 29.7531 120.139 29.0713 118.783 28.0486C118.444 28.7304 117.935 29.4122 117.596 29.9235C117.596 30.0939 117.766 30.0939 117.766 30.0939C117.935 30.2644 117.935 30.4348 118.105 30.4348C119.969 31.6279 122.003 32.1392 124.206 31.9688C125.562 31.7983 126.749 31.287 127.766 30.4348C129.46 28.9008 129.969 25.492 126.918 24.1285Z" fill="white"/>
<path d="M146.07 29.0707C143.02 30.2638 139.46 28.9003 138.952 24.9801C138.613 22.4235 140.138 20.0373 142.511 19.3556C143.528 19.0147 144.545 19.0147 145.562 19.3556C146.24 19.526 146.748 19.6965 147.426 20.0373C147.765 19.3556 148.274 18.8443 148.613 18.1625C146.07 16.1172 140.647 15.9468 137.935 19.1851C135.393 22.0826 135.393 27.0254 138.274 29.7525C141.155 32.65 146.24 32.4796 148.952 30.2638C148.613 29.5821 148.104 29.0707 147.765 28.389C146.918 28.7298 146.579 28.9003 146.07 29.0707Z" fill="white"/>
<path d="M130.986 31.6274C131.834 31.6274 132.85 31.6274 133.698 31.6274C133.698 28.0482 133.698 24.4689 133.698 20.8896C132.681 20.8896 131.834 20.8896 130.986 20.8896C130.986 24.4689 130.986 28.0482 130.986 31.6274Z" fill="white"/>
<path d="M130.986 19.6965C132.003 19.6965 132.85 19.6965 133.698 19.6965C133.698 18.6738 133.698 17.8216 133.698 16.9694C132.85 16.799 132.003 16.799 130.986 16.799C130.986 17.8216 130.986 18.6738 130.986 19.6965Z" fill="white"/>
</g>
<path opacity="0.5" d="M109.083 17.5269V31.1487" stroke="white"/>
<g clip-path="url(#clip0)">
<g opacity="0.5">
<path d="M15.0793 27.4902C15.0793 28.6836 14.6691 29.6966 13.8627 30.5154C13.0564 31.3341 12.0238 31.7365 10.779 31.7365H0.919468V29.2942H9.05322C9.59076 29.2942 10.0576 29.1693 10.4254 28.9195C10.8497 28.6281 11.0619 28.2395 11.0619 27.74C11.0619 26.5743 10.2273 25.9915 8.55813 25.9915H4.45588C3.26765 25.9915 2.23501 25.6307 1.34384 24.923C0.438516 24.2153 0 23.2994 0 22.2031C0 20.982 0.438516 19.9967 1.3014 19.2335C2.16429 18.4703 3.31008 18.0956 4.7388 18.0956H14.1598V20.4408H5.8563C5.48852 20.4408 5.10658 20.5934 4.72465 20.8987C4.34272 21.204 4.15882 21.5648 4.15882 21.9811C4.15882 22.4529 4.34272 22.8415 4.71051 23.1606C5.07829 23.4798 5.51681 23.6324 6.0402 23.6324H10.5668C11.9672 23.6324 13.0847 23.9932 13.8769 24.701C14.6832 25.3809 15.0793 26.3245 15.0793 27.4902Z" fill="white"/>
<path d="M30.5828 27.1155C30.5828 28.9056 29.8472 30.1823 28.3902 30.9177C27.301 31.4589 25.745 31.7365 23.708 31.7365C21.7276 31.7365 20.1433 31.4173 18.9409 30.779C17.4132 29.9741 16.6493 28.7113 16.6493 26.9767V18.0817H20.1716V26.5465C20.1716 27.6151 20.5676 28.3922 21.3457 28.864C21.9115 29.2109 22.6329 29.3913 23.4816 29.3913C24.9245 29.3913 25.9288 29.1138 26.4664 28.5587C26.9332 28.073 27.1595 27.3653 27.1595 26.4355V18.0817H30.5686V27.1155H30.5828Z" fill="white"/>
<path d="M47.0909 31.7504H42.6633L35.9299 21.6481V31.7504H32.6057V18.0956H37.0899L43.7101 28.3367V18.0956H47.0909V31.7504Z" fill="white"/>
<path d="M52.8339 31.7504H49.1136V18.0956H52.8339V31.7504Z" fill="white"/>
<path d="M69.3277 31.7504H64.9001L58.1668 21.6481V31.7504H54.8425V18.0956H59.3267L65.9469 28.3367V18.0956H69.3277V31.7504Z" fill="white"/>
<path d="M84.379 26.0609H74.7599V31.7504H71.3367V23.3549C71.3367 22.8275 71.4357 22.2586 71.6337 21.6341C72.0157 20.4962 72.7371 19.6497 73.7839 19.0947C75.0287 18.4147 77.0515 18.0817 79.8524 18.0817H84.379V20.3713H79.6543C78.3954 20.3713 77.5042 20.4407 76.9808 20.5656C76.1038 20.7876 75.4672 21.2595 75.0853 21.9811C74.8024 22.5084 74.6609 23.1051 74.6609 23.7712H84.3648V26.0609H84.379Z" fill="white"/>
<path d="M101 24.8952C101 27.5595 100.25 29.4607 98.751 30.6124C97.5344 31.5422 95.7521 32.0001 93.4181 32.0001C90.8294 32.0001 88.9197 31.4589 87.6749 30.3904C86.3169 29.2109 85.6379 27.3375 85.6379 24.7287C85.6379 22.6055 86.2462 20.9403 87.4486 19.7608C88.7641 18.4702 90.7304 17.818 93.3473 17.818C96.233 17.818 98.2559 18.4425 99.4441 19.6775C100.477 20.7876 101 22.5222 101 24.8952ZM97.4496 24.8119C97.4496 23.4659 97.1242 22.3973 96.4735 21.6064C95.7379 20.7183 94.6629 20.2742 93.22 20.2742C91.8054 20.2742 90.7445 20.746 90.0372 21.7035C89.4431 22.4945 89.1461 23.5353 89.1461 24.8119C89.1461 26.2829 89.3865 27.3791 89.8675 28.0869C90.5323 29.0721 91.763 29.5578 93.5595 29.5578C95.0731 29.5578 96.134 29.086 96.7423 28.1285C97.2091 27.3791 97.4496 26.2829 97.4496 24.8119Z" fill="white"/>
</g>
<path d="M26.2119 4.59323C33.7516 4.59323 40.5132 7.88205 45.0964 13.072H50.9668C45.6622 5.18994 36.5524 0 26.2119 0C15.8715 0 6.76165 5.18994 1.45703 13.072H7.32748C11.9107 7.88205 18.6581 4.59323 26.2119 4.59323Z" fill="#FFE200"/>
<path d="M67.5595 6.21679V8.04853H71.7183C71.9022 8.07629 72.0154 8.20118 72.0295 8.42321C72.0012 8.65911 71.9022 8.77013 71.7183 8.77013H67.5595V12.9193H72.1144C72.369 12.9471 72.5105 13.0442 72.5387 13.2246C72.5105 13.4605 72.369 13.5854 72.1144 13.5993H64.2494C64.0089 13.5715 63.8958 13.4466 63.8958 13.2246C63.924 13.0442 64.0514 12.9332 64.2777 12.9193H66.8239V6.21679C66.8239 6.00864 66.9371 5.9115 67.1775 5.9115C67.4039 5.9115 67.5312 6.00864 67.5595 6.21679Z" fill="#898989"/>
<path d="M73.2035 8.57571H74.3352C74.6605 8.60347 74.8303 8.79774 74.8303 9.15854V12.6555C74.802 12.7665 74.8161 12.822 74.8586 12.822C74.8868 12.822 74.9293 12.7943 75 12.7249C75.1698 12.5584 75.3254 12.3225 75.4951 12.0033C75.6366 11.8229 75.8063 11.7813 75.9902 11.9062C76.1741 12.0172 76.2165 12.1837 76.0892 12.3918C75.8488 12.7804 75.5234 13.1689 75.099 13.5714C74.8161 13.8073 74.5756 13.8767 74.3917 13.7795C74.222 13.6824 74.1513 13.4604 74.1513 13.0857V9.54709C74.123 9.38057 74.0522 9.29731 73.9108 9.26956H73.2035C72.9913 9.26956 72.8923 9.15854 72.8923 8.92263C72.8782 8.71448 72.9913 8.60347 73.2035 8.57571ZM74.1513 6.1889C74.5049 6.50806 74.8868 6.89661 75.3112 7.3268C75.4244 7.5072 75.4102 7.6876 75.2829 7.84024C75.099 7.97901 74.9293 7.95126 74.7878 7.77086C74.5756 7.52107 74.2786 7.22966 73.9108 6.91049C73.8401 6.84111 73.7693 6.77172 73.6986 6.70234C73.5147 6.56357 73.4723 6.39705 73.5996 6.21665C73.7552 6.07788 73.9391 6.07788 74.1513 6.1889ZM80.2481 6.74397V10.8238C80.2905 12.1421 80.4885 12.8637 80.8422 13.0024C80.9412 13.0302 80.9978 12.6971 81.0119 12.031C81.0119 11.8229 81.1109 11.698 81.3231 11.6564C81.5353 11.6841 81.6485 11.7951 81.6768 12.0033C81.6485 13.2938 81.4363 13.9599 81.0402 14.0154C80.0783 13.8767 79.5832 12.6833 79.5549 10.4491V7.11864C79.5549 6.88274 79.4559 6.77172 79.2437 6.77172H77.8009V9.36669H79.2154C79.4276 9.39445 79.5266 9.49158 79.5266 9.67198C79.5266 9.88014 79.4276 9.97727 79.2154 9.97727H77.8009V13.6408C77.7726 13.8767 77.6594 14.0016 77.4472 14.0154C77.235 13.9877 77.136 13.8628 77.136 13.6408V9.99115H75.7214C75.4668 9.99115 75.3254 9.89401 75.2971 9.71361C75.3254 9.50546 75.4527 9.39445 75.679 9.36669H77.1219V6.77172H76.0326C75.8205 6.77172 75.7214 6.66071 75.7214 6.4248C75.7214 6.21665 75.8205 6.10563 76.0326 6.07788H79.6256C80.05 6.07788 80.2481 6.29991 80.2481 6.74397Z" fill="#898989"/>
<path d="M83.7845 7.77094V13.6547C83.7563 13.8629 83.6289 13.9739 83.4026 14.0016C83.1904 13.9739 83.0914 13.849 83.0914 13.627V9.01986C82.9782 9.25576 82.8368 9.47779 82.667 9.7137C82.4832 9.94961 82.2851 10.0051 82.1012 9.88022C81.9173 9.74145 81.9032 9.56105 82.0729 9.32515C82.8226 8.31214 83.2894 7.21587 83.4875 6.03634C83.5299 5.82818 83.6714 5.73105 83.9119 5.7588C84.1523 5.80043 84.2514 5.9392 84.2231 6.17511C84.0675 6.78569 83.926 7.31301 83.7845 7.77094ZM84.407 6.81344H86.9107C86.84 6.7163 86.741 6.54978 86.5995 6.3C86.4581 6.09184 86.5005 5.92532 86.6985 5.78655C86.9107 5.68942 87.0946 5.74492 87.2644 5.92532C87.4341 6.24449 87.5897 6.54978 87.7595 6.82732H90.334C90.5744 6.85507 90.7018 6.96609 90.7159 7.17424C90.6876 7.41014 90.5603 7.52116 90.334 7.52116H84.3787C84.1382 7.52116 84.025 7.41014 84.025 7.17424C84.0533 6.95221 84.1806 6.82732 84.407 6.81344ZM85.2981 10.9626H89.5701C90.0652 10.9626 90.3057 11.1846 90.3057 11.6148V13.28C90.334 13.7241 90.0935 13.9323 89.5984 13.9045H85.2981C84.7606 13.9045 84.4918 13.6686 84.5201 13.2107V11.5871C84.4918 11.1708 84.7606 10.9626 85.2981 10.9626ZM84.9445 8.22888H89.7823C89.9945 8.25663 90.1076 8.38152 90.1359 8.60355C90.1076 8.81171 89.9803 8.90884 89.754 8.90884H84.9586C84.7182 8.90884 84.605 8.79783 84.605 8.56192C84.5908 8.36765 84.704 8.25663 84.9445 8.22888ZM84.9728 9.54718H89.8106C90.0228 9.57493 90.1359 9.68595 90.1642 9.8941C90.1359 10.1023 90.0086 10.1994 89.7823 10.1994H84.9869C84.7464 10.1994 84.6333 10.1023 84.6333 9.8941C84.6191 9.68595 84.7465 9.56106 84.9728 9.54718ZM89.3155 11.6148H85.5103C85.2981 11.6148 85.1991 11.712 85.2274 11.8924V13.0303C85.1991 13.1413 85.284 13.1968 85.4679 13.1968H89.3155C89.4994 13.1968 89.5984 13.1274 89.5984 12.9886V11.9479C89.5984 11.7536 89.4994 11.6426 89.3155 11.6148Z" fill="#898989"/>
<path d="M92.7671 11.7536C92.5549 12.3503 92.2578 12.9331 91.89 13.4882C91.7061 13.6964 91.5081 13.738 91.2959 13.627C91.112 13.4882 91.0979 13.3217 91.2676 13.1135C91.6637 12.6278 91.9608 12.1005 92.1447 11.5177C92.2154 11.3095 92.3568 11.2263 92.569 11.2818C92.7529 11.3651 92.8236 11.5316 92.7671 11.7536ZM95.3133 6.63305H97.8595C98.496 6.59142 98.7931 6.86896 98.7365 7.49341V9.94961C98.7789 10.6018 98.496 10.8794 97.8595 10.81H92.668C92.0598 10.8516 91.7769 10.5741 91.8193 9.94961V7.50729C91.7203 6.85508 92.0173 6.57754 92.6963 6.64693H94.4221C94.5211 6.4804 94.5918 6.32776 94.6343 6.16124C94.6626 6.11961 94.6767 6.07798 94.705 6.0641C94.7757 5.8837 94.9172 5.81432 95.1294 5.85595C95.3416 5.89758 95.4406 6.02247 95.4406 6.23062C95.4123 6.32776 95.384 6.4249 95.3416 6.53591C95.3274 6.57754 95.3133 6.61917 95.3133 6.63305ZM97.8453 7.25751H92.6963C92.5124 7.25751 92.4276 7.34077 92.4559 7.49341V7.7987H98.1V7.49341C98.0717 7.36852 97.9868 7.28526 97.8453 7.25751ZM92.4559 8.39541V8.97824H98.1V8.39541H92.4559ZM92.4559 9.61657V9.96349C92.4559 10.1439 92.5266 10.2272 92.668 10.1994H97.8595C98.0292 10.2272 98.1 10.1439 98.1 9.96349V9.61657H92.4559ZM94.0402 11.4067V12.6556C94.0402 13.0441 94.2665 13.2523 94.705 13.2801H96.2893C96.8551 13.3078 97.0956 13.0441 97.0249 12.5168C96.9966 12.3781 97.0956 12.2948 97.3078 12.2809C97.4917 12.3087 97.619 12.3781 97.6614 12.5168C97.8029 13.4882 97.3502 13.9323 96.2893 13.8629H94.705C93.7573 13.9045 93.3329 13.5021 93.4036 12.6556V11.4067C93.4036 11.2263 93.5026 11.1153 93.7148 11.1014C93.9129 11.1291 94.0119 11.2263 94.0402 11.4067ZM95.7376 11.1985C95.7659 11.2957 95.7942 11.3651 95.8367 11.4344C96.0206 11.7536 96.1762 12.0866 96.2893 12.4058C96.3318 12.5862 96.2752 12.7389 96.1196 12.8499C95.9357 12.947 95.8084 12.8915 95.7376 12.7111C95.6669 12.6001 95.6103 12.4752 95.5679 12.3364C95.3981 12.0173 95.2567 11.7258 95.1435 11.4761C95.0445 11.3095 95.1011 11.1708 95.285 11.0598C95.4689 10.9904 95.6103 11.0459 95.7376 11.1985ZM98.1707 11.4067C98.7082 12.0034 99.1467 12.5585 99.4721 13.0719C99.5852 13.2801 99.5711 13.4466 99.4014 13.5576C99.2175 13.6964 99.0477 13.6686 98.9063 13.4882C98.4819 12.8915 98.0717 12.3503 97.6756 11.8646C97.5341 11.6981 97.5341 11.5593 97.6756 11.4206C97.8453 11.2679 98.0009 11.2679 98.1707 11.4067Z" fill="#898989"/>
</g>
<defs>
<clipPath id="clip0">
<rect width="101" height="32" fill="white"/>
</clipPath>
</defs>
</svg>
