<svg width="481" height="57" viewBox="0 0 481 57" fill="none" xmlns="http://www.w3.org/2000/svg">
<g filter="url(#filter0_d)">
<path d="M194.612 24.7598H197.108C197.05 25.503 196.964 26.2177 196.85 26.9324H192.719C193.379 26.332 194.01 25.6174 194.612 24.7598ZM196.104 29.4194L196.046 29.5337C195.129 31.4204 193.207 32.9926 190.224 34.3076L192.059 36.5088C192.92 36.1086 193.694 35.6512 194.44 35.1938V46.9427H197.165V45.8279H210.704V46.9427H213.457V34.7936H202.5L204.193 33.0784C202.701 31.9921 200.923 30.9058 198.8 29.8196C198.829 29.7052 198.857 29.5623 198.915 29.4194H204.623V26.9324H199.489C199.603 26.2463 199.661 25.5316 199.718 24.7598H203.82V22.3585H195.96C196.19 21.844 196.419 21.3294 196.62 20.7577L194.182 20.2432C193.207 22.4157 192.031 24.0737 190.711 25.2458L192.059 26.9324H190.769V29.4194H196.104ZM197.165 43.4266V41.5399H210.704V43.4266H197.165ZM197.165 39.1959V37.1948H210.704V39.1959H197.165ZM195.014 34.7936C196.247 33.8788 197.223 32.8783 197.911 31.792C199.575 32.8211 200.923 33.8216 202.013 34.7936H195.014ZM205.512 22.3871V33.1927H215.551V22.3871H205.512ZM212.884 30.8201H208.18V24.7884H212.884V30.8201Z" fill="white"/>
<path d="M223.411 37.252H229.32V39.3388H223.411V37.252ZM229.32 35.0223H223.411V32.8211H229.32V35.0223ZM223.411 41.5971H229.32V43.1979C229.32 43.9412 228.975 44.3128 228.316 44.3128L226.279 44.1985L226.939 46.7426H229.176C231.012 46.7426 231.958 45.7421 231.958 43.7697V30.4485H220.772V46.9427H223.411V41.5971ZM241.74 33.1642C242.772 33.1642 243.547 32.9355 244.063 32.5067C244.579 32.0207 244.981 30.5914 245.21 28.2187L242.657 27.3897C242.6 28.9906 242.428 29.9625 242.199 30.3055C241.998 30.5914 241.682 30.7343 241.223 30.7343H237.81C237.122 30.7343 236.777 30.2484 236.777 29.3336V26.475C239.846 26.0176 242.543 25.503 244.895 24.9599L244.006 22.5587C242.141 23.0732 239.732 23.5306 236.777 23.988V20.6148H234.081V29.9053C234.081 32.0779 235.056 33.1642 237.064 33.1642H241.74ZM236.777 39.7676C239.646 39.4817 242.371 39.0243 244.895 38.3383L244.006 35.9084C241.883 36.5373 239.474 37.0233 236.777 37.3092V34.1647H234.081V43.8554C234.081 45.5706 235.056 46.4568 237.007 46.4568H241.768C242.83 46.4568 243.604 46.2281 244.092 45.7993C244.608 45.3419 244.981 43.9126 245.21 41.5114L242.744 40.7109C242.657 42.3118 242.485 43.2837 242.256 43.6267C242.055 43.884 241.711 44.0269 241.252 44.0269H237.781C237.093 44.0269 236.777 43.7697 236.777 43.2551V39.7676ZM229.893 22.5015L227.799 23.8164C228.373 24.6455 228.918 25.4459 229.434 26.2463C227.111 26.5321 224.931 26.7608 222.923 26.8752C224.415 25.4459 225.763 23.5878 226.968 21.2437L224.357 20.4719C223.439 22.4157 222.091 24.3596 220.342 26.3035C219.997 26.5893 219.596 26.818 219.108 26.9895L219.854 29.2478C224.042 29.0192 227.627 28.6761 230.61 28.2187C230.955 28.819 231.27 29.4194 231.557 29.9911L233.794 28.3903C232.876 26.7322 231.586 24.7598 229.893 22.5015Z" fill="white"/>
<path d="M250.459 20.7291L248.566 22.5301C250.632 24.1881 252.238 25.7031 253.357 27.1325L255.336 25.2172C253.988 23.7307 252.353 22.2442 250.459 20.7291ZM266.895 46.3996H273.492L274.181 43.7125C273.378 43.7697 272.259 43.8268 270.825 43.8554C269.362 43.884 267.928 43.9126 266.522 43.9126C264.342 43.9126 262.449 43.884 260.843 43.8554C259.179 43.7983 257.917 43.541 257.085 43.1408C256.397 42.7692 255.709 42.1974 255.049 41.4256C254.905 41.2541 254.791 41.1397 254.676 41.0254V30.1912H248.251V32.7068H252.123V40.7967C250.976 41.3684 249.656 42.8263 248.222 45.1418L250.23 46.9999C251.693 44.4272 252.725 43.1408 253.328 43.1408C253.672 43.1408 254.016 43.3695 254.389 43.8554C255.25 44.8274 256.225 45.5134 257.372 45.8565C258.548 46.1423 260.04 46.3139 261.876 46.3424C263.683 46.371 265.346 46.3996 266.895 46.3996ZM258.261 21.9012V24.4168H271.685V21.9012H258.261ZM256.454 28.3617V30.9344H262.22C260.068 36.1086 258.405 38.8814 257.257 39.2245L257.946 41.5685C262.937 41.054 267.01 40.4251 270.108 39.6532C270.395 40.4537 270.681 41.2541 270.968 42.1117L273.406 41.4828C272.23 38.1096 270.882 35.1366 269.391 32.5353L267.182 33.2499C267.87 34.5363 268.53 35.8799 269.161 37.3092C266.953 37.8809 264.256 38.3383 261.044 38.7385C262.277 36.9376 263.568 34.3362 264.945 30.9344H273.779V28.3617H256.454Z" fill="white"/>
<path d="M286.572 40.7681C283.733 41.7972 280.405 42.6262 276.59 43.2265L276.934 45.9422C280.549 45.2847 283.761 44.4272 286.572 43.3695V40.7681ZM280.979 20.3575C280.032 23.502 278.942 26.3606 277.709 28.9334C277.365 29.4194 276.992 29.7624 276.562 29.9339L277.25 32.4209C278.656 32.1922 280.004 31.9921 281.294 31.792C280.09 34.1361 279.057 35.7655 278.254 36.7374C277.91 37.0519 277.508 37.3092 277.021 37.5093L277.738 39.9677C280.319 39.5389 283.073 38.7385 285.941 37.5665V35.0794C284.22 35.8227 282.556 36.423 280.922 36.8804C282.413 34.765 284.22 31.4204 286.4 26.8752L284.019 25.989C283.474 27.161 282.958 28.2759 282.499 29.305C281.581 29.4765 280.663 29.5909 279.746 29.7052C281.065 27.5613 282.327 24.7884 283.589 21.3866L280.979 20.3575ZM290.99 33.4786H295.464V36.6803H290.99V33.4786ZM290.99 39.1673H295.464V42.8263H290.99V39.1673ZM290.99 45.3419H302.922V42.8263H298.074V39.1673H301.861V36.6803H298.074V33.4786H301.861V30.9916H298.074V27.7328H302.348V25.16H298.218C297.874 23.7307 297.357 22.1584 296.726 20.4147L294.087 21.1293C294.661 22.4157 295.177 23.7593 295.636 25.16H291.19C291.707 23.845 292.137 22.5015 292.481 21.1008L289.9 20.5862C289.01 24.4453 287.49 28.0186 285.339 31.2775L286.171 34.0218C286.974 32.9926 287.691 31.935 288.379 30.8487V46.8284H290.99V45.3419ZM295.464 27.7328V30.9916H290.99V27.7328H295.464Z" fill="white"/>
<path d="M330.516 23.1018H319.788C319.386 22.0727 318.985 21.1293 318.583 20.2717L315.514 20.7863C315.973 21.501 316.375 22.2728 316.747 23.1018H306.048V29.5337H308.802V25.7317H327.762V29.5623H330.516V23.1018ZM305.59 31.0202V33.6501H312.072C311.183 35.1938 310.265 36.7374 309.29 38.3097C311.843 39.1101 314.424 40.082 317.006 41.1683C314.08 43.2265 310.265 44.2842 305.561 44.3128L307.138 46.8284C312.359 46.6855 316.604 45.199 319.845 42.3975C322.771 43.7411 325.725 45.2847 328.68 46.9999L330.544 44.5987C327.561 42.9978 324.664 41.5685 321.824 40.3679C323.144 38.7099 324.377 36.4516 325.525 33.6501H331.061V31.0202H316.747C317.35 29.8767 317.981 28.6761 318.669 27.4183L315.858 26.5893C315.112 28.0758 314.338 29.5337 313.535 31.0202H305.59ZM315.285 33.6501H322.542C321.652 35.8227 320.505 37.7094 319.128 39.253C317.092 38.4526 315.084 37.7951 313.133 37.2234C313.793 36.1657 314.51 34.9651 315.285 33.6501Z" fill="white"/>
<path d="M346.005 20.4719C342.678 23.988 338.518 26.9324 333.527 29.305L334.847 31.6777C336.281 30.963 337.658 30.2198 338.977 29.4194V31.9921H345.603V36.2801H337.514V38.91H345.603V43.4266H334.962V46.0852H359.027V43.4266H348.357V38.91H356.417V36.2801H348.357V31.9921H354.983V29.4194C356.245 30.2198 357.564 30.9344 358.999 31.6205L360.347 29.1907C355.671 27.0753 351.541 24.1595 347.955 20.4719H346.005ZM339.035 29.3908C342.133 27.4755 344.8 25.3315 346.98 22.9303C349.275 25.3887 351.942 27.5613 354.925 29.3908H339.035Z" fill="white"/>
<path d="M384.039 31.7348H367.345V46.857H370.07V45.8565H382.663V46.8856H385.388V39.253H370.07V37.738H384.039V31.7348ZM370.07 43.4552V41.397H382.663V43.4552H370.07ZM370.07 35.5654V33.9074H381.372V35.5654H370.07ZM387.998 28.1616H377.184C376.955 27.5613 376.754 26.9895 376.524 26.475L377.901 27.3611C378.503 26.5607 379.048 25.6746 379.536 24.7312H380.999C381.63 25.6174 382.175 26.5321 382.634 27.4469L385.043 26.5607C384.728 25.989 384.355 25.3601 383.896 24.7312H388.571V22.3585H380.597C380.769 21.9012 380.913 21.4438 381.085 20.9578L378.475 20.3861C377.901 22.3585 376.926 24.1881 375.606 25.9032L376.094 26.2177L373.685 26.6179C373.943 27.0753 374.201 27.5898 374.43 28.1616H363.33V33.6215H365.997V30.4485H385.33V33.6215H387.998V28.1616ZM367.202 24.7312H368.464C369.095 25.7031 369.64 26.7037 370.128 27.7328L372.623 26.7894C372.279 26.1319 371.82 25.4459 371.304 24.7312H375.606V22.3585H368.378C368.55 21.9012 368.751 21.4152 368.923 20.9292L366.313 20.3575C365.596 22.4157 364.42 24.3596 362.756 26.1319L365.137 27.6184C365.883 26.7322 366.571 25.7603 367.202 24.7312Z" fill="white"/>
<path d="M401.68 21.4724V35.1366H407.617V37.9952H401.336V40.5108H407.617V43.4838H400.217V46.0852H417.571V43.4838H410.314V40.5108H416.567V37.9952H410.314V35.1366H416.194V21.4724H401.68ZM413.584 32.7354H410.314V29.4765H413.584V32.7354ZM407.617 32.7354H404.29V29.4765H407.617V32.7354ZM404.29 27.1325V23.8736H407.617V27.1325H404.29ZM410.314 23.8736H413.584V27.1325H410.314V23.8736ZM391.784 30.8773V33.4786H394.624V40.0249C393.476 40.3107 392.3 40.568 391.096 40.7681L391.755 43.3695C394.767 42.6548 397.578 41.7686 400.217 40.7395V38.1096C399.299 38.5098 398.353 38.8528 397.377 39.1959V33.4786H400.274V30.8773H397.377V24.7598H400.619V22.187H391.354V24.7598H394.624V30.8773H391.784Z" fill="white"/>
<path d="M421.386 21.5867V24.2452H431.54V34.3648H420.238V36.9661H431.54V46.857H434.293V36.9661H445.824V34.3648H434.293V24.2452H444.734V21.5867H421.386ZM425.401 25.5888L422.848 26.818C423.91 28.7047 424.914 30.8487 425.86 33.2499L428.413 31.9921C427.438 29.6481 426.434 27.5327 425.401 25.5888ZM440.89 25.4745C440.087 27.5613 439.026 29.6766 437.678 31.8492L440.145 33.107C441.464 30.9916 442.554 28.8476 443.386 26.6465L440.89 25.4745Z" fill="white"/>
<path d="M471.525 34.765H451.905V46.9142H454.659V45.7421H468.771V46.9142H471.525V34.765ZM454.659 43.1408V37.3663H468.771V43.1408H454.659ZM450.041 32.1065C457.384 31.8206 464.067 31.4204 470.062 30.9058C470.722 31.9635 471.381 33.0784 472.07 34.279L474.737 32.9641C472.643 29.5051 470.435 26.3606 468.111 23.502L465.645 24.674C466.591 25.8747 467.538 27.1325 468.456 28.5046C463.895 28.9334 459.191 29.2478 454.314 29.4194C456.724 27.2468 459.076 24.5597 461.399 21.358L458.56 20.3861C454.716 25.989 451.704 29.0477 449.524 29.5337L450.041 32.1065Z" fill="white"/>
<path d="M52.2407 29.0719C51.809 28.4833 51.1812 27.9732 50.318 27.5808C49.4547 27.1884 48.5522 26.9922 47.532 26.9922C45.2169 26.9922 43.2942 28.0516 41.7638 30.1313V27.3846H37.4475V45.9839H42.0778V37.5867C42.0778 35.5071 42.1955 34.0945 42.4309 33.3097C42.6663 32.5249 43.098 31.9363 43.7258 31.4654C44.3536 30.9946 45.0992 30.7591 45.8839 30.7591C46.5118 30.7591 47.0611 30.9161 47.4927 31.2692C47.9244 31.5832 48.2775 32.054 48.4737 32.6426C48.6699 33.2312 48.7876 34.5261 48.7876 36.5273V46.0231H53.4178V34.4476C53.4178 32.9958 53.3394 31.8971 53.1432 31.1515C52.9862 30.3667 52.6723 29.6604 52.2407 29.0719ZM74.3715 28.0909C72.7627 28.0909 71.3109 28.4833 69.9767 29.2288C68.6819 29.9744 67.6616 31.073 66.9553 32.5249C66.249 33.9767 65.8959 35.4678 65.8959 36.9981C65.8959 38.9993 66.249 40.7259 66.9553 42.0992C67.6616 43.5118 68.7211 44.5713 70.0945 45.2776C71.4678 45.9839 72.9197 46.3763 74.4108 46.3763C76.8436 46.3763 78.884 45.513 80.4928 43.7473C82.1016 42.0207 82.9256 39.8234 82.9256 37.1551C82.9256 34.5261 82.1409 32.3679 80.5321 30.6414C78.9232 28.9541 76.8828 28.0909 74.3715 28.0909ZM77.2752 41.236C76.4904 42.1777 75.5487 42.6093 74.4108 42.6093C73.2728 42.6093 72.3311 42.1385 71.5463 41.236C70.7615 40.2942 70.3691 38.9993 70.3691 37.2336C70.3691 35.5071 70.7615 34.1729 71.5463 33.2312C72.3311 32.2895 73.2728 31.8578 74.4108 31.8578C75.5487 31.8578 76.4904 32.3287 77.2752 33.2312C78.06 34.1729 78.4131 35.4678 78.4131 37.1943C78.4131 38.9993 78.0208 40.3335 77.2752 41.236ZM62.4036 25.4619C62.6783 25.1479 63.1491 24.991 63.777 24.991C64.4048 24.991 65.0719 25.0695 65.7782 25.2657L66.3667 22.0481C65.1896 21.6557 63.9732 21.4595 62.7175 21.4595C61.5011 21.4595 60.5201 21.6949 59.6961 22.1265C58.9113 22.5974 58.362 23.186 58.0481 23.8923C57.7341 24.5986 57.6164 25.7365 57.6164 27.1884V28.5225H55.1836V32.1717H57.6164V46.0231H61.972V32.1325H65.2288V28.4833H61.972V27.2276C61.972 26.3644 62.1289 25.7758 62.4036 25.4619ZM91.2836 28.6795C90.7342 29.0719 90.1064 29.8174 89.4001 30.9946V28.5225H85.3585V46.0231H89.714V40.6081C89.714 37.626 89.8317 35.664 90.0672 34.7223C90.3026 33.7805 90.6557 33.1527 91.0874 32.7996C91.519 32.4464 92.0291 32.2502 92.6569 32.2502C93.2848 32.2502 93.9518 32.4857 94.6974 32.9958L96.0315 28.9541C95.129 28.3656 94.148 28.0909 93.167 28.0909C92.4607 28.0909 91.8329 28.2871 91.2836 28.6795ZM109.844 41.0005C108.98 41.8246 107.921 42.2562 106.705 42.2562C105.056 42.2562 103.722 41.5891 102.663 40.2942C101.643 38.9993 101.093 36.8019 101.093 33.7805C101.093 30.9161 101.603 28.7972 102.663 27.5415C103.722 26.2466 105.096 25.6188 106.783 25.6188C107.999 25.6188 109.059 25.972 109.883 26.7175C110.746 27.4238 111.295 28.444 111.57 29.6997L116.122 28.5617C115.612 26.639 114.827 25.1479 113.807 24.1277C112.08 22.362 109.804 21.4987 107.018 21.4987C103.84 21.4987 101.25 22.5974 99.2883 24.834C97.3264 27.0707 96.3454 30.1705 96.3454 34.2122C96.3454 38.0184 97.3264 41.0005 99.2491 43.1979C101.211 45.3953 103.683 46.494 106.705 46.494C109.137 46.494 111.178 45.8662 112.747 44.5713C114.317 43.2764 115.455 41.3144 116.161 38.6854L111.688 37.1943C111.335 38.8816 110.707 40.1765 109.844 41.0005ZM130.601 35.2716C130.601 37.9399 130.483 39.6272 130.248 40.2942C130.013 40.9613 129.581 41.5499 128.953 42.0207C128.325 42.4916 127.619 42.7271 126.834 42.7271C126.128 42.7271 125.579 42.5701 125.108 42.2169C124.637 41.8638 124.362 41.3929 124.166 40.8043C124.009 40.2157 123.891 38.6069 123.891 35.9779V27.4238H119.261V39.1955C119.261 40.9613 119.457 42.3347 119.889 43.3156C120.32 44.2966 120.988 45.0814 121.929 45.6307C122.871 46.1801 123.93 46.4548 125.108 46.4548C126.246 46.4548 127.344 46.1801 128.404 45.5915C129.424 45.0029 130.287 44.2181 130.915 43.2372V46.0231H135.231V27.4238H130.601V35.2716ZM148.023 28.0909C146.179 28.0909 144.57 28.9149 143.236 30.5237V21.8519H138.881V46.0231H142.922V43.4334C143.589 44.4143 144.374 45.1599 145.277 45.67C146.179 46.1801 147.121 46.4155 148.063 46.4155C149.985 46.4155 151.594 45.5915 152.928 43.9827C154.262 42.3739 154.929 40.0588 154.929 37.0766C154.929 34.1729 154.262 31.9755 152.967 30.406C151.673 28.8757 150.024 28.0909 148.023 28.0909ZM149.475 41.4322C148.808 42.2954 147.984 42.7271 147.003 42.7271C145.747 42.7271 144.727 42.0992 143.982 40.8828C143.432 40.0196 143.158 38.6854 143.158 36.8412C143.158 35.0754 143.511 33.7805 144.217 32.9173C144.923 32.054 145.787 31.6224 146.807 31.6224C147.866 31.6224 148.73 32.054 149.436 32.9565C150.103 33.859 150.456 35.2716 150.456 37.2728C150.495 39.1955 150.181 40.5689 149.475 41.4322ZM166.191 42.3347C165.72 42.7271 165.132 42.9232 164.464 42.9232C163.444 42.9232 162.62 42.5309 161.953 41.7853C161.286 41.0398 160.933 39.9411 160.894 38.5677H171.802C171.881 35.0362 171.174 32.3679 169.762 30.6414C168.349 28.9149 166.426 28.0516 163.954 28.0516C161.757 28.0516 159.952 28.8757 158.539 30.5237C157.127 32.1717 156.381 34.4476 156.381 37.3513C156.381 39.7841 156.931 41.7853 158.029 43.3941C159.403 45.3953 161.522 46.3763 164.386 46.3763C166.191 46.3763 167.721 45.9447 168.898 45.0422C170.115 44.1397 170.978 42.884 171.527 41.1575L167.172 40.3727C167.015 41.3144 166.662 41.9423 166.191 42.3347ZM161.914 32.7603C162.542 32.0148 163.327 31.6616 164.268 31.6616C165.171 31.6616 165.916 32.0148 166.544 32.7211C167.172 33.4274 167.486 34.4476 167.525 35.7817H161.011C160.972 34.4868 161.286 33.5059 161.914 32.7603Z" fill="white"/>
<path d="M40.9791 21.2664C40.1158 19.1867 35.4856 19.1082 29.9136 20.2069V14.5173C29.9136 14.2426 29.0111 14.0464 27.9125 14.0464H19.2799C18.1812 14.0464 17.2787 14.2426 17.2787 14.5173V24.1308C10.8435 26.9168 5.6639 30.4876 6.01705 33.6267C6.3702 36.6089 11.2358 36.7266 17.2787 35.3924V44.025C17.2787 45.163 18.1812 46.1047 19.2799 46.1047H27.8732C28.9719 46.1047 29.8744 45.163 29.8744 44.025V31.1546C36.859 27.9763 42.3132 24.0131 40.9791 21.2664ZM29.8744 29.7813V28.3686V28.3294V22.0119C26.9315 22.2866 17.3179 26.3675 17.3179 26.3675V27.7016C17.3179 27.937 17.3179 28.1332 17.3179 28.3686V34.0976C11.9814 35.2747 8.01824 35.157 7.54737 33.5482C6.88031 31.2331 13.4725 26.7991 22.262 23.6207C31.0908 20.4424 38.7817 19.6968 39.4487 22.0119C39.9981 23.7777 35.9565 26.956 29.8744 29.7813Z" fill="white"/>
<path d="M23.4792 10.4756C25.668 10.4756 27.4424 8.57831 27.4424 6.23782C27.4424 3.89734 25.668 2 23.4792 2C21.2904 2 19.5161 3.89734 19.5161 6.23782C19.5161 8.57831 21.2904 10.4756 23.4792 10.4756Z" fill="white"/>
<path d="M179.079 22.2014C177.407 22.2014 176.13 20.9234 176.13 19.3998C176.13 17.8761 177.407 16.5981 179.079 16.5981C180.75 16.5981 182.028 17.8761 182.028 19.3998C182.028 20.9234 180.75 22.2014 179.079 22.2014ZM179.079 21.5132C180.258 21.5132 181.241 20.5302 181.241 19.3998C181.241 18.2693 180.307 17.2863 179.079 17.2863C177.85 17.2863 176.916 18.2693 176.916 19.3998C176.916 20.5302 177.899 21.5132 179.079 21.5132ZM179.619 20.6285L179.079 19.793H178.735V20.6285H177.997V18.2201H179.226C179.914 18.2201 180.258 18.515 180.258 19.0065C180.258 19.4981 179.767 19.6455 179.767 19.6455V19.6947L180.406 20.6777H179.619V20.6285ZM178.735 18.7608V19.2031H179.226C179.373 19.2031 179.472 19.1048 179.472 18.9574C179.472 18.8099 179.373 18.7116 179.226 18.7116H178.735V18.7608Z" fill="white"/>
</g>
<defs>
<filter id="filter0_d" x="0" y="0" width="480.737" height="56.9999" filterUnits="userSpaceOnUse" color-interpolation-filters="sRGB">
<feFlood flood-opacity="0" result="BackgroundImageFix"/>
<feColorMatrix in="SourceAlpha" type="matrix" values="0 0 0 0 0 0 0 0 0 0 0 0 0 0 0 0 0 0 127 0"/>
<feOffset dy="4"/>
<feGaussianBlur stdDeviation="3"/>
<feColorMatrix type="matrix" values="0 0 0 0 0 0 0 0 0 0 0 0 0 0 0 0 0 0 0.8 0"/>
<feBlend mode="normal" in2="BackgroundImageFix" result="effect1_dropShadow"/>
<feBlend mode="normal" in="SourceGraphic" in2="effect1_dropShadow" result="shape"/>
</filter>
</defs>
</svg>
