<svg width="234" height="22" viewBox="0 0 234 22" fill="none" xmlns="http://www.w3.org/2000/svg">
<path d="M86.802 10.7825C87.1165 10.4381 87.4159 10.0338 87.6705 9.55466H88.7186V10.3183C88.7186 10.468 88.7186 10.6178 88.7036 10.7825H86.802ZM92.432 13.5825C92.0277 13.298 90.3806 12.3247 89.7667 12.0252L89.8117 11.8905H92.4769V10.7825H90.0213C90.0363 10.6327 90.0363 10.483 90.0363 10.3333V9.55466H92.1026V8.44663H88.2245C88.3443 8.11722 88.4641 7.80278 88.5689 7.4584L87.3261 7.20385C87.0117 8.31187 86.4277 9.40492 85.679 10.1536C85.9635 10.2734 86.4726 10.6028 86.7421 10.7825H85.724V11.8905H88.4341C88.0897 12.729 87.3111 13.5974 85.5742 14.2712C85.8887 14.4958 86.278 14.9301 86.4576 15.1996C87.925 14.5408 88.8084 13.7472 89.3325 12.9386C90.0512 13.4327 91.0245 14.1365 91.4587 14.4958L92.432 13.5825ZM95.771 15.9333V17.1012H89.1828V15.9333H95.771ZM89.1828 19.3472V18.1493H95.771V19.3472H89.1828ZM87.8052 20.9942H89.1828V20.4702H95.771V20.9793H97.1935V14.8252H87.8052V20.9942ZM97.0737 12.5493H94.3485V9.65947H97.0737V12.5493ZM93.0459 8.43166V13.7771H98.4512V8.43166H93.0459Z" fill="white"/>
<path d="M112.436 13.822C113.694 13.822 114.068 13.3279 114.233 11.4862C113.859 11.3964 113.29 11.1867 113.005 10.9621C112.945 12.3547 112.841 12.5942 112.301 12.5942H110.25C109.621 12.5942 109.516 12.5044 109.516 12.0252V10.7675C110.894 10.3632 112.421 9.86909 113.559 9.31508L112.661 8.31187C111.867 8.73113 110.684 9.24022 109.516 9.6445V7.29369H108.154V12.0402C108.154 13.4178 108.528 13.822 110.085 13.822H112.436ZM102.734 16.9964V15.8734H105.489V16.9964H102.734ZM105.489 13.7322V14.7953H102.734V13.7322H105.489ZM106.866 12.5643H101.431V20.9942H102.734V18.0744H105.489V19.4969C105.489 19.6766 105.444 19.7365 105.249 19.7365C105.039 19.7514 104.426 19.7514 103.797 19.7215C103.991 20.0659 104.186 20.6199 104.261 20.9793C105.174 20.9793 105.833 20.9643 106.297 20.7397C106.731 20.5301 106.866 20.1707 106.866 19.5119V12.5643ZM104.59 8.61134C104.92 9.07551 105.219 9.5846 105.504 10.1087L102.704 10.2883C103.318 9.52471 103.946 8.55145 104.426 7.63808L102.973 7.21883C102.509 8.35679 101.76 9.47979 101.506 9.77925C101.266 10.0937 101.042 10.3183 100.802 10.3632C100.982 10.7375 101.191 11.3964 101.266 11.6809C101.626 11.5311 102.165 11.4563 106.013 11.1568C106.147 11.4413 106.252 11.6958 106.327 11.9354L107.57 11.4113C107.27 10.498 106.492 9.16535 105.758 8.16214L104.59 8.61134ZM110.295 19.6766C109.651 19.6766 109.531 19.5867 109.531 19.0926V17.5953C110.969 17.1611 112.571 16.622 113.709 15.9632L112.796 14.9301C112.002 15.4691 110.759 16.0081 109.531 16.4424V14.2113H108.154V19.0926C108.154 20.4851 108.558 20.8894 110.13 20.8894H112.496C113.814 20.8894 114.188 20.3504 114.353 18.314C113.978 18.2242 113.424 17.9996 113.125 17.7899C113.05 19.3921 112.945 19.6766 112.376 19.6766H110.295Z" fill="white"/>
<path d="M128.143 8.11722H120.627V9.4199H128.143V8.11722ZM120.627 18.0445C121.106 17.8498 121.81 17.76 127.095 17.2809C127.305 17.6851 127.499 18.0744 127.649 18.4039L128.892 17.745C128.338 16.622 127.17 14.7055 126.287 13.298L125.119 13.837C125.538 14.5108 126.002 15.3044 126.436 16.083L122.109 16.4124C122.843 15.3643 123.591 14.0317 124.175 12.7589H129.161V11.4712H119.638V12.7589H122.483C121.944 14.1365 121.181 15.4541 120.911 15.8285C120.627 16.2777 120.372 16.5921 120.088 16.667C120.267 17.0263 120.507 17.745 120.597 18.0445C120.597 18.0145 120.612 17.9846 120.627 17.9547V18.0445ZM119.489 9.86909C118.875 9.34503 117.677 8.5215 116.838 7.95252L115.91 8.83594C116.764 9.44984 117.946 10.3482 118.53 10.8873L119.489 9.86909ZM118.875 12.3996H115.566V13.6873H117.512V18.1793C116.868 18.4787 116.15 19.0777 115.476 19.7964L116.419 21.114C117.123 20.1857 117.842 19.2723 118.321 19.2723C118.635 19.2723 119.159 19.7514 119.758 20.0958C120.791 20.7097 122.019 20.8894 123.846 20.8894C125.463 20.8894 127.934 20.8145 128.967 20.7397C128.997 20.3354 129.221 19.6167 129.401 19.2124C127.859 19.4071 125.508 19.5418 123.906 19.5418C122.259 19.5418 120.986 19.452 119.983 18.8381C119.489 18.5386 119.159 18.2841 118.875 18.1194V12.3996Z" fill="white"/>
<path d="M132.785 15.3942C133.878 14.0916 134.941 12.5044 135.81 10.9322L134.716 10.2734C134.432 10.8723 134.118 11.4563 133.773 12.0103L132.126 12.16C132.98 10.8873 133.803 9.34503 134.402 7.8477L133.159 7.26375C132.62 9.03059 131.587 10.9322 131.273 11.4113C130.943 11.9055 130.689 12.2648 130.434 12.3247C130.569 12.6541 130.793 13.298 130.853 13.5675C131.078 13.4477 131.422 13.3728 133.024 13.1632C132.455 14.0317 131.946 14.6905 131.692 14.975C131.243 15.529 130.898 15.8883 130.554 15.9782C130.704 16.2926 130.913 16.8916 130.973 17.1461C131.303 16.9514 131.857 16.7867 135.48 16.083C135.465 15.8135 135.465 15.2894 135.525 14.9301L132.785 15.3942ZM130.808 20.2156C132.231 19.8263 134.103 19.3621 135.869 18.898L135.735 17.7151C133.818 18.1643 131.872 18.6285 130.569 18.883L130.808 20.2156ZM138.115 16.9514H140.257V18.7033H138.115V16.9514ZM140.257 12.8188H138.115V11.2017H140.257V12.8188ZM140.257 15.7087H138.115V14.0766H140.257V15.7087ZM144.18 18.7033H141.544V16.9514H143.641V15.7087H141.544V14.0766H143.611V12.8188H141.544V11.2017H143.985V9.94396H140.796L141.993 9.40492C141.814 8.83594 141.365 7.99744 140.93 7.35359L139.762 7.83273C140.152 8.49155 140.571 9.37498 140.721 9.94396H138.445C138.789 9.1953 139.104 8.44663 139.343 7.72792L137.996 7.33861C137.516 9.04556 136.483 11.2317 135.33 12.5942C135.555 12.9236 135.839 13.5226 135.974 13.852C136.259 13.5375 136.528 13.1782 136.798 12.8188V21.0391H138.115V19.991H144.18V18.7033Z" fill="white"/>
<path d="M147.623 10.2285H157.012V12.0702H158.494V8.92578H153.208C152.984 8.41669 152.654 7.75786 152.355 7.21883L150.918 7.56321C151.127 7.98246 151.352 8.49155 151.546 8.92578H146.216V12.0702H147.623V10.2285ZM154.466 14.3611C154.047 15.4092 153.463 16.2627 152.699 16.9814C151.741 16.6071 150.768 16.2477 149.854 15.9482C150.184 15.4691 150.513 14.9301 150.858 14.3611H154.466ZM158.853 14.3611V13.0434H151.606C151.951 12.3696 152.295 11.6659 152.565 11.022L151.037 10.7076C150.738 11.4563 150.364 12.2498 149.929 13.0434H145.872V14.3611H149.151C148.657 15.1846 148.118 15.9333 147.653 16.5472L147.638 16.5621C148.821 16.9365 150.139 17.4306 151.412 17.9397C149.989 18.8231 148.177 19.3621 146.021 19.7065C146.291 20.006 146.71 20.6349 146.86 20.9793C149.3 20.5001 151.322 19.7664 152.909 18.5835C154.751 19.3921 156.428 20.2456 157.491 20.9643L158.629 19.7814C157.506 19.0926 155.859 18.299 154.107 17.5504C154.93 16.6819 155.589 15.6338 156.068 14.3611H158.853Z" fill="white"/>
<path d="M163.211 12.6841C164.723 11.6809 166.16 10.468 167.298 9.10546C168.601 10.5429 169.978 11.6809 171.476 12.6841H163.211ZM171.895 13.9119V12.9686C172.404 13.283 172.943 13.5974 173.497 13.9119C173.692 13.5076 174.096 13.0135 174.441 12.729C172.045 11.5611 169.904 10.1236 168.092 8.08728C168.182 7.95252 168.272 7.83273 168.361 7.69797L167.119 7.11401C165.636 9.44984 162.926 11.5311 160.231 12.699C160.59 12.9985 160.98 13.4926 161.189 13.837C161.728 13.5825 162.282 13.268 162.806 12.9536V13.9119H166.58V15.9932H162.956V17.206H166.58V19.3771H161.024V20.6199H173.692V19.3771H168.047V17.206H171.835V15.9932H168.047V13.9119H171.895Z" fill="white"/>
<path d="M178.663 9.4199C179.007 9.95893 179.352 10.6028 179.487 11.037L180.669 10.6178C180.55 10.2883 180.31 9.83915 180.026 9.4199H182.107V8.41669H178.304C178.453 8.08728 178.573 7.77284 178.678 7.44343L177.315 7.18888C176.926 8.46161 176.252 9.73433 175.429 10.5579C175.773 10.6777 176.357 10.9921 176.627 11.1568C177.046 10.6926 177.48 10.0937 177.839 9.4199H178.663ZM186.12 18.329V19.4969H179.307V18.329H186.12ZM185.356 14.3162V15.3643H179.307V14.3162H185.356ZM179.307 16.3974H186.704V13.268H177.899V21.0242H179.307V20.56H186.12V20.9942H187.497V17.2809H179.307V16.3974ZM181.283 10.5129C181.433 10.7825 181.583 11.0969 181.718 11.3964H176.207V13.9268H177.54V12.4894H187.123V13.9268H188.53V11.3964H183.11C182.975 11.037 182.751 10.6028 182.511 10.2584L181.283 10.5129ZM184.622 8.41669C184.757 8.08728 184.877 7.77284 184.967 7.44343L183.619 7.20385C183.335 8.26696 182.826 9.34503 182.152 10.0188C182.466 10.1536 183.05 10.468 183.29 10.6477C183.604 10.3033 183.889 9.88407 184.158 9.4199H185.012C185.446 9.97391 185.895 10.6327 186.075 11.067L187.228 10.5579C187.078 10.2434 186.778 9.82417 186.464 9.4199H188.875V8.41669H184.622Z" fill="white"/>
<path d="M195.119 16.637C194.61 16.8167 194.07 16.9814 193.561 17.1461V13.7621H194.984V12.4744H193.561V9.49476H195.223V8.20706H190.462V9.49476H192.229V12.4744H190.612V13.7621H192.229V17.5654C191.51 17.7899 190.851 17.9696 190.312 18.1194L190.642 19.5418C191.989 19.1076 193.726 18.5236 195.358 17.9547L195.119 16.637ZM197.14 11.8456H199.101V13.4926H197.14V11.8456ZM197.14 9.12043H199.101V10.7375H197.14V9.12043ZM202.201 10.7375H200.284V9.12043H202.201V10.7375ZM202.201 13.4926H200.284V11.8456H202.201V13.4926ZM200.404 19.2573V17.4755H203.728V16.2178H200.404V14.6755H203.534V7.93754H195.867V14.6755H198.982V16.2178H195.732V17.4755H198.982V19.2573H194.639V20.5301H204.207V19.2573H200.404Z" fill="white"/>
<path d="M218.941 14.5108H212.937V9.59958H218.088V8.23701H206.349V9.59958H211.499V14.5108H205.57V15.9183H211.499V21.0092H212.937V15.9183H218.941V14.5108ZM207.322 10.6028C207.861 11.6509 208.37 13.0434 208.565 13.8969L209.897 13.4477C209.703 12.5793 209.134 11.2466 208.58 10.2135L207.322 10.6028ZM215.572 13.9119C216.126 13.0734 216.785 11.7258 217.324 10.5579L215.842 10.1536C215.512 11.2017 214.883 12.6242 214.374 13.5226L215.572 13.9119Z" fill="white"/>
<path d="M230.575 15.9632V18.868H223.762V15.9632H230.575ZM222.355 21.0092H223.762V20.2156H230.575V20.9793H232.058V14.6306H222.355V21.0092ZM228.569 9.53968C229.213 10.1386 229.901 10.8573 230.545 11.576L223.583 11.8605C224.811 10.6926 226.083 9.24022 227.161 7.72792L225.769 7.12899C224.676 8.94075 222.984 10.7825 222.46 11.2766C221.966 11.7557 221.591 12.0702 221.232 12.1301C221.382 12.5194 221.621 13.2081 221.681 13.4926C222.355 13.2531 223.313 13.2231 231.549 12.7889C231.893 13.2231 232.192 13.6424 232.417 14.0167L233.585 13.1482C232.806 11.9204 231.054 10.0787 229.647 8.80599L228.569 9.53968Z" fill="white"/>
<path d="M21.6526 12.6596C21.4504 12.384 21.1565 12.1452 20.7522 11.9614C20.348 11.7777 19.9254 11.6858 19.4477 11.6858C18.3636 11.6858 17.4633 12.1819 16.7467 13.1557V11.8696H14.7256V20.5788H16.8937V16.6468C16.8937 15.673 16.9488 15.0115 17.0591 14.644C17.1693 14.2765 17.3714 14.0009 17.6654 13.7804C17.9594 13.56 18.3085 13.4497 18.676 13.4497C18.97 13.4497 19.2272 13.5232 19.4293 13.6886C19.6314 13.8356 19.7968 14.056 19.8887 14.3317C19.9805 14.6073 20.0356 15.2136 20.0356 16.1507V20.5972H22.2038V15.1769C22.2038 14.497 22.167 13.9826 22.0752 13.6334C22.0017 13.266 21.8547 12.9352 21.6526 12.6596ZM32.0154 12.2003C31.2621 12.2003 30.5823 12.384 29.9576 12.7331C29.3512 13.0822 28.8735 13.5967 28.5428 14.2765C28.212 14.9564 28.0467 15.6546 28.0467 16.3712C28.0467 17.3082 28.212 18.1167 28.5428 18.7598C28.8735 19.4212 29.3696 19.9173 30.0127 20.2481C30.6558 20.5788 31.3356 20.7625 32.0338 20.7625C33.173 20.7625 34.1284 20.3583 34.8818 19.5315C35.6351 18.723 36.0209 17.6941 36.0209 16.4447C36.0209 15.2136 35.6535 14.203 34.9001 13.3946C34.1468 12.6045 33.1914 12.2003 32.0154 12.2003ZM33.3751 18.3555C33.0076 18.7965 32.5667 18.9986 32.0338 18.9986C31.501 18.9986 31.06 18.7781 30.6925 18.3555C30.325 17.9146 30.1413 17.3082 30.1413 16.4814C30.1413 15.673 30.325 15.0482 30.6925 14.6073C31.06 14.1663 31.501 13.9642 32.0338 13.9642C32.5667 13.9642 33.0076 14.1847 33.3751 14.6073C33.7426 15.0482 33.9079 15.6546 33.9079 16.463C33.9079 17.3082 33.7242 17.9329 33.3751 18.3555ZM26.4114 10.9692C26.54 10.8222 26.7605 10.7487 27.0545 10.7487C27.3485 10.7487 27.6608 10.7855 27.9916 10.8774L28.2672 9.3707C27.7159 9.18696 27.1463 9.09509 26.5584 9.09509C25.9888 9.09509 25.5294 9.20534 25.1436 9.40745C24.7761 9.62794 24.5189 9.90354 24.3719 10.2343C24.2249 10.565 24.1698 11.0978 24.1698 11.7777V12.4024H23.0306V14.1112H24.1698V20.5972H26.2093V14.0928H27.7343V12.384H26.2093V11.7961C26.2093 11.3918 26.2828 11.1162 26.4114 10.9692ZM39.9346 12.4759C39.6774 12.6596 39.3834 13.0087 39.0526 13.56V12.4024H37.1601V20.5972H39.1996V18.0616C39.1996 16.6651 39.2548 15.7464 39.365 15.3055C39.4752 14.8645 39.6406 14.5705 39.8427 14.4052C40.0448 14.2398 40.2837 14.1479 40.5777 14.1479C40.8717 14.1479 41.184 14.2582 41.5331 14.497L42.1578 12.6045C41.7352 12.3289 41.2759 12.2003 40.8165 12.2003C40.4858 12.2003 40.1918 12.2922 39.9346 12.4759ZM48.6255 18.2453C48.2212 18.6312 47.7251 18.8333 47.1555 18.8333C46.3838 18.8333 45.7591 18.5209 45.263 17.9146C44.7853 17.3082 44.5281 16.2793 44.5281 14.8645C44.5281 13.5232 44.7669 12.531 45.263 11.943C45.7591 11.3367 46.4022 11.0427 47.1923 11.0427C47.7619 11.0427 48.258 11.2081 48.6438 11.5572C49.0481 11.8879 49.3053 12.3656 49.4339 12.9536L51.5653 12.4208C51.3264 11.5204 50.9589 10.8222 50.4812 10.3445C49.6728 9.51769 48.6071 9.11347 47.3025 9.11347C45.8142 9.11347 44.6016 9.62794 43.6829 10.6752C42.7642 11.7226 42.3048 13.1741 42.3048 15.0666C42.3048 16.8489 42.7642 18.2453 43.6645 19.2742C44.5832 20.3032 45.7407 20.8176 47.1555 20.8176C48.2947 20.8176 49.2502 20.5237 49.9851 19.9173C50.7201 19.311 51.2529 18.3923 51.5837 17.1612L49.489 16.463C49.3237 17.2531 49.0297 17.8594 48.6255 18.2453ZM58.3452 15.5627C58.3452 16.8121 58.2901 17.6022 58.1799 17.9146C58.0696 18.2269 57.8675 18.5025 57.5735 18.723C57.2796 18.9435 56.9488 19.0538 56.5814 19.0538C56.2506 19.0538 55.9934 18.9803 55.7729 18.8149C55.5524 18.6495 55.4238 18.429 55.3319 18.1534C55.2584 17.8778 55.2033 17.1245 55.2033 15.8934V11.8879H53.0352V17.4001C53.0352 18.2269 53.1271 18.87 53.3292 19.3294C53.5313 19.7887 53.8436 20.1562 54.2846 20.4134C54.7256 20.6707 55.2217 20.7993 55.7729 20.7993C56.3057 20.7993 56.8202 20.6707 57.3163 20.395C57.794 20.1194 58.1983 19.752 58.4922 19.2926V20.5972H60.5134V11.8879H58.3452V15.5627ZM66.5033 12.2003C65.6397 12.2003 64.8864 12.5861 64.2617 13.3395V9.27883H62.2221V20.5972H64.1147V19.3845C64.427 19.8438 64.7945 20.1929 65.2171 20.4318C65.6397 20.6707 66.0807 20.7809 66.5216 20.7809C67.422 20.7809 68.1753 20.395 68.8 19.6417C69.4247 18.8884 69.7371 17.8043 69.7371 16.4079C69.7371 15.0482 69.4247 14.0193 68.8184 13.2843C68.212 12.5678 67.4403 12.2003 66.5033 12.2003ZM67.1831 18.4474C66.8707 18.8516 66.4849 19.0538 66.0255 19.0538C65.4376 19.0538 64.9599 18.7598 64.6108 18.1902C64.3535 17.786 64.2249 17.1612 64.2249 16.2977C64.2249 15.4708 64.3903 14.8645 64.721 14.4603C65.0517 14.056 65.456 13.8539 65.9337 13.8539C66.4298 13.8539 66.834 14.056 67.1647 14.4786C67.4771 14.9012 67.6424 15.5627 67.6424 16.4998C67.6608 17.4001 67.5138 18.0432 67.1831 18.4474ZM75.0104 18.87C74.7899 19.0538 74.5143 19.1456 74.2019 19.1456C73.7242 19.1456 73.3384 18.9619 73.026 18.6128C72.7136 18.2637 72.5483 17.7492 72.5299 17.1061H77.6379C77.6746 15.4525 77.3439 14.203 76.6824 13.3946C76.021 12.5861 75.1206 12.1819 73.9631 12.1819C72.9341 12.1819 72.0889 12.5678 71.4275 13.3395C70.766 14.1112 70.4169 15.1769 70.4169 16.5365C70.4169 17.6757 70.6741 18.6128 71.1886 19.3661C71.8317 20.3032 72.8239 20.7625 74.1652 20.7625C75.0104 20.7625 75.727 20.5604 76.2782 20.1378C76.8478 19.7152 77.252 19.1272 77.5092 18.3188L75.4697 17.9513C75.3962 18.3923 75.2309 18.6863 75.0104 18.87ZM73.0076 14.3868C73.3016 14.0377 73.6691 13.8723 74.1101 13.8723C74.5327 13.8723 74.8818 14.0377 75.1758 14.3684C75.4697 14.6991 75.6167 15.1769 75.6351 15.8016H72.585C72.5667 15.1952 72.7136 14.7359 73.0076 14.3868Z" fill="white"/>
<path d="M16.3791 9.02155C15.9749 8.04773 13.8068 8.01098 11.1977 8.52545V5.86123C11.1977 5.73262 10.7751 5.64075 10.2606 5.64075H6.21836C5.70389 5.64075 5.28129 5.73262 5.28129 5.86123V10.3628C2.26797 11.6674 -0.157382 13.3394 0.00798276 14.8093C0.173348 16.2057 2.45171 16.2609 5.28129 15.6362V19.6784C5.28129 20.2113 5.70389 20.6522 6.21836 20.6522H10.2423C10.7567 20.6522 11.1793 20.2113 11.1793 19.6784V13.6518C14.4499 12.1635 17.0038 10.3077 16.3791 9.02155ZM11.1793 13.0087V12.3472V12.3288V9.37065C9.80128 9.49927 5.29967 11.4102 5.29967 11.4102V12.0349C5.29967 12.1451 5.29967 12.237 5.29967 12.3472V15.0298C2.80082 15.581 0.945052 15.5259 0.724565 14.7726C0.412209 13.6885 3.49903 11.6123 7.61478 10.124C11.7489 8.63569 15.3502 8.28659 15.6626 9.37065C15.9198 10.1975 14.0273 11.6858 11.1793 13.0087Z" fill="white"/>
<path d="M8.18438 3.96876C9.20929 3.96876 10.0401 3.08033 10.0401 1.98438C10.0401 0.888438 9.20929 0 8.18438 0C7.15947 0 6.32861 0.888438 6.32861 1.98438C6.32861 3.08033 7.15947 3.96876 8.18438 3.96876Z" fill="white"/>
<path d="M78.869 7.55166C78.2443 7.55166 77.7666 7.07393 77.7666 6.50434C77.7666 5.93475 78.2443 5.45703 78.869 5.45703C79.4938 5.45703 79.9715 5.93475 79.9715 6.50434C79.9715 7.07393 79.4938 7.55166 78.869 7.55166ZM78.869 7.29442C79.31 7.29442 79.6775 6.92694 79.6775 6.50434C79.6775 6.08174 79.3284 5.71427 78.869 5.71427C78.4097 5.71427 78.0606 6.08174 78.0606 6.50434C78.0606 6.92694 78.4281 7.29442 78.869 7.29442ZM79.0711 6.96369L78.869 6.65134H78.7404V6.96369H78.4648V6.06337H78.9242C79.1814 6.06337 79.31 6.17361 79.31 6.35735C79.31 6.54109 79.1263 6.59621 79.1263 6.59621V6.61459L79.3651 6.98207H79.0711V6.96369ZM78.7404 6.26548V6.43085H78.9242C78.9793 6.43085 79.016 6.3941 79.016 6.33898C79.016 6.28386 78.9793 6.24711 78.9242 6.24711H78.7404V6.26548Z" fill="white"/>
</svg>
