<svg width="12" height="12" viewBox="0 0 12 12" fill="none" xmlns="http://www.w3.org/2000/svg">
<path d="M5.99913 11.9941C4.40947 11.9952 2.88446 11.3649 1.75946 10.2417C0.634466 9.11861 0.00158773 7.59466 0 6.00499C2.37088e-08 4.41392 0.63205 2.88802 1.75711 1.76296C2.88216 0.637909 4.40806 0.00585937 5.99913 0.00585938C7.5902 0.00585937 9.1161 0.637909 10.2412 1.76296C11.3662 2.88802 11.9983 4.41392 11.9983 6.00499C11.9983 6.79234 11.843 7.57196 11.5414 8.29925C11.2398 9.02654 10.7978 9.68722 10.2406 10.2435C9.68335 10.7998 9.02194 11.2407 8.29415 11.5411C7.56636 11.8415 6.78648 11.9955 5.99913 11.9941ZM8.85396 5.87123V5.82831L4.70148 3.01641V3.03637C4.68341 3.02516 4.66282 3.01864 4.64159 3.0174C4.62338 3.017 4.60528 3.02025 4.58834 3.02694C4.5714 3.03363 4.55597 3.04364 4.54295 3.05638C4.52993 3.06912 4.51959 3.08433 4.51253 3.10112C4.50547 3.11791 4.50184 3.13594 4.50184 3.15416V8.9267H4.52181C4.53366 8.94788 4.55109 8.96541 4.57221 8.97738C4.59333 8.98935 4.61733 8.99529 4.64159 8.99458C4.66425 8.99393 4.68633 8.98731 4.70561 8.97539C4.72489 8.96347 4.74068 8.94668 4.75139 8.9267H4.8013L8.85396 6.18467V6.14174C8.88783 6.13883 8.91937 6.12332 8.94235 6.09828C8.96533 6.07323 8.97808 6.04048 8.97808 6.00649C8.97808 5.9725 8.96533 5.93974 8.94235 5.9147C8.91937 5.88966 8.88783 5.87415 8.85396 5.87123Z" fill="#98DF79"/>
</svg>
