<svg width="12" height="12" viewBox="0 0 12 12" fill="none" xmlns="http://www.w3.org/2000/svg">
<path d="M6 0C2.66667 0 0 2.66667 0 6C0 9.33333 2.66667 12 6 12C9.33333 12 12 9.33333 12 6C12 2.66667 9.33333 0 6 0ZM2.66667 6.86667C2.2 6.86667 1.8 6.46667 1.8 6C1.8 5.53333 2.2 5.13333 2.66667 5.13333C3.13333 5.13333 3.53333 5.53333 3.53333 6C3.53333 6.46667 3.13333 6.86667 2.66667 6.86667ZM6 6.86667C5.53333 6.86667 5.13333 6.46667 5.13333 6C5.13333 5.53333 5.53333 5.13333 6 5.13333C6.46667 5.13333 6.86667 5.53333 6.86667 6C6.86667 6.46667 6.46667 6.86667 6 6.86667ZM9.33333 6.86667C8.86667 6.86667 8.46667 6.46667 8.46667 6C8.46667 5.53333 8.86667 5.13333 9.33333 5.13333C9.8 5.13333 10.2 5.53333 10.2 6C10.2 6.46667 9.8 6.86667 9.33333 6.86667Z" fill="#409EFF"/>
</svg>
