<svg width="12" height="12" viewBox="0 0 12 12" fill="none" xmlns="http://www.w3.org/2000/svg">
<path d="M6 12C4.4087 12 2.88258 11.3679 1.75736 10.2426C0.632141 9.11742 0 7.5913 0 6C0 4.4087 0.632141 2.88258 1.75736 1.75736C2.88258 0.632141 4.4087 0 6 0C7.5913 0 9.11742 0.632141 10.2426 1.75736C11.3679 2.88258 12 4.4087 12 6C12 7.5913 11.3679 9.11742 10.2426 10.2426C9.11742 11.3679 7.5913 12 6 12ZM2.37 5.313C2.32134 5.3615 2.28272 5.41912 2.25638 5.48257C2.23003 5.54602 2.21647 5.61405 2.21647 5.68275C2.21647 5.75145 2.23003 5.81948 2.25638 5.88293C2.28272 5.94638 2.32134 6.004 2.37 6.0525L4.596 8.2725C4.73662 8.41287 4.92719 8.49171 5.12587 8.49171C5.32456 8.49171 5.51513 8.41287 5.65575 8.2725L9.62925 4.30875C9.6778 4.26027 9.71632 4.20269 9.7426 4.13931C9.76888 4.07593 9.78241 4.00799 9.78241 3.93937C9.78241 3.87076 9.76888 3.80282 9.7426 3.73944C9.71632 3.67606 9.6778 3.61848 9.62925 3.57C9.53085 3.47199 9.39763 3.41696 9.25875 3.41696C9.11987 3.41696 8.98665 3.47199 8.88825 3.57L5.12625 7.3215L3.11175 5.313C3.01335 5.21499 2.88013 5.15996 2.74125 5.15996C2.60237 5.15996 2.46915 5.21499 2.37075 5.313H2.37Z" fill="#67C23A"/>
</svg>
