<svg width="24" height="24" viewBox="0 0 24 24" fill="none" xmlns="http://www.w3.org/2000/svg">
<path d="M11.958 5.01052L9.57199 5.82554L8.03203 4.9205L11.9885 3.5L15.976 4.95706L14.4655 5.82556L11.9585 5.01055L11.958 5.01052ZM11.988 9.73154L14.3745 8.91554L15.915 9.82252L11.958 11.241L7.97198 9.78603L9.4815 8.91554L11.988 9.73154ZM8.35301 8.51504L6.73301 9.30003L1.53797 7.36653L6.82348 5.41255L8.36449 6.32302L5.49548 7.36653L8.35247 8.51504H8.35301ZM18.54 7.36653L15.671 6.32302L17.211 5.41252L22.4975 7.36653L17.301 9.30003L15.6815 8.51504L18.54 7.36653ZM11.988 14.2675L1.5225 10.1635L1.5 8.08353L11.988 12.1835L22.478 8.12902V10.225L11.988 14.2675ZM12.012 15.0565L22.5 11.001V13.0985L12.012 17.1395L1.54598 13.0365L1.5225 10.9565L12.012 15.0565ZM1.52201 13.853L12.012 17.953L22.5 13.8985V15.9955L12.012 20.038L1.54598 15.934L1.5225 13.8535L1.52201 13.853Z" fill="#9A9DAE"/>
</svg>
