<svg width="24" height="27" viewBox="0 0 24 27" fill="none" xmlns="http://www.w3.org/2000/svg">
<path d="M4 9.42089L10.95 5.51962V3.5957L2.5 8.35204V19.1474L10.95 23.9037V21.9798L4 18.0785V9.42089ZM13.05 3.5957V5.51962L20 9.42089V18.0785L13.05 21.9798V23.9037L21.5 19.1474V8.35204L13.05 3.5957Z" fill="#9A9DAE"/>
<path d="M12 6.74902L5.55 10.1693L12 13.1087L18.45 10.1693L12 6.74902ZM18.75 11.0778L12.55 14.124V16.8496L18.75 13.6965V11.0778ZM18.75 14.8722L12.55 17.9184V20.4837L18.75 17.2771V14.8722ZM11.45 14.124L5.25 11.0778V13.6965L11.45 16.7962V14.124ZM9.70001 15.2998C9.34999 15.2463 9.04999 14.8722 9.04999 14.4982C9.04999 14.1241 9.34999 13.8569 9.70001 13.9637C10.05 14.0706 10.35 14.3913 10.35 14.7654C10.35 15.1394 10.05 15.4067 9.70001 15.2998ZM5.25 14.8722V17.2771L11.45 20.4837V17.9184L5.25 14.8722ZM9.70001 19.0407C9.34999 18.9873 9.04999 18.6132 9.04999 18.2391C9.04999 17.865 9.34999 17.5978 9.70001 17.7047C10.05 17.8116 10.35 18.1322 10.35 18.5063C10.35 18.8804 10.05 19.1476 9.70001 19.0407Z" fill="#9A9DAE"/>
</svg>
