<svg width="23" height="22" viewBox="0 0 23 22" fill="none" xmlns="http://www.w3.org/2000/svg">
<path d="M3.56418 11.0594C3.99051 7.66262 6.68746 4.96707 10.0829 4.54051V2.64207C5.63934 3.08293 2.10637 6.61566 1.66504 11.0594H3.56418ZM11.9639 4.54051C15.3605 4.96707 18.0563 7.66262 18.4826 11.0594H20.3811C19.9404 6.61566 16.4075 3.08293 11.9639 2.6416V4.54051ZM10.0829 19.4592C6.68746 19.0326 3.99051 16.3361 3.56418 12.9405H1.66574C2.10707 17.384 5.64004 20.9168 10.0836 21.3583L10.0829 19.4592ZM18.4826 12.9405C18.0563 16.3361 15.3605 19.0326 11.9639 19.4592V21.3576C16.4075 20.9161 19.9404 17.3833 20.3818 12.9398L18.4826 12.9405Z" fill="#949DA6"/>
<path d="M1.57713 2.6339L1.65734 2.55369C2.07398 2.13705 2.49062 2.13705 2.90726 2.55369L4.94937 4.59579C5.36601 5.01243 5.36601 5.42907 4.94937 5.84572L4.86915 5.92593C4.45251 6.34257 4.03587 6.34257 3.61923 5.92593L1.57713 3.88383C1.16049 3.46718 1.16049 3.05054 1.57713 2.6339Z" fill="#949DA6"/>
<path d="M1.65832 21.4455L1.57811 21.3652C1.16146 20.9486 1.16146 20.532 1.57811 20.1153L3.62021 18.0732C4.03685 17.6566 4.45349 17.6566 4.87013 18.0732L4.95034 18.1534C5.36698 18.5701 5.36698 18.9867 4.95034 19.4034L2.90824 21.4455C2.4916 21.8621 2.07496 21.8621 1.65832 21.4455Z" fill="#949DA6"/>
<path d="M20.4689 21.3652L20.3887 21.4455C19.972 21.8621 19.5554 21.8621 19.1388 21.4455L17.0967 19.4034C16.68 18.9867 16.68 18.5701 17.0967 18.1534L17.1769 18.0732C17.5935 17.6566 18.0102 17.6566 18.4268 18.0732L20.4689 20.1153C20.8855 20.532 20.8855 20.9486 20.4689 21.3652Z" fill="#949DA6"/>
<path d="M20.3887 2.55369L20.4689 2.6339C20.8855 3.05054 20.8855 3.46719 20.4689 3.88383L18.4268 5.92593C18.0102 6.34257 17.5935 6.34257 17.1769 5.92593L17.0967 5.84572C16.68 5.42907 16.68 5.01243 17.0967 4.59579L19.1388 2.55369C19.5554 2.13705 19.972 2.13705 20.3887 2.55369Z" fill="#949DA6"/>
<path d="M7.26074 11.9997C7.26074 12.9976 7.65714 13.9546 8.36273 14.6602C9.06832 15.3658 10.0253 15.7621 11.0232 15.7621C12.021 15.7621 12.978 15.3658 13.6836 14.6602C14.3892 13.9546 14.7856 12.9976 14.7856 11.9997C14.7856 11.0019 14.3892 10.0449 13.6836 9.33929C12.978 8.6337 12.021 8.2373 11.0232 8.2373C10.0253 8.2373 9.06832 8.6337 8.36273 9.33929C7.65714 10.0449 7.26074 11.0019 7.26074 11.9997Z" fill="#949DA6"/>
</svg>
