<svg width="24" height="24" viewBox="0 0 24 24" fill="none" xmlns="http://www.w3.org/2000/svg">
<g clip-path="url(#clip0)">
<path d="M13.221 13.2969C13.1981 13.1271 13.2118 12.9545 13.2611 12.7904C13.3104 12.6264 13.3942 12.4749 13.5069 12.3459C13.6196 12.2169 13.7586 12.1136 13.9145 12.0428C14.0705 11.9719 14.2398 11.9353 14.4111 11.9353C14.5823 11.9353 14.7516 11.9719 14.9076 12.0428C15.0635 12.1136 15.2025 12.2169 15.3152 12.3459C15.4279 12.4749 15.5117 12.6264 15.561 12.7904C15.6103 12.9545 15.624 13.1271 15.6011 13.2969H22.8156C22.9733 13.2969 23.1294 13.3279 23.2751 13.3883C23.4208 13.4486 23.5532 13.5371 23.6647 13.6486C23.7762 13.7601 23.8647 13.8925 23.925 14.0382C23.9854 14.1838 24.0164 14.34 24.0164 14.4977V21.6066C24.0164 21.7642 23.9854 21.9204 23.925 22.0661C23.8647 22.2118 23.7762 22.3442 23.6647 22.4557C23.5532 22.5672 23.4208 22.6556 23.2751 22.716C23.1294 22.7763 22.9733 22.8074 22.8156 22.8074H1.20082C0.882343 22.8074 0.57691 22.6809 0.351712 22.4557C0.126515 22.2305 0 21.925 0 21.6066L0 14.4977C0 14.1792 0.126515 13.8738 0.351712 13.6486C0.57691 13.4234 0.882343 13.2969 1.20082 13.2969H13.221ZM2.40164 16.736V19.1377H4.80328V16.736H2.40164ZM7.20493 16.736V19.1377H9.60657V16.736H7.20493ZM24.0164 11.9327H21.6148C21.6148 7.43326 18.0123 4.72781 14.4099 4.72781C10.8074 4.72781 7.20493 7.43326 7.20493 11.9327H4.80328C4.80328 6.04872 9.60657 2.32617 14.4099 2.32617C19.2131 2.32617 24.0164 6.04872 24.0164 11.9327ZM19.2131 11.9327H16.8115C16.8115 10.4005 15.6107 9.5311 14.4099 9.5311C13.209 9.5311 12.0082 10.4005 12.0082 11.9327H9.60657C9.60657 9.01474 12.0082 7.12946 14.4099 7.12946C16.8115 7.12946 19.2131 9.01474 19.2131 11.9327Z" fill="#9A9DAE"/>
</g>
<defs>
<clipPath id="clip0">
<rect width="24" height="24" fill="white"/>
</clipPath>
</defs>
</svg>
