<svg width="20" height="19" viewBox="0 0 20 19" fill="none" xmlns="http://www.w3.org/2000/svg">
<path d="M18.2655 18.1765H2.23299C1.2755 18.1765 0.5 17.4835 0.5 16.524V14.6015C0.5 13.644 1.2755 12.9505 2.23299 12.9505H18.266C19.2235 12.9505 20 13.644 20 14.6015V16.524C19.9995 17.4835 19.2235 18.1765 18.2655 18.1765V18.1765ZM16.329 14.3095C15.9964 14.3095 15.6774 14.4415 15.4421 14.6766C15.2068 14.9116 15.0744 15.2304 15.074 15.563C15.0743 15.8958 15.2066 16.2148 15.4419 16.4501C15.6772 16.6854 15.9962 16.8177 16.329 16.818C16.6555 16.8089 16.9655 16.6727 17.1932 16.4385C17.4209 16.2044 17.5483 15.8906 17.5483 15.564C17.5483 15.2374 17.4209 14.9236 17.1932 14.6895C16.9655 14.4553 16.6555 14.3191 16.329 14.31V14.3095ZM18.2655 11.7005H2.23299C1.2755 11.7 0.5 11.0075 0.5 10.0495V8.12599C0.5 7.1685 1.2755 6.47501 2.23299 6.47501H18.266C19.2235 6.47501 20 7.16749 20 8.12599V10.0495C19.9995 11.0075 19.2235 11.7005 18.2655 11.7005ZM16.329 7.83349C15.996 7.83389 15.6768 7.96645 15.4415 8.20205C15.2062 8.43764 15.074 8.75702 15.074 9.09C15.0747 9.42264 15.2071 9.74147 15.4423 9.97669C15.6775 10.2119 15.9963 10.3443 16.329 10.345C16.4944 10.3457 16.6583 10.3138 16.8113 10.251C16.9643 10.1882 17.1034 10.0958 17.2206 9.97906C17.3378 9.86236 17.4308 9.72365 17.4943 9.57091C17.5578 9.41817 17.5904 9.2544 17.5904 9.089C17.5904 8.9236 17.5578 8.75983 17.4943 8.60709C17.4308 8.45435 17.3378 8.31565 17.2206 8.19895C17.1034 8.08225 16.9643 7.98985 16.8113 7.92705C16.6583 7.86425 16.4944 7.83229 16.329 7.833V7.83349ZM18.2655 5.22949H2.23299C1.2755 5.22949 0.5 4.53349 0.5 3.57649V1.65499C0.5 0.696 1.2755 0 2.23299 0H18.266C19.2235 0 20 0.696 20 1.65551V3.57701C19.9995 4.53349 19.2235 5.22949 18.2655 5.22949ZM16.329 1.36099C15.9962 1.36127 15.6772 1.49358 15.4419 1.72888C15.2066 1.96418 15.0743 2.28324 15.074 2.616C15.0754 2.94791 15.2083 3.26573 15.4435 3.49992C15.6787 3.7341 15.9971 3.86558 16.329 3.86558C16.6609 3.86558 16.9793 3.7341 17.2145 3.49992C17.4497 3.26573 17.5826 2.94791 17.584 2.616C17.584 2.28315 17.4518 1.96394 17.2164 1.72858C16.9811 1.49322 16.6618 1.36099 16.329 1.36099Z" fill="#9A9DAE"/>
</svg>
