<svg width="24" height="27" viewBox="0 0 24 27" fill="none" xmlns="http://www.w3.org/2000/svg">
<g clip-path="url(#clip0)">
<path d="M22 10.9001H16V8.72007C16 8.43098 15.8946 8.15372 15.7071 7.94931C15.5196 7.74489 15.2652 7.63004 15 7.63004C14.7348 7.63004 14.4804 7.74489 14.2929 7.94931C14.1054 8.15372 14 8.43098 14 8.72007V10.9001H2C1.73478 10.9001 1.48043 11.015 1.29289 11.2194C1.10536 11.4238 1 11.7011 1 11.9901V23.9804C1 24.2695 1.10536 24.5468 1.29289 24.7512C1.48043 24.9556 1.73478 25.0705 2 25.0705H22C22.2652 25.0705 22.5196 24.9556 22.7071 24.7512C22.8946 24.5468 23 24.2695 23 23.9804V11.9901C23 11.7011 22.8946 11.4238 22.7071 11.2194C22.5196 11.015 22.2652 10.9001 22 10.9001ZM21 22.8904H3V13.0802H21V22.8904ZM11.5 5.38459C11.3805 5.45273 11.2749 5.54652 11.1895 5.66031C11.1041 5.77411 11.0407 5.90555 11.0031 6.04674C10.9655 6.18793 10.9546 6.33594 10.9708 6.48188C10.9871 6.62782 11.0303 6.76866 11.0978 6.89594C11.1653 7.02322 11.2557 7.1343 11.3636 7.2225C11.4715 7.3107 11.5946 7.3742 11.7256 7.40917C11.8566 7.44415 11.9927 7.44988 12.1258 7.42602C12.2589 7.40216 12.3862 7.3492 12.5 7.27033C13.262 6.7983 14.1235 6.55012 15 6.55012C15.8765 6.55012 16.738 6.7983 17.5 7.27033C17.6141 7.34241 17.7402 7.38915 17.871 7.40788C18.0018 7.42661 18.1347 7.41696 18.262 7.37947C18.3893 7.34198 18.5086 7.27741 18.613 7.18946C18.7173 7.10151 18.8047 6.99193 18.87 6.86702C19.0004 6.61674 19.0346 6.3204 18.9653 6.04268C18.896 5.76495 18.7287 5.52838 18.5 5.38459C17.4326 4.72539 16.2268 4.37891 15 4.37891C13.7732 4.37891 12.5674 4.72539 11.5 5.38459Z" fill="#9A9DAE"/>
<path d="M10.5598 4.74154C11.8787 3.79767 13.422 3.29478 14.9998 3.29478C16.5776 3.29478 18.1209 3.79767 19.4398 4.74154C19.6053 4.8628 19.8004 4.92733 19.9998 4.92684C20.2172 4.93103 20.4299 4.85789 20.6057 4.7185C20.7815 4.57911 20.9108 4.38106 20.9741 4.15436C21.0374 3.92766 21.0312 3.68465 20.9565 3.46213C20.8817 3.23961 20.7425 3.04971 20.5598 2.92119C18.9055 1.7471 16.9739 1.12207 14.9998 1.12207C13.0257 1.12207 11.0941 1.7471 9.43981 2.92119C9.33068 3.00124 9.23711 3.10396 9.16446 3.22347C9.09181 3.34299 9.0415 3.47696 9.01642 3.6177C8.99134 3.75845 8.99198 3.9032 9.0183 4.04367C9.04462 4.18415 9.0961 4.31758 9.16981 4.43633C9.24246 4.55615 9.33611 4.65915 9.4454 4.73939C9.55468 4.81963 9.67743 4.87553 9.8066 4.9039C9.93577 4.93226 10.0688 4.93252 10.1981 4.90465C10.3273 4.87679 10.4503 4.82136 10.5598 4.74154ZM5.59981 16.4375C5.41893 16.524 5.2656 16.6669 5.15914 16.8483C5.05269 17.0296 4.99789 17.2412 5.00165 17.4565C5.0054 17.6717 5.06755 17.881 5.18026 18.0578C5.29297 18.2346 5.45118 18.371 5.63494 18.4499C5.8187 18.5288 6.01979 18.5467 6.21284 18.5012C6.40588 18.4557 6.58224 18.3489 6.71967 18.1942C6.85711 18.0396 6.94945 17.8441 6.98507 17.6323C7.02069 17.4206 6.99798 17.202 6.91981 17.0043C6.86762 16.8723 6.79199 16.7529 6.69729 16.6529C6.60259 16.5529 6.49067 16.4743 6.36799 16.4216C6.2453 16.3689 6.11427 16.3432 5.98244 16.3459C5.8506 16.3487 5.72056 16.3798 5.59981 16.4375ZM9.59981 16.4375C9.41893 16.524 9.2656 16.6669 9.15914 16.8483C9.05269 17.0296 8.99789 17.2412 9.00165 17.4565C9.0054 17.6717 9.06755 17.881 9.18026 18.0578C9.29296 18.2346 9.45118 18.371 9.63494 18.4499C9.8187 18.5288 10.0198 18.5467 10.2128 18.5012C10.4059 18.4557 10.5822 18.3489 10.7197 18.1942C10.8571 18.0396 10.9495 17.8441 10.9851 17.6323C11.0207 17.4206 10.998 17.202 10.9198 17.0043C10.8676 16.8723 10.792 16.7529 10.6973 16.6529C10.6026 16.5529 10.4907 16.4743 10.368 16.4216C10.2453 16.3689 10.1143 16.3432 9.98244 16.3459C9.8506 16.3487 9.72056 16.3798 9.59981 16.4375Z" fill="#9A9DAE"/>
</g>
<defs>
<clipPath id="clip0">
<rect width="24" height="26.1606" fill="white"/>
</clipPath>
</defs>
</svg>
