<svg width="138" height="129" viewBox="0 0 138 129" fill="none" xmlns="http://www.w3.org/2000/svg">
<circle cx="64.5" cy="64.5" r="40.5" fill="url(#paint0_linear)" stroke="#8CB8E1" stroke-width="10"/>
<circle cx="64.5" cy="64.5" r="45" stroke="url(#paint1_linear)"/>
<circle opacity="0.1" cx="64.5" cy="64.5" r="64" stroke="#8CB8E1"/>
<ellipse cx="64.5" cy="91.5" rx="22.5" ry="1.5" fill="#6DADCD"/>
<path d="M56.5 85.5V78H71.5V85C71.5 87 74.8333 89.1667 76.5 90V91.5H51V90C51 90 55.5 87 56.5 85.5Z" fill="url(#paint2_linear)"/>
<rect x="30" y="37" width="67" height="45" fill="#F3F9FB"/>
<rect x="33" y="40" width="61" height="37" fill="url(#paint3_linear)"/>
<circle cx="63" cy="79" r="1" fill="#52A6D9"/>
<rect x="4" y="60" width="122" height="4" fill="url(#paint4_linear)"/>
<rect x="52" y="90" width="25" height="1" fill="white"/>
<defs>
<linearGradient id="paint0_linear" x1="64.5" y1="19" x2="64.5" y2="110" gradientUnits="userSpaceOnUse">
<stop stop-color="#3463AB"/>
<stop offset="1" stop-color="#BAEDFF"/>
</linearGradient>
<linearGradient id="paint1_linear" x1="64.5" y1="19" x2="64.5" y2="110" gradientUnits="userSpaceOnUse">
<stop stop-color="#DDEFFF"/>
<stop offset="1" stop-color="#5E9ED9" stop-opacity="0"/>
</linearGradient>
<linearGradient id="paint2_linear" x1="63.75" y1="78" x2="63.75" y2="91.5" gradientUnits="userSpaceOnUse">
<stop stop-color="#89B1CE"/>
<stop offset="1" stop-color="#E6F1FF"/>
</linearGradient>
<linearGradient id="paint3_linear" x1="63.5" y1="40" x2="63.5" y2="77" gradientUnits="userSpaceOnUse">
<stop stop-color="#B6DDF4"/>
<stop offset="1" stop-color="#72BBE8"/>
</linearGradient>
<linearGradient id="paint4_linear" x1="65" y1="60" x2="65" y2="64" gradientUnits="userSpaceOnUse">
<stop stop-color="#ED4D4D"/>
<stop offset="1" stop-color="#ED4D4D" stop-opacity="0"/>
</linearGradient>
</defs>
</svg>
