<svg width="34" height="22" viewBox="0 0 34 22" fill="none" xmlns="http://www.w3.org/2000/svg">
<rect width="34" height="22" rx="2" fill="url(#paint0_linear)"/>
<path d="M14.948 12.772H7.124V17.188H8V16.552H14.072V17.188H14.948V12.772ZM8 15.736V13.6H14.072V15.736H8ZM7.844 8.716H10.712V10.66H5.576V11.512H16.424V10.66H11.588V8.716H15.512V7.888H11.588V6.184H10.712V7.888H8.36C8.6 7.444 8.792 6.976 8.948 6.472L8.084 6.376C7.7 7.636 6.956 8.704 5.876 9.568L6.392 10.252C6.956 9.784 7.436 9.268 7.844 8.716ZM17.876 6.7V7.336H19.328V7.768L18.728 7.672C18.524 8.44 18.14 9.052 17.576 9.508L18.044 10.084C18.476 9.724 18.824 9.28 19.088 8.752H22.34C22.328 9.544 22.292 10.06 22.232 10.276C22.16 10.492 21.992 10.6 21.728 10.624H21.428V9.22H18.872V10.864H21.296L21.392 11.188H21.884C22.076 11.176 22.244 11.14 22.4 11.092C22.496 11.236 22.604 11.416 22.7 11.62H17.828V12.256H28.184V11.62H23.516C23.396 11.332 23.288 11.08 23.168 10.852L22.7 10.924C22.76 10.876 22.82 10.804 22.868 10.72C23.036 10.408 23.132 9.556 23.132 8.164H19.328C19.364 8.068 19.4 7.972 19.424 7.876H20.048V7.336H21.356V7.876H22.076V7.336H23.516V6.7H22.076V6.16H21.356V6.7H20.048V6.16H19.328V6.7H17.876ZM20.768 10.384H19.52V9.688H20.768V10.384ZM24.368 8.572C24.56 8.98 24.836 9.364 25.22 9.724C24.728 10.06 24.116 10.3 23.372 10.468L23.696 11.164C24.524 10.972 25.232 10.648 25.82 10.216C26.372 10.6 27.08 10.936 27.92 11.212L28.316 10.516C27.572 10.288 26.924 10.012 26.384 9.688C26.864 9.148 27.2 8.464 27.38 7.624H28.052V6.904H25.196C25.268 6.688 25.328 6.472 25.388 6.232L24.596 6.088C24.344 7.216 23.864 8.116 23.156 8.788L23.636 9.388C23.9 9.148 24.152 8.872 24.368 8.572ZM24.908 7.624H26.624C26.48 8.248 26.192 8.8 25.772 9.256C25.292 8.848 24.968 8.38 24.8 7.852C24.824 7.78 24.86 7.708 24.908 7.624ZM19.292 12.82V13.348H26.816V12.82H19.292ZM19.292 13.9V14.428H26.816V13.9H19.292ZM27.2 15.016H18.932V17.296H19.772V16.936H26.36V17.296H27.2V15.016ZM19.772 16.348V15.592H26.36V16.348H19.772Z" fill="white"/>
<defs>
<linearGradient id="paint0_linear" x1="36.5698" y1="-3.24136e-06" x2="-6.43565" y2="6.1866" gradientUnits="userSpaceOnUse">
<stop stop-color="#F89030"/>
<stop offset="1" stop-color="#FDD546"/>
</linearGradient>
</defs>
</svg>
