<svg width="34" height="22" viewBox="0 0 34 22" fill="none" xmlns="http://www.w3.org/2000/svg">
<rect width="34" height="22" rx="2" fill="url(#paint0_linear)"/>
<path d="M15.968 7.336H11.48C11.3 6.88 11.108 6.484 10.916 6.124L10.04 6.268C10.244 6.592 10.436 6.952 10.616 7.336H5.996V9.592H6.872V8.176H15.092V9.544H15.968V7.336ZM5.708 10.12V10.948H9.356C8.54 12.364 7.232 13.504 5.42 14.392L5.888 15.16C6.668 14.74 7.364 14.284 7.976 13.78V17.2H8.816V16.6H14.276V17.2H15.104V12.64H9.14C9.596 12.112 9.968 11.548 10.28 10.948H16.28V10.12H5.708ZM14.276 15.808H8.816V13.444H14.276V15.808ZM17.696 8.548V9.376H19.448C19.052 10.876 18.392 12.208 17.468 13.372L17.84 14.308C18.512 13.324 19.064 12.244 19.484 11.044V17.14H20.348V10.816C20.684 11.284 21.08 11.896 21.536 12.652L22.04 11.908C21.464 11.2 20.9 10.564 20.348 9.988V9.376H21.836V8.548H20.348V6.208H19.484V8.548H17.696ZM21.272 16.612L21.98 17.248C22.544 16.384 22.928 15.496 23.132 14.56C23.348 13.672 23.456 12.568 23.456 11.248V7.516H25.592V15.868C25.592 16.564 25.976 16.912 26.744 16.912H27.236C27.62 16.912 27.908 16.84 28.1 16.708C28.292 16.54 28.412 16.252 28.46 15.82C28.508 15.364 28.544 14.716 28.544 13.852L27.752 13.6C27.752 14.752 27.716 15.436 27.668 15.676C27.644 15.844 27.584 15.952 27.488 16.024C27.404 16.072 27.296 16.096 27.152 16.096H26.744C26.552 16.096 26.468 15.988 26.468 15.784V6.7H22.592V11.248C22.592 12.484 22.508 13.468 22.352 14.2C22.148 15.052 21.788 15.856 21.272 16.612Z" fill="white"/>
<defs>
<linearGradient id="paint0_linear" x1="36.5698" y1="-3.24136e-06" x2="-6.43565" y2="6.1866" gradientUnits="userSpaceOnUse">
<stop stop-color="#F83C30"/>
<stop offset="1" stop-color="#FD7D46"/>
</linearGradient>
</defs>
</svg>
