<svg width="34" height="22" viewBox="0 0 34 22" fill="none" xmlns="http://www.w3.org/2000/svg">
<rect width="34" height="22" rx="2" fill="url(#paint0_linear)"/>
<path d="M7.976 6.448C7.436 8.056 6.632 9.34 5.552 10.3L6.284 10.936C6.8 10.456 7.268 9.856 7.7 9.148H10.568V9.928C10.544 10.504 10.496 11.044 10.4 11.548H5.756V12.376H10.22C10.04 12.988 9.788 13.54 9.476 14.02C8.732 15.016 7.412 15.82 5.54 16.444L6.008 17.176C7.904 16.564 9.26 15.712 10.088 14.62C10.508 14.044 10.832 13.36 11.06 12.568C11.708 14.512 13.34 16.036 15.956 17.164L16.436 16.408C13.928 15.448 12.38 14.104 11.792 12.376H16.256V11.548H11.3C11.384 11.044 11.432 10.504 11.456 9.928V9.148H15.476V8.308H11.456V6.208H10.568V8.308H8.144C8.372 7.828 8.588 7.312 8.78 6.76L7.976 6.448ZM24.572 8.884H26.744C26.696 10.648 26.348 12.172 25.724 13.444C25.052 12.268 24.62 10.876 24.44 9.268C24.488 9.148 24.524 9.016 24.572 8.884ZM23.9 10.552C24.164 11.956 24.62 13.192 25.268 14.272C24.692 15.136 23.948 15.868 23.036 16.444L23.504 17.2C24.404 16.6 25.16 15.88 25.76 15.016C26.384 15.868 27.152 16.6 28.064 17.212L28.532 16.396C27.62 15.796 26.864 15.076 26.24 14.236C27.056 12.772 27.488 10.996 27.548 8.884H28.316V8.056H24.8C24.932 7.504 25.052 6.904 25.148 6.256L24.296 6.148C24.056 8.26 23.492 9.904 22.616 11.068L23.12 11.716C23.408 11.392 23.66 11.008 23.9 10.552ZM22.412 6.676H17.984V14.188H18.776V7.48H21.62V14.188H22.412V6.676ZM21.032 14.536L20.468 15.088C21.176 15.82 21.728 16.504 22.124 17.152L22.76 16.528C22.292 15.868 21.716 15.208 21.032 14.536ZM19.832 8.38V12.04C19.808 13.168 19.64 14.092 19.328 14.8C18.992 15.472 18.392 16.024 17.552 16.432L18.02 17.176C18.908 16.744 19.556 16.144 19.964 15.364C20.36 14.536 20.564 13.432 20.588 12.04V8.38H19.832Z" fill="white"/>
<defs>
<linearGradient id="paint0_linear" x1="36.5698" y1="-3.24136e-06" x2="-6.43565" y2="6.1866" gradientUnits="userSpaceOnUse">
<stop stop-color="#F83C30"/>
<stop offset="1" stop-color="#FD7D46"/>
</linearGradient>
</defs>
</svg>
