<svg width="34" height="22" viewBox="0 0 34 22" fill="none" xmlns="http://www.w3.org/2000/svg">
<rect width="34" height="22" rx="2" fill="url(#paint0_linear)"/>
<path d="M10.904 7.672V15.832H8.384V10.072H7.544V15.832H5.66V16.672H16.352V15.832H11.78V11.992H15.236V11.164H11.78V7.672H15.848V6.82H6.368V7.672H10.904ZM22.556 12.352V13.312H18.8V16.648H19.652V14.104H22.556V17.224H23.444V14.104H26.408V15.304C26.408 15.616 26.228 15.784 25.892 15.784L24.98 15.748L25.208 16.576H26.168C26.888 16.576 27.26 16.216 27.26 15.496V13.312H23.444V12.352H26.108V9.712H19.916V12.352H22.556ZM22.556 6.136V7.972H20.816C20.564 7.36 20.276 6.832 19.964 6.388L19.148 6.688C19.46 7.084 19.736 7.516 19.964 7.972H18.008V10.408H18.896V8.788H27.104V10.396H27.992V7.972H25.88C26.168 7.588 26.456 7.132 26.732 6.604L25.928 6.304C25.664 6.892 25.34 7.444 24.968 7.972H23.444V6.136H22.556ZM25.28 11.62H20.756V10.444H25.28V11.62Z" fill="white"/>
<defs>
<linearGradient id="paint0_linear" x1="36.5698" y1="-3.24136e-06" x2="-6.43565" y2="6.1866" gradientUnits="userSpaceOnUse">
<stop stop-color="#36B892"/>
<stop offset="1" stop-color="#68D380"/>
</linearGradient>
</defs>
</svg>
