<svg width="34" height="22" viewBox="0 0 34 22" fill="none" xmlns="http://www.w3.org/2000/svg">
<rect width="34" height="22" rx="2" fill="url(#paint0_linear)"/>
<path d="M13.928 6.16L13.376 6.688C13.988 7.156 14.468 7.6 14.828 8.032H12.584C12.56 7.456 12.548 6.844 12.548 6.172H11.66C11.66 6.82 11.672 7.432 11.696 8.032H6.74V12.028C6.704 13.984 6.308 15.508 5.54 16.612L6.2 17.2C7.088 15.904 7.568 14.176 7.616 12.028V11.668H9.692C9.668 12.988 9.632 13.852 9.56 14.26C9.488 14.596 9.32 14.776 9.056 14.788C8.732 14.788 8.336 14.776 7.868 14.752L8.132 15.532C8.516 15.556 8.864 15.58 9.152 15.58C9.752 15.556 10.124 15.292 10.28 14.776C10.436 14.188 10.532 12.88 10.556 10.852H7.616V8.86H11.732C11.828 10.36 11.996 11.62 12.26 12.628C12.392 13.144 12.548 13.624 12.716 14.068C11.888 15.112 10.868 15.904 9.668 16.444L10.148 17.164C11.276 16.66 12.26 15.928 13.1 14.944C13.28 15.316 13.484 15.652 13.7 15.94C14.276 16.66 14.816 17.02 15.32 17.02C15.86 17.02 16.268 16.216 16.556 14.62L15.776 14.188C15.596 15.424 15.392 16.048 15.176 16.06C14.936 16.06 14.612 15.772 14.216 15.196C14.024 14.92 13.844 14.584 13.676 14.2C14.444 13.12 15.068 11.776 15.548 10.192L14.768 9.856C14.396 11.14 13.916 12.268 13.316 13.228C13.232 12.964 13.148 12.688 13.076 12.388C12.86 11.524 12.704 10.348 12.62 8.86H16.316V8.032H14.852L15.404 7.48C14.996 7.036 14.504 6.592 13.928 6.16ZM19.352 8.368V14.116C18.74 14.26 18.116 14.392 17.492 14.5L17.708 15.364C19.268 15.028 20.732 14.62 22.1 14.116V13.252C21.488 13.492 20.864 13.696 20.228 13.876V8.368H21.956V7.54H17.624V8.368H19.352ZM24.164 6.232V8.656H22.256V9.496H24.164C24.116 12.76 23.228 15.148 21.476 16.636L22.184 17.248C24.032 15.604 24.992 13.024 25.052 9.496H27.248C27.224 12.7 27.176 14.62 27.104 15.244C26.984 15.928 26.528 16.276 25.748 16.276C25.412 16.276 25.028 16.264 24.584 16.24L24.788 17.044C25.304 17.068 25.664 17.092 25.88 17.092C27.092 17.092 27.776 16.588 27.92 15.604C28.04 14.716 28.1 12.4 28.1 8.656H25.052V6.232H24.164Z" fill="white"/>
<defs>
<linearGradient id="paint0_linear" x1="36.5698" y1="-3.24136e-06" x2="-6.43565" y2="6.1866" gradientUnits="userSpaceOnUse">
<stop stop-color="#36B892"/>
<stop offset="1" stop-color="#68D380"/>
</linearGradient>
</defs>
</svg>
