<svg width="16" height="16" viewBox="0 0 16 16" fill="none" xmlns="http://www.w3.org/2000/svg">
<path d="M14.0548 3.06767L13.4554 3.05835C13.441 3.05835 12.0972 3.03037 10.7092 2.49114C9.28575 1.93748 8.36835 1.30161 8.35986 1.29566L7.99873 1.04471L7.63837 1.29566C7.62989 1.30159 6.71168 1.93748 5.289 2.49114C3.90191 3.0312 2.55724 3.05834 2.54539 3.05834L1.94257 3.06767V8.91526C1.94257 11.8513 5.88162 14.9553 7.99953 14.9553C10.1183 14.9553 14.0574 11.8513 14.0574 8.91526L14.0548 3.06767ZM7.99955 14.0871C6.24028 14.0871 2.81076 11.2951 2.81076 8.91521V3.91465C3.30676 3.88075 4.43099 3.75697 5.60354 3.30081C6.80493 2.83279 7.67821 2.30376 8.0004 2.09687C8.3463 2.32157 9.19414 2.83279 10.3947 3.30081C11.5715 3.75781 12.6983 3.88075 13.1875 3.91465L13.1891 8.91521C13.1892 11.2951 9.7588 14.0871 7.99955 14.0871Z" fill="#8992A3"/>
<path d="M11.6131 8.56862L9.29086 10.8883L8.3176 9.78443C8.15818 9.60468 7.88431 9.5877 7.70459 9.74545C7.52401 9.90483 7.50706 10.1787 7.66644 10.3584L8.94498 11.8091C9.02462 11.899 9.13739 11.9515 9.25696 11.9549C9.26206 11.9558 9.2663 11.9558 9.27058 11.9558C9.38582 11.9558 9.49609 11.9108 9.57746 11.8295L12.227 9.18418C12.3965 9.01465 12.3965 8.73993 12.2278 8.56953C12.0582 8.39985 11.7827 8.40078 11.6131 8.56862Z" fill="#8992A3"/>
<path d="M9.23824 9.35609C9.43495 9.15349 9.67573 8.94151 9.87836 8.77365C9.58757 8.46418 9.23398 8.21576 8.83974 8.04368C9.31455 7.67742 9.62569 7.10766 9.62569 6.46327C9.62569 5.35685 8.72529 4.45642 7.61885 4.45642C6.51244 4.45642 5.61201 5.35682 5.61201 6.46327C5.61201 7.10595 5.92146 7.67317 6.39372 8.0403C5.28732 8.51679 4.50983 9.61724 4.50983 10.8967C4.50983 11.1366 4.704 11.3308 4.94393 11.3308C5.18385 11.3308 5.37801 11.1366 5.37801 10.8967C5.37801 9.66134 6.38268 8.65585 7.61884 8.65585C8.25645 8.65583 8.8296 8.92625 9.23824 9.35609ZM7.61889 5.32463C8.24627 5.32463 8.75756 5.83589 8.75756 6.46327C8.75756 7.09067 8.24624 7.60109 7.61889 7.60109C6.9915 7.60109 6.48023 7.09067 6.48023 6.46327C6.48023 5.83587 6.9915 5.32463 7.61889 5.32463Z" fill="#8992A3"/>
</svg>
