<svg width="45" height="67" viewBox="0 0 55 67" fill="none" xmlns="http://www.w3.org/2000/svg">
<g filter="url(#filter0_d)">
<path d="M4 3H51V62L27.5 48.8889L4 62V3Z" fill="url(#paint0_linear)"/>
<path d="M27.2564 48.4522L4.5 61.1485V3.5H50.5V61.1485L27.7436 48.4522L27.5 48.3163L27.2564 48.4522Z" stroke="url(#paint1_linear)"/>
</g>
<path d="M13.84 20.264C12.928 20.264 12.172 20.468 11.572 20.876C10.936 21.308 10.624 21.896 10.624 22.652C10.624 23.396 10.948 23.972 11.608 24.368C11.872 24.512 12.52 24.74 13.576 25.076C14.524 25.364 15.088 25.556 15.28 25.652C15.82 25.928 16.096 26.3 16.096 26.78C16.096 27.164 15.904 27.464 15.52 27.68C15.136 27.896 14.62 28.016 13.972 28.016C13.252 28.016 12.724 27.884 12.376 27.62C11.992 27.332 11.752 26.84 11.656 26.168H10.36C10.432 27.248 10.816 28.04 11.524 28.544C12.112 28.952 12.928 29.168 13.972 29.168C15.052 29.168 15.892 28.952 16.492 28.52C17.092 28.076 17.392 27.476 17.392 26.708C17.392 25.916 17.02 25.304 16.288 24.86C15.952 24.656 15.196 24.38 14.044 24.02C13.24 23.78 12.748 23.6 12.556 23.492C12.124 23.264 11.92 22.964 11.92 22.58C11.92 22.148 12.1 21.836 12.472 21.644C12.772 21.476 13.204 21.392 13.768 21.392C14.416 21.392 14.896 21.512 15.232 21.764C15.568 22.004 15.784 22.412 15.904 22.964H17.2C17.116 22.028 16.78 21.344 16.18 20.9C15.616 20.468 14.836 20.264 13.84 20.264ZM19.3895 20.312C19.1375 20.312 18.9335 20.384 18.7655 20.552C18.5975 20.708 18.5135 20.912 18.5135 21.164C18.5135 21.404 18.5975 21.62 18.7655 21.788C18.9335 21.944 19.1375 22.028 19.3895 22.028C19.6295 22.028 19.8455 21.944 20.0135 21.788C20.1815 21.62 20.2775 21.416 20.2775 21.164C20.2775 20.912 20.1935 20.708 20.0255 20.552C19.8575 20.384 19.6415 20.312 19.3895 20.312ZM18.7535 22.796V29H20.0255V22.796H18.7535ZM25.5873 20.264C24.2193 20.264 23.1873 20.708 22.4673 21.62C21.8193 22.424 21.5073 23.456 21.5073 24.728C21.5073 26.024 21.8073 27.056 22.4313 27.824C23.1393 28.712 24.1953 29.168 25.5993 29.168C26.5233 29.168 27.3153 28.904 27.9753 28.376C28.6833 27.812 29.1273 27.032 29.3193 26.036H28.0473C27.8793 26.708 27.5793 27.212 27.1473 27.548C26.7393 27.86 26.2113 28.016 25.5873 28.016C24.6273 28.016 23.9193 27.716 23.4633 27.116C23.0313 26.552 22.8153 25.76 22.8153 24.728C22.8153 23.732 23.0313 22.94 23.4753 22.364C23.9433 21.728 24.6393 21.416 25.5633 21.416C26.1873 21.416 26.6913 21.548 27.0993 21.824C27.5073 22.1 27.7833 22.532 27.9273 23.108H29.1993C29.0673 22.244 28.6833 21.548 28.0593 21.044C27.4113 20.516 26.5833 20.264 25.5873 20.264ZM33.1047 20.432L29.8047 29H31.1967L32.0007 26.792H35.6847L36.4887 29H37.8927L34.5927 20.432H33.1047ZM32.3967 25.712L33.8247 21.836H33.8727L35.2887 25.712H32.3967ZM38.7306 20.432V29H40.0386V25.664H42.2586C44.3106 25.664 45.3426 24.788 45.3426 23.036C45.3426 21.296 44.3226 20.432 42.2826 20.432H38.7306ZM40.0386 21.548H42.1746C42.8106 21.548 43.2786 21.668 43.5786 21.908C43.8786 22.124 44.0346 22.508 44.0346 23.036C44.0346 23.564 43.8786 23.948 43.5906 24.188C43.2906 24.428 42.8226 24.548 42.1746 24.548H40.0386V21.548Z" fill="white" fill-opacity="0.85"/>
<defs>
<filter id="filter0_d" x="0" y="0" width="45" height="67" filterUnits="userSpaceOnUse" color-interpolation-filters="sRGB">
<feFlood flood-opacity="0" result="BackgroundImageFix"/>
<feColorMatrix in="SourceAlpha" type="matrix" values="0 0 0 0 0 0 0 0 0 0 0 0 0 0 0 0 0 0 127 0"/>
<feOffset dy="1"/>
<feGaussianBlur stdDeviation="2"/>
<feColorMatrix type="matrix" values="0 0 0 0 1 0 0 0 0 0.564706 0 0 0 0 0.137255 0 0 0 0.26 0"/>
<feBlend mode="normal" in2="BackgroundImageFix" result="effect1_dropShadow"/>
<feBlend mode="normal" in="SourceGraphic" in2="effect1_dropShadow" result="shape"/>
</filter>
<linearGradient id="paint0_linear" x1="27.5" y1="3" x2="27.5" y2="62" gradientUnits="userSpaceOnUse">
<stop stop-color="#FFB063"/>
<stop offset="1" stop-color="#FF9023"/>
</linearGradient>
<linearGradient id="paint1_linear" x1="27.5" y1="3" x2="27.5" y2="62" gradientUnits="userSpaceOnUse">
<stop stop-color="#FF8500" stop-opacity="0"/>
<stop offset="1" stop-color="#FF8500" stop-opacity="0.71"/>
</linearGradient>
</defs>
</svg>
