<svg width="20" height="20" viewBox="0 0 20 20" fill="none" xmlns="http://www.w3.org/2000/svg">
<g clip-path="url(#clip0)">
<path d="M13.5594 20.0001H6.44068C2.88896 20.0001 0 17.1112 0 13.5594V6.44068C0 2.88898 2.88896 0 6.44068 0H13.5594C17.1112 0 20.0001 2.88898 20.0001 6.44068V13.5594C20.0001 17.1112 17.1112 20.0001 13.5594 20.0001ZM6.44068 1.01725C3.45035 1.01725 1.01723 3.45035 1.01723 6.44074V13.5594C1.01723 16.5496 3.45033 18.9831 6.44068 18.9831H13.5594C16.5496 18.9831 18.9829 16.5499 18.9829 13.5594V6.44068C18.9829 3.45035 16.5497 1.01723 13.5594 1.01723H6.44068V1.01725Z" fill="white"/>
<path d="M10.0226 16.8956C8.15877 16.8956 6.29494 16.8958 4.43107 16.8955C3.96857 16.8955 3.60598 16.6013 3.51711 16.1538C3.50602 16.0976 3.50299 16.0391 3.50295 15.9816C3.50232 13.3626 3.50227 10.7438 3.50266 8.12483C3.50272 7.62317 3.90262 7.19963 4.39064 7.22037C4.63992 7.23096 4.81164 7.14869 4.99016 6.97676C6.33459 5.68223 7.68797 4.39746 9.04158 3.11309C9.13646 3.02309 9.1851 2.95254 9.15188 2.8044C9.04383 2.32295 9.3742 1.83373 9.85168 1.73637C10.3333 1.63809 10.8084 1.95248 10.9099 2.4378C10.9427 2.59287 10.9429 2.74844 10.8935 2.89957C10.8748 2.95651 10.8908 2.98707 10.9305 3.02463C12.2105 4.24172 13.4892 5.45985 14.7683 6.67791C14.9399 6.84125 15.1098 7.00627 15.2837 7.16678C15.3116 7.19262 15.3563 7.20975 15.3944 7.21194C15.5238 7.21942 15.6558 7.20403 15.7831 7.22313C16.258 7.29442 16.565 7.67201 16.5665 8.17821C16.5684 8.79389 16.5671 9.40961 16.5671 10.0253C16.5671 11.9881 16.5671 13.9508 16.5669 15.9134C16.5669 16.3599 16.3434 16.7108 15.9628 16.8405C15.8555 16.8771 15.7364 16.8931 15.6227 16.8931C13.756 16.8963 11.8893 16.8956 10.0226 16.8956ZM4.40481 15.9679C8.16102 15.9679 11.9074 15.9679 15.6548 15.9679C15.6548 13.3547 15.6548 10.7469 15.6548 8.13795C11.9014 8.13795 8.15529 8.13795 4.40481 8.13795C4.40481 10.75 4.40481 13.356 4.40481 15.9679ZM14.3083 7.20858C14.3117 7.20291 14.315 7.19725 14.3184 7.19159C14.299 7.17485 14.2788 7.15907 14.2603 7.14139C13.8862 6.78549 13.5124 6.42924 13.1385 6.07323C12.2481 5.22537 11.3575 4.37772 10.4676 3.52918C10.4317 3.4949 10.4027 3.47879 10.3503 3.50028C10.1398 3.58645 9.92602 3.58557 9.71502 3.50125C9.66482 3.48114 9.63391 3.49008 9.59695 3.5268C9.49578 3.62739 9.39086 3.72397 9.28752 3.82231C8.23795 4.82153 7.1884 5.8208 6.13899 6.82016C6.00774 6.94516 5.87746 7.07104 5.7341 7.2086C8.6048 7.20858 11.4566 7.20858 14.3083 7.20858ZM7.77811 12.0563C7.77709 12.4417 7.47473 12.7478 7.09734 12.7455C6.72649 12.7434 6.42537 12.4324 6.42707 12.0532C6.42879 11.6691 6.73371 11.3606 7.10936 11.3628C7.48035 11.3649 7.77902 11.6747 7.77811 12.0563ZM12.9578 12.7455C12.5813 12.7441 12.2819 12.4338 12.2846 12.0479C12.2871 11.6682 12.591 11.3612 12.9623 11.3627C13.3375 11.3643 13.6383 11.6762 13.6356 12.0612C13.6328 12.4417 13.3304 12.747 12.9578 12.7455ZM10.0264 12.7455C9.65543 12.7434 9.35436 12.433 9.3552 12.0535C9.35602 11.6705 9.6617 11.3606 10.0368 11.3628C10.4108 11.365 10.7103 11.6783 10.7073 12.0643C10.7044 12.4427 10.3995 12.7477 10.0264 12.7455Z" fill="white"/>
</g>
<defs>
<clipPath id="clip0">
<rect width="20" height="20" fill="white"/>
</clipPath>
</defs>
</svg>
