<svg width="17" height="16" viewBox="0 0 17 16" fill="none" xmlns="http://www.w3.org/2000/svg">
<g clip-path="url(#clip0)">
<path d="M13.0008 6.28571H12.4294V4.28571C12.4294 3.14907 11.9779 2.05898 11.1742 1.25526C10.3704 0.451529 9.28034 0 8.14369 0C7.00705 0 5.91696 0.451529 5.11324 1.25526C4.30951 2.05898 3.85798 3.14907 3.85798 4.28571V6.28571H3.28655C2.83189 6.28571 2.39586 6.46633 2.07437 6.78782C1.75288 7.10931 1.57227 7.54534 1.57227 8V9.42857C1.57227 11.1714 2.26461 12.8429 3.49699 14.0753C4.72937 15.3077 6.40084 16 8.14369 16C9.88655 16 11.558 15.3077 12.7904 14.0753C14.0228 12.8429 14.7151 11.1714 14.7151 9.42857V8C14.7151 7.77488 14.6708 7.55196 14.5846 7.34397C14.4985 7.13598 14.3722 6.947 14.213 6.78782C14.0538 6.62863 13.8649 6.50236 13.6569 6.41621C13.4489 6.33006 13.226 6.28571 13.0008 6.28571ZM5.57227 4.28571C5.57227 3.60373 5.84318 2.94968 6.32542 2.46744C6.80766 1.9852 7.46171 1.71429 8.14369 1.71429C8.82568 1.71429 9.47973 1.9852 9.96197 2.46744C10.4442 2.94968 10.7151 3.60373 10.7151 4.28571V6.28571H5.57227V4.28571ZM8.71512 11.4286C8.71512 11.5801 8.65492 11.7255 8.54776 11.8326C8.44059 11.9398 8.29525 12 8.14369 12C7.99214 12 7.8468 11.9398 7.73963 11.8326C7.63247 11.7255 7.57227 11.5801 7.57227 11.4286V9.14286C7.57227 8.99131 7.63247 8.84596 7.73963 8.7388C7.8468 8.63163 7.99214 8.57143 8.14369 8.57143C8.29525 8.57143 8.44059 8.63163 8.54776 8.7388C8.65492 8.84596 8.71512 8.99131 8.71512 9.14286V11.4286Z" fill="#8992A3"/>
</g>
<defs>
<clipPath id="clip0">
<rect width="16" height="16" fill="white" transform="translate(0.143677)"/>
</clipPath>
</defs>
</svg>
