<svg width="16" height="16" viewBox="0 0 16 16" fill="none" xmlns="http://www.w3.org/2000/svg">
<path d="M8.00003 0.888885C8.93387 0.888885 9.85857 1.07282 10.7213 1.43019C11.5841 1.78755 12.368 2.31135 13.0283 2.97168C13.6887 3.63201 14.2125 4.41593 14.5698 5.27869C14.9272 6.14145 15.1111 7.06615 15.1111 8C15.1111 8.93384 14.9272 9.85854 14.5698 10.7213C14.2125 11.5841 13.6887 12.368 13.0283 13.0283C12.368 13.6886 11.5841 14.2124 10.7213 14.5698C9.85857 14.9272 8.93387 15.1111 8.00003 15.1111C6.11404 15.1111 4.3053 14.3619 2.97171 13.0283C1.63812 11.6947 0.888916 9.88598 0.888916 8C0.888916 6.11401 1.63812 4.30527 2.97171 2.97168C4.3053 1.63809 6.11404 0.888886 8.00003 0.888885ZM11.4649 5.70844L7.30847 10.1653L5.63114 8.60089C5.56721 8.54064 5.49201 8.49362 5.40985 8.46253C5.32769 8.43145 5.2402 8.4169 5.1524 8.41973C5.06461 8.42257 4.97824 8.44272 4.89825 8.47905C4.81827 8.51537 4.74626 8.56714 4.68635 8.63138C4.62644 8.69562 4.57982 8.77107 4.54916 8.85339C4.5185 8.93571 4.50442 9.02328 4.50771 9.11106C4.51101 9.19884 4.53162 9.2851 4.56836 9.36489C4.6051 9.44468 4.65725 9.51643 4.7218 9.576L6.88714 11.5956C7.01645 11.7161 7.18836 11.7804 7.36506 11.7742C7.54176 11.7681 7.70877 11.692 7.82936 11.5627L12.44 6.61777C12.5595 6.48828 12.6229 6.31674 12.6163 6.14066C12.6097 5.96458 12.5336 5.79828 12.4048 5.67811C12.2759 5.55793 12.1047 5.49366 11.9286 5.49935C11.7525 5.50503 11.5858 5.58021 11.4649 5.70844Z" fill="#00B459"/>
</svg>
