<svg width="17" height="16" viewBox="0 0 17 16" fill="none" xmlns="http://www.w3.org/2000/svg">
<path d="M10.1275 8.93621C10.918 8.00706 11.7516 6.75191 11.7516 5.40699C11.7516 2.97667 10.1343 1.00128 8.14511 1.00128C6.15785 1.00128 4.53665 2.97667 4.53665 5.40699C4.53665 6.75191 5.04617 7.65371 6.06415 8.91279C7.74294 11.3909 2.25368 11.5724 1.42405 13.3399C1.17811 13.865 1.13513 14.272 1.13899 14.7415C1.13899 14.802 1.13321 14.8644 1.16345 14.9142C1.19369 14.963 1.24054 14.9933 1.29134 14.9933H14.9793C15.0282 14.9933 15.076 14.963 15.1052 14.9142C15.1355 14.8644 15.1296 14.803 15.1296 14.7415C15.1395 14.2164 15.0691 13.7459 14.9315 13.458C14.0502 11.6105 7.7127 11.749 10.1275 8.93621Z" fill="#8992A3"/>
</svg>
