<?xml version="1.0" standalone="no"?><!DOCTYPE svg PUBLIC "-//W3C//DTD SVG 1.1//EN" "http://www.w3.org/Graphics/SVG/1.1/DTD/svg11.dtd"><svg class="icon" width="36px" height="36.00px" viewBox="0 0 1024 1024" version="1.1" xmlns="http://www.w3.org/2000/svg"><path fill="#ffffff" d="M794.3 239.2c22.9 0 41.5 18.6 41.5 41.5 0 11.5-4.7 22.2-13.1 30.2l-0.3 0.2-0.3 0.2c-7.8 7.5-18.1 11.7-28.9 11.7-23 0-41.7-18.7-41.7-41.7 0-8.4 2.5-16.5 7.2-23.4l6.7-9.8 10.4-4.7 0.6-0.3 0.3-0.1 0.3-0.1c5.7-2.4 11.4-3.7 17.3-3.7M503.2 93c-56.5 0-110.9 12.3-161.7 36.4-14.1 6.7-20 23.6-13.4 37.7 4.9 10.2 15 16.1 25.6 16.1 4 0 8.1-0.9 12-2.7 43.1-20.5 89.3-31 137.5-31 74.5 0 145.7 25.6 202.8 72.5-11.5 16.9-18.3 37.4-18.3 59.4 0 58.4 47.3 105.7 105.7 105.7 28.5 0 54.3-11.3 73.3-29.6 20.4-19.3 33.2-46.5 33.2-76.7 0-58.2-47.4-105.5-105.5-105.5-15.6 0-30.4 3.5-43.6 9.5-0.3 0.1-0.5 0.2-0.8 0.3C681.5 125.6 594.3 93 503.2 93zM208.4 239.2c13.8 0 26.7 6.9 34.5 18.5l0.1 0.2 0.1 0.2c4.7 6.9 7.2 15 7.2 23.4 0 23-18.7 41.7-41.7 41.7-1.9 0-3.9-0.1-5.9-0.4l-11.5-1.6-9-7.4c-8.7-7.1-14.1-17.2-15.1-28.3v-0.4c-0.1-1.5-0.2-2.9-0.2-4.2 0-23.1 18.7-41.7 41.5-41.7m0-64c-58.2 0-105.5 47.4-105.5 105.5 0 3.6 0.2 7.2 0.5 10.7 2.7 28.9 17 54.4 38.3 71.8-10.2 34.4-15.4 70.3-15.4 106.4 0 133.2 71.4 257.9 186.6 325.2 4.4 2.6 9.3 3.9 14.3 3.9 9.7 0 19.2-5.1 24.4-13.9 7.9-13.4 3.4-30.8-10-38.7-97.8-57.3-158.8-163.3-158.8-276.6 0-28.4 3.7-56.5 11.1-83.6 4.8 0.7 9.7 1 14.7 1 58.4 0 105.7-47.3 105.7-105.7 0-22-6.8-42.5-18.3-59.5-18.9-27.9-51.1-46.5-87.6-46.5zM503.2 765.1c11.2 0 19.5 4.4 24.5 8.1 7 5.2 12.3 12.5 15 20.5l3.8 11.6-2.8 11.7c-2.1 8.9-7.3 17-14.6 22.7-5.2 4.1-13.9 9-25.9 9-23 0-41.7-18.7-41.7-41.7 0-6.8 1.5-13.2 4.6-19.1l0.1-0.1 0.1-0.1c7.1-13.8 21.3-22.6 36.9-22.6m348.5-323.6c-15.6 0-28.2 12.6-28.2 28.2 0 139.6-89.3 261.3-220 304.3-13.8-42.1-53.6-72.7-100.3-72.7-40.9 0-76.5 23.4-94 57.6-7.5 14.5-11.8 31-11.8 48.5 0 58.4 47.3 105.7 105.7 105.7 49.8 0 91.5-34.4 102.7-80.7C767.9 786.5 880 639.1 880 469.6c-0.1-15.5-12.8-28.1-28.3-28.1z" /></svg>