<?xml version="1.0" standalone="no"?><!DOCTYPE svg PUBLIC "-//W3C//DTD SVG 1.1//EN" "http://www.w3.org/Graphics/SVG/1.1/DTD/svg11.dtd"><svg class="icon" width="36px" height="36.00px" viewBox="0 0 1024 1024" version="1.1" xmlns="http://www.w3.org/2000/svg"><path fill="#ffffff" d="M894.293333 603.733333h-93.184v-89.344a32 32 0 0 0-32-32h-225.024v-71.253333h96c35.2 0 64-28.842667 64-64V162.176c0-35.2-28.8-64-64-64h-256c-35.2 0-64 28.8-64 64v184.874667c0 35.2 28.8 64 64 64h96v71.296H256a32 32 0 0 0-32 32v89.301333H129.877333c-35.2 0-64 28.8-64 64v184.917333c0 35.2 28.8 64 64 64h256.128c35.2 0 64-28.8 64-64v-184.917333c0-35.2-28.8-64-64-64H288v-57.301333h448.981333v57.301333h-98.901333c-35.2 0-64 28.8-64 64v184.917333c0 35.2 28.8 64 64 64h256.128c35.2 0 64-28.8 64-64v-184.917333a64 64 0 0 0-63.914667-64zM384.085333 346.965333V162.389333l0.128-0.085333H640l0.085333 0.085333v184.618667L640 347.093333H384.213333c-0.128 0-0.128-0.085333-0.128-0.085333z m1.92 320.810667v184.576l-0.128 0.085333H130.133333l-0.085333-0.085333v-184.618667l0.085333-0.085333h255.786667s0.128 0 0.128 0.128z m508.288 184.576l-0.085333 0.085333h-255.829333l-0.085334-0.085333v-184.618667l0.085334-0.085333h255.829333l0.085333 0.128v184.576z" /></svg>