<?xml version="1.0" standalone="no"?><!DOCTYPE svg PUBLIC "-//W3C//DTD SVG 1.1//EN" "http://www.w3.org/Graphics/SVG/1.1/DTD/svg11.dtd"><svg class="icon" width="36px" height="36.00px" viewBox="0 0 1024 1024" version="1.1" xmlns="http://www.w3.org/2000/svg"><path fill="#ffffff" d="M871.9 503.2l-336.8-0.4c-14.4-0.1-26.1-11.7-26.2-26.2l-0.4-336.9c0-9.2-3.7-18.1-10.3-24.5-6.6-6.5-15.4-10.1-24.7-10-91 1-176.1 31-246.2 86.6-33.7 26.8-63 58.7-86.8 94.7-24.2 36.6-42.5 76.8-54.3 119.1-21 75-21.1 153.4-0.3 226.8 19.6 69.1 57.3 132.9 108.8 184.5 51.5 51.5 115.5 89.3 184.5 108.8 36.6 10.4 74.4 15.6 112.4 15.6 38.7 0 77.2-5.3 114.5-15.8 42.3-11.7 82.5-30.1 119.1-54.3 35.9-23.8 67.9-53 94.7-86.7 55.7-70.2 85.5-155.4 86.5-246.3 0.1-9.2-3.5-18.1-10-24.7-6.4-6.6-15.2-10.3-24.5-10.3zM772.6 747c-22.8 28.8-50.1 53.7-80.7 74-31.4 20.7-65.8 36.3-102 46.4-64.3 17.9-131.4 18-194.1 0.3-59.2-16.8-113.9-49.1-158.3-93.5-44.4-44.4-76.7-99.1-93.5-158.3-17.8-62.7-17.7-129.8 0.3-194.2 10-36.2 25.7-70.6 46.4-101.9 20.3-30.6 45.2-57.9 74-80.7 52.8-41.9 115.8-66.6 183.5-72.3l0.5 361.7c0 19.1 15.5 34.5 34.5 34.5l361.7 0.5c-5.7 67.7-30.3 130.7-72.3 183.5z m0 0"  /><path fill="#ffffff" d="M910.8 290.3C855.2 158.5 726 72.9 583 73c-8 0-15.7 3.2-21.4 8.8-5.7 5.7-8.8 13.4-8.8 21.4v326.1c0 16.7 13.5 30.2 30.2 30.2l325.6-0.4c8 0 15.7-3.2 21.3-8.8 5.7-5.7 8.8-13.3 8.8-21.4 0.1-47.6-9.4-94.8-27.9-138.6zM613.2 399V134.9c67.5 6.8 130 36.5 178.6 85 48.2 47.9 78.3 111.1 85.1 178.7l-263.7 0.4z m0 0"  /></svg>