<?xml version="1.0" standalone="no"?><!DOCTYPE svg PUBLIC "-//W3C//DTD SVG 1.1//EN" "http://www.w3.org/Graphics/SVG/1.1/DTD/svg11.dtd"><svg class="icon" width="36px" height="36.00px" viewBox="0 0 1024 1024" version="1.1" xmlns="http://www.w3.org/2000/svg"><path fill="#ffffff" d="M864.9 97.8h-702c-35.3 0-64 28.7-64 64v702c0 35.3 28.7 64 64 64h702c35.3 0 64-28.7 64-64v-702c0-35.3-28.7-64-64-64z m-702 64h702v129h-702v-129z m143.6 639.7l-48.1-31.1c-9.5-6.2-12.5-18.7-6.8-28.5l30.6-53c5.7-9.8 18-13.4 28.1-8.3l51 26.2c26.6-26.9 60.3-46.8 98-56.7L462 593c0.6-11.3 9.9-20.2 21.2-20.2h61.2c11.3 0 20.7 8.9 21.2 20.2l2.8 57.2c37.2 9.8 71 29.4 98 56.7l51-26.2c10.1-5.2 22.4-1.5 28.1 8.3l30.6 53c5.7 9.8 2.7 22.3-6.8 28.5l-48.1 31.1c5.6 20.4 8 41.3 7.5 62.2h-78.1c0.2-3.3 0.4-6.6 0.4-10 0-74.7-60.5-135.2-135.2-135.2s-135.2 60.5-135.2 135.2c0 3.4 0.1 6.7 0.4 10h-82c-0.6-21 1.9-41.9 7.5-62.3z m125.1 52.2c0-46.5 37.7-84.2 84.2-84.2s84.2 37.7 84.2 84.2c0 3.4-0.2 6.7-0.6 10H432.2c-0.4-3.2-0.6-6.6-0.6-10z m433.3 10.1h-85.2c0.3-12.7-0.4-25.5-1.9-38.1l19.2-12.4c32.3-20.9 42.6-63.4 23.4-96.8l-30.6-53c-19.2-33.3-61.2-45.7-95.4-28.1L674 645.8c-17.3-13.1-36.2-24-56.2-32.5l-1.1-22.8c-1.9-38.4-33.7-68.6-72.2-68.6h-61.2c-38.5 0-70.2 30.2-72.1 68.6l-1.1 22.8c-20 8.5-38.9 19.4-56.2 32.5l-20.4-10.4c-34.2-17.6-76.2-5.2-95.5 28.1l-30.6 53c-19.2 33.3-9 75.9 23.4 96.8l19.2 12.4c-1.5 12.7-2.2 25.4-1.9 38.1h-85.2V354.9h702V863.8z"  /><path fill="#ffffff" d="M244.9 191.7h64v64h-64zM374 191.7h64v64h-64z"  /></svg>