<?xml version="1.0" standalone="no"?><!DOCTYPE svg PUBLIC "-//W3C//DTD SVG 1.1//EN" "http://www.w3.org/Graphics/SVG/1.1/DTD/svg11.dtd"><svg class="icon" width="36px" height="36.00px" viewBox="0 0 1024 1024" version="1.1" xmlns="http://www.w3.org/2000/svg"><path fill="#ffffff" d="M588.714667 100.394667a61.44 61.44 0 0 1 62.208 60.885333v7.253333c0 35.285333 29.098667 64.170667 64.853333 64.170667 11.434667 0 22.741333-3.114667 32.426667-8.618667l6.613333-3.797333a62.933333 62.933333 0 0 1 85.205333 22.016l76.970667 130.133333a60.245333 60.245333 0 0 1-22.698667 83.285334l-6.4 3.584c-31.402667 17.792-42.282667 56.576-24.405333 86.698666 5.632 9.514667 13.824 17.493333 23.509333 22.912l6.528 3.584c29.866667 16.597333 40.277333 54.101333 22.869334 83.413334l-76.885334 129.962666c-8.405333 14.122667-22.016 24.234667-37.888 28.330667-15.786667 4.096-32.597333 2.005333-46.933333-5.888l-6.485333-3.626667a67.626667 67.626667 0 0 0-65.28-0.426666 63.146667 63.146667 0 0 0-23.893334 23.125333 61.226667 61.226667 0 0 0-8.618666 31.317333v7.168c0.085333 16.512-6.698667 32.128-18.517334 43.605334a62.72 62.72 0 0 1-43.605333 17.621333h-153.898667a61.525333 61.525333 0 0 1-62.08-60.586667l-0.085333-7.253333a63.274667 63.274667 0 0 0-19.2-45.056 65.322667 65.322667 0 0 0-77.909333-10.112l-6.528 3.84a63.36 63.36 0 0 1-85.077334-22.144l-77.098666-130.304a60.202667 60.202667 0 0 1 22.698666-83.114667l6.314667-3.584c14.976-8.277333 26.069333-22.4 30.592-38.912a60.842667 60.842667 0 0 0-6.4-47.658666 63.317333 63.317333 0 0 0-23.808-23.04l-6.4-3.584a60.245333 60.245333 0 0 1-29.312-36.778667c-4.266667-15.701333-2.090667-32.512 6.229333-46.634667l76.885334-130.176c8.277333-13.994667 22.016-24.192 37.888-28.288 15.786667-4.138667 32.597333-1.92 46.933333 5.973334l6.570667 3.626666a67.584 67.584 0 0 0 65.408 0.469334 61.568 61.568 0 0 0 32.512-54.698667v-7.253333A59.605333 59.605333 0 0 1 390.826667 118.186667a62.72 62.72 0 0 1 43.861333-17.706667l154.026667-0.085333zM437.76 166.016a11.861333 11.861333 0 0 0-7.808 2.986667 8.490667 8.490667 0 0 0-2.688 6.314666l0.085333 6.997334c0.213333 19.584-4.992 38.784-15.104 55.765333a111.061333 111.061333 0 0 1-41.813333 40.405333c-34.56 18.901333-76.373333 18.730667-110.677333-0.597333l-6.272-3.498667a11.434667 11.434667 0 0 0-8.533334-1.109333 10.154667 10.154667 0 0 0-6.272 4.608L164.693333 402.816c-2.474667 4.181333-0.981333 9.386667 3.84 11.946667l6.186667 3.413333c17.194667 9.514667 31.402667 23.424 41.301333 40.106667a107.946667 107.946667 0 0 1 11.178667 84.053333 110.421333 110.421333 0 0 1-52.608 66.986667l-6.101333 3.413333c-4.565333 2.645333-6.101333 7.850667-3.584 11.861333l73.984 124.885334a10.666667 10.666667 0 0 0 9.216 4.906666 10.965333 10.965333 0 0 0 5.589333-1.493333l6.314667-3.498667a112.341333 112.341333 0 0 1 133.674666 17.194667c21.333333 20.821333 33.237333 48.64 33.322667 78.293333v6.912c0 4.821333 4.48 9.216 10.410667 9.216h147.882666c2.986667 0 5.717333-1.109333 7.68-3.114666a8.661333 8.661333 0 0 0 2.730667-6.186667v-6.698667a107.306667 107.306667 0 0 1 15.189333-55.296 110.08 110.08 0 0 1 41.728-40.405333 113.706667 113.706667 0 0 1 110.506667 0.597333l6.186667 3.498667a11.434667 11.434667 0 0 0 8.490666 0.981333 10.154667 10.154667 0 0 0 6.314667-4.608l73.984-124.8c2.517333-4.181333 0.981333-9.386667-3.712-11.946666l-6.186667-3.413334a109.568 109.568 0 0 1-41.088-40.021333c-31.317333-52.778667-12.416-120.704 41.6-151.210667l6.101334-3.413333c4.693333-2.688 6.058667-7.893333 3.584-11.946667l-73.898667-124.928a10.666667 10.666667 0 0 0-9.216-4.906666 10.922667 10.922667 0 0 0-5.589333 1.493333l-6.314667 3.498667a112.128 112.128 0 0 1-55.68 14.805333 111.36 111.36 0 0 1-111.701333-110.890667v-7.082666c0-4.906667-4.394667-9.216-10.410667-9.216l-147.797333 0.213333z"  /><path fill="#ffffff" d="M512.085333 580.48a66.56 66.56 0 1 0 0.042667-133.12 66.56 66.56 0 0 0 0 133.12z m0 66.517333A133.12 133.12 0 1 1 512 380.672a133.12 133.12 0 0 1 0.128 266.325333z"  /></svg>