<?xml version="1.0" standalone="no"?><!DOCTYPE svg PUBLIC "-//W3C//DTD SVG 1.1//EN" "http://www.w3.org/Graphics/SVG/1.1/DTD/svg11.dtd"><svg t="1584084418922" class="icon" viewBox="0 0 1024 1024" version="1.1" xmlns="http://www.w3.org/2000/svg" p-id="15150" width="36" height="36" xmlns:xlink="http://www.w3.org/1999/xlink"><defs><style type="text/css"></style></defs><path d="M842.5 222.4h-89.7v-28.6c0-7.6-2.7-14.6-7.1-20.1-5.9-7.3-14.9-11.9-24.9-11.9h-83.2v-0.2h-0.3v-31.8c0-17.7-14.3-32-32-32h-186c-17.7 0-32 14.3-32 32v31.8h-0.3v0.2h-83.3c-10.1 0-19.1 4.7-25 12-4.4 5.5-7 12.4-7 20v28.6h-89c-40.7 0-73.8 33.1-73.8 73.8v558.5c0 40.7 33.1 73.8 73.8 73.8h659.8c40.7 0 73.8-33.1 73.8-73.8V296.1c-0.1-40.6-33.2-73.7-73.8-73.7z m-269.2-26.3v29.7h115.5V281h-353v-55.2h115.5v-64h122V196.1z m284.1 658.5c0 8.2-6.7 14.9-15 14.9H182.7c-8.2 0-15-6.7-15-14.9V296.1c0-8.2 6.7-14.9 15-14.9h89V313c0 17.7 14.3 32 32 32h417c17.7 0 32-14.3 32-32v-31.8h89.7c8.2 0 15 6.7 15 14.9v558.5z" p-id="15151" fill="#ffffff"></path><path d="M694 481.7H330c-17.7 0-32 14.3-32 32s14.3 32 32 32h364c17.7 0 32-14.3 32-32s-14.3-32-32-32zM694 630.7H330c-17.7 0-32 14.3-32 32s14.3 32 32 32h364c17.7 0 32-14.3 32-32s-14.3-32-32-32z" p-id="15152" fill="#ffffff"></path></svg>