<?xml version="1.0" standalone="no"?><!DOCTYPE svg PUBLIC "-//W3C//DTD SVG 1.1//EN" "http://www.w3.org/Graphics/SVG/1.1/DTD/svg11.dtd"><svg class="icon" width="36px" height="36.00px" viewBox="0 0 1024 1024" version="1.1" xmlns="http://www.w3.org/2000/svg"><path fill="#ffffff" d="M896.4 116H128c-35.3 0-64 28.7-64 64v653.7c0 35.3 28.7 64 64 64h768.3c35.3 0 64-28.7 64-64V180c0.1-35.4-28.6-64-63.9-64z m0 717.7H128V180h768.3v653.7z"  /><path fill="#ffffff" d="M179 738.2c15.8 0 29.2-11.5 31.6-27.1 5.8-37.1 23.5-71.3 51.1-97.9 32.4-31.1 75.3-48.4 120.2-48.4 46.3 0 89.8 18.1 122.5 50.8 26.2 26.2 43 59.3 48.6 95.3 2.5 15.7 15.8 27.3 31.7 27.3 19.7 0 34.6-17.6 31.6-37.1-14.9-94.9-86.1-171.2-178.3-193.6 41.6-20.7 70.3-63.6 70.3-113.3 0-69.8-56.6-126.4-126.4-126.4s-126.4 56.6-126.4 126.4c0 49.7 28.6 92.6 70.3 113.3-92.2 22.4-163.4 98.6-178.3 193.6-3.2 19.5 11.8 37.1 31.5 37.1z m202.9-406.4c34.4 0 62.4 28 62.4 62.4s-28 62.4-62.4 62.4-62.4-28-62.4-62.4 27.9-62.4 62.4-62.4zM605.2 387.5h213.1c17.7 0 32-14.3 32-32s-14.3-32-32-32H605.2c-17.7 0-32 14.3-32 32s14.3 32 32 32zM605.2 513.3h213.1c17.7 0 32-14.3 32-32s-14.3-32-32-32H605.2c-17.7 0-32 14.3-32 32s14.3 32 32 32zM818.3 575.2h-93.1c-17.7 0-32 14.3-32 32s14.3 32 32 32h93.1c17.7 0 32-14.3 32-32s-14.3-32-32-32z"  /></svg>