<?xml version="1.0" standalone="no"?><!DOCTYPE svg PUBLIC "-//W3C//DTD SVG 1.1//EN" "http://www.w3.org/Graphics/SVG/1.1/DTD/svg11.dtd"><svg class="icon" width="36px" height="36.00px" viewBox="0 0 1024 1024" version="1.1" xmlns="http://www.w3.org/2000/svg"><path fill="#ffffff" d="M896.426667 98.218667H128.213333c-35.285333 0-64 28.672-64 64v576.682666c0 35.285333 28.714667 64 64 64h352.085334v60.8H227.2c-18.304 0-33.194667 14.293333-33.194667 32s14.933333 32 33.194667 32h569.898667c18.346667 0 33.194667-14.293333 33.194666-32s-14.890667-32-33.194666-32h-252.8v-60.8h352.128c35.285333 0 64-28.714667 64-64V162.218667a64 64 0 0 0-64-64z m-382.037334 640.682666l-2.090666-0.085333c-0.682667 0-1.408 0-2.090667 0.085333H128.213333V162.218667h768.085334v576.682666h-381.866667z"  /><path fill="#ffffff" d="M817.194667 389.205333a31.829333 31.829333 0 0 0-45.226667 1.194667l-65.962667 69.504-112.298666-158.421333a32 32 0 0 0-54.912 4.437333l-96.298667 196.992L379.178667 401.92a32.384 32.384 0 0 0-22.4-14.72 31.658667 31.658667 0 0 0-25.685334 7.594667l-122.88 107.306666a32 32 0 1 0 42.197334 48.213334l94.592-82.602667 73.984 117.973333c5.930667 9.386667 16.128 15.018667 27.093333 15.018667h1.706667a32.085333 32.085333 0 0 0 27.093333-17.92l97.92-200.277333 103.594667 146.090666a32 32 0 0 0 49.322666 3.498667l92.757334-97.706667a31.957333 31.957333 0 0 0-1.28-45.226666z"  /></svg>