<?xml version="1.0" standalone="no"?><!DOCTYPE svg PUBLIC "-//W3C//DTD SVG 1.1//EN" "http://www.w3.org/Graphics/SVG/1.1/DTD/svg11.dtd"><svg t="1584084687574" class="icon" viewBox="0 0 1024 1024" version="1.1" xmlns="http://www.w3.org/2000/svg" p-id="15975" width="36" height="36" xmlns:xlink="http://www.w3.org/1999/xlink"><defs><style type="text/css"></style></defs><path d="M898.5 220L540.4 70.9c-18.7-8-40.1-8-58.8 0.1L126 219.9l-0.3 0.1c-12.9 5.6-21.2 18.2-21.2 32.2v300c0 54.8 10.8 108.1 32.2 158.4 20.6 48.5 50 92.1 87.5 129.5 37.5 37.5 81.1 66.9 129.5 87.5 50.3 21.4 103.6 32.2 158.4 32.2s108.1-10.8 158.4-32.2c48.5-20.6 92.1-50 129.5-87.5 37.5-37.5 66.9-81.1 87.5-129.5 21.4-50.3 32.2-103.6 32.2-158.4v-300c0-14-8.3-26.7-21.2-32.2z m-43.8 332.2c0 188.9-153.7 342.6-342.6 342.6S169.5 741.1 169.5 552.2v-280l337.3-141.3 0.3-0.1c2.4-1.1 5.2-1.1 7.7 0l339.8 141.5v279.9z" p-id="15976" fill="#ffffff"></path><path d="M354.1 484.9c-12.5-12.5-32.7-12.6-45.3-0.2-12.5 12.5-12.6 32.7-0.2 45.3l145.6 146.6c6.2 6.3 14.5 9.5 22.7 9.5 7.9 0 15.7-2.9 21.9-8.7l227-213c12.9-12.1 13.5-32.3 1.4-45.2-12.1-12.9-32.3-13.5-45.2-1.4L477.8 609.4 354.1 484.9z" p-id="15977" fill="#ffffff"></path></svg>