<?xml version="1.0" standalone="no"?><!DOCTYPE svg PUBLIC "-//W3C//DTD SVG 1.1//EN" "http://www.w3.org/Graphics/SVG/1.1/DTD/svg11.dtd"><svg class="icon" width="36px" height="36.00px" viewBox="0 0 1024 1024" version="1.1" xmlns="http://www.w3.org/2000/svg"><path fill="#ffffff" d="M544.085333 98.218667a32 32 0 1 0-64 0v127.786666h64V98.218667z m278.613334 140.885333a32.042667 32.042667 0 0 0-45.312-45.312L687.104 284.16l45.269333 45.269333 90.325334-90.282666zM285.696 333.397333l45.312-45.312L240.64 197.802667A32.042667 32.042667 0 0 0 195.413333 243.114667l90.325334 90.282666z m641.792 145.28h-127.701333v64h127.701333a32 32 0 1 0 0-64z m-701.013333 0H98.773333a32 32 0 1 0 0 64h127.701334v-64z m538.026666 446.208l67.882667-0.085333a32 32 0 0 0 32-32 32.426667 32.426667 0 0 0-32.213333-32c-0.085333 0-0.085333 0 0 0l-64 0.085333v-324.778666c0-140.8-115.2-256-256-256s-256 115.2-256 256v325.589333l-73.088 0.085333a32 32 0 0 0 0 64h0.128l77.653333-0.085333 503.637333-0.810667z m-60.416-63.872l-384.085333 0.597334v-325.546667a190.933333 190.933333 0 0 1 56.490667-135.594667c17.706667-17.664 38.314667-31.573333 61.184-41.386666a189.568 189.568 0 0 1 74.410666-15.104 190.933333 190.933333 0 0 1 135.594667 56.490666c17.706667 17.749333 31.573333 38.314667 41.386667 61.226667 10.026667 23.594667 15.146667 48.64 15.146666 74.410667v324.906666h-0.128z"  /><path fill="#ffffff" d="M584.576 546.005333l-68.181333-1.92 33.792-33.28a32.042667 32.042667 0 0 0-44.970667-45.610666L417.877333 551.253333a32 32 0 0 0 21.632 54.784l67.2 1.792-58.624 56.533334a31.914667 31.914667 0 1 0 44.373334 45.994666l113.536-109.312a31.872 31.872 0 0 0 7.594666-34.56 32.170667 32.170667 0 0 0-29.013333-20.437333z"  /></svg>