<?xml version="1.0" standalone="no"?><!DOCTYPE svg PUBLIC "-//W3C//DTD SVG 1.1//EN" "http://www.w3.org/Graphics/SVG/1.1/DTD/svg11.dtd"><svg class="icon" width="36px" height="36.00px" viewBox="0 0 1024 1024" version="1.1" xmlns="http://www.w3.org/2000/svg"><path fill="#ffffff" d="M239.8 239.9c35.1-35.1 76-62.7 121.5-81.9 47.1-19.9 97.1-30 148.7-30s101.7 10.1 148.7 30c30.1 12.7 58.2 29.2 83.9 49l-50.7 19c-16.5 6.2-24.9 24.7-18.7 41.2 4.8 12.8 17 20.7 30 20.7 3.7 0 7.6-0.7 11.3-2.1l80.6-30.3 0.1 0.1 38.2-15.5c12.1-4.9 15.7-20.4 6.9-30.1C758.6 120.3 640.9 63.9 510 63.9 263.6 63.9 63.9 263.6 63.9 510c0 102.2 34.4 196.3 92.1 271.5 9.2 12 25.5 15.8 39.2 9.3 18.3-8.8 24-32.2 11.6-48.2-19.8-25.7-36.2-53.8-48.9-83.9-19.9-47.1-30-97.1-30-148.7s10.1-101.7 30-148.7c19.2-45.4 46.8-86.3 81.9-121.4zM916.5 326c-6.7-14.8-23.4-22.2-38.9-17.3-18.2 5.8-27.3 26.2-19.5 43.5 1.4 3 2.7 6 4 9.1 19.9 47.1 30 97.1 30 148.7s-10.1 101.7-30 148.7c-19.2 45.5-46.8 86.4-81.9 121.5-35.1 35.1-76 62.7-121.5 81.9-47.1 19.9-97.1 30-148.7 30-44.8 0-88.4-7.6-130-22.7l32.3-12.2c16.5-6.2 24.9-24.7 18.7-41.2-6.2-16.5-24.7-24.9-41.2-18.7L305 829.4c-1 0.4-2 0.8-3 1.3h-0.1l-31.5 12.2c-17.5 6.8-20 30.5-4.3 40.8 69.6 45.5 152.7 72.1 242.1 72.5 246.4 1 446.1-196.3 447.9-442.7 0.5-66.9-13.7-130.4-39.6-187.5z"  /><path fill="#ffffff" d="M566.3 343.8c-3.2-7.7-7.1-14.9-11.7-21.6-4.6-6.7-10.7-12.2-18.2-16.4-7.5-4.2-16.9-6.4-28.1-6.4-11 0-20.3 2.1-27.8 6.4-7.5 4.3-13.6 9.8-18.2 16.7-4.6 6.9-9 15.5-13 25.9-4.1 10.4-7.6 19.3-10.4 26.7L337.2 633.4c-4.2 10.3-7.1 18.4-9 24.1-1.8 5.8-2.7 11.4-2.7 16.8 0 9.4 3.9 17.8 11.7 25.2 7.8 7.4 16.7 11.1 26.9 11.1 11.9 0 20.5-3.5 25.8-10.4 5.2-7 11.6-20.4 19-40.3l19-51h161.7l19 49.9c2.5 6.2 5.6 13.2 9.1 21.3 3.5 8 6.8 14 9.9 17.9 3.1 3.9 6.9 7 11.4 9.2 4.5 2.3 9.9 3.4 16.3 3.4 10.9 0 20.1-3.8 27.8-11.5 7.7-7.7 11.5-16.1 11.5-25.4 0-8.9-4.1-23.1-12.2-42.6l-104-256.5c-4.9-12.9-9-23.1-12.1-30.8zM449 548.5l58.9-164.1 60 164.1H449z"  /></svg>