<svg width="51" height="50" viewBox="0 0 51 50" fill="none" xmlns="http://www.w3.org/2000/svg">
<path d="M0.912354 11.3376V39.4022C0.912354 40.4287 1.44887 41.3619 2.31195 41.8984L13.0655 49.1071C15.0016 50.2968 17.4276 50.2968 19.387 49.1071L37.3252 36.6961C38.1883 36.1595 38.7248 35.2264 38.7248 34.1999V6.34521L0.912354 11.3376Z" fill="url(#paint0_linear)"/>
<path d="M0.912354 11.5476V39.3789C0.912354 40.4054 1.44887 41.3386 2.31195 41.8751L13.0655 49.0837C15.0016 50.2735 17.4276 50.2735 19.387 49.0837L37.3252 36.6728C38.1883 36.1362 38.7248 35.2031 38.7248 34.1766V6.34521L0.912354 11.5476Z" fill="url(#paint1_linear)"/>
<path d="M37.7461 8.99562L19.4814 20.1702C17.4753 21.4066 14.9327 21.4066 12.9266 20.1702L1.54325 13.5914C0.58686 13.0082 0.680164 11.5851 1.72986 11.1419L22.9104 1.13379C24.24 0.573894 25.7329 0.573894 27.0392 1.13379L37.5128 5.44963C39.0057 6.10284 39.1457 8.17911 37.7461 8.99562Z" fill="url(#paint2_linear)"/>
<path d="M37.7461 8.28176L19.4814 19.4563C17.4753 20.6927 14.9327 20.6927 12.9266 19.4563L1.54325 12.8776C0.58686 12.2943 0.680164 10.8713 1.72986 10.428L22.9104 0.41992C24.24 -0.139973 25.7329 -0.139973 27.0392 0.41992L37.5129 4.73577C39.0058 5.38897 39.1457 7.46525 37.7461 8.28176Z" fill="url(#paint3_linear)"/>
<path d="M24.0997 32.4419C24.0997 32.36 24.1407 32.2835 24.2088 32.2381C24.3716 32.1296 24.5896 32.2463 24.5896 32.4419V42.6077C24.5896 42.6896 24.5487 42.7661 24.4805 42.8115C24.3178 42.9201 24.0997 42.8034 24.0997 42.6077V32.4419ZM25.2194 41.8146C25.2194 42.0102 25.4375 42.1269 25.6002 42.0184C25.6683 41.9729 25.7093 41.8965 25.7093 41.8146V31.0888C25.7093 30.8932 25.4912 30.7765 25.3285 30.885C25.2603 30.9305 25.2194 31.0069 25.2194 31.0888V41.8146ZM26.3624 41.0447C26.3624 41.2404 26.5805 41.357 26.7432 41.2485C26.8114 41.2031 26.8523 41.1266 26.8523 41.0447V29.7357C26.8523 29.5401 26.6343 29.4234 26.4715 29.532C26.4034 29.5774 26.3624 29.6539 26.3624 29.7357V41.0447ZM27.4821 40.2749C27.4821 40.4705 27.7001 40.5872 27.8629 40.4787C27.931 40.4332 27.972 40.3568 27.972 40.2749V28.3827C27.972 28.187 27.7539 28.0704 27.5912 28.1789C27.523 28.2243 27.4821 28.3008 27.4821 28.3827V40.2749ZM28.6251 39.505C28.6251 39.7006 28.8431 39.8173 29.0059 39.7088C29.074 39.6634 29.115 39.5869 29.115 39.505V27.0296C29.115 26.834 28.8969 26.7173 28.7342 26.8258C28.666 26.8712 28.6251 26.9477 28.6251 27.0296V39.505ZM29.7681 38.7118C29.7681 38.9075 29.9861 39.0241 30.1489 38.9156C30.217 38.8702 30.258 38.7937 30.258 38.7118V25.6532C30.258 25.4576 30.0399 25.3409 29.8772 25.4494C29.809 25.4948 29.7681 25.5713 29.7681 25.6532V38.7118ZM30.8878 37.942C30.8878 38.1376 31.1058 38.2543 31.2686 38.1458C31.3367 38.1003 31.3777 38.0239 31.3777 37.942V24.3234C31.3777 24.1278 31.1596 24.0111 30.9969 24.1197C30.9287 24.1651 30.8878 24.2415 30.8878 24.3234V37.942ZM32.0075 37.1721C32.0075 37.3678 32.2255 37.4844 32.3883 37.3759C32.4564 37.3305 32.4973 37.254 32.4973 37.1721V22.947C32.4973 22.7514 32.2793 22.6347 32.1165 22.7432C32.0484 22.7887 32.0075 22.8651 32.0075 22.947V37.1721ZM33.1505 36.3789C33.1505 36.5746 33.3685 36.6913 33.5313 36.5827C33.5994 36.5373 33.6403 36.4608 33.6403 36.3789V21.594C33.6403 21.3983 33.4223 21.2816 33.2595 21.3902C33.1914 21.4356 33.1505 21.5121 33.1505 21.594V36.3789ZM34.3727 20.0599C34.3084 20.1059 34.2702 20.1801 34.2702 20.2592V35.6091C34.2702 35.8047 34.4882 35.9214 34.651 35.8129C34.7191 35.7674 34.76 35.691 34.76 35.6091V20.2592C34.76 20.0599 34.5348 19.9441 34.3727 20.0599Z" fill="#2FAAAF"/>
<path d="M12.2972 20.7628L4.36618 16.1903C4.13291 16.0503 3.87633 15.957 3.61974 15.957C2.8033 15.957 2.15015 16.6336 2.15015 17.4734V26.9683C2.15015 27.4115 2.38342 27.8314 2.75665 28.0647L6.3023 30.3276C7.32867 30.9808 7.98181 32.1706 7.98181 33.4304V41.4089C7.98181 41.8521 8.21508 42.2954 8.61163 42.5286L11.5974 44.325C11.854 44.5116 12.1339 44.6049 12.4372 44.6049C13.1836 44.6049 13.9768 43.9984 13.9768 43.0185V23.8889C13.9768 22.6058 13.3236 21.416 12.2972 20.7628Z" fill="url(#paint4_linear)"/>
<path d="M3.61974 16.0737C3.853 16.0737 4.1096 16.1437 4.31954 16.2836L12.2506 20.8561C13.2536 21.486 13.8835 22.6291 13.8835 23.8422V42.9719C13.8835 43.4851 13.6502 43.8351 13.4636 44.0217C13.207 44.2783 12.8338 44.4649 12.4605 44.4649C12.1806 44.4649 11.924 44.3716 11.6674 44.2083L8.68161 42.412C8.33171 42.1787 8.12178 41.8054 8.12178 41.3855V33.407C8.12178 32.124 7.46863 30.8875 6.3956 30.211L2.84995 27.9481C2.50005 27.7148 2.29011 27.3415 2.29011 26.9449V17.4967C2.26679 16.7269 2.87328 16.0737 3.61974 16.0737ZM3.61974 15.957C2.8033 15.957 2.15015 16.6336 2.15015 17.4734V26.9683C2.15015 27.4115 2.38342 27.8314 2.75665 28.0647L6.3023 30.3276C7.32867 30.9808 7.98181 32.1706 7.98181 33.4304V41.4089C7.98181 41.8521 8.21508 42.2954 8.61163 42.5286L11.5974 44.325C11.854 44.5116 12.1339 44.6049 12.4372 44.6049C13.1836 44.6049 13.9768 43.9984 13.9768 43.0185V23.8889C13.9768 22.6291 13.3236 21.4626 12.2972 20.7861L4.36618 16.2136C4.15624 16.0503 3.87633 15.957 3.61974 15.957Z" fill="#0A396F"/>
<path d="M4.34261 39.4504C4.29596 39.4504 4.24931 39.4271 4.20266 39.4038L2.8497 38.4939C2.73306 38.424 2.66309 38.3073 2.66309 38.1673V37.0475C2.66309 36.9542 2.7564 36.8842 2.82638 36.8842C2.8497 36.8842 2.87303 36.9076 2.91969 36.9076L4.36593 37.8174C4.50589 37.9107 4.5992 38.0507 4.5992 38.214V39.1705C4.5992 39.2405 4.57587 39.3104 4.52922 39.3571C4.48257 39.4271 4.41259 39.4504 4.34261 39.4504ZM4.34261 36.3477C4.29596 36.3477 4.24931 36.3244 4.20266 36.301L2.8497 35.3912C2.73306 35.3212 2.66309 35.2046 2.66309 35.0646V33.9448C2.66309 33.8515 2.7564 33.7815 2.82638 33.7815C2.8497 33.7815 2.87303 33.8048 2.91969 33.8048L4.36593 34.7147C4.50589 34.808 4.5992 34.9479 4.5992 35.1113V36.0677C4.5992 36.1377 4.57587 36.2077 4.52922 36.2544C4.48257 36.3244 4.41259 36.3477 4.34261 36.3477ZM4.34261 33.3616C4.29596 33.3616 4.24931 33.3383 4.20266 33.3149L2.8497 32.4051C2.73306 32.3351 2.66309 32.2185 2.66309 32.0785V30.9587C2.66309 30.8654 2.7564 30.7954 2.82638 30.7954C2.8497 30.7954 2.87303 30.7954 2.91969 30.8187L4.36593 31.7286C4.50589 31.8219 4.5992 31.9619 4.5992 32.1252V33.0816C4.5992 33.2449 4.48257 33.3616 4.34261 33.3616Z" fill="#2ED8CF"/>
<path d="M2.85019 30.8177C2.87351 30.8177 2.89685 30.8177 2.92018 30.841L4.36642 31.7508C4.48306 31.8208 4.57637 31.9841 4.57637 32.1241V33.0806C4.57637 33.2205 4.45974 33.3138 4.3431 33.3138C4.29645 33.3138 4.2498 33.2905 4.22647 33.2905L2.87352 32.3807C2.75689 32.3107 2.71023 32.1941 2.71023 32.0774V30.9576C2.71023 30.8643 2.78021 30.8177 2.85019 30.8177ZM2.85019 33.8038C2.87351 33.8038 2.89685 33.8038 2.92018 33.8271L4.36642 34.7369C4.50638 34.8069 4.57637 34.9702 4.57637 35.1102V36.0667C4.57637 36.2066 4.45974 36.3 4.3431 36.3C4.29645 36.3 4.2498 36.2766 4.22647 36.2766L2.87352 35.3668C2.75689 35.2968 2.71023 35.1802 2.71023 35.0635V33.9437C2.71023 33.8737 2.78021 33.8038 2.85019 33.8038ZM2.85019 36.9298C2.87351 36.9298 2.89685 36.9298 2.92018 36.9532L4.36642 37.863C4.50638 37.933 4.57637 38.0963 4.57637 38.2362V39.1927C4.57637 39.3327 4.45974 39.426 4.3431 39.426C4.29645 39.426 4.2498 39.4027 4.22647 39.4027L2.87352 38.4929C2.75689 38.4229 2.71023 38.3062 2.71023 38.1896V37.0698C2.71023 36.9765 2.78021 36.9298 2.85019 36.9298ZM2.85019 30.771C2.75688 30.771 2.66357 30.841 2.66357 30.9576V32.0774C2.66357 32.2174 2.73355 32.3574 2.85019 32.4273L4.20315 33.3372C4.2498 33.3605 4.29645 33.3838 4.3431 33.3838C4.50639 33.3838 4.64635 33.2672 4.64635 33.0806V32.1241C4.64635 31.9374 4.55304 31.7975 4.41308 31.6808L2.9435 30.7943C2.92017 30.771 2.87351 30.771 2.85019 30.771ZM2.85019 33.7571C2.75688 33.7571 2.66357 33.8271 2.66357 33.9437V35.0635C2.66357 35.2035 2.73355 35.3435 2.85019 35.4135L4.20315 36.3233C4.2498 36.3466 4.29645 36.3699 4.3431 36.3699C4.50639 36.3699 4.64635 36.2533 4.64635 36.0667V35.1102C4.64635 34.9235 4.55304 34.7836 4.41308 34.6669L2.96682 33.7571C2.89684 33.7804 2.87351 33.7571 2.85019 33.7571ZM2.85019 36.8598C2.75688 36.8598 2.66357 36.9298 2.66357 37.0465V38.1663C2.66357 38.3062 2.73355 38.4462 2.85019 38.5162L4.20315 39.426C4.2498 39.4494 4.29645 39.4727 4.3431 39.4727C4.50639 39.4727 4.64635 39.356 4.64635 39.1694V38.2129C4.64635 38.0263 4.55304 37.8863 4.41308 37.7697L2.96682 36.8598C2.89684 36.8832 2.87351 36.8598 2.85019 36.8598Z" fill="#0A396F"/>
<path d="M11.388 34.1303V36.0899L10.6409 35.6466V33.687L11.388 34.1303ZM10.6642 38.5394L11.4114 38.9827V37.023L10.6642 36.5798V38.5394ZM10.6642 41.3855L11.4114 41.8288V39.8692L10.6642 39.4259V41.3855Z" fill="#0C1116"/>
<path d="M10.8979 33.827V35.7866L10.6644 35.6466V33.687L10.8979 33.827ZM10.6644 38.5394L10.8979 38.6794V36.7198L10.6644 36.5798V38.5394ZM10.6644 41.3855L10.8979 41.5255V39.5659L10.6644 39.4259V41.3855Z" fill="#8A99CD"/>
<path d="M10.9678 22.5355V22.8621L3.5033 18.4996V18.1963L10.9678 22.5355ZM3.5033 19.596L10.9678 23.9585V23.6319L3.5033 19.2694V19.596ZM3.5033 20.6225L10.9678 24.985V24.6584L3.5033 20.2959V20.6225ZM3.5033 21.6956L10.9678 26.0581V25.7315L3.5033 21.369V21.6956ZM3.5033 22.7221L10.9678 27.0846V26.758L3.5033 22.3955V22.7221Z" fill="url(#paint5_linear)"/>
<path d="M50.7934 36.7604C50.7934 44.0249 44.8883 49.9567 37.6114 49.9567C34.3061 49.9567 31.2752 48.7285 28.9497 46.7034C26.1801 44.2732 24.4294 40.7193 24.4294 36.7604C24.4294 36.5383 24.4294 36.3292 24.4425 36.1202C24.4425 36.0679 24.4425 36.0026 24.4556 35.9503C24.4686 35.7282 24.4817 35.493 24.5209 35.2709C24.5732 34.8528 24.6385 34.4478 24.7169 34.0297C24.743 33.899 24.7822 33.7553 24.8083 33.6246C24.8475 33.4548 24.8998 33.2849 24.939 33.1281C25.1219 32.4879 25.357 31.8738 25.6183 31.2859C25.7228 31.0638 25.8404 30.8417 25.9449 30.6195C25.9449 30.6065 25.958 30.5934 25.971 30.5803C25.9841 30.5542 25.9972 30.515 26.0233 30.4889C26.0233 30.4758 26.0364 30.4758 26.0364 30.4628C26.2454 30.0838 26.4544 29.7311 26.7026 29.3783C27.0293 28.8949 27.382 28.4376 27.7739 28.0064C27.8784 27.8888 27.983 27.7712 28.0875 27.6536C28.2442 27.4838 28.4141 27.3139 28.5839 27.1571C28.7668 26.9873 28.9628 26.8174 29.1588 26.6476C29.5768 26.2948 30.021 25.9682 30.4913 25.6677C30.5175 25.6546 30.5436 25.6415 30.5697 25.6154C31.1576 25.2365 31.7847 24.9098 32.4249 24.6355C32.4902 24.6093 32.5555 24.5832 32.6078 24.5571C32.6208 24.5571 32.6339 24.544 32.6469 24.544C33.0519 24.3872 33.47 24.2304 33.8881 24.1128C34.084 24.0475 34.28 23.9952 34.489 23.9561C34.5674 23.9299 34.6458 23.9169 34.7373 23.8907C35.5342 23.7078 36.3572 23.6033 37.2195 23.5771C37.2848 23.5771 37.3501 23.5771 37.4285 23.5771C37.4938 23.5771 37.5592 23.5771 37.6245 23.5771C41.1649 23.5771 44.3788 24.9752 46.7434 27.2486C49.2387 29.6396 50.7934 33.0236 50.7934 36.7604Z" fill="url(#paint6_radial)"/>
<path d="M32.0588 45.658V45.5796L32.0327 45.4881L32.0588 45.462V45.4097L32.0327 45.3706V45.3052L31.9804 45.2791L31.9543 45.3183V45.3836L31.8889 45.462H31.8759L31.8498 45.5143L31.8759 45.5404L31.8236 45.5927V45.658L31.7322 45.7495L31.706 45.7233L31.6538 45.7756L31.6277 45.8409L31.5362 45.8801L31.4709 45.9585H31.3794L31.3533 45.9324L31.3402 45.9585H31.2227L31.1835 45.9977L31.1573 45.9716L31.1181 45.9977H31.092L31.1181 46.0238L31.0528 46.0892L30.9875 46.1676L31.0398 46.2329L31.0006 46.259L31.0136 46.2721V46.3374L31.0398 46.4419L31.0659 46.4942V46.5203V46.5465V46.5726L31.0267 46.6902L31.0006 46.7163L30.9744 46.8078H30.9614L30.9352 46.8339V46.8992L30.883 46.9515L30.8438 46.9646V47.0168L30.7915 47.0691V47.1736L30.8569 47.252L30.8438 47.2781H30.8699V47.3827L30.8307 47.4088V47.5133L30.8569 47.5395L30.883 47.5656L30.9091 47.6048L30.9483 47.5917L30.9744 47.6309L31.0267 47.6832H31.092L31.1181 47.6701L31.1443 47.6178L31.301 47.6048H31.3402L31.3664 47.5917L31.3925 47.5656L31.4186 47.5264L31.4448 47.4741V47.4219L31.4709 47.3957L31.4186 47.3435L31.497 47.2912V47.1997H31.5623V47.1867L31.5885 47.0691L31.6146 47.0038V46.9776L31.6407 46.8862L31.706 46.8208L31.7583 46.651L31.7844 46.6118V46.5595L31.8106 46.4942L31.8236 46.455L31.8628 46.3897L31.8889 46.2982L31.9151 46.2198L31.9281 46.1937L31.9412 46.1676L31.9151 46.1414V46.05L31.9804 45.9977V45.9716L32.0065 45.9454L31.9543 45.8932L31.9804 45.867V45.6972H32.111L32.1372 45.7233L32.0588 45.658ZM29.0148 46.7555L29.0409 46.7816V46.7686C29.0278 46.7686 29.0148 46.7555 29.0148 46.7555ZM29.0409 46.7816L29.0278 46.8208L29.054 46.7947L29.0409 46.7816ZM32.3723 40.8498L32.3331 40.8106L32.3593 40.7453L32.3201 40.7061L32.3462 40.68H32.2547L32.2286 40.7061L32.1764 40.7322L32.1241 40.7845L32.098 40.7584L32.0457 40.7845L31.9151 40.8106H31.8628L31.8367 40.7845H31.8106L31.7583 40.8106H31.706L31.6538 40.8368L31.6146 40.8106H31.6015L31.484 40.889L31.4056 40.9152H31.3794H31.2619L31.2096 40.9413H31.1704L31.1443 40.9674L31.1181 40.9936L31.0398 41.0197L30.9614 40.9936L30.9352 40.9674H30.9091L30.883 40.9021L30.7654 40.7714L30.7393 40.7845H30.7001L30.5433 40.6277H30.7132L30.7393 40.5885H30.7654L30.7785 40.5755V40.5493L30.7654 40.5363L30.7001 40.5101H30.6478L30.5956 40.3795L30.5694 40.3533L30.5433 40.3011H30.5172L30.4649 40.2488L30.4257 40.2227L30.3735 40.1704L30.3082 40.1051L30.2559 40.079L30.2298 40.0528L30.2036 40.079L30.1775 40.0528L30.1514 40.079L30.1253 40.0528L29.9685 39.9875L29.9424 39.9222L29.9293 39.896L29.9032 39.8699V39.8438H29.877L29.8248 39.6478L29.7595 39.4518L29.6157 39.3081H29.6941V39.2428L29.6419 39.2166L29.5766 39.1905L29.5112 39.099L29.4851 38.9814L29.4982 38.9161L29.4851 38.8508L29.4328 38.694V38.6156V38.5895L29.4067 38.5633L29.3806 38.5372V38.5111L29.3545 38.485V38.4458H29.3414L29.263 38.3804L29.1977 38.3543V38.3282H29.1585L29.0801 38.2628L29.0148 38.106L29.0409 38.0799L29.0278 38.0668V38.0407L29.0017 38.0146L28.9756 37.9493L28.9103 37.8709L28.858 37.8447L28.8319 37.7794L28.7012 37.5834V37.5181L28.6882 37.492L28.6751 37.4266L28.649 37.4005V37.3874L28.5837 37.3221V37.2437L28.5967 37.2176L28.4922 37.1131L28.4661 37.0608L28.3877 36.9563V36.9171L28.3485 36.8648V36.7864L28.4269 36.695L28.4399 36.708L28.4138 36.6296L28.3746 36.6035L28.3485 36.5512H28.2179L28.1525 36.5774L28.1264 36.5512L28.1003 36.5774L28.048 36.6035L27.9827 36.6688H27.8782L27.8129 36.6296H27.8259L27.7737 36.6035L27.7475 36.6296L27.6691 36.5643L27.6169 36.5512L27.4601 36.5251H27.4079L27.3425 36.5904L27.2903 36.4598L27.2642 36.4336L27.238 36.4467L27.0813 36.4206L27.0682 36.4075H27.0421V36.4598L26.9114 36.3814H26.8853L26.82 36.3683L26.8069 36.3814L26.7416 36.3552L26.7024 36.3814L26.5979 36.4075L26.5325 36.4336L26.5064 36.4598L26.4803 36.512L26.4672 36.5251V36.5904L26.4934 36.6296L26.5195 36.7342L26.4934 36.7995L26.415 36.8779L26.3366 36.9432L26.2582 36.9693L26.1276 36.904L26.0492 36.8387L25.9969 36.8125L25.9185 36.7864L25.7879 36.7342H25.7617H25.6442L25.5527 36.6688L25.4874 36.512V36.4598L25.4743 36.4336L25.3829 36.4206L25.3176 36.3814H25.2261L25.1739 36.3683L25.0432 36.3814L24.9126 36.3552L24.8603 36.303H24.8342H24.8211L24.7558 36.2377L24.7427 36.2246L24.7166 36.2507L24.6513 36.1854H24.6382L24.5337 36.1201L24.5206 36.0939C24.5076 36.303 24.5076 36.5251 24.5076 36.7342C24.5076 40.693 26.2582 44.26 29.0278 46.6771V46.6641L29.0017 46.5987L29.0278 46.5726L29.0148 46.5595V46.455H29.1062H29.1193H29.1324V46.4289L29.2891 46.3243H29.3153L29.3283 46.3113V46.2852L29.4067 46.2329L29.4198 46.2068L29.4328 46.1937L29.4982 45.9977L29.5112 46.0369V45.9846L29.6027 46.0761L29.6419 46.05H29.6549V45.9846L29.7595 46.0238L29.8248 45.9846L29.8378 45.9585H29.9162L29.9946 45.9193V45.854H30.073V45.8279L30.0861 45.8017L30.0207 45.7364L30.0861 45.6711L30.1383 45.6188V45.5796V45.5535H30.1253L30.073 45.5012V45.4359L30.0077 45.3706H30.1253V45.3314L30.0991 45.266L30.1253 45.2399L30.1122 45.2268V45.1223L30.0861 45.0178V44.9524L30.1122 44.9263L30.0861 44.9002L30.1383 44.8479V44.8349L30.1253 44.8218L30.073 44.7957L29.9685 44.6911L29.9946 44.6258V44.6127L29.9554 44.5735L29.9815 44.5213L29.9685 44.4952L29.8509 44.3776H30.0077L29.9815 44.3384L30.0077 44.3122L29.9815 44.2861V44.1816L30.0077 44.1162L30.0338 44.0901L30.0207 44.0248L29.9946 43.9987V43.9203L30.0469 43.8419L30.0991 43.6981L29.9946 43.5936H30.1644L30.2167 43.5022L30.2428 43.4499V43.3976L30.3082 43.3323V43.2539L30.3473 43.2147V43.1886L30.3996 43.1363H30.4519H30.478L30.5303 43.0841H30.5433L30.7001 42.9011V43.0971L30.7262 43.0579L30.7523 43.0057L30.8177 42.9403L30.8438 42.9273L30.8569 42.9011L30.883 42.875L31.0006 42.7444L31.0398 42.7182L31.1704 42.5876L31.2357 42.5353L31.301 42.483L31.3664 42.4569L31.4448 42.3916L31.6407 42.2087L31.7452 42.0911L31.7583 42.0519L31.8889 41.882V41.8559L31.9543 41.7514V41.6991L32.0718 41.477V41.4509V41.3855L32.1502 41.3071H32.1764L32.1894 41.2941L32.2286 41.2026L32.2939 41.1111V41.085H32.2156L32.3723 40.9282H32.3462L32.3723 40.8498ZM42.7585 43.4499L42.7324 43.4238L42.7193 43.3976L42.6932 43.3715L42.6671 43.3846L42.5625 43.3454V43.28L42.5364 43.2539L42.5887 43.2409L42.5234 43.2147V43.1886V43.1625V43.1494L42.458 43.1755V43.1363H42.4058L42.3143 43.0449V43.0318L42.0661 43.1886L42.2751 42.9011H42.0792L42.1706 42.8097H42.1445L42.053 42.7052V42.6529L42.0008 42.6006L41.9747 42.6268L41.8963 42.5614V42.5484L41.6742 42.4569H41.7134L41.6219 42.3001V42.2479H41.5827L41.5435 42.1956L41.4782 42.1303H41.4259L41.3737 42.078H41.2822V41.9604H41.2561L41.243 41.9082H41.23L41.2039 41.8428H41.1908L41.1255 41.869L41.0993 41.8428H41.0863L41.021 41.869L40.9556 41.8428L40.8772 41.7775L40.9034 41.8428L40.9426 41.8559L41.0079 41.9343H41.034L41.0863 41.9996L41.1124 41.9735L41.23 42.0519L41.2953 42.1564L41.3345 42.1825H41.3998V42.2871V42.3132H41.4521L41.5043 42.3916H41.5174H41.5827V42.47H41.5958L41.6088 42.5353V42.5484L41.648 42.6529V42.666H41.6742L41.7656 42.7313V42.7966L41.7917 42.8489L41.844 42.9011L41.8701 43.0057L41.9485 43.1363L41.9224 43.2017L41.9355 43.2278L41.9877 43.2539L42.0661 43.3454L42.0792 43.3846L42.1576 43.3976V43.4368L42.2229 43.463V43.5022H42.249L42.3143 43.5806L42.4188 43.6459V43.672H42.4711L42.5887 43.7896H42.654L42.6671 43.7243L42.7585 43.7504L42.7846 43.672L42.7585 43.6067L42.7846 43.5414L42.7716 43.5283L42.7585 43.4499ZM45.4759 43.6851L45.4498 43.7112V43.7635L45.4236 43.8027V43.8419H45.4498V43.7635L45.4759 43.7373V43.7112V43.6981V43.6851ZM45.894 43.659V43.6328H45.8678L45.8417 43.5283H45.8025L45.8548 43.463L45.8286 43.3976L45.7764 43.3454L45.7503 43.3062L45.698 43.267V43.2147L45.6327 43.1886L45.5935 43.1755L45.5282 43.1102L45.4759 43.0449L45.4498 43.0841H45.4236L45.4498 43.1363L45.4236 43.1886V43.2539L45.4106 43.28V43.3323L45.3845 43.3584V43.4238L45.3191 43.4499V43.5152H45.4367V43.6067L45.4759 43.6851L45.5282 43.5806L45.5151 43.5544L45.489 43.5022V43.4368L45.5543 43.3976L45.5804 43.3715L45.6849 43.3323L45.7503 43.3976L45.7894 43.463V43.5544L45.7633 43.5806L45.7894 43.6067L45.8678 43.6459V43.7373L45.894 43.7112H45.9332L45.894 43.659ZM44.9272 41.9604H44.9533V41.8428L45.0709 41.9343V41.8298L45.0187 41.7644H45.0056H44.9403V41.673L44.888 41.6076L44.8619 41.6338H44.8358V41.6599H44.8096L44.7835 41.7122V41.7644L44.679 41.869L44.6528 41.9343H44.6137H44.5875L44.4569 42.1564V41.9343L44.3916 41.9473V41.9604V42.0127L44.3001 42.1041L44.2479 42.1695V42.1956L44.1956 42.274L44.1303 42.3263L44.0127 42.3524L44.1433 42.5484L43.9343 42.4438V42.4961L43.8951 42.47V42.5222L43.869 42.5876V42.666L43.6992 42.6398L43.6338 42.6006H43.5554L43.5293 42.5484L43.5032 42.6137L43.4771 42.6398V42.679V42.7182V42.7574L43.5032 42.8097L43.5554 42.8619H43.5685L43.9604 42.666L43.6338 43.0057L43.673 43.0579L43.6992 43.0971V43.1886L43.673 43.2147L43.6992 43.2278V43.3584L43.7514 43.3192L43.7775 43.3846H43.8037L43.8298 43.4107L43.882 43.3846H43.8951L43.9604 43.2931L44.0258 43.4238V43.4891L44.065 43.463L44.0911 43.4891L44.1303 43.476L44.1433 43.4238H44.2479L44.274 43.4499H44.3262L44.3524 43.4107L44.4177 43.5022L44.4699 43.476L44.483 43.5152H44.5091L44.5745 43.5936L44.5483 43.6067L44.5875 43.5936H44.6267L44.6659 43.5675L44.692 43.5022V43.3715L44.5091 43.4499L44.7051 43.2539L44.6267 43.1755H44.7835L44.8096 43.1494L44.6398 43.0449H44.8619V43.0187L44.9272 42.9665V42.875L44.9533 42.8489V42.7444H44.9795L45.0317 42.679L45.0056 42.5353L44.9272 42.4961L45.0448 42.4177L44.9925 42.3655V42.3263L44.9272 42.274L44.9795 42.2087L44.9403 42.1303L44.9533 42.1172L44.8619 42.0911L44.9795 42.0257L44.9272 41.9604ZM46.7693 43.5152H46.7432H46.7823H46.7693ZM45.894 43.0841H45.8678L45.8156 43.0971L45.7894 43.071L45.7764 43.0841L45.7503 43.1363H45.7894L45.8156 43.1102L45.894 43.0841ZM45.7372 42.7052L45.7111 42.666L45.6588 42.7182H45.6719H45.698L45.7503 42.7052H45.7372ZM42.2751 42.6137L42.2882 42.6006V42.5876L42.2751 42.6137ZM42.3143 42.483L42.2882 42.4569V42.4308L42.2621 42.4046L42.2359 42.3524L42.1184 42.2348L42.1967 42.1825V42.1303L42.1706 42.1041V42.0127L42.1967 41.9865V41.882V41.8559L42.1706 41.8036L42.04 41.673H41.9093V41.6338L41.8832 41.6207L41.8571 41.5554V41.5292H41.7917L41.7395 41.5815L41.6088 41.4509L41.5435 41.4378V41.3071L41.6219 41.281L41.5958 41.2549V41.2026H41.5697L41.5435 41.1634L41.4913 41.1111V41.085L41.3606 41.1111L41.2953 41.0458L41.3214 40.9936L41.2953 40.9544V40.9282L41.2822 40.889L41.2561 40.9674L41.2822 40.9936L41.2561 41.0197H41.2822V41.1765L41.3476 41.1503V41.2418L41.3737 41.2679V41.2941L41.3998 41.3071L41.4129 41.3594H41.4259L41.4913 41.4378L41.5174 41.4509L41.5305 41.477H41.5697V41.5554L41.6219 41.5815L41.648 41.6076L41.7003 41.686L41.7264 41.8428L41.7395 41.882L41.7656 41.9473L41.7395 42.0519L41.8048 42.1172L41.7787 42.1433L41.8048 42.1695L41.8309 42.2087L41.8832 42.2348L41.9355 42.3393L41.9093 42.3655L42.0138 42.4961L42.0792 42.47L42.1053 42.4961H42.2098L42.1445 42.5484L42.1837 42.5876L42.249 42.6006L42.2751 42.6137V42.5614L42.3405 42.6268V42.5876L42.3143 42.483ZM41.8832 42.3655L41.844 42.4046L41.8309 42.4569H41.8963L41.8832 42.3655ZM41.7395 42.4308L41.7134 42.4569H41.7656L41.7395 42.4308ZM46.3251 41.5292V41.5423L46.3382 41.5815H46.3904L46.4296 41.6076L46.3251 41.5292ZM38.1729 41.4117V41.3855L38.1207 41.281V41.2679H38.0684V41.2418H37.9116L37.8986 41.3071V41.3463L37.9247 41.4117L37.9116 41.4378L37.9378 41.5031L37.9639 41.6076H38.0031L38.0292 41.5946H38.1207L38.1468 41.5815L38.1729 41.5554L38.199 41.5031L38.1729 41.4117ZM46.5994 41.2287L46.5733 41.1373L46.5994 41.085L46.5733 41.0589V41.1895L46.508 41.1373L46.4557 41.2026L46.4296 41.1765V41.2026L46.312 41.2679L46.2467 41.2941L46.312 41.3594L46.4296 41.5815L46.4557 41.5554L46.4165 41.5292L46.4427 41.4509L46.508 41.3333L46.5994 41.3071V41.2287ZM46.1161 41.2026V41.2287L46.1291 41.2026H46.1161ZM37.9769 41.1503V41.072H37.9508V41.1373H37.9116V41.2026L37.99 41.1503H37.9769ZM29.3283 27.0525L29.3022 27.0394V27.0656L29.3675 27.0786L29.3283 27.0525ZM29.459 26.7912V26.7651L29.4328 26.752L29.3675 26.6867V26.6475L29.3022 26.6344L29.2499 26.6475L29.3022 26.7259V26.752L29.3545 26.8042L29.3022 26.8565L29.3283 26.9218L29.2761 26.9349V27.0002V27.0133L29.3153 27.0264V26.9349L29.3414 26.9088L29.3283 26.8957L29.4067 26.8173H29.459V26.7912ZM47.1351 31.2596L47.1873 31.2074V31.1943L47.1612 31.1551V31.1029H47.1481L47.122 30.9461L47.0959 30.9199V30.8546L47.0567 30.8154L47.0175 30.7239L47.0306 30.7109H47.0175L46.9652 30.541V30.5018L46.9522 30.4757L46.9261 30.3581L46.9391 30.345L46.913 30.2666L46.9261 30.2405L46.8999 30.2144L46.9261 30.1883L46.8999 30.1621L46.8738 30.0968L46.8477 30.0837L46.7823 30.0184V29.9269L46.7954 29.9139L46.7823 29.8877H46.7301L46.6256 29.7832L46.6778 29.731V29.7048V29.6787H46.6517L46.6256 29.6395H46.5994L46.5733 29.6134L46.4819 29.5742L46.4688 29.5611L46.4165 29.535L46.3773 29.4958L46.3643 29.4696H46.299L46.2859 29.4566L46.2728 29.4696H46.2467L46.2728 29.4958H46.2336V29.548H46.2075L46.1814 29.6003V29.6134L46.1553 29.6395L46.1814 29.6656L46.1553 29.731L46.0246 29.8616V29.8094L45.9201 29.8355L45.894 29.8094V29.8224L45.7372 29.6918L45.7633 29.6264V29.6003L45.7111 29.535V29.4435L45.6719 29.4566L45.6196 29.5088H45.5282L45.502 29.4827L45.4759 29.4958L45.3845 29.4566L45.3453 29.3651L45.3975 29.2475L45.4236 29.2083V29.1561L45.4759 29.1038V29.0385L45.5282 28.9993V28.934L45.5543 28.9078V28.8948L45.6066 28.8294L45.6327 28.7772L45.6588 28.751L45.6327 28.7118L45.6588 28.6857V28.6334L45.6849 28.4767H45.7111L45.7241 28.4113H45.7372V28.3983L45.8025 28.3199L45.8286 28.2676L45.8548 28.2415L45.8286 28.1761L45.8548 28.15V28.1108L45.8809 28.0847L45.8678 28.0586V27.9802L45.8417 27.9148L45.907 27.8234L45.9462 27.7711V27.745L45.894 27.6666L45.9201 27.5882L45.9593 27.549L45.9854 27.4967L46.0507 27.4445L46.0769 27.3791H46.1814V27.3922L46.2336 27.353H46.2859L46.3382 27.3138H46.4165L46.4557 27.2746H46.5211L46.5472 27.2093L46.6386 27.2485L46.7301 27.2093L46.7954 27.2354C44.4308 24.962 41.2169 23.564 37.6765 23.564C37.6111 23.564 37.5458 23.564 37.4805 23.564L37.4282 23.6162H37.3891L37.167 23.8383L37.2715 23.577C36.4223 23.6032 35.5992 23.7077 34.7892 23.8906L34.9329 23.9298H34.5541C34.3581 23.9821 34.1491 24.0343 33.9531 24.0866L33.9923 24.1519V24.2042H34.0054L34.0315 24.2826L34.0576 24.2956H34.0838L34.1883 24.3087L34.3189 24.1781V24.3218L34.3451 24.361L34.3712 24.3871L34.3973 24.4132H34.4757L34.541 24.4524H34.5541L34.6325 24.5308L34.6586 24.6615L34.6847 24.7268L34.6717 24.7529L34.7239 24.7791L34.8023 24.8967V24.962L34.8546 25.0012L34.8807 25.0796L34.8546 25.158H34.8676V25.1841L34.9721 25.2886L34.9852 25.3017L34.9983 25.2886L35.0505 25.3148L35.0897 25.2886L35.2857 25.2364L35.2334 25.3017L35.2596 25.3278L35.2857 25.3409H35.3641L35.4817 25.6937L35.2726 25.4846H35.2204L35.142 25.4193V25.4846V25.4977L35.2726 25.8243L34.9983 25.5499H34.9329L34.8546 25.4716V25.4062L34.8023 25.3932H34.7239L34.5933 25.3148H34.4888L34.4626 25.1188L34.4888 25.0665L34.4234 25.0143V24.9359L34.3973 24.8705L34.4626 24.8183V24.766L34.4365 24.7137L34.4104 24.6876L34.3712 24.7137L34.2405 24.7399H34.1621L34.0838 24.6615L34.0315 24.6353L34.0184 24.6092L33.927 24.5962L33.8617 24.5308L33.8355 24.5047H33.6918L33.7572 24.5308L33.8355 24.6615L33.7702 24.7921L33.6788 24.8183L33.5612 24.766L33.5351 24.7529L33.522 24.7137H33.5089L33.4828 24.7399L33.4697 24.7529H33.4959L33.522 24.8183L33.5481 24.8444H33.6134L33.6657 24.8967H33.718L33.731 24.8836H33.8094L33.8355 24.9228H33.9009L33.927 25.0012L33.9401 25.0143V25.0404H33.9662L34.2797 24.9097L34.0054 25.1841L34.0707 25.3409L33.9139 25.1841H33.8617L33.7441 25.1057H33.6788L33.5873 25.1972L33.5612 25.1057H33.5351H33.4305L33.3914 25.0796L33.326 25.1057L33.2607 24.9489L33.2999 24.9359L33.2738 24.9097V24.8967L33.2346 24.8444L33.2084 24.7791L33.1431 24.8444L33.1562 24.8575L33.1693 25.0143L33.1431 25.0926L33.1954 25.1188L33.2999 25.2102V25.2364H33.326L33.3914 25.3017L33.4567 25.4062L33.4436 25.563V25.5891L33.4828 25.6545L33.4567 25.7459V25.759L33.522 25.8243L33.5481 25.8897L33.5743 25.8766L33.6265 25.8897V25.8766L33.7049 25.7982L33.7702 25.8243L33.8225 25.7982L33.8878 25.8374L33.9531 25.8113L33.9792 25.8897L34.0315 25.9158H34.123L34.2013 26.0072V26.0203L34.2405 26.0464L34.2667 26.0987L34.2928 26.1248L34.3059 26.151L34.4757 26.2163L34.2928 26.2947L34.3189 26.3208L34.3712 26.3731L34.3581 26.3992V26.4253L34.4234 26.3339L34.4496 26.4123H34.4757L34.5671 26.5037L34.4888 26.5691L34.4234 26.5952L34.3712 26.6213L34.2928 26.6475L34.2275 26.5952H34.1752L34.0707 26.4907L34.0968 26.4645V26.4384L34.0707 26.4123L33.9923 26.3861L34.0184 26.3208H33.9923L33.9662 26.2555L33.8878 26.2032V26.151L33.8486 26.1902L33.7963 26.2163L33.7702 26.2424L33.7441 26.2686L33.7572 26.3339V26.347L33.8355 26.3861L33.9009 26.5821L33.8747 26.6475L33.8225 26.7128V26.7389L33.8747 26.8042L33.8225 26.9218V26.9741L33.7702 27.0264V27.0917L33.7049 27.1178V27.1832L33.6134 27.2615L33.4959 27.2354L33.4828 27.2223H33.4567L33.3783 27.2485L33.313 27.2093L33.1562 27.1832L33.1039 27.1309L33.0778 27.1962L33.0125 27.1309H32.8818L33.0386 26.948H33.117L33.1954 26.9349L33.2346 26.8957L33.3522 26.961L33.3652 26.948H33.4697V26.8826L33.5351 26.9088V26.8696L33.4567 26.7912L33.5481 26.752V26.7259L33.522 26.6997L33.5481 26.6344V26.6083L33.5743 26.5821L33.5351 26.5429L33.5089 26.4384L33.5351 26.3731V26.3078L33.4828 26.2816L33.4697 26.2424L33.4044 26.2294L33.313 26.0987L33.2999 26.0334L33.2738 26.0072V25.9811H33.2476L33.2215 25.8897L33.2346 25.8374L33.1823 25.759V25.7198L33.1301 25.6675V25.6283L33.1039 25.6022L33.0778 25.4716V25.4454L33.0255 25.3932V25.354L32.9602 25.3801V25.3148L32.9341 25.3017L32.921 25.2102L32.8818 25.171L32.8426 25.0796L32.8818 25.0404L32.8557 24.9751L32.8818 24.9489V24.9228L32.908 24.8183L32.8949 24.766V24.7137L32.8688 24.6876V24.6223L32.8426 24.557L32.7512 24.5178H32.7381L32.712 24.5439C32.6467 24.57 32.5814 24.5962 32.5291 24.6223L32.4768 24.6745V24.7007L32.4899 24.7137V24.7791L32.503 24.8183L32.5291 24.9751V25.0012L32.5814 25.0535L32.5291 25.1188V25.1449L32.5552 25.2102L32.4768 25.2886L32.4115 25.3801L32.4376 25.4585L32.4115 25.4846L32.4507 25.5238L32.4768 25.563H32.5291L32.8165 25.8505L32.5814 25.759V25.8505L32.5291 25.8897L32.5422 25.9158L32.5944 25.9419V25.955L32.6206 25.968H32.6859L32.6989 25.9811L32.7381 25.9288L32.8165 26.0072V26.0726H32.8426L32.9341 26.1771L32.9602 26.164H32.9733L32.9994 26.1902H33.1693L33.0386 26.3208V26.4123L33.0647 26.4515L33.0386 26.4776V26.6083L32.8818 26.5429L32.8296 26.4384L32.8035 26.4123H32.7251L32.6989 26.347L32.6859 26.3339L32.5944 26.3208L32.4899 26.2555L32.3985 26.2294L32.3854 26.2032H32.3201L32.2939 26.1771L32.2025 26.2686L32.1372 26.1248L32.0588 26.0987L32.0065 26.0726L31.8759 26.0464L31.7191 26.0726L31.693 26.0595L31.6538 26.0856L31.6277 26.0726L31.6015 26.0856V26.0987V26.1902H31.6146V26.2163H31.6538L31.7191 26.3208V26.3339H31.7322L31.9804 26.5821L31.693 26.4907V26.5168L31.6407 26.5429L31.6669 26.5691L31.6407 26.556V26.6083L31.5885 26.6605H31.4186L31.3664 26.556L31.3925 26.5168L31.3664 26.4515L31.3925 26.4253H31.3664L31.3272 26.4515L31.3141 26.4645V26.5429H31.1835V26.556L31.092 26.5952H30.9744H30.9614L30.9352 26.6213L30.9091 26.5952L30.883 26.6213L30.9091 26.6344L30.8699 26.6736L30.8961 26.6997L30.8046 26.7912L30.7262 26.7651L30.5956 27.0917V26.8173L30.5825 26.8304L30.478 26.7781L30.4649 26.752L30.3343 26.8304L30.2428 26.7389L30.2559 26.7259V26.6736L30.1775 26.6997H30.1644L30.0991 26.7912L30.073 26.8042L29.9946 26.8957L30.0469 27.0264L29.8509 27.0002H29.7986V27.0656L30.0861 27.0133L29.7595 27.2093L29.7333 27.2354H29.6941L29.6288 27.3007L29.6027 27.2485H29.5112L29.4198 27.1178L29.3545 27.0656H29.3414L29.4067 27.1309L29.3936 27.1701L29.4198 27.1962L29.3936 27.2093L29.3675 27.2746V27.3791V27.3922L29.4328 27.6796L29.2369 27.4837L29.1716 27.4575L28.9625 27.6666L29.067 27.4053L29.0148 27.4183L28.9756 27.3791V27.4575L28.7535 27.6143L28.8449 27.3922L28.858 27.353V27.3007L28.7927 27.2354L28.7796 27.1962L28.7535 27.1701L28.7404 27.157V27.1962L28.649 27.1309C28.4791 27.2877 28.3093 27.4575 28.1525 27.6274H28.1656L28.1917 27.6405L28.257 27.6143L28.3224 27.6796L28.3746 27.6927L28.4661 27.7058L28.5314 27.6927L28.5575 27.6666H28.6228L28.649 27.6535L28.7535 27.6274V27.7188V27.745L28.8319 27.8234L28.9103 27.954L28.8188 28.0455L28.7404 28.0977L28.6882 28.2284L28.5837 28.1108L28.5314 28.0847V28.1239L28.5575 28.1369V28.3199L28.5053 28.3721H28.4661L28.4269 28.4113H28.3485L28.3093 28.3721H28.257L28.2309 28.346H28.1656L28.1133 28.2937V28.2676H28.1003L28.0872 28.3068L27.9566 28.2284L27.8259 28.2676L27.8912 28.1108L27.8782 28.0847V28.0586L27.8259 28.0194V27.9932C27.4471 28.4244 27.0813 28.8817 26.7546 29.3651V29.3782L26.82 29.4435L26.8853 29.4174H26.8984L26.9767 29.339L27.029 29.3912L27.0551 29.3651H27.0421C27.0421 29.3521 27.0551 29.339 27.0551 29.339L27.1074 29.2737L27.1858 29.3651V29.3912L27.1988 29.4174H27.2903L27.3817 29.5088L27.3295 29.6395L27.2642 29.6134V29.6264L27.238 29.6526L27.2772 29.6787L27.1858 29.7179V29.8094L27.1204 29.744L27.1074 29.7702V29.8355H26.833L26.7808 29.8094H26.7154L26.6893 29.7963L26.624 29.8094L26.5456 29.8355L26.5195 29.8094L26.4672 29.8355L26.4411 29.9008H26.4672L26.415 30.0315L26.4803 29.9661L26.5456 30.1229L26.5195 30.2405V30.3189L26.5456 30.4104L26.5195 30.4888L26.4542 30.6194H26.3496L26.2843 30.5541L26.2582 30.5018L26.1929 30.4234L26.1667 30.4365L26.1406 30.4626H26.0884H26.0753H26.0622V30.6194L26.01 30.5672L25.9838 30.5933V30.6847L25.9577 30.6978V30.7239L25.9838 30.7501V30.8415V30.8546L26.023 30.8415L26.0884 30.933H26.1014L26.1929 30.9069L26.2451 30.9591L26.2713 30.9983L26.3235 31.0506L26.2974 31.1159L26.3235 31.2335L26.0361 31.2596L25.8401 31.2466L25.7617 31.3119L25.6703 31.338L25.6442 31.3119C25.3698 31.8999 25.1477 32.527 24.9648 33.1542L25.0955 33.2064V33.2848L25.1739 33.2064H25.2784L25.3045 33.2718L25.3568 33.3371L25.3829 33.3893L25.409 33.4155L25.4351 33.4416H25.4613L25.6834 33.6637H25.7095L25.7748 33.6899L25.9316 33.8466L25.9577 33.8205L26.0361 33.912L26.0884 33.9381L26.1798 34.0426L26.1929 34.0688L26.219 34.0818L26.3105 34.1602L26.2713 34.2517H26.2059L26.1929 34.317L26.219 34.3823L26.2059 34.4215L26.219 34.4607H26.2582L26.3105 34.5653L26.3758 34.5914V34.6567L26.428 34.6828L26.4542 34.709H26.5064V34.7743L26.5325 34.8266H26.5587L26.5848 34.8135L26.5195 34.7743L26.5979 34.6959L26.4934 34.5914L26.5325 34.5522L26.5195 34.4869L26.5456 34.3954L26.6763 34.3431L26.7024 34.4085L26.7546 34.3562L26.8069 34.3823L26.82 34.3431L26.9245 34.2909L26.9767 34.3431V34.2909H27.1074L27.1335 34.3301H27.1727L27.2642 34.3562V34.3823L27.2903 34.3562L27.3425 34.4085L27.4471 34.317V34.3301L27.5124 34.3039H27.5646L27.5908 34.2778L27.5254 34.2125L27.4993 34.1472L27.4732 34.121L27.3425 33.9642H27.434L27.4732 33.9381H27.4862L27.4601 33.8336L27.5516 33.7552H27.5646V33.729V33.6376L27.5385 33.5853L27.5646 33.5331V33.5069L27.5385 33.4416L27.5777 33.4024L27.6038 33.3371H27.6953H27.7083V33.324L27.6691 33.2848L27.7214 33.2326V33.0104H27.8651V32.9451L27.9566 32.919H27.9827L28.048 32.8537L28.1003 32.9059L28.1525 32.8537L28.2179 32.919H28.244L28.2701 33.0104L28.2962 33.0235L28.3224 33.0104L28.3746 33.0366L28.4008 32.9712L28.4399 33.0104L28.4791 32.9712L28.5183 32.9974L28.5445 32.9712L28.6098 32.9974L28.649 32.9843L28.6882 32.932L28.649 32.8145H28.8711L28.8841 32.8406H28.9103L28.9625 32.8667L28.9887 32.8406H29.0409L29.054 32.8275L29.0801 32.7622H29.1324V32.7491L29.1846 32.6969H29.2499L29.2891 32.6707H29.3806H29.3936L29.4198 32.6446L29.5243 32.6185L29.6027 32.6969L29.5635 32.8014L29.472 32.8406L29.4067 32.9451L29.4459 32.9582V33.0366L29.3414 33.1411L29.3675 33.1672L29.3153 33.324L29.263 33.2979L29.2891 33.324V33.3632L29.3545 33.3501L29.4459 33.4024L29.4982 33.4285L29.6288 33.5331L29.6419 33.5592L29.668 33.5723L29.6941 33.5984H29.7203H29.7856L29.8117 33.6245H29.8378H29.864L29.9162 33.6768H29.9293L29.9554 33.6507L30.073 33.7421H30.0991L30.1644 33.8336L30.1906 33.8858L30.2036 33.9512L30.269 34.0426L30.1775 34.0818L30.2036 34.121L30.1514 34.1733L30.1253 34.2255L30.0599 34.2909L30.0077 34.317L29.9815 34.3823H29.9162V34.3954L29.7856 34.3693L29.7725 34.3562H29.6157H29.6027H29.5243L29.4328 34.4085L29.3283 34.3823L29.2238 34.317L29.1716 34.2909L29.1324 34.2647L29.1062 34.2909L29.0148 34.2517L28.9495 34.1863V34.1733L28.8972 34.2255L28.8711 34.1994L28.8449 34.2255L28.7143 34.0949H28.6228L28.6098 34.0818L28.5837 34.0949H28.4791L28.4661 34.121L28.3616 34.1733H28.3093H28.2832L28.2701 34.1994L28.2179 34.2255L28.1787 34.2647L28.1525 34.3039V34.3562H28.0088L27.9174 34.3301L27.8259 34.4215H27.7998L27.8259 34.4477L27.6691 34.513H27.5646L27.5385 34.4999L27.4601 34.5261L27.434 34.4607L27.4079 34.5261V34.5391L27.4209 34.5522H27.434H27.63L27.4993 34.6828L27.5124 34.709L27.5777 34.6828V34.8135H27.8521L27.5254 34.9442V34.9703L27.5516 34.9572L27.643 34.9964L27.6953 35.1009L27.6691 35.1271L27.7083 35.1663L27.7345 35.1401V35.1924H27.8651L27.8259 35.2316H27.9566V35.3231L27.9827 35.3361L28.0088 35.31H28.035L28.0611 35.2839H28.0741L28.048 35.2185L28.2048 35.1793L28.2832 35.2055L28.3746 35.2447H28.4399L28.5183 35.3361L28.5445 35.3623L28.7012 35.3492L28.7535 35.3231H28.7666V35.31L28.8841 35.1793H28.9495L29.0278 35.2316L29.1062 35.1532L29.2369 35.2055V35.2969L29.1716 35.3623L29.2238 35.4145L29.1716 35.4668L29.2107 35.5321L29.2369 35.6105L29.2107 35.6628V35.7412L29.1846 35.8196L29.1585 35.9763L29.0801 36.0678V36.107L29.0148 36.1723L29.0017 36.303L28.9364 36.4206L28.8841 36.4859L28.858 36.5512L28.7666 36.5774L28.6359 36.5512L28.5314 36.5774V36.7733L28.5575 36.7995V36.8125L28.6228 36.8779V36.9432L28.6751 36.9693L28.7012 37.0347L28.7666 37.1L28.7927 37.0477V36.9955L28.8449 36.8648L28.8711 36.8387L29.0017 36.499V36.8517L28.9756 36.8909V37.0216L29.1324 37.0869L29.0801 37.1392L29.1454 37.2045L29.1585 37.2437L29.1846 37.2698L29.2107 37.309L29.2761 37.4658V37.5312L29.3153 37.5573L29.3414 37.6095L29.3936 37.6357L29.4328 37.7271L29.4851 37.7533L29.5243 37.8709L29.6027 37.9493L29.668 38.0015L29.7203 38.0668V38.0799H29.7856L29.8117 38.1452L29.8378 38.1714L29.864 38.2367L29.9032 38.2759L29.9162 38.302L29.9424 38.3282L29.9162 38.4458L29.9424 38.5111L29.9554 38.5764L30.0991 38.7201H30.1253H30.1906L30.2167 38.7724L30.2951 38.8377V38.8639L30.3604 38.89L30.3343 38.9553L30.3735 39.086L30.4257 39.1121V39.1774L30.5303 39.282H30.5825L30.6086 39.3865L30.674 39.3995L30.7262 39.5302L30.7523 39.5825L30.7785 39.7001V39.8176H30.7523L30.7785 39.8568L30.7915 40.0267L30.8438 40.079V40.2096L30.883 40.2488V40.2749L30.9483 40.3011L31.0006 40.2488H31.092L31.1312 40.1966V40.1704L31.2096 40.092H31.301L31.3272 40.1182H31.3794L31.4056 40.1443L31.4709 40.1182L31.5231 40.1051L31.6277 40.0267H31.7322L31.7844 39.9744L31.8106 40.0006L31.8628 39.9222L31.9281 39.896H31.9543L32.1372 39.8307L32.1633 39.8046L32.2939 39.7785L32.3593 39.7523L32.4115 39.7001H32.4507L32.4768 39.6217L32.5552 39.5302L32.6467 39.5041H32.6728L32.7251 39.4518L32.7512 39.4779V39.4518H32.7904L32.8557 39.4126H32.908L32.9602 39.3865L32.9864 39.3995V39.3081L33.0517 39.2428H33.0778L33.1431 39.2166V39.1774L33.2346 39.0598L33.326 39.0206L33.3391 39.0337H33.3783V39.0076H33.326L33.3783 38.89L33.326 38.8377H33.3914L33.4959 38.5633V38.7855L33.522 38.7593L33.5481 38.7855L33.5612 38.7593L33.6134 38.7071L33.6788 38.6156V38.5895V38.5633V38.5372H33.6657L33.5743 38.4719L33.5481 38.4196L33.4959 38.3674L33.4697 38.302L33.4436 38.2628H33.2476L33.1954 38.289L33.0909 38.2628L33.0647 38.289L32.9733 38.2498L32.8557 38.1452L32.8296 38.1191L32.7512 38.0277L32.7251 37.897L32.6989 37.8709L32.5944 37.9754L32.6467 38.0277L32.516 38.1583V38.1844H32.4638L32.3985 38.2106H32.3201L32.2939 38.1844H32.2678L32.2156 38.1714L32.1372 38.2367L32.0718 38.2106H32.0457L31.9412 38.2498L31.9151 38.1452H31.8889L31.8628 38.0799H31.8759V38.0277L31.8236 38.0799L31.7322 37.9885L31.706 37.9362L31.6015 37.8186L31.5101 37.5965L31.484 37.5704L31.4056 37.492L31.3402 37.4658L31.288 37.3352L31.2749 37.309L31.2488 37.2829L31.1051 37.1392H31.1573L31.0006 37.0347L31.1965 37.0085V36.9824V36.9301V36.904L31.0006 36.8256H31.2357L31.3533 36.708V36.8125H31.3794L31.4056 36.8387L31.4578 36.7864L31.484 36.8387L31.5231 36.7995L31.5885 36.8648L31.6538 36.9301V36.9563L31.7191 37.0347L31.7322 37.0608H31.7452L31.7714 37.1H31.9281L31.9412 37.1131L31.9804 37.0739L32.0327 37.2045L32.0718 37.309L32.1372 37.296L32.2156 37.3221H32.2809L32.307 37.3482H32.3462L32.4246 37.4266L32.4115 37.4397L32.4638 37.4658H32.516L32.5683 37.492L32.6206 37.4658L32.712 37.492L32.7643 37.5181L32.7904 37.492L32.8818 37.4266H32.921L32.9602 37.4005L33.0255 37.3744L33.1562 37.4005H33.1823V37.4266L33.2084 37.4789L33.2346 37.5442L33.2868 37.6226V37.6487H33.4305L33.4436 37.6618L33.4567 37.6487H33.522L33.5743 37.6879L33.6657 37.6749L33.718 37.701H33.8225H33.8355L33.8617 37.6749L33.8878 37.6879L33.8747 37.6618H33.9792L34.0054 37.7271H34.0184L34.0576 37.7402L34.0838 37.7141H34.2013V37.7402H34.2275L34.2667 37.7141H34.3581V37.6879L34.4234 37.6226L34.4496 37.6357H34.541L34.5671 37.6618H34.6063L34.6194 37.6749L34.6455 37.6487H34.75L34.7762 37.6618L34.8023 37.6487H34.8284L34.8807 37.5965L34.9329 37.6487H34.946L34.9721 37.6357H35.0636L35.1289 37.701L35.155 37.7663H35.2204L35.3118 37.7402V37.8447L35.3379 37.8709L35.3641 37.9362L35.3902 37.9623L35.4033 37.9885H35.4555L35.5208 38.0277L35.56 38.0015L35.6254 37.9754L35.6776 38.093L35.6515 38.106L35.6384 38.1191L35.6776 38.1714L35.7952 38.2106L35.8605 38.1714V38.1191H36.0565L35.9912 38.2759H35.7691L35.7299 38.3282H35.7821L35.756 38.3543V38.3804V38.4458L35.8083 38.498L35.952 38.6025H35.9781H36.0042L36.1087 38.5372L36.1349 38.5111L36.1741 38.4458V38.4327L36.1218 38.3804L36.1871 38.2759V37.897L36.3047 38.1844H36.3308L36.357 38.2106L36.6444 38.093L36.37 38.3674L36.7228 38.5111H36.3439V38.5372L36.357 38.5503L36.3831 38.6156V38.6809L36.37 38.7071L36.5137 38.7724L36.3831 38.8377L36.4354 38.9553V39.0076L36.4615 39.0729L36.4354 39.099L36.5399 39.2558H36.4745V39.282L36.5399 39.4387V39.5433L36.566 39.5955L36.6183 39.6217L36.6444 39.687L36.6705 39.7131V39.7393V39.7654H36.6966V39.8046L36.7097 39.8176H36.762V39.9352L36.7881 40.0006L36.8012 40.0528L36.8403 40.1443L36.8665 40.1966L36.8795 40.2619L36.8926 40.2749L36.9187 40.3272L36.9449 40.3533H36.971L37.0363 40.4317L37.1016 40.5101L37.1278 40.5755H37.1539V40.6669L37.1931 40.7322L37.2192 40.8237V40.889L37.2845 41.0066L37.3237 41.0458L37.376 40.9936L37.4021 40.9282L37.4936 40.8629H37.5197L37.5458 40.8368L37.5589 40.8106L37.6111 40.7061L37.7026 40.68L37.6895 40.5624L37.6634 40.5101V40.3664L37.7157 40.2749L37.7418 40.1704V40.1051L37.6895 40.079V39.883L37.6634 39.8046L37.7026 39.7654L37.6765 39.687L37.7026 39.6217L37.794 39.5302H37.8855V39.5041L37.9639 39.4257L38.0553 39.4518L38.0815 39.4257L38.0684 39.3995L38.0945 39.3212L38.1599 39.2558L38.2252 39.2428L38.2513 39.2166L38.2774 39.1644L38.4603 39.0206L38.4995 38.9422L38.5257 38.9161L38.5779 38.7724H38.6563L38.6955 38.7463H38.7608L38.7869 38.7724H38.8131L38.8392 38.7463L38.7739 38.6809H38.9045V38.6679L38.9176 38.6548V38.694V38.6679L38.8784 38.6287L38.9306 38.498L38.9698 38.4588L39.0874 38.4196L39.1005 38.4066V38.3674V38.2628H39.2181L39.2834 38.289V38.2367L39.3879 38.3412H39.4271L39.4924 38.2759L39.4794 38.2498H39.5316L39.6884 38.093L39.819 38.0668L39.8321 38.093L39.8452 38.106H39.8713L39.8974 38.1322L39.9235 38.1452H39.9497L39.9758 38.1322L39.9627 38.1452H40.015L40.0803 38.302L40.1064 38.3282V38.3412L40.1326 38.3151V38.5111L40.1587 38.5372L40.1848 38.5764H40.211V38.5895L40.2763 38.6156V38.5633L40.3285 38.6156H40.4984L40.2371 38.694H40.2502L40.2632 38.7071L40.3155 38.7332L40.3808 38.8116V38.9031L40.4069 38.9292V38.9945L40.4331 39.0598V39.086L40.5376 39.1252L40.4984 39.1644V39.2558L40.5245 39.3081L40.5768 39.1513V39.3734L40.5898 39.3865L40.5768 39.3995V39.5563L40.6029 39.6086H40.629L40.6682 39.5825L40.6943 39.5041L40.6682 39.4518H40.7989V39.4126L40.6029 39.2166L40.9818 39.3734V39.3995L41.0079 39.4257L41.0471 39.491L41.0601 39.5041L41.1647 39.3995V39.5825V39.5955V39.6609L41.1777 39.6739L41.1908 39.7785V39.8699L41.3214 40.0006H40.9818V40.0267L41.0601 40.1051L41.0863 40.1443L41.1124 40.1704L41.1385 40.288L41.1516 40.3011L41.1908 40.3925L41.1647 40.4187V40.4317V40.4579L41.2561 40.5493L41.23 40.5755L41.2561 40.6277L41.2039 40.68V40.7453H41.2822V40.693L41.3345 40.6408L41.3606 40.4971L41.4129 40.4448L41.439 40.4056L41.4782 40.3664L41.4521 40.3403L41.5043 40.288V40.2619V40.2357L41.3998 40.1966L41.4651 40.1312V39.9744L41.5566 40.0659L41.5827 40.0398L41.6219 40.079L41.6742 40.0528L41.7003 40.079H41.7264L41.7917 40.1051L41.8571 40.1704L41.8048 40.2227V40.2357L41.8309 40.2749L41.9093 40.3011L41.9616 40.3533L41.9877 40.3664L42.1053 40.484H42.1706L42.2359 40.5755V40.6016L42.2882 40.7322L42.3927 40.6277V40.7322H42.6671V40.7061H42.7716H42.7846L42.8892 40.6016V40.7192L42.9153 40.7453L42.9806 40.7192L43.0067 40.693V40.6669L43.1113 40.6277L43.1504 40.5885L43.1635 40.5493L43.1896 40.484L43.1635 40.4056L43.2027 40.3925V40.3795V40.3011L43.2288 40.2749V40.2619L43.2027 40.2357V40.1704L43.1766 40.1051L43.2027 40.079L43.1766 40.0398L43.2027 40.0136L43.1766 39.9483L43.1504 39.9222L43.1243 39.8568L43.059 39.7915L43.0851 39.7654L43.0459 39.7262V39.7131L43.0198 39.6478L42.9937 39.6217L42.9022 39.5563L42.8892 39.5171L42.8108 39.4649L42.6671 39.3995V39.6609L42.5364 39.3603L42.4711 39.295L42.4319 39.2689L42.249 39.2036L42.3405 39.1644L42.3666 39.099V38.9945L42.3927 38.9684L42.4188 38.9292L42.4842 38.8639L42.5103 38.89V38.8247L42.458 38.7724L42.5103 38.7201V38.6679H42.5887L42.6409 38.6156L42.7063 38.5895H42.7454L42.6801 38.5241H42.8369L42.8892 38.4719L42.9022 38.485L42.9675 38.3282L43.0329 38.485L43.0459 38.4719L43.0851 38.5111L43.1113 38.4588L43.1896 38.485L43.255 38.4588L43.3203 38.5241V38.5633L43.3464 38.5372L43.268 38.4588H43.4248L43.5293 38.3543V38.4196H43.6992L43.7514 38.3935L43.7775 38.4066L43.8037 38.3935L43.8298 38.3674V38.3412V38.1844L43.9212 38.2759L43.8951 38.2367V38.0799L44.0388 38.1452L44.0911 38.1975L44.1303 38.1844L44.1825 38.1322L44.2217 38.1714V38.1583H44.3132H44.3393L44.4046 38.093L44.3001 37.8055L44.4961 38.0015L44.5614 37.9754V37.9493H44.5875L44.6137 37.9101H44.6398L44.483 37.7533H44.6137L44.7312 37.4658L44.7704 37.4528L44.7443 37.4266H44.6398L44.692 37.3744L44.6528 37.3352H44.7182L44.7966 37.2568V37.2437H44.8488L44.9272 37.0477L44.9533 37.1V37.0739L44.9795 37.0216L44.9664 37.0085L45.0056 36.9693H44.9403V36.8648L45.0056 36.7995V36.7472L44.9664 36.708L45.0056 36.695V36.6427L44.9795 36.6688L44.888 36.6296L44.8619 36.6035L44.8488 36.6166L44.7182 36.9563V36.6688L44.5614 36.7342L44.7182 36.5774V36.5643L44.7835 36.499L44.692 36.3814L44.888 36.4598L44.9403 36.4075H44.9533L44.9795 36.3683H44.9925L44.9795 36.3422L44.888 36.2769L44.8227 36.2246L44.7704 36.1723L44.7182 36.1985L44.6398 36.1723L44.5745 36.1201H44.5614L44.5091 36.0939L44.1172 36.6166L44.4046 35.9633L44.5091 35.9241L44.5745 35.9502L44.6659 35.9241L44.679 35.9502L44.7966 35.9763L44.7312 35.8849V35.8326L44.6659 35.7804V35.7412L44.6006 35.715L44.6267 35.6497L44.5875 35.5713L44.5222 35.5452L44.4177 35.5844V35.4929L44.3132 35.4537V35.2969L44.3262 35.2447L44.3001 35.1924L44.3654 35.0225L44.4308 35.0879L44.4438 35.0748L44.4177 35.0487L44.5222 34.9442H44.5353V34.918H44.5614L44.4961 34.8527L44.6528 34.7874L44.679 34.8004H44.7182L44.7312 34.7874H44.5745L44.5091 34.722L44.4961 34.6959L44.4699 34.709V34.7351L44.4438 34.7612L44.4046 34.8527L44.3393 34.918L44.274 34.8919L44.2479 34.905H44.1433L44.078 34.7482V34.8396L44.0258 34.7743L43.9996 34.8004V34.7351L43.9343 34.6567L43.9212 34.6436L43.869 34.6175L43.7906 34.5914V34.5261L43.7645 34.4607L43.7906 34.4346V34.4085L43.8167 34.3823V34.3431L43.8429 34.317V34.2255L43.9996 34.2517L43.9343 34.1863H43.9996L44.0388 34.1472L44.065 34.0296L44.1695 33.9642H44.1956L44.2217 33.9381V33.8728L44.274 33.8205H44.2609L44.287 33.7944L44.3132 33.729H44.4177L44.4569 33.6245L44.5614 33.7813L44.679 33.8597V33.9642L44.6267 34.0165L44.6006 34.0426V34.0949L44.7704 33.925L44.7182 34.0296H44.7835L44.8619 33.9642L44.9011 33.9904H44.9141L45.0056 33.8597L45.0578 33.9773H45.084L45.1624 34.0034H45.1754L45.2016 33.9773H45.3322L45.2799 34.108L45.293 34.1341L45.2407 34.2125V34.2517H45.2538L45.4498 34.1733H45.4367L45.3975 34.0426L45.4106 34.0296V34.0165V33.9512L45.4759 33.8989L45.502 33.8466L45.5804 33.8205H45.6066H45.6196V33.7944L45.698 33.716L45.6719 33.6899L45.7372 33.6376V33.52L45.698 33.4808V33.3763L45.7241 33.2718V33.1672H45.7764L45.8417 33.1019H45.8548L45.8678 33.0627L45.9332 33.0366V33.0104L45.9462 32.9974V32.932L45.9854 32.8928V32.8537L46.0507 32.7883L46.1161 32.8145L46.1814 32.7883L46.2467 32.8537V32.9059H46.2728L46.2859 32.932L46.312 32.9059L46.3382 32.932L46.3904 32.9059L46.4165 32.8798H46.4557L46.4819 32.8537L46.508 32.8275L46.4557 32.7753L46.5472 32.7361L46.4819 32.5662L46.5994 32.6185V32.5923L46.6256 32.5662V32.5009L46.6648 32.4747V32.4486L46.704 32.4225L46.7301 32.331L46.7432 32.318L46.7823 32.1612L46.8085 32.1089V32.0566L46.8607 32.0044H46.8869L46.913 31.9652L46.8869 31.8607L46.9391 31.8084L46.913 31.7169L46.9652 31.6647V31.5863H47.1351L47.1481 31.5601V31.4948L47.1873 31.4556L47.1612 31.3642L47.1873 31.2988V31.2335H47.1351V31.2596ZM26.5456 29.5088L26.5587 29.4958V29.4696C26.5587 29.4827 26.5587 29.4958 26.5456 29.5088ZM42.5625 40.876L42.5756 40.8629L42.5234 40.8498L42.5756 40.9021V40.9282L42.6017 40.9152L42.6409 40.9282H42.6671L42.5625 40.876ZM41.2561 40.7976V40.8629H41.2822V40.8368L41.2561 40.7976ZM45.9201 40.5885H45.894V40.6408H45.907V40.6277L45.9332 40.6016L45.9201 40.5885ZM46.3904 40.3925V40.4187L46.4165 40.4448L46.4427 40.4709V40.4579L46.3904 40.3925ZM45.5804 40.0006H45.6066L45.6196 39.9875L45.6327 40.0006V39.9352L45.5804 40.0006ZM45.7372 39.3995L45.7111 39.3865L45.6719 39.282V39.2558L45.5804 39.2297L45.5412 39.1905H45.5151V39.2036L45.4628 39.2689V39.282V39.3865V39.4779L45.4498 39.5041L45.4759 39.5563V39.6217L45.4236 39.6478L45.4106 39.7001V39.7262L45.4367 39.7785V39.8046H45.502V39.8307H45.5543L45.6066 39.896L45.5935 39.8568V39.7915L45.6066 39.7654L45.5804 39.7131L45.698 39.5955L45.7372 39.5302V39.5041V39.4518V39.3995ZM43.5685 38.8247L43.5032 38.8508L43.4771 38.8247L43.4379 38.8508L43.4117 38.8247H43.3987H43.3333H43.3072L43.2942 38.8639L43.2288 38.9161L43.2027 38.9422V38.9553V39.0206L43.2158 39.0598L43.2419 39.086H43.268L43.2942 39.1121H43.3464V39.086L43.4248 39.0598V39.0337L43.4901 39.0076V38.9814L43.5162 38.9031L43.5424 38.8769L43.5685 38.8377V38.8247ZM43.2811 38.5895V38.6287H43.2158V38.6548L43.2419 38.6809L43.268 38.7071L43.3203 38.6548L43.2811 38.5895ZM45.4498 37.7141L45.4236 37.6879L45.3975 37.7141L45.3714 37.7402L45.3975 37.7533L45.3453 37.8317V37.8578L45.293 37.9362L45.2669 37.9885V38.1191H45.293V38.1844H45.3322V38.2367L45.3714 38.1714L45.4106 38.1191L45.3845 38.106L45.4106 37.9885V37.9623V37.8839L45.4367 37.8317L45.4498 37.7533V37.7141ZM39.5577 38.1452V38.2106H39.5708L39.5577 38.1452ZM44.6528 37.6879L44.5745 37.7663H44.6137L44.679 37.701L44.6528 37.6879ZM44.7312 37.6226L44.7443 37.5965L44.679 37.6487L44.7443 37.6226H44.7312ZM46.9652 35.8196L47.0044 35.7804H46.9914V35.7412H46.9652L46.913 35.6497H46.8738L46.8346 35.5974H46.8085V35.6236L46.7693 35.6497L46.8085 35.6889L46.8477 35.7542L46.8738 35.8196V35.8849L46.8607 35.9371L46.9783 36.0417L46.9652 36.0155L46.9914 35.8979L46.9652 35.8196ZM24.7166 35.6628V35.5713H24.6905L24.6251 35.4668L24.6513 35.3753L24.6643 35.3623L24.6382 35.3361L24.599 35.2708L24.586 35.2577C24.5598 35.4798 24.5468 35.715 24.5206 35.9371L24.6382 35.8718L24.6513 35.8588L24.6251 35.8326L24.6774 35.7804L24.7166 35.6628ZM28.7404 35.8718H28.7274L28.6751 35.8979H28.7404L28.7666 35.8718H28.7404ZM47.1873 35.5452V35.5713L47.2135 35.6105L47.2396 35.5582L47.2527 35.5452H47.1873ZM47.4225 35.4537L47.3964 35.4276L47.3702 35.4407V35.4798H47.4094H47.4225L47.4486 35.4537V35.4407L47.4225 35.4537ZM48.4676 34.0296V34.0034L48.4546 33.9512V33.925L48.4285 33.8466L48.4154 33.8205H48.3893L48.3631 33.7552L48.3501 33.6899L48.337 33.6637L48.2456 33.5723L48.1672 33.6376L48.141 33.6115V33.6376L48.1672 33.7029L48.1541 33.7552L48.1933 33.8466L48.2194 33.9512L48.1933 34.0165L48.2194 34.0949L48.1802 34.2255L48.2064 34.2909L48.141 34.3823L48.1149 34.4085V34.4346V34.4999L48.0888 34.5391L48.0757 34.6044L48.0104 34.6436L47.9059 34.709H47.8798L47.8536 34.7743L47.7491 34.722V34.7743L47.7099 34.8396V34.8658L47.6838 34.8919L47.6969 34.905V34.918H47.7622L47.6969 35.0095L47.723 35.0356L47.5923 35.114L47.5662 35.0879H47.5401H47.4617V35.0487L47.3964 35.0748L47.331 35.1009H47.2919L47.2396 35.114L47.1743 35.1401L47.1481 35.114L47.122 35.1401L47.109 35.1924L47.0828 35.2185L46.9914 35.31L46.9652 35.3361L46.9522 35.3492L46.9261 35.4015L46.8738 35.4276L46.9391 35.4015H46.9652V35.3753L46.9914 35.31H47.0567L47.0828 35.3231H47.109H47.1743L47.2396 35.2969H47.2657L47.318 35.2708V35.2577L47.4094 35.2055L47.4617 35.1793H47.5793L47.6446 35.2316V35.2969L47.6185 35.3361V35.3753L47.6969 35.4537H47.6707L47.6838 35.519L47.6969 35.4929V35.4668L47.723 35.4407V35.4145L47.7622 35.3492L47.7099 35.2969L47.736 35.1924L47.7883 35.1401H47.9843L47.9451 35.1793L48.0235 35.1924V35.1271L48.1149 35.0748H48.1802L48.1933 35.0617L48.2194 35.0487L48.2717 34.9311L48.337 34.905H48.4285L48.3893 34.8396V34.6175L48.4154 34.5391L48.3762 34.4346L48.3239 34.3562V34.2909L48.337 34.1863L48.4154 34.1472V34.121V34.0949V34.0165L48.4676 34.0296ZM25.2914 35.4276L25.3306 35.2969H25.3176L25.2914 35.3231H25.1869L25.1216 35.3492L25.0432 35.3361L25.0693 35.3623L25.1216 35.3884L25.1477 35.4145L25.213 35.4407L25.2522 35.4276L25.3176 35.4929L25.3306 35.519L25.3437 35.4929V35.4798L25.2914 35.4276ZM46.1291 35.0487V35.0095L46.0377 35.1009V34.905L46.0246 34.8004L45.9724 34.7482V34.6567L45.8809 34.5391L45.8025 34.4607L45.6066 34.5391L45.6588 34.6175L45.7241 34.6828L45.698 34.709L45.7633 34.8658L45.6588 34.8396L45.6719 34.8658V34.8788L45.7633 35.0356L45.698 35.0879V35.1663L45.6719 35.1924L45.698 35.2577V35.2055L45.7894 35.2969L45.8809 35.2185L45.9332 35.1924L45.9462 35.1663H46.0377L46.103 35.1009H46.1291L46.103 35.0748L46.1291 35.0487ZM26.5979 35.0617L26.624 35.0879L26.6371 35.0617H26.5979ZM26.7546 35.114L26.7024 35.0617L26.7808 35.0356H26.7677L26.6893 35.0617L26.6632 35.0487H26.6501L26.7154 35.2055L26.7416 35.2185L26.7677 35.2447L26.7416 35.1924L26.7546 35.114ZM48.4546 35.0356V35.0487L48.4676 35.0356H48.4546ZM25.605 34.9964V35.0225L25.6311 35.0095V34.9834L25.605 34.9964ZM48.4546 34.918V34.9572L48.4676 34.9442L48.4546 34.918ZM25.6964 34.7874H25.6311L25.618 34.7743L25.6311 34.8266L25.6572 34.8788H25.6442V34.905L25.6834 34.8658L25.7095 34.8135L25.6964 34.7874ZM25.6442 34.3301L25.5788 34.317H25.5135L25.4743 34.2255V34.1994H25.4613H25.3568L25.3437 34.1733L25.2914 34.1472L25.2653 34.0949L25.2261 34.0688L25.1347 33.9904L25.1085 33.925V33.8989L25.0824 33.8728V33.8205L24.9779 33.6899L24.9648 33.6637H24.9387L24.8342 33.6245C24.808 33.7552 24.7689 33.8858 24.7427 34.0296L24.7689 34.0688L24.7819 34.0818L24.8472 34.1863L24.9126 34.2255L25.0171 34.2647L25.0824 34.2909H25.1477L25.213 34.3693L25.3045 34.4085H25.3698L25.409 34.4869V34.513H25.4221L25.4351 34.5522L25.5397 34.6044L25.5527 34.6828V34.6306L25.618 34.6044V34.4869L25.6442 34.4607L25.6703 34.4215L25.7226 34.3823L25.6442 34.3301ZM45.7633 34.4477L45.698 34.2909V34.2647L45.5543 34.1994L45.5412 34.1733L45.3453 34.3693H45.3191V34.4215H45.3322L45.3975 34.3562L45.4759 34.4346H45.8025L45.7633 34.4477ZM44.6006 34.0949V34.108L44.6137 34.0949H44.6006ZM28.7143 33.2326L28.6228 33.324L28.6098 33.3371L28.662 33.3109L28.7404 33.2456L28.7143 33.2326ZM47.9973 33.2064V33.2195H48.0104L47.9973 33.2064ZM28.5837 33.1672L28.5445 33.1803L28.6228 33.2195L28.649 33.1672V33.1019L28.5837 33.1672ZM48.6897 32.723L48.6114 32.6838V32.6577L48.5852 32.6707H48.4415L48.4154 32.6315H48.3762L48.2978 32.5923L48.2847 32.5662H48.2456L48.2064 32.5009L48.1541 32.4747L48.0627 32.3833L48.0496 32.3441H48.0235L47.9843 32.318L48.0365 32.3964L48.0627 32.4617L48.0757 32.5401V32.5662V32.5923L48.128 32.723H48.0757V32.7491H48.0888L48.1541 32.8406L48.1018 32.8667V32.8928L48.0365 32.9582L47.9843 32.932V32.9582L48.0496 33.0104L48.0627 32.9974L48.128 32.9451H48.2194L48.2847 32.919L48.3501 33.0104L48.3762 33.0366L48.4285 33.0627L48.4415 32.9974L48.4676 32.9059L48.533 32.8667L48.5983 32.8275L48.6897 32.7883V32.723ZM47.932 31.6516L47.9059 31.6255H47.8798L47.8536 31.5863V31.5993V31.6124L47.9189 31.6777L47.9059 31.7431L47.9581 31.7169V31.6647L47.932 31.6516ZM47.8536 30.8154V30.8023L47.8014 30.7893V30.7239L47.7491 30.6717L47.6969 30.5672L47.6707 30.528L47.6054 30.4365L47.5793 30.3712L47.5531 30.345V30.3189H47.4878L47.4617 30.2275L47.3964 30.1621L47.3702 30.1099L47.3441 30.0707V29.8747H47.318L47.2527 29.8094V29.7832L47.2265 29.7571V29.6787H47.2135L47.1873 29.6395V29.6787L47.109 29.7048H47.0959V29.744L47.122 29.7702L47.1873 29.8485V29.9269V30.0053L47.2265 30.0968V30.1229L47.2788 30.1491L47.3049 30.2405L47.318 30.2666L47.3702 30.2928L47.4356 30.3842V30.5149L47.4617 30.5672V30.5933L47.5401 30.6717L47.514 30.7109L47.5531 30.7631L47.5793 30.8154V30.8677L47.6054 30.933V31.0637L47.6838 31.1159L47.6707 31.1682L47.6969 31.1812L47.7752 31.2466V31.2335L47.736 31.1812L47.7622 31.0898V31.0767L47.736 31.0114L47.7622 30.9591L47.6969 30.8677H47.8798H47.9059L47.8536 30.8154ZM26.4803 29.8485V29.8747H26.5064L26.4803 29.8485ZM26.5456 29.5088L26.5587 29.4827C26.5587 29.4827 26.5587 29.4958 26.5456 29.5088ZM28.4138 27.9671V27.954H28.3485L28.3746 27.9671L28.4269 28.0194L28.453 28.0063L28.4138 27.9671ZM29.9032 26.4515H29.877L29.864 26.4776V26.5429L29.8901 26.5952H29.9293L29.9554 26.5821L29.9815 26.556V26.5299V26.5037L29.9032 26.4515ZM30.883 25.7198L30.8307 25.6675L30.7785 25.6283L30.7001 25.6022H30.6217C30.5956 25.6153 30.5694 25.6283 30.5433 25.6545L30.5694 25.6806L30.5956 25.6545L30.7523 25.7198V25.7329L30.8046 25.6806L30.8307 25.7459L30.8699 25.759L30.8961 25.7329L30.883 25.7198ZM30.478 25.7067H30.4649V25.7329L30.478 25.7459H30.5041V25.6937L30.478 25.7067Z" fill="url(#paint7_radial)"/>
<path d="M28.8456 38.5632C30.4656 38.9421 32.177 39.2035 33.9407 39.3602C34.2542 43.0578 35.1687 46.5986 36.5536 49.8912C36.6711 49.9042 36.7757 49.9173 36.8932 49.9173C35.4953 46.6378 34.5808 43.1101 34.2542 39.3864C35.3516 39.4648 36.4621 39.517 37.5987 39.517C40.0287 39.517 42.3672 39.308 44.6012 38.916C43.9611 43.5543 41.2567 47.5524 37.4681 49.9434C37.5334 49.9434 37.5987 49.9434 37.664 49.9434C37.7947 49.9434 37.9123 49.9434 38.0429 49.9434C41.7271 47.474 44.3138 43.489 44.9278 38.8768C47.0312 38.4979 49.017 37.9361 50.846 37.2567C50.846 37.1521 50.846 37.0476 50.846 36.93C49.017 37.6225 47.0443 38.1713 44.954 38.5632C45.0193 37.9883 45.0454 37.4004 45.0454 36.8124C45.0454 31.2726 42.1713 26.386 37.8339 23.5508C37.7686 23.5508 37.7032 23.5508 37.6379 23.5508C37.5073 23.5508 37.3897 23.5508 37.259 23.5508C41.7401 26.2684 44.7188 31.1942 44.7188 36.7863C44.7188 37.4004 44.6796 38.0014 44.6143 38.5894C42.3803 38.9944 40.0156 39.2035 37.5726 39.2035C36.436 39.2035 35.3124 39.1512 34.202 39.0728C34.1236 38.1582 34.0975 37.2305 34.0975 36.3029C34.0975 31.8214 34.9597 27.5358 36.4882 23.59C36.3707 23.603 36.2661 23.6161 36.1486 23.6292C34.62 27.5619 33.7839 31.8344 33.7839 36.3029C33.7839 37.2305 33.8231 38.1451 33.8884 39.0597C32.1117 38.9029 30.4133 38.6286 28.7802 38.2627C28.728 37.7532 28.7019 37.2697 28.7019 36.7602C28.7019 31.2726 31.576 26.4252 35.9003 23.6814C35.6521 23.7076 35.417 23.7598 35.1818 23.799C31.0796 26.6604 28.4014 31.4032 28.4014 36.7732C28.4014 37.2567 28.4275 37.7401 28.4667 38.2105C27.0688 37.8838 25.7101 37.4657 24.4429 36.9954C24.4429 37.0999 24.4429 37.2044 24.4559 37.322C25.7232 37.8054 27.0949 38.2105 28.4928 38.5371C29.0023 43.1493 31.5238 47.1735 35.1687 49.7213C35.4039 49.7736 35.6521 49.7997 35.8873 49.8389C32.0986 47.3695 29.4073 43.293 28.8456 38.5632Z" fill="url(#paint8_radial)"/>
<path d="M44.8907 36.4205C45.1724 36.4205 45.4007 36.1923 45.4007 35.9109C45.4007 35.6295 45.1724 35.4014 44.8907 35.4014C44.6091 35.4014 44.3807 35.6295 44.3807 35.9109C44.3807 36.1923 44.6091 36.4205 44.8907 36.4205Z" fill="url(#paint9_radial)"/>
<path d="M40.526 26.6866C40.8077 26.6866 41.036 26.4585 41.036 26.177C41.036 25.8956 40.8077 25.6675 40.526 25.6675C40.2443 25.6675 40.016 25.8956 40.016 26.177C40.016 26.4585 40.2443 26.6866 40.526 26.6866Z" fill="url(#paint10_radial)"/>
<path d="M42.2118 46.1545C42.6087 46.1545 42.9304 45.8328 42.9304 45.4359C42.9304 45.039 42.6087 44.7173 42.2118 44.7173C41.815 44.7173 41.4933 45.039 41.4933 45.4359C41.4933 45.8328 41.815 46.1545 42.2118 46.1545Z" fill="url(#paint11_radial)"/>
<path d="M34.1125 39.9746C34.5454 39.9746 34.8963 39.6236 34.8963 39.1907C34.8963 38.7577 34.5454 38.4067 34.1125 38.4067C33.6796 38.4067 33.3286 38.7577 33.3286 39.1907C33.3286 39.6236 33.6796 39.9746 34.1125 39.9746Z" fill="url(#paint12_radial)"/>
<path d="M34.7143 29.7785C35.0793 29.7785 35.3753 29.4828 35.3753 29.118C35.3753 28.7532 35.0793 28.4575 34.7143 28.4575C34.3492 28.4575 34.0532 28.7532 34.0532 29.118C34.0532 29.4828 34.3492 29.7785 34.7143 29.7785Z" fill="url(#paint13_radial)"/>
<path d="M29.7096 43.3195C30.0635 43.3195 30.3504 43.0329 30.3504 42.6793C30.3504 42.3257 30.0635 42.0391 29.7096 42.0391C29.3557 42.0391 29.0688 42.3257 29.0688 42.6793C29.0688 43.0329 29.3557 43.3195 29.7096 43.3195Z" fill="url(#paint14_radial)"/>
<defs>
<linearGradient id="paint0_linear" x1="3.10438" y1="28.1597" x2="36.5153" y2="28.1597" gradientUnits="userSpaceOnUse">
<stop stop-color="#E7EFF5"/>
<stop offset="0.1188" stop-color="#C3C5D2"/>
<stop offset="0.2164" stop-color="#C6C8D5"/>
<stop offset="0.2858" stop-color="#CED3DD"/>
<stop offset="0.3368" stop-color="#DFE6EE"/>
<stop offset="0.375" stop-color="#DDE4EC"/>
<stop offset="0.4851" stop-color="#98A5B5"/>
<stop offset="0.995" stop-color="#7E8EA0"/>
</linearGradient>
<linearGradient id="paint1_linear" x1="0.859659" y1="28.1597" x2="38.7003" y2="28.1896" gradientUnits="userSpaceOnUse">
<stop stop-color="#3E4967"/>
<stop offset="0.356509" stop-color="#2E354E"/>
<stop offset="0.40366" stop-color="#2E3851"/>
<stop offset="0.460271" stop-color="#1E202C"/>
<stop offset="1" stop-color="#262939"/>
</linearGradient>
<linearGradient id="paint2_linear" x1="4.9838" y1="11.062" x2="36.2039" y2="5.17541" gradientUnits="userSpaceOnUse">
<stop stop-color="#4E5873"/>
<stop offset="0.995" stop-color="#2A3551"/>
</linearGradient>
<linearGradient id="paint3_linear" x1="4.9838" y1="10.3482" x2="36.2039" y2="4.46155" gradientUnits="userSpaceOnUse">
<stop stop-color="#697698"/>
<stop offset="0.995" stop-color="#384464"/>
</linearGradient>
<linearGradient id="paint4_linear" x1="2.11499" y1="30.0628" x2="13.5798" y2="30.4776" gradientUnits="userSpaceOnUse">
<stop stop-color="#6C7699"/>
<stop offset="1" stop-color="#6A7497"/>
</linearGradient>
<linearGradient id="paint5_linear" x1="3.50325" y1="22.6324" x2="10.9705" y2="22.6324" gradientUnits="userSpaceOnUse">
<stop stop-color="#2ED8CF"/>
<stop offset="0.995" stop-color="#1CBEB6"/>
</linearGradient>
<radialGradient id="paint6_radial" cx="0" cy="0" r="1" gradientUnits="userSpaceOnUse" gradientTransform="translate(34.5898 32.7875) scale(15.1205 15.122)">
<stop offset="0.1458" stop-color="#96A1BB"/>
<stop offset="0.8886" stop-color="#5F6A8D"/>
<stop offset="1" stop-color="#4E5E83"/>
</radialGradient>
<radialGradient id="paint7_radial" cx="0" cy="0" r="1" gradientUnits="userSpaceOnUse" gradientTransform="translate(33.6492 31.9118) scale(17.0527 17.0543)">
<stop offset="0.21875" stop-color="#F3F5F7" stop-opacity="0.5"/>
<stop offset="0.614583" stop-color="#D5D9DF" stop-opacity="0.2"/>
<stop offset="1" stop-color="#D4D8DE" stop-opacity="0"/>
</radialGradient>
<radialGradient id="paint8_radial" cx="0" cy="0" r="1" gradientUnits="userSpaceOnUse" gradientTransform="translate(37.6687 36.7376) scale(13.1969 13.1982)">
<stop stop-color="#24DEDD"/>
<stop offset="0.859375" stop-color="#24D2D1"/>
<stop offset="1" stop-color="#25DFDE" stop-opacity="0"/>
</radialGradient>
<radialGradient id="paint9_radial" cx="0" cy="0" r="1" gradientUnits="userSpaceOnUse" gradientTransform="translate(44.8969 35.9166) scale(0.511189 0.51075)">
<stop offset="0.2738" stop-color="white"/>
</radialGradient>
<radialGradient id="paint10_radial" cx="0" cy="0" r="1" gradientUnits="userSpaceOnUse" gradientTransform="translate(40.5322 26.1827) scale(0.511188 0.51075)">
<stop offset="0.2738" stop-color="white"/>
</radialGradient>
<radialGradient id="paint11_radial" cx="0" cy="0" r="1" gradientUnits="userSpaceOnUse" gradientTransform="translate(42.2148 45.4334) scale(0.713854)">
<stop stop-color="white"/>
</radialGradient>
<radialGradient id="paint12_radial" cx="0" cy="0" r="1" gradientUnits="userSpaceOnUse" gradientTransform="translate(34.1157 39.188) scale(0.778751)">
<stop stop-color="white"/>
</radialGradient>
<radialGradient id="paint13_radial" cx="0" cy="0" r="1" gradientUnits="userSpaceOnUse" gradientTransform="translate(34.717 29.1157) scale(0.656729 0.656165)">
<stop stop-color="white"/>
</radialGradient>
<radialGradient id="paint14_radial" cx="0" cy="0" r="1" gradientUnits="userSpaceOnUse" gradientTransform="translate(29.7174 42.6864) scale(0.642262 0.64171)">
<stop offset="0.2738" stop-color="white"/>
</radialGradient>
</defs>
</svg>
