<svg width="60" height="61" viewBox="0 0 60 61" fill="none" xmlns="http://www.w3.org/2000/svg">
<path d="M52.7082 61H7.24681C3.26332 61 0 57.7355 0 53.728V8.24953C0 4.26454 3.26332 1 7.26932 1H52.7307C56.7142 1 60 4.26454 60 8.27204V53.7505C59.9775 57.7355 56.7142 61 52.7082 61Z" fill="url(#paint0_linear)"/>
<g filter="url(#filter0_d)">
<ellipse cx="41.7385" cy="4.73914" rx="1.73846" ry="1.73914" fill="#61FFB3"/>
</g>
<path d="M53.2438 30.9887C53.2438 43.8433 42.8271 54.2636 29.9778 54.2636C17.1286 54.2636 6.71191 43.8433 6.71191 30.9887C6.71191 18.1342 17.1286 7.71387 29.9778 7.71387C42.8271 7.71387 53.2438 18.1342 53.2438 30.9887Z" fill="url(#paint1_radial)" stroke="url(#paint2_linear)"/>
<path d="M28.3125 23.9642C29.6178 24.2569 30.113 23.7615 30.4731 22.6809C31.3958 19.8891 32.7236 17.3 34.9742 15.2962C36.4145 14.0129 38.125 13.27 40.0154 13.0899C40.6231 13.0448 41.3883 13.315 41.8609 13.6978C43.4363 15.0261 44.9442 16.422 46.3845 17.8854C46.6996 18.2006 46.8572 18.9886 46.6771 19.3488C46.4971 19.709 45.7544 20.0017 45.3043 19.9567C40.5781 19.5514 37.1122 22.0054 33.7139 24.8647C34.389 25.7653 34.9517 26.0129 36.077 25.5402C38.215 24.6621 40.4205 23.9867 42.6711 23.4689C44.6966 22.9961 46.6546 23.6039 48.5226 24.527C50.2105 25.36 50.8181 26.8009 50.8857 28.557C50.9307 30.133 50.9532 31.709 50.8632 33.285C50.8407 33.7353 50.4356 34.4107 50.053 34.5458C49.6704 34.6809 48.9052 34.4107 48.6351 34.0505C46.4296 31.3263 43.4363 30.2456 40.1505 29.6827C39.1377 29.5026 38.08 29.4351 37.0672 29.3225C36.7296 30.5383 37.1347 31.1011 38.2375 31.4614C41.0507 32.3619 43.6163 33.6903 45.6644 35.9191C46.9922 37.3826 47.7574 39.1161 47.9374 41.0523C47.9824 41.6152 47.7349 42.3582 47.3748 42.8084C46.092 44.3619 44.7416 45.8478 43.3013 47.2662C42.9412 47.6265 42.1085 47.8291 41.6584 47.6715C41.3208 47.5364 41.0282 46.6809 41.0732 46.1856C41.4108 41.5026 38.9802 38.0805 36.1895 34.7709C35.0642 35.4238 35.1092 36.1218 35.5368 37.2024C36.347 39.2287 37.0222 41.345 37.4948 43.4839C38.0124 45.8028 37.3598 47.9642 36.1445 50.0355C35.3118 51.4313 34.0515 51.7916 32.6561 51.8816C30.9682 51.9942 29.2803 51.9717 27.6148 51.8816C27.2097 51.8591 26.5796 51.4313 26.4671 51.0486C26.3545 50.6659 26.5796 49.9679 26.8947 49.6978C30.6306 46.6584 31.3283 42.4482 31.7109 38.058C30.5181 37.7428 29.9329 38.1255 29.5728 39.2287C28.6501 42.0655 27.3223 44.6771 25.0267 46.7259C23.5863 48.0092 21.8759 48.7522 19.9854 48.9323C19.4228 48.9773 18.6801 48.7522 18.23 48.3694C16.6321 47.0186 15.1017 45.6002 13.6163 44.1143C13.3013 43.7991 13.1437 42.9886 13.3238 42.6508C13.5038 42.2906 14.2465 42.0205 14.6966 42.043C19.4228 42.4257 22.8887 39.9942 26.242 37.1574C25.5893 36.0542 24.8917 36.0767 23.8114 36.5045C21.7409 37.3375 19.6028 38.0355 17.4198 38.5083C15.1017 39.0036 12.9412 38.3507 10.8932 37.1124C9.54282 36.2794 9.22774 35.0186 9.13771 33.6902C9.02518 32.0017 9.04769 30.3131 9.13771 28.6246C9.16022 28.1968 9.58783 27.5889 9.94792 27.4764C10.308 27.3413 11.0282 27.5889 11.2983 27.9041C14.3365 31.619 18.5451 32.3619 22.9562 32.6996C23.2713 31.5289 22.9112 30.921 21.7859 30.5833C18.9727 29.6827 16.407 28.3544 14.359 26.1255C13.0312 24.6621 12.266 22.9285 12.086 20.9923C12.0409 20.4295 12.266 19.6865 12.6486 19.2362C13.9989 17.6377 15.4168 16.1068 16.9022 14.6208C17.2172 14.3056 18.0274 14.148 18.365 14.3507C18.7251 14.5308 19.0177 15.2737 18.9727 15.724C18.5676 20.452 21.0207 23.9191 23.8564 27.2737C24.9142 26.5983 24.9367 25.9229 24.4866 24.8197C23.6538 22.7259 22.9562 20.542 22.461 18.3131C22.0109 16.2869 22.5961 14.3281 23.5188 12.4595C24.329 10.8159 25.7019 10.163 27.4348 10.118C29.0777 10.073 30.7431 10.0505 32.386 10.1405C32.8136 10.163 33.4213 10.5908 33.5338 10.951C33.6689 11.3338 33.4438 12.0317 33.1287 12.3019C29.3928 15.3188 28.6726 19.5289 28.3125 23.9642ZM35.8519 31.0336C35.8744 27.7916 33.2638 25.1574 30.0454 25.1349C26.8046 25.1124 24.1715 27.724 24.149 30.9435C24.1265 34.1856 26.7371 36.8197 29.9779 36.8422C33.1962 36.8647 35.8294 34.2756 35.8519 31.0336Z" fill="url(#paint3_angular)"/>
<path d="M54.2621 7.95641C54.2621 8.64094 53.7075 9.19554 53.0237 9.19554C52.3398 9.19554 51.7852 8.64094 51.7852 7.95641C51.7852 7.27189 52.3398 6.71729 53.0237 6.71729C53.7075 6.71729 54.2621 7.27189 54.2621 7.95641Z" fill="url(#paint4_linear)" stroke="#284052"/>
<path d="M8.19177 7.95641C8.19177 8.64095 7.63711 9.19554 6.95331 9.19554C6.2695 9.19554 5.71484 8.64095 5.71484 7.95641C5.71484 7.27188 6.2695 6.71729 6.95331 6.71729C7.63711 6.71729 8.19177 7.27188 8.19177 7.95641Z" fill="url(#paint5_linear)" stroke="#233A4D"/>
<path d="M54.2621 54.9129C54.2621 55.5975 53.7075 56.1521 53.0237 56.1521C52.3398 56.1521 51.7852 55.5975 51.7852 54.9129C51.7852 54.2284 52.3398 53.6738 53.0237 53.6738C53.7075 53.6738 54.2621 54.2284 54.2621 54.9129Z" fill="url(#paint6_linear)" stroke="black"/>
<path d="M8.19177 54.9129C8.19177 55.5975 7.63712 56.1521 6.95331 56.1521C6.2695 56.1521 5.71484 55.5975 5.71484 54.9129C5.71484 54.2284 6.2695 53.6738 6.95331 53.6738C7.63712 53.6738 8.19177 54.2284 8.19177 54.9129Z" fill="url(#paint7_linear)" stroke="black"/>
<ellipse cx="29.989" cy="31.0002" rx="6.51929" ry="6.52173" fill="url(#paint8_linear)"/>
<path d="M36.0083 31.0002C36.0083 34.3261 33.3132 37.022 29.989 37.022C26.6648 37.022 23.9697 34.3261 23.9697 31.0002C23.9697 27.6744 26.6648 24.9785 29.989 24.9785C33.3132 24.9785 36.0083 27.6744 36.0083 31.0002Z" stroke="black" stroke-opacity="0.608"/>
<defs>
<filter id="filter0_d" x="37" y="0" width="9.47693" height="9.47828" filterUnits="userSpaceOnUse" color-interpolation-filters="sRGB">
<feFlood flood-opacity="0" result="BackgroundImageFix"/>
<feColorMatrix in="SourceAlpha" type="matrix" values="0 0 0 0 0 0 0 0 0 0 0 0 0 0 0 0 0 0 127 0"/>
<feOffset/>
<feGaussianBlur stdDeviation="1.5"/>
<feColorMatrix type="matrix" values="0 0 0 0 0.380392 0 0 0 0 1 0 0 0 0 0.701961 0 0 0 1 0"/>
<feBlend mode="normal" in2="BackgroundImageFix" result="effect1_dropShadow"/>
<feBlend mode="normal" in="SourceGraphic" in2="effect1_dropShadow" result="shape"/>
</filter>
<linearGradient id="paint0_linear" x1="30" y1="1" x2="30" y2="61" gradientUnits="userSpaceOnUse">
<stop stop-color="#4D6376"/>
<stop offset="1" stop-color="#0A1B28"/>
</linearGradient>
<radialGradient id="paint1_radial" cx="0" cy="0" r="1" gradientUnits="userSpaceOnUse" gradientTransform="translate(29.9778 30.9887) rotate(90) scale(23.7749 23.7659)">
<stop offset="0.287253" stop-color="#0D1D34"/>
<stop offset="1" stop-color="#263F51" stop-opacity="0.86"/>
</radialGradient>
<linearGradient id="paint2_linear" x1="29.9778" y1="7.21387" x2="29.9778" y2="54.7636" gradientUnits="userSpaceOnUse">
<stop stop-color="#5C7E91"/>
<stop offset="1" stop-opacity="0"/>
</linearGradient>
<radialGradient id="paint3_angular" cx="0" cy="0" r="1" gradientUnits="userSpaceOnUse" gradientTransform="translate(29.9933 31.0182) rotate(90) scale(20.9396 20.9318)">
<stop offset="0.275464" stop-color="#6EC0B1"/>
<stop offset="0.49577" stop-color="#3BFB87" stop-opacity="0.674597"/>
<stop offset="0.852898" stop-color="#02417B" stop-opacity="0.58"/>
<stop offset="0.968763" stop-color="#1AD5FE" stop-opacity="0.25"/>
</radialGradient>
<linearGradient id="paint4_linear" x1="53.0237" y1="6.21729" x2="53.0237" y2="9.69554" gradientUnits="userSpaceOnUse">
<stop stop-color="#C4C4C4"/>
<stop offset="1" stop-color="#C4C4C4" stop-opacity="0"/>
</linearGradient>
<linearGradient id="paint5_linear" x1="6.95331" y1="6.21729" x2="6.95331" y2="9.69554" gradientUnits="userSpaceOnUse">
<stop stop-color="#C4C4C4"/>
<stop offset="1" stop-color="#C4C4C4" stop-opacity="0"/>
</linearGradient>
<linearGradient id="paint6_linear" x1="53.0237" y1="53.1738" x2="53.0237" y2="56.6521" gradientUnits="userSpaceOnUse">
<stop stop-color="#C4C4C4"/>
<stop offset="1" stop-color="#C4C4C4" stop-opacity="0"/>
</linearGradient>
<linearGradient id="paint7_linear" x1="6.95331" y1="53.1738" x2="6.95331" y2="56.6521" gradientUnits="userSpaceOnUse">
<stop stop-color="#C4C4C4"/>
<stop offset="1" stop-color="#C4C4C4" stop-opacity="0"/>
</linearGradient>
<linearGradient id="paint8_linear" x1="29.989" y1="24.4785" x2="29.989" y2="37.522" gradientUnits="userSpaceOnUse">
<stop stop-color="#7EF7FF"/>
<stop offset="1" stop-color="#095580" stop-opacity="0.79"/>
</linearGradient>
</defs>
</svg>
