<svg width="60" height="61" viewBox="0 0 60 61" fill="none" xmlns="http://www.w3.org/2000/svg">
<path d="M52.7082 61H7.24681C3.26332 61 0 57.7355 0 53.728V8.24953C0 4.26454 3.26332 1 7.26932 1H52.7307C56.7142 1 60 4.26454 60 8.27204V53.7505C59.9775 57.7355 56.7142 61 52.7082 61Z" fill="url(#paint0_linear)"/>
<path d="M53.2438 30.9887C53.2438 43.8433 42.8271 54.2636 29.9778 54.2636C17.1286 54.2636 6.71191 43.8433 6.71191 30.9887C6.71191 18.1342 17.1286 7.71387 29.9778 7.71387C42.8271 7.71387 53.2438 18.1342 53.2438 30.9887Z" fill="url(#paint1_radial)" stroke="url(#paint2_linear)"/>
<g filter="url(#filter0_d)">
<path d="M28.3125 23.9642C29.6178 24.2569 30.1129 23.7615 30.473 22.6809C31.3957 19.8891 32.7235 17.3 34.9741 15.2962C36.4145 14.0129 38.1249 13.27 40.0154 13.0899C40.623 13.0448 41.3882 13.315 41.8608 13.6978C43.4362 15.0261 44.9441 16.422 46.3844 17.8854C46.6995 18.2006 46.857 18.9886 46.677 19.3488C46.497 19.709 45.7543 20.0017 45.3042 19.9567C40.578 19.5514 37.1121 22.0054 33.7138 24.8647C34.389 25.7653 34.9516 26.0129 36.0769 25.5402C38.2149 24.6621 40.4205 23.9867 42.671 23.4689C44.6965 22.9961 46.6545 23.6039 48.5225 24.527C50.2104 25.36 50.818 26.8009 50.8855 28.557C50.9306 30.133 50.9531 31.709 50.863 33.285C50.8405 33.7353 50.4354 34.4107 50.0528 34.5458C49.6702 34.6809 48.9051 34.4107 48.635 34.0505C46.4294 31.3263 43.4362 30.2456 40.1504 29.6827C39.1376 29.5026 38.0799 29.4351 37.0671 29.3225C36.7295 30.5383 37.1346 31.1011 38.2374 31.4614C41.0506 32.3619 43.6162 33.6903 45.6642 35.9191C46.9921 37.3826 47.7573 39.1161 47.9373 41.0523C47.9823 41.6152 47.7348 42.3582 47.3747 42.8084C46.0919 44.3619 44.7415 45.8478 43.3012 47.2662C42.9411 47.6265 42.1084 47.8291 41.6583 47.6715C41.3207 47.5364 41.0281 46.6809 41.0731 46.1856C41.4107 41.5026 38.9801 38.0805 36.1894 34.7709C35.0641 35.4238 35.1091 36.1218 35.5367 37.2024C36.3469 39.2287 37.0221 41.345 37.4947 43.4839C38.0124 45.8028 37.3597 47.9642 36.1444 50.0355C35.3117 51.4313 34.0514 51.7916 32.656 51.8816C30.9681 51.9942 29.2802 51.9717 27.6148 51.8816C27.2097 51.8591 26.5795 51.4313 26.467 51.0486C26.3545 50.6659 26.5795 49.9679 26.8946 49.6978C30.6305 46.6584 31.3282 42.4482 31.7108 38.058C30.518 37.7428 29.9329 38.1255 29.5728 39.2287C28.65 42.0655 27.3222 44.6771 25.0266 46.7259C23.5863 48.0092 21.8759 48.7522 19.9854 48.9323C19.4228 48.9773 18.6801 48.7522 18.23 48.3694C16.6321 47.0186 15.1017 45.6002 13.6163 44.1143C13.3012 43.7991 13.1437 42.9886 13.3237 42.6508C13.5038 42.2906 14.2465 42.0205 14.6966 42.043C19.4228 42.4257 22.8886 39.9942 26.2419 37.1574C25.5893 36.0542 24.8916 36.0767 23.8113 36.5045C21.7408 37.3375 19.6028 38.0355 17.4198 38.5083C15.1017 39.0036 12.9412 38.3507 10.8931 37.1124C9.54281 36.2794 9.22774 35.0186 9.13771 33.6902C9.02518 32.0017 9.04769 30.3131 9.13771 28.6246C9.16022 28.1968 9.58782 27.5889 9.94791 27.4764C10.308 27.3413 11.0282 27.5889 11.2982 27.9041C14.3365 31.619 18.545 32.3619 22.9561 32.6996C23.2712 31.5289 22.9111 30.921 21.7858 30.5833C18.9726 29.6827 16.407 28.3544 14.359 26.1255C13.0312 24.6621 12.266 22.9285 12.0859 20.9923C12.0409 20.4295 12.266 19.6865 12.6486 19.2362C13.9989 17.6377 15.4168 16.1068 16.9021 14.6208C17.2172 14.3056 18.0274 14.148 18.365 14.3507C18.7251 14.5308 19.0177 15.2737 18.9726 15.724C18.5675 20.452 21.0207 23.9191 23.8564 27.2737C24.9141 26.5983 24.9366 25.9229 24.4865 24.8197C23.6538 22.7259 22.9561 20.542 22.461 18.3131C22.0109 16.2869 22.596 14.3281 23.5188 12.4595C24.329 10.8159 25.7018 10.163 27.4347 10.118C29.0776 10.073 30.7431 10.0505 32.386 10.1405C32.8136 10.163 33.4212 10.5908 33.5338 10.951C33.6688 11.3338 33.4437 12.0317 33.1286 12.3019C29.3927 15.3188 28.6725 19.5289 28.3125 23.9642ZM35.8518 31.0336C35.8743 27.7916 33.2637 25.1574 30.0454 25.1349C26.8046 25.1124 24.1714 27.724 24.1489 30.9435C24.1264 34.1856 26.7371 36.8197 29.9779 36.8422C33.1962 36.8647 35.8293 34.2756 35.8518 31.0336Z" fill="url(#paint3_angular)"/>
</g>
<path d="M54.2621 7.95642C54.2621 8.64097 53.7074 9.19556 53.0236 9.19556C52.3398 9.19556 51.7852 8.64097 51.7852 7.95642C51.7852 7.27188 52.3398 6.71729 53.0236 6.71729C53.7074 6.71729 54.2621 7.27188 54.2621 7.95642Z" fill="url(#paint4_linear)" stroke="#273E51"/>
<g filter="url(#filter1_d)">
<ellipse cx="41.7385" cy="4.73914" rx="1.73846" ry="1.73914" fill="#F46E6E"/>
</g>
<path d="M8.19189 7.95642C8.19189 8.64095 7.63722 9.19556 6.95337 9.19556C6.26952 9.19556 5.71484 8.64095 5.71484 7.95642C5.71484 7.2719 6.26952 6.71729 6.95337 6.71729C7.63722 6.71729 8.19189 7.2719 8.19189 7.95642Z" fill="url(#paint5_linear)" stroke="#273E51"/>
<path d="M54.2621 54.9129C54.2621 55.5975 53.7074 56.1521 53.0236 56.1521C52.3398 56.1521 51.7852 55.5975 51.7852 54.9129C51.7852 54.2284 52.3398 53.6738 53.0236 53.6738C53.7074 53.6738 54.2621 54.2284 54.2621 54.9129Z" fill="url(#paint6_linear)" stroke="black"/>
<path d="M8.19189 54.9129C8.19189 55.5975 7.63723 56.1521 6.95337 56.1521C6.26951 56.1521 5.71484 55.5975 5.71484 54.9129C5.71484 54.2284 6.26951 53.6738 6.95337 53.6738C7.63723 53.6738 8.19189 54.2284 8.19189 54.9129Z" fill="url(#paint7_linear)" stroke="black"/>
<ellipse cx="29.989" cy="31.0002" rx="6.51929" ry="6.52173" fill="url(#paint8_linear)"/>
<path d="M36.0083 31.0002C36.0083 34.3261 33.3132 37.022 29.989 37.022C26.6648 37.022 23.9697 34.3261 23.9697 31.0002C23.9697 27.6744 26.6648 24.9785 29.989 24.9785C33.3132 24.9785 36.0083 27.6744 36.0083 31.0002Z" stroke="black" stroke-opacity="0.608"/>
<defs>
<filter id="filter0_d" x="5.06152" y="10.0786" width="49.8634" height="49.8792" filterUnits="userSpaceOnUse" color-interpolation-filters="sRGB">
<feFlood flood-opacity="0" result="BackgroundImageFix"/>
<feColorMatrix in="SourceAlpha" type="matrix" values="0 0 0 0 0 0 0 0 0 0 0 0 0 0 0 0 0 0 127 0"/>
<feOffset dy="4"/>
<feGaussianBlur stdDeviation="2"/>
<feColorMatrix type="matrix" values="0 0 0 0 0 0 0 0 0 0 0 0 0 0 0 0 0 0 0.25 0"/>
<feBlend mode="normal" in2="BackgroundImageFix" result="effect1_dropShadow"/>
<feBlend mode="normal" in="SourceGraphic" in2="effect1_dropShadow" result="shape"/>
</filter>
<filter id="filter1_d" x="37" y="0" width="9.47693" height="9.47828" filterUnits="userSpaceOnUse" color-interpolation-filters="sRGB">
<feFlood flood-opacity="0" result="BackgroundImageFix"/>
<feColorMatrix in="SourceAlpha" type="matrix" values="0 0 0 0 0 0 0 0 0 0 0 0 0 0 0 0 0 0 127 0"/>
<feOffset/>
<feGaussianBlur stdDeviation="1.5"/>
<feColorMatrix type="matrix" values="0 0 0 0 1 0 0 0 0 0.1125 0 0 0 0 0.1125 0 0 0 0.45 0"/>
<feBlend mode="normal" in2="BackgroundImageFix" result="effect1_dropShadow"/>
<feBlend mode="normal" in="SourceGraphic" in2="effect1_dropShadow" result="shape"/>
</filter>
<linearGradient id="paint0_linear" x1="30" y1="1" x2="30" y2="61" gradientUnits="userSpaceOnUse">
<stop stop-color="#4D6376"/>
<stop offset="1" stop-color="#0A1B28"/>
</linearGradient>
<radialGradient id="paint1_radial" cx="0" cy="0" r="1" gradientUnits="userSpaceOnUse" gradientTransform="translate(29.9778 30.9887) rotate(90) scale(23.7749 23.7659)">
<stop offset="0.287253" stop-color="#0D1D34"/>
<stop offset="1" stop-color="#263F51" stop-opacity="0.86"/>
</radialGradient>
<linearGradient id="paint2_linear" x1="29.9778" y1="7.21387" x2="29.9778" y2="54.7636" gradientUnits="userSpaceOnUse">
<stop stop-color="#5C7E91"/>
<stop offset="1" stop-opacity="0"/>
</linearGradient>
<radialGradient id="paint3_angular" cx="0" cy="0" r="1" gradientUnits="userSpaceOnUse" gradientTransform="translate(29.9932 31.0182) rotate(90) scale(20.9396 20.9317)">
<stop offset="0.396125" stop-color="#F88D5F" stop-opacity="0.81"/>
<stop offset="0.645981" stop-color="#FE2F2F" stop-opacity="0.674597"/>
<stop offset="0.852898" stop-color="#C02626" stop-opacity="0.94"/>
<stop offset="0.971859" stop-color="#521305"/>
</radialGradient>
<linearGradient id="paint4_linear" x1="53.0236" y1="6.21729" x2="53.0236" y2="9.69556" gradientUnits="userSpaceOnUse">
<stop stop-color="#C4C4C4"/>
<stop offset="1" stop-color="#C4C4C4" stop-opacity="0"/>
</linearGradient>
<linearGradient id="paint5_linear" x1="6.95337" y1="6.21729" x2="6.95337" y2="9.69556" gradientUnits="userSpaceOnUse">
<stop stop-color="#C4C4C4"/>
<stop offset="1" stop-color="#C4C4C4" stop-opacity="0"/>
</linearGradient>
<linearGradient id="paint6_linear" x1="53.0236" y1="53.1738" x2="53.0236" y2="56.6521" gradientUnits="userSpaceOnUse">
<stop stop-color="#C4C4C4"/>
<stop offset="1" stop-color="#C4C4C4" stop-opacity="0"/>
</linearGradient>
<linearGradient id="paint7_linear" x1="6.95337" y1="53.1738" x2="6.95337" y2="56.6521" gradientUnits="userSpaceOnUse">
<stop stop-color="#C4C4C4"/>
<stop offset="1" stop-color="#C4C4C4" stop-opacity="0"/>
</linearGradient>
<linearGradient id="paint8_linear" x1="29.989" y1="24.4785" x2="29.989" y2="37.522" gradientUnits="userSpaceOnUse">
<stop stop-color="#FF7E7E"/>
<stop offset="1" stop-color="#A02121" stop-opacity="0.51"/>
</linearGradient>
</defs>
</svg>
