<svg width="60" height="60" viewBox="0 0 60 60" fill="none" xmlns="http://www.w3.org/2000/svg">
<path d="M52.7082 60H7.24681C3.26332 60 0 56.7355 0 52.728V7.24953C0 3.26454 3.26332 0 7.26932 0H52.7307C56.7142 0 60 3.26454 60 7.27204V52.7505C59.9775 56.7355 56.7142 60 52.7082 60Z" fill="url(#paint0_linear)"/>
<ellipse cx="41.7385" cy="3.73914" rx="1.73846" ry="1.73914" fill="white"/>
<path d="M53.2438 29.9887C53.2438 42.8433 42.8271 53.2636 29.9778 53.2636C17.1286 53.2636 6.71191 42.8433 6.71191 29.9887C6.71191 17.1342 17.1286 6.71387 29.9778 6.71387C42.8271 6.71387 53.2438 17.1342 53.2438 29.9887Z" fill="url(#paint1_radial)" stroke="url(#paint2_linear)"/>
<g filter="url(#filter0_d)">
<path d="M28.3125 22.9642C29.6178 23.2569 30.1129 22.7615 30.473 21.6809C31.3957 18.8891 32.7235 16.3 34.9741 14.2962C36.4145 13.0129 38.1249 12.27 40.0154 12.0899C40.623 12.0448 41.3882 12.315 41.8608 12.6978C43.4362 14.0261 44.9441 15.422 46.3844 16.8854C46.6995 17.2006 46.857 17.9886 46.677 18.3488C46.497 18.709 45.7543 19.0017 45.3042 18.9567C40.578 18.5514 37.1121 21.0054 33.7138 23.8647C34.389 24.7653 34.9516 25.0129 36.0769 24.5402C38.2149 23.6621 40.4205 22.9867 42.671 22.4689C44.6965 21.9961 46.6545 22.6039 48.5225 23.527C50.2104 24.36 50.818 25.8009 50.8855 27.557C50.9306 29.133 50.9531 30.709 50.863 32.285C50.8405 32.7353 50.4354 33.4107 50.0528 33.5458C49.6702 33.6809 48.9051 33.4107 48.635 33.0505C46.4294 30.3263 43.4362 29.2456 40.1504 28.6827C39.1376 28.5026 38.0799 28.4351 37.0671 28.3225C36.7295 29.5383 37.1346 30.1011 38.2374 30.4614C41.0506 31.3619 43.6162 32.6903 45.6642 34.9191C46.9921 36.3826 47.7573 38.1161 47.9373 40.0523C47.9823 40.6152 47.7348 41.3582 47.3747 41.8084C46.0919 43.3619 44.7415 44.8478 43.3012 46.2662C42.9411 46.6265 42.1084 46.8291 41.6583 46.6715C41.3207 46.5364 41.0281 45.6809 41.0731 45.1856C41.4107 40.5026 38.9801 37.0805 36.1894 33.7709C35.0641 34.4238 35.1091 35.1218 35.5367 36.2024C36.3469 38.2287 37.0221 40.345 37.4947 42.4839C38.0124 44.8028 37.3597 46.9642 36.1444 49.0355C35.3117 50.4313 34.0514 50.7916 32.656 50.8816C30.9681 50.9942 29.2802 50.9717 27.6148 50.8816C27.2097 50.8591 26.5795 50.4313 26.467 50.0486C26.3545 49.6659 26.5795 48.9679 26.8946 48.6978C30.6305 45.6584 31.3282 41.4482 31.7108 37.058C30.518 36.7428 29.9329 37.1255 29.5728 38.2287C28.65 41.0655 27.3222 43.6771 25.0266 45.7259C23.5863 47.0092 21.8759 47.7522 19.9854 47.9323C19.4228 47.9773 18.6801 47.7522 18.23 47.3694C16.6321 46.0186 15.1017 44.6002 13.6163 43.1143C13.3012 42.7991 13.1437 41.9886 13.3237 41.6508C13.5038 41.2906 14.2465 41.0205 14.6966 41.043C19.4228 41.4257 22.8886 38.9942 26.2419 36.1574C25.5893 35.0542 24.8916 35.0767 23.8113 35.5045C21.7408 36.3375 19.6028 37.0355 17.4198 37.5083C15.1017 38.0036 12.9412 37.3507 10.8931 36.1124C9.54281 35.2794 9.22774 34.0186 9.13771 32.6902C9.02518 31.0017 9.04769 29.3131 9.13771 27.6246C9.16022 27.1968 9.58782 26.5889 9.94791 26.4764C10.308 26.3413 11.0282 26.5889 11.2982 26.9041C14.3365 30.619 18.545 31.3619 22.9561 31.6996C23.2712 30.5289 22.9111 29.921 21.7858 29.5833C18.9726 28.6827 16.407 27.3544 14.359 25.1255C13.0312 23.6621 12.266 21.9285 12.0859 19.9923C12.0409 19.4295 12.266 18.6865 12.6486 18.2362C13.9989 16.6377 15.4168 15.1068 16.9021 13.6208C17.2172 13.3056 18.0274 13.148 18.365 13.3507C18.7251 13.5308 19.0177 14.2737 18.9726 14.724C18.5675 19.452 21.0207 22.9191 23.8564 26.2737C24.9141 25.5983 24.9366 24.9229 24.4865 23.8197C23.6538 21.7259 22.9561 19.542 22.461 17.3131C22.0109 15.2869 22.596 13.3281 23.5188 11.4595C24.329 9.81595 25.7018 9.16304 27.4347 9.11801C29.0776 9.07298 30.7431 9.05047 32.386 9.14053C32.8136 9.16304 33.4212 9.59081 33.5338 9.95103C33.6688 10.3338 33.4437 11.0317 33.1286 11.3019C29.3927 14.3188 28.6725 18.5289 28.3125 22.9642ZM35.8518 30.0336C35.8743 26.7916 33.2637 24.1574 30.0454 24.1349C26.8046 24.1124 24.1714 26.724 24.1489 29.9435C24.1264 33.1856 26.7371 35.8197 29.9779 35.8422C33.1962 35.8647 35.8293 33.2756 35.8518 30.0336Z" fill="url(#paint3_linear)"/>
</g>
<path d="M54.2621 6.95641C54.2621 7.64095 53.7074 8.19554 53.0236 8.19554C52.3398 8.19554 51.7852 7.64095 51.7852 6.95641C51.7852 6.27188 52.3398 5.71729 53.0236 5.71729C53.7074 5.71729 54.2621 6.27188 54.2621 6.95641Z" fill="url(#paint4_linear)" stroke="#273F51"/>
<path d="M8.19189 6.95641C8.19189 7.64093 7.63722 8.19554 6.95337 8.19554C6.26951 8.19554 5.71484 7.64093 5.71484 6.95641C5.71484 6.2719 6.26951 5.71729 6.95337 5.71729C7.63722 5.71729 8.19189 6.2719 8.19189 6.95641Z" fill="url(#paint5_linear)" stroke="#273F51"/>
<path d="M54.2621 53.9129C54.2621 54.5975 53.7074 55.1521 53.0236 55.1521C52.3398 55.1521 51.7852 54.5975 51.7852 53.9129C51.7852 53.2284 52.3398 52.6738 53.0236 52.6738C53.7074 52.6738 54.2621 53.2284 54.2621 53.9129Z" fill="url(#paint6_linear)" stroke="black"/>
<path d="M8.19189 53.9129C8.19189 54.5975 7.63723 55.1521 6.95337 55.1521C6.26951 55.1521 5.71484 54.5975 5.71484 53.9129C5.71484 53.2284 6.26951 52.6738 6.95337 52.6738C7.63723 52.6738 8.19189 53.2284 8.19189 53.9129Z" fill="url(#paint7_linear)" stroke="black"/>
<ellipse cx="29.989" cy="30.0002" rx="6.51929" ry="6.52173" fill="url(#paint8_linear)"/>
<path d="M36.0083 30.0002C36.0083 33.3261 33.3132 36.022 29.989 36.022C26.6648 36.022 23.9697 33.3261 23.9697 30.0002C23.9697 26.6744 26.6648 23.9785 29.989 23.9785C33.3132 23.9785 36.0083 26.6744 36.0083 30.0002Z" stroke="black" stroke-opacity="0.608"/>
<defs>
<filter id="filter0_d" x="5.06152" y="9.07861" width="49.8634" height="49.8792" filterUnits="userSpaceOnUse" color-interpolation-filters="sRGB">
<feFlood flood-opacity="0" result="BackgroundImageFix"/>
<feColorMatrix in="SourceAlpha" type="matrix" values="0 0 0 0 0 0 0 0 0 0 0 0 0 0 0 0 0 0 127 0"/>
<feOffset dy="4"/>
<feGaussianBlur stdDeviation="2"/>
<feColorMatrix type="matrix" values="0 0 0 0 0 0 0 0 0 0 0 0 0 0 0 0 0 0 0.25 0"/>
<feBlend mode="normal" in2="BackgroundImageFix" result="effect1_dropShadow"/>
<feBlend mode="normal" in="SourceGraphic" in2="effect1_dropShadow" result="shape"/>
</filter>
<linearGradient id="paint0_linear" x1="30" y1="0" x2="30" y2="60" gradientUnits="userSpaceOnUse">
<stop stop-color="#4D6376"/>
<stop offset="1" stop-color="#0A1B28"/>
</linearGradient>
<radialGradient id="paint1_radial" cx="0" cy="0" r="1" gradientUnits="userSpaceOnUse" gradientTransform="translate(29.9778 29.9887) rotate(90) scale(23.7749 23.7659)">
<stop offset="0.287253" stop-color="#0D1D34"/>
<stop offset="1" stop-color="#263F51" stop-opacity="0.86"/>
</radialGradient>
<linearGradient id="paint2_linear" x1="29.9778" y1="6.21387" x2="29.9778" y2="53.7636" gradientUnits="userSpaceOnUse">
<stop stop-color="#5C7E91"/>
<stop offset="1" stop-opacity="0"/>
</linearGradient>
<linearGradient id="paint3_linear" x1="29.9932" y1="9.07861" x2="29.9932" y2="50.9578" gradientUnits="userSpaceOnUse">
<stop stop-color="#B6B6B6"/>
<stop offset="0.971859" stop-color="#474747"/>
</linearGradient>
<linearGradient id="paint4_linear" x1="53.0236" y1="5.21729" x2="53.0236" y2="8.69554" gradientUnits="userSpaceOnUse">
<stop stop-color="#C4C4C4"/>
<stop offset="1" stop-color="#C4C4C4" stop-opacity="0"/>
</linearGradient>
<linearGradient id="paint5_linear" x1="6.95337" y1="5.21729" x2="6.95337" y2="8.69554" gradientUnits="userSpaceOnUse">
<stop stop-color="#C4C4C4"/>
<stop offset="1" stop-color="#C4C4C4" stop-opacity="0"/>
</linearGradient>
<linearGradient id="paint6_linear" x1="53.0236" y1="52.1738" x2="53.0236" y2="55.6521" gradientUnits="userSpaceOnUse">
<stop stop-color="#C4C4C4"/>
<stop offset="1" stop-color="#C4C4C4" stop-opacity="0"/>
</linearGradient>
<linearGradient id="paint7_linear" x1="6.95337" y1="52.1738" x2="6.95337" y2="55.6521" gradientUnits="userSpaceOnUse">
<stop stop-color="#C4C4C4"/>
<stop offset="1" stop-color="#C4C4C4" stop-opacity="0"/>
</linearGradient>
<linearGradient id="paint8_linear" x1="29.989" y1="23.4785" x2="29.989" y2="36.522" gradientUnits="userSpaceOnUse">
<stop stop-color="#E7E7E7"/>
<stop offset="1" stop-color="#757575" stop-opacity="0.51"/>
</linearGradient>
</defs>
</svg>
