<svg width="60" height="60" viewBox="0 0 60 60" fill="none" xmlns="http://www.w3.org/2000/svg">
<g filter="url(#filter0_i)">
<path d="M7.27504 17.6439C7.78606 16.6355 8.82056 16 9.95105 16H50.049C51.1794 16 52.2139 16.6355 52.725 17.6439L60 32H0L7.27504 17.6439Z" fill="url(#paint0_linear)"/>
</g>
<g style="mix-blend-mode:soft-light">
<path d="M14.5947 29.6486L15.8109 11H18.2434V29.6486H14.5947Z" fill="url(#paint1_linear)"/>
</g>
<rect x="1" y="31" width="58" height="23" rx="3" fill="url(#paint2_linear)" stroke="url(#paint3_angular)" stroke-width="2"/>
<circle cx="13" cy="42" r="7.5" fill="#120E0E" stroke="#455B6D"/>
<circle cx="13" cy="42" r="3" fill="#455B6D"/>
<rect x="7.34326" y="37.7573" width="2" height="14" transform="rotate(-45 7.34326 37.7573)" fill="#455B6D"/>
<rect x="17.2427" y="36.3433" width="2" height="14" transform="rotate(45 17.2427 36.3433)" fill="#455B6D"/>
<path d="M27.5 37L25 39V43H35V39L32.5 37H27.5Z" fill="#120E0E" stroke="#455B6D"/>
<rect x="27" y="39" width="2" height="1" fill="#455B6D"/>
<rect x="29" y="41" width="2" height="1" fill="#455B6D"/>
<rect x="31" y="39" width="2" height="1" fill="#455B6D"/>
<path d="M40.5 37L38 39V43H48V39L45.5 37H40.5Z" fill="#120E0E" stroke="#455B6D"/>
<rect x="40" y="39" width="2" height="1" fill="#455B6D"/>
<rect x="42" y="41" width="2" height="1" fill="#455B6D"/>
<rect x="44" y="39" width="2" height="1" fill="#455B6D"/>
<g filter="url(#filter1_d)">
<circle cx="52.027" cy="36.027" r="2.02703" fill="#61FFB3"/>
</g>
<path d="M27.2299 47H56.1566C56.6224 47 57 47.3776 57 47.8434C57 50.139 55.139 52 52.8434 52H22L27.2299 47Z" fill="url(#paint4_linear)"/>
<defs>
<filter id="filter0_i" x="0" y="16" width="62" height="16" filterUnits="userSpaceOnUse" color-interpolation-filters="sRGB">
<feFlood flood-opacity="0" result="BackgroundImageFix"/>
<feBlend mode="normal" in="SourceGraphic" in2="BackgroundImageFix" result="shape"/>
<feColorMatrix in="SourceAlpha" type="matrix" values="0 0 0 0 0 0 0 0 0 0 0 0 0 0 0 0 0 0 127 0" result="hardAlpha"/>
<feOffset dx="2"/>
<feGaussianBlur stdDeviation="2"/>
<feComposite in2="hardAlpha" operator="arithmetic" k2="-1" k3="1"/>
<feColorMatrix type="matrix" values="0 0 0 0 0.583021 0 0 0 0 0.698017 0 0 0 0 0.804167 0 0 0 0.25 0"/>
<feBlend mode="normal" in2="shape" result="effect1_innerShadow"/>
</filter>
<filter id="filter1_d" x="46" y="31" width="12.0541" height="12.0541" filterUnits="userSpaceOnUse" color-interpolation-filters="sRGB">
<feFlood flood-opacity="0" result="BackgroundImageFix"/>
<feColorMatrix in="SourceAlpha" type="matrix" values="0 0 0 0 0 0 0 0 0 0 0 0 0 0 0 0 0 0 127 0"/>
<feOffset dy="1"/>
<feGaussianBlur stdDeviation="2"/>
<feColorMatrix type="matrix" values="0 0 0 0 0.380392 0 0 0 0 1 0 0 0 0 0.701961 0 0 0 1 0"/>
<feBlend mode="normal" in2="BackgroundImageFix" result="effect1_dropShadow"/>
<feBlend mode="normal" in="SourceGraphic" in2="effect1_dropShadow" result="shape"/>
</filter>
<linearGradient id="paint0_linear" x1="30" y1="16" x2="30" y2="35.422" gradientUnits="userSpaceOnUse">
<stop stop-color="#F7F9FA"/>
<stop offset="1" stop-color="#C4D3E0"/>
</linearGradient>
<linearGradient id="paint1_linear" x1="16.4191" y1="11" x2="16.4191" y2="29.6486" gradientUnits="userSpaceOnUse">
<stop stop-color="#F0F0F0" stop-opacity="0"/>
<stop offset="1" stop-color="white"/>
</linearGradient>
<linearGradient id="paint2_linear" x1="30" y1="30" x2="30" y2="55" gradientUnits="userSpaceOnUse">
<stop offset="0.188472" stop-color="#485E71"/>
<stop offset="0.833333" stop-color="#122331"/>
</linearGradient>
<radialGradient id="paint3_angular" cx="0" cy="0" r="1" gradientUnits="userSpaceOnUse" gradientTransform="translate(30 42.5) rotate(90) scale(12.5 30)">
<stop stop-color="#54718B"/>
<stop offset="0.314778" stop-color="#F1F3F5"/>
<stop offset="0.505655" stop-color="white"/>
<stop offset="0.674752" stop-color="#FAFAFA"/>
</radialGradient>
<linearGradient id="paint4_linear" x1="42.1149" y1="47" x2="42.1149" y2="52" gradientUnits="userSpaceOnUse">
<stop stop-color="#081218" stop-opacity="0.62"/>
<stop offset="1" stop-color="#232631" stop-opacity="0"/>
</linearGradient>
</defs>
</svg>
