<?xml version="1.0" encoding="UTF-8"?>
<svg width="32px" height="36px" viewBox="0 0 32 36" version="1.1" xmlns="http://www.w3.org/2000/svg" xmlns:xlink="http://www.w3.org/1999/xlink">
    <!-- Generator: Sketch 52.5 (67469) - http://www.bohemiancoding.com/sketch -->
    <title>服务器</title>
    <desc>Created with Sketch.</desc>
    <g id="Page-1" stroke="none" stroke-width="1" fill="none" fill-rule="evenodd">
        <g id="自定义首页资产视角-copy" transform="translate(-894.000000, -162.000000)" fill-rule="nonzero">
            <g id="Group-4" transform="translate(878.000000, 121.000000)">
                <g id="服务器" transform="translate(8.000000, 35.000000)">
                    <polygon id="Rectangle-path" fill="#000000" opacity="0" points="0 0 48 0 48 48 0 48"></polygon>
                    <g id="Group-10" transform="translate(8.000000, 6.000000)">
                        <polygon id="Shape" points="15.8898281 0.518518519 0.925925926 9.38866457 1.07547148 26.8701461 16.1842459 35.4814815 31.1481481 26.6113354 30.9986026 9.12985395"></polygon>
                        <polygon id="Shape" fill="#006EAE" points="24.6296296 6.96917391 23.6761051 6.44444444 10.4074074 14.0254044 10.5402367 29.035429 11.4937613 29.5555556 11.360932 14.5501339"></polygon>
                        <path d="M15.8921424,0.518518519 L0.925925926,9.38866457 L1.07549461,26.8701461 L16.1866057,35.4814815 L31.1481481,26.6113354 L30.9985795,9.12985395 L15.8921424,0.518518519 Z M2.93575512,25.7690245 L2.80488252,10.4615523 L15.9061644,2.69252779 L19.2340677,4.58890384 L6.13278574,12.3579283 L6.26365834,27.6654005 L2.93575512,25.7690245 Z M15.2190833,32.7663227 L11.6434569,30.7287772 L10.7039786,30.197039 L7.20313663,28.2018444 L7.07226404,12.8943722 L20.17822,5.12534769 L23.6463438,7.10171975 L24.5858221,7.6381636 L28.2222108,9.70864862 L15.0882107,17.4964957 L15.2190833,32.7663227 Z M17.0886918,32.7663227 L16.9671673,18.5646777 L29.152341,11.3415084 L29.2738656,25.5384477 L17.0886918,32.7663227 Z" id="Shape" fill="#006EAE"></path>
                        <path d="M26.3265405,19.8409615 C26.1906841,19.3323522 25.9234999,18.9414766 25.5521591,18.729556 C25.044962,18.442286 24.4290797,18.5035075 23.8086689,18.9132205 C22.6086042,19.7043905 21.6666667,21.6069659 21.6666667,23.2505273 C21.6666667,24.187687 21.9881934,24.9082168 22.5497331,25.2284523 C22.7580463,25.3461859 22.9844736,25.4074074 23.2244865,25.4074074 C23.5641274,25.4074074 23.9309397,25.2849644 24.2977519,25.0447878 C25.4706453,24.2724552 26.3989973,22.4358106 26.4397542,20.8205053 L26.6163675,20.707481 C26.8292091,20.57091 26.8971373,20.2836399 26.770338,20.0623007 C26.67071,19.902183 26.4940967,19.8221241 26.3265405,19.8409615 Z M23.8086689,24.2536179 C23.61847,24.3807702 23.2561863,24.5644346 22.9844736,24.4090262 C22.7263464,24.2630365 22.5723759,23.8297768 22.5723759,23.2552367 C22.5723759,21.9507481 23.3603429,20.326024 24.2932234,19.7138092 C24.4336083,19.6243316 24.6600356,19.4971793 24.8819343,19.4971793 C24.9634482,19.4971793 25.044962,19.5160167 25.1174187,19.5584008 C25.3755459,19.7043905 25.5295164,20.1376502 25.5295164,20.7121903 C25.5295164,22.0166789 24.7415494,23.6366936 23.8086689,24.2536179 Z" id="Shape" fill="#006EAE"></path>
                    </g>
                </g>
            </g>
        </g>
    </g>
</svg>