<?xml version="1.0" encoding="UTF-8"?>
<svg width="32px" height="29px" viewBox="0 0 32 29" version="1.1" xmlns="http://www.w3.org/2000/svg" xmlns:xlink="http://www.w3.org/1999/xlink">
    <!-- Generator: Sketch 52.5 (67469) - http://www.bohemiancoding.com/sketch -->
    <title>机房环境</title>
    <desc>Created with Sketch.</desc>
    <g id="Page-1" stroke="none" stroke-width="1" fill="none" fill-rule="evenodd">
        <g id="自定义首页资产视角-copy" transform="translate(-1206.000000, -299.000000)" fill-rule="nonzero">
            <g id="Group-4-Copy-5" transform="translate(1190.000000, 254.000000)">
                <g id="机房环境" transform="translate(8.000000, 35.000000)">
                    <polygon id="Rectangle-path" fill="#000000" opacity="0" points="0 0 48 0 48 48 0 48"></polygon>
                    <g id="IDC机房" transform="translate(8.000000, 10.000000)">
                        <rect id="Rectangle" stroke="#006EAE" stroke-width="1.3" x="1.29618519" y="0.65" width="9.72040816" height="26.8020408"></rect>
                        <path d="M11.1397959,0.655506487 L11.1397959,27.4578068 L20.8602041,27.4578068 L20.8602041,0.655506487 L11.1397959,0.655506487 Z" id="Rectangle-Copy" stroke="#006EAE" stroke-width="1.3"></path>
                        <rect id="Rectangle-Copy-2" stroke="#006EAE" stroke-width="1.3" x="20.9834066" y="0.65" width="9.72040816" height="26.8020408"></rect>
                        <path d="M6.0459376,6.94135539 C5.55141202,6.94135539 5.15051982,6.54046319 5.15051982,6.0459376 C5.15051982,5.55141202 5.55141202,5.15051982 6.0459376,5.15051982 C6.53816199,5.15374641 6.93548594,5.55368341 6.93548594,6.04591837 C6.93548594,6.53815333 6.53816199,6.93809032 6.0459376,6.94131691 L6.0459376,6.94135539 Z" id="Path" fill="#006EAE"></path>
                        <path d="M6.0459376,9.62757026 C5.55141202,9.62757026 5.15051982,9.22667806 5.15051982,8.73215248 C5.15051982,8.23762689 5.55141202,7.83673469 6.0459376,7.83673469 C6.54046319,7.83673469 6.94135539,8.23762689 6.94135539,8.73215248 C6.94135539,9.22667806 6.54046319,9.62757026 6.0459376,9.62757026 Z" id="Path" fill="#006EAE"></path>
                        <path d="M6.0459376,12.3137851 C5.55141202,12.3137851 5.15051982,11.9128929 5.15051982,11.4183673 C5.15051982,10.9238418 5.55141202,10.5229496 6.0459376,10.5229496 C6.54046319,10.5229496 6.94135539,10.9238418 6.94135539,11.4183673 C6.94135539,11.9128929 6.54046319,12.3137851 6.0459376,12.3137851 Z" id="Path" fill="#006EAE"></path>
                        <path d="M16,6.94131691 C15.6787066,6.94342303 15.3809139,6.77322314 15.2196561,6.49532056 C15.0583983,6.21741798 15.0583983,5.87441875 15.2196561,5.59651617 C15.3809139,5.31861359 15.6787066,5.1484137 16,5.15051982 C16.4922244,5.15374641 16.8895483,5.55368341 16.8895483,6.04591837 C16.8895483,6.53815333 16.4922244,6.93809032 16,6.94131691 Z" id="Path" fill="#006EAE"></path>
                        <path d="M16,9.62757026 C15.5054744,9.62757026 15.1045822,9.22667806 15.1045822,8.73215248 C15.1045822,8.23762689 15.5054744,7.83673469 16,7.83673469 C16.4945256,7.83673469 16.8954178,8.23762689 16.8954178,8.73215248 C16.8954178,9.22667806 16.4945256,9.62757026 16,9.62757026 Z" id="Path" fill="#006EAE"></path>
                        <path d="M16,12.3137851 C15.5054744,12.3137851 15.1045822,11.9128929 15.1045822,11.4183673 C15.1045822,10.9238418 15.5054744,10.5229496 16,10.5229496 C16.4945256,10.5229496 16.8954178,10.9238418 16.8954178,11.4183673 C16.8954178,11.9128929 16.4945256,12.3137851 16,12.3137851 Z" id="Path" fill="#006EAE"></path>
                        <path d="M25.9540624,6.94131691 C25.6327689,6.94342303 25.3349763,6.77322314 25.1737185,6.49532056 C25.0124607,6.21741798 25.0124607,5.87441875 25.1737185,5.59651617 C25.3349763,5.31861359 25.6327689,5.1484137 25.9540624,5.15051982 C26.4462868,5.15374641 26.8436107,5.55368341 26.8436107,6.04591837 C26.8436107,6.53815333 26.4462868,6.93809032 25.9540624,6.94131691 Z" id="Path" fill="#006EAE"></path>
                        <path d="M25.9540624,9.62757026 C25.4595368,9.62757026 25.0586446,9.22667806 25.0586446,8.73215248 C25.0586446,8.23762689 25.4595368,7.83673469 25.9540624,7.83673469 C26.448588,7.83673469 26.8494802,8.23762689 26.8494802,8.73215248 C26.8494802,9.22667806 26.448588,9.62757026 25.9540624,9.62757026 Z" id="Path" fill="#006EAE"></path>
                        <path d="M25.9540624,12.3137851 C25.4595368,12.3137851 25.0586446,11.9128929 25.0586446,11.4183673 C25.0586446,10.9238418 25.4595368,10.5229496 25.9540624,10.5229496 C26.448588,10.5229496 26.8494802,10.9238418 26.8494802,11.4183673 C26.8494802,11.9128929 26.448588,12.3137851 25.9540624,12.3137851 Z" id="Path" fill="#006EAE"></path>
                        <path d="M5.15051982,15.8953793 L6.94131691,15.8953793 C7.4358425,15.8953793 7.83673469,16.2962715 7.83673469,16.7907971 C7.83673469,17.2853227 7.4358425,17.6862149 6.94131691,17.6862149 L5.15051982,17.6862149 C4.65829544,17.6829883 4.26097149,17.2830513 4.26097149,16.7908163 C4.26097149,16.2985814 4.65829544,15.8986444 5.15051982,15.8954178 L5.15051982,15.8953793 Z" id="Path" fill="#006EAE"></path>
                        <path d="M5.15051982,23.0586831 L6.94131691,23.0586831 C7.4335413,23.0619097 7.83086525,23.4618467 7.83086525,23.9540816 C7.83086525,24.4463166 7.4335413,24.8462536 6.94131691,24.8494802 L5.15051982,24.8494802 C4.65829544,24.8462536 4.26097149,24.4463166 4.26097149,23.9540816 C4.26097149,23.4618467 4.65829544,23.0619097 5.15051982,23.0586831 Z" id="Path" fill="#006EAE"></path>
                        <path d="M5.15051982,19.4770504 L6.94131691,19.4770504 C7.4335413,19.480277 7.83086525,19.880214 7.83086525,20.372449 C7.83086525,20.8646839 7.4335413,21.2646209 6.94131691,21.2678475 L5.15051982,21.2678475 C4.65829544,21.2646209 4.26097149,20.8646839 4.26097149,20.372449 C4.26097149,19.880214 4.65829544,19.480277 5.15051982,19.4770504 Z" id="Path" fill="#006EAE"></path>
                        <path d="M15.1045822,15.8954178 L16.8954178,15.8954178 C17.3876422,15.8986444 17.7849661,16.2985814 17.7849661,16.7908163 C17.7849661,17.2830513 17.3876422,17.6829883 16.8954178,17.6862149 L15.1045822,17.6862149 C14.6123578,17.6829883 14.2150339,17.2830513 14.2150339,16.7908163 C14.2150339,16.2985814 14.6123578,15.8986444 15.1045822,15.8954178 Z" id="Path" fill="#006EAE"></path>
                        <path d="M15.1045822,23.0586831 L16.8954178,23.0586831 C17.3876422,23.0619097 17.7849661,23.4618467 17.7849661,23.9540816 C17.7849661,24.4463166 17.3876422,24.8462536 16.8954178,24.8494802 L15.1045822,24.8494802 C14.6123578,24.8462536 14.2150339,24.4463166 14.2150339,23.9540816 C14.2150339,23.4618467 14.6123578,23.0619097 15.1045822,23.0586831 Z" id="Path" fill="#006EAE"></path>
                        <path d="M15.1045822,19.4770504 L16.8954178,19.4770504 C17.3876422,19.480277 17.7849661,19.880214 17.7849661,20.372449 C17.7849661,20.8646839 17.3876422,21.2646209 16.8954178,21.2678475 L15.1045822,21.2678475 C14.6123578,21.2646209 14.2150339,20.8646839 14.2150339,20.372449 C14.2150339,19.880214 14.6123578,19.480277 15.1045822,19.4770504 Z" id="Path" fill="#006EAE"></path>
                        <path d="M25.0586831,15.8954178 L26.8494802,15.8954178 C27.3417046,15.8986444 27.7390285,16.2985814 27.7390285,16.7908163 C27.7390285,17.2830513 27.3417046,17.6829883 26.8494802,17.6862149 L25.0586831,17.6862149 C24.5664587,17.6829883 24.1691348,17.2830513 24.1691348,16.7908163 C24.1691348,16.2985814 24.5664587,15.8986444 25.0586831,15.8954178 Z" id="Path" fill="#006EAE"></path>
                        <path d="M25.0586831,23.0586831 L26.8494802,23.0586831 C27.3417046,23.0619097 27.7390285,23.4618467 27.7390285,23.9540816 C27.7390285,24.4463166 27.3417046,24.8462536 26.8494802,24.8494802 L25.0586831,24.8494802 C24.5664587,24.8462536 24.1691348,24.4463166 24.1691348,23.9540816 C24.1691348,23.4618467 24.5664587,23.0619097 25.0586831,23.0586831 Z" id="Path" fill="#006EAE"></path>
                        <path d="M25.0586831,19.4770504 L26.8494802,19.4770504 C27.3417046,19.480277 27.7390285,19.880214 27.7390285,20.372449 C27.7390285,20.8646839 27.3417046,21.2646209 26.8494802,21.2678475 L25.0586831,21.2678475 C24.5664587,21.2646209 24.1691348,20.8646839 24.1691348,20.372449 C24.1691348,19.880214 24.5664587,19.480277 25.0586831,19.4770504 Z" id="Path" fill="#006EAE"></path>
                    </g>
                </g>
            </g>
        </g>
    </g>
</svg>