<?xml version="1.0" standalone="no"?><!DOCTYPE svg PUBLIC "-//W3C//DTD SVG 1.1//EN" "http://www.w3.org/Graphics/SVG/1.1/DTD/svg11.dtd"><svg t="1576476331433" class="icon" viewBox="0 0 1024 1024" version="1.1" xmlns="http://www.w3.org/2000/svg" p-id="35574" width="14" height="14" xmlns:xlink="http://www.w3.org/1999/xlink"><defs><style type="text/css"></style></defs><path d="M895 352.4c-20.9-49.4-50.8-93.7-88.8-131.7-38.1-38.1-82.4-67.9-131.7-88.8-51.2-21.7-105.5-32.7-161.4-32.7-55.9 0-110.2 11-161.4 32.6-49.4 20.9-93.7 50.8-131.7 88.8-38.1 38.1-67.9 82.4-88.8 131.7-21.6 51.1-32.6 105.4-32.6 161.4 0 55.9 11 110.2 32.6 161.4 20.9 49.4 50.8 93.7 88.8 131.7 38.1 38.1 82.4 67.9 131.7 88.8 51.1 21.6 105.4 32.6 161.4 32.6 55.9 0 110.2-11 161.4-32.6 49.4-20.9 93.7-50.8 131.7-88.8 38.1-38.1 67.9-82.4 88.8-131.7 21.6-51.1 32.6-105.4 32.6-161.4 0-55.9-11-110.2-32.6-161.3z m-381.9 517c-196.1 0-355.7-159.6-355.7-355.7S317 158 513.1 158s355.7 159.6 355.7 355.7c0 196.2-159.6 355.7-355.7 355.7z m0 0" p-id="35575"></path><path d="M724.2 484.1H542.7V302.6c0-14.3-13.3-25.9-29.6-25.9-16.4 0-29.6 11.6-29.6 25.9V484H302c-14.3 0-25.9 13.3-25.9 29.6 0 16.4 11.6 29.6 25.9 29.6h181.4v181.4c0 14.3 13.3 25.9 29.6 25.9 16.4 0 29.6-11.6 29.6-25.9V543.3H724c14.3 0 25.9-13.3 25.9-29.6 0.2-16.3-11.4-29.6-25.7-29.6z m0 0" p-id="35576"></path></svg>