<?xml version="1.0" standalone="no"?><!DOCTYPE svg PUBLIC "-//W3C//DTD SVG 1.1//EN" "http://www.w3.org/Graphics/SVG/1.1/DTD/svg11.dtd"><svg t="1576476027423" class="icon" viewBox="0 0 1024 1024" version="1.1" xmlns="http://www.w3.org/2000/svg" p-id="35202" width="14" height="14" xmlns:xlink="http://www.w3.org/1999/xlink"><defs><style type="text/css"></style></defs><path d="M896.2 220H128c-17.7 0-32 14.3-32 32s14.3 32 32 32h54v611.6c0 35.3 28.7 64 64 64h532.1c35.3 0 64-28.7 64-64V284h54c17.7 0 32-14.3 32-32s-14.3-32-31.9-32zM773.5 890.9H250.7V284h522.9v606.9zM384.1 128.2h256.1v91.6h64v-91.6c0-35.3-28.7-64-64-64H384.1c-35.3 0-64 28.7-64 64v91.6h64v-91.6z" p-id="35203"></path><path d="M415.5 768.8c17.7 0 32-14.3 32-32V429.3c0-17.7-14.3-32-32-32s-32 14.3-32 32v307.5c0 17.7 14.3 32 32 32zM606.1 768.8c17.7 0 32-14.3 32-32V429.3c0-17.7-14.3-32-32-32s-32 14.3-32 32v307.5c0 17.7 14.3 32 32 32z" p-id="35204"></path></svg>