<?xml version="1.0" encoding="utf-8"?>
<!-- Generator: Adobe Illustrator 16.0.0, SVG Export Plug-In . SVG Version: 6.00 Build 0)  -->
<!DOCTYPE svg PUBLIC "-//W3C//DTD SVG 1.1//EN" "http://www.w3.org/Graphics/SVG/1.1/DTD/svg11.dtd">
<svg version="1.1" id="图层_1" xmlns="http://www.w3.org/2000/svg" xmlns:xlink="http://www.w3.org/1999/xlink" x="0px" y="0px"
	 width="48px" height="48px" viewBox="0 0 48 48" enable-background="new 0 0 48 48" xml:space="preserve">
<g>
	<circle fill="#339A42" stroke="#00913A" stroke-miterlimit="10" cx="236.555" cy="20" r="20"/>
	<polygon fill="#D1E9D6" points="169.178,-44 155.393,-34.214 155.393,-53.786 	"/>
</g>
<g>
	<path fill="#DAAE1F" d="M43.607,21.199c1.547,1.547,1.547,4.055,0,5.602L26.801,43.608c-1.547,1.547-4.054,1.547-5.601,0
		L4.393,26.801c-1.549-1.547-1.549-4.055,0-5.602L21.2,4.393c1.547-1.548,4.054-1.548,5.601,0L43.607,21.199z"/>
	<g opacity="0.9">
		<path fill="#40220F" d="M19.538,31.381c-0.807,0.805-2.111,0.805-2.918,0l0,0c-0.805-0.806-0.805-2.112,0-2.917l11.843-11.845
			c0.807-0.805,2.111-0.805,2.918,0l0,0c0.805,0.807,0.805,2.111,0,2.918L19.538,31.381z"/>
		<path fill="#40220F" d="M16.62,19.537c-0.805-0.806-0.805-2.112,0-2.918l0,0c0.807-0.805,2.111-0.805,2.918,0l11.843,11.845
			c0.805,0.805,0.805,2.111,0,2.917l0,0c-0.807,0.806-2.113,0.805-2.918,0L16.62,19.537z"/>
	</g>
</g>
<g>
	<g>
		<path fill="#DCDDDD" d="M74.667,159.667c-10.477,0-19-8.523-19-19s8.523-19,19-19s19,8.523,19,19S85.144,159.667,74.667,159.667z"
			/>
		<path fill="#B62A22" d="M74.667,122.667c9.925,0,18,8.075,18,18s-8.075,18-18,18s-18-8.075-18-18S64.742,122.667,74.667,122.667
			 M74.667,120.667c-11.046,0-20,8.955-20,20c0,11.047,8.954,20,20,20c11.045,0,20-8.953,20-20
			C94.667,129.622,85.712,120.667,74.667,120.667L74.667,120.667z"/>
	</g>
	<path fill="#B62A22" d="M82.667,144.223c0,2.455-1.989,4.444-4.444,4.444h-7.111c-2.454,0-4.444-1.989-4.444-4.444v-7.111
		c0-2.454,1.99-4.444,4.444-4.444h7.111c2.455,0,4.444,1.99,4.444,4.444V144.223z"/>
</g>
</svg>
