<?xml version="1.0" encoding="utf-8"?>
<!-- Generator: Adobe Illustrator 16.0.0, SVG Export Plug-In . SVG Version: 6.00 Build 0)  -->
<!DOCTYPE svg PUBLIC "-//W3C//DTD SVG 1.1//EN" "http://www.w3.org/Graphics/SVG/1.1/DTD/svg11.dtd">
<svg version="1.1" id="图层_1" xmlns="http://www.w3.org/2000/svg" xmlns:xlink="http://www.w3.org/1999/xlink" x="0px" y="0px"
	 width="48px" height="48px" viewBox="0 0 48 48" enable-background="new 0 0 48 48" xml:space="preserve">
<g>
	<circle fill="#339A42" stroke="#00913A" stroke-miterlimit="10" cx="150.334" cy="24" r="20"/>
</g>
<g>
	<path fill="#DAAE1F" d="M215.395,99.407c1.547,1.547,1.547,4.055,0,5.602l-16.807,16.808c-1.547,1.547-4.054,1.547-5.601,0
		l-16.807-16.808c-1.549-1.547-1.549-4.055,0-5.602l16.807-16.807c1.547-1.548,4.054-1.548,5.601,0L215.395,99.407z"/>
	<g opacity="0.9">
		<path fill="#40220F" d="M191.325,109.589c-0.807,0.805-2.111,0.805-2.918,0l0,0c-0.805-0.806-0.805-2.112,0-2.917l11.843-11.845
			c0.807-0.805,2.111-0.805,2.918,0l0,0c0.805,0.807,0.805,2.111,0,2.918L191.325,109.589z"/>
		<path fill="#40220F" d="M188.407,97.745c-0.805-0.806-0.805-2.112,0-2.918l0,0c0.807-0.805,2.111-0.805,2.918,0l11.843,11.845
			c0.805,0.805,0.805,2.111,0,2.917l0,0c-0.807,0.806-2.113,0.805-2.918,0L188.407,97.745z"/>
	</g>
</g>
<g>
	<g>
		<path fill="#DCDDDD" d="M24,43C13.523,43,5,34.477,5,24S13.523,5,24,5s19,8.523,19,19S34.477,43,24,43z"/>
		<path fill="#B62A22" d="M24,6c9.925,0,18,8.075,18,18c0,9.925-8.075,18-18,18c-9.925,0-18-8.075-18-18C6,14.075,14.075,6,24,6
			 M24,4C12.954,4,4,12.955,4,24c0,11.047,8.954,20,20,20c11.045,0,20-8.953,20-20C44,12.955,35.045,4,24,4L24,4z"/>
	</g>
	<path fill="#B62A22" d="M32,27.556C32,30.011,30.012,32,27.557,32h-7.112C17.99,32,16,30.011,16,27.556v-7.111
		C16,17.99,17.99,16,20.444,16h7.112C30.012,16,32,17.99,32,20.444V27.556z"/>
</g>
</svg>
