<svg width="129" height="129" viewBox="0 0 129 129" fill="none" xmlns="http://www.w3.org/2000/svg">
<circle cx="64.5" cy="64.5" r="40.5" fill="url(#paint0_linear)" stroke="#8CB8E1" stroke-width="10"/>
<circle cx="64.5" cy="64.5" r="45" stroke="url(#paint1_linear)"/>
<circle opacity="0.1" cx="64.5" cy="64.5" r="64" stroke="#8CB8E1"/>
<ellipse cx="64.5" cy="91.5" rx="22.5" ry="1.5" fill="#6DADCD"/>
<path d="M56.5 85.5V78H71.5V85C71.5 87 74.8333 89.1667 76.5 90V91.5H51V90C51 90 55.5 87 56.5 85.5Z" fill="url(#paint2_linear)"/>
<rect x="30" y="37" width="67" height="45" fill="#F3F9FB"/>
<rect x="33" y="40" width="61" height="37" fill="url(#paint3_linear)"/>
<circle cx="63" cy="79" r="1" fill="#52A6D9"/>
<path opacity="0.3" d="M34 45.72C33.14 45.72 32.5 46.09 32.07 46.85C31.69 47.49 31.5 48.35 31.5 49.43C31.5 50.51 31.69 51.37 32.07 52.01C32.5 52.76 33.14 53.14 34 53.14C34.85 53.14 35.49 52.76 35.93 52.01C36.31 51.37 36.5 50.51 36.5 49.43C36.5 48.35 36.31 47.49 35.93 46.85C35.49 46.09 34.85 45.72 34 45.72ZM34 46.42C34.64 46.42 35.1 46.76 35.38 47.45C35.58 47.93 35.69 48.59 35.69 49.43C35.69 50.26 35.58 50.92 35.38 51.41C35.1 52.09 34.64 52.44 34 52.44C33.36 52.44 32.9 52.09 32.62 51.41C32.42 50.92 32.32 50.26 32.32 49.43C32.32 48.59 32.42 47.93 32.62 47.45C32.9 46.76 33.36 46.42 34 46.42ZM39.2961 45.86C39.0561 46.13 38.7761 46.37 38.4361 46.59C38.0961 46.79 37.7561 46.93 37.4361 47.02V47.84C38.1061 47.64 38.6661 47.32 39.1161 46.86V53H39.9361V45.86H39.2961ZM44.0098 45.72C43.1498 45.72 42.5098 46.09 42.0798 46.85C41.6998 47.49 41.5098 48.35 41.5098 49.43C41.5098 50.51 41.6998 51.37 42.0798 52.01C42.5098 52.76 43.1498 53.14 44.0098 53.14C44.8598 53.14 45.4998 52.76 45.9398 52.01C46.3198 51.37 46.5098 50.51 46.5098 49.43C46.5098 48.35 46.3198 47.49 45.9398 46.85C45.4998 46.09 44.8598 45.72 44.0098 45.72ZM44.0098 46.42C44.6498 46.42 45.1098 46.76 45.3898 47.45C45.5898 47.93 45.6998 48.59 45.6998 49.43C45.6998 50.26 45.5898 50.92 45.3898 51.41C45.1098 52.09 44.6498 52.44 44.0098 52.44C43.3698 52.44 42.9098 52.09 42.6298 51.41C42.4298 50.92 42.3298 50.26 42.3298 49.43C42.3298 48.59 42.4298 47.93 42.6298 47.45C42.9098 46.76 43.3698 46.42 44.0098 46.42ZM49.3059 45.86C49.0659 46.13 48.7859 46.37 48.4459 46.59C48.1059 46.79 47.7659 46.93 47.4459 47.02V47.84C48.1159 47.64 48.6759 47.32 49.1259 46.86V53H49.9459V45.86H49.3059ZM34 57.72C33.14 57.72 32.5 58.09 32.07 58.85C31.69 59.49 31.5 60.35 31.5 61.43C31.5 62.51 31.69 63.37 32.07 64.01C32.5 64.76 33.14 65.14 34 65.14C34.85 65.14 35.49 64.76 35.93 64.01C36.31 63.37 36.5 62.51 36.5 61.43C36.5 60.35 36.31 59.49 35.93 58.85C35.49 58.09 34.85 57.72 34 57.72ZM34 58.42C34.64 58.42 35.1 58.76 35.38 59.45C35.58 59.93 35.69 60.59 35.69 61.43C35.69 62.26 35.58 62.92 35.38 63.41C35.1 64.09 34.64 64.44 34 64.44C33.36 64.44 32.9 64.09 32.62 63.41C32.42 62.92 32.32 62.26 32.32 61.43C32.32 60.59 32.42 59.93 32.62 59.45C32.9 58.76 33.36 58.42 34 58.42ZM39.2961 57.86C39.0561 58.13 38.7761 58.37 38.4361 58.59C38.0961 58.79 37.7561 58.93 37.4361 59.02V59.84C38.1061 59.64 38.6661 59.32 39.1161 58.86V65H39.9361V57.86H39.2961ZM44.0098 57.72C43.1498 57.72 42.5098 58.09 42.0798 58.85C41.6998 59.49 41.5098 60.35 41.5098 61.43C41.5098 62.51 41.6998 63.37 42.0798 64.01C42.5098 64.76 43.1498 65.14 44.0098 65.14C44.8598 65.14 45.4998 64.76 45.9398 64.01C46.3198 63.37 46.5098 62.51 46.5098 61.43C46.5098 60.35 46.3198 59.49 45.9398 58.85C45.4998 58.09 44.8598 57.72 44.0098 57.72ZM44.0098 58.42C44.6498 58.42 45.1098 58.76 45.3898 59.45C45.5898 59.93 45.6998 60.59 45.6998 61.43C45.6998 62.26 45.5898 62.92 45.3898 63.41C45.1098 64.09 44.6498 64.44 44.0098 64.44C43.3698 64.44 42.9098 64.09 42.6298 63.41C42.4298 62.92 42.3298 62.26 42.3298 61.43C42.3298 60.59 42.4298 59.93 42.6298 59.45C42.9098 58.76 43.3698 58.42 44.0098 58.42ZM49.3059 57.86C49.0659 58.13 48.7859 58.37 48.4459 58.59C48.1059 58.79 47.7659 58.93 47.4459 59.02V59.84C48.1159 59.64 48.6759 59.32 49.1259 58.86V65H49.9459V57.86H49.3059ZM34 69.72C33.14 69.72 32.5 70.09 32.07 70.85C31.69 71.49 31.5 72.35 31.5 73.43C31.5 74.51 31.69 75.37 32.07 76.01C32.5 76.76 33.14 77.14 34 77.14C34.85 77.14 35.49 76.76 35.93 76.01C36.31 75.37 36.5 74.51 36.5 73.43C36.5 72.35 36.31 71.49 35.93 70.85C35.49 70.09 34.85 69.72 34 69.72ZM34 70.42C34.64 70.42 35.1 70.76 35.38 71.45C35.58 71.93 35.69 72.59 35.69 73.43C35.69 74.26 35.58 74.92 35.38 75.41C35.1 76.09 34.64 76.44 34 76.44C33.36 76.44 32.9 76.09 32.62 75.41C32.42 74.92 32.32 74.26 32.32 73.43C32.32 72.59 32.42 71.93 32.62 71.45C32.9 70.76 33.36 70.42 34 70.42ZM39.2961 69.86C39.0561 70.13 38.7761 70.37 38.4361 70.59C38.0961 70.79 37.7561 70.93 37.4361 71.02V71.84C38.1061 71.64 38.6661 71.32 39.1161 70.86V77H39.9361V69.86H39.2961ZM44.0098 69.72C43.1498 69.72 42.5098 70.09 42.0798 70.85C41.6998 71.49 41.5098 72.35 41.5098 73.43C41.5098 74.51 41.6998 75.37 42.0798 76.01C42.5098 76.76 43.1498 77.14 44.0098 77.14C44.8598 77.14 45.4998 76.76 45.9398 76.01C46.3198 75.37 46.5098 74.51 46.5098 73.43C46.5098 72.35 46.3198 71.49 45.9398 70.85C45.4998 70.09 44.8598 69.72 44.0098 69.72ZM44.0098 70.42C44.6498 70.42 45.1098 70.76 45.3898 71.45C45.5898 71.93 45.6998 72.59 45.6998 73.43C45.6998 74.26 45.5898 74.92 45.3898 75.41C45.1098 76.09 44.6498 76.44 44.0098 76.44C43.3698 76.44 42.9098 76.09 42.6298 75.41C42.4298 74.92 42.3298 74.26 42.3298 73.43C42.3298 72.59 42.4298 71.93 42.6298 71.45C42.9098 70.76 43.3698 70.42 44.0098 70.42ZM49.3059 69.86C49.0659 70.13 48.7859 70.37 48.4459 70.59C48.1059 70.79 47.7659 70.93 47.4459 71.02V71.84C48.1159 71.64 48.6759 71.32 49.1259 70.86V77H49.9459V69.86H49.3059Z" fill="white"/>
<path opacity="0.3" d="M56 45.72C55.14 45.72 54.5 46.09 54.07 46.85C53.69 47.49 53.5 48.35 53.5 49.43C53.5 50.51 53.69 51.37 54.07 52.01C54.5 52.76 55.14 53.14 56 53.14C56.85 53.14 57.49 52.76 57.93 52.01C58.31 51.37 58.5 50.51 58.5 49.43C58.5 48.35 58.31 47.49 57.93 46.85C57.49 46.09 56.85 45.72 56 45.72ZM56 46.42C56.64 46.42 57.1 46.76 57.38 47.45C57.58 47.93 57.69 48.59 57.69 49.43C57.69 50.26 57.58 50.92 57.38 51.41C57.1 52.09 56.64 52.44 56 52.44C55.36 52.44 54.9 52.09 54.62 51.41C54.42 50.92 54.32 50.26 54.32 49.43C54.32 48.59 54.42 47.93 54.62 47.45C54.9 46.76 55.36 46.42 56 46.42ZM61.2961 45.86C61.0561 46.13 60.7761 46.37 60.4361 46.59C60.0961 46.79 59.7561 46.93 59.4361 47.02V47.84C60.1061 47.64 60.6661 47.32 61.1161 46.86V53H61.9361V45.86H61.2961ZM66.0098 45.72C65.1498 45.72 64.5098 46.09 64.0798 46.85C63.6998 47.49 63.5098 48.35 63.5098 49.43C63.5098 50.51 63.6998 51.37 64.0798 52.01C64.5098 52.76 65.1498 53.14 66.0098 53.14C66.8598 53.14 67.4998 52.76 67.9398 52.01C68.3198 51.37 68.5098 50.51 68.5098 49.43C68.5098 48.35 68.3198 47.49 67.9398 46.85C67.4998 46.09 66.8598 45.72 66.0098 45.72ZM66.0098 46.42C66.6498 46.42 67.1098 46.76 67.3898 47.45C67.5898 47.93 67.6998 48.59 67.6998 49.43C67.6998 50.26 67.5898 50.92 67.3898 51.41C67.1098 52.09 66.6498 52.44 66.0098 52.44C65.3698 52.44 64.9098 52.09 64.6298 51.41C64.4298 50.92 64.3298 50.26 64.3298 49.43C64.3298 48.59 64.4298 47.93 64.6298 47.45C64.9098 46.76 65.3698 46.42 66.0098 46.42ZM71.3059 45.86C71.0659 46.13 70.7859 46.37 70.4459 46.59C70.1059 46.79 69.7659 46.93 69.4459 47.02V47.84C70.1159 47.64 70.6759 47.32 71.1259 46.86V53H71.9459V45.86H71.3059ZM56 57.72C55.14 57.72 54.5 58.09 54.07 58.85C53.69 59.49 53.5 60.35 53.5 61.43C53.5 62.51 53.69 63.37 54.07 64.01C54.5 64.76 55.14 65.14 56 65.14C56.85 65.14 57.49 64.76 57.93 64.01C58.31 63.37 58.5 62.51 58.5 61.43C58.5 60.35 58.31 59.49 57.93 58.85C57.49 58.09 56.85 57.72 56 57.72ZM56 58.42C56.64 58.42 57.1 58.76 57.38 59.45C57.58 59.93 57.69 60.59 57.69 61.43C57.69 62.26 57.58 62.92 57.38 63.41C57.1 64.09 56.64 64.44 56 64.44C55.36 64.44 54.9 64.09 54.62 63.41C54.42 62.92 54.32 62.26 54.32 61.43C54.32 60.59 54.42 59.93 54.62 59.45C54.9 58.76 55.36 58.42 56 58.42ZM61.2961 57.86C61.0561 58.13 60.7761 58.37 60.4361 58.59C60.0961 58.79 59.7561 58.93 59.4361 59.02V59.84C60.1061 59.64 60.6661 59.32 61.1161 58.86V65H61.9361V57.86H61.2961ZM66.0098 57.72C65.1498 57.72 64.5098 58.09 64.0798 58.85C63.6998 59.49 63.5098 60.35 63.5098 61.43C63.5098 62.51 63.6998 63.37 64.0798 64.01C64.5098 64.76 65.1498 65.14 66.0098 65.14C66.8598 65.14 67.4998 64.76 67.9398 64.01C68.3198 63.37 68.5098 62.51 68.5098 61.43C68.5098 60.35 68.3198 59.49 67.9398 58.85C67.4998 58.09 66.8598 57.72 66.0098 57.72ZM66.0098 58.42C66.6498 58.42 67.1098 58.76 67.3898 59.45C67.5898 59.93 67.6998 60.59 67.6998 61.43C67.6998 62.26 67.5898 62.92 67.3898 63.41C67.1098 64.09 66.6498 64.44 66.0098 64.44C65.3698 64.44 64.9098 64.09 64.6298 63.41C64.4298 62.92 64.3298 62.26 64.3298 61.43C64.3298 60.59 64.4298 59.93 64.6298 59.45C64.9098 58.76 65.3698 58.42 66.0098 58.42ZM71.3059 57.86C71.0659 58.13 70.7859 58.37 70.4459 58.59C70.1059 58.79 69.7659 58.93 69.4459 59.02V59.84C70.1159 59.64 70.6759 59.32 71.1259 58.86V65H71.9459V57.86H71.3059ZM56 69.72C55.14 69.72 54.5 70.09 54.07 70.85C53.69 71.49 53.5 72.35 53.5 73.43C53.5 74.51 53.69 75.37 54.07 76.01C54.5 76.76 55.14 77.14 56 77.14C56.85 77.14 57.49 76.76 57.93 76.01C58.31 75.37 58.5 74.51 58.5 73.43C58.5 72.35 58.31 71.49 57.93 70.85C57.49 70.09 56.85 69.72 56 69.72ZM56 70.42C56.64 70.42 57.1 70.76 57.38 71.45C57.58 71.93 57.69 72.59 57.69 73.43C57.69 74.26 57.58 74.92 57.38 75.41C57.1 76.09 56.64 76.44 56 76.44C55.36 76.44 54.9 76.09 54.62 75.41C54.42 74.92 54.32 74.26 54.32 73.43C54.32 72.59 54.42 71.93 54.62 71.45C54.9 70.76 55.36 70.42 56 70.42ZM61.2961 69.86C61.0561 70.13 60.7761 70.37 60.4361 70.59C60.0961 70.79 59.7561 70.93 59.4361 71.02V71.84C60.1061 71.64 60.6661 71.32 61.1161 70.86V77H61.9361V69.86H61.2961ZM66.0098 69.72C65.1498 69.72 64.5098 70.09 64.0798 70.85C63.6998 71.49 63.5098 72.35 63.5098 73.43C63.5098 74.51 63.6998 75.37 64.0798 76.01C64.5098 76.76 65.1498 77.14 66.0098 77.14C66.8598 77.14 67.4998 76.76 67.9398 76.01C68.3198 75.37 68.5098 74.51 68.5098 73.43C68.5098 72.35 68.3198 71.49 67.9398 70.85C67.4998 70.09 66.8598 69.72 66.0098 69.72ZM66.0098 70.42C66.6498 70.42 67.1098 70.76 67.3898 71.45C67.5898 71.93 67.6998 72.59 67.6998 73.43C67.6998 74.26 67.5898 74.92 67.3898 75.41C67.1098 76.09 66.6498 76.44 66.0098 76.44C65.3698 76.44 64.9098 76.09 64.6298 75.41C64.4298 74.92 64.3298 74.26 64.3298 73.43C64.3298 72.59 64.4298 71.93 64.6298 71.45C64.9098 70.76 65.3698 70.42 66.0098 70.42ZM71.3059 69.86C71.0659 70.13 70.7859 70.37 70.4459 70.59C70.1059 70.79 69.7659 70.93 69.4459 71.02V71.84C70.1159 71.64 70.6759 71.32 71.1259 70.86V77H71.9459V69.86H71.3059Z" fill="white"/>
<path opacity="0.3" d="M78 45.72C77.14 45.72 76.5 46.09 76.07 46.85C75.69 47.49 75.5 48.35 75.5 49.43C75.5 50.51 75.69 51.37 76.07 52.01C76.5 52.76 77.14 53.14 78 53.14C78.85 53.14 79.49 52.76 79.93 52.01C80.31 51.37 80.5 50.51 80.5 49.43C80.5 48.35 80.31 47.49 79.93 46.85C79.49 46.09 78.85 45.72 78 45.72ZM78 46.42C78.64 46.42 79.1 46.76 79.38 47.45C79.58 47.93 79.69 48.59 79.69 49.43C79.69 50.26 79.58 50.92 79.38 51.41C79.1 52.09 78.64 52.44 78 52.44C77.36 52.44 76.9 52.09 76.62 51.41C76.42 50.92 76.32 50.26 76.32 49.43C76.32 48.59 76.42 47.93 76.62 47.45C76.9 46.76 77.36 46.42 78 46.42ZM83.2961 45.86C83.0561 46.13 82.7761 46.37 82.4361 46.59C82.0961 46.79 81.7561 46.93 81.4361 47.02V47.84C82.1061 47.64 82.6661 47.32 83.1161 46.86V53H83.9361V45.86H83.2961ZM88.0098 45.72C87.1498 45.72 86.5098 46.09 86.0798 46.85C85.6998 47.49 85.5098 48.35 85.5098 49.43C85.5098 50.51 85.6998 51.37 86.0798 52.01C86.5098 52.76 87.1498 53.14 88.0098 53.14C88.8598 53.14 89.4998 52.76 89.9398 52.01C90.3198 51.37 90.5098 50.51 90.5098 49.43C90.5098 48.35 90.3198 47.49 89.9398 46.85C89.4998 46.09 88.8598 45.72 88.0098 45.72ZM88.0098 46.42C88.6498 46.42 89.1098 46.76 89.3898 47.45C89.5898 47.93 89.6998 48.59 89.6998 49.43C89.6998 50.26 89.5898 50.92 89.3898 51.41C89.1098 52.09 88.6498 52.44 88.0098 52.44C87.3698 52.44 86.9098 52.09 86.6298 51.41C86.4298 50.92 86.3298 50.26 86.3298 49.43C86.3298 48.59 86.4298 47.93 86.6298 47.45C86.9098 46.76 87.3698 46.42 88.0098 46.42ZM93.3059 45.86C93.0659 46.13 92.7859 46.37 92.4459 46.59C92.1059 46.79 91.7659 46.93 91.4459 47.02V47.84C92.1159 47.64 92.6759 47.32 93.1259 46.86V53H93.9459V45.86H93.3059ZM78 57.72C77.14 57.72 76.5 58.09 76.07 58.85C75.69 59.49 75.5 60.35 75.5 61.43C75.5 62.51 75.69 63.37 76.07 64.01C76.5 64.76 77.14 65.14 78 65.14C78.85 65.14 79.49 64.76 79.93 64.01C80.31 63.37 80.5 62.51 80.5 61.43C80.5 60.35 80.31 59.49 79.93 58.85C79.49 58.09 78.85 57.72 78 57.72ZM78 58.42C78.64 58.42 79.1 58.76 79.38 59.45C79.58 59.93 79.69 60.59 79.69 61.43C79.69 62.26 79.58 62.92 79.38 63.41C79.1 64.09 78.64 64.44 78 64.44C77.36 64.44 76.9 64.09 76.62 63.41C76.42 62.92 76.32 62.26 76.32 61.43C76.32 60.59 76.42 59.93 76.62 59.45C76.9 58.76 77.36 58.42 78 58.42ZM83.2961 57.86C83.0561 58.13 82.7761 58.37 82.4361 58.59C82.0961 58.79 81.7561 58.93 81.4361 59.02V59.84C82.1061 59.64 82.6661 59.32 83.1161 58.86V65H83.9361V57.86H83.2961ZM88.0098 57.72C87.1498 57.72 86.5098 58.09 86.0798 58.85C85.6998 59.49 85.5098 60.35 85.5098 61.43C85.5098 62.51 85.6998 63.37 86.0798 64.01C86.5098 64.76 87.1498 65.14 88.0098 65.14C88.8598 65.14 89.4998 64.76 89.9398 64.01C90.3198 63.37 90.5098 62.51 90.5098 61.43C90.5098 60.35 90.3198 59.49 89.9398 58.85C89.4998 58.09 88.8598 57.72 88.0098 57.72ZM88.0098 58.42C88.6498 58.42 89.1098 58.76 89.3898 59.45C89.5898 59.93 89.6998 60.59 89.6998 61.43C89.6998 62.26 89.5898 62.92 89.3898 63.41C89.1098 64.09 88.6498 64.44 88.0098 64.44C87.3698 64.44 86.9098 64.09 86.6298 63.41C86.4298 62.92 86.3298 62.26 86.3298 61.43C86.3298 60.59 86.4298 59.93 86.6298 59.45C86.9098 58.76 87.3698 58.42 88.0098 58.42ZM93.3059 57.86C93.0659 58.13 92.7859 58.37 92.4459 58.59C92.1059 58.79 91.7659 58.93 91.4459 59.02V59.84C92.1159 59.64 92.6759 59.32 93.1259 58.86V65H93.9459V57.86H93.3059ZM78 69.72C77.14 69.72 76.5 70.09 76.07 70.85C75.69 71.49 75.5 72.35 75.5 73.43C75.5 74.51 75.69 75.37 76.07 76.01C76.5 76.76 77.14 77.14 78 77.14C78.85 77.14 79.49 76.76 79.93 76.01C80.31 75.37 80.5 74.51 80.5 73.43C80.5 72.35 80.31 71.49 79.93 70.85C79.49 70.09 78.85 69.72 78 69.72ZM78 70.42C78.64 70.42 79.1 70.76 79.38 71.45C79.58 71.93 79.69 72.59 79.69 73.43C79.69 74.26 79.58 74.92 79.38 75.41C79.1 76.09 78.64 76.44 78 76.44C77.36 76.44 76.9 76.09 76.62 75.41C76.42 74.92 76.32 74.26 76.32 73.43C76.32 72.59 76.42 71.93 76.62 71.45C76.9 70.76 77.36 70.42 78 70.42ZM83.2961 69.86C83.0561 70.13 82.7761 70.37 82.4361 70.59C82.0961 70.79 81.7561 70.93 81.4361 71.02V71.84C82.1061 71.64 82.6661 71.32 83.1161 70.86V77H83.9361V69.86H83.2961ZM88.0098 69.72C87.1498 69.72 86.5098 70.09 86.0798 70.85C85.6998 71.49 85.5098 72.35 85.5098 73.43C85.5098 74.51 85.6998 75.37 86.0798 76.01C86.5098 76.76 87.1498 77.14 88.0098 77.14C88.8598 77.14 89.4998 76.76 89.9398 76.01C90.3198 75.37 90.5098 74.51 90.5098 73.43C90.5098 72.35 90.3198 71.49 89.9398 70.85C89.4998 70.09 88.8598 69.72 88.0098 69.72ZM88.0098 70.42C88.6498 70.42 89.1098 70.76 89.3898 71.45C89.5898 71.93 89.6998 72.59 89.6998 73.43C89.6998 74.26 89.5898 74.92 89.3898 75.41C89.1098 76.09 88.6498 76.44 88.0098 76.44C87.3698 76.44 86.9098 76.09 86.6298 75.41C86.4298 74.92 86.3298 74.26 86.3298 73.43C86.3298 72.59 86.4298 71.93 86.6298 71.45C86.9098 70.76 87.3698 70.42 88.0098 70.42ZM93.3059 69.86C93.0659 70.13 92.7859 70.37 92.4459 70.59C92.1059 70.79 91.7659 70.93 91.4459 71.02V71.84C92.1159 71.64 92.6759 71.32 93.1259 70.86V77H93.9459V69.86H93.3059Z" fill="white"/>
<rect x="39" y="60" width="51" height="4" fill="url(#paint4_linear)"/>
<rect x="52" y="90" width="25" height="1" fill="white"/>
<defs>
<linearGradient id="paint0_linear" x1="64.5" y1="19" x2="64.5" y2="110" gradientUnits="userSpaceOnUse">
<stop stop-color="#3463AB"/>
<stop offset="1" stop-color="#BAEDFF"/>
</linearGradient>
<linearGradient id="paint1_linear" x1="64.5" y1="19" x2="64.5" y2="110" gradientUnits="userSpaceOnUse">
<stop stop-color="#DDEFFF"/>
<stop offset="1" stop-color="#5E9ED9" stop-opacity="0"/>
</linearGradient>
<linearGradient id="paint2_linear" x1="63.75" y1="78" x2="63.75" y2="91.5" gradientUnits="userSpaceOnUse">
<stop stop-color="#89B1CE"/>
<stop offset="1" stop-color="#E6F1FF"/>
</linearGradient>
<linearGradient id="paint3_linear" x1="63.5" y1="40" x2="63.5" y2="77" gradientUnits="userSpaceOnUse">
<stop stop-color="#B6DDF4"/>
<stop offset="1" stop-color="#72BBE8"/>
</linearGradient>
<linearGradient id="paint4_linear" x1="64.5" y1="60" x2="64.5" y2="64" gradientUnits="userSpaceOnUse">
<stop stop-color="#ED4D4D"/>
<stop offset="1" stop-color="#ED4D4D" stop-opacity="0"/>
</linearGradient>
</defs>
</svg>
