<svg width="138" height="129" viewBox="0 0 138 129" fill="none" xmlns="http://www.w3.org/2000/svg">
<g opacity="0.9">
<circle cx="64.5" cy="64.5" r="40.5" fill="url(#paint0_linear)" stroke="#8CB8E1" stroke-width="10"/>
<circle cx="64.5" cy="64.5" r="45" stroke="url(#paint1_linear)"/>
<circle opacity="0.1" cx="64.5" cy="64.5" r="64" stroke="#8CB8E1"/>
<ellipse cx="64.5" cy="91.5" rx="22.5" ry="1.5" fill="#6DADCD"/>
<path d="M56.5 85.5V78H71.5V85C71.5 87 74.8333 89.1667 76.5 90V91.5H51V90C51 90 55.5 87 56.5 85.5Z" fill="url(#paint2_linear)"/>
<rect x="30" y="37" width="67" height="45" fill="#F3F9FB"/>
<rect x="33" y="40" width="61" height="37" fill="url(#paint3_linear)"/>
<circle cx="63" cy="79" r="1" fill="#52A6D9"/>
<g clip-path="url(#clip0)" filter="url(#filter0_d)">
<path d="M72.5376 55.9033H72.4751C72.0723 55.9043 71.6783 56.0207 71.3396 56.2386C71.2004 55.8024 70.9254 55.4221 70.5549 55.1531C70.1844 54.8842 69.7376 54.7406 69.2797 54.7433C68.8572 54.7433 68.4428 54.8593 68.0817 55.0786C67.9403 54.6438 67.6648 54.2649 67.2947 53.9963C66.9247 53.7277 66.4791 53.5831 66.0219 53.5834C65.6523 53.5801 65.2877 53.6685 64.9607 53.8407V51.5978C64.9665 51.3095 64.9145 51.0228 64.8078 50.7548C64.7011 50.4868 64.5419 50.2429 64.3394 50.0374C64.137 49.832 63.8955 49.6691 63.6291 49.5584C63.3627 49.4477 63.0769 49.3915 62.7885 49.393C62.1989 49.3894 61.6318 49.619 61.2109 50.0319C60.7901 50.4448 60.5496 51.0074 60.5419 51.5969V59.2672C60.5427 59.341 60.5219 59.4135 60.4821 59.4756C60.4423 59.5378 60.3852 59.5869 60.3178 59.6171C60.2504 59.6472 60.1757 59.657 60.1028 59.6452C60.0299 59.6335 59.9621 59.6007 59.9076 59.5508L59.1708 58.8259C58.7309 58.4392 58.1652 58.226 57.5795 58.226C56.9938 58.226 56.4281 58.4392 55.9882 58.8259C55.5343 59.2423 55.2627 59.8208 55.2323 60.436C55.202 61.0512 55.4153 61.6537 55.826 62.1127C56.8228 63.492 59.9203 67.8491 60.619 68.7282C62.5538 71.1641 65.0495 70.9937 67.7836 70.9937C74.1271 70.9937 74.7107 66.6883 74.7107 62.5115V58.1072C74.7154 57.819 74.6626 57.5326 74.5553 57.265C74.448 56.9974 74.2885 56.7539 74.086 56.5486C73.8835 56.3434 73.642 56.1807 73.3759 56.0698C73.1097 55.959 72.8241 55.9024 72.5358 55.9033H72.5376ZM59.6566 53.1701C59.657 53.0334 59.6315 52.8977 59.5813 52.7705C59.4324 52.3928 59.3562 51.9903 59.3566 51.5842C59.3712 50.6934 59.7353 49.844 60.3704 49.2191C61.0055 48.5943 61.8608 48.2441 62.7518 48.2441C63.6427 48.2441 64.498 48.5943 65.1331 49.2191C65.7683 49.844 66.1324 50.6934 66.1469 51.5842C66.149 51.6751 66.1447 51.7659 66.1342 51.8561C66.121 51.9713 66.1488 52.0874 66.2128 52.1841C66.2768 52.2807 66.3728 52.3517 66.484 52.3844H66.4967C66.5896 52.4109 66.6872 52.4162 66.7824 52.4C66.8776 52.3838 66.968 52.3466 67.047 52.291C67.126 52.2354 67.1915 52.1629 67.2388 52.0787C67.2861 51.9945 67.314 51.9008 67.3205 51.8045C67.3205 51.7274 67.3332 51.6631 67.3332 51.5852C67.3369 50.9031 67.1879 50.2289 66.8971 49.6119C66.6062 48.995 66.1809 48.451 65.6523 48.0199C65.1238 47.5888 64.5054 47.2815 63.8426 47.1206C63.1798 46.9597 62.4893 46.9493 61.8219 47.0901C61.1546 47.2309 60.5272 47.5193 59.9859 47.9343C59.4445 48.3492 59.003 48.8801 58.6936 49.488C58.3843 50.0959 58.2149 50.7653 58.1981 51.4472C58.1813 52.129 58.3173 52.806 58.5963 53.4284C58.6503 53.5455 58.7433 53.6402 58.8593 53.6964C58.9754 53.7525 59.1074 53.7666 59.2327 53.7362C59.358 53.7058 59.4689 53.6328 59.5464 53.5297C59.6239 53.4267 59.6631 53.2999 59.6575 53.171L59.6566 53.1701Z" fill="white"/>
</g>
<rect x="52" y="90" width="25" height="1" fill="white"/>
</g>
<defs>
<filter id="filter0_d" x="49" y="45" width="32" height="32" filterUnits="userSpaceOnUse" color-interpolation-filters="sRGB">
<feFlood flood-opacity="0" result="BackgroundImageFix"/>
<feColorMatrix in="SourceAlpha" type="matrix" values="0 0 0 0 0 0 0 0 0 0 0 0 0 0 0 0 0 0 127 0"/>
<feOffset dy="2"/>
<feGaussianBlur stdDeviation="2"/>
<feColorMatrix type="matrix" values="0 0 0 0 0.335174 0 0 0 0 0.635016 0 0 0 0 0.820833 0 0 0 1 0"/>
<feBlend mode="normal" in2="BackgroundImageFix" result="effect1_dropShadow"/>
<feBlend mode="normal" in="SourceGraphic" in2="effect1_dropShadow" result="shape"/>
</filter>
<linearGradient id="paint0_linear" x1="64.5" y1="19" x2="64.5" y2="110" gradientUnits="userSpaceOnUse">
<stop stop-color="#3463AB"/>
<stop offset="1" stop-color="#BAEDFF"/>
</linearGradient>
<linearGradient id="paint1_linear" x1="64.5" y1="19" x2="64.5" y2="110" gradientUnits="userSpaceOnUse">
<stop stop-color="#DDEFFF"/>
<stop offset="1" stop-color="#5E9ED9" stop-opacity="0"/>
</linearGradient>
<linearGradient id="paint2_linear" x1="63.75" y1="78" x2="63.75" y2="91.5" gradientUnits="userSpaceOnUse">
<stop stop-color="#89B1CE"/>
<stop offset="1" stop-color="#E6F1FF"/>
</linearGradient>
<linearGradient id="paint3_linear" x1="63.5" y1="40" x2="63.5" y2="77" gradientUnits="userSpaceOnUse">
<stop stop-color="#B6DDF4"/>
<stop offset="1" stop-color="#72BBE8"/>
</linearGradient>
<clipPath id="clip0">
<rect width="24" height="24" fill="white" transform="translate(53 47)"/>
</clipPath>
</defs>
</svg>
