<svg width="138" height="129" viewBox="0 0 138 129" fill="none" xmlns="http://www.w3.org/2000/svg">
<circle cx="64.5" cy="64.5" r="40.5" fill="url(#paint0_linear)" stroke="#8CB8E1" stroke-width="10"/>
<circle cx="64.5" cy="64.5" r="45" stroke="url(#paint1_linear)"/>
<circle opacity="0.1" cx="64.5" cy="64.5" r="64" stroke="#8CB8E1"/>
<ellipse cx="64.5" cy="91.5" rx="22.5" ry="1.5" fill="#6DADCD"/>
<path d="M56.5 85.5V78H71.5V85C71.5 87 74.8333 89.1667 76.5 90V91.5H51V90C51 90 55.5 87 56.5 85.5Z" fill="url(#paint2_linear)"/>
<rect x="30" y="37" width="67" height="45" fill="#F3F9FB"/>
<rect x="33" y="40" width="61" height="37" fill="url(#paint3_linear)"/>
<g clip-path="url(#clip0)">
<path d="M62.7523 43.0524C65.3359 42.837 67.9747 43.2948 70.3243 44.3928C72.7458 45.5215 74.8234 47.2741 76.3441 49.4706C77.6917 51.4148 78.557 53.6519 78.8683 55.9968C79.2133 58.5822 78.8797 61.2576 77.8849 63.6702C76.9861 65.8574 75.5836 67.8015 73.7917 69.3444C71.1859 71.604 67.7809 72.9132 64.3315 72.9726C63.5743 73.0278 62.8117 72.999 62.0659 72.8544C58.8271 72.4458 55.7437 70.932 53.4331 68.6262C51.8931 67.1021 50.7024 65.2617 49.9435 63.2322C49.0399 60.825 48.7831 58.1826 49.1827 55.6446C49.6082 52.943 50.7678 50.4102 52.5349 48.3228C54.3527 46.1709 56.7389 44.5733 59.4211 43.7124C60.5028 43.3665 61.6204 43.1451 62.7523 43.0524ZM64.2265 45.1692C64.7773 45.2052 65.3203 45.3996 65.7601 45.7356C66.1183 46.0122 66.4099 46.4118 66.4585 46.872C66.4957 47.1696 66.3901 47.4966 66.1387 47.6748C65.8873 47.862 65.5567 47.868 65.2573 47.8374C65.2027 48.6084 65.1487 49.3818 65.0665 50.151C65.0365 50.4582 64.8859 50.7588 64.6291 50.9358C64.1875 51.2502 63.6115 51.2598 63.1489 51.5304C62.9359 51.6534 62.7625 51.918 62.8651 52.167C62.9803 52.4418 63.2629 52.596 63.5293 52.6944C64.0417 52.8726 64.6105 52.878 65.1325 52.7376C65.3929 52.653 65.1235 52.2534 65.3827 52.1814C65.9431 52.0176 66.5689 51.9492 67.1299 52.137C67.0861 52.407 66.9445 52.6458 66.8227 52.8864C66.3319 53.802 65.7949 54.693 65.3059 55.6092C65.0911 56.1378 65.3023 56.7102 65.3167 57.255C65.3173 57.7068 65.3197 58.1694 65.1895 58.6062C65.1517 58.74 65.0419 58.9134 64.8781 58.8534C64.5775 58.7064 64.4125 58.3902 64.2331 58.1238C63.8833 57.591 63.6451 56.9874 63.2461 56.4888C63.1327 56.5176 63.0157 56.55 62.8963 56.5374C62.3095 56.4894 61.7563 56.2284 61.1647 56.2206C60.8935 56.2314 60.8251 56.5416 60.7711 56.754C60.7093 56.955 60.6835 57.2418 60.4471 57.3108C60.1621 57.3348 59.8771 57.2862 59.6011 57.2232C59.7451 58.3356 59.8165 59.4576 59.8273 60.579C59.8225 60.7176 59.9815 60.7542 60.0913 60.7356C60.6331 60.6648 61.1461 60.3846 61.7029 60.4476C62.2135 60.5016 62.6263 60.831 63.0241 61.125C63.3091 61.3458 63.6547 61.4712 63.9367 61.6974C64.5307 62.1336 64.9957 62.7258 65.6137 63.1296C65.7841 63.2532 66.0007 63.258 66.1903 63.3288C66.4993 63.5214 66.3847 63.9666 66.6193 64.2126C66.7255 64.3158 66.8833 64.2894 67.0177 64.2822C67.5451 64.227 68.0851 64.5516 68.2897 65.04C68.4127 65.3274 68.3851 65.6664 68.2405 65.9412C68.0245 66.384 67.5595 66.6246 67.3015 67.0374C66.6955 67.9374 66.5473 69.0402 66.2791 70.068C66.5047 70.0302 66.7621 69.9858 66.9649 70.1226C67.0795 70.1916 67.1275 70.3206 67.1779 70.437C69.423 69.8645 71.4712 68.6949 73.1053 67.0524C74.6205 65.5355 75.7319 63.6634 76.3381 61.6068C75.9577 62.3592 75.4117 63.0702 74.6449 63.4566C74.4055 63.5658 74.1007 63.6762 73.8565 63.5256C73.6681 63.3798 73.7341 63.1152 73.7827 62.919C73.2943 62.13 72.7549 61.3602 72.0739 60.7242C71.6485 60.3114 71.2915 59.802 71.1523 59.2182C71.0017 58.611 71.1235 57.9648 71.3983 57.411C71.9119 56.3832 72.7855 55.5966 73.6765 54.8976C73.4503 54.285 73.4953 53.5362 73.9369 53.0298C74.1967 52.7166 74.6485 52.5342 75.0421 52.695C75.4453 52.8546 75.6799 53.25 75.8473 53.628C75.9487 53.664 76.0477 53.7078 76.1443 53.757C75.3253 51.4368 73.8367 49.3554 71.8885 47.8488C70.0299 46.403 67.8088 45.4974 65.4691 45.2316C65.0551 45.1842 64.6405 45.147 64.2265 45.1692ZM53.6089 55.0416C53.5009 55.2828 53.3257 55.5 53.0803 55.6098C52.808 55.7343 52.5052 55.7762 52.2093 55.7302C51.9135 55.6842 51.6376 55.5525 51.4159 55.3512C51.0013 57.3744 51.0643 59.4978 51.6301 61.4862C52.2576 63.6993 53.4685 65.703 55.1359 67.2876C56.8619 68.9336 59.0126 70.0658 61.3465 70.557C61.5319 70.5876 61.7257 70.6698 61.9117 70.5978C62.4163 70.4448 62.9479 70.404 63.4729 70.4082C63.3793 69.6564 63.3673 68.8968 63.3685 68.1402C62.4307 67.4358 61.5133 66.672 60.8167 65.7192C60.5965 65.3988 60.3889 65.0436 60.3637 64.6464C60.3451 64.0662 60.4423 63.4914 60.5203 62.9178C60.5245 62.8014 60.5659 62.6376 60.4501 62.562C59.9623 62.4984 59.5009 62.7396 59.0173 62.7498C58.9493 62.7528 58.8821 62.7337 58.8258 62.6953C58.7696 62.6569 58.7273 62.6013 58.7053 62.5368C58.4671 61.9314 58.0561 61.3872 57.5077 61.0296C57.3349 60.9204 57.1513 60.8022 56.9401 60.7968C56.5579 60.7764 56.1763 60.6462 55.8877 60.3888C55.4953 60.045 55.2901 59.5422 55.1659 59.0466C54.9349 58.077 54.9493 57.0732 54.9361 56.0838C54.9355 55.854 54.8005 55.6446 54.6097 55.524C54.2959 55.3236 53.9329 55.224 53.6089 55.0416ZM76.6069 56.2374C76.7293 56.8452 76.8121 57.462 76.8259 58.0818C76.8853 57.1566 76.7551 56.2302 76.5775 55.323C76.5877 55.6278 76.5337 55.9374 76.6069 56.2374Z" fill="white"/>
</g>
<circle cx="63" cy="79" r="1" fill="#52A6D9"/>
<rect x="4" y="60" width="122" height="4" fill="url(#paint4_linear)"/>
<rect x="52" y="90" width="25" height="1" fill="white"/>
<defs>
<linearGradient id="paint0_linear" x1="64.5" y1="19" x2="64.5" y2="110" gradientUnits="userSpaceOnUse">
<stop stop-color="#3463AB"/>
<stop offset="1" stop-color="#BAEDFF"/>
</linearGradient>
<linearGradient id="paint1_linear" x1="64.5" y1="19" x2="64.5" y2="110" gradientUnits="userSpaceOnUse">
<stop stop-color="#DDEFFF"/>
<stop offset="1" stop-color="#5E9ED9" stop-opacity="0"/>
</linearGradient>
<linearGradient id="paint2_linear" x1="63.75" y1="78" x2="63.75" y2="91.5" gradientUnits="userSpaceOnUse">
<stop stop-color="#89B1CE"/>
<stop offset="1" stop-color="#E6F1FF"/>
</linearGradient>
<linearGradient id="paint3_linear" x1="63.5" y1="40" x2="63.5" y2="77" gradientUnits="userSpaceOnUse">
<stop stop-color="#B6DDF4"/>
<stop offset="1" stop-color="#72BBE8"/>
</linearGradient>
<linearGradient id="paint4_linear" x1="65" y1="60" x2="65" y2="64" gradientUnits="userSpaceOnUse">
<stop stop-color="#ED4D4D"/>
<stop offset="1" stop-color="#ED4D4D" stop-opacity="0"/>
</linearGradient>
<clipPath id="clip0">
<rect width="30" height="30" fill="white" transform="translate(49 43)"/>
</clipPath>
</defs>
</svg>
