<svg width="14" height="14" viewBox="0 0 14 14" fill="none" xmlns="http://www.w3.org/2000/svg">
<path fill-rule="evenodd" clip-rule="evenodd" d="M0.2 0C0.0895431 0 0 0.0895429 0 0.2V5.8C0 5.91046 0.0895429 6 0.2 6H5.8C5.91046 6 6 5.91046 6 5.8V0.2C6 0.0895431 5.91046 0 5.8 0H0.2ZM8.20004 0C8.08958 0 8.00004 0.0895429 8.00004 0.2V5.8C8.00004 5.91046 8.08958 6 8.20004 6H13.8C13.9105 6 14 5.91046 14 5.8V0.2C14 0.0895431 13.9105 0 13.8 0H8.20004ZM8.00004 8.19997C8.00004 8.08951 8.08958 7.99997 8.20004 7.99997H13.8C13.9105 7.99997 14 8.08951 14 8.19997V13.8C14 13.9104 13.9105 14 13.8 14H8.20004C8.08958 14 8.00004 13.9104 8.00004 13.8V8.19997ZM0.2 7.99997C0.0895431 7.99997 0 8.08951 0 8.19997V13.8C0 13.9104 0.0895429 14 0.2 14H5.8C5.91046 14 6 13.9104 6 13.8V8.19997C6 8.08951 5.91046 7.99997 5.8 7.99997H0.2Z" fill="#FF9023"/>
</svg>
