<svg t="1571731244754" class="icon" viewBox="0 0 1024 1024" version="1.1" xmlns="http://www.w3.org/2000/svg" p-id="6418" width="14" height="14"><path d="M807.9 343.3H219c-15.3 0-27.8 12.5-27.8 27.8 0 0.6 0 1.2 0.1 2l34.4 496.6c1.5 21.8 19.7 38.9 41.6 38.9h492.6c21.9 0 40.1-16.9 41.6-38.9l34.2-496.6c1.1-15.3-10.5-28.6-25.9-29.7-0.5-0.1-1.3-0.1-1.9-0.1zM667.1 495.9l-15.2 234.4c-1.3 19.1-17.4 33.8-36.5 33.3-18.3-0.5-32.6-15.7-32.1-34 0-0.4 0-0.8 0.1-1.2L598.6 494c1.2-19.1 17.4-33.8 36.6-33.3 18.3 0.5 32.6 15.7 32.1 34-0.2 0.3-0.2 0.8-0.2 1.2z m-237-2l13.4 234.4c1.1 18.4-13 34.1-31.4 35.1h-1c-19.1 0.5-35.1-14.2-36.2-33.3l-13.4-234.4c-1.1-18.4 13-34.1 31.4-35.1h1c19-0.5 35 14.2 36.2 33.3z" fill="#E54848" p-id="6419"></path><path d="M669.2 214.9l202.1 39c14.4 2.8 24.9 15.4 24.9 30 0 14-11.3 25.3-25.3 25.3H156.1c-14 0-25.3-11.3-25.3-25.3 0-14.7 10.4-27.3 24.9-30l202.1-39c9-1.5 16.1-8.5 18.4-17.6l12.9-54.7c2.9-12.6 14.2-21.4 27.1-21.4h194.4c12.8 0 24 8.8 27 21.3l13.3 54.9c2.1 9.1 9.3 16 18.3 17.5z" fill="#F6625F" p-id="6420"></path></svg>