<svg t="1571731299530" class="icon" viewBox="0 0 1024 1024" version="1.1" xmlns="http://www.w3.org/2000/svg" p-id="6937" width="14" height="14"><path d="M866.2 455.5h-0.5l-704.1-5.9c-35.3-0.3-63.8-29.2-63.5-64.5 0.3-35.2 28.9-63.5 64-63.5h0.5l598 5-31.1-60.1c-16.2-31.4-3.9-70 27.5-86.2 31.4-16.2 70-3.9 86.2 27.5L923 362.1c10.3 19.9 9.4 43.8-2.3 62.9-11.6 19-32.3 30.5-54.5 30.5z" fill="#408CFF" p-id="6938"></path><path d="M241.9 849.9c-23.2 0-45.5-12.6-56.9-34.6l-79.8-154.4c-10.3-19.9-9.4-43.8 2.3-62.9 11.6-19 32.3-30.5 54.5-30.5h0.5l704.1 5.9c35.3 0.3 63.8 29.2 63.5 64.5-0.3 35.2-28.9 63.5-64 63.5h-0.5l-598-5 31.1 60.1c16.2 31.4 3.9 70-27.5 86.2-9.3 4.9-19.4 7.2-29.3 7.2z" fill="#1574FF" p-id="6939"></path></svg>