<svg t="1571731192452" class="icon" viewBox="0 0 1024 1024" version="1.1" xmlns="http://www.w3.org/2000/svg" p-id="6072" width="14" height="14"><path d="M902.1 380.9H122c-10.2 0-16.4-11.8-10.9-20.9l151.2-248.5c2.4-3.9 6.5-6.3 10.9-6.3h477.1c4.4 0 8.5 2.4 10.9 6.2L913 360c5.5 9-0.7 20.9-10.9 20.9z" fill="#AD8DFF" p-id="6073"></path><path d="M893 443.3H131.2c-18.1 0-32.7 14.7-32.7 32.7v358.1c0 50.4 40.8 91.2 91.2 91.2h644.9c50.4 0 91.2-40.8 91.2-91.2V476c-0.1-18.1-14.7-32.7-32.8-32.7zM768.1 673.9c0 17.7-14.3 32-32 32H288c-17.7 0-32-14.3-32-32v-2c0-17.7 14.3-32 32-32h448.2c17.7 0 32 14.3 32 32v2z" fill="#8B63F4" p-id="6074"></path></svg>