<svg t="1571731282485" class="icon" viewBox="0 0 1024 1024" version="1.1" xmlns="http://www.w3.org/2000/svg" p-id="6764" width="14" height="14"><path d="M864.1 895.6H165.6c-35.3 0-63.9-28.6-63.9-63.9s28.6-63.9 63.9-63.9h698.5c35.3 0 63.9 28.6 63.9 63.9s-28.6 63.9-63.9 63.9z" fill="#0BC996" p-id="6765"></path><path d="M866 98.3H160c-34.2 0-62 27.8-62 62v481.6c0 34.2 27.8 62 62 62h706c34.2 0 62-27.8 62-62V160.3c0-34.3-27.8-62-62-62zM711.2 320.1L506.7 524.6c-6 6-14.1 9.4-22.6 9.4h-0.2c-8.5 0-16.7-3.5-22.7-9.6l-118.6-121c-12.4-12.6-12.2-32.9 0.5-45.3 12.6-12.4 32.9-12.2 45.3 0.5l96 97.9L666 274.8c12.5-12.5 32.8-12.5 45.3 0 12.4 12.5 12.4 32.8-0.1 45.3z" fill="#1EE8AF" p-id="6766"></path></svg>