<svg t="1571731129401" class="icon" viewBox="0 0 1024 1024" version="1.1" xmlns="http://www.w3.org/2000/svg" p-id="5807" width="14" height="14"><path d="M912.5 847.5s-8.1 19.5-18.9 0c0 0-120.1-340.1-412.8-254.4v105.5s-4.7 62.1-62.4 21.7L130.6 487.2s-61.1-31.1 3.7-73.8L425.2 179s43.7-29.3 54.2 18.7l0.3 113.9c0.1 0 545.7 24.5 432.8 535.9z m0 0" fill="#AD49E2" p-id="5808"></path><path d="M476.4 187.8c-14-33.8-51.2-8.9-51.2-8.9L134.3 413.5c-64.8 42.6-3.7 73.8-3.7 73.8l287.8 233.1c39.3 27.5 54 7.5 59.4-8l-1.4-524.6z" fill="#D072F7" p-id="5809"></path></svg>