<svg t="1571731264526" class="icon" viewBox="0 0 1024 1024" version="1.1" xmlns="http://www.w3.org/2000/svg" p-id="6591" width="14" height="14"><path d="M780.9 424.3s59.7 26.3 55.5 162.4l43 43s45.8-105.4 29.1-195.7c0 0-1.4-84.7-152.7-197.1 0 0-75 8.3-69.4-69.4l-59.7-59.7L518.5 216l52.7 52.8s130.5 5.5 84.7 112.4L460.3 578.3l-37.5-5.5-223.5 223.5s-15.3 54.1 23.6 87.4c0 0 25 30.6 77.7 29.1l219.3-227.7 4.2-37.5 223.5-222.1c0 0.2 12.5-19.3 33.3-1.2zM801.7 756" fill="#FC8A1A" p-id="6592"></path><path d="M292.7 104.6c-41.6-11.1-33.3 20.8-33.3 20.8 87.5 72.2 73.6 95.8 73.6 95.8-11.1 83.3-83.3 115.3-83.3 115.3-72.2 30.5-131.9-70.8-131.9-70.8-23.6-4.2-20.8 22.2-20.8 22.2 58.3 256.8 248.5 162.3 248.5 162.3l70.8 70.8 95.8-95.8-73.6-73.6c77.7-177.6-145.8-247-145.8-247zM853.3 765.4L666.1 584.9 569 682.1 746.7 871c23.5 25 63.1 25.6 87.4 1.3l20.1-20.1c24-24 23.6-63.2-0.9-86.8z m-35.9 77h-55.5l-17.1-52.8 44.9-32.6 44.9 32.6-17.2 52.8z" fill="#FFAF3B" p-id="6593"></path></svg>