<svg t="1571731224941" class="icon" viewBox="0 0 1024 1024" version="1.1" xmlns="http://www.w3.org/2000/svg" p-id="6245" width="14" height="14"><path d="M878.1 219.6v75.2C878.1 361 713.6 415 510.8 415s-367.3-54-367.3-120.2v-75.2c0-66.2 164.5-120.2 367.3-120.2s367.3 54 367.3 120.2z m0 166.7v169.4c0 66.3-164.5 120.4-367.3 120.4S143.5 622 143.5 555.7V386.3c78.9 54.6 223.3 80 367.3 80 143.9 0 288.4-25.4 367.3-80z m0 264v169.4c0 66.3-164.5 120.4-367.3 120.4S143.5 886 143.5 819.7V650.3c78.9 54.6 223.3 80 367.3 80 143.9 0 288.4-25.4 367.3-80z m0 0" fill="#3ABFED" p-id="6246"></path><path d="M469.8 90.5h81.3c1.3 0.8 4.4 0 6.6 0.4 4.4 0 8.4 0.4 12.8 0.8h4.9c1.8 0 3.5 0.4 5.3 0.8 4 0.4 7.5 0.4 11 0.8h5.3c4.9 0.8 10.2 0.8 15.5 1.7 11 1.3 22.1 2.9 33.1 4.2 9.7 2.1 19.9 2.9 29.6 5 21.2 4.6 41.9 8.3 61.4 14.6 5.3 1.7 9.7 2.9 15 4.2 15 4.6 30.5 10.4 44.2 17.1 8.4 4.2 16.8 7.5 24.3 12.5 4.9 3.3 10.2 5.8 15 9.2 2.6 1.7 4.9 3.7 7.5 5.8 12.8 9.6 25.2 21.2 31.8 36.7 3.1 7.5 7.5 18.7 5.3 29.6 0 1.3-0.4 2.5-0.4 4.2-1.3 5-2.6 9.6-4.4 13.7-5.3 12.9-17.7 26.2-28.3 34.2-1.3 1.3-3.1 2.5-4.4 3.8l-4 2.5c-5.3 3.8-11 7.5-16.8 11.2-5.7 3.8-11.9 6.3-18.1 9.6-7.9 3.8-16.8 7.9-25.6 11.2-8 2.9-15.9 5.4-24.3 8.3-12.4 4.2-26.1 7.5-38.9 11.2-6.2 1.7-12.4 2.5-18.1 4.2-1.8 0.4-4 0.4-5.7 0.8-7.1 1.7-15.5 2.9-23 4.6-9.3 1.3-18.1 2.9-27.4 4.2-3.1 0.4-6.2 0.8-9.3 0.8-7.5 1.7-16.3 1.7-23.8 2.9-2.2 0-4.4 0.4-6.6 0.4-4.4 0.8-9.7 0.8-14.6 1.3h-4.9c-4 0.8-9.3 0.8-13.7 0.8-1.3 0-2.6 0.4-4.4 0.4-3.5 0-7.1 0.4-11 0.4-4.4 0-8.8 0.4-13.2 0.4-9.7 0-19 0-28.7 0.4-7.1 0-14.1-0.4-21.2-0.4-6.2 0-12.8 0.4-18.5-0.4-4.4-0.4-8.8-0.4-12.8-0.4-12.8-1.2-27.4-1.2-39.7-3.3-3.5-0.4-7.1-0.4-10.6-0.8-11.9-2.1-24.3-2.5-35.3-5-2.7-0.4-5.7-0.8-8.4-0.8-11.5-2.5-23.4-3.8-34.9-6.7-26.1-6.2-51.7-12.1-74.6-21.2-7.1-2.5-13.7-4.6-20.3-7.5-35.8-15.4-69.8-34.6-87-67.5-1.3-2.9-2.6-6.3-3.5-9.2-0.4-1.7-0.4-3.8-1.8-5.4V230c0-7.5 0-13.7 2.2-19.2 1.3-3.3 2.2-6.7 4-10 1.3-2.9 3.5-5.8 5.3-8.3 5.7-7.9 11.9-15.8 19.9-21.7 4-2.9 7.5-6.2 11.5-8.7 4-2.5 7.9-5.4 11.9-8.3 7.1-4.6 14.6-8.3 22.1-11.7 2.2-1.2 4-2.1 6.2-3.3 5.3-1.7 10.2-4.2 15-6.7 8-3.3 15.9-5.8 23.8-8.7 5.3-2.1 11-4.2 16.8-5.4 5.7-1.7 11.9-3.8 17.7-5 8-1.7 15.5-3.7 23.4-5.8 3.5-0.8 6.6-0.8 10.2-2.1 10.6-2.9 22.5-4.2 33.1-6.2 4.9-0.8 9.3-0.8 13.7-1.7 8.8-1.7 19-2.1 28.3-3.8 2.2 0 4.4-0.4 6.2-0.4 4-0.8 8.8-0.8 13.2-1.2h4.9c3.5 1.2 6.6 1.2 9.7 0.8 4-0.4 8-0.4 12.4-0.8 4.9-0.9 11.1-0.9 16.8-1.3z m0 0" fill="#5FDDFF" p-id="6247"></path></svg>